%TF.GenerationSoftware,KiCad,Pcbnew,7.0.9*%
%TF.CreationDate,2024-06-22T09:01:44+05:30*%
%TF.ProjectId,BMS_LV_ADDON,424d535f-4c56-45f4-9144-444f4e2e6b69,rev?*%
%TF.SameCoordinates,Original*%
%TF.FileFunction,Drillmap*%
%TF.FilePolarity,Positive*%
%FSLAX45Y45*%
G04 Gerber Fmt 4.5, Leading zero omitted, Abs format (unit mm)*
G04 Created by KiCad (PCBNEW 7.0.9) date 2024-06-22 09:01:44*
%MOMM*%
%LPD*%
G01*
G04 APERTURE LIST*
%ADD10C,0.100000*%
%ADD11C,0.200000*%
%ADD12C,0.320000*%
G04 APERTURE END LIST*
D10*
X0Y0D02*
X8510000Y0D01*
X8510000Y-8510000D01*
X0Y-8510000D01*
X0Y0D01*
D11*
D12*
X1326300Y-180000D02*
X1646300Y-500000D01*
X1646300Y-180000D02*
X1326300Y-500000D01*
X1346000Y-8006000D02*
X1666000Y-8326000D01*
X1666000Y-8006000D02*
X1346000Y-8326000D01*
X8012000Y-180000D02*
X8332000Y-500000D01*
X8332000Y-180000D02*
X8012000Y-500000D01*
X8015000Y-8012000D02*
X8335000Y-8332000D01*
X8335000Y-8012000D02*
X8015000Y-8332000D01*
D11*
X255777Y-8826484D02*
X255777Y-8626484D01*
X255777Y-8626484D02*
X303396Y-8626484D01*
X303396Y-8626484D02*
X331967Y-8636008D01*
X331967Y-8636008D02*
X351015Y-8655055D01*
X351015Y-8655055D02*
X360539Y-8674103D01*
X360539Y-8674103D02*
X370062Y-8712198D01*
X370062Y-8712198D02*
X370062Y-8740770D01*
X370062Y-8740770D02*
X360539Y-8778865D01*
X360539Y-8778865D02*
X351015Y-8797912D01*
X351015Y-8797912D02*
X331967Y-8816960D01*
X331967Y-8816960D02*
X303396Y-8826484D01*
X303396Y-8826484D02*
X255777Y-8826484D01*
X455777Y-8826484D02*
X455777Y-8693150D01*
X455777Y-8731246D02*
X465301Y-8712198D01*
X465301Y-8712198D02*
X474824Y-8702674D01*
X474824Y-8702674D02*
X493872Y-8693150D01*
X493872Y-8693150D02*
X512920Y-8693150D01*
X579586Y-8826484D02*
X579586Y-8693150D01*
X579586Y-8626484D02*
X570063Y-8636008D01*
X570063Y-8636008D02*
X579586Y-8645531D01*
X579586Y-8645531D02*
X589110Y-8636008D01*
X589110Y-8636008D02*
X579586Y-8626484D01*
X579586Y-8626484D02*
X579586Y-8645531D01*
X703396Y-8826484D02*
X684348Y-8816960D01*
X684348Y-8816960D02*
X674824Y-8797912D01*
X674824Y-8797912D02*
X674824Y-8626484D01*
X808158Y-8826484D02*
X789110Y-8816960D01*
X789110Y-8816960D02*
X779586Y-8797912D01*
X779586Y-8797912D02*
X779586Y-8626484D01*
X1036729Y-8826484D02*
X1036729Y-8626484D01*
X1036729Y-8626484D02*
X1103396Y-8769341D01*
X1103396Y-8769341D02*
X1170063Y-8626484D01*
X1170063Y-8626484D02*
X1170063Y-8826484D01*
X1351015Y-8826484D02*
X1351015Y-8721722D01*
X1351015Y-8721722D02*
X1341491Y-8702674D01*
X1341491Y-8702674D02*
X1322444Y-8693150D01*
X1322444Y-8693150D02*
X1284348Y-8693150D01*
X1284348Y-8693150D02*
X1265301Y-8702674D01*
X1351015Y-8816960D02*
X1331967Y-8826484D01*
X1331967Y-8826484D02*
X1284348Y-8826484D01*
X1284348Y-8826484D02*
X1265301Y-8816960D01*
X1265301Y-8816960D02*
X1255777Y-8797912D01*
X1255777Y-8797912D02*
X1255777Y-8778865D01*
X1255777Y-8778865D02*
X1265301Y-8759817D01*
X1265301Y-8759817D02*
X1284348Y-8750293D01*
X1284348Y-8750293D02*
X1331967Y-8750293D01*
X1331967Y-8750293D02*
X1351015Y-8740770D01*
X1446253Y-8693150D02*
X1446253Y-8893150D01*
X1446253Y-8702674D02*
X1465301Y-8693150D01*
X1465301Y-8693150D02*
X1503396Y-8693150D01*
X1503396Y-8693150D02*
X1522443Y-8702674D01*
X1522443Y-8702674D02*
X1531967Y-8712198D01*
X1531967Y-8712198D02*
X1541491Y-8731246D01*
X1541491Y-8731246D02*
X1541491Y-8788389D01*
X1541491Y-8788389D02*
X1531967Y-8807436D01*
X1531967Y-8807436D02*
X1522443Y-8816960D01*
X1522443Y-8816960D02*
X1503396Y-8826484D01*
X1503396Y-8826484D02*
X1465301Y-8826484D01*
X1465301Y-8826484D02*
X1446253Y-8816960D01*
X1627205Y-8807436D02*
X1636729Y-8816960D01*
X1636729Y-8816960D02*
X1627205Y-8826484D01*
X1627205Y-8826484D02*
X1617682Y-8816960D01*
X1617682Y-8816960D02*
X1627205Y-8807436D01*
X1627205Y-8807436D02*
X1627205Y-8826484D01*
X1627205Y-8702674D02*
X1636729Y-8712198D01*
X1636729Y-8712198D02*
X1627205Y-8721722D01*
X1627205Y-8721722D02*
X1617682Y-8712198D01*
X1617682Y-8712198D02*
X1627205Y-8702674D01*
X1627205Y-8702674D02*
X1627205Y-8721722D01*
X-205000Y-9055000D02*
X-5000Y-9255000D01*
X-5000Y-9055000D02*
X-205000Y-9255000D01*
X236729Y-9046484D02*
X360539Y-9046484D01*
X360539Y-9046484D02*
X293872Y-9122674D01*
X293872Y-9122674D02*
X322444Y-9122674D01*
X322444Y-9122674D02*
X341491Y-9132198D01*
X341491Y-9132198D02*
X351015Y-9141722D01*
X351015Y-9141722D02*
X360539Y-9160770D01*
X360539Y-9160770D02*
X360539Y-9208389D01*
X360539Y-9208389D02*
X351015Y-9227436D01*
X351015Y-9227436D02*
X341491Y-9236960D01*
X341491Y-9236960D02*
X322444Y-9246484D01*
X322444Y-9246484D02*
X265301Y-9246484D01*
X265301Y-9246484D02*
X246253Y-9236960D01*
X246253Y-9236960D02*
X236729Y-9227436D01*
X446253Y-9227436D02*
X455777Y-9236960D01*
X455777Y-9236960D02*
X446253Y-9246484D01*
X446253Y-9246484D02*
X436729Y-9236960D01*
X436729Y-9236960D02*
X446253Y-9227436D01*
X446253Y-9227436D02*
X446253Y-9246484D01*
X531967Y-9065531D02*
X541491Y-9056008D01*
X541491Y-9056008D02*
X560539Y-9046484D01*
X560539Y-9046484D02*
X608158Y-9046484D01*
X608158Y-9046484D02*
X627205Y-9056008D01*
X627205Y-9056008D02*
X636729Y-9065531D01*
X636729Y-9065531D02*
X646253Y-9084579D01*
X646253Y-9084579D02*
X646253Y-9103627D01*
X646253Y-9103627D02*
X636729Y-9132198D01*
X636729Y-9132198D02*
X522443Y-9246484D01*
X522443Y-9246484D02*
X646253Y-9246484D01*
X770062Y-9046484D02*
X789110Y-9046484D01*
X789110Y-9046484D02*
X808158Y-9056008D01*
X808158Y-9056008D02*
X817682Y-9065531D01*
X817682Y-9065531D02*
X827205Y-9084579D01*
X827205Y-9084579D02*
X836729Y-9122674D01*
X836729Y-9122674D02*
X836729Y-9170293D01*
X836729Y-9170293D02*
X827205Y-9208389D01*
X827205Y-9208389D02*
X817682Y-9227436D01*
X817682Y-9227436D02*
X808158Y-9236960D01*
X808158Y-9236960D02*
X789110Y-9246484D01*
X789110Y-9246484D02*
X770062Y-9246484D01*
X770062Y-9246484D02*
X751015Y-9236960D01*
X751015Y-9236960D02*
X741491Y-9227436D01*
X741491Y-9227436D02*
X731967Y-9208389D01*
X731967Y-9208389D02*
X722443Y-9170293D01*
X722443Y-9170293D02*
X722443Y-9122674D01*
X722443Y-9122674D02*
X731967Y-9084579D01*
X731967Y-9084579D02*
X741491Y-9065531D01*
X741491Y-9065531D02*
X751015Y-9056008D01*
X751015Y-9056008D02*
X770062Y-9046484D01*
X960539Y-9046484D02*
X979586Y-9046484D01*
X979586Y-9046484D02*
X998634Y-9056008D01*
X998634Y-9056008D02*
X1008158Y-9065531D01*
X1008158Y-9065531D02*
X1017682Y-9084579D01*
X1017682Y-9084579D02*
X1027205Y-9122674D01*
X1027205Y-9122674D02*
X1027205Y-9170293D01*
X1027205Y-9170293D02*
X1017682Y-9208389D01*
X1017682Y-9208389D02*
X1008158Y-9227436D01*
X1008158Y-9227436D02*
X998634Y-9236960D01*
X998634Y-9236960D02*
X979586Y-9246484D01*
X979586Y-9246484D02*
X960539Y-9246484D01*
X960539Y-9246484D02*
X941491Y-9236960D01*
X941491Y-9236960D02*
X931967Y-9227436D01*
X931967Y-9227436D02*
X922443Y-9208389D01*
X922443Y-9208389D02*
X912920Y-9170293D01*
X912920Y-9170293D02*
X912920Y-9122674D01*
X912920Y-9122674D02*
X922443Y-9084579D01*
X922443Y-9084579D02*
X931967Y-9065531D01*
X931967Y-9065531D02*
X941491Y-9056008D01*
X941491Y-9056008D02*
X960539Y-9046484D01*
X1112920Y-9246484D02*
X1112920Y-9113150D01*
X1112920Y-9132198D02*
X1122444Y-9122674D01*
X1122444Y-9122674D02*
X1141491Y-9113150D01*
X1141491Y-9113150D02*
X1170063Y-9113150D01*
X1170063Y-9113150D02*
X1189110Y-9122674D01*
X1189110Y-9122674D02*
X1198634Y-9141722D01*
X1198634Y-9141722D02*
X1198634Y-9246484D01*
X1198634Y-9141722D02*
X1208158Y-9122674D01*
X1208158Y-9122674D02*
X1227205Y-9113150D01*
X1227205Y-9113150D02*
X1255777Y-9113150D01*
X1255777Y-9113150D02*
X1274825Y-9122674D01*
X1274825Y-9122674D02*
X1284348Y-9141722D01*
X1284348Y-9141722D02*
X1284348Y-9246484D01*
X1379586Y-9246484D02*
X1379586Y-9113150D01*
X1379586Y-9132198D02*
X1389110Y-9122674D01*
X1389110Y-9122674D02*
X1408158Y-9113150D01*
X1408158Y-9113150D02*
X1436729Y-9113150D01*
X1436729Y-9113150D02*
X1455777Y-9122674D01*
X1455777Y-9122674D02*
X1465301Y-9141722D01*
X1465301Y-9141722D02*
X1465301Y-9246484D01*
X1465301Y-9141722D02*
X1474824Y-9122674D01*
X1474824Y-9122674D02*
X1493872Y-9113150D01*
X1493872Y-9113150D02*
X1522443Y-9113150D01*
X1522443Y-9113150D02*
X1541491Y-9122674D01*
X1541491Y-9122674D02*
X1551015Y-9141722D01*
X1551015Y-9141722D02*
X1551015Y-9246484D01*
X1941491Y-9036960D02*
X1770063Y-9294103D01*
X2198634Y-9046484D02*
X2217682Y-9046484D01*
X2217682Y-9046484D02*
X2236729Y-9056008D01*
X2236729Y-9056008D02*
X2246253Y-9065531D01*
X2246253Y-9065531D02*
X2255777Y-9084579D01*
X2255777Y-9084579D02*
X2265301Y-9122674D01*
X2265301Y-9122674D02*
X2265301Y-9170293D01*
X2265301Y-9170293D02*
X2255777Y-9208389D01*
X2255777Y-9208389D02*
X2246253Y-9227436D01*
X2246253Y-9227436D02*
X2236729Y-9236960D01*
X2236729Y-9236960D02*
X2217682Y-9246484D01*
X2217682Y-9246484D02*
X2198634Y-9246484D01*
X2198634Y-9246484D02*
X2179587Y-9236960D01*
X2179587Y-9236960D02*
X2170063Y-9227436D01*
X2170063Y-9227436D02*
X2160539Y-9208389D01*
X2160539Y-9208389D02*
X2151015Y-9170293D01*
X2151015Y-9170293D02*
X2151015Y-9122674D01*
X2151015Y-9122674D02*
X2160539Y-9084579D01*
X2160539Y-9084579D02*
X2170063Y-9065531D01*
X2170063Y-9065531D02*
X2179587Y-9056008D01*
X2179587Y-9056008D02*
X2198634Y-9046484D01*
X2351015Y-9227436D02*
X2360539Y-9236960D01*
X2360539Y-9236960D02*
X2351015Y-9246484D01*
X2351015Y-9246484D02*
X2341491Y-9236960D01*
X2341491Y-9236960D02*
X2351015Y-9227436D01*
X2351015Y-9227436D02*
X2351015Y-9246484D01*
X2551015Y-9246484D02*
X2436729Y-9246484D01*
X2493872Y-9246484D02*
X2493872Y-9046484D01*
X2493872Y-9046484D02*
X2474825Y-9075055D01*
X2474825Y-9075055D02*
X2455777Y-9094103D01*
X2455777Y-9094103D02*
X2436729Y-9103627D01*
X2627206Y-9065531D02*
X2636729Y-9056008D01*
X2636729Y-9056008D02*
X2655777Y-9046484D01*
X2655777Y-9046484D02*
X2703396Y-9046484D01*
X2703396Y-9046484D02*
X2722444Y-9056008D01*
X2722444Y-9056008D02*
X2731968Y-9065531D01*
X2731968Y-9065531D02*
X2741491Y-9084579D01*
X2741491Y-9084579D02*
X2741491Y-9103627D01*
X2741491Y-9103627D02*
X2731968Y-9132198D01*
X2731968Y-9132198D02*
X2617682Y-9246484D01*
X2617682Y-9246484D02*
X2741491Y-9246484D01*
X2912920Y-9046484D02*
X2874825Y-9046484D01*
X2874825Y-9046484D02*
X2855777Y-9056008D01*
X2855777Y-9056008D02*
X2846253Y-9065531D01*
X2846253Y-9065531D02*
X2827206Y-9094103D01*
X2827206Y-9094103D02*
X2817682Y-9132198D01*
X2817682Y-9132198D02*
X2817682Y-9208389D01*
X2817682Y-9208389D02*
X2827206Y-9227436D01*
X2827206Y-9227436D02*
X2836729Y-9236960D01*
X2836729Y-9236960D02*
X2855777Y-9246484D01*
X2855777Y-9246484D02*
X2893872Y-9246484D01*
X2893872Y-9246484D02*
X2912920Y-9236960D01*
X2912920Y-9236960D02*
X2922444Y-9227436D01*
X2922444Y-9227436D02*
X2931967Y-9208389D01*
X2931967Y-9208389D02*
X2931967Y-9160770D01*
X2931967Y-9160770D02*
X2922444Y-9141722D01*
X2922444Y-9141722D02*
X2912920Y-9132198D01*
X2912920Y-9132198D02*
X2893872Y-9122674D01*
X2893872Y-9122674D02*
X2855777Y-9122674D01*
X2855777Y-9122674D02*
X2836729Y-9132198D01*
X2836729Y-9132198D02*
X2827206Y-9141722D01*
X2827206Y-9141722D02*
X2817682Y-9160770D01*
X3055777Y-9046484D02*
X3074825Y-9046484D01*
X3074825Y-9046484D02*
X3093872Y-9056008D01*
X3093872Y-9056008D02*
X3103396Y-9065531D01*
X3103396Y-9065531D02*
X3112920Y-9084579D01*
X3112920Y-9084579D02*
X3122444Y-9122674D01*
X3122444Y-9122674D02*
X3122444Y-9170293D01*
X3122444Y-9170293D02*
X3112920Y-9208389D01*
X3112920Y-9208389D02*
X3103396Y-9227436D01*
X3103396Y-9227436D02*
X3093872Y-9236960D01*
X3093872Y-9236960D02*
X3074825Y-9246484D01*
X3074825Y-9246484D02*
X3055777Y-9246484D01*
X3055777Y-9246484D02*
X3036729Y-9236960D01*
X3036729Y-9236960D02*
X3027206Y-9227436D01*
X3027206Y-9227436D02*
X3017682Y-9208389D01*
X3017682Y-9208389D02*
X3008158Y-9170293D01*
X3008158Y-9170293D02*
X3008158Y-9122674D01*
X3008158Y-9122674D02*
X3017682Y-9084579D01*
X3017682Y-9084579D02*
X3027206Y-9065531D01*
X3027206Y-9065531D02*
X3036729Y-9056008D01*
X3036729Y-9056008D02*
X3055777Y-9046484D01*
X3198634Y-9046484D02*
X3198634Y-9084579D01*
X3274825Y-9046484D02*
X3274825Y-9084579D01*
X3570063Y-9322674D02*
X3560539Y-9313150D01*
X3560539Y-9313150D02*
X3541491Y-9284579D01*
X3541491Y-9284579D02*
X3531968Y-9265531D01*
X3531968Y-9265531D02*
X3522444Y-9236960D01*
X3522444Y-9236960D02*
X3512920Y-9189341D01*
X3512920Y-9189341D02*
X3512920Y-9151246D01*
X3512920Y-9151246D02*
X3522444Y-9103627D01*
X3522444Y-9103627D02*
X3531968Y-9075055D01*
X3531968Y-9075055D02*
X3541491Y-9056008D01*
X3541491Y-9056008D02*
X3560539Y-9027436D01*
X3560539Y-9027436D02*
X3570063Y-9017912D01*
X3731968Y-9113150D02*
X3731968Y-9246484D01*
X3684348Y-9036960D02*
X3636729Y-9179817D01*
X3636729Y-9179817D02*
X3760539Y-9179817D01*
X3989110Y-9246484D02*
X3989110Y-9046484D01*
X4074825Y-9246484D02*
X4074825Y-9141722D01*
X4074825Y-9141722D02*
X4065301Y-9122674D01*
X4065301Y-9122674D02*
X4046253Y-9113150D01*
X4046253Y-9113150D02*
X4017682Y-9113150D01*
X4017682Y-9113150D02*
X3998634Y-9122674D01*
X3998634Y-9122674D02*
X3989110Y-9132198D01*
X4198634Y-9246484D02*
X4179587Y-9236960D01*
X4179587Y-9236960D02*
X4170063Y-9227436D01*
X4170063Y-9227436D02*
X4160539Y-9208389D01*
X4160539Y-9208389D02*
X4160539Y-9151246D01*
X4160539Y-9151246D02*
X4170063Y-9132198D01*
X4170063Y-9132198D02*
X4179587Y-9122674D01*
X4179587Y-9122674D02*
X4198634Y-9113150D01*
X4198634Y-9113150D02*
X4227206Y-9113150D01*
X4227206Y-9113150D02*
X4246253Y-9122674D01*
X4246253Y-9122674D02*
X4255777Y-9132198D01*
X4255777Y-9132198D02*
X4265301Y-9151246D01*
X4265301Y-9151246D02*
X4265301Y-9208389D01*
X4265301Y-9208389D02*
X4255777Y-9227436D01*
X4255777Y-9227436D02*
X4246253Y-9236960D01*
X4246253Y-9236960D02*
X4227206Y-9246484D01*
X4227206Y-9246484D02*
X4198634Y-9246484D01*
X4379587Y-9246484D02*
X4360539Y-9236960D01*
X4360539Y-9236960D02*
X4351015Y-9217912D01*
X4351015Y-9217912D02*
X4351015Y-9046484D01*
X4531968Y-9236960D02*
X4512920Y-9246484D01*
X4512920Y-9246484D02*
X4474825Y-9246484D01*
X4474825Y-9246484D02*
X4455777Y-9236960D01*
X4455777Y-9236960D02*
X4446253Y-9217912D01*
X4446253Y-9217912D02*
X4446253Y-9141722D01*
X4446253Y-9141722D02*
X4455777Y-9122674D01*
X4455777Y-9122674D02*
X4474825Y-9113150D01*
X4474825Y-9113150D02*
X4512920Y-9113150D01*
X4512920Y-9113150D02*
X4531968Y-9122674D01*
X4531968Y-9122674D02*
X4541492Y-9141722D01*
X4541492Y-9141722D02*
X4541492Y-9160770D01*
X4541492Y-9160770D02*
X4446253Y-9179817D01*
X4617682Y-9236960D02*
X4636730Y-9246484D01*
X4636730Y-9246484D02*
X4674825Y-9246484D01*
X4674825Y-9246484D02*
X4693873Y-9236960D01*
X4693873Y-9236960D02*
X4703396Y-9217912D01*
X4703396Y-9217912D02*
X4703396Y-9208389D01*
X4703396Y-9208389D02*
X4693873Y-9189341D01*
X4693873Y-9189341D02*
X4674825Y-9179817D01*
X4674825Y-9179817D02*
X4646253Y-9179817D01*
X4646253Y-9179817D02*
X4627206Y-9170293D01*
X4627206Y-9170293D02*
X4617682Y-9151246D01*
X4617682Y-9151246D02*
X4617682Y-9141722D01*
X4617682Y-9141722D02*
X4627206Y-9122674D01*
X4627206Y-9122674D02*
X4646253Y-9113150D01*
X4646253Y-9113150D02*
X4674825Y-9113150D01*
X4674825Y-9113150D02*
X4693873Y-9122674D01*
X4770063Y-9322674D02*
X4779587Y-9313150D01*
X4779587Y-9313150D02*
X4798634Y-9284579D01*
X4798634Y-9284579D02*
X4808158Y-9265531D01*
X4808158Y-9265531D02*
X4817682Y-9236960D01*
X4817682Y-9236960D02*
X4827206Y-9189341D01*
X4827206Y-9189341D02*
X4827206Y-9151246D01*
X4827206Y-9151246D02*
X4817682Y-9103627D01*
X4817682Y-9103627D02*
X4808158Y-9075055D01*
X4808158Y-9075055D02*
X4798634Y-9056008D01*
X4798634Y-9056008D02*
X4779587Y-9027436D01*
X4779587Y-9027436D02*
X4770063Y-9017912D01*
X5131968Y-9322674D02*
X5122444Y-9313150D01*
X5122444Y-9313150D02*
X5103396Y-9284579D01*
X5103396Y-9284579D02*
X5093873Y-9265531D01*
X5093873Y-9265531D02*
X5084349Y-9236960D01*
X5084349Y-9236960D02*
X5074825Y-9189341D01*
X5074825Y-9189341D02*
X5074825Y-9151246D01*
X5074825Y-9151246D02*
X5084349Y-9103627D01*
X5084349Y-9103627D02*
X5093873Y-9075055D01*
X5093873Y-9075055D02*
X5103396Y-9056008D01*
X5103396Y-9056008D02*
X5122444Y-9027436D01*
X5122444Y-9027436D02*
X5131968Y-9017912D01*
X5208158Y-9113150D02*
X5208158Y-9246484D01*
X5208158Y-9132198D02*
X5217682Y-9122674D01*
X5217682Y-9122674D02*
X5236730Y-9113150D01*
X5236730Y-9113150D02*
X5265301Y-9113150D01*
X5265301Y-9113150D02*
X5284349Y-9122674D01*
X5284349Y-9122674D02*
X5293873Y-9141722D01*
X5293873Y-9141722D02*
X5293873Y-9246484D01*
X5417682Y-9246484D02*
X5398634Y-9236960D01*
X5398634Y-9236960D02*
X5389111Y-9227436D01*
X5389111Y-9227436D02*
X5379587Y-9208389D01*
X5379587Y-9208389D02*
X5379587Y-9151246D01*
X5379587Y-9151246D02*
X5389111Y-9132198D01*
X5389111Y-9132198D02*
X5398634Y-9122674D01*
X5398634Y-9122674D02*
X5417682Y-9113150D01*
X5417682Y-9113150D02*
X5446254Y-9113150D01*
X5446254Y-9113150D02*
X5465301Y-9122674D01*
X5465301Y-9122674D02*
X5474825Y-9132198D01*
X5474825Y-9132198D02*
X5484349Y-9151246D01*
X5484349Y-9151246D02*
X5484349Y-9208389D01*
X5484349Y-9208389D02*
X5474825Y-9227436D01*
X5474825Y-9227436D02*
X5465301Y-9236960D01*
X5465301Y-9236960D02*
X5446254Y-9246484D01*
X5446254Y-9246484D02*
X5417682Y-9246484D01*
X5541492Y-9113150D02*
X5617682Y-9113150D01*
X5570063Y-9046484D02*
X5570063Y-9217912D01*
X5570063Y-9217912D02*
X5579587Y-9236960D01*
X5579587Y-9236960D02*
X5598634Y-9246484D01*
X5598634Y-9246484D02*
X5617682Y-9246484D01*
X5836730Y-9113150D02*
X5836730Y-9313150D01*
X5836730Y-9122674D02*
X5855777Y-9113150D01*
X5855777Y-9113150D02*
X5893873Y-9113150D01*
X5893873Y-9113150D02*
X5912920Y-9122674D01*
X5912920Y-9122674D02*
X5922444Y-9132198D01*
X5922444Y-9132198D02*
X5931968Y-9151246D01*
X5931968Y-9151246D02*
X5931968Y-9208389D01*
X5931968Y-9208389D02*
X5922444Y-9227436D01*
X5922444Y-9227436D02*
X5912920Y-9236960D01*
X5912920Y-9236960D02*
X5893873Y-9246484D01*
X5893873Y-9246484D02*
X5855777Y-9246484D01*
X5855777Y-9246484D02*
X5836730Y-9236960D01*
X6046253Y-9246484D02*
X6027206Y-9236960D01*
X6027206Y-9236960D02*
X6017682Y-9217912D01*
X6017682Y-9217912D02*
X6017682Y-9046484D01*
X6208158Y-9246484D02*
X6208158Y-9141722D01*
X6208158Y-9141722D02*
X6198634Y-9122674D01*
X6198634Y-9122674D02*
X6179587Y-9113150D01*
X6179587Y-9113150D02*
X6141492Y-9113150D01*
X6141492Y-9113150D02*
X6122444Y-9122674D01*
X6208158Y-9236960D02*
X6189111Y-9246484D01*
X6189111Y-9246484D02*
X6141492Y-9246484D01*
X6141492Y-9246484D02*
X6122444Y-9236960D01*
X6122444Y-9236960D02*
X6112920Y-9217912D01*
X6112920Y-9217912D02*
X6112920Y-9198865D01*
X6112920Y-9198865D02*
X6122444Y-9179817D01*
X6122444Y-9179817D02*
X6141492Y-9170293D01*
X6141492Y-9170293D02*
X6189111Y-9170293D01*
X6189111Y-9170293D02*
X6208158Y-9160770D01*
X6274825Y-9113150D02*
X6351015Y-9113150D01*
X6303396Y-9046484D02*
X6303396Y-9217912D01*
X6303396Y-9217912D02*
X6312920Y-9236960D01*
X6312920Y-9236960D02*
X6331968Y-9246484D01*
X6331968Y-9246484D02*
X6351015Y-9246484D01*
X6493873Y-9236960D02*
X6474825Y-9246484D01*
X6474825Y-9246484D02*
X6436730Y-9246484D01*
X6436730Y-9246484D02*
X6417682Y-9236960D01*
X6417682Y-9236960D02*
X6408158Y-9217912D01*
X6408158Y-9217912D02*
X6408158Y-9141722D01*
X6408158Y-9141722D02*
X6417682Y-9122674D01*
X6417682Y-9122674D02*
X6436730Y-9113150D01*
X6436730Y-9113150D02*
X6474825Y-9113150D01*
X6474825Y-9113150D02*
X6493873Y-9122674D01*
X6493873Y-9122674D02*
X6503396Y-9141722D01*
X6503396Y-9141722D02*
X6503396Y-9160770D01*
X6503396Y-9160770D02*
X6408158Y-9179817D01*
X6674825Y-9246484D02*
X6674825Y-9046484D01*
X6674825Y-9236960D02*
X6655777Y-9246484D01*
X6655777Y-9246484D02*
X6617682Y-9246484D01*
X6617682Y-9246484D02*
X6598634Y-9236960D01*
X6598634Y-9236960D02*
X6589111Y-9227436D01*
X6589111Y-9227436D02*
X6579587Y-9208389D01*
X6579587Y-9208389D02*
X6579587Y-9151246D01*
X6579587Y-9151246D02*
X6589111Y-9132198D01*
X6589111Y-9132198D02*
X6598634Y-9122674D01*
X6598634Y-9122674D02*
X6617682Y-9113150D01*
X6617682Y-9113150D02*
X6655777Y-9113150D01*
X6655777Y-9113150D02*
X6674825Y-9122674D01*
X6751015Y-9322674D02*
X6760539Y-9313150D01*
X6760539Y-9313150D02*
X6779587Y-9284579D01*
X6779587Y-9284579D02*
X6789111Y-9265531D01*
X6789111Y-9265531D02*
X6798634Y-9236960D01*
X6798634Y-9236960D02*
X6808158Y-9189341D01*
X6808158Y-9189341D02*
X6808158Y-9151246D01*
X6808158Y-9151246D02*
X6798634Y-9103627D01*
X6798634Y-9103627D02*
X6789111Y-9075055D01*
X6789111Y-9075055D02*
X6779587Y-9056008D01*
X6779587Y-9056008D02*
X6760539Y-9027436D01*
X6760539Y-9027436D02*
X6751015Y-9017912D01*
M02*
