%TF.GenerationSoftware,KiCad,Pcbnew,7.0.9*%
%TF.CreationDate,2024-06-22T09:01:39+05:30*%
%TF.ProjectId,BMS_LV_ADDON,424d535f-4c56-45f4-9144-444f4e2e6b69,rev?*%
%TF.SameCoordinates,Original*%
%TF.FileFunction,Legend,Top*%
%TF.FilePolarity,Positive*%
%FSLAX46Y46*%
G04 Gerber Fmt 4.6, Leading zero omitted, Abs format (unit mm)*
G04 Created by KiCad (PCBNEW 7.0.9) date 2024-06-22 09:01:39*
%MOMM*%
%LPD*%
G01*
G04 APERTURE LIST*
%ADD10C,0.250000*%
%ADD11C,0.200000*%
%ADD12C,0.300000*%
%ADD13C,0.150000*%
%ADD14C,0.120000*%
G04 APERTURE END LIST*
D10*
X73535901Y-66140809D02*
X73678758Y-66188428D01*
X73678758Y-66188428D02*
X73726377Y-66236047D01*
X73726377Y-66236047D02*
X73773996Y-66331285D01*
X73773996Y-66331285D02*
X73773996Y-66474142D01*
X73773996Y-66474142D02*
X73726377Y-66569380D01*
X73726377Y-66569380D02*
X73678758Y-66617000D01*
X73678758Y-66617000D02*
X73583520Y-66664619D01*
X73583520Y-66664619D02*
X73202568Y-66664619D01*
X73202568Y-66664619D02*
X73202568Y-65664619D01*
X73202568Y-65664619D02*
X73535901Y-65664619D01*
X73535901Y-65664619D02*
X73631139Y-65712238D01*
X73631139Y-65712238D02*
X73678758Y-65759857D01*
X73678758Y-65759857D02*
X73726377Y-65855095D01*
X73726377Y-65855095D02*
X73726377Y-65950333D01*
X73726377Y-65950333D02*
X73678758Y-66045571D01*
X73678758Y-66045571D02*
X73631139Y-66093190D01*
X73631139Y-66093190D02*
X73535901Y-66140809D01*
X73535901Y-66140809D02*
X73202568Y-66140809D01*
X74154949Y-66378904D02*
X74631139Y-66378904D01*
X74059711Y-66664619D02*
X74393044Y-65664619D01*
X74393044Y-65664619D02*
X74726377Y-66664619D01*
X74916854Y-65664619D02*
X75488282Y-65664619D01*
X75202568Y-66664619D02*
X75202568Y-65664619D01*
X75678759Y-65664619D02*
X76250187Y-65664619D01*
X75964473Y-66664619D02*
X75964473Y-65664619D01*
X76583521Y-66283666D02*
X77345426Y-66283666D01*
X76964473Y-66664619D02*
X76964473Y-65902714D01*
X73535901Y-54340809D02*
X73678758Y-54388428D01*
X73678758Y-54388428D02*
X73726377Y-54436047D01*
X73726377Y-54436047D02*
X73773996Y-54531285D01*
X73773996Y-54531285D02*
X73773996Y-54674142D01*
X73773996Y-54674142D02*
X73726377Y-54769380D01*
X73726377Y-54769380D02*
X73678758Y-54817000D01*
X73678758Y-54817000D02*
X73583520Y-54864619D01*
X73583520Y-54864619D02*
X73202568Y-54864619D01*
X73202568Y-54864619D02*
X73202568Y-53864619D01*
X73202568Y-53864619D02*
X73535901Y-53864619D01*
X73535901Y-53864619D02*
X73631139Y-53912238D01*
X73631139Y-53912238D02*
X73678758Y-53959857D01*
X73678758Y-53959857D02*
X73726377Y-54055095D01*
X73726377Y-54055095D02*
X73726377Y-54150333D01*
X73726377Y-54150333D02*
X73678758Y-54245571D01*
X73678758Y-54245571D02*
X73631139Y-54293190D01*
X73631139Y-54293190D02*
X73535901Y-54340809D01*
X73535901Y-54340809D02*
X73202568Y-54340809D01*
X74154949Y-54578904D02*
X74631139Y-54578904D01*
X74059711Y-54864619D02*
X74393044Y-53864619D01*
X74393044Y-53864619D02*
X74726377Y-54864619D01*
X74916854Y-53864619D02*
X75488282Y-53864619D01*
X75202568Y-54864619D02*
X75202568Y-53864619D01*
X75678759Y-53864619D02*
X76250187Y-53864619D01*
X75964473Y-54864619D02*
X75964473Y-53864619D01*
X76583521Y-54483666D02*
X77345426Y-54483666D01*
X76964473Y-54864619D02*
X76964473Y-54102714D01*
X73535901Y-61140809D02*
X73678758Y-61188428D01*
X73678758Y-61188428D02*
X73726377Y-61236047D01*
X73726377Y-61236047D02*
X73773996Y-61331285D01*
X73773996Y-61331285D02*
X73773996Y-61474142D01*
X73773996Y-61474142D02*
X73726377Y-61569380D01*
X73726377Y-61569380D02*
X73678758Y-61617000D01*
X73678758Y-61617000D02*
X73583520Y-61664619D01*
X73583520Y-61664619D02*
X73202568Y-61664619D01*
X73202568Y-61664619D02*
X73202568Y-60664619D01*
X73202568Y-60664619D02*
X73535901Y-60664619D01*
X73535901Y-60664619D02*
X73631139Y-60712238D01*
X73631139Y-60712238D02*
X73678758Y-60759857D01*
X73678758Y-60759857D02*
X73726377Y-60855095D01*
X73726377Y-60855095D02*
X73726377Y-60950333D01*
X73726377Y-60950333D02*
X73678758Y-61045571D01*
X73678758Y-61045571D02*
X73631139Y-61093190D01*
X73631139Y-61093190D02*
X73535901Y-61140809D01*
X73535901Y-61140809D02*
X73202568Y-61140809D01*
X74154949Y-61378904D02*
X74631139Y-61378904D01*
X74059711Y-61664619D02*
X74393044Y-60664619D01*
X74393044Y-60664619D02*
X74726377Y-61664619D01*
X74916854Y-60664619D02*
X75488282Y-60664619D01*
X75202568Y-61664619D02*
X75202568Y-60664619D01*
X75678759Y-60664619D02*
X76250187Y-60664619D01*
X75964473Y-61664619D02*
X75964473Y-60664619D01*
X76583521Y-61283666D02*
X77345426Y-61283666D01*
X73535901Y-49540809D02*
X73678758Y-49588428D01*
X73678758Y-49588428D02*
X73726377Y-49636047D01*
X73726377Y-49636047D02*
X73773996Y-49731285D01*
X73773996Y-49731285D02*
X73773996Y-49874142D01*
X73773996Y-49874142D02*
X73726377Y-49969380D01*
X73726377Y-49969380D02*
X73678758Y-50017000D01*
X73678758Y-50017000D02*
X73583520Y-50064619D01*
X73583520Y-50064619D02*
X73202568Y-50064619D01*
X73202568Y-50064619D02*
X73202568Y-49064619D01*
X73202568Y-49064619D02*
X73535901Y-49064619D01*
X73535901Y-49064619D02*
X73631139Y-49112238D01*
X73631139Y-49112238D02*
X73678758Y-49159857D01*
X73678758Y-49159857D02*
X73726377Y-49255095D01*
X73726377Y-49255095D02*
X73726377Y-49350333D01*
X73726377Y-49350333D02*
X73678758Y-49445571D01*
X73678758Y-49445571D02*
X73631139Y-49493190D01*
X73631139Y-49493190D02*
X73535901Y-49540809D01*
X73535901Y-49540809D02*
X73202568Y-49540809D01*
X74154949Y-49778904D02*
X74631139Y-49778904D01*
X74059711Y-50064619D02*
X74393044Y-49064619D01*
X74393044Y-49064619D02*
X74726377Y-50064619D01*
X74916854Y-49064619D02*
X75488282Y-49064619D01*
X75202568Y-50064619D02*
X75202568Y-49064619D01*
X75678759Y-49064619D02*
X76250187Y-49064619D01*
X75964473Y-50064619D02*
X75964473Y-49064619D01*
X76583521Y-49683666D02*
X77345426Y-49683666D01*
D11*
X67941695Y-8104136D02*
X67941695Y-7608898D01*
X67941695Y-7608898D02*
X68246457Y-7875564D01*
X68246457Y-7875564D02*
X68246457Y-7761279D01*
X68246457Y-7761279D02*
X68284552Y-7685088D01*
X68284552Y-7685088D02*
X68322647Y-7646993D01*
X68322647Y-7646993D02*
X68398838Y-7608898D01*
X68398838Y-7608898D02*
X68589314Y-7608898D01*
X68589314Y-7608898D02*
X68665504Y-7646993D01*
X68665504Y-7646993D02*
X68703600Y-7685088D01*
X68703600Y-7685088D02*
X68741695Y-7761279D01*
X68741695Y-7761279D02*
X68741695Y-7989850D01*
X68741695Y-7989850D02*
X68703600Y-8066041D01*
X68703600Y-8066041D02*
X68665504Y-8104136D01*
X67941695Y-7380326D02*
X68741695Y-7113659D01*
X68741695Y-7113659D02*
X67941695Y-6846993D01*
X67941695Y-6656517D02*
X67941695Y-6161279D01*
X67941695Y-6161279D02*
X68246457Y-6427945D01*
X68246457Y-6427945D02*
X68246457Y-6313660D01*
X68246457Y-6313660D02*
X68284552Y-6237469D01*
X68284552Y-6237469D02*
X68322647Y-6199374D01*
X68322647Y-6199374D02*
X68398838Y-6161279D01*
X68398838Y-6161279D02*
X68589314Y-6161279D01*
X68589314Y-6161279D02*
X68665504Y-6199374D01*
X68665504Y-6199374D02*
X68703600Y-6237469D01*
X68703600Y-6237469D02*
X68741695Y-6313660D01*
X68741695Y-6313660D02*
X68741695Y-6542231D01*
X68741695Y-6542231D02*
X68703600Y-6618422D01*
X68703600Y-6618422D02*
X68665504Y-6656517D01*
X66115504Y-7570802D02*
X66153600Y-7608898D01*
X66153600Y-7608898D02*
X66191695Y-7723183D01*
X66191695Y-7723183D02*
X66191695Y-7799374D01*
X66191695Y-7799374D02*
X66153600Y-7913660D01*
X66153600Y-7913660D02*
X66077409Y-7989850D01*
X66077409Y-7989850D02*
X66001219Y-8027945D01*
X66001219Y-8027945D02*
X65848838Y-8066041D01*
X65848838Y-8066041D02*
X65734552Y-8066041D01*
X65734552Y-8066041D02*
X65582171Y-8027945D01*
X65582171Y-8027945D02*
X65505980Y-7989850D01*
X65505980Y-7989850D02*
X65429790Y-7913660D01*
X65429790Y-7913660D02*
X65391695Y-7799374D01*
X65391695Y-7799374D02*
X65391695Y-7723183D01*
X65391695Y-7723183D02*
X65429790Y-7608898D01*
X65429790Y-7608898D02*
X65467885Y-7570802D01*
X66191695Y-6846993D02*
X66191695Y-7227945D01*
X66191695Y-7227945D02*
X65391695Y-7227945D01*
X66191695Y-6580326D02*
X65391695Y-6580326D01*
X66191695Y-6123183D02*
X65734552Y-6466041D01*
X65391695Y-6123183D02*
X65848838Y-6580326D01*
X63741695Y-7877945D02*
X62941695Y-7877945D01*
X62941695Y-7877945D02*
X62941695Y-7687469D01*
X62941695Y-7687469D02*
X62979790Y-7573183D01*
X62979790Y-7573183D02*
X63055980Y-7496993D01*
X63055980Y-7496993D02*
X63132171Y-7458898D01*
X63132171Y-7458898D02*
X63284552Y-7420802D01*
X63284552Y-7420802D02*
X63398838Y-7420802D01*
X63398838Y-7420802D02*
X63551219Y-7458898D01*
X63551219Y-7458898D02*
X63627409Y-7496993D01*
X63627409Y-7496993D02*
X63703600Y-7573183D01*
X63703600Y-7573183D02*
X63741695Y-7687469D01*
X63741695Y-7687469D02*
X63741695Y-7877945D01*
X63741695Y-7077945D02*
X62941695Y-7077945D01*
X62941695Y-6544612D02*
X62941695Y-6392231D01*
X62941695Y-6392231D02*
X62979790Y-6316041D01*
X62979790Y-6316041D02*
X63055980Y-6239850D01*
X63055980Y-6239850D02*
X63208361Y-6201755D01*
X63208361Y-6201755D02*
X63475028Y-6201755D01*
X63475028Y-6201755D02*
X63627409Y-6239850D01*
X63627409Y-6239850D02*
X63703600Y-6316041D01*
X63703600Y-6316041D02*
X63741695Y-6392231D01*
X63741695Y-6392231D02*
X63741695Y-6544612D01*
X63741695Y-6544612D02*
X63703600Y-6620803D01*
X63703600Y-6620803D02*
X63627409Y-6696993D01*
X63627409Y-6696993D02*
X63475028Y-6735089D01*
X63475028Y-6735089D02*
X63208361Y-6735089D01*
X63208361Y-6735089D02*
X63055980Y-6696993D01*
X63055980Y-6696993D02*
X62979790Y-6620803D01*
X62979790Y-6620803D02*
X62941695Y-6544612D01*
X60379790Y-7708898D02*
X60341695Y-7785088D01*
X60341695Y-7785088D02*
X60341695Y-7899374D01*
X60341695Y-7899374D02*
X60379790Y-8013660D01*
X60379790Y-8013660D02*
X60455980Y-8089850D01*
X60455980Y-8089850D02*
X60532171Y-8127945D01*
X60532171Y-8127945D02*
X60684552Y-8166041D01*
X60684552Y-8166041D02*
X60798838Y-8166041D01*
X60798838Y-8166041D02*
X60951219Y-8127945D01*
X60951219Y-8127945D02*
X61027409Y-8089850D01*
X61027409Y-8089850D02*
X61103600Y-8013660D01*
X61103600Y-8013660D02*
X61141695Y-7899374D01*
X61141695Y-7899374D02*
X61141695Y-7823183D01*
X61141695Y-7823183D02*
X61103600Y-7708898D01*
X61103600Y-7708898D02*
X61065504Y-7670802D01*
X61065504Y-7670802D02*
X60798838Y-7670802D01*
X60798838Y-7670802D02*
X60798838Y-7823183D01*
X61141695Y-7327945D02*
X60341695Y-7327945D01*
X60341695Y-7327945D02*
X61141695Y-6870802D01*
X61141695Y-6870802D02*
X60341695Y-6870802D01*
X61141695Y-6489850D02*
X60341695Y-6489850D01*
X60341695Y-6489850D02*
X60341695Y-6299374D01*
X60341695Y-6299374D02*
X60379790Y-6185088D01*
X60379790Y-6185088D02*
X60455980Y-6108898D01*
X60455980Y-6108898D02*
X60532171Y-6070803D01*
X60532171Y-6070803D02*
X60684552Y-6032707D01*
X60684552Y-6032707D02*
X60798838Y-6032707D01*
X60798838Y-6032707D02*
X60951219Y-6070803D01*
X60951219Y-6070803D02*
X61027409Y-6108898D01*
X61027409Y-6108898D02*
X61103600Y-6185088D01*
X61103600Y-6185088D02*
X61141695Y-6299374D01*
X61141695Y-6299374D02*
X61141695Y-6489850D01*
X55253600Y-7216041D02*
X55291695Y-7101755D01*
X55291695Y-7101755D02*
X55291695Y-6911279D01*
X55291695Y-6911279D02*
X55253600Y-6835088D01*
X55253600Y-6835088D02*
X55215504Y-6796993D01*
X55215504Y-6796993D02*
X55139314Y-6758898D01*
X55139314Y-6758898D02*
X55063123Y-6758898D01*
X55063123Y-6758898D02*
X54986933Y-6796993D01*
X54986933Y-6796993D02*
X54948838Y-6835088D01*
X54948838Y-6835088D02*
X54910742Y-6911279D01*
X54910742Y-6911279D02*
X54872647Y-7063660D01*
X54872647Y-7063660D02*
X54834552Y-7139850D01*
X54834552Y-7139850D02*
X54796457Y-7177945D01*
X54796457Y-7177945D02*
X54720266Y-7216041D01*
X54720266Y-7216041D02*
X54644076Y-7216041D01*
X54644076Y-7216041D02*
X54567885Y-7177945D01*
X54567885Y-7177945D02*
X54529790Y-7139850D01*
X54529790Y-7139850D02*
X54491695Y-7063660D01*
X54491695Y-7063660D02*
X54491695Y-6873183D01*
X54491695Y-6873183D02*
X54529790Y-6758898D01*
X55215504Y-5958897D02*
X55253600Y-5996993D01*
X55253600Y-5996993D02*
X55291695Y-6111278D01*
X55291695Y-6111278D02*
X55291695Y-6187469D01*
X55291695Y-6187469D02*
X55253600Y-6301755D01*
X55253600Y-6301755D02*
X55177409Y-6377945D01*
X55177409Y-6377945D02*
X55101219Y-6416040D01*
X55101219Y-6416040D02*
X54948838Y-6454136D01*
X54948838Y-6454136D02*
X54834552Y-6454136D01*
X54834552Y-6454136D02*
X54682171Y-6416040D01*
X54682171Y-6416040D02*
X54605980Y-6377945D01*
X54605980Y-6377945D02*
X54529790Y-6301755D01*
X54529790Y-6301755D02*
X54491695Y-6187469D01*
X54491695Y-6187469D02*
X54491695Y-6111278D01*
X54491695Y-6111278D02*
X54529790Y-5996993D01*
X54529790Y-5996993D02*
X54567885Y-5958897D01*
X55291695Y-5616040D02*
X54491695Y-5616040D01*
X55291695Y-5158897D02*
X54834552Y-5501755D01*
X54491695Y-5158897D02*
X54948838Y-5616040D01*
X52791695Y-7177945D02*
X51991695Y-7177945D01*
X51991695Y-7177945D02*
X52563123Y-6911279D01*
X52563123Y-6911279D02*
X51991695Y-6644612D01*
X51991695Y-6644612D02*
X52791695Y-6644612D01*
X51991695Y-6111278D02*
X51991695Y-5958897D01*
X51991695Y-5958897D02*
X52029790Y-5882707D01*
X52029790Y-5882707D02*
X52105980Y-5806516D01*
X52105980Y-5806516D02*
X52258361Y-5768421D01*
X52258361Y-5768421D02*
X52525028Y-5768421D01*
X52525028Y-5768421D02*
X52677409Y-5806516D01*
X52677409Y-5806516D02*
X52753600Y-5882707D01*
X52753600Y-5882707D02*
X52791695Y-5958897D01*
X52791695Y-5958897D02*
X52791695Y-6111278D01*
X52791695Y-6111278D02*
X52753600Y-6187469D01*
X52753600Y-6187469D02*
X52677409Y-6263659D01*
X52677409Y-6263659D02*
X52525028Y-6301755D01*
X52525028Y-6301755D02*
X52258361Y-6301755D01*
X52258361Y-6301755D02*
X52105980Y-6263659D01*
X52105980Y-6263659D02*
X52029790Y-6187469D01*
X52029790Y-6187469D02*
X51991695Y-6111278D01*
X52753600Y-5463660D02*
X52791695Y-5349374D01*
X52791695Y-5349374D02*
X52791695Y-5158898D01*
X52791695Y-5158898D02*
X52753600Y-5082707D01*
X52753600Y-5082707D02*
X52715504Y-5044612D01*
X52715504Y-5044612D02*
X52639314Y-5006517D01*
X52639314Y-5006517D02*
X52563123Y-5006517D01*
X52563123Y-5006517D02*
X52486933Y-5044612D01*
X52486933Y-5044612D02*
X52448838Y-5082707D01*
X52448838Y-5082707D02*
X52410742Y-5158898D01*
X52410742Y-5158898D02*
X52372647Y-5311279D01*
X52372647Y-5311279D02*
X52334552Y-5387469D01*
X52334552Y-5387469D02*
X52296457Y-5425564D01*
X52296457Y-5425564D02*
X52220266Y-5463660D01*
X52220266Y-5463660D02*
X52144076Y-5463660D01*
X52144076Y-5463660D02*
X52067885Y-5425564D01*
X52067885Y-5425564D02*
X52029790Y-5387469D01*
X52029790Y-5387469D02*
X51991695Y-5311279D01*
X51991695Y-5311279D02*
X51991695Y-5120802D01*
X51991695Y-5120802D02*
X52029790Y-5006517D01*
X52791695Y-4663659D02*
X51991695Y-4663659D01*
X50191695Y-7177945D02*
X49391695Y-7177945D01*
X49391695Y-7177945D02*
X49963123Y-6911279D01*
X49963123Y-6911279D02*
X49391695Y-6644612D01*
X49391695Y-6644612D02*
X50191695Y-6644612D01*
X50191695Y-6263659D02*
X49391695Y-6263659D01*
X50153600Y-5920803D02*
X50191695Y-5806517D01*
X50191695Y-5806517D02*
X50191695Y-5616041D01*
X50191695Y-5616041D02*
X50153600Y-5539850D01*
X50153600Y-5539850D02*
X50115504Y-5501755D01*
X50115504Y-5501755D02*
X50039314Y-5463660D01*
X50039314Y-5463660D02*
X49963123Y-5463660D01*
X49963123Y-5463660D02*
X49886933Y-5501755D01*
X49886933Y-5501755D02*
X49848838Y-5539850D01*
X49848838Y-5539850D02*
X49810742Y-5616041D01*
X49810742Y-5616041D02*
X49772647Y-5768422D01*
X49772647Y-5768422D02*
X49734552Y-5844612D01*
X49734552Y-5844612D02*
X49696457Y-5882707D01*
X49696457Y-5882707D02*
X49620266Y-5920803D01*
X49620266Y-5920803D02*
X49544076Y-5920803D01*
X49544076Y-5920803D02*
X49467885Y-5882707D01*
X49467885Y-5882707D02*
X49429790Y-5844612D01*
X49429790Y-5844612D02*
X49391695Y-5768422D01*
X49391695Y-5768422D02*
X49391695Y-5577945D01*
X49391695Y-5577945D02*
X49429790Y-5463660D01*
X49391695Y-4968421D02*
X49391695Y-4816040D01*
X49391695Y-4816040D02*
X49429790Y-4739850D01*
X49429790Y-4739850D02*
X49505980Y-4663659D01*
X49505980Y-4663659D02*
X49658361Y-4625564D01*
X49658361Y-4625564D02*
X49925028Y-4625564D01*
X49925028Y-4625564D02*
X50077409Y-4663659D01*
X50077409Y-4663659D02*
X50153600Y-4739850D01*
X50153600Y-4739850D02*
X50191695Y-4816040D01*
X50191695Y-4816040D02*
X50191695Y-4968421D01*
X50191695Y-4968421D02*
X50153600Y-5044612D01*
X50153600Y-5044612D02*
X50077409Y-5120802D01*
X50077409Y-5120802D02*
X49925028Y-5158898D01*
X49925028Y-5158898D02*
X49658361Y-5158898D01*
X49658361Y-5158898D02*
X49505980Y-5120802D01*
X49505980Y-5120802D02*
X49429790Y-5044612D01*
X49429790Y-5044612D02*
X49391695Y-4968421D01*
X47691695Y-7177945D02*
X46891695Y-7177945D01*
X46891695Y-7177945D02*
X47691695Y-6720802D01*
X47691695Y-6720802D02*
X46891695Y-6720802D01*
X47653600Y-6377946D02*
X47691695Y-6263660D01*
X47691695Y-6263660D02*
X47691695Y-6073184D01*
X47691695Y-6073184D02*
X47653600Y-5996993D01*
X47653600Y-5996993D02*
X47615504Y-5958898D01*
X47615504Y-5958898D02*
X47539314Y-5920803D01*
X47539314Y-5920803D02*
X47463123Y-5920803D01*
X47463123Y-5920803D02*
X47386933Y-5958898D01*
X47386933Y-5958898D02*
X47348838Y-5996993D01*
X47348838Y-5996993D02*
X47310742Y-6073184D01*
X47310742Y-6073184D02*
X47272647Y-6225565D01*
X47272647Y-6225565D02*
X47234552Y-6301755D01*
X47234552Y-6301755D02*
X47196457Y-6339850D01*
X47196457Y-6339850D02*
X47120266Y-6377946D01*
X47120266Y-6377946D02*
X47044076Y-6377946D01*
X47044076Y-6377946D02*
X46967885Y-6339850D01*
X46967885Y-6339850D02*
X46929790Y-6301755D01*
X46929790Y-6301755D02*
X46891695Y-6225565D01*
X46891695Y-6225565D02*
X46891695Y-6035088D01*
X46891695Y-6035088D02*
X46929790Y-5920803D01*
X47653600Y-5616041D02*
X47691695Y-5501755D01*
X47691695Y-5501755D02*
X47691695Y-5311279D01*
X47691695Y-5311279D02*
X47653600Y-5235088D01*
X47653600Y-5235088D02*
X47615504Y-5196993D01*
X47615504Y-5196993D02*
X47539314Y-5158898D01*
X47539314Y-5158898D02*
X47463123Y-5158898D01*
X47463123Y-5158898D02*
X47386933Y-5196993D01*
X47386933Y-5196993D02*
X47348838Y-5235088D01*
X47348838Y-5235088D02*
X47310742Y-5311279D01*
X47310742Y-5311279D02*
X47272647Y-5463660D01*
X47272647Y-5463660D02*
X47234552Y-5539850D01*
X47234552Y-5539850D02*
X47196457Y-5577945D01*
X47196457Y-5577945D02*
X47120266Y-5616041D01*
X47120266Y-5616041D02*
X47044076Y-5616041D01*
X47044076Y-5616041D02*
X46967885Y-5577945D01*
X46967885Y-5577945D02*
X46929790Y-5539850D01*
X46929790Y-5539850D02*
X46891695Y-5463660D01*
X46891695Y-5463660D02*
X46891695Y-5273183D01*
X46891695Y-5273183D02*
X46929790Y-5158898D01*
X45191695Y-7177945D02*
X44391695Y-7177945D01*
X44391695Y-7177945D02*
X45191695Y-6720802D01*
X45191695Y-6720802D02*
X44391695Y-6720802D01*
X45115504Y-5882707D02*
X45153600Y-5920803D01*
X45153600Y-5920803D02*
X45191695Y-6035088D01*
X45191695Y-6035088D02*
X45191695Y-6111279D01*
X45191695Y-6111279D02*
X45153600Y-6225565D01*
X45153600Y-6225565D02*
X45077409Y-6301755D01*
X45077409Y-6301755D02*
X45001219Y-6339850D01*
X45001219Y-6339850D02*
X44848838Y-6377946D01*
X44848838Y-6377946D02*
X44734552Y-6377946D01*
X44734552Y-6377946D02*
X44582171Y-6339850D01*
X44582171Y-6339850D02*
X44505980Y-6301755D01*
X44505980Y-6301755D02*
X44429790Y-6225565D01*
X44429790Y-6225565D02*
X44391695Y-6111279D01*
X44391695Y-6111279D02*
X44391695Y-6035088D01*
X44391695Y-6035088D02*
X44429790Y-5920803D01*
X44429790Y-5920803D02*
X44467885Y-5882707D01*
X41829790Y-6758898D02*
X41791695Y-6835088D01*
X41791695Y-6835088D02*
X41791695Y-6949374D01*
X41791695Y-6949374D02*
X41829790Y-7063660D01*
X41829790Y-7063660D02*
X41905980Y-7139850D01*
X41905980Y-7139850D02*
X41982171Y-7177945D01*
X41982171Y-7177945D02*
X42134552Y-7216041D01*
X42134552Y-7216041D02*
X42248838Y-7216041D01*
X42248838Y-7216041D02*
X42401219Y-7177945D01*
X42401219Y-7177945D02*
X42477409Y-7139850D01*
X42477409Y-7139850D02*
X42553600Y-7063660D01*
X42553600Y-7063660D02*
X42591695Y-6949374D01*
X42591695Y-6949374D02*
X42591695Y-6873183D01*
X42591695Y-6873183D02*
X42553600Y-6758898D01*
X42553600Y-6758898D02*
X42515504Y-6720802D01*
X42515504Y-6720802D02*
X42248838Y-6720802D01*
X42248838Y-6720802D02*
X42248838Y-6873183D01*
X42591695Y-6377945D02*
X41791695Y-6377945D01*
X41791695Y-6377945D02*
X42591695Y-5920802D01*
X42591695Y-5920802D02*
X41791695Y-5920802D01*
X42591695Y-5539850D02*
X41791695Y-5539850D01*
X41791695Y-5539850D02*
X41791695Y-5349374D01*
X41791695Y-5349374D02*
X41829790Y-5235088D01*
X41829790Y-5235088D02*
X41905980Y-5158898D01*
X41905980Y-5158898D02*
X41982171Y-5120803D01*
X41982171Y-5120803D02*
X42134552Y-5082707D01*
X42134552Y-5082707D02*
X42248838Y-5082707D01*
X42248838Y-5082707D02*
X42401219Y-5120803D01*
X42401219Y-5120803D02*
X42477409Y-5158898D01*
X42477409Y-5158898D02*
X42553600Y-5235088D01*
X42553600Y-5235088D02*
X42591695Y-5349374D01*
X42591695Y-5349374D02*
X42591695Y-5539850D01*
D12*
X23868796Y-58100828D02*
X23868796Y-58457971D01*
X23511653Y-58315114D02*
X23868796Y-58457971D01*
X23868796Y-58457971D02*
X24225939Y-58315114D01*
X23654510Y-58743685D02*
X23868796Y-58457971D01*
X23868796Y-58457971D02*
X24083082Y-58743685D01*
X47168796Y-16400828D02*
X47168796Y-16757971D01*
X46811653Y-16615114D02*
X47168796Y-16757971D01*
X47168796Y-16757971D02*
X47525939Y-16615114D01*
X46954510Y-17043685D02*
X47168796Y-16757971D01*
X47168796Y-16757971D02*
X47383082Y-17043685D01*
X44768796Y-55300828D02*
X44768796Y-55657971D01*
X44411653Y-55515114D02*
X44768796Y-55657971D01*
X44768796Y-55657971D02*
X45125939Y-55515114D01*
X44554510Y-55943685D02*
X44768796Y-55657971D01*
X44768796Y-55657971D02*
X44983082Y-55943685D01*
X36868796Y-47900828D02*
X36868796Y-48257971D01*
X36511653Y-48115114D02*
X36868796Y-48257971D01*
X36868796Y-48257971D02*
X37225939Y-48115114D01*
X36654510Y-48543685D02*
X36868796Y-48257971D01*
X36868796Y-48257971D02*
X37083082Y-48543685D01*
X8740225Y-71400828D02*
X9025939Y-71400828D01*
X9025939Y-71400828D02*
X9168796Y-71472257D01*
X9168796Y-71472257D02*
X9311653Y-71615114D01*
X9311653Y-71615114D02*
X9383082Y-71900828D01*
X9383082Y-71900828D02*
X9383082Y-72400828D01*
X9383082Y-72400828D02*
X9311653Y-72686542D01*
X9311653Y-72686542D02*
X9168796Y-72829400D01*
X9168796Y-72829400D02*
X9025939Y-72900828D01*
X9025939Y-72900828D02*
X8740225Y-72900828D01*
X8740225Y-72900828D02*
X8597368Y-72829400D01*
X8597368Y-72829400D02*
X8454510Y-72686542D01*
X8454510Y-72686542D02*
X8383082Y-72400828D01*
X8383082Y-72400828D02*
X8383082Y-71900828D01*
X8383082Y-71900828D02*
X8454510Y-71615114D01*
X8454510Y-71615114D02*
X8597368Y-71472257D01*
X8597368Y-71472257D02*
X8740225Y-71400828D01*
X10025939Y-71400828D02*
X10025939Y-72615114D01*
X10025939Y-72615114D02*
X10097368Y-72757971D01*
X10097368Y-72757971D02*
X10168797Y-72829400D01*
X10168797Y-72829400D02*
X10311654Y-72900828D01*
X10311654Y-72900828D02*
X10597368Y-72900828D01*
X10597368Y-72900828D02*
X10740225Y-72829400D01*
X10740225Y-72829400D02*
X10811654Y-72757971D01*
X10811654Y-72757971D02*
X10883082Y-72615114D01*
X10883082Y-72615114D02*
X10883082Y-71400828D01*
X11383083Y-71400828D02*
X12240226Y-71400828D01*
X11811654Y-72900828D02*
X11811654Y-71400828D01*
X12740225Y-72329400D02*
X13883083Y-72329400D01*
X940225Y-59800828D02*
X1225939Y-59800828D01*
X1225939Y-59800828D02*
X1368796Y-59872257D01*
X1368796Y-59872257D02*
X1511653Y-60015114D01*
X1511653Y-60015114D02*
X1583082Y-60300828D01*
X1583082Y-60300828D02*
X1583082Y-60800828D01*
X1583082Y-60800828D02*
X1511653Y-61086542D01*
X1511653Y-61086542D02*
X1368796Y-61229400D01*
X1368796Y-61229400D02*
X1225939Y-61300828D01*
X1225939Y-61300828D02*
X940225Y-61300828D01*
X940225Y-61300828D02*
X797367Y-61229400D01*
X797367Y-61229400D02*
X654510Y-61086542D01*
X654510Y-61086542D02*
X583082Y-60800828D01*
X583082Y-60800828D02*
X583082Y-60300828D01*
X583082Y-60300828D02*
X654510Y-60015114D01*
X654510Y-60015114D02*
X797367Y-59872257D01*
X797367Y-59872257D02*
X940225Y-59800828D01*
X2225939Y-59800828D02*
X2225939Y-61015114D01*
X2225939Y-61015114D02*
X2297368Y-61157971D01*
X2297368Y-61157971D02*
X2368797Y-61229400D01*
X2368797Y-61229400D02*
X2511654Y-61300828D01*
X2511654Y-61300828D02*
X2797368Y-61300828D01*
X2797368Y-61300828D02*
X2940225Y-61229400D01*
X2940225Y-61229400D02*
X3011654Y-61157971D01*
X3011654Y-61157971D02*
X3083082Y-61015114D01*
X3083082Y-61015114D02*
X3083082Y-59800828D01*
X3583083Y-59800828D02*
X4440226Y-59800828D01*
X4011654Y-61300828D02*
X4011654Y-59800828D01*
X4940225Y-60729400D02*
X6083083Y-60729400D01*
X5511654Y-61300828D02*
X5511654Y-60157971D01*
D13*
X67657142Y-13659580D02*
X67609523Y-13707200D01*
X67609523Y-13707200D02*
X67466666Y-13754819D01*
X67466666Y-13754819D02*
X67371428Y-13754819D01*
X67371428Y-13754819D02*
X67228571Y-13707200D01*
X67228571Y-13707200D02*
X67133333Y-13611961D01*
X67133333Y-13611961D02*
X67085714Y-13516723D01*
X67085714Y-13516723D02*
X67038095Y-13326247D01*
X67038095Y-13326247D02*
X67038095Y-13183390D01*
X67038095Y-13183390D02*
X67085714Y-12992914D01*
X67085714Y-12992914D02*
X67133333Y-12897676D01*
X67133333Y-12897676D02*
X67228571Y-12802438D01*
X67228571Y-12802438D02*
X67371428Y-12754819D01*
X67371428Y-12754819D02*
X67466666Y-12754819D01*
X67466666Y-12754819D02*
X67609523Y-12802438D01*
X67609523Y-12802438D02*
X67657142Y-12850057D01*
X68609523Y-13754819D02*
X68038095Y-13754819D01*
X68323809Y-13754819D02*
X68323809Y-12754819D01*
X68323809Y-12754819D02*
X68228571Y-12897676D01*
X68228571Y-12897676D02*
X68133333Y-12992914D01*
X68133333Y-12992914D02*
X68038095Y-13040533D01*
X69085714Y-13754819D02*
X69276190Y-13754819D01*
X69276190Y-13754819D02*
X69371428Y-13707200D01*
X69371428Y-13707200D02*
X69419047Y-13659580D01*
X69419047Y-13659580D02*
X69514285Y-13516723D01*
X69514285Y-13516723D02*
X69561904Y-13326247D01*
X69561904Y-13326247D02*
X69561904Y-12945295D01*
X69561904Y-12945295D02*
X69514285Y-12850057D01*
X69514285Y-12850057D02*
X69466666Y-12802438D01*
X69466666Y-12802438D02*
X69371428Y-12754819D01*
X69371428Y-12754819D02*
X69180952Y-12754819D01*
X69180952Y-12754819D02*
X69085714Y-12802438D01*
X69085714Y-12802438D02*
X69038095Y-12850057D01*
X69038095Y-12850057D02*
X68990476Y-12945295D01*
X68990476Y-12945295D02*
X68990476Y-13183390D01*
X68990476Y-13183390D02*
X69038095Y-13278628D01*
X69038095Y-13278628D02*
X69085714Y-13326247D01*
X69085714Y-13326247D02*
X69180952Y-13373866D01*
X69180952Y-13373866D02*
X69371428Y-13373866D01*
X69371428Y-13373866D02*
X69466666Y-13326247D01*
X69466666Y-13326247D02*
X69514285Y-13278628D01*
X69514285Y-13278628D02*
X69561904Y-13183390D01*
X52057142Y-30959580D02*
X52009523Y-31007200D01*
X52009523Y-31007200D02*
X51866666Y-31054819D01*
X51866666Y-31054819D02*
X51771428Y-31054819D01*
X51771428Y-31054819D02*
X51628571Y-31007200D01*
X51628571Y-31007200D02*
X51533333Y-30911961D01*
X51533333Y-30911961D02*
X51485714Y-30816723D01*
X51485714Y-30816723D02*
X51438095Y-30626247D01*
X51438095Y-30626247D02*
X51438095Y-30483390D01*
X51438095Y-30483390D02*
X51485714Y-30292914D01*
X51485714Y-30292914D02*
X51533333Y-30197676D01*
X51533333Y-30197676D02*
X51628571Y-30102438D01*
X51628571Y-30102438D02*
X51771428Y-30054819D01*
X51771428Y-30054819D02*
X51866666Y-30054819D01*
X51866666Y-30054819D02*
X52009523Y-30102438D01*
X52009523Y-30102438D02*
X52057142Y-30150057D01*
X53009523Y-31054819D02*
X52438095Y-31054819D01*
X52723809Y-31054819D02*
X52723809Y-30054819D01*
X52723809Y-30054819D02*
X52628571Y-30197676D01*
X52628571Y-30197676D02*
X52533333Y-30292914D01*
X52533333Y-30292914D02*
X52438095Y-30340533D01*
X53580952Y-30483390D02*
X53485714Y-30435771D01*
X53485714Y-30435771D02*
X53438095Y-30388152D01*
X53438095Y-30388152D02*
X53390476Y-30292914D01*
X53390476Y-30292914D02*
X53390476Y-30245295D01*
X53390476Y-30245295D02*
X53438095Y-30150057D01*
X53438095Y-30150057D02*
X53485714Y-30102438D01*
X53485714Y-30102438D02*
X53580952Y-30054819D01*
X53580952Y-30054819D02*
X53771428Y-30054819D01*
X53771428Y-30054819D02*
X53866666Y-30102438D01*
X53866666Y-30102438D02*
X53914285Y-30150057D01*
X53914285Y-30150057D02*
X53961904Y-30245295D01*
X53961904Y-30245295D02*
X53961904Y-30292914D01*
X53961904Y-30292914D02*
X53914285Y-30388152D01*
X53914285Y-30388152D02*
X53866666Y-30435771D01*
X53866666Y-30435771D02*
X53771428Y-30483390D01*
X53771428Y-30483390D02*
X53580952Y-30483390D01*
X53580952Y-30483390D02*
X53485714Y-30531009D01*
X53485714Y-30531009D02*
X53438095Y-30578628D01*
X53438095Y-30578628D02*
X53390476Y-30673866D01*
X53390476Y-30673866D02*
X53390476Y-30864342D01*
X53390476Y-30864342D02*
X53438095Y-30959580D01*
X53438095Y-30959580D02*
X53485714Y-31007200D01*
X53485714Y-31007200D02*
X53580952Y-31054819D01*
X53580952Y-31054819D02*
X53771428Y-31054819D01*
X53771428Y-31054819D02*
X53866666Y-31007200D01*
X53866666Y-31007200D02*
X53914285Y-30959580D01*
X53914285Y-30959580D02*
X53961904Y-30864342D01*
X53961904Y-30864342D02*
X53961904Y-30673866D01*
X53961904Y-30673866D02*
X53914285Y-30578628D01*
X53914285Y-30578628D02*
X53866666Y-30531009D01*
X53866666Y-30531009D02*
X53771428Y-30483390D01*
X52238095Y-20954819D02*
X52238095Y-21764342D01*
X52238095Y-21764342D02*
X52285714Y-21859580D01*
X52285714Y-21859580D02*
X52333333Y-21907200D01*
X52333333Y-21907200D02*
X52428571Y-21954819D01*
X52428571Y-21954819D02*
X52619047Y-21954819D01*
X52619047Y-21954819D02*
X52714285Y-21907200D01*
X52714285Y-21907200D02*
X52761904Y-21859580D01*
X52761904Y-21859580D02*
X52809523Y-21764342D01*
X52809523Y-21764342D02*
X52809523Y-20954819D01*
X53190476Y-20954819D02*
X53857142Y-20954819D01*
X53857142Y-20954819D02*
X53428571Y-21954819D01*
X42559580Y-23242857D02*
X42607200Y-23290476D01*
X42607200Y-23290476D02*
X42654819Y-23433333D01*
X42654819Y-23433333D02*
X42654819Y-23528571D01*
X42654819Y-23528571D02*
X42607200Y-23671428D01*
X42607200Y-23671428D02*
X42511961Y-23766666D01*
X42511961Y-23766666D02*
X42416723Y-23814285D01*
X42416723Y-23814285D02*
X42226247Y-23861904D01*
X42226247Y-23861904D02*
X42083390Y-23861904D01*
X42083390Y-23861904D02*
X41892914Y-23814285D01*
X41892914Y-23814285D02*
X41797676Y-23766666D01*
X41797676Y-23766666D02*
X41702438Y-23671428D01*
X41702438Y-23671428D02*
X41654819Y-23528571D01*
X41654819Y-23528571D02*
X41654819Y-23433333D01*
X41654819Y-23433333D02*
X41702438Y-23290476D01*
X41702438Y-23290476D02*
X41750057Y-23242857D01*
X42654819Y-22290476D02*
X42654819Y-22861904D01*
X42654819Y-22576190D02*
X41654819Y-22576190D01*
X41654819Y-22576190D02*
X41797676Y-22671428D01*
X41797676Y-22671428D02*
X41892914Y-22766666D01*
X41892914Y-22766666D02*
X41940533Y-22861904D01*
X41654819Y-21957142D02*
X41654819Y-21290476D01*
X41654819Y-21290476D02*
X42654819Y-21719047D01*
X44257142Y-28959580D02*
X44209523Y-29007200D01*
X44209523Y-29007200D02*
X44066666Y-29054819D01*
X44066666Y-29054819D02*
X43971428Y-29054819D01*
X43971428Y-29054819D02*
X43828571Y-29007200D01*
X43828571Y-29007200D02*
X43733333Y-28911961D01*
X43733333Y-28911961D02*
X43685714Y-28816723D01*
X43685714Y-28816723D02*
X43638095Y-28626247D01*
X43638095Y-28626247D02*
X43638095Y-28483390D01*
X43638095Y-28483390D02*
X43685714Y-28292914D01*
X43685714Y-28292914D02*
X43733333Y-28197676D01*
X43733333Y-28197676D02*
X43828571Y-28102438D01*
X43828571Y-28102438D02*
X43971428Y-28054819D01*
X43971428Y-28054819D02*
X44066666Y-28054819D01*
X44066666Y-28054819D02*
X44209523Y-28102438D01*
X44209523Y-28102438D02*
X44257142Y-28150057D01*
X45209523Y-29054819D02*
X44638095Y-29054819D01*
X44923809Y-29054819D02*
X44923809Y-28054819D01*
X44923809Y-28054819D02*
X44828571Y-28197676D01*
X44828571Y-28197676D02*
X44733333Y-28292914D01*
X44733333Y-28292914D02*
X44638095Y-28340533D01*
X46066666Y-28054819D02*
X45876190Y-28054819D01*
X45876190Y-28054819D02*
X45780952Y-28102438D01*
X45780952Y-28102438D02*
X45733333Y-28150057D01*
X45733333Y-28150057D02*
X45638095Y-28292914D01*
X45638095Y-28292914D02*
X45590476Y-28483390D01*
X45590476Y-28483390D02*
X45590476Y-28864342D01*
X45590476Y-28864342D02*
X45638095Y-28959580D01*
X45638095Y-28959580D02*
X45685714Y-29007200D01*
X45685714Y-29007200D02*
X45780952Y-29054819D01*
X45780952Y-29054819D02*
X45971428Y-29054819D01*
X45971428Y-29054819D02*
X46066666Y-29007200D01*
X46066666Y-29007200D02*
X46114285Y-28959580D01*
X46114285Y-28959580D02*
X46161904Y-28864342D01*
X46161904Y-28864342D02*
X46161904Y-28626247D01*
X46161904Y-28626247D02*
X46114285Y-28531009D01*
X46114285Y-28531009D02*
X46066666Y-28483390D01*
X46066666Y-28483390D02*
X45971428Y-28435771D01*
X45971428Y-28435771D02*
X45780952Y-28435771D01*
X45780952Y-28435771D02*
X45685714Y-28483390D01*
X45685714Y-28483390D02*
X45638095Y-28531009D01*
X45638095Y-28531009D02*
X45590476Y-28626247D01*
X61759580Y-21642857D02*
X61807200Y-21690476D01*
X61807200Y-21690476D02*
X61854819Y-21833333D01*
X61854819Y-21833333D02*
X61854819Y-21928571D01*
X61854819Y-21928571D02*
X61807200Y-22071428D01*
X61807200Y-22071428D02*
X61711961Y-22166666D01*
X61711961Y-22166666D02*
X61616723Y-22214285D01*
X61616723Y-22214285D02*
X61426247Y-22261904D01*
X61426247Y-22261904D02*
X61283390Y-22261904D01*
X61283390Y-22261904D02*
X61092914Y-22214285D01*
X61092914Y-22214285D02*
X60997676Y-22166666D01*
X60997676Y-22166666D02*
X60902438Y-22071428D01*
X60902438Y-22071428D02*
X60854819Y-21928571D01*
X60854819Y-21928571D02*
X60854819Y-21833333D01*
X60854819Y-21833333D02*
X60902438Y-21690476D01*
X60902438Y-21690476D02*
X60950057Y-21642857D01*
X61854819Y-20690476D02*
X61854819Y-21261904D01*
X61854819Y-20976190D02*
X60854819Y-20976190D01*
X60854819Y-20976190D02*
X60997676Y-21071428D01*
X60997676Y-21071428D02*
X61092914Y-21166666D01*
X61092914Y-21166666D02*
X61140533Y-21261904D01*
X60854819Y-19785714D02*
X60854819Y-20261904D01*
X60854819Y-20261904D02*
X61331009Y-20309523D01*
X61331009Y-20309523D02*
X61283390Y-20261904D01*
X61283390Y-20261904D02*
X61235771Y-20166666D01*
X61235771Y-20166666D02*
X61235771Y-19928571D01*
X61235771Y-19928571D02*
X61283390Y-19833333D01*
X61283390Y-19833333D02*
X61331009Y-19785714D01*
X61331009Y-19785714D02*
X61426247Y-19738095D01*
X61426247Y-19738095D02*
X61664342Y-19738095D01*
X61664342Y-19738095D02*
X61759580Y-19785714D01*
X61759580Y-19785714D02*
X61807200Y-19833333D01*
X61807200Y-19833333D02*
X61854819Y-19928571D01*
X61854819Y-19928571D02*
X61854819Y-20166666D01*
X61854819Y-20166666D02*
X61807200Y-20261904D01*
X61807200Y-20261904D02*
X61759580Y-20309523D01*
X46357142Y-14359580D02*
X46309523Y-14407200D01*
X46309523Y-14407200D02*
X46166666Y-14454819D01*
X46166666Y-14454819D02*
X46071428Y-14454819D01*
X46071428Y-14454819D02*
X45928571Y-14407200D01*
X45928571Y-14407200D02*
X45833333Y-14311961D01*
X45833333Y-14311961D02*
X45785714Y-14216723D01*
X45785714Y-14216723D02*
X45738095Y-14026247D01*
X45738095Y-14026247D02*
X45738095Y-13883390D01*
X45738095Y-13883390D02*
X45785714Y-13692914D01*
X45785714Y-13692914D02*
X45833333Y-13597676D01*
X45833333Y-13597676D02*
X45928571Y-13502438D01*
X45928571Y-13502438D02*
X46071428Y-13454819D01*
X46071428Y-13454819D02*
X46166666Y-13454819D01*
X46166666Y-13454819D02*
X46309523Y-13502438D01*
X46309523Y-13502438D02*
X46357142Y-13550057D01*
X47309523Y-14454819D02*
X46738095Y-14454819D01*
X47023809Y-14454819D02*
X47023809Y-13454819D01*
X47023809Y-13454819D02*
X46928571Y-13597676D01*
X46928571Y-13597676D02*
X46833333Y-13692914D01*
X46833333Y-13692914D02*
X46738095Y-13740533D01*
X48166666Y-13788152D02*
X48166666Y-14454819D01*
X47928571Y-13407200D02*
X47690476Y-14121485D01*
X47690476Y-14121485D02*
X48309523Y-14121485D01*
X51857142Y-33659580D02*
X51809523Y-33707200D01*
X51809523Y-33707200D02*
X51666666Y-33754819D01*
X51666666Y-33754819D02*
X51571428Y-33754819D01*
X51571428Y-33754819D02*
X51428571Y-33707200D01*
X51428571Y-33707200D02*
X51333333Y-33611961D01*
X51333333Y-33611961D02*
X51285714Y-33516723D01*
X51285714Y-33516723D02*
X51238095Y-33326247D01*
X51238095Y-33326247D02*
X51238095Y-33183390D01*
X51238095Y-33183390D02*
X51285714Y-32992914D01*
X51285714Y-32992914D02*
X51333333Y-32897676D01*
X51333333Y-32897676D02*
X51428571Y-32802438D01*
X51428571Y-32802438D02*
X51571428Y-32754819D01*
X51571428Y-32754819D02*
X51666666Y-32754819D01*
X51666666Y-32754819D02*
X51809523Y-32802438D01*
X51809523Y-32802438D02*
X51857142Y-32850057D01*
X52809523Y-33754819D02*
X52238095Y-33754819D01*
X52523809Y-33754819D02*
X52523809Y-32754819D01*
X52523809Y-32754819D02*
X52428571Y-32897676D01*
X52428571Y-32897676D02*
X52333333Y-32992914D01*
X52333333Y-32992914D02*
X52238095Y-33040533D01*
X53142857Y-32754819D02*
X53761904Y-32754819D01*
X53761904Y-32754819D02*
X53428571Y-33135771D01*
X53428571Y-33135771D02*
X53571428Y-33135771D01*
X53571428Y-33135771D02*
X53666666Y-33183390D01*
X53666666Y-33183390D02*
X53714285Y-33231009D01*
X53714285Y-33231009D02*
X53761904Y-33326247D01*
X53761904Y-33326247D02*
X53761904Y-33564342D01*
X53761904Y-33564342D02*
X53714285Y-33659580D01*
X53714285Y-33659580D02*
X53666666Y-33707200D01*
X53666666Y-33707200D02*
X53571428Y-33754819D01*
X53571428Y-33754819D02*
X53285714Y-33754819D01*
X53285714Y-33754819D02*
X53190476Y-33707200D01*
X53190476Y-33707200D02*
X53142857Y-33659580D01*
X46484819Y-46442857D02*
X46008628Y-46776190D01*
X46484819Y-47014285D02*
X45484819Y-47014285D01*
X45484819Y-47014285D02*
X45484819Y-46633333D01*
X45484819Y-46633333D02*
X45532438Y-46538095D01*
X45532438Y-46538095D02*
X45580057Y-46490476D01*
X45580057Y-46490476D02*
X45675295Y-46442857D01*
X45675295Y-46442857D02*
X45818152Y-46442857D01*
X45818152Y-46442857D02*
X45913390Y-46490476D01*
X45913390Y-46490476D02*
X45961009Y-46538095D01*
X45961009Y-46538095D02*
X46008628Y-46633333D01*
X46008628Y-46633333D02*
X46008628Y-47014285D01*
X45484819Y-46109523D02*
X45484819Y-45490476D01*
X45484819Y-45490476D02*
X45865771Y-45823809D01*
X45865771Y-45823809D02*
X45865771Y-45680952D01*
X45865771Y-45680952D02*
X45913390Y-45585714D01*
X45913390Y-45585714D02*
X45961009Y-45538095D01*
X45961009Y-45538095D02*
X46056247Y-45490476D01*
X46056247Y-45490476D02*
X46294342Y-45490476D01*
X46294342Y-45490476D02*
X46389580Y-45538095D01*
X46389580Y-45538095D02*
X46437200Y-45585714D01*
X46437200Y-45585714D02*
X46484819Y-45680952D01*
X46484819Y-45680952D02*
X46484819Y-45966666D01*
X46484819Y-45966666D02*
X46437200Y-46061904D01*
X46437200Y-46061904D02*
X46389580Y-46109523D01*
X45484819Y-44871428D02*
X45484819Y-44776190D01*
X45484819Y-44776190D02*
X45532438Y-44680952D01*
X45532438Y-44680952D02*
X45580057Y-44633333D01*
X45580057Y-44633333D02*
X45675295Y-44585714D01*
X45675295Y-44585714D02*
X45865771Y-44538095D01*
X45865771Y-44538095D02*
X46103866Y-44538095D01*
X46103866Y-44538095D02*
X46294342Y-44585714D01*
X46294342Y-44585714D02*
X46389580Y-44633333D01*
X46389580Y-44633333D02*
X46437200Y-44680952D01*
X46437200Y-44680952D02*
X46484819Y-44776190D01*
X46484819Y-44776190D02*
X46484819Y-44871428D01*
X46484819Y-44871428D02*
X46437200Y-44966666D01*
X46437200Y-44966666D02*
X46389580Y-45014285D01*
X46389580Y-45014285D02*
X46294342Y-45061904D01*
X46294342Y-45061904D02*
X46103866Y-45109523D01*
X46103866Y-45109523D02*
X45865771Y-45109523D01*
X45865771Y-45109523D02*
X45675295Y-45061904D01*
X45675295Y-45061904D02*
X45580057Y-45014285D01*
X45580057Y-45014285D02*
X45532438Y-44966666D01*
X45532438Y-44966666D02*
X45484819Y-44871428D01*
X44954819Y-66142857D02*
X44478628Y-66476190D01*
X44954819Y-66714285D02*
X43954819Y-66714285D01*
X43954819Y-66714285D02*
X43954819Y-66333333D01*
X43954819Y-66333333D02*
X44002438Y-66238095D01*
X44002438Y-66238095D02*
X44050057Y-66190476D01*
X44050057Y-66190476D02*
X44145295Y-66142857D01*
X44145295Y-66142857D02*
X44288152Y-66142857D01*
X44288152Y-66142857D02*
X44383390Y-66190476D01*
X44383390Y-66190476D02*
X44431009Y-66238095D01*
X44431009Y-66238095D02*
X44478628Y-66333333D01*
X44478628Y-66333333D02*
X44478628Y-66714285D01*
X44050057Y-65761904D02*
X44002438Y-65714285D01*
X44002438Y-65714285D02*
X43954819Y-65619047D01*
X43954819Y-65619047D02*
X43954819Y-65380952D01*
X43954819Y-65380952D02*
X44002438Y-65285714D01*
X44002438Y-65285714D02*
X44050057Y-65238095D01*
X44050057Y-65238095D02*
X44145295Y-65190476D01*
X44145295Y-65190476D02*
X44240533Y-65190476D01*
X44240533Y-65190476D02*
X44383390Y-65238095D01*
X44383390Y-65238095D02*
X44954819Y-65809523D01*
X44954819Y-65809523D02*
X44954819Y-65190476D01*
X44954819Y-64714285D02*
X44954819Y-64523809D01*
X44954819Y-64523809D02*
X44907200Y-64428571D01*
X44907200Y-64428571D02*
X44859580Y-64380952D01*
X44859580Y-64380952D02*
X44716723Y-64285714D01*
X44716723Y-64285714D02*
X44526247Y-64238095D01*
X44526247Y-64238095D02*
X44145295Y-64238095D01*
X44145295Y-64238095D02*
X44050057Y-64285714D01*
X44050057Y-64285714D02*
X44002438Y-64333333D01*
X44002438Y-64333333D02*
X43954819Y-64428571D01*
X43954819Y-64428571D02*
X43954819Y-64619047D01*
X43954819Y-64619047D02*
X44002438Y-64714285D01*
X44002438Y-64714285D02*
X44050057Y-64761904D01*
X44050057Y-64761904D02*
X44145295Y-64809523D01*
X44145295Y-64809523D02*
X44383390Y-64809523D01*
X44383390Y-64809523D02*
X44478628Y-64761904D01*
X44478628Y-64761904D02*
X44526247Y-64714285D01*
X44526247Y-64714285D02*
X44573866Y-64619047D01*
X44573866Y-64619047D02*
X44573866Y-64428571D01*
X44573866Y-64428571D02*
X44526247Y-64333333D01*
X44526247Y-64333333D02*
X44478628Y-64285714D01*
X44478628Y-64285714D02*
X44383390Y-64238095D01*
X41657142Y-59654819D02*
X41323809Y-59178628D01*
X41085714Y-59654819D02*
X41085714Y-58654819D01*
X41085714Y-58654819D02*
X41466666Y-58654819D01*
X41466666Y-58654819D02*
X41561904Y-58702438D01*
X41561904Y-58702438D02*
X41609523Y-58750057D01*
X41609523Y-58750057D02*
X41657142Y-58845295D01*
X41657142Y-58845295D02*
X41657142Y-58988152D01*
X41657142Y-58988152D02*
X41609523Y-59083390D01*
X41609523Y-59083390D02*
X41561904Y-59131009D01*
X41561904Y-59131009D02*
X41466666Y-59178628D01*
X41466666Y-59178628D02*
X41085714Y-59178628D01*
X42038095Y-58750057D02*
X42085714Y-58702438D01*
X42085714Y-58702438D02*
X42180952Y-58654819D01*
X42180952Y-58654819D02*
X42419047Y-58654819D01*
X42419047Y-58654819D02*
X42514285Y-58702438D01*
X42514285Y-58702438D02*
X42561904Y-58750057D01*
X42561904Y-58750057D02*
X42609523Y-58845295D01*
X42609523Y-58845295D02*
X42609523Y-58940533D01*
X42609523Y-58940533D02*
X42561904Y-59083390D01*
X42561904Y-59083390D02*
X41990476Y-59654819D01*
X41990476Y-59654819D02*
X42609523Y-59654819D01*
X43180952Y-59083390D02*
X43085714Y-59035771D01*
X43085714Y-59035771D02*
X43038095Y-58988152D01*
X43038095Y-58988152D02*
X42990476Y-58892914D01*
X42990476Y-58892914D02*
X42990476Y-58845295D01*
X42990476Y-58845295D02*
X43038095Y-58750057D01*
X43038095Y-58750057D02*
X43085714Y-58702438D01*
X43085714Y-58702438D02*
X43180952Y-58654819D01*
X43180952Y-58654819D02*
X43371428Y-58654819D01*
X43371428Y-58654819D02*
X43466666Y-58702438D01*
X43466666Y-58702438D02*
X43514285Y-58750057D01*
X43514285Y-58750057D02*
X43561904Y-58845295D01*
X43561904Y-58845295D02*
X43561904Y-58892914D01*
X43561904Y-58892914D02*
X43514285Y-58988152D01*
X43514285Y-58988152D02*
X43466666Y-59035771D01*
X43466666Y-59035771D02*
X43371428Y-59083390D01*
X43371428Y-59083390D02*
X43180952Y-59083390D01*
X43180952Y-59083390D02*
X43085714Y-59131009D01*
X43085714Y-59131009D02*
X43038095Y-59178628D01*
X43038095Y-59178628D02*
X42990476Y-59273866D01*
X42990476Y-59273866D02*
X42990476Y-59464342D01*
X42990476Y-59464342D02*
X43038095Y-59559580D01*
X43038095Y-59559580D02*
X43085714Y-59607200D01*
X43085714Y-59607200D02*
X43180952Y-59654819D01*
X43180952Y-59654819D02*
X43371428Y-59654819D01*
X43371428Y-59654819D02*
X43466666Y-59607200D01*
X43466666Y-59607200D02*
X43514285Y-59559580D01*
X43514285Y-59559580D02*
X43561904Y-59464342D01*
X43561904Y-59464342D02*
X43561904Y-59273866D01*
X43561904Y-59273866D02*
X43514285Y-59178628D01*
X43514285Y-59178628D02*
X43466666Y-59131009D01*
X43466666Y-59131009D02*
X43371428Y-59083390D01*
X48254819Y-66242857D02*
X47778628Y-66576190D01*
X48254819Y-66814285D02*
X47254819Y-66814285D01*
X47254819Y-66814285D02*
X47254819Y-66433333D01*
X47254819Y-66433333D02*
X47302438Y-66338095D01*
X47302438Y-66338095D02*
X47350057Y-66290476D01*
X47350057Y-66290476D02*
X47445295Y-66242857D01*
X47445295Y-66242857D02*
X47588152Y-66242857D01*
X47588152Y-66242857D02*
X47683390Y-66290476D01*
X47683390Y-66290476D02*
X47731009Y-66338095D01*
X47731009Y-66338095D02*
X47778628Y-66433333D01*
X47778628Y-66433333D02*
X47778628Y-66814285D01*
X47350057Y-65861904D02*
X47302438Y-65814285D01*
X47302438Y-65814285D02*
X47254819Y-65719047D01*
X47254819Y-65719047D02*
X47254819Y-65480952D01*
X47254819Y-65480952D02*
X47302438Y-65385714D01*
X47302438Y-65385714D02*
X47350057Y-65338095D01*
X47350057Y-65338095D02*
X47445295Y-65290476D01*
X47445295Y-65290476D02*
X47540533Y-65290476D01*
X47540533Y-65290476D02*
X47683390Y-65338095D01*
X47683390Y-65338095D02*
X48254819Y-65909523D01*
X48254819Y-65909523D02*
X48254819Y-65290476D01*
X47254819Y-64957142D02*
X47254819Y-64290476D01*
X47254819Y-64290476D02*
X48254819Y-64719047D01*
X51157142Y-58054819D02*
X50823809Y-57578628D01*
X50585714Y-58054819D02*
X50585714Y-57054819D01*
X50585714Y-57054819D02*
X50966666Y-57054819D01*
X50966666Y-57054819D02*
X51061904Y-57102438D01*
X51061904Y-57102438D02*
X51109523Y-57150057D01*
X51109523Y-57150057D02*
X51157142Y-57245295D01*
X51157142Y-57245295D02*
X51157142Y-57388152D01*
X51157142Y-57388152D02*
X51109523Y-57483390D01*
X51109523Y-57483390D02*
X51061904Y-57531009D01*
X51061904Y-57531009D02*
X50966666Y-57578628D01*
X50966666Y-57578628D02*
X50585714Y-57578628D01*
X51538095Y-57150057D02*
X51585714Y-57102438D01*
X51585714Y-57102438D02*
X51680952Y-57054819D01*
X51680952Y-57054819D02*
X51919047Y-57054819D01*
X51919047Y-57054819D02*
X52014285Y-57102438D01*
X52014285Y-57102438D02*
X52061904Y-57150057D01*
X52061904Y-57150057D02*
X52109523Y-57245295D01*
X52109523Y-57245295D02*
X52109523Y-57340533D01*
X52109523Y-57340533D02*
X52061904Y-57483390D01*
X52061904Y-57483390D02*
X51490476Y-58054819D01*
X51490476Y-58054819D02*
X52109523Y-58054819D01*
X52966666Y-57054819D02*
X52776190Y-57054819D01*
X52776190Y-57054819D02*
X52680952Y-57102438D01*
X52680952Y-57102438D02*
X52633333Y-57150057D01*
X52633333Y-57150057D02*
X52538095Y-57292914D01*
X52538095Y-57292914D02*
X52490476Y-57483390D01*
X52490476Y-57483390D02*
X52490476Y-57864342D01*
X52490476Y-57864342D02*
X52538095Y-57959580D01*
X52538095Y-57959580D02*
X52585714Y-58007200D01*
X52585714Y-58007200D02*
X52680952Y-58054819D01*
X52680952Y-58054819D02*
X52871428Y-58054819D01*
X52871428Y-58054819D02*
X52966666Y-58007200D01*
X52966666Y-58007200D02*
X53014285Y-57959580D01*
X53014285Y-57959580D02*
X53061904Y-57864342D01*
X53061904Y-57864342D02*
X53061904Y-57626247D01*
X53061904Y-57626247D02*
X53014285Y-57531009D01*
X53014285Y-57531009D02*
X52966666Y-57483390D01*
X52966666Y-57483390D02*
X52871428Y-57435771D01*
X52871428Y-57435771D02*
X52680952Y-57435771D01*
X52680952Y-57435771D02*
X52585714Y-57483390D01*
X52585714Y-57483390D02*
X52538095Y-57531009D01*
X52538095Y-57531009D02*
X52490476Y-57626247D01*
X51157142Y-59754819D02*
X50823809Y-59278628D01*
X50585714Y-59754819D02*
X50585714Y-58754819D01*
X50585714Y-58754819D02*
X50966666Y-58754819D01*
X50966666Y-58754819D02*
X51061904Y-58802438D01*
X51061904Y-58802438D02*
X51109523Y-58850057D01*
X51109523Y-58850057D02*
X51157142Y-58945295D01*
X51157142Y-58945295D02*
X51157142Y-59088152D01*
X51157142Y-59088152D02*
X51109523Y-59183390D01*
X51109523Y-59183390D02*
X51061904Y-59231009D01*
X51061904Y-59231009D02*
X50966666Y-59278628D01*
X50966666Y-59278628D02*
X50585714Y-59278628D01*
X51538095Y-58850057D02*
X51585714Y-58802438D01*
X51585714Y-58802438D02*
X51680952Y-58754819D01*
X51680952Y-58754819D02*
X51919047Y-58754819D01*
X51919047Y-58754819D02*
X52014285Y-58802438D01*
X52014285Y-58802438D02*
X52061904Y-58850057D01*
X52061904Y-58850057D02*
X52109523Y-58945295D01*
X52109523Y-58945295D02*
X52109523Y-59040533D01*
X52109523Y-59040533D02*
X52061904Y-59183390D01*
X52061904Y-59183390D02*
X51490476Y-59754819D01*
X51490476Y-59754819D02*
X52109523Y-59754819D01*
X53014285Y-58754819D02*
X52538095Y-58754819D01*
X52538095Y-58754819D02*
X52490476Y-59231009D01*
X52490476Y-59231009D02*
X52538095Y-59183390D01*
X52538095Y-59183390D02*
X52633333Y-59135771D01*
X52633333Y-59135771D02*
X52871428Y-59135771D01*
X52871428Y-59135771D02*
X52966666Y-59183390D01*
X52966666Y-59183390D02*
X53014285Y-59231009D01*
X53014285Y-59231009D02*
X53061904Y-59326247D01*
X53061904Y-59326247D02*
X53061904Y-59564342D01*
X53061904Y-59564342D02*
X53014285Y-59659580D01*
X53014285Y-59659580D02*
X52966666Y-59707200D01*
X52966666Y-59707200D02*
X52871428Y-59754819D01*
X52871428Y-59754819D02*
X52633333Y-59754819D01*
X52633333Y-59754819D02*
X52538095Y-59707200D01*
X52538095Y-59707200D02*
X52490476Y-59659580D01*
X54054819Y-67642857D02*
X53578628Y-67976190D01*
X54054819Y-68214285D02*
X53054819Y-68214285D01*
X53054819Y-68214285D02*
X53054819Y-67833333D01*
X53054819Y-67833333D02*
X53102438Y-67738095D01*
X53102438Y-67738095D02*
X53150057Y-67690476D01*
X53150057Y-67690476D02*
X53245295Y-67642857D01*
X53245295Y-67642857D02*
X53388152Y-67642857D01*
X53388152Y-67642857D02*
X53483390Y-67690476D01*
X53483390Y-67690476D02*
X53531009Y-67738095D01*
X53531009Y-67738095D02*
X53578628Y-67833333D01*
X53578628Y-67833333D02*
X53578628Y-68214285D01*
X53150057Y-67261904D02*
X53102438Y-67214285D01*
X53102438Y-67214285D02*
X53054819Y-67119047D01*
X53054819Y-67119047D02*
X53054819Y-66880952D01*
X53054819Y-66880952D02*
X53102438Y-66785714D01*
X53102438Y-66785714D02*
X53150057Y-66738095D01*
X53150057Y-66738095D02*
X53245295Y-66690476D01*
X53245295Y-66690476D02*
X53340533Y-66690476D01*
X53340533Y-66690476D02*
X53483390Y-66738095D01*
X53483390Y-66738095D02*
X54054819Y-67309523D01*
X54054819Y-67309523D02*
X54054819Y-66690476D01*
X53054819Y-66357142D02*
X53054819Y-65738095D01*
X53054819Y-65738095D02*
X53435771Y-66071428D01*
X53435771Y-66071428D02*
X53435771Y-65928571D01*
X53435771Y-65928571D02*
X53483390Y-65833333D01*
X53483390Y-65833333D02*
X53531009Y-65785714D01*
X53531009Y-65785714D02*
X53626247Y-65738095D01*
X53626247Y-65738095D02*
X53864342Y-65738095D01*
X53864342Y-65738095D02*
X53959580Y-65785714D01*
X53959580Y-65785714D02*
X54007200Y-65833333D01*
X54007200Y-65833333D02*
X54054819Y-65928571D01*
X54054819Y-65928571D02*
X54054819Y-66214285D01*
X54054819Y-66214285D02*
X54007200Y-66309523D01*
X54007200Y-66309523D02*
X53959580Y-66357142D01*
X51654819Y-67642857D02*
X51178628Y-67976190D01*
X51654819Y-68214285D02*
X50654819Y-68214285D01*
X50654819Y-68214285D02*
X50654819Y-67833333D01*
X50654819Y-67833333D02*
X50702438Y-67738095D01*
X50702438Y-67738095D02*
X50750057Y-67690476D01*
X50750057Y-67690476D02*
X50845295Y-67642857D01*
X50845295Y-67642857D02*
X50988152Y-67642857D01*
X50988152Y-67642857D02*
X51083390Y-67690476D01*
X51083390Y-67690476D02*
X51131009Y-67738095D01*
X51131009Y-67738095D02*
X51178628Y-67833333D01*
X51178628Y-67833333D02*
X51178628Y-68214285D01*
X50750057Y-67261904D02*
X50702438Y-67214285D01*
X50702438Y-67214285D02*
X50654819Y-67119047D01*
X50654819Y-67119047D02*
X50654819Y-66880952D01*
X50654819Y-66880952D02*
X50702438Y-66785714D01*
X50702438Y-66785714D02*
X50750057Y-66738095D01*
X50750057Y-66738095D02*
X50845295Y-66690476D01*
X50845295Y-66690476D02*
X50940533Y-66690476D01*
X50940533Y-66690476D02*
X51083390Y-66738095D01*
X51083390Y-66738095D02*
X51654819Y-67309523D01*
X51654819Y-67309523D02*
X51654819Y-66690476D01*
X50750057Y-66309523D02*
X50702438Y-66261904D01*
X50702438Y-66261904D02*
X50654819Y-66166666D01*
X50654819Y-66166666D02*
X50654819Y-65928571D01*
X50654819Y-65928571D02*
X50702438Y-65833333D01*
X50702438Y-65833333D02*
X50750057Y-65785714D01*
X50750057Y-65785714D02*
X50845295Y-65738095D01*
X50845295Y-65738095D02*
X50940533Y-65738095D01*
X50940533Y-65738095D02*
X51083390Y-65785714D01*
X51083390Y-65785714D02*
X51654819Y-66357142D01*
X51654819Y-66357142D02*
X51654819Y-65738095D01*
X42061905Y-39154819D02*
X42061905Y-38154819D01*
X42061905Y-38154819D02*
X42300000Y-38154819D01*
X42300000Y-38154819D02*
X42442857Y-38202438D01*
X42442857Y-38202438D02*
X42538095Y-38297676D01*
X42538095Y-38297676D02*
X42585714Y-38392914D01*
X42585714Y-38392914D02*
X42633333Y-38583390D01*
X42633333Y-38583390D02*
X42633333Y-38726247D01*
X42633333Y-38726247D02*
X42585714Y-38916723D01*
X42585714Y-38916723D02*
X42538095Y-39011961D01*
X42538095Y-39011961D02*
X42442857Y-39107200D01*
X42442857Y-39107200D02*
X42300000Y-39154819D01*
X42300000Y-39154819D02*
X42061905Y-39154819D01*
X42966667Y-38154819D02*
X43585714Y-38154819D01*
X43585714Y-38154819D02*
X43252381Y-38535771D01*
X43252381Y-38535771D02*
X43395238Y-38535771D01*
X43395238Y-38535771D02*
X43490476Y-38583390D01*
X43490476Y-38583390D02*
X43538095Y-38631009D01*
X43538095Y-38631009D02*
X43585714Y-38726247D01*
X43585714Y-38726247D02*
X43585714Y-38964342D01*
X43585714Y-38964342D02*
X43538095Y-39059580D01*
X43538095Y-39059580D02*
X43490476Y-39107200D01*
X43490476Y-39107200D02*
X43395238Y-39154819D01*
X43395238Y-39154819D02*
X43109524Y-39154819D01*
X43109524Y-39154819D02*
X43014286Y-39107200D01*
X43014286Y-39107200D02*
X42966667Y-39059580D01*
X41657142Y-42559580D02*
X41609523Y-42607200D01*
X41609523Y-42607200D02*
X41466666Y-42654819D01*
X41466666Y-42654819D02*
X41371428Y-42654819D01*
X41371428Y-42654819D02*
X41228571Y-42607200D01*
X41228571Y-42607200D02*
X41133333Y-42511961D01*
X41133333Y-42511961D02*
X41085714Y-42416723D01*
X41085714Y-42416723D02*
X41038095Y-42226247D01*
X41038095Y-42226247D02*
X41038095Y-42083390D01*
X41038095Y-42083390D02*
X41085714Y-41892914D01*
X41085714Y-41892914D02*
X41133333Y-41797676D01*
X41133333Y-41797676D02*
X41228571Y-41702438D01*
X41228571Y-41702438D02*
X41371428Y-41654819D01*
X41371428Y-41654819D02*
X41466666Y-41654819D01*
X41466666Y-41654819D02*
X41609523Y-41702438D01*
X41609523Y-41702438D02*
X41657142Y-41750057D01*
X42609523Y-42654819D02*
X42038095Y-42654819D01*
X42323809Y-42654819D02*
X42323809Y-41654819D01*
X42323809Y-41654819D02*
X42228571Y-41797676D01*
X42228571Y-41797676D02*
X42133333Y-41892914D01*
X42133333Y-41892914D02*
X42038095Y-41940533D01*
X42990476Y-41750057D02*
X43038095Y-41702438D01*
X43038095Y-41702438D02*
X43133333Y-41654819D01*
X43133333Y-41654819D02*
X43371428Y-41654819D01*
X43371428Y-41654819D02*
X43466666Y-41702438D01*
X43466666Y-41702438D02*
X43514285Y-41750057D01*
X43514285Y-41750057D02*
X43561904Y-41845295D01*
X43561904Y-41845295D02*
X43561904Y-41940533D01*
X43561904Y-41940533D02*
X43514285Y-42083390D01*
X43514285Y-42083390D02*
X42942857Y-42654819D01*
X42942857Y-42654819D02*
X43561904Y-42654819D01*
X54857142Y-61959580D02*
X54809523Y-62007200D01*
X54809523Y-62007200D02*
X54666666Y-62054819D01*
X54666666Y-62054819D02*
X54571428Y-62054819D01*
X54571428Y-62054819D02*
X54428571Y-62007200D01*
X54428571Y-62007200D02*
X54333333Y-61911961D01*
X54333333Y-61911961D02*
X54285714Y-61816723D01*
X54285714Y-61816723D02*
X54238095Y-61626247D01*
X54238095Y-61626247D02*
X54238095Y-61483390D01*
X54238095Y-61483390D02*
X54285714Y-61292914D01*
X54285714Y-61292914D02*
X54333333Y-61197676D01*
X54333333Y-61197676D02*
X54428571Y-61102438D01*
X54428571Y-61102438D02*
X54571428Y-61054819D01*
X54571428Y-61054819D02*
X54666666Y-61054819D01*
X54666666Y-61054819D02*
X54809523Y-61102438D01*
X54809523Y-61102438D02*
X54857142Y-61150057D01*
X55809523Y-62054819D02*
X55238095Y-62054819D01*
X55523809Y-62054819D02*
X55523809Y-61054819D01*
X55523809Y-61054819D02*
X55428571Y-61197676D01*
X55428571Y-61197676D02*
X55333333Y-61292914D01*
X55333333Y-61292914D02*
X55238095Y-61340533D01*
X56761904Y-62054819D02*
X56190476Y-62054819D01*
X56476190Y-62054819D02*
X56476190Y-61054819D01*
X56476190Y-61054819D02*
X56380952Y-61197676D01*
X56380952Y-61197676D02*
X56285714Y-61292914D01*
X56285714Y-61292914D02*
X56190476Y-61340533D01*
X48754819Y-52261904D02*
X49564342Y-52261904D01*
X49564342Y-52261904D02*
X49659580Y-52214285D01*
X49659580Y-52214285D02*
X49707200Y-52166666D01*
X49707200Y-52166666D02*
X49754819Y-52071428D01*
X49754819Y-52071428D02*
X49754819Y-51880952D01*
X49754819Y-51880952D02*
X49707200Y-51785714D01*
X49707200Y-51785714D02*
X49659580Y-51738095D01*
X49659580Y-51738095D02*
X49564342Y-51690476D01*
X49564342Y-51690476D02*
X48754819Y-51690476D01*
X48754819Y-50785714D02*
X48754819Y-50976190D01*
X48754819Y-50976190D02*
X48802438Y-51071428D01*
X48802438Y-51071428D02*
X48850057Y-51119047D01*
X48850057Y-51119047D02*
X48992914Y-51214285D01*
X48992914Y-51214285D02*
X49183390Y-51261904D01*
X49183390Y-51261904D02*
X49564342Y-51261904D01*
X49564342Y-51261904D02*
X49659580Y-51214285D01*
X49659580Y-51214285D02*
X49707200Y-51166666D01*
X49707200Y-51166666D02*
X49754819Y-51071428D01*
X49754819Y-51071428D02*
X49754819Y-50880952D01*
X49754819Y-50880952D02*
X49707200Y-50785714D01*
X49707200Y-50785714D02*
X49659580Y-50738095D01*
X49659580Y-50738095D02*
X49564342Y-50690476D01*
X49564342Y-50690476D02*
X49326247Y-50690476D01*
X49326247Y-50690476D02*
X49231009Y-50738095D01*
X49231009Y-50738095D02*
X49183390Y-50785714D01*
X49183390Y-50785714D02*
X49135771Y-50880952D01*
X49135771Y-50880952D02*
X49135771Y-51071428D01*
X49135771Y-51071428D02*
X49183390Y-51166666D01*
X49183390Y-51166666D02*
X49231009Y-51214285D01*
X49231009Y-51214285D02*
X49326247Y-51261904D01*
X57459580Y-54342857D02*
X57507200Y-54390476D01*
X57507200Y-54390476D02*
X57554819Y-54533333D01*
X57554819Y-54533333D02*
X57554819Y-54628571D01*
X57554819Y-54628571D02*
X57507200Y-54771428D01*
X57507200Y-54771428D02*
X57411961Y-54866666D01*
X57411961Y-54866666D02*
X57316723Y-54914285D01*
X57316723Y-54914285D02*
X57126247Y-54961904D01*
X57126247Y-54961904D02*
X56983390Y-54961904D01*
X56983390Y-54961904D02*
X56792914Y-54914285D01*
X56792914Y-54914285D02*
X56697676Y-54866666D01*
X56697676Y-54866666D02*
X56602438Y-54771428D01*
X56602438Y-54771428D02*
X56554819Y-54628571D01*
X56554819Y-54628571D02*
X56554819Y-54533333D01*
X56554819Y-54533333D02*
X56602438Y-54390476D01*
X56602438Y-54390476D02*
X56650057Y-54342857D01*
X57554819Y-53390476D02*
X57554819Y-53961904D01*
X57554819Y-53676190D02*
X56554819Y-53676190D01*
X56554819Y-53676190D02*
X56697676Y-53771428D01*
X56697676Y-53771428D02*
X56792914Y-53866666D01*
X56792914Y-53866666D02*
X56840533Y-53961904D01*
X56554819Y-52771428D02*
X56554819Y-52676190D01*
X56554819Y-52676190D02*
X56602438Y-52580952D01*
X56602438Y-52580952D02*
X56650057Y-52533333D01*
X56650057Y-52533333D02*
X56745295Y-52485714D01*
X56745295Y-52485714D02*
X56935771Y-52438095D01*
X56935771Y-52438095D02*
X57173866Y-52438095D01*
X57173866Y-52438095D02*
X57364342Y-52485714D01*
X57364342Y-52485714D02*
X57459580Y-52533333D01*
X57459580Y-52533333D02*
X57507200Y-52580952D01*
X57507200Y-52580952D02*
X57554819Y-52676190D01*
X57554819Y-52676190D02*
X57554819Y-52771428D01*
X57554819Y-52771428D02*
X57507200Y-52866666D01*
X57507200Y-52866666D02*
X57459580Y-52914285D01*
X57459580Y-52914285D02*
X57364342Y-52961904D01*
X57364342Y-52961904D02*
X57173866Y-53009523D01*
X57173866Y-53009523D02*
X56935771Y-53009523D01*
X56935771Y-53009523D02*
X56745295Y-52961904D01*
X56745295Y-52961904D02*
X56650057Y-52914285D01*
X56650057Y-52914285D02*
X56602438Y-52866666D01*
X56602438Y-52866666D02*
X56554819Y-52771428D01*
X16854819Y-23961904D02*
X17664342Y-23961904D01*
X17664342Y-23961904D02*
X17759580Y-23914285D01*
X17759580Y-23914285D02*
X17807200Y-23866666D01*
X17807200Y-23866666D02*
X17854819Y-23771428D01*
X17854819Y-23771428D02*
X17854819Y-23580952D01*
X17854819Y-23580952D02*
X17807200Y-23485714D01*
X17807200Y-23485714D02*
X17759580Y-23438095D01*
X17759580Y-23438095D02*
X17664342Y-23390476D01*
X17664342Y-23390476D02*
X16854819Y-23390476D01*
X16854819Y-22438095D02*
X16854819Y-22914285D01*
X16854819Y-22914285D02*
X17331009Y-22961904D01*
X17331009Y-22961904D02*
X17283390Y-22914285D01*
X17283390Y-22914285D02*
X17235771Y-22819047D01*
X17235771Y-22819047D02*
X17235771Y-22580952D01*
X17235771Y-22580952D02*
X17283390Y-22485714D01*
X17283390Y-22485714D02*
X17331009Y-22438095D01*
X17331009Y-22438095D02*
X17426247Y-22390476D01*
X17426247Y-22390476D02*
X17664342Y-22390476D01*
X17664342Y-22390476D02*
X17759580Y-22438095D01*
X17759580Y-22438095D02*
X17807200Y-22485714D01*
X17807200Y-22485714D02*
X17854819Y-22580952D01*
X17854819Y-22580952D02*
X17854819Y-22819047D01*
X17854819Y-22819047D02*
X17807200Y-22914285D01*
X17807200Y-22914285D02*
X17759580Y-22961904D01*
X25259580Y-25966666D02*
X25307200Y-26014285D01*
X25307200Y-26014285D02*
X25354819Y-26157142D01*
X25354819Y-26157142D02*
X25354819Y-26252380D01*
X25354819Y-26252380D02*
X25307200Y-26395237D01*
X25307200Y-26395237D02*
X25211961Y-26490475D01*
X25211961Y-26490475D02*
X25116723Y-26538094D01*
X25116723Y-26538094D02*
X24926247Y-26585713D01*
X24926247Y-26585713D02*
X24783390Y-26585713D01*
X24783390Y-26585713D02*
X24592914Y-26538094D01*
X24592914Y-26538094D02*
X24497676Y-26490475D01*
X24497676Y-26490475D02*
X24402438Y-26395237D01*
X24402438Y-26395237D02*
X24354819Y-26252380D01*
X24354819Y-26252380D02*
X24354819Y-26157142D01*
X24354819Y-26157142D02*
X24402438Y-26014285D01*
X24402438Y-26014285D02*
X24450057Y-25966666D01*
X25354819Y-25490475D02*
X25354819Y-25299999D01*
X25354819Y-25299999D02*
X25307200Y-25204761D01*
X25307200Y-25204761D02*
X25259580Y-25157142D01*
X25259580Y-25157142D02*
X25116723Y-25061904D01*
X25116723Y-25061904D02*
X24926247Y-25014285D01*
X24926247Y-25014285D02*
X24545295Y-25014285D01*
X24545295Y-25014285D02*
X24450057Y-25061904D01*
X24450057Y-25061904D02*
X24402438Y-25109523D01*
X24402438Y-25109523D02*
X24354819Y-25204761D01*
X24354819Y-25204761D02*
X24354819Y-25395237D01*
X24354819Y-25395237D02*
X24402438Y-25490475D01*
X24402438Y-25490475D02*
X24450057Y-25538094D01*
X24450057Y-25538094D02*
X24545295Y-25585713D01*
X24545295Y-25585713D02*
X24783390Y-25585713D01*
X24783390Y-25585713D02*
X24878628Y-25538094D01*
X24878628Y-25538094D02*
X24926247Y-25490475D01*
X24926247Y-25490475D02*
X24973866Y-25395237D01*
X24973866Y-25395237D02*
X24973866Y-25204761D01*
X24973866Y-25204761D02*
X24926247Y-25109523D01*
X24926247Y-25109523D02*
X24878628Y-25061904D01*
X24878628Y-25061904D02*
X24783390Y-25014285D01*
X1938095Y-17254819D02*
X1938095Y-18064342D01*
X1938095Y-18064342D02*
X1985714Y-18159580D01*
X1985714Y-18159580D02*
X2033333Y-18207200D01*
X2033333Y-18207200D02*
X2128571Y-18254819D01*
X2128571Y-18254819D02*
X2319047Y-18254819D01*
X2319047Y-18254819D02*
X2414285Y-18207200D01*
X2414285Y-18207200D02*
X2461904Y-18159580D01*
X2461904Y-18159580D02*
X2509523Y-18064342D01*
X2509523Y-18064342D02*
X2509523Y-17254819D01*
X3414285Y-17588152D02*
X3414285Y-18254819D01*
X3176190Y-17207200D02*
X2938095Y-17921485D01*
X2938095Y-17921485D02*
X3557142Y-17921485D01*
X11659580Y-27966666D02*
X11707200Y-28014285D01*
X11707200Y-28014285D02*
X11754819Y-28157142D01*
X11754819Y-28157142D02*
X11754819Y-28252380D01*
X11754819Y-28252380D02*
X11707200Y-28395237D01*
X11707200Y-28395237D02*
X11611961Y-28490475D01*
X11611961Y-28490475D02*
X11516723Y-28538094D01*
X11516723Y-28538094D02*
X11326247Y-28585713D01*
X11326247Y-28585713D02*
X11183390Y-28585713D01*
X11183390Y-28585713D02*
X10992914Y-28538094D01*
X10992914Y-28538094D02*
X10897676Y-28490475D01*
X10897676Y-28490475D02*
X10802438Y-28395237D01*
X10802438Y-28395237D02*
X10754819Y-28252380D01*
X10754819Y-28252380D02*
X10754819Y-28157142D01*
X10754819Y-28157142D02*
X10802438Y-28014285D01*
X10802438Y-28014285D02*
X10850057Y-27966666D01*
X11183390Y-27395237D02*
X11135771Y-27490475D01*
X11135771Y-27490475D02*
X11088152Y-27538094D01*
X11088152Y-27538094D02*
X10992914Y-27585713D01*
X10992914Y-27585713D02*
X10945295Y-27585713D01*
X10945295Y-27585713D02*
X10850057Y-27538094D01*
X10850057Y-27538094D02*
X10802438Y-27490475D01*
X10802438Y-27490475D02*
X10754819Y-27395237D01*
X10754819Y-27395237D02*
X10754819Y-27204761D01*
X10754819Y-27204761D02*
X10802438Y-27109523D01*
X10802438Y-27109523D02*
X10850057Y-27061904D01*
X10850057Y-27061904D02*
X10945295Y-27014285D01*
X10945295Y-27014285D02*
X10992914Y-27014285D01*
X10992914Y-27014285D02*
X11088152Y-27061904D01*
X11088152Y-27061904D02*
X11135771Y-27109523D01*
X11135771Y-27109523D02*
X11183390Y-27204761D01*
X11183390Y-27204761D02*
X11183390Y-27395237D01*
X11183390Y-27395237D02*
X11231009Y-27490475D01*
X11231009Y-27490475D02*
X11278628Y-27538094D01*
X11278628Y-27538094D02*
X11373866Y-27585713D01*
X11373866Y-27585713D02*
X11564342Y-27585713D01*
X11564342Y-27585713D02*
X11659580Y-27538094D01*
X11659580Y-27538094D02*
X11707200Y-27490475D01*
X11707200Y-27490475D02*
X11754819Y-27395237D01*
X11754819Y-27395237D02*
X11754819Y-27204761D01*
X11754819Y-27204761D02*
X11707200Y-27109523D01*
X11707200Y-27109523D02*
X11659580Y-27061904D01*
X11659580Y-27061904D02*
X11564342Y-27014285D01*
X11564342Y-27014285D02*
X11373866Y-27014285D01*
X11373866Y-27014285D02*
X11278628Y-27061904D01*
X11278628Y-27061904D02*
X11231009Y-27109523D01*
X11231009Y-27109523D02*
X11183390Y-27204761D01*
X2059580Y-27266666D02*
X2107200Y-27314285D01*
X2107200Y-27314285D02*
X2154819Y-27457142D01*
X2154819Y-27457142D02*
X2154819Y-27552380D01*
X2154819Y-27552380D02*
X2107200Y-27695237D01*
X2107200Y-27695237D02*
X2011961Y-27790475D01*
X2011961Y-27790475D02*
X1916723Y-27838094D01*
X1916723Y-27838094D02*
X1726247Y-27885713D01*
X1726247Y-27885713D02*
X1583390Y-27885713D01*
X1583390Y-27885713D02*
X1392914Y-27838094D01*
X1392914Y-27838094D02*
X1297676Y-27790475D01*
X1297676Y-27790475D02*
X1202438Y-27695237D01*
X1202438Y-27695237D02*
X1154819Y-27552380D01*
X1154819Y-27552380D02*
X1154819Y-27457142D01*
X1154819Y-27457142D02*
X1202438Y-27314285D01*
X1202438Y-27314285D02*
X1250057Y-27266666D01*
X1154819Y-26933332D02*
X1154819Y-26266666D01*
X1154819Y-26266666D02*
X2154819Y-26695237D01*
X44461905Y-73054819D02*
X44461905Y-72054819D01*
X44461905Y-72054819D02*
X44700000Y-72054819D01*
X44700000Y-72054819D02*
X44842857Y-72102438D01*
X44842857Y-72102438D02*
X44938095Y-72197676D01*
X44938095Y-72197676D02*
X44985714Y-72292914D01*
X44985714Y-72292914D02*
X45033333Y-72483390D01*
X45033333Y-72483390D02*
X45033333Y-72626247D01*
X45033333Y-72626247D02*
X44985714Y-72816723D01*
X44985714Y-72816723D02*
X44938095Y-72911961D01*
X44938095Y-72911961D02*
X44842857Y-73007200D01*
X44842857Y-73007200D02*
X44700000Y-73054819D01*
X44700000Y-73054819D02*
X44461905Y-73054819D01*
X45414286Y-72150057D02*
X45461905Y-72102438D01*
X45461905Y-72102438D02*
X45557143Y-72054819D01*
X45557143Y-72054819D02*
X45795238Y-72054819D01*
X45795238Y-72054819D02*
X45890476Y-72102438D01*
X45890476Y-72102438D02*
X45938095Y-72150057D01*
X45938095Y-72150057D02*
X45985714Y-72245295D01*
X45985714Y-72245295D02*
X45985714Y-72340533D01*
X45985714Y-72340533D02*
X45938095Y-72483390D01*
X45938095Y-72483390D02*
X45366667Y-73054819D01*
X45366667Y-73054819D02*
X45985714Y-73054819D01*
X44461905Y-69454819D02*
X44461905Y-68454819D01*
X44461905Y-68454819D02*
X44700000Y-68454819D01*
X44700000Y-68454819D02*
X44842857Y-68502438D01*
X44842857Y-68502438D02*
X44938095Y-68597676D01*
X44938095Y-68597676D02*
X44985714Y-68692914D01*
X44985714Y-68692914D02*
X45033333Y-68883390D01*
X45033333Y-68883390D02*
X45033333Y-69026247D01*
X45033333Y-69026247D02*
X44985714Y-69216723D01*
X44985714Y-69216723D02*
X44938095Y-69311961D01*
X44938095Y-69311961D02*
X44842857Y-69407200D01*
X44842857Y-69407200D02*
X44700000Y-69454819D01*
X44700000Y-69454819D02*
X44461905Y-69454819D01*
X45985714Y-69454819D02*
X45414286Y-69454819D01*
X45700000Y-69454819D02*
X45700000Y-68454819D01*
X45700000Y-68454819D02*
X45604762Y-68597676D01*
X45604762Y-68597676D02*
X45509524Y-68692914D01*
X45509524Y-68692914D02*
X45414286Y-68740533D01*
X10833333Y-12759580D02*
X10785714Y-12807200D01*
X10785714Y-12807200D02*
X10642857Y-12854819D01*
X10642857Y-12854819D02*
X10547619Y-12854819D01*
X10547619Y-12854819D02*
X10404762Y-12807200D01*
X10404762Y-12807200D02*
X10309524Y-12711961D01*
X10309524Y-12711961D02*
X10261905Y-12616723D01*
X10261905Y-12616723D02*
X10214286Y-12426247D01*
X10214286Y-12426247D02*
X10214286Y-12283390D01*
X10214286Y-12283390D02*
X10261905Y-12092914D01*
X10261905Y-12092914D02*
X10309524Y-11997676D01*
X10309524Y-11997676D02*
X10404762Y-11902438D01*
X10404762Y-11902438D02*
X10547619Y-11854819D01*
X10547619Y-11854819D02*
X10642857Y-11854819D01*
X10642857Y-11854819D02*
X10785714Y-11902438D01*
X10785714Y-11902438D02*
X10833333Y-11950057D01*
X11690476Y-11854819D02*
X11500000Y-11854819D01*
X11500000Y-11854819D02*
X11404762Y-11902438D01*
X11404762Y-11902438D02*
X11357143Y-11950057D01*
X11357143Y-11950057D02*
X11261905Y-12092914D01*
X11261905Y-12092914D02*
X11214286Y-12283390D01*
X11214286Y-12283390D02*
X11214286Y-12664342D01*
X11214286Y-12664342D02*
X11261905Y-12759580D01*
X11261905Y-12759580D02*
X11309524Y-12807200D01*
X11309524Y-12807200D02*
X11404762Y-12854819D01*
X11404762Y-12854819D02*
X11595238Y-12854819D01*
X11595238Y-12854819D02*
X11690476Y-12807200D01*
X11690476Y-12807200D02*
X11738095Y-12759580D01*
X11738095Y-12759580D02*
X11785714Y-12664342D01*
X11785714Y-12664342D02*
X11785714Y-12426247D01*
X11785714Y-12426247D02*
X11738095Y-12331009D01*
X11738095Y-12331009D02*
X11690476Y-12283390D01*
X11690476Y-12283390D02*
X11595238Y-12235771D01*
X11595238Y-12235771D02*
X11404762Y-12235771D01*
X11404762Y-12235771D02*
X11309524Y-12283390D01*
X11309524Y-12283390D02*
X11261905Y-12331009D01*
X11261905Y-12331009D02*
X11214286Y-12426247D01*
X11033333Y-67259580D02*
X10985714Y-67307200D01*
X10985714Y-67307200D02*
X10842857Y-67354819D01*
X10842857Y-67354819D02*
X10747619Y-67354819D01*
X10747619Y-67354819D02*
X10604762Y-67307200D01*
X10604762Y-67307200D02*
X10509524Y-67211961D01*
X10509524Y-67211961D02*
X10461905Y-67116723D01*
X10461905Y-67116723D02*
X10414286Y-66926247D01*
X10414286Y-66926247D02*
X10414286Y-66783390D01*
X10414286Y-66783390D02*
X10461905Y-66592914D01*
X10461905Y-66592914D02*
X10509524Y-66497676D01*
X10509524Y-66497676D02*
X10604762Y-66402438D01*
X10604762Y-66402438D02*
X10747619Y-66354819D01*
X10747619Y-66354819D02*
X10842857Y-66354819D01*
X10842857Y-66354819D02*
X10985714Y-66402438D01*
X10985714Y-66402438D02*
X11033333Y-66450057D01*
X11938095Y-66354819D02*
X11461905Y-66354819D01*
X11461905Y-66354819D02*
X11414286Y-66831009D01*
X11414286Y-66831009D02*
X11461905Y-66783390D01*
X11461905Y-66783390D02*
X11557143Y-66735771D01*
X11557143Y-66735771D02*
X11795238Y-66735771D01*
X11795238Y-66735771D02*
X11890476Y-66783390D01*
X11890476Y-66783390D02*
X11938095Y-66831009D01*
X11938095Y-66831009D02*
X11985714Y-66926247D01*
X11985714Y-66926247D02*
X11985714Y-67164342D01*
X11985714Y-67164342D02*
X11938095Y-67259580D01*
X11938095Y-67259580D02*
X11890476Y-67307200D01*
X11890476Y-67307200D02*
X11795238Y-67354819D01*
X11795238Y-67354819D02*
X11557143Y-67354819D01*
X11557143Y-67354819D02*
X11461905Y-67307200D01*
X11461905Y-67307200D02*
X11414286Y-67259580D01*
X13759580Y-38666666D02*
X13807200Y-38714285D01*
X13807200Y-38714285D02*
X13854819Y-38857142D01*
X13854819Y-38857142D02*
X13854819Y-38952380D01*
X13854819Y-38952380D02*
X13807200Y-39095237D01*
X13807200Y-39095237D02*
X13711961Y-39190475D01*
X13711961Y-39190475D02*
X13616723Y-39238094D01*
X13616723Y-39238094D02*
X13426247Y-39285713D01*
X13426247Y-39285713D02*
X13283390Y-39285713D01*
X13283390Y-39285713D02*
X13092914Y-39238094D01*
X13092914Y-39238094D02*
X12997676Y-39190475D01*
X12997676Y-39190475D02*
X12902438Y-39095237D01*
X12902438Y-39095237D02*
X12854819Y-38952380D01*
X12854819Y-38952380D02*
X12854819Y-38857142D01*
X12854819Y-38857142D02*
X12902438Y-38714285D01*
X12902438Y-38714285D02*
X12950057Y-38666666D01*
X13188152Y-37809523D02*
X13854819Y-37809523D01*
X12807200Y-38047618D02*
X13521485Y-38285713D01*
X13521485Y-38285713D02*
X13521485Y-37666666D01*
X21759580Y-53566666D02*
X21807200Y-53614285D01*
X21807200Y-53614285D02*
X21854819Y-53757142D01*
X21854819Y-53757142D02*
X21854819Y-53852380D01*
X21854819Y-53852380D02*
X21807200Y-53995237D01*
X21807200Y-53995237D02*
X21711961Y-54090475D01*
X21711961Y-54090475D02*
X21616723Y-54138094D01*
X21616723Y-54138094D02*
X21426247Y-54185713D01*
X21426247Y-54185713D02*
X21283390Y-54185713D01*
X21283390Y-54185713D02*
X21092914Y-54138094D01*
X21092914Y-54138094D02*
X20997676Y-54090475D01*
X20997676Y-54090475D02*
X20902438Y-53995237D01*
X20902438Y-53995237D02*
X20854819Y-53852380D01*
X20854819Y-53852380D02*
X20854819Y-53757142D01*
X20854819Y-53757142D02*
X20902438Y-53614285D01*
X20902438Y-53614285D02*
X20950057Y-53566666D01*
X20854819Y-53233332D02*
X20854819Y-52614285D01*
X20854819Y-52614285D02*
X21235771Y-52947618D01*
X21235771Y-52947618D02*
X21235771Y-52804761D01*
X21235771Y-52804761D02*
X21283390Y-52709523D01*
X21283390Y-52709523D02*
X21331009Y-52661904D01*
X21331009Y-52661904D02*
X21426247Y-52614285D01*
X21426247Y-52614285D02*
X21664342Y-52614285D01*
X21664342Y-52614285D02*
X21759580Y-52661904D01*
X21759580Y-52661904D02*
X21807200Y-52709523D01*
X21807200Y-52709523D02*
X21854819Y-52804761D01*
X21854819Y-52804761D02*
X21854819Y-53090475D01*
X21854819Y-53090475D02*
X21807200Y-53185713D01*
X21807200Y-53185713D02*
X21759580Y-53233332D01*
X2259580Y-34566666D02*
X2307200Y-34614285D01*
X2307200Y-34614285D02*
X2354819Y-34757142D01*
X2354819Y-34757142D02*
X2354819Y-34852380D01*
X2354819Y-34852380D02*
X2307200Y-34995237D01*
X2307200Y-34995237D02*
X2211961Y-35090475D01*
X2211961Y-35090475D02*
X2116723Y-35138094D01*
X2116723Y-35138094D02*
X1926247Y-35185713D01*
X1926247Y-35185713D02*
X1783390Y-35185713D01*
X1783390Y-35185713D02*
X1592914Y-35138094D01*
X1592914Y-35138094D02*
X1497676Y-35090475D01*
X1497676Y-35090475D02*
X1402438Y-34995237D01*
X1402438Y-34995237D02*
X1354819Y-34852380D01*
X1354819Y-34852380D02*
X1354819Y-34757142D01*
X1354819Y-34757142D02*
X1402438Y-34614285D01*
X1402438Y-34614285D02*
X1450057Y-34566666D01*
X1450057Y-34185713D02*
X1402438Y-34138094D01*
X1402438Y-34138094D02*
X1354819Y-34042856D01*
X1354819Y-34042856D02*
X1354819Y-33804761D01*
X1354819Y-33804761D02*
X1402438Y-33709523D01*
X1402438Y-33709523D02*
X1450057Y-33661904D01*
X1450057Y-33661904D02*
X1545295Y-33614285D01*
X1545295Y-33614285D02*
X1640533Y-33614285D01*
X1640533Y-33614285D02*
X1783390Y-33661904D01*
X1783390Y-33661904D02*
X2354819Y-34233332D01*
X2354819Y-34233332D02*
X2354819Y-33614285D01*
X23759580Y-63666666D02*
X23807200Y-63714285D01*
X23807200Y-63714285D02*
X23854819Y-63857142D01*
X23854819Y-63857142D02*
X23854819Y-63952380D01*
X23854819Y-63952380D02*
X23807200Y-64095237D01*
X23807200Y-64095237D02*
X23711961Y-64190475D01*
X23711961Y-64190475D02*
X23616723Y-64238094D01*
X23616723Y-64238094D02*
X23426247Y-64285713D01*
X23426247Y-64285713D02*
X23283390Y-64285713D01*
X23283390Y-64285713D02*
X23092914Y-64238094D01*
X23092914Y-64238094D02*
X22997676Y-64190475D01*
X22997676Y-64190475D02*
X22902438Y-64095237D01*
X22902438Y-64095237D02*
X22854819Y-63952380D01*
X22854819Y-63952380D02*
X22854819Y-63857142D01*
X22854819Y-63857142D02*
X22902438Y-63714285D01*
X22902438Y-63714285D02*
X22950057Y-63666666D01*
X23854819Y-62714285D02*
X23854819Y-63285713D01*
X23854819Y-62999999D02*
X22854819Y-62999999D01*
X22854819Y-62999999D02*
X22997676Y-63095237D01*
X22997676Y-63095237D02*
X23092914Y-63190475D01*
X23092914Y-63190475D02*
X23140533Y-63285713D01*
X1407200Y-54714285D02*
X1454819Y-54571428D01*
X1454819Y-54571428D02*
X1454819Y-54333333D01*
X1454819Y-54333333D02*
X1407200Y-54238095D01*
X1407200Y-54238095D02*
X1359580Y-54190476D01*
X1359580Y-54190476D02*
X1264342Y-54142857D01*
X1264342Y-54142857D02*
X1169104Y-54142857D01*
X1169104Y-54142857D02*
X1073866Y-54190476D01*
X1073866Y-54190476D02*
X1026247Y-54238095D01*
X1026247Y-54238095D02*
X978628Y-54333333D01*
X978628Y-54333333D02*
X931009Y-54523809D01*
X931009Y-54523809D02*
X883390Y-54619047D01*
X883390Y-54619047D02*
X835771Y-54666666D01*
X835771Y-54666666D02*
X740533Y-54714285D01*
X740533Y-54714285D02*
X645295Y-54714285D01*
X645295Y-54714285D02*
X550057Y-54666666D01*
X550057Y-54666666D02*
X502438Y-54619047D01*
X502438Y-54619047D02*
X454819Y-54523809D01*
X454819Y-54523809D02*
X454819Y-54285714D01*
X454819Y-54285714D02*
X502438Y-54142857D01*
X788152Y-53809523D02*
X1454819Y-53619047D01*
X1454819Y-53619047D02*
X978628Y-53428571D01*
X978628Y-53428571D02*
X1454819Y-53238095D01*
X1454819Y-53238095D02*
X788152Y-53047619D01*
X1454819Y-52666666D02*
X788152Y-52666666D01*
X454819Y-52666666D02*
X502438Y-52714285D01*
X502438Y-52714285D02*
X550057Y-52666666D01*
X550057Y-52666666D02*
X502438Y-52619047D01*
X502438Y-52619047D02*
X454819Y-52666666D01*
X454819Y-52666666D02*
X550057Y-52666666D01*
X788152Y-52333333D02*
X788152Y-51952381D01*
X454819Y-52190476D02*
X1311961Y-52190476D01*
X1311961Y-52190476D02*
X1407200Y-52142857D01*
X1407200Y-52142857D02*
X1454819Y-52047619D01*
X1454819Y-52047619D02*
X1454819Y-51952381D01*
X1407200Y-51190476D02*
X1454819Y-51285714D01*
X1454819Y-51285714D02*
X1454819Y-51476190D01*
X1454819Y-51476190D02*
X1407200Y-51571428D01*
X1407200Y-51571428D02*
X1359580Y-51619047D01*
X1359580Y-51619047D02*
X1264342Y-51666666D01*
X1264342Y-51666666D02*
X978628Y-51666666D01*
X978628Y-51666666D02*
X883390Y-51619047D01*
X883390Y-51619047D02*
X835771Y-51571428D01*
X835771Y-51571428D02*
X788152Y-51476190D01*
X788152Y-51476190D02*
X788152Y-51285714D01*
X788152Y-51285714D02*
X835771Y-51190476D01*
X1454819Y-50761904D02*
X454819Y-50761904D01*
X1454819Y-50333333D02*
X931009Y-50333333D01*
X931009Y-50333333D02*
X835771Y-50380952D01*
X835771Y-50380952D02*
X788152Y-50476190D01*
X788152Y-50476190D02*
X788152Y-50619047D01*
X788152Y-50619047D02*
X835771Y-50714285D01*
X835771Y-50714285D02*
X883390Y-50761904D01*
X33154819Y-53561904D02*
X33964342Y-53561904D01*
X33964342Y-53561904D02*
X34059580Y-53514285D01*
X34059580Y-53514285D02*
X34107200Y-53466666D01*
X34107200Y-53466666D02*
X34154819Y-53371428D01*
X34154819Y-53371428D02*
X34154819Y-53180952D01*
X34154819Y-53180952D02*
X34107200Y-53085714D01*
X34107200Y-53085714D02*
X34059580Y-53038095D01*
X34059580Y-53038095D02*
X33964342Y-52990476D01*
X33964342Y-52990476D02*
X33154819Y-52990476D01*
X33154819Y-52609523D02*
X33154819Y-51990476D01*
X33154819Y-51990476D02*
X33535771Y-52323809D01*
X33535771Y-52323809D02*
X33535771Y-52180952D01*
X33535771Y-52180952D02*
X33583390Y-52085714D01*
X33583390Y-52085714D02*
X33631009Y-52038095D01*
X33631009Y-52038095D02*
X33726247Y-51990476D01*
X33726247Y-51990476D02*
X33964342Y-51990476D01*
X33964342Y-51990476D02*
X34059580Y-52038095D01*
X34059580Y-52038095D02*
X34107200Y-52085714D01*
X34107200Y-52085714D02*
X34154819Y-52180952D01*
X34154819Y-52180952D02*
X34154819Y-52466666D01*
X34154819Y-52466666D02*
X34107200Y-52561904D01*
X34107200Y-52561904D02*
X34059580Y-52609523D01*
X25354819Y-65242857D02*
X24878628Y-65576190D01*
X25354819Y-65814285D02*
X24354819Y-65814285D01*
X24354819Y-65814285D02*
X24354819Y-65433333D01*
X24354819Y-65433333D02*
X24402438Y-65338095D01*
X24402438Y-65338095D02*
X24450057Y-65290476D01*
X24450057Y-65290476D02*
X24545295Y-65242857D01*
X24545295Y-65242857D02*
X24688152Y-65242857D01*
X24688152Y-65242857D02*
X24783390Y-65290476D01*
X24783390Y-65290476D02*
X24831009Y-65338095D01*
X24831009Y-65338095D02*
X24878628Y-65433333D01*
X24878628Y-65433333D02*
X24878628Y-65814285D01*
X24450057Y-64861904D02*
X24402438Y-64814285D01*
X24402438Y-64814285D02*
X24354819Y-64719047D01*
X24354819Y-64719047D02*
X24354819Y-64480952D01*
X24354819Y-64480952D02*
X24402438Y-64385714D01*
X24402438Y-64385714D02*
X24450057Y-64338095D01*
X24450057Y-64338095D02*
X24545295Y-64290476D01*
X24545295Y-64290476D02*
X24640533Y-64290476D01*
X24640533Y-64290476D02*
X24783390Y-64338095D01*
X24783390Y-64338095D02*
X25354819Y-64909523D01*
X25354819Y-64909523D02*
X25354819Y-64290476D01*
X24688152Y-63433333D02*
X25354819Y-63433333D01*
X24307200Y-63671428D02*
X25021485Y-63909523D01*
X25021485Y-63909523D02*
X25021485Y-63290476D01*
X36884819Y-45842857D02*
X36408628Y-46176190D01*
X36884819Y-46414285D02*
X35884819Y-46414285D01*
X35884819Y-46414285D02*
X35884819Y-46033333D01*
X35884819Y-46033333D02*
X35932438Y-45938095D01*
X35932438Y-45938095D02*
X35980057Y-45890476D01*
X35980057Y-45890476D02*
X36075295Y-45842857D01*
X36075295Y-45842857D02*
X36218152Y-45842857D01*
X36218152Y-45842857D02*
X36313390Y-45890476D01*
X36313390Y-45890476D02*
X36361009Y-45938095D01*
X36361009Y-45938095D02*
X36408628Y-46033333D01*
X36408628Y-46033333D02*
X36408628Y-46414285D01*
X35980057Y-45461904D02*
X35932438Y-45414285D01*
X35932438Y-45414285D02*
X35884819Y-45319047D01*
X35884819Y-45319047D02*
X35884819Y-45080952D01*
X35884819Y-45080952D02*
X35932438Y-44985714D01*
X35932438Y-44985714D02*
X35980057Y-44938095D01*
X35980057Y-44938095D02*
X36075295Y-44890476D01*
X36075295Y-44890476D02*
X36170533Y-44890476D01*
X36170533Y-44890476D02*
X36313390Y-44938095D01*
X36313390Y-44938095D02*
X36884819Y-45509523D01*
X36884819Y-45509523D02*
X36884819Y-44890476D01*
X36884819Y-43938095D02*
X36884819Y-44509523D01*
X36884819Y-44223809D02*
X35884819Y-44223809D01*
X35884819Y-44223809D02*
X36027676Y-44319047D01*
X36027676Y-44319047D02*
X36122914Y-44414285D01*
X36122914Y-44414285D02*
X36170533Y-44509523D01*
X27954819Y-65242857D02*
X27478628Y-65576190D01*
X27954819Y-65814285D02*
X26954819Y-65814285D01*
X26954819Y-65814285D02*
X26954819Y-65433333D01*
X26954819Y-65433333D02*
X27002438Y-65338095D01*
X27002438Y-65338095D02*
X27050057Y-65290476D01*
X27050057Y-65290476D02*
X27145295Y-65242857D01*
X27145295Y-65242857D02*
X27288152Y-65242857D01*
X27288152Y-65242857D02*
X27383390Y-65290476D01*
X27383390Y-65290476D02*
X27431009Y-65338095D01*
X27431009Y-65338095D02*
X27478628Y-65433333D01*
X27478628Y-65433333D02*
X27478628Y-65814285D01*
X27050057Y-64861904D02*
X27002438Y-64814285D01*
X27002438Y-64814285D02*
X26954819Y-64719047D01*
X26954819Y-64719047D02*
X26954819Y-64480952D01*
X26954819Y-64480952D02*
X27002438Y-64385714D01*
X27002438Y-64385714D02*
X27050057Y-64338095D01*
X27050057Y-64338095D02*
X27145295Y-64290476D01*
X27145295Y-64290476D02*
X27240533Y-64290476D01*
X27240533Y-64290476D02*
X27383390Y-64338095D01*
X27383390Y-64338095D02*
X27954819Y-64909523D01*
X27954819Y-64909523D02*
X27954819Y-64290476D01*
X26954819Y-63671428D02*
X26954819Y-63576190D01*
X26954819Y-63576190D02*
X27002438Y-63480952D01*
X27002438Y-63480952D02*
X27050057Y-63433333D01*
X27050057Y-63433333D02*
X27145295Y-63385714D01*
X27145295Y-63385714D02*
X27335771Y-63338095D01*
X27335771Y-63338095D02*
X27573866Y-63338095D01*
X27573866Y-63338095D02*
X27764342Y-63385714D01*
X27764342Y-63385714D02*
X27859580Y-63433333D01*
X27859580Y-63433333D02*
X27907200Y-63480952D01*
X27907200Y-63480952D02*
X27954819Y-63576190D01*
X27954819Y-63576190D02*
X27954819Y-63671428D01*
X27954819Y-63671428D02*
X27907200Y-63766666D01*
X27907200Y-63766666D02*
X27859580Y-63814285D01*
X27859580Y-63814285D02*
X27764342Y-63861904D01*
X27764342Y-63861904D02*
X27573866Y-63909523D01*
X27573866Y-63909523D02*
X27335771Y-63909523D01*
X27335771Y-63909523D02*
X27145295Y-63861904D01*
X27145295Y-63861904D02*
X27050057Y-63814285D01*
X27050057Y-63814285D02*
X27002438Y-63766666D01*
X27002438Y-63766666D02*
X26954819Y-63671428D01*
X35784819Y-83542857D02*
X35308628Y-83876190D01*
X35784819Y-84114285D02*
X34784819Y-84114285D01*
X34784819Y-84114285D02*
X34784819Y-83733333D01*
X34784819Y-83733333D02*
X34832438Y-83638095D01*
X34832438Y-83638095D02*
X34880057Y-83590476D01*
X34880057Y-83590476D02*
X34975295Y-83542857D01*
X34975295Y-83542857D02*
X35118152Y-83542857D01*
X35118152Y-83542857D02*
X35213390Y-83590476D01*
X35213390Y-83590476D02*
X35261009Y-83638095D01*
X35261009Y-83638095D02*
X35308628Y-83733333D01*
X35308628Y-83733333D02*
X35308628Y-84114285D01*
X35784819Y-82590476D02*
X35784819Y-83161904D01*
X35784819Y-82876190D02*
X34784819Y-82876190D01*
X34784819Y-82876190D02*
X34927676Y-82971428D01*
X34927676Y-82971428D02*
X35022914Y-83066666D01*
X35022914Y-83066666D02*
X35070533Y-83161904D01*
X35784819Y-82114285D02*
X35784819Y-81923809D01*
X35784819Y-81923809D02*
X35737200Y-81828571D01*
X35737200Y-81828571D02*
X35689580Y-81780952D01*
X35689580Y-81780952D02*
X35546723Y-81685714D01*
X35546723Y-81685714D02*
X35356247Y-81638095D01*
X35356247Y-81638095D02*
X34975295Y-81638095D01*
X34975295Y-81638095D02*
X34880057Y-81685714D01*
X34880057Y-81685714D02*
X34832438Y-81733333D01*
X34832438Y-81733333D02*
X34784819Y-81828571D01*
X34784819Y-81828571D02*
X34784819Y-82019047D01*
X34784819Y-82019047D02*
X34832438Y-82114285D01*
X34832438Y-82114285D02*
X34880057Y-82161904D01*
X34880057Y-82161904D02*
X34975295Y-82209523D01*
X34975295Y-82209523D02*
X35213390Y-82209523D01*
X35213390Y-82209523D02*
X35308628Y-82161904D01*
X35308628Y-82161904D02*
X35356247Y-82114285D01*
X35356247Y-82114285D02*
X35403866Y-82019047D01*
X35403866Y-82019047D02*
X35403866Y-81828571D01*
X35403866Y-81828571D02*
X35356247Y-81733333D01*
X35356247Y-81733333D02*
X35308628Y-81685714D01*
X35308628Y-81685714D02*
X35213390Y-81638095D01*
X32184819Y-83542857D02*
X31708628Y-83876190D01*
X32184819Y-84114285D02*
X31184819Y-84114285D01*
X31184819Y-84114285D02*
X31184819Y-83733333D01*
X31184819Y-83733333D02*
X31232438Y-83638095D01*
X31232438Y-83638095D02*
X31280057Y-83590476D01*
X31280057Y-83590476D02*
X31375295Y-83542857D01*
X31375295Y-83542857D02*
X31518152Y-83542857D01*
X31518152Y-83542857D02*
X31613390Y-83590476D01*
X31613390Y-83590476D02*
X31661009Y-83638095D01*
X31661009Y-83638095D02*
X31708628Y-83733333D01*
X31708628Y-83733333D02*
X31708628Y-84114285D01*
X32184819Y-82590476D02*
X32184819Y-83161904D01*
X32184819Y-82876190D02*
X31184819Y-82876190D01*
X31184819Y-82876190D02*
X31327676Y-82971428D01*
X31327676Y-82971428D02*
X31422914Y-83066666D01*
X31422914Y-83066666D02*
X31470533Y-83161904D01*
X31613390Y-82019047D02*
X31565771Y-82114285D01*
X31565771Y-82114285D02*
X31518152Y-82161904D01*
X31518152Y-82161904D02*
X31422914Y-82209523D01*
X31422914Y-82209523D02*
X31375295Y-82209523D01*
X31375295Y-82209523D02*
X31280057Y-82161904D01*
X31280057Y-82161904D02*
X31232438Y-82114285D01*
X31232438Y-82114285D02*
X31184819Y-82019047D01*
X31184819Y-82019047D02*
X31184819Y-81828571D01*
X31184819Y-81828571D02*
X31232438Y-81733333D01*
X31232438Y-81733333D02*
X31280057Y-81685714D01*
X31280057Y-81685714D02*
X31375295Y-81638095D01*
X31375295Y-81638095D02*
X31422914Y-81638095D01*
X31422914Y-81638095D02*
X31518152Y-81685714D01*
X31518152Y-81685714D02*
X31565771Y-81733333D01*
X31565771Y-81733333D02*
X31613390Y-81828571D01*
X31613390Y-81828571D02*
X31613390Y-82019047D01*
X31613390Y-82019047D02*
X31661009Y-82114285D01*
X31661009Y-82114285D02*
X31708628Y-82161904D01*
X31708628Y-82161904D02*
X31803866Y-82209523D01*
X31803866Y-82209523D02*
X31994342Y-82209523D01*
X31994342Y-82209523D02*
X32089580Y-82161904D01*
X32089580Y-82161904D02*
X32137200Y-82114285D01*
X32137200Y-82114285D02*
X32184819Y-82019047D01*
X32184819Y-82019047D02*
X32184819Y-81828571D01*
X32184819Y-81828571D02*
X32137200Y-81733333D01*
X32137200Y-81733333D02*
X32089580Y-81685714D01*
X32089580Y-81685714D02*
X31994342Y-81638095D01*
X31994342Y-81638095D02*
X31803866Y-81638095D01*
X31803866Y-81638095D02*
X31708628Y-81685714D01*
X31708628Y-81685714D02*
X31661009Y-81733333D01*
X31661009Y-81733333D02*
X31613390Y-81828571D01*
X28484819Y-83542857D02*
X28008628Y-83876190D01*
X28484819Y-84114285D02*
X27484819Y-84114285D01*
X27484819Y-84114285D02*
X27484819Y-83733333D01*
X27484819Y-83733333D02*
X27532438Y-83638095D01*
X27532438Y-83638095D02*
X27580057Y-83590476D01*
X27580057Y-83590476D02*
X27675295Y-83542857D01*
X27675295Y-83542857D02*
X27818152Y-83542857D01*
X27818152Y-83542857D02*
X27913390Y-83590476D01*
X27913390Y-83590476D02*
X27961009Y-83638095D01*
X27961009Y-83638095D02*
X28008628Y-83733333D01*
X28008628Y-83733333D02*
X28008628Y-84114285D01*
X28484819Y-82590476D02*
X28484819Y-83161904D01*
X28484819Y-82876190D02*
X27484819Y-82876190D01*
X27484819Y-82876190D02*
X27627676Y-82971428D01*
X27627676Y-82971428D02*
X27722914Y-83066666D01*
X27722914Y-83066666D02*
X27770533Y-83161904D01*
X27484819Y-82257142D02*
X27484819Y-81590476D01*
X27484819Y-81590476D02*
X28484819Y-82019047D01*
X24884819Y-83542857D02*
X24408628Y-83876190D01*
X24884819Y-84114285D02*
X23884819Y-84114285D01*
X23884819Y-84114285D02*
X23884819Y-83733333D01*
X23884819Y-83733333D02*
X23932438Y-83638095D01*
X23932438Y-83638095D02*
X23980057Y-83590476D01*
X23980057Y-83590476D02*
X24075295Y-83542857D01*
X24075295Y-83542857D02*
X24218152Y-83542857D01*
X24218152Y-83542857D02*
X24313390Y-83590476D01*
X24313390Y-83590476D02*
X24361009Y-83638095D01*
X24361009Y-83638095D02*
X24408628Y-83733333D01*
X24408628Y-83733333D02*
X24408628Y-84114285D01*
X24884819Y-82590476D02*
X24884819Y-83161904D01*
X24884819Y-82876190D02*
X23884819Y-82876190D01*
X23884819Y-82876190D02*
X24027676Y-82971428D01*
X24027676Y-82971428D02*
X24122914Y-83066666D01*
X24122914Y-83066666D02*
X24170533Y-83161904D01*
X23884819Y-81733333D02*
X23884819Y-81923809D01*
X23884819Y-81923809D02*
X23932438Y-82019047D01*
X23932438Y-82019047D02*
X23980057Y-82066666D01*
X23980057Y-82066666D02*
X24122914Y-82161904D01*
X24122914Y-82161904D02*
X24313390Y-82209523D01*
X24313390Y-82209523D02*
X24694342Y-82209523D01*
X24694342Y-82209523D02*
X24789580Y-82161904D01*
X24789580Y-82161904D02*
X24837200Y-82114285D01*
X24837200Y-82114285D02*
X24884819Y-82019047D01*
X24884819Y-82019047D02*
X24884819Y-81828571D01*
X24884819Y-81828571D02*
X24837200Y-81733333D01*
X24837200Y-81733333D02*
X24789580Y-81685714D01*
X24789580Y-81685714D02*
X24694342Y-81638095D01*
X24694342Y-81638095D02*
X24456247Y-81638095D01*
X24456247Y-81638095D02*
X24361009Y-81685714D01*
X24361009Y-81685714D02*
X24313390Y-81733333D01*
X24313390Y-81733333D02*
X24265771Y-81828571D01*
X24265771Y-81828571D02*
X24265771Y-82019047D01*
X24265771Y-82019047D02*
X24313390Y-82114285D01*
X24313390Y-82114285D02*
X24361009Y-82161904D01*
X24361009Y-82161904D02*
X24456247Y-82209523D01*
X33904761Y-75650057D02*
X33809523Y-75602438D01*
X33809523Y-75602438D02*
X33714285Y-75507200D01*
X33714285Y-75507200D02*
X33571428Y-75364342D01*
X33571428Y-75364342D02*
X33476190Y-75316723D01*
X33476190Y-75316723D02*
X33380952Y-75316723D01*
X33428571Y-75554819D02*
X33333333Y-75507200D01*
X33333333Y-75507200D02*
X33238095Y-75411961D01*
X33238095Y-75411961D02*
X33190476Y-75221485D01*
X33190476Y-75221485D02*
X33190476Y-74888152D01*
X33190476Y-74888152D02*
X33238095Y-74697676D01*
X33238095Y-74697676D02*
X33333333Y-74602438D01*
X33333333Y-74602438D02*
X33428571Y-74554819D01*
X33428571Y-74554819D02*
X33619047Y-74554819D01*
X33619047Y-74554819D02*
X33714285Y-74602438D01*
X33714285Y-74602438D02*
X33809523Y-74697676D01*
X33809523Y-74697676D02*
X33857142Y-74888152D01*
X33857142Y-74888152D02*
X33857142Y-75221485D01*
X33857142Y-75221485D02*
X33809523Y-75411961D01*
X33809523Y-75411961D02*
X33714285Y-75507200D01*
X33714285Y-75507200D02*
X33619047Y-75554819D01*
X33619047Y-75554819D02*
X33428571Y-75554819D01*
X34333333Y-75554819D02*
X34523809Y-75554819D01*
X34523809Y-75554819D02*
X34619047Y-75507200D01*
X34619047Y-75507200D02*
X34666666Y-75459580D01*
X34666666Y-75459580D02*
X34761904Y-75316723D01*
X34761904Y-75316723D02*
X34809523Y-75126247D01*
X34809523Y-75126247D02*
X34809523Y-74745295D01*
X34809523Y-74745295D02*
X34761904Y-74650057D01*
X34761904Y-74650057D02*
X34714285Y-74602438D01*
X34714285Y-74602438D02*
X34619047Y-74554819D01*
X34619047Y-74554819D02*
X34428571Y-74554819D01*
X34428571Y-74554819D02*
X34333333Y-74602438D01*
X34333333Y-74602438D02*
X34285714Y-74650057D01*
X34285714Y-74650057D02*
X34238095Y-74745295D01*
X34238095Y-74745295D02*
X34238095Y-74983390D01*
X34238095Y-74983390D02*
X34285714Y-75078628D01*
X34285714Y-75078628D02*
X34333333Y-75126247D01*
X34333333Y-75126247D02*
X34428571Y-75173866D01*
X34428571Y-75173866D02*
X34619047Y-75173866D01*
X34619047Y-75173866D02*
X34714285Y-75126247D01*
X34714285Y-75126247D02*
X34761904Y-75078628D01*
X34761904Y-75078628D02*
X34809523Y-74983390D01*
X30204761Y-75550057D02*
X30109523Y-75502438D01*
X30109523Y-75502438D02*
X30014285Y-75407200D01*
X30014285Y-75407200D02*
X29871428Y-75264342D01*
X29871428Y-75264342D02*
X29776190Y-75216723D01*
X29776190Y-75216723D02*
X29680952Y-75216723D01*
X29728571Y-75454819D02*
X29633333Y-75407200D01*
X29633333Y-75407200D02*
X29538095Y-75311961D01*
X29538095Y-75311961D02*
X29490476Y-75121485D01*
X29490476Y-75121485D02*
X29490476Y-74788152D01*
X29490476Y-74788152D02*
X29538095Y-74597676D01*
X29538095Y-74597676D02*
X29633333Y-74502438D01*
X29633333Y-74502438D02*
X29728571Y-74454819D01*
X29728571Y-74454819D02*
X29919047Y-74454819D01*
X29919047Y-74454819D02*
X30014285Y-74502438D01*
X30014285Y-74502438D02*
X30109523Y-74597676D01*
X30109523Y-74597676D02*
X30157142Y-74788152D01*
X30157142Y-74788152D02*
X30157142Y-75121485D01*
X30157142Y-75121485D02*
X30109523Y-75311961D01*
X30109523Y-75311961D02*
X30014285Y-75407200D01*
X30014285Y-75407200D02*
X29919047Y-75454819D01*
X29919047Y-75454819D02*
X29728571Y-75454819D01*
X30728571Y-74883390D02*
X30633333Y-74835771D01*
X30633333Y-74835771D02*
X30585714Y-74788152D01*
X30585714Y-74788152D02*
X30538095Y-74692914D01*
X30538095Y-74692914D02*
X30538095Y-74645295D01*
X30538095Y-74645295D02*
X30585714Y-74550057D01*
X30585714Y-74550057D02*
X30633333Y-74502438D01*
X30633333Y-74502438D02*
X30728571Y-74454819D01*
X30728571Y-74454819D02*
X30919047Y-74454819D01*
X30919047Y-74454819D02*
X31014285Y-74502438D01*
X31014285Y-74502438D02*
X31061904Y-74550057D01*
X31061904Y-74550057D02*
X31109523Y-74645295D01*
X31109523Y-74645295D02*
X31109523Y-74692914D01*
X31109523Y-74692914D02*
X31061904Y-74788152D01*
X31061904Y-74788152D02*
X31014285Y-74835771D01*
X31014285Y-74835771D02*
X30919047Y-74883390D01*
X30919047Y-74883390D02*
X30728571Y-74883390D01*
X30728571Y-74883390D02*
X30633333Y-74931009D01*
X30633333Y-74931009D02*
X30585714Y-74978628D01*
X30585714Y-74978628D02*
X30538095Y-75073866D01*
X30538095Y-75073866D02*
X30538095Y-75264342D01*
X30538095Y-75264342D02*
X30585714Y-75359580D01*
X30585714Y-75359580D02*
X30633333Y-75407200D01*
X30633333Y-75407200D02*
X30728571Y-75454819D01*
X30728571Y-75454819D02*
X30919047Y-75454819D01*
X30919047Y-75454819D02*
X31014285Y-75407200D01*
X31014285Y-75407200D02*
X31061904Y-75359580D01*
X31061904Y-75359580D02*
X31109523Y-75264342D01*
X31109523Y-75264342D02*
X31109523Y-75073866D01*
X31109523Y-75073866D02*
X31061904Y-74978628D01*
X31061904Y-74978628D02*
X31014285Y-74931009D01*
X31014285Y-74931009D02*
X30919047Y-74883390D01*
X26504761Y-75550057D02*
X26409523Y-75502438D01*
X26409523Y-75502438D02*
X26314285Y-75407200D01*
X26314285Y-75407200D02*
X26171428Y-75264342D01*
X26171428Y-75264342D02*
X26076190Y-75216723D01*
X26076190Y-75216723D02*
X25980952Y-75216723D01*
X26028571Y-75454819D02*
X25933333Y-75407200D01*
X25933333Y-75407200D02*
X25838095Y-75311961D01*
X25838095Y-75311961D02*
X25790476Y-75121485D01*
X25790476Y-75121485D02*
X25790476Y-74788152D01*
X25790476Y-74788152D02*
X25838095Y-74597676D01*
X25838095Y-74597676D02*
X25933333Y-74502438D01*
X25933333Y-74502438D02*
X26028571Y-74454819D01*
X26028571Y-74454819D02*
X26219047Y-74454819D01*
X26219047Y-74454819D02*
X26314285Y-74502438D01*
X26314285Y-74502438D02*
X26409523Y-74597676D01*
X26409523Y-74597676D02*
X26457142Y-74788152D01*
X26457142Y-74788152D02*
X26457142Y-75121485D01*
X26457142Y-75121485D02*
X26409523Y-75311961D01*
X26409523Y-75311961D02*
X26314285Y-75407200D01*
X26314285Y-75407200D02*
X26219047Y-75454819D01*
X26219047Y-75454819D02*
X26028571Y-75454819D01*
X26790476Y-74454819D02*
X27457142Y-74454819D01*
X27457142Y-74454819D02*
X27028571Y-75454819D01*
X23104761Y-75550057D02*
X23009523Y-75502438D01*
X23009523Y-75502438D02*
X22914285Y-75407200D01*
X22914285Y-75407200D02*
X22771428Y-75264342D01*
X22771428Y-75264342D02*
X22676190Y-75216723D01*
X22676190Y-75216723D02*
X22580952Y-75216723D01*
X22628571Y-75454819D02*
X22533333Y-75407200D01*
X22533333Y-75407200D02*
X22438095Y-75311961D01*
X22438095Y-75311961D02*
X22390476Y-75121485D01*
X22390476Y-75121485D02*
X22390476Y-74788152D01*
X22390476Y-74788152D02*
X22438095Y-74597676D01*
X22438095Y-74597676D02*
X22533333Y-74502438D01*
X22533333Y-74502438D02*
X22628571Y-74454819D01*
X22628571Y-74454819D02*
X22819047Y-74454819D01*
X22819047Y-74454819D02*
X22914285Y-74502438D01*
X22914285Y-74502438D02*
X23009523Y-74597676D01*
X23009523Y-74597676D02*
X23057142Y-74788152D01*
X23057142Y-74788152D02*
X23057142Y-75121485D01*
X23057142Y-75121485D02*
X23009523Y-75311961D01*
X23009523Y-75311961D02*
X22914285Y-75407200D01*
X22914285Y-75407200D02*
X22819047Y-75454819D01*
X22819047Y-75454819D02*
X22628571Y-75454819D01*
X23914285Y-74454819D02*
X23723809Y-74454819D01*
X23723809Y-74454819D02*
X23628571Y-74502438D01*
X23628571Y-74502438D02*
X23580952Y-74550057D01*
X23580952Y-74550057D02*
X23485714Y-74692914D01*
X23485714Y-74692914D02*
X23438095Y-74883390D01*
X23438095Y-74883390D02*
X23438095Y-75264342D01*
X23438095Y-75264342D02*
X23485714Y-75359580D01*
X23485714Y-75359580D02*
X23533333Y-75407200D01*
X23533333Y-75407200D02*
X23628571Y-75454819D01*
X23628571Y-75454819D02*
X23819047Y-75454819D01*
X23819047Y-75454819D02*
X23914285Y-75407200D01*
X23914285Y-75407200D02*
X23961904Y-75359580D01*
X23961904Y-75359580D02*
X24009523Y-75264342D01*
X24009523Y-75264342D02*
X24009523Y-75026247D01*
X24009523Y-75026247D02*
X23961904Y-74931009D01*
X23961904Y-74931009D02*
X23914285Y-74883390D01*
X23914285Y-74883390D02*
X23819047Y-74835771D01*
X23819047Y-74835771D02*
X23628571Y-74835771D01*
X23628571Y-74835771D02*
X23533333Y-74883390D01*
X23533333Y-74883390D02*
X23485714Y-74931009D01*
X23485714Y-74931009D02*
X23438095Y-75026247D01*
X24957143Y-11807200D02*
X25100000Y-11854819D01*
X25100000Y-11854819D02*
X25338095Y-11854819D01*
X25338095Y-11854819D02*
X25433333Y-11807200D01*
X25433333Y-11807200D02*
X25480952Y-11759580D01*
X25480952Y-11759580D02*
X25528571Y-11664342D01*
X25528571Y-11664342D02*
X25528571Y-11569104D01*
X25528571Y-11569104D02*
X25480952Y-11473866D01*
X25480952Y-11473866D02*
X25433333Y-11426247D01*
X25433333Y-11426247D02*
X25338095Y-11378628D01*
X25338095Y-11378628D02*
X25147619Y-11331009D01*
X25147619Y-11331009D02*
X25052381Y-11283390D01*
X25052381Y-11283390D02*
X25004762Y-11235771D01*
X25004762Y-11235771D02*
X24957143Y-11140533D01*
X24957143Y-11140533D02*
X24957143Y-11045295D01*
X24957143Y-11045295D02*
X25004762Y-10950057D01*
X25004762Y-10950057D02*
X25052381Y-10902438D01*
X25052381Y-10902438D02*
X25147619Y-10854819D01*
X25147619Y-10854819D02*
X25385714Y-10854819D01*
X25385714Y-10854819D02*
X25528571Y-10902438D01*
X25957143Y-11854819D02*
X25957143Y-11188152D01*
X25957143Y-10854819D02*
X25909524Y-10902438D01*
X25909524Y-10902438D02*
X25957143Y-10950057D01*
X25957143Y-10950057D02*
X26004762Y-10902438D01*
X26004762Y-10902438D02*
X25957143Y-10854819D01*
X25957143Y-10854819D02*
X25957143Y-10950057D01*
X26861904Y-11188152D02*
X26861904Y-11997676D01*
X26861904Y-11997676D02*
X26814285Y-12092914D01*
X26814285Y-12092914D02*
X26766666Y-12140533D01*
X26766666Y-12140533D02*
X26671428Y-12188152D01*
X26671428Y-12188152D02*
X26528571Y-12188152D01*
X26528571Y-12188152D02*
X26433333Y-12140533D01*
X26861904Y-11807200D02*
X26766666Y-11854819D01*
X26766666Y-11854819D02*
X26576190Y-11854819D01*
X26576190Y-11854819D02*
X26480952Y-11807200D01*
X26480952Y-11807200D02*
X26433333Y-11759580D01*
X26433333Y-11759580D02*
X26385714Y-11664342D01*
X26385714Y-11664342D02*
X26385714Y-11378628D01*
X26385714Y-11378628D02*
X26433333Y-11283390D01*
X26433333Y-11283390D02*
X26480952Y-11235771D01*
X26480952Y-11235771D02*
X26576190Y-11188152D01*
X26576190Y-11188152D02*
X26766666Y-11188152D01*
X26766666Y-11188152D02*
X26861904Y-11235771D01*
X27338095Y-11188152D02*
X27338095Y-11854819D01*
X27338095Y-11283390D02*
X27385714Y-11235771D01*
X27385714Y-11235771D02*
X27480952Y-11188152D01*
X27480952Y-11188152D02*
X27623809Y-11188152D01*
X27623809Y-11188152D02*
X27719047Y-11235771D01*
X27719047Y-11235771D02*
X27766666Y-11331009D01*
X27766666Y-11331009D02*
X27766666Y-11854819D01*
X28671428Y-11854819D02*
X28671428Y-11331009D01*
X28671428Y-11331009D02*
X28623809Y-11235771D01*
X28623809Y-11235771D02*
X28528571Y-11188152D01*
X28528571Y-11188152D02*
X28338095Y-11188152D01*
X28338095Y-11188152D02*
X28242857Y-11235771D01*
X28671428Y-11807200D02*
X28576190Y-11854819D01*
X28576190Y-11854819D02*
X28338095Y-11854819D01*
X28338095Y-11854819D02*
X28242857Y-11807200D01*
X28242857Y-11807200D02*
X28195238Y-11711961D01*
X28195238Y-11711961D02*
X28195238Y-11616723D01*
X28195238Y-11616723D02*
X28242857Y-11521485D01*
X28242857Y-11521485D02*
X28338095Y-11473866D01*
X28338095Y-11473866D02*
X28576190Y-11473866D01*
X28576190Y-11473866D02*
X28671428Y-11426247D01*
X29290476Y-11854819D02*
X29195238Y-11807200D01*
X29195238Y-11807200D02*
X29147619Y-11711961D01*
X29147619Y-11711961D02*
X29147619Y-10854819D01*
X46584819Y-83542857D02*
X46108628Y-83876190D01*
X46584819Y-84114285D02*
X45584819Y-84114285D01*
X45584819Y-84114285D02*
X45584819Y-83733333D01*
X45584819Y-83733333D02*
X45632438Y-83638095D01*
X45632438Y-83638095D02*
X45680057Y-83590476D01*
X45680057Y-83590476D02*
X45775295Y-83542857D01*
X45775295Y-83542857D02*
X45918152Y-83542857D01*
X45918152Y-83542857D02*
X46013390Y-83590476D01*
X46013390Y-83590476D02*
X46061009Y-83638095D01*
X46061009Y-83638095D02*
X46108628Y-83733333D01*
X46108628Y-83733333D02*
X46108628Y-84114285D01*
X46584819Y-82590476D02*
X46584819Y-83161904D01*
X46584819Y-82876190D02*
X45584819Y-82876190D01*
X45584819Y-82876190D02*
X45727676Y-82971428D01*
X45727676Y-82971428D02*
X45822914Y-83066666D01*
X45822914Y-83066666D02*
X45870533Y-83161904D01*
X45584819Y-82257142D02*
X45584819Y-81638095D01*
X45584819Y-81638095D02*
X45965771Y-81971428D01*
X45965771Y-81971428D02*
X45965771Y-81828571D01*
X45965771Y-81828571D02*
X46013390Y-81733333D01*
X46013390Y-81733333D02*
X46061009Y-81685714D01*
X46061009Y-81685714D02*
X46156247Y-81638095D01*
X46156247Y-81638095D02*
X46394342Y-81638095D01*
X46394342Y-81638095D02*
X46489580Y-81685714D01*
X46489580Y-81685714D02*
X46537200Y-81733333D01*
X46537200Y-81733333D02*
X46584819Y-81828571D01*
X46584819Y-81828571D02*
X46584819Y-82114285D01*
X46584819Y-82114285D02*
X46537200Y-82209523D01*
X46537200Y-82209523D02*
X46489580Y-82257142D01*
X33633333Y-61454819D02*
X33300000Y-60978628D01*
X33061905Y-61454819D02*
X33061905Y-60454819D01*
X33061905Y-60454819D02*
X33442857Y-60454819D01*
X33442857Y-60454819D02*
X33538095Y-60502438D01*
X33538095Y-60502438D02*
X33585714Y-60550057D01*
X33585714Y-60550057D02*
X33633333Y-60645295D01*
X33633333Y-60645295D02*
X33633333Y-60788152D01*
X33633333Y-60788152D02*
X33585714Y-60883390D01*
X33585714Y-60883390D02*
X33538095Y-60931009D01*
X33538095Y-60931009D02*
X33442857Y-60978628D01*
X33442857Y-60978628D02*
X33061905Y-60978628D01*
X34585714Y-61454819D02*
X34014286Y-61454819D01*
X34300000Y-61454819D02*
X34300000Y-60454819D01*
X34300000Y-60454819D02*
X34204762Y-60597676D01*
X34204762Y-60597676D02*
X34109524Y-60692914D01*
X34109524Y-60692914D02*
X34014286Y-60740533D01*
X44704761Y-75550057D02*
X44609523Y-75502438D01*
X44609523Y-75502438D02*
X44514285Y-75407200D01*
X44514285Y-75407200D02*
X44371428Y-75264342D01*
X44371428Y-75264342D02*
X44276190Y-75216723D01*
X44276190Y-75216723D02*
X44180952Y-75216723D01*
X44228571Y-75454819D02*
X44133333Y-75407200D01*
X44133333Y-75407200D02*
X44038095Y-75311961D01*
X44038095Y-75311961D02*
X43990476Y-75121485D01*
X43990476Y-75121485D02*
X43990476Y-74788152D01*
X43990476Y-74788152D02*
X44038095Y-74597676D01*
X44038095Y-74597676D02*
X44133333Y-74502438D01*
X44133333Y-74502438D02*
X44228571Y-74454819D01*
X44228571Y-74454819D02*
X44419047Y-74454819D01*
X44419047Y-74454819D02*
X44514285Y-74502438D01*
X44514285Y-74502438D02*
X44609523Y-74597676D01*
X44609523Y-74597676D02*
X44657142Y-74788152D01*
X44657142Y-74788152D02*
X44657142Y-75121485D01*
X44657142Y-75121485D02*
X44609523Y-75311961D01*
X44609523Y-75311961D02*
X44514285Y-75407200D01*
X44514285Y-75407200D02*
X44419047Y-75454819D01*
X44419047Y-75454819D02*
X44228571Y-75454819D01*
X44990476Y-74454819D02*
X45609523Y-74454819D01*
X45609523Y-74454819D02*
X45276190Y-74835771D01*
X45276190Y-74835771D02*
X45419047Y-74835771D01*
X45419047Y-74835771D02*
X45514285Y-74883390D01*
X45514285Y-74883390D02*
X45561904Y-74931009D01*
X45561904Y-74931009D02*
X45609523Y-75026247D01*
X45609523Y-75026247D02*
X45609523Y-75264342D01*
X45609523Y-75264342D02*
X45561904Y-75359580D01*
X45561904Y-75359580D02*
X45514285Y-75407200D01*
X45514285Y-75407200D02*
X45419047Y-75454819D01*
X45419047Y-75454819D02*
X45133333Y-75454819D01*
X45133333Y-75454819D02*
X45038095Y-75407200D01*
X45038095Y-75407200D02*
X44990476Y-75359580D01*
X1785714Y-79554819D02*
X1785714Y-78554819D01*
X1785714Y-78554819D02*
X2023809Y-78554819D01*
X2023809Y-78554819D02*
X2166666Y-78602438D01*
X2166666Y-78602438D02*
X2261904Y-78697676D01*
X2261904Y-78697676D02*
X2309523Y-78792914D01*
X2309523Y-78792914D02*
X2357142Y-78983390D01*
X2357142Y-78983390D02*
X2357142Y-79126247D01*
X2357142Y-79126247D02*
X2309523Y-79316723D01*
X2309523Y-79316723D02*
X2261904Y-79411961D01*
X2261904Y-79411961D02*
X2166666Y-79507200D01*
X2166666Y-79507200D02*
X2023809Y-79554819D01*
X2023809Y-79554819D02*
X1785714Y-79554819D01*
X3214285Y-79554819D02*
X3214285Y-79031009D01*
X3214285Y-79031009D02*
X3166666Y-78935771D01*
X3166666Y-78935771D02*
X3071428Y-78888152D01*
X3071428Y-78888152D02*
X2880952Y-78888152D01*
X2880952Y-78888152D02*
X2785714Y-78935771D01*
X3214285Y-79507200D02*
X3119047Y-79554819D01*
X3119047Y-79554819D02*
X2880952Y-79554819D01*
X2880952Y-79554819D02*
X2785714Y-79507200D01*
X2785714Y-79507200D02*
X2738095Y-79411961D01*
X2738095Y-79411961D02*
X2738095Y-79316723D01*
X2738095Y-79316723D02*
X2785714Y-79221485D01*
X2785714Y-79221485D02*
X2880952Y-79173866D01*
X2880952Y-79173866D02*
X3119047Y-79173866D01*
X3119047Y-79173866D02*
X3214285Y-79126247D01*
X3547619Y-78888152D02*
X3928571Y-78888152D01*
X3690476Y-78554819D02*
X3690476Y-79411961D01*
X3690476Y-79411961D02*
X3738095Y-79507200D01*
X3738095Y-79507200D02*
X3833333Y-79554819D01*
X3833333Y-79554819D02*
X3928571Y-79554819D01*
X4690476Y-79554819D02*
X4690476Y-79031009D01*
X4690476Y-79031009D02*
X4642857Y-78935771D01*
X4642857Y-78935771D02*
X4547619Y-78888152D01*
X4547619Y-78888152D02*
X4357143Y-78888152D01*
X4357143Y-78888152D02*
X4261905Y-78935771D01*
X4690476Y-79507200D02*
X4595238Y-79554819D01*
X4595238Y-79554819D02*
X4357143Y-79554819D01*
X4357143Y-79554819D02*
X4261905Y-79507200D01*
X4261905Y-79507200D02*
X4214286Y-79411961D01*
X4214286Y-79411961D02*
X4214286Y-79316723D01*
X4214286Y-79316723D02*
X4261905Y-79221485D01*
X4261905Y-79221485D02*
X4357143Y-79173866D01*
X4357143Y-79173866D02*
X4595238Y-79173866D01*
X4595238Y-79173866D02*
X4690476Y-79126247D01*
X5166667Y-79554819D02*
X5166667Y-78554819D01*
X5642857Y-79554819D02*
X5642857Y-78554819D01*
X5642857Y-78554819D02*
X6214285Y-79554819D01*
X6214285Y-79554819D02*
X6214285Y-78554819D01*
X53884819Y-83542857D02*
X53408628Y-83876190D01*
X53884819Y-84114285D02*
X52884819Y-84114285D01*
X52884819Y-84114285D02*
X52884819Y-83733333D01*
X52884819Y-83733333D02*
X52932438Y-83638095D01*
X52932438Y-83638095D02*
X52980057Y-83590476D01*
X52980057Y-83590476D02*
X53075295Y-83542857D01*
X53075295Y-83542857D02*
X53218152Y-83542857D01*
X53218152Y-83542857D02*
X53313390Y-83590476D01*
X53313390Y-83590476D02*
X53361009Y-83638095D01*
X53361009Y-83638095D02*
X53408628Y-83733333D01*
X53408628Y-83733333D02*
X53408628Y-84114285D01*
X53884819Y-82590476D02*
X53884819Y-83161904D01*
X53884819Y-82876190D02*
X52884819Y-82876190D01*
X52884819Y-82876190D02*
X53027676Y-82971428D01*
X53027676Y-82971428D02*
X53122914Y-83066666D01*
X53122914Y-83066666D02*
X53170533Y-83161904D01*
X52884819Y-81685714D02*
X52884819Y-82161904D01*
X52884819Y-82161904D02*
X53361009Y-82209523D01*
X53361009Y-82209523D02*
X53313390Y-82161904D01*
X53313390Y-82161904D02*
X53265771Y-82066666D01*
X53265771Y-82066666D02*
X53265771Y-81828571D01*
X53265771Y-81828571D02*
X53313390Y-81733333D01*
X53313390Y-81733333D02*
X53361009Y-81685714D01*
X53361009Y-81685714D02*
X53456247Y-81638095D01*
X53456247Y-81638095D02*
X53694342Y-81638095D01*
X53694342Y-81638095D02*
X53789580Y-81685714D01*
X53789580Y-81685714D02*
X53837200Y-81733333D01*
X53837200Y-81733333D02*
X53884819Y-81828571D01*
X53884819Y-81828571D02*
X53884819Y-82066666D01*
X53884819Y-82066666D02*
X53837200Y-82161904D01*
X53837200Y-82161904D02*
X53789580Y-82209523D01*
X29854819Y-64466666D02*
X29378628Y-64799999D01*
X29854819Y-65038094D02*
X28854819Y-65038094D01*
X28854819Y-65038094D02*
X28854819Y-64657142D01*
X28854819Y-64657142D02*
X28902438Y-64561904D01*
X28902438Y-64561904D02*
X28950057Y-64514285D01*
X28950057Y-64514285D02*
X29045295Y-64466666D01*
X29045295Y-64466666D02*
X29188152Y-64466666D01*
X29188152Y-64466666D02*
X29283390Y-64514285D01*
X29283390Y-64514285D02*
X29331009Y-64561904D01*
X29331009Y-64561904D02*
X29378628Y-64657142D01*
X29378628Y-64657142D02*
X29378628Y-65038094D01*
X28950057Y-64085713D02*
X28902438Y-64038094D01*
X28902438Y-64038094D02*
X28854819Y-63942856D01*
X28854819Y-63942856D02*
X28854819Y-63704761D01*
X28854819Y-63704761D02*
X28902438Y-63609523D01*
X28902438Y-63609523D02*
X28950057Y-63561904D01*
X28950057Y-63561904D02*
X29045295Y-63514285D01*
X29045295Y-63514285D02*
X29140533Y-63514285D01*
X29140533Y-63514285D02*
X29283390Y-63561904D01*
X29283390Y-63561904D02*
X29854819Y-64133332D01*
X29854819Y-64133332D02*
X29854819Y-63514285D01*
X1819047Y-6754819D02*
X1819047Y-5754819D01*
X1819047Y-5754819D02*
X2057142Y-5754819D01*
X2057142Y-5754819D02*
X2199999Y-5802438D01*
X2199999Y-5802438D02*
X2295237Y-5897676D01*
X2295237Y-5897676D02*
X2342856Y-5992914D01*
X2342856Y-5992914D02*
X2390475Y-6183390D01*
X2390475Y-6183390D02*
X2390475Y-6326247D01*
X2390475Y-6326247D02*
X2342856Y-6516723D01*
X2342856Y-6516723D02*
X2295237Y-6611961D01*
X2295237Y-6611961D02*
X2199999Y-6707200D01*
X2199999Y-6707200D02*
X2057142Y-6754819D01*
X2057142Y-6754819D02*
X1819047Y-6754819D01*
X3247618Y-6754819D02*
X3247618Y-6231009D01*
X3247618Y-6231009D02*
X3199999Y-6135771D01*
X3199999Y-6135771D02*
X3104761Y-6088152D01*
X3104761Y-6088152D02*
X2914285Y-6088152D01*
X2914285Y-6088152D02*
X2819047Y-6135771D01*
X3247618Y-6707200D02*
X3152380Y-6754819D01*
X3152380Y-6754819D02*
X2914285Y-6754819D01*
X2914285Y-6754819D02*
X2819047Y-6707200D01*
X2819047Y-6707200D02*
X2771428Y-6611961D01*
X2771428Y-6611961D02*
X2771428Y-6516723D01*
X2771428Y-6516723D02*
X2819047Y-6421485D01*
X2819047Y-6421485D02*
X2914285Y-6373866D01*
X2914285Y-6373866D02*
X3152380Y-6373866D01*
X3152380Y-6373866D02*
X3247618Y-6326247D01*
X3580952Y-6088152D02*
X3961904Y-6088152D01*
X3723809Y-5754819D02*
X3723809Y-6611961D01*
X3723809Y-6611961D02*
X3771428Y-6707200D01*
X3771428Y-6707200D02*
X3866666Y-6754819D01*
X3866666Y-6754819D02*
X3961904Y-6754819D01*
X4723809Y-6754819D02*
X4723809Y-6231009D01*
X4723809Y-6231009D02*
X4676190Y-6135771D01*
X4676190Y-6135771D02*
X4580952Y-6088152D01*
X4580952Y-6088152D02*
X4390476Y-6088152D01*
X4390476Y-6088152D02*
X4295238Y-6135771D01*
X4723809Y-6707200D02*
X4628571Y-6754819D01*
X4628571Y-6754819D02*
X4390476Y-6754819D01*
X4390476Y-6754819D02*
X4295238Y-6707200D01*
X4295238Y-6707200D02*
X4247619Y-6611961D01*
X4247619Y-6611961D02*
X4247619Y-6516723D01*
X4247619Y-6516723D02*
X4295238Y-6421485D01*
X4295238Y-6421485D02*
X4390476Y-6373866D01*
X4390476Y-6373866D02*
X4628571Y-6373866D01*
X4628571Y-6373866D02*
X4723809Y-6326247D01*
X5390476Y-5754819D02*
X5580952Y-5754819D01*
X5580952Y-5754819D02*
X5676190Y-5802438D01*
X5676190Y-5802438D02*
X5771428Y-5897676D01*
X5771428Y-5897676D02*
X5819047Y-6088152D01*
X5819047Y-6088152D02*
X5819047Y-6421485D01*
X5819047Y-6421485D02*
X5771428Y-6611961D01*
X5771428Y-6611961D02*
X5676190Y-6707200D01*
X5676190Y-6707200D02*
X5580952Y-6754819D01*
X5580952Y-6754819D02*
X5390476Y-6754819D01*
X5390476Y-6754819D02*
X5295238Y-6707200D01*
X5295238Y-6707200D02*
X5200000Y-6611961D01*
X5200000Y-6611961D02*
X5152381Y-6421485D01*
X5152381Y-6421485D02*
X5152381Y-6088152D01*
X5152381Y-6088152D02*
X5200000Y-5897676D01*
X5200000Y-5897676D02*
X5295238Y-5802438D01*
X5295238Y-5802438D02*
X5390476Y-5754819D01*
X6247619Y-5754819D02*
X6247619Y-6564342D01*
X6247619Y-6564342D02*
X6295238Y-6659580D01*
X6295238Y-6659580D02*
X6342857Y-6707200D01*
X6342857Y-6707200D02*
X6438095Y-6754819D01*
X6438095Y-6754819D02*
X6628571Y-6754819D01*
X6628571Y-6754819D02*
X6723809Y-6707200D01*
X6723809Y-6707200D02*
X6771428Y-6659580D01*
X6771428Y-6659580D02*
X6819047Y-6564342D01*
X6819047Y-6564342D02*
X6819047Y-5754819D01*
X7152381Y-5754819D02*
X7723809Y-5754819D01*
X7438095Y-6754819D02*
X7438095Y-5754819D01*
X41004761Y-75550057D02*
X40909523Y-75502438D01*
X40909523Y-75502438D02*
X40814285Y-75407200D01*
X40814285Y-75407200D02*
X40671428Y-75264342D01*
X40671428Y-75264342D02*
X40576190Y-75216723D01*
X40576190Y-75216723D02*
X40480952Y-75216723D01*
X40528571Y-75454819D02*
X40433333Y-75407200D01*
X40433333Y-75407200D02*
X40338095Y-75311961D01*
X40338095Y-75311961D02*
X40290476Y-75121485D01*
X40290476Y-75121485D02*
X40290476Y-74788152D01*
X40290476Y-74788152D02*
X40338095Y-74597676D01*
X40338095Y-74597676D02*
X40433333Y-74502438D01*
X40433333Y-74502438D02*
X40528571Y-74454819D01*
X40528571Y-74454819D02*
X40719047Y-74454819D01*
X40719047Y-74454819D02*
X40814285Y-74502438D01*
X40814285Y-74502438D02*
X40909523Y-74597676D01*
X40909523Y-74597676D02*
X40957142Y-74788152D01*
X40957142Y-74788152D02*
X40957142Y-75121485D01*
X40957142Y-75121485D02*
X40909523Y-75311961D01*
X40909523Y-75311961D02*
X40814285Y-75407200D01*
X40814285Y-75407200D02*
X40719047Y-75454819D01*
X40719047Y-75454819D02*
X40528571Y-75454819D01*
X41338095Y-74550057D02*
X41385714Y-74502438D01*
X41385714Y-74502438D02*
X41480952Y-74454819D01*
X41480952Y-74454819D02*
X41719047Y-74454819D01*
X41719047Y-74454819D02*
X41814285Y-74502438D01*
X41814285Y-74502438D02*
X41861904Y-74550057D01*
X41861904Y-74550057D02*
X41909523Y-74645295D01*
X41909523Y-74645295D02*
X41909523Y-74740533D01*
X41909523Y-74740533D02*
X41861904Y-74883390D01*
X41861904Y-74883390D02*
X41290476Y-75454819D01*
X41290476Y-75454819D02*
X41909523Y-75454819D01*
X39384819Y-83542857D02*
X38908628Y-83876190D01*
X39384819Y-84114285D02*
X38384819Y-84114285D01*
X38384819Y-84114285D02*
X38384819Y-83733333D01*
X38384819Y-83733333D02*
X38432438Y-83638095D01*
X38432438Y-83638095D02*
X38480057Y-83590476D01*
X38480057Y-83590476D02*
X38575295Y-83542857D01*
X38575295Y-83542857D02*
X38718152Y-83542857D01*
X38718152Y-83542857D02*
X38813390Y-83590476D01*
X38813390Y-83590476D02*
X38861009Y-83638095D01*
X38861009Y-83638095D02*
X38908628Y-83733333D01*
X38908628Y-83733333D02*
X38908628Y-84114285D01*
X39384819Y-82590476D02*
X39384819Y-83161904D01*
X39384819Y-82876190D02*
X38384819Y-82876190D01*
X38384819Y-82876190D02*
X38527676Y-82971428D01*
X38527676Y-82971428D02*
X38622914Y-83066666D01*
X38622914Y-83066666D02*
X38670533Y-83161904D01*
X39384819Y-81638095D02*
X39384819Y-82209523D01*
X39384819Y-81923809D02*
X38384819Y-81923809D01*
X38384819Y-81923809D02*
X38527676Y-82019047D01*
X38527676Y-82019047D02*
X38622914Y-82114285D01*
X38622914Y-82114285D02*
X38670533Y-82209523D01*
X42984819Y-83542857D02*
X42508628Y-83876190D01*
X42984819Y-84114285D02*
X41984819Y-84114285D01*
X41984819Y-84114285D02*
X41984819Y-83733333D01*
X41984819Y-83733333D02*
X42032438Y-83638095D01*
X42032438Y-83638095D02*
X42080057Y-83590476D01*
X42080057Y-83590476D02*
X42175295Y-83542857D01*
X42175295Y-83542857D02*
X42318152Y-83542857D01*
X42318152Y-83542857D02*
X42413390Y-83590476D01*
X42413390Y-83590476D02*
X42461009Y-83638095D01*
X42461009Y-83638095D02*
X42508628Y-83733333D01*
X42508628Y-83733333D02*
X42508628Y-84114285D01*
X42984819Y-82590476D02*
X42984819Y-83161904D01*
X42984819Y-82876190D02*
X41984819Y-82876190D01*
X41984819Y-82876190D02*
X42127676Y-82971428D01*
X42127676Y-82971428D02*
X42222914Y-83066666D01*
X42222914Y-83066666D02*
X42270533Y-83161904D01*
X42080057Y-82209523D02*
X42032438Y-82161904D01*
X42032438Y-82161904D02*
X41984819Y-82066666D01*
X41984819Y-82066666D02*
X41984819Y-81828571D01*
X41984819Y-81828571D02*
X42032438Y-81733333D01*
X42032438Y-81733333D02*
X42080057Y-81685714D01*
X42080057Y-81685714D02*
X42175295Y-81638095D01*
X42175295Y-81638095D02*
X42270533Y-81638095D01*
X42270533Y-81638095D02*
X42413390Y-81685714D01*
X42413390Y-81685714D02*
X42984819Y-82257142D01*
X42984819Y-82257142D02*
X42984819Y-81638095D01*
X50284819Y-83542857D02*
X49808628Y-83876190D01*
X50284819Y-84114285D02*
X49284819Y-84114285D01*
X49284819Y-84114285D02*
X49284819Y-83733333D01*
X49284819Y-83733333D02*
X49332438Y-83638095D01*
X49332438Y-83638095D02*
X49380057Y-83590476D01*
X49380057Y-83590476D02*
X49475295Y-83542857D01*
X49475295Y-83542857D02*
X49618152Y-83542857D01*
X49618152Y-83542857D02*
X49713390Y-83590476D01*
X49713390Y-83590476D02*
X49761009Y-83638095D01*
X49761009Y-83638095D02*
X49808628Y-83733333D01*
X49808628Y-83733333D02*
X49808628Y-84114285D01*
X50284819Y-82590476D02*
X50284819Y-83161904D01*
X50284819Y-82876190D02*
X49284819Y-82876190D01*
X49284819Y-82876190D02*
X49427676Y-82971428D01*
X49427676Y-82971428D02*
X49522914Y-83066666D01*
X49522914Y-83066666D02*
X49570533Y-83161904D01*
X49618152Y-81733333D02*
X50284819Y-81733333D01*
X49237200Y-81971428D02*
X49951485Y-82209523D01*
X49951485Y-82209523D02*
X49951485Y-81590476D01*
X19033333Y-62154819D02*
X18700000Y-61678628D01*
X18461905Y-62154819D02*
X18461905Y-61154819D01*
X18461905Y-61154819D02*
X18842857Y-61154819D01*
X18842857Y-61154819D02*
X18938095Y-61202438D01*
X18938095Y-61202438D02*
X18985714Y-61250057D01*
X18985714Y-61250057D02*
X19033333Y-61345295D01*
X19033333Y-61345295D02*
X19033333Y-61488152D01*
X19033333Y-61488152D02*
X18985714Y-61583390D01*
X18985714Y-61583390D02*
X18938095Y-61631009D01*
X18938095Y-61631009D02*
X18842857Y-61678628D01*
X18842857Y-61678628D02*
X18461905Y-61678628D01*
X19890476Y-61488152D02*
X19890476Y-62154819D01*
X19652381Y-61107200D02*
X19414286Y-61821485D01*
X19414286Y-61821485D02*
X20033333Y-61821485D01*
X55704761Y-76850057D02*
X55609523Y-76802438D01*
X55609523Y-76802438D02*
X55514285Y-76707200D01*
X55514285Y-76707200D02*
X55371428Y-76564342D01*
X55371428Y-76564342D02*
X55276190Y-76516723D01*
X55276190Y-76516723D02*
X55180952Y-76516723D01*
X55228571Y-76754819D02*
X55133333Y-76707200D01*
X55133333Y-76707200D02*
X55038095Y-76611961D01*
X55038095Y-76611961D02*
X54990476Y-76421485D01*
X54990476Y-76421485D02*
X54990476Y-76088152D01*
X54990476Y-76088152D02*
X55038095Y-75897676D01*
X55038095Y-75897676D02*
X55133333Y-75802438D01*
X55133333Y-75802438D02*
X55228571Y-75754819D01*
X55228571Y-75754819D02*
X55419047Y-75754819D01*
X55419047Y-75754819D02*
X55514285Y-75802438D01*
X55514285Y-75802438D02*
X55609523Y-75897676D01*
X55609523Y-75897676D02*
X55657142Y-76088152D01*
X55657142Y-76088152D02*
X55657142Y-76421485D01*
X55657142Y-76421485D02*
X55609523Y-76611961D01*
X55609523Y-76611961D02*
X55514285Y-76707200D01*
X55514285Y-76707200D02*
X55419047Y-76754819D01*
X55419047Y-76754819D02*
X55228571Y-76754819D01*
X56561904Y-75754819D02*
X56085714Y-75754819D01*
X56085714Y-75754819D02*
X56038095Y-76231009D01*
X56038095Y-76231009D02*
X56085714Y-76183390D01*
X56085714Y-76183390D02*
X56180952Y-76135771D01*
X56180952Y-76135771D02*
X56419047Y-76135771D01*
X56419047Y-76135771D02*
X56514285Y-76183390D01*
X56514285Y-76183390D02*
X56561904Y-76231009D01*
X56561904Y-76231009D02*
X56609523Y-76326247D01*
X56609523Y-76326247D02*
X56609523Y-76564342D01*
X56609523Y-76564342D02*
X56561904Y-76659580D01*
X56561904Y-76659580D02*
X56514285Y-76707200D01*
X56514285Y-76707200D02*
X56419047Y-76754819D01*
X56419047Y-76754819D02*
X56180952Y-76754819D01*
X56180952Y-76754819D02*
X56085714Y-76707200D01*
X56085714Y-76707200D02*
X56038095Y-76659580D01*
X1638095Y-29254819D02*
X1638095Y-30064342D01*
X1638095Y-30064342D02*
X1685714Y-30159580D01*
X1685714Y-30159580D02*
X1733333Y-30207200D01*
X1733333Y-30207200D02*
X1828571Y-30254819D01*
X1828571Y-30254819D02*
X2019047Y-30254819D01*
X2019047Y-30254819D02*
X2114285Y-30207200D01*
X2114285Y-30207200D02*
X2161904Y-30159580D01*
X2161904Y-30159580D02*
X2209523Y-30064342D01*
X2209523Y-30064342D02*
X2209523Y-29254819D01*
X2638095Y-29350057D02*
X2685714Y-29302438D01*
X2685714Y-29302438D02*
X2780952Y-29254819D01*
X2780952Y-29254819D02*
X3019047Y-29254819D01*
X3019047Y-29254819D02*
X3114285Y-29302438D01*
X3114285Y-29302438D02*
X3161904Y-29350057D01*
X3161904Y-29350057D02*
X3209523Y-29445295D01*
X3209523Y-29445295D02*
X3209523Y-29540533D01*
X3209523Y-29540533D02*
X3161904Y-29683390D01*
X3161904Y-29683390D02*
X2590476Y-30254819D01*
X2590476Y-30254819D02*
X3209523Y-30254819D01*
X26654819Y-56761904D02*
X27464342Y-56761904D01*
X27464342Y-56761904D02*
X27559580Y-56714285D01*
X27559580Y-56714285D02*
X27607200Y-56666666D01*
X27607200Y-56666666D02*
X27654819Y-56571428D01*
X27654819Y-56571428D02*
X27654819Y-56380952D01*
X27654819Y-56380952D02*
X27607200Y-56285714D01*
X27607200Y-56285714D02*
X27559580Y-56238095D01*
X27559580Y-56238095D02*
X27464342Y-56190476D01*
X27464342Y-56190476D02*
X26654819Y-56190476D01*
X27654819Y-55190476D02*
X27654819Y-55761904D01*
X27654819Y-55476190D02*
X26654819Y-55476190D01*
X26654819Y-55476190D02*
X26797676Y-55571428D01*
X26797676Y-55571428D02*
X26892914Y-55666666D01*
X26892914Y-55666666D02*
X26940533Y-55761904D01*
X47604761Y-77350057D02*
X47509523Y-77302438D01*
X47509523Y-77302438D02*
X47414285Y-77207200D01*
X47414285Y-77207200D02*
X47271428Y-77064342D01*
X47271428Y-77064342D02*
X47176190Y-77016723D01*
X47176190Y-77016723D02*
X47080952Y-77016723D01*
X47128571Y-77254819D02*
X47033333Y-77207200D01*
X47033333Y-77207200D02*
X46938095Y-77111961D01*
X46938095Y-77111961D02*
X46890476Y-76921485D01*
X46890476Y-76921485D02*
X46890476Y-76588152D01*
X46890476Y-76588152D02*
X46938095Y-76397676D01*
X46938095Y-76397676D02*
X47033333Y-76302438D01*
X47033333Y-76302438D02*
X47128571Y-76254819D01*
X47128571Y-76254819D02*
X47319047Y-76254819D01*
X47319047Y-76254819D02*
X47414285Y-76302438D01*
X47414285Y-76302438D02*
X47509523Y-76397676D01*
X47509523Y-76397676D02*
X47557142Y-76588152D01*
X47557142Y-76588152D02*
X47557142Y-76921485D01*
X47557142Y-76921485D02*
X47509523Y-77111961D01*
X47509523Y-77111961D02*
X47414285Y-77207200D01*
X47414285Y-77207200D02*
X47319047Y-77254819D01*
X47319047Y-77254819D02*
X47128571Y-77254819D01*
X48414285Y-76588152D02*
X48414285Y-77254819D01*
X48176190Y-76207200D02*
X47938095Y-76921485D01*
X47938095Y-76921485D02*
X48557142Y-76921485D01*
X37304761Y-75550057D02*
X37209523Y-75502438D01*
X37209523Y-75502438D02*
X37114285Y-75407200D01*
X37114285Y-75407200D02*
X36971428Y-75264342D01*
X36971428Y-75264342D02*
X36876190Y-75216723D01*
X36876190Y-75216723D02*
X36780952Y-75216723D01*
X36828571Y-75454819D02*
X36733333Y-75407200D01*
X36733333Y-75407200D02*
X36638095Y-75311961D01*
X36638095Y-75311961D02*
X36590476Y-75121485D01*
X36590476Y-75121485D02*
X36590476Y-74788152D01*
X36590476Y-74788152D02*
X36638095Y-74597676D01*
X36638095Y-74597676D02*
X36733333Y-74502438D01*
X36733333Y-74502438D02*
X36828571Y-74454819D01*
X36828571Y-74454819D02*
X37019047Y-74454819D01*
X37019047Y-74454819D02*
X37114285Y-74502438D01*
X37114285Y-74502438D02*
X37209523Y-74597676D01*
X37209523Y-74597676D02*
X37257142Y-74788152D01*
X37257142Y-74788152D02*
X37257142Y-75121485D01*
X37257142Y-75121485D02*
X37209523Y-75311961D01*
X37209523Y-75311961D02*
X37114285Y-75407200D01*
X37114285Y-75407200D02*
X37019047Y-75454819D01*
X37019047Y-75454819D02*
X36828571Y-75454819D01*
X38209523Y-75454819D02*
X37638095Y-75454819D01*
X37923809Y-75454819D02*
X37923809Y-74454819D01*
X37923809Y-74454819D02*
X37828571Y-74597676D01*
X37828571Y-74597676D02*
X37733333Y-74692914D01*
X37733333Y-74692914D02*
X37638095Y-74740533D01*
X18933333Y-57354819D02*
X18600000Y-56878628D01*
X18361905Y-57354819D02*
X18361905Y-56354819D01*
X18361905Y-56354819D02*
X18742857Y-56354819D01*
X18742857Y-56354819D02*
X18838095Y-56402438D01*
X18838095Y-56402438D02*
X18885714Y-56450057D01*
X18885714Y-56450057D02*
X18933333Y-56545295D01*
X18933333Y-56545295D02*
X18933333Y-56688152D01*
X18933333Y-56688152D02*
X18885714Y-56783390D01*
X18885714Y-56783390D02*
X18838095Y-56831009D01*
X18838095Y-56831009D02*
X18742857Y-56878628D01*
X18742857Y-56878628D02*
X18361905Y-56878628D01*
X19266667Y-56354819D02*
X19885714Y-56354819D01*
X19885714Y-56354819D02*
X19552381Y-56735771D01*
X19552381Y-56735771D02*
X19695238Y-56735771D01*
X19695238Y-56735771D02*
X19790476Y-56783390D01*
X19790476Y-56783390D02*
X19838095Y-56831009D01*
X19838095Y-56831009D02*
X19885714Y-56926247D01*
X19885714Y-56926247D02*
X19885714Y-57164342D01*
X19885714Y-57164342D02*
X19838095Y-57259580D01*
X19838095Y-57259580D02*
X19790476Y-57307200D01*
X19790476Y-57307200D02*
X19695238Y-57354819D01*
X19695238Y-57354819D02*
X19409524Y-57354819D01*
X19409524Y-57354819D02*
X19314286Y-57307200D01*
X19314286Y-57307200D02*
X19266667Y-57259580D01*
%TO.C,G\u002A\u002A\u002A*%
G36*
X35112088Y-28997998D02*
G01*
X35297740Y-29012771D01*
X35612911Y-29084283D01*
X35905506Y-29198043D01*
X35999679Y-29251786D01*
X36219445Y-29492818D01*
X36306885Y-29819620D01*
X36264798Y-30215909D01*
X36095987Y-30665405D01*
X35803251Y-31151828D01*
X35634352Y-31375297D01*
X35465212Y-31563626D01*
X35329462Y-31675696D01*
X35280845Y-31690699D01*
X35239220Y-31721249D01*
X35255345Y-31758017D01*
X35214758Y-31841356D01*
X35070883Y-32021111D01*
X34843176Y-32277046D01*
X34551095Y-32588929D01*
X34214097Y-32936524D01*
X33851639Y-33299599D01*
X33483179Y-33657917D01*
X33128174Y-33991247D01*
X32968090Y-34136584D01*
X32817419Y-34267081D01*
X32685785Y-34355362D01*
X32534278Y-34412000D01*
X32323987Y-34447568D01*
X32016003Y-34472639D01*
X31655756Y-34493191D01*
X30827689Y-34536996D01*
X30156061Y-34569482D01*
X29628387Y-34591048D01*
X29232179Y-34602090D01*
X28954950Y-34603008D01*
X28784212Y-34594198D01*
X28734949Y-34586288D01*
X28292302Y-34461933D01*
X27995323Y-34330580D01*
X27820390Y-34181379D01*
X27804710Y-34159086D01*
X27693116Y-33883634D01*
X27698711Y-33591734D01*
X28307247Y-33591734D01*
X28353675Y-33888576D01*
X28539359Y-34117046D01*
X28767681Y-34245159D01*
X29070975Y-34323185D01*
X29486075Y-34365785D01*
X29958906Y-34371563D01*
X30435398Y-34339126D01*
X30727768Y-34295699D01*
X30984326Y-34242036D01*
X31163435Y-34195195D01*
X31213600Y-34174201D01*
X31197499Y-34086478D01*
X31130582Y-33860713D01*
X31124108Y-33840654D01*
X32844347Y-33840654D01*
X32898916Y-33821698D01*
X33046429Y-33696273D01*
X33267655Y-33484754D01*
X33543363Y-33207522D01*
X33854320Y-32884952D01*
X33920482Y-32814631D01*
X34111282Y-32814631D01*
X34153615Y-32856964D01*
X34195949Y-32814631D01*
X34153615Y-32772297D01*
X34111282Y-32814631D01*
X33920482Y-32814631D01*
X34181296Y-32537424D01*
X34505060Y-32185314D01*
X34806379Y-31849000D01*
X35066022Y-31548862D01*
X35264758Y-31305275D01*
X35360714Y-31174293D01*
X35673482Y-30642514D01*
X35841959Y-30198881D01*
X35865758Y-29842294D01*
X35744495Y-29571649D01*
X35477781Y-29385845D01*
X35065231Y-29283781D01*
X34690052Y-29261574D01*
X34396408Y-29266992D01*
X34175110Y-29284031D01*
X34076098Y-29308141D01*
X34038381Y-29403339D01*
X33965280Y-29636373D01*
X33863884Y-29981159D01*
X33741280Y-30411614D01*
X33604558Y-30901654D01*
X33460806Y-31425193D01*
X33317112Y-31956149D01*
X33180565Y-32468438D01*
X33058254Y-32935975D01*
X32957268Y-33332676D01*
X32884693Y-33632458D01*
X32847621Y-33809237D01*
X32844347Y-33840654D01*
X31124108Y-33840654D01*
X31019959Y-33517982D01*
X30872740Y-33079360D01*
X30696036Y-32565922D01*
X30496955Y-31998745D01*
X30282609Y-31398904D01*
X30204157Y-31182002D01*
X30165625Y-31103966D01*
X30110111Y-31086744D01*
X30015290Y-31145787D01*
X29858835Y-31296547D01*
X29618422Y-31554475D01*
X29536794Y-31643863D01*
X29014848Y-32252586D01*
X28636698Y-32777579D01*
X28401209Y-33222682D01*
X28307247Y-33591734D01*
X27698711Y-33591734D01*
X27699201Y-33566144D01*
X27827773Y-33196912D01*
X28083642Y-32766234D01*
X28471617Y-32264404D01*
X28996507Y-31681720D01*
X29071060Y-31603678D01*
X29999838Y-30636815D01*
X29769560Y-29986700D01*
X29662594Y-29677788D01*
X29582057Y-29432011D01*
X29541581Y-29291412D01*
X29539282Y-29276441D01*
X29615317Y-29241628D01*
X29809079Y-29219914D01*
X29948524Y-29216297D01*
X30357765Y-29216297D01*
X30978114Y-30846131D01*
X31182695Y-31382947D01*
X31382771Y-31906727D01*
X31564643Y-32381696D01*
X31714613Y-32772080D01*
X31818981Y-33042107D01*
X31823533Y-33053802D01*
X32048603Y-33631640D01*
X32237982Y-32926802D01*
X32491090Y-31980159D01*
X32699966Y-31188491D01*
X32866572Y-30543863D01*
X32992872Y-30038340D01*
X33080826Y-29663987D01*
X33132398Y-29412868D01*
X33149550Y-29277049D01*
X33146757Y-29251924D01*
X33205495Y-29198226D01*
X33397776Y-29143717D01*
X33687880Y-29092367D01*
X34040085Y-29048149D01*
X34418669Y-29015033D01*
X34787911Y-28996992D01*
X35112088Y-28997998D01*
G37*
G36*
X81974835Y-21576208D02*
G01*
X82071213Y-21665717D01*
X82131734Y-21731941D01*
X82309906Y-21960498D01*
X82428478Y-22170099D01*
X82481786Y-22348581D01*
X82472529Y-22464041D01*
X82396313Y-22578346D01*
X82276114Y-22612174D01*
X82111581Y-22565458D01*
X81902364Y-22438129D01*
X81759655Y-22326689D01*
X81624940Y-22219918D01*
X81518160Y-22145235D01*
X81457745Y-22115223D01*
X81451726Y-22116458D01*
X81454758Y-22172273D01*
X81506656Y-22270584D01*
X81591127Y-22388189D01*
X81691879Y-22501883D01*
X81773305Y-22574467D01*
X81903105Y-22662186D01*
X82069041Y-22760054D01*
X82162573Y-22809860D01*
X82332689Y-22904045D01*
X82423520Y-22977341D01*
X82443359Y-23038731D01*
X82415327Y-23083689D01*
X82362176Y-23093454D01*
X82255291Y-23062015D01*
X82085693Y-22986106D01*
X81927954Y-22906375D01*
X81746226Y-22816265D01*
X81594888Y-22749500D01*
X81492217Y-22713633D01*
X81457666Y-22711976D01*
X81451503Y-22778173D01*
X81520513Y-22879864D01*
X81657758Y-23009882D01*
X81856297Y-23161064D01*
X81962542Y-23233270D01*
X82185298Y-23383967D01*
X82338954Y-23500055D01*
X82434553Y-23593177D01*
X82483137Y-23674977D01*
X82495748Y-23757099D01*
X82493177Y-23792795D01*
X82462233Y-23901745D01*
X82399146Y-23931879D01*
X82296048Y-23884141D01*
X82219997Y-23825502D01*
X82141780Y-23763293D01*
X82109021Y-23748820D01*
X82124226Y-23788668D01*
X82189902Y-23889420D01*
X82308179Y-24057135D01*
X82423245Y-24253200D01*
X82486773Y-24438330D01*
X82496162Y-24595277D01*
X82448809Y-24706790D01*
X82410630Y-24736331D01*
X82306898Y-24769170D01*
X82242858Y-24765358D01*
X82231895Y-24786016D01*
X82267221Y-24864674D01*
X82339006Y-24980941D01*
X82458443Y-25200481D01*
X82504869Y-25390868D01*
X82477607Y-25543429D01*
X82390509Y-25640570D01*
X82330047Y-25660266D01*
X82236854Y-25690625D01*
X82150106Y-25680610D01*
X82020469Y-25648073D01*
X82190492Y-25855563D01*
X82359295Y-26089146D01*
X82448505Y-26282141D01*
X82459647Y-26438484D01*
X82439380Y-26498368D01*
X82349440Y-26600434D01*
X82220569Y-26620524D01*
X82051379Y-26558577D01*
X81919727Y-26474720D01*
X81776743Y-26371900D01*
X81648745Y-26279884D01*
X81586079Y-26234855D01*
X81490129Y-26184317D01*
X81448740Y-26207757D01*
X81463442Y-26303324D01*
X81484079Y-26358229D01*
X81561238Y-26474572D01*
X81697672Y-26616840D01*
X81871565Y-26766396D01*
X82061098Y-26904600D01*
X82244454Y-27012814D01*
X82258379Y-27019703D01*
X82393063Y-27103489D01*
X82453127Y-27183756D01*
X82455009Y-27198654D01*
X82452720Y-27250129D01*
X82433759Y-27273094D01*
X82379987Y-27266000D01*
X82273262Y-27227293D01*
X82134391Y-27171234D01*
X81861877Y-27060502D01*
X82087250Y-27340187D01*
X82285137Y-27609377D01*
X82414411Y-27846285D01*
X82483519Y-28069851D01*
X82501275Y-28268469D01*
X82495243Y-28413485D01*
X82479768Y-28518656D01*
X82466628Y-28550372D01*
X82450355Y-28612116D01*
X82444178Y-28735879D01*
X82447444Y-28853472D01*
X82428481Y-29138173D01*
X82332315Y-29380764D01*
X82233806Y-29514582D01*
X82189833Y-29584803D01*
X82210823Y-29630331D01*
X82305173Y-29655445D01*
X82481282Y-29664426D01*
X82528264Y-29664663D01*
X82824428Y-29664663D01*
X82803043Y-29695714D01*
X82789729Y-29715569D01*
X82674582Y-29810023D01*
X82502345Y-29854776D01*
X82295593Y-29847195D01*
X82103976Y-29795509D01*
X82085606Y-29811780D01*
X82123840Y-29893408D01*
X82215874Y-30034810D01*
X82244717Y-30075704D01*
X82393805Y-30314455D01*
X82480388Y-30521304D01*
X82502626Y-30687750D01*
X82458684Y-30805289D01*
X82410630Y-30843434D01*
X82306898Y-30876274D01*
X82242858Y-30872462D01*
X82231895Y-30893119D01*
X82267221Y-30971778D01*
X82339006Y-31088045D01*
X82455396Y-31303569D01*
X82502953Y-31491777D01*
X82485438Y-31642519D01*
X82406617Y-31745645D01*
X82288347Y-31784987D01*
X82270252Y-31791006D01*
X82086086Y-31770087D01*
X81851199Y-31662357D01*
X81643232Y-31484480D01*
X81478694Y-31258254D01*
X81374095Y-31005476D01*
X81344627Y-30791163D01*
X81357460Y-30646116D01*
X81387562Y-30568691D01*
X81483425Y-30568691D01*
X81522082Y-30731756D01*
X81627156Y-30916360D01*
X81782303Y-31102658D01*
X81971177Y-31270806D01*
X82162806Y-31393519D01*
X82288347Y-31440407D01*
X82353782Y-31424193D01*
X82359555Y-31351741D01*
X82306112Y-31229918D01*
X82193898Y-31065590D01*
X82136939Y-30994630D01*
X81938122Y-30769632D01*
X81769034Y-30606336D01*
X81634667Y-30507996D01*
X81540016Y-30477867D01*
X81490072Y-30519204D01*
X81483425Y-30568691D01*
X81387562Y-30568691D01*
X81406478Y-30520038D01*
X81507457Y-30373054D01*
X81512747Y-30366244D01*
X81605621Y-30251163D01*
X81674949Y-30172878D01*
X81701591Y-30150455D01*
X81746111Y-30177091D01*
X81838356Y-30245543D01*
X81915165Y-30306270D01*
X82109071Y-30451573D01*
X82245320Y-30528178D01*
X82322848Y-30536147D01*
X82340587Y-30475544D01*
X82297473Y-30346430D01*
X82268084Y-30285604D01*
X82136588Y-30087957D01*
X81950840Y-29884107D01*
X81886188Y-29828544D01*
X81741631Y-29704308D01*
X81557489Y-29587433D01*
X81299465Y-29442688D01*
X81028631Y-29264290D01*
X80759440Y-29064476D01*
X80506344Y-28855482D01*
X80283795Y-28649543D01*
X80106245Y-28458895D01*
X79988147Y-28295775D01*
X79957581Y-28232871D01*
X79919305Y-28075343D01*
X79914162Y-27916180D01*
X79941530Y-27791144D01*
X79965902Y-27753879D01*
X80075326Y-27704297D01*
X80228100Y-27709991D01*
X80395974Y-27767619D01*
X80475739Y-27814179D01*
X80591391Y-27913552D01*
X80723491Y-28059178D01*
X80859644Y-28232895D01*
X80987454Y-28416538D01*
X81094524Y-28591944D01*
X81168458Y-28740947D01*
X81196861Y-28845386D01*
X81194161Y-28866879D01*
X81164248Y-28856756D01*
X81101418Y-28781909D01*
X81018573Y-28658003D01*
X81008247Y-28641152D01*
X80847743Y-28400280D01*
X80675098Y-28180606D01*
X80506647Y-28000771D01*
X80358731Y-27879418D01*
X80321479Y-27857551D01*
X80230224Y-27815210D01*
X80194132Y-27821888D01*
X80187978Y-27874304D01*
X80223818Y-27997854D01*
X80323790Y-28162407D01*
X80476578Y-28355402D01*
X80670863Y-28564275D01*
X80895328Y-28776465D01*
X81138655Y-28979410D01*
X81276688Y-29082726D01*
X81497570Y-29241044D01*
X81374833Y-29060420D01*
X81291980Y-28894811D01*
X81288706Y-28880124D01*
X81437159Y-28880124D01*
X81463562Y-28968300D01*
X81531627Y-29081423D01*
X81624638Y-29200924D01*
X81725879Y-29308235D01*
X81818634Y-29384786D01*
X81886188Y-29412010D01*
X81905732Y-29400630D01*
X81922749Y-29300666D01*
X81895517Y-29154483D01*
X81841207Y-29016939D01*
X81728721Y-28850687D01*
X81600312Y-28769826D01*
X81545653Y-28762477D01*
X81463014Y-28782999D01*
X81437514Y-28861620D01*
X81437159Y-28880124D01*
X81288706Y-28880124D01*
X81253797Y-28723501D01*
X81263719Y-28575432D01*
X81307614Y-28494134D01*
X81418002Y-28438369D01*
X81545938Y-28456891D01*
X81678332Y-28536672D01*
X81802094Y-28664689D01*
X81904132Y-28827913D01*
X81971357Y-29013321D01*
X81991334Y-29174474D01*
X81992350Y-29332009D01*
X82091416Y-29243873D01*
X82172111Y-29145866D01*
X82256483Y-29005165D01*
X82325545Y-28858170D01*
X82360309Y-28741282D01*
X82361461Y-28726149D01*
X82342672Y-28690186D01*
X82271581Y-28715338D01*
X82269946Y-28716211D01*
X82198115Y-28739192D01*
X82177414Y-28722789D01*
X82214668Y-28672185D01*
X82257082Y-28649273D01*
X82309966Y-28618047D01*
X82277001Y-28581008D01*
X82268649Y-28575633D01*
X82229565Y-28541607D01*
X82276433Y-28531997D01*
X82286528Y-28531856D01*
X82344831Y-28515246D01*
X82350721Y-28449805D01*
X82340755Y-28403916D01*
X82297269Y-28287741D01*
X82219902Y-28185113D01*
X82092128Y-28079556D01*
X81897418Y-27954592D01*
X81879059Y-27943622D01*
X81709714Y-27835124D01*
X81549806Y-27719925D01*
X81448725Y-27636052D01*
X81359538Y-27558975D01*
X81305638Y-27524932D01*
X81298361Y-27528273D01*
X81327329Y-27602173D01*
X81406504Y-27728651D01*
X81524294Y-27891414D01*
X81669106Y-28074171D01*
X81779092Y-28203839D01*
X81929143Y-28383279D01*
X82016379Y-28505415D01*
X82039446Y-28567995D01*
X81999322Y-28569702D01*
X81942972Y-28525103D01*
X81844801Y-28427099D01*
X81721309Y-28294125D01*
X81588993Y-28144617D01*
X81464352Y-27997011D01*
X81363885Y-27869742D01*
X81327627Y-27819135D01*
X81275228Y-27716628D01*
X81253777Y-27674664D01*
X81211185Y-27520703D01*
X81207901Y-27443898D01*
X81252095Y-27443898D01*
X81275228Y-27467030D01*
X81298361Y-27443898D01*
X81275228Y-27420765D01*
X81252095Y-27443898D01*
X81207901Y-27443898D01*
X81205519Y-27388195D01*
X81235157Y-27314326D01*
X81287509Y-27318981D01*
X81373464Y-27370739D01*
X81376573Y-27373165D01*
X81486239Y-27438860D01*
X81640661Y-27507925D01*
X81728939Y-27539849D01*
X81893808Y-27598181D01*
X82043734Y-27658518D01*
X82101225Y-27685153D01*
X82233233Y-27751943D01*
X82147491Y-27599285D01*
X82008475Y-27404940D01*
X81805676Y-27191166D01*
X81559734Y-26976417D01*
X81291288Y-26779146D01*
X81094032Y-26657377D01*
X80842309Y-26500458D01*
X80593026Y-26318318D01*
X80363504Y-26126051D01*
X80171066Y-25938755D01*
X80033034Y-25771524D01*
X79985518Y-25691345D01*
X79925662Y-25507053D01*
X79916032Y-25331890D01*
X79952226Y-25185975D01*
X80029842Y-25089429D01*
X80123370Y-25061202D01*
X80250125Y-25088369D01*
X80411274Y-25158097D01*
X80570956Y-25252724D01*
X80668479Y-25329685D01*
X80755893Y-25425977D01*
X80864851Y-25566453D01*
X80981533Y-25730487D01*
X81092117Y-25897453D01*
X81182783Y-26046726D01*
X81239709Y-26157679D01*
X81252095Y-26200653D01*
X81234249Y-26260362D01*
X81188484Y-26243300D01*
X81126462Y-26156335D01*
X81104551Y-26113752D01*
X80981604Y-25896152D01*
X80832475Y-25691152D01*
X80670612Y-25511639D01*
X80509466Y-25370501D01*
X80362483Y-25280626D01*
X80243114Y-25254902D01*
X80215157Y-25261444D01*
X80172208Y-25299709D01*
X80180012Y-25370044D01*
X80243066Y-25482691D01*
X80365868Y-25647892D01*
X80407980Y-25700521D01*
X80490172Y-25787914D01*
X80616509Y-25905619D01*
X80771939Y-26041424D01*
X80941414Y-26183120D01*
X81109882Y-26318494D01*
X81262292Y-26435335D01*
X81383595Y-26521432D01*
X81458740Y-26564575D01*
X81474622Y-26565936D01*
X81464691Y-26519685D01*
X81418745Y-26441877D01*
X81362819Y-26311693D01*
X81346923Y-26163203D01*
X81372734Y-26036640D01*
X81400146Y-25995774D01*
X81502156Y-25946072D01*
X81650993Y-25959644D01*
X81853595Y-26037785D01*
X81982482Y-26104356D01*
X82129820Y-26180609D01*
X82243852Y-26230792D01*
X82302745Y-26245456D01*
X82305390Y-26244094D01*
X82298442Y-26188757D01*
X82234678Y-26078239D01*
X82122031Y-25923458D01*
X81968437Y-25735334D01*
X81785967Y-25529290D01*
X81593344Y-25307081D01*
X81463209Y-25122662D01*
X81385436Y-24956474D01*
X81349895Y-24788959D01*
X81344627Y-24677020D01*
X81358784Y-24532950D01*
X81377640Y-24487020D01*
X81479335Y-24487020D01*
X81519065Y-24611018D01*
X81593871Y-24754848D01*
X81695806Y-24901336D01*
X81816926Y-25033309D01*
X81864019Y-25074220D01*
X82073505Y-25228277D01*
X82230262Y-25313521D01*
X82330047Y-25333005D01*
X82368617Y-25289781D01*
X82341730Y-25186902D01*
X82245143Y-25027422D01*
X82131895Y-24881464D01*
X81963603Y-24692871D01*
X81802040Y-24536298D01*
X81661993Y-24424525D01*
X81558250Y-24370333D01*
X81536890Y-24367213D01*
X81482628Y-24400027D01*
X81479335Y-24487020D01*
X81377640Y-24487020D01*
X81411737Y-24403967D01*
X81511821Y-24260329D01*
X81592423Y-24157629D01*
X81653878Y-24099348D01*
X81716448Y-24086971D01*
X81800393Y-24121983D01*
X81925976Y-24205871D01*
X82057721Y-24300353D01*
X82197587Y-24389025D01*
X82294642Y-24426788D01*
X82327499Y-24420697D01*
X82338555Y-24347758D01*
X82290513Y-24224241D01*
X82191491Y-24063157D01*
X82049608Y-23877521D01*
X81872983Y-23680346D01*
X81852328Y-23659069D01*
X81698724Y-23506676D01*
X81589939Y-23412862D01*
X81509883Y-23366551D01*
X81442466Y-23356665D01*
X81417840Y-23359957D01*
X81327663Y-23362453D01*
X81298767Y-23313810D01*
X81298361Y-23301630D01*
X81339533Y-23215227D01*
X81459880Y-23170360D01*
X81551981Y-23164298D01*
X81611048Y-23159774D01*
X81618170Y-23135192D01*
X81567868Y-23074035D01*
X81498721Y-23003784D01*
X81392427Y-22878158D01*
X81352395Y-22770976D01*
X81352983Y-22714622D01*
X81378660Y-22621637D01*
X81446331Y-22593644D01*
X81496134Y-22594841D01*
X81624508Y-22603707D01*
X81484568Y-22433935D01*
X81384984Y-22272140D01*
X81341398Y-22109867D01*
X81355558Y-21969559D01*
X81429212Y-21873660D01*
X81440438Y-21867097D01*
X81562402Y-21841943D01*
X81719950Y-21882870D01*
X81921392Y-21992761D01*
X82043950Y-22076464D01*
X82167414Y-22162630D01*
X82258589Y-22221554D01*
X82293186Y-22238979D01*
X82318952Y-22206985D01*
X82282189Y-22114479D01*
X82185498Y-21966676D01*
X82102903Y-21857566D01*
X81991001Y-21703727D01*
X81933305Y-21601418D01*
X81928391Y-21556843D01*
X81974835Y-21576208D01*
G37*
G36*
X80224790Y-30835313D02*
G01*
X80368244Y-30931460D01*
X80554818Y-31092518D01*
X80631726Y-31164355D01*
X80825474Y-31337699D01*
X81000808Y-31475723D01*
X81140121Y-31565090D01*
X81189699Y-31587010D01*
X81295787Y-31626025D01*
X81325086Y-31656424D01*
X81289700Y-31695283D01*
X81274488Y-31706626D01*
X81117656Y-31766422D01*
X80929516Y-31743368D01*
X80715453Y-31639558D01*
X80480847Y-31457090D01*
X80377225Y-31357240D01*
X80126945Y-31102776D01*
X80153310Y-31299339D01*
X80195420Y-31456152D01*
X80278666Y-31646494D01*
X80392864Y-31856111D01*
X80527827Y-32070749D01*
X80673371Y-32276156D01*
X80819311Y-32458079D01*
X80955462Y-32602264D01*
X81071639Y-32694459D01*
X81157657Y-32720409D01*
X81166952Y-32717854D01*
X81219864Y-32664927D01*
X81294290Y-32550237D01*
X81375357Y-32397098D01*
X81386501Y-32373682D01*
X81498957Y-32153960D01*
X81600236Y-32009460D01*
X81704831Y-31926501D01*
X81827235Y-31891406D01*
X81901573Y-31887531D01*
X82096905Y-31931105D01*
X82265133Y-32056714D01*
X82401851Y-32256690D01*
X82502655Y-32523363D01*
X82563137Y-32849064D01*
X82578106Y-33065209D01*
X82581319Y-33264090D01*
X82578668Y-33432297D01*
X82570793Y-33545319D01*
X82564849Y-33574134D01*
X82443395Y-33843171D01*
X82321128Y-34025126D01*
X82221239Y-34107455D01*
X82117104Y-34158365D01*
X82074846Y-34161283D01*
X82087650Y-34104564D01*
X82146826Y-33980344D01*
X82203722Y-33829490D01*
X82240295Y-33637775D01*
X82261053Y-33380762D01*
X82262271Y-33354227D01*
X82262654Y-33020857D01*
X82227815Y-32752786D01*
X82152774Y-32527862D01*
X82032548Y-32323934D01*
X82029631Y-32319893D01*
X81933720Y-32203708D01*
X81852469Y-32152910D01*
X81770235Y-32148611D01*
X81693443Y-32172271D01*
X81626361Y-32235657D01*
X81552509Y-32357545D01*
X81506558Y-32449048D01*
X81372345Y-32695412D01*
X81246232Y-32859100D01*
X81120088Y-32948535D01*
X81001134Y-32972504D01*
X80801552Y-32927011D01*
X80598583Y-32794311D01*
X80397128Y-32579356D01*
X80202092Y-32287098D01*
X80067340Y-32029371D01*
X79968018Y-31799748D01*
X79909255Y-31602195D01*
X79878964Y-31392688D01*
X79873862Y-31324704D01*
X79865855Y-31136401D01*
X79873672Y-31014900D01*
X79900784Y-30935300D01*
X79934530Y-30889589D01*
X80019795Y-30819052D01*
X80112594Y-30799402D01*
X80224790Y-30835313D01*
G37*
G36*
X76696342Y-25454607D02*
G01*
X76717669Y-25487051D01*
X76775866Y-25542939D01*
X76894897Y-25632231D01*
X77055868Y-25741368D01*
X77193377Y-25828469D01*
X77598436Y-26092303D01*
X77921088Y-26337287D01*
X78167598Y-26571021D01*
X78344230Y-26801105D01*
X78457249Y-27035139D01*
X78512917Y-27280724D01*
X78521388Y-27439721D01*
X78497138Y-27698901D01*
X78432492Y-27915055D01*
X78323704Y-28077727D01*
X78176719Y-28197241D01*
X78019374Y-28252175D01*
X77992644Y-28253551D01*
X77927706Y-28237196D01*
X77942827Y-28194288D01*
X78032736Y-28134061D01*
X78071875Y-28114754D01*
X78252926Y-27984684D01*
X78370245Y-27803803D01*
X78423710Y-27588497D01*
X78413200Y-27355154D01*
X78338591Y-27120161D01*
X78199764Y-26899907D01*
X78081799Y-26778300D01*
X77957165Y-26676175D01*
X77802996Y-26564835D01*
X77603576Y-26433637D01*
X77343186Y-26271942D01*
X77253506Y-26217513D01*
X77071858Y-26107696D01*
X77274326Y-26375863D01*
X77404693Y-26584518D01*
X77470130Y-26771250D01*
X77471432Y-26925271D01*
X77409392Y-27035790D01*
X77284804Y-27092017D01*
X77228600Y-27096341D01*
X77221293Y-27096903D01*
X77115002Y-27113580D01*
X77095202Y-27162079D01*
X77161169Y-27238696D01*
X77249713Y-27346647D01*
X77339063Y-27508902D01*
X77412756Y-27688859D01*
X77454333Y-27849917D01*
X77458288Y-27899354D01*
X77429451Y-28053045D01*
X77340475Y-28137286D01*
X77187658Y-28155233D01*
X77161442Y-28152692D01*
X77075552Y-28144675D01*
X77036643Y-28155849D01*
X77046518Y-28200951D01*
X77106977Y-28294719D01*
X77193557Y-28415482D01*
X77346815Y-28662489D01*
X77431310Y-28894154D01*
X77458249Y-29141686D01*
X77458288Y-29152663D01*
X77444567Y-29331139D01*
X77397728Y-29451219D01*
X77363954Y-29494008D01*
X77283643Y-29566519D01*
X77227627Y-29595264D01*
X77225478Y-29632046D01*
X77260912Y-29728190D01*
X77321962Y-29854424D01*
X77424415Y-30102749D01*
X77464300Y-30327932D01*
X77444469Y-30518416D01*
X77367769Y-30662647D01*
X77237052Y-30749068D01*
X77096429Y-30768843D01*
X76869782Y-30719326D01*
X76663411Y-30593866D01*
X76491346Y-30408842D01*
X76367615Y-30180632D01*
X76306248Y-29925613D01*
X76302074Y-29841465D01*
X76319436Y-29648132D01*
X76371036Y-29532613D01*
X76374343Y-29529169D01*
X76447392Y-29470278D01*
X76514933Y-29468444D01*
X76608959Y-29526532D01*
X76643560Y-29553272D01*
X76775403Y-29706046D01*
X76867050Y-29907633D01*
X76899933Y-30116875D01*
X76899852Y-30121406D01*
X76895021Y-30193809D01*
X76880738Y-30198414D01*
X76850336Y-30127694D01*
X76814384Y-30024909D01*
X76735906Y-29824894D01*
X76660200Y-29703704D01*
X76577630Y-29648466D01*
X76527304Y-29641530D01*
X76457584Y-29672328D01*
X76445786Y-29754265D01*
X76485828Y-29871655D01*
X76571628Y-30008811D01*
X76697103Y-30150047D01*
X76739651Y-30189184D01*
X76932882Y-30324856D01*
X77108575Y-30374323D01*
X77229061Y-30357984D01*
X77308006Y-30292744D01*
X77317916Y-30172067D01*
X77260756Y-29999857D01*
X77148481Y-29797991D01*
X77138487Y-29780022D01*
X76953071Y-29516467D01*
X76706472Y-29213098D01*
X76583276Y-29072680D01*
X76447912Y-28915238D01*
X76330129Y-28767060D01*
X76249162Y-28652748D01*
X76232347Y-28623885D01*
X76183474Y-28487714D01*
X76174168Y-28417973D01*
X76256545Y-28417973D01*
X76285749Y-28483290D01*
X76362926Y-28601829D01*
X76475089Y-28757201D01*
X76609252Y-28933011D01*
X76752430Y-29112871D01*
X76891634Y-29280386D01*
X77013881Y-29419167D01*
X77106182Y-29512822D01*
X77148481Y-29543797D01*
X77209065Y-29525182D01*
X77259686Y-29474398D01*
X77299647Y-29348095D01*
X77270701Y-29198928D01*
X77191028Y-29072537D01*
X77113783Y-29006953D01*
X76984374Y-28916035D01*
X76836071Y-28822675D01*
X76666727Y-28714177D01*
X76506819Y-28598978D01*
X76405738Y-28515105D01*
X76317106Y-28440353D01*
X76263714Y-28411379D01*
X76256545Y-28417973D01*
X76174168Y-28417973D01*
X76164564Y-28345998D01*
X76177369Y-28231873D01*
X76209108Y-28184153D01*
X76251915Y-28183786D01*
X76255374Y-28197528D01*
X76273183Y-28226645D01*
X76333931Y-28265937D01*
X76448594Y-28320628D01*
X76628151Y-28395943D01*
X76883577Y-28497105D01*
X76890793Y-28499918D01*
X77179218Y-28612327D01*
X77098990Y-28474835D01*
X77035067Y-28380982D01*
X76927915Y-28239600D01*
X76794860Y-28073124D01*
X76706466Y-27966563D01*
X76549159Y-27768331D01*
X76443382Y-27609983D01*
X76396061Y-27502197D01*
X76394171Y-27485141D01*
X76415405Y-27395012D01*
X76465560Y-27378682D01*
X76512680Y-27425365D01*
X76572923Y-27474151D01*
X76692021Y-27542120D01*
X76842108Y-27616183D01*
X76995317Y-27683248D01*
X77123783Y-27730227D01*
X77192259Y-27744590D01*
X77256176Y-27713948D01*
X77262217Y-27630696D01*
X77217614Y-27507976D01*
X77129601Y-27358928D01*
X77005410Y-27196692D01*
X76852273Y-27034408D01*
X76751859Y-26944449D01*
X76540833Y-26726898D01*
X76394959Y-26489742D01*
X76318118Y-26247421D01*
X76314193Y-26014371D01*
X76363896Y-25871591D01*
X76457565Y-25871591D01*
X76460659Y-25971547D01*
X76461478Y-25974954D01*
X76527666Y-26136829D01*
X76640598Y-26306775D01*
X76783716Y-26469428D01*
X76940461Y-26609430D01*
X77094276Y-26711419D01*
X77228600Y-26760033D01*
X77301590Y-26754302D01*
X77335672Y-26699986D01*
X77300685Y-26594774D01*
X77200404Y-26444827D01*
X77038606Y-26256310D01*
X76923465Y-26137119D01*
X76746970Y-25975049D01*
X76606581Y-25875399D01*
X76508160Y-25840228D01*
X76457565Y-25871591D01*
X76363896Y-25871591D01*
X76387066Y-25805030D01*
X76428871Y-25743300D01*
X76521278Y-25621612D01*
X76596879Y-25517015D01*
X76612452Y-25494042D01*
X76659966Y-25435307D01*
X76696342Y-25454607D01*
G37*
G36*
X76188310Y-16250342D02*
G01*
X76209108Y-16338884D01*
X76222998Y-16410840D01*
X76273445Y-16473289D01*
X76373616Y-16534145D01*
X76536676Y-16601322D01*
X76775791Y-16682732D01*
X76787432Y-16686496D01*
X77251233Y-16868505D01*
X77650830Y-17091957D01*
X77981283Y-17351715D01*
X78237654Y-17642640D01*
X78415007Y-17959596D01*
X78508403Y-18297444D01*
X78522195Y-18491438D01*
X78508747Y-18714338D01*
X78464830Y-18876496D01*
X78431909Y-18940018D01*
X78341249Y-19059479D01*
X78242554Y-19150288D01*
X78235451Y-19154963D01*
X78110246Y-19221093D01*
X78000764Y-19257572D01*
X77932152Y-19257613D01*
X77920947Y-19239827D01*
X77959935Y-19195652D01*
X78026328Y-19169010D01*
X78180740Y-19087491D01*
X78311787Y-18941221D01*
X78397988Y-18757962D01*
X78417261Y-18663826D01*
X78399847Y-18413306D01*
X78295618Y-18150682D01*
X78108695Y-17880965D01*
X77843198Y-17609167D01*
X77503247Y-17340300D01*
X77134426Y-17103437D01*
X76879964Y-16954375D01*
X77171980Y-17259215D01*
X77311566Y-17408590D01*
X77396843Y-17514033D01*
X77439767Y-17596191D01*
X77452296Y-17675714D01*
X77449576Y-17738585D01*
X77434371Y-17849737D01*
X77394514Y-17902332D01*
X77301677Y-17922389D01*
X77244387Y-17927054D01*
X77139356Y-17927481D01*
X77045689Y-17903890D01*
X76938151Y-17845093D01*
X76791506Y-17739903D01*
X76748706Y-17707291D01*
X76605707Y-17599966D01*
X76491664Y-17518621D01*
X76425458Y-17476571D01*
X76417354Y-17473588D01*
X76409710Y-17504993D01*
X76457914Y-17591265D01*
X76553771Y-17720483D01*
X76689082Y-17880730D01*
X76724803Y-17920591D01*
X76854374Y-18072723D01*
X76917877Y-18165930D01*
X76920717Y-18200054D01*
X76868299Y-18174941D01*
X76766030Y-18090431D01*
X76619313Y-17946370D01*
X76598203Y-17924258D01*
X76450905Y-17762647D01*
X76360364Y-17644207D01*
X76314604Y-17550159D01*
X76301647Y-17461725D01*
X76301640Y-17459286D01*
X76329829Y-17300244D01*
X76412622Y-17214186D01*
X76547354Y-17201410D01*
X76731360Y-17262219D01*
X76946419Y-17386439D01*
X77086782Y-17475078D01*
X77195947Y-17534522D01*
X77253238Y-17553699D01*
X77256168Y-17552332D01*
X77256515Y-17490956D01*
X77189133Y-17387597D01*
X77063459Y-17251334D01*
X76888929Y-17091250D01*
X76674981Y-16916425D01*
X76431051Y-16735941D01*
X76347905Y-16678272D01*
X76180088Y-16555132D01*
X76081156Y-16458379D01*
X76037073Y-16373341D01*
X76032537Y-16348727D01*
X76036004Y-16256540D01*
X76088389Y-16225577D01*
X76113503Y-16224408D01*
X76188310Y-16250342D01*
G37*
G36*
X75634691Y-20221332D02*
G01*
X75794645Y-20346256D01*
X75844858Y-20388269D01*
X76193916Y-20666660D01*
X76529045Y-20903189D01*
X76841757Y-21093575D01*
X77123561Y-21233535D01*
X77365968Y-21318788D01*
X77560488Y-21345050D01*
X77684707Y-21316289D01*
X77763035Y-21294898D01*
X77779516Y-21328705D01*
X77724317Y-21394148D01*
X77573623Y-21460431D01*
X77375804Y-21472380D01*
X77259410Y-21454681D01*
X77083665Y-21414923D01*
X77294109Y-21639906D01*
X77410850Y-21772639D01*
X77474541Y-21874581D01*
X77500544Y-21977249D01*
X77504554Y-22071709D01*
X77492697Y-22218516D01*
X77446447Y-22314409D01*
X77382650Y-22374419D01*
X77254797Y-22442957D01*
X77174539Y-22460010D01*
X77126068Y-22470309D01*
X76991390Y-22470309D01*
X77159456Y-22690072D01*
X77321642Y-22929612D01*
X77416948Y-23145100D01*
X77455962Y-23363087D01*
X77458288Y-23439479D01*
X77426561Y-23632795D01*
X77339083Y-23774725D01*
X77207409Y-23850107D01*
X77139123Y-23858287D01*
X77078902Y-23861974D01*
X77066775Y-23885775D01*
X77106195Y-23948801D01*
X77170466Y-24031785D01*
X77338415Y-24272815D01*
X77432305Y-24472937D01*
X77450999Y-24628743D01*
X77402769Y-24728087D01*
X77287807Y-24783194D01*
X77127721Y-24762298D01*
X76920940Y-24664844D01*
X76665895Y-24490277D01*
X76611801Y-24448307D01*
X76504458Y-24373481D01*
X76427073Y-24337496D01*
X76406703Y-24339259D01*
X76407651Y-24400605D01*
X76483631Y-24506230D01*
X76630750Y-24652110D01*
X76845118Y-24834219D01*
X77010581Y-24963929D01*
X77206726Y-25117411D01*
X77337971Y-25230414D01*
X77415743Y-25314767D01*
X77451470Y-25382298D01*
X77457580Y-25426589D01*
X77444409Y-25564603D01*
X77400856Y-25625427D01*
X77317725Y-25611142D01*
X77185821Y-25523827D01*
X77150588Y-25496024D01*
X77046682Y-25416620D01*
X76989149Y-25381190D01*
X76990306Y-25397302D01*
X76990655Y-25397748D01*
X77029942Y-25473183D01*
X77025697Y-25509215D01*
X76981377Y-25493174D01*
X76888868Y-25424875D01*
X76765382Y-25317520D01*
X76718500Y-25273610D01*
X76565586Y-25135308D01*
X76457902Y-25058346D01*
X76380871Y-25033453D01*
X76348030Y-25038029D01*
X76271697Y-25040814D01*
X76255374Y-25000586D01*
X76296024Y-24903543D01*
X76403275Y-24845423D01*
X76545349Y-24837398D01*
X76697801Y-24855196D01*
X76499720Y-24665401D01*
X76384302Y-24545477D01*
X76324582Y-24448968D01*
X76303288Y-24342394D01*
X76301640Y-24281466D01*
X76310556Y-24151542D01*
X76347582Y-24081446D01*
X76416903Y-24043504D01*
X76501162Y-24020630D01*
X76584764Y-24026306D01*
X76687936Y-24067809D01*
X76830901Y-24152415D01*
X76964495Y-24240516D01*
X77100721Y-24326661D01*
X77205590Y-24382848D01*
X77257777Y-24397749D01*
X77258934Y-24396924D01*
X77257051Y-24337941D01*
X77197543Y-24232625D01*
X77092042Y-24096013D01*
X76952176Y-23943138D01*
X76789577Y-23789037D01*
X76786889Y-23786674D01*
X76551142Y-23550029D01*
X76397357Y-23321047D01*
X76317628Y-23085354D01*
X76301640Y-22904481D01*
X76318161Y-22719187D01*
X76372359Y-22609886D01*
X76471178Y-22565291D01*
X76511919Y-22562841D01*
X76626307Y-22605215D01*
X76735347Y-22717436D01*
X76825855Y-22877149D01*
X76884648Y-23062002D01*
X76899874Y-23220645D01*
X76895901Y-23301615D01*
X76884356Y-23312413D01*
X76858558Y-23246183D01*
X76827097Y-23145949D01*
X76745871Y-22927323D01*
X76659657Y-22777356D01*
X76574767Y-22706145D01*
X76549329Y-22701639D01*
X76475200Y-22737051D01*
X76454475Y-22830967D01*
X76489222Y-22964908D01*
X76514135Y-23016461D01*
X76624324Y-23171227D01*
X76763304Y-23296140D01*
X76914566Y-23385426D01*
X77061601Y-23433311D01*
X77187902Y-23434022D01*
X77276960Y-23381785D01*
X77310658Y-23295045D01*
X77286891Y-23122881D01*
X77180786Y-22909621D01*
X76992650Y-22655787D01*
X76814837Y-22456906D01*
X76665013Y-22289275D01*
X76529607Y-22121131D01*
X76429418Y-21978988D01*
X76400321Y-21928528D01*
X76341312Y-21767293D01*
X76308279Y-21585309D01*
X76303110Y-21412538D01*
X76311810Y-21365257D01*
X76406695Y-21365257D01*
X76426208Y-21473280D01*
X76518258Y-21623072D01*
X76642619Y-21768701D01*
X76853512Y-21950156D01*
X77062279Y-22041403D01*
X77174539Y-22053916D01*
X77292070Y-22028591D01*
X77335029Y-21956433D01*
X77305001Y-21843166D01*
X77203573Y-21694516D01*
X77032328Y-21516206D01*
X77023347Y-21507891D01*
X76907301Y-21405424D01*
X76817038Y-21333927D01*
X76776899Y-21310707D01*
X76709846Y-21304514D01*
X76595717Y-21293500D01*
X76587388Y-21292685D01*
X76460246Y-21303544D01*
X76406695Y-21365257D01*
X76311810Y-21365257D01*
X76327692Y-21278943D01*
X76356388Y-21231153D01*
X76393592Y-21176759D01*
X76391087Y-21161301D01*
X76344625Y-21132661D01*
X76237770Y-21069149D01*
X76090133Y-20982386D01*
X76024044Y-20943771D01*
X75763331Y-20780818D01*
X75582067Y-20640402D01*
X75472279Y-20514738D01*
X75425993Y-20396042D01*
X75423295Y-20357201D01*
X75432098Y-20229389D01*
X75463525Y-20163643D01*
X75527687Y-20160709D01*
X75634691Y-20221332D01*
G37*
G36*
X76125171Y-30492516D02*
G01*
X76264002Y-30538347D01*
X76415741Y-30608893D01*
X76743152Y-30820512D01*
X77026597Y-31106855D01*
X77261668Y-31458991D01*
X77443959Y-31867996D01*
X77569061Y-32324941D01*
X77632568Y-32820899D01*
X77639805Y-33088342D01*
X77631132Y-33329290D01*
X77610333Y-33553518D01*
X77580760Y-33728312D01*
X77570184Y-33767836D01*
X77514411Y-33895073D01*
X77434709Y-34016660D01*
X77348761Y-34112068D01*
X77274246Y-34160763D01*
X77236972Y-34154761D01*
X77241701Y-34103728D01*
X77279973Y-34002072D01*
X77300800Y-33957483D01*
X77351573Y-33790364D01*
X77380576Y-33555179D01*
X77388066Y-33273731D01*
X77374301Y-32967824D01*
X77339539Y-32659264D01*
X77284037Y-32369854D01*
X77281939Y-32361225D01*
X77156708Y-31951983D01*
X76994031Y-31580122D01*
X76801198Y-31254588D01*
X76585499Y-30984334D01*
X76354224Y-30778306D01*
X76114662Y-30645456D01*
X75874105Y-30594732D01*
X75842920Y-30594642D01*
X75710692Y-30607521D01*
X75609745Y-30651589D01*
X75502733Y-30745761D01*
X75463860Y-30786613D01*
X75312764Y-30994764D01*
X75210159Y-31249174D01*
X75152486Y-31562521D01*
X75136187Y-31947482D01*
X75136238Y-31953696D01*
X75170250Y-32399895D01*
X75259995Y-32836419D01*
X75398764Y-33242327D01*
X75579847Y-33596672D01*
X75728803Y-33803548D01*
X75820654Y-33899288D01*
X75905131Y-33936073D01*
X76026631Y-33931639D01*
X76043912Y-33929429D01*
X76232241Y-33904640D01*
X76117120Y-33998624D01*
X76009547Y-34061254D01*
X75877982Y-34076093D01*
X75801309Y-34069988D01*
X75610241Y-34014074D01*
X75439151Y-33888364D01*
X75284086Y-33687477D01*
X75141098Y-33406031D01*
X75006235Y-33038644D01*
X74978107Y-32948528D01*
X74922450Y-32752260D01*
X74885379Y-32579163D01*
X74863112Y-32399672D01*
X74851866Y-32184223D01*
X74848021Y-31931694D01*
X74847483Y-31682542D01*
X74851786Y-31503769D01*
X74864340Y-31373231D01*
X74888555Y-31268787D01*
X74927839Y-31168292D01*
X74983060Y-31054650D01*
X75090301Y-30876785D01*
X75216805Y-30717036D01*
X75297963Y-30639622D01*
X75411385Y-30560930D01*
X75525647Y-30515004D01*
X75676040Y-30490699D01*
X75797382Y-30481911D01*
X75984283Y-30476713D01*
X76125171Y-30492516D01*
G37*
G36*
X76684166Y-18252873D02*
G01*
X76898500Y-18358476D01*
X77105076Y-18513422D01*
X77285704Y-18700478D01*
X77422194Y-18902415D01*
X77496355Y-19102000D01*
X77504554Y-19184106D01*
X77490092Y-19311278D01*
X77454706Y-19400957D01*
X77449035Y-19407504D01*
X77360976Y-19451771D01*
X77283554Y-19463023D01*
X77241661Y-19465263D01*
X77217718Y-19466544D01*
X77212231Y-19488346D01*
X77271652Y-19545292D01*
X77315940Y-19582801D01*
X77428974Y-19715190D01*
X77458288Y-19834533D01*
X77440581Y-19952505D01*
X77382449Y-19995235D01*
X77276374Y-19964648D01*
X77178022Y-19906274D01*
X77067197Y-19837979D01*
X77012320Y-19821715D01*
X76995866Y-19853261D01*
X76995629Y-19862338D01*
X76969215Y-19880632D01*
X76888540Y-19829961D01*
X76752732Y-19710187D01*
X76583796Y-19565049D01*
X76377282Y-19409263D01*
X76147809Y-19251525D01*
X75909992Y-19100530D01*
X75678449Y-18964973D01*
X75467797Y-18853549D01*
X75292651Y-18774953D01*
X75167630Y-18737881D01*
X75121321Y-18739705D01*
X75060696Y-18744233D01*
X75054007Y-18704789D01*
X75092936Y-18645860D01*
X75169165Y-18591934D01*
X75171952Y-18590644D01*
X75291838Y-18563167D01*
X75447034Y-18579455D01*
X75649155Y-18642557D01*
X75909820Y-18755523D01*
X76038674Y-18818135D01*
X76400299Y-18998068D01*
X76304704Y-18843391D01*
X76275923Y-18775997D01*
X76495641Y-18775997D01*
X76522032Y-18917842D01*
X76619374Y-19062934D01*
X76768037Y-19195627D01*
X76948386Y-19300278D01*
X77140792Y-19361242D01*
X77241661Y-19370491D01*
X77376551Y-19343700D01*
X77436055Y-19264843D01*
X77419683Y-19136197D01*
X77329391Y-18963768D01*
X77200389Y-18830045D01*
X77020030Y-18719468D01*
X76825648Y-18650885D01*
X76685817Y-18638862D01*
X76567731Y-18657891D01*
X76513309Y-18702498D01*
X76495641Y-18775997D01*
X76275923Y-18775997D01*
X76227979Y-18663733D01*
X76213378Y-18491952D01*
X76255598Y-18347059D01*
X76349338Y-18248063D01*
X76480266Y-18213843D01*
X76684166Y-18252873D01*
G37*
G36*
X75256433Y-32246026D02*
G01*
X75350951Y-32301453D01*
X75498354Y-32409952D01*
X75664301Y-32541569D01*
X75893229Y-32719540D01*
X76142383Y-32901728D01*
X76393574Y-33075885D01*
X76628610Y-33229768D01*
X76829300Y-33351129D01*
X76977454Y-33427725D01*
X76986190Y-33431427D01*
X77093630Y-33489725D01*
X77132226Y-33540213D01*
X77095884Y-33570039D01*
X77053461Y-33573296D01*
X76956630Y-33546510D01*
X76805387Y-33473685D01*
X76613041Y-33364103D01*
X76392899Y-33227042D01*
X76158267Y-33071782D01*
X75922453Y-32907602D01*
X75698765Y-32743782D01*
X75500510Y-32589600D01*
X75340995Y-32454336D01*
X75233528Y-32347270D01*
X75191415Y-32277681D01*
X75191257Y-32274756D01*
X75206101Y-32238762D01*
X75256433Y-32246026D01*
G37*
G36*
X76119420Y-27046493D02*
G01*
X76203017Y-27119534D01*
X76251237Y-27223339D01*
X76255374Y-27266004D01*
X76232710Y-27350891D01*
X76149201Y-27374492D01*
X76146879Y-27374499D01*
X76028537Y-27338920D01*
X75933608Y-27252288D01*
X75891275Y-27144760D01*
X75893289Y-27112443D01*
X75940864Y-27032900D01*
X76024138Y-27014266D01*
X76119420Y-27046493D01*
G37*
D14*
%TO.C,J11*%
X56255000Y-8540000D02*
X40895000Y-8540000D01*
X46035000Y90000D02*
X46035000Y-8540000D01*
X49485000Y-8540000D02*
X49485000Y-8950000D01*
X40895000Y90000D02*
X40895000Y-8540000D01*
X56255000Y90000D02*
X56255000Y-8540000D01*
X56255000Y-11110000D02*
X54925000Y-11110000D01*
X48575000Y90000D02*
X48575000Y-8540000D01*
X53655000Y90000D02*
X53655000Y-8540000D01*
X47665000Y-8540000D02*
X47665000Y-8950000D01*
X52745000Y-8540000D02*
X52745000Y-8950000D01*
X50205000Y-8540000D02*
X50205000Y-8950000D01*
X42585000Y-8540000D02*
X42585000Y-8950000D01*
X55285000Y-8540000D02*
X55285000Y-8890000D01*
X45125000Y-8540000D02*
X45125000Y-8950000D01*
X56255000Y90000D02*
X40895000Y90000D01*
X56135000Y90000D02*
X56135000Y-8540000D01*
X52025000Y-8540000D02*
X52025000Y-8950000D01*
X43495000Y90000D02*
X43495000Y-8540000D01*
X41865000Y-8540000D02*
X41865000Y-8950000D01*
X56255000Y-10000000D02*
X56255000Y-11110000D01*
X51115000Y90000D02*
X51115000Y-8540000D01*
X44405000Y-8540000D02*
X44405000Y-8950000D01*
X46945000Y-8540000D02*
X46945000Y-8950000D01*
X54565000Y-8540000D02*
X54565000Y-8890000D01*
%TO.C,C19*%
X63726248Y-13810000D02*
X65148752Y-13810000D01*
X63726248Y-11990000D02*
X65148752Y-11990000D01*
%TO.C,J10*%
X60340000Y200000D02*
X61100000Y200000D01*
X59390000Y-8460000D02*
X69670000Y-8460000D01*
X60400000Y-5800000D02*
X60400000Y200000D01*
X62880000Y-5800000D02*
X62880000Y200000D01*
X66180000Y-8857071D02*
X66180000Y-8460000D01*
X67960000Y200000D02*
X68720000Y200000D01*
X61100000Y200000D02*
X61100000Y-5800000D01*
X64530000Y-8460000D02*
X64530000Y-5800000D01*
X60340000Y-5800000D02*
X60340000Y200000D01*
X69670000Y-5800000D02*
X59390000Y-5800000D01*
X68720000Y200000D02*
X68720000Y-5800000D01*
X59450000Y-11170000D02*
X59450000Y-9900000D01*
X60340000Y-8790000D02*
X60340000Y-8460000D01*
X69670000Y-8460000D02*
X69670000Y-5800000D01*
X61000000Y-5800000D02*
X61000000Y200000D01*
X59390000Y-5800000D02*
X59390000Y-8460000D01*
X65420000Y200000D02*
X66180000Y200000D01*
X67960000Y-5800000D02*
X67960000Y200000D01*
X61100000Y-8790000D02*
X61100000Y-8460000D01*
X65420000Y-8857071D02*
X65420000Y-8460000D01*
X68720000Y-8857071D02*
X68720000Y-8460000D01*
X60520000Y-5800000D02*
X60520000Y200000D01*
X63640000Y-8857071D02*
X63640000Y-8460000D01*
X66180000Y200000D02*
X66180000Y-5800000D01*
X67070000Y-8460000D02*
X67070000Y-5800000D01*
X67960000Y-8857071D02*
X67960000Y-8460000D01*
X60880000Y-5800000D02*
X60880000Y200000D01*
X62880000Y-8857071D02*
X62880000Y-8460000D01*
X65420000Y-5800000D02*
X65420000Y200000D01*
X60640000Y-5800000D02*
X60640000Y200000D01*
X63640000Y200000D02*
X63640000Y-5800000D01*
X60760000Y-5800000D02*
X60760000Y200000D01*
X61990000Y-8460000D02*
X61990000Y-5800000D01*
X62880000Y200000D02*
X63640000Y200000D01*
X60720000Y-11170000D02*
X59450000Y-11170000D01*
%TO.C,C18*%
X55701248Y-29465000D02*
X56223752Y-29465000D01*
X55701248Y-30935000D02*
X56223752Y-30935000D01*
%TO.C,U7*%
X48772500Y-16380000D02*
X47822500Y-16380000D01*
X57092500Y-16380000D02*
X58042500Y-16380000D01*
X58042500Y-26600000D02*
X58042500Y-25650000D01*
X57092500Y-26600000D02*
X58042500Y-26600000D01*
X48772500Y-26600000D02*
X47822500Y-26600000D01*
X47822500Y-16380000D02*
X47822500Y-17330000D01*
X58042500Y-16380000D02*
X58042500Y-17330000D01*
X47822500Y-26600000D02*
X47822500Y-25650000D01*
X47822500Y-17330000D02*
X46482500Y-17330000D01*
%TO.C,C17*%
X44535000Y-21738748D02*
X44535000Y-22261252D01*
X43065000Y-21738748D02*
X43065000Y-22261252D01*
%TO.C,C16*%
X45861252Y-27535000D02*
X45338748Y-27535000D01*
X45861252Y-26065000D02*
X45338748Y-26065000D01*
%TO.C,C15*%
X62135000Y-17538748D02*
X62135000Y-18061252D01*
X60665000Y-17538748D02*
X60665000Y-18061252D01*
%TO.C,C14*%
X49938748Y-12865000D02*
X50461252Y-12865000D01*
X49938748Y-14335000D02*
X50461252Y-14335000D01*
%TO.C,C13*%
X55688748Y-33510000D02*
X57111252Y-33510000D01*
X55688748Y-31690000D02*
X57111252Y-31690000D01*
%TO.C,R30*%
X45122500Y-45545276D02*
X45122500Y-46054724D01*
X44077500Y-45545276D02*
X44077500Y-46054724D01*
%TO.C,R29*%
X44077500Y-62254724D02*
X44077500Y-61745276D01*
X45122500Y-62254724D02*
X45122500Y-61745276D01*
%TO.C,R28*%
X45654724Y-59922500D02*
X45145276Y-59922500D01*
X45654724Y-58877500D02*
X45145276Y-58877500D01*
%TO.C,R27*%
X47277500Y-62254724D02*
X47277500Y-61745276D01*
X48322500Y-62254724D02*
X48322500Y-61745276D01*
%TO.C,R26*%
X48545276Y-57427500D02*
X49054724Y-57427500D01*
X48545276Y-58472500D02*
X49054724Y-58472500D01*
%TO.C,R25*%
X48545276Y-58937500D02*
X49054724Y-58937500D01*
X48545276Y-59982500D02*
X49054724Y-59982500D01*
%TO.C,R23*%
X53922500Y-63745276D02*
X53922500Y-64254724D01*
X52877500Y-63745276D02*
X52877500Y-64254724D01*
%TO.C,R22*%
X51722500Y-63745276D02*
X51722500Y-64254724D01*
X50677500Y-63745276D02*
X50677500Y-64254724D01*
%TO.C,D3*%
X43890000Y-37950000D02*
X50900000Y-37950000D01*
X43890000Y-37950000D02*
X43890000Y-41250000D01*
X43890000Y-41250000D02*
X50900000Y-41250000D01*
%TO.C,C12*%
X45393748Y-41865000D02*
X45916252Y-41865000D01*
X45393748Y-43335000D02*
X45916252Y-43335000D01*
%TO.C,C11*%
X51938748Y-60465000D02*
X52461252Y-60465000D01*
X51938748Y-61935000D02*
X52461252Y-61935000D01*
%TO.C,U6*%
X44885000Y-51475000D02*
X44885000Y-49525000D01*
X53755000Y-51475000D02*
X53755000Y-49525000D01*
X44885000Y-51475000D02*
X44885000Y-54925000D01*
X53755000Y-51475000D02*
X53755000Y-53425000D01*
%TO.C,C10*%
X56110000Y-53243752D02*
X56110000Y-51821248D01*
X54290000Y-53243752D02*
X54290000Y-51821248D01*
%TO.C,U5*%
X13257500Y-19790000D02*
X19267500Y-19790000D01*
X15507500Y-26610000D02*
X19267500Y-26610000D01*
X19267500Y-26610000D02*
X19267500Y-25350000D01*
X19267500Y-19790000D02*
X19267500Y-21050000D01*
%TO.C,C9*%
X22090000Y-23588748D02*
X22090000Y-25011252D01*
X23910000Y-23588748D02*
X23910000Y-25011252D01*
%TO.C,U4*%
X3525000Y-18675000D02*
X3525000Y-25095000D01*
X3525000Y-25095000D02*
X3795000Y-25095000D01*
X3795000Y-25095000D02*
X3795000Y-27925000D01*
X10425000Y-18675000D02*
X10425000Y-25095000D01*
X10425000Y-25095000D02*
X10155000Y-25095000D01*
X10155000Y-25095000D02*
X10155000Y-26195000D01*
%TO.C,C8*%
X12610000Y-25011252D02*
X12610000Y-23588748D01*
X10790000Y-25011252D02*
X10790000Y-23588748D01*
%TO.C,C7*%
X3110000Y-24211252D02*
X3110000Y-22788748D01*
X1290000Y-24211252D02*
X1290000Y-22788748D01*
%TO.C,D2*%
X46190000Y-71950000D02*
X53200000Y-71950000D01*
X46190000Y-71950000D02*
X46190000Y-75250000D01*
X46190000Y-75250000D02*
X53200000Y-75250000D01*
%TO.C,D1*%
X46190000Y-68450000D02*
X53200000Y-68450000D01*
X46190000Y-68450000D02*
X46190000Y-71750000D01*
X46190000Y-71750000D02*
X53200000Y-71750000D01*
%TO.C,C6*%
X6888748Y-12810000D02*
X8311252Y-12810000D01*
X6888748Y-10990000D02*
X8311252Y-10990000D01*
%TO.C,C5*%
X7690000Y-67888748D02*
X7690000Y-69311252D01*
X9510000Y-67888748D02*
X9510000Y-69311252D01*
%TO.C,C4*%
X12410000Y-37511252D02*
X12410000Y-36088748D01*
X10590000Y-37511252D02*
X10590000Y-36088748D01*
%TO.C,C3*%
X22207500Y-54288748D02*
X22207500Y-55711252D01*
X24027500Y-54288748D02*
X24027500Y-55711252D01*
%TO.C,C2*%
X2910000Y-38811252D02*
X2910000Y-37388748D01*
X1090000Y-38811252D02*
X1090000Y-37388748D01*
%TO.C,C1*%
X23910000Y-60753733D02*
X23910000Y-61046267D01*
X22890000Y-60753733D02*
X22890000Y-61046267D01*
%TO.C,J7*%
X2800000Y-41950000D02*
X2800000Y-42700000D01*
X2800000Y-42700000D02*
X5750000Y-42700000D01*
X5750000Y-42700000D02*
X5750000Y-45750000D01*
X2800000Y-48800000D02*
X5750000Y-48800000D01*
X550000Y-45250000D02*
X550000Y-46250000D01*
X550000Y-46250000D02*
X1300000Y-46250000D01*
X1300000Y-46250000D02*
X1300000Y-45250000D01*
X1300000Y-43750000D02*
X1300000Y-41950000D01*
X550000Y-41950000D02*
X550000Y-43750000D01*
X250000Y-49850000D02*
X1500000Y-49850000D01*
X540000Y-49560000D02*
X6510000Y-49560000D01*
X550000Y-49550000D02*
X1300000Y-49550000D01*
X6510000Y-49560000D02*
X6510000Y-41940000D01*
X1300000Y-45250000D02*
X550000Y-45250000D01*
X2800000Y-49550000D02*
X2800000Y-48800000D01*
X1300000Y-49550000D02*
X1300000Y-47750000D01*
X250000Y-48600000D02*
X250000Y-49850000D01*
X1300000Y-41950000D02*
X550000Y-41950000D01*
X550000Y-47750000D02*
X550000Y-49550000D01*
X540000Y-41940000D02*
X540000Y-49560000D01*
X5750000Y-48800000D02*
X5750000Y-45750000D01*
X550000Y-43750000D02*
X1300000Y-43750000D01*
X6510000Y-41940000D02*
X540000Y-41940000D01*
X1300000Y-47750000D02*
X550000Y-47750000D01*
%TO.C,J9*%
X6150000Y-71580000D02*
X1850000Y-71580000D01*
X500000Y-68580000D02*
X1500000Y-68830000D01*
X1850000Y-63500000D02*
X6150000Y-63500000D01*
X6150000Y-66500000D02*
X1850000Y-66500000D01*
X1500000Y-68830000D02*
X1500000Y-69330000D01*
X500000Y-71580000D02*
X500000Y-68580000D01*
X6150000Y-65750000D02*
X6150000Y-66500000D01*
X6150000Y-68580000D02*
X6150000Y-69330000D01*
X1850000Y-64250000D02*
X1850000Y-63500000D01*
X-460000Y-72730000D02*
X7010000Y-72730000D01*
X1850000Y-70830000D02*
X1500000Y-70830000D01*
X-850000Y-73120000D02*
X-850000Y-71120000D01*
X1850000Y-65750000D02*
X1500000Y-65750000D01*
X1500000Y-65750000D02*
X1500000Y-66250000D01*
X1850000Y-66500000D02*
X1850000Y-65750000D01*
X1850000Y-71580000D02*
X1850000Y-70830000D01*
X-460000Y-62350000D02*
X-460000Y-72730000D01*
X1500000Y-63750000D02*
X1500000Y-64250000D01*
X500000Y-63500000D02*
X1500000Y-63750000D01*
X7010000Y-72730000D02*
X7010000Y-62350000D01*
X400000Y-73120000D02*
X-850000Y-73120000D01*
X1500000Y-70830000D02*
X1500000Y-71330000D01*
X500000Y-66500000D02*
X500000Y-63500000D01*
X1850000Y-68580000D02*
X6150000Y-68580000D01*
X1500000Y-71330000D02*
X500000Y-71580000D01*
X1850000Y-69330000D02*
X1850000Y-68580000D01*
X1500000Y-69330000D02*
X1850000Y-69330000D01*
X1500000Y-64250000D02*
X1850000Y-64250000D01*
X7010000Y-62350000D02*
X-460000Y-62350000D01*
X6150000Y-70830000D02*
X6150000Y-71580000D01*
X1500000Y-66250000D02*
X500000Y-66500000D01*
X6150000Y-63500000D02*
X6150000Y-64250000D01*
X6149845Y-64250353D02*
G75*
G03*
X6150000Y-65750000I1700155J-749647D01*
G01*
X6149845Y-69330353D02*
G75*
G03*
X6150000Y-70830000I1700155J-749647D01*
G01*
%TO.C,U3*%
X36300000Y-56035000D02*
X36300000Y-53800000D01*
X36300000Y-49565000D02*
X31100000Y-49565000D01*
X36300000Y-51800000D02*
X36300000Y-49565000D01*
X31100000Y-56035000D02*
X36300000Y-56035000D01*
X31100000Y-49565000D02*
X31100000Y-56035000D01*
X36300000Y-51800000D02*
G75*
G03*
X36300000Y-53800000I0J-1000000D01*
G01*
%TO.C,R24*%
X24477500Y-61954724D02*
X24477500Y-61445276D01*
X25522500Y-61954724D02*
X25522500Y-61445276D01*
%TO.C,R21*%
X35522500Y-44945276D02*
X35522500Y-45454724D01*
X34477500Y-44945276D02*
X34477500Y-45454724D01*
%TO.C,R20*%
X25977500Y-61954724D02*
X25977500Y-61445276D01*
X27022500Y-61954724D02*
X27022500Y-61445276D01*
%TO.C,R19*%
X34422500Y-82645276D02*
X34422500Y-83154724D01*
X33377500Y-82645276D02*
X33377500Y-83154724D01*
%TO.C,R18*%
X30822500Y-82645276D02*
X30822500Y-83154724D01*
X29777500Y-82645276D02*
X29777500Y-83154724D01*
%TO.C,R17*%
X27122500Y-82645276D02*
X27122500Y-83154724D01*
X26077500Y-82645276D02*
X26077500Y-83154724D01*
%TO.C,R16*%
X23522500Y-82645276D02*
X23522500Y-83154724D01*
X22477500Y-82645276D02*
X22477500Y-83154724D01*
%TO.C,Q9*%
X33320000Y-77640000D02*
X33320000Y-80800000D01*
X36480000Y-77640000D02*
X36480000Y-79100000D01*
X36480000Y-77640000D02*
X35550000Y-77640000D01*
X33320000Y-77640000D02*
X34250000Y-77640000D01*
%TO.C,Q8*%
X29710000Y-77640000D02*
X29710000Y-80800000D01*
X32870000Y-77640000D02*
X32870000Y-79100000D01*
X32870000Y-77640000D02*
X31940000Y-77640000D01*
X29710000Y-77640000D02*
X30640000Y-77640000D01*
%TO.C,Q7*%
X26050000Y-77640000D02*
X26050000Y-80800000D01*
X29210000Y-77640000D02*
X29210000Y-79100000D01*
X29210000Y-77640000D02*
X28280000Y-77640000D01*
X26050000Y-77640000D02*
X26980000Y-77640000D01*
%TO.C,Q6*%
X22440000Y-77640000D02*
X23370000Y-77640000D01*
X25600000Y-77640000D02*
X24670000Y-77640000D01*
X25600000Y-77640000D02*
X25600000Y-79100000D01*
X22440000Y-77640000D02*
X22440000Y-80800000D01*
%TO.C,J8*%
X34322000Y-3590000D02*
X34322000Y-7890000D01*
X31322000Y-9240000D02*
X31572000Y-8240000D01*
X26242000Y-7890000D02*
X26242000Y-3590000D01*
X29242000Y-3590000D02*
X29242000Y-7890000D01*
X31572000Y-8240000D02*
X32072000Y-8240000D01*
X34322000Y-9240000D02*
X31322000Y-9240000D01*
X28492000Y-3590000D02*
X29242000Y-3590000D01*
X31322000Y-3590000D02*
X32072000Y-3590000D01*
X26992000Y-7890000D02*
X26242000Y-7890000D01*
X35472000Y-10200000D02*
X35472000Y-2730000D01*
X33572000Y-7890000D02*
X33572000Y-8240000D01*
X35862000Y-10590000D02*
X33862000Y-10590000D01*
X28492000Y-7890000D02*
X28492000Y-8240000D01*
X28492000Y-8240000D02*
X28992000Y-8240000D01*
X29242000Y-7890000D02*
X28492000Y-7890000D01*
X34322000Y-7890000D02*
X33572000Y-7890000D01*
X25092000Y-10200000D02*
X35472000Y-10200000D01*
X26492000Y-8240000D02*
X26992000Y-8240000D01*
X26242000Y-9240000D02*
X26492000Y-8240000D01*
X35472000Y-2730000D02*
X25092000Y-2730000D01*
X35862000Y-9340000D02*
X35862000Y-10590000D01*
X33572000Y-8240000D02*
X34072000Y-8240000D01*
X29242000Y-9240000D02*
X26242000Y-9240000D01*
X31322000Y-7890000D02*
X31322000Y-3590000D01*
X34072000Y-8240000D02*
X34322000Y-9240000D01*
X32072000Y-7890000D02*
X31322000Y-7890000D01*
X32072000Y-8240000D02*
X32072000Y-7890000D01*
X26992000Y-8240000D02*
X26992000Y-7890000D01*
X25092000Y-2730000D02*
X25092000Y-10200000D01*
X33572000Y-3590000D02*
X34322000Y-3590000D01*
X28992000Y-8240000D02*
X29242000Y-9240000D01*
X26242000Y-3590000D02*
X26992000Y-3590000D01*
X26992353Y-3590155D02*
G75*
G03*
X28492000Y-3590000I749647J1700155D01*
G01*
X32072353Y-3590155D02*
G75*
G03*
X33572000Y-3590000I749647J1700155D01*
G01*
%TO.C,J6*%
X78850000Y-47977500D02*
X83150000Y-47977500D01*
X84500000Y-50977500D02*
X83500000Y-50727500D01*
X83150000Y-56057500D02*
X78850000Y-56057500D01*
X78850000Y-53057500D02*
X83150000Y-53057500D01*
X83500000Y-50727500D02*
X83500000Y-50227500D01*
X84500000Y-47977500D02*
X84500000Y-50977500D01*
X78850000Y-53807500D02*
X78850000Y-53057500D01*
X78850000Y-50977500D02*
X78850000Y-50227500D01*
X83150000Y-55307500D02*
X83150000Y-56057500D01*
X85460000Y-46827500D02*
X77990000Y-46827500D01*
X83150000Y-48727500D02*
X83500000Y-48727500D01*
X85850000Y-46437500D02*
X85850000Y-48437500D01*
X83150000Y-53807500D02*
X83500000Y-53807500D01*
X83500000Y-53807500D02*
X83500000Y-53307500D01*
X83150000Y-53057500D02*
X83150000Y-53807500D01*
X83150000Y-47977500D02*
X83150000Y-48727500D01*
X85460000Y-57207500D02*
X85460000Y-46827500D01*
X83500000Y-55807500D02*
X83500000Y-55307500D01*
X84500000Y-56057500D02*
X83500000Y-55807500D01*
X77990000Y-46827500D02*
X77990000Y-57207500D01*
X84600000Y-46437500D02*
X85850000Y-46437500D01*
X83500000Y-48727500D02*
X83500000Y-48227500D01*
X84500000Y-53057500D02*
X84500000Y-56057500D01*
X83150000Y-50977500D02*
X78850000Y-50977500D01*
X83500000Y-48227500D02*
X84500000Y-47977500D01*
X83150000Y-50227500D02*
X83150000Y-50977500D01*
X83500000Y-50227500D02*
X83150000Y-50227500D01*
X83500000Y-55307500D02*
X83150000Y-55307500D01*
X77990000Y-57207500D02*
X85460000Y-57207500D01*
X78850000Y-48727500D02*
X78850000Y-47977500D01*
X83500000Y-53307500D02*
X84500000Y-53057500D01*
X78850000Y-56057500D02*
X78850000Y-55307500D01*
X78850155Y-55307147D02*
G75*
G03*
X78850000Y-53807500I-1700155J749647D01*
G01*
X78850155Y-50227147D02*
G75*
G03*
X78850000Y-48727500I-1700155J749647D01*
G01*
%TO.C,J5*%
X78850000Y-59500000D02*
X83150000Y-59500000D01*
X84500000Y-62500000D02*
X83500000Y-62250000D01*
X83150000Y-67580000D02*
X78850000Y-67580000D01*
X78850000Y-64580000D02*
X83150000Y-64580000D01*
X83500000Y-62250000D02*
X83500000Y-61750000D01*
X84500000Y-59500000D02*
X84500000Y-62500000D01*
X78850000Y-65330000D02*
X78850000Y-64580000D01*
X78850000Y-62500000D02*
X78850000Y-61750000D01*
X83150000Y-66830000D02*
X83150000Y-67580000D01*
X85460000Y-58350000D02*
X77990000Y-58350000D01*
X83150000Y-60250000D02*
X83500000Y-60250000D01*
X85850000Y-57960000D02*
X85850000Y-59960000D01*
X83150000Y-65330000D02*
X83500000Y-65330000D01*
X83500000Y-65330000D02*
X83500000Y-64830000D01*
X83150000Y-64580000D02*
X83150000Y-65330000D01*
X83150000Y-59500000D02*
X83150000Y-60250000D01*
X85460000Y-68730000D02*
X85460000Y-58350000D01*
X83500000Y-67330000D02*
X83500000Y-66830000D01*
X84500000Y-67580000D02*
X83500000Y-67330000D01*
X77990000Y-58350000D02*
X77990000Y-68730000D01*
X84600000Y-57960000D02*
X85850000Y-57960000D01*
X83500000Y-60250000D02*
X83500000Y-59750000D01*
X84500000Y-64580000D02*
X84500000Y-67580000D01*
X83150000Y-62500000D02*
X78850000Y-62500000D01*
X83500000Y-59750000D02*
X84500000Y-59500000D01*
X83150000Y-61750000D02*
X83150000Y-62500000D01*
X83500000Y-61750000D02*
X83150000Y-61750000D01*
X83500000Y-66830000D02*
X83150000Y-66830000D01*
X77990000Y-68730000D02*
X85460000Y-68730000D01*
X78850000Y-60250000D02*
X78850000Y-59500000D01*
X83500000Y-64830000D02*
X84500000Y-64580000D01*
X78850000Y-67580000D02*
X78850000Y-66830000D01*
X78850155Y-66829647D02*
G75*
G03*
X78850000Y-65330000I-1700155J749647D01*
G01*
X78850155Y-61749647D02*
G75*
G03*
X78850000Y-60250000I-1700155J749647D01*
G01*
%TO.C,R13*%
X45222500Y-82645276D02*
X45222500Y-83154724D01*
X44177500Y-82645276D02*
X44177500Y-83154724D01*
%TO.C,R1*%
X31567224Y-61222500D02*
X31057776Y-61222500D01*
X31567224Y-60177500D02*
X31057776Y-60177500D01*
%TO.C,Q3*%
X44170000Y-77640000D02*
X44170000Y-80800000D01*
X44170000Y-77640000D02*
X45100000Y-77640000D01*
X47330000Y-77640000D02*
X47330000Y-79100000D01*
X47330000Y-77640000D02*
X46400000Y-77640000D01*
%TO.C,J3*%
X7330000Y-75120000D02*
X2190000Y-75120000D01*
X7330000Y-75120000D02*
X7330000Y-77780000D01*
X2190000Y-75120000D02*
X2190000Y-77780000D01*
X9930000Y-76450000D02*
X9930000Y-77780000D01*
X9930000Y-77780000D02*
X8600000Y-77780000D01*
X7330000Y-77780000D02*
X2190000Y-77780000D01*
%TO.C,R15*%
X52522500Y-82645276D02*
X52522500Y-83154724D01*
X51477500Y-82645276D02*
X51477500Y-83154724D01*
%TO.C,R2*%
X28177500Y-61954724D02*
X28177500Y-61445276D01*
X29222500Y-61954724D02*
X29222500Y-61445276D01*
%TO.C,J4*%
X7345000Y-7608000D02*
X2205000Y-7608000D01*
X7345000Y-7608000D02*
X7345000Y-10268000D01*
X2205000Y-7608000D02*
X2205000Y-10268000D01*
X9945000Y-8938000D02*
X9945000Y-10268000D01*
X9945000Y-10268000D02*
X8615000Y-10268000D01*
X7345000Y-10268000D02*
X2205000Y-10268000D01*
%TO.C,Q2*%
X40520000Y-77640000D02*
X40520000Y-80800000D01*
X40520000Y-77640000D02*
X41450000Y-77640000D01*
X43680000Y-77640000D02*
X43680000Y-79100000D01*
X43680000Y-77640000D02*
X42750000Y-77640000D01*
%TO.C,J1*%
X8820000Y-52370000D02*
X8820000Y-65130000D01*
X8820000Y-52370000D02*
X11480000Y-52370000D01*
X8820000Y-65130000D02*
X11480000Y-65130000D01*
X10150000Y-49770000D02*
X11480000Y-49770000D01*
X11480000Y-49770000D02*
X11480000Y-51100000D01*
X11480000Y-52370000D02*
X11480000Y-65130000D01*
%TO.C,R11*%
X38022500Y-82645276D02*
X38022500Y-83154724D01*
X36977500Y-82645276D02*
X36977500Y-83154724D01*
%TO.C,R12*%
X41622500Y-82645276D02*
X41622500Y-83154724D01*
X40577500Y-82645276D02*
X40577500Y-83154724D01*
%TO.C,R14*%
X48922500Y-82645276D02*
X48922500Y-83154724D01*
X47877500Y-82645276D02*
X47877500Y-83154724D01*
%TO.C,R4*%
X20054724Y-60822500D02*
X19545276Y-60822500D01*
X20054724Y-59777500D02*
X19545276Y-59777500D01*
%TO.C,Q5*%
X54580000Y-77640000D02*
X53650000Y-77640000D01*
X54580000Y-77640000D02*
X54580000Y-79100000D01*
X51420000Y-77640000D02*
X52350000Y-77640000D01*
X51420000Y-77640000D02*
X51420000Y-80800000D01*
%TO.C,U2*%
X3325000Y-37195000D02*
X3595000Y-37195000D01*
X3595000Y-37195000D02*
X3595000Y-40025000D01*
X9955000Y-37195000D02*
X9955000Y-38295000D01*
X10225000Y-37195000D02*
X9955000Y-37195000D01*
X3325000Y-30775000D02*
X3325000Y-37195000D01*
X10225000Y-30775000D02*
X10225000Y-37195000D01*
%TO.C,U1*%
X29677500Y-56000000D02*
X29677500Y-54050000D01*
X29677500Y-56000000D02*
X29677500Y-57950000D01*
X24557500Y-56000000D02*
X24557500Y-54050000D01*
X24557500Y-56000000D02*
X24557500Y-59450000D01*
%TO.C,Q4*%
X47820000Y-77640000D02*
X47820000Y-80800000D01*
X47820000Y-77640000D02*
X48750000Y-77640000D01*
X50980000Y-77640000D02*
X50980000Y-79100000D01*
X50980000Y-77640000D02*
X50050000Y-77640000D01*
%TO.C,Q1*%
X36920000Y-77640000D02*
X36920000Y-80800000D01*
X36920000Y-77640000D02*
X37850000Y-77640000D01*
X40080000Y-77640000D02*
X40080000Y-79100000D01*
X40080000Y-77640000D02*
X39150000Y-77640000D01*
%TO.C,J2*%
X15070000Y-52500000D02*
X15070000Y-65260000D01*
X15070000Y-52500000D02*
X17730000Y-52500000D01*
X15070000Y-65260000D02*
X17730000Y-65260000D01*
X16400000Y-49900000D02*
X17730000Y-49900000D01*
X17730000Y-49900000D02*
X17730000Y-51230000D01*
X17730000Y-52500000D02*
X17730000Y-65260000D01*
%TO.C,R3*%
X19645276Y-58177500D02*
X20154724Y-58177500D01*
X19645276Y-59222500D02*
X20154724Y-59222500D01*
%TD*%
M02*
