%TF.GenerationSoftware,KiCad,Pcbnew,7.0.9*%
%TF.CreationDate,2024-06-22T09:01:44+05:30*%
%TF.ProjectId,BMS_LV_ADDON,424d535f-4c56-45f4-9144-444f4e2e6b69,rev?*%
%TF.SameCoordinates,Original*%
%TF.FileFunction,Drillmap*%
%TF.FilePolarity,Positive*%
%FSLAX45Y45*%
G04 Gerber Fmt 4.5, Leading zero omitted, Abs format (unit mm)*
G04 Created by KiCad (PCBNEW 7.0.9) date 2024-06-22 09:01:44*
%MOMM*%
%LPD*%
G01*
G04 APERTURE LIST*
%ADD10C,0.100000*%
%ADD11C,0.200000*%
%ADD12C,0.120000*%
G04 APERTURE END LIST*
D10*
X0Y0D02*
X8510000Y0D01*
X8510000Y-8510000D01*
X0Y-8510000D01*
X0Y0D01*
D11*
D10*
X520000Y-3010000D02*
X560000Y-3050000D01*
X560000Y-3010000D02*
X520000Y-3050000D01*
X520000Y-3140000D02*
X560000Y-3180000D01*
X560000Y-3140000D02*
X520000Y-3180000D01*
X520000Y-3270000D02*
X560000Y-3310000D01*
X560000Y-3270000D02*
X520000Y-3310000D01*
X520000Y-3410000D02*
X560000Y-3450000D01*
X560000Y-3410000D02*
X520000Y-3450000D01*
X550000Y-1850000D02*
X590000Y-1890000D01*
X590000Y-1850000D02*
X550000Y-1890000D01*
X550000Y-1980000D02*
X590000Y-2020000D01*
X590000Y-1980000D02*
X550000Y-2020000D01*
X550000Y-2110000D02*
X590000Y-2150000D01*
X590000Y-2110000D02*
X550000Y-2150000D01*
X550000Y-2250000D02*
X590000Y-2290000D01*
X590000Y-2250000D02*
X550000Y-2290000D01*
X650000Y-3010000D02*
X690000Y-3050000D01*
X690000Y-3010000D02*
X650000Y-3050000D01*
X650000Y-3140000D02*
X690000Y-3180000D01*
X690000Y-3140000D02*
X650000Y-3180000D01*
X650000Y-3270000D02*
X690000Y-3310000D01*
X690000Y-3270000D02*
X650000Y-3310000D01*
X650000Y-3410000D02*
X690000Y-3450000D01*
X690000Y-3410000D02*
X650000Y-3450000D01*
X680000Y-1850000D02*
X720000Y-1890000D01*
X720000Y-1850000D02*
X680000Y-1890000D01*
X680000Y-1980000D02*
X720000Y-2020000D01*
X720000Y-1980000D02*
X680000Y-2020000D01*
X680000Y-2110000D02*
X720000Y-2150000D01*
X720000Y-2110000D02*
X680000Y-2150000D01*
X680000Y-2250000D02*
X720000Y-2290000D01*
X720000Y-2250000D02*
X680000Y-2290000D01*
X770000Y-3010000D02*
X810000Y-3050000D01*
X810000Y-3010000D02*
X770000Y-3050000D01*
X770000Y-3140000D02*
X810000Y-3180000D01*
X810000Y-3140000D02*
X770000Y-3180000D01*
X780000Y-3280000D02*
X820000Y-3320000D01*
X820000Y-3280000D02*
X780000Y-3320000D01*
X780000Y-3410000D02*
X820000Y-3450000D01*
X820000Y-3410000D02*
X780000Y-3450000D01*
X800000Y-1850000D02*
X840000Y-1890000D01*
X840000Y-1850000D02*
X800000Y-1890000D01*
X800000Y-1980000D02*
X840000Y-2020000D01*
X840000Y-1980000D02*
X800000Y-2020000D01*
X810000Y-2120000D02*
X850000Y-2160000D01*
X850000Y-2120000D02*
X810000Y-2160000D01*
X810000Y-2250000D02*
X850000Y-2290000D01*
X850000Y-2250000D02*
X810000Y-2290000D01*
X1180000Y-2080000D02*
X1220000Y-2120000D01*
X1220000Y-2080000D02*
X1180000Y-2120000D01*
X1360000Y-3080000D02*
X1400000Y-3120000D01*
X1400000Y-3080000D02*
X1360000Y-3120000D01*
X1380000Y-2940000D02*
X1420000Y-2980000D01*
X1420000Y-2940000D02*
X1380000Y-2980000D01*
X1560000Y-3200000D02*
X1600000Y-3240000D01*
X1600000Y-3200000D02*
X1560000Y-3240000D01*
X1640000Y-3300000D02*
X1680000Y-3340000D01*
X1680000Y-3300000D02*
X1640000Y-3340000D01*
X1930000Y-5750000D02*
X1970000Y-5790000D01*
X1970000Y-5750000D02*
X1930000Y-5790000D01*
X2080000Y-8180000D02*
X2120000Y-8220000D01*
X2120000Y-8180000D02*
X2080000Y-8220000D01*
X2091750Y-5680000D02*
X2131750Y-5720000D01*
X2131750Y-5680000D02*
X2091750Y-5720000D01*
X2140000Y-5870000D02*
X2180000Y-5910000D01*
X2180000Y-5870000D02*
X2140000Y-5910000D01*
X2200000Y-2670000D02*
X2240000Y-2710000D01*
X2240000Y-2670000D02*
X2200000Y-2710000D01*
X2210000Y-6130000D02*
X2250000Y-6170000D01*
X2250000Y-6130000D02*
X2210000Y-6170000D01*
X2510000Y-8110000D02*
X2550000Y-8150000D01*
X2550000Y-8110000D02*
X2510000Y-8150000D01*
X2530000Y-4630000D02*
X2570000Y-4670000D01*
X2570000Y-4630000D02*
X2530000Y-4670000D01*
X2630000Y-6370000D02*
X2670000Y-6410000D01*
X2670000Y-6370000D02*
X2630000Y-6410000D01*
X2717324Y-6042676D02*
X2757324Y-6082676D01*
X2757324Y-6042676D02*
X2717324Y-6082676D01*
X2870000Y-8100000D02*
X2910000Y-8140000D01*
X2910000Y-8100000D02*
X2870000Y-8140000D01*
X2930000Y-6210000D02*
X2970000Y-6250000D01*
X2970000Y-6210000D02*
X2930000Y-6250000D01*
X3179750Y-4390000D02*
X3219750Y-4430000D01*
X3219750Y-4390000D02*
X3179750Y-4430000D01*
X3220000Y-4610000D02*
X3260000Y-4650000D01*
X3260000Y-4610000D02*
X3220000Y-4650000D01*
X3240000Y-8110000D02*
X3280000Y-8150000D01*
X3280000Y-8110000D02*
X3240000Y-8150000D01*
X3600000Y-8120000D02*
X3640000Y-8160000D01*
X3640000Y-8120000D02*
X3600000Y-8160000D01*
X3960000Y-8110000D02*
X4000000Y-8150000D01*
X4000000Y-8110000D02*
X3960000Y-8150000D01*
X4317610Y-2569126D02*
X4357610Y-2609126D01*
X4357610Y-2569126D02*
X4317610Y-2609126D01*
X4320000Y-8110000D02*
X4360000Y-8150000D01*
X4360000Y-8110000D02*
X4320000Y-8150000D01*
X4380000Y-3740000D02*
X4420000Y-3780000D01*
X4420000Y-3740000D02*
X4380000Y-3780000D01*
X4400000Y-2400000D02*
X4440000Y-2440000D01*
X4440000Y-2400000D02*
X4400000Y-2440000D01*
X4420000Y-2760000D02*
X4460000Y-2800000D01*
X4460000Y-2760000D02*
X4420000Y-2800000D01*
X4420000Y-4740000D02*
X4460000Y-4780000D01*
X4460000Y-4740000D02*
X4420000Y-4780000D01*
X4460000Y-5340000D02*
X4500000Y-5380000D01*
X4500000Y-5340000D02*
X4460000Y-5380000D01*
X4460000Y-6360000D02*
X4500000Y-6400000D01*
X4500000Y-6360000D02*
X4460000Y-6400000D01*
X4680000Y-8140000D02*
X4720000Y-8180000D01*
X4720000Y-8140000D02*
X4680000Y-8180000D01*
X4740000Y-4240000D02*
X4780000Y-4280000D01*
X4780000Y-4240000D02*
X4740000Y-4280000D01*
X4760000Y-6360000D02*
X4800000Y-6400000D01*
X4800000Y-6360000D02*
X4760000Y-6400000D01*
X4888629Y-2135452D02*
X4928629Y-2175452D01*
X4928629Y-2135452D02*
X4888629Y-2175452D01*
X4953531Y-1899850D02*
X4993531Y-1939850D01*
X4993531Y-1899850D02*
X4953531Y-1939850D01*
X4960000Y-4060000D02*
X5000000Y-4100000D01*
X5000000Y-4060000D02*
X4960000Y-4100000D01*
X4991699Y-2371699D02*
X5031699Y-2411699D01*
X5031699Y-2371699D02*
X4991699Y-2411699D01*
X5000000Y-2180000D02*
X5040000Y-2220000D01*
X5040000Y-2180000D02*
X5000000Y-2220000D01*
X5000000Y-6495050D02*
X5040000Y-6535050D01*
X5040000Y-6495050D02*
X5000000Y-6535050D01*
X5002550Y-2505116D02*
X5042550Y-2545116D01*
X5042550Y-2505116D02*
X5002550Y-2545116D01*
X5020000Y-1800000D02*
X5060000Y-1840000D01*
X5060000Y-1800000D02*
X5020000Y-1840000D01*
X5050000Y-8120000D02*
X5090000Y-8160000D01*
X5090000Y-8120000D02*
X5050000Y-8160000D01*
X5170000Y-1380000D02*
X5210000Y-1420000D01*
X5210000Y-1380000D02*
X5170000Y-1420000D01*
X5190000Y-7180000D02*
X5230000Y-7220000D01*
X5230000Y-7180000D02*
X5190000Y-7220000D01*
X5200000Y-1780000D02*
X5240000Y-1820000D01*
X5240000Y-1780000D02*
X5200000Y-1820000D01*
X5226021Y-1897094D02*
X5266021Y-1937094D01*
X5266021Y-1897094D02*
X5226021Y-1937094D01*
X5300000Y-7180000D02*
X5340000Y-7220000D01*
X5340000Y-7180000D02*
X5300000Y-7220000D01*
X5360000Y-2860000D02*
X5400000Y-2900000D01*
X5400000Y-2860000D02*
X5360000Y-2900000D01*
X5400000Y-6495050D02*
X5440000Y-6535050D01*
X5440000Y-6495050D02*
X5400000Y-6535050D01*
X5410000Y-8100000D02*
X5450000Y-8140000D01*
X5450000Y-8100000D02*
X5410000Y-8140000D01*
X5420000Y-7180000D02*
X5460000Y-7220000D01*
X5460000Y-7180000D02*
X5420000Y-7220000D01*
X5630000Y-5083250D02*
X5670000Y-5123250D01*
X5670000Y-5083250D02*
X5630000Y-5123250D01*
X5760000Y-3020000D02*
X5800000Y-3060000D01*
X5800000Y-3020000D02*
X5760000Y-3060000D01*
X5880000Y-3200000D02*
X5920000Y-3240000D01*
X5920000Y-3200000D02*
X5880000Y-3240000D01*
X6220000Y-1820000D02*
X6260000Y-1860000D01*
X6260000Y-1820000D02*
X6220000Y-1860000D01*
X6370000Y-1542450D02*
X6410000Y-1582450D01*
X6410000Y-1542450D02*
X6370000Y-1582450D01*
X6470000Y-1460000D02*
X6510000Y-1500000D01*
X6510000Y-1460000D02*
X6470000Y-1500000D01*
X6490000Y-1590000D02*
X6530000Y-1630000D01*
X6530000Y-1590000D02*
X6490000Y-1630000D01*
X350000Y-4450000D02*
G75*
G03*
X350000Y-4450000I-50000J0D01*
G01*
X350000Y-4700000D02*
G75*
G03*
X350000Y-4700000I-50000J0D01*
G01*
X402000Y-7645000D02*
G75*
G03*
X402000Y-7645000I-50000J0D01*
G01*
X403500Y-893800D02*
G75*
G03*
X403500Y-893800I-50000J0D01*
G01*
X656000Y-7645000D02*
G75*
G03*
X656000Y-7645000I-50000J0D01*
G01*
X657500Y-893800D02*
G75*
G03*
X657500Y-893800I-50000J0D01*
G01*
X910000Y-7645000D02*
G75*
G03*
X910000Y-7645000I-50000J0D01*
G01*
X911500Y-893800D02*
G75*
G03*
X911500Y-893800I-50000J0D01*
G01*
X1065000Y-5110000D02*
G75*
G03*
X1065000Y-5110000I-50000J0D01*
G01*
X1065000Y-5364000D02*
G75*
G03*
X1065000Y-5364000I-50000J0D01*
G01*
X1065000Y-5618000D02*
G75*
G03*
X1065000Y-5618000I-50000J0D01*
G01*
X1065000Y-5872000D02*
G75*
G03*
X1065000Y-5872000I-50000J0D01*
G01*
X1065000Y-6126000D02*
G75*
G03*
X1065000Y-6126000I-50000J0D01*
G01*
X1065000Y-6380000D02*
G75*
G03*
X1065000Y-6380000I-50000J0D01*
G01*
X1690000Y-5123000D02*
G75*
G03*
X1690000Y-5123000I-50000J0D01*
G01*
X1690000Y-5377000D02*
G75*
G03*
X1690000Y-5377000I-50000J0D01*
G01*
X1690000Y-5631000D02*
G75*
G03*
X1690000Y-5631000I-50000J0D01*
G01*
X1690000Y-5885000D02*
G75*
G03*
X1690000Y-5885000I-50000J0D01*
G01*
X1690000Y-6139000D02*
G75*
G03*
X1690000Y-6139000I-50000J0D01*
G01*
X1690000Y-6393000D02*
G75*
G03*
X1690000Y-6393000I-50000J0D01*
G01*
X4272500Y-1000000D02*
G75*
G03*
X4272500Y-1000000I-50000J0D01*
G01*
X4526500Y-1000000D02*
G75*
G03*
X4526500Y-1000000I-50000J0D01*
G01*
X4780500Y-1000000D02*
G75*
G03*
X4780500Y-1000000I-50000J0D01*
G01*
X5034500Y-1000000D02*
G75*
G03*
X5034500Y-1000000I-50000J0D01*
G01*
X5288500Y-1000000D02*
G75*
G03*
X5288500Y-1000000I-50000J0D01*
G01*
X5542500Y-1000000D02*
G75*
G03*
X5542500Y-1000000I-50000J0D01*
G01*
X6122000Y-990000D02*
G75*
G03*
X6122000Y-990000I-50000J0D01*
G01*
X6376000Y-990000D02*
G75*
G03*
X6376000Y-990000I-50000J0D01*
G01*
X6630000Y-990000D02*
G75*
G03*
X6630000Y-990000I-50000J0D01*
G01*
X6884000Y-990000D02*
G75*
G03*
X6884000Y-990000I-50000J0D01*
G01*
D12*
X400000Y-6440000D02*
X400000Y-6560000D01*
X340000Y-6500000D02*
X460000Y-6500000D01*
X400000Y-6948000D02*
X400000Y-7068000D01*
X340000Y-7008000D02*
X460000Y-7008000D01*
X2774200Y-514000D02*
X2774200Y-634000D01*
X2714200Y-574000D02*
X2834200Y-574000D01*
X3282200Y-514000D02*
X3282200Y-634000D01*
X3222200Y-574000D02*
X3342200Y-574000D01*
X8100000Y-4887750D02*
X8100000Y-5007750D01*
X8040000Y-4947750D02*
X8160000Y-4947750D01*
X8100000Y-5395750D02*
X8100000Y-5515750D01*
X8040000Y-5455750D02*
X8160000Y-5455750D01*
X8100000Y-6040000D02*
X8100000Y-6160000D01*
X8040000Y-6100000D02*
X8160000Y-6100000D01*
X8100000Y-6548000D02*
X8100000Y-6668000D01*
X8040000Y-6608000D02*
X8160000Y-6608000D01*
D11*
X255777Y-8826484D02*
X255777Y-8626484D01*
X255777Y-8626484D02*
X303396Y-8626484D01*
X303396Y-8626484D02*
X331967Y-8636008D01*
X331967Y-8636008D02*
X351015Y-8655055D01*
X351015Y-8655055D02*
X360539Y-8674103D01*
X360539Y-8674103D02*
X370062Y-8712198D01*
X370062Y-8712198D02*
X370062Y-8740770D01*
X370062Y-8740770D02*
X360539Y-8778865D01*
X360539Y-8778865D02*
X351015Y-8797912D01*
X351015Y-8797912D02*
X331967Y-8816960D01*
X331967Y-8816960D02*
X303396Y-8826484D01*
X303396Y-8826484D02*
X255777Y-8826484D01*
X455777Y-8826484D02*
X455777Y-8693150D01*
X455777Y-8731246D02*
X465301Y-8712198D01*
X465301Y-8712198D02*
X474824Y-8702674D01*
X474824Y-8702674D02*
X493872Y-8693150D01*
X493872Y-8693150D02*
X512920Y-8693150D01*
X579586Y-8826484D02*
X579586Y-8693150D01*
X579586Y-8626484D02*
X570063Y-8636008D01*
X570063Y-8636008D02*
X579586Y-8645531D01*
X579586Y-8645531D02*
X589110Y-8636008D01*
X589110Y-8636008D02*
X579586Y-8626484D01*
X579586Y-8626484D02*
X579586Y-8645531D01*
X703396Y-8826484D02*
X684348Y-8816960D01*
X684348Y-8816960D02*
X674824Y-8797912D01*
X674824Y-8797912D02*
X674824Y-8626484D01*
X808158Y-8826484D02*
X789110Y-8816960D01*
X789110Y-8816960D02*
X779586Y-8797912D01*
X779586Y-8797912D02*
X779586Y-8626484D01*
X1036729Y-8826484D02*
X1036729Y-8626484D01*
X1036729Y-8626484D02*
X1103396Y-8769341D01*
X1103396Y-8769341D02*
X1170063Y-8626484D01*
X1170063Y-8626484D02*
X1170063Y-8826484D01*
X1351015Y-8826484D02*
X1351015Y-8721722D01*
X1351015Y-8721722D02*
X1341491Y-8702674D01*
X1341491Y-8702674D02*
X1322444Y-8693150D01*
X1322444Y-8693150D02*
X1284348Y-8693150D01*
X1284348Y-8693150D02*
X1265301Y-8702674D01*
X1351015Y-8816960D02*
X1331967Y-8826484D01*
X1331967Y-8826484D02*
X1284348Y-8826484D01*
X1284348Y-8826484D02*
X1265301Y-8816960D01*
X1265301Y-8816960D02*
X1255777Y-8797912D01*
X1255777Y-8797912D02*
X1255777Y-8778865D01*
X1255777Y-8778865D02*
X1265301Y-8759817D01*
X1265301Y-8759817D02*
X1284348Y-8750293D01*
X1284348Y-8750293D02*
X1331967Y-8750293D01*
X1331967Y-8750293D02*
X1351015Y-8740770D01*
X1446253Y-8693150D02*
X1446253Y-8893150D01*
X1446253Y-8702674D02*
X1465301Y-8693150D01*
X1465301Y-8693150D02*
X1503396Y-8693150D01*
X1503396Y-8693150D02*
X1522443Y-8702674D01*
X1522443Y-8702674D02*
X1531967Y-8712198D01*
X1531967Y-8712198D02*
X1541491Y-8731246D01*
X1541491Y-8731246D02*
X1541491Y-8788389D01*
X1541491Y-8788389D02*
X1531967Y-8807436D01*
X1531967Y-8807436D02*
X1522443Y-8816960D01*
X1522443Y-8816960D02*
X1503396Y-8826484D01*
X1503396Y-8826484D02*
X1465301Y-8826484D01*
X1465301Y-8826484D02*
X1446253Y-8816960D01*
X1627205Y-8807436D02*
X1636729Y-8816960D01*
X1636729Y-8816960D02*
X1627205Y-8826484D01*
X1627205Y-8826484D02*
X1617682Y-8816960D01*
X1617682Y-8816960D02*
X1627205Y-8807436D01*
X1627205Y-8807436D02*
X1627205Y-8826484D01*
X1627205Y-8702674D02*
X1636729Y-8712198D01*
X1636729Y-8712198D02*
X1627205Y-8721722D01*
X1627205Y-8721722D02*
X1617682Y-8712198D01*
X1617682Y-8712198D02*
X1627205Y-8702674D01*
X1627205Y-8702674D02*
X1627205Y-8721722D01*
D10*
X-45000Y-9135000D02*
X-5000Y-9175000D01*
X-5000Y-9135000D02*
X-45000Y-9175000D01*
D11*
X293872Y-9046484D02*
X312920Y-9046484D01*
X312920Y-9046484D02*
X331967Y-9056008D01*
X331967Y-9056008D02*
X341491Y-9065531D01*
X341491Y-9065531D02*
X351015Y-9084579D01*
X351015Y-9084579D02*
X360539Y-9122674D01*
X360539Y-9122674D02*
X360539Y-9170293D01*
X360539Y-9170293D02*
X351015Y-9208389D01*
X351015Y-9208389D02*
X341491Y-9227436D01*
X341491Y-9227436D02*
X331967Y-9236960D01*
X331967Y-9236960D02*
X312920Y-9246484D01*
X312920Y-9246484D02*
X293872Y-9246484D01*
X293872Y-9246484D02*
X274824Y-9236960D01*
X274824Y-9236960D02*
X265301Y-9227436D01*
X265301Y-9227436D02*
X255777Y-9208389D01*
X255777Y-9208389D02*
X246253Y-9170293D01*
X246253Y-9170293D02*
X246253Y-9122674D01*
X246253Y-9122674D02*
X255777Y-9084579D01*
X255777Y-9084579D02*
X265301Y-9065531D01*
X265301Y-9065531D02*
X274824Y-9056008D01*
X274824Y-9056008D02*
X293872Y-9046484D01*
X446253Y-9227436D02*
X455777Y-9236960D01*
X455777Y-9236960D02*
X446253Y-9246484D01*
X446253Y-9246484D02*
X436729Y-9236960D01*
X436729Y-9236960D02*
X446253Y-9227436D01*
X446253Y-9227436D02*
X446253Y-9246484D01*
X627205Y-9113150D02*
X627205Y-9246484D01*
X579586Y-9036960D02*
X531967Y-9179817D01*
X531967Y-9179817D02*
X655777Y-9179817D01*
X770062Y-9046484D02*
X789110Y-9046484D01*
X789110Y-9046484D02*
X808158Y-9056008D01*
X808158Y-9056008D02*
X817682Y-9065531D01*
X817682Y-9065531D02*
X827205Y-9084579D01*
X827205Y-9084579D02*
X836729Y-9122674D01*
X836729Y-9122674D02*
X836729Y-9170293D01*
X836729Y-9170293D02*
X827205Y-9208389D01*
X827205Y-9208389D02*
X817682Y-9227436D01*
X817682Y-9227436D02*
X808158Y-9236960D01*
X808158Y-9236960D02*
X789110Y-9246484D01*
X789110Y-9246484D02*
X770062Y-9246484D01*
X770062Y-9246484D02*
X751015Y-9236960D01*
X751015Y-9236960D02*
X741491Y-9227436D01*
X741491Y-9227436D02*
X731967Y-9208389D01*
X731967Y-9208389D02*
X722443Y-9170293D01*
X722443Y-9170293D02*
X722443Y-9122674D01*
X722443Y-9122674D02*
X731967Y-9084579D01*
X731967Y-9084579D02*
X741491Y-9065531D01*
X741491Y-9065531D02*
X751015Y-9056008D01*
X751015Y-9056008D02*
X770062Y-9046484D01*
X960539Y-9046484D02*
X979586Y-9046484D01*
X979586Y-9046484D02*
X998634Y-9056008D01*
X998634Y-9056008D02*
X1008158Y-9065531D01*
X1008158Y-9065531D02*
X1017682Y-9084579D01*
X1017682Y-9084579D02*
X1027205Y-9122674D01*
X1027205Y-9122674D02*
X1027205Y-9170293D01*
X1027205Y-9170293D02*
X1017682Y-9208389D01*
X1017682Y-9208389D02*
X1008158Y-9227436D01*
X1008158Y-9227436D02*
X998634Y-9236960D01*
X998634Y-9236960D02*
X979586Y-9246484D01*
X979586Y-9246484D02*
X960539Y-9246484D01*
X960539Y-9246484D02*
X941491Y-9236960D01*
X941491Y-9236960D02*
X931967Y-9227436D01*
X931967Y-9227436D02*
X922443Y-9208389D01*
X922443Y-9208389D02*
X912920Y-9170293D01*
X912920Y-9170293D02*
X912920Y-9122674D01*
X912920Y-9122674D02*
X922443Y-9084579D01*
X922443Y-9084579D02*
X931967Y-9065531D01*
X931967Y-9065531D02*
X941491Y-9056008D01*
X941491Y-9056008D02*
X960539Y-9046484D01*
X1112920Y-9246484D02*
X1112920Y-9113150D01*
X1112920Y-9132198D02*
X1122444Y-9122674D01*
X1122444Y-9122674D02*
X1141491Y-9113150D01*
X1141491Y-9113150D02*
X1170063Y-9113150D01*
X1170063Y-9113150D02*
X1189110Y-9122674D01*
X1189110Y-9122674D02*
X1198634Y-9141722D01*
X1198634Y-9141722D02*
X1198634Y-9246484D01*
X1198634Y-9141722D02*
X1208158Y-9122674D01*
X1208158Y-9122674D02*
X1227205Y-9113150D01*
X1227205Y-9113150D02*
X1255777Y-9113150D01*
X1255777Y-9113150D02*
X1274825Y-9122674D01*
X1274825Y-9122674D02*
X1284348Y-9141722D01*
X1284348Y-9141722D02*
X1284348Y-9246484D01*
X1379586Y-9246484D02*
X1379586Y-9113150D01*
X1379586Y-9132198D02*
X1389110Y-9122674D01*
X1389110Y-9122674D02*
X1408158Y-9113150D01*
X1408158Y-9113150D02*
X1436729Y-9113150D01*
X1436729Y-9113150D02*
X1455777Y-9122674D01*
X1455777Y-9122674D02*
X1465301Y-9141722D01*
X1465301Y-9141722D02*
X1465301Y-9246484D01*
X1465301Y-9141722D02*
X1474824Y-9122674D01*
X1474824Y-9122674D02*
X1493872Y-9113150D01*
X1493872Y-9113150D02*
X1522443Y-9113150D01*
X1522443Y-9113150D02*
X1541491Y-9122674D01*
X1541491Y-9122674D02*
X1551015Y-9141722D01*
X1551015Y-9141722D02*
X1551015Y-9246484D01*
X1941491Y-9036960D02*
X1770063Y-9294103D01*
X2198634Y-9046484D02*
X2217682Y-9046484D01*
X2217682Y-9046484D02*
X2236729Y-9056008D01*
X2236729Y-9056008D02*
X2246253Y-9065531D01*
X2246253Y-9065531D02*
X2255777Y-9084579D01*
X2255777Y-9084579D02*
X2265301Y-9122674D01*
X2265301Y-9122674D02*
X2265301Y-9170293D01*
X2265301Y-9170293D02*
X2255777Y-9208389D01*
X2255777Y-9208389D02*
X2246253Y-9227436D01*
X2246253Y-9227436D02*
X2236729Y-9236960D01*
X2236729Y-9236960D02*
X2217682Y-9246484D01*
X2217682Y-9246484D02*
X2198634Y-9246484D01*
X2198634Y-9246484D02*
X2179587Y-9236960D01*
X2179587Y-9236960D02*
X2170063Y-9227436D01*
X2170063Y-9227436D02*
X2160539Y-9208389D01*
X2160539Y-9208389D02*
X2151015Y-9170293D01*
X2151015Y-9170293D02*
X2151015Y-9122674D01*
X2151015Y-9122674D02*
X2160539Y-9084579D01*
X2160539Y-9084579D02*
X2170063Y-9065531D01*
X2170063Y-9065531D02*
X2179587Y-9056008D01*
X2179587Y-9056008D02*
X2198634Y-9046484D01*
X2351015Y-9227436D02*
X2360539Y-9236960D01*
X2360539Y-9236960D02*
X2351015Y-9246484D01*
X2351015Y-9246484D02*
X2341491Y-9236960D01*
X2341491Y-9236960D02*
X2351015Y-9227436D01*
X2351015Y-9227436D02*
X2351015Y-9246484D01*
X2484348Y-9046484D02*
X2503396Y-9046484D01*
X2503396Y-9046484D02*
X2522444Y-9056008D01*
X2522444Y-9056008D02*
X2531968Y-9065531D01*
X2531968Y-9065531D02*
X2541491Y-9084579D01*
X2541491Y-9084579D02*
X2551015Y-9122674D01*
X2551015Y-9122674D02*
X2551015Y-9170293D01*
X2551015Y-9170293D02*
X2541491Y-9208389D01*
X2541491Y-9208389D02*
X2531968Y-9227436D01*
X2531968Y-9227436D02*
X2522444Y-9236960D01*
X2522444Y-9236960D02*
X2503396Y-9246484D01*
X2503396Y-9246484D02*
X2484348Y-9246484D01*
X2484348Y-9246484D02*
X2465301Y-9236960D01*
X2465301Y-9236960D02*
X2455777Y-9227436D01*
X2455777Y-9227436D02*
X2446253Y-9208389D01*
X2446253Y-9208389D02*
X2436729Y-9170293D01*
X2436729Y-9170293D02*
X2436729Y-9122674D01*
X2436729Y-9122674D02*
X2446253Y-9084579D01*
X2446253Y-9084579D02*
X2455777Y-9065531D01*
X2455777Y-9065531D02*
X2465301Y-9056008D01*
X2465301Y-9056008D02*
X2484348Y-9046484D01*
X2741491Y-9246484D02*
X2627206Y-9246484D01*
X2684348Y-9246484D02*
X2684348Y-9046484D01*
X2684348Y-9046484D02*
X2665301Y-9075055D01*
X2665301Y-9075055D02*
X2646253Y-9094103D01*
X2646253Y-9094103D02*
X2627206Y-9103627D01*
X2922444Y-9046484D02*
X2827206Y-9046484D01*
X2827206Y-9046484D02*
X2817682Y-9141722D01*
X2817682Y-9141722D02*
X2827206Y-9132198D01*
X2827206Y-9132198D02*
X2846253Y-9122674D01*
X2846253Y-9122674D02*
X2893872Y-9122674D01*
X2893872Y-9122674D02*
X2912920Y-9132198D01*
X2912920Y-9132198D02*
X2922444Y-9141722D01*
X2922444Y-9141722D02*
X2931967Y-9160770D01*
X2931967Y-9160770D02*
X2931967Y-9208389D01*
X2931967Y-9208389D02*
X2922444Y-9227436D01*
X2922444Y-9227436D02*
X2912920Y-9236960D01*
X2912920Y-9236960D02*
X2893872Y-9246484D01*
X2893872Y-9246484D02*
X2846253Y-9246484D01*
X2846253Y-9246484D02*
X2827206Y-9236960D01*
X2827206Y-9236960D02*
X2817682Y-9227436D01*
X2998634Y-9046484D02*
X3131967Y-9046484D01*
X3131967Y-9046484D02*
X3046253Y-9246484D01*
X3198634Y-9046484D02*
X3198634Y-9084579D01*
X3274825Y-9046484D02*
X3274825Y-9084579D01*
X3570063Y-9322674D02*
X3560539Y-9313150D01*
X3560539Y-9313150D02*
X3541491Y-9284579D01*
X3541491Y-9284579D02*
X3531968Y-9265531D01*
X3531968Y-9265531D02*
X3522444Y-9236960D01*
X3522444Y-9236960D02*
X3512920Y-9189341D01*
X3512920Y-9189341D02*
X3512920Y-9151246D01*
X3512920Y-9151246D02*
X3522444Y-9103627D01*
X3522444Y-9103627D02*
X3531968Y-9075055D01*
X3531968Y-9075055D02*
X3541491Y-9056008D01*
X3541491Y-9056008D02*
X3560539Y-9027436D01*
X3560539Y-9027436D02*
X3570063Y-9017912D01*
X3674825Y-9132198D02*
X3655777Y-9122674D01*
X3655777Y-9122674D02*
X3646253Y-9113150D01*
X3646253Y-9113150D02*
X3636729Y-9094103D01*
X3636729Y-9094103D02*
X3636729Y-9084579D01*
X3636729Y-9084579D02*
X3646253Y-9065531D01*
X3646253Y-9065531D02*
X3655777Y-9056008D01*
X3655777Y-9056008D02*
X3674825Y-9046484D01*
X3674825Y-9046484D02*
X3712920Y-9046484D01*
X3712920Y-9046484D02*
X3731968Y-9056008D01*
X3731968Y-9056008D02*
X3741491Y-9065531D01*
X3741491Y-9065531D02*
X3751015Y-9084579D01*
X3751015Y-9084579D02*
X3751015Y-9094103D01*
X3751015Y-9094103D02*
X3741491Y-9113150D01*
X3741491Y-9113150D02*
X3731968Y-9122674D01*
X3731968Y-9122674D02*
X3712920Y-9132198D01*
X3712920Y-9132198D02*
X3674825Y-9132198D01*
X3674825Y-9132198D02*
X3655777Y-9141722D01*
X3655777Y-9141722D02*
X3646253Y-9151246D01*
X3646253Y-9151246D02*
X3636729Y-9170293D01*
X3636729Y-9170293D02*
X3636729Y-9208389D01*
X3636729Y-9208389D02*
X3646253Y-9227436D01*
X3646253Y-9227436D02*
X3655777Y-9236960D01*
X3655777Y-9236960D02*
X3674825Y-9246484D01*
X3674825Y-9246484D02*
X3712920Y-9246484D01*
X3712920Y-9246484D02*
X3731968Y-9236960D01*
X3731968Y-9236960D02*
X3741491Y-9227436D01*
X3741491Y-9227436D02*
X3751015Y-9208389D01*
X3751015Y-9208389D02*
X3751015Y-9170293D01*
X3751015Y-9170293D02*
X3741491Y-9151246D01*
X3741491Y-9151246D02*
X3731968Y-9141722D01*
X3731968Y-9141722D02*
X3712920Y-9132198D01*
X3827206Y-9065531D02*
X3836729Y-9056008D01*
X3836729Y-9056008D02*
X3855777Y-9046484D01*
X3855777Y-9046484D02*
X3903396Y-9046484D01*
X3903396Y-9046484D02*
X3922444Y-9056008D01*
X3922444Y-9056008D02*
X3931968Y-9065531D01*
X3931968Y-9065531D02*
X3941491Y-9084579D01*
X3941491Y-9084579D02*
X3941491Y-9103627D01*
X3941491Y-9103627D02*
X3931968Y-9132198D01*
X3931968Y-9132198D02*
X3817682Y-9246484D01*
X3817682Y-9246484D02*
X3941491Y-9246484D01*
X4179587Y-9246484D02*
X4179587Y-9046484D01*
X4265301Y-9246484D02*
X4265301Y-9141722D01*
X4265301Y-9141722D02*
X4255777Y-9122674D01*
X4255777Y-9122674D02*
X4236730Y-9113150D01*
X4236730Y-9113150D02*
X4208158Y-9113150D01*
X4208158Y-9113150D02*
X4189110Y-9122674D01*
X4189110Y-9122674D02*
X4179587Y-9132198D01*
X4389111Y-9246484D02*
X4370063Y-9236960D01*
X4370063Y-9236960D02*
X4360539Y-9227436D01*
X4360539Y-9227436D02*
X4351015Y-9208389D01*
X4351015Y-9208389D02*
X4351015Y-9151246D01*
X4351015Y-9151246D02*
X4360539Y-9132198D01*
X4360539Y-9132198D02*
X4370063Y-9122674D01*
X4370063Y-9122674D02*
X4389111Y-9113150D01*
X4389111Y-9113150D02*
X4417682Y-9113150D01*
X4417682Y-9113150D02*
X4436730Y-9122674D01*
X4436730Y-9122674D02*
X4446253Y-9132198D01*
X4446253Y-9132198D02*
X4455777Y-9151246D01*
X4455777Y-9151246D02*
X4455777Y-9208389D01*
X4455777Y-9208389D02*
X4446253Y-9227436D01*
X4446253Y-9227436D02*
X4436730Y-9236960D01*
X4436730Y-9236960D02*
X4417682Y-9246484D01*
X4417682Y-9246484D02*
X4389111Y-9246484D01*
X4570063Y-9246484D02*
X4551015Y-9236960D01*
X4551015Y-9236960D02*
X4541492Y-9217912D01*
X4541492Y-9217912D02*
X4541492Y-9046484D01*
X4722444Y-9236960D02*
X4703396Y-9246484D01*
X4703396Y-9246484D02*
X4665301Y-9246484D01*
X4665301Y-9246484D02*
X4646253Y-9236960D01*
X4646253Y-9236960D02*
X4636730Y-9217912D01*
X4636730Y-9217912D02*
X4636730Y-9141722D01*
X4636730Y-9141722D02*
X4646253Y-9122674D01*
X4646253Y-9122674D02*
X4665301Y-9113150D01*
X4665301Y-9113150D02*
X4703396Y-9113150D01*
X4703396Y-9113150D02*
X4722444Y-9122674D01*
X4722444Y-9122674D02*
X4731968Y-9141722D01*
X4731968Y-9141722D02*
X4731968Y-9160770D01*
X4731968Y-9160770D02*
X4636730Y-9179817D01*
X4808158Y-9236960D02*
X4827206Y-9246484D01*
X4827206Y-9246484D02*
X4865301Y-9246484D01*
X4865301Y-9246484D02*
X4884349Y-9236960D01*
X4884349Y-9236960D02*
X4893873Y-9217912D01*
X4893873Y-9217912D02*
X4893873Y-9208389D01*
X4893873Y-9208389D02*
X4884349Y-9189341D01*
X4884349Y-9189341D02*
X4865301Y-9179817D01*
X4865301Y-9179817D02*
X4836730Y-9179817D01*
X4836730Y-9179817D02*
X4817682Y-9170293D01*
X4817682Y-9170293D02*
X4808158Y-9151246D01*
X4808158Y-9151246D02*
X4808158Y-9141722D01*
X4808158Y-9141722D02*
X4817682Y-9122674D01*
X4817682Y-9122674D02*
X4836730Y-9113150D01*
X4836730Y-9113150D02*
X4865301Y-9113150D01*
X4865301Y-9113150D02*
X4884349Y-9122674D01*
X4960539Y-9322674D02*
X4970063Y-9313150D01*
X4970063Y-9313150D02*
X4989111Y-9284579D01*
X4989111Y-9284579D02*
X4998634Y-9265531D01*
X4998634Y-9265531D02*
X5008158Y-9236960D01*
X5008158Y-9236960D02*
X5017682Y-9189341D01*
X5017682Y-9189341D02*
X5017682Y-9151246D01*
X5017682Y-9151246D02*
X5008158Y-9103627D01*
X5008158Y-9103627D02*
X4998634Y-9075055D01*
X4998634Y-9075055D02*
X4989111Y-9056008D01*
X4989111Y-9056008D02*
X4970063Y-9027436D01*
X4970063Y-9027436D02*
X4960539Y-9017912D01*
D10*
X-5000Y-9419000D02*
G75*
G03*
X-5000Y-9419000I-50000J0D01*
G01*
D11*
X360539Y-9510484D02*
X246253Y-9510484D01*
X303396Y-9510484D02*
X303396Y-9310484D01*
X303396Y-9310484D02*
X284348Y-9339055D01*
X284348Y-9339055D02*
X265301Y-9358103D01*
X265301Y-9358103D02*
X246253Y-9367627D01*
X446253Y-9491436D02*
X455777Y-9500960D01*
X455777Y-9500960D02*
X446253Y-9510484D01*
X446253Y-9510484D02*
X436729Y-9500960D01*
X436729Y-9500960D02*
X446253Y-9491436D01*
X446253Y-9491436D02*
X446253Y-9510484D01*
X579586Y-9310484D02*
X598634Y-9310484D01*
X598634Y-9310484D02*
X617682Y-9320008D01*
X617682Y-9320008D02*
X627205Y-9329531D01*
X627205Y-9329531D02*
X636729Y-9348579D01*
X636729Y-9348579D02*
X646253Y-9386674D01*
X646253Y-9386674D02*
X646253Y-9434293D01*
X646253Y-9434293D02*
X636729Y-9472389D01*
X636729Y-9472389D02*
X627205Y-9491436D01*
X627205Y-9491436D02*
X617682Y-9500960D01*
X617682Y-9500960D02*
X598634Y-9510484D01*
X598634Y-9510484D02*
X579586Y-9510484D01*
X579586Y-9510484D02*
X560539Y-9500960D01*
X560539Y-9500960D02*
X551015Y-9491436D01*
X551015Y-9491436D02*
X541491Y-9472389D01*
X541491Y-9472389D02*
X531967Y-9434293D01*
X531967Y-9434293D02*
X531967Y-9386674D01*
X531967Y-9386674D02*
X541491Y-9348579D01*
X541491Y-9348579D02*
X551015Y-9329531D01*
X551015Y-9329531D02*
X560539Y-9320008D01*
X560539Y-9320008D02*
X579586Y-9310484D01*
X770062Y-9310484D02*
X789110Y-9310484D01*
X789110Y-9310484D02*
X808158Y-9320008D01*
X808158Y-9320008D02*
X817682Y-9329531D01*
X817682Y-9329531D02*
X827205Y-9348579D01*
X827205Y-9348579D02*
X836729Y-9386674D01*
X836729Y-9386674D02*
X836729Y-9434293D01*
X836729Y-9434293D02*
X827205Y-9472389D01*
X827205Y-9472389D02*
X817682Y-9491436D01*
X817682Y-9491436D02*
X808158Y-9500960D01*
X808158Y-9500960D02*
X789110Y-9510484D01*
X789110Y-9510484D02*
X770062Y-9510484D01*
X770062Y-9510484D02*
X751015Y-9500960D01*
X751015Y-9500960D02*
X741491Y-9491436D01*
X741491Y-9491436D02*
X731967Y-9472389D01*
X731967Y-9472389D02*
X722443Y-9434293D01*
X722443Y-9434293D02*
X722443Y-9386674D01*
X722443Y-9386674D02*
X731967Y-9348579D01*
X731967Y-9348579D02*
X741491Y-9329531D01*
X741491Y-9329531D02*
X751015Y-9320008D01*
X751015Y-9320008D02*
X770062Y-9310484D01*
X960539Y-9310484D02*
X979586Y-9310484D01*
X979586Y-9310484D02*
X998634Y-9320008D01*
X998634Y-9320008D02*
X1008158Y-9329531D01*
X1008158Y-9329531D02*
X1017682Y-9348579D01*
X1017682Y-9348579D02*
X1027205Y-9386674D01*
X1027205Y-9386674D02*
X1027205Y-9434293D01*
X1027205Y-9434293D02*
X1017682Y-9472389D01*
X1017682Y-9472389D02*
X1008158Y-9491436D01*
X1008158Y-9491436D02*
X998634Y-9500960D01*
X998634Y-9500960D02*
X979586Y-9510484D01*
X979586Y-9510484D02*
X960539Y-9510484D01*
X960539Y-9510484D02*
X941491Y-9500960D01*
X941491Y-9500960D02*
X931967Y-9491436D01*
X931967Y-9491436D02*
X922443Y-9472389D01*
X922443Y-9472389D02*
X912920Y-9434293D01*
X912920Y-9434293D02*
X912920Y-9386674D01*
X912920Y-9386674D02*
X922443Y-9348579D01*
X922443Y-9348579D02*
X931967Y-9329531D01*
X931967Y-9329531D02*
X941491Y-9320008D01*
X941491Y-9320008D02*
X960539Y-9310484D01*
X1112920Y-9510484D02*
X1112920Y-9377150D01*
X1112920Y-9396198D02*
X1122444Y-9386674D01*
X1122444Y-9386674D02*
X1141491Y-9377150D01*
X1141491Y-9377150D02*
X1170063Y-9377150D01*
X1170063Y-9377150D02*
X1189110Y-9386674D01*
X1189110Y-9386674D02*
X1198634Y-9405722D01*
X1198634Y-9405722D02*
X1198634Y-9510484D01*
X1198634Y-9405722D02*
X1208158Y-9386674D01*
X1208158Y-9386674D02*
X1227205Y-9377150D01*
X1227205Y-9377150D02*
X1255777Y-9377150D01*
X1255777Y-9377150D02*
X1274825Y-9386674D01*
X1274825Y-9386674D02*
X1284348Y-9405722D01*
X1284348Y-9405722D02*
X1284348Y-9510484D01*
X1379586Y-9510484D02*
X1379586Y-9377150D01*
X1379586Y-9396198D02*
X1389110Y-9386674D01*
X1389110Y-9386674D02*
X1408158Y-9377150D01*
X1408158Y-9377150D02*
X1436729Y-9377150D01*
X1436729Y-9377150D02*
X1455777Y-9386674D01*
X1455777Y-9386674D02*
X1465301Y-9405722D01*
X1465301Y-9405722D02*
X1465301Y-9510484D01*
X1465301Y-9405722D02*
X1474824Y-9386674D01*
X1474824Y-9386674D02*
X1493872Y-9377150D01*
X1493872Y-9377150D02*
X1522443Y-9377150D01*
X1522443Y-9377150D02*
X1541491Y-9386674D01*
X1541491Y-9386674D02*
X1551015Y-9405722D01*
X1551015Y-9405722D02*
X1551015Y-9510484D01*
X1941491Y-9300960D02*
X1770063Y-9558103D01*
X2198634Y-9310484D02*
X2217682Y-9310484D01*
X2217682Y-9310484D02*
X2236729Y-9320008D01*
X2236729Y-9320008D02*
X2246253Y-9329531D01*
X2246253Y-9329531D02*
X2255777Y-9348579D01*
X2255777Y-9348579D02*
X2265301Y-9386674D01*
X2265301Y-9386674D02*
X2265301Y-9434293D01*
X2265301Y-9434293D02*
X2255777Y-9472389D01*
X2255777Y-9472389D02*
X2246253Y-9491436D01*
X2246253Y-9491436D02*
X2236729Y-9500960D01*
X2236729Y-9500960D02*
X2217682Y-9510484D01*
X2217682Y-9510484D02*
X2198634Y-9510484D01*
X2198634Y-9510484D02*
X2179587Y-9500960D01*
X2179587Y-9500960D02*
X2170063Y-9491436D01*
X2170063Y-9491436D02*
X2160539Y-9472389D01*
X2160539Y-9472389D02*
X2151015Y-9434293D01*
X2151015Y-9434293D02*
X2151015Y-9386674D01*
X2151015Y-9386674D02*
X2160539Y-9348579D01*
X2160539Y-9348579D02*
X2170063Y-9329531D01*
X2170063Y-9329531D02*
X2179587Y-9320008D01*
X2179587Y-9320008D02*
X2198634Y-9310484D01*
X2351015Y-9491436D02*
X2360539Y-9500960D01*
X2360539Y-9500960D02*
X2351015Y-9510484D01*
X2351015Y-9510484D02*
X2341491Y-9500960D01*
X2341491Y-9500960D02*
X2351015Y-9491436D01*
X2351015Y-9491436D02*
X2351015Y-9510484D01*
X2484348Y-9310484D02*
X2503396Y-9310484D01*
X2503396Y-9310484D02*
X2522444Y-9320008D01*
X2522444Y-9320008D02*
X2531968Y-9329531D01*
X2531968Y-9329531D02*
X2541491Y-9348579D01*
X2541491Y-9348579D02*
X2551015Y-9386674D01*
X2551015Y-9386674D02*
X2551015Y-9434293D01*
X2551015Y-9434293D02*
X2541491Y-9472389D01*
X2541491Y-9472389D02*
X2531968Y-9491436D01*
X2531968Y-9491436D02*
X2522444Y-9500960D01*
X2522444Y-9500960D02*
X2503396Y-9510484D01*
X2503396Y-9510484D02*
X2484348Y-9510484D01*
X2484348Y-9510484D02*
X2465301Y-9500960D01*
X2465301Y-9500960D02*
X2455777Y-9491436D01*
X2455777Y-9491436D02*
X2446253Y-9472389D01*
X2446253Y-9472389D02*
X2436729Y-9434293D01*
X2436729Y-9434293D02*
X2436729Y-9386674D01*
X2436729Y-9386674D02*
X2446253Y-9348579D01*
X2446253Y-9348579D02*
X2455777Y-9329531D01*
X2455777Y-9329531D02*
X2465301Y-9320008D01*
X2465301Y-9320008D02*
X2484348Y-9310484D01*
X2617682Y-9310484D02*
X2741491Y-9310484D01*
X2741491Y-9310484D02*
X2674825Y-9386674D01*
X2674825Y-9386674D02*
X2703396Y-9386674D01*
X2703396Y-9386674D02*
X2722444Y-9396198D01*
X2722444Y-9396198D02*
X2731968Y-9405722D01*
X2731968Y-9405722D02*
X2741491Y-9424770D01*
X2741491Y-9424770D02*
X2741491Y-9472389D01*
X2741491Y-9472389D02*
X2731968Y-9491436D01*
X2731968Y-9491436D02*
X2722444Y-9500960D01*
X2722444Y-9500960D02*
X2703396Y-9510484D01*
X2703396Y-9510484D02*
X2646253Y-9510484D01*
X2646253Y-9510484D02*
X2627206Y-9500960D01*
X2627206Y-9500960D02*
X2617682Y-9491436D01*
X2836729Y-9510484D02*
X2874825Y-9510484D01*
X2874825Y-9510484D02*
X2893872Y-9500960D01*
X2893872Y-9500960D02*
X2903396Y-9491436D01*
X2903396Y-9491436D02*
X2922444Y-9462865D01*
X2922444Y-9462865D02*
X2931967Y-9424770D01*
X2931967Y-9424770D02*
X2931967Y-9348579D01*
X2931967Y-9348579D02*
X2922444Y-9329531D01*
X2922444Y-9329531D02*
X2912920Y-9320008D01*
X2912920Y-9320008D02*
X2893872Y-9310484D01*
X2893872Y-9310484D02*
X2855777Y-9310484D01*
X2855777Y-9310484D02*
X2836729Y-9320008D01*
X2836729Y-9320008D02*
X2827206Y-9329531D01*
X2827206Y-9329531D02*
X2817682Y-9348579D01*
X2817682Y-9348579D02*
X2817682Y-9396198D01*
X2817682Y-9396198D02*
X2827206Y-9415246D01*
X2827206Y-9415246D02*
X2836729Y-9424770D01*
X2836729Y-9424770D02*
X2855777Y-9434293D01*
X2855777Y-9434293D02*
X2893872Y-9434293D01*
X2893872Y-9434293D02*
X2912920Y-9424770D01*
X2912920Y-9424770D02*
X2922444Y-9415246D01*
X2922444Y-9415246D02*
X2931967Y-9396198D01*
X3103396Y-9377150D02*
X3103396Y-9510484D01*
X3055777Y-9300960D02*
X3008158Y-9443817D01*
X3008158Y-9443817D02*
X3131967Y-9443817D01*
X3198634Y-9310484D02*
X3198634Y-9348579D01*
X3274825Y-9310484D02*
X3274825Y-9348579D01*
X3570063Y-9586674D02*
X3560539Y-9577150D01*
X3560539Y-9577150D02*
X3541491Y-9548579D01*
X3541491Y-9548579D02*
X3531968Y-9529531D01*
X3531968Y-9529531D02*
X3522444Y-9500960D01*
X3522444Y-9500960D02*
X3512920Y-9453341D01*
X3512920Y-9453341D02*
X3512920Y-9415246D01*
X3512920Y-9415246D02*
X3522444Y-9367627D01*
X3522444Y-9367627D02*
X3531968Y-9339055D01*
X3531968Y-9339055D02*
X3541491Y-9320008D01*
X3541491Y-9320008D02*
X3560539Y-9291436D01*
X3560539Y-9291436D02*
X3570063Y-9281912D01*
X3627206Y-9310484D02*
X3751015Y-9310484D01*
X3751015Y-9310484D02*
X3684348Y-9386674D01*
X3684348Y-9386674D02*
X3712920Y-9386674D01*
X3712920Y-9386674D02*
X3731968Y-9396198D01*
X3731968Y-9396198D02*
X3741491Y-9405722D01*
X3741491Y-9405722D02*
X3751015Y-9424770D01*
X3751015Y-9424770D02*
X3751015Y-9472389D01*
X3751015Y-9472389D02*
X3741491Y-9491436D01*
X3741491Y-9491436D02*
X3731968Y-9500960D01*
X3731968Y-9500960D02*
X3712920Y-9510484D01*
X3712920Y-9510484D02*
X3655777Y-9510484D01*
X3655777Y-9510484D02*
X3636729Y-9500960D01*
X3636729Y-9500960D02*
X3627206Y-9491436D01*
X3874825Y-9310484D02*
X3893872Y-9310484D01*
X3893872Y-9310484D02*
X3912920Y-9320008D01*
X3912920Y-9320008D02*
X3922444Y-9329531D01*
X3922444Y-9329531D02*
X3931968Y-9348579D01*
X3931968Y-9348579D02*
X3941491Y-9386674D01*
X3941491Y-9386674D02*
X3941491Y-9434293D01*
X3941491Y-9434293D02*
X3931968Y-9472389D01*
X3931968Y-9472389D02*
X3922444Y-9491436D01*
X3922444Y-9491436D02*
X3912920Y-9500960D01*
X3912920Y-9500960D02*
X3893872Y-9510484D01*
X3893872Y-9510484D02*
X3874825Y-9510484D01*
X3874825Y-9510484D02*
X3855777Y-9500960D01*
X3855777Y-9500960D02*
X3846253Y-9491436D01*
X3846253Y-9491436D02*
X3836729Y-9472389D01*
X3836729Y-9472389D02*
X3827206Y-9434293D01*
X3827206Y-9434293D02*
X3827206Y-9386674D01*
X3827206Y-9386674D02*
X3836729Y-9348579D01*
X3836729Y-9348579D02*
X3846253Y-9329531D01*
X3846253Y-9329531D02*
X3855777Y-9320008D01*
X3855777Y-9320008D02*
X3874825Y-9310484D01*
X4179587Y-9510484D02*
X4179587Y-9310484D01*
X4265301Y-9510484D02*
X4265301Y-9405722D01*
X4265301Y-9405722D02*
X4255777Y-9386674D01*
X4255777Y-9386674D02*
X4236730Y-9377150D01*
X4236730Y-9377150D02*
X4208158Y-9377150D01*
X4208158Y-9377150D02*
X4189110Y-9386674D01*
X4189110Y-9386674D02*
X4179587Y-9396198D01*
X4389111Y-9510484D02*
X4370063Y-9500960D01*
X4370063Y-9500960D02*
X4360539Y-9491436D01*
X4360539Y-9491436D02*
X4351015Y-9472389D01*
X4351015Y-9472389D02*
X4351015Y-9415246D01*
X4351015Y-9415246D02*
X4360539Y-9396198D01*
X4360539Y-9396198D02*
X4370063Y-9386674D01*
X4370063Y-9386674D02*
X4389111Y-9377150D01*
X4389111Y-9377150D02*
X4417682Y-9377150D01*
X4417682Y-9377150D02*
X4436730Y-9386674D01*
X4436730Y-9386674D02*
X4446253Y-9396198D01*
X4446253Y-9396198D02*
X4455777Y-9415246D01*
X4455777Y-9415246D02*
X4455777Y-9472389D01*
X4455777Y-9472389D02*
X4446253Y-9491436D01*
X4446253Y-9491436D02*
X4436730Y-9500960D01*
X4436730Y-9500960D02*
X4417682Y-9510484D01*
X4417682Y-9510484D02*
X4389111Y-9510484D01*
X4570063Y-9510484D02*
X4551015Y-9500960D01*
X4551015Y-9500960D02*
X4541492Y-9481912D01*
X4541492Y-9481912D02*
X4541492Y-9310484D01*
X4722444Y-9500960D02*
X4703396Y-9510484D01*
X4703396Y-9510484D02*
X4665301Y-9510484D01*
X4665301Y-9510484D02*
X4646253Y-9500960D01*
X4646253Y-9500960D02*
X4636730Y-9481912D01*
X4636730Y-9481912D02*
X4636730Y-9405722D01*
X4636730Y-9405722D02*
X4646253Y-9386674D01*
X4646253Y-9386674D02*
X4665301Y-9377150D01*
X4665301Y-9377150D02*
X4703396Y-9377150D01*
X4703396Y-9377150D02*
X4722444Y-9386674D01*
X4722444Y-9386674D02*
X4731968Y-9405722D01*
X4731968Y-9405722D02*
X4731968Y-9424770D01*
X4731968Y-9424770D02*
X4636730Y-9443817D01*
X4808158Y-9500960D02*
X4827206Y-9510484D01*
X4827206Y-9510484D02*
X4865301Y-9510484D01*
X4865301Y-9510484D02*
X4884349Y-9500960D01*
X4884349Y-9500960D02*
X4893873Y-9481912D01*
X4893873Y-9481912D02*
X4893873Y-9472389D01*
X4893873Y-9472389D02*
X4884349Y-9453341D01*
X4884349Y-9453341D02*
X4865301Y-9443817D01*
X4865301Y-9443817D02*
X4836730Y-9443817D01*
X4836730Y-9443817D02*
X4817682Y-9434293D01*
X4817682Y-9434293D02*
X4808158Y-9415246D01*
X4808158Y-9415246D02*
X4808158Y-9405722D01*
X4808158Y-9405722D02*
X4817682Y-9386674D01*
X4817682Y-9386674D02*
X4836730Y-9377150D01*
X4836730Y-9377150D02*
X4865301Y-9377150D01*
X4865301Y-9377150D02*
X4884349Y-9386674D01*
X4960539Y-9586674D02*
X4970063Y-9577150D01*
X4970063Y-9577150D02*
X4989111Y-9548579D01*
X4989111Y-9548579D02*
X4998634Y-9529531D01*
X4998634Y-9529531D02*
X5008158Y-9500960D01*
X5008158Y-9500960D02*
X5017682Y-9453341D01*
X5017682Y-9453341D02*
X5017682Y-9415246D01*
X5017682Y-9415246D02*
X5008158Y-9367627D01*
X5008158Y-9367627D02*
X4998634Y-9339055D01*
X4998634Y-9339055D02*
X4989111Y-9320008D01*
X4989111Y-9320008D02*
X4970063Y-9291436D01*
X4970063Y-9291436D02*
X4960539Y-9281912D01*
D12*
X-65000Y-9623000D02*
X-65000Y-9743000D01*
X-125000Y-9683000D02*
X-5000Y-9683000D01*
D11*
X360539Y-9774484D02*
X246253Y-9774484D01*
X303396Y-9774484D02*
X303396Y-9574484D01*
X303396Y-9574484D02*
X284348Y-9603055D01*
X284348Y-9603055D02*
X265301Y-9622103D01*
X265301Y-9622103D02*
X246253Y-9631627D01*
X446253Y-9755436D02*
X455777Y-9764960D01*
X455777Y-9764960D02*
X446253Y-9774484D01*
X446253Y-9774484D02*
X436729Y-9764960D01*
X436729Y-9764960D02*
X446253Y-9755436D01*
X446253Y-9755436D02*
X446253Y-9774484D01*
X531967Y-9593531D02*
X541491Y-9584008D01*
X541491Y-9584008D02*
X560539Y-9574484D01*
X560539Y-9574484D02*
X608158Y-9574484D01*
X608158Y-9574484D02*
X627205Y-9584008D01*
X627205Y-9584008D02*
X636729Y-9593531D01*
X636729Y-9593531D02*
X646253Y-9612579D01*
X646253Y-9612579D02*
X646253Y-9631627D01*
X646253Y-9631627D02*
X636729Y-9660198D01*
X636729Y-9660198D02*
X522443Y-9774484D01*
X522443Y-9774484D02*
X646253Y-9774484D01*
X770062Y-9574484D02*
X789110Y-9574484D01*
X789110Y-9574484D02*
X808158Y-9584008D01*
X808158Y-9584008D02*
X817682Y-9593531D01*
X817682Y-9593531D02*
X827205Y-9612579D01*
X827205Y-9612579D02*
X836729Y-9650674D01*
X836729Y-9650674D02*
X836729Y-9698293D01*
X836729Y-9698293D02*
X827205Y-9736389D01*
X827205Y-9736389D02*
X817682Y-9755436D01*
X817682Y-9755436D02*
X808158Y-9764960D01*
X808158Y-9764960D02*
X789110Y-9774484D01*
X789110Y-9774484D02*
X770062Y-9774484D01*
X770062Y-9774484D02*
X751015Y-9764960D01*
X751015Y-9764960D02*
X741491Y-9755436D01*
X741491Y-9755436D02*
X731967Y-9736389D01*
X731967Y-9736389D02*
X722443Y-9698293D01*
X722443Y-9698293D02*
X722443Y-9650674D01*
X722443Y-9650674D02*
X731967Y-9612579D01*
X731967Y-9612579D02*
X741491Y-9593531D01*
X741491Y-9593531D02*
X751015Y-9584008D01*
X751015Y-9584008D02*
X770062Y-9574484D01*
X960539Y-9574484D02*
X979586Y-9574484D01*
X979586Y-9574484D02*
X998634Y-9584008D01*
X998634Y-9584008D02*
X1008158Y-9593531D01*
X1008158Y-9593531D02*
X1017682Y-9612579D01*
X1017682Y-9612579D02*
X1027205Y-9650674D01*
X1027205Y-9650674D02*
X1027205Y-9698293D01*
X1027205Y-9698293D02*
X1017682Y-9736389D01*
X1017682Y-9736389D02*
X1008158Y-9755436D01*
X1008158Y-9755436D02*
X998634Y-9764960D01*
X998634Y-9764960D02*
X979586Y-9774484D01*
X979586Y-9774484D02*
X960539Y-9774484D01*
X960539Y-9774484D02*
X941491Y-9764960D01*
X941491Y-9764960D02*
X931967Y-9755436D01*
X931967Y-9755436D02*
X922443Y-9736389D01*
X922443Y-9736389D02*
X912920Y-9698293D01*
X912920Y-9698293D02*
X912920Y-9650674D01*
X912920Y-9650674D02*
X922443Y-9612579D01*
X922443Y-9612579D02*
X931967Y-9593531D01*
X931967Y-9593531D02*
X941491Y-9584008D01*
X941491Y-9584008D02*
X960539Y-9574484D01*
X1112920Y-9774484D02*
X1112920Y-9641150D01*
X1112920Y-9660198D02*
X1122444Y-9650674D01*
X1122444Y-9650674D02*
X1141491Y-9641150D01*
X1141491Y-9641150D02*
X1170063Y-9641150D01*
X1170063Y-9641150D02*
X1189110Y-9650674D01*
X1189110Y-9650674D02*
X1198634Y-9669722D01*
X1198634Y-9669722D02*
X1198634Y-9774484D01*
X1198634Y-9669722D02*
X1208158Y-9650674D01*
X1208158Y-9650674D02*
X1227205Y-9641150D01*
X1227205Y-9641150D02*
X1255777Y-9641150D01*
X1255777Y-9641150D02*
X1274825Y-9650674D01*
X1274825Y-9650674D02*
X1284348Y-9669722D01*
X1284348Y-9669722D02*
X1284348Y-9774484D01*
X1379586Y-9774484D02*
X1379586Y-9641150D01*
X1379586Y-9660198D02*
X1389110Y-9650674D01*
X1389110Y-9650674D02*
X1408158Y-9641150D01*
X1408158Y-9641150D02*
X1436729Y-9641150D01*
X1436729Y-9641150D02*
X1455777Y-9650674D01*
X1455777Y-9650674D02*
X1465301Y-9669722D01*
X1465301Y-9669722D02*
X1465301Y-9774484D01*
X1465301Y-9669722D02*
X1474824Y-9650674D01*
X1474824Y-9650674D02*
X1493872Y-9641150D01*
X1493872Y-9641150D02*
X1522443Y-9641150D01*
X1522443Y-9641150D02*
X1541491Y-9650674D01*
X1541491Y-9650674D02*
X1551015Y-9669722D01*
X1551015Y-9669722D02*
X1551015Y-9774484D01*
X1941491Y-9564960D02*
X1770063Y-9822103D01*
X2198634Y-9574484D02*
X2217682Y-9574484D01*
X2217682Y-9574484D02*
X2236729Y-9584008D01*
X2236729Y-9584008D02*
X2246253Y-9593531D01*
X2246253Y-9593531D02*
X2255777Y-9612579D01*
X2255777Y-9612579D02*
X2265301Y-9650674D01*
X2265301Y-9650674D02*
X2265301Y-9698293D01*
X2265301Y-9698293D02*
X2255777Y-9736389D01*
X2255777Y-9736389D02*
X2246253Y-9755436D01*
X2246253Y-9755436D02*
X2236729Y-9764960D01*
X2236729Y-9764960D02*
X2217682Y-9774484D01*
X2217682Y-9774484D02*
X2198634Y-9774484D01*
X2198634Y-9774484D02*
X2179587Y-9764960D01*
X2179587Y-9764960D02*
X2170063Y-9755436D01*
X2170063Y-9755436D02*
X2160539Y-9736389D01*
X2160539Y-9736389D02*
X2151015Y-9698293D01*
X2151015Y-9698293D02*
X2151015Y-9650674D01*
X2151015Y-9650674D02*
X2160539Y-9612579D01*
X2160539Y-9612579D02*
X2170063Y-9593531D01*
X2170063Y-9593531D02*
X2179587Y-9584008D01*
X2179587Y-9584008D02*
X2198634Y-9574484D01*
X2351015Y-9755436D02*
X2360539Y-9764960D01*
X2360539Y-9764960D02*
X2351015Y-9774484D01*
X2351015Y-9774484D02*
X2341491Y-9764960D01*
X2341491Y-9764960D02*
X2351015Y-9755436D01*
X2351015Y-9755436D02*
X2351015Y-9774484D01*
X2484348Y-9574484D02*
X2503396Y-9574484D01*
X2503396Y-9574484D02*
X2522444Y-9584008D01*
X2522444Y-9584008D02*
X2531968Y-9593531D01*
X2531968Y-9593531D02*
X2541491Y-9612579D01*
X2541491Y-9612579D02*
X2551015Y-9650674D01*
X2551015Y-9650674D02*
X2551015Y-9698293D01*
X2551015Y-9698293D02*
X2541491Y-9736389D01*
X2541491Y-9736389D02*
X2531968Y-9755436D01*
X2531968Y-9755436D02*
X2522444Y-9764960D01*
X2522444Y-9764960D02*
X2503396Y-9774484D01*
X2503396Y-9774484D02*
X2484348Y-9774484D01*
X2484348Y-9774484D02*
X2465301Y-9764960D01*
X2465301Y-9764960D02*
X2455777Y-9755436D01*
X2455777Y-9755436D02*
X2446253Y-9736389D01*
X2446253Y-9736389D02*
X2436729Y-9698293D01*
X2436729Y-9698293D02*
X2436729Y-9650674D01*
X2436729Y-9650674D02*
X2446253Y-9612579D01*
X2446253Y-9612579D02*
X2455777Y-9593531D01*
X2455777Y-9593531D02*
X2465301Y-9584008D01*
X2465301Y-9584008D02*
X2484348Y-9574484D01*
X2722444Y-9641150D02*
X2722444Y-9774484D01*
X2674825Y-9564960D02*
X2627206Y-9707817D01*
X2627206Y-9707817D02*
X2751015Y-9707817D01*
X2808158Y-9574484D02*
X2941491Y-9574484D01*
X2941491Y-9574484D02*
X2855777Y-9774484D01*
X3008158Y-9593531D02*
X3017682Y-9584008D01*
X3017682Y-9584008D02*
X3036729Y-9574484D01*
X3036729Y-9574484D02*
X3084348Y-9574484D01*
X3084348Y-9574484D02*
X3103396Y-9584008D01*
X3103396Y-9584008D02*
X3112920Y-9593531D01*
X3112920Y-9593531D02*
X3122444Y-9612579D01*
X3122444Y-9612579D02*
X3122444Y-9631627D01*
X3122444Y-9631627D02*
X3112920Y-9660198D01*
X3112920Y-9660198D02*
X2998634Y-9774484D01*
X2998634Y-9774484D02*
X3122444Y-9774484D01*
X3198634Y-9574484D02*
X3198634Y-9612579D01*
X3274825Y-9574484D02*
X3274825Y-9612579D01*
X3570063Y-9850674D02*
X3560539Y-9841150D01*
X3560539Y-9841150D02*
X3541491Y-9812579D01*
X3541491Y-9812579D02*
X3531968Y-9793531D01*
X3531968Y-9793531D02*
X3522444Y-9764960D01*
X3522444Y-9764960D02*
X3512920Y-9717341D01*
X3512920Y-9717341D02*
X3512920Y-9679246D01*
X3512920Y-9679246D02*
X3522444Y-9631627D01*
X3522444Y-9631627D02*
X3531968Y-9603055D01*
X3531968Y-9603055D02*
X3541491Y-9584008D01*
X3541491Y-9584008D02*
X3560539Y-9555436D01*
X3560539Y-9555436D02*
X3570063Y-9545912D01*
X3674825Y-9660198D02*
X3655777Y-9650674D01*
X3655777Y-9650674D02*
X3646253Y-9641150D01*
X3646253Y-9641150D02*
X3636729Y-9622103D01*
X3636729Y-9622103D02*
X3636729Y-9612579D01*
X3636729Y-9612579D02*
X3646253Y-9593531D01*
X3646253Y-9593531D02*
X3655777Y-9584008D01*
X3655777Y-9584008D02*
X3674825Y-9574484D01*
X3674825Y-9574484D02*
X3712920Y-9574484D01*
X3712920Y-9574484D02*
X3731968Y-9584008D01*
X3731968Y-9584008D02*
X3741491Y-9593531D01*
X3741491Y-9593531D02*
X3751015Y-9612579D01*
X3751015Y-9612579D02*
X3751015Y-9622103D01*
X3751015Y-9622103D02*
X3741491Y-9641150D01*
X3741491Y-9641150D02*
X3731968Y-9650674D01*
X3731968Y-9650674D02*
X3712920Y-9660198D01*
X3712920Y-9660198D02*
X3674825Y-9660198D01*
X3674825Y-9660198D02*
X3655777Y-9669722D01*
X3655777Y-9669722D02*
X3646253Y-9679246D01*
X3646253Y-9679246D02*
X3636729Y-9698293D01*
X3636729Y-9698293D02*
X3636729Y-9736389D01*
X3636729Y-9736389D02*
X3646253Y-9755436D01*
X3646253Y-9755436D02*
X3655777Y-9764960D01*
X3655777Y-9764960D02*
X3674825Y-9774484D01*
X3674825Y-9774484D02*
X3712920Y-9774484D01*
X3712920Y-9774484D02*
X3731968Y-9764960D01*
X3731968Y-9764960D02*
X3741491Y-9755436D01*
X3741491Y-9755436D02*
X3751015Y-9736389D01*
X3751015Y-9736389D02*
X3751015Y-9698293D01*
X3751015Y-9698293D02*
X3741491Y-9679246D01*
X3741491Y-9679246D02*
X3731968Y-9669722D01*
X3731968Y-9669722D02*
X3712920Y-9660198D01*
X3989110Y-9774484D02*
X3989110Y-9574484D01*
X4074825Y-9774484D02*
X4074825Y-9669722D01*
X4074825Y-9669722D02*
X4065301Y-9650674D01*
X4065301Y-9650674D02*
X4046253Y-9641150D01*
X4046253Y-9641150D02*
X4017682Y-9641150D01*
X4017682Y-9641150D02*
X3998634Y-9650674D01*
X3998634Y-9650674D02*
X3989110Y-9660198D01*
X4198634Y-9774484D02*
X4179587Y-9764960D01*
X4179587Y-9764960D02*
X4170063Y-9755436D01*
X4170063Y-9755436D02*
X4160539Y-9736389D01*
X4160539Y-9736389D02*
X4160539Y-9679246D01*
X4160539Y-9679246D02*
X4170063Y-9660198D01*
X4170063Y-9660198D02*
X4179587Y-9650674D01*
X4179587Y-9650674D02*
X4198634Y-9641150D01*
X4198634Y-9641150D02*
X4227206Y-9641150D01*
X4227206Y-9641150D02*
X4246253Y-9650674D01*
X4246253Y-9650674D02*
X4255777Y-9660198D01*
X4255777Y-9660198D02*
X4265301Y-9679246D01*
X4265301Y-9679246D02*
X4265301Y-9736389D01*
X4265301Y-9736389D02*
X4255777Y-9755436D01*
X4255777Y-9755436D02*
X4246253Y-9764960D01*
X4246253Y-9764960D02*
X4227206Y-9774484D01*
X4227206Y-9774484D02*
X4198634Y-9774484D01*
X4379587Y-9774484D02*
X4360539Y-9764960D01*
X4360539Y-9764960D02*
X4351015Y-9745912D01*
X4351015Y-9745912D02*
X4351015Y-9574484D01*
X4531968Y-9764960D02*
X4512920Y-9774484D01*
X4512920Y-9774484D02*
X4474825Y-9774484D01*
X4474825Y-9774484D02*
X4455777Y-9764960D01*
X4455777Y-9764960D02*
X4446253Y-9745912D01*
X4446253Y-9745912D02*
X4446253Y-9669722D01*
X4446253Y-9669722D02*
X4455777Y-9650674D01*
X4455777Y-9650674D02*
X4474825Y-9641150D01*
X4474825Y-9641150D02*
X4512920Y-9641150D01*
X4512920Y-9641150D02*
X4531968Y-9650674D01*
X4531968Y-9650674D02*
X4541492Y-9669722D01*
X4541492Y-9669722D02*
X4541492Y-9688770D01*
X4541492Y-9688770D02*
X4446253Y-9707817D01*
X4617682Y-9764960D02*
X4636730Y-9774484D01*
X4636730Y-9774484D02*
X4674825Y-9774484D01*
X4674825Y-9774484D02*
X4693873Y-9764960D01*
X4693873Y-9764960D02*
X4703396Y-9745912D01*
X4703396Y-9745912D02*
X4703396Y-9736389D01*
X4703396Y-9736389D02*
X4693873Y-9717341D01*
X4693873Y-9717341D02*
X4674825Y-9707817D01*
X4674825Y-9707817D02*
X4646253Y-9707817D01*
X4646253Y-9707817D02*
X4627206Y-9698293D01*
X4627206Y-9698293D02*
X4617682Y-9679246D01*
X4617682Y-9679246D02*
X4617682Y-9669722D01*
X4617682Y-9669722D02*
X4627206Y-9650674D01*
X4627206Y-9650674D02*
X4646253Y-9641150D01*
X4646253Y-9641150D02*
X4674825Y-9641150D01*
X4674825Y-9641150D02*
X4693873Y-9650674D01*
X4770063Y-9850674D02*
X4779587Y-9841150D01*
X4779587Y-9841150D02*
X4798634Y-9812579D01*
X4798634Y-9812579D02*
X4808158Y-9793531D01*
X4808158Y-9793531D02*
X4817682Y-9764960D01*
X4817682Y-9764960D02*
X4827206Y-9717341D01*
X4827206Y-9717341D02*
X4827206Y-9679246D01*
X4827206Y-9679246D02*
X4817682Y-9631627D01*
X4817682Y-9631627D02*
X4808158Y-9603055D01*
X4808158Y-9603055D02*
X4798634Y-9584008D01*
X4798634Y-9584008D02*
X4779587Y-9555436D01*
X4779587Y-9555436D02*
X4770063Y-9545912D01*
M02*
