%TF.GenerationSoftware,KiCad,Pcbnew,7.0.9*%
%TF.CreationDate,2024-06-22T09:01:42+05:30*%
%TF.ProjectId,BMS_LV_ADDON,424d535f-4c56-45f4-9144-444f4e2e6b69,rev?*%
%TF.SameCoordinates,Original*%
%TF.FileFunction,Plated,1,2,PTH,Drill*%
%TF.FilePolarity,Positive*%
%FSLAX46Y46*%
G04 Gerber Fmt 4.6, Leading zero omitted, Abs format (unit mm)*
G04 Created by KiCad (PCBNEW 7.0.9) date 2024-06-22 09:01:42*
%MOMM*%
%LPD*%
G01*
G04 APERTURE LIST*
%TA.AperFunction,ViaDrill*%
%ADD10C,0.400000*%
%TD*%
%TA.AperFunction,ComponentDrill*%
%ADD11C,1.000000*%
%TD*%
%TA.AperFunction,ComponentDrill*%
%ADD12C,1.200000*%
%TD*%
G04 APERTURE END LIST*
D10*
X5400000Y-30300000D03*
X5400000Y-31600000D03*
X5400000Y-32900000D03*
X5400000Y-34300000D03*
X5700000Y-18700000D03*
X5700000Y-20000000D03*
X5700000Y-21300000D03*
X5700000Y-22700000D03*
X6700000Y-30300000D03*
X6700000Y-31600000D03*
X6700000Y-32900000D03*
X6700000Y-34300000D03*
X7000000Y-18700000D03*
X7000000Y-20000000D03*
X7000000Y-21300000D03*
X7000000Y-22700000D03*
X7900000Y-30300000D03*
X7900000Y-31600000D03*
X8000000Y-33000000D03*
X8000000Y-34300000D03*
X8200000Y-18700000D03*
X8200000Y-20000000D03*
X8300000Y-21400000D03*
X8300000Y-22700000D03*
X12000000Y-21000000D03*
X13800000Y-31000000D03*
X14000000Y-29600000D03*
X15800000Y-32200000D03*
X16600000Y-33200000D03*
X19500000Y-57700000D03*
X21000000Y-82000000D03*
X21117500Y-57000000D03*
X21600000Y-58900000D03*
X22200000Y-26900000D03*
X22300000Y-61500000D03*
X25300000Y-81300000D03*
X25500000Y-46500000D03*
X26500000Y-63900000D03*
X27373240Y-60626760D03*
X28900000Y-81200000D03*
X29500000Y-62300000D03*
X31997500Y-44100000D03*
X32400000Y-46300000D03*
X32600000Y-81300000D03*
X36200000Y-81400000D03*
X39800000Y-81300000D03*
X43376095Y-25891257D03*
X43400000Y-81300000D03*
X44000000Y-37600000D03*
X44200000Y-24200000D03*
X44400000Y-27800000D03*
X44400000Y-47600000D03*
X44800000Y-53600000D03*
X44800000Y-63800000D03*
X47000000Y-81600000D03*
X47600000Y-42600000D03*
X47800000Y-63800000D03*
X49086289Y-21554516D03*
X49735310Y-19198496D03*
X49800000Y-40800000D03*
X50116990Y-23916990D03*
X50200000Y-22000000D03*
X50200000Y-65150500D03*
X50225500Y-25251160D03*
X50400000Y-18200000D03*
X50700000Y-81400000D03*
X51900000Y-14000000D03*
X52100000Y-72000000D03*
X52200000Y-18000000D03*
X52460209Y-19170939D03*
X53200000Y-72000000D03*
X53800000Y-28800000D03*
X54200000Y-65150500D03*
X54300000Y-81200000D03*
X54400000Y-72000000D03*
X56500000Y-51032500D03*
X57800000Y-30400000D03*
X59000000Y-32200000D03*
X62400000Y-18400000D03*
X63900000Y-15624500D03*
X64900000Y-14800000D03*
X65100000Y-16100000D03*
D11*
%TO.C,J7*%
X3000000Y-44500000D03*
X3000000Y-47000000D03*
%TO.C,J3*%
X3520000Y-76450000D03*
%TO.C,J4*%
X3535000Y-8938000D03*
%TO.C,J3*%
X6060000Y-76450000D03*
%TO.C,J4*%
X6075000Y-8938000D03*
%TO.C,J3*%
X8600000Y-76450000D03*
%TO.C,J4*%
X8615000Y-8938000D03*
%TO.C,J1*%
X10150000Y-51100000D03*
X10150000Y-53640000D03*
X10150000Y-56180000D03*
X10150000Y-58720000D03*
X10150000Y-61260000D03*
X10150000Y-63800000D03*
%TO.C,J2*%
X16400000Y-51230000D03*
X16400000Y-53770000D03*
X16400000Y-56310000D03*
X16400000Y-58850000D03*
X16400000Y-61390000D03*
X16400000Y-63930000D03*
%TO.C,J11*%
X42225000Y-10000000D03*
X44765000Y-10000000D03*
X47305000Y-10000000D03*
X49845000Y-10000000D03*
X52385000Y-10000000D03*
X54925000Y-10000000D03*
%TO.C,J10*%
X60720000Y-9900000D03*
X63260000Y-9900000D03*
X65800000Y-9900000D03*
X68340000Y-9900000D03*
D12*
%TO.C,J9*%
X4000000Y-65000000D03*
X4000000Y-70080000D03*
%TO.C,J8*%
X27742000Y-5740000D03*
X32822000Y-5740000D03*
%TO.C,J6*%
X81000000Y-49477500D03*
X81000000Y-54557500D03*
%TO.C,J5*%
X81000000Y-61000000D03*
X81000000Y-66080000D03*
M02*
