%TF.GenerationSoftware,KiCad,Pcbnew,7.0.9*%
%TF.CreationDate,2024-06-22T09:01:39+05:30*%
%TF.ProjectId,BMS_LV_ADDON,424d535f-4c56-45f4-9144-444f4e2e6b69,rev?*%
%TF.SameCoordinates,Original*%
%TF.FileFunction,Soldermask,Top*%
%TF.FilePolarity,Negative*%
%FSLAX46Y46*%
G04 Gerber Fmt 4.6, Leading zero omitted, Abs format (unit mm)*
G04 Created by KiCad (PCBNEW 7.0.9) date 2024-06-22 09:01:39*
%MOMM*%
%LPD*%
G01*
G04 APERTURE LIST*
G04 Aperture macros list*
%AMRoundRect*
0 Rectangle with rounded corners*
0 $1 Rounding radius*
0 $2 $3 $4 $5 $6 $7 $8 $9 X,Y pos of 4 corners*
0 Add a 4 corners polygon primitive as box body*
4,1,4,$2,$3,$4,$5,$6,$7,$8,$9,$2,$3,0*
0 Add four circle primitives for the rounded corners*
1,1,$1+$1,$2,$3*
1,1,$1+$1,$4,$5*
1,1,$1+$1,$6,$7*
1,1,$1+$1,$8,$9*
0 Add four rect primitives between the rounded corners*
20,1,$1+$1,$2,$3,$4,$5,0*
20,1,$1+$1,$4,$5,$6,$7,0*
20,1,$1+$1,$6,$7,$8,$9,0*
20,1,$1+$1,$8,$9,$2,$3,0*%
G04 Aperture macros list end*
%ADD10R,1.700000X1.700000*%
%ADD11O,1.700000X1.700000*%
%ADD12RoundRect,0.250000X-0.412500X-0.650000X0.412500X-0.650000X0.412500X0.650000X-0.412500X0.650000X0*%
%ADD13RoundRect,0.250000X-0.337500X-0.475000X0.337500X-0.475000X0.337500X0.475000X-0.337500X0.475000X0*%
%ADD14RoundRect,0.075000X-0.700000X-0.075000X0.700000X-0.075000X0.700000X0.075000X-0.700000X0.075000X0*%
%ADD15RoundRect,0.075000X-0.075000X-0.700000X0.075000X-0.700000X0.075000X0.700000X-0.075000X0.700000X0*%
%ADD16RoundRect,0.250000X-0.475000X0.337500X-0.475000X-0.337500X0.475000X-0.337500X0.475000X0.337500X0*%
%ADD17RoundRect,0.250000X0.337500X0.475000X-0.337500X0.475000X-0.337500X-0.475000X0.337500X-0.475000X0*%
%ADD18RoundRect,0.237500X-0.237500X0.250000X-0.237500X-0.250000X0.237500X-0.250000X0.237500X0.250000X0*%
%ADD19RoundRect,0.237500X0.237500X-0.250000X0.237500X0.250000X-0.237500X0.250000X-0.237500X-0.250000X0*%
%ADD20RoundRect,0.237500X0.250000X0.237500X-0.250000X0.237500X-0.250000X-0.237500X0.250000X-0.237500X0*%
%ADD21RoundRect,0.237500X-0.250000X-0.237500X0.250000X-0.237500X0.250000X0.237500X-0.250000X0.237500X0*%
%ADD22RoundRect,0.250000X-1.500000X-0.650000X1.500000X-0.650000X1.500000X0.650000X-1.500000X0.650000X0*%
%ADD23RoundRect,0.150000X0.150000X-0.825000X0.150000X0.825000X-0.150000X0.825000X-0.150000X-0.825000X0*%
%ADD24RoundRect,0.250000X0.650000X-0.412500X0.650000X0.412500X-0.650000X0.412500X-0.650000X-0.412500X0*%
%ADD25R,2.000000X1.500000*%
%ADD26R,2.000000X3.800000*%
%ADD27RoundRect,0.250000X-0.650000X0.412500X-0.650000X-0.412500X0.650000X-0.412500X0.650000X0.412500X0*%
%ADD28RoundRect,0.250000X0.350000X-0.850000X0.350000X0.850000X-0.350000X0.850000X-0.350000X-0.850000X0*%
%ADD29RoundRect,0.249997X2.650003X-2.950003X2.650003X2.950003X-2.650003X2.950003X-2.650003X-2.950003X0*%
%ADD30RoundRect,0.237500X-0.237500X0.300000X-0.237500X-0.300000X0.237500X-0.300000X0.237500X0.300000X0*%
%ADD31RoundRect,0.250000X0.750000X-0.600000X0.750000X0.600000X-0.750000X0.600000X-0.750000X-0.600000X0*%
%ADD32O,2.000000X1.700000*%
%ADD33RoundRect,0.250000X1.550000X-0.650000X1.550000X0.650000X-1.550000X0.650000X-1.550000X-0.650000X0*%
%ADD34O,3.600000X1.800000*%
%ADD35R,1.780000X1.500000*%
%ADD36R,0.800000X1.900000*%
%ADD37RoundRect,0.250000X0.650000X1.550000X-0.650000X1.550000X-0.650000X-1.550000X0.650000X-1.550000X0*%
%ADD38O,1.800000X3.600000*%
%ADD39RoundRect,0.250000X-1.550000X0.650000X-1.550000X-0.650000X1.550000X-0.650000X1.550000X0.650000X0*%
%ADD40C,3.200000*%
G04 APERTURE END LIST*
D10*
%TO.C,J11*%
X54925000Y-10000000D03*
D11*
X52385000Y-10000000D03*
X49845000Y-10000000D03*
X47305000Y-10000000D03*
X44765000Y-10000000D03*
X42225000Y-10000000D03*
%TD*%
D12*
%TO.C,C19*%
X62875000Y-12900000D03*
X66000000Y-12900000D03*
%TD*%
D10*
%TO.C,J10*%
X60720000Y-9900000D03*
D11*
X63260000Y-9900000D03*
X65800000Y-9900000D03*
X68340000Y-9900000D03*
%TD*%
D13*
%TO.C,C18*%
X54925000Y-30200000D03*
X57000000Y-30200000D03*
%TD*%
D14*
%TO.C,U7*%
X47257500Y-17740000D03*
X47257500Y-18240000D03*
X47257500Y-18740000D03*
X47257500Y-19240000D03*
X47257500Y-19740000D03*
X47257500Y-20240000D03*
X47257500Y-20740000D03*
X47257500Y-21240000D03*
X47257500Y-21740000D03*
X47257500Y-22240000D03*
X47257500Y-22740000D03*
X47257500Y-23240000D03*
X47257500Y-23740000D03*
X47257500Y-24240000D03*
X47257500Y-24740000D03*
X47257500Y-25240000D03*
D15*
X49182500Y-27165000D03*
X49682500Y-27165000D03*
X50182500Y-27165000D03*
X50682500Y-27165000D03*
X51182500Y-27165000D03*
X51682500Y-27165000D03*
X52182500Y-27165000D03*
X52682500Y-27165000D03*
X53182500Y-27165000D03*
X53682500Y-27165000D03*
X54182500Y-27165000D03*
X54682500Y-27165000D03*
X55182500Y-27165000D03*
X55682500Y-27165000D03*
X56182500Y-27165000D03*
X56682500Y-27165000D03*
D14*
X58607500Y-25240000D03*
X58607500Y-24740000D03*
X58607500Y-24240000D03*
X58607500Y-23740000D03*
X58607500Y-23240000D03*
X58607500Y-22740000D03*
X58607500Y-22240000D03*
X58607500Y-21740000D03*
X58607500Y-21240000D03*
X58607500Y-20740000D03*
X58607500Y-20240000D03*
X58607500Y-19740000D03*
X58607500Y-19240000D03*
X58607500Y-18740000D03*
X58607500Y-18240000D03*
X58607500Y-17740000D03*
D15*
X56682500Y-15815000D03*
X56182500Y-15815000D03*
X55682500Y-15815000D03*
X55182500Y-15815000D03*
X54682500Y-15815000D03*
X54182500Y-15815000D03*
X53682500Y-15815000D03*
X53182500Y-15815000D03*
X52682500Y-15815000D03*
X52182500Y-15815000D03*
X51682500Y-15815000D03*
X51182500Y-15815000D03*
X50682500Y-15815000D03*
X50182500Y-15815000D03*
X49682500Y-15815000D03*
X49182500Y-15815000D03*
%TD*%
D16*
%TO.C,C17*%
X43800000Y-20962500D03*
X43800000Y-23037500D03*
%TD*%
D17*
%TO.C,C16*%
X46637500Y-26800000D03*
X44562500Y-26800000D03*
%TD*%
D16*
%TO.C,C15*%
X61400000Y-16762500D03*
X61400000Y-18837500D03*
%TD*%
D13*
%TO.C,C14*%
X49162500Y-13600000D03*
X51237500Y-13600000D03*
%TD*%
D12*
%TO.C,C13*%
X54837500Y-32600000D03*
X57962500Y-32600000D03*
%TD*%
D18*
%TO.C,R30*%
X44600000Y-44887500D03*
X44600000Y-46712500D03*
%TD*%
D19*
%TO.C,R29*%
X44600000Y-62912500D03*
X44600000Y-61087500D03*
%TD*%
D20*
%TO.C,R28*%
X46312500Y-59400000D03*
X44487500Y-59400000D03*
%TD*%
D19*
%TO.C,R27*%
X47800000Y-62912500D03*
X47800000Y-61087500D03*
%TD*%
D21*
%TO.C,R26*%
X47887500Y-57950000D03*
X49712500Y-57950000D03*
%TD*%
%TO.C,R25*%
X47887500Y-59460000D03*
X49712500Y-59460000D03*
%TD*%
D18*
%TO.C,R23*%
X53400000Y-63087500D03*
X53400000Y-64912500D03*
%TD*%
%TO.C,R22*%
X51200000Y-63087500D03*
X51200000Y-64912500D03*
%TD*%
D22*
%TO.C,D3*%
X45900000Y-39600000D03*
X50900000Y-39600000D03*
%TD*%
D13*
%TO.C,C12*%
X44617500Y-42600000D03*
X46692500Y-42600000D03*
%TD*%
%TO.C,C11*%
X51162500Y-61200000D03*
X53237500Y-61200000D03*
%TD*%
D23*
%TO.C,U6*%
X45510000Y-53950000D03*
X46780000Y-53950000D03*
X48050000Y-53950000D03*
X49320000Y-53950000D03*
X50590000Y-53950000D03*
X51860000Y-53950000D03*
X53130000Y-53950000D03*
X53130000Y-49000000D03*
X51860000Y-49000000D03*
X50590000Y-49000000D03*
X49320000Y-49000000D03*
X48050000Y-49000000D03*
X46780000Y-49000000D03*
X45510000Y-49000000D03*
%TD*%
D24*
%TO.C,C10*%
X55200000Y-54095000D03*
X55200000Y-50970000D03*
%TD*%
D25*
%TO.C,U5*%
X14207500Y-20900000D03*
D26*
X20507500Y-23200000D03*
D25*
X14207500Y-23200000D03*
X14207500Y-25500000D03*
%TD*%
D27*
%TO.C,C9*%
X23000000Y-22737500D03*
X23000000Y-25862500D03*
%TD*%
D28*
%TO.C,U4*%
X4695000Y-26825000D03*
X9255000Y-26825000D03*
D29*
X6975000Y-20525000D03*
%TD*%
D24*
%TO.C,C8*%
X11700000Y-25862500D03*
X11700000Y-22737500D03*
%TD*%
%TO.C,C7*%
X2200000Y-25062500D03*
X2200000Y-21937500D03*
%TD*%
D22*
%TO.C,D2*%
X48200000Y-73600000D03*
X53200000Y-73600000D03*
%TD*%
%TO.C,D1*%
X48200000Y-70100000D03*
X53200000Y-70100000D03*
%TD*%
D12*
%TO.C,C6*%
X6037500Y-11900000D03*
X9162500Y-11900000D03*
%TD*%
D27*
%TO.C,C5*%
X8600000Y-67037500D03*
X8600000Y-70162500D03*
%TD*%
D24*
%TO.C,C4*%
X11500000Y-38362500D03*
X11500000Y-35237500D03*
%TD*%
D27*
%TO.C,C3*%
X23117500Y-53437500D03*
X23117500Y-56562500D03*
%TD*%
D24*
%TO.C,C2*%
X2000000Y-39662500D03*
X2000000Y-36537500D03*
%TD*%
D30*
%TO.C,C1*%
X23400000Y-60037500D03*
X23400000Y-61762500D03*
%TD*%
D31*
%TO.C,J7*%
X3000000Y-47000000D03*
D32*
X3000000Y-44500000D03*
%TD*%
D33*
%TO.C,J9*%
X4000000Y-70080000D03*
D34*
X4000000Y-65000000D03*
%TD*%
D35*
%TO.C,U3*%
X34970000Y-48035000D03*
X32430000Y-48035000D03*
X32430000Y-57565000D03*
X34970000Y-57565000D03*
%TD*%
D19*
%TO.C,R24*%
X25000000Y-62612500D03*
X25000000Y-60787500D03*
%TD*%
D18*
%TO.C,R21*%
X35000000Y-44287500D03*
X35000000Y-46112500D03*
%TD*%
D19*
%TO.C,R20*%
X26500000Y-62612500D03*
X26500000Y-60787500D03*
%TD*%
D18*
%TO.C,R19*%
X33900000Y-81987500D03*
X33900000Y-83812500D03*
%TD*%
%TO.C,R18*%
X30300000Y-81987500D03*
X30300000Y-83812500D03*
%TD*%
%TO.C,R17*%
X26600000Y-81987500D03*
X26600000Y-83812500D03*
%TD*%
%TO.C,R16*%
X23000000Y-81987500D03*
X23000000Y-83812500D03*
%TD*%
D36*
%TO.C,Q9*%
X33950000Y-79900000D03*
X35850000Y-79900000D03*
X34900000Y-76900000D03*
%TD*%
%TO.C,Q8*%
X30340000Y-79900000D03*
X32240000Y-79900000D03*
X31290000Y-76900000D03*
%TD*%
%TO.C,Q7*%
X26680000Y-79900000D03*
X28580000Y-79900000D03*
X27630000Y-76900000D03*
%TD*%
%TO.C,Q6*%
X24020000Y-76900000D03*
X24970000Y-79900000D03*
X23070000Y-79900000D03*
%TD*%
D37*
%TO.C,J8*%
X32822000Y-5740000D03*
D38*
X27742000Y-5740000D03*
%TD*%
D39*
%TO.C,J6*%
X81000000Y-49477500D03*
D34*
X81000000Y-54557500D03*
%TD*%
D39*
%TO.C,J5*%
X81000000Y-61000000D03*
D34*
X81000000Y-66080000D03*
%TD*%
D18*
%TO.C,R13*%
X44700000Y-81987500D03*
X44700000Y-83812500D03*
%TD*%
D20*
%TO.C,R1*%
X32225000Y-60700000D03*
X30400000Y-60700000D03*
%TD*%
D36*
%TO.C,Q3*%
X44800000Y-79900000D03*
X46700000Y-79900000D03*
X45750000Y-76900000D03*
%TD*%
D10*
%TO.C,J3*%
X8600000Y-76450000D03*
D11*
X6060000Y-76450000D03*
X3520000Y-76450000D03*
%TD*%
D18*
%TO.C,R15*%
X52000000Y-81987500D03*
X52000000Y-83812500D03*
%TD*%
D19*
%TO.C,R2*%
X28700000Y-62612500D03*
X28700000Y-60787500D03*
%TD*%
D10*
%TO.C,J4*%
X8615000Y-8938000D03*
D11*
X6075000Y-8938000D03*
X3535000Y-8938000D03*
%TD*%
D36*
%TO.C,Q2*%
X41150000Y-79900000D03*
X43050000Y-79900000D03*
X42100000Y-76900000D03*
%TD*%
D10*
%TO.C,J1*%
X10150000Y-51100000D03*
D11*
X10150000Y-53640000D03*
X10150000Y-56180000D03*
X10150000Y-58720000D03*
X10150000Y-61260000D03*
X10150000Y-63800000D03*
%TD*%
D18*
%TO.C,R11*%
X37500000Y-81987500D03*
X37500000Y-83812500D03*
%TD*%
%TO.C,R12*%
X41100000Y-81987500D03*
X41100000Y-83812500D03*
%TD*%
D40*
%TO.C,H1*%
X14863000Y-3400000D03*
%TD*%
D18*
%TO.C,R14*%
X48400000Y-81987500D03*
X48400000Y-83812500D03*
%TD*%
D20*
%TO.C,R4*%
X20712500Y-60300000D03*
X18887500Y-60300000D03*
%TD*%
D40*
%TO.C,H3*%
X15060000Y-81660000D03*
%TD*%
D36*
%TO.C,Q5*%
X53000000Y-76900000D03*
X53950000Y-79900000D03*
X52050000Y-79900000D03*
%TD*%
D28*
%TO.C,U2*%
X4495000Y-38925000D03*
D29*
X6775000Y-32625000D03*
D28*
X9055000Y-38925000D03*
%TD*%
D23*
%TO.C,U1*%
X25212500Y-53525000D03*
X26482500Y-53525000D03*
X27752500Y-53525000D03*
X29022500Y-53525000D03*
X29022500Y-58475000D03*
X27752500Y-58475000D03*
X26482500Y-58475000D03*
X25212500Y-58475000D03*
%TD*%
D36*
%TO.C,Q4*%
X48450000Y-79900000D03*
X50350000Y-79900000D03*
X49400000Y-76900000D03*
%TD*%
%TO.C,Q1*%
X37550000Y-79900000D03*
X39450000Y-79900000D03*
X38500000Y-76900000D03*
%TD*%
D10*
%TO.C,J2*%
X16400000Y-51230000D03*
D11*
X16400000Y-53770000D03*
X16400000Y-56310000D03*
X16400000Y-58850000D03*
X16400000Y-61390000D03*
X16400000Y-63930000D03*
%TD*%
D40*
%TO.C,H4*%
X81750000Y-81720000D03*
%TD*%
D21*
%TO.C,R3*%
X18987500Y-58700000D03*
X20812500Y-58700000D03*
%TD*%
D40*
%TO.C,H2*%
X81720000Y-3400000D03*
%TD*%
M02*
