%TF.GenerationSoftware,KiCad,Pcbnew,7.0.9*%
%TF.CreationDate,2024-06-03T12:22:40+05:30*%
%TF.ProjectId,Precharge,50726563-6861-4726-9765-2e6b69636164,rev?*%
%TF.SameCoordinates,Original*%
%TF.FileFunction,Copper,L2,Bot*%
%TF.FilePolarity,Positive*%
%FSLAX46Y46*%
G04 Gerber Fmt 4.6, Leading zero omitted, Abs format (unit mm)*
G04 Created by KiCad (PCBNEW 7.0.9) date 2024-06-03 12:22:40*
%MOMM*%
%LPD*%
G01*
G04 APERTURE LIST*
G04 Aperture macros list*
%AMRoundRect*
0 Rectangle with rounded corners*
0 $1 Rounding radius*
0 $2 $3 $4 $5 $6 $7 $8 $9 X,Y pos of 4 corners*
0 Add a 4 corners polygon primitive as box body*
4,1,4,$2,$3,$4,$5,$6,$7,$8,$9,$2,$3,0*
0 Add four circle primitives for the rounded corners*
1,1,$1+$1,$2,$3*
1,1,$1+$1,$4,$5*
1,1,$1+$1,$6,$7*
1,1,$1+$1,$8,$9*
0 Add four rect primitives between the rounded corners*
20,1,$1+$1,$2,$3,$4,$5,0*
20,1,$1+$1,$4,$5,$6,$7,0*
20,1,$1+$1,$6,$7,$8,$9,0*
20,1,$1+$1,$8,$9,$2,$3,0*%
%AMOutline4P*
0 Free polygon, 4 corners , with rotation*
0 The origin of the aperture is its center*
0 number of corners: always 4*
0 $1 to $8 corner X, Y*
0 $9 Rotation angle, in degrees counterclockwise*
0 create outline with 4 corners*
4,1,4,$1,$2,$3,$4,$5,$6,$7,$8,$1,$2,$9*%
G04 Aperture macros list end*
%TA.AperFunction,ComponentPad*%
%ADD10R,1.000000X1.000000*%
%TD*%
%TA.AperFunction,ComponentPad*%
%ADD11O,1.000000X1.000000*%
%TD*%
%TA.AperFunction,SMDPad,CuDef*%
%ADD12R,1.780000X2.000000*%
%TD*%
%TA.AperFunction,SMDPad,CuDef*%
%ADD13RoundRect,0.250000X-0.350000X-0.450000X0.350000X-0.450000X0.350000X0.450000X-0.350000X0.450000X0*%
%TD*%
%TA.AperFunction,SMDPad,CuDef*%
%ADD14RoundRect,0.250000X0.450000X-0.350000X0.450000X0.350000X-0.450000X0.350000X-0.450000X-0.350000X0*%
%TD*%
%TA.AperFunction,ComponentPad*%
%ADD15RoundRect,0.250000X1.550000X-0.650000X1.550000X0.650000X-1.550000X0.650000X-1.550000X-0.650000X0*%
%TD*%
%TA.AperFunction,ComponentPad*%
%ADD16O,3.600000X1.800000*%
%TD*%
%TA.AperFunction,SMDPad,CuDef*%
%ADD17RoundRect,0.250000X-0.450000X0.350000X-0.450000X-0.350000X0.450000X-0.350000X0.450000X0.350000X0*%
%TD*%
%TA.AperFunction,ComponentPad*%
%ADD18R,1.700000X1.700000*%
%TD*%
%TA.AperFunction,ComponentPad*%
%ADD19O,1.700000X1.700000*%
%TD*%
%TA.AperFunction,ComponentPad*%
%ADD20RoundRect,0.250000X-0.600000X-0.725000X0.600000X-0.725000X0.600000X0.725000X-0.600000X0.725000X0*%
%TD*%
%TA.AperFunction,ComponentPad*%
%ADD21O,1.700000X1.950000*%
%TD*%
%TA.AperFunction,ComponentPad*%
%ADD22R,2.500000X2.500000*%
%TD*%
%TA.AperFunction,ComponentPad*%
%ADD23O,2.500000X2.500000*%
%TD*%
%TA.AperFunction,ComponentPad*%
%ADD24C,2.400000*%
%TD*%
%TA.AperFunction,ComponentPad*%
%ADD25O,2.400000X2.400000*%
%TD*%
%TA.AperFunction,ComponentPad*%
%ADD26R,13.000000X13.000000*%
%TD*%
%TA.AperFunction,ComponentPad*%
%ADD27RoundRect,0.250000X-0.650000X-1.550000X0.650000X-1.550000X0.650000X1.550000X-0.650000X1.550000X0*%
%TD*%
%TA.AperFunction,ComponentPad*%
%ADD28O,1.800000X3.600000*%
%TD*%
%TA.AperFunction,SMDPad,CuDef*%
%ADD29RoundRect,0.250000X0.350000X0.450000X-0.350000X0.450000X-0.350000X-0.450000X0.350000X-0.450000X0*%
%TD*%
%TA.AperFunction,SMDPad,CuDef*%
%ADD30R,0.800000X1.900000*%
%TD*%
%TA.AperFunction,SMDPad,CuDef*%
%ADD31Outline4P,-1.800000X-1.150000X1.800000X-0.550000X1.800000X0.550000X-1.800000X1.150000X0.000000*%
%TD*%
%TA.AperFunction,SMDPad,CuDef*%
%ADD32Outline4P,-1.800000X-1.150000X1.800000X-0.550000X1.800000X0.550000X-1.800000X1.150000X180.000000*%
%TD*%
%TA.AperFunction,ViaPad*%
%ADD33C,0.800000*%
%TD*%
%TA.AperFunction,Conductor*%
%ADD34C,0.250000*%
%TD*%
%TA.AperFunction,Conductor*%
%ADD35C,0.750000*%
%TD*%
%TA.AperFunction,Conductor*%
%ADD36C,0.700000*%
%TD*%
%TA.AperFunction,Conductor*%
%ADD37C,0.500000*%
%TD*%
G04 APERTURE END LIST*
D10*
%TO.P,J14,1,Pin_1*%
%TO.N,+12V*%
X124960000Y-47500000D03*
D11*
%TO.P,J14,2,Pin_2*%
%TO.N,Net-(J13-Pin_2)*%
X126230000Y-47500000D03*
%TO.P,J14,3,Pin_3*%
%TO.N,GND*%
X127500000Y-47500000D03*
%TD*%
D12*
%TO.P,U8,1*%
%TO.N,Net-(R16-Pad1)*%
X121730000Y-22235000D03*
%TO.P,U8,2*%
%TO.N,Net-(J9-Pin_2)*%
X124270000Y-22235000D03*
%TO.P,U8,3*%
%TO.N,GND*%
X124270000Y-31765000D03*
%TO.P,U8,4*%
%TO.N,Net-(J13-Pin_1)*%
X121730000Y-31765000D03*
%TD*%
D13*
%TO.P,R17,1*%
%TO.N,+12V*%
X120500000Y-42000000D03*
%TO.P,R17,2*%
%TO.N,Net-(J13-Pin_1)*%
X122500000Y-42000000D03*
%TD*%
D14*
%TO.P,R16,1*%
%TO.N,Net-(R16-Pad1)*%
X122000000Y-20000000D03*
%TO.P,R16,2*%
%TO.N,Net-(J9-Pin_1)*%
X122000000Y-18000000D03*
%TD*%
D15*
%TO.P,J13,1,Pin_1*%
%TO.N,Net-(J13-Pin_1)*%
X127500000Y-42500000D03*
D16*
%TO.P,J13,2,Pin_2*%
%TO.N,Net-(J13-Pin_2)*%
X127500000Y-37420000D03*
%TD*%
D10*
%TO.P,J12,1,Pin_1*%
%TO.N,Net-(J10-Pin_1)*%
X122730000Y-35000000D03*
D11*
%TO.P,J12,2,Pin_2*%
%TO.N,Net-(J11-Pin_2)*%
X121460000Y-35000000D03*
%TD*%
D10*
%TO.P,J11,1,Pin_1*%
%TO.N,GND*%
X121230000Y-38500000D03*
D11*
%TO.P,J11,2,Pin_2*%
%TO.N,Net-(J11-Pin_2)*%
X122500000Y-38500000D03*
%TD*%
%TO.P,J10,2,Pin_2*%
%TO.N,Net-(J10-Pin_2)*%
X125730000Y-35000000D03*
D10*
%TO.P,J10,1,Pin_1*%
%TO.N,Net-(J10-Pin_1)*%
X127000000Y-35000000D03*
%TD*%
D17*
%TO.P,R14,1*%
%TO.N,Net-(R14-Pad1)*%
X96000000Y-32000000D03*
%TO.P,R14,2*%
%TO.N,+12V*%
X96000000Y-34000000D03*
%TD*%
D18*
%TO.P,J9,1,Pin_1*%
%TO.N,Net-(J9-Pin_1)*%
X124775000Y-15000000D03*
D19*
%TO.P,J9,2,Pin_2*%
%TO.N,Net-(J9-Pin_2)*%
X122235000Y-15000000D03*
%TD*%
D15*
%TO.P,J4,1,Pin_1*%
%TO.N,/COM1*%
X42242500Y-40522500D03*
D16*
%TO.P,J4,2,Pin_2*%
%TO.N,Net-(J2-Pin_1)*%
X42242500Y-35442500D03*
%TD*%
D20*
%TO.P,J1,1,Pin_1*%
%TO.N,GNDD*%
X93000000Y-16000000D03*
D21*
%TO.P,J1,2,Pin_2*%
%TO.N,Net-(J1-Pin_2)*%
X95500000Y-16000000D03*
%TO.P,J1,3,Pin_3*%
%TO.N,Net-(J1-Pin_3)*%
X98000000Y-16000000D03*
%TO.P,J1,4,Pin_4*%
%TO.N,Net-(J1-Pin_4)*%
X100500000Y-16000000D03*
%TO.P,J1,5,Pin_5*%
%TO.N,Net-(J1-Pin_5)*%
X103000000Y-16000000D03*
%TO.P,J1,6,Pin_6*%
%TO.N,Net-(J1-Pin_6)*%
X105500000Y-16000000D03*
%TD*%
D22*
%TO.P,K5,1*%
%TO.N,/COM5*%
X114000000Y-46372500D03*
D23*
%TO.P,K5,2*%
%TO.N,Net-(D9-A)*%
X108000000Y-48372500D03*
%TO.P,K5,3*%
%TO.N,/NO5*%
X108000000Y-60572500D03*
%TO.P,K5,4*%
%TO.N,/NC5*%
X120000000Y-60572500D03*
%TO.P,K5,5*%
%TO.N,+12V*%
X120000000Y-48372500D03*
%TD*%
D24*
%TO.P,R9,1*%
%TO.N,/NO4*%
X89590000Y-70000000D03*
D25*
%TO.P,R9,2*%
%TO.N,Net-(H1-Pad1)*%
X81970000Y-70000000D03*
%TD*%
D26*
%TO.P,H4,1,1*%
%TO.N,/COM5*%
X106500000Y-100500000D03*
%TD*%
D27*
%TO.P,J3,1,Pin_1*%
%TO.N,+24V*%
X41137500Y-17242500D03*
D28*
%TO.P,J3,2,Pin_2*%
%TO.N,GND*%
X46217500Y-17242500D03*
%TD*%
D15*
%TO.P,J6,1,Pin_1*%
%TO.N,GND*%
X42000000Y-75000000D03*
D16*
%TO.P,J6,2,Pin_2*%
%TO.N,/NO1*%
X42000000Y-69920000D03*
%TD*%
D24*
%TO.P,R12,1*%
%TO.N,/NO5*%
X109590000Y-70000000D03*
D25*
%TO.P,R12,2*%
%TO.N,Net-(H3-Pad1)*%
X117210000Y-70000000D03*
%TD*%
D26*
%TO.P,H3,1,1*%
%TO.N,Net-(H3-Pad1)*%
X106500000Y-82500000D03*
%TD*%
D22*
%TO.P,K4,1*%
%TO.N,/COM4*%
X97000000Y-46372500D03*
D23*
%TO.P,K4,2*%
%TO.N,Net-(D8-A)*%
X91000000Y-48372500D03*
%TO.P,K4,3*%
%TO.N,/NO4*%
X91000000Y-60572500D03*
%TO.P,K4,4*%
%TO.N,/NC4*%
X103000000Y-60572500D03*
%TO.P,K4,5*%
%TO.N,+12V*%
X103000000Y-48372500D03*
%TD*%
D15*
%TO.P,J2,1,Pin_1*%
%TO.N,Net-(J2-Pin_1)*%
X42242500Y-29022500D03*
D16*
%TO.P,J2,2,Pin_2*%
%TO.N,+24V*%
X42242500Y-23942500D03*
%TD*%
D22*
%TO.P,K1,1*%
%TO.N,/COM1*%
X46000000Y-46372500D03*
D23*
%TO.P,K1,2*%
%TO.N,Net-(D1-A)*%
X40000000Y-48372500D03*
%TO.P,K1,3*%
%TO.N,/NO1*%
X40000000Y-60572500D03*
%TO.P,K1,4*%
%TO.N,/NC1*%
X52000000Y-60572500D03*
%TO.P,K1,5*%
%TO.N,+12V*%
X52000000Y-48372500D03*
%TD*%
D26*
%TO.P,H1,1,1*%
%TO.N,Net-(H1-Pad1)*%
X60000000Y-82500000D03*
%TD*%
D22*
%TO.P,K3,1*%
%TO.N,/COM3*%
X80000000Y-46372500D03*
D23*
%TO.P,K3,2*%
%TO.N,Net-(D5-A)*%
X74000000Y-48372500D03*
%TO.P,K3,3*%
%TO.N,/NO1*%
X74000000Y-60572500D03*
%TO.P,K3,4*%
%TO.N,/NC3*%
X86000000Y-60572500D03*
%TO.P,K3,5*%
%TO.N,+12V*%
X86000000Y-48372500D03*
%TD*%
D22*
%TO.P,K2,1*%
%TO.N,/COM2*%
X63000000Y-46372500D03*
D23*
%TO.P,K2,2*%
%TO.N,Net-(D2-A)*%
X57000000Y-48372500D03*
%TO.P,K2,3*%
%TO.N,/NO1*%
X57000000Y-60572500D03*
%TO.P,K2,4*%
%TO.N,/NC2*%
X69000000Y-60572500D03*
%TO.P,K2,5*%
%TO.N,+12V*%
X69000000Y-48372500D03*
%TD*%
D18*
%TO.P,J8,1,Pin_1*%
%TO.N,/NO1*%
X39000000Y-80725000D03*
D19*
%TO.P,J8,2,Pin_2*%
%TO.N,GND*%
X39000000Y-83265000D03*
%TD*%
D26*
%TO.P,H2,1,1*%
%TO.N,/COM4*%
X60000000Y-100500000D03*
%TD*%
D29*
%TO.P,R4,1*%
%TO.N,GND*%
X100000000Y-30000000D03*
%TO.P,R4,2*%
%TO.N,Net-(Q2-B)*%
X98000000Y-30000000D03*
%TD*%
D30*
%TO.P,Q5,1,B*%
%TO.N,Net-(Q5-B)*%
X116050000Y-32500000D03*
%TO.P,Q5,2,E*%
%TO.N,GND*%
X117950000Y-32500000D03*
%TO.P,Q5,3,C*%
%TO.N,Net-(D9-A)*%
X117000000Y-35500000D03*
%TD*%
D18*
%TO.P,J7,1,Pin_1*%
%TO.N,GND*%
X81275000Y-53000000D03*
D19*
%TO.P,J7,2,Pin_2*%
%TO.N,/COM3*%
X78735000Y-53000000D03*
%TD*%
D29*
%TO.P,R6,1*%
%TO.N,GND*%
X106000000Y-30000000D03*
%TO.P,R6,2*%
%TO.N,Net-(Q3-B)*%
X104000000Y-30000000D03*
%TD*%
%TO.P,R2,1*%
%TO.N,GND*%
X94000000Y-30000000D03*
%TO.P,R2,2*%
%TO.N,Net-(J10-Pin_1)*%
X92000000Y-30000000D03*
%TD*%
D30*
%TO.P,Q1,1,B*%
%TO.N,Net-(J10-Pin_1)*%
X92000000Y-32500000D03*
%TO.P,Q1,2,E*%
%TO.N,GND*%
X93900000Y-32500000D03*
%TO.P,Q1,3,C*%
%TO.N,Net-(D1-A)*%
X92950000Y-35500000D03*
%TD*%
%TO.P,Q4,1,B*%
%TO.N,Net-(Q4-B)*%
X110050000Y-32500000D03*
%TO.P,Q4,2,E*%
%TO.N,GND*%
X111950000Y-32500000D03*
%TO.P,Q4,3,C*%
%TO.N,Net-(D8-A)*%
X111000000Y-35500000D03*
%TD*%
D17*
%TO.P,R3,1*%
%TO.N,Net-(J1-Pin_3)*%
X98000000Y-18000000D03*
%TO.P,R3,2*%
%TO.N,Net-(R3-Pad2)*%
X98000000Y-20000000D03*
%TD*%
D18*
%TO.P,J5,1,Pin_1*%
%TO.N,GND*%
X64500000Y-53000000D03*
D19*
%TO.P,J5,2,Pin_2*%
%TO.N,/COM2*%
X61960000Y-53000000D03*
%TD*%
D31*
%TO.P,D6,1,K*%
%TO.N,/COM3*%
X76600000Y-57500000D03*
D32*
%TO.P,D6,2,A*%
%TO.N,GND*%
X82400000Y-57500000D03*
%TD*%
D17*
%TO.P,R5,1*%
%TO.N,Net-(J1-Pin_4)*%
X100500000Y-18000000D03*
%TO.P,R5,2*%
%TO.N,Net-(R5-Pad2)*%
X100500000Y-20000000D03*
%TD*%
%TO.P,R10,1*%
%TO.N,Net-(J1-Pin_6)*%
X105500000Y-18000000D03*
%TO.P,R10,2*%
%TO.N,Net-(R10-Pad2)*%
X105500000Y-20000000D03*
%TD*%
D31*
%TO.P,D3,1,K*%
%TO.N,/NO1*%
X43100000Y-58000000D03*
D32*
%TO.P,D3,2,A*%
%TO.N,GND*%
X48900000Y-58000000D03*
%TD*%
D31*
%TO.P,D4,1,K*%
%TO.N,/COM2*%
X60200000Y-57500000D03*
D32*
%TO.P,D4,2,A*%
%TO.N,GND*%
X66000000Y-57500000D03*
%TD*%
D17*
%TO.P,R7,1*%
%TO.N,Net-(J1-Pin_5)*%
X103000000Y-18000000D03*
%TO.P,R7,2*%
%TO.N,Net-(R7-Pad2)*%
X103000000Y-20000000D03*
%TD*%
D30*
%TO.P,Q2,1,B*%
%TO.N,Net-(Q2-B)*%
X98050000Y-32500000D03*
%TO.P,Q2,2,E*%
%TO.N,GND*%
X99950000Y-32500000D03*
%TO.P,Q2,3,C*%
%TO.N,Net-(D2-A)*%
X99000000Y-35500000D03*
%TD*%
D29*
%TO.P,R11,1*%
%TO.N,GND*%
X118000000Y-30000000D03*
%TO.P,R11,2*%
%TO.N,Net-(Q5-B)*%
X116000000Y-30000000D03*
%TD*%
D30*
%TO.P,Q3,1,B*%
%TO.N,Net-(Q3-B)*%
X104050000Y-32500000D03*
%TO.P,Q3,2,E*%
%TO.N,GND*%
X105950000Y-32500000D03*
%TO.P,Q3,3,C*%
%TO.N,Net-(D5-A)*%
X105000000Y-35500000D03*
%TD*%
D29*
%TO.P,R8,1*%
%TO.N,GND*%
X112000000Y-30000000D03*
%TO.P,R8,2*%
%TO.N,Net-(Q4-B)*%
X110000000Y-30000000D03*
%TD*%
D17*
%TO.P,R1,1*%
%TO.N,Net-(J1-Pin_2)*%
X95500000Y-18000000D03*
%TO.P,R1,2*%
%TO.N,Net-(R1-Pad2)*%
X95500000Y-20000000D03*
%TD*%
D33*
%TO.N,+12V*%
X120000000Y-40500000D03*
%TO.N,Net-(J9-Pin_1)*%
X123500000Y-17500000D03*
%TO.N,Net-(J10-Pin_1)*%
X91487701Y-28487701D03*
%TO.N,Net-(J11-Pin_2)*%
X122000000Y-30000000D03*
%TO.N,+12V*%
X96000000Y-35000000D03*
%TO.N,Net-(R14-Pad1)*%
X96000000Y-31000000D03*
%TO.N,+12V*%
X67000000Y-29900500D03*
X83301250Y-30198750D03*
%TO.N,Net-(D1-A)*%
X93500000Y-34500000D03*
%TO.N,GND*%
X56000000Y-16500000D03*
X61500000Y-18500000D03*
X58500000Y-24000000D03*
X61500000Y-20000000D03*
X66000000Y-18500000D03*
X48000000Y-59500000D03*
X86500000Y-16000000D03*
X66000000Y-20000000D03*
X86500000Y-22000000D03*
X69000000Y-18500000D03*
X86500000Y-19000000D03*
X77500000Y-31000000D03*
X64000000Y-20000000D03*
X66000000Y-16000000D03*
X69500000Y-27500000D03*
X64000000Y-18500000D03*
X64000000Y-16000000D03*
X69000000Y-16000000D03*
X61500000Y-16000000D03*
X69000000Y-20000000D03*
X70500000Y-35500000D03*
%TO.N,Net-(R1-Pad2)*%
X94500000Y-20500000D03*
%TO.N,Net-(D2-A)*%
X100000000Y-34500000D03*
%TO.N,Net-(D5-A)*%
X106000000Y-34500000D03*
%TO.N,/NO1*%
X44000000Y-56000000D03*
%TO.N,Net-(Q2-B)*%
X97000000Y-30000000D03*
%TO.N,Net-(Q3-B)*%
X103000000Y-30000000D03*
%TO.N,Net-(R3-Pad2)*%
X99129878Y-20919681D03*
%TO.N,Net-(R5-Pad2)*%
X105219502Y-22000000D03*
%TO.N,Net-(D8-A)*%
X112000000Y-34500000D03*
%TO.N,Net-(D9-A)*%
X118000000Y-34500000D03*
%TO.N,Net-(Q4-B)*%
X109000000Y-30000000D03*
%TO.N,Net-(Q5-B)*%
X115000000Y-30000000D03*
%TO.N,Net-(R7-Pad2)*%
X111219502Y-21500000D03*
%TO.N,Net-(R10-Pad2)*%
X117500000Y-20500000D03*
%TD*%
D34*
%TO.N,+12V*%
X120500000Y-41000000D02*
X120000000Y-40500000D01*
X120500000Y-42000000D02*
X120500000Y-41000000D01*
%TO.N,Net-(J13-Pin_1)*%
X123250000Y-41250000D02*
X123750000Y-41250000D01*
X123750000Y-41250000D02*
X124500000Y-42000000D01*
X122500000Y-42000000D02*
X123250000Y-41250000D01*
X123500000Y-41000000D02*
X123750000Y-41250000D01*
X124500000Y-42000000D02*
X127000000Y-42000000D01*
X123555000Y-35825000D02*
X123500000Y-35880000D01*
X123500000Y-35880000D02*
X123500000Y-41000000D01*
X127000000Y-42000000D02*
X127500000Y-42500000D01*
X123555000Y-33590000D02*
X123555000Y-35825000D01*
X121730000Y-31765000D02*
X123555000Y-33590000D01*
%TO.N,Net-(J9-Pin_2)*%
X124270000Y-17035000D02*
X122235000Y-15000000D01*
X124270000Y-22235000D02*
X124270000Y-17035000D01*
%TO.N,Net-(J9-Pin_1)*%
X123000000Y-18000000D02*
X123500000Y-17500000D01*
X122000000Y-18000000D02*
X123000000Y-18000000D01*
%TO.N,Net-(R16-Pad1)*%
X122000000Y-21965000D02*
X121730000Y-22235000D01*
X122000000Y-20000000D02*
X122000000Y-21965000D01*
%TO.N,Net-(J10-Pin_1)*%
X91487701Y-28487701D02*
X91487701Y-28851305D01*
X91487701Y-28851305D02*
X92318198Y-29681802D01*
%TO.N,+12V*%
X96000000Y-34000000D02*
X96000000Y-35000000D01*
%TO.N,Net-(R14-Pad1)*%
X96000000Y-31000000D02*
X96000000Y-32000000D01*
%TO.N,+12V*%
X67000000Y-29900500D02*
X83003000Y-29900500D01*
X83003000Y-29900500D02*
X83301250Y-30198750D01*
D35*
%TO.N,Net-(D1-A)*%
X91500000Y-40000000D02*
X92950000Y-38550000D01*
X40000000Y-48372500D02*
X48372500Y-40000000D01*
D34*
X93500000Y-34500000D02*
X93500000Y-34950000D01*
D35*
X48372500Y-40000000D02*
X91500000Y-40000000D01*
X92950000Y-38550000D02*
X92950000Y-35500000D01*
D34*
X93500000Y-34950000D02*
X92950000Y-35500000D01*
%TO.N,Net-(J1-Pin_2)*%
X95500000Y-18000000D02*
X95500000Y-16000000D01*
D36*
%TO.N,GND*%
X66000000Y-57500000D02*
X64500000Y-56000000D01*
X64500000Y-56000000D02*
X64500000Y-53000000D01*
X48000000Y-58900000D02*
X48900000Y-58000000D01*
X48000000Y-59500000D02*
X48000000Y-58900000D01*
X48900000Y-58000000D02*
X48000000Y-57100000D01*
X82400000Y-57500000D02*
X81275000Y-56375000D01*
X48000000Y-57100000D02*
X48000000Y-54500000D01*
X81275000Y-56375000D02*
X81275000Y-53000000D01*
D34*
%TO.N,Net-(J10-Pin_1)*%
X92000000Y-30000000D02*
X92000000Y-32500000D01*
%TO.N,Net-(R1-Pad2)*%
X95500000Y-20000000D02*
X95000000Y-20000000D01*
X95000000Y-20000000D02*
X94500000Y-20500000D01*
D35*
%TO.N,Net-(D2-A)*%
X57000000Y-44000000D02*
X60000000Y-41000000D01*
X93500000Y-41000000D02*
X99000000Y-35500000D01*
X57000000Y-48372500D02*
X57000000Y-44000000D01*
D34*
X100000000Y-34500000D02*
X99000000Y-35500000D01*
D35*
X60000000Y-41000000D02*
X93500000Y-41000000D01*
D37*
%TO.N,/COM2*%
X61960000Y-53000000D02*
X61960000Y-47412500D01*
D34*
X61960000Y-47412500D02*
X63000000Y-46372500D01*
D36*
X60200000Y-57500000D02*
X61960000Y-55740000D01*
X61960000Y-55740000D02*
X61960000Y-53000000D01*
D34*
%TO.N,Net-(D5-A)*%
X106000000Y-34500000D02*
X105000000Y-35500000D01*
D35*
X77050000Y-41950000D02*
X93893502Y-41950000D01*
X95843502Y-40000000D02*
X98500000Y-40000000D01*
X74000000Y-48372500D02*
X74000000Y-45000000D01*
X103000000Y-35500000D02*
X105000000Y-35500000D01*
X74000000Y-45000000D02*
X77050000Y-41950000D01*
X93893502Y-41950000D02*
X95843502Y-40000000D01*
X98500000Y-40000000D02*
X103000000Y-35500000D01*
D37*
%TO.N,/COM3*%
X78735000Y-53000000D02*
X78735000Y-47637500D01*
D36*
X76600000Y-57500000D02*
X78735000Y-55365000D01*
X78735000Y-55365000D02*
X78735000Y-53000000D01*
D34*
X78735000Y-47637500D02*
X80000000Y-46372500D01*
%TO.N,Net-(J1-Pin_3)*%
X98000000Y-18000000D02*
X98000000Y-16000000D01*
%TO.N,Net-(J1-Pin_4)*%
X100500000Y-18000000D02*
X100500000Y-16000000D01*
D36*
%TO.N,/NO1*%
X43100000Y-56900000D02*
X43100000Y-58000000D01*
X44000000Y-56000000D02*
X43100000Y-56900000D01*
D34*
%TO.N,Net-(Q2-B)*%
X98000000Y-32450000D02*
X98050000Y-32500000D01*
X97000000Y-30000000D02*
X98000000Y-30000000D01*
X98000000Y-30000000D02*
X98000000Y-32450000D01*
%TO.N,Net-(Q3-B)*%
X104000000Y-30000000D02*
X104000000Y-32450000D01*
X103000000Y-30000000D02*
X104000000Y-30000000D01*
X104000000Y-32450000D02*
X104050000Y-32500000D01*
%TO.N,Net-(R3-Pad2)*%
X98000000Y-20000000D02*
X98210197Y-20000000D01*
X98210197Y-20000000D02*
X99129878Y-20919681D01*
%TO.N,Net-(R5-Pad2)*%
X100500000Y-20000000D02*
X102500000Y-22000000D01*
X102500000Y-22000000D02*
X105219502Y-22000000D01*
D35*
%TO.N,Net-(D8-A)*%
X91000000Y-46500000D02*
X96500000Y-41000000D01*
X102500000Y-41000000D02*
X108000000Y-35500000D01*
D34*
X112000000Y-34500000D02*
X111000000Y-35500000D01*
D35*
X108000000Y-35500000D02*
X111000000Y-35500000D01*
X91000000Y-48372500D02*
X91000000Y-46500000D01*
X96500000Y-41000000D02*
X102500000Y-41000000D01*
D34*
%TO.N,Net-(D9-A)*%
X118000000Y-34500000D02*
X117000000Y-35500000D01*
D35*
X108000000Y-43750000D02*
X116250000Y-35500000D01*
X108000000Y-48372500D02*
X108000000Y-43750000D01*
X116250000Y-35500000D02*
X117000000Y-35500000D01*
D34*
%TO.N,Net-(J1-Pin_5)*%
X103000000Y-18000000D02*
X103000000Y-16000000D01*
%TO.N,Net-(J1-Pin_6)*%
X105500000Y-18000000D02*
X105500000Y-16000000D01*
%TO.N,Net-(Q4-B)*%
X109000000Y-30000000D02*
X110000000Y-30000000D01*
X110000000Y-30000000D02*
X110000000Y-32450000D01*
X110000000Y-32450000D02*
X110050000Y-32500000D01*
%TO.N,Net-(Q5-B)*%
X116000000Y-32450000D02*
X116050000Y-32500000D01*
X116000000Y-30000000D02*
X116000000Y-32450000D01*
X115000000Y-30000000D02*
X116000000Y-30000000D01*
%TO.N,Net-(R7-Pad2)*%
X104275000Y-21275000D02*
X110994502Y-21275000D01*
X110994502Y-21275000D02*
X111219502Y-21500000D01*
X103000000Y-20000000D02*
X104275000Y-21275000D01*
%TO.N,Net-(R10-Pad2)*%
X117000000Y-20000000D02*
X117500000Y-20500000D01*
X105500000Y-20000000D02*
X117000000Y-20000000D01*
%TD*%
%TA.AperFunction,Conductor*%
%TO.N,GND*%
G36*
X87002208Y-13500157D02*
G01*
X87275790Y-13519724D01*
X87293291Y-13522241D01*
X87554803Y-13579129D01*
X87571762Y-13584108D01*
X87822524Y-13677638D01*
X87838616Y-13684987D01*
X88073501Y-13813244D01*
X88088375Y-13822802D01*
X88302624Y-13983188D01*
X88315994Y-13994774D01*
X88505225Y-14184005D01*
X88516811Y-14197375D01*
X88677193Y-14411619D01*
X88686758Y-14426503D01*
X88815011Y-14661382D01*
X88822361Y-14677475D01*
X88915888Y-14928229D01*
X88920872Y-14945205D01*
X88977757Y-15206702D01*
X88980275Y-15224214D01*
X88999842Y-15497789D01*
X89000000Y-15502213D01*
X89000000Y-24500000D01*
X89020357Y-24784635D01*
X89075056Y-25036078D01*
X89081014Y-25063465D01*
X89120591Y-25169575D01*
X89180736Y-25330831D01*
X89180738Y-25330835D01*
X89317489Y-25581276D01*
X89317490Y-25581277D01*
X89317493Y-25581282D01*
X89488501Y-25809721D01*
X89488505Y-25809725D01*
X89488510Y-25809731D01*
X89690268Y-26011489D01*
X89690274Y-26011494D01*
X89690279Y-26011499D01*
X89918718Y-26182507D01*
X89918722Y-26182509D01*
X89918723Y-26182510D01*
X90169164Y-26319261D01*
X90169168Y-26319263D01*
X90169170Y-26319264D01*
X90436535Y-26418986D01*
X90575952Y-26449314D01*
X90715364Y-26479642D01*
X90715366Y-26479642D01*
X90715370Y-26479643D01*
X91000000Y-26500000D01*
X89000000Y-26500000D01*
X89000000Y-39124500D01*
X48410600Y-39124500D01*
X48405565Y-39124295D01*
X48348654Y-39119660D01*
X48266058Y-39130914D01*
X48183180Y-39139927D01*
X48182990Y-39139992D01*
X48160165Y-39145341D01*
X48159966Y-39145368D01*
X48081705Y-39174119D01*
X48002720Y-39200732D01*
X48002717Y-39200734D01*
X48002540Y-39200841D01*
X47981411Y-39210965D01*
X47981213Y-39211037D01*
X47910963Y-39255940D01*
X47839543Y-39298912D01*
X47839541Y-39298914D01*
X47839390Y-39299058D01*
X47820936Y-39313485D01*
X47820760Y-39313597D01*
X47820755Y-39313601D01*
X47761802Y-39372552D01*
X47701296Y-39429867D01*
X47701292Y-39429871D01*
X47701181Y-39430036D01*
X47686237Y-39448117D01*
X40506354Y-46628000D01*
X40445031Y-46661485D01*
X40395287Y-46661234D01*
X40395203Y-46661796D01*
X40391343Y-46661214D01*
X40391091Y-46661213D01*
X40390615Y-46661104D01*
X40131187Y-46622000D01*
X40131182Y-46622000D01*
X39868818Y-46622000D01*
X39868812Y-46622000D01*
X39707247Y-46646353D01*
X39609385Y-46661104D01*
X39609382Y-46661105D01*
X39609376Y-46661106D01*
X39358673Y-46738438D01*
X39122303Y-46852267D01*
X39122302Y-46852268D01*
X38905520Y-47000067D01*
X38713198Y-47178514D01*
X38549614Y-47383643D01*
X38418432Y-47610856D01*
X38322582Y-47855078D01*
X38322576Y-47855097D01*
X38264197Y-48110874D01*
X38264196Y-48110879D01*
X38244592Y-48372495D01*
X38244592Y-48372504D01*
X38264196Y-48634120D01*
X38264197Y-48634125D01*
X38322576Y-48889902D01*
X38322578Y-48889911D01*
X38322580Y-48889916D01*
X38418432Y-49134143D01*
X38549614Y-49361357D01*
X38681736Y-49527033D01*
X38713198Y-49566485D01*
X38894753Y-49734941D01*
X38905521Y-49744933D01*
X39122296Y-49892728D01*
X39122301Y-49892730D01*
X39122302Y-49892731D01*
X39122303Y-49892732D01*
X39247843Y-49953188D01*
X39358673Y-50006561D01*
X39358674Y-50006561D01*
X39358677Y-50006563D01*
X39609385Y-50083896D01*
X39868818Y-50123000D01*
X40131182Y-50123000D01*
X40390615Y-50083896D01*
X40641323Y-50006563D01*
X40877704Y-49892728D01*
X41094479Y-49744933D01*
X41286805Y-49566481D01*
X41450386Y-49361357D01*
X41581568Y-49134143D01*
X41677420Y-48889916D01*
X41735802Y-48634130D01*
X41755408Y-48372504D01*
X50244592Y-48372504D01*
X50264196Y-48634120D01*
X50264197Y-48634125D01*
X50322576Y-48889902D01*
X50322578Y-48889911D01*
X50322580Y-48889916D01*
X50418432Y-49134143D01*
X50549614Y-49361357D01*
X50681736Y-49527033D01*
X50713198Y-49566485D01*
X50894753Y-49734941D01*
X50905521Y-49744933D01*
X51122296Y-49892728D01*
X51122301Y-49892730D01*
X51122302Y-49892731D01*
X51122303Y-49892732D01*
X51247843Y-49953188D01*
X51358673Y-50006561D01*
X51358674Y-50006561D01*
X51358677Y-50006563D01*
X51609385Y-50083896D01*
X51868818Y-50123000D01*
X52131182Y-50123000D01*
X52390615Y-50083896D01*
X52641323Y-50006563D01*
X52877704Y-49892728D01*
X53094479Y-49744933D01*
X53286805Y-49566481D01*
X53450386Y-49361357D01*
X53581568Y-49134143D01*
X53677420Y-48889916D01*
X53735802Y-48634130D01*
X53755408Y-48372500D01*
X53746003Y-48246999D01*
X53735803Y-48110879D01*
X53735802Y-48110874D01*
X53735802Y-48110870D01*
X53677420Y-47855084D01*
X53581568Y-47610857D01*
X53450386Y-47383643D01*
X53286805Y-47178519D01*
X53286804Y-47178518D01*
X53286801Y-47178514D01*
X53094479Y-47000067D01*
X53006214Y-46939889D01*
X52877704Y-46852272D01*
X52877700Y-46852270D01*
X52877697Y-46852268D01*
X52877696Y-46852267D01*
X52641325Y-46738438D01*
X52641327Y-46738438D01*
X52390623Y-46661106D01*
X52390619Y-46661105D01*
X52390615Y-46661104D01*
X52265823Y-46642294D01*
X52131187Y-46622000D01*
X52131182Y-46622000D01*
X51868818Y-46622000D01*
X51868812Y-46622000D01*
X51707247Y-46646353D01*
X51609385Y-46661104D01*
X51609382Y-46661105D01*
X51609376Y-46661106D01*
X51358673Y-46738438D01*
X51122303Y-46852267D01*
X51122302Y-46852268D01*
X50905520Y-47000067D01*
X50713198Y-47178514D01*
X50549614Y-47383643D01*
X50418432Y-47610856D01*
X50322582Y-47855078D01*
X50322576Y-47855097D01*
X50264197Y-48110874D01*
X50264196Y-48110879D01*
X50244592Y-48372495D01*
X50244592Y-48372504D01*
X41755408Y-48372504D01*
X41755408Y-48372500D01*
X41755408Y-48372495D01*
X41735803Y-48110877D01*
X41735802Y-48110873D01*
X41735802Y-48110870D01*
X41707190Y-47985515D01*
X41711463Y-47915777D01*
X41740398Y-47870244D01*
X44037821Y-45572821D01*
X44099142Y-45539338D01*
X44168834Y-45544322D01*
X44224767Y-45586194D01*
X44249184Y-45651658D01*
X44249500Y-45660504D01*
X44249500Y-47670370D01*
X44249501Y-47670376D01*
X44255908Y-47729983D01*
X44306202Y-47864828D01*
X44306206Y-47864835D01*
X44392452Y-47980044D01*
X44392455Y-47980047D01*
X44507664Y-48066293D01*
X44507671Y-48066297D01*
X44642517Y-48116591D01*
X44642516Y-48116591D01*
X44649444Y-48117335D01*
X44702127Y-48123000D01*
X47297872Y-48122999D01*
X47357483Y-48116591D01*
X47492331Y-48066296D01*
X47607546Y-47980046D01*
X47693796Y-47864831D01*
X47744091Y-47729983D01*
X47750500Y-47670373D01*
X47750499Y-45074628D01*
X47744091Y-45015017D01*
X47709145Y-44921323D01*
X47693797Y-44880171D01*
X47693793Y-44880164D01*
X47607547Y-44764955D01*
X47607544Y-44764952D01*
X47492335Y-44678706D01*
X47492328Y-44678702D01*
X47357482Y-44628408D01*
X47357483Y-44628408D01*
X47297883Y-44622001D01*
X47297881Y-44622000D01*
X47297873Y-44622000D01*
X47297865Y-44622000D01*
X45288005Y-44622000D01*
X45220966Y-44602315D01*
X45175211Y-44549511D01*
X45165267Y-44480353D01*
X45194292Y-44416797D01*
X45200324Y-44410319D01*
X48698825Y-40911819D01*
X48760148Y-40878334D01*
X48786506Y-40875500D01*
X58586994Y-40875500D01*
X58654033Y-40895185D01*
X58699788Y-40947989D01*
X58709732Y-41017147D01*
X58680707Y-41080703D01*
X58674675Y-41087181D01*
X56407873Y-43353982D01*
X56404170Y-43357396D01*
X56360641Y-43394370D01*
X56310191Y-43460737D01*
X56257970Y-43525701D01*
X56257968Y-43525704D01*
X56257879Y-43525885D01*
X56245529Y-43545796D01*
X56245400Y-43545964D01*
X56245397Y-43545970D01*
X56224605Y-43590913D01*
X56210389Y-43621640D01*
X56191798Y-43659124D01*
X56173359Y-43696305D01*
X56173354Y-43696319D01*
X56173309Y-43696503D01*
X56165527Y-43718609D01*
X56165441Y-43718794D01*
X56165438Y-43718803D01*
X56147514Y-43800229D01*
X56127399Y-43881113D01*
X56127394Y-43881310D01*
X56124545Y-43904575D01*
X56124500Y-43904778D01*
X56124500Y-43988160D01*
X56122243Y-44071473D01*
X56122278Y-44071655D01*
X56124500Y-44095023D01*
X56124500Y-46785233D01*
X56104815Y-46852272D01*
X56070352Y-46887686D01*
X55905524Y-47000064D01*
X55713198Y-47178514D01*
X55549614Y-47383643D01*
X55418432Y-47610856D01*
X55322582Y-47855078D01*
X55322576Y-47855097D01*
X55264197Y-48110874D01*
X55264196Y-48110879D01*
X55244592Y-48372495D01*
X55244592Y-48372504D01*
X55264196Y-48634120D01*
X55264197Y-48634125D01*
X55322576Y-48889902D01*
X55322578Y-48889911D01*
X55322580Y-48889916D01*
X55418432Y-49134143D01*
X55549614Y-49361357D01*
X55681736Y-49527033D01*
X55713198Y-49566485D01*
X55894753Y-49734941D01*
X55905521Y-49744933D01*
X56122296Y-49892728D01*
X56122301Y-49892730D01*
X56122302Y-49892731D01*
X56122303Y-49892732D01*
X56247843Y-49953188D01*
X56358673Y-50006561D01*
X56358674Y-50006561D01*
X56358677Y-50006563D01*
X56609385Y-50083896D01*
X56868818Y-50123000D01*
X57131182Y-50123000D01*
X57390615Y-50083896D01*
X57641323Y-50006563D01*
X57877704Y-49892728D01*
X58094479Y-49744933D01*
X58286805Y-49566481D01*
X58450386Y-49361357D01*
X58581568Y-49134143D01*
X58677420Y-48889916D01*
X58735802Y-48634130D01*
X58755408Y-48372500D01*
X58746003Y-48246999D01*
X58735803Y-48110879D01*
X58735802Y-48110874D01*
X58735802Y-48110870D01*
X58677420Y-47855084D01*
X58581568Y-47610857D01*
X58450386Y-47383643D01*
X58286805Y-47178519D01*
X58286804Y-47178518D01*
X58286801Y-47178514D01*
X58162627Y-47063299D01*
X58094479Y-47000067D01*
X58094475Y-47000064D01*
X57929648Y-46887686D01*
X57885346Y-46833657D01*
X57875500Y-46785233D01*
X57875500Y-44414006D01*
X57895185Y-44346967D01*
X57911819Y-44326325D01*
X60326325Y-41911819D01*
X60387648Y-41878334D01*
X60414006Y-41875500D01*
X75586994Y-41875500D01*
X75654033Y-41895185D01*
X75699788Y-41947989D01*
X75709732Y-42017147D01*
X75680707Y-42080703D01*
X75674675Y-42087181D01*
X73407873Y-44353982D01*
X73404170Y-44357396D01*
X73360641Y-44394370D01*
X73310191Y-44460737D01*
X73257970Y-44525701D01*
X73257968Y-44525704D01*
X73257879Y-44525885D01*
X73245529Y-44545796D01*
X73245400Y-44545964D01*
X73245397Y-44545970D01*
X73224605Y-44590913D01*
X73210389Y-44621640D01*
X73191798Y-44659124D01*
X73173359Y-44696305D01*
X73173354Y-44696319D01*
X73173309Y-44696503D01*
X73165527Y-44718609D01*
X73165441Y-44718794D01*
X73165438Y-44718803D01*
X73147514Y-44800229D01*
X73127399Y-44881113D01*
X73127394Y-44881310D01*
X73124545Y-44904575D01*
X73124500Y-44904778D01*
X73124500Y-44988160D01*
X73122243Y-45071473D01*
X73122278Y-45071655D01*
X73124500Y-45095023D01*
X73124500Y-46785233D01*
X73104815Y-46852272D01*
X73070352Y-46887686D01*
X72905524Y-47000064D01*
X72713198Y-47178514D01*
X72549614Y-47383643D01*
X72418432Y-47610856D01*
X72322582Y-47855078D01*
X72322576Y-47855097D01*
X72264197Y-48110874D01*
X72264196Y-48110879D01*
X72244592Y-48372495D01*
X72244592Y-48372504D01*
X72264196Y-48634120D01*
X72264197Y-48634125D01*
X72322576Y-48889902D01*
X72322578Y-48889911D01*
X72322580Y-48889916D01*
X72418432Y-49134143D01*
X72549614Y-49361357D01*
X72681736Y-49527033D01*
X72713198Y-49566485D01*
X72894753Y-49734941D01*
X72905521Y-49744933D01*
X73122296Y-49892728D01*
X73122301Y-49892730D01*
X73122302Y-49892731D01*
X73122303Y-49892732D01*
X73247843Y-49953188D01*
X73358673Y-50006561D01*
X73358674Y-50006561D01*
X73358677Y-50006563D01*
X73609385Y-50083896D01*
X73868818Y-50123000D01*
X74131182Y-50123000D01*
X74390615Y-50083896D01*
X74641323Y-50006563D01*
X74877704Y-49892728D01*
X75094479Y-49744933D01*
X75286805Y-49566481D01*
X75450386Y-49361357D01*
X75581568Y-49134143D01*
X75677420Y-48889916D01*
X75735802Y-48634130D01*
X75755408Y-48372500D01*
X75746003Y-48246999D01*
X75735803Y-48110879D01*
X75735802Y-48110874D01*
X75735802Y-48110870D01*
X75677420Y-47855084D01*
X75581568Y-47610857D01*
X75450386Y-47383643D01*
X75286805Y-47178519D01*
X75286804Y-47178518D01*
X75286801Y-47178514D01*
X75162627Y-47063299D01*
X75094479Y-47000067D01*
X75094475Y-47000064D01*
X74929648Y-46887686D01*
X74885346Y-46833657D01*
X74875500Y-46785233D01*
X74875500Y-45414006D01*
X74895185Y-45346967D01*
X74911819Y-45326325D01*
X77376325Y-42861819D01*
X77437648Y-42828334D01*
X77464006Y-42825500D01*
X89000000Y-42825500D01*
X89000000Y-55000000D01*
X79709500Y-55000000D01*
X79642461Y-54980315D01*
X79596706Y-54927511D01*
X79585500Y-54876000D01*
X79585500Y-54110758D01*
X79605185Y-54043719D01*
X79621813Y-54023082D01*
X79728717Y-53916178D01*
X79790036Y-53882696D01*
X79859728Y-53887680D01*
X79915662Y-53929551D01*
X79932577Y-53960528D01*
X79981646Y-54092088D01*
X79981649Y-54092093D01*
X80067809Y-54207187D01*
X80067812Y-54207190D01*
X80182906Y-54293350D01*
X80182913Y-54293354D01*
X80317620Y-54343596D01*
X80317627Y-54343598D01*
X80377155Y-54349999D01*
X80377172Y-54350000D01*
X80775000Y-54350000D01*
X80775000Y-53071889D01*
X80815507Y-53209844D01*
X80893239Y-53330798D01*
X81001900Y-53424952D01*
X81132685Y-53484680D01*
X81239237Y-53500000D01*
X81310763Y-53500000D01*
X81775000Y-53500000D01*
X81775000Y-54350000D01*
X82172828Y-54350000D01*
X82172844Y-54349999D01*
X82232372Y-54343598D01*
X82232379Y-54343596D01*
X82367086Y-54293354D01*
X82367093Y-54293350D01*
X82482187Y-54207190D01*
X82482190Y-54207187D01*
X82568350Y-54092093D01*
X82568354Y-54092086D01*
X82618596Y-53957379D01*
X82618598Y-53957372D01*
X82624999Y-53897844D01*
X82625000Y-53897827D01*
X82625000Y-53500000D01*
X81775000Y-53500000D01*
X81310763Y-53500000D01*
X81417315Y-53484680D01*
X81548100Y-53424952D01*
X81656761Y-53330798D01*
X81734493Y-53209844D01*
X81775000Y-53071889D01*
X81775000Y-52928111D01*
X81734493Y-52790156D01*
X81656761Y-52669202D01*
X81548100Y-52575048D01*
X81417315Y-52515320D01*
X81310763Y-52500000D01*
X81239237Y-52500000D01*
X81132685Y-52515320D01*
X81001900Y-52575048D01*
X80893239Y-52669202D01*
X80815507Y-52790156D01*
X80775000Y-52928111D01*
X80775000Y-51650000D01*
X81775000Y-51650000D01*
X81775000Y-52500000D01*
X82625000Y-52500000D01*
X82625000Y-52102172D01*
X82624999Y-52102155D01*
X82618598Y-52042627D01*
X82618596Y-52042620D01*
X82568354Y-51907913D01*
X82568350Y-51907906D01*
X82482190Y-51792812D01*
X82482187Y-51792809D01*
X82367093Y-51706649D01*
X82367086Y-51706645D01*
X82232379Y-51656403D01*
X82232372Y-51656401D01*
X82172844Y-51650000D01*
X81775000Y-51650000D01*
X80775000Y-51650000D01*
X80377155Y-51650000D01*
X80317627Y-51656401D01*
X80317620Y-51656403D01*
X80182913Y-51706645D01*
X80182906Y-51706649D01*
X80067812Y-51792809D01*
X80067809Y-51792812D01*
X79981649Y-51907906D01*
X79981645Y-51907913D01*
X79932578Y-52039470D01*
X79890707Y-52095404D01*
X79825242Y-52119821D01*
X79756969Y-52104969D01*
X79728715Y-52083819D01*
X79684366Y-52039470D01*
X79606401Y-51961505D01*
X79568744Y-51935137D01*
X79538375Y-51913872D01*
X79494751Y-51859294D01*
X79485500Y-51812298D01*
X79485500Y-48372504D01*
X84244592Y-48372504D01*
X84264196Y-48634120D01*
X84264197Y-48634125D01*
X84322576Y-48889902D01*
X84322578Y-48889911D01*
X84322580Y-48889916D01*
X84418432Y-49134143D01*
X84549614Y-49361357D01*
X84681736Y-49527033D01*
X84713198Y-49566485D01*
X84894753Y-49734941D01*
X84905521Y-49744933D01*
X85122296Y-49892728D01*
X85122301Y-49892730D01*
X85122302Y-49892731D01*
X85122303Y-49892732D01*
X85247843Y-49953188D01*
X85358673Y-50006561D01*
X85358674Y-50006561D01*
X85358677Y-50006563D01*
X85609385Y-50083896D01*
X85868818Y-50123000D01*
X86131182Y-50123000D01*
X86390615Y-50083896D01*
X86641323Y-50006563D01*
X86877704Y-49892728D01*
X87094479Y-49744933D01*
X87286805Y-49566481D01*
X87450386Y-49361357D01*
X87581568Y-49134143D01*
X87677420Y-48889916D01*
X87735802Y-48634130D01*
X87755408Y-48372500D01*
X87746003Y-48246999D01*
X87735803Y-48110879D01*
X87735802Y-48110874D01*
X87735802Y-48110870D01*
X87677420Y-47855084D01*
X87581568Y-47610857D01*
X87450386Y-47383643D01*
X87286805Y-47178519D01*
X87286804Y-47178518D01*
X87286801Y-47178514D01*
X87094479Y-47000067D01*
X87006214Y-46939889D01*
X86877704Y-46852272D01*
X86877700Y-46852270D01*
X86877697Y-46852268D01*
X86877696Y-46852267D01*
X86641325Y-46738438D01*
X86641327Y-46738438D01*
X86390623Y-46661106D01*
X86390619Y-46661105D01*
X86390615Y-46661104D01*
X86265823Y-46642294D01*
X86131187Y-46622000D01*
X86131182Y-46622000D01*
X85868818Y-46622000D01*
X85868812Y-46622000D01*
X85707247Y-46646353D01*
X85609385Y-46661104D01*
X85609382Y-46661105D01*
X85609376Y-46661106D01*
X85358673Y-46738438D01*
X85122303Y-46852267D01*
X85122302Y-46852268D01*
X84905520Y-47000067D01*
X84713198Y-47178514D01*
X84549614Y-47383643D01*
X84418432Y-47610856D01*
X84322582Y-47855078D01*
X84322576Y-47855097D01*
X84264197Y-48110874D01*
X84264196Y-48110879D01*
X84244592Y-48372495D01*
X84244592Y-48372504D01*
X79485500Y-48372504D01*
X79485500Y-48246999D01*
X79505185Y-48179960D01*
X79557989Y-48134205D01*
X79609500Y-48122999D01*
X81297871Y-48122999D01*
X81297872Y-48122999D01*
X81357483Y-48116591D01*
X81492331Y-48066296D01*
X81607546Y-47980046D01*
X81693796Y-47864831D01*
X81744091Y-47729983D01*
X81750500Y-47670373D01*
X81750499Y-45074628D01*
X81744091Y-45015017D01*
X81709145Y-44921323D01*
X81693797Y-44880171D01*
X81693793Y-44880164D01*
X81607547Y-44764955D01*
X81607544Y-44764952D01*
X81492335Y-44678706D01*
X81492328Y-44678702D01*
X81357482Y-44628408D01*
X81357483Y-44628408D01*
X81297883Y-44622001D01*
X81297881Y-44622000D01*
X81297873Y-44622000D01*
X81297864Y-44622000D01*
X78702129Y-44622000D01*
X78702123Y-44622001D01*
X78642516Y-44628408D01*
X78507671Y-44678702D01*
X78507664Y-44678706D01*
X78392455Y-44764952D01*
X78392452Y-44764955D01*
X78306206Y-44880164D01*
X78306202Y-44880171D01*
X78255908Y-45015017D01*
X78249501Y-45074616D01*
X78249501Y-45074623D01*
X78249500Y-45074635D01*
X78249500Y-47003394D01*
X78229815Y-47070433D01*
X78220489Y-47083100D01*
X78103698Y-47222285D01*
X78103697Y-47222287D01*
X78024961Y-47379062D01*
X77984500Y-47549781D01*
X77984500Y-51812298D01*
X77964815Y-51879337D01*
X77931625Y-51913872D01*
X77863595Y-51961507D01*
X77696505Y-52128597D01*
X77560965Y-52322169D01*
X77560964Y-52322171D01*
X77461098Y-52536335D01*
X77461094Y-52536344D01*
X77399938Y-52764586D01*
X77399936Y-52764596D01*
X77379341Y-52999999D01*
X77379341Y-53000000D01*
X77399936Y-53235403D01*
X77399938Y-53235413D01*
X77461094Y-53463655D01*
X77461096Y-53463659D01*
X77461097Y-53463663D01*
X77511505Y-53571762D01*
X77560965Y-53677830D01*
X77560967Y-53677834D01*
X77696501Y-53871395D01*
X77696506Y-53871402D01*
X77848181Y-54023077D01*
X77881666Y-54084400D01*
X77884500Y-54110758D01*
X77884500Y-54876000D01*
X77864815Y-54943039D01*
X77812011Y-54988794D01*
X77760500Y-55000000D01*
X62934500Y-55000000D01*
X62867461Y-54980315D01*
X62821706Y-54927511D01*
X62810500Y-54876000D01*
X62810500Y-54110758D01*
X62830185Y-54043719D01*
X62846813Y-54023082D01*
X62953717Y-53916178D01*
X63015036Y-53882696D01*
X63084728Y-53887680D01*
X63140662Y-53929551D01*
X63157577Y-53960528D01*
X63206646Y-54092088D01*
X63206649Y-54092093D01*
X63292809Y-54207187D01*
X63292812Y-54207190D01*
X63407906Y-54293350D01*
X63407913Y-54293354D01*
X63542620Y-54343596D01*
X63542627Y-54343598D01*
X63602155Y-54349999D01*
X63602172Y-54350000D01*
X64000000Y-54350000D01*
X64000000Y-53071889D01*
X64040507Y-53209844D01*
X64118239Y-53330798D01*
X64226900Y-53424952D01*
X64357685Y-53484680D01*
X64464237Y-53500000D01*
X64535763Y-53500000D01*
X65000000Y-53500000D01*
X65000000Y-54350000D01*
X65397828Y-54350000D01*
X65397844Y-54349999D01*
X65457372Y-54343598D01*
X65457379Y-54343596D01*
X65592086Y-54293354D01*
X65592093Y-54293350D01*
X65707187Y-54207190D01*
X65707190Y-54207187D01*
X65793350Y-54092093D01*
X65793354Y-54092086D01*
X65843596Y-53957379D01*
X65843598Y-53957372D01*
X65849999Y-53897844D01*
X65850000Y-53897827D01*
X65850000Y-53500000D01*
X65000000Y-53500000D01*
X64535763Y-53500000D01*
X64642315Y-53484680D01*
X64773100Y-53424952D01*
X64881761Y-53330798D01*
X64959493Y-53209844D01*
X65000000Y-53071889D01*
X65000000Y-52928111D01*
X64959493Y-52790156D01*
X64881761Y-52669202D01*
X64773100Y-52575048D01*
X64642315Y-52515320D01*
X64535763Y-52500000D01*
X64464237Y-52500000D01*
X64357685Y-52515320D01*
X64226900Y-52575048D01*
X64118239Y-52669202D01*
X64040507Y-52790156D01*
X64000000Y-52928111D01*
X64000000Y-51650000D01*
X65000000Y-51650000D01*
X65000000Y-52500000D01*
X65850000Y-52500000D01*
X65850000Y-52102172D01*
X65849999Y-52102155D01*
X65843598Y-52042627D01*
X65843596Y-52042620D01*
X65793354Y-51907913D01*
X65793350Y-51907906D01*
X65707190Y-51792812D01*
X65707187Y-51792809D01*
X65592093Y-51706649D01*
X65592086Y-51706645D01*
X65457379Y-51656403D01*
X65457372Y-51656401D01*
X65397844Y-51650000D01*
X65000000Y-51650000D01*
X64000000Y-51650000D01*
X63602155Y-51650000D01*
X63542627Y-51656401D01*
X63542620Y-51656403D01*
X63407913Y-51706645D01*
X63407906Y-51706649D01*
X63292812Y-51792809D01*
X63292809Y-51792812D01*
X63206649Y-51907906D01*
X63206645Y-51907913D01*
X63157578Y-52039470D01*
X63115707Y-52095404D01*
X63050242Y-52119821D01*
X62981969Y-52104969D01*
X62953715Y-52083819D01*
X62909366Y-52039470D01*
X62831401Y-51961505D01*
X62793744Y-51935137D01*
X62763375Y-51913872D01*
X62719751Y-51859294D01*
X62710500Y-51812298D01*
X62710500Y-48372504D01*
X67244592Y-48372504D01*
X67264196Y-48634120D01*
X67264197Y-48634125D01*
X67322576Y-48889902D01*
X67322578Y-48889911D01*
X67322580Y-48889916D01*
X67418432Y-49134143D01*
X67549614Y-49361357D01*
X67681736Y-49527033D01*
X67713198Y-49566485D01*
X67894753Y-49734941D01*
X67905521Y-49744933D01*
X68122296Y-49892728D01*
X68122301Y-49892730D01*
X68122302Y-49892731D01*
X68122303Y-49892732D01*
X68247843Y-49953188D01*
X68358673Y-50006561D01*
X68358674Y-50006561D01*
X68358677Y-50006563D01*
X68609385Y-50083896D01*
X68868818Y-50123000D01*
X69131182Y-50123000D01*
X69390615Y-50083896D01*
X69641323Y-50006563D01*
X69877704Y-49892728D01*
X70094479Y-49744933D01*
X70286805Y-49566481D01*
X70450386Y-49361357D01*
X70581568Y-49134143D01*
X70677420Y-48889916D01*
X70735802Y-48634130D01*
X70755408Y-48372500D01*
X70746003Y-48246999D01*
X70735803Y-48110879D01*
X70735802Y-48110874D01*
X70735802Y-48110870D01*
X70677420Y-47855084D01*
X70581568Y-47610857D01*
X70450386Y-47383643D01*
X70286805Y-47178519D01*
X70286804Y-47178518D01*
X70286801Y-47178514D01*
X70094479Y-47000067D01*
X70006214Y-46939889D01*
X69877704Y-46852272D01*
X69877700Y-46852270D01*
X69877697Y-46852268D01*
X69877696Y-46852267D01*
X69641325Y-46738438D01*
X69641327Y-46738438D01*
X69390623Y-46661106D01*
X69390619Y-46661105D01*
X69390615Y-46661104D01*
X69265823Y-46642294D01*
X69131187Y-46622000D01*
X69131182Y-46622000D01*
X68868818Y-46622000D01*
X68868812Y-46622000D01*
X68707247Y-46646353D01*
X68609385Y-46661104D01*
X68609382Y-46661105D01*
X68609376Y-46661106D01*
X68358673Y-46738438D01*
X68122303Y-46852267D01*
X68122302Y-46852268D01*
X67905520Y-47000067D01*
X67713198Y-47178514D01*
X67549614Y-47383643D01*
X67418432Y-47610856D01*
X67322582Y-47855078D01*
X67322576Y-47855097D01*
X67264197Y-48110874D01*
X67264196Y-48110879D01*
X67244592Y-48372495D01*
X67244592Y-48372504D01*
X62710500Y-48372504D01*
X62710500Y-48246999D01*
X62730185Y-48179960D01*
X62782989Y-48134205D01*
X62834500Y-48122999D01*
X64297871Y-48122999D01*
X64297872Y-48122999D01*
X64357483Y-48116591D01*
X64492331Y-48066296D01*
X64607546Y-47980046D01*
X64693796Y-47864831D01*
X64744091Y-47729983D01*
X64750500Y-47670373D01*
X64750499Y-45074628D01*
X64744091Y-45015017D01*
X64709145Y-44921323D01*
X64693797Y-44880171D01*
X64693793Y-44880164D01*
X64607547Y-44764955D01*
X64607544Y-44764952D01*
X64492335Y-44678706D01*
X64492328Y-44678702D01*
X64357482Y-44628408D01*
X64357483Y-44628408D01*
X64297883Y-44622001D01*
X64297881Y-44622000D01*
X64297873Y-44622000D01*
X64297864Y-44622000D01*
X61702129Y-44622000D01*
X61702123Y-44622001D01*
X61642516Y-44628408D01*
X61507671Y-44678702D01*
X61507664Y-44678706D01*
X61392455Y-44764952D01*
X61392452Y-44764955D01*
X61306206Y-44880164D01*
X61306202Y-44880171D01*
X61255908Y-45015017D01*
X61249501Y-45074616D01*
X61249501Y-45074623D01*
X61249500Y-45074635D01*
X61249500Y-47141509D01*
X61246158Y-47170105D01*
X61209500Y-47324780D01*
X61209500Y-51812298D01*
X61189815Y-51879337D01*
X61156625Y-51913872D01*
X61088595Y-51961507D01*
X60921505Y-52128597D01*
X60785965Y-52322169D01*
X60785964Y-52322171D01*
X60686098Y-52536335D01*
X60686094Y-52536344D01*
X60624938Y-52764586D01*
X60624936Y-52764596D01*
X60604341Y-52999999D01*
X60604341Y-53000000D01*
X60624936Y-53235403D01*
X60624938Y-53235413D01*
X60686094Y-53463655D01*
X60686096Y-53463659D01*
X60686097Y-53463663D01*
X60736505Y-53571762D01*
X60785965Y-53677830D01*
X60785967Y-53677834D01*
X60921501Y-53871395D01*
X60921506Y-53871402D01*
X61073181Y-54023077D01*
X61106666Y-54084400D01*
X61109500Y-54110758D01*
X61109500Y-54876000D01*
X61089815Y-54943039D01*
X61037011Y-54988794D01*
X60985500Y-55000000D01*
X39502214Y-55000000D01*
X39497791Y-54999842D01*
X39469503Y-54997818D01*
X39224214Y-54980275D01*
X39206702Y-54977757D01*
X38945205Y-54920872D01*
X38928229Y-54915888D01*
X38677475Y-54822361D01*
X38661382Y-54815011D01*
X38426503Y-54686758D01*
X38411619Y-54677193D01*
X38197375Y-54516811D01*
X38184005Y-54505225D01*
X37994774Y-54315994D01*
X37983188Y-54302624D01*
X37911747Y-54207190D01*
X37822802Y-54088375D01*
X37813244Y-54073501D01*
X37684987Y-53838616D01*
X37677638Y-53822524D01*
X37623670Y-53677830D01*
X37584108Y-53571762D01*
X37579129Y-53554803D01*
X37522241Y-53293291D01*
X37519724Y-53275785D01*
X37500158Y-53002210D01*
X37500000Y-52997786D01*
X37500000Y-41222501D01*
X39942000Y-41222501D01*
X39942001Y-41222518D01*
X39952500Y-41325296D01*
X39952501Y-41325299D01*
X40001875Y-41474297D01*
X40007686Y-41491834D01*
X40099788Y-41641156D01*
X40223844Y-41765212D01*
X40373166Y-41857314D01*
X40539703Y-41912499D01*
X40642491Y-41923000D01*
X43842508Y-41922999D01*
X43945297Y-41912499D01*
X44111834Y-41857314D01*
X44261156Y-41765212D01*
X44385212Y-41641156D01*
X44477314Y-41491834D01*
X44532499Y-41325297D01*
X44543000Y-41222509D01*
X44542999Y-39822492D01*
X44532499Y-39719703D01*
X44477314Y-39553166D01*
X44385212Y-39403844D01*
X44261156Y-39279788D01*
X44168388Y-39222569D01*
X44111836Y-39187687D01*
X44111831Y-39187685D01*
X44110362Y-39187198D01*
X43945297Y-39132501D01*
X43945295Y-39132500D01*
X43842510Y-39122000D01*
X40642498Y-39122000D01*
X40642481Y-39122001D01*
X40539703Y-39132500D01*
X40539700Y-39132501D01*
X40373168Y-39187685D01*
X40373163Y-39187687D01*
X40223842Y-39279789D01*
X40099789Y-39403842D01*
X40007687Y-39553163D01*
X40007685Y-39553168D01*
X39979849Y-39637170D01*
X39952501Y-39719703D01*
X39952501Y-39719704D01*
X39952500Y-39719704D01*
X39942000Y-39822483D01*
X39942000Y-41222501D01*
X37500000Y-41222501D01*
X37500000Y-35382846D01*
X39938202Y-35382846D01*
X39948319Y-35621028D01*
X39948319Y-35621032D01*
X39998545Y-35854080D01*
X40046853Y-35974297D01*
X40087436Y-36075290D01*
X40212431Y-36278295D01*
X40369936Y-36457255D01*
X40555420Y-36607023D01*
X40763546Y-36723290D01*
X40889451Y-36767775D01*
X40988329Y-36802711D01*
X41223290Y-36842999D01*
X41223298Y-36842999D01*
X41223300Y-36843000D01*
X41223301Y-36843000D01*
X43202002Y-36843000D01*
X43380036Y-36827847D01*
X43380039Y-36827846D01*
X43380041Y-36827846D01*
X43610749Y-36767775D01*
X43743473Y-36707779D01*
X43827980Y-36669580D01*
X43827981Y-36669578D01*
X43827986Y-36669577D01*
X44025503Y-36536079D01*
X44197618Y-36371121D01*
X44339379Y-36179447D01*
X44446707Y-35966574D01*
X44516516Y-35738623D01*
X44546798Y-35502154D01*
X44536680Y-35263968D01*
X44486454Y-35030919D01*
X44397564Y-34809710D01*
X44272569Y-34606705D01*
X44115064Y-34427745D01*
X43929580Y-34277977D01*
X43776488Y-34192454D01*
X43721455Y-34161710D01*
X43496670Y-34082288D01*
X43261709Y-34042000D01*
X43261700Y-34042000D01*
X41283003Y-34042000D01*
X41282998Y-34042000D01*
X41104963Y-34057152D01*
X40874251Y-34117224D01*
X40657019Y-34215419D01*
X40657011Y-34215424D01*
X40459506Y-34348913D01*
X40459497Y-34348921D01*
X40287381Y-34513879D01*
X40145623Y-34705550D01*
X40145620Y-34705554D01*
X40038296Y-34918420D01*
X40038293Y-34918426D01*
X39968483Y-35146378D01*
X39938202Y-35382846D01*
X37500000Y-35382846D01*
X37500000Y-29722501D01*
X39942000Y-29722501D01*
X39942001Y-29722518D01*
X39952500Y-29825296D01*
X39952501Y-29825299D01*
X40007685Y-29991831D01*
X40007687Y-29991836D01*
X40042569Y-30048388D01*
X40099788Y-30141156D01*
X40223844Y-30265212D01*
X40373166Y-30357314D01*
X40539703Y-30412499D01*
X40642491Y-30423000D01*
X43842508Y-30422999D01*
X43945297Y-30412499D01*
X44111834Y-30357314D01*
X44261156Y-30265212D01*
X44385212Y-30141156D01*
X44477314Y-29991834D01*
X44507579Y-29900500D01*
X66094540Y-29900500D01*
X66114326Y-30088756D01*
X66114327Y-30088759D01*
X66172818Y-30268777D01*
X66172821Y-30268784D01*
X66267467Y-30432716D01*
X66369185Y-30545685D01*
X66394129Y-30573388D01*
X66547265Y-30684648D01*
X66547270Y-30684651D01*
X66720192Y-30761642D01*
X66720197Y-30761644D01*
X66905354Y-30801000D01*
X66905355Y-30801000D01*
X67094644Y-30801000D01*
X67094646Y-30801000D01*
X67279803Y-30761644D01*
X67452730Y-30684651D01*
X67605871Y-30573388D01*
X67608788Y-30570147D01*
X67611600Y-30567026D01*
X67671087Y-30530379D01*
X67703748Y-30526000D01*
X82378789Y-30526000D01*
X82445828Y-30545685D01*
X82486175Y-30587999D01*
X82568717Y-30730966D01*
X82603264Y-30769334D01*
X82695379Y-30871638D01*
X82848515Y-30982898D01*
X82848520Y-30982901D01*
X83021442Y-31059892D01*
X83021447Y-31059894D01*
X83206604Y-31099250D01*
X83206605Y-31099250D01*
X83395894Y-31099250D01*
X83395896Y-31099250D01*
X83581053Y-31059894D01*
X83753980Y-30982901D01*
X83907121Y-30871638D01*
X84033783Y-30730966D01*
X84128429Y-30567034D01*
X84186924Y-30387006D01*
X84206710Y-30198750D01*
X84186924Y-30010494D01*
X84128429Y-29830466D01*
X84033783Y-29666534D01*
X83907121Y-29525862D01*
X83871514Y-29499992D01*
X83753984Y-29414601D01*
X83753979Y-29414598D01*
X83581057Y-29337607D01*
X83581052Y-29337605D01*
X83435251Y-29306615D01*
X83395896Y-29298250D01*
X83207518Y-29298250D01*
X83186757Y-29295295D01*
X83186601Y-29296282D01*
X83132874Y-29287772D01*
X83127152Y-29286587D01*
X83082021Y-29275000D01*
X83082019Y-29275000D01*
X83061984Y-29275000D01*
X83042586Y-29273473D01*
X83035162Y-29272297D01*
X83022805Y-29270340D01*
X83022804Y-29270340D01*
X82976416Y-29274725D01*
X82970578Y-29275000D01*
X67703748Y-29275000D01*
X67636709Y-29255315D01*
X67611600Y-29233974D01*
X67605873Y-29227614D01*
X67605869Y-29227610D01*
X67452734Y-29116351D01*
X67452729Y-29116348D01*
X67279807Y-29039357D01*
X67279802Y-29039355D01*
X67134001Y-29008365D01*
X67094646Y-29000000D01*
X66905354Y-29000000D01*
X66872897Y-29006898D01*
X66720197Y-29039355D01*
X66720192Y-29039357D01*
X66547270Y-29116348D01*
X66547265Y-29116351D01*
X66394129Y-29227611D01*
X66267466Y-29368285D01*
X66172821Y-29532215D01*
X66172818Y-29532222D01*
X66114327Y-29712240D01*
X66114326Y-29712244D01*
X66094540Y-29900500D01*
X44507579Y-29900500D01*
X44532499Y-29825297D01*
X44543000Y-29722509D01*
X44542999Y-28322492D01*
X44532499Y-28219703D01*
X44477314Y-28053166D01*
X44385212Y-27903844D01*
X44261156Y-27779788D01*
X44111834Y-27687686D01*
X43945297Y-27632501D01*
X43945295Y-27632500D01*
X43842510Y-27622000D01*
X40642498Y-27622000D01*
X40642481Y-27622001D01*
X40539703Y-27632500D01*
X40539700Y-27632501D01*
X40373168Y-27687685D01*
X40373163Y-27687687D01*
X40223842Y-27779789D01*
X40099789Y-27903842D01*
X40007687Y-28053163D01*
X40007685Y-28053168D01*
X39979849Y-28137170D01*
X39952501Y-28219703D01*
X39952501Y-28219704D01*
X39952500Y-28219704D01*
X39942000Y-28322483D01*
X39942000Y-29722501D01*
X37500000Y-29722501D01*
X37500000Y-23882846D01*
X39938202Y-23882846D01*
X39948319Y-24121028D01*
X39948319Y-24121032D01*
X39998545Y-24354080D01*
X40087435Y-24575288D01*
X40087436Y-24575290D01*
X40212431Y-24778295D01*
X40369936Y-24957255D01*
X40555420Y-25107023D01*
X40763546Y-25223290D01*
X40889451Y-25267775D01*
X40988329Y-25302711D01*
X41223290Y-25342999D01*
X41223298Y-25342999D01*
X41223300Y-25343000D01*
X41223301Y-25343000D01*
X43202002Y-25343000D01*
X43380036Y-25327847D01*
X43380039Y-25327846D01*
X43380041Y-25327846D01*
X43610749Y-25267775D01*
X43743473Y-25207779D01*
X43827980Y-25169580D01*
X43827981Y-25169578D01*
X43827986Y-25169577D01*
X44025503Y-25036079D01*
X44197618Y-24871121D01*
X44339379Y-24679447D01*
X44446707Y-24466574D01*
X44516516Y-24238623D01*
X44546798Y-24002154D01*
X44536680Y-23763968D01*
X44486454Y-23530919D01*
X44397564Y-23309710D01*
X44272569Y-23106705D01*
X44115064Y-22927745D01*
X43929580Y-22777977D01*
X43815630Y-22714320D01*
X43721455Y-22661710D01*
X43496670Y-22582288D01*
X43261709Y-22542000D01*
X43261700Y-22542000D01*
X41283003Y-22542000D01*
X41282998Y-22542000D01*
X41104963Y-22557152D01*
X40874251Y-22617224D01*
X40657019Y-22715419D01*
X40657011Y-22715424D01*
X40459506Y-22848913D01*
X40459497Y-22848921D01*
X40287381Y-23013879D01*
X40145623Y-23205550D01*
X40145620Y-23205554D01*
X40038296Y-23418420D01*
X40038293Y-23418426D01*
X39968483Y-23646378D01*
X39938202Y-23882846D01*
X37500000Y-23882846D01*
X37500000Y-18842501D01*
X39737000Y-18842501D01*
X39737001Y-18842518D01*
X39747500Y-18945296D01*
X39747501Y-18945299D01*
X39773974Y-19025188D01*
X39802686Y-19111834D01*
X39894788Y-19261156D01*
X40018844Y-19385212D01*
X40168166Y-19477314D01*
X40334703Y-19532499D01*
X40437491Y-19543000D01*
X41837508Y-19542999D01*
X41940297Y-19532499D01*
X42106834Y-19477314D01*
X42256156Y-19385212D01*
X42380212Y-19261156D01*
X42472314Y-19111834D01*
X42527499Y-18945297D01*
X42538000Y-18842509D01*
X42537999Y-17742500D01*
X44817500Y-17742500D01*
X44817500Y-18201978D01*
X44832647Y-18379950D01*
X44832648Y-18379953D01*
X44892697Y-18610578D01*
X44990860Y-18827741D01*
X44990862Y-18827744D01*
X45124312Y-19025188D01*
X45124314Y-19025190D01*
X45289206Y-19197236D01*
X45480816Y-19338950D01*
X45693611Y-19446240D01*
X45717500Y-19453555D01*
X45717500Y-17742500D01*
X44817500Y-17742500D01*
X42537999Y-17742500D01*
X42537999Y-17242500D01*
X45612323Y-17242500D01*
X45632944Y-17399131D01*
X45693401Y-17545088D01*
X45789575Y-17670425D01*
X45914912Y-17766599D01*
X46060869Y-17827056D01*
X46178177Y-17842500D01*
X46256823Y-17842500D01*
X46374131Y-17827056D01*
X46520088Y-17766599D01*
X46551495Y-17742500D01*
X46717500Y-17742500D01*
X46717500Y-19450383D01*
X46850061Y-19397116D01*
X46850063Y-19397115D01*
X47052994Y-19272166D01*
X47231889Y-19114719D01*
X47231896Y-19114713D01*
X47381602Y-18929305D01*
X47381609Y-18929295D01*
X47497831Y-18721251D01*
X47577222Y-18496552D01*
X47577226Y-18496538D01*
X47617499Y-18261667D01*
X47617500Y-18261656D01*
X47617500Y-17742500D01*
X46717500Y-17742500D01*
X46551495Y-17742500D01*
X46645425Y-17670425D01*
X46741599Y-17545089D01*
X46802056Y-17399131D01*
X46822677Y-17242500D01*
X46802056Y-17085869D01*
X46741599Y-16939912D01*
X46645425Y-16814575D01*
X46520088Y-16718401D01*
X46374131Y-16657944D01*
X46256823Y-16642500D01*
X46178177Y-16642500D01*
X46060869Y-16657944D01*
X45914912Y-16718401D01*
X45789575Y-16814575D01*
X45693401Y-16939911D01*
X45632944Y-17085869D01*
X45612323Y-17242500D01*
X42537999Y-17242500D01*
X42537999Y-16742500D01*
X44817500Y-16742500D01*
X45717500Y-16742500D01*
X45717500Y-15034614D01*
X45717499Y-15034614D01*
X45584937Y-15087883D01*
X45382005Y-15212833D01*
X45203110Y-15370280D01*
X45203103Y-15370286D01*
X45053397Y-15555694D01*
X45053390Y-15555704D01*
X44937168Y-15763748D01*
X44857777Y-15988447D01*
X44857773Y-15988461D01*
X44817500Y-16223332D01*
X44817500Y-16742500D01*
X42537999Y-16742500D01*
X42537999Y-15642492D01*
X42529132Y-15555694D01*
X42527499Y-15539703D01*
X42527498Y-15539700D01*
X42501025Y-15459811D01*
X42472314Y-15373166D01*
X42380212Y-15223844D01*
X42256156Y-15099788D01*
X42157208Y-15038757D01*
X42145350Y-15031443D01*
X46717500Y-15031443D01*
X46717500Y-16742500D01*
X47617500Y-16742500D01*
X47617500Y-16283022D01*
X47602352Y-16105049D01*
X47602351Y-16105046D01*
X47542302Y-15874421D01*
X47444139Y-15657258D01*
X47444137Y-15657255D01*
X47310687Y-15459811D01*
X47310685Y-15459809D01*
X47145793Y-15287763D01*
X46954183Y-15146049D01*
X46741384Y-15038757D01*
X46717500Y-15031443D01*
X42145350Y-15031443D01*
X42106836Y-15007687D01*
X42106831Y-15007685D01*
X42105362Y-15007198D01*
X41940297Y-14952501D01*
X41940295Y-14952500D01*
X41837510Y-14942000D01*
X40437498Y-14942000D01*
X40437481Y-14942001D01*
X40334703Y-14952500D01*
X40334700Y-14952501D01*
X40168168Y-15007685D01*
X40168163Y-15007687D01*
X40018842Y-15099789D01*
X39894789Y-15223842D01*
X39802687Y-15373163D01*
X39802686Y-15373166D01*
X39747501Y-15539703D01*
X39747501Y-15539704D01*
X39747500Y-15539704D01*
X39737000Y-15642483D01*
X39737000Y-18842501D01*
X37500000Y-18842501D01*
X37500000Y-15502213D01*
X37500158Y-15497789D01*
X37509277Y-15370286D01*
X37519724Y-15224207D01*
X37522240Y-15206710D01*
X37579130Y-14945192D01*
X37584107Y-14928241D01*
X37677640Y-14677470D01*
X37684985Y-14661388D01*
X37813248Y-14426491D01*
X37822798Y-14411630D01*
X37983195Y-14197366D01*
X37994767Y-14184012D01*
X38184012Y-13994767D01*
X38197366Y-13983195D01*
X38411630Y-13822798D01*
X38426491Y-13813248D01*
X38661388Y-13684985D01*
X38677470Y-13677640D01*
X38928241Y-13584107D01*
X38945192Y-13579130D01*
X39206710Y-13522240D01*
X39224207Y-13519724D01*
X39497791Y-13500157D01*
X39502214Y-13500000D01*
X86997786Y-13500000D01*
X87002208Y-13500157D01*
G37*
%TD.AperFunction*%
%TD*%
%TA.AperFunction,Conductor*%
%TO.N,GNDD*%
G36*
X117502208Y-13500157D02*
G01*
X117775790Y-13519724D01*
X117793291Y-13522241D01*
X118054803Y-13579129D01*
X118071762Y-13584108D01*
X118322524Y-13677638D01*
X118338616Y-13684987D01*
X118573501Y-13813244D01*
X118588375Y-13822802D01*
X118802624Y-13983188D01*
X118815994Y-13994774D01*
X119005225Y-14184005D01*
X119016811Y-14197375D01*
X119177193Y-14411619D01*
X119186758Y-14426503D01*
X119315011Y-14661382D01*
X119322361Y-14677475D01*
X119415888Y-14928229D01*
X119420872Y-14945205D01*
X119477757Y-15206702D01*
X119480275Y-15224214D01*
X119499842Y-15497789D01*
X119500000Y-15502213D01*
X119500000Y-22997786D01*
X119499842Y-23002210D01*
X119480275Y-23275785D01*
X119477757Y-23293297D01*
X119420872Y-23554794D01*
X119415888Y-23571770D01*
X119322361Y-23822524D01*
X119315011Y-23838617D01*
X119186758Y-24073496D01*
X119177193Y-24088380D01*
X119016811Y-24302624D01*
X119005225Y-24315994D01*
X118815994Y-24505225D01*
X118802624Y-24516811D01*
X118588380Y-24677193D01*
X118573496Y-24686758D01*
X118338617Y-24815011D01*
X118322524Y-24822361D01*
X118071770Y-24915888D01*
X118054794Y-24920872D01*
X117793297Y-24977757D01*
X117775785Y-24980275D01*
X117527448Y-24998036D01*
X117502208Y-24999842D01*
X117497786Y-25000000D01*
X92002214Y-25000000D01*
X91997791Y-24999842D01*
X91969503Y-24997818D01*
X91724214Y-24980275D01*
X91706702Y-24977757D01*
X91445205Y-24920872D01*
X91428229Y-24915888D01*
X91177475Y-24822361D01*
X91161382Y-24815011D01*
X90926503Y-24686758D01*
X90911619Y-24677193D01*
X90697375Y-24516811D01*
X90684005Y-24505225D01*
X90494774Y-24315994D01*
X90483188Y-24302624D01*
X90322802Y-24088375D01*
X90313244Y-24073501D01*
X90184987Y-23838616D01*
X90177638Y-23822524D01*
X90084108Y-23571762D01*
X90079129Y-23554803D01*
X90022241Y-23293291D01*
X90019724Y-23275785D01*
X90000158Y-23002210D01*
X90000000Y-22997786D01*
X90000000Y-20500000D01*
X93844722Y-20500000D01*
X93863762Y-20656818D01*
X93902080Y-20757853D01*
X93919780Y-20804523D01*
X94009517Y-20934530D01*
X94127760Y-21039283D01*
X94127762Y-21039284D01*
X94267634Y-21112696D01*
X94421014Y-21150500D01*
X94421015Y-21150500D01*
X94578985Y-21150500D01*
X94732365Y-21112696D01*
X94872240Y-21039283D01*
X94990483Y-20934530D01*
X95011514Y-20904061D01*
X95065796Y-20860069D01*
X95113565Y-20850499D01*
X95997871Y-20850499D01*
X95997872Y-20850499D01*
X96057483Y-20844091D01*
X96192331Y-20793796D01*
X96307546Y-20707546D01*
X96393796Y-20592331D01*
X96444091Y-20457483D01*
X96450500Y-20397873D01*
X96450500Y-20397870D01*
X97049500Y-20397870D01*
X97049501Y-20397876D01*
X97055908Y-20457483D01*
X97106202Y-20592328D01*
X97106206Y-20592335D01*
X97192452Y-20707544D01*
X97192455Y-20707547D01*
X97307664Y-20793793D01*
X97307671Y-20793797D01*
X97442517Y-20844091D01*
X97442516Y-20844091D01*
X97449444Y-20844835D01*
X97502127Y-20850500D01*
X98356345Y-20850499D01*
X98423384Y-20870183D01*
X98469139Y-20922987D01*
X98479441Y-20959552D01*
X98493641Y-21076500D01*
X98538763Y-21195476D01*
X98549658Y-21224204D01*
X98639395Y-21354211D01*
X98757638Y-21458964D01*
X98757640Y-21458965D01*
X98897512Y-21532377D01*
X99050892Y-21570181D01*
X99050893Y-21570181D01*
X99208863Y-21570181D01*
X99362243Y-21532377D01*
X99502118Y-21458964D01*
X99620361Y-21354211D01*
X99710098Y-21224204D01*
X99766115Y-21076499D01*
X99781784Y-20947450D01*
X99809406Y-20883273D01*
X99867340Y-20844216D01*
X99934864Y-20842732D01*
X99934965Y-20842307D01*
X99936602Y-20842693D01*
X99937192Y-20842681D01*
X99938989Y-20843257D01*
X99942516Y-20844091D01*
X99949444Y-20844835D01*
X100002127Y-20850500D01*
X100768100Y-20850499D01*
X100835139Y-20870183D01*
X100855781Y-20886818D01*
X102197849Y-22228886D01*
X102213977Y-22248745D01*
X102219916Y-22257836D01*
X102247932Y-22279641D01*
X102253693Y-22284730D01*
X102256482Y-22287519D01*
X102275483Y-22301085D01*
X102318811Y-22334809D01*
X102325704Y-22338539D01*
X102332796Y-22342006D01*
X102332801Y-22342010D01*
X102385403Y-22357670D01*
X102437338Y-22375500D01*
X102445072Y-22376790D01*
X102452910Y-22377767D01*
X102452912Y-22377768D01*
X102452913Y-22377767D01*
X102452914Y-22377768D01*
X102507756Y-22375500D01*
X104623194Y-22375500D01*
X104690233Y-22395185D01*
X104725244Y-22429061D01*
X104727665Y-22432569D01*
X104729017Y-22434528D01*
X104729019Y-22434530D01*
X104847262Y-22539283D01*
X104847264Y-22539284D01*
X104987136Y-22612696D01*
X105140516Y-22650500D01*
X105140517Y-22650500D01*
X105298487Y-22650500D01*
X105451867Y-22612696D01*
X105591742Y-22539283D01*
X105709985Y-22434530D01*
X105799722Y-22304523D01*
X105855739Y-22156818D01*
X105874780Y-22000000D01*
X105855739Y-21843182D01*
X105855738Y-21843179D01*
X105855738Y-21843178D01*
X105846368Y-21818470D01*
X105841001Y-21748807D01*
X105874149Y-21687301D01*
X105935288Y-21653480D01*
X105962310Y-21650500D01*
X110495278Y-21650500D01*
X110562317Y-21670185D01*
X110608072Y-21722989D01*
X110611218Y-21730524D01*
X110639282Y-21804523D01*
X110729019Y-21934530D01*
X110847262Y-22039283D01*
X110847264Y-22039284D01*
X110987136Y-22112696D01*
X111140516Y-22150500D01*
X111140517Y-22150500D01*
X111298487Y-22150500D01*
X111451867Y-22112696D01*
X111591742Y-22039283D01*
X111709985Y-21934530D01*
X111799722Y-21804523D01*
X111855739Y-21656818D01*
X111874780Y-21500000D01*
X111869798Y-21458965D01*
X111855739Y-21343181D01*
X111810617Y-21224205D01*
X111799722Y-21195477D01*
X111709985Y-21065470D01*
X111591742Y-20960717D01*
X111591740Y-20960716D01*
X111591739Y-20960715D01*
X111451867Y-20887303D01*
X111298488Y-20849500D01*
X111298487Y-20849500D01*
X111140517Y-20849500D01*
X111140516Y-20849500D01*
X110987136Y-20887303D01*
X110980125Y-20889963D01*
X110979432Y-20888137D01*
X110933336Y-20899500D01*
X106411571Y-20899500D01*
X106344532Y-20879815D01*
X106298777Y-20827011D01*
X106288833Y-20757853D01*
X106312305Y-20701189D01*
X106393793Y-20592335D01*
X106393792Y-20592335D01*
X106393796Y-20592331D01*
X106444091Y-20457483D01*
X106444090Y-20457483D01*
X106444582Y-20456167D01*
X106486453Y-20400233D01*
X106551917Y-20375816D01*
X106560764Y-20375500D01*
X116720722Y-20375500D01*
X116787761Y-20395185D01*
X116833516Y-20447989D01*
X116843226Y-20492626D01*
X116843818Y-20492555D01*
X116844584Y-20498868D01*
X116844722Y-20499500D01*
X116844722Y-20500000D01*
X116863762Y-20656818D01*
X116902080Y-20757853D01*
X116919780Y-20804523D01*
X117009517Y-20934530D01*
X117127760Y-21039283D01*
X117127762Y-21039284D01*
X117267634Y-21112696D01*
X117421014Y-21150500D01*
X117421015Y-21150500D01*
X117578985Y-21150500D01*
X117732365Y-21112696D01*
X117872240Y-21039283D01*
X117990483Y-20934530D01*
X118080220Y-20804523D01*
X118136237Y-20656818D01*
X118155278Y-20500000D01*
X118150116Y-20457482D01*
X118136237Y-20343181D01*
X118107414Y-20267183D01*
X118080220Y-20195477D01*
X117990483Y-20065470D01*
X117872240Y-19960717D01*
X117872238Y-19960716D01*
X117872237Y-19960715D01*
X117732365Y-19887303D01*
X117578986Y-19849500D01*
X117578985Y-19849500D01*
X117431900Y-19849500D01*
X117364861Y-19829815D01*
X117344219Y-19813181D01*
X117302149Y-19771111D01*
X117286022Y-19751252D01*
X117280086Y-19742167D01*
X117280083Y-19742163D01*
X117252074Y-19720363D01*
X117246310Y-19715272D01*
X117243515Y-19712477D01*
X117224505Y-19698906D01*
X117181189Y-19665190D01*
X117174274Y-19661448D01*
X117167200Y-19657990D01*
X117114596Y-19642329D01*
X117062658Y-19624499D01*
X117054923Y-19623208D01*
X117047085Y-19622231D01*
X116992244Y-19624500D01*
X106560764Y-19624500D01*
X106493725Y-19604815D01*
X106447970Y-19552011D01*
X106444582Y-19543833D01*
X106393797Y-19407671D01*
X106393793Y-19407664D01*
X106307547Y-19292455D01*
X106307544Y-19292452D01*
X106192335Y-19206206D01*
X106192328Y-19206202D01*
X106057482Y-19155908D01*
X106057483Y-19155908D01*
X105997883Y-19149501D01*
X105997881Y-19149500D01*
X105997873Y-19149500D01*
X105997864Y-19149500D01*
X105002129Y-19149500D01*
X105002123Y-19149501D01*
X104942516Y-19155908D01*
X104807671Y-19206202D01*
X104807664Y-19206206D01*
X104692455Y-19292452D01*
X104692452Y-19292455D01*
X104606206Y-19407664D01*
X104606202Y-19407671D01*
X104555908Y-19542517D01*
X104549501Y-19602116D01*
X104549501Y-19602123D01*
X104549500Y-19602135D01*
X104549500Y-20397870D01*
X104549501Y-20397876D01*
X104555908Y-20457483D01*
X104606202Y-20592328D01*
X104606206Y-20592335D01*
X104687695Y-20701189D01*
X104712113Y-20766653D01*
X104697262Y-20834926D01*
X104647857Y-20884332D01*
X104588429Y-20899500D01*
X104481899Y-20899500D01*
X104414860Y-20879815D01*
X104394218Y-20863181D01*
X104232226Y-20701189D01*
X103986816Y-20455778D01*
X103953333Y-20394458D01*
X103950499Y-20368108D01*
X103950499Y-19602128D01*
X103945112Y-19552011D01*
X103944091Y-19542516D01*
X103893797Y-19407671D01*
X103893793Y-19407664D01*
X103807547Y-19292455D01*
X103807544Y-19292452D01*
X103692335Y-19206206D01*
X103692328Y-19206202D01*
X103557482Y-19155908D01*
X103557483Y-19155908D01*
X103497883Y-19149501D01*
X103497881Y-19149500D01*
X103497873Y-19149500D01*
X103497864Y-19149500D01*
X102502129Y-19149500D01*
X102502123Y-19149501D01*
X102442516Y-19155908D01*
X102307671Y-19206202D01*
X102307664Y-19206206D01*
X102192455Y-19292452D01*
X102192452Y-19292455D01*
X102106206Y-19407664D01*
X102106202Y-19407671D01*
X102055908Y-19542517D01*
X102049501Y-19602116D01*
X102049501Y-19602123D01*
X102049500Y-19602135D01*
X102049500Y-20397870D01*
X102049501Y-20397876D01*
X102055908Y-20457483D01*
X102106202Y-20592328D01*
X102106206Y-20592335D01*
X102192452Y-20707544D01*
X102192455Y-20707547D01*
X102307664Y-20793793D01*
X102307671Y-20793797D01*
X102442517Y-20844091D01*
X102442516Y-20844091D01*
X102449444Y-20844835D01*
X102502127Y-20850500D01*
X103268100Y-20850499D01*
X103335139Y-20870183D01*
X103355781Y-20886818D01*
X103881782Y-21412819D01*
X103915267Y-21474142D01*
X103910283Y-21543834D01*
X103868411Y-21599767D01*
X103802947Y-21624184D01*
X103794101Y-21624500D01*
X102706899Y-21624500D01*
X102639860Y-21604815D01*
X102619218Y-21588181D01*
X101486818Y-20455780D01*
X101453333Y-20394457D01*
X101450499Y-20368107D01*
X101450499Y-19602128D01*
X101445112Y-19552011D01*
X101444091Y-19542516D01*
X101393797Y-19407671D01*
X101393793Y-19407664D01*
X101307547Y-19292455D01*
X101307544Y-19292452D01*
X101192335Y-19206206D01*
X101192328Y-19206202D01*
X101057482Y-19155908D01*
X101057483Y-19155908D01*
X100997883Y-19149501D01*
X100997881Y-19149500D01*
X100997873Y-19149500D01*
X100997864Y-19149500D01*
X100002129Y-19149500D01*
X100002123Y-19149501D01*
X99942516Y-19155908D01*
X99807671Y-19206202D01*
X99807664Y-19206206D01*
X99692455Y-19292452D01*
X99692452Y-19292455D01*
X99606206Y-19407664D01*
X99606202Y-19407671D01*
X99555908Y-19542517D01*
X99549501Y-19602116D01*
X99549501Y-19602123D01*
X99549500Y-19602135D01*
X99549500Y-20200144D01*
X99529815Y-20267183D01*
X99477011Y-20312938D01*
X99407853Y-20322882D01*
X99367873Y-20309940D01*
X99362241Y-20306984D01*
X99208864Y-20269181D01*
X99208863Y-20269181D01*
X99074499Y-20269181D01*
X99007460Y-20249496D01*
X98961705Y-20196692D01*
X98950499Y-20145181D01*
X98950499Y-19602129D01*
X98950498Y-19602123D01*
X98950497Y-19602116D01*
X98945112Y-19552011D01*
X98944091Y-19542516D01*
X98893797Y-19407671D01*
X98893793Y-19407664D01*
X98807547Y-19292455D01*
X98807544Y-19292452D01*
X98692335Y-19206206D01*
X98692328Y-19206202D01*
X98557482Y-19155908D01*
X98557483Y-19155908D01*
X98497883Y-19149501D01*
X98497881Y-19149500D01*
X98497873Y-19149500D01*
X98497864Y-19149500D01*
X97502129Y-19149500D01*
X97502123Y-19149501D01*
X97442516Y-19155908D01*
X97307671Y-19206202D01*
X97307664Y-19206206D01*
X97192455Y-19292452D01*
X97192452Y-19292455D01*
X97106206Y-19407664D01*
X97106202Y-19407671D01*
X97055908Y-19542517D01*
X97049501Y-19602116D01*
X97049501Y-19602123D01*
X97049500Y-19602135D01*
X97049500Y-20397870D01*
X96450500Y-20397870D01*
X96450499Y-19602128D01*
X96445112Y-19552011D01*
X96444091Y-19542516D01*
X96393797Y-19407671D01*
X96393793Y-19407664D01*
X96307547Y-19292455D01*
X96307544Y-19292452D01*
X96192335Y-19206206D01*
X96192328Y-19206202D01*
X96057482Y-19155908D01*
X96057483Y-19155908D01*
X95997883Y-19149501D01*
X95997881Y-19149500D01*
X95997873Y-19149500D01*
X95997864Y-19149500D01*
X95002129Y-19149500D01*
X95002123Y-19149501D01*
X94942516Y-19155908D01*
X94807671Y-19206202D01*
X94807664Y-19206206D01*
X94692455Y-19292452D01*
X94692452Y-19292455D01*
X94606206Y-19407664D01*
X94606202Y-19407671D01*
X94555908Y-19542517D01*
X94549501Y-19602116D01*
X94549501Y-19602123D01*
X94549500Y-19602135D01*
X94549500Y-19725500D01*
X94529815Y-19792539D01*
X94477011Y-19838294D01*
X94425500Y-19849500D01*
X94421014Y-19849500D01*
X94267634Y-19887303D01*
X94127762Y-19960715D01*
X94009516Y-20065471D01*
X93919781Y-20195475D01*
X93919780Y-20195476D01*
X93863762Y-20343181D01*
X93844722Y-20499999D01*
X93844722Y-20500000D01*
X90000000Y-20500000D01*
X90000000Y-16500000D01*
X91650001Y-16500000D01*
X91650001Y-16774986D01*
X91660494Y-16877697D01*
X91715641Y-17044119D01*
X91715643Y-17044124D01*
X91807684Y-17193345D01*
X91931654Y-17317315D01*
X92080875Y-17409356D01*
X92080880Y-17409358D01*
X92247302Y-17464505D01*
X92247309Y-17464506D01*
X92350019Y-17474999D01*
X92499999Y-17474999D01*
X92500000Y-17474998D01*
X92500000Y-16500000D01*
X91650001Y-16500000D01*
X90000000Y-16500000D01*
X90000000Y-16068295D01*
X92525000Y-16068295D01*
X92563481Y-16199351D01*
X92637327Y-16314258D01*
X92740555Y-16403705D01*
X92864801Y-16460446D01*
X92966025Y-16475000D01*
X93033975Y-16475000D01*
X93135199Y-16460446D01*
X93259445Y-16403705D01*
X93362673Y-16314258D01*
X93436519Y-16199351D01*
X93475000Y-16068295D01*
X93475000Y-15931705D01*
X93436519Y-15800649D01*
X93362673Y-15685742D01*
X93259445Y-15596295D01*
X93135199Y-15539554D01*
X93033975Y-15525000D01*
X92966025Y-15525000D01*
X92864801Y-15539554D01*
X92740555Y-15596295D01*
X92637327Y-15685742D01*
X92563481Y-15800649D01*
X92525000Y-15931705D01*
X92525000Y-16068295D01*
X90000000Y-16068295D01*
X90000000Y-15502213D01*
X90000079Y-15500000D01*
X91650000Y-15500000D01*
X92500000Y-15500000D01*
X92500000Y-14525000D01*
X93500000Y-14525000D01*
X93500000Y-17474999D01*
X93649972Y-17474999D01*
X93649986Y-17474998D01*
X93752697Y-17464505D01*
X93919119Y-17409358D01*
X93919124Y-17409356D01*
X94068345Y-17317315D01*
X94192315Y-17193345D01*
X94284356Y-17044124D01*
X94284358Y-17044119D01*
X94339505Y-16877697D01*
X94339506Y-16877689D01*
X94348840Y-16786326D01*
X94375236Y-16721634D01*
X94432416Y-16681482D01*
X94502227Y-16678618D01*
X94562504Y-16713951D01*
X94569668Y-16722275D01*
X94699905Y-16887883D01*
X94699908Y-16887886D01*
X94831943Y-17002295D01*
X94869716Y-17061072D01*
X94869716Y-17130942D01*
X94831942Y-17189720D01*
X94810175Y-17204834D01*
X94807671Y-17206201D01*
X94692455Y-17292452D01*
X94692452Y-17292455D01*
X94606206Y-17407664D01*
X94606202Y-17407671D01*
X94555908Y-17542517D01*
X94549501Y-17602116D01*
X94549501Y-17602123D01*
X94549500Y-17602135D01*
X94549500Y-18397870D01*
X94549501Y-18397876D01*
X94555908Y-18457483D01*
X94606202Y-18592328D01*
X94606206Y-18592335D01*
X94692452Y-18707544D01*
X94692455Y-18707547D01*
X94807664Y-18793793D01*
X94807671Y-18793797D01*
X94942517Y-18844091D01*
X94942516Y-18844091D01*
X94949444Y-18844835D01*
X95002127Y-18850500D01*
X95997872Y-18850499D01*
X96057483Y-18844091D01*
X96192331Y-18793796D01*
X96307546Y-18707546D01*
X96393796Y-18592331D01*
X96444091Y-18457483D01*
X96450500Y-18397873D01*
X96450499Y-17602128D01*
X96444091Y-17542517D01*
X96418908Y-17474999D01*
X96393797Y-17407671D01*
X96393793Y-17407664D01*
X96307547Y-17292455D01*
X96307544Y-17292452D01*
X96192334Y-17206205D01*
X96188779Y-17204264D01*
X96185916Y-17201401D01*
X96185231Y-17200888D01*
X96185304Y-17200789D01*
X96139377Y-17154855D01*
X96124529Y-17086581D01*
X96148950Y-17021119D01*
X96176283Y-16994430D01*
X96223952Y-16960486D01*
X96293179Y-16887883D01*
X96368985Y-16808379D01*
X96383158Y-16786326D01*
X96482613Y-16631572D01*
X96560725Y-16436457D01*
X96600500Y-16230085D01*
X96600500Y-16177425D01*
X96899500Y-16177425D01*
X96914472Y-16334218D01*
X96973684Y-16535875D01*
X97023019Y-16631572D01*
X97069991Y-16722686D01*
X97199905Y-16887883D01*
X97199908Y-16887886D01*
X97331943Y-17002295D01*
X97369716Y-17061072D01*
X97369716Y-17130942D01*
X97331942Y-17189720D01*
X97310175Y-17204834D01*
X97307671Y-17206201D01*
X97192455Y-17292452D01*
X97192452Y-17292455D01*
X97106206Y-17407664D01*
X97106202Y-17407671D01*
X97055908Y-17542517D01*
X97049501Y-17602116D01*
X97049501Y-17602123D01*
X97049500Y-17602135D01*
X97049500Y-18397870D01*
X97049501Y-18397876D01*
X97055908Y-18457483D01*
X97106202Y-18592328D01*
X97106206Y-18592335D01*
X97192452Y-18707544D01*
X97192455Y-18707547D01*
X97307664Y-18793793D01*
X97307671Y-18793797D01*
X97442517Y-18844091D01*
X97442516Y-18844091D01*
X97449444Y-18844835D01*
X97502127Y-18850500D01*
X98497872Y-18850499D01*
X98557483Y-18844091D01*
X98692331Y-18793796D01*
X98807546Y-18707546D01*
X98893796Y-18592331D01*
X98944091Y-18457483D01*
X98950500Y-18397873D01*
X98950499Y-17602128D01*
X98944091Y-17542517D01*
X98918908Y-17474999D01*
X98893797Y-17407671D01*
X98893793Y-17407664D01*
X98807547Y-17292455D01*
X98807544Y-17292452D01*
X98692334Y-17206205D01*
X98688779Y-17204264D01*
X98685916Y-17201401D01*
X98685231Y-17200888D01*
X98685304Y-17200789D01*
X98639377Y-17154855D01*
X98624529Y-17086581D01*
X98648950Y-17021119D01*
X98676283Y-16994430D01*
X98723952Y-16960486D01*
X98793179Y-16887883D01*
X98868985Y-16808379D01*
X98883158Y-16786326D01*
X98982613Y-16631572D01*
X99060725Y-16436457D01*
X99100500Y-16230085D01*
X99100500Y-16177425D01*
X99399500Y-16177425D01*
X99414472Y-16334218D01*
X99473684Y-16535875D01*
X99523019Y-16631572D01*
X99569991Y-16722686D01*
X99699905Y-16887883D01*
X99699908Y-16887886D01*
X99831943Y-17002295D01*
X99869716Y-17061072D01*
X99869716Y-17130942D01*
X99831942Y-17189720D01*
X99810175Y-17204834D01*
X99807671Y-17206201D01*
X99692455Y-17292452D01*
X99692452Y-17292455D01*
X99606206Y-17407664D01*
X99606202Y-17407671D01*
X99555908Y-17542517D01*
X99549501Y-17602116D01*
X99549501Y-17602123D01*
X99549500Y-17602135D01*
X99549500Y-18397870D01*
X99549501Y-18397876D01*
X99555908Y-18457483D01*
X99606202Y-18592328D01*
X99606206Y-18592335D01*
X99692452Y-18707544D01*
X99692455Y-18707547D01*
X99807664Y-18793793D01*
X99807671Y-18793797D01*
X99942517Y-18844091D01*
X99942516Y-18844091D01*
X99949444Y-18844835D01*
X100002127Y-18850500D01*
X100997872Y-18850499D01*
X101057483Y-18844091D01*
X101192331Y-18793796D01*
X101307546Y-18707546D01*
X101393796Y-18592331D01*
X101444091Y-18457483D01*
X101450500Y-18397873D01*
X101450499Y-17602128D01*
X101444091Y-17542517D01*
X101418908Y-17474999D01*
X101393797Y-17407671D01*
X101393793Y-17407664D01*
X101307547Y-17292455D01*
X101307544Y-17292452D01*
X101192334Y-17206205D01*
X101188779Y-17204264D01*
X101185916Y-17201401D01*
X101185231Y-17200888D01*
X101185304Y-17200789D01*
X101139377Y-17154855D01*
X101124529Y-17086581D01*
X101148950Y-17021119D01*
X101176283Y-16994430D01*
X101223952Y-16960486D01*
X101293179Y-16887883D01*
X101368985Y-16808379D01*
X101383158Y-16786326D01*
X101482613Y-16631572D01*
X101560725Y-16436457D01*
X101600500Y-16230085D01*
X101600500Y-16177425D01*
X101899500Y-16177425D01*
X101914472Y-16334218D01*
X101973684Y-16535875D01*
X102023019Y-16631572D01*
X102069991Y-16722686D01*
X102199905Y-16887883D01*
X102199908Y-16887886D01*
X102331943Y-17002295D01*
X102369716Y-17061072D01*
X102369716Y-17130942D01*
X102331942Y-17189720D01*
X102310175Y-17204834D01*
X102307671Y-17206201D01*
X102192455Y-17292452D01*
X102192452Y-17292455D01*
X102106206Y-17407664D01*
X102106202Y-17407671D01*
X102055908Y-17542517D01*
X102049501Y-17602116D01*
X102049501Y-17602123D01*
X102049500Y-17602135D01*
X102049500Y-18397870D01*
X102049501Y-18397876D01*
X102055908Y-18457483D01*
X102106202Y-18592328D01*
X102106206Y-18592335D01*
X102192452Y-18707544D01*
X102192455Y-18707547D01*
X102307664Y-18793793D01*
X102307671Y-18793797D01*
X102442517Y-18844091D01*
X102442516Y-18844091D01*
X102449444Y-18844835D01*
X102502127Y-18850500D01*
X103497872Y-18850499D01*
X103557483Y-18844091D01*
X103692331Y-18793796D01*
X103807546Y-18707546D01*
X103893796Y-18592331D01*
X103944091Y-18457483D01*
X103950500Y-18397873D01*
X103950499Y-17602128D01*
X103944091Y-17542517D01*
X103918908Y-17474999D01*
X103893797Y-17407671D01*
X103893793Y-17407664D01*
X103807547Y-17292455D01*
X103807544Y-17292452D01*
X103692334Y-17206205D01*
X103688779Y-17204264D01*
X103685916Y-17201401D01*
X103685231Y-17200888D01*
X103685304Y-17200789D01*
X103639377Y-17154855D01*
X103624529Y-17086581D01*
X103648950Y-17021119D01*
X103676283Y-16994430D01*
X103723952Y-16960486D01*
X103793179Y-16887883D01*
X103868985Y-16808379D01*
X103883158Y-16786326D01*
X103982613Y-16631572D01*
X104060725Y-16436457D01*
X104100500Y-16230085D01*
X104100500Y-16177425D01*
X104399500Y-16177425D01*
X104414472Y-16334218D01*
X104473684Y-16535875D01*
X104523019Y-16631572D01*
X104569991Y-16722686D01*
X104699905Y-16887883D01*
X104699908Y-16887886D01*
X104831943Y-17002295D01*
X104869716Y-17061072D01*
X104869716Y-17130942D01*
X104831942Y-17189720D01*
X104810175Y-17204834D01*
X104807671Y-17206201D01*
X104692455Y-17292452D01*
X104692452Y-17292455D01*
X104606206Y-17407664D01*
X104606202Y-17407671D01*
X104555908Y-17542517D01*
X104549501Y-17602116D01*
X104549501Y-17602123D01*
X104549500Y-17602135D01*
X104549500Y-18397870D01*
X104549501Y-18397876D01*
X104555908Y-18457483D01*
X104606202Y-18592328D01*
X104606206Y-18592335D01*
X104692452Y-18707544D01*
X104692455Y-18707547D01*
X104807664Y-18793793D01*
X104807671Y-18793797D01*
X104942517Y-18844091D01*
X104942516Y-18844091D01*
X104949444Y-18844835D01*
X105002127Y-18850500D01*
X105997872Y-18850499D01*
X106057483Y-18844091D01*
X106192331Y-18793796D01*
X106307546Y-18707546D01*
X106393796Y-18592331D01*
X106444091Y-18457483D01*
X106450500Y-18397873D01*
X106450499Y-17602128D01*
X106444091Y-17542517D01*
X106418908Y-17474999D01*
X106393797Y-17407671D01*
X106393793Y-17407664D01*
X106307547Y-17292455D01*
X106307544Y-17292452D01*
X106192334Y-17206205D01*
X106188779Y-17204264D01*
X106185916Y-17201401D01*
X106185231Y-17200888D01*
X106185304Y-17200789D01*
X106139377Y-17154855D01*
X106124529Y-17086581D01*
X106148950Y-17021119D01*
X106176283Y-16994430D01*
X106223952Y-16960486D01*
X106293179Y-16887883D01*
X106368985Y-16808379D01*
X106383158Y-16786326D01*
X106482613Y-16631572D01*
X106560725Y-16436457D01*
X106600500Y-16230085D01*
X106600500Y-15822575D01*
X106585528Y-15665782D01*
X106526316Y-15464125D01*
X106430011Y-15277318D01*
X106430009Y-15277316D01*
X106430008Y-15277313D01*
X106300094Y-15112116D01*
X106300090Y-15112112D01*
X106141253Y-14974478D01*
X105959249Y-14869398D01*
X105959245Y-14869396D01*
X105959244Y-14869396D01*
X105760633Y-14800656D01*
X105552602Y-14770746D01*
X105552598Y-14770746D01*
X105342672Y-14780745D01*
X105138421Y-14830296D01*
X105138417Y-14830298D01*
X104947256Y-14917598D01*
X104947251Y-14917601D01*
X104776046Y-15039515D01*
X104776040Y-15039520D01*
X104631014Y-15191620D01*
X104517388Y-15368425D01*
X104439274Y-15563544D01*
X104419570Y-15665782D01*
X104399500Y-15769915D01*
X104399500Y-16177425D01*
X104100500Y-16177425D01*
X104100500Y-15822575D01*
X104085528Y-15665782D01*
X104026316Y-15464125D01*
X103930011Y-15277318D01*
X103930009Y-15277316D01*
X103930008Y-15277313D01*
X103800094Y-15112116D01*
X103800090Y-15112112D01*
X103641253Y-14974478D01*
X103459249Y-14869398D01*
X103459245Y-14869396D01*
X103459244Y-14869396D01*
X103260633Y-14800656D01*
X103052602Y-14770746D01*
X103052598Y-14770746D01*
X102842672Y-14780745D01*
X102638421Y-14830296D01*
X102638417Y-14830298D01*
X102447256Y-14917598D01*
X102447251Y-14917601D01*
X102276046Y-15039515D01*
X102276040Y-15039520D01*
X102131014Y-15191620D01*
X102017388Y-15368425D01*
X101939274Y-15563544D01*
X101919570Y-15665782D01*
X101899500Y-15769915D01*
X101899500Y-16177425D01*
X101600500Y-16177425D01*
X101600500Y-15822575D01*
X101585528Y-15665782D01*
X101526316Y-15464125D01*
X101430011Y-15277318D01*
X101430009Y-15277316D01*
X101430008Y-15277313D01*
X101300094Y-15112116D01*
X101300090Y-15112112D01*
X101141253Y-14974478D01*
X100959249Y-14869398D01*
X100959245Y-14869396D01*
X100959244Y-14869396D01*
X100760633Y-14800656D01*
X100552602Y-14770746D01*
X100552598Y-14770746D01*
X100342672Y-14780745D01*
X100138421Y-14830296D01*
X100138417Y-14830298D01*
X99947256Y-14917598D01*
X99947251Y-14917601D01*
X99776046Y-15039515D01*
X99776040Y-15039520D01*
X99631014Y-15191620D01*
X99517388Y-15368425D01*
X99439274Y-15563544D01*
X99419570Y-15665782D01*
X99399500Y-15769915D01*
X99399500Y-16177425D01*
X99100500Y-16177425D01*
X99100500Y-15822575D01*
X99085528Y-15665782D01*
X99026316Y-15464125D01*
X98930011Y-15277318D01*
X98930009Y-15277316D01*
X98930008Y-15277313D01*
X98800094Y-15112116D01*
X98800090Y-15112112D01*
X98641253Y-14974478D01*
X98459249Y-14869398D01*
X98459245Y-14869396D01*
X98459244Y-14869396D01*
X98260633Y-14800656D01*
X98052602Y-14770746D01*
X98052598Y-14770746D01*
X97842672Y-14780745D01*
X97638421Y-14830296D01*
X97638417Y-14830298D01*
X97447256Y-14917598D01*
X97447251Y-14917601D01*
X97276046Y-15039515D01*
X97276040Y-15039520D01*
X97131014Y-15191620D01*
X97017388Y-15368425D01*
X96939274Y-15563544D01*
X96919570Y-15665782D01*
X96899500Y-15769915D01*
X96899500Y-16177425D01*
X96600500Y-16177425D01*
X96600500Y-15822575D01*
X96585528Y-15665782D01*
X96526316Y-15464125D01*
X96430011Y-15277318D01*
X96430009Y-15277316D01*
X96430008Y-15277313D01*
X96300094Y-15112116D01*
X96300090Y-15112112D01*
X96141253Y-14974478D01*
X95959249Y-14869398D01*
X95959245Y-14869396D01*
X95959244Y-14869396D01*
X95760633Y-14800656D01*
X95552602Y-14770746D01*
X95552598Y-14770746D01*
X95342672Y-14780745D01*
X95138421Y-14830296D01*
X95138417Y-14830298D01*
X94947256Y-14917598D01*
X94947251Y-14917601D01*
X94776046Y-15039515D01*
X94776040Y-15039520D01*
X94631014Y-15191620D01*
X94577245Y-15275286D01*
X94524441Y-15321041D01*
X94455282Y-15330984D01*
X94391726Y-15301958D01*
X94353953Y-15243180D01*
X94349572Y-15220847D01*
X94339505Y-15122303D01*
X94284358Y-14955880D01*
X94284356Y-14955875D01*
X94192315Y-14806654D01*
X94068345Y-14682684D01*
X93919124Y-14590643D01*
X93919119Y-14590641D01*
X93752697Y-14535494D01*
X93752690Y-14535493D01*
X93649986Y-14525000D01*
X93500000Y-14525000D01*
X92500000Y-14525000D01*
X92350027Y-14525000D01*
X92350012Y-14525001D01*
X92247302Y-14535494D01*
X92080880Y-14590641D01*
X92080875Y-14590643D01*
X91931654Y-14682684D01*
X91807684Y-14806654D01*
X91715643Y-14955875D01*
X91715641Y-14955880D01*
X91660494Y-15122302D01*
X91660493Y-15122309D01*
X91650000Y-15225013D01*
X91650000Y-15500000D01*
X90000079Y-15500000D01*
X90000158Y-15497789D01*
X90019724Y-15224207D01*
X90022240Y-15206710D01*
X90079130Y-14945192D01*
X90084107Y-14928241D01*
X90177640Y-14677470D01*
X90184985Y-14661388D01*
X90313248Y-14426491D01*
X90322798Y-14411630D01*
X90483195Y-14197366D01*
X90494767Y-14184012D01*
X90684012Y-13994767D01*
X90697366Y-13983195D01*
X90911630Y-13822798D01*
X90926491Y-13813248D01*
X91161388Y-13684985D01*
X91177470Y-13677640D01*
X91428241Y-13584107D01*
X91445192Y-13579130D01*
X91706710Y-13522240D01*
X91724207Y-13519724D01*
X91997791Y-13500157D01*
X92002214Y-13500000D01*
X117497786Y-13500000D01*
X117502208Y-13500157D01*
G37*
%TD.AperFunction*%
%TD*%
%TA.AperFunction,Conductor*%
%TO.N,GND*%
G36*
X93807586Y-42595185D02*
G01*
X93853341Y-42647989D01*
X93863285Y-42717147D01*
X93834260Y-42780703D01*
X93828228Y-42787181D01*
X90616208Y-45999199D01*
X90603951Y-46009020D01*
X90604134Y-46009241D01*
X90598123Y-46014213D01*
X90550772Y-46064636D01*
X90529889Y-46085519D01*
X90529877Y-46085532D01*
X90525621Y-46091017D01*
X90521837Y-46095447D01*
X90489937Y-46129418D01*
X90489936Y-46129420D01*
X90480284Y-46146976D01*
X90469610Y-46163226D01*
X90457329Y-46179061D01*
X90457324Y-46179068D01*
X90438815Y-46221838D01*
X90436245Y-46227084D01*
X90413803Y-46267906D01*
X90408822Y-46287307D01*
X90402521Y-46305710D01*
X90394562Y-46324102D01*
X90394561Y-46324105D01*
X90387271Y-46370127D01*
X90386087Y-46375846D01*
X90374501Y-46420972D01*
X90374500Y-46420982D01*
X90374500Y-46441016D01*
X90372973Y-46460415D01*
X90369840Y-46480194D01*
X90369840Y-46480195D01*
X90374225Y-46526583D01*
X90374500Y-46532421D01*
X90374500Y-46930979D01*
X90354815Y-46998018D01*
X90309519Y-47040033D01*
X90176496Y-47112022D01*
X90176494Y-47112023D01*
X89980257Y-47264761D01*
X89811833Y-47447717D01*
X89675826Y-47655893D01*
X89575936Y-47883618D01*
X89514892Y-48124675D01*
X89514890Y-48124687D01*
X89494357Y-48372494D01*
X89494357Y-48372505D01*
X89514890Y-48620312D01*
X89514892Y-48620324D01*
X89575936Y-48861381D01*
X89675826Y-49089106D01*
X89811833Y-49297282D01*
X89811836Y-49297285D01*
X89980256Y-49480238D01*
X90176491Y-49632974D01*
X90395190Y-49751328D01*
X90630386Y-49832071D01*
X90875665Y-49873000D01*
X91124335Y-49873000D01*
X91369614Y-49832071D01*
X91604810Y-49751328D01*
X91823509Y-49632974D01*
X92019744Y-49480238D01*
X92188164Y-49297285D01*
X92324173Y-49089107D01*
X92424063Y-48861381D01*
X92485108Y-48620321D01*
X92505643Y-48372500D01*
X92502576Y-48335492D01*
X92485109Y-48124687D01*
X92485107Y-48124675D01*
X92424063Y-47883618D01*
X92324173Y-47655893D01*
X92188166Y-47447717D01*
X92084396Y-47334993D01*
X92019744Y-47264762D01*
X91823509Y-47112026D01*
X91823508Y-47112025D01*
X91823505Y-47112023D01*
X91823503Y-47112022D01*
X91690481Y-47040033D01*
X91640891Y-46990813D01*
X91625500Y-46930979D01*
X91625500Y-46810452D01*
X91645185Y-46743413D01*
X91661819Y-46722771D01*
X93788319Y-44596271D01*
X93849642Y-44562786D01*
X93919334Y-44567770D01*
X93975267Y-44609642D01*
X93999684Y-44675106D01*
X94000000Y-44683952D01*
X94000000Y-54876000D01*
X93980315Y-54943039D01*
X93927511Y-54988794D01*
X93876000Y-55000000D01*
X89000000Y-55000000D01*
X89000000Y-42575500D01*
X93740547Y-42575500D01*
X93807586Y-42595185D01*
G37*
%TD.AperFunction*%
%TA.AperFunction,Conductor*%
G36*
X127002208Y-26500157D02*
G01*
X127275790Y-26519724D01*
X127293291Y-26522241D01*
X127554803Y-26579129D01*
X127571762Y-26584108D01*
X127822524Y-26677638D01*
X127838616Y-26684987D01*
X128073501Y-26813244D01*
X128088375Y-26822802D01*
X128302624Y-26983188D01*
X128315994Y-26994774D01*
X128505225Y-27184005D01*
X128516811Y-27197375D01*
X128677193Y-27411619D01*
X128686758Y-27426503D01*
X128815011Y-27661382D01*
X128822361Y-27677475D01*
X128915888Y-27928229D01*
X128920872Y-27945205D01*
X128977757Y-28206702D01*
X128980275Y-28224214D01*
X128999842Y-28497789D01*
X129000000Y-28502213D01*
X129000000Y-36233257D01*
X128980315Y-36300296D01*
X128927511Y-36346051D01*
X128858353Y-36355995D01*
X128820734Y-36344260D01*
X128817392Y-36342596D01*
X128817389Y-36342595D01*
X128612310Y-36284244D01*
X128453194Y-36269500D01*
X126546806Y-36269500D01*
X126419513Y-36281295D01*
X126387689Y-36284244D01*
X126182607Y-36342596D01*
X126182605Y-36342596D01*
X125991746Y-36437632D01*
X125821593Y-36566127D01*
X125677947Y-36723699D01*
X125565702Y-36904980D01*
X125565701Y-36904982D01*
X125500500Y-37073288D01*
X125488679Y-37103802D01*
X125449500Y-37313390D01*
X125449500Y-37526610D01*
X125488679Y-37736198D01*
X125499328Y-37763687D01*
X125553847Y-37904419D01*
X125565702Y-37935019D01*
X125677948Y-38116302D01*
X125797274Y-38247195D01*
X125821593Y-38273872D01*
X125991746Y-38402367D01*
X126182606Y-38497403D01*
X126182608Y-38497403D01*
X126182611Y-38497405D01*
X126387690Y-38555756D01*
X126546806Y-38570500D01*
X126546810Y-38570500D01*
X128453190Y-38570500D01*
X128453194Y-38570500D01*
X128612310Y-38555756D01*
X128817389Y-38497405D01*
X128820719Y-38495747D01*
X128822482Y-38495432D01*
X128822742Y-38495332D01*
X128822761Y-38495382D01*
X128889503Y-38483479D01*
X128954000Y-38510347D01*
X128993733Y-38567820D01*
X129000000Y-38606742D01*
X129000000Y-41225500D01*
X128980315Y-41292539D01*
X128927511Y-41338294D01*
X128876000Y-41349500D01*
X125902129Y-41349500D01*
X125902123Y-41349501D01*
X125842516Y-41355908D01*
X125707671Y-41406202D01*
X125707664Y-41406206D01*
X125592456Y-41492452D01*
X125592455Y-41492453D01*
X125592454Y-41492454D01*
X125530802Y-41574811D01*
X125474868Y-41616682D01*
X125431535Y-41624500D01*
X124706899Y-41624500D01*
X124639860Y-41604815D01*
X124619218Y-41588181D01*
X124338708Y-41307671D01*
X124052149Y-41021111D01*
X124036022Y-41001252D01*
X124030086Y-40992167D01*
X124030083Y-40992163D01*
X124002074Y-40970363D01*
X123996310Y-40965272D01*
X123911819Y-40880781D01*
X123878334Y-40819458D01*
X123875500Y-40793100D01*
X123875500Y-36064030D01*
X123887448Y-36016844D01*
X123886289Y-36016452D01*
X123886337Y-36016310D01*
X123888793Y-36011534D01*
X123890445Y-36005013D01*
X123893543Y-35999287D01*
X123897003Y-35992207D01*
X123897010Y-35992199D01*
X123912670Y-35939596D01*
X123930500Y-35887660D01*
X123930500Y-35887655D01*
X123931790Y-35879924D01*
X123932768Y-35872085D01*
X123930500Y-35817244D01*
X123930500Y-35000002D01*
X124974751Y-35000002D01*
X124993685Y-35168056D01*
X125049545Y-35327694D01*
X125049547Y-35327697D01*
X125139518Y-35470884D01*
X125139523Y-35470890D01*
X125259109Y-35590476D01*
X125259115Y-35590481D01*
X125402302Y-35680452D01*
X125402305Y-35680454D01*
X125402309Y-35680455D01*
X125402310Y-35680456D01*
X125474913Y-35705860D01*
X125561943Y-35736314D01*
X125729997Y-35755249D01*
X125730000Y-35755249D01*
X125730003Y-35755249D01*
X125898056Y-35736314D01*
X125899051Y-35735966D01*
X126057690Y-35680456D01*
X126057692Y-35680454D01*
X126057694Y-35680454D01*
X126057697Y-35680452D01*
X126139855Y-35628829D01*
X126207091Y-35609828D01*
X126273926Y-35630195D01*
X126308929Y-35664931D01*
X126319398Y-35680600D01*
X126402260Y-35735966D01*
X126402264Y-35735967D01*
X126475321Y-35750499D01*
X126475324Y-35750500D01*
X126475326Y-35750500D01*
X127524676Y-35750500D01*
X127524677Y-35750499D01*
X127597740Y-35735966D01*
X127680601Y-35680601D01*
X127735966Y-35597740D01*
X127750500Y-35524674D01*
X127750500Y-34475326D01*
X127750500Y-34475323D01*
X127750499Y-34475321D01*
X127735967Y-34402264D01*
X127735966Y-34402260D01*
X127714009Y-34369399D01*
X127680601Y-34319399D01*
X127597740Y-34264034D01*
X127597739Y-34264033D01*
X127597735Y-34264032D01*
X127524677Y-34249500D01*
X127524674Y-34249500D01*
X126475326Y-34249500D01*
X126475323Y-34249500D01*
X126402264Y-34264032D01*
X126402260Y-34264033D01*
X126319398Y-34319399D01*
X126308929Y-34335069D01*
X126255317Y-34379874D01*
X126185992Y-34388581D01*
X126139855Y-34371171D01*
X126057697Y-34319547D01*
X126057694Y-34319545D01*
X125898056Y-34263685D01*
X125730003Y-34244751D01*
X125729997Y-34244751D01*
X125561943Y-34263685D01*
X125402305Y-34319545D01*
X125402302Y-34319547D01*
X125259115Y-34409518D01*
X125259109Y-34409523D01*
X125139523Y-34529109D01*
X125139518Y-34529115D01*
X125049547Y-34672302D01*
X125049545Y-34672305D01*
X124993685Y-34831943D01*
X124974751Y-34999997D01*
X124974751Y-35000002D01*
X123930500Y-35000002D01*
X123930500Y-33641803D01*
X123933139Y-33616358D01*
X123933177Y-33616175D01*
X123935367Y-33605732D01*
X123933325Y-33589353D01*
X123930977Y-33570507D01*
X123930500Y-33562831D01*
X123930500Y-33558889D01*
X123930498Y-33558876D01*
X123928639Y-33547739D01*
X123926657Y-33535859D01*
X123919866Y-33481374D01*
X123919864Y-33481370D01*
X123917622Y-33473840D01*
X123915065Y-33466392D01*
X123915065Y-33466390D01*
X123888944Y-33418122D01*
X123864826Y-33368789D01*
X123864824Y-33368787D01*
X123864824Y-33368786D01*
X123860276Y-33362416D01*
X123855420Y-33356176D01*
X123855419Y-33356174D01*
X123815029Y-33318992D01*
X123806319Y-33310281D01*
X123772834Y-33248958D01*
X123770000Y-33222600D01*
X123770000Y-32265000D01*
X124770000Y-32265000D01*
X124770000Y-33265000D01*
X125207828Y-33265000D01*
X125207844Y-33264999D01*
X125267372Y-33258598D01*
X125267379Y-33258596D01*
X125402086Y-33208354D01*
X125402093Y-33208350D01*
X125517187Y-33122190D01*
X125517190Y-33122187D01*
X125603350Y-33007093D01*
X125603354Y-33007086D01*
X125653596Y-32872379D01*
X125653598Y-32872372D01*
X125659999Y-32812844D01*
X125660000Y-32812827D01*
X125660000Y-32265000D01*
X124770000Y-32265000D01*
X123770000Y-32265000D01*
X123770000Y-30265000D01*
X124770000Y-30265000D01*
X124770000Y-31265000D01*
X125660000Y-31265000D01*
X125660000Y-30717172D01*
X125659999Y-30717155D01*
X125653598Y-30657627D01*
X125653596Y-30657620D01*
X125603354Y-30522913D01*
X125603350Y-30522906D01*
X125517190Y-30407812D01*
X125517187Y-30407809D01*
X125402093Y-30321649D01*
X125402086Y-30321645D01*
X125267379Y-30271403D01*
X125267372Y-30271401D01*
X125207844Y-30265000D01*
X124770000Y-30265000D01*
X123770000Y-30265000D01*
X123332155Y-30265000D01*
X123272627Y-30271401D01*
X123272620Y-30271403D01*
X123137913Y-30321645D01*
X123137906Y-30321649D01*
X123022812Y-30407809D01*
X123022809Y-30407812D01*
X122931331Y-30530011D01*
X122928404Y-30527820D01*
X122891234Y-30564976D01*
X122822959Y-30579814D01*
X122762940Y-30559235D01*
X122735513Y-30540909D01*
X122717739Y-30529033D01*
X122717736Y-30529032D01*
X122645584Y-30514680D01*
X122583673Y-30482295D01*
X122549099Y-30421579D01*
X122552840Y-30351809D01*
X122567724Y-30322626D01*
X122580220Y-30304523D01*
X122636237Y-30156818D01*
X122655278Y-30000000D01*
X122636237Y-29843182D01*
X122580220Y-29695477D01*
X122490483Y-29565470D01*
X122372240Y-29460717D01*
X122372238Y-29460716D01*
X122372237Y-29460715D01*
X122232365Y-29387303D01*
X122078986Y-29349500D01*
X122078985Y-29349500D01*
X121921015Y-29349500D01*
X121921014Y-29349500D01*
X121767634Y-29387303D01*
X121627762Y-29460715D01*
X121509516Y-29565471D01*
X121419781Y-29695475D01*
X121419780Y-29695476D01*
X121363762Y-29843181D01*
X121344722Y-29999999D01*
X121344722Y-30000000D01*
X121363762Y-30156818D01*
X121419780Y-30304523D01*
X121430505Y-30320061D01*
X121452387Y-30386416D01*
X121434921Y-30454067D01*
X121383653Y-30501537D01*
X121328454Y-30514500D01*
X120815323Y-30514500D01*
X120742264Y-30529032D01*
X120742260Y-30529033D01*
X120659399Y-30584399D01*
X120604033Y-30667260D01*
X120604032Y-30667264D01*
X120589500Y-30740321D01*
X120589500Y-32789678D01*
X120604032Y-32862735D01*
X120604033Y-32862739D01*
X120604034Y-32862740D01*
X120659399Y-32945601D01*
X120742260Y-33000966D01*
X120742264Y-33000967D01*
X120815321Y-33015499D01*
X120815324Y-33015500D01*
X120815326Y-33015500D01*
X122398100Y-33015500D01*
X122465139Y-33035185D01*
X122485781Y-33051819D01*
X123143181Y-33709218D01*
X123176666Y-33770541D01*
X123179500Y-33796899D01*
X123179500Y-34125500D01*
X123159815Y-34192539D01*
X123107011Y-34238294D01*
X123055500Y-34249500D01*
X122205323Y-34249500D01*
X122132264Y-34264032D01*
X122132260Y-34264033D01*
X122049398Y-34319399D01*
X122038929Y-34335069D01*
X121985317Y-34379874D01*
X121915992Y-34388581D01*
X121869855Y-34371171D01*
X121787697Y-34319547D01*
X121787694Y-34319545D01*
X121628056Y-34263685D01*
X121460003Y-34244751D01*
X121459997Y-34244751D01*
X121291943Y-34263685D01*
X121132305Y-34319545D01*
X121132302Y-34319547D01*
X120989115Y-34409518D01*
X120989109Y-34409523D01*
X120869523Y-34529109D01*
X120869518Y-34529115D01*
X120779547Y-34672302D01*
X120779545Y-34672305D01*
X120723685Y-34831943D01*
X120704751Y-34999997D01*
X120704751Y-35000002D01*
X120723685Y-35168056D01*
X120779545Y-35327694D01*
X120779547Y-35327697D01*
X120869518Y-35470884D01*
X120869523Y-35470890D01*
X120989109Y-35590476D01*
X120989115Y-35590481D01*
X121132302Y-35680452D01*
X121132305Y-35680454D01*
X121132309Y-35680455D01*
X121132310Y-35680456D01*
X121204913Y-35705860D01*
X121291943Y-35736314D01*
X121459997Y-35755249D01*
X121460000Y-35755249D01*
X121460003Y-35755249D01*
X121628056Y-35736314D01*
X121629051Y-35735966D01*
X121787690Y-35680456D01*
X121787692Y-35680454D01*
X121787694Y-35680454D01*
X121787697Y-35680452D01*
X121869855Y-35628829D01*
X121937091Y-35609828D01*
X122003926Y-35630195D01*
X122038929Y-35664931D01*
X122049398Y-35680600D01*
X122132260Y-35735966D01*
X122132264Y-35735967D01*
X122205321Y-35750499D01*
X122205324Y-35750500D01*
X122205326Y-35750500D01*
X122999846Y-35750500D01*
X123066885Y-35770185D01*
X123112640Y-35822989D01*
X123123740Y-35869378D01*
X123124500Y-35887756D01*
X123124500Y-37781681D01*
X123104815Y-37848720D01*
X123052011Y-37894475D01*
X122982853Y-37904419D01*
X122934528Y-37886675D01*
X122827692Y-37819545D01*
X122827691Y-37819544D01*
X122827690Y-37819544D01*
X122789370Y-37806135D01*
X122668056Y-37763685D01*
X122500003Y-37744751D01*
X122499997Y-37744751D01*
X122331945Y-37763685D01*
X122331938Y-37763687D01*
X122295463Y-37776450D01*
X122225684Y-37780011D01*
X122165057Y-37745281D01*
X122155244Y-37733720D01*
X122087187Y-37642809D01*
X121972093Y-37556649D01*
X121972086Y-37556645D01*
X121837379Y-37506403D01*
X121837372Y-37506401D01*
X121777844Y-37500000D01*
X121730000Y-37500000D01*
X121730000Y-39500000D01*
X121777828Y-39500000D01*
X121777844Y-39499999D01*
X121837372Y-39493598D01*
X121837379Y-39493596D01*
X121972086Y-39443354D01*
X121972093Y-39443350D01*
X122087186Y-39357191D01*
X122155243Y-39266279D01*
X122211177Y-39224408D01*
X122280868Y-39219424D01*
X122295452Y-39223545D01*
X122331941Y-39236313D01*
X122331942Y-39236313D01*
X122331945Y-39236314D01*
X122499997Y-39255249D01*
X122500000Y-39255249D01*
X122500003Y-39255249D01*
X122668056Y-39236314D01*
X122677947Y-39232853D01*
X122827690Y-39180456D01*
X122934528Y-39113324D01*
X123001764Y-39094324D01*
X123068599Y-39114691D01*
X123113813Y-39167959D01*
X123124500Y-39218318D01*
X123124500Y-40815978D01*
X123104815Y-40883017D01*
X123054963Y-40927377D01*
X123028792Y-40940171D01*
X123022375Y-40944753D01*
X123016175Y-40949579D01*
X122978991Y-40989971D01*
X122955777Y-41013183D01*
X122894453Y-41046667D01*
X122868098Y-41049500D01*
X122102129Y-41049500D01*
X122102123Y-41049501D01*
X122042516Y-41055908D01*
X121907671Y-41106202D01*
X121907664Y-41106206D01*
X121792455Y-41192452D01*
X121792452Y-41192455D01*
X121706206Y-41307664D01*
X121706202Y-41307671D01*
X121655908Y-41442517D01*
X121650540Y-41492452D01*
X121649501Y-41502123D01*
X121649500Y-41502135D01*
X121649500Y-42497870D01*
X121649501Y-42497876D01*
X121655908Y-42557483D01*
X121706202Y-42692328D01*
X121706206Y-42692335D01*
X121792452Y-42807544D01*
X121792455Y-42807547D01*
X121907664Y-42893793D01*
X121907671Y-42893797D01*
X122042517Y-42944091D01*
X122042516Y-42944091D01*
X122049444Y-42944835D01*
X122102127Y-42950500D01*
X122897872Y-42950499D01*
X122957483Y-42944091D01*
X123092331Y-42893796D01*
X123207546Y-42807546D01*
X123293796Y-42692331D01*
X123344091Y-42557483D01*
X123350500Y-42497873D01*
X123350499Y-41749499D01*
X123370183Y-41682461D01*
X123422987Y-41636706D01*
X123474499Y-41625500D01*
X123543101Y-41625500D01*
X123610140Y-41645185D01*
X123630782Y-41661819D01*
X124197849Y-42228886D01*
X124213977Y-42248745D01*
X124219916Y-42257836D01*
X124247932Y-42279641D01*
X124253693Y-42284730D01*
X124256482Y-42287519D01*
X124275483Y-42301085D01*
X124318811Y-42334809D01*
X124325704Y-42338539D01*
X124332796Y-42342006D01*
X124332801Y-42342010D01*
X124385403Y-42357670D01*
X124437338Y-42375500D01*
X124445072Y-42376790D01*
X124452910Y-42377767D01*
X124452912Y-42377768D01*
X124452913Y-42377767D01*
X124452914Y-42377768D01*
X124507756Y-42375500D01*
X125325500Y-42375500D01*
X125392539Y-42395185D01*
X125438294Y-42447989D01*
X125449500Y-42499500D01*
X125449500Y-43197870D01*
X125449501Y-43197876D01*
X125455908Y-43257483D01*
X125506202Y-43392328D01*
X125506206Y-43392335D01*
X125592452Y-43507544D01*
X125592455Y-43507547D01*
X125707664Y-43593793D01*
X125707671Y-43593797D01*
X125842517Y-43644091D01*
X125842516Y-43644091D01*
X125849444Y-43644835D01*
X125902127Y-43650500D01*
X128876000Y-43650499D01*
X128943039Y-43670184D01*
X128988794Y-43722988D01*
X129000000Y-43774499D01*
X129000000Y-52997786D01*
X128999842Y-53002210D01*
X128980275Y-53275785D01*
X128977757Y-53293297D01*
X128920872Y-53554794D01*
X128915888Y-53571770D01*
X128822361Y-53822524D01*
X128815011Y-53838617D01*
X128686758Y-54073496D01*
X128677193Y-54088380D01*
X128516811Y-54302624D01*
X128505225Y-54315994D01*
X128315994Y-54505225D01*
X128302624Y-54516811D01*
X128088380Y-54677193D01*
X128073496Y-54686758D01*
X127838617Y-54815011D01*
X127822524Y-54822361D01*
X127571770Y-54915888D01*
X127554794Y-54920872D01*
X127293297Y-54977757D01*
X127275785Y-54980275D01*
X127027448Y-54998036D01*
X127002208Y-54999842D01*
X126997786Y-55000000D01*
X117124000Y-55000000D01*
X117056961Y-54980315D01*
X117011206Y-54927511D01*
X117000000Y-54876000D01*
X117000000Y-48372505D01*
X118494357Y-48372505D01*
X118514890Y-48620312D01*
X118514892Y-48620324D01*
X118575936Y-48861381D01*
X118675826Y-49089106D01*
X118811833Y-49297282D01*
X118811836Y-49297285D01*
X118980256Y-49480238D01*
X119176491Y-49632974D01*
X119395190Y-49751328D01*
X119630386Y-49832071D01*
X119875665Y-49873000D01*
X120124335Y-49873000D01*
X120369614Y-49832071D01*
X120604810Y-49751328D01*
X120823509Y-49632974D01*
X121019744Y-49480238D01*
X121188164Y-49297285D01*
X121324173Y-49089107D01*
X121424063Y-48861381D01*
X121485108Y-48620321D01*
X121505643Y-48372500D01*
X121502576Y-48335492D01*
X121485109Y-48124687D01*
X121485107Y-48124675D01*
X121459784Y-48024678D01*
X124209500Y-48024678D01*
X124224032Y-48097735D01*
X124224033Y-48097739D01*
X124238992Y-48120127D01*
X124279399Y-48180601D01*
X124324189Y-48210528D01*
X124362260Y-48235966D01*
X124362264Y-48235967D01*
X124435321Y-48250499D01*
X124435324Y-48250500D01*
X124435326Y-48250500D01*
X125484676Y-48250500D01*
X125484677Y-48250499D01*
X125557740Y-48235966D01*
X125640601Y-48180601D01*
X125651070Y-48164932D01*
X125704677Y-48120127D01*
X125774001Y-48111417D01*
X125820145Y-48128828D01*
X125902307Y-48180454D01*
X125902305Y-48180454D01*
X125902309Y-48180455D01*
X125902310Y-48180456D01*
X125974913Y-48205860D01*
X126061943Y-48236314D01*
X126229997Y-48255249D01*
X126230000Y-48255249D01*
X126230003Y-48255249D01*
X126330835Y-48243887D01*
X126398059Y-48236313D01*
X126557690Y-48180456D01*
X126601819Y-48152727D01*
X126669053Y-48133727D01*
X126735889Y-48154094D01*
X126763643Y-48179056D01*
X126789471Y-48210528D01*
X126941739Y-48335492D01*
X126941742Y-48335494D01*
X127000000Y-48366632D01*
X127000000Y-48000000D01*
X128000000Y-48000000D01*
X128000000Y-48366631D01*
X128058257Y-48335494D01*
X128058260Y-48335492D01*
X128210528Y-48210528D01*
X128335492Y-48058260D01*
X128335496Y-48058253D01*
X128366633Y-48000000D01*
X128000000Y-48000000D01*
X127000000Y-48000000D01*
X127000000Y-47557306D01*
X127175000Y-47557306D01*
X127214199Y-47665007D01*
X127287871Y-47752805D01*
X127387129Y-47810112D01*
X127471564Y-47825000D01*
X127528436Y-47825000D01*
X127612871Y-47810112D01*
X127712129Y-47752805D01*
X127785801Y-47665007D01*
X127825000Y-47557306D01*
X127825000Y-47442694D01*
X127785801Y-47334993D01*
X127712129Y-47247195D01*
X127612871Y-47189888D01*
X127528436Y-47175000D01*
X127471564Y-47175000D01*
X127387129Y-47189888D01*
X127287871Y-47247195D01*
X127214199Y-47334993D01*
X127175000Y-47442694D01*
X127175000Y-47557306D01*
X127000000Y-47557306D01*
X127000000Y-46633366D01*
X128000000Y-46633366D01*
X128000000Y-47000000D01*
X128366634Y-47000000D01*
X128366633Y-46999999D01*
X128335496Y-46941746D01*
X128335492Y-46941739D01*
X128210528Y-46789471D01*
X128058260Y-46664507D01*
X128058253Y-46664503D01*
X128000000Y-46633366D01*
X127000000Y-46633366D01*
X126999999Y-46633366D01*
X126941746Y-46664503D01*
X126941739Y-46664507D01*
X126789475Y-46789468D01*
X126763641Y-46820946D01*
X126705894Y-46860278D01*
X126636049Y-46862147D01*
X126601817Y-46847271D01*
X126557693Y-46819545D01*
X126398056Y-46763685D01*
X126230003Y-46744751D01*
X126229997Y-46744751D01*
X126061943Y-46763685D01*
X125902307Y-46819545D01*
X125820144Y-46871172D01*
X125752907Y-46890172D01*
X125686072Y-46869804D01*
X125651071Y-46835069D01*
X125640601Y-46819399D01*
X125557740Y-46764034D01*
X125557739Y-46764033D01*
X125557735Y-46764032D01*
X125484677Y-46749500D01*
X125484674Y-46749500D01*
X124435326Y-46749500D01*
X124435323Y-46749500D01*
X124362264Y-46764032D01*
X124362260Y-46764033D01*
X124279399Y-46819399D01*
X124224033Y-46902260D01*
X124224032Y-46902264D01*
X124209500Y-46975321D01*
X124209500Y-48024678D01*
X121459784Y-48024678D01*
X121424063Y-47883618D01*
X121324173Y-47655893D01*
X121188166Y-47447717D01*
X121084396Y-47334993D01*
X121019744Y-47264762D01*
X120823509Y-47112026D01*
X120823507Y-47112025D01*
X120823506Y-47112024D01*
X120604811Y-46993672D01*
X120604802Y-46993669D01*
X120369616Y-46912929D01*
X120124335Y-46872000D01*
X119875665Y-46872000D01*
X119630383Y-46912929D01*
X119395197Y-46993669D01*
X119395188Y-46993672D01*
X119176493Y-47112024D01*
X118980257Y-47264761D01*
X118811833Y-47447717D01*
X118675826Y-47655893D01*
X118575936Y-47883618D01*
X118514892Y-48124675D01*
X118514890Y-48124687D01*
X118494357Y-48372494D01*
X118494357Y-48372505D01*
X117000000Y-48372505D01*
X117000000Y-44000000D01*
X111000000Y-44000000D01*
X111000000Y-54876000D01*
X110980315Y-54943039D01*
X110927511Y-54988794D01*
X110876000Y-55000000D01*
X100124000Y-55000000D01*
X100056961Y-54980315D01*
X100011206Y-54927511D01*
X100000000Y-54876000D01*
X100000000Y-48372505D01*
X101494357Y-48372505D01*
X101514890Y-48620312D01*
X101514892Y-48620324D01*
X101575936Y-48861381D01*
X101675826Y-49089106D01*
X101811833Y-49297282D01*
X101811836Y-49297285D01*
X101980256Y-49480238D01*
X102176491Y-49632974D01*
X102395190Y-49751328D01*
X102630386Y-49832071D01*
X102875665Y-49873000D01*
X103124335Y-49873000D01*
X103369614Y-49832071D01*
X103604810Y-49751328D01*
X103823509Y-49632974D01*
X104019744Y-49480238D01*
X104188164Y-49297285D01*
X104324173Y-49089107D01*
X104424063Y-48861381D01*
X104485108Y-48620321D01*
X104505643Y-48372505D01*
X106494357Y-48372505D01*
X106514890Y-48620312D01*
X106514892Y-48620324D01*
X106575936Y-48861381D01*
X106675826Y-49089106D01*
X106811833Y-49297282D01*
X106811836Y-49297285D01*
X106980256Y-49480238D01*
X107176491Y-49632974D01*
X107395190Y-49751328D01*
X107630386Y-49832071D01*
X107875665Y-49873000D01*
X108124335Y-49873000D01*
X108369614Y-49832071D01*
X108604810Y-49751328D01*
X108823509Y-49632974D01*
X109019744Y-49480238D01*
X109188164Y-49297285D01*
X109324173Y-49089107D01*
X109424063Y-48861381D01*
X109485108Y-48620321D01*
X109505643Y-48372500D01*
X109502576Y-48335492D01*
X109485109Y-48124687D01*
X109485107Y-48124675D01*
X109424063Y-47883618D01*
X109324173Y-47655893D01*
X109188166Y-47447717D01*
X109084396Y-47334993D01*
X109019744Y-47264762D01*
X108823509Y-47112026D01*
X108823508Y-47112025D01*
X108823505Y-47112023D01*
X108823503Y-47112022D01*
X108690481Y-47040033D01*
X108640891Y-46990813D01*
X108625500Y-46930979D01*
X108625500Y-44060452D01*
X108645185Y-43993413D01*
X108661819Y-43972771D01*
X112134590Y-40500000D01*
X119344722Y-40500000D01*
X119363762Y-40656818D01*
X119410019Y-40778786D01*
X119419780Y-40804523D01*
X119509517Y-40934530D01*
X119627760Y-41039283D01*
X119699478Y-41076924D01*
X119749688Y-41125507D01*
X119765663Y-41193526D01*
X119742328Y-41259384D01*
X119741118Y-41261029D01*
X119706203Y-41307669D01*
X119706202Y-41307671D01*
X119655908Y-41442517D01*
X119650540Y-41492452D01*
X119649501Y-41502123D01*
X119649500Y-41502135D01*
X119649500Y-42497870D01*
X119649501Y-42497876D01*
X119655908Y-42557483D01*
X119706202Y-42692328D01*
X119706206Y-42692335D01*
X119792452Y-42807544D01*
X119792455Y-42807547D01*
X119907664Y-42893793D01*
X119907671Y-42893797D01*
X120042517Y-42944091D01*
X120042516Y-42944091D01*
X120049444Y-42944835D01*
X120102127Y-42950500D01*
X120897872Y-42950499D01*
X120957483Y-42944091D01*
X121092331Y-42893796D01*
X121207546Y-42807546D01*
X121293796Y-42692331D01*
X121344091Y-42557483D01*
X121350500Y-42497873D01*
X121350499Y-41502128D01*
X121344091Y-41442517D01*
X121330546Y-41406202D01*
X121293797Y-41307671D01*
X121293793Y-41307664D01*
X121207547Y-41192455D01*
X121207544Y-41192452D01*
X121092335Y-41106206D01*
X121092328Y-41106202D01*
X120952719Y-41054132D01*
X120896785Y-41012261D01*
X120873743Y-40958357D01*
X120871657Y-40945857D01*
X120864866Y-40891376D01*
X120864866Y-40891374D01*
X120864864Y-40891370D01*
X120862622Y-40883840D01*
X120860065Y-40876392D01*
X120860065Y-40876390D01*
X120833944Y-40828122D01*
X120809826Y-40778789D01*
X120809824Y-40778787D01*
X120809824Y-40778786D01*
X120805276Y-40772416D01*
X120800420Y-40766176D01*
X120800419Y-40766174D01*
X120760029Y-40728992D01*
X120684515Y-40653478D01*
X120651032Y-40592158D01*
X120649102Y-40550857D01*
X120655278Y-40500000D01*
X120636237Y-40343182D01*
X120580220Y-40195477D01*
X120490483Y-40065470D01*
X120372240Y-39960717D01*
X120372238Y-39960716D01*
X120372237Y-39960715D01*
X120232365Y-39887303D01*
X120078986Y-39849500D01*
X120078985Y-39849500D01*
X119921015Y-39849500D01*
X119921014Y-39849500D01*
X119767634Y-39887303D01*
X119627762Y-39960715D01*
X119509516Y-40065471D01*
X119419781Y-40195475D01*
X119419780Y-40195476D01*
X119363762Y-40343181D01*
X119344722Y-40499999D01*
X119344722Y-40500000D01*
X112134590Y-40500000D01*
X112401737Y-40232853D01*
X113634589Y-39000000D01*
X120230000Y-39000000D01*
X120230000Y-39047844D01*
X120236401Y-39107372D01*
X120236403Y-39107379D01*
X120286645Y-39242086D01*
X120286649Y-39242093D01*
X120372809Y-39357187D01*
X120372812Y-39357190D01*
X120487906Y-39443350D01*
X120487913Y-39443354D01*
X120622620Y-39493596D01*
X120622627Y-39493598D01*
X120682155Y-39499999D01*
X120682172Y-39500000D01*
X120730000Y-39500000D01*
X120730000Y-39000000D01*
X120230000Y-39000000D01*
X113634589Y-39000000D01*
X114077283Y-38557306D01*
X120905000Y-38557306D01*
X120944199Y-38665007D01*
X121017871Y-38752805D01*
X121117129Y-38810112D01*
X121201564Y-38825000D01*
X121258436Y-38825000D01*
X121342871Y-38810112D01*
X121442129Y-38752805D01*
X121515801Y-38665007D01*
X121555000Y-38557306D01*
X121555000Y-38442694D01*
X121515801Y-38334993D01*
X121442129Y-38247195D01*
X121342871Y-38189888D01*
X121258436Y-38175000D01*
X121201564Y-38175000D01*
X121117129Y-38189888D01*
X121017871Y-38247195D01*
X120944199Y-38334993D01*
X120905000Y-38442694D01*
X120905000Y-38557306D01*
X114077283Y-38557306D01*
X114634589Y-38000000D01*
X120230000Y-38000000D01*
X120730000Y-38000000D01*
X120730000Y-37500000D01*
X120682155Y-37500000D01*
X120622627Y-37506401D01*
X120622620Y-37506403D01*
X120487913Y-37556645D01*
X120487906Y-37556649D01*
X120372812Y-37642809D01*
X120372809Y-37642812D01*
X120286649Y-37757906D01*
X120286645Y-37757913D01*
X120236403Y-37892620D01*
X120236401Y-37892627D01*
X120230000Y-37952155D01*
X120230000Y-38000000D01*
X114634589Y-38000000D01*
X116154007Y-36480582D01*
X116215328Y-36447099D01*
X116285020Y-36452083D01*
X116340953Y-36493955D01*
X116363302Y-36544066D01*
X116364032Y-36547734D01*
X116364033Y-36547739D01*
X116376320Y-36566128D01*
X116419399Y-36630601D01*
X116502260Y-36685966D01*
X116502264Y-36685967D01*
X116575321Y-36700499D01*
X116575324Y-36700500D01*
X116575326Y-36700500D01*
X117424676Y-36700500D01*
X117424677Y-36700499D01*
X117497740Y-36685966D01*
X117580601Y-36630601D01*
X117635966Y-36547740D01*
X117650500Y-36474674D01*
X117650500Y-35431898D01*
X117670185Y-35364859D01*
X117686815Y-35344221D01*
X117844217Y-35186818D01*
X117905540Y-35153334D01*
X117931898Y-35150500D01*
X118078985Y-35150500D01*
X118232365Y-35112696D01*
X118372240Y-35039283D01*
X118490483Y-34934530D01*
X118580220Y-34804523D01*
X118636237Y-34656818D01*
X118655278Y-34500000D01*
X118652282Y-34475321D01*
X118636237Y-34343181D01*
X118606219Y-34264032D01*
X118580220Y-34195477D01*
X118507225Y-34089726D01*
X118485343Y-34023373D01*
X118502808Y-33955721D01*
X118554076Y-33908251D01*
X118565944Y-33903105D01*
X118592084Y-33893355D01*
X118592093Y-33893350D01*
X118707187Y-33807190D01*
X118707190Y-33807187D01*
X118793350Y-33692093D01*
X118793354Y-33692086D01*
X118843596Y-33557379D01*
X118843598Y-33557372D01*
X118849999Y-33497844D01*
X118850000Y-33497827D01*
X118850000Y-32900000D01*
X117050000Y-32900000D01*
X117050000Y-33497844D01*
X117056401Y-33557372D01*
X117056403Y-33557379D01*
X117106645Y-33692086D01*
X117106649Y-33692093D01*
X117192809Y-33807187D01*
X117192812Y-33807190D01*
X117307906Y-33893350D01*
X117307913Y-33893354D01*
X117413582Y-33932766D01*
X117469516Y-33974637D01*
X117493933Y-34040101D01*
X117479082Y-34108374D01*
X117472300Y-34119387D01*
X117419780Y-34195476D01*
X117419779Y-34195478D01*
X117410679Y-34219473D01*
X117368500Y-34275175D01*
X117302903Y-34299231D01*
X117294738Y-34299500D01*
X116575323Y-34299500D01*
X116502264Y-34314032D01*
X116502260Y-34314033D01*
X116419399Y-34369399D01*
X116364033Y-34452260D01*
X116364032Y-34452264D01*
X116349500Y-34525321D01*
X116349500Y-34750500D01*
X116329815Y-34817539D01*
X116277011Y-34863294D01*
X116225500Y-34874500D01*
X116210649Y-34874500D01*
X116203766Y-34875369D01*
X116197949Y-34875826D01*
X116151373Y-34877290D01*
X116132129Y-34882881D01*
X116113079Y-34886825D01*
X116093211Y-34889334D01*
X116049884Y-34906488D01*
X116044358Y-34908379D01*
X115999614Y-34921379D01*
X115999610Y-34921381D01*
X115982366Y-34931579D01*
X115964905Y-34940133D01*
X115946274Y-34947510D01*
X115946262Y-34947517D01*
X115908570Y-34974902D01*
X115903687Y-34978109D01*
X115863580Y-35001829D01*
X115849414Y-35015995D01*
X115834624Y-35028627D01*
X115818414Y-35040404D01*
X115818411Y-35040407D01*
X115788710Y-35076309D01*
X115784777Y-35080631D01*
X107616208Y-43249199D01*
X107603951Y-43259020D01*
X107604134Y-43259241D01*
X107598123Y-43264213D01*
X107550772Y-43314636D01*
X107529889Y-43335519D01*
X107529877Y-43335532D01*
X107525621Y-43341017D01*
X107521837Y-43345447D01*
X107489937Y-43379418D01*
X107489936Y-43379420D01*
X107480284Y-43396976D01*
X107469610Y-43413226D01*
X107457329Y-43429061D01*
X107457324Y-43429068D01*
X107438815Y-43471838D01*
X107436245Y-43477084D01*
X107413803Y-43517906D01*
X107408822Y-43537307D01*
X107402521Y-43555710D01*
X107394562Y-43574102D01*
X107394561Y-43574105D01*
X107387271Y-43620127D01*
X107386087Y-43625846D01*
X107374501Y-43670972D01*
X107374500Y-43670982D01*
X107374500Y-43691016D01*
X107372973Y-43710415D01*
X107369840Y-43730194D01*
X107369840Y-43730195D01*
X107374225Y-43776583D01*
X107374500Y-43782421D01*
X107374500Y-46930979D01*
X107354815Y-46998018D01*
X107309519Y-47040033D01*
X107176496Y-47112022D01*
X107176494Y-47112023D01*
X106980257Y-47264761D01*
X106811833Y-47447717D01*
X106675826Y-47655893D01*
X106575936Y-47883618D01*
X106514892Y-48124675D01*
X106514890Y-48124687D01*
X106494357Y-48372494D01*
X106494357Y-48372505D01*
X104505643Y-48372505D01*
X104505643Y-48372500D01*
X104502576Y-48335492D01*
X104485109Y-48124687D01*
X104485107Y-48124675D01*
X104424063Y-47883618D01*
X104324173Y-47655893D01*
X104188166Y-47447717D01*
X104084396Y-47334993D01*
X104019744Y-47264762D01*
X103823509Y-47112026D01*
X103823507Y-47112025D01*
X103823506Y-47112024D01*
X103604811Y-46993672D01*
X103604802Y-46993669D01*
X103369616Y-46912929D01*
X103124335Y-46872000D01*
X102875665Y-46872000D01*
X102630383Y-46912929D01*
X102395197Y-46993669D01*
X102395188Y-46993672D01*
X102176493Y-47112024D01*
X101980257Y-47264761D01*
X101811833Y-47447717D01*
X101675826Y-47655893D01*
X101575936Y-47883618D01*
X101514892Y-48124675D01*
X101514890Y-48124687D01*
X101494357Y-48372494D01*
X101494357Y-48372505D01*
X100000000Y-48372505D01*
X100000000Y-44000000D01*
X94683952Y-44000000D01*
X94616913Y-43980315D01*
X94571158Y-43927511D01*
X94561214Y-43858353D01*
X94590239Y-43794797D01*
X94596271Y-43788319D01*
X96722771Y-41661819D01*
X96784094Y-41628334D01*
X96810452Y-41625500D01*
X102417257Y-41625500D01*
X102432877Y-41627224D01*
X102432904Y-41626939D01*
X102440660Y-41627671D01*
X102440667Y-41627673D01*
X102509814Y-41625500D01*
X102539350Y-41625500D01*
X102546228Y-41624630D01*
X102552041Y-41624172D01*
X102598627Y-41622709D01*
X102617869Y-41617117D01*
X102636912Y-41613174D01*
X102656792Y-41610664D01*
X102700122Y-41593507D01*
X102705646Y-41591617D01*
X102709396Y-41590527D01*
X102750390Y-41578618D01*
X102767629Y-41568422D01*
X102785103Y-41559862D01*
X102803727Y-41552488D01*
X102803727Y-41552487D01*
X102803732Y-41552486D01*
X102841449Y-41525082D01*
X102846305Y-41521892D01*
X102886420Y-41498170D01*
X102900589Y-41483999D01*
X102915379Y-41471368D01*
X102931587Y-41459594D01*
X102961299Y-41423676D01*
X102965212Y-41419376D01*
X108222771Y-36161819D01*
X108284094Y-36128334D01*
X108310452Y-36125500D01*
X110225500Y-36125500D01*
X110292539Y-36145185D01*
X110338294Y-36197989D01*
X110349500Y-36249500D01*
X110349500Y-36474678D01*
X110364032Y-36547735D01*
X110364033Y-36547739D01*
X110376320Y-36566128D01*
X110419399Y-36630601D01*
X110502260Y-36685966D01*
X110502264Y-36685967D01*
X110575321Y-36700499D01*
X110575324Y-36700500D01*
X110575326Y-36700500D01*
X111424676Y-36700500D01*
X111424677Y-36700499D01*
X111497740Y-36685966D01*
X111580601Y-36630601D01*
X111635966Y-36547740D01*
X111650500Y-36474674D01*
X111650500Y-35431898D01*
X111670185Y-35364859D01*
X111686815Y-35344221D01*
X111844217Y-35186818D01*
X111905540Y-35153334D01*
X111931898Y-35150500D01*
X112078985Y-35150500D01*
X112232365Y-35112696D01*
X112372240Y-35039283D01*
X112490483Y-34934530D01*
X112580220Y-34804523D01*
X112636237Y-34656818D01*
X112655278Y-34500000D01*
X112652282Y-34475321D01*
X112636237Y-34343181D01*
X112606219Y-34264032D01*
X112580220Y-34195477D01*
X112507225Y-34089726D01*
X112485343Y-34023373D01*
X112502808Y-33955721D01*
X112554076Y-33908251D01*
X112565944Y-33903105D01*
X112592084Y-33893355D01*
X112592093Y-33893350D01*
X112707187Y-33807190D01*
X112707190Y-33807187D01*
X112793350Y-33692093D01*
X112793354Y-33692086D01*
X112843596Y-33557379D01*
X112843598Y-33557372D01*
X112849999Y-33497844D01*
X112850000Y-33497827D01*
X112850000Y-32900000D01*
X111050000Y-32900000D01*
X111050000Y-33497844D01*
X111056401Y-33557372D01*
X111056403Y-33557379D01*
X111106645Y-33692086D01*
X111106649Y-33692093D01*
X111192809Y-33807187D01*
X111192812Y-33807190D01*
X111307906Y-33893350D01*
X111307913Y-33893354D01*
X111413582Y-33932766D01*
X111469516Y-33974637D01*
X111493933Y-34040101D01*
X111479082Y-34108374D01*
X111472300Y-34119387D01*
X111419780Y-34195476D01*
X111419779Y-34195478D01*
X111410679Y-34219473D01*
X111368500Y-34275175D01*
X111302903Y-34299231D01*
X111294738Y-34299500D01*
X110575323Y-34299500D01*
X110502264Y-34314032D01*
X110502260Y-34314033D01*
X110419399Y-34369399D01*
X110364033Y-34452260D01*
X110364032Y-34452264D01*
X110349500Y-34525321D01*
X110349500Y-34750500D01*
X110329815Y-34817539D01*
X110277011Y-34863294D01*
X110225500Y-34874500D01*
X108082743Y-34874500D01*
X108067122Y-34872775D01*
X108067095Y-34873061D01*
X108059333Y-34872326D01*
X107990172Y-34874500D01*
X107960649Y-34874500D01*
X107953778Y-34875367D01*
X107947959Y-34875825D01*
X107901374Y-34877289D01*
X107901368Y-34877290D01*
X107882126Y-34882880D01*
X107863087Y-34886823D01*
X107843217Y-34889334D01*
X107843203Y-34889337D01*
X107799883Y-34906488D01*
X107794358Y-34908380D01*
X107749613Y-34921380D01*
X107749610Y-34921381D01*
X107732366Y-34931579D01*
X107714905Y-34940133D01*
X107696274Y-34947510D01*
X107696262Y-34947517D01*
X107658570Y-34974902D01*
X107653687Y-34978109D01*
X107613580Y-35001829D01*
X107599414Y-35015995D01*
X107584624Y-35028627D01*
X107568414Y-35040404D01*
X107568411Y-35040407D01*
X107538710Y-35076309D01*
X107534777Y-35080631D01*
X102277228Y-40338181D01*
X102215905Y-40371666D01*
X102189547Y-40374500D01*
X99309452Y-40374500D01*
X99242413Y-40354815D01*
X99196658Y-40302011D01*
X99186714Y-40232853D01*
X99215739Y-40169297D01*
X99221771Y-40162819D01*
X101137396Y-38247195D01*
X103222772Y-36161819D01*
X103284095Y-36128334D01*
X103310453Y-36125500D01*
X104225500Y-36125500D01*
X104292539Y-36145185D01*
X104338294Y-36197989D01*
X104349500Y-36249500D01*
X104349500Y-36474678D01*
X104364032Y-36547735D01*
X104364033Y-36547739D01*
X104376320Y-36566128D01*
X104419399Y-36630601D01*
X104502260Y-36685966D01*
X104502264Y-36685967D01*
X104575321Y-36700499D01*
X104575324Y-36700500D01*
X104575326Y-36700500D01*
X105424676Y-36700500D01*
X105424677Y-36700499D01*
X105497740Y-36685966D01*
X105580601Y-36630601D01*
X105635966Y-36547740D01*
X105650500Y-36474674D01*
X105650500Y-35431898D01*
X105670185Y-35364859D01*
X105686815Y-35344221D01*
X105844217Y-35186818D01*
X105905540Y-35153334D01*
X105931898Y-35150500D01*
X106078985Y-35150500D01*
X106232365Y-35112696D01*
X106372240Y-35039283D01*
X106490483Y-34934530D01*
X106580220Y-34804523D01*
X106636237Y-34656818D01*
X106655278Y-34500000D01*
X106652282Y-34475321D01*
X106636237Y-34343181D01*
X106606219Y-34264032D01*
X106580220Y-34195477D01*
X106507225Y-34089726D01*
X106485343Y-34023373D01*
X106502808Y-33955721D01*
X106554076Y-33908251D01*
X106565944Y-33903105D01*
X106592084Y-33893355D01*
X106592093Y-33893350D01*
X106707187Y-33807190D01*
X106707190Y-33807187D01*
X106793350Y-33692093D01*
X106793354Y-33692086D01*
X106843596Y-33557379D01*
X106843598Y-33557372D01*
X106849999Y-33497844D01*
X106850000Y-33497827D01*
X106850000Y-32900000D01*
X105050000Y-32900000D01*
X105050000Y-33497844D01*
X105056401Y-33557372D01*
X105056403Y-33557379D01*
X105106645Y-33692086D01*
X105106649Y-33692093D01*
X105192809Y-33807187D01*
X105192812Y-33807190D01*
X105307906Y-33893350D01*
X105307913Y-33893354D01*
X105413582Y-33932766D01*
X105469516Y-33974637D01*
X105493933Y-34040101D01*
X105479082Y-34108374D01*
X105472300Y-34119387D01*
X105419780Y-34195476D01*
X105419779Y-34195478D01*
X105410679Y-34219473D01*
X105368500Y-34275175D01*
X105302903Y-34299231D01*
X105294738Y-34299500D01*
X104575323Y-34299500D01*
X104502264Y-34314032D01*
X104502260Y-34314033D01*
X104419399Y-34369399D01*
X104364033Y-34452260D01*
X104364032Y-34452264D01*
X104349500Y-34525321D01*
X104349500Y-34750500D01*
X104329815Y-34817539D01*
X104277011Y-34863294D01*
X104225500Y-34874500D01*
X103082743Y-34874500D01*
X103067122Y-34872775D01*
X103067096Y-34873061D01*
X103059334Y-34872327D01*
X103059333Y-34872327D01*
X102990186Y-34874500D01*
X102960649Y-34874500D01*
X102953766Y-34875369D01*
X102947949Y-34875826D01*
X102901373Y-34877290D01*
X102882129Y-34882881D01*
X102863079Y-34886825D01*
X102843211Y-34889334D01*
X102799884Y-34906488D01*
X102794358Y-34908379D01*
X102749614Y-34921379D01*
X102749610Y-34921381D01*
X102732366Y-34931579D01*
X102714905Y-34940133D01*
X102696274Y-34947510D01*
X102696262Y-34947517D01*
X102658570Y-34974902D01*
X102653687Y-34978109D01*
X102613580Y-35001829D01*
X102599414Y-35015995D01*
X102584624Y-35028627D01*
X102568414Y-35040404D01*
X102568411Y-35040407D01*
X102538710Y-35076309D01*
X102534777Y-35080631D01*
X98277228Y-39338181D01*
X98215905Y-39371666D01*
X98189547Y-39374500D01*
X96309452Y-39374500D01*
X96242413Y-39354815D01*
X96196658Y-39302011D01*
X96186714Y-39232853D01*
X96215739Y-39169297D01*
X96221771Y-39162819D01*
X98647771Y-36736819D01*
X98709094Y-36703334D01*
X98735452Y-36700500D01*
X99424676Y-36700500D01*
X99424677Y-36700499D01*
X99497740Y-36685966D01*
X99580601Y-36630601D01*
X99635966Y-36547740D01*
X99650500Y-36474674D01*
X99650500Y-35431898D01*
X99670185Y-35364859D01*
X99686815Y-35344221D01*
X99844217Y-35186818D01*
X99905540Y-35153334D01*
X99931898Y-35150500D01*
X100078985Y-35150500D01*
X100232365Y-35112696D01*
X100372240Y-35039283D01*
X100490483Y-34934530D01*
X100580220Y-34804523D01*
X100636237Y-34656818D01*
X100655278Y-34500000D01*
X100652282Y-34475321D01*
X100636237Y-34343181D01*
X100606219Y-34264032D01*
X100580220Y-34195477D01*
X100507225Y-34089726D01*
X100485343Y-34023373D01*
X100502808Y-33955721D01*
X100554076Y-33908251D01*
X100565944Y-33903105D01*
X100592084Y-33893355D01*
X100592093Y-33893350D01*
X100707187Y-33807190D01*
X100707190Y-33807187D01*
X100793350Y-33692093D01*
X100793354Y-33692086D01*
X100843596Y-33557379D01*
X100843598Y-33557372D01*
X100849999Y-33497844D01*
X100850000Y-33497827D01*
X100850000Y-32900000D01*
X99050000Y-32900000D01*
X99050000Y-33497844D01*
X99056401Y-33557372D01*
X99056403Y-33557379D01*
X99106645Y-33692086D01*
X99106649Y-33692093D01*
X99192809Y-33807187D01*
X99192812Y-33807190D01*
X99307906Y-33893350D01*
X99307913Y-33893354D01*
X99413582Y-33932766D01*
X99469516Y-33974637D01*
X99493933Y-34040101D01*
X99479082Y-34108374D01*
X99472300Y-34119387D01*
X99419780Y-34195476D01*
X99419779Y-34195478D01*
X99410679Y-34219473D01*
X99368500Y-34275175D01*
X99302903Y-34299231D01*
X99294738Y-34299500D01*
X98575323Y-34299500D01*
X98502264Y-34314032D01*
X98502260Y-34314033D01*
X98419399Y-34369399D01*
X98364033Y-34452260D01*
X98364032Y-34452264D01*
X98349500Y-34525321D01*
X98349500Y-35214547D01*
X98329815Y-35281586D01*
X98313181Y-35302228D01*
X93277228Y-40338181D01*
X93215905Y-40371666D01*
X93189547Y-40374500D01*
X92309452Y-40374500D01*
X92242413Y-40354815D01*
X92196658Y-40302011D01*
X92186714Y-40232853D01*
X92215739Y-40169297D01*
X92221771Y-40162819D01*
X92497287Y-39887303D01*
X93333786Y-39050802D01*
X93346048Y-39040980D01*
X93345865Y-39040759D01*
X93351867Y-39035792D01*
X93351877Y-39035786D01*
X93399241Y-38985348D01*
X93420120Y-38964470D01*
X93424373Y-38958986D01*
X93428150Y-38954563D01*
X93460062Y-38920582D01*
X93469714Y-38903023D01*
X93480389Y-38886772D01*
X93492674Y-38870936D01*
X93511186Y-38828152D01*
X93513742Y-38822935D01*
X93536197Y-38782092D01*
X93541180Y-38762680D01*
X93547477Y-38744291D01*
X93555438Y-38725895D01*
X93562729Y-38679853D01*
X93563908Y-38674162D01*
X93575500Y-38629019D01*
X93575500Y-38608983D01*
X93577027Y-38589582D01*
X93580160Y-38569804D01*
X93575775Y-38523415D01*
X93575500Y-38517577D01*
X93575500Y-36597672D01*
X93584941Y-36550215D01*
X93585967Y-36547737D01*
X93600499Y-36474678D01*
X93600500Y-36474676D01*
X93600500Y-35431899D01*
X93620185Y-35364860D01*
X93636819Y-35344218D01*
X93728888Y-35252149D01*
X93748751Y-35236019D01*
X93757836Y-35230084D01*
X93779638Y-35202071D01*
X93784733Y-35196303D01*
X93787519Y-35193518D01*
X93792302Y-35186819D01*
X93801086Y-35174516D01*
X93834807Y-35131192D01*
X93838547Y-35124278D01*
X93842006Y-35117203D01*
X93842010Y-35117199D01*
X93852580Y-35081693D01*
X93889197Y-35024259D01*
X93977882Y-34945693D01*
X93990482Y-34934531D01*
X93999559Y-34921381D01*
X94080220Y-34804523D01*
X94136237Y-34656818D01*
X94155278Y-34500000D01*
X94152282Y-34475321D01*
X94142878Y-34397870D01*
X95049500Y-34397870D01*
X95049501Y-34397876D01*
X95055908Y-34457483D01*
X95106202Y-34592328D01*
X95106206Y-34592335D01*
X95166076Y-34672310D01*
X95192454Y-34707546D01*
X95307154Y-34793410D01*
X95349024Y-34849343D01*
X95355938Y-34907622D01*
X95344722Y-34999999D01*
X95344722Y-35000000D01*
X95363762Y-35156818D01*
X95411081Y-35281586D01*
X95419780Y-35304523D01*
X95509517Y-35434530D01*
X95627760Y-35539283D01*
X95627762Y-35539284D01*
X95767634Y-35612696D01*
X95921014Y-35650500D01*
X95921015Y-35650500D01*
X96078985Y-35650500D01*
X96232365Y-35612696D01*
X96260870Y-35597735D01*
X96372240Y-35539283D01*
X96490483Y-35434530D01*
X96580220Y-35304523D01*
X96636237Y-35156818D01*
X96655278Y-35000000D01*
X96644061Y-34907621D01*
X96655521Y-34838699D01*
X96692842Y-34793412D01*
X96807546Y-34707546D01*
X96893796Y-34592331D01*
X96944091Y-34457483D01*
X96950500Y-34397873D01*
X96950499Y-33602128D01*
X96945299Y-33553757D01*
X96944091Y-33542516D01*
X96893797Y-33407671D01*
X96893793Y-33407664D01*
X96807547Y-33292455D01*
X96807544Y-33292452D01*
X96692335Y-33206206D01*
X96692328Y-33206202D01*
X96557482Y-33155908D01*
X96557483Y-33155908D01*
X96497883Y-33149501D01*
X96497881Y-33149500D01*
X96497873Y-33149500D01*
X96497864Y-33149500D01*
X95502129Y-33149500D01*
X95502123Y-33149501D01*
X95442516Y-33155908D01*
X95307671Y-33206202D01*
X95307664Y-33206206D01*
X95192455Y-33292452D01*
X95192452Y-33292455D01*
X95106206Y-33407664D01*
X95106202Y-33407671D01*
X95055908Y-33542517D01*
X95049501Y-33602116D01*
X95049501Y-33602123D01*
X95049500Y-33602135D01*
X95049500Y-34397870D01*
X94142878Y-34397870D01*
X94136237Y-34343181D01*
X94106219Y-34264032D01*
X94080220Y-34195477D01*
X94044992Y-34144440D01*
X94023109Y-34078085D01*
X94040575Y-34010434D01*
X94091842Y-33962964D01*
X94147042Y-33950000D01*
X94347828Y-33950000D01*
X94347844Y-33949999D01*
X94407372Y-33943598D01*
X94407379Y-33943596D01*
X94542086Y-33893354D01*
X94542093Y-33893350D01*
X94657187Y-33807190D01*
X94657190Y-33807187D01*
X94743350Y-33692093D01*
X94743354Y-33692086D01*
X94793596Y-33557379D01*
X94793598Y-33557372D01*
X94799999Y-33497844D01*
X94800000Y-33497827D01*
X94800000Y-32900000D01*
X93000000Y-32900000D01*
X93000000Y-33497844D01*
X93006401Y-33557372D01*
X93006403Y-33557379D01*
X93056645Y-33692086D01*
X93056647Y-33692088D01*
X93137483Y-33800072D01*
X93161900Y-33865536D01*
X93147049Y-33933809D01*
X93120443Y-33967199D01*
X93009516Y-34065470D01*
X92919781Y-34195475D01*
X92919779Y-34195478D01*
X92910679Y-34219473D01*
X92868500Y-34275175D01*
X92802903Y-34299231D01*
X92794738Y-34299500D01*
X92525323Y-34299500D01*
X92452264Y-34314032D01*
X92452260Y-34314033D01*
X92369399Y-34369399D01*
X92314033Y-34452260D01*
X92314032Y-34452264D01*
X92299500Y-34525321D01*
X92299500Y-36474678D01*
X92314032Y-36547737D01*
X92315059Y-36550215D01*
X92324500Y-36597672D01*
X92324500Y-38239547D01*
X92304815Y-38306586D01*
X92288181Y-38327228D01*
X91277228Y-39338181D01*
X91215905Y-39371666D01*
X91189547Y-39374500D01*
X89000000Y-39374500D01*
X89000000Y-28487701D01*
X90832423Y-28487701D01*
X90851463Y-28644519D01*
X90907481Y-28792224D01*
X90997218Y-28922231D01*
X91115461Y-29026984D01*
X91137148Y-29038366D01*
X91169388Y-29066472D01*
X91170610Y-29065251D01*
X91170722Y-29065363D01*
X91175577Y-29071869D01*
X91180441Y-29076109D01*
X91182446Y-29078918D01*
X91187279Y-29085127D01*
X91187282Y-29085131D01*
X91187285Y-29085133D01*
X91187286Y-29085135D01*
X91214696Y-29110369D01*
X91250686Y-29170256D01*
X91248585Y-29240094D01*
X91229980Y-29275906D01*
X91206206Y-29307665D01*
X91206202Y-29307671D01*
X91155908Y-29442517D01*
X91149501Y-29502116D01*
X91149500Y-29502135D01*
X91149500Y-30497870D01*
X91149501Y-30497876D01*
X91155908Y-30557483D01*
X91206202Y-30692328D01*
X91206206Y-30692335D01*
X91292452Y-30807544D01*
X91292455Y-30807547D01*
X91407664Y-30893793D01*
X91407671Y-30893797D01*
X91543833Y-30944582D01*
X91599767Y-30986453D01*
X91624184Y-31051917D01*
X91624500Y-31060764D01*
X91624500Y-31187954D01*
X91604815Y-31254993D01*
X91552011Y-31300748D01*
X91524693Y-31309571D01*
X91502262Y-31314032D01*
X91502260Y-31314033D01*
X91419399Y-31369399D01*
X91364033Y-31452260D01*
X91364032Y-31452264D01*
X91349500Y-31525321D01*
X91349500Y-33474678D01*
X91364032Y-33547735D01*
X91364033Y-33547739D01*
X91364034Y-33547740D01*
X91419399Y-33630601D01*
X91502260Y-33685966D01*
X91502264Y-33685967D01*
X91575321Y-33700499D01*
X91575324Y-33700500D01*
X91575326Y-33700500D01*
X92424676Y-33700500D01*
X92424677Y-33700499D01*
X92497740Y-33685966D01*
X92580601Y-33630601D01*
X92635966Y-33547740D01*
X92650500Y-33474674D01*
X92650500Y-32397870D01*
X95049500Y-32397870D01*
X95049501Y-32397876D01*
X95055908Y-32457483D01*
X95106202Y-32592328D01*
X95106206Y-32592335D01*
X95192452Y-32707544D01*
X95192455Y-32707547D01*
X95307664Y-32793793D01*
X95307671Y-32793797D01*
X95442517Y-32844091D01*
X95442516Y-32844091D01*
X95449444Y-32844835D01*
X95502127Y-32850500D01*
X96497872Y-32850499D01*
X96557483Y-32844091D01*
X96692331Y-32793796D01*
X96807546Y-32707546D01*
X96893796Y-32592331D01*
X96944091Y-32457483D01*
X96950500Y-32397873D01*
X96950499Y-31602128D01*
X96944091Y-31542517D01*
X96937679Y-31525326D01*
X96893797Y-31407671D01*
X96893793Y-31407664D01*
X96823699Y-31314032D01*
X96807546Y-31292454D01*
X96692845Y-31206588D01*
X96650975Y-31150656D01*
X96644061Y-31092377D01*
X96655278Y-31000000D01*
X96636237Y-30843182D01*
X96609765Y-30773383D01*
X96604399Y-30703721D01*
X96637546Y-30642215D01*
X96698684Y-30608394D01*
X96759972Y-30612438D01*
X96760351Y-30610901D01*
X96921014Y-30650500D01*
X96921015Y-30650500D01*
X97078981Y-30650500D01*
X97078985Y-30650500D01*
X97080209Y-30650198D01*
X97081137Y-30650238D01*
X97086433Y-30649596D01*
X97086539Y-30650475D01*
X97150008Y-30653260D01*
X97207075Y-30693573D01*
X97209160Y-30696281D01*
X97292452Y-30807544D01*
X97292455Y-30807547D01*
X97407664Y-30893793D01*
X97407671Y-30893797D01*
X97543833Y-30944582D01*
X97599767Y-30986453D01*
X97624184Y-31051917D01*
X97624500Y-31060764D01*
X97624500Y-31201256D01*
X97604815Y-31268295D01*
X97561478Y-31305846D01*
X97562415Y-31307248D01*
X97469399Y-31369398D01*
X97414033Y-31452260D01*
X97414032Y-31452264D01*
X97399500Y-31525321D01*
X97399500Y-33474678D01*
X97414032Y-33547735D01*
X97414033Y-33547739D01*
X97414034Y-33547740D01*
X97469399Y-33630601D01*
X97552260Y-33685966D01*
X97552264Y-33685967D01*
X97625321Y-33700499D01*
X97625324Y-33700500D01*
X97625326Y-33700500D01*
X98474676Y-33700500D01*
X98474677Y-33700499D01*
X98547740Y-33685966D01*
X98630601Y-33630601D01*
X98685966Y-33547740D01*
X98700500Y-33474674D01*
X98700500Y-31525326D01*
X98700500Y-31525323D01*
X98700499Y-31525321D01*
X98685967Y-31452264D01*
X98685966Y-31452260D01*
X98630601Y-31369399D01*
X98547740Y-31314034D01*
X98547739Y-31314033D01*
X98547736Y-31314032D01*
X98475308Y-31299625D01*
X98413397Y-31267240D01*
X98378823Y-31206523D01*
X98375500Y-31178008D01*
X98375500Y-31060764D01*
X98395185Y-30993725D01*
X98447989Y-30947970D01*
X98456167Y-30944582D01*
X98592328Y-30893797D01*
X98592327Y-30893797D01*
X98592331Y-30893796D01*
X98707546Y-30807546D01*
X98753502Y-30746156D01*
X98809434Y-30704287D01*
X98879125Y-30699303D01*
X98940448Y-30732788D01*
X98961665Y-30763089D01*
X98961851Y-30762975D01*
X98963819Y-30766166D01*
X98965151Y-30768068D01*
X98965642Y-30769121D01*
X99057684Y-30918345D01*
X99176487Y-31037148D01*
X99209972Y-31098471D01*
X99204988Y-31168163D01*
X99188073Y-31199140D01*
X99106647Y-31307911D01*
X99106645Y-31307913D01*
X99056403Y-31442620D01*
X99056401Y-31442627D01*
X99050000Y-31502155D01*
X99050000Y-32100000D01*
X99550000Y-32100000D01*
X100350000Y-32100000D01*
X100850000Y-32100000D01*
X100850000Y-31502172D01*
X100849999Y-31502155D01*
X100843598Y-31442627D01*
X100843596Y-31442620D01*
X100793354Y-31307913D01*
X100793352Y-31307910D01*
X100746541Y-31245379D01*
X100722123Y-31179915D01*
X100736974Y-31111642D01*
X100780713Y-31065527D01*
X100818342Y-31042318D01*
X100942315Y-30918345D01*
X101034356Y-30769124D01*
X101034358Y-30769119D01*
X101089505Y-30602697D01*
X101089506Y-30602690D01*
X101099998Y-30500000D01*
X100500000Y-30500000D01*
X100500000Y-31116000D01*
X100480315Y-31183039D01*
X100427511Y-31228794D01*
X100376000Y-31240000D01*
X100350000Y-31240000D01*
X100350000Y-32100000D01*
X99550000Y-32100000D01*
X99550000Y-31240000D01*
X99536319Y-31226319D01*
X99502834Y-31164996D01*
X99500000Y-31138638D01*
X99500000Y-30000000D01*
X102344722Y-30000000D01*
X102363762Y-30156818D01*
X102407219Y-30271403D01*
X102419780Y-30304523D01*
X102509517Y-30434530D01*
X102627760Y-30539283D01*
X102627762Y-30539284D01*
X102767634Y-30612696D01*
X102921014Y-30650500D01*
X102921015Y-30650500D01*
X103078981Y-30650500D01*
X103078985Y-30650500D01*
X103080209Y-30650198D01*
X103081137Y-30650238D01*
X103086433Y-30649596D01*
X103086539Y-30650475D01*
X103150008Y-30653260D01*
X103207075Y-30693573D01*
X103209160Y-30696281D01*
X103292452Y-30807544D01*
X103292455Y-30807547D01*
X103407664Y-30893793D01*
X103407671Y-30893797D01*
X103543833Y-30944582D01*
X103599767Y-30986453D01*
X103624184Y-31051917D01*
X103624500Y-31060764D01*
X103624500Y-31201256D01*
X103604815Y-31268295D01*
X103561478Y-31305846D01*
X103562415Y-31307248D01*
X103469399Y-31369398D01*
X103414033Y-31452260D01*
X103414032Y-31452264D01*
X103399500Y-31525321D01*
X103399500Y-33474678D01*
X103414032Y-33547735D01*
X103414033Y-33547739D01*
X103414034Y-33547740D01*
X103469399Y-33630601D01*
X103552260Y-33685966D01*
X103552264Y-33685967D01*
X103625321Y-33700499D01*
X103625324Y-33700500D01*
X103625326Y-33700500D01*
X104474676Y-33700500D01*
X104474677Y-33700499D01*
X104547740Y-33685966D01*
X104630601Y-33630601D01*
X104685966Y-33547740D01*
X104700500Y-33474674D01*
X104700500Y-31525326D01*
X104700500Y-31525323D01*
X104700499Y-31525321D01*
X104685967Y-31452264D01*
X104685966Y-31452260D01*
X104630601Y-31369399D01*
X104547740Y-31314034D01*
X104547739Y-31314033D01*
X104547736Y-31314032D01*
X104475308Y-31299625D01*
X104413397Y-31267240D01*
X104378823Y-31206523D01*
X104375500Y-31178008D01*
X104375500Y-31060764D01*
X104395185Y-30993725D01*
X104447989Y-30947970D01*
X104456167Y-30944582D01*
X104592328Y-30893797D01*
X104592327Y-30893797D01*
X104592331Y-30893796D01*
X104707546Y-30807546D01*
X104753502Y-30746156D01*
X104809434Y-30704287D01*
X104879125Y-30699303D01*
X104940448Y-30732788D01*
X104961665Y-30763089D01*
X104961851Y-30762975D01*
X104963819Y-30766166D01*
X104965151Y-30768068D01*
X104965642Y-30769121D01*
X105057684Y-30918345D01*
X105176487Y-31037148D01*
X105209972Y-31098471D01*
X105204988Y-31168163D01*
X105188073Y-31199140D01*
X105106647Y-31307911D01*
X105106645Y-31307913D01*
X105056403Y-31442620D01*
X105056401Y-31442627D01*
X105050000Y-31502155D01*
X105050000Y-32100000D01*
X105550000Y-32100000D01*
X106350000Y-32100000D01*
X106850000Y-32100000D01*
X106850000Y-31502172D01*
X106849999Y-31502155D01*
X106843598Y-31442627D01*
X106843596Y-31442620D01*
X106793354Y-31307913D01*
X106793352Y-31307910D01*
X106746541Y-31245379D01*
X106722123Y-31179915D01*
X106736974Y-31111642D01*
X106780713Y-31065527D01*
X106818342Y-31042318D01*
X106942315Y-30918345D01*
X107034356Y-30769124D01*
X107034358Y-30769119D01*
X107089505Y-30602697D01*
X107089506Y-30602690D01*
X107099998Y-30500000D01*
X106500000Y-30500000D01*
X106500000Y-31116000D01*
X106480315Y-31183039D01*
X106427511Y-31228794D01*
X106376000Y-31240000D01*
X106350000Y-31240000D01*
X106350000Y-32100000D01*
X105550000Y-32100000D01*
X105550000Y-31240000D01*
X105536319Y-31226319D01*
X105502834Y-31164996D01*
X105500000Y-31138638D01*
X105500000Y-30000000D01*
X108344722Y-30000000D01*
X108363762Y-30156818D01*
X108407219Y-30271403D01*
X108419780Y-30304523D01*
X108509517Y-30434530D01*
X108627760Y-30539283D01*
X108627762Y-30539284D01*
X108767634Y-30612696D01*
X108921014Y-30650500D01*
X108921015Y-30650500D01*
X109078981Y-30650500D01*
X109078985Y-30650500D01*
X109080209Y-30650198D01*
X109081137Y-30650238D01*
X109086433Y-30649596D01*
X109086539Y-30650475D01*
X109150008Y-30653260D01*
X109207075Y-30693573D01*
X109209160Y-30696281D01*
X109292452Y-30807544D01*
X109292455Y-30807547D01*
X109407664Y-30893793D01*
X109407671Y-30893797D01*
X109543833Y-30944582D01*
X109599767Y-30986453D01*
X109624184Y-31051917D01*
X109624500Y-31060764D01*
X109624500Y-31201256D01*
X109604815Y-31268295D01*
X109561478Y-31305846D01*
X109562415Y-31307248D01*
X109469399Y-31369398D01*
X109414033Y-31452260D01*
X109414032Y-31452264D01*
X109399500Y-31525321D01*
X109399500Y-33474678D01*
X109414032Y-33547735D01*
X109414033Y-33547739D01*
X109414034Y-33547740D01*
X109469399Y-33630601D01*
X109552260Y-33685966D01*
X109552264Y-33685967D01*
X109625321Y-33700499D01*
X109625324Y-33700500D01*
X109625326Y-33700500D01*
X110474676Y-33700500D01*
X110474677Y-33700499D01*
X110547740Y-33685966D01*
X110630601Y-33630601D01*
X110685966Y-33547740D01*
X110700500Y-33474674D01*
X110700500Y-31525326D01*
X110700500Y-31525323D01*
X110700499Y-31525321D01*
X110685967Y-31452264D01*
X110685966Y-31452260D01*
X110630601Y-31369399D01*
X110547740Y-31314034D01*
X110547739Y-31314033D01*
X110547736Y-31314032D01*
X110475308Y-31299625D01*
X110413397Y-31267240D01*
X110378823Y-31206523D01*
X110375500Y-31178008D01*
X110375500Y-31060764D01*
X110395185Y-30993725D01*
X110447989Y-30947970D01*
X110456167Y-30944582D01*
X110592328Y-30893797D01*
X110592327Y-30893797D01*
X110592331Y-30893796D01*
X110707546Y-30807546D01*
X110753502Y-30746156D01*
X110809434Y-30704287D01*
X110879125Y-30699303D01*
X110940448Y-30732788D01*
X110961665Y-30763089D01*
X110961851Y-30762975D01*
X110963819Y-30766166D01*
X110965151Y-30768068D01*
X110965642Y-30769121D01*
X111057684Y-30918345D01*
X111176487Y-31037148D01*
X111209972Y-31098471D01*
X111204988Y-31168163D01*
X111188073Y-31199140D01*
X111106647Y-31307911D01*
X111106645Y-31307913D01*
X111056403Y-31442620D01*
X111056401Y-31442627D01*
X111050000Y-31502155D01*
X111050000Y-32100000D01*
X111550000Y-32100000D01*
X112350000Y-32100000D01*
X112850000Y-32100000D01*
X112850000Y-31502172D01*
X112849999Y-31502155D01*
X112843598Y-31442627D01*
X112843596Y-31442620D01*
X112793354Y-31307913D01*
X112793352Y-31307910D01*
X112746541Y-31245379D01*
X112722123Y-31179915D01*
X112736974Y-31111642D01*
X112780713Y-31065527D01*
X112818342Y-31042318D01*
X112942315Y-30918345D01*
X113034356Y-30769124D01*
X113034358Y-30769119D01*
X113089505Y-30602697D01*
X113089506Y-30602690D01*
X113099998Y-30500000D01*
X112500000Y-30500000D01*
X112500000Y-31116000D01*
X112480315Y-31183039D01*
X112427511Y-31228794D01*
X112376000Y-31240000D01*
X112350000Y-31240000D01*
X112350000Y-32100000D01*
X111550000Y-32100000D01*
X111550000Y-31240000D01*
X111536319Y-31226319D01*
X111502834Y-31164996D01*
X111500000Y-31138638D01*
X111500000Y-30000000D01*
X114344722Y-30000000D01*
X114363762Y-30156818D01*
X114407219Y-30271403D01*
X114419780Y-30304523D01*
X114509517Y-30434530D01*
X114627760Y-30539283D01*
X114627762Y-30539284D01*
X114767634Y-30612696D01*
X114921014Y-30650500D01*
X114921015Y-30650500D01*
X115078981Y-30650500D01*
X115078985Y-30650500D01*
X115080209Y-30650198D01*
X115081137Y-30650238D01*
X115086433Y-30649596D01*
X115086539Y-30650475D01*
X115150008Y-30653260D01*
X115207075Y-30693573D01*
X115209160Y-30696281D01*
X115292452Y-30807544D01*
X115292455Y-30807547D01*
X115407664Y-30893793D01*
X115407671Y-30893797D01*
X115543833Y-30944582D01*
X115599767Y-30986453D01*
X115624184Y-31051917D01*
X115624500Y-31060764D01*
X115624500Y-31201256D01*
X115604815Y-31268295D01*
X115561478Y-31305846D01*
X115562415Y-31307248D01*
X115469399Y-31369398D01*
X115414033Y-31452260D01*
X115414032Y-31452264D01*
X115399500Y-31525321D01*
X115399500Y-33474678D01*
X115414032Y-33547735D01*
X115414033Y-33547739D01*
X115414034Y-33547740D01*
X115469399Y-33630601D01*
X115552260Y-33685966D01*
X115552264Y-33685967D01*
X115625321Y-33700499D01*
X115625324Y-33700500D01*
X115625326Y-33700500D01*
X116474676Y-33700500D01*
X116474677Y-33700499D01*
X116547740Y-33685966D01*
X116630601Y-33630601D01*
X116685966Y-33547740D01*
X116700500Y-33474674D01*
X116700500Y-31525326D01*
X116700500Y-31525323D01*
X116700499Y-31525321D01*
X116685967Y-31452264D01*
X116685966Y-31452260D01*
X116630601Y-31369399D01*
X116547740Y-31314034D01*
X116547739Y-31314033D01*
X116547736Y-31314032D01*
X116475308Y-31299625D01*
X116413397Y-31267240D01*
X116378823Y-31206523D01*
X116375500Y-31178008D01*
X116375500Y-31060764D01*
X116395185Y-30993725D01*
X116447989Y-30947970D01*
X116456167Y-30944582D01*
X116592328Y-30893797D01*
X116592327Y-30893797D01*
X116592331Y-30893796D01*
X116707546Y-30807546D01*
X116753502Y-30746156D01*
X116809434Y-30704287D01*
X116879125Y-30699303D01*
X116940448Y-30732788D01*
X116961665Y-30763089D01*
X116961851Y-30762975D01*
X116963819Y-30766166D01*
X116965151Y-30768068D01*
X116965642Y-30769121D01*
X117057684Y-30918345D01*
X117176487Y-31037148D01*
X117209972Y-31098471D01*
X117204988Y-31168163D01*
X117188073Y-31199140D01*
X117106647Y-31307911D01*
X117106645Y-31307913D01*
X117056403Y-31442620D01*
X117056401Y-31442627D01*
X117050000Y-31502155D01*
X117050000Y-32100000D01*
X117550000Y-32100000D01*
X118350000Y-32100000D01*
X118850000Y-32100000D01*
X118850000Y-31502172D01*
X118849999Y-31502155D01*
X118843598Y-31442627D01*
X118843596Y-31442620D01*
X118793354Y-31307913D01*
X118793352Y-31307910D01*
X118746541Y-31245379D01*
X118722123Y-31179915D01*
X118736974Y-31111642D01*
X118780713Y-31065527D01*
X118818342Y-31042318D01*
X118942315Y-30918345D01*
X119034356Y-30769124D01*
X119034358Y-30769119D01*
X119089505Y-30602697D01*
X119089506Y-30602690D01*
X119099998Y-30500000D01*
X118500000Y-30500000D01*
X118500000Y-31116000D01*
X118480315Y-31183039D01*
X118427511Y-31228794D01*
X118376000Y-31240000D01*
X118350000Y-31240000D01*
X118350000Y-32100000D01*
X117550000Y-32100000D01*
X117550000Y-31240000D01*
X117536319Y-31226319D01*
X117502834Y-31164996D01*
X117500000Y-31138638D01*
X117500000Y-28810218D01*
X118500000Y-28810218D01*
X118500000Y-29500000D01*
X119099997Y-29500000D01*
X119099997Y-29499999D01*
X119089505Y-29397302D01*
X119034358Y-29230880D01*
X119034356Y-29230875D01*
X118942315Y-29081654D01*
X118818345Y-28957684D01*
X118669124Y-28865643D01*
X118669119Y-28865641D01*
X118502695Y-28810494D01*
X118500000Y-28810218D01*
X117500000Y-28810218D01*
X117499999Y-28810218D01*
X117497305Y-28810494D01*
X117497303Y-28810494D01*
X117330880Y-28865641D01*
X117330875Y-28865643D01*
X117181654Y-28957684D01*
X117057684Y-29081654D01*
X116965637Y-29230885D01*
X116965148Y-29231936D01*
X116964620Y-29232535D01*
X116961851Y-29237025D01*
X116961083Y-29236551D01*
X116918975Y-29284375D01*
X116851782Y-29303526D01*
X116784901Y-29283309D01*
X116753501Y-29253841D01*
X116707547Y-29192455D01*
X116707544Y-29192452D01*
X116592335Y-29106206D01*
X116592328Y-29106202D01*
X116457482Y-29055908D01*
X116457483Y-29055908D01*
X116397883Y-29049501D01*
X116397881Y-29049500D01*
X116397873Y-29049500D01*
X116397864Y-29049500D01*
X115602129Y-29049500D01*
X115602123Y-29049501D01*
X115542516Y-29055908D01*
X115407671Y-29106202D01*
X115407664Y-29106206D01*
X115292455Y-29192452D01*
X115209160Y-29303719D01*
X115153226Y-29345589D01*
X115086436Y-29350365D01*
X115086432Y-29350404D01*
X115086233Y-29350379D01*
X115083534Y-29350573D01*
X115080222Y-29349805D01*
X115078985Y-29349500D01*
X114921015Y-29349500D01*
X114921014Y-29349500D01*
X114767634Y-29387303D01*
X114627762Y-29460715D01*
X114509516Y-29565471D01*
X114419781Y-29695475D01*
X114419780Y-29695476D01*
X114363762Y-29843181D01*
X114344722Y-29999999D01*
X114344722Y-30000000D01*
X111500000Y-30000000D01*
X111500000Y-28810218D01*
X112500000Y-28810218D01*
X112500000Y-29500000D01*
X113099997Y-29500000D01*
X113099997Y-29499999D01*
X113089505Y-29397302D01*
X113034358Y-29230880D01*
X113034356Y-29230875D01*
X112942315Y-29081654D01*
X112818345Y-28957684D01*
X112669124Y-28865643D01*
X112669119Y-28865641D01*
X112502695Y-28810494D01*
X112500000Y-28810218D01*
X111500000Y-28810218D01*
X111497305Y-28810494D01*
X111497303Y-28810494D01*
X111330880Y-28865641D01*
X111330875Y-28865643D01*
X111181654Y-28957684D01*
X111057684Y-29081654D01*
X110965637Y-29230885D01*
X110965148Y-29231936D01*
X110964620Y-29232535D01*
X110961851Y-29237025D01*
X110961083Y-29236551D01*
X110918975Y-29284375D01*
X110851782Y-29303526D01*
X110784901Y-29283309D01*
X110753501Y-29253841D01*
X110707547Y-29192455D01*
X110707544Y-29192452D01*
X110592335Y-29106206D01*
X110592328Y-29106202D01*
X110457482Y-29055908D01*
X110457483Y-29055908D01*
X110397883Y-29049501D01*
X110397881Y-29049500D01*
X110397873Y-29049500D01*
X110397864Y-29049500D01*
X109602129Y-29049500D01*
X109602123Y-29049501D01*
X109542516Y-29055908D01*
X109407671Y-29106202D01*
X109407664Y-29106206D01*
X109292455Y-29192452D01*
X109209160Y-29303719D01*
X109153226Y-29345589D01*
X109086436Y-29350365D01*
X109086432Y-29350404D01*
X109086233Y-29350379D01*
X109083534Y-29350573D01*
X109080222Y-29349805D01*
X109078985Y-29349500D01*
X108921015Y-29349500D01*
X108921014Y-29349500D01*
X108767634Y-29387303D01*
X108627762Y-29460715D01*
X108509516Y-29565471D01*
X108419781Y-29695475D01*
X108419780Y-29695476D01*
X108363762Y-29843181D01*
X108344722Y-29999999D01*
X108344722Y-30000000D01*
X105500000Y-30000000D01*
X105500000Y-28810218D01*
X106500000Y-28810218D01*
X106500000Y-29500000D01*
X107099997Y-29500000D01*
X107099997Y-29499999D01*
X107089505Y-29397302D01*
X107034358Y-29230880D01*
X107034356Y-29230875D01*
X106942315Y-29081654D01*
X106818345Y-28957684D01*
X106669124Y-28865643D01*
X106669119Y-28865641D01*
X106502695Y-28810494D01*
X106500000Y-28810218D01*
X105500000Y-28810218D01*
X105497305Y-28810494D01*
X105497303Y-28810494D01*
X105330880Y-28865641D01*
X105330875Y-28865643D01*
X105181654Y-28957684D01*
X105057684Y-29081654D01*
X104965637Y-29230885D01*
X104965148Y-29231936D01*
X104964620Y-29232535D01*
X104961851Y-29237025D01*
X104961083Y-29236551D01*
X104918975Y-29284375D01*
X104851782Y-29303526D01*
X104784901Y-29283309D01*
X104753501Y-29253841D01*
X104707547Y-29192455D01*
X104707544Y-29192452D01*
X104592335Y-29106206D01*
X104592328Y-29106202D01*
X104457482Y-29055908D01*
X104457483Y-29055908D01*
X104397883Y-29049501D01*
X104397881Y-29049500D01*
X104397873Y-29049500D01*
X104397864Y-29049500D01*
X103602129Y-29049500D01*
X103602123Y-29049501D01*
X103542516Y-29055908D01*
X103407671Y-29106202D01*
X103407664Y-29106206D01*
X103292455Y-29192452D01*
X103209160Y-29303719D01*
X103153226Y-29345589D01*
X103086436Y-29350365D01*
X103086432Y-29350404D01*
X103086233Y-29350379D01*
X103083534Y-29350573D01*
X103080222Y-29349805D01*
X103078985Y-29349500D01*
X102921015Y-29349500D01*
X102921014Y-29349500D01*
X102767634Y-29387303D01*
X102627762Y-29460715D01*
X102509516Y-29565471D01*
X102419781Y-29695475D01*
X102419780Y-29695476D01*
X102363762Y-29843181D01*
X102344722Y-29999999D01*
X102344722Y-30000000D01*
X99500000Y-30000000D01*
X99500000Y-28810218D01*
X100500000Y-28810218D01*
X100500000Y-29500000D01*
X101099997Y-29500000D01*
X101099997Y-29499999D01*
X101089505Y-29397302D01*
X101034358Y-29230880D01*
X101034356Y-29230875D01*
X100942315Y-29081654D01*
X100818345Y-28957684D01*
X100669124Y-28865643D01*
X100669119Y-28865641D01*
X100502695Y-28810494D01*
X100500000Y-28810218D01*
X99500000Y-28810218D01*
X99499999Y-28810218D01*
X99497305Y-28810494D01*
X99497303Y-28810494D01*
X99330880Y-28865641D01*
X99330875Y-28865643D01*
X99181654Y-28957684D01*
X99057684Y-29081654D01*
X98965637Y-29230885D01*
X98965148Y-29231936D01*
X98964620Y-29232535D01*
X98961851Y-29237025D01*
X98961083Y-29236551D01*
X98918975Y-29284375D01*
X98851782Y-29303526D01*
X98784901Y-29283309D01*
X98753501Y-29253841D01*
X98707547Y-29192455D01*
X98707544Y-29192452D01*
X98592335Y-29106206D01*
X98592328Y-29106202D01*
X98457482Y-29055908D01*
X98457483Y-29055908D01*
X98397883Y-29049501D01*
X98397881Y-29049500D01*
X98397873Y-29049500D01*
X98397864Y-29049500D01*
X97602129Y-29049500D01*
X97602123Y-29049501D01*
X97542516Y-29055908D01*
X97407671Y-29106202D01*
X97407664Y-29106206D01*
X97292455Y-29192452D01*
X97209160Y-29303719D01*
X97153226Y-29345589D01*
X97086436Y-29350365D01*
X97086432Y-29350404D01*
X97086233Y-29350379D01*
X97083534Y-29350573D01*
X97080222Y-29349805D01*
X97078985Y-29349500D01*
X96921015Y-29349500D01*
X96921014Y-29349500D01*
X96767634Y-29387303D01*
X96627762Y-29460715D01*
X96509516Y-29565471D01*
X96419781Y-29695475D01*
X96419780Y-29695476D01*
X96363762Y-29843181D01*
X96344722Y-29999999D01*
X96344722Y-30000000D01*
X96363763Y-30156818D01*
X96390233Y-30226615D01*
X96395600Y-30296278D01*
X96362452Y-30357785D01*
X96301314Y-30391606D01*
X96240028Y-30387560D01*
X96239649Y-30389099D01*
X96078986Y-30349500D01*
X96078985Y-30349500D01*
X95921015Y-30349500D01*
X95921014Y-30349500D01*
X95767634Y-30387303D01*
X95627762Y-30460715D01*
X95509516Y-30565471D01*
X95419781Y-30695475D01*
X95419780Y-30695476D01*
X95363762Y-30843181D01*
X95344722Y-30999999D01*
X95344722Y-31000000D01*
X95355938Y-31092377D01*
X95344477Y-31161300D01*
X95307154Y-31206589D01*
X95192452Y-31292455D01*
X95106206Y-31407664D01*
X95106202Y-31407671D01*
X95055908Y-31542517D01*
X95049501Y-31602116D01*
X95049501Y-31602123D01*
X95049500Y-31602135D01*
X95049500Y-32397870D01*
X92650500Y-32397870D01*
X92650500Y-31525326D01*
X92650500Y-31525323D01*
X92650499Y-31525321D01*
X92635967Y-31452264D01*
X92635966Y-31452260D01*
X92580601Y-31369399D01*
X92497740Y-31314034D01*
X92497739Y-31314033D01*
X92497737Y-31314032D01*
X92475307Y-31309571D01*
X92413397Y-31277185D01*
X92378823Y-31216469D01*
X92375500Y-31187954D01*
X92375500Y-31060764D01*
X92395185Y-30993725D01*
X92447989Y-30947970D01*
X92456167Y-30944582D01*
X92592328Y-30893797D01*
X92592327Y-30893797D01*
X92592331Y-30893796D01*
X92707546Y-30807546D01*
X92753502Y-30746156D01*
X92809434Y-30704287D01*
X92879125Y-30699303D01*
X92940448Y-30732788D01*
X92961665Y-30763089D01*
X92961851Y-30762975D01*
X92963819Y-30766166D01*
X92965151Y-30768068D01*
X92965642Y-30769121D01*
X93057684Y-30918345D01*
X93149902Y-31010563D01*
X93183387Y-31071886D01*
X93178403Y-31141578D01*
X93146618Y-31184076D01*
X93149082Y-31186540D01*
X93142809Y-31192812D01*
X93056649Y-31307906D01*
X93056645Y-31307913D01*
X93006403Y-31442620D01*
X93006401Y-31442627D01*
X93000000Y-31502155D01*
X93000000Y-32100000D01*
X93500000Y-32100000D01*
X94300000Y-32100000D01*
X94800000Y-32100000D01*
X94800000Y-31502172D01*
X94799999Y-31502155D01*
X94793598Y-31442627D01*
X94793596Y-31442620D01*
X94743354Y-31307913D01*
X94743352Y-31307910D01*
X94712335Y-31266476D01*
X94687918Y-31201011D01*
X94702770Y-31132738D01*
X94746506Y-31086626D01*
X94818343Y-31042317D01*
X94942315Y-30918345D01*
X95034356Y-30769124D01*
X95034358Y-30769119D01*
X95089505Y-30602697D01*
X95089506Y-30602690D01*
X95099998Y-30500000D01*
X94500000Y-30500000D01*
X94500000Y-31116000D01*
X94480315Y-31183039D01*
X94427511Y-31228794D01*
X94376000Y-31240000D01*
X94300000Y-31240000D01*
X94300000Y-32100000D01*
X93500000Y-32100000D01*
X93500000Y-28810218D01*
X94500000Y-28810218D01*
X94500000Y-29500000D01*
X95099997Y-29500000D01*
X95099997Y-29499999D01*
X95089505Y-29397302D01*
X95034358Y-29230880D01*
X95034356Y-29230875D01*
X94942315Y-29081654D01*
X94818345Y-28957684D01*
X94669124Y-28865643D01*
X94669119Y-28865641D01*
X94502695Y-28810494D01*
X94500000Y-28810218D01*
X93500000Y-28810218D01*
X93499999Y-28810218D01*
X93497305Y-28810494D01*
X93497303Y-28810494D01*
X93330880Y-28865641D01*
X93330875Y-28865643D01*
X93181654Y-28957684D01*
X93057684Y-29081654D01*
X92965637Y-29230885D01*
X92965148Y-29231936D01*
X92964620Y-29232535D01*
X92961851Y-29237025D01*
X92961083Y-29236551D01*
X92918975Y-29284375D01*
X92851782Y-29303526D01*
X92784901Y-29283309D01*
X92753501Y-29253841D01*
X92707547Y-29192455D01*
X92707544Y-29192452D01*
X92592335Y-29106206D01*
X92592328Y-29106202D01*
X92457482Y-29055908D01*
X92457483Y-29055908D01*
X92397883Y-29049501D01*
X92397881Y-29049500D01*
X92397873Y-29049500D01*
X92397865Y-29049500D01*
X92268295Y-29049500D01*
X92201256Y-29029815D01*
X92180619Y-29013185D01*
X92094840Y-28927406D01*
X92061357Y-28866084D01*
X92066341Y-28796393D01*
X92066581Y-28795756D01*
X92123938Y-28644519D01*
X92142979Y-28487701D01*
X92142979Y-28487700D01*
X92123938Y-28330882D01*
X92076842Y-28206702D01*
X92067921Y-28183178D01*
X91978184Y-28053171D01*
X91859941Y-27948418D01*
X91859939Y-27948417D01*
X91859938Y-27948416D01*
X91720066Y-27875004D01*
X91566687Y-27837201D01*
X91566686Y-27837201D01*
X91408716Y-27837201D01*
X91408715Y-27837201D01*
X91255335Y-27875004D01*
X91115463Y-27948416D01*
X90997217Y-28053172D01*
X90907482Y-28183176D01*
X90907481Y-28183177D01*
X90851463Y-28330882D01*
X90832423Y-28487700D01*
X90832423Y-28487701D01*
X89000000Y-28487701D01*
X89000000Y-26500000D01*
X91000000Y-26500000D01*
X126997786Y-26500000D01*
X127002208Y-26500157D01*
G37*
%TD.AperFunction*%
%TD*%
M02*
