%TF.GenerationSoftware,KiCad,Pcbnew,7.0.9*%
%TF.CreationDate,2024-06-03T15:21:11+05:30*%
%TF.ProjectId,Precharge,50726563-6861-4726-9765-2e6b69636164,rev?*%
%TF.SameCoordinates,Original*%
%TF.FileFunction,Legend,Top*%
%TF.FilePolarity,Positive*%
%FSLAX46Y46*%
G04 Gerber Fmt 4.6, Leading zero omitted, Abs format (unit mm)*
G04 Created by KiCad (PCBNEW 7.0.9) date 2024-06-03 15:21:11*
%MOMM*%
%LPD*%
G01*
G04 APERTURE LIST*
%ADD10C,0.125000*%
%ADD11C,0.150000*%
%ADD12C,0.120000*%
G04 APERTURE END LIST*
D10*
X113701283Y-76432309D02*
X113701283Y-75932309D01*
X113701283Y-76170404D02*
X113986997Y-76170404D01*
X113986997Y-76432309D02*
X113986997Y-75932309D01*
X114153665Y-75932309D02*
X114320331Y-76432309D01*
X114320331Y-76432309D02*
X114486998Y-75932309D01*
X114939378Y-76384690D02*
X114915569Y-76408500D01*
X114915569Y-76408500D02*
X114844140Y-76432309D01*
X114844140Y-76432309D02*
X114796521Y-76432309D01*
X114796521Y-76432309D02*
X114725093Y-76408500D01*
X114725093Y-76408500D02*
X114677474Y-76360880D01*
X114677474Y-76360880D02*
X114653664Y-76313261D01*
X114653664Y-76313261D02*
X114629855Y-76218023D01*
X114629855Y-76218023D02*
X114629855Y-76146595D01*
X114629855Y-76146595D02*
X114653664Y-76051357D01*
X114653664Y-76051357D02*
X114677474Y-76003738D01*
X114677474Y-76003738D02*
X114725093Y-75956119D01*
X114725093Y-75956119D02*
X114796521Y-75932309D01*
X114796521Y-75932309D02*
X114844140Y-75932309D01*
X114844140Y-75932309D02*
X114915569Y-75956119D01*
X114915569Y-75956119D02*
X114939378Y-75979928D01*
X115367950Y-76098976D02*
X115367950Y-76432309D01*
X115248902Y-75908500D02*
X115129855Y-76265642D01*
X115129855Y-76265642D02*
X115439378Y-76265642D01*
X115582235Y-75932309D02*
X115891759Y-75932309D01*
X115891759Y-75932309D02*
X115725092Y-76122785D01*
X115725092Y-76122785D02*
X115796521Y-76122785D01*
X115796521Y-76122785D02*
X115844140Y-76146595D01*
X115844140Y-76146595D02*
X115867949Y-76170404D01*
X115867949Y-76170404D02*
X115891759Y-76218023D01*
X115891759Y-76218023D02*
X115891759Y-76337071D01*
X115891759Y-76337071D02*
X115867949Y-76384690D01*
X115867949Y-76384690D02*
X115844140Y-76408500D01*
X115844140Y-76408500D02*
X115796521Y-76432309D01*
X115796521Y-76432309D02*
X115653664Y-76432309D01*
X115653664Y-76432309D02*
X115606045Y-76408500D01*
X115606045Y-76408500D02*
X115582235Y-76384690D01*
X116106044Y-76241833D02*
X116486997Y-76241833D01*
X116701283Y-75979928D02*
X116725092Y-75956119D01*
X116725092Y-75956119D02*
X116772711Y-75932309D01*
X116772711Y-75932309D02*
X116891759Y-75932309D01*
X116891759Y-75932309D02*
X116939378Y-75956119D01*
X116939378Y-75956119D02*
X116963187Y-75979928D01*
X116963187Y-75979928D02*
X116986997Y-76027547D01*
X116986997Y-76027547D02*
X116986997Y-76075166D01*
X116986997Y-76075166D02*
X116963187Y-76146595D01*
X116963187Y-76146595D02*
X116677473Y-76432309D01*
X116677473Y-76432309D02*
X116986997Y-76432309D01*
X117296520Y-75932309D02*
X117344139Y-75932309D01*
X117344139Y-75932309D02*
X117391758Y-75956119D01*
X117391758Y-75956119D02*
X117415568Y-75979928D01*
X117415568Y-75979928D02*
X117439377Y-76027547D01*
X117439377Y-76027547D02*
X117463187Y-76122785D01*
X117463187Y-76122785D02*
X117463187Y-76241833D01*
X117463187Y-76241833D02*
X117439377Y-76337071D01*
X117439377Y-76337071D02*
X117415568Y-76384690D01*
X117415568Y-76384690D02*
X117391758Y-76408500D01*
X117391758Y-76408500D02*
X117344139Y-76432309D01*
X117344139Y-76432309D02*
X117296520Y-76432309D01*
X117296520Y-76432309D02*
X117248901Y-76408500D01*
X117248901Y-76408500D02*
X117225092Y-76384690D01*
X117225092Y-76384690D02*
X117201282Y-76337071D01*
X117201282Y-76337071D02*
X117177473Y-76241833D01*
X117177473Y-76241833D02*
X117177473Y-76122785D01*
X117177473Y-76122785D02*
X117201282Y-76027547D01*
X117201282Y-76027547D02*
X117225092Y-75979928D01*
X117225092Y-75979928D02*
X117248901Y-75956119D01*
X117248901Y-75956119D02*
X117296520Y-75932309D01*
X117772710Y-75932309D02*
X117820329Y-75932309D01*
X117820329Y-75932309D02*
X117867948Y-75956119D01*
X117867948Y-75956119D02*
X117891758Y-75979928D01*
X117891758Y-75979928D02*
X117915567Y-76027547D01*
X117915567Y-76027547D02*
X117939377Y-76122785D01*
X117939377Y-76122785D02*
X117939377Y-76241833D01*
X117939377Y-76241833D02*
X117915567Y-76337071D01*
X117915567Y-76337071D02*
X117891758Y-76384690D01*
X117891758Y-76384690D02*
X117867948Y-76408500D01*
X117867948Y-76408500D02*
X117820329Y-76432309D01*
X117820329Y-76432309D02*
X117772710Y-76432309D01*
X117772710Y-76432309D02*
X117725091Y-76408500D01*
X117725091Y-76408500D02*
X117701282Y-76384690D01*
X117701282Y-76384690D02*
X117677472Y-76337071D01*
X117677472Y-76337071D02*
X117653663Y-76241833D01*
X117653663Y-76241833D02*
X117653663Y-76122785D01*
X117653663Y-76122785D02*
X117677472Y-76027547D01*
X117677472Y-76027547D02*
X117701282Y-75979928D01*
X117701282Y-75979928D02*
X117725091Y-75956119D01*
X117725091Y-75956119D02*
X117772710Y-75932309D01*
X118129853Y-76289452D02*
X118367948Y-76289452D01*
X118082234Y-76432309D02*
X118248900Y-75932309D01*
X118248900Y-75932309D02*
X118415567Y-76432309D01*
X118582233Y-76241833D02*
X118963186Y-76241833D01*
X119463186Y-76432309D02*
X119177472Y-76432309D01*
X119320329Y-76432309D02*
X119320329Y-75932309D01*
X119320329Y-75932309D02*
X119272710Y-76003738D01*
X119272710Y-76003738D02*
X119225091Y-76051357D01*
X119225091Y-76051357D02*
X119177472Y-76075166D01*
X119653662Y-75979928D02*
X119677471Y-75956119D01*
X119677471Y-75956119D02*
X119725090Y-75932309D01*
X119725090Y-75932309D02*
X119844138Y-75932309D01*
X119844138Y-75932309D02*
X119891757Y-75956119D01*
X119891757Y-75956119D02*
X119915566Y-75979928D01*
X119915566Y-75979928D02*
X119939376Y-76027547D01*
X119939376Y-76027547D02*
X119939376Y-76075166D01*
X119939376Y-76075166D02*
X119915566Y-76146595D01*
X119915566Y-76146595D02*
X119629852Y-76432309D01*
X119629852Y-76432309D02*
X119939376Y-76432309D01*
X68201283Y-76432309D02*
X68201283Y-75932309D01*
X68201283Y-76170404D02*
X68486997Y-76170404D01*
X68486997Y-76432309D02*
X68486997Y-75932309D01*
X68653665Y-75932309D02*
X68820331Y-76432309D01*
X68820331Y-76432309D02*
X68986998Y-75932309D01*
X69439378Y-76384690D02*
X69415569Y-76408500D01*
X69415569Y-76408500D02*
X69344140Y-76432309D01*
X69344140Y-76432309D02*
X69296521Y-76432309D01*
X69296521Y-76432309D02*
X69225093Y-76408500D01*
X69225093Y-76408500D02*
X69177474Y-76360880D01*
X69177474Y-76360880D02*
X69153664Y-76313261D01*
X69153664Y-76313261D02*
X69129855Y-76218023D01*
X69129855Y-76218023D02*
X69129855Y-76146595D01*
X69129855Y-76146595D02*
X69153664Y-76051357D01*
X69153664Y-76051357D02*
X69177474Y-76003738D01*
X69177474Y-76003738D02*
X69225093Y-75956119D01*
X69225093Y-75956119D02*
X69296521Y-75932309D01*
X69296521Y-75932309D02*
X69344140Y-75932309D01*
X69344140Y-75932309D02*
X69415569Y-75956119D01*
X69415569Y-75956119D02*
X69439378Y-75979928D01*
X69867950Y-76098976D02*
X69867950Y-76432309D01*
X69748902Y-75908500D02*
X69629855Y-76265642D01*
X69629855Y-76265642D02*
X69939378Y-76265642D01*
X70082235Y-75932309D02*
X70391759Y-75932309D01*
X70391759Y-75932309D02*
X70225092Y-76122785D01*
X70225092Y-76122785D02*
X70296521Y-76122785D01*
X70296521Y-76122785D02*
X70344140Y-76146595D01*
X70344140Y-76146595D02*
X70367949Y-76170404D01*
X70367949Y-76170404D02*
X70391759Y-76218023D01*
X70391759Y-76218023D02*
X70391759Y-76337071D01*
X70391759Y-76337071D02*
X70367949Y-76384690D01*
X70367949Y-76384690D02*
X70344140Y-76408500D01*
X70344140Y-76408500D02*
X70296521Y-76432309D01*
X70296521Y-76432309D02*
X70153664Y-76432309D01*
X70153664Y-76432309D02*
X70106045Y-76408500D01*
X70106045Y-76408500D02*
X70082235Y-76384690D01*
X70606044Y-76241833D02*
X70986997Y-76241833D01*
X71201283Y-75979928D02*
X71225092Y-75956119D01*
X71225092Y-75956119D02*
X71272711Y-75932309D01*
X71272711Y-75932309D02*
X71391759Y-75932309D01*
X71391759Y-75932309D02*
X71439378Y-75956119D01*
X71439378Y-75956119D02*
X71463187Y-75979928D01*
X71463187Y-75979928D02*
X71486997Y-76027547D01*
X71486997Y-76027547D02*
X71486997Y-76075166D01*
X71486997Y-76075166D02*
X71463187Y-76146595D01*
X71463187Y-76146595D02*
X71177473Y-76432309D01*
X71177473Y-76432309D02*
X71486997Y-76432309D01*
X71796520Y-75932309D02*
X71844139Y-75932309D01*
X71844139Y-75932309D02*
X71891758Y-75956119D01*
X71891758Y-75956119D02*
X71915568Y-75979928D01*
X71915568Y-75979928D02*
X71939377Y-76027547D01*
X71939377Y-76027547D02*
X71963187Y-76122785D01*
X71963187Y-76122785D02*
X71963187Y-76241833D01*
X71963187Y-76241833D02*
X71939377Y-76337071D01*
X71939377Y-76337071D02*
X71915568Y-76384690D01*
X71915568Y-76384690D02*
X71891758Y-76408500D01*
X71891758Y-76408500D02*
X71844139Y-76432309D01*
X71844139Y-76432309D02*
X71796520Y-76432309D01*
X71796520Y-76432309D02*
X71748901Y-76408500D01*
X71748901Y-76408500D02*
X71725092Y-76384690D01*
X71725092Y-76384690D02*
X71701282Y-76337071D01*
X71701282Y-76337071D02*
X71677473Y-76241833D01*
X71677473Y-76241833D02*
X71677473Y-76122785D01*
X71677473Y-76122785D02*
X71701282Y-76027547D01*
X71701282Y-76027547D02*
X71725092Y-75979928D01*
X71725092Y-75979928D02*
X71748901Y-75956119D01*
X71748901Y-75956119D02*
X71796520Y-75932309D01*
X72272710Y-75932309D02*
X72320329Y-75932309D01*
X72320329Y-75932309D02*
X72367948Y-75956119D01*
X72367948Y-75956119D02*
X72391758Y-75979928D01*
X72391758Y-75979928D02*
X72415567Y-76027547D01*
X72415567Y-76027547D02*
X72439377Y-76122785D01*
X72439377Y-76122785D02*
X72439377Y-76241833D01*
X72439377Y-76241833D02*
X72415567Y-76337071D01*
X72415567Y-76337071D02*
X72391758Y-76384690D01*
X72391758Y-76384690D02*
X72367948Y-76408500D01*
X72367948Y-76408500D02*
X72320329Y-76432309D01*
X72320329Y-76432309D02*
X72272710Y-76432309D01*
X72272710Y-76432309D02*
X72225091Y-76408500D01*
X72225091Y-76408500D02*
X72201282Y-76384690D01*
X72201282Y-76384690D02*
X72177472Y-76337071D01*
X72177472Y-76337071D02*
X72153663Y-76241833D01*
X72153663Y-76241833D02*
X72153663Y-76122785D01*
X72153663Y-76122785D02*
X72177472Y-76027547D01*
X72177472Y-76027547D02*
X72201282Y-75979928D01*
X72201282Y-75979928D02*
X72225091Y-75956119D01*
X72225091Y-75956119D02*
X72272710Y-75932309D01*
X72629853Y-76289452D02*
X72867948Y-76289452D01*
X72582234Y-76432309D02*
X72748900Y-75932309D01*
X72748900Y-75932309D02*
X72915567Y-76432309D01*
X73082233Y-76241833D02*
X73463186Y-76241833D01*
X73963186Y-76432309D02*
X73677472Y-76432309D01*
X73820329Y-76432309D02*
X73820329Y-75932309D01*
X73820329Y-75932309D02*
X73772710Y-76003738D01*
X73772710Y-76003738D02*
X73725091Y-76051357D01*
X73725091Y-76051357D02*
X73677472Y-76075166D01*
X74153662Y-75979928D02*
X74177471Y-75956119D01*
X74177471Y-75956119D02*
X74225090Y-75932309D01*
X74225090Y-75932309D02*
X74344138Y-75932309D01*
X74344138Y-75932309D02*
X74391757Y-75956119D01*
X74391757Y-75956119D02*
X74415566Y-75979928D01*
X74415566Y-75979928D02*
X74439376Y-76027547D01*
X74439376Y-76027547D02*
X74439376Y-76075166D01*
X74439376Y-76075166D02*
X74415566Y-76146595D01*
X74415566Y-76146595D02*
X74129852Y-76432309D01*
X74129852Y-76432309D02*
X74439376Y-76432309D01*
D11*
X122454819Y-27761904D02*
X123264342Y-27761904D01*
X123264342Y-27761904D02*
X123359580Y-27714285D01*
X123359580Y-27714285D02*
X123407200Y-27666666D01*
X123407200Y-27666666D02*
X123454819Y-27571428D01*
X123454819Y-27571428D02*
X123454819Y-27380952D01*
X123454819Y-27380952D02*
X123407200Y-27285714D01*
X123407200Y-27285714D02*
X123359580Y-27238095D01*
X123359580Y-27238095D02*
X123264342Y-27190476D01*
X123264342Y-27190476D02*
X122454819Y-27190476D01*
X122454819Y-26809523D02*
X122454819Y-26142857D01*
X122454819Y-26142857D02*
X123454819Y-26571428D01*
X46797319Y-43482500D02*
X45797319Y-43482500D01*
X46130652Y-43006310D02*
X46797319Y-43006310D01*
X46225890Y-43006310D02*
X46178271Y-42958691D01*
X46178271Y-42958691D02*
X46130652Y-42863453D01*
X46130652Y-42863453D02*
X46130652Y-42720596D01*
X46130652Y-42720596D02*
X46178271Y-42625358D01*
X46178271Y-42625358D02*
X46273509Y-42577739D01*
X46273509Y-42577739D02*
X46797319Y-42577739D01*
X46130652Y-42244405D02*
X46130652Y-41863453D01*
X45797319Y-42101548D02*
X46654461Y-42101548D01*
X46654461Y-42101548D02*
X46749700Y-42053929D01*
X46749700Y-42053929D02*
X46797319Y-41958691D01*
X46797319Y-41958691D02*
X46797319Y-41863453D01*
X46749700Y-41149167D02*
X46797319Y-41244405D01*
X46797319Y-41244405D02*
X46797319Y-41434881D01*
X46797319Y-41434881D02*
X46749700Y-41530119D01*
X46749700Y-41530119D02*
X46654461Y-41577738D01*
X46654461Y-41577738D02*
X46273509Y-41577738D01*
X46273509Y-41577738D02*
X46178271Y-41530119D01*
X46178271Y-41530119D02*
X46130652Y-41434881D01*
X46130652Y-41434881D02*
X46130652Y-41244405D01*
X46130652Y-41244405D02*
X46178271Y-41149167D01*
X46178271Y-41149167D02*
X46273509Y-41101548D01*
X46273509Y-41101548D02*
X46368747Y-41101548D01*
X46368747Y-41101548D02*
X46463985Y-41577738D01*
X46797319Y-40672976D02*
X46130652Y-40672976D01*
X46321128Y-40672976D02*
X46225890Y-40625357D01*
X46225890Y-40625357D02*
X46178271Y-40577738D01*
X46178271Y-40577738D02*
X46130652Y-40482500D01*
X46130652Y-40482500D02*
X46130652Y-40387262D01*
X46130652Y-40196785D02*
X46130652Y-39815833D01*
X45797319Y-40053928D02*
X46654461Y-40053928D01*
X46654461Y-40053928D02*
X46749700Y-40006309D01*
X46749700Y-40006309D02*
X46797319Y-39911071D01*
X46797319Y-39911071D02*
X46797319Y-39815833D01*
X46797319Y-39482499D02*
X46130652Y-39482499D01*
X45797319Y-39482499D02*
X45844938Y-39530118D01*
X45844938Y-39530118D02*
X45892557Y-39482499D01*
X45892557Y-39482499D02*
X45844938Y-39434880D01*
X45844938Y-39434880D02*
X45797319Y-39482499D01*
X45797319Y-39482499D02*
X45892557Y-39482499D01*
X46797319Y-38577738D02*
X46273509Y-38577738D01*
X46273509Y-38577738D02*
X46178271Y-38625357D01*
X46178271Y-38625357D02*
X46130652Y-38720595D01*
X46130652Y-38720595D02*
X46130652Y-38911071D01*
X46130652Y-38911071D02*
X46178271Y-39006309D01*
X46749700Y-38577738D02*
X46797319Y-38672976D01*
X46797319Y-38672976D02*
X46797319Y-38911071D01*
X46797319Y-38911071D02*
X46749700Y-39006309D01*
X46749700Y-39006309D02*
X46654461Y-39053928D01*
X46654461Y-39053928D02*
X46559223Y-39053928D01*
X46559223Y-39053928D02*
X46463985Y-39006309D01*
X46463985Y-39006309D02*
X46416366Y-38911071D01*
X46416366Y-38911071D02*
X46416366Y-38672976D01*
X46416366Y-38672976D02*
X46368747Y-38577738D01*
X46797319Y-37958690D02*
X46749700Y-38053928D01*
X46749700Y-38053928D02*
X46654461Y-38101547D01*
X46654461Y-38101547D02*
X45797319Y-38101547D01*
X46749700Y-36863451D02*
X46797319Y-36720594D01*
X46797319Y-36720594D02*
X46797319Y-36482499D01*
X46797319Y-36482499D02*
X46749700Y-36387261D01*
X46749700Y-36387261D02*
X46702080Y-36339642D01*
X46702080Y-36339642D02*
X46606842Y-36292023D01*
X46606842Y-36292023D02*
X46511604Y-36292023D01*
X46511604Y-36292023D02*
X46416366Y-36339642D01*
X46416366Y-36339642D02*
X46368747Y-36387261D01*
X46368747Y-36387261D02*
X46321128Y-36482499D01*
X46321128Y-36482499D02*
X46273509Y-36672975D01*
X46273509Y-36672975D02*
X46225890Y-36768213D01*
X46225890Y-36768213D02*
X46178271Y-36815832D01*
X46178271Y-36815832D02*
X46083033Y-36863451D01*
X46083033Y-36863451D02*
X45987795Y-36863451D01*
X45987795Y-36863451D02*
X45892557Y-36815832D01*
X45892557Y-36815832D02*
X45844938Y-36768213D01*
X45844938Y-36768213D02*
X45797319Y-36672975D01*
X45797319Y-36672975D02*
X45797319Y-36434880D01*
X45797319Y-36434880D02*
X45844938Y-36292023D01*
X46130652Y-35958689D02*
X46797319Y-35768213D01*
X46797319Y-35768213D02*
X46321128Y-35577737D01*
X46321128Y-35577737D02*
X46797319Y-35387261D01*
X46797319Y-35387261D02*
X46130652Y-35196785D01*
X46797319Y-34815832D02*
X46130652Y-34815832D01*
X45797319Y-34815832D02*
X45844938Y-34863451D01*
X45844938Y-34863451D02*
X45892557Y-34815832D01*
X45892557Y-34815832D02*
X45844938Y-34768213D01*
X45844938Y-34768213D02*
X45797319Y-34815832D01*
X45797319Y-34815832D02*
X45892557Y-34815832D01*
X46130652Y-34482499D02*
X46130652Y-34101547D01*
X45797319Y-34339642D02*
X46654461Y-34339642D01*
X46654461Y-34339642D02*
X46749700Y-34292023D01*
X46749700Y-34292023D02*
X46797319Y-34196785D01*
X46797319Y-34196785D02*
X46797319Y-34101547D01*
X46749700Y-33339642D02*
X46797319Y-33434880D01*
X46797319Y-33434880D02*
X46797319Y-33625356D01*
X46797319Y-33625356D02*
X46749700Y-33720594D01*
X46749700Y-33720594D02*
X46702080Y-33768213D01*
X46702080Y-33768213D02*
X46606842Y-33815832D01*
X46606842Y-33815832D02*
X46321128Y-33815832D01*
X46321128Y-33815832D02*
X46225890Y-33768213D01*
X46225890Y-33768213D02*
X46178271Y-33720594D01*
X46178271Y-33720594D02*
X46130652Y-33625356D01*
X46130652Y-33625356D02*
X46130652Y-33434880D01*
X46130652Y-33434880D02*
X46178271Y-33339642D01*
X46797319Y-32911070D02*
X45797319Y-32911070D01*
X46797319Y-32482499D02*
X46273509Y-32482499D01*
X46273509Y-32482499D02*
X46178271Y-32530118D01*
X46178271Y-32530118D02*
X46130652Y-32625356D01*
X46130652Y-32625356D02*
X46130652Y-32768213D01*
X46130652Y-32768213D02*
X46178271Y-32863451D01*
X46178271Y-32863451D02*
X46225890Y-32911070D01*
X70761905Y-39454819D02*
X70761905Y-38454819D01*
X70761905Y-38454819D02*
X71000000Y-38454819D01*
X71000000Y-38454819D02*
X71142857Y-38502438D01*
X71142857Y-38502438D02*
X71238095Y-38597676D01*
X71238095Y-38597676D02*
X71285714Y-38692914D01*
X71285714Y-38692914D02*
X71333333Y-38883390D01*
X71333333Y-38883390D02*
X71333333Y-39026247D01*
X71333333Y-39026247D02*
X71285714Y-39216723D01*
X71285714Y-39216723D02*
X71238095Y-39311961D01*
X71238095Y-39311961D02*
X71142857Y-39407200D01*
X71142857Y-39407200D02*
X71000000Y-39454819D01*
X71000000Y-39454819D02*
X70761905Y-39454819D01*
X71666667Y-38454819D02*
X72333333Y-38454819D01*
X72333333Y-38454819D02*
X71904762Y-39454819D01*
X98916666Y-11904819D02*
X98916666Y-12619104D01*
X98916666Y-12619104D02*
X98869047Y-12761961D01*
X98869047Y-12761961D02*
X98773809Y-12857200D01*
X98773809Y-12857200D02*
X98630952Y-12904819D01*
X98630952Y-12904819D02*
X98535714Y-12904819D01*
X99916666Y-12904819D02*
X99345238Y-12904819D01*
X99630952Y-12904819D02*
X99630952Y-11904819D01*
X99630952Y-11904819D02*
X99535714Y-12047676D01*
X99535714Y-12047676D02*
X99440476Y-12142914D01*
X99440476Y-12142914D02*
X99345238Y-12190533D01*
X102454819Y-38738094D02*
X101454819Y-38738094D01*
X101454819Y-38738094D02*
X101454819Y-38499999D01*
X101454819Y-38499999D02*
X101502438Y-38357142D01*
X101502438Y-38357142D02*
X101597676Y-38261904D01*
X101597676Y-38261904D02*
X101692914Y-38214285D01*
X101692914Y-38214285D02*
X101883390Y-38166666D01*
X101883390Y-38166666D02*
X102026247Y-38166666D01*
X102026247Y-38166666D02*
X102216723Y-38214285D01*
X102216723Y-38214285D02*
X102311961Y-38261904D01*
X102311961Y-38261904D02*
X102407200Y-38357142D01*
X102407200Y-38357142D02*
X102454819Y-38499999D01*
X102454819Y-38499999D02*
X102454819Y-38738094D01*
X101454819Y-37261904D02*
X101454819Y-37738094D01*
X101454819Y-37738094D02*
X101931009Y-37785713D01*
X101931009Y-37785713D02*
X101883390Y-37738094D01*
X101883390Y-37738094D02*
X101835771Y-37642856D01*
X101835771Y-37642856D02*
X101835771Y-37404761D01*
X101835771Y-37404761D02*
X101883390Y-37309523D01*
X101883390Y-37309523D02*
X101931009Y-37261904D01*
X101931009Y-37261904D02*
X102026247Y-37214285D01*
X102026247Y-37214285D02*
X102264342Y-37214285D01*
X102264342Y-37214285D02*
X102359580Y-37261904D01*
X102359580Y-37261904D02*
X102407200Y-37309523D01*
X102407200Y-37309523D02*
X102454819Y-37404761D01*
X102454819Y-37404761D02*
X102454819Y-37642856D01*
X102454819Y-37642856D02*
X102407200Y-37738094D01*
X102407200Y-37738094D02*
X102359580Y-37785713D01*
X79333333Y-67954819D02*
X79000000Y-67478628D01*
X78761905Y-67954819D02*
X78761905Y-66954819D01*
X78761905Y-66954819D02*
X79142857Y-66954819D01*
X79142857Y-66954819D02*
X79238095Y-67002438D01*
X79238095Y-67002438D02*
X79285714Y-67050057D01*
X79285714Y-67050057D02*
X79333333Y-67145295D01*
X79333333Y-67145295D02*
X79333333Y-67288152D01*
X79333333Y-67288152D02*
X79285714Y-67383390D01*
X79285714Y-67383390D02*
X79238095Y-67431009D01*
X79238095Y-67431009D02*
X79142857Y-67478628D01*
X79142857Y-67478628D02*
X78761905Y-67478628D01*
X79809524Y-67954819D02*
X80000000Y-67954819D01*
X80000000Y-67954819D02*
X80095238Y-67907200D01*
X80095238Y-67907200D02*
X80142857Y-67859580D01*
X80142857Y-67859580D02*
X80238095Y-67716723D01*
X80238095Y-67716723D02*
X80285714Y-67526247D01*
X80285714Y-67526247D02*
X80285714Y-67145295D01*
X80285714Y-67145295D02*
X80238095Y-67050057D01*
X80238095Y-67050057D02*
X80190476Y-67002438D01*
X80190476Y-67002438D02*
X80095238Y-66954819D01*
X80095238Y-66954819D02*
X79904762Y-66954819D01*
X79904762Y-66954819D02*
X79809524Y-67002438D01*
X79809524Y-67002438D02*
X79761905Y-67050057D01*
X79761905Y-67050057D02*
X79714286Y-67145295D01*
X79714286Y-67145295D02*
X79714286Y-67383390D01*
X79714286Y-67383390D02*
X79761905Y-67478628D01*
X79761905Y-67478628D02*
X79809524Y-67526247D01*
X79809524Y-67526247D02*
X79904762Y-67573866D01*
X79904762Y-67573866D02*
X80095238Y-67573866D01*
X80095238Y-67573866D02*
X80190476Y-67526247D01*
X80190476Y-67526247D02*
X80238095Y-67478628D01*
X80238095Y-67478628D02*
X80285714Y-67383390D01*
X76166666Y-68788152D02*
X76166666Y-69454819D01*
X75928571Y-68407200D02*
X75690476Y-69121485D01*
X75690476Y-69121485D02*
X76309523Y-69121485D01*
X76595238Y-68454819D02*
X77261904Y-68454819D01*
X77261904Y-68454819D02*
X76833333Y-69454819D01*
X78214285Y-69454819D02*
X77880952Y-68978628D01*
X77642857Y-69454819D02*
X77642857Y-68454819D01*
X77642857Y-68454819D02*
X78023809Y-68454819D01*
X78023809Y-68454819D02*
X78119047Y-68502438D01*
X78119047Y-68502438D02*
X78166666Y-68550057D01*
X78166666Y-68550057D02*
X78214285Y-68645295D01*
X78214285Y-68645295D02*
X78214285Y-68788152D01*
X78214285Y-68788152D02*
X78166666Y-68883390D01*
X78166666Y-68883390D02*
X78119047Y-68931009D01*
X78119047Y-68931009D02*
X78023809Y-68978628D01*
X78023809Y-68978628D02*
X77642857Y-68978628D01*
X79119047Y-68454819D02*
X78642857Y-68454819D01*
X78642857Y-68454819D02*
X78595238Y-68931009D01*
X78595238Y-68931009D02*
X78642857Y-68883390D01*
X78642857Y-68883390D02*
X78738095Y-68835771D01*
X78738095Y-68835771D02*
X78976190Y-68835771D01*
X78976190Y-68835771D02*
X79071428Y-68883390D01*
X79071428Y-68883390D02*
X79119047Y-68931009D01*
X79119047Y-68931009D02*
X79166666Y-69026247D01*
X79166666Y-69026247D02*
X79166666Y-69264342D01*
X79166666Y-69264342D02*
X79119047Y-69359580D01*
X79119047Y-69359580D02*
X79071428Y-69407200D01*
X79071428Y-69407200D02*
X78976190Y-69454819D01*
X78976190Y-69454819D02*
X78738095Y-69454819D01*
X78738095Y-69454819D02*
X78642857Y-69407200D01*
X78642857Y-69407200D02*
X78595238Y-69359580D01*
X79500000Y-68454819D02*
X79738095Y-69454819D01*
X79738095Y-69454819D02*
X79928571Y-68740533D01*
X79928571Y-68740533D02*
X80119047Y-69454819D01*
X80119047Y-69454819D02*
X80357143Y-68454819D01*
X84833333Y-14454819D02*
X84357143Y-14454819D01*
X84357143Y-14454819D02*
X84357143Y-13454819D01*
X85690476Y-14454819D02*
X85119048Y-14454819D01*
X85404762Y-14454819D02*
X85404762Y-13454819D01*
X85404762Y-13454819D02*
X85309524Y-13597676D01*
X85309524Y-13597676D02*
X85214286Y-13692914D01*
X85214286Y-13692914D02*
X85119048Y-13740533D01*
X120954819Y-19142857D02*
X120478628Y-19476190D01*
X120954819Y-19714285D02*
X119954819Y-19714285D01*
X119954819Y-19714285D02*
X119954819Y-19333333D01*
X119954819Y-19333333D02*
X120002438Y-19238095D01*
X120002438Y-19238095D02*
X120050057Y-19190476D01*
X120050057Y-19190476D02*
X120145295Y-19142857D01*
X120145295Y-19142857D02*
X120288152Y-19142857D01*
X120288152Y-19142857D02*
X120383390Y-19190476D01*
X120383390Y-19190476D02*
X120431009Y-19238095D01*
X120431009Y-19238095D02*
X120478628Y-19333333D01*
X120478628Y-19333333D02*
X120478628Y-19714285D01*
X120954819Y-18190476D02*
X120954819Y-18761904D01*
X120954819Y-18476190D02*
X119954819Y-18476190D01*
X119954819Y-18476190D02*
X120097676Y-18571428D01*
X120097676Y-18571428D02*
X120192914Y-18666666D01*
X120192914Y-18666666D02*
X120240533Y-18761904D01*
X119954819Y-17857142D02*
X119954819Y-17238095D01*
X119954819Y-17238095D02*
X120335771Y-17571428D01*
X120335771Y-17571428D02*
X120335771Y-17428571D01*
X120335771Y-17428571D02*
X120383390Y-17333333D01*
X120383390Y-17333333D02*
X120431009Y-17285714D01*
X120431009Y-17285714D02*
X120526247Y-17238095D01*
X120526247Y-17238095D02*
X120764342Y-17238095D01*
X120764342Y-17238095D02*
X120859580Y-17285714D01*
X120859580Y-17285714D02*
X120907200Y-17333333D01*
X120907200Y-17333333D02*
X120954819Y-17428571D01*
X120954819Y-17428571D02*
X120954819Y-17714285D01*
X120954819Y-17714285D02*
X120907200Y-17809523D01*
X120907200Y-17809523D02*
X120859580Y-17857142D01*
X110454819Y-27761904D02*
X111264342Y-27761904D01*
X111264342Y-27761904D02*
X111359580Y-27714285D01*
X111359580Y-27714285D02*
X111407200Y-27666666D01*
X111407200Y-27666666D02*
X111454819Y-27571428D01*
X111454819Y-27571428D02*
X111454819Y-27380952D01*
X111454819Y-27380952D02*
X111407200Y-27285714D01*
X111407200Y-27285714D02*
X111359580Y-27238095D01*
X111359580Y-27238095D02*
X111264342Y-27190476D01*
X111264342Y-27190476D02*
X110454819Y-27190476D01*
X110454819Y-26238095D02*
X110454819Y-26714285D01*
X110454819Y-26714285D02*
X110931009Y-26761904D01*
X110931009Y-26761904D02*
X110883390Y-26714285D01*
X110883390Y-26714285D02*
X110835771Y-26619047D01*
X110835771Y-26619047D02*
X110835771Y-26380952D01*
X110835771Y-26380952D02*
X110883390Y-26285714D01*
X110883390Y-26285714D02*
X110931009Y-26238095D01*
X110931009Y-26238095D02*
X111026247Y-26190476D01*
X111026247Y-26190476D02*
X111264342Y-26190476D01*
X111264342Y-26190476D02*
X111359580Y-26238095D01*
X111359580Y-26238095D02*
X111407200Y-26285714D01*
X111407200Y-26285714D02*
X111454819Y-26380952D01*
X111454819Y-26380952D02*
X111454819Y-26619047D01*
X111454819Y-26619047D02*
X111407200Y-26714285D01*
X111407200Y-26714285D02*
X111359580Y-26761904D01*
X116454819Y-27761904D02*
X117264342Y-27761904D01*
X117264342Y-27761904D02*
X117359580Y-27714285D01*
X117359580Y-27714285D02*
X117407200Y-27666666D01*
X117407200Y-27666666D02*
X117454819Y-27571428D01*
X117454819Y-27571428D02*
X117454819Y-27380952D01*
X117454819Y-27380952D02*
X117407200Y-27285714D01*
X117407200Y-27285714D02*
X117359580Y-27238095D01*
X117359580Y-27238095D02*
X117264342Y-27190476D01*
X117264342Y-27190476D02*
X116454819Y-27190476D01*
X116454819Y-26285714D02*
X116454819Y-26476190D01*
X116454819Y-26476190D02*
X116502438Y-26571428D01*
X116502438Y-26571428D02*
X116550057Y-26619047D01*
X116550057Y-26619047D02*
X116692914Y-26714285D01*
X116692914Y-26714285D02*
X116883390Y-26761904D01*
X116883390Y-26761904D02*
X117264342Y-26761904D01*
X117264342Y-26761904D02*
X117359580Y-26714285D01*
X117359580Y-26714285D02*
X117407200Y-26666666D01*
X117407200Y-26666666D02*
X117454819Y-26571428D01*
X117454819Y-26571428D02*
X117454819Y-26380952D01*
X117454819Y-26380952D02*
X117407200Y-26285714D01*
X117407200Y-26285714D02*
X117359580Y-26238095D01*
X117359580Y-26238095D02*
X117264342Y-26190476D01*
X117264342Y-26190476D02*
X117026247Y-26190476D01*
X117026247Y-26190476D02*
X116931009Y-26238095D01*
X116931009Y-26238095D02*
X116883390Y-26285714D01*
X116883390Y-26285714D02*
X116835771Y-26380952D01*
X116835771Y-26380952D02*
X116835771Y-26571428D01*
X116835771Y-26571428D02*
X116883390Y-26666666D01*
X116883390Y-26666666D02*
X116931009Y-26714285D01*
X116931009Y-26714285D02*
X117026247Y-26761904D01*
X45214285Y-21269771D02*
X44928571Y-21269771D01*
X44928571Y-21269771D02*
X44928571Y-20669771D01*
X45328570Y-20669771D02*
X45528570Y-21269771D01*
X45528570Y-21269771D02*
X45728570Y-20669771D01*
X46357142Y-21241200D02*
X46442857Y-21269771D01*
X46442857Y-21269771D02*
X46585714Y-21269771D01*
X46585714Y-21269771D02*
X46642857Y-21241200D01*
X46642857Y-21241200D02*
X46671428Y-21212628D01*
X46671428Y-21212628D02*
X46699999Y-21155485D01*
X46699999Y-21155485D02*
X46699999Y-21098342D01*
X46699999Y-21098342D02*
X46671428Y-21041200D01*
X46671428Y-21041200D02*
X46642857Y-21012628D01*
X46642857Y-21012628D02*
X46585714Y-20984057D01*
X46585714Y-20984057D02*
X46471428Y-20955485D01*
X46471428Y-20955485D02*
X46414285Y-20926914D01*
X46414285Y-20926914D02*
X46385714Y-20898342D01*
X46385714Y-20898342D02*
X46357142Y-20841200D01*
X46357142Y-20841200D02*
X46357142Y-20784057D01*
X46357142Y-20784057D02*
X46385714Y-20726914D01*
X46385714Y-20726914D02*
X46414285Y-20698342D01*
X46414285Y-20698342D02*
X46471428Y-20669771D01*
X46471428Y-20669771D02*
X46614285Y-20669771D01*
X46614285Y-20669771D02*
X46699999Y-20698342D01*
X47214286Y-20869771D02*
X47214286Y-21269771D01*
X46957143Y-20869771D02*
X46957143Y-21184057D01*
X46957143Y-21184057D02*
X46985714Y-21241200D01*
X46985714Y-21241200D02*
X47042857Y-21269771D01*
X47042857Y-21269771D02*
X47128571Y-21269771D01*
X47128571Y-21269771D02*
X47185714Y-21241200D01*
X47185714Y-21241200D02*
X47214286Y-21212628D01*
X47500000Y-20869771D02*
X47500000Y-21469771D01*
X47500000Y-20898342D02*
X47557143Y-20869771D01*
X47557143Y-20869771D02*
X47671428Y-20869771D01*
X47671428Y-20869771D02*
X47728571Y-20898342D01*
X47728571Y-20898342D02*
X47757143Y-20926914D01*
X47757143Y-20926914D02*
X47785714Y-20984057D01*
X47785714Y-20984057D02*
X47785714Y-21155485D01*
X47785714Y-21155485D02*
X47757143Y-21212628D01*
X47757143Y-21212628D02*
X47728571Y-21241200D01*
X47728571Y-21241200D02*
X47671428Y-21269771D01*
X47671428Y-21269771D02*
X47557143Y-21269771D01*
X47557143Y-21269771D02*
X47500000Y-21241200D01*
X48042857Y-20869771D02*
X48042857Y-21469771D01*
X48042857Y-20898342D02*
X48100000Y-20869771D01*
X48100000Y-20869771D02*
X48214285Y-20869771D01*
X48214285Y-20869771D02*
X48271428Y-20898342D01*
X48271428Y-20898342D02*
X48300000Y-20926914D01*
X48300000Y-20926914D02*
X48328571Y-20984057D01*
X48328571Y-20984057D02*
X48328571Y-21155485D01*
X48328571Y-21155485D02*
X48300000Y-21212628D01*
X48300000Y-21212628D02*
X48271428Y-21241200D01*
X48271428Y-21241200D02*
X48214285Y-21269771D01*
X48214285Y-21269771D02*
X48100000Y-21269771D01*
X48100000Y-21269771D02*
X48042857Y-21241200D01*
X48671428Y-21269771D02*
X48614285Y-21241200D01*
X48614285Y-21241200D02*
X48585714Y-21184057D01*
X48585714Y-21184057D02*
X48585714Y-20669771D01*
X48842857Y-20869771D02*
X48985714Y-21269771D01*
X49128571Y-20869771D02*
X48985714Y-21269771D01*
X48985714Y-21269771D02*
X48928571Y-21412628D01*
X48928571Y-21412628D02*
X48900000Y-21441200D01*
X48900000Y-21441200D02*
X48842857Y-21469771D01*
X45809524Y-67954819D02*
X45809524Y-66954819D01*
X45809524Y-66954819D02*
X46047619Y-66954819D01*
X46047619Y-66954819D02*
X46190476Y-67002438D01*
X46190476Y-67002438D02*
X46285714Y-67097676D01*
X46285714Y-67097676D02*
X46333333Y-67192914D01*
X46333333Y-67192914D02*
X46380952Y-67383390D01*
X46380952Y-67383390D02*
X46380952Y-67526247D01*
X46380952Y-67526247D02*
X46333333Y-67716723D01*
X46333333Y-67716723D02*
X46285714Y-67811961D01*
X46285714Y-67811961D02*
X46190476Y-67907200D01*
X46190476Y-67907200D02*
X46047619Y-67954819D01*
X46047619Y-67954819D02*
X45809524Y-67954819D01*
X47380952Y-67859580D02*
X47333333Y-67907200D01*
X47333333Y-67907200D02*
X47190476Y-67954819D01*
X47190476Y-67954819D02*
X47095238Y-67954819D01*
X47095238Y-67954819D02*
X46952381Y-67907200D01*
X46952381Y-67907200D02*
X46857143Y-67811961D01*
X46857143Y-67811961D02*
X46809524Y-67716723D01*
X46809524Y-67716723D02*
X46761905Y-67526247D01*
X46761905Y-67526247D02*
X46761905Y-67383390D01*
X46761905Y-67383390D02*
X46809524Y-67192914D01*
X46809524Y-67192914D02*
X46857143Y-67097676D01*
X46857143Y-67097676D02*
X46952381Y-67002438D01*
X46952381Y-67002438D02*
X47095238Y-66954819D01*
X47095238Y-66954819D02*
X47190476Y-66954819D01*
X47190476Y-66954819D02*
X47333333Y-67002438D01*
X47333333Y-67002438D02*
X47380952Y-67050057D01*
X47666667Y-66954819D02*
X48000000Y-67954819D01*
X48000000Y-67954819D02*
X48333333Y-66954819D01*
X126559819Y-15333333D02*
X127274104Y-15333333D01*
X127274104Y-15333333D02*
X127416961Y-15380952D01*
X127416961Y-15380952D02*
X127512200Y-15476190D01*
X127512200Y-15476190D02*
X127559819Y-15619047D01*
X127559819Y-15619047D02*
X127559819Y-15714285D01*
X127559819Y-14809523D02*
X127559819Y-14619047D01*
X127559819Y-14619047D02*
X127512200Y-14523809D01*
X127512200Y-14523809D02*
X127464580Y-14476190D01*
X127464580Y-14476190D02*
X127321723Y-14380952D01*
X127321723Y-14380952D02*
X127131247Y-14333333D01*
X127131247Y-14333333D02*
X126750295Y-14333333D01*
X126750295Y-14333333D02*
X126655057Y-14380952D01*
X126655057Y-14380952D02*
X126607438Y-14428571D01*
X126607438Y-14428571D02*
X126559819Y-14523809D01*
X126559819Y-14523809D02*
X126559819Y-14714285D01*
X126559819Y-14714285D02*
X126607438Y-14809523D01*
X126607438Y-14809523D02*
X126655057Y-14857142D01*
X126655057Y-14857142D02*
X126750295Y-14904761D01*
X126750295Y-14904761D02*
X126988390Y-14904761D01*
X126988390Y-14904761D02*
X127083628Y-14857142D01*
X127083628Y-14857142D02*
X127131247Y-14809523D01*
X127131247Y-14809523D02*
X127178866Y-14714285D01*
X127178866Y-14714285D02*
X127178866Y-14523809D01*
X127178866Y-14523809D02*
X127131247Y-14428571D01*
X127131247Y-14428571D02*
X127083628Y-14380952D01*
X127083628Y-14380952D02*
X126988390Y-14333333D01*
X50333333Y-14859580D02*
X50285714Y-14907200D01*
X50285714Y-14907200D02*
X50142857Y-14954819D01*
X50142857Y-14954819D02*
X50047619Y-14954819D01*
X50047619Y-14954819D02*
X49904762Y-14907200D01*
X49904762Y-14907200D02*
X49809524Y-14811961D01*
X49809524Y-14811961D02*
X49761905Y-14716723D01*
X49761905Y-14716723D02*
X49714286Y-14526247D01*
X49714286Y-14526247D02*
X49714286Y-14383390D01*
X49714286Y-14383390D02*
X49761905Y-14192914D01*
X49761905Y-14192914D02*
X49809524Y-14097676D01*
X49809524Y-14097676D02*
X49904762Y-14002438D01*
X49904762Y-14002438D02*
X50047619Y-13954819D01*
X50047619Y-13954819D02*
X50142857Y-13954819D01*
X50142857Y-13954819D02*
X50285714Y-14002438D01*
X50285714Y-14002438D02*
X50333333Y-14050057D01*
X50714286Y-14050057D02*
X50761905Y-14002438D01*
X50761905Y-14002438D02*
X50857143Y-13954819D01*
X50857143Y-13954819D02*
X51095238Y-13954819D01*
X51095238Y-13954819D02*
X51190476Y-14002438D01*
X51190476Y-14002438D02*
X51238095Y-14050057D01*
X51238095Y-14050057D02*
X51285714Y-14145295D01*
X51285714Y-14145295D02*
X51285714Y-14240533D01*
X51285714Y-14240533D02*
X51238095Y-14383390D01*
X51238095Y-14383390D02*
X50666667Y-14954819D01*
X50666667Y-14954819D02*
X51285714Y-14954819D01*
X55833333Y-27859580D02*
X55785714Y-27907200D01*
X55785714Y-27907200D02*
X55642857Y-27954819D01*
X55642857Y-27954819D02*
X55547619Y-27954819D01*
X55547619Y-27954819D02*
X55404762Y-27907200D01*
X55404762Y-27907200D02*
X55309524Y-27811961D01*
X55309524Y-27811961D02*
X55261905Y-27716723D01*
X55261905Y-27716723D02*
X55214286Y-27526247D01*
X55214286Y-27526247D02*
X55214286Y-27383390D01*
X55214286Y-27383390D02*
X55261905Y-27192914D01*
X55261905Y-27192914D02*
X55309524Y-27097676D01*
X55309524Y-27097676D02*
X55404762Y-27002438D01*
X55404762Y-27002438D02*
X55547619Y-26954819D01*
X55547619Y-26954819D02*
X55642857Y-26954819D01*
X55642857Y-26954819D02*
X55785714Y-27002438D01*
X55785714Y-27002438D02*
X55833333Y-27050057D01*
X56785714Y-27954819D02*
X56214286Y-27954819D01*
X56500000Y-27954819D02*
X56500000Y-26954819D01*
X56500000Y-26954819D02*
X56404762Y-27097676D01*
X56404762Y-27097676D02*
X56309524Y-27192914D01*
X56309524Y-27192914D02*
X56214286Y-27240533D01*
X104357142Y-67954819D02*
X104023809Y-67478628D01*
X103785714Y-67954819D02*
X103785714Y-66954819D01*
X103785714Y-66954819D02*
X104166666Y-66954819D01*
X104166666Y-66954819D02*
X104261904Y-67002438D01*
X104261904Y-67002438D02*
X104309523Y-67050057D01*
X104309523Y-67050057D02*
X104357142Y-67145295D01*
X104357142Y-67145295D02*
X104357142Y-67288152D01*
X104357142Y-67288152D02*
X104309523Y-67383390D01*
X104309523Y-67383390D02*
X104261904Y-67431009D01*
X104261904Y-67431009D02*
X104166666Y-67478628D01*
X104166666Y-67478628D02*
X103785714Y-67478628D01*
X105309523Y-67954819D02*
X104738095Y-67954819D01*
X105023809Y-67954819D02*
X105023809Y-66954819D01*
X105023809Y-66954819D02*
X104928571Y-67097676D01*
X104928571Y-67097676D02*
X104833333Y-67192914D01*
X104833333Y-67192914D02*
X104738095Y-67240533D01*
X105690476Y-67050057D02*
X105738095Y-67002438D01*
X105738095Y-67002438D02*
X105833333Y-66954819D01*
X105833333Y-66954819D02*
X106071428Y-66954819D01*
X106071428Y-66954819D02*
X106166666Y-67002438D01*
X106166666Y-67002438D02*
X106214285Y-67050057D01*
X106214285Y-67050057D02*
X106261904Y-67145295D01*
X106261904Y-67145295D02*
X106261904Y-67240533D01*
X106261904Y-67240533D02*
X106214285Y-67383390D01*
X106214285Y-67383390D02*
X105642857Y-67954819D01*
X105642857Y-67954819D02*
X106261904Y-67954819D01*
X102166666Y-68788152D02*
X102166666Y-69454819D01*
X101928571Y-68407200D02*
X101690476Y-69121485D01*
X101690476Y-69121485D02*
X102309523Y-69121485D01*
X102595238Y-68454819D02*
X103261904Y-68454819D01*
X103261904Y-68454819D02*
X102833333Y-69454819D01*
X104214285Y-69454819D02*
X103880952Y-68978628D01*
X103642857Y-69454819D02*
X103642857Y-68454819D01*
X103642857Y-68454819D02*
X104023809Y-68454819D01*
X104023809Y-68454819D02*
X104119047Y-68502438D01*
X104119047Y-68502438D02*
X104166666Y-68550057D01*
X104166666Y-68550057D02*
X104214285Y-68645295D01*
X104214285Y-68645295D02*
X104214285Y-68788152D01*
X104214285Y-68788152D02*
X104166666Y-68883390D01*
X104166666Y-68883390D02*
X104119047Y-68931009D01*
X104119047Y-68931009D02*
X104023809Y-68978628D01*
X104023809Y-68978628D02*
X103642857Y-68978628D01*
X105119047Y-68454819D02*
X104642857Y-68454819D01*
X104642857Y-68454819D02*
X104595238Y-68931009D01*
X104595238Y-68931009D02*
X104642857Y-68883390D01*
X104642857Y-68883390D02*
X104738095Y-68835771D01*
X104738095Y-68835771D02*
X104976190Y-68835771D01*
X104976190Y-68835771D02*
X105071428Y-68883390D01*
X105071428Y-68883390D02*
X105119047Y-68931009D01*
X105119047Y-68931009D02*
X105166666Y-69026247D01*
X105166666Y-69026247D02*
X105166666Y-69264342D01*
X105166666Y-69264342D02*
X105119047Y-69359580D01*
X105119047Y-69359580D02*
X105071428Y-69407200D01*
X105071428Y-69407200D02*
X104976190Y-69454819D01*
X104976190Y-69454819D02*
X104738095Y-69454819D01*
X104738095Y-69454819D02*
X104642857Y-69407200D01*
X104642857Y-69407200D02*
X104595238Y-69359580D01*
X105500000Y-68454819D02*
X105738095Y-69454819D01*
X105738095Y-69454819D02*
X105928571Y-68740533D01*
X105928571Y-68740533D02*
X106119047Y-69454819D01*
X106119047Y-69454819D02*
X106357143Y-68454819D01*
X104454819Y-27761904D02*
X105264342Y-27761904D01*
X105264342Y-27761904D02*
X105359580Y-27714285D01*
X105359580Y-27714285D02*
X105407200Y-27666666D01*
X105407200Y-27666666D02*
X105454819Y-27571428D01*
X105454819Y-27571428D02*
X105454819Y-27380952D01*
X105454819Y-27380952D02*
X105407200Y-27285714D01*
X105407200Y-27285714D02*
X105359580Y-27238095D01*
X105359580Y-27238095D02*
X105264342Y-27190476D01*
X105264342Y-27190476D02*
X104454819Y-27190476D01*
X104454819Y-26809523D02*
X104454819Y-26190476D01*
X104454819Y-26190476D02*
X104835771Y-26523809D01*
X104835771Y-26523809D02*
X104835771Y-26380952D01*
X104835771Y-26380952D02*
X104883390Y-26285714D01*
X104883390Y-26285714D02*
X104931009Y-26238095D01*
X104931009Y-26238095D02*
X105026247Y-26190476D01*
X105026247Y-26190476D02*
X105264342Y-26190476D01*
X105264342Y-26190476D02*
X105359580Y-26238095D01*
X105359580Y-26238095D02*
X105407200Y-26285714D01*
X105407200Y-26285714D02*
X105454819Y-26380952D01*
X105454819Y-26380952D02*
X105454819Y-26666666D01*
X105454819Y-26666666D02*
X105407200Y-26761904D01*
X105407200Y-26761904D02*
X105359580Y-26809523D01*
X108454819Y-38738094D02*
X107454819Y-38738094D01*
X107454819Y-38738094D02*
X107454819Y-38499999D01*
X107454819Y-38499999D02*
X107502438Y-38357142D01*
X107502438Y-38357142D02*
X107597676Y-38261904D01*
X107597676Y-38261904D02*
X107692914Y-38214285D01*
X107692914Y-38214285D02*
X107883390Y-38166666D01*
X107883390Y-38166666D02*
X108026247Y-38166666D01*
X108026247Y-38166666D02*
X108216723Y-38214285D01*
X108216723Y-38214285D02*
X108311961Y-38261904D01*
X108311961Y-38261904D02*
X108407200Y-38357142D01*
X108407200Y-38357142D02*
X108454819Y-38499999D01*
X108454819Y-38499999D02*
X108454819Y-38738094D01*
X107883390Y-37595237D02*
X107835771Y-37690475D01*
X107835771Y-37690475D02*
X107788152Y-37738094D01*
X107788152Y-37738094D02*
X107692914Y-37785713D01*
X107692914Y-37785713D02*
X107645295Y-37785713D01*
X107645295Y-37785713D02*
X107550057Y-37738094D01*
X107550057Y-37738094D02*
X107502438Y-37690475D01*
X107502438Y-37690475D02*
X107454819Y-37595237D01*
X107454819Y-37595237D02*
X107454819Y-37404761D01*
X107454819Y-37404761D02*
X107502438Y-37309523D01*
X107502438Y-37309523D02*
X107550057Y-37261904D01*
X107550057Y-37261904D02*
X107645295Y-37214285D01*
X107645295Y-37214285D02*
X107692914Y-37214285D01*
X107692914Y-37214285D02*
X107788152Y-37261904D01*
X107788152Y-37261904D02*
X107835771Y-37309523D01*
X107835771Y-37309523D02*
X107883390Y-37404761D01*
X107883390Y-37404761D02*
X107883390Y-37595237D01*
X107883390Y-37595237D02*
X107931009Y-37690475D01*
X107931009Y-37690475D02*
X107978628Y-37738094D01*
X107978628Y-37738094D02*
X108073866Y-37785713D01*
X108073866Y-37785713D02*
X108264342Y-37785713D01*
X108264342Y-37785713D02*
X108359580Y-37738094D01*
X108359580Y-37738094D02*
X108407200Y-37690475D01*
X108407200Y-37690475D02*
X108454819Y-37595237D01*
X108454819Y-37595237D02*
X108454819Y-37404761D01*
X108454819Y-37404761D02*
X108407200Y-37309523D01*
X108407200Y-37309523D02*
X108359580Y-37261904D01*
X108359580Y-37261904D02*
X108264342Y-37214285D01*
X108264342Y-37214285D02*
X108073866Y-37214285D01*
X108073866Y-37214285D02*
X107978628Y-37261904D01*
X107978628Y-37261904D02*
X107931009Y-37309523D01*
X107931009Y-37309523D02*
X107883390Y-37404761D01*
X46273509Y-31999999D02*
X46273509Y-31666666D01*
X46797319Y-31523809D02*
X46797319Y-31999999D01*
X46797319Y-31999999D02*
X45797319Y-31999999D01*
X45797319Y-31999999D02*
X45797319Y-31523809D01*
X46416366Y-31095237D02*
X46416366Y-30333333D01*
X46749700Y-29904761D02*
X46797319Y-29761904D01*
X46797319Y-29761904D02*
X46797319Y-29523809D01*
X46797319Y-29523809D02*
X46749700Y-29428571D01*
X46749700Y-29428571D02*
X46702080Y-29380952D01*
X46702080Y-29380952D02*
X46606842Y-29333333D01*
X46606842Y-29333333D02*
X46511604Y-29333333D01*
X46511604Y-29333333D02*
X46416366Y-29380952D01*
X46416366Y-29380952D02*
X46368747Y-29428571D01*
X46368747Y-29428571D02*
X46321128Y-29523809D01*
X46321128Y-29523809D02*
X46273509Y-29714285D01*
X46273509Y-29714285D02*
X46225890Y-29809523D01*
X46225890Y-29809523D02*
X46178271Y-29857142D01*
X46178271Y-29857142D02*
X46083033Y-29904761D01*
X46083033Y-29904761D02*
X45987795Y-29904761D01*
X45987795Y-29904761D02*
X45892557Y-29857142D01*
X45892557Y-29857142D02*
X45844938Y-29809523D01*
X45844938Y-29809523D02*
X45797319Y-29714285D01*
X45797319Y-29714285D02*
X45797319Y-29476190D01*
X45797319Y-29476190D02*
X45844938Y-29333333D01*
X46130652Y-29047618D02*
X46130652Y-28666666D01*
X45797319Y-28904761D02*
X46654461Y-28904761D01*
X46654461Y-28904761D02*
X46749700Y-28857142D01*
X46749700Y-28857142D02*
X46797319Y-28761904D01*
X46797319Y-28761904D02*
X46797319Y-28666666D01*
X46797319Y-28190475D02*
X46749700Y-28285713D01*
X46749700Y-28285713D02*
X46702080Y-28333332D01*
X46702080Y-28333332D02*
X46606842Y-28380951D01*
X46606842Y-28380951D02*
X46321128Y-28380951D01*
X46321128Y-28380951D02*
X46225890Y-28333332D01*
X46225890Y-28333332D02*
X46178271Y-28285713D01*
X46178271Y-28285713D02*
X46130652Y-28190475D01*
X46130652Y-28190475D02*
X46130652Y-28047618D01*
X46130652Y-28047618D02*
X46178271Y-27952380D01*
X46178271Y-27952380D02*
X46225890Y-27904761D01*
X46225890Y-27904761D02*
X46321128Y-27857142D01*
X46321128Y-27857142D02*
X46606842Y-27857142D01*
X46606842Y-27857142D02*
X46702080Y-27904761D01*
X46702080Y-27904761D02*
X46749700Y-27952380D01*
X46749700Y-27952380D02*
X46797319Y-28047618D01*
X46797319Y-28047618D02*
X46797319Y-28190475D01*
X46130652Y-27428570D02*
X47130652Y-27428570D01*
X46178271Y-27428570D02*
X46130652Y-27333332D01*
X46130652Y-27333332D02*
X46130652Y-27142856D01*
X46130652Y-27142856D02*
X46178271Y-27047618D01*
X46178271Y-27047618D02*
X46225890Y-26999999D01*
X46225890Y-26999999D02*
X46321128Y-26952380D01*
X46321128Y-26952380D02*
X46606842Y-26952380D01*
X46606842Y-26952380D02*
X46702080Y-26999999D01*
X46702080Y-26999999D02*
X46749700Y-27047618D01*
X46749700Y-27047618D02*
X46797319Y-27142856D01*
X46797319Y-27142856D02*
X46797319Y-27333332D01*
X46797319Y-27333332D02*
X46749700Y-27428570D01*
X92454819Y-27761904D02*
X93264342Y-27761904D01*
X93264342Y-27761904D02*
X93359580Y-27714285D01*
X93359580Y-27714285D02*
X93407200Y-27666666D01*
X93407200Y-27666666D02*
X93454819Y-27571428D01*
X93454819Y-27571428D02*
X93454819Y-27380952D01*
X93454819Y-27380952D02*
X93407200Y-27285714D01*
X93407200Y-27285714D02*
X93359580Y-27238095D01*
X93359580Y-27238095D02*
X93264342Y-27190476D01*
X93264342Y-27190476D02*
X92454819Y-27190476D01*
X93454819Y-26190476D02*
X93454819Y-26761904D01*
X93454819Y-26476190D02*
X92454819Y-26476190D01*
X92454819Y-26476190D02*
X92597676Y-26571428D01*
X92597676Y-26571428D02*
X92692914Y-26666666D01*
X92692914Y-26666666D02*
X92740533Y-26761904D01*
X90454819Y-38738094D02*
X89454819Y-38738094D01*
X89454819Y-38738094D02*
X89454819Y-38499999D01*
X89454819Y-38499999D02*
X89502438Y-38357142D01*
X89502438Y-38357142D02*
X89597676Y-38261904D01*
X89597676Y-38261904D02*
X89692914Y-38214285D01*
X89692914Y-38214285D02*
X89883390Y-38166666D01*
X89883390Y-38166666D02*
X90026247Y-38166666D01*
X90026247Y-38166666D02*
X90216723Y-38214285D01*
X90216723Y-38214285D02*
X90311961Y-38261904D01*
X90311961Y-38261904D02*
X90407200Y-38357142D01*
X90407200Y-38357142D02*
X90454819Y-38499999D01*
X90454819Y-38499999D02*
X90454819Y-38738094D01*
X90454819Y-37214285D02*
X90454819Y-37785713D01*
X90454819Y-37499999D02*
X89454819Y-37499999D01*
X89454819Y-37499999D02*
X89597676Y-37595237D01*
X89597676Y-37595237D02*
X89692914Y-37690475D01*
X89692914Y-37690475D02*
X89740533Y-37785713D01*
X96454819Y-38738094D02*
X95454819Y-38738094D01*
X95454819Y-38738094D02*
X95454819Y-38499999D01*
X95454819Y-38499999D02*
X95502438Y-38357142D01*
X95502438Y-38357142D02*
X95597676Y-38261904D01*
X95597676Y-38261904D02*
X95692914Y-38214285D01*
X95692914Y-38214285D02*
X95883390Y-38166666D01*
X95883390Y-38166666D02*
X96026247Y-38166666D01*
X96026247Y-38166666D02*
X96216723Y-38214285D01*
X96216723Y-38214285D02*
X96311961Y-38261904D01*
X96311961Y-38261904D02*
X96407200Y-38357142D01*
X96407200Y-38357142D02*
X96454819Y-38499999D01*
X96454819Y-38499999D02*
X96454819Y-38738094D01*
X95550057Y-37785713D02*
X95502438Y-37738094D01*
X95502438Y-37738094D02*
X95454819Y-37642856D01*
X95454819Y-37642856D02*
X95454819Y-37404761D01*
X95454819Y-37404761D02*
X95502438Y-37309523D01*
X95502438Y-37309523D02*
X95550057Y-37261904D01*
X95550057Y-37261904D02*
X95645295Y-37214285D01*
X95645295Y-37214285D02*
X95740533Y-37214285D01*
X95740533Y-37214285D02*
X95883390Y-37261904D01*
X95883390Y-37261904D02*
X96454819Y-37833332D01*
X96454819Y-37833332D02*
X96454819Y-37214285D01*
X77333333Y-39859580D02*
X77285714Y-39907200D01*
X77285714Y-39907200D02*
X77142857Y-39954819D01*
X77142857Y-39954819D02*
X77047619Y-39954819D01*
X77047619Y-39954819D02*
X76904762Y-39907200D01*
X76904762Y-39907200D02*
X76809524Y-39811961D01*
X76809524Y-39811961D02*
X76761905Y-39716723D01*
X76761905Y-39716723D02*
X76714286Y-39526247D01*
X76714286Y-39526247D02*
X76714286Y-39383390D01*
X76714286Y-39383390D02*
X76761905Y-39192914D01*
X76761905Y-39192914D02*
X76809524Y-39097676D01*
X76809524Y-39097676D02*
X76904762Y-39002438D01*
X76904762Y-39002438D02*
X77047619Y-38954819D01*
X77047619Y-38954819D02*
X77142857Y-38954819D01*
X77142857Y-38954819D02*
X77285714Y-39002438D01*
X77285714Y-39002438D02*
X77333333Y-39050057D01*
X77666667Y-38954819D02*
X78285714Y-38954819D01*
X78285714Y-38954819D02*
X77952381Y-39335771D01*
X77952381Y-39335771D02*
X78095238Y-39335771D01*
X78095238Y-39335771D02*
X78190476Y-39383390D01*
X78190476Y-39383390D02*
X78238095Y-39431009D01*
X78238095Y-39431009D02*
X78285714Y-39526247D01*
X78285714Y-39526247D02*
X78285714Y-39764342D01*
X78285714Y-39764342D02*
X78238095Y-39859580D01*
X78238095Y-39859580D02*
X78190476Y-39907200D01*
X78190476Y-39907200D02*
X78095238Y-39954819D01*
X78095238Y-39954819D02*
X77809524Y-39954819D01*
X77809524Y-39954819D02*
X77714286Y-39907200D01*
X77714286Y-39907200D02*
X77666667Y-39859580D01*
X114454819Y-38738094D02*
X113454819Y-38738094D01*
X113454819Y-38738094D02*
X113454819Y-38499999D01*
X113454819Y-38499999D02*
X113502438Y-38357142D01*
X113502438Y-38357142D02*
X113597676Y-38261904D01*
X113597676Y-38261904D02*
X113692914Y-38214285D01*
X113692914Y-38214285D02*
X113883390Y-38166666D01*
X113883390Y-38166666D02*
X114026247Y-38166666D01*
X114026247Y-38166666D02*
X114216723Y-38214285D01*
X114216723Y-38214285D02*
X114311961Y-38261904D01*
X114311961Y-38261904D02*
X114407200Y-38357142D01*
X114407200Y-38357142D02*
X114454819Y-38499999D01*
X114454819Y-38499999D02*
X114454819Y-38738094D01*
X114454819Y-37690475D02*
X114454819Y-37499999D01*
X114454819Y-37499999D02*
X114407200Y-37404761D01*
X114407200Y-37404761D02*
X114359580Y-37357142D01*
X114359580Y-37357142D02*
X114216723Y-37261904D01*
X114216723Y-37261904D02*
X114026247Y-37214285D01*
X114026247Y-37214285D02*
X113645295Y-37214285D01*
X113645295Y-37214285D02*
X113550057Y-37261904D01*
X113550057Y-37261904D02*
X113502438Y-37309523D01*
X113502438Y-37309523D02*
X113454819Y-37404761D01*
X113454819Y-37404761D02*
X113454819Y-37595237D01*
X113454819Y-37595237D02*
X113502438Y-37690475D01*
X113502438Y-37690475D02*
X113550057Y-37738094D01*
X113550057Y-37738094D02*
X113645295Y-37785713D01*
X113645295Y-37785713D02*
X113883390Y-37785713D01*
X113883390Y-37785713D02*
X113978628Y-37738094D01*
X113978628Y-37738094D02*
X114026247Y-37690475D01*
X114026247Y-37690475D02*
X114073866Y-37595237D01*
X114073866Y-37595237D02*
X114073866Y-37404761D01*
X114073866Y-37404761D02*
X114026247Y-37309523D01*
X114026247Y-37309523D02*
X113978628Y-37261904D01*
X113978628Y-37261904D02*
X113883390Y-37214285D01*
X126454819Y-19142857D02*
X125978628Y-19476190D01*
X126454819Y-19714285D02*
X125454819Y-19714285D01*
X125454819Y-19714285D02*
X125454819Y-19333333D01*
X125454819Y-19333333D02*
X125502438Y-19238095D01*
X125502438Y-19238095D02*
X125550057Y-19190476D01*
X125550057Y-19190476D02*
X125645295Y-19142857D01*
X125645295Y-19142857D02*
X125788152Y-19142857D01*
X125788152Y-19142857D02*
X125883390Y-19190476D01*
X125883390Y-19190476D02*
X125931009Y-19238095D01*
X125931009Y-19238095D02*
X125978628Y-19333333D01*
X125978628Y-19333333D02*
X125978628Y-19714285D01*
X126454819Y-18190476D02*
X126454819Y-18761904D01*
X126454819Y-18476190D02*
X125454819Y-18476190D01*
X125454819Y-18476190D02*
X125597676Y-18571428D01*
X125597676Y-18571428D02*
X125692914Y-18666666D01*
X125692914Y-18666666D02*
X125740533Y-18761904D01*
X125454819Y-17285714D02*
X125454819Y-17761904D01*
X125454819Y-17761904D02*
X125931009Y-17809523D01*
X125931009Y-17809523D02*
X125883390Y-17761904D01*
X125883390Y-17761904D02*
X125835771Y-17666666D01*
X125835771Y-17666666D02*
X125835771Y-17428571D01*
X125835771Y-17428571D02*
X125883390Y-17333333D01*
X125883390Y-17333333D02*
X125931009Y-17285714D01*
X125931009Y-17285714D02*
X126026247Y-17238095D01*
X126026247Y-17238095D02*
X126264342Y-17238095D01*
X126264342Y-17238095D02*
X126359580Y-17285714D01*
X126359580Y-17285714D02*
X126407200Y-17333333D01*
X126407200Y-17333333D02*
X126454819Y-17428571D01*
X126454819Y-17428571D02*
X126454819Y-17666666D01*
X126454819Y-17666666D02*
X126407200Y-17761904D01*
X126407200Y-17761904D02*
X126359580Y-17809523D01*
X123690476Y-48954819D02*
X123690476Y-49669104D01*
X123690476Y-49669104D02*
X123642857Y-49811961D01*
X123642857Y-49811961D02*
X123547619Y-49907200D01*
X123547619Y-49907200D02*
X123404762Y-49954819D01*
X123404762Y-49954819D02*
X123309524Y-49954819D01*
X124690476Y-49954819D02*
X124119048Y-49954819D01*
X124404762Y-49954819D02*
X124404762Y-48954819D01*
X124404762Y-48954819D02*
X124309524Y-49097676D01*
X124309524Y-49097676D02*
X124214286Y-49192914D01*
X124214286Y-49192914D02*
X124119048Y-49240533D01*
X125547619Y-49288152D02*
X125547619Y-49954819D01*
X125309524Y-48907200D02*
X125071429Y-49621485D01*
X125071429Y-49621485D02*
X125690476Y-49621485D01*
D10*
X128724809Y-34178570D02*
X128224809Y-34178570D01*
X128724809Y-33940475D02*
X128224809Y-33940475D01*
X128224809Y-33940475D02*
X128581952Y-33773808D01*
X128581952Y-33773808D02*
X128224809Y-33607142D01*
X128224809Y-33607142D02*
X128724809Y-33607142D01*
X128724809Y-33369046D02*
X128224809Y-33369046D01*
X128224809Y-33369046D02*
X128224809Y-33249998D01*
X128224809Y-33249998D02*
X128248619Y-33178570D01*
X128248619Y-33178570D02*
X128296238Y-33130951D01*
X128296238Y-33130951D02*
X128343857Y-33107141D01*
X128343857Y-33107141D02*
X128439095Y-33083332D01*
X128439095Y-33083332D02*
X128510523Y-33083332D01*
X128510523Y-33083332D02*
X128605761Y-33107141D01*
X128605761Y-33107141D02*
X128653380Y-33130951D01*
X128653380Y-33130951D02*
X128701000Y-33178570D01*
X128701000Y-33178570D02*
X128724809Y-33249998D01*
X128724809Y-33249998D02*
X128724809Y-33369046D01*
X128724809Y-32488094D02*
X128224809Y-32488094D01*
X128391476Y-32249999D02*
X128724809Y-32249999D01*
X128439095Y-32249999D02*
X128415285Y-32226189D01*
X128415285Y-32226189D02*
X128391476Y-32178570D01*
X128391476Y-32178570D02*
X128391476Y-32107142D01*
X128391476Y-32107142D02*
X128415285Y-32059523D01*
X128415285Y-32059523D02*
X128462904Y-32035713D01*
X128462904Y-32035713D02*
X128724809Y-32035713D01*
X128724809Y-31583332D02*
X128224809Y-31583332D01*
X128701000Y-31583332D02*
X128724809Y-31630951D01*
X128724809Y-31630951D02*
X128724809Y-31726189D01*
X128724809Y-31726189D02*
X128701000Y-31773808D01*
X128701000Y-31773808D02*
X128677190Y-31797618D01*
X128677190Y-31797618D02*
X128629571Y-31821427D01*
X128629571Y-31821427D02*
X128486714Y-31821427D01*
X128486714Y-31821427D02*
X128439095Y-31797618D01*
X128439095Y-31797618D02*
X128415285Y-31773808D01*
X128415285Y-31773808D02*
X128391476Y-31726189D01*
X128391476Y-31726189D02*
X128391476Y-31630951D01*
X128391476Y-31630951D02*
X128415285Y-31583332D01*
X128724809Y-31345237D02*
X128391476Y-31345237D01*
X128224809Y-31345237D02*
X128248619Y-31369046D01*
X128248619Y-31369046D02*
X128272428Y-31345237D01*
X128272428Y-31345237D02*
X128248619Y-31321427D01*
X128248619Y-31321427D02*
X128224809Y-31345237D01*
X128224809Y-31345237D02*
X128272428Y-31345237D01*
X128701000Y-30892856D02*
X128724809Y-30940475D01*
X128724809Y-30940475D02*
X128724809Y-31035713D01*
X128724809Y-31035713D02*
X128701000Y-31083332D01*
X128701000Y-31083332D02*
X128677190Y-31107142D01*
X128677190Y-31107142D02*
X128629571Y-31130951D01*
X128629571Y-31130951D02*
X128486714Y-31130951D01*
X128486714Y-31130951D02*
X128439095Y-31107142D01*
X128439095Y-31107142D02*
X128415285Y-31083332D01*
X128415285Y-31083332D02*
X128391476Y-31035713D01*
X128391476Y-31035713D02*
X128391476Y-30940475D01*
X128391476Y-30940475D02*
X128415285Y-30892856D01*
X128724809Y-30464285D02*
X128462904Y-30464285D01*
X128462904Y-30464285D02*
X128415285Y-30488095D01*
X128415285Y-30488095D02*
X128391476Y-30535714D01*
X128391476Y-30535714D02*
X128391476Y-30630952D01*
X128391476Y-30630952D02*
X128415285Y-30678571D01*
X128701000Y-30464285D02*
X128724809Y-30511904D01*
X128724809Y-30511904D02*
X128724809Y-30630952D01*
X128724809Y-30630952D02*
X128701000Y-30678571D01*
X128701000Y-30678571D02*
X128653380Y-30702380D01*
X128653380Y-30702380D02*
X128605761Y-30702380D01*
X128605761Y-30702380D02*
X128558142Y-30678571D01*
X128558142Y-30678571D02*
X128534333Y-30630952D01*
X128534333Y-30630952D02*
X128534333Y-30511904D01*
X128534333Y-30511904D02*
X128510523Y-30464285D01*
X128391476Y-30297618D02*
X128391476Y-30107142D01*
X128224809Y-30226190D02*
X128653380Y-30226190D01*
X128653380Y-30226190D02*
X128701000Y-30202380D01*
X128701000Y-30202380D02*
X128724809Y-30154761D01*
X128724809Y-30154761D02*
X128724809Y-30107142D01*
X128724809Y-29940476D02*
X128391476Y-29940476D01*
X128224809Y-29940476D02*
X128248619Y-29964285D01*
X128248619Y-29964285D02*
X128272428Y-29940476D01*
X128272428Y-29940476D02*
X128248619Y-29916666D01*
X128248619Y-29916666D02*
X128224809Y-29940476D01*
X128224809Y-29940476D02*
X128272428Y-29940476D01*
X128391476Y-29702381D02*
X128724809Y-29702381D01*
X128439095Y-29702381D02*
X128415285Y-29678571D01*
X128415285Y-29678571D02*
X128391476Y-29630952D01*
X128391476Y-29630952D02*
X128391476Y-29559524D01*
X128391476Y-29559524D02*
X128415285Y-29511905D01*
X128415285Y-29511905D02*
X128462904Y-29488095D01*
X128462904Y-29488095D02*
X128724809Y-29488095D01*
X128391476Y-29035714D02*
X128796238Y-29035714D01*
X128796238Y-29035714D02*
X128843857Y-29059524D01*
X128843857Y-29059524D02*
X128867666Y-29083333D01*
X128867666Y-29083333D02*
X128891476Y-29130952D01*
X128891476Y-29130952D02*
X128891476Y-29202381D01*
X128891476Y-29202381D02*
X128867666Y-29250000D01*
X128701000Y-29035714D02*
X128724809Y-29083333D01*
X128724809Y-29083333D02*
X128724809Y-29178571D01*
X128724809Y-29178571D02*
X128701000Y-29226190D01*
X128701000Y-29226190D02*
X128677190Y-29250000D01*
X128677190Y-29250000D02*
X128629571Y-29273809D01*
X128629571Y-29273809D02*
X128486714Y-29273809D01*
X128486714Y-29273809D02*
X128439095Y-29250000D01*
X128439095Y-29250000D02*
X128415285Y-29226190D01*
X128415285Y-29226190D02*
X128391476Y-29178571D01*
X128391476Y-29178571D02*
X128391476Y-29083333D01*
X128391476Y-29083333D02*
X128415285Y-29035714D01*
X128724809Y-28178572D02*
X128724809Y-28416667D01*
X128724809Y-28416667D02*
X128224809Y-28416667D01*
X128724809Y-28011905D02*
X128391476Y-28011905D01*
X128224809Y-28011905D02*
X128248619Y-28035714D01*
X128248619Y-28035714D02*
X128272428Y-28011905D01*
X128272428Y-28011905D02*
X128248619Y-27988095D01*
X128248619Y-27988095D02*
X128224809Y-28011905D01*
X128224809Y-28011905D02*
X128272428Y-28011905D01*
X128391476Y-27559524D02*
X128796238Y-27559524D01*
X128796238Y-27559524D02*
X128843857Y-27583334D01*
X128843857Y-27583334D02*
X128867666Y-27607143D01*
X128867666Y-27607143D02*
X128891476Y-27654762D01*
X128891476Y-27654762D02*
X128891476Y-27726191D01*
X128891476Y-27726191D02*
X128867666Y-27773810D01*
X128701000Y-27559524D02*
X128724809Y-27607143D01*
X128724809Y-27607143D02*
X128724809Y-27702381D01*
X128724809Y-27702381D02*
X128701000Y-27750000D01*
X128701000Y-27750000D02*
X128677190Y-27773810D01*
X128677190Y-27773810D02*
X128629571Y-27797619D01*
X128629571Y-27797619D02*
X128486714Y-27797619D01*
X128486714Y-27797619D02*
X128439095Y-27773810D01*
X128439095Y-27773810D02*
X128415285Y-27750000D01*
X128415285Y-27750000D02*
X128391476Y-27702381D01*
X128391476Y-27702381D02*
X128391476Y-27607143D01*
X128391476Y-27607143D02*
X128415285Y-27559524D01*
X128724809Y-27321429D02*
X128224809Y-27321429D01*
X128724809Y-27107143D02*
X128462904Y-27107143D01*
X128462904Y-27107143D02*
X128415285Y-27130953D01*
X128415285Y-27130953D02*
X128391476Y-27178572D01*
X128391476Y-27178572D02*
X128391476Y-27250000D01*
X128391476Y-27250000D02*
X128415285Y-27297619D01*
X128415285Y-27297619D02*
X128439095Y-27321429D01*
X128391476Y-26940476D02*
X128391476Y-26750000D01*
X128224809Y-26869048D02*
X128653380Y-26869048D01*
X128653380Y-26869048D02*
X128701000Y-26845238D01*
X128701000Y-26845238D02*
X128724809Y-26797619D01*
X128724809Y-26797619D02*
X128724809Y-26750000D01*
D11*
X41166667Y-79050057D02*
X41214286Y-79002438D01*
X41214286Y-79002438D02*
X41309524Y-78954819D01*
X41309524Y-78954819D02*
X41547619Y-78954819D01*
X41547619Y-78954819D02*
X41642857Y-79002438D01*
X41642857Y-79002438D02*
X41690476Y-79050057D01*
X41690476Y-79050057D02*
X41738095Y-79145295D01*
X41738095Y-79145295D02*
X41738095Y-79240533D01*
X41738095Y-79240533D02*
X41690476Y-79383390D01*
X41690476Y-79383390D02*
X41119048Y-79954819D01*
X41119048Y-79954819D02*
X41738095Y-79954819D01*
X42595238Y-79288152D02*
X42595238Y-79954819D01*
X42357143Y-78907200D02*
X42119048Y-79621485D01*
X42119048Y-79621485D02*
X42738095Y-79621485D01*
X42976191Y-78954819D02*
X43309524Y-79954819D01*
X43309524Y-79954819D02*
X43642857Y-78954819D01*
X44738096Y-79954819D02*
X44738096Y-78954819D01*
X45214286Y-79954819D02*
X45214286Y-78954819D01*
X45214286Y-78954819D02*
X45785714Y-79954819D01*
X45785714Y-79954819D02*
X45785714Y-78954819D01*
X57738095Y-13454819D02*
X57738095Y-14264342D01*
X57738095Y-14264342D02*
X57785714Y-14359580D01*
X57785714Y-14359580D02*
X57833333Y-14407200D01*
X57833333Y-14407200D02*
X57928571Y-14454819D01*
X57928571Y-14454819D02*
X58119047Y-14454819D01*
X58119047Y-14454819D02*
X58214285Y-14407200D01*
X58214285Y-14407200D02*
X58261904Y-14359580D01*
X58261904Y-14359580D02*
X58309523Y-14264342D01*
X58309523Y-14264342D02*
X58309523Y-13454819D01*
X59214285Y-13788152D02*
X59214285Y-14454819D01*
X58976190Y-13407200D02*
X58738095Y-14121485D01*
X58738095Y-14121485D02*
X59357142Y-14121485D01*
X98454819Y-27761904D02*
X99264342Y-27761904D01*
X99264342Y-27761904D02*
X99359580Y-27714285D01*
X99359580Y-27714285D02*
X99407200Y-27666666D01*
X99407200Y-27666666D02*
X99454819Y-27571428D01*
X99454819Y-27571428D02*
X99454819Y-27380952D01*
X99454819Y-27380952D02*
X99407200Y-27285714D01*
X99407200Y-27285714D02*
X99359580Y-27238095D01*
X99359580Y-27238095D02*
X99264342Y-27190476D01*
X99264342Y-27190476D02*
X98454819Y-27190476D01*
X98550057Y-26761904D02*
X98502438Y-26714285D01*
X98502438Y-26714285D02*
X98454819Y-26619047D01*
X98454819Y-26619047D02*
X98454819Y-26380952D01*
X98454819Y-26380952D02*
X98502438Y-26285714D01*
X98502438Y-26285714D02*
X98550057Y-26238095D01*
X98550057Y-26238095D02*
X98645295Y-26190476D01*
X98645295Y-26190476D02*
X98740533Y-26190476D01*
X98740533Y-26190476D02*
X98883390Y-26238095D01*
X98883390Y-26238095D02*
X99454819Y-26809523D01*
X99454819Y-26809523D02*
X99454819Y-26190476D01*
%TO.C,G\u002A\u002A\u002A*%
G36*
X127674835Y-74876208D02*
G01*
X127771213Y-74965717D01*
X127831734Y-75031941D01*
X128009906Y-75260498D01*
X128128478Y-75470099D01*
X128181786Y-75648581D01*
X128172529Y-75764041D01*
X128096313Y-75878346D01*
X127976114Y-75912174D01*
X127811581Y-75865458D01*
X127602364Y-75738129D01*
X127459655Y-75626689D01*
X127324940Y-75519918D01*
X127218160Y-75445235D01*
X127157745Y-75415223D01*
X127151726Y-75416458D01*
X127154758Y-75472273D01*
X127206656Y-75570584D01*
X127291127Y-75688189D01*
X127391879Y-75801883D01*
X127473305Y-75874467D01*
X127603105Y-75962186D01*
X127769041Y-76060054D01*
X127862573Y-76109860D01*
X128032689Y-76204045D01*
X128123520Y-76277341D01*
X128143359Y-76338731D01*
X128115327Y-76383689D01*
X128062176Y-76393454D01*
X127955291Y-76362015D01*
X127785693Y-76286106D01*
X127627954Y-76206375D01*
X127446226Y-76116265D01*
X127294888Y-76049500D01*
X127192217Y-76013633D01*
X127157666Y-76011976D01*
X127151503Y-76078173D01*
X127220513Y-76179864D01*
X127357758Y-76309882D01*
X127556297Y-76461064D01*
X127662542Y-76533270D01*
X127885298Y-76683967D01*
X128038954Y-76800055D01*
X128134553Y-76893177D01*
X128183137Y-76974977D01*
X128195748Y-77057099D01*
X128193177Y-77092795D01*
X128162233Y-77201745D01*
X128099146Y-77231879D01*
X127996048Y-77184141D01*
X127919997Y-77125502D01*
X127841780Y-77063293D01*
X127809021Y-77048820D01*
X127824226Y-77088668D01*
X127889902Y-77189420D01*
X128008179Y-77357135D01*
X128123245Y-77553200D01*
X128186773Y-77738330D01*
X128196162Y-77895277D01*
X128148809Y-78006790D01*
X128110630Y-78036331D01*
X128006898Y-78069170D01*
X127942858Y-78065358D01*
X127931895Y-78086016D01*
X127967221Y-78164674D01*
X128039006Y-78280941D01*
X128158443Y-78500481D01*
X128204869Y-78690868D01*
X128177607Y-78843429D01*
X128090509Y-78940570D01*
X128030047Y-78960266D01*
X127936854Y-78990625D01*
X127850106Y-78980610D01*
X127720469Y-78948073D01*
X127890492Y-79155563D01*
X128059295Y-79389146D01*
X128148505Y-79582141D01*
X128159647Y-79738484D01*
X128139380Y-79798368D01*
X128049440Y-79900434D01*
X127920569Y-79920524D01*
X127751379Y-79858577D01*
X127619727Y-79774720D01*
X127476743Y-79671900D01*
X127348745Y-79579884D01*
X127286079Y-79534855D01*
X127190129Y-79484317D01*
X127148740Y-79507757D01*
X127163442Y-79603324D01*
X127184079Y-79658229D01*
X127261238Y-79774572D01*
X127397672Y-79916840D01*
X127571565Y-80066396D01*
X127761098Y-80204600D01*
X127944454Y-80312814D01*
X127958379Y-80319703D01*
X128093063Y-80403489D01*
X128153127Y-80483756D01*
X128155009Y-80498654D01*
X128152720Y-80550129D01*
X128133759Y-80573094D01*
X128079987Y-80566000D01*
X127973262Y-80527293D01*
X127834391Y-80471234D01*
X127561877Y-80360502D01*
X127787250Y-80640187D01*
X127985137Y-80909377D01*
X128114411Y-81146285D01*
X128183519Y-81369851D01*
X128201275Y-81568469D01*
X128195243Y-81713485D01*
X128179768Y-81818656D01*
X128166628Y-81850372D01*
X128150355Y-81912116D01*
X128144178Y-82035879D01*
X128147444Y-82153472D01*
X128128481Y-82438173D01*
X128032315Y-82680764D01*
X127933806Y-82814582D01*
X127889833Y-82884803D01*
X127910823Y-82930331D01*
X128005173Y-82955445D01*
X128181282Y-82964426D01*
X128228264Y-82964663D01*
X128524428Y-82964663D01*
X128503043Y-82995714D01*
X128489729Y-83015569D01*
X128374582Y-83110023D01*
X128202345Y-83154776D01*
X127995593Y-83147195D01*
X127803976Y-83095509D01*
X127785606Y-83111780D01*
X127823840Y-83193408D01*
X127915874Y-83334810D01*
X127944717Y-83375704D01*
X128093805Y-83614455D01*
X128180388Y-83821304D01*
X128202626Y-83987750D01*
X128158684Y-84105289D01*
X128110630Y-84143434D01*
X128006898Y-84176274D01*
X127942858Y-84172462D01*
X127931895Y-84193119D01*
X127967221Y-84271778D01*
X128039006Y-84388045D01*
X128155396Y-84603569D01*
X128202953Y-84791777D01*
X128185438Y-84942519D01*
X128106617Y-85045645D01*
X127988347Y-85084987D01*
X127970252Y-85091006D01*
X127786086Y-85070087D01*
X127551199Y-84962357D01*
X127343232Y-84784480D01*
X127178694Y-84558254D01*
X127074095Y-84305476D01*
X127044627Y-84091163D01*
X127057460Y-83946116D01*
X127087562Y-83868691D01*
X127183425Y-83868691D01*
X127222082Y-84031756D01*
X127327156Y-84216360D01*
X127482303Y-84402658D01*
X127671177Y-84570806D01*
X127862806Y-84693519D01*
X127988347Y-84740407D01*
X128053782Y-84724193D01*
X128059555Y-84651741D01*
X128006112Y-84529918D01*
X127893898Y-84365590D01*
X127836939Y-84294630D01*
X127638122Y-84069632D01*
X127469034Y-83906336D01*
X127334667Y-83807996D01*
X127240016Y-83777867D01*
X127190072Y-83819204D01*
X127183425Y-83868691D01*
X127087562Y-83868691D01*
X127106478Y-83820038D01*
X127207457Y-83673054D01*
X127212747Y-83666244D01*
X127305621Y-83551163D01*
X127374949Y-83472878D01*
X127401591Y-83450455D01*
X127446111Y-83477091D01*
X127538356Y-83545543D01*
X127615165Y-83606270D01*
X127809071Y-83751573D01*
X127945320Y-83828178D01*
X128022848Y-83836147D01*
X128040587Y-83775544D01*
X127997473Y-83646430D01*
X127968084Y-83585604D01*
X127836588Y-83387957D01*
X127650840Y-83184107D01*
X127586188Y-83128544D01*
X127441631Y-83004308D01*
X127257489Y-82887433D01*
X126999465Y-82742688D01*
X126728631Y-82564290D01*
X126459440Y-82364476D01*
X126206344Y-82155482D01*
X125983795Y-81949543D01*
X125806245Y-81758895D01*
X125688147Y-81595775D01*
X125657581Y-81532871D01*
X125619305Y-81375343D01*
X125614162Y-81216180D01*
X125641530Y-81091144D01*
X125665902Y-81053879D01*
X125775326Y-81004297D01*
X125928100Y-81009991D01*
X126095974Y-81067619D01*
X126175739Y-81114179D01*
X126291391Y-81213552D01*
X126423491Y-81359178D01*
X126559644Y-81532895D01*
X126687454Y-81716538D01*
X126794524Y-81891944D01*
X126868458Y-82040947D01*
X126896861Y-82145386D01*
X126894161Y-82166879D01*
X126864248Y-82156756D01*
X126801418Y-82081909D01*
X126718573Y-81958003D01*
X126708247Y-81941152D01*
X126547743Y-81700280D01*
X126375098Y-81480606D01*
X126206647Y-81300771D01*
X126058731Y-81179418D01*
X126021479Y-81157551D01*
X125930224Y-81115210D01*
X125894132Y-81121888D01*
X125887978Y-81174304D01*
X125923818Y-81297854D01*
X126023790Y-81462407D01*
X126176578Y-81655402D01*
X126370863Y-81864275D01*
X126595328Y-82076465D01*
X126838655Y-82279410D01*
X126976688Y-82382726D01*
X127197570Y-82541044D01*
X127074833Y-82360420D01*
X126991980Y-82194811D01*
X126988706Y-82180124D01*
X127137159Y-82180124D01*
X127163562Y-82268300D01*
X127231627Y-82381423D01*
X127324638Y-82500924D01*
X127425879Y-82608235D01*
X127518634Y-82684786D01*
X127586188Y-82712010D01*
X127605732Y-82700630D01*
X127622749Y-82600666D01*
X127595517Y-82454483D01*
X127541207Y-82316939D01*
X127428721Y-82150687D01*
X127300312Y-82069826D01*
X127245653Y-82062477D01*
X127163014Y-82082999D01*
X127137514Y-82161620D01*
X127137159Y-82180124D01*
X126988706Y-82180124D01*
X126953797Y-82023501D01*
X126963719Y-81875432D01*
X127007614Y-81794134D01*
X127118002Y-81738369D01*
X127245938Y-81756891D01*
X127378332Y-81836672D01*
X127502094Y-81964689D01*
X127604132Y-82127913D01*
X127671357Y-82313321D01*
X127691334Y-82474474D01*
X127692350Y-82632009D01*
X127791416Y-82543873D01*
X127872111Y-82445866D01*
X127956483Y-82305165D01*
X128025545Y-82158170D01*
X128060309Y-82041282D01*
X128061461Y-82026149D01*
X128042672Y-81990186D01*
X127971581Y-82015338D01*
X127969946Y-82016211D01*
X127898115Y-82039192D01*
X127877414Y-82022789D01*
X127914668Y-81972185D01*
X127957082Y-81949273D01*
X128009966Y-81918047D01*
X127977001Y-81881008D01*
X127968649Y-81875633D01*
X127929565Y-81841607D01*
X127976433Y-81831997D01*
X127986528Y-81831856D01*
X128044831Y-81815246D01*
X128050721Y-81749805D01*
X128040755Y-81703916D01*
X127997269Y-81587741D01*
X127919902Y-81485113D01*
X127792128Y-81379556D01*
X127597418Y-81254592D01*
X127579059Y-81243622D01*
X127409714Y-81135124D01*
X127249806Y-81019925D01*
X127148725Y-80936052D01*
X127059538Y-80858975D01*
X127005638Y-80824932D01*
X126998361Y-80828273D01*
X127027329Y-80902173D01*
X127106504Y-81028651D01*
X127224294Y-81191414D01*
X127369106Y-81374171D01*
X127479092Y-81503839D01*
X127629143Y-81683279D01*
X127716379Y-81805415D01*
X127739446Y-81867995D01*
X127699322Y-81869702D01*
X127642972Y-81825103D01*
X127544801Y-81727099D01*
X127421309Y-81594125D01*
X127288993Y-81444617D01*
X127164352Y-81297011D01*
X127063885Y-81169742D01*
X127027627Y-81119135D01*
X126975228Y-81016628D01*
X126953777Y-80974664D01*
X126911185Y-80820703D01*
X126907901Y-80743898D01*
X126952095Y-80743898D01*
X126975228Y-80767030D01*
X126998361Y-80743898D01*
X126975228Y-80720765D01*
X126952095Y-80743898D01*
X126907901Y-80743898D01*
X126905519Y-80688195D01*
X126935157Y-80614326D01*
X126987509Y-80618981D01*
X127073464Y-80670739D01*
X127076573Y-80673165D01*
X127186239Y-80738860D01*
X127340661Y-80807925D01*
X127428939Y-80839849D01*
X127593808Y-80898181D01*
X127743734Y-80958518D01*
X127801225Y-80985153D01*
X127933233Y-81051943D01*
X127847491Y-80899285D01*
X127708475Y-80704940D01*
X127505676Y-80491166D01*
X127259734Y-80276417D01*
X126991288Y-80079146D01*
X126794032Y-79957377D01*
X126542309Y-79800458D01*
X126293026Y-79618318D01*
X126063504Y-79426051D01*
X125871066Y-79238755D01*
X125733034Y-79071524D01*
X125685518Y-78991345D01*
X125625662Y-78807053D01*
X125616032Y-78631890D01*
X125652226Y-78485975D01*
X125729842Y-78389429D01*
X125823370Y-78361202D01*
X125950125Y-78388369D01*
X126111274Y-78458097D01*
X126270956Y-78552724D01*
X126368479Y-78629685D01*
X126455893Y-78725977D01*
X126564851Y-78866453D01*
X126681533Y-79030487D01*
X126792117Y-79197453D01*
X126882783Y-79346726D01*
X126939709Y-79457679D01*
X126952095Y-79500653D01*
X126934249Y-79560362D01*
X126888484Y-79543300D01*
X126826462Y-79456335D01*
X126804551Y-79413752D01*
X126681604Y-79196152D01*
X126532475Y-78991152D01*
X126370612Y-78811639D01*
X126209466Y-78670501D01*
X126062483Y-78580626D01*
X125943114Y-78554902D01*
X125915157Y-78561444D01*
X125872208Y-78599709D01*
X125880012Y-78670044D01*
X125943066Y-78782691D01*
X126065868Y-78947892D01*
X126107980Y-79000521D01*
X126190172Y-79087914D01*
X126316509Y-79205619D01*
X126471939Y-79341424D01*
X126641414Y-79483120D01*
X126809882Y-79618494D01*
X126962292Y-79735335D01*
X127083595Y-79821432D01*
X127158740Y-79864575D01*
X127174622Y-79865936D01*
X127164691Y-79819685D01*
X127118745Y-79741877D01*
X127062819Y-79611693D01*
X127046923Y-79463203D01*
X127072734Y-79336640D01*
X127100146Y-79295774D01*
X127202156Y-79246072D01*
X127350993Y-79259644D01*
X127553595Y-79337785D01*
X127682482Y-79404356D01*
X127829820Y-79480609D01*
X127943852Y-79530792D01*
X128002745Y-79545456D01*
X128005390Y-79544094D01*
X127998442Y-79488757D01*
X127934678Y-79378239D01*
X127822031Y-79223458D01*
X127668437Y-79035334D01*
X127485967Y-78829290D01*
X127293344Y-78607081D01*
X127163209Y-78422662D01*
X127085436Y-78256474D01*
X127049895Y-78088959D01*
X127044627Y-77977020D01*
X127058784Y-77832950D01*
X127077640Y-77787020D01*
X127179335Y-77787020D01*
X127219065Y-77911018D01*
X127293871Y-78054848D01*
X127395806Y-78201336D01*
X127516926Y-78333309D01*
X127564019Y-78374220D01*
X127773505Y-78528277D01*
X127930262Y-78613521D01*
X128030047Y-78633005D01*
X128068617Y-78589781D01*
X128041730Y-78486902D01*
X127945143Y-78327422D01*
X127831895Y-78181464D01*
X127663603Y-77992871D01*
X127502040Y-77836298D01*
X127361993Y-77724525D01*
X127258250Y-77670333D01*
X127236890Y-77667213D01*
X127182628Y-77700027D01*
X127179335Y-77787020D01*
X127077640Y-77787020D01*
X127111737Y-77703967D01*
X127211821Y-77560329D01*
X127292423Y-77457629D01*
X127353878Y-77399348D01*
X127416448Y-77386971D01*
X127500393Y-77421983D01*
X127625976Y-77505871D01*
X127757721Y-77600353D01*
X127897587Y-77689025D01*
X127994642Y-77726788D01*
X128027499Y-77720697D01*
X128038555Y-77647758D01*
X127990513Y-77524241D01*
X127891491Y-77363157D01*
X127749608Y-77177521D01*
X127572983Y-76980346D01*
X127552328Y-76959069D01*
X127398724Y-76806676D01*
X127289939Y-76712862D01*
X127209883Y-76666551D01*
X127142466Y-76656665D01*
X127117840Y-76659957D01*
X127027663Y-76662453D01*
X126998767Y-76613810D01*
X126998361Y-76601630D01*
X127039533Y-76515227D01*
X127159880Y-76470360D01*
X127251981Y-76464298D01*
X127311048Y-76459774D01*
X127318170Y-76435192D01*
X127267868Y-76374035D01*
X127198721Y-76303784D01*
X127092427Y-76178158D01*
X127052395Y-76070976D01*
X127052983Y-76014622D01*
X127078660Y-75921637D01*
X127146331Y-75893644D01*
X127196134Y-75894841D01*
X127324508Y-75903707D01*
X127184568Y-75733935D01*
X127084984Y-75572140D01*
X127041398Y-75409867D01*
X127055558Y-75269559D01*
X127129212Y-75173660D01*
X127140438Y-75167097D01*
X127262402Y-75141943D01*
X127419950Y-75182870D01*
X127621392Y-75292761D01*
X127743950Y-75376464D01*
X127867414Y-75462630D01*
X127958589Y-75521554D01*
X127993186Y-75538979D01*
X128018952Y-75506985D01*
X127982189Y-75414479D01*
X127885498Y-75266676D01*
X127802903Y-75157566D01*
X127691001Y-75003727D01*
X127633305Y-74901418D01*
X127628391Y-74856843D01*
X127674835Y-74876208D01*
G37*
G36*
X125924790Y-84135313D02*
G01*
X126068244Y-84231460D01*
X126254818Y-84392518D01*
X126331726Y-84464355D01*
X126525474Y-84637699D01*
X126700808Y-84775723D01*
X126840121Y-84865090D01*
X126889699Y-84887010D01*
X126995787Y-84926025D01*
X127025086Y-84956424D01*
X126989700Y-84995283D01*
X126974488Y-85006626D01*
X126817656Y-85066422D01*
X126629516Y-85043368D01*
X126415453Y-84939558D01*
X126180847Y-84757090D01*
X126077225Y-84657240D01*
X125826945Y-84402776D01*
X125853310Y-84599339D01*
X125895420Y-84756152D01*
X125978666Y-84946494D01*
X126092864Y-85156111D01*
X126227827Y-85370749D01*
X126373371Y-85576156D01*
X126519311Y-85758079D01*
X126655462Y-85902264D01*
X126771639Y-85994459D01*
X126857657Y-86020409D01*
X126866952Y-86017854D01*
X126919864Y-85964927D01*
X126994290Y-85850237D01*
X127075357Y-85697098D01*
X127086501Y-85673682D01*
X127198957Y-85453960D01*
X127300236Y-85309460D01*
X127404831Y-85226501D01*
X127527235Y-85191406D01*
X127601573Y-85187531D01*
X127796905Y-85231105D01*
X127965133Y-85356714D01*
X128101851Y-85556690D01*
X128202655Y-85823363D01*
X128263137Y-86149064D01*
X128278106Y-86365209D01*
X128281319Y-86564090D01*
X128278668Y-86732297D01*
X128270793Y-86845319D01*
X128264849Y-86874134D01*
X128143395Y-87143171D01*
X128021128Y-87325126D01*
X127921239Y-87407455D01*
X127817104Y-87458365D01*
X127774846Y-87461283D01*
X127787650Y-87404564D01*
X127846826Y-87280344D01*
X127903722Y-87129490D01*
X127940295Y-86937775D01*
X127961053Y-86680762D01*
X127962271Y-86654227D01*
X127962654Y-86320857D01*
X127927815Y-86052786D01*
X127852774Y-85827862D01*
X127732548Y-85623934D01*
X127729631Y-85619893D01*
X127633720Y-85503708D01*
X127552469Y-85452910D01*
X127470235Y-85448611D01*
X127393443Y-85472271D01*
X127326361Y-85535657D01*
X127252509Y-85657545D01*
X127206558Y-85749048D01*
X127072345Y-85995412D01*
X126946232Y-86159100D01*
X126820088Y-86248535D01*
X126701134Y-86272504D01*
X126501552Y-86227011D01*
X126298583Y-86094311D01*
X126097128Y-85879356D01*
X125902092Y-85587098D01*
X125767340Y-85329371D01*
X125668018Y-85099748D01*
X125609255Y-84902195D01*
X125578964Y-84692688D01*
X125573862Y-84624704D01*
X125565855Y-84436401D01*
X125573672Y-84314900D01*
X125600784Y-84235300D01*
X125634530Y-84189589D01*
X125719795Y-84119052D01*
X125812594Y-84099402D01*
X125924790Y-84135313D01*
G37*
G36*
X122396342Y-78754607D02*
G01*
X122417669Y-78787051D01*
X122475866Y-78842939D01*
X122594897Y-78932231D01*
X122755868Y-79041368D01*
X122893377Y-79128469D01*
X123298436Y-79392303D01*
X123621088Y-79637287D01*
X123867598Y-79871021D01*
X124044230Y-80101105D01*
X124157249Y-80335139D01*
X124212917Y-80580724D01*
X124221388Y-80739721D01*
X124197138Y-80998901D01*
X124132492Y-81215055D01*
X124023704Y-81377727D01*
X123876719Y-81497241D01*
X123719374Y-81552175D01*
X123692644Y-81553551D01*
X123627706Y-81537196D01*
X123642827Y-81494288D01*
X123732736Y-81434061D01*
X123771875Y-81414754D01*
X123952926Y-81284684D01*
X124070245Y-81103803D01*
X124123710Y-80888497D01*
X124113200Y-80655154D01*
X124038591Y-80420161D01*
X123899764Y-80199907D01*
X123781799Y-80078300D01*
X123657165Y-79976175D01*
X123502996Y-79864835D01*
X123303576Y-79733637D01*
X123043186Y-79571942D01*
X122953506Y-79517513D01*
X122771858Y-79407696D01*
X122974326Y-79675863D01*
X123104693Y-79884518D01*
X123170130Y-80071250D01*
X123171432Y-80225271D01*
X123109392Y-80335790D01*
X122984804Y-80392017D01*
X122928600Y-80396341D01*
X122921293Y-80396903D01*
X122815002Y-80413580D01*
X122795202Y-80462079D01*
X122861169Y-80538696D01*
X122949713Y-80646647D01*
X123039063Y-80808902D01*
X123112756Y-80988859D01*
X123154333Y-81149917D01*
X123158288Y-81199354D01*
X123129451Y-81353045D01*
X123040475Y-81437286D01*
X122887658Y-81455233D01*
X122861442Y-81452692D01*
X122775552Y-81444675D01*
X122736643Y-81455849D01*
X122746518Y-81500951D01*
X122806977Y-81594719D01*
X122893557Y-81715482D01*
X123046815Y-81962489D01*
X123131310Y-82194154D01*
X123158249Y-82441686D01*
X123158288Y-82452663D01*
X123144567Y-82631139D01*
X123097728Y-82751219D01*
X123063954Y-82794008D01*
X122983643Y-82866519D01*
X122927627Y-82895264D01*
X122925478Y-82932046D01*
X122960912Y-83028190D01*
X123021962Y-83154424D01*
X123124415Y-83402749D01*
X123164300Y-83627932D01*
X123144469Y-83818416D01*
X123067769Y-83962647D01*
X122937052Y-84049068D01*
X122796429Y-84068843D01*
X122569782Y-84019326D01*
X122363411Y-83893866D01*
X122191346Y-83708842D01*
X122067615Y-83480632D01*
X122006248Y-83225613D01*
X122002074Y-83141465D01*
X122019436Y-82948132D01*
X122071036Y-82832613D01*
X122074343Y-82829169D01*
X122147392Y-82770278D01*
X122214933Y-82768444D01*
X122308959Y-82826532D01*
X122343560Y-82853272D01*
X122475403Y-83006046D01*
X122567050Y-83207633D01*
X122599933Y-83416875D01*
X122599852Y-83421406D01*
X122595021Y-83493809D01*
X122580738Y-83498414D01*
X122550336Y-83427694D01*
X122514384Y-83324909D01*
X122435906Y-83124894D01*
X122360200Y-83003704D01*
X122277630Y-82948466D01*
X122227304Y-82941530D01*
X122157584Y-82972328D01*
X122145786Y-83054265D01*
X122185828Y-83171655D01*
X122271628Y-83308811D01*
X122397103Y-83450047D01*
X122439651Y-83489184D01*
X122632882Y-83624856D01*
X122808575Y-83674323D01*
X122929061Y-83657984D01*
X123008006Y-83592744D01*
X123017916Y-83472067D01*
X122960756Y-83299857D01*
X122848481Y-83097991D01*
X122838487Y-83080022D01*
X122653071Y-82816467D01*
X122406472Y-82513098D01*
X122283276Y-82372680D01*
X122147912Y-82215238D01*
X122030129Y-82067060D01*
X121949162Y-81952748D01*
X121932347Y-81923885D01*
X121883474Y-81787714D01*
X121874168Y-81717973D01*
X121956545Y-81717973D01*
X121985749Y-81783290D01*
X122062926Y-81901829D01*
X122175089Y-82057201D01*
X122309252Y-82233011D01*
X122452430Y-82412871D01*
X122591634Y-82580386D01*
X122713881Y-82719167D01*
X122806182Y-82812822D01*
X122848481Y-82843797D01*
X122909065Y-82825182D01*
X122959686Y-82774398D01*
X122999647Y-82648095D01*
X122970701Y-82498928D01*
X122891028Y-82372537D01*
X122813783Y-82306953D01*
X122684374Y-82216035D01*
X122536071Y-82122675D01*
X122366727Y-82014177D01*
X122206819Y-81898978D01*
X122105738Y-81815105D01*
X122017106Y-81740353D01*
X121963714Y-81711379D01*
X121956545Y-81717973D01*
X121874168Y-81717973D01*
X121864564Y-81645998D01*
X121877369Y-81531873D01*
X121909108Y-81484153D01*
X121951915Y-81483786D01*
X121955374Y-81497528D01*
X121973183Y-81526645D01*
X122033931Y-81565937D01*
X122148594Y-81620628D01*
X122328151Y-81695943D01*
X122583577Y-81797105D01*
X122590793Y-81799918D01*
X122879218Y-81912327D01*
X122798990Y-81774835D01*
X122735067Y-81680982D01*
X122627915Y-81539600D01*
X122494860Y-81373124D01*
X122406466Y-81266563D01*
X122249159Y-81068331D01*
X122143382Y-80909983D01*
X122096061Y-80802197D01*
X122094171Y-80785141D01*
X122115405Y-80695012D01*
X122165560Y-80678682D01*
X122212680Y-80725365D01*
X122272923Y-80774151D01*
X122392021Y-80842120D01*
X122542108Y-80916183D01*
X122695317Y-80983248D01*
X122823783Y-81030227D01*
X122892259Y-81044590D01*
X122956176Y-81013948D01*
X122962217Y-80930696D01*
X122917614Y-80807976D01*
X122829601Y-80658928D01*
X122705410Y-80496692D01*
X122552273Y-80334408D01*
X122451859Y-80244449D01*
X122240833Y-80026898D01*
X122094959Y-79789742D01*
X122018118Y-79547421D01*
X122014193Y-79314371D01*
X122063896Y-79171591D01*
X122157565Y-79171591D01*
X122160659Y-79271547D01*
X122161478Y-79274954D01*
X122227666Y-79436829D01*
X122340598Y-79606775D01*
X122483716Y-79769428D01*
X122640461Y-79909430D01*
X122794276Y-80011419D01*
X122928600Y-80060033D01*
X123001590Y-80054302D01*
X123035672Y-79999986D01*
X123000685Y-79894774D01*
X122900404Y-79744827D01*
X122738606Y-79556310D01*
X122623465Y-79437119D01*
X122446970Y-79275049D01*
X122306581Y-79175399D01*
X122208160Y-79140228D01*
X122157565Y-79171591D01*
X122063896Y-79171591D01*
X122087066Y-79105030D01*
X122128871Y-79043300D01*
X122221278Y-78921612D01*
X122296879Y-78817015D01*
X122312452Y-78794042D01*
X122359966Y-78735307D01*
X122396342Y-78754607D01*
G37*
G36*
X121888310Y-69550342D02*
G01*
X121909108Y-69638884D01*
X121922998Y-69710840D01*
X121973445Y-69773289D01*
X122073616Y-69834145D01*
X122236676Y-69901322D01*
X122475791Y-69982732D01*
X122487432Y-69986496D01*
X122951233Y-70168505D01*
X123350830Y-70391957D01*
X123681283Y-70651715D01*
X123937654Y-70942640D01*
X124115007Y-71259596D01*
X124208403Y-71597444D01*
X124222195Y-71791438D01*
X124208747Y-72014338D01*
X124164830Y-72176496D01*
X124131909Y-72240018D01*
X124041249Y-72359479D01*
X123942554Y-72450288D01*
X123935451Y-72454963D01*
X123810246Y-72521093D01*
X123700764Y-72557572D01*
X123632152Y-72557613D01*
X123620947Y-72539827D01*
X123659935Y-72495652D01*
X123726328Y-72469010D01*
X123880740Y-72387491D01*
X124011787Y-72241221D01*
X124097988Y-72057962D01*
X124117261Y-71963826D01*
X124099847Y-71713306D01*
X123995618Y-71450682D01*
X123808695Y-71180965D01*
X123543198Y-70909167D01*
X123203247Y-70640300D01*
X122834426Y-70403437D01*
X122579964Y-70254375D01*
X122871980Y-70559215D01*
X123011566Y-70708590D01*
X123096843Y-70814033D01*
X123139767Y-70896191D01*
X123152296Y-70975714D01*
X123149576Y-71038585D01*
X123134371Y-71149737D01*
X123094514Y-71202332D01*
X123001677Y-71222389D01*
X122944387Y-71227054D01*
X122839356Y-71227481D01*
X122745689Y-71203890D01*
X122638151Y-71145093D01*
X122491506Y-71039903D01*
X122448706Y-71007291D01*
X122305707Y-70899966D01*
X122191664Y-70818621D01*
X122125458Y-70776571D01*
X122117354Y-70773588D01*
X122109710Y-70804993D01*
X122157914Y-70891265D01*
X122253771Y-71020483D01*
X122389082Y-71180730D01*
X122424803Y-71220591D01*
X122554374Y-71372723D01*
X122617877Y-71465930D01*
X122620717Y-71500054D01*
X122568299Y-71474941D01*
X122466030Y-71390431D01*
X122319313Y-71246370D01*
X122298203Y-71224258D01*
X122150905Y-71062647D01*
X122060364Y-70944207D01*
X122014604Y-70850159D01*
X122001647Y-70761725D01*
X122001640Y-70759286D01*
X122029829Y-70600244D01*
X122112622Y-70514186D01*
X122247354Y-70501410D01*
X122431360Y-70562219D01*
X122646419Y-70686439D01*
X122786782Y-70775078D01*
X122895947Y-70834522D01*
X122953238Y-70853699D01*
X122956168Y-70852332D01*
X122956515Y-70790956D01*
X122889133Y-70687597D01*
X122763459Y-70551334D01*
X122588929Y-70391250D01*
X122374981Y-70216425D01*
X122131051Y-70035941D01*
X122047905Y-69978272D01*
X121880088Y-69855132D01*
X121781156Y-69758379D01*
X121737073Y-69673341D01*
X121732537Y-69648727D01*
X121736004Y-69556540D01*
X121788389Y-69525577D01*
X121813503Y-69524408D01*
X121888310Y-69550342D01*
G37*
G36*
X121334691Y-73521332D02*
G01*
X121494645Y-73646256D01*
X121544858Y-73688269D01*
X121893916Y-73966660D01*
X122229045Y-74203189D01*
X122541757Y-74393575D01*
X122823561Y-74533535D01*
X123065968Y-74618788D01*
X123260488Y-74645050D01*
X123384707Y-74616289D01*
X123463035Y-74594898D01*
X123479516Y-74628705D01*
X123424317Y-74694148D01*
X123273623Y-74760431D01*
X123075804Y-74772380D01*
X122959410Y-74754681D01*
X122783665Y-74714923D01*
X122994109Y-74939906D01*
X123110850Y-75072639D01*
X123174541Y-75174581D01*
X123200544Y-75277249D01*
X123204554Y-75371709D01*
X123192697Y-75518516D01*
X123146447Y-75614409D01*
X123082650Y-75674419D01*
X122954797Y-75742957D01*
X122874539Y-75760010D01*
X122826068Y-75770309D01*
X122691390Y-75770309D01*
X122859456Y-75990072D01*
X123021642Y-76229612D01*
X123116948Y-76445100D01*
X123155962Y-76663087D01*
X123158288Y-76739479D01*
X123126561Y-76932795D01*
X123039083Y-77074725D01*
X122907409Y-77150107D01*
X122839123Y-77158287D01*
X122778902Y-77161974D01*
X122766775Y-77185775D01*
X122806195Y-77248801D01*
X122870466Y-77331785D01*
X123038415Y-77572815D01*
X123132305Y-77772937D01*
X123150999Y-77928743D01*
X123102769Y-78028087D01*
X122987807Y-78083194D01*
X122827721Y-78062298D01*
X122620940Y-77964844D01*
X122365895Y-77790277D01*
X122311801Y-77748307D01*
X122204458Y-77673481D01*
X122127073Y-77637496D01*
X122106703Y-77639259D01*
X122107651Y-77700605D01*
X122183631Y-77806230D01*
X122330750Y-77952110D01*
X122545118Y-78134219D01*
X122710581Y-78263929D01*
X122906726Y-78417411D01*
X123037971Y-78530414D01*
X123115743Y-78614767D01*
X123151470Y-78682298D01*
X123157580Y-78726589D01*
X123144409Y-78864603D01*
X123100856Y-78925427D01*
X123017725Y-78911142D01*
X122885821Y-78823827D01*
X122850588Y-78796024D01*
X122746682Y-78716620D01*
X122689149Y-78681190D01*
X122690306Y-78697302D01*
X122690655Y-78697748D01*
X122729942Y-78773183D01*
X122725697Y-78809215D01*
X122681377Y-78793174D01*
X122588868Y-78724875D01*
X122465382Y-78617520D01*
X122418500Y-78573610D01*
X122265586Y-78435308D01*
X122157902Y-78358346D01*
X122080871Y-78333453D01*
X122048030Y-78338029D01*
X121971697Y-78340814D01*
X121955374Y-78300586D01*
X121996024Y-78203543D01*
X122103275Y-78145423D01*
X122245349Y-78137398D01*
X122397801Y-78155196D01*
X122199720Y-77965401D01*
X122084302Y-77845477D01*
X122024582Y-77748968D01*
X122003288Y-77642394D01*
X122001640Y-77581466D01*
X122010556Y-77451542D01*
X122047582Y-77381446D01*
X122116903Y-77343504D01*
X122201162Y-77320630D01*
X122284764Y-77326306D01*
X122387936Y-77367809D01*
X122530901Y-77452415D01*
X122664495Y-77540516D01*
X122800721Y-77626661D01*
X122905590Y-77682848D01*
X122957777Y-77697749D01*
X122958934Y-77696924D01*
X122957051Y-77637941D01*
X122897543Y-77532625D01*
X122792042Y-77396013D01*
X122652176Y-77243138D01*
X122489577Y-77089037D01*
X122486889Y-77086674D01*
X122251142Y-76850029D01*
X122097357Y-76621047D01*
X122017628Y-76385354D01*
X122001640Y-76204481D01*
X122018161Y-76019187D01*
X122072359Y-75909886D01*
X122171178Y-75865291D01*
X122211919Y-75862841D01*
X122326307Y-75905215D01*
X122435347Y-76017436D01*
X122525855Y-76177149D01*
X122584648Y-76362002D01*
X122599874Y-76520645D01*
X122595901Y-76601615D01*
X122584356Y-76612413D01*
X122558558Y-76546183D01*
X122527097Y-76445949D01*
X122445871Y-76227323D01*
X122359657Y-76077356D01*
X122274767Y-76006145D01*
X122249329Y-76001639D01*
X122175200Y-76037051D01*
X122154475Y-76130967D01*
X122189222Y-76264908D01*
X122214135Y-76316461D01*
X122324324Y-76471227D01*
X122463304Y-76596140D01*
X122614566Y-76685426D01*
X122761601Y-76733311D01*
X122887902Y-76734022D01*
X122976960Y-76681785D01*
X123010658Y-76595045D01*
X122986891Y-76422881D01*
X122880786Y-76209621D01*
X122692650Y-75955787D01*
X122514837Y-75756906D01*
X122365013Y-75589275D01*
X122229607Y-75421131D01*
X122129418Y-75278988D01*
X122100321Y-75228528D01*
X122041312Y-75067293D01*
X122008279Y-74885309D01*
X122003110Y-74712538D01*
X122011810Y-74665257D01*
X122106695Y-74665257D01*
X122126208Y-74773280D01*
X122218258Y-74923072D01*
X122342619Y-75068701D01*
X122553512Y-75250156D01*
X122762279Y-75341403D01*
X122874539Y-75353916D01*
X122992070Y-75328591D01*
X123035029Y-75256433D01*
X123005001Y-75143166D01*
X122903573Y-74994516D01*
X122732328Y-74816206D01*
X122723347Y-74807891D01*
X122607301Y-74705424D01*
X122517038Y-74633927D01*
X122476899Y-74610707D01*
X122409846Y-74604514D01*
X122295717Y-74593500D01*
X122287388Y-74592685D01*
X122160246Y-74603544D01*
X122106695Y-74665257D01*
X122011810Y-74665257D01*
X122027692Y-74578943D01*
X122056388Y-74531153D01*
X122093592Y-74476759D01*
X122091087Y-74461301D01*
X122044625Y-74432661D01*
X121937770Y-74369149D01*
X121790133Y-74282386D01*
X121724044Y-74243771D01*
X121463331Y-74080818D01*
X121282067Y-73940402D01*
X121172279Y-73814738D01*
X121125993Y-73696042D01*
X121123295Y-73657201D01*
X121132098Y-73529389D01*
X121163525Y-73463643D01*
X121227687Y-73460709D01*
X121334691Y-73521332D01*
G37*
G36*
X121825171Y-83792516D02*
G01*
X121964002Y-83838347D01*
X122115741Y-83908893D01*
X122443152Y-84120512D01*
X122726597Y-84406855D01*
X122961668Y-84758991D01*
X123143959Y-85167996D01*
X123269061Y-85624941D01*
X123332568Y-86120899D01*
X123339805Y-86388342D01*
X123331132Y-86629290D01*
X123310333Y-86853518D01*
X123280760Y-87028312D01*
X123270184Y-87067836D01*
X123214411Y-87195073D01*
X123134709Y-87316660D01*
X123048761Y-87412068D01*
X122974246Y-87460763D01*
X122936972Y-87454761D01*
X122941701Y-87403728D01*
X122979973Y-87302072D01*
X123000800Y-87257483D01*
X123051573Y-87090364D01*
X123080576Y-86855179D01*
X123088066Y-86573731D01*
X123074301Y-86267824D01*
X123039539Y-85959264D01*
X122984037Y-85669854D01*
X122981939Y-85661225D01*
X122856708Y-85251983D01*
X122694031Y-84880122D01*
X122501198Y-84554588D01*
X122285499Y-84284334D01*
X122054224Y-84078306D01*
X121814662Y-83945456D01*
X121574105Y-83894732D01*
X121542920Y-83894642D01*
X121410692Y-83907521D01*
X121309745Y-83951589D01*
X121202733Y-84045761D01*
X121163860Y-84086613D01*
X121012764Y-84294764D01*
X120910159Y-84549174D01*
X120852486Y-84862521D01*
X120836187Y-85247482D01*
X120836238Y-85253696D01*
X120870250Y-85699895D01*
X120959995Y-86136419D01*
X121098764Y-86542327D01*
X121279847Y-86896672D01*
X121428803Y-87103548D01*
X121520654Y-87199288D01*
X121605131Y-87236073D01*
X121726631Y-87231639D01*
X121743912Y-87229429D01*
X121932241Y-87204640D01*
X121817120Y-87298624D01*
X121709547Y-87361254D01*
X121577982Y-87376093D01*
X121501309Y-87369988D01*
X121310241Y-87314074D01*
X121139151Y-87188364D01*
X120984086Y-86987477D01*
X120841098Y-86706031D01*
X120706235Y-86338644D01*
X120678107Y-86248528D01*
X120622450Y-86052260D01*
X120585379Y-85879163D01*
X120563112Y-85699672D01*
X120551866Y-85484223D01*
X120548021Y-85231694D01*
X120547483Y-84982542D01*
X120551786Y-84803769D01*
X120564340Y-84673231D01*
X120588555Y-84568787D01*
X120627839Y-84468292D01*
X120683060Y-84354650D01*
X120790301Y-84176785D01*
X120916805Y-84017036D01*
X120997963Y-83939622D01*
X121111385Y-83860930D01*
X121225647Y-83815004D01*
X121376040Y-83790699D01*
X121497382Y-83781911D01*
X121684283Y-83776713D01*
X121825171Y-83792516D01*
G37*
G36*
X122384166Y-71552873D02*
G01*
X122598500Y-71658476D01*
X122805076Y-71813422D01*
X122985704Y-72000478D01*
X123122194Y-72202415D01*
X123196355Y-72402000D01*
X123204554Y-72484106D01*
X123190092Y-72611278D01*
X123154706Y-72700957D01*
X123149035Y-72707504D01*
X123060976Y-72751771D01*
X122983554Y-72763023D01*
X122941661Y-72765263D01*
X122917718Y-72766544D01*
X122912231Y-72788346D01*
X122971652Y-72845292D01*
X123015940Y-72882801D01*
X123128974Y-73015190D01*
X123158288Y-73134533D01*
X123140581Y-73252505D01*
X123082449Y-73295235D01*
X122976374Y-73264648D01*
X122878022Y-73206274D01*
X122767197Y-73137979D01*
X122712320Y-73121715D01*
X122695866Y-73153261D01*
X122695629Y-73162338D01*
X122669215Y-73180632D01*
X122588540Y-73129961D01*
X122452732Y-73010187D01*
X122283796Y-72865049D01*
X122077282Y-72709263D01*
X121847809Y-72551525D01*
X121609992Y-72400530D01*
X121378449Y-72264973D01*
X121167797Y-72153549D01*
X120992651Y-72074953D01*
X120867630Y-72037881D01*
X120821321Y-72039705D01*
X120760696Y-72044233D01*
X120754007Y-72004789D01*
X120792936Y-71945860D01*
X120869165Y-71891934D01*
X120871952Y-71890644D01*
X120991838Y-71863167D01*
X121147034Y-71879455D01*
X121349155Y-71942557D01*
X121609820Y-72055523D01*
X121738674Y-72118135D01*
X122100299Y-72298068D01*
X122004704Y-72143391D01*
X121975923Y-72075997D01*
X122195641Y-72075997D01*
X122222032Y-72217842D01*
X122319374Y-72362934D01*
X122468037Y-72495627D01*
X122648386Y-72600278D01*
X122840792Y-72661242D01*
X122941661Y-72670491D01*
X123076551Y-72643700D01*
X123136055Y-72564843D01*
X123119683Y-72436197D01*
X123029391Y-72263768D01*
X122900389Y-72130045D01*
X122720030Y-72019468D01*
X122525648Y-71950885D01*
X122385817Y-71938862D01*
X122267731Y-71957891D01*
X122213309Y-72002498D01*
X122195641Y-72075997D01*
X121975923Y-72075997D01*
X121927979Y-71963733D01*
X121913378Y-71791952D01*
X121955598Y-71647059D01*
X122049338Y-71548063D01*
X122180266Y-71513843D01*
X122384166Y-71552873D01*
G37*
G36*
X120956433Y-85546026D02*
G01*
X121050951Y-85601453D01*
X121198354Y-85709952D01*
X121364301Y-85841569D01*
X121593229Y-86019540D01*
X121842383Y-86201728D01*
X122093574Y-86375885D01*
X122328610Y-86529768D01*
X122529300Y-86651129D01*
X122677454Y-86727725D01*
X122686190Y-86731427D01*
X122793630Y-86789725D01*
X122832226Y-86840213D01*
X122795884Y-86870039D01*
X122753461Y-86873296D01*
X122656630Y-86846510D01*
X122505387Y-86773685D01*
X122313041Y-86664103D01*
X122092899Y-86527042D01*
X121858267Y-86371782D01*
X121622453Y-86207602D01*
X121398765Y-86043782D01*
X121200510Y-85889600D01*
X121040995Y-85754336D01*
X120933528Y-85647270D01*
X120891415Y-85577681D01*
X120891257Y-85574756D01*
X120906101Y-85538762D01*
X120956433Y-85546026D01*
G37*
G36*
X121819420Y-80346493D02*
G01*
X121903017Y-80419534D01*
X121951237Y-80523339D01*
X121955374Y-80566004D01*
X121932710Y-80650891D01*
X121849201Y-80674492D01*
X121846879Y-80674499D01*
X121728537Y-80638920D01*
X121633608Y-80552288D01*
X121591275Y-80444760D01*
X121593289Y-80412443D01*
X121640864Y-80332900D01*
X121724138Y-80314266D01*
X121819420Y-80346493D01*
G37*
G36*
X55532806Y-31403034D02*
G01*
X55718458Y-31417807D01*
X56033629Y-31489319D01*
X56326224Y-31603079D01*
X56420397Y-31656822D01*
X56640163Y-31897854D01*
X56727603Y-32224656D01*
X56685516Y-32620945D01*
X56516705Y-33070441D01*
X56223969Y-33556864D01*
X56055070Y-33780333D01*
X55885930Y-33968662D01*
X55750180Y-34080732D01*
X55701563Y-34095735D01*
X55659938Y-34126285D01*
X55676063Y-34163053D01*
X55635476Y-34246392D01*
X55491601Y-34426147D01*
X55263894Y-34682082D01*
X54971813Y-34993965D01*
X54634815Y-35341560D01*
X54272357Y-35704635D01*
X53903897Y-36062953D01*
X53548892Y-36396283D01*
X53388808Y-36541620D01*
X53238137Y-36672117D01*
X53106503Y-36760398D01*
X52954996Y-36817036D01*
X52744705Y-36852604D01*
X52436721Y-36877675D01*
X52076474Y-36898227D01*
X51248407Y-36942032D01*
X50576779Y-36974518D01*
X50049105Y-36996084D01*
X49652897Y-37007126D01*
X49375668Y-37008044D01*
X49204930Y-36999234D01*
X49155667Y-36991324D01*
X48713020Y-36866969D01*
X48416041Y-36735616D01*
X48241108Y-36586415D01*
X48225428Y-36564122D01*
X48113834Y-36288670D01*
X48119429Y-35996770D01*
X48727965Y-35996770D01*
X48774393Y-36293612D01*
X48960077Y-36522082D01*
X49188399Y-36650195D01*
X49491693Y-36728221D01*
X49906793Y-36770821D01*
X50379624Y-36776599D01*
X50856116Y-36744162D01*
X51148486Y-36700735D01*
X51405044Y-36647072D01*
X51584153Y-36600231D01*
X51634318Y-36579237D01*
X51618217Y-36491514D01*
X51551300Y-36265749D01*
X51544826Y-36245690D01*
X53265065Y-36245690D01*
X53319634Y-36226734D01*
X53467147Y-36101309D01*
X53688373Y-35889790D01*
X53964081Y-35612558D01*
X54275038Y-35289988D01*
X54341200Y-35219667D01*
X54532000Y-35219667D01*
X54574333Y-35262000D01*
X54616667Y-35219667D01*
X54574333Y-35177333D01*
X54532000Y-35219667D01*
X54341200Y-35219667D01*
X54602014Y-34942460D01*
X54925778Y-34590350D01*
X55227097Y-34254036D01*
X55486740Y-33953898D01*
X55685476Y-33710311D01*
X55781432Y-33579329D01*
X56094200Y-33047550D01*
X56262677Y-32603917D01*
X56286476Y-32247330D01*
X56165213Y-31976685D01*
X55898499Y-31790881D01*
X55485949Y-31688817D01*
X55110770Y-31666610D01*
X54817126Y-31672028D01*
X54595828Y-31689067D01*
X54496816Y-31713177D01*
X54459099Y-31808375D01*
X54385998Y-32041409D01*
X54284602Y-32386195D01*
X54161998Y-32816650D01*
X54025276Y-33306690D01*
X53881524Y-33830229D01*
X53737830Y-34361185D01*
X53601283Y-34873474D01*
X53478972Y-35341011D01*
X53377986Y-35737712D01*
X53305411Y-36037494D01*
X53268339Y-36214273D01*
X53265065Y-36245690D01*
X51544826Y-36245690D01*
X51440677Y-35923018D01*
X51293458Y-35484396D01*
X51116754Y-34970958D01*
X50917673Y-34403781D01*
X50703327Y-33803940D01*
X50624875Y-33587038D01*
X50586343Y-33509002D01*
X50530829Y-33491780D01*
X50436008Y-33550823D01*
X50279553Y-33701583D01*
X50039140Y-33959511D01*
X49957512Y-34048899D01*
X49435566Y-34657622D01*
X49057416Y-35182615D01*
X48821927Y-35627718D01*
X48727965Y-35996770D01*
X48119429Y-35996770D01*
X48119919Y-35971180D01*
X48248491Y-35601948D01*
X48504360Y-35171270D01*
X48892335Y-34669440D01*
X49417225Y-34086756D01*
X49491778Y-34008714D01*
X50420556Y-33041851D01*
X50190278Y-32391736D01*
X50083312Y-32082824D01*
X50002775Y-31837047D01*
X49962299Y-31696448D01*
X49960000Y-31681477D01*
X50036035Y-31646664D01*
X50229797Y-31624950D01*
X50369242Y-31621333D01*
X50778483Y-31621333D01*
X51398832Y-33251167D01*
X51603413Y-33787983D01*
X51803489Y-34311763D01*
X51985361Y-34786732D01*
X52135331Y-35177116D01*
X52239699Y-35447143D01*
X52244251Y-35458838D01*
X52469321Y-36036676D01*
X52658700Y-35331838D01*
X52911808Y-34385195D01*
X53120684Y-33593527D01*
X53287290Y-32948899D01*
X53413590Y-32443376D01*
X53501544Y-32069023D01*
X53553116Y-31817904D01*
X53570268Y-31682085D01*
X53567475Y-31656960D01*
X53626213Y-31603262D01*
X53818494Y-31548753D01*
X54108598Y-31497403D01*
X54460803Y-31453185D01*
X54839387Y-31420069D01*
X55208629Y-31402028D01*
X55532806Y-31403034D01*
G37*
D12*
%TO.C,U7*%
X125600000Y-23765000D02*
X120400000Y-23765000D01*
X120400000Y-23765000D02*
X120400000Y-30235000D01*
X125600000Y-26000000D02*
X125600000Y-23765000D01*
X125600000Y-30235000D02*
X125600000Y-28000000D01*
X120400000Y-30235000D02*
X125600000Y-30235000D01*
X125600000Y-26000000D02*
G75*
G03*
X125600000Y-28000000I0J-1000000D01*
G01*
%TO.C,J4*%
X37392500Y-43562500D02*
X37392500Y-41562500D01*
X38642500Y-43562500D02*
X37392500Y-43562500D01*
X37782500Y-43172500D02*
X45252500Y-43172500D01*
X45252500Y-43172500D02*
X45252500Y-32792500D01*
X38742500Y-42022500D02*
X38742500Y-39022500D01*
X40092500Y-42022500D02*
X40092500Y-41272500D01*
X44392500Y-42022500D02*
X40092500Y-42022500D01*
X39742500Y-41772500D02*
X38742500Y-42022500D01*
X39742500Y-41272500D02*
X39742500Y-41772500D01*
X40092500Y-41272500D02*
X39742500Y-41272500D01*
X44392500Y-41272500D02*
X44392500Y-42022500D01*
X39742500Y-39772500D02*
X40092500Y-39772500D01*
X40092500Y-39772500D02*
X40092500Y-39022500D01*
X39742500Y-39272500D02*
X39742500Y-39772500D01*
X38742500Y-39022500D02*
X39742500Y-39272500D01*
X40092500Y-39022500D02*
X44392500Y-39022500D01*
X44392500Y-39022500D02*
X44392500Y-39772500D01*
X38742500Y-36942500D02*
X38742500Y-33942500D01*
X40092500Y-36942500D02*
X40092500Y-36192500D01*
X44392500Y-36942500D02*
X40092500Y-36942500D01*
X39742500Y-36692500D02*
X38742500Y-36942500D01*
X39742500Y-36192500D02*
X39742500Y-36692500D01*
X40092500Y-36192500D02*
X39742500Y-36192500D01*
X44392500Y-36192500D02*
X44392500Y-36942500D01*
X39742500Y-34692500D02*
X40092500Y-34692500D01*
X40092500Y-34692500D02*
X40092500Y-33942500D01*
X39742500Y-34192500D02*
X39742500Y-34692500D01*
X38742500Y-33942500D02*
X39742500Y-34192500D01*
X40092500Y-33942500D02*
X44392500Y-33942500D01*
X44392500Y-33942500D02*
X44392500Y-34692500D01*
X37782500Y-32792500D02*
X37782500Y-43172500D01*
X45252500Y-32792500D02*
X37782500Y-32792500D01*
X44392345Y-39772853D02*
G75*
G03*
X44392500Y-41272500I1700155J-749647D01*
G01*
X44392345Y-34692853D02*
G75*
G03*
X44392500Y-36192500I1700155J-749647D01*
G01*
%TO.C,D7*%
X75270000Y-28060000D02*
X70970000Y-28060000D01*
X75270000Y-28060000D02*
X75270000Y-35720000D01*
X70970000Y-28060000D02*
X70970000Y-35720000D01*
%TO.C,J1*%
X90150000Y-13250000D02*
X90150000Y-14500000D01*
X90440000Y-13540000D02*
X90440000Y-19510000D01*
X90440000Y-19510000D02*
X108060000Y-19510000D01*
X90450000Y-13550000D02*
X90450000Y-14300000D01*
X90450000Y-14300000D02*
X92250000Y-14300000D01*
X90450000Y-15800000D02*
X91200000Y-15800000D01*
X91200000Y-15800000D02*
X91200000Y-18750000D01*
X91200000Y-18750000D02*
X99250000Y-18750000D01*
X91400000Y-13250000D02*
X90150000Y-13250000D01*
X92250000Y-13550000D02*
X90450000Y-13550000D01*
X92250000Y-14300000D02*
X92250000Y-13550000D01*
X93750000Y-13550000D02*
X93750000Y-14300000D01*
X93750000Y-14300000D02*
X104750000Y-14300000D01*
X104750000Y-13550000D02*
X93750000Y-13550000D01*
X104750000Y-14300000D02*
X104750000Y-13550000D01*
X106250000Y-13550000D02*
X106250000Y-14300000D01*
X106250000Y-14300000D02*
X108050000Y-14300000D01*
X107300000Y-15800000D02*
X107300000Y-18750000D01*
X107300000Y-18750000D02*
X99250000Y-18750000D01*
X108050000Y-13550000D02*
X106250000Y-13550000D01*
X108050000Y-14300000D02*
X108050000Y-13550000D01*
X108050000Y-15800000D02*
X107300000Y-15800000D01*
X108060000Y-13540000D02*
X90440000Y-13540000D01*
X108060000Y-19510000D02*
X108060000Y-13540000D01*
%TO.C,K5*%
X105650000Y-43722500D02*
X105650000Y-66422500D01*
X105650000Y-66422500D02*
X122350000Y-66422500D01*
X109500000Y-48572500D02*
X112650000Y-48572500D01*
X113000000Y-43462500D02*
X115000000Y-43462500D01*
X113650000Y-47972500D02*
X113650000Y-49172500D01*
X113650000Y-48772500D02*
X114350000Y-48372500D01*
X113650000Y-49172500D02*
X114350000Y-49172500D01*
X114350000Y-47972500D02*
X113650000Y-47972500D01*
X114350000Y-49172500D02*
X114350000Y-47972500D01*
X115350000Y-48572500D02*
X118500000Y-48572500D01*
X122350000Y-43722500D02*
X105650000Y-43722500D01*
X122350000Y-66422500D02*
X122350000Y-43722500D01*
%TO.C,D5*%
X102850000Y-42960000D02*
X107150000Y-42960000D01*
X102850000Y-42960000D02*
X102850000Y-35300000D01*
X107150000Y-42960000D02*
X107150000Y-35300000D01*
%TO.C,R9*%
X86470000Y-70000000D02*
X83470000Y-70000000D01*
X92710000Y-70000000D02*
G75*
G03*
X92710000Y-70000000I-3120000J0D01*
G01*
%TO.C,L1*%
X71310000Y-26650000D02*
X71310000Y-14050000D01*
X74310000Y-26650000D02*
X71310000Y-26650000D01*
X83910000Y-26650000D02*
X80910000Y-26650000D01*
X71310000Y-14050000D02*
X74310000Y-14050000D01*
X80910000Y-14050000D02*
X83910000Y-14050000D01*
X83910000Y-14050000D02*
X83910000Y-26650000D01*
%TO.C,R13*%
X123765000Y-19227064D02*
X123765000Y-18772936D01*
X125235000Y-19227064D02*
X125235000Y-18772936D01*
%TO.C,U5*%
X113600000Y-23765000D02*
X108400000Y-23765000D01*
X108400000Y-23765000D02*
X108400000Y-30235000D01*
X113600000Y-26000000D02*
X113600000Y-23765000D01*
X113600000Y-30235000D02*
X113600000Y-28000000D01*
X108400000Y-30235000D02*
X113600000Y-30235000D01*
X113600000Y-26000000D02*
G75*
G03*
X113600000Y-28000000I0J-1000000D01*
G01*
%TO.C,U6*%
X119600000Y-23765000D02*
X114400000Y-23765000D01*
X114400000Y-23765000D02*
X114400000Y-30235000D01*
X119600000Y-26000000D02*
X119600000Y-23765000D01*
X119600000Y-30235000D02*
X119600000Y-28000000D01*
X114400000Y-30235000D02*
X119600000Y-30235000D01*
X119600000Y-26000000D02*
G75*
G03*
X119600000Y-28000000I0J-1000000D01*
G01*
%TO.C,J3*%
X38097500Y-12392500D02*
X40097500Y-12392500D01*
X38097500Y-13642500D02*
X38097500Y-12392500D01*
X38487500Y-12782500D02*
X38487500Y-20252500D01*
X38487500Y-20252500D02*
X48867500Y-20252500D01*
X39637500Y-13742500D02*
X42637500Y-13742500D01*
X39637500Y-15092500D02*
X40387500Y-15092500D01*
X39637500Y-19392500D02*
X39637500Y-15092500D01*
X39887500Y-14742500D02*
X39637500Y-13742500D01*
X40387500Y-14742500D02*
X39887500Y-14742500D01*
X40387500Y-15092500D02*
X40387500Y-14742500D01*
X40387500Y-19392500D02*
X39637500Y-19392500D01*
X41887500Y-14742500D02*
X41887500Y-15092500D01*
X41887500Y-15092500D02*
X42637500Y-15092500D01*
X42387500Y-14742500D02*
X41887500Y-14742500D01*
X42637500Y-13742500D02*
X42387500Y-14742500D01*
X42637500Y-15092500D02*
X42637500Y-19392500D01*
X42637500Y-19392500D02*
X41887500Y-19392500D01*
X44717500Y-13742500D02*
X47717500Y-13742500D01*
X44717500Y-15092500D02*
X45467500Y-15092500D01*
X44717500Y-19392500D02*
X44717500Y-15092500D01*
X44967500Y-14742500D02*
X44717500Y-13742500D01*
X45467500Y-14742500D02*
X44967500Y-14742500D01*
X45467500Y-15092500D02*
X45467500Y-14742500D01*
X45467500Y-19392500D02*
X44717500Y-19392500D01*
X46967500Y-14742500D02*
X46967500Y-15092500D01*
X46967500Y-15092500D02*
X47717500Y-15092500D01*
X47467500Y-14742500D02*
X46967500Y-14742500D01*
X47717500Y-13742500D02*
X47467500Y-14742500D01*
X47717500Y-15092500D02*
X47717500Y-19392500D01*
X47717500Y-19392500D02*
X46967500Y-19392500D01*
X48867500Y-12782500D02*
X38487500Y-12782500D01*
X48867500Y-20252500D02*
X48867500Y-12782500D01*
X41887147Y-19392345D02*
G75*
G03*
X40387500Y-19392500I-749647J-1700155D01*
G01*
X46967147Y-19392345D02*
G75*
G03*
X45467500Y-19392500I-749647J-1700155D01*
G01*
%TO.C,J6*%
X37150000Y-78040000D02*
X37150000Y-76040000D01*
X38400000Y-78040000D02*
X37150000Y-78040000D01*
X37540000Y-77650000D02*
X45010000Y-77650000D01*
X45010000Y-77650000D02*
X45010000Y-67270000D01*
X38500000Y-76500000D02*
X38500000Y-73500000D01*
X39850000Y-76500000D02*
X39850000Y-75750000D01*
X44150000Y-76500000D02*
X39850000Y-76500000D01*
X39500000Y-76250000D02*
X38500000Y-76500000D01*
X39500000Y-75750000D02*
X39500000Y-76250000D01*
X39850000Y-75750000D02*
X39500000Y-75750000D01*
X44150000Y-75750000D02*
X44150000Y-76500000D01*
X39500000Y-74250000D02*
X39850000Y-74250000D01*
X39850000Y-74250000D02*
X39850000Y-73500000D01*
X39500000Y-73750000D02*
X39500000Y-74250000D01*
X38500000Y-73500000D02*
X39500000Y-73750000D01*
X39850000Y-73500000D02*
X44150000Y-73500000D01*
X44150000Y-73500000D02*
X44150000Y-74250000D01*
X38500000Y-71420000D02*
X38500000Y-68420000D01*
X39850000Y-71420000D02*
X39850000Y-70670000D01*
X44150000Y-71420000D02*
X39850000Y-71420000D01*
X39500000Y-71170000D02*
X38500000Y-71420000D01*
X39500000Y-70670000D02*
X39500000Y-71170000D01*
X39850000Y-70670000D02*
X39500000Y-70670000D01*
X44150000Y-70670000D02*
X44150000Y-71420000D01*
X39500000Y-69170000D02*
X39850000Y-69170000D01*
X39850000Y-69170000D02*
X39850000Y-68420000D01*
X39500000Y-68670000D02*
X39500000Y-69170000D01*
X38500000Y-68420000D02*
X39500000Y-68670000D01*
X39850000Y-68420000D02*
X44150000Y-68420000D01*
X44150000Y-68420000D02*
X44150000Y-69170000D01*
X37540000Y-67270000D02*
X37540000Y-77650000D01*
X45010000Y-67270000D02*
X37540000Y-67270000D01*
X44149845Y-74250353D02*
G75*
G03*
X44150000Y-75750000I1700155J-749647D01*
G01*
X44149845Y-69170353D02*
G75*
G03*
X44150000Y-70670000I1700155J-749647D01*
G01*
%TO.C,J9*%
X126105000Y-13670000D02*
X126105000Y-15000000D01*
X124775000Y-13670000D02*
X126105000Y-13670000D01*
X123505000Y-13670000D02*
X120905000Y-13670000D01*
X123505000Y-13670000D02*
X123505000Y-16330000D01*
X120905000Y-13670000D02*
X120905000Y-16330000D01*
X123505000Y-16330000D02*
X120905000Y-16330000D01*
%TO.C,C2*%
X51440000Y-25410000D02*
X51440000Y-24410000D01*
X50940000Y-24910000D02*
X51940000Y-24910000D01*
X50654437Y-24170000D02*
X52440000Y-24170000D01*
X50654437Y-24170000D02*
X49590000Y-23105563D01*
X57245563Y-24170000D02*
X55460000Y-24170000D01*
X57245563Y-24170000D02*
X58310000Y-23105563D01*
X49590000Y-23105563D02*
X49590000Y-15450000D01*
X58310000Y-23105563D02*
X58310000Y-15450000D01*
X49590000Y-15450000D02*
X52440000Y-15450000D01*
X58310000Y-15450000D02*
X55460000Y-15450000D01*
%TO.C,C1*%
X57140000Y-27791252D02*
X57140000Y-26368748D01*
X58960000Y-27791252D02*
X58960000Y-26368748D01*
%TO.C,R12*%
X112710000Y-70000000D02*
X115710000Y-70000000D01*
X112710000Y-70000000D02*
G75*
G03*
X112710000Y-70000000I-3120000J0D01*
G01*
%TO.C,U3*%
X107600000Y-23765000D02*
X102400000Y-23765000D01*
X102400000Y-23765000D02*
X102400000Y-30235000D01*
X107600000Y-26000000D02*
X107600000Y-23765000D01*
X107600000Y-30235000D02*
X107600000Y-28000000D01*
X102400000Y-30235000D02*
X107600000Y-30235000D01*
X107600000Y-26000000D02*
G75*
G03*
X107600000Y-28000000I0J-1000000D01*
G01*
%TO.C,K4*%
X88650000Y-43722500D02*
X88650000Y-66422500D01*
X88650000Y-66422500D02*
X105350000Y-66422500D01*
X92500000Y-48572500D02*
X95650000Y-48572500D01*
X96000000Y-43462500D02*
X98000000Y-43462500D01*
X96650000Y-47972500D02*
X96650000Y-49172500D01*
X96650000Y-48772500D02*
X97350000Y-48372500D01*
X96650000Y-49172500D02*
X97350000Y-49172500D01*
X97350000Y-47972500D02*
X96650000Y-47972500D01*
X97350000Y-49172500D02*
X97350000Y-47972500D01*
X98350000Y-48572500D02*
X101500000Y-48572500D01*
X105350000Y-43722500D02*
X88650000Y-43722500D01*
X105350000Y-66422500D02*
X105350000Y-43722500D01*
%TO.C,D8*%
X108850000Y-42960000D02*
X113150000Y-42960000D01*
X108850000Y-42960000D02*
X108850000Y-35300000D01*
X113150000Y-42960000D02*
X113150000Y-35300000D01*
%TO.C,J2*%
X37392500Y-32062500D02*
X37392500Y-30062500D01*
X38642500Y-32062500D02*
X37392500Y-32062500D01*
X37782500Y-31672500D02*
X45252500Y-31672500D01*
X45252500Y-31672500D02*
X45252500Y-21292500D01*
X38742500Y-30522500D02*
X38742500Y-27522500D01*
X40092500Y-30522500D02*
X40092500Y-29772500D01*
X44392500Y-30522500D02*
X40092500Y-30522500D01*
X39742500Y-30272500D02*
X38742500Y-30522500D01*
X39742500Y-29772500D02*
X39742500Y-30272500D01*
X40092500Y-29772500D02*
X39742500Y-29772500D01*
X44392500Y-29772500D02*
X44392500Y-30522500D01*
X39742500Y-28272500D02*
X40092500Y-28272500D01*
X40092500Y-28272500D02*
X40092500Y-27522500D01*
X39742500Y-27772500D02*
X39742500Y-28272500D01*
X38742500Y-27522500D02*
X39742500Y-27772500D01*
X40092500Y-27522500D02*
X44392500Y-27522500D01*
X44392500Y-27522500D02*
X44392500Y-28272500D01*
X38742500Y-25442500D02*
X38742500Y-22442500D01*
X40092500Y-25442500D02*
X40092500Y-24692500D01*
X44392500Y-25442500D02*
X40092500Y-25442500D01*
X39742500Y-25192500D02*
X38742500Y-25442500D01*
X39742500Y-24692500D02*
X39742500Y-25192500D01*
X40092500Y-24692500D02*
X39742500Y-24692500D01*
X44392500Y-24692500D02*
X44392500Y-25442500D01*
X39742500Y-23192500D02*
X40092500Y-23192500D01*
X40092500Y-23192500D02*
X40092500Y-22442500D01*
X39742500Y-22692500D02*
X39742500Y-23192500D01*
X38742500Y-22442500D02*
X39742500Y-22692500D01*
X40092500Y-22442500D02*
X44392500Y-22442500D01*
X44392500Y-22442500D02*
X44392500Y-23192500D01*
X37782500Y-21292500D02*
X37782500Y-31672500D01*
X45252500Y-21292500D02*
X37782500Y-21292500D01*
X44392345Y-28272853D02*
G75*
G03*
X44392500Y-29772500I1700155J-749647D01*
G01*
X44392345Y-23192853D02*
G75*
G03*
X44392500Y-24692500I1700155J-749647D01*
G01*
%TO.C,K1*%
X37650000Y-43722500D02*
X37650000Y-66422500D01*
X37650000Y-66422500D02*
X54350000Y-66422500D01*
X41500000Y-48572500D02*
X44650000Y-48572500D01*
X45000000Y-43462500D02*
X47000000Y-43462500D01*
X45650000Y-47972500D02*
X45650000Y-49172500D01*
X45650000Y-48772500D02*
X46350000Y-48372500D01*
X45650000Y-49172500D02*
X46350000Y-49172500D01*
X46350000Y-47972500D02*
X45650000Y-47972500D01*
X46350000Y-49172500D02*
X46350000Y-47972500D01*
X47350000Y-48572500D02*
X50500000Y-48572500D01*
X54350000Y-43722500D02*
X37650000Y-43722500D01*
X54350000Y-66422500D02*
X54350000Y-43722500D01*
%TO.C,U1*%
X95600000Y-23765000D02*
X90400000Y-23765000D01*
X90400000Y-23765000D02*
X90400000Y-30235000D01*
X95600000Y-26000000D02*
X95600000Y-23765000D01*
X95600000Y-30235000D02*
X95600000Y-28000000D01*
X90400000Y-30235000D02*
X95600000Y-30235000D01*
X95600000Y-26000000D02*
G75*
G03*
X95600000Y-28000000I0J-1000000D01*
G01*
%TO.C,D1*%
X90850000Y-42960000D02*
X95150000Y-42960000D01*
X90850000Y-42960000D02*
X90850000Y-35300000D01*
X95150000Y-42960000D02*
X95150000Y-35300000D01*
%TO.C,D2*%
X96850000Y-42960000D02*
X101150000Y-42960000D01*
X96850000Y-42960000D02*
X96850000Y-35300000D01*
X101150000Y-42960000D02*
X101150000Y-35300000D01*
%TO.C,C3*%
X88902500Y-35910000D02*
X87652500Y-35910000D01*
X88277500Y-36535000D02*
X88277500Y-35285000D01*
X87412500Y-37445563D02*
X87412500Y-34660000D01*
X87412500Y-37445563D02*
X86348063Y-38510000D01*
X87412500Y-28854437D02*
X87412500Y-31640000D01*
X87412500Y-28854437D02*
X86348063Y-27790000D01*
X86348063Y-38510000D02*
X76692500Y-38510000D01*
X86348063Y-27790000D02*
X76692500Y-27790000D01*
X76692500Y-38510000D02*
X76692500Y-34660000D01*
X76692500Y-27790000D02*
X76692500Y-31640000D01*
%TO.C,D9*%
X114850000Y-42960000D02*
X119150000Y-42960000D01*
X114850000Y-42960000D02*
X114850000Y-35300000D01*
X119150000Y-42960000D02*
X119150000Y-35300000D01*
%TO.C,R15*%
X122735000Y-18772936D02*
X122735000Y-19227064D01*
X121265000Y-18772936D02*
X121265000Y-19227064D01*
%TO.C,J14*%
X124200000Y-48610000D02*
X124200000Y-47500000D01*
X124960000Y-48610000D02*
X124200000Y-48610000D01*
X125720000Y-48610000D02*
X128195000Y-48610000D01*
X125720000Y-48610000D02*
X125720000Y-48063471D01*
X128195000Y-48610000D02*
X128195000Y-47807530D01*
X128195000Y-47192470D02*
X128195000Y-46390000D01*
X125720000Y-46936529D02*
X125720000Y-46390000D01*
X125720000Y-46390000D02*
X128195000Y-46390000D01*
%TO.C,J13*%
X122650000Y-45540000D02*
X122650000Y-43540000D01*
X123900000Y-45540000D02*
X122650000Y-45540000D01*
X123040000Y-45150000D02*
X130510000Y-45150000D01*
X130510000Y-45150000D02*
X130510000Y-34770000D01*
X124000000Y-44000000D02*
X124000000Y-41000000D01*
X125350000Y-44000000D02*
X125350000Y-43250000D01*
X129650000Y-44000000D02*
X125350000Y-44000000D01*
X125000000Y-43750000D02*
X124000000Y-44000000D01*
X125000000Y-43250000D02*
X125000000Y-43750000D01*
X125350000Y-43250000D02*
X125000000Y-43250000D01*
X129650000Y-43250000D02*
X129650000Y-44000000D01*
X125000000Y-41750000D02*
X125350000Y-41750000D01*
X125350000Y-41750000D02*
X125350000Y-41000000D01*
X125000000Y-41250000D02*
X125000000Y-41750000D01*
X124000000Y-41000000D02*
X125000000Y-41250000D01*
X125350000Y-41000000D02*
X129650000Y-41000000D01*
X129650000Y-41000000D02*
X129650000Y-41750000D01*
X124000000Y-38920000D02*
X124000000Y-35920000D01*
X125350000Y-38920000D02*
X125350000Y-38170000D01*
X129650000Y-38920000D02*
X125350000Y-38920000D01*
X125000000Y-38670000D02*
X124000000Y-38920000D01*
X125000000Y-38170000D02*
X125000000Y-38670000D01*
X125350000Y-38170000D02*
X125000000Y-38170000D01*
X129650000Y-38170000D02*
X129650000Y-38920000D01*
X125000000Y-36670000D02*
X125350000Y-36670000D01*
X125350000Y-36670000D02*
X125350000Y-35920000D01*
X125000000Y-36170000D02*
X125000000Y-36670000D01*
X124000000Y-35920000D02*
X125000000Y-36170000D01*
X125350000Y-35920000D02*
X129650000Y-35920000D01*
X129650000Y-35920000D02*
X129650000Y-36670000D01*
X123040000Y-34770000D02*
X123040000Y-45150000D01*
X130510000Y-34770000D02*
X123040000Y-34770000D01*
X129649845Y-41750353D02*
G75*
G03*
X129650000Y-43250000I1700155J-749647D01*
G01*
X129649845Y-36670353D02*
G75*
G03*
X129650000Y-38170000I1700155J-749647D01*
G01*
%TO.C,K3*%
X71650000Y-43722500D02*
X71650000Y-66422500D01*
X71650000Y-66422500D02*
X88350000Y-66422500D01*
X75500000Y-48572500D02*
X78650000Y-48572500D01*
X79000000Y-43462500D02*
X81000000Y-43462500D01*
X79650000Y-47972500D02*
X79650000Y-49172500D01*
X79650000Y-48772500D02*
X80350000Y-48372500D01*
X79650000Y-49172500D02*
X80350000Y-49172500D01*
X80350000Y-47972500D02*
X79650000Y-47972500D01*
X80350000Y-49172500D02*
X80350000Y-47972500D01*
X81350000Y-48572500D02*
X84500000Y-48572500D01*
X88350000Y-43722500D02*
X71650000Y-43722500D01*
X88350000Y-66422500D02*
X88350000Y-43722500D01*
%TO.C,K2*%
X54650000Y-43722500D02*
X54650000Y-66422500D01*
X54650000Y-66422500D02*
X71350000Y-66422500D01*
X58500000Y-48572500D02*
X61650000Y-48572500D01*
X62000000Y-43462500D02*
X64000000Y-43462500D01*
X62650000Y-47972500D02*
X62650000Y-49172500D01*
X62650000Y-48772500D02*
X63350000Y-48372500D01*
X62650000Y-49172500D02*
X63350000Y-49172500D01*
X63350000Y-47972500D02*
X62650000Y-47972500D01*
X63350000Y-49172500D02*
X63350000Y-47972500D01*
X64350000Y-48572500D02*
X67500000Y-48572500D01*
X71350000Y-43722500D02*
X54650000Y-43722500D01*
X71350000Y-66422500D02*
X71350000Y-43722500D01*
%TO.C,J8*%
X37670000Y-79395000D02*
X39000000Y-79395000D01*
X37670000Y-80725000D02*
X37670000Y-79395000D01*
X37670000Y-81995000D02*
X37670000Y-84595000D01*
X37670000Y-81995000D02*
X40330000Y-81995000D01*
X37670000Y-84595000D02*
X40330000Y-84595000D01*
X40330000Y-81995000D02*
X40330000Y-84595000D01*
%TO.C,U4*%
X59850000Y-24750000D02*
X60800000Y-24750000D01*
X60800000Y-24750000D02*
X60800000Y-29875000D01*
X69300000Y-24750000D02*
X69300000Y-25850000D01*
X70250000Y-24750000D02*
X69300000Y-24750000D01*
X59850000Y-23250000D02*
X59850000Y-24750000D01*
X70250000Y-23250000D02*
X70250000Y-24750000D01*
%TO.C,U2*%
X101600000Y-23765000D02*
X96400000Y-23765000D01*
X96400000Y-23765000D02*
X96400000Y-30235000D01*
X101600000Y-26000000D02*
X101600000Y-23765000D01*
X101600000Y-30235000D02*
X101600000Y-28000000D01*
X96400000Y-30235000D02*
X101600000Y-30235000D01*
X101600000Y-26000000D02*
G75*
G03*
X101600000Y-28000000I0J-1000000D01*
G01*
%TD*%
M02*
