%TF.GenerationSoftware,KiCad,Pcbnew,7.0.9*%
%TF.CreationDate,2024-06-03T15:21:11+05:30*%
%TF.ProjectId,Precharge,50726563-6861-4726-9765-2e6b69636164,rev?*%
%TF.SameCoordinates,Original*%
%TF.FileFunction,Soldermask,Top*%
%TF.FilePolarity,Negative*%
%FSLAX46Y46*%
G04 Gerber Fmt 4.6, Leading zero omitted, Abs format (unit mm)*
G04 Created by KiCad (PCBNEW 7.0.9) date 2024-06-03 15:21:11*
%MOMM*%
%LPD*%
G01*
G04 APERTURE LIST*
G04 Aperture macros list*
%AMRoundRect*
0 Rectangle with rounded corners*
0 $1 Rounding radius*
0 $2 $3 $4 $5 $6 $7 $8 $9 X,Y pos of 4 corners*
0 Add a 4 corners polygon primitive as box body*
4,1,4,$2,$3,$4,$5,$6,$7,$8,$9,$2,$3,0*
0 Add four circle primitives for the rounded corners*
1,1,$1+$1,$2,$3*
1,1,$1+$1,$4,$5*
1,1,$1+$1,$6,$7*
1,1,$1+$1,$8,$9*
0 Add four rect primitives between the rounded corners*
20,1,$1+$1,$2,$3,$4,$5,0*
20,1,$1+$1,$4,$5,$6,$7,0*
20,1,$1+$1,$6,$7,$8,$9,0*
20,1,$1+$1,$8,$9,$2,$3,0*%
%AMOutline4P*
0 Free polygon, 4 corners , with rotation*
0 The origin of the aperture is its center*
0 number of corners: always 4*
0 $1 to $8 corner X, Y*
0 $9 Rotation angle, in degrees counterclockwise*
0 create outline with 4 corners*
4,1,4,$1,$2,$3,$4,$5,$6,$7,$8,$1,$2,$9*%
G04 Aperture macros list end*
%ADD10R,1.780000X2.000000*%
%ADD11RoundRect,0.250000X1.550000X-0.650000X1.550000X0.650000X-1.550000X0.650000X-1.550000X-0.650000X0*%
%ADD12O,3.600000X1.800000*%
%ADD13Outline4P,-1.800000X-1.150000X1.800000X-0.550000X1.800000X0.550000X-1.800000X1.150000X270.000000*%
%ADD14Outline4P,-1.800000X-1.150000X1.800000X-0.550000X1.800000X0.550000X-1.800000X1.150000X90.000000*%
%ADD15RoundRect,0.250000X-0.600000X-0.725000X0.600000X-0.725000X0.600000X0.725000X-0.600000X0.725000X0*%
%ADD16O,1.700000X1.950000*%
%ADD17R,2.500000X2.500000*%
%ADD18O,2.500000X2.500000*%
%ADD19C,2.400000*%
%ADD20O,2.400000X2.400000*%
%ADD21R,5.400000X2.900000*%
%ADD22RoundRect,0.250000X0.450000X-0.350000X0.450000X0.350000X-0.450000X0.350000X-0.450000X-0.350000X0*%
%ADD23R,13.000000X13.000000*%
%ADD24RoundRect,0.250000X-0.650000X-1.550000X0.650000X-1.550000X0.650000X1.550000X-0.650000X1.550000X0*%
%ADD25O,1.800000X3.600000*%
%ADD26R,1.700000X1.700000*%
%ADD27O,1.700000X1.700000*%
%ADD28RoundRect,0.250000X1.000000X-1.950000X1.000000X1.950000X-1.000000X1.950000X-1.000000X-1.950000X0*%
%ADD29RoundRect,0.250000X0.650000X-0.412500X0.650000X0.412500X-0.650000X0.412500X-0.650000X-0.412500X0*%
%ADD30RoundRect,0.250000X1.950000X1.000000X-1.950000X1.000000X-1.950000X-1.000000X1.950000X-1.000000X0*%
%ADD31RoundRect,0.250000X-0.450000X0.350000X-0.450000X-0.350000X0.450000X-0.350000X0.450000X0.350000X0*%
%ADD32R,1.000000X1.000000*%
%ADD33O,1.000000X1.000000*%
%ADD34RoundRect,0.250000X0.300000X-2.050000X0.300000X2.050000X-0.300000X2.050000X-0.300000X-2.050000X0*%
%ADD35RoundRect,0.250002X5.149998X-4.449998X5.149998X4.449998X-5.149998X4.449998X-5.149998X-4.449998X0*%
G04 APERTURE END LIST*
D10*
%TO.C,U7*%
X124270000Y-22235000D03*
X121730000Y-22235000D03*
X121730000Y-31765000D03*
X124270000Y-31765000D03*
%TD*%
D11*
%TO.C,J4*%
X42242500Y-40522500D03*
D12*
X42242500Y-35442500D03*
%TD*%
D13*
%TO.C,D7*%
X73120000Y-30120000D03*
D14*
X73120000Y-35920000D03*
%TD*%
D15*
%TO.C,J1*%
X93000000Y-16000000D03*
D16*
X95500000Y-16000000D03*
X98000000Y-16000000D03*
X100500000Y-16000000D03*
X103000000Y-16000000D03*
X105500000Y-16000000D03*
%TD*%
D17*
%TO.C,K5*%
X114000000Y-46372500D03*
D18*
X108000000Y-48372500D03*
X108000000Y-60572500D03*
X120000000Y-60572500D03*
X120000000Y-48372500D03*
%TD*%
D14*
%TO.C,D5*%
X105000000Y-40900000D03*
D13*
X105000000Y-35100000D03*
%TD*%
D19*
%TO.C,R9*%
X89590000Y-70000000D03*
D20*
X81970000Y-70000000D03*
%TD*%
D21*
%TO.C,L1*%
X77610000Y-25300000D03*
X77610000Y-15400000D03*
%TD*%
D22*
%TO.C,R13*%
X124500000Y-20000000D03*
X124500000Y-18000000D03*
%TD*%
D10*
%TO.C,U5*%
X112270000Y-22235000D03*
X109730000Y-22235000D03*
X109730000Y-31765000D03*
X112270000Y-31765000D03*
%TD*%
%TO.C,U6*%
X118270000Y-22235000D03*
X115730000Y-22235000D03*
X115730000Y-31765000D03*
X118270000Y-31765000D03*
%TD*%
D23*
%TO.C,H4*%
X106500000Y-100500000D03*
%TD*%
D24*
%TO.C,J3*%
X41137500Y-17242500D03*
D25*
X46217500Y-17242500D03*
%TD*%
D11*
%TO.C,J6*%
X42000000Y-75000000D03*
D12*
X42000000Y-69920000D03*
%TD*%
D26*
%TO.C,J9*%
X124775000Y-15000000D03*
D27*
X122235000Y-15000000D03*
%TD*%
D28*
%TO.C,C2*%
X53950000Y-23510000D03*
X53950000Y-16110000D03*
%TD*%
D29*
%TO.C,C1*%
X58050000Y-28642500D03*
X58050000Y-25517500D03*
%TD*%
D19*
%TO.C,R12*%
X109590000Y-70000000D03*
D20*
X117210000Y-70000000D03*
%TD*%
D23*
%TO.C,H3*%
X106500000Y-82500000D03*
%TD*%
D10*
%TO.C,U3*%
X106270000Y-22235000D03*
X103730000Y-22235000D03*
X103730000Y-31765000D03*
X106270000Y-31765000D03*
%TD*%
D17*
%TO.C,K4*%
X97000000Y-46372500D03*
D18*
X91000000Y-48372500D03*
X91000000Y-60572500D03*
X103000000Y-60572500D03*
X103000000Y-48372500D03*
%TD*%
D14*
%TO.C,D8*%
X111000000Y-40900000D03*
D13*
X111000000Y-35100000D03*
%TD*%
D11*
%TO.C,J2*%
X42242500Y-29022500D03*
D12*
X42242500Y-23942500D03*
%TD*%
D17*
%TO.C,K1*%
X46000000Y-46372500D03*
D18*
X40000000Y-48372500D03*
X40000000Y-60572500D03*
X52000000Y-60572500D03*
X52000000Y-48372500D03*
%TD*%
D10*
%TO.C,U1*%
X94270000Y-22235000D03*
X91730000Y-22235000D03*
X91730000Y-31765000D03*
X94270000Y-31765000D03*
%TD*%
D14*
%TO.C,D1*%
X93000000Y-40900000D03*
D13*
X93000000Y-35100000D03*
%TD*%
D14*
%TO.C,D2*%
X99000000Y-40900000D03*
D13*
X99000000Y-35100000D03*
%TD*%
D30*
%TO.C,C3*%
X86252500Y-33150000D03*
X77852500Y-33150000D03*
%TD*%
D14*
%TO.C,D9*%
X117000000Y-40900000D03*
D13*
X117000000Y-35100000D03*
%TD*%
D31*
%TO.C,R15*%
X122000000Y-18000000D03*
X122000000Y-20000000D03*
%TD*%
D23*
%TO.C,H1*%
X60000000Y-82500000D03*
%TD*%
D32*
%TO.C,J14*%
X124960000Y-47500000D03*
D33*
X126230000Y-47500000D03*
X127500000Y-47500000D03*
%TD*%
D11*
%TO.C,J13*%
X127500000Y-42500000D03*
D12*
X127500000Y-37420000D03*
%TD*%
D17*
%TO.C,K3*%
X80000000Y-46372500D03*
D18*
X74000000Y-48372500D03*
X74000000Y-60572500D03*
X86000000Y-60572500D03*
X86000000Y-48372500D03*
%TD*%
D17*
%TO.C,K2*%
X63000000Y-46372500D03*
D18*
X57000000Y-48372500D03*
X57000000Y-60572500D03*
X69000000Y-60572500D03*
X69000000Y-48372500D03*
%TD*%
D26*
%TO.C,J8*%
X39000000Y-80725000D03*
D27*
X39000000Y-83265000D03*
%TD*%
D34*
%TO.C,U4*%
X61650000Y-27575000D03*
X63350000Y-27575000D03*
X65050000Y-27575000D03*
D35*
X65050000Y-18425000D03*
D34*
X66750000Y-27575000D03*
X68450000Y-27575000D03*
%TD*%
D23*
%TO.C,H2*%
X60000000Y-100500000D03*
%TD*%
D10*
%TO.C,U2*%
X100270000Y-22235000D03*
X97730000Y-22235000D03*
X97730000Y-31765000D03*
X100270000Y-31765000D03*
%TD*%
D26*
%TO.C,J7*%
X81275000Y-53000000D03*
D27*
X78735000Y-53000000D03*
%TD*%
D26*
%TO.C,J5*%
X64500000Y-53000000D03*
D27*
X61960000Y-53000000D03*
%TD*%
D32*
%TO.C,J10*%
X127000000Y-35000000D03*
D33*
X125730000Y-35000000D03*
%TD*%
D32*
%TO.C,J12*%
X122730000Y-35000000D03*
D33*
X121460000Y-35000000D03*
%TD*%
D32*
%TO.C,J11*%
X121230000Y-38500000D03*
D33*
X122500000Y-38500000D03*
%TD*%
M02*
