%TF.GenerationSoftware,KiCad,Pcbnew,7.0.9*%
%TF.CreationDate,2024-06-03T03:25:21+05:30*%
%TF.ProjectId,Precharge,50726563-6861-4726-9765-2e6b69636164,rev?*%
%TF.SameCoordinates,Original*%
%TF.FileFunction,Legend,Top*%
%TF.FilePolarity,Positive*%
%FSLAX46Y46*%
G04 Gerber Fmt 4.6, Leading zero omitted, Abs format (unit mm)*
G04 Created by KiCad (PCBNEW 7.0.9) date 2024-06-03 03:25:21*
%MOMM*%
%LPD*%
G01*
G04 APERTURE LIST*
%ADD10C,0.125000*%
%ADD11C,0.150000*%
%ADD12C,0.120000*%
G04 APERTURE END LIST*
D10*
X113701283Y-76432309D02*
X113701283Y-75932309D01*
X113701283Y-76170404D02*
X113986997Y-76170404D01*
X113986997Y-76432309D02*
X113986997Y-75932309D01*
X114153665Y-75932309D02*
X114320331Y-76432309D01*
X114320331Y-76432309D02*
X114486998Y-75932309D01*
X114939378Y-76384690D02*
X114915569Y-76408500D01*
X114915569Y-76408500D02*
X114844140Y-76432309D01*
X114844140Y-76432309D02*
X114796521Y-76432309D01*
X114796521Y-76432309D02*
X114725093Y-76408500D01*
X114725093Y-76408500D02*
X114677474Y-76360880D01*
X114677474Y-76360880D02*
X114653664Y-76313261D01*
X114653664Y-76313261D02*
X114629855Y-76218023D01*
X114629855Y-76218023D02*
X114629855Y-76146595D01*
X114629855Y-76146595D02*
X114653664Y-76051357D01*
X114653664Y-76051357D02*
X114677474Y-76003738D01*
X114677474Y-76003738D02*
X114725093Y-75956119D01*
X114725093Y-75956119D02*
X114796521Y-75932309D01*
X114796521Y-75932309D02*
X114844140Y-75932309D01*
X114844140Y-75932309D02*
X114915569Y-75956119D01*
X114915569Y-75956119D02*
X114939378Y-75979928D01*
X115367950Y-76098976D02*
X115367950Y-76432309D01*
X115248902Y-75908500D02*
X115129855Y-76265642D01*
X115129855Y-76265642D02*
X115439378Y-76265642D01*
X115582235Y-75932309D02*
X115891759Y-75932309D01*
X115891759Y-75932309D02*
X115725092Y-76122785D01*
X115725092Y-76122785D02*
X115796521Y-76122785D01*
X115796521Y-76122785D02*
X115844140Y-76146595D01*
X115844140Y-76146595D02*
X115867949Y-76170404D01*
X115867949Y-76170404D02*
X115891759Y-76218023D01*
X115891759Y-76218023D02*
X115891759Y-76337071D01*
X115891759Y-76337071D02*
X115867949Y-76384690D01*
X115867949Y-76384690D02*
X115844140Y-76408500D01*
X115844140Y-76408500D02*
X115796521Y-76432309D01*
X115796521Y-76432309D02*
X115653664Y-76432309D01*
X115653664Y-76432309D02*
X115606045Y-76408500D01*
X115606045Y-76408500D02*
X115582235Y-76384690D01*
X116106044Y-76241833D02*
X116486997Y-76241833D01*
X116701283Y-75979928D02*
X116725092Y-75956119D01*
X116725092Y-75956119D02*
X116772711Y-75932309D01*
X116772711Y-75932309D02*
X116891759Y-75932309D01*
X116891759Y-75932309D02*
X116939378Y-75956119D01*
X116939378Y-75956119D02*
X116963187Y-75979928D01*
X116963187Y-75979928D02*
X116986997Y-76027547D01*
X116986997Y-76027547D02*
X116986997Y-76075166D01*
X116986997Y-76075166D02*
X116963187Y-76146595D01*
X116963187Y-76146595D02*
X116677473Y-76432309D01*
X116677473Y-76432309D02*
X116986997Y-76432309D01*
X117296520Y-75932309D02*
X117344139Y-75932309D01*
X117344139Y-75932309D02*
X117391758Y-75956119D01*
X117391758Y-75956119D02*
X117415568Y-75979928D01*
X117415568Y-75979928D02*
X117439377Y-76027547D01*
X117439377Y-76027547D02*
X117463187Y-76122785D01*
X117463187Y-76122785D02*
X117463187Y-76241833D01*
X117463187Y-76241833D02*
X117439377Y-76337071D01*
X117439377Y-76337071D02*
X117415568Y-76384690D01*
X117415568Y-76384690D02*
X117391758Y-76408500D01*
X117391758Y-76408500D02*
X117344139Y-76432309D01*
X117344139Y-76432309D02*
X117296520Y-76432309D01*
X117296520Y-76432309D02*
X117248901Y-76408500D01*
X117248901Y-76408500D02*
X117225092Y-76384690D01*
X117225092Y-76384690D02*
X117201282Y-76337071D01*
X117201282Y-76337071D02*
X117177473Y-76241833D01*
X117177473Y-76241833D02*
X117177473Y-76122785D01*
X117177473Y-76122785D02*
X117201282Y-76027547D01*
X117201282Y-76027547D02*
X117225092Y-75979928D01*
X117225092Y-75979928D02*
X117248901Y-75956119D01*
X117248901Y-75956119D02*
X117296520Y-75932309D01*
X117772710Y-75932309D02*
X117820329Y-75932309D01*
X117820329Y-75932309D02*
X117867948Y-75956119D01*
X117867948Y-75956119D02*
X117891758Y-75979928D01*
X117891758Y-75979928D02*
X117915567Y-76027547D01*
X117915567Y-76027547D02*
X117939377Y-76122785D01*
X117939377Y-76122785D02*
X117939377Y-76241833D01*
X117939377Y-76241833D02*
X117915567Y-76337071D01*
X117915567Y-76337071D02*
X117891758Y-76384690D01*
X117891758Y-76384690D02*
X117867948Y-76408500D01*
X117867948Y-76408500D02*
X117820329Y-76432309D01*
X117820329Y-76432309D02*
X117772710Y-76432309D01*
X117772710Y-76432309D02*
X117725091Y-76408500D01*
X117725091Y-76408500D02*
X117701282Y-76384690D01*
X117701282Y-76384690D02*
X117677472Y-76337071D01*
X117677472Y-76337071D02*
X117653663Y-76241833D01*
X117653663Y-76241833D02*
X117653663Y-76122785D01*
X117653663Y-76122785D02*
X117677472Y-76027547D01*
X117677472Y-76027547D02*
X117701282Y-75979928D01*
X117701282Y-75979928D02*
X117725091Y-75956119D01*
X117725091Y-75956119D02*
X117772710Y-75932309D01*
X118129853Y-76289452D02*
X118367948Y-76289452D01*
X118082234Y-76432309D02*
X118248900Y-75932309D01*
X118248900Y-75932309D02*
X118415567Y-76432309D01*
X118582233Y-76241833D02*
X118963186Y-76241833D01*
X119463186Y-76432309D02*
X119177472Y-76432309D01*
X119320329Y-76432309D02*
X119320329Y-75932309D01*
X119320329Y-75932309D02*
X119272710Y-76003738D01*
X119272710Y-76003738D02*
X119225091Y-76051357D01*
X119225091Y-76051357D02*
X119177472Y-76075166D01*
X119653662Y-75979928D02*
X119677471Y-75956119D01*
X119677471Y-75956119D02*
X119725090Y-75932309D01*
X119725090Y-75932309D02*
X119844138Y-75932309D01*
X119844138Y-75932309D02*
X119891757Y-75956119D01*
X119891757Y-75956119D02*
X119915566Y-75979928D01*
X119915566Y-75979928D02*
X119939376Y-76027547D01*
X119939376Y-76027547D02*
X119939376Y-76075166D01*
X119939376Y-76075166D02*
X119915566Y-76146595D01*
X119915566Y-76146595D02*
X119629852Y-76432309D01*
X119629852Y-76432309D02*
X119939376Y-76432309D01*
X68201283Y-76432309D02*
X68201283Y-75932309D01*
X68201283Y-76170404D02*
X68486997Y-76170404D01*
X68486997Y-76432309D02*
X68486997Y-75932309D01*
X68653665Y-75932309D02*
X68820331Y-76432309D01*
X68820331Y-76432309D02*
X68986998Y-75932309D01*
X69439378Y-76384690D02*
X69415569Y-76408500D01*
X69415569Y-76408500D02*
X69344140Y-76432309D01*
X69344140Y-76432309D02*
X69296521Y-76432309D01*
X69296521Y-76432309D02*
X69225093Y-76408500D01*
X69225093Y-76408500D02*
X69177474Y-76360880D01*
X69177474Y-76360880D02*
X69153664Y-76313261D01*
X69153664Y-76313261D02*
X69129855Y-76218023D01*
X69129855Y-76218023D02*
X69129855Y-76146595D01*
X69129855Y-76146595D02*
X69153664Y-76051357D01*
X69153664Y-76051357D02*
X69177474Y-76003738D01*
X69177474Y-76003738D02*
X69225093Y-75956119D01*
X69225093Y-75956119D02*
X69296521Y-75932309D01*
X69296521Y-75932309D02*
X69344140Y-75932309D01*
X69344140Y-75932309D02*
X69415569Y-75956119D01*
X69415569Y-75956119D02*
X69439378Y-75979928D01*
X69867950Y-76098976D02*
X69867950Y-76432309D01*
X69748902Y-75908500D02*
X69629855Y-76265642D01*
X69629855Y-76265642D02*
X69939378Y-76265642D01*
X70082235Y-75932309D02*
X70391759Y-75932309D01*
X70391759Y-75932309D02*
X70225092Y-76122785D01*
X70225092Y-76122785D02*
X70296521Y-76122785D01*
X70296521Y-76122785D02*
X70344140Y-76146595D01*
X70344140Y-76146595D02*
X70367949Y-76170404D01*
X70367949Y-76170404D02*
X70391759Y-76218023D01*
X70391759Y-76218023D02*
X70391759Y-76337071D01*
X70391759Y-76337071D02*
X70367949Y-76384690D01*
X70367949Y-76384690D02*
X70344140Y-76408500D01*
X70344140Y-76408500D02*
X70296521Y-76432309D01*
X70296521Y-76432309D02*
X70153664Y-76432309D01*
X70153664Y-76432309D02*
X70106045Y-76408500D01*
X70106045Y-76408500D02*
X70082235Y-76384690D01*
X70606044Y-76241833D02*
X70986997Y-76241833D01*
X71201283Y-75979928D02*
X71225092Y-75956119D01*
X71225092Y-75956119D02*
X71272711Y-75932309D01*
X71272711Y-75932309D02*
X71391759Y-75932309D01*
X71391759Y-75932309D02*
X71439378Y-75956119D01*
X71439378Y-75956119D02*
X71463187Y-75979928D01*
X71463187Y-75979928D02*
X71486997Y-76027547D01*
X71486997Y-76027547D02*
X71486997Y-76075166D01*
X71486997Y-76075166D02*
X71463187Y-76146595D01*
X71463187Y-76146595D02*
X71177473Y-76432309D01*
X71177473Y-76432309D02*
X71486997Y-76432309D01*
X71796520Y-75932309D02*
X71844139Y-75932309D01*
X71844139Y-75932309D02*
X71891758Y-75956119D01*
X71891758Y-75956119D02*
X71915568Y-75979928D01*
X71915568Y-75979928D02*
X71939377Y-76027547D01*
X71939377Y-76027547D02*
X71963187Y-76122785D01*
X71963187Y-76122785D02*
X71963187Y-76241833D01*
X71963187Y-76241833D02*
X71939377Y-76337071D01*
X71939377Y-76337071D02*
X71915568Y-76384690D01*
X71915568Y-76384690D02*
X71891758Y-76408500D01*
X71891758Y-76408500D02*
X71844139Y-76432309D01*
X71844139Y-76432309D02*
X71796520Y-76432309D01*
X71796520Y-76432309D02*
X71748901Y-76408500D01*
X71748901Y-76408500D02*
X71725092Y-76384690D01*
X71725092Y-76384690D02*
X71701282Y-76337071D01*
X71701282Y-76337071D02*
X71677473Y-76241833D01*
X71677473Y-76241833D02*
X71677473Y-76122785D01*
X71677473Y-76122785D02*
X71701282Y-76027547D01*
X71701282Y-76027547D02*
X71725092Y-75979928D01*
X71725092Y-75979928D02*
X71748901Y-75956119D01*
X71748901Y-75956119D02*
X71796520Y-75932309D01*
X72272710Y-75932309D02*
X72320329Y-75932309D01*
X72320329Y-75932309D02*
X72367948Y-75956119D01*
X72367948Y-75956119D02*
X72391758Y-75979928D01*
X72391758Y-75979928D02*
X72415567Y-76027547D01*
X72415567Y-76027547D02*
X72439377Y-76122785D01*
X72439377Y-76122785D02*
X72439377Y-76241833D01*
X72439377Y-76241833D02*
X72415567Y-76337071D01*
X72415567Y-76337071D02*
X72391758Y-76384690D01*
X72391758Y-76384690D02*
X72367948Y-76408500D01*
X72367948Y-76408500D02*
X72320329Y-76432309D01*
X72320329Y-76432309D02*
X72272710Y-76432309D01*
X72272710Y-76432309D02*
X72225091Y-76408500D01*
X72225091Y-76408500D02*
X72201282Y-76384690D01*
X72201282Y-76384690D02*
X72177472Y-76337071D01*
X72177472Y-76337071D02*
X72153663Y-76241833D01*
X72153663Y-76241833D02*
X72153663Y-76122785D01*
X72153663Y-76122785D02*
X72177472Y-76027547D01*
X72177472Y-76027547D02*
X72201282Y-75979928D01*
X72201282Y-75979928D02*
X72225091Y-75956119D01*
X72225091Y-75956119D02*
X72272710Y-75932309D01*
X72629853Y-76289452D02*
X72867948Y-76289452D01*
X72582234Y-76432309D02*
X72748900Y-75932309D01*
X72748900Y-75932309D02*
X72915567Y-76432309D01*
X73082233Y-76241833D02*
X73463186Y-76241833D01*
X73963186Y-76432309D02*
X73677472Y-76432309D01*
X73820329Y-76432309D02*
X73820329Y-75932309D01*
X73820329Y-75932309D02*
X73772710Y-76003738D01*
X73772710Y-76003738D02*
X73725091Y-76051357D01*
X73725091Y-76051357D02*
X73677472Y-76075166D01*
X74153662Y-75979928D02*
X74177471Y-75956119D01*
X74177471Y-75956119D02*
X74225090Y-75932309D01*
X74225090Y-75932309D02*
X74344138Y-75932309D01*
X74344138Y-75932309D02*
X74391757Y-75956119D01*
X74391757Y-75956119D02*
X74415566Y-75979928D01*
X74415566Y-75979928D02*
X74439376Y-76027547D01*
X74439376Y-76027547D02*
X74439376Y-76075166D01*
X74439376Y-76075166D02*
X74415566Y-76146595D01*
X74415566Y-76146595D02*
X74129852Y-76432309D01*
X74129852Y-76432309D02*
X74439376Y-76432309D01*
D11*
X41166667Y-79050057D02*
X41214286Y-79002438D01*
X41214286Y-79002438D02*
X41309524Y-78954819D01*
X41309524Y-78954819D02*
X41547619Y-78954819D01*
X41547619Y-78954819D02*
X41642857Y-79002438D01*
X41642857Y-79002438D02*
X41690476Y-79050057D01*
X41690476Y-79050057D02*
X41738095Y-79145295D01*
X41738095Y-79145295D02*
X41738095Y-79240533D01*
X41738095Y-79240533D02*
X41690476Y-79383390D01*
X41690476Y-79383390D02*
X41119048Y-79954819D01*
X41119048Y-79954819D02*
X41738095Y-79954819D01*
X42595238Y-79288152D02*
X42595238Y-79954819D01*
X42357143Y-78907200D02*
X42119048Y-79621485D01*
X42119048Y-79621485D02*
X42738095Y-79621485D01*
X42976191Y-78954819D02*
X43309524Y-79954819D01*
X43309524Y-79954819D02*
X43642857Y-78954819D01*
X44738096Y-79954819D02*
X44738096Y-78954819D01*
X45214286Y-79954819D02*
X45214286Y-78954819D01*
X45214286Y-78954819D02*
X45785714Y-79954819D01*
X45785714Y-79954819D02*
X45785714Y-78954819D01*
X104357142Y-67954819D02*
X104023809Y-67478628D01*
X103785714Y-67954819D02*
X103785714Y-66954819D01*
X103785714Y-66954819D02*
X104166666Y-66954819D01*
X104166666Y-66954819D02*
X104261904Y-67002438D01*
X104261904Y-67002438D02*
X104309523Y-67050057D01*
X104309523Y-67050057D02*
X104357142Y-67145295D01*
X104357142Y-67145295D02*
X104357142Y-67288152D01*
X104357142Y-67288152D02*
X104309523Y-67383390D01*
X104309523Y-67383390D02*
X104261904Y-67431009D01*
X104261904Y-67431009D02*
X104166666Y-67478628D01*
X104166666Y-67478628D02*
X103785714Y-67478628D01*
X105309523Y-67954819D02*
X104738095Y-67954819D01*
X105023809Y-67954819D02*
X105023809Y-66954819D01*
X105023809Y-66954819D02*
X104928571Y-67097676D01*
X104928571Y-67097676D02*
X104833333Y-67192914D01*
X104833333Y-67192914D02*
X104738095Y-67240533D01*
X105690476Y-67050057D02*
X105738095Y-67002438D01*
X105738095Y-67002438D02*
X105833333Y-66954819D01*
X105833333Y-66954819D02*
X106071428Y-66954819D01*
X106071428Y-66954819D02*
X106166666Y-67002438D01*
X106166666Y-67002438D02*
X106214285Y-67050057D01*
X106214285Y-67050057D02*
X106261904Y-67145295D01*
X106261904Y-67145295D02*
X106261904Y-67240533D01*
X106261904Y-67240533D02*
X106214285Y-67383390D01*
X106214285Y-67383390D02*
X105642857Y-67954819D01*
X105642857Y-67954819D02*
X106261904Y-67954819D01*
X102166666Y-68788152D02*
X102166666Y-69454819D01*
X101928571Y-68407200D02*
X101690476Y-69121485D01*
X101690476Y-69121485D02*
X102309523Y-69121485D01*
X102595238Y-68454819D02*
X103261904Y-68454819D01*
X103261904Y-68454819D02*
X102833333Y-69454819D01*
X104214285Y-69454819D02*
X103880952Y-68978628D01*
X103642857Y-69454819D02*
X103642857Y-68454819D01*
X103642857Y-68454819D02*
X104023809Y-68454819D01*
X104023809Y-68454819D02*
X104119047Y-68502438D01*
X104119047Y-68502438D02*
X104166666Y-68550057D01*
X104166666Y-68550057D02*
X104214285Y-68645295D01*
X104214285Y-68645295D02*
X104214285Y-68788152D01*
X104214285Y-68788152D02*
X104166666Y-68883390D01*
X104166666Y-68883390D02*
X104119047Y-68931009D01*
X104119047Y-68931009D02*
X104023809Y-68978628D01*
X104023809Y-68978628D02*
X103642857Y-68978628D01*
X105119047Y-68454819D02*
X104642857Y-68454819D01*
X104642857Y-68454819D02*
X104595238Y-68931009D01*
X104595238Y-68931009D02*
X104642857Y-68883390D01*
X104642857Y-68883390D02*
X104738095Y-68835771D01*
X104738095Y-68835771D02*
X104976190Y-68835771D01*
X104976190Y-68835771D02*
X105071428Y-68883390D01*
X105071428Y-68883390D02*
X105119047Y-68931009D01*
X105119047Y-68931009D02*
X105166666Y-69026247D01*
X105166666Y-69026247D02*
X105166666Y-69264342D01*
X105166666Y-69264342D02*
X105119047Y-69359580D01*
X105119047Y-69359580D02*
X105071428Y-69407200D01*
X105071428Y-69407200D02*
X104976190Y-69454819D01*
X104976190Y-69454819D02*
X104738095Y-69454819D01*
X104738095Y-69454819D02*
X104642857Y-69407200D01*
X104642857Y-69407200D02*
X104595238Y-69359580D01*
X105500000Y-68454819D02*
X105738095Y-69454819D01*
X105738095Y-69454819D02*
X105928571Y-68740533D01*
X105928571Y-68740533D02*
X106119047Y-69454819D01*
X106119047Y-69454819D02*
X106357143Y-68454819D01*
X79333333Y-67954819D02*
X79000000Y-67478628D01*
X78761905Y-67954819D02*
X78761905Y-66954819D01*
X78761905Y-66954819D02*
X79142857Y-66954819D01*
X79142857Y-66954819D02*
X79238095Y-67002438D01*
X79238095Y-67002438D02*
X79285714Y-67050057D01*
X79285714Y-67050057D02*
X79333333Y-67145295D01*
X79333333Y-67145295D02*
X79333333Y-67288152D01*
X79333333Y-67288152D02*
X79285714Y-67383390D01*
X79285714Y-67383390D02*
X79238095Y-67431009D01*
X79238095Y-67431009D02*
X79142857Y-67478628D01*
X79142857Y-67478628D02*
X78761905Y-67478628D01*
X79809524Y-67954819D02*
X80000000Y-67954819D01*
X80000000Y-67954819D02*
X80095238Y-67907200D01*
X80095238Y-67907200D02*
X80142857Y-67859580D01*
X80142857Y-67859580D02*
X80238095Y-67716723D01*
X80238095Y-67716723D02*
X80285714Y-67526247D01*
X80285714Y-67526247D02*
X80285714Y-67145295D01*
X80285714Y-67145295D02*
X80238095Y-67050057D01*
X80238095Y-67050057D02*
X80190476Y-67002438D01*
X80190476Y-67002438D02*
X80095238Y-66954819D01*
X80095238Y-66954819D02*
X79904762Y-66954819D01*
X79904762Y-66954819D02*
X79809524Y-67002438D01*
X79809524Y-67002438D02*
X79761905Y-67050057D01*
X79761905Y-67050057D02*
X79714286Y-67145295D01*
X79714286Y-67145295D02*
X79714286Y-67383390D01*
X79714286Y-67383390D02*
X79761905Y-67478628D01*
X79761905Y-67478628D02*
X79809524Y-67526247D01*
X79809524Y-67526247D02*
X79904762Y-67573866D01*
X79904762Y-67573866D02*
X80095238Y-67573866D01*
X80095238Y-67573866D02*
X80190476Y-67526247D01*
X80190476Y-67526247D02*
X80238095Y-67478628D01*
X80238095Y-67478628D02*
X80285714Y-67383390D01*
X76166666Y-68788152D02*
X76166666Y-69454819D01*
X75928571Y-68407200D02*
X75690476Y-69121485D01*
X75690476Y-69121485D02*
X76309523Y-69121485D01*
X76595238Y-68454819D02*
X77261904Y-68454819D01*
X77261904Y-68454819D02*
X76833333Y-69454819D01*
X78214285Y-69454819D02*
X77880952Y-68978628D01*
X77642857Y-69454819D02*
X77642857Y-68454819D01*
X77642857Y-68454819D02*
X78023809Y-68454819D01*
X78023809Y-68454819D02*
X78119047Y-68502438D01*
X78119047Y-68502438D02*
X78166666Y-68550057D01*
X78166666Y-68550057D02*
X78214285Y-68645295D01*
X78214285Y-68645295D02*
X78214285Y-68788152D01*
X78214285Y-68788152D02*
X78166666Y-68883390D01*
X78166666Y-68883390D02*
X78119047Y-68931009D01*
X78119047Y-68931009D02*
X78023809Y-68978628D01*
X78023809Y-68978628D02*
X77642857Y-68978628D01*
X79119047Y-68454819D02*
X78642857Y-68454819D01*
X78642857Y-68454819D02*
X78595238Y-68931009D01*
X78595238Y-68931009D02*
X78642857Y-68883390D01*
X78642857Y-68883390D02*
X78738095Y-68835771D01*
X78738095Y-68835771D02*
X78976190Y-68835771D01*
X78976190Y-68835771D02*
X79071428Y-68883390D01*
X79071428Y-68883390D02*
X79119047Y-68931009D01*
X79119047Y-68931009D02*
X79166666Y-69026247D01*
X79166666Y-69026247D02*
X79166666Y-69264342D01*
X79166666Y-69264342D02*
X79119047Y-69359580D01*
X79119047Y-69359580D02*
X79071428Y-69407200D01*
X79071428Y-69407200D02*
X78976190Y-69454819D01*
X78976190Y-69454819D02*
X78738095Y-69454819D01*
X78738095Y-69454819D02*
X78642857Y-69407200D01*
X78642857Y-69407200D02*
X78595238Y-69359580D01*
X79500000Y-68454819D02*
X79738095Y-69454819D01*
X79738095Y-69454819D02*
X79928571Y-68740533D01*
X79928571Y-68740533D02*
X80119047Y-69454819D01*
X80119047Y-69454819D02*
X80357143Y-68454819D01*
X98916666Y-11904819D02*
X98916666Y-12619104D01*
X98916666Y-12619104D02*
X98869047Y-12761961D01*
X98869047Y-12761961D02*
X98773809Y-12857200D01*
X98773809Y-12857200D02*
X98630952Y-12904819D01*
X98630952Y-12904819D02*
X98535714Y-12904819D01*
X99916666Y-12904819D02*
X99345238Y-12904819D01*
X99630952Y-12904819D02*
X99630952Y-11904819D01*
X99630952Y-11904819D02*
X99535714Y-12047676D01*
X99535714Y-12047676D02*
X99440476Y-12142914D01*
X99440476Y-12142914D02*
X99345238Y-12190533D01*
X116454819Y-27761904D02*
X117264342Y-27761904D01*
X117264342Y-27761904D02*
X117359580Y-27714285D01*
X117359580Y-27714285D02*
X117407200Y-27666666D01*
X117407200Y-27666666D02*
X117454819Y-27571428D01*
X117454819Y-27571428D02*
X117454819Y-27380952D01*
X117454819Y-27380952D02*
X117407200Y-27285714D01*
X117407200Y-27285714D02*
X117359580Y-27238095D01*
X117359580Y-27238095D02*
X117264342Y-27190476D01*
X117264342Y-27190476D02*
X116454819Y-27190476D01*
X116454819Y-26285714D02*
X116454819Y-26476190D01*
X116454819Y-26476190D02*
X116502438Y-26571428D01*
X116502438Y-26571428D02*
X116550057Y-26619047D01*
X116550057Y-26619047D02*
X116692914Y-26714285D01*
X116692914Y-26714285D02*
X116883390Y-26761904D01*
X116883390Y-26761904D02*
X117264342Y-26761904D01*
X117264342Y-26761904D02*
X117359580Y-26714285D01*
X117359580Y-26714285D02*
X117407200Y-26666666D01*
X117407200Y-26666666D02*
X117454819Y-26571428D01*
X117454819Y-26571428D02*
X117454819Y-26380952D01*
X117454819Y-26380952D02*
X117407200Y-26285714D01*
X117407200Y-26285714D02*
X117359580Y-26238095D01*
X117359580Y-26238095D02*
X117264342Y-26190476D01*
X117264342Y-26190476D02*
X117026247Y-26190476D01*
X117026247Y-26190476D02*
X116931009Y-26238095D01*
X116931009Y-26238095D02*
X116883390Y-26285714D01*
X116883390Y-26285714D02*
X116835771Y-26380952D01*
X116835771Y-26380952D02*
X116835771Y-26571428D01*
X116835771Y-26571428D02*
X116883390Y-26666666D01*
X116883390Y-26666666D02*
X116931009Y-26714285D01*
X116931009Y-26714285D02*
X117026247Y-26761904D01*
X110454819Y-27761904D02*
X111264342Y-27761904D01*
X111264342Y-27761904D02*
X111359580Y-27714285D01*
X111359580Y-27714285D02*
X111407200Y-27666666D01*
X111407200Y-27666666D02*
X111454819Y-27571428D01*
X111454819Y-27571428D02*
X111454819Y-27380952D01*
X111454819Y-27380952D02*
X111407200Y-27285714D01*
X111407200Y-27285714D02*
X111359580Y-27238095D01*
X111359580Y-27238095D02*
X111264342Y-27190476D01*
X111264342Y-27190476D02*
X110454819Y-27190476D01*
X110454819Y-26238095D02*
X110454819Y-26714285D01*
X110454819Y-26714285D02*
X110931009Y-26761904D01*
X110931009Y-26761904D02*
X110883390Y-26714285D01*
X110883390Y-26714285D02*
X110835771Y-26619047D01*
X110835771Y-26619047D02*
X110835771Y-26380952D01*
X110835771Y-26380952D02*
X110883390Y-26285714D01*
X110883390Y-26285714D02*
X110931009Y-26238095D01*
X110931009Y-26238095D02*
X111026247Y-26190476D01*
X111026247Y-26190476D02*
X111264342Y-26190476D01*
X111264342Y-26190476D02*
X111359580Y-26238095D01*
X111359580Y-26238095D02*
X111407200Y-26285714D01*
X111407200Y-26285714D02*
X111454819Y-26380952D01*
X111454819Y-26380952D02*
X111454819Y-26619047D01*
X111454819Y-26619047D02*
X111407200Y-26714285D01*
X111407200Y-26714285D02*
X111359580Y-26761904D01*
X114454819Y-38738094D02*
X113454819Y-38738094D01*
X113454819Y-38738094D02*
X113454819Y-38499999D01*
X113454819Y-38499999D02*
X113502438Y-38357142D01*
X113502438Y-38357142D02*
X113597676Y-38261904D01*
X113597676Y-38261904D02*
X113692914Y-38214285D01*
X113692914Y-38214285D02*
X113883390Y-38166666D01*
X113883390Y-38166666D02*
X114026247Y-38166666D01*
X114026247Y-38166666D02*
X114216723Y-38214285D01*
X114216723Y-38214285D02*
X114311961Y-38261904D01*
X114311961Y-38261904D02*
X114407200Y-38357142D01*
X114407200Y-38357142D02*
X114454819Y-38499999D01*
X114454819Y-38499999D02*
X114454819Y-38738094D01*
X114454819Y-37690475D02*
X114454819Y-37499999D01*
X114454819Y-37499999D02*
X114407200Y-37404761D01*
X114407200Y-37404761D02*
X114359580Y-37357142D01*
X114359580Y-37357142D02*
X114216723Y-37261904D01*
X114216723Y-37261904D02*
X114026247Y-37214285D01*
X114026247Y-37214285D02*
X113645295Y-37214285D01*
X113645295Y-37214285D02*
X113550057Y-37261904D01*
X113550057Y-37261904D02*
X113502438Y-37309523D01*
X113502438Y-37309523D02*
X113454819Y-37404761D01*
X113454819Y-37404761D02*
X113454819Y-37595237D01*
X113454819Y-37595237D02*
X113502438Y-37690475D01*
X113502438Y-37690475D02*
X113550057Y-37738094D01*
X113550057Y-37738094D02*
X113645295Y-37785713D01*
X113645295Y-37785713D02*
X113883390Y-37785713D01*
X113883390Y-37785713D02*
X113978628Y-37738094D01*
X113978628Y-37738094D02*
X114026247Y-37690475D01*
X114026247Y-37690475D02*
X114073866Y-37595237D01*
X114073866Y-37595237D02*
X114073866Y-37404761D01*
X114073866Y-37404761D02*
X114026247Y-37309523D01*
X114026247Y-37309523D02*
X113978628Y-37261904D01*
X113978628Y-37261904D02*
X113883390Y-37214285D01*
X108454819Y-38738094D02*
X107454819Y-38738094D01*
X107454819Y-38738094D02*
X107454819Y-38499999D01*
X107454819Y-38499999D02*
X107502438Y-38357142D01*
X107502438Y-38357142D02*
X107597676Y-38261904D01*
X107597676Y-38261904D02*
X107692914Y-38214285D01*
X107692914Y-38214285D02*
X107883390Y-38166666D01*
X107883390Y-38166666D02*
X108026247Y-38166666D01*
X108026247Y-38166666D02*
X108216723Y-38214285D01*
X108216723Y-38214285D02*
X108311961Y-38261904D01*
X108311961Y-38261904D02*
X108407200Y-38357142D01*
X108407200Y-38357142D02*
X108454819Y-38499999D01*
X108454819Y-38499999D02*
X108454819Y-38738094D01*
X107883390Y-37595237D02*
X107835771Y-37690475D01*
X107835771Y-37690475D02*
X107788152Y-37738094D01*
X107788152Y-37738094D02*
X107692914Y-37785713D01*
X107692914Y-37785713D02*
X107645295Y-37785713D01*
X107645295Y-37785713D02*
X107550057Y-37738094D01*
X107550057Y-37738094D02*
X107502438Y-37690475D01*
X107502438Y-37690475D02*
X107454819Y-37595237D01*
X107454819Y-37595237D02*
X107454819Y-37404761D01*
X107454819Y-37404761D02*
X107502438Y-37309523D01*
X107502438Y-37309523D02*
X107550057Y-37261904D01*
X107550057Y-37261904D02*
X107645295Y-37214285D01*
X107645295Y-37214285D02*
X107692914Y-37214285D01*
X107692914Y-37214285D02*
X107788152Y-37261904D01*
X107788152Y-37261904D02*
X107835771Y-37309523D01*
X107835771Y-37309523D02*
X107883390Y-37404761D01*
X107883390Y-37404761D02*
X107883390Y-37595237D01*
X107883390Y-37595237D02*
X107931009Y-37690475D01*
X107931009Y-37690475D02*
X107978628Y-37738094D01*
X107978628Y-37738094D02*
X108073866Y-37785713D01*
X108073866Y-37785713D02*
X108264342Y-37785713D01*
X108264342Y-37785713D02*
X108359580Y-37738094D01*
X108359580Y-37738094D02*
X108407200Y-37690475D01*
X108407200Y-37690475D02*
X108454819Y-37595237D01*
X108454819Y-37595237D02*
X108454819Y-37404761D01*
X108454819Y-37404761D02*
X108407200Y-37309523D01*
X108407200Y-37309523D02*
X108359580Y-37261904D01*
X108359580Y-37261904D02*
X108264342Y-37214285D01*
X108264342Y-37214285D02*
X108073866Y-37214285D01*
X108073866Y-37214285D02*
X107978628Y-37261904D01*
X107978628Y-37261904D02*
X107931009Y-37309523D01*
X107931009Y-37309523D02*
X107883390Y-37404761D01*
X77333333Y-39859580D02*
X77285714Y-39907200D01*
X77285714Y-39907200D02*
X77142857Y-39954819D01*
X77142857Y-39954819D02*
X77047619Y-39954819D01*
X77047619Y-39954819D02*
X76904762Y-39907200D01*
X76904762Y-39907200D02*
X76809524Y-39811961D01*
X76809524Y-39811961D02*
X76761905Y-39716723D01*
X76761905Y-39716723D02*
X76714286Y-39526247D01*
X76714286Y-39526247D02*
X76714286Y-39383390D01*
X76714286Y-39383390D02*
X76761905Y-39192914D01*
X76761905Y-39192914D02*
X76809524Y-39097676D01*
X76809524Y-39097676D02*
X76904762Y-39002438D01*
X76904762Y-39002438D02*
X77047619Y-38954819D01*
X77047619Y-38954819D02*
X77142857Y-38954819D01*
X77142857Y-38954819D02*
X77285714Y-39002438D01*
X77285714Y-39002438D02*
X77333333Y-39050057D01*
X77666667Y-38954819D02*
X78285714Y-38954819D01*
X78285714Y-38954819D02*
X77952381Y-39335771D01*
X77952381Y-39335771D02*
X78095238Y-39335771D01*
X78095238Y-39335771D02*
X78190476Y-39383390D01*
X78190476Y-39383390D02*
X78238095Y-39431009D01*
X78238095Y-39431009D02*
X78285714Y-39526247D01*
X78285714Y-39526247D02*
X78285714Y-39764342D01*
X78285714Y-39764342D02*
X78238095Y-39859580D01*
X78238095Y-39859580D02*
X78190476Y-39907200D01*
X78190476Y-39907200D02*
X78095238Y-39954819D01*
X78095238Y-39954819D02*
X77809524Y-39954819D01*
X77809524Y-39954819D02*
X77714286Y-39907200D01*
X77714286Y-39907200D02*
X77666667Y-39859580D01*
X57738095Y-13454819D02*
X57738095Y-14264342D01*
X57738095Y-14264342D02*
X57785714Y-14359580D01*
X57785714Y-14359580D02*
X57833333Y-14407200D01*
X57833333Y-14407200D02*
X57928571Y-14454819D01*
X57928571Y-14454819D02*
X58119047Y-14454819D01*
X58119047Y-14454819D02*
X58214285Y-14407200D01*
X58214285Y-14407200D02*
X58261904Y-14359580D01*
X58261904Y-14359580D02*
X58309523Y-14264342D01*
X58309523Y-14264342D02*
X58309523Y-13454819D01*
X59214285Y-13788152D02*
X59214285Y-14454819D01*
X58976190Y-13407200D02*
X58738095Y-14121485D01*
X58738095Y-14121485D02*
X59357142Y-14121485D01*
X84833333Y-14454819D02*
X84357143Y-14454819D01*
X84357143Y-14454819D02*
X84357143Y-13454819D01*
X85690476Y-14454819D02*
X85119048Y-14454819D01*
X85404762Y-14454819D02*
X85404762Y-13454819D01*
X85404762Y-13454819D02*
X85309524Y-13597676D01*
X85309524Y-13597676D02*
X85214286Y-13692914D01*
X85214286Y-13692914D02*
X85119048Y-13740533D01*
X70761905Y-39454819D02*
X70761905Y-38454819D01*
X70761905Y-38454819D02*
X71000000Y-38454819D01*
X71000000Y-38454819D02*
X71142857Y-38502438D01*
X71142857Y-38502438D02*
X71238095Y-38597676D01*
X71238095Y-38597676D02*
X71285714Y-38692914D01*
X71285714Y-38692914D02*
X71333333Y-38883390D01*
X71333333Y-38883390D02*
X71333333Y-39026247D01*
X71333333Y-39026247D02*
X71285714Y-39216723D01*
X71285714Y-39216723D02*
X71238095Y-39311961D01*
X71238095Y-39311961D02*
X71142857Y-39407200D01*
X71142857Y-39407200D02*
X71000000Y-39454819D01*
X71000000Y-39454819D02*
X70761905Y-39454819D01*
X71666667Y-38454819D02*
X72333333Y-38454819D01*
X72333333Y-38454819D02*
X71904762Y-39454819D01*
X50333333Y-14859580D02*
X50285714Y-14907200D01*
X50285714Y-14907200D02*
X50142857Y-14954819D01*
X50142857Y-14954819D02*
X50047619Y-14954819D01*
X50047619Y-14954819D02*
X49904762Y-14907200D01*
X49904762Y-14907200D02*
X49809524Y-14811961D01*
X49809524Y-14811961D02*
X49761905Y-14716723D01*
X49761905Y-14716723D02*
X49714286Y-14526247D01*
X49714286Y-14526247D02*
X49714286Y-14383390D01*
X49714286Y-14383390D02*
X49761905Y-14192914D01*
X49761905Y-14192914D02*
X49809524Y-14097676D01*
X49809524Y-14097676D02*
X49904762Y-14002438D01*
X49904762Y-14002438D02*
X50047619Y-13954819D01*
X50047619Y-13954819D02*
X50142857Y-13954819D01*
X50142857Y-13954819D02*
X50285714Y-14002438D01*
X50285714Y-14002438D02*
X50333333Y-14050057D01*
X50714286Y-14050057D02*
X50761905Y-14002438D01*
X50761905Y-14002438D02*
X50857143Y-13954819D01*
X50857143Y-13954819D02*
X51095238Y-13954819D01*
X51095238Y-13954819D02*
X51190476Y-14002438D01*
X51190476Y-14002438D02*
X51238095Y-14050057D01*
X51238095Y-14050057D02*
X51285714Y-14145295D01*
X51285714Y-14145295D02*
X51285714Y-14240533D01*
X51285714Y-14240533D02*
X51238095Y-14383390D01*
X51238095Y-14383390D02*
X50666667Y-14954819D01*
X50666667Y-14954819D02*
X51285714Y-14954819D01*
X55833333Y-27859580D02*
X55785714Y-27907200D01*
X55785714Y-27907200D02*
X55642857Y-27954819D01*
X55642857Y-27954819D02*
X55547619Y-27954819D01*
X55547619Y-27954819D02*
X55404762Y-27907200D01*
X55404762Y-27907200D02*
X55309524Y-27811961D01*
X55309524Y-27811961D02*
X55261905Y-27716723D01*
X55261905Y-27716723D02*
X55214286Y-27526247D01*
X55214286Y-27526247D02*
X55214286Y-27383390D01*
X55214286Y-27383390D02*
X55261905Y-27192914D01*
X55261905Y-27192914D02*
X55309524Y-27097676D01*
X55309524Y-27097676D02*
X55404762Y-27002438D01*
X55404762Y-27002438D02*
X55547619Y-26954819D01*
X55547619Y-26954819D02*
X55642857Y-26954819D01*
X55642857Y-26954819D02*
X55785714Y-27002438D01*
X55785714Y-27002438D02*
X55833333Y-27050057D01*
X56785714Y-27954819D02*
X56214286Y-27954819D01*
X56500000Y-27954819D02*
X56500000Y-26954819D01*
X56500000Y-26954819D02*
X56404762Y-27097676D01*
X56404762Y-27097676D02*
X56309524Y-27192914D01*
X56309524Y-27192914D02*
X56214286Y-27240533D01*
X104454819Y-27761904D02*
X105264342Y-27761904D01*
X105264342Y-27761904D02*
X105359580Y-27714285D01*
X105359580Y-27714285D02*
X105407200Y-27666666D01*
X105407200Y-27666666D02*
X105454819Y-27571428D01*
X105454819Y-27571428D02*
X105454819Y-27380952D01*
X105454819Y-27380952D02*
X105407200Y-27285714D01*
X105407200Y-27285714D02*
X105359580Y-27238095D01*
X105359580Y-27238095D02*
X105264342Y-27190476D01*
X105264342Y-27190476D02*
X104454819Y-27190476D01*
X104454819Y-26809523D02*
X104454819Y-26190476D01*
X104454819Y-26190476D02*
X104835771Y-26523809D01*
X104835771Y-26523809D02*
X104835771Y-26380952D01*
X104835771Y-26380952D02*
X104883390Y-26285714D01*
X104883390Y-26285714D02*
X104931009Y-26238095D01*
X104931009Y-26238095D02*
X105026247Y-26190476D01*
X105026247Y-26190476D02*
X105264342Y-26190476D01*
X105264342Y-26190476D02*
X105359580Y-26238095D01*
X105359580Y-26238095D02*
X105407200Y-26285714D01*
X105407200Y-26285714D02*
X105454819Y-26380952D01*
X105454819Y-26380952D02*
X105454819Y-26666666D01*
X105454819Y-26666666D02*
X105407200Y-26761904D01*
X105407200Y-26761904D02*
X105359580Y-26809523D01*
X98454819Y-27761904D02*
X99264342Y-27761904D01*
X99264342Y-27761904D02*
X99359580Y-27714285D01*
X99359580Y-27714285D02*
X99407200Y-27666666D01*
X99407200Y-27666666D02*
X99454819Y-27571428D01*
X99454819Y-27571428D02*
X99454819Y-27380952D01*
X99454819Y-27380952D02*
X99407200Y-27285714D01*
X99407200Y-27285714D02*
X99359580Y-27238095D01*
X99359580Y-27238095D02*
X99264342Y-27190476D01*
X99264342Y-27190476D02*
X98454819Y-27190476D01*
X98550057Y-26761904D02*
X98502438Y-26714285D01*
X98502438Y-26714285D02*
X98454819Y-26619047D01*
X98454819Y-26619047D02*
X98454819Y-26380952D01*
X98454819Y-26380952D02*
X98502438Y-26285714D01*
X98502438Y-26285714D02*
X98550057Y-26238095D01*
X98550057Y-26238095D02*
X98645295Y-26190476D01*
X98645295Y-26190476D02*
X98740533Y-26190476D01*
X98740533Y-26190476D02*
X98883390Y-26238095D01*
X98883390Y-26238095D02*
X99454819Y-26809523D01*
X99454819Y-26809523D02*
X99454819Y-26190476D01*
X45809524Y-67954819D02*
X45809524Y-66954819D01*
X45809524Y-66954819D02*
X46047619Y-66954819D01*
X46047619Y-66954819D02*
X46190476Y-67002438D01*
X46190476Y-67002438D02*
X46285714Y-67097676D01*
X46285714Y-67097676D02*
X46333333Y-67192914D01*
X46333333Y-67192914D02*
X46380952Y-67383390D01*
X46380952Y-67383390D02*
X46380952Y-67526247D01*
X46380952Y-67526247D02*
X46333333Y-67716723D01*
X46333333Y-67716723D02*
X46285714Y-67811961D01*
X46285714Y-67811961D02*
X46190476Y-67907200D01*
X46190476Y-67907200D02*
X46047619Y-67954819D01*
X46047619Y-67954819D02*
X45809524Y-67954819D01*
X47380952Y-67859580D02*
X47333333Y-67907200D01*
X47333333Y-67907200D02*
X47190476Y-67954819D01*
X47190476Y-67954819D02*
X47095238Y-67954819D01*
X47095238Y-67954819D02*
X46952381Y-67907200D01*
X46952381Y-67907200D02*
X46857143Y-67811961D01*
X46857143Y-67811961D02*
X46809524Y-67716723D01*
X46809524Y-67716723D02*
X46761905Y-67526247D01*
X46761905Y-67526247D02*
X46761905Y-67383390D01*
X46761905Y-67383390D02*
X46809524Y-67192914D01*
X46809524Y-67192914D02*
X46857143Y-67097676D01*
X46857143Y-67097676D02*
X46952381Y-67002438D01*
X46952381Y-67002438D02*
X47095238Y-66954819D01*
X47095238Y-66954819D02*
X47190476Y-66954819D01*
X47190476Y-66954819D02*
X47333333Y-67002438D01*
X47333333Y-67002438D02*
X47380952Y-67050057D01*
X47666667Y-66954819D02*
X48000000Y-67954819D01*
X48000000Y-67954819D02*
X48333333Y-66954819D01*
X46797319Y-43482500D02*
X45797319Y-43482500D01*
X46130652Y-43006310D02*
X46797319Y-43006310D01*
X46225890Y-43006310D02*
X46178271Y-42958691D01*
X46178271Y-42958691D02*
X46130652Y-42863453D01*
X46130652Y-42863453D02*
X46130652Y-42720596D01*
X46130652Y-42720596D02*
X46178271Y-42625358D01*
X46178271Y-42625358D02*
X46273509Y-42577739D01*
X46273509Y-42577739D02*
X46797319Y-42577739D01*
X46130652Y-42244405D02*
X46130652Y-41863453D01*
X45797319Y-42101548D02*
X46654461Y-42101548D01*
X46654461Y-42101548D02*
X46749700Y-42053929D01*
X46749700Y-42053929D02*
X46797319Y-41958691D01*
X46797319Y-41958691D02*
X46797319Y-41863453D01*
X46749700Y-41149167D02*
X46797319Y-41244405D01*
X46797319Y-41244405D02*
X46797319Y-41434881D01*
X46797319Y-41434881D02*
X46749700Y-41530119D01*
X46749700Y-41530119D02*
X46654461Y-41577738D01*
X46654461Y-41577738D02*
X46273509Y-41577738D01*
X46273509Y-41577738D02*
X46178271Y-41530119D01*
X46178271Y-41530119D02*
X46130652Y-41434881D01*
X46130652Y-41434881D02*
X46130652Y-41244405D01*
X46130652Y-41244405D02*
X46178271Y-41149167D01*
X46178271Y-41149167D02*
X46273509Y-41101548D01*
X46273509Y-41101548D02*
X46368747Y-41101548D01*
X46368747Y-41101548D02*
X46463985Y-41577738D01*
X46797319Y-40672976D02*
X46130652Y-40672976D01*
X46321128Y-40672976D02*
X46225890Y-40625357D01*
X46225890Y-40625357D02*
X46178271Y-40577738D01*
X46178271Y-40577738D02*
X46130652Y-40482500D01*
X46130652Y-40482500D02*
X46130652Y-40387262D01*
X46130652Y-40196785D02*
X46130652Y-39815833D01*
X45797319Y-40053928D02*
X46654461Y-40053928D01*
X46654461Y-40053928D02*
X46749700Y-40006309D01*
X46749700Y-40006309D02*
X46797319Y-39911071D01*
X46797319Y-39911071D02*
X46797319Y-39815833D01*
X46797319Y-39482499D02*
X46130652Y-39482499D01*
X45797319Y-39482499D02*
X45844938Y-39530118D01*
X45844938Y-39530118D02*
X45892557Y-39482499D01*
X45892557Y-39482499D02*
X45844938Y-39434880D01*
X45844938Y-39434880D02*
X45797319Y-39482499D01*
X45797319Y-39482499D02*
X45892557Y-39482499D01*
X46797319Y-38577738D02*
X46273509Y-38577738D01*
X46273509Y-38577738D02*
X46178271Y-38625357D01*
X46178271Y-38625357D02*
X46130652Y-38720595D01*
X46130652Y-38720595D02*
X46130652Y-38911071D01*
X46130652Y-38911071D02*
X46178271Y-39006309D01*
X46749700Y-38577738D02*
X46797319Y-38672976D01*
X46797319Y-38672976D02*
X46797319Y-38911071D01*
X46797319Y-38911071D02*
X46749700Y-39006309D01*
X46749700Y-39006309D02*
X46654461Y-39053928D01*
X46654461Y-39053928D02*
X46559223Y-39053928D01*
X46559223Y-39053928D02*
X46463985Y-39006309D01*
X46463985Y-39006309D02*
X46416366Y-38911071D01*
X46416366Y-38911071D02*
X46416366Y-38672976D01*
X46416366Y-38672976D02*
X46368747Y-38577738D01*
X46797319Y-37958690D02*
X46749700Y-38053928D01*
X46749700Y-38053928D02*
X46654461Y-38101547D01*
X46654461Y-38101547D02*
X45797319Y-38101547D01*
X46749700Y-36863451D02*
X46797319Y-36720594D01*
X46797319Y-36720594D02*
X46797319Y-36482499D01*
X46797319Y-36482499D02*
X46749700Y-36387261D01*
X46749700Y-36387261D02*
X46702080Y-36339642D01*
X46702080Y-36339642D02*
X46606842Y-36292023D01*
X46606842Y-36292023D02*
X46511604Y-36292023D01*
X46511604Y-36292023D02*
X46416366Y-36339642D01*
X46416366Y-36339642D02*
X46368747Y-36387261D01*
X46368747Y-36387261D02*
X46321128Y-36482499D01*
X46321128Y-36482499D02*
X46273509Y-36672975D01*
X46273509Y-36672975D02*
X46225890Y-36768213D01*
X46225890Y-36768213D02*
X46178271Y-36815832D01*
X46178271Y-36815832D02*
X46083033Y-36863451D01*
X46083033Y-36863451D02*
X45987795Y-36863451D01*
X45987795Y-36863451D02*
X45892557Y-36815832D01*
X45892557Y-36815832D02*
X45844938Y-36768213D01*
X45844938Y-36768213D02*
X45797319Y-36672975D01*
X45797319Y-36672975D02*
X45797319Y-36434880D01*
X45797319Y-36434880D02*
X45844938Y-36292023D01*
X46130652Y-35958689D02*
X46797319Y-35768213D01*
X46797319Y-35768213D02*
X46321128Y-35577737D01*
X46321128Y-35577737D02*
X46797319Y-35387261D01*
X46797319Y-35387261D02*
X46130652Y-35196785D01*
X46797319Y-34815832D02*
X46130652Y-34815832D01*
X45797319Y-34815832D02*
X45844938Y-34863451D01*
X45844938Y-34863451D02*
X45892557Y-34815832D01*
X45892557Y-34815832D02*
X45844938Y-34768213D01*
X45844938Y-34768213D02*
X45797319Y-34815832D01*
X45797319Y-34815832D02*
X45892557Y-34815832D01*
X46130652Y-34482499D02*
X46130652Y-34101547D01*
X45797319Y-34339642D02*
X46654461Y-34339642D01*
X46654461Y-34339642D02*
X46749700Y-34292023D01*
X46749700Y-34292023D02*
X46797319Y-34196785D01*
X46797319Y-34196785D02*
X46797319Y-34101547D01*
X46749700Y-33339642D02*
X46797319Y-33434880D01*
X46797319Y-33434880D02*
X46797319Y-33625356D01*
X46797319Y-33625356D02*
X46749700Y-33720594D01*
X46749700Y-33720594D02*
X46702080Y-33768213D01*
X46702080Y-33768213D02*
X46606842Y-33815832D01*
X46606842Y-33815832D02*
X46321128Y-33815832D01*
X46321128Y-33815832D02*
X46225890Y-33768213D01*
X46225890Y-33768213D02*
X46178271Y-33720594D01*
X46178271Y-33720594D02*
X46130652Y-33625356D01*
X46130652Y-33625356D02*
X46130652Y-33434880D01*
X46130652Y-33434880D02*
X46178271Y-33339642D01*
X46797319Y-32911070D02*
X45797319Y-32911070D01*
X46797319Y-32482499D02*
X46273509Y-32482499D01*
X46273509Y-32482499D02*
X46178271Y-32530118D01*
X46178271Y-32530118D02*
X46130652Y-32625356D01*
X46130652Y-32625356D02*
X46130652Y-32768213D01*
X46130652Y-32768213D02*
X46178271Y-32863451D01*
X46178271Y-32863451D02*
X46225890Y-32911070D01*
X102454819Y-38738094D02*
X101454819Y-38738094D01*
X101454819Y-38738094D02*
X101454819Y-38499999D01*
X101454819Y-38499999D02*
X101502438Y-38357142D01*
X101502438Y-38357142D02*
X101597676Y-38261904D01*
X101597676Y-38261904D02*
X101692914Y-38214285D01*
X101692914Y-38214285D02*
X101883390Y-38166666D01*
X101883390Y-38166666D02*
X102026247Y-38166666D01*
X102026247Y-38166666D02*
X102216723Y-38214285D01*
X102216723Y-38214285D02*
X102311961Y-38261904D01*
X102311961Y-38261904D02*
X102407200Y-38357142D01*
X102407200Y-38357142D02*
X102454819Y-38499999D01*
X102454819Y-38499999D02*
X102454819Y-38738094D01*
X101454819Y-37261904D02*
X101454819Y-37738094D01*
X101454819Y-37738094D02*
X101931009Y-37785713D01*
X101931009Y-37785713D02*
X101883390Y-37738094D01*
X101883390Y-37738094D02*
X101835771Y-37642856D01*
X101835771Y-37642856D02*
X101835771Y-37404761D01*
X101835771Y-37404761D02*
X101883390Y-37309523D01*
X101883390Y-37309523D02*
X101931009Y-37261904D01*
X101931009Y-37261904D02*
X102026247Y-37214285D01*
X102026247Y-37214285D02*
X102264342Y-37214285D01*
X102264342Y-37214285D02*
X102359580Y-37261904D01*
X102359580Y-37261904D02*
X102407200Y-37309523D01*
X102407200Y-37309523D02*
X102454819Y-37404761D01*
X102454819Y-37404761D02*
X102454819Y-37642856D01*
X102454819Y-37642856D02*
X102407200Y-37738094D01*
X102407200Y-37738094D02*
X102359580Y-37785713D01*
X96454819Y-38738094D02*
X95454819Y-38738094D01*
X95454819Y-38738094D02*
X95454819Y-38499999D01*
X95454819Y-38499999D02*
X95502438Y-38357142D01*
X95502438Y-38357142D02*
X95597676Y-38261904D01*
X95597676Y-38261904D02*
X95692914Y-38214285D01*
X95692914Y-38214285D02*
X95883390Y-38166666D01*
X95883390Y-38166666D02*
X96026247Y-38166666D01*
X96026247Y-38166666D02*
X96216723Y-38214285D01*
X96216723Y-38214285D02*
X96311961Y-38261904D01*
X96311961Y-38261904D02*
X96407200Y-38357142D01*
X96407200Y-38357142D02*
X96454819Y-38499999D01*
X96454819Y-38499999D02*
X96454819Y-38738094D01*
X95550057Y-37785713D02*
X95502438Y-37738094D01*
X95502438Y-37738094D02*
X95454819Y-37642856D01*
X95454819Y-37642856D02*
X95454819Y-37404761D01*
X95454819Y-37404761D02*
X95502438Y-37309523D01*
X95502438Y-37309523D02*
X95550057Y-37261904D01*
X95550057Y-37261904D02*
X95645295Y-37214285D01*
X95645295Y-37214285D02*
X95740533Y-37214285D01*
X95740533Y-37214285D02*
X95883390Y-37261904D01*
X95883390Y-37261904D02*
X96454819Y-37833332D01*
X96454819Y-37833332D02*
X96454819Y-37214285D01*
X92454819Y-27761904D02*
X93264342Y-27761904D01*
X93264342Y-27761904D02*
X93359580Y-27714285D01*
X93359580Y-27714285D02*
X93407200Y-27666666D01*
X93407200Y-27666666D02*
X93454819Y-27571428D01*
X93454819Y-27571428D02*
X93454819Y-27380952D01*
X93454819Y-27380952D02*
X93407200Y-27285714D01*
X93407200Y-27285714D02*
X93359580Y-27238095D01*
X93359580Y-27238095D02*
X93264342Y-27190476D01*
X93264342Y-27190476D02*
X92454819Y-27190476D01*
X93454819Y-26190476D02*
X93454819Y-26761904D01*
X93454819Y-26476190D02*
X92454819Y-26476190D01*
X92454819Y-26476190D02*
X92597676Y-26571428D01*
X92597676Y-26571428D02*
X92692914Y-26666666D01*
X92692914Y-26666666D02*
X92740533Y-26761904D01*
X45214285Y-21269771D02*
X44928571Y-21269771D01*
X44928571Y-21269771D02*
X44928571Y-20669771D01*
X45328570Y-20669771D02*
X45528570Y-21269771D01*
X45528570Y-21269771D02*
X45728570Y-20669771D01*
X46357142Y-21241200D02*
X46442857Y-21269771D01*
X46442857Y-21269771D02*
X46585714Y-21269771D01*
X46585714Y-21269771D02*
X46642857Y-21241200D01*
X46642857Y-21241200D02*
X46671428Y-21212628D01*
X46671428Y-21212628D02*
X46699999Y-21155485D01*
X46699999Y-21155485D02*
X46699999Y-21098342D01*
X46699999Y-21098342D02*
X46671428Y-21041200D01*
X46671428Y-21041200D02*
X46642857Y-21012628D01*
X46642857Y-21012628D02*
X46585714Y-20984057D01*
X46585714Y-20984057D02*
X46471428Y-20955485D01*
X46471428Y-20955485D02*
X46414285Y-20926914D01*
X46414285Y-20926914D02*
X46385714Y-20898342D01*
X46385714Y-20898342D02*
X46357142Y-20841200D01*
X46357142Y-20841200D02*
X46357142Y-20784057D01*
X46357142Y-20784057D02*
X46385714Y-20726914D01*
X46385714Y-20726914D02*
X46414285Y-20698342D01*
X46414285Y-20698342D02*
X46471428Y-20669771D01*
X46471428Y-20669771D02*
X46614285Y-20669771D01*
X46614285Y-20669771D02*
X46699999Y-20698342D01*
X47214286Y-20869771D02*
X47214286Y-21269771D01*
X46957143Y-20869771D02*
X46957143Y-21184057D01*
X46957143Y-21184057D02*
X46985714Y-21241200D01*
X46985714Y-21241200D02*
X47042857Y-21269771D01*
X47042857Y-21269771D02*
X47128571Y-21269771D01*
X47128571Y-21269771D02*
X47185714Y-21241200D01*
X47185714Y-21241200D02*
X47214286Y-21212628D01*
X47500000Y-20869771D02*
X47500000Y-21469771D01*
X47500000Y-20898342D02*
X47557143Y-20869771D01*
X47557143Y-20869771D02*
X47671428Y-20869771D01*
X47671428Y-20869771D02*
X47728571Y-20898342D01*
X47728571Y-20898342D02*
X47757143Y-20926914D01*
X47757143Y-20926914D02*
X47785714Y-20984057D01*
X47785714Y-20984057D02*
X47785714Y-21155485D01*
X47785714Y-21155485D02*
X47757143Y-21212628D01*
X47757143Y-21212628D02*
X47728571Y-21241200D01*
X47728571Y-21241200D02*
X47671428Y-21269771D01*
X47671428Y-21269771D02*
X47557143Y-21269771D01*
X47557143Y-21269771D02*
X47500000Y-21241200D01*
X48042857Y-20869771D02*
X48042857Y-21469771D01*
X48042857Y-20898342D02*
X48100000Y-20869771D01*
X48100000Y-20869771D02*
X48214285Y-20869771D01*
X48214285Y-20869771D02*
X48271428Y-20898342D01*
X48271428Y-20898342D02*
X48300000Y-20926914D01*
X48300000Y-20926914D02*
X48328571Y-20984057D01*
X48328571Y-20984057D02*
X48328571Y-21155485D01*
X48328571Y-21155485D02*
X48300000Y-21212628D01*
X48300000Y-21212628D02*
X48271428Y-21241200D01*
X48271428Y-21241200D02*
X48214285Y-21269771D01*
X48214285Y-21269771D02*
X48100000Y-21269771D01*
X48100000Y-21269771D02*
X48042857Y-21241200D01*
X48671428Y-21269771D02*
X48614285Y-21241200D01*
X48614285Y-21241200D02*
X48585714Y-21184057D01*
X48585714Y-21184057D02*
X48585714Y-20669771D01*
X48842857Y-20869771D02*
X48985714Y-21269771D01*
X49128571Y-20869771D02*
X48985714Y-21269771D01*
X48985714Y-21269771D02*
X48928571Y-21412628D01*
X48928571Y-21412628D02*
X48900000Y-21441200D01*
X48900000Y-21441200D02*
X48842857Y-21469771D01*
X46273509Y-31999999D02*
X46273509Y-31666666D01*
X46797319Y-31523809D02*
X46797319Y-31999999D01*
X46797319Y-31999999D02*
X45797319Y-31999999D01*
X45797319Y-31999999D02*
X45797319Y-31523809D01*
X46416366Y-31095237D02*
X46416366Y-30333333D01*
X46749700Y-29904761D02*
X46797319Y-29761904D01*
X46797319Y-29761904D02*
X46797319Y-29523809D01*
X46797319Y-29523809D02*
X46749700Y-29428571D01*
X46749700Y-29428571D02*
X46702080Y-29380952D01*
X46702080Y-29380952D02*
X46606842Y-29333333D01*
X46606842Y-29333333D02*
X46511604Y-29333333D01*
X46511604Y-29333333D02*
X46416366Y-29380952D01*
X46416366Y-29380952D02*
X46368747Y-29428571D01*
X46368747Y-29428571D02*
X46321128Y-29523809D01*
X46321128Y-29523809D02*
X46273509Y-29714285D01*
X46273509Y-29714285D02*
X46225890Y-29809523D01*
X46225890Y-29809523D02*
X46178271Y-29857142D01*
X46178271Y-29857142D02*
X46083033Y-29904761D01*
X46083033Y-29904761D02*
X45987795Y-29904761D01*
X45987795Y-29904761D02*
X45892557Y-29857142D01*
X45892557Y-29857142D02*
X45844938Y-29809523D01*
X45844938Y-29809523D02*
X45797319Y-29714285D01*
X45797319Y-29714285D02*
X45797319Y-29476190D01*
X45797319Y-29476190D02*
X45844938Y-29333333D01*
X46130652Y-29047618D02*
X46130652Y-28666666D01*
X45797319Y-28904761D02*
X46654461Y-28904761D01*
X46654461Y-28904761D02*
X46749700Y-28857142D01*
X46749700Y-28857142D02*
X46797319Y-28761904D01*
X46797319Y-28761904D02*
X46797319Y-28666666D01*
X46797319Y-28190475D02*
X46749700Y-28285713D01*
X46749700Y-28285713D02*
X46702080Y-28333332D01*
X46702080Y-28333332D02*
X46606842Y-28380951D01*
X46606842Y-28380951D02*
X46321128Y-28380951D01*
X46321128Y-28380951D02*
X46225890Y-28333332D01*
X46225890Y-28333332D02*
X46178271Y-28285713D01*
X46178271Y-28285713D02*
X46130652Y-28190475D01*
X46130652Y-28190475D02*
X46130652Y-28047618D01*
X46130652Y-28047618D02*
X46178271Y-27952380D01*
X46178271Y-27952380D02*
X46225890Y-27904761D01*
X46225890Y-27904761D02*
X46321128Y-27857142D01*
X46321128Y-27857142D02*
X46606842Y-27857142D01*
X46606842Y-27857142D02*
X46702080Y-27904761D01*
X46702080Y-27904761D02*
X46749700Y-27952380D01*
X46749700Y-27952380D02*
X46797319Y-28047618D01*
X46797319Y-28047618D02*
X46797319Y-28190475D01*
X46130652Y-27428570D02*
X47130652Y-27428570D01*
X46178271Y-27428570D02*
X46130652Y-27333332D01*
X46130652Y-27333332D02*
X46130652Y-27142856D01*
X46130652Y-27142856D02*
X46178271Y-27047618D01*
X46178271Y-27047618D02*
X46225890Y-26999999D01*
X46225890Y-26999999D02*
X46321128Y-26952380D01*
X46321128Y-26952380D02*
X46606842Y-26952380D01*
X46606842Y-26952380D02*
X46702080Y-26999999D01*
X46702080Y-26999999D02*
X46749700Y-27047618D01*
X46749700Y-27047618D02*
X46797319Y-27142856D01*
X46797319Y-27142856D02*
X46797319Y-27333332D01*
X46797319Y-27333332D02*
X46749700Y-27428570D01*
X90454819Y-38738094D02*
X89454819Y-38738094D01*
X89454819Y-38738094D02*
X89454819Y-38499999D01*
X89454819Y-38499999D02*
X89502438Y-38357142D01*
X89502438Y-38357142D02*
X89597676Y-38261904D01*
X89597676Y-38261904D02*
X89692914Y-38214285D01*
X89692914Y-38214285D02*
X89883390Y-38166666D01*
X89883390Y-38166666D02*
X90026247Y-38166666D01*
X90026247Y-38166666D02*
X90216723Y-38214285D01*
X90216723Y-38214285D02*
X90311961Y-38261904D01*
X90311961Y-38261904D02*
X90407200Y-38357142D01*
X90407200Y-38357142D02*
X90454819Y-38499999D01*
X90454819Y-38499999D02*
X90454819Y-38738094D01*
X90454819Y-37214285D02*
X90454819Y-37785713D01*
X90454819Y-37499999D02*
X89454819Y-37499999D01*
X89454819Y-37499999D02*
X89597676Y-37595237D01*
X89597676Y-37595237D02*
X89692914Y-37690475D01*
X89692914Y-37690475D02*
X89740533Y-37785713D01*
D12*
%TO.C,J8*%
X37670000Y-80725000D02*
X37670000Y-79395000D01*
X37670000Y-84595000D02*
X40330000Y-84595000D01*
X37670000Y-81995000D02*
X37670000Y-84595000D01*
X37670000Y-81995000D02*
X40330000Y-81995000D01*
X37670000Y-79395000D02*
X39000000Y-79395000D01*
X40330000Y-81995000D02*
X40330000Y-84595000D01*
%TO.C,R12*%
X112710000Y-70000000D02*
X115710000Y-70000000D01*
X112710000Y-70000000D02*
G75*
G03*
X112710000Y-70000000I-3120000J0D01*
G01*
%TO.C,R9*%
X86470000Y-70000000D02*
X83470000Y-70000000D01*
X92710000Y-70000000D02*
G75*
G03*
X92710000Y-70000000I-3120000J0D01*
G01*
%TO.C,J1*%
X106250000Y-14300000D02*
X108050000Y-14300000D01*
X90450000Y-14300000D02*
X92250000Y-14300000D01*
X91200000Y-18750000D02*
X99250000Y-18750000D01*
X92250000Y-14300000D02*
X92250000Y-13550000D01*
X108050000Y-14300000D02*
X108050000Y-13550000D01*
X104750000Y-14300000D02*
X104750000Y-13550000D01*
X107300000Y-15800000D02*
X107300000Y-18750000D01*
X90440000Y-19510000D02*
X108060000Y-19510000D01*
X108060000Y-13540000D02*
X90440000Y-13540000D01*
X90440000Y-13540000D02*
X90440000Y-19510000D01*
X90450000Y-13550000D02*
X90450000Y-14300000D01*
X107300000Y-18750000D02*
X99250000Y-18750000D01*
X93750000Y-14300000D02*
X104750000Y-14300000D01*
X91200000Y-15800000D02*
X91200000Y-18750000D01*
X90150000Y-13250000D02*
X90150000Y-14500000D01*
X91400000Y-13250000D02*
X90150000Y-13250000D01*
X108050000Y-15800000D02*
X107300000Y-15800000D01*
X106250000Y-13550000D02*
X106250000Y-14300000D01*
X104750000Y-13550000D02*
X93750000Y-13550000D01*
X90450000Y-15800000D02*
X91200000Y-15800000D01*
X108050000Y-13550000D02*
X106250000Y-13550000D01*
X108060000Y-19510000D02*
X108060000Y-13540000D01*
X92250000Y-13550000D02*
X90450000Y-13550000D01*
X93750000Y-13550000D02*
X93750000Y-14300000D01*
%TO.C,U6*%
X119600000Y-26000000D02*
X119600000Y-23765000D01*
X114400000Y-30235000D02*
X119600000Y-30235000D01*
X119600000Y-23765000D02*
X114400000Y-23765000D01*
X114400000Y-23765000D02*
X114400000Y-30235000D01*
X119600000Y-30235000D02*
X119600000Y-28000000D01*
X119600000Y-26000000D02*
G75*
G03*
X119600000Y-28000000I0J-1000000D01*
G01*
%TO.C,U5*%
X113600000Y-26000000D02*
X113600000Y-23765000D01*
X108400000Y-30235000D02*
X113600000Y-30235000D01*
X113600000Y-23765000D02*
X108400000Y-23765000D01*
X108400000Y-23765000D02*
X108400000Y-30235000D01*
X113600000Y-30235000D02*
X113600000Y-28000000D01*
X113600000Y-26000000D02*
G75*
G03*
X113600000Y-28000000I0J-1000000D01*
G01*
%TO.C,K5*%
X114350000Y-49172500D02*
X114350000Y-47972500D01*
X113650000Y-48772500D02*
X114350000Y-48372500D01*
X109500000Y-48572500D02*
X112650000Y-48572500D01*
X122350000Y-66422500D02*
X122350000Y-43722500D01*
X122350000Y-43722500D02*
X105650000Y-43722500D01*
X113650000Y-47972500D02*
X113650000Y-49172500D01*
X105650000Y-66422500D02*
X122350000Y-66422500D01*
X113000000Y-43462500D02*
X115000000Y-43462500D01*
X113650000Y-49172500D02*
X114350000Y-49172500D01*
X114350000Y-47972500D02*
X113650000Y-47972500D01*
X105650000Y-43722500D02*
X105650000Y-66422500D01*
X115350000Y-48572500D02*
X118500000Y-48572500D01*
%TO.C,K4*%
X97350000Y-49172500D02*
X97350000Y-47972500D01*
X96650000Y-48772500D02*
X97350000Y-48372500D01*
X92500000Y-48572500D02*
X95650000Y-48572500D01*
X105350000Y-66422500D02*
X105350000Y-43722500D01*
X105350000Y-43722500D02*
X88650000Y-43722500D01*
X96650000Y-47972500D02*
X96650000Y-49172500D01*
X88650000Y-66422500D02*
X105350000Y-66422500D01*
X96000000Y-43462500D02*
X98000000Y-43462500D01*
X96650000Y-49172500D02*
X97350000Y-49172500D01*
X97350000Y-47972500D02*
X96650000Y-47972500D01*
X88650000Y-43722500D02*
X88650000Y-66422500D01*
X98350000Y-48572500D02*
X101500000Y-48572500D01*
%TO.C,D9*%
X114850000Y-42960000D02*
X114850000Y-35300000D01*
X114850000Y-42960000D02*
X119150000Y-42960000D01*
X119150000Y-42960000D02*
X119150000Y-35300000D01*
%TO.C,D8*%
X108850000Y-42960000D02*
X108850000Y-35300000D01*
X108850000Y-42960000D02*
X113150000Y-42960000D01*
X113150000Y-42960000D02*
X113150000Y-35300000D01*
%TO.C,C3*%
X86348063Y-27790000D02*
X76692500Y-27790000D01*
X87412500Y-37445563D02*
X86348063Y-38510000D01*
X87412500Y-28854437D02*
X86348063Y-27790000D01*
X86348063Y-38510000D02*
X76692500Y-38510000D01*
X76692500Y-27790000D02*
X76692500Y-31640000D01*
X88902500Y-35910000D02*
X87652500Y-35910000D01*
X87412500Y-37445563D02*
X87412500Y-34660000D01*
X87412500Y-28854437D02*
X87412500Y-31640000D01*
X88277500Y-36535000D02*
X88277500Y-35285000D01*
X76692500Y-38510000D02*
X76692500Y-34660000D01*
%TO.C,U4*%
X59850000Y-23250000D02*
X59850000Y-24750000D01*
X59850000Y-24750000D02*
X60800000Y-24750000D01*
X60800000Y-24750000D02*
X60800000Y-29875000D01*
X70250000Y-23250000D02*
X70250000Y-24750000D01*
X70250000Y-24750000D02*
X69300000Y-24750000D01*
X69300000Y-24750000D02*
X69300000Y-25850000D01*
%TO.C,L1*%
X71310000Y-26650000D02*
X71310000Y-14050000D01*
X71310000Y-14050000D02*
X74310000Y-14050000D01*
X83910000Y-26650000D02*
X80910000Y-26650000D01*
X74310000Y-26650000D02*
X71310000Y-26650000D01*
X83910000Y-14050000D02*
X83910000Y-26650000D01*
X80910000Y-14050000D02*
X83910000Y-14050000D01*
%TO.C,D7*%
X75270000Y-28060000D02*
X75270000Y-35720000D01*
X75270000Y-28060000D02*
X70970000Y-28060000D01*
X70970000Y-28060000D02*
X70970000Y-35720000D01*
%TO.C,C2*%
X50654437Y-24170000D02*
X49590000Y-23105563D01*
X58310000Y-15450000D02*
X55460000Y-15450000D01*
X58310000Y-23105563D02*
X58310000Y-15450000D01*
X49590000Y-15450000D02*
X52440000Y-15450000D01*
X50654437Y-24170000D02*
X52440000Y-24170000D01*
X51440000Y-25410000D02*
X51440000Y-24410000D01*
X57245563Y-24170000D02*
X55460000Y-24170000D01*
X49590000Y-23105563D02*
X49590000Y-15450000D01*
X57245563Y-24170000D02*
X58310000Y-23105563D01*
X50940000Y-24910000D02*
X51940000Y-24910000D01*
%TO.C,C1*%
X58960000Y-27791252D02*
X58960000Y-26368748D01*
X57140000Y-27791252D02*
X57140000Y-26368748D01*
%TO.C,U3*%
X107600000Y-26000000D02*
X107600000Y-23765000D01*
X102400000Y-30235000D02*
X107600000Y-30235000D01*
X107600000Y-23765000D02*
X102400000Y-23765000D01*
X102400000Y-23765000D02*
X102400000Y-30235000D01*
X107600000Y-30235000D02*
X107600000Y-28000000D01*
X107600000Y-26000000D02*
G75*
G03*
X107600000Y-28000000I0J-1000000D01*
G01*
%TO.C,U2*%
X101600000Y-26000000D02*
X101600000Y-23765000D01*
X96400000Y-30235000D02*
X101600000Y-30235000D01*
X101600000Y-23765000D02*
X96400000Y-23765000D01*
X96400000Y-23765000D02*
X96400000Y-30235000D01*
X101600000Y-30235000D02*
X101600000Y-28000000D01*
X101600000Y-26000000D02*
G75*
G03*
X101600000Y-28000000I0J-1000000D01*
G01*
%TO.C,K3*%
X80350000Y-49172500D02*
X80350000Y-47972500D01*
X79650000Y-48772500D02*
X80350000Y-48372500D01*
X75500000Y-48572500D02*
X78650000Y-48572500D01*
X88350000Y-66422500D02*
X88350000Y-43722500D01*
X88350000Y-43722500D02*
X71650000Y-43722500D01*
X79650000Y-47972500D02*
X79650000Y-49172500D01*
X71650000Y-66422500D02*
X88350000Y-66422500D01*
X79000000Y-43462500D02*
X81000000Y-43462500D01*
X79650000Y-49172500D02*
X80350000Y-49172500D01*
X80350000Y-47972500D02*
X79650000Y-47972500D01*
X71650000Y-43722500D02*
X71650000Y-66422500D01*
X81350000Y-48572500D02*
X84500000Y-48572500D01*
%TO.C,K2*%
X63350000Y-49172500D02*
X63350000Y-47972500D01*
X62650000Y-48772500D02*
X63350000Y-48372500D01*
X58500000Y-48572500D02*
X61650000Y-48572500D01*
X71350000Y-66422500D02*
X71350000Y-43722500D01*
X71350000Y-43722500D02*
X54650000Y-43722500D01*
X62650000Y-47972500D02*
X62650000Y-49172500D01*
X54650000Y-66422500D02*
X71350000Y-66422500D01*
X62000000Y-43462500D02*
X64000000Y-43462500D01*
X62650000Y-49172500D02*
X63350000Y-49172500D01*
X63350000Y-47972500D02*
X62650000Y-47972500D01*
X54650000Y-43722500D02*
X54650000Y-66422500D01*
X64350000Y-48572500D02*
X67500000Y-48572500D01*
%TO.C,J6*%
X44150000Y-76500000D02*
X39850000Y-76500000D01*
X38500000Y-73500000D02*
X39500000Y-73750000D01*
X39850000Y-68420000D02*
X44150000Y-68420000D01*
X44150000Y-71420000D02*
X39850000Y-71420000D01*
X39500000Y-73750000D02*
X39500000Y-74250000D01*
X38500000Y-76500000D02*
X38500000Y-73500000D01*
X44150000Y-70670000D02*
X44150000Y-71420000D01*
X44150000Y-73500000D02*
X44150000Y-74250000D01*
X39850000Y-69170000D02*
X39850000Y-68420000D01*
X37540000Y-77650000D02*
X45010000Y-77650000D01*
X39850000Y-75750000D02*
X39500000Y-75750000D01*
X37150000Y-78040000D02*
X37150000Y-76040000D01*
X39850000Y-70670000D02*
X39500000Y-70670000D01*
X39500000Y-70670000D02*
X39500000Y-71170000D01*
X39850000Y-71420000D02*
X39850000Y-70670000D01*
X39850000Y-76500000D02*
X39850000Y-75750000D01*
X37540000Y-67270000D02*
X37540000Y-77650000D01*
X39500000Y-68670000D02*
X39500000Y-69170000D01*
X38500000Y-68420000D02*
X39500000Y-68670000D01*
X45010000Y-77650000D02*
X45010000Y-67270000D01*
X38400000Y-78040000D02*
X37150000Y-78040000D01*
X39500000Y-75750000D02*
X39500000Y-76250000D01*
X38500000Y-71420000D02*
X38500000Y-68420000D01*
X39850000Y-73500000D02*
X44150000Y-73500000D01*
X39500000Y-76250000D02*
X38500000Y-76500000D01*
X39850000Y-74250000D02*
X39850000Y-73500000D01*
X39500000Y-74250000D02*
X39850000Y-74250000D01*
X39500000Y-69170000D02*
X39850000Y-69170000D01*
X45010000Y-67270000D02*
X37540000Y-67270000D01*
X44150000Y-75750000D02*
X44150000Y-76500000D01*
X39500000Y-71170000D02*
X38500000Y-71420000D01*
X44150000Y-68420000D02*
X44150000Y-69170000D01*
X44149845Y-69170353D02*
G75*
G03*
X44150000Y-70670000I1700155J-749647D01*
G01*
X44149845Y-74250353D02*
G75*
G03*
X44150000Y-75750000I1700155J-749647D01*
G01*
%TO.C,J4*%
X44392500Y-42022500D02*
X40092500Y-42022500D01*
X38742500Y-39022500D02*
X39742500Y-39272500D01*
X40092500Y-33942500D02*
X44392500Y-33942500D01*
X44392500Y-36942500D02*
X40092500Y-36942500D01*
X39742500Y-39272500D02*
X39742500Y-39772500D01*
X38742500Y-42022500D02*
X38742500Y-39022500D01*
X44392500Y-36192500D02*
X44392500Y-36942500D01*
X44392500Y-39022500D02*
X44392500Y-39772500D01*
X40092500Y-34692500D02*
X40092500Y-33942500D01*
X37782500Y-43172500D02*
X45252500Y-43172500D01*
X40092500Y-41272500D02*
X39742500Y-41272500D01*
X37392500Y-43562500D02*
X37392500Y-41562500D01*
X40092500Y-36192500D02*
X39742500Y-36192500D01*
X39742500Y-36192500D02*
X39742500Y-36692500D01*
X40092500Y-36942500D02*
X40092500Y-36192500D01*
X40092500Y-42022500D02*
X40092500Y-41272500D01*
X37782500Y-32792500D02*
X37782500Y-43172500D01*
X39742500Y-34192500D02*
X39742500Y-34692500D01*
X38742500Y-33942500D02*
X39742500Y-34192500D01*
X45252500Y-43172500D02*
X45252500Y-32792500D01*
X38642500Y-43562500D02*
X37392500Y-43562500D01*
X39742500Y-41272500D02*
X39742500Y-41772500D01*
X38742500Y-36942500D02*
X38742500Y-33942500D01*
X40092500Y-39022500D02*
X44392500Y-39022500D01*
X39742500Y-41772500D02*
X38742500Y-42022500D01*
X40092500Y-39772500D02*
X40092500Y-39022500D01*
X39742500Y-39772500D02*
X40092500Y-39772500D01*
X39742500Y-34692500D02*
X40092500Y-34692500D01*
X45252500Y-32792500D02*
X37782500Y-32792500D01*
X44392500Y-41272500D02*
X44392500Y-42022500D01*
X39742500Y-36692500D02*
X38742500Y-36942500D01*
X44392500Y-33942500D02*
X44392500Y-34692500D01*
X44392345Y-34692853D02*
G75*
G03*
X44392500Y-36192500I1700155J-749647D01*
G01*
X44392345Y-39772853D02*
G75*
G03*
X44392500Y-41272500I1700155J-749647D01*
G01*
%TO.C,D5*%
X102850000Y-42960000D02*
X102850000Y-35300000D01*
X102850000Y-42960000D02*
X107150000Y-42960000D01*
X107150000Y-42960000D02*
X107150000Y-35300000D01*
%TO.C,D2*%
X101150000Y-42960000D02*
X101150000Y-35300000D01*
X96850000Y-42960000D02*
X101150000Y-42960000D01*
X96850000Y-42960000D02*
X96850000Y-35300000D01*
%TO.C,U1*%
X95600000Y-26000000D02*
X95600000Y-23765000D01*
X90400000Y-30235000D02*
X95600000Y-30235000D01*
X95600000Y-23765000D02*
X90400000Y-23765000D01*
X90400000Y-23765000D02*
X90400000Y-30235000D01*
X95600000Y-30235000D02*
X95600000Y-28000000D01*
X95600000Y-26000000D02*
G75*
G03*
X95600000Y-28000000I0J-1000000D01*
G01*
%TO.C,K1*%
X46350000Y-49172500D02*
X46350000Y-47972500D01*
X45650000Y-48772500D02*
X46350000Y-48372500D01*
X41500000Y-48572500D02*
X44650000Y-48572500D01*
X54350000Y-66422500D02*
X54350000Y-43722500D01*
X54350000Y-43722500D02*
X37650000Y-43722500D01*
X45650000Y-47972500D02*
X45650000Y-49172500D01*
X37650000Y-66422500D02*
X54350000Y-66422500D01*
X45000000Y-43462500D02*
X47000000Y-43462500D01*
X45650000Y-49172500D02*
X46350000Y-49172500D01*
X46350000Y-47972500D02*
X45650000Y-47972500D01*
X37650000Y-43722500D02*
X37650000Y-66422500D01*
X47350000Y-48572500D02*
X50500000Y-48572500D01*
%TO.C,J3*%
X39637500Y-19392500D02*
X39637500Y-15092500D01*
X42637500Y-13742500D02*
X42387500Y-14742500D01*
X47717500Y-15092500D02*
X47717500Y-19392500D01*
X44717500Y-19392500D02*
X44717500Y-15092500D01*
X42387500Y-14742500D02*
X41887500Y-14742500D01*
X39637500Y-13742500D02*
X42637500Y-13742500D01*
X45467500Y-19392500D02*
X44717500Y-19392500D01*
X42637500Y-19392500D02*
X41887500Y-19392500D01*
X46967500Y-15092500D02*
X47717500Y-15092500D01*
X38487500Y-12782500D02*
X38487500Y-20252500D01*
X40387500Y-15092500D02*
X40387500Y-14742500D01*
X38097500Y-12392500D02*
X40097500Y-12392500D01*
X45467500Y-15092500D02*
X45467500Y-14742500D01*
X45467500Y-14742500D02*
X44967500Y-14742500D01*
X44717500Y-15092500D02*
X45467500Y-15092500D01*
X39637500Y-15092500D02*
X40387500Y-15092500D01*
X48867500Y-12782500D02*
X38487500Y-12782500D01*
X47467500Y-14742500D02*
X46967500Y-14742500D01*
X47717500Y-13742500D02*
X47467500Y-14742500D01*
X38487500Y-20252500D02*
X48867500Y-20252500D01*
X38097500Y-13642500D02*
X38097500Y-12392500D01*
X40387500Y-14742500D02*
X39887500Y-14742500D01*
X44717500Y-13742500D02*
X47717500Y-13742500D01*
X42637500Y-15092500D02*
X42637500Y-19392500D01*
X39887500Y-14742500D02*
X39637500Y-13742500D01*
X41887500Y-15092500D02*
X42637500Y-15092500D01*
X41887500Y-14742500D02*
X41887500Y-15092500D01*
X46967500Y-14742500D02*
X46967500Y-15092500D01*
X48867500Y-20252500D02*
X48867500Y-12782500D01*
X40387500Y-19392500D02*
X39637500Y-19392500D01*
X44967500Y-14742500D02*
X44717500Y-13742500D01*
X47717500Y-19392500D02*
X46967500Y-19392500D01*
X46967147Y-19392345D02*
G75*
G03*
X45467500Y-19392500I-749647J-1700155D01*
G01*
X41887147Y-19392345D02*
G75*
G03*
X40387500Y-19392500I-749647J-1700155D01*
G01*
%TO.C,J2*%
X44392500Y-30522500D02*
X40092500Y-30522500D01*
X38742500Y-27522500D02*
X39742500Y-27772500D01*
X40092500Y-22442500D02*
X44392500Y-22442500D01*
X44392500Y-25442500D02*
X40092500Y-25442500D01*
X39742500Y-27772500D02*
X39742500Y-28272500D01*
X38742500Y-30522500D02*
X38742500Y-27522500D01*
X44392500Y-24692500D02*
X44392500Y-25442500D01*
X44392500Y-27522500D02*
X44392500Y-28272500D01*
X40092500Y-23192500D02*
X40092500Y-22442500D01*
X37782500Y-31672500D02*
X45252500Y-31672500D01*
X40092500Y-29772500D02*
X39742500Y-29772500D01*
X37392500Y-32062500D02*
X37392500Y-30062500D01*
X40092500Y-24692500D02*
X39742500Y-24692500D01*
X39742500Y-24692500D02*
X39742500Y-25192500D01*
X40092500Y-25442500D02*
X40092500Y-24692500D01*
X40092500Y-30522500D02*
X40092500Y-29772500D01*
X37782500Y-21292500D02*
X37782500Y-31672500D01*
X39742500Y-22692500D02*
X39742500Y-23192500D01*
X38742500Y-22442500D02*
X39742500Y-22692500D01*
X45252500Y-31672500D02*
X45252500Y-21292500D01*
X38642500Y-32062500D02*
X37392500Y-32062500D01*
X39742500Y-29772500D02*
X39742500Y-30272500D01*
X38742500Y-25442500D02*
X38742500Y-22442500D01*
X40092500Y-27522500D02*
X44392500Y-27522500D01*
X39742500Y-30272500D02*
X38742500Y-30522500D01*
X40092500Y-28272500D02*
X40092500Y-27522500D01*
X39742500Y-28272500D02*
X40092500Y-28272500D01*
X39742500Y-23192500D02*
X40092500Y-23192500D01*
X45252500Y-21292500D02*
X37782500Y-21292500D01*
X44392500Y-29772500D02*
X44392500Y-30522500D01*
X39742500Y-25192500D02*
X38742500Y-25442500D01*
X44392500Y-22442500D02*
X44392500Y-23192500D01*
X44392345Y-23192853D02*
G75*
G03*
X44392500Y-24692500I1700155J-749647D01*
G01*
X44392345Y-28272853D02*
G75*
G03*
X44392500Y-29772500I1700155J-749647D01*
G01*
%TO.C,D1*%
X90850000Y-42960000D02*
X90850000Y-35300000D01*
X90850000Y-42960000D02*
X95150000Y-42960000D01*
X95150000Y-42960000D02*
X95150000Y-35300000D01*
%TD*%
M02*
