%TF.GenerationSoftware,KiCad,Pcbnew,(6.0.8)*%
%TF.CreationDate,2024-04-13T01:58:17+05:30*%
%TF.ProjectId,Lu_Testing,4c755f54-6573-4746-996e-672e6b696361,rev?*%
%TF.SameCoordinates,Original*%
%TF.FileFunction,Legend,Top*%
%TF.FilePolarity,Positive*%
%FSLAX46Y46*%
G04 Gerber Fmt 4.6, Leading zero omitted, Abs format (unit mm)*
G04 Created by KiCad (PCBNEW (6.0.8)) date 2024-04-13 01:58:17*
%MOMM*%
%LPD*%
G01*
G04 APERTURE LIST*
%ADD10C,0.300000*%
%ADD11C,0.150000*%
%ADD12C,0.120000*%
%ADD13C,0.152400*%
%ADD14C,0.127000*%
%ADD15C,0.200000*%
G04 APERTURE END LIST*
D10*
X81661142Y-41160000D02*
X81518285Y-41088571D01*
X81304000Y-41088571D01*
X81089714Y-41160000D01*
X80946857Y-41302857D01*
X80875428Y-41445714D01*
X80804000Y-41731428D01*
X80804000Y-41945714D01*
X80875428Y-42231428D01*
X80946857Y-42374285D01*
X81089714Y-42517142D01*
X81304000Y-42588571D01*
X81446857Y-42588571D01*
X81661142Y-42517142D01*
X81732571Y-42445714D01*
X81732571Y-41945714D01*
X81446857Y-41945714D01*
X82375428Y-42588571D02*
X82375428Y-41088571D01*
X83232571Y-42588571D01*
X83232571Y-41088571D01*
X83946857Y-42588571D02*
X83946857Y-41088571D01*
X84304000Y-41088571D01*
X84518285Y-41160000D01*
X84661142Y-41302857D01*
X84732571Y-41445714D01*
X84804000Y-41731428D01*
X84804000Y-41945714D01*
X84732571Y-42231428D01*
X84661142Y-42374285D01*
X84518285Y-42517142D01*
X84304000Y-42588571D01*
X83946857Y-42588571D01*
X81022428Y-47470142D02*
X81236714Y-47541571D01*
X81593857Y-47541571D01*
X81736714Y-47470142D01*
X81808142Y-47398714D01*
X81879571Y-47255857D01*
X81879571Y-47113000D01*
X81808142Y-46970142D01*
X81736714Y-46898714D01*
X81593857Y-46827285D01*
X81308142Y-46755857D01*
X81165285Y-46684428D01*
X81093857Y-46613000D01*
X81022428Y-46470142D01*
X81022428Y-46327285D01*
X81093857Y-46184428D01*
X81165285Y-46113000D01*
X81308142Y-46041571D01*
X81665285Y-46041571D01*
X81879571Y-46113000D01*
X82379571Y-46041571D02*
X82736714Y-47541571D01*
X83022428Y-46470142D01*
X83308142Y-47541571D01*
X83665285Y-46041571D01*
X84236714Y-47541571D02*
X84236714Y-46041571D01*
X84593857Y-46041571D01*
X84808142Y-46113000D01*
X84951000Y-46255857D01*
X85022428Y-46398714D01*
X85093857Y-46684428D01*
X85093857Y-46898714D01*
X85022428Y-47184428D01*
X84951000Y-47327285D01*
X84808142Y-47470142D01*
X84593857Y-47541571D01*
X84236714Y-47541571D01*
X85736714Y-47541571D02*
X85736714Y-46041571D01*
X86736714Y-46041571D02*
X87022428Y-46041571D01*
X87165285Y-46113000D01*
X87308142Y-46255857D01*
X87379571Y-46541571D01*
X87379571Y-47041571D01*
X87308142Y-47327285D01*
X87165285Y-47470142D01*
X87022428Y-47541571D01*
X86736714Y-47541571D01*
X86593857Y-47470142D01*
X86451000Y-47327285D01*
X86379571Y-47041571D01*
X86379571Y-46541571D01*
X86451000Y-46255857D01*
X86593857Y-46113000D01*
X86736714Y-46041571D01*
X80935142Y-45057142D02*
X81149428Y-45128571D01*
X81506571Y-45128571D01*
X81649428Y-45057142D01*
X81720857Y-44985714D01*
X81792285Y-44842857D01*
X81792285Y-44700000D01*
X81720857Y-44557142D01*
X81649428Y-44485714D01*
X81506571Y-44414285D01*
X81220857Y-44342857D01*
X81078000Y-44271428D01*
X81006571Y-44200000D01*
X80935142Y-44057142D01*
X80935142Y-43914285D01*
X81006571Y-43771428D01*
X81078000Y-43700000D01*
X81220857Y-43628571D01*
X81578000Y-43628571D01*
X81792285Y-43700000D01*
X82292285Y-43628571D02*
X82649428Y-45128571D01*
X82935142Y-44057142D01*
X83220857Y-45128571D01*
X83578000Y-43628571D01*
X85006571Y-44985714D02*
X84935142Y-45057142D01*
X84720857Y-45128571D01*
X84578000Y-45128571D01*
X84363714Y-45057142D01*
X84220857Y-44914285D01*
X84149428Y-44771428D01*
X84078000Y-44485714D01*
X84078000Y-44271428D01*
X84149428Y-43985714D01*
X84220857Y-43842857D01*
X84363714Y-43700000D01*
X84578000Y-43628571D01*
X84720857Y-43628571D01*
X84935142Y-43700000D01*
X85006571Y-43771428D01*
X86363714Y-45128571D02*
X85649428Y-45128571D01*
X85649428Y-43628571D01*
X86863714Y-45128571D02*
X86863714Y-43628571D01*
X87720857Y-45128571D02*
X87078000Y-44271428D01*
X87720857Y-43628571D02*
X86863714Y-44485714D01*
X81200857Y-48708571D02*
X82129428Y-48708571D01*
X81629428Y-49280000D01*
X81843714Y-49280000D01*
X81986571Y-49351428D01*
X82058000Y-49422857D01*
X82129428Y-49565714D01*
X82129428Y-49922857D01*
X82058000Y-50065714D01*
X81986571Y-50137142D01*
X81843714Y-50208571D01*
X81415142Y-50208571D01*
X81272285Y-50137142D01*
X81200857Y-50065714D01*
X82558000Y-48708571D02*
X83058000Y-50208571D01*
X83558000Y-48708571D01*
X83915142Y-48708571D02*
X84843714Y-48708571D01*
X84343714Y-49280000D01*
X84558000Y-49280000D01*
X84700857Y-49351428D01*
X84772285Y-49422857D01*
X84843714Y-49565714D01*
X84843714Y-49922857D01*
X84772285Y-50065714D01*
X84700857Y-50137142D01*
X84558000Y-50208571D01*
X84129428Y-50208571D01*
X83986571Y-50137142D01*
X83915142Y-50065714D01*
D11*
%TO.C,C51*%
X83304142Y-72845142D02*
X83256523Y-72892761D01*
X83113666Y-72940380D01*
X83018428Y-72940380D01*
X82875571Y-72892761D01*
X82780333Y-72797523D01*
X82732714Y-72702285D01*
X82685095Y-72511809D01*
X82685095Y-72368952D01*
X82732714Y-72178476D01*
X82780333Y-72083238D01*
X82875571Y-71988000D01*
X83018428Y-71940380D01*
X83113666Y-71940380D01*
X83256523Y-71988000D01*
X83304142Y-72035619D01*
X84208904Y-71940380D02*
X83732714Y-71940380D01*
X83685095Y-72416571D01*
X83732714Y-72368952D01*
X83827952Y-72321333D01*
X84066047Y-72321333D01*
X84161285Y-72368952D01*
X84208904Y-72416571D01*
X84256523Y-72511809D01*
X84256523Y-72749904D01*
X84208904Y-72845142D01*
X84161285Y-72892761D01*
X84066047Y-72940380D01*
X83827952Y-72940380D01*
X83732714Y-72892761D01*
X83685095Y-72845142D01*
X85208904Y-72940380D02*
X84637476Y-72940380D01*
X84923190Y-72940380D02*
X84923190Y-71940380D01*
X84827952Y-72083238D01*
X84732714Y-72178476D01*
X84637476Y-72226095D01*
%TO.C,C6*%
X132365142Y-72048666D02*
X132412761Y-72096285D01*
X132460380Y-72239142D01*
X132460380Y-72334380D01*
X132412761Y-72477238D01*
X132317523Y-72572476D01*
X132222285Y-72620095D01*
X132031809Y-72667714D01*
X131888952Y-72667714D01*
X131698476Y-72620095D01*
X131603238Y-72572476D01*
X131508000Y-72477238D01*
X131460380Y-72334380D01*
X131460380Y-72239142D01*
X131508000Y-72096285D01*
X131555619Y-72048666D01*
X131460380Y-71191523D02*
X131460380Y-71382000D01*
X131508000Y-71477238D01*
X131555619Y-71524857D01*
X131698476Y-71620095D01*
X131888952Y-71667714D01*
X132269904Y-71667714D01*
X132365142Y-71620095D01*
X132412761Y-71572476D01*
X132460380Y-71477238D01*
X132460380Y-71286761D01*
X132412761Y-71191523D01*
X132365142Y-71143904D01*
X132269904Y-71096285D01*
X132031809Y-71096285D01*
X131936571Y-71143904D01*
X131888952Y-71191523D01*
X131841333Y-71286761D01*
X131841333Y-71477238D01*
X131888952Y-71572476D01*
X131936571Y-71620095D01*
X132031809Y-71667714D01*
%TO.C,R41*%
X109671380Y-41409857D02*
X109195190Y-41743190D01*
X109671380Y-41981285D02*
X108671380Y-41981285D01*
X108671380Y-41600333D01*
X108719000Y-41505095D01*
X108766619Y-41457476D01*
X108861857Y-41409857D01*
X109004714Y-41409857D01*
X109099952Y-41457476D01*
X109147571Y-41505095D01*
X109195190Y-41600333D01*
X109195190Y-41981285D01*
X109004714Y-40552714D02*
X109671380Y-40552714D01*
X108623761Y-40790809D02*
X109338047Y-41028904D01*
X109338047Y-40409857D01*
X109671380Y-39505095D02*
X109671380Y-40076523D01*
X109671380Y-39790809D02*
X108671380Y-39790809D01*
X108814238Y-39886047D01*
X108909476Y-39981285D01*
X108957095Y-40076523D01*
%TO.C,Q1*%
X193026619Y-53424238D02*
X192979000Y-53519476D01*
X192883761Y-53614714D01*
X192740904Y-53757571D01*
X192693285Y-53852809D01*
X192693285Y-53948047D01*
X192931380Y-53900428D02*
X192883761Y-53995666D01*
X192788523Y-54090904D01*
X192598047Y-54138523D01*
X192264714Y-54138523D01*
X192074238Y-54090904D01*
X191979000Y-53995666D01*
X191931380Y-53900428D01*
X191931380Y-53709952D01*
X191979000Y-53614714D01*
X192074238Y-53519476D01*
X192264714Y-53471857D01*
X192598047Y-53471857D01*
X192788523Y-53519476D01*
X192883761Y-53614714D01*
X192931380Y-53709952D01*
X192931380Y-53900428D01*
X192931380Y-52519476D02*
X192931380Y-53090904D01*
X192931380Y-52805190D02*
X191931380Y-52805190D01*
X192074238Y-52900428D01*
X192169476Y-52995666D01*
X192217095Y-53090904D01*
%TO.C,R43*%
X78875142Y-54936380D02*
X78541809Y-54460190D01*
X78303714Y-54936380D02*
X78303714Y-53936380D01*
X78684666Y-53936380D01*
X78779904Y-53984000D01*
X78827523Y-54031619D01*
X78875142Y-54126857D01*
X78875142Y-54269714D01*
X78827523Y-54364952D01*
X78779904Y-54412571D01*
X78684666Y-54460190D01*
X78303714Y-54460190D01*
X79732285Y-54269714D02*
X79732285Y-54936380D01*
X79494190Y-53888761D02*
X79256095Y-54603047D01*
X79875142Y-54603047D01*
X80160857Y-53936380D02*
X80779904Y-53936380D01*
X80446571Y-54317333D01*
X80589428Y-54317333D01*
X80684666Y-54364952D01*
X80732285Y-54412571D01*
X80779904Y-54507809D01*
X80779904Y-54745904D01*
X80732285Y-54841142D01*
X80684666Y-54888761D01*
X80589428Y-54936380D01*
X80303714Y-54936380D01*
X80208476Y-54888761D01*
X80160857Y-54841142D01*
%TO.C,C23*%
X160189142Y-94622857D02*
X160236761Y-94670476D01*
X160284380Y-94813333D01*
X160284380Y-94908571D01*
X160236761Y-95051428D01*
X160141523Y-95146666D01*
X160046285Y-95194285D01*
X159855809Y-95241904D01*
X159712952Y-95241904D01*
X159522476Y-95194285D01*
X159427238Y-95146666D01*
X159332000Y-95051428D01*
X159284380Y-94908571D01*
X159284380Y-94813333D01*
X159332000Y-94670476D01*
X159379619Y-94622857D01*
X159379619Y-94241904D02*
X159332000Y-94194285D01*
X159284380Y-94099047D01*
X159284380Y-93860952D01*
X159332000Y-93765714D01*
X159379619Y-93718095D01*
X159474857Y-93670476D01*
X159570095Y-93670476D01*
X159712952Y-93718095D01*
X160284380Y-94289523D01*
X160284380Y-93670476D01*
X159284380Y-93337142D02*
X159284380Y-92718095D01*
X159665333Y-93051428D01*
X159665333Y-92908571D01*
X159712952Y-92813333D01*
X159760571Y-92765714D01*
X159855809Y-92718095D01*
X160093904Y-92718095D01*
X160189142Y-92765714D01*
X160236761Y-92813333D01*
X160284380Y-92908571D01*
X160284380Y-93194285D01*
X160236761Y-93289523D01*
X160189142Y-93337142D01*
%TO.C,J6*%
X80444380Y-105997333D02*
X81158666Y-105997333D01*
X81301523Y-106044952D01*
X81396761Y-106140190D01*
X81444380Y-106283047D01*
X81444380Y-106378285D01*
X80444380Y-105092571D02*
X80444380Y-105283047D01*
X80492000Y-105378285D01*
X80539619Y-105425904D01*
X80682476Y-105521142D01*
X80872952Y-105568761D01*
X81253904Y-105568761D01*
X81349142Y-105521142D01*
X81396761Y-105473523D01*
X81444380Y-105378285D01*
X81444380Y-105187809D01*
X81396761Y-105092571D01*
X81349142Y-105044952D01*
X81253904Y-104997333D01*
X81015809Y-104997333D01*
X80920571Y-105044952D01*
X80872952Y-105092571D01*
X80825333Y-105187809D01*
X80825333Y-105378285D01*
X80872952Y-105473523D01*
X80920571Y-105521142D01*
X81015809Y-105568761D01*
%TO.C,U12*%
X102457095Y-46648619D02*
X102457095Y-45839095D01*
X102409476Y-45743857D01*
X102361857Y-45696238D01*
X102266619Y-45648619D01*
X102076142Y-45648619D01*
X101980904Y-45696238D01*
X101933285Y-45743857D01*
X101885666Y-45839095D01*
X101885666Y-46648619D01*
X100885666Y-45648619D02*
X101457095Y-45648619D01*
X101171380Y-45648619D02*
X101171380Y-46648619D01*
X101266619Y-46505761D01*
X101361857Y-46410523D01*
X101457095Y-46362904D01*
X100504714Y-46553380D02*
X100457095Y-46601000D01*
X100361857Y-46648619D01*
X100123761Y-46648619D01*
X100028523Y-46601000D01*
X99980904Y-46553380D01*
X99933285Y-46458142D01*
X99933285Y-46362904D01*
X99980904Y-46220047D01*
X100552333Y-45648619D01*
X99933285Y-45648619D01*
X106349800Y-49160180D02*
X106349800Y-49398276D01*
X106111704Y-49303038D02*
X106349800Y-49398276D01*
X106587895Y-49303038D01*
X106206942Y-49588752D02*
X106349800Y-49398276D01*
X106492657Y-49588752D01*
X106349800Y-50255419D02*
X106349800Y-50017323D01*
X106587895Y-50112561D02*
X106349800Y-50017323D01*
X106111704Y-50112561D01*
X106492657Y-49826847D02*
X106349800Y-50017323D01*
X106206942Y-49826847D01*
%TO.C,C48*%
X92022142Y-46743857D02*
X92069761Y-46791476D01*
X92117380Y-46934333D01*
X92117380Y-47029571D01*
X92069761Y-47172428D01*
X91974523Y-47267666D01*
X91879285Y-47315285D01*
X91688809Y-47362904D01*
X91545952Y-47362904D01*
X91355476Y-47315285D01*
X91260238Y-47267666D01*
X91165000Y-47172428D01*
X91117380Y-47029571D01*
X91117380Y-46934333D01*
X91165000Y-46791476D01*
X91212619Y-46743857D01*
X91450714Y-45886714D02*
X92117380Y-45886714D01*
X91069761Y-46124809D02*
X91784047Y-46362904D01*
X91784047Y-45743857D01*
X91545952Y-45220047D02*
X91498333Y-45315285D01*
X91450714Y-45362904D01*
X91355476Y-45410523D01*
X91307857Y-45410523D01*
X91212619Y-45362904D01*
X91165000Y-45315285D01*
X91117380Y-45220047D01*
X91117380Y-45029571D01*
X91165000Y-44934333D01*
X91212619Y-44886714D01*
X91307857Y-44839095D01*
X91355476Y-44839095D01*
X91450714Y-44886714D01*
X91498333Y-44934333D01*
X91545952Y-45029571D01*
X91545952Y-45220047D01*
X91593571Y-45315285D01*
X91641190Y-45362904D01*
X91736428Y-45410523D01*
X91926904Y-45410523D01*
X92022142Y-45362904D01*
X92069761Y-45315285D01*
X92117380Y-45220047D01*
X92117380Y-45029571D01*
X92069761Y-44934333D01*
X92022142Y-44886714D01*
X91926904Y-44839095D01*
X91736428Y-44839095D01*
X91641190Y-44886714D01*
X91593571Y-44934333D01*
X91545952Y-45029571D01*
%TO.C,R14*%
X252087142Y-102688380D02*
X251753809Y-102212190D01*
X251515714Y-102688380D02*
X251515714Y-101688380D01*
X251896666Y-101688380D01*
X251991904Y-101736000D01*
X252039523Y-101783619D01*
X252087142Y-101878857D01*
X252087142Y-102021714D01*
X252039523Y-102116952D01*
X251991904Y-102164571D01*
X251896666Y-102212190D01*
X251515714Y-102212190D01*
X253039523Y-102688380D02*
X252468095Y-102688380D01*
X252753809Y-102688380D02*
X252753809Y-101688380D01*
X252658571Y-101831238D01*
X252563333Y-101926476D01*
X252468095Y-101974095D01*
X253896666Y-102021714D02*
X253896666Y-102688380D01*
X253658571Y-101640761D02*
X253420476Y-102355047D01*
X254039523Y-102355047D01*
%TO.C,C17*%
X168631388Y-30604142D02*
X168583769Y-30651761D01*
X168440912Y-30699380D01*
X168345674Y-30699380D01*
X168202817Y-30651761D01*
X168107579Y-30556523D01*
X168059960Y-30461285D01*
X168012341Y-30270809D01*
X168012341Y-30127952D01*
X168059960Y-29937476D01*
X168107579Y-29842238D01*
X168202817Y-29747000D01*
X168345674Y-29699380D01*
X168440912Y-29699380D01*
X168583769Y-29747000D01*
X168631388Y-29794619D01*
X169583769Y-30699380D02*
X169012341Y-30699380D01*
X169298055Y-30699380D02*
X169298055Y-29699380D01*
X169202817Y-29842238D01*
X169107579Y-29937476D01*
X169012341Y-29985095D01*
X169917103Y-29699380D02*
X170583769Y-29699380D01*
X170155198Y-30699380D01*
%TO.C,R36*%
X109671380Y-70111857D02*
X109195190Y-70445190D01*
X109671380Y-70683285D02*
X108671380Y-70683285D01*
X108671380Y-70302333D01*
X108719000Y-70207095D01*
X108766619Y-70159476D01*
X108861857Y-70111857D01*
X109004714Y-70111857D01*
X109099952Y-70159476D01*
X109147571Y-70207095D01*
X109195190Y-70302333D01*
X109195190Y-70683285D01*
X108671380Y-69778523D02*
X108671380Y-69159476D01*
X109052333Y-69492809D01*
X109052333Y-69349952D01*
X109099952Y-69254714D01*
X109147571Y-69207095D01*
X109242809Y-69159476D01*
X109480904Y-69159476D01*
X109576142Y-69207095D01*
X109623761Y-69254714D01*
X109671380Y-69349952D01*
X109671380Y-69635666D01*
X109623761Y-69730904D01*
X109576142Y-69778523D01*
X108671380Y-68302333D02*
X108671380Y-68492809D01*
X108719000Y-68588047D01*
X108766619Y-68635666D01*
X108909476Y-68730904D01*
X109099952Y-68778523D01*
X109480904Y-68778523D01*
X109576142Y-68730904D01*
X109623761Y-68683285D01*
X109671380Y-68588047D01*
X109671380Y-68397571D01*
X109623761Y-68302333D01*
X109576142Y-68254714D01*
X109480904Y-68207095D01*
X109242809Y-68207095D01*
X109147571Y-68254714D01*
X109099952Y-68302333D01*
X109052333Y-68397571D01*
X109052333Y-68588047D01*
X109099952Y-68683285D01*
X109147571Y-68730904D01*
X109242809Y-68778523D01*
%TO.C,J2*%
X105729595Y-106767880D02*
X105158166Y-106767880D01*
X105443880Y-106767880D02*
X105443880Y-105767880D01*
X105348642Y-105910738D01*
X105253404Y-106005976D01*
X105158166Y-106053595D01*
X106062928Y-105767880D02*
X106729595Y-105767880D01*
X106301023Y-106767880D01*
X106967690Y-105767880D02*
X107301023Y-106767880D01*
X107634357Y-105767880D01*
X107967690Y-106386928D02*
X108729595Y-106386928D01*
X109110547Y-105767880D02*
X109729595Y-105767880D01*
X109396261Y-106148833D01*
X109539119Y-106148833D01*
X109634357Y-106196452D01*
X109681976Y-106244071D01*
X109729595Y-106339309D01*
X109729595Y-106577404D01*
X109681976Y-106672642D01*
X109634357Y-106720261D01*
X109539119Y-106767880D01*
X109253404Y-106767880D01*
X109158166Y-106720261D01*
X109110547Y-106672642D01*
X110634357Y-105767880D02*
X110158166Y-105767880D01*
X110110547Y-106244071D01*
X110158166Y-106196452D01*
X110253404Y-106148833D01*
X110491500Y-106148833D01*
X110586738Y-106196452D01*
X110634357Y-106244071D01*
X110681976Y-106339309D01*
X110681976Y-106577404D01*
X110634357Y-106672642D01*
X110586738Y-106720261D01*
X110491500Y-106767880D01*
X110253404Y-106767880D01*
X110158166Y-106720261D01*
X110110547Y-106672642D01*
X110967690Y-105767880D02*
X111301023Y-106767880D01*
X111634357Y-105767880D01*
X112729595Y-106767880D02*
X112729595Y-105767880D01*
X113205785Y-106767880D02*
X113205785Y-105767880D01*
X113777214Y-106767880D01*
X113777214Y-105767880D01*
%TO.C,L3*%
X218917380Y-37504666D02*
X218917380Y-37980857D01*
X217917380Y-37980857D01*
X217917380Y-37266571D02*
X217917380Y-36647523D01*
X218298333Y-36980857D01*
X218298333Y-36838000D01*
X218345952Y-36742761D01*
X218393571Y-36695142D01*
X218488809Y-36647523D01*
X218726904Y-36647523D01*
X218822142Y-36695142D01*
X218869761Y-36742761D01*
X218917380Y-36838000D01*
X218917380Y-37123714D01*
X218869761Y-37218952D01*
X218822142Y-37266571D01*
%TO.C,C39*%
X77290142Y-64904857D02*
X77337761Y-64952476D01*
X77385380Y-65095333D01*
X77385380Y-65190571D01*
X77337761Y-65333428D01*
X77242523Y-65428666D01*
X77147285Y-65476285D01*
X76956809Y-65523904D01*
X76813952Y-65523904D01*
X76623476Y-65476285D01*
X76528238Y-65428666D01*
X76433000Y-65333428D01*
X76385380Y-65190571D01*
X76385380Y-65095333D01*
X76433000Y-64952476D01*
X76480619Y-64904857D01*
X76385380Y-64571523D02*
X76385380Y-63952476D01*
X76766333Y-64285809D01*
X76766333Y-64142952D01*
X76813952Y-64047714D01*
X76861571Y-64000095D01*
X76956809Y-63952476D01*
X77194904Y-63952476D01*
X77290142Y-64000095D01*
X77337761Y-64047714D01*
X77385380Y-64142952D01*
X77385380Y-64428666D01*
X77337761Y-64523904D01*
X77290142Y-64571523D01*
X77385380Y-63476285D02*
X77385380Y-63285809D01*
X77337761Y-63190571D01*
X77290142Y-63142952D01*
X77147285Y-63047714D01*
X76956809Y-63000095D01*
X76575857Y-63000095D01*
X76480619Y-63047714D01*
X76433000Y-63095333D01*
X76385380Y-63190571D01*
X76385380Y-63381047D01*
X76433000Y-63476285D01*
X76480619Y-63523904D01*
X76575857Y-63571523D01*
X76813952Y-63571523D01*
X76909190Y-63523904D01*
X76956809Y-63476285D01*
X77004428Y-63381047D01*
X77004428Y-63190571D01*
X76956809Y-63095333D01*
X76909190Y-63047714D01*
X76813952Y-63000095D01*
%TO.C,C28*%
X247896142Y-99896142D02*
X247848523Y-99943761D01*
X247705666Y-99991380D01*
X247610428Y-99991380D01*
X247467571Y-99943761D01*
X247372333Y-99848523D01*
X247324714Y-99753285D01*
X247277095Y-99562809D01*
X247277095Y-99419952D01*
X247324714Y-99229476D01*
X247372333Y-99134238D01*
X247467571Y-99039000D01*
X247610428Y-98991380D01*
X247705666Y-98991380D01*
X247848523Y-99039000D01*
X247896142Y-99086619D01*
X248277095Y-99086619D02*
X248324714Y-99039000D01*
X248419952Y-98991380D01*
X248658047Y-98991380D01*
X248753285Y-99039000D01*
X248800904Y-99086619D01*
X248848523Y-99181857D01*
X248848523Y-99277095D01*
X248800904Y-99419952D01*
X248229476Y-99991380D01*
X248848523Y-99991380D01*
X249419952Y-99419952D02*
X249324714Y-99372333D01*
X249277095Y-99324714D01*
X249229476Y-99229476D01*
X249229476Y-99181857D01*
X249277095Y-99086619D01*
X249324714Y-99039000D01*
X249419952Y-98991380D01*
X249610428Y-98991380D01*
X249705666Y-99039000D01*
X249753285Y-99086619D01*
X249800904Y-99181857D01*
X249800904Y-99229476D01*
X249753285Y-99324714D01*
X249705666Y-99372333D01*
X249610428Y-99419952D01*
X249419952Y-99419952D01*
X249324714Y-99467571D01*
X249277095Y-99515190D01*
X249229476Y-99610428D01*
X249229476Y-99800904D01*
X249277095Y-99896142D01*
X249324714Y-99943761D01*
X249419952Y-99991380D01*
X249610428Y-99991380D01*
X249705666Y-99943761D01*
X249753285Y-99896142D01*
X249800904Y-99800904D01*
X249800904Y-99610428D01*
X249753285Y-99515190D01*
X249705666Y-99467571D01*
X249610428Y-99419952D01*
%TO.C,C44*%
X77417142Y-60713857D02*
X77464761Y-60761476D01*
X77512380Y-60904333D01*
X77512380Y-60999571D01*
X77464761Y-61142428D01*
X77369523Y-61237666D01*
X77274285Y-61285285D01*
X77083809Y-61332904D01*
X76940952Y-61332904D01*
X76750476Y-61285285D01*
X76655238Y-61237666D01*
X76560000Y-61142428D01*
X76512380Y-60999571D01*
X76512380Y-60904333D01*
X76560000Y-60761476D01*
X76607619Y-60713857D01*
X76845714Y-59856714D02*
X77512380Y-59856714D01*
X76464761Y-60094809D02*
X77179047Y-60332904D01*
X77179047Y-59713857D01*
X76845714Y-58904333D02*
X77512380Y-58904333D01*
X76464761Y-59142428D02*
X77179047Y-59380523D01*
X77179047Y-58761476D01*
%TO.C,D5*%
X144256380Y-65635095D02*
X143256380Y-65635095D01*
X143256380Y-65397000D01*
X143304000Y-65254142D01*
X143399238Y-65158904D01*
X143494476Y-65111285D01*
X143684952Y-65063666D01*
X143827809Y-65063666D01*
X144018285Y-65111285D01*
X144113523Y-65158904D01*
X144208761Y-65254142D01*
X144256380Y-65397000D01*
X144256380Y-65635095D01*
X143256380Y-64158904D02*
X143256380Y-64635095D01*
X143732571Y-64682714D01*
X143684952Y-64635095D01*
X143637333Y-64539857D01*
X143637333Y-64301761D01*
X143684952Y-64206523D01*
X143732571Y-64158904D01*
X143827809Y-64111285D01*
X144065904Y-64111285D01*
X144161142Y-64158904D01*
X144208761Y-64206523D01*
X144256380Y-64301761D01*
X144256380Y-64539857D01*
X144208761Y-64635095D01*
X144161142Y-64682714D01*
X145726380Y-72778904D02*
X144726380Y-72778904D01*
X145726380Y-72207476D02*
X145154952Y-72636047D01*
X144726380Y-72207476D02*
X145297809Y-72778904D01*
%TO.C,C2*%
X103282142Y-80176666D02*
X103329761Y-80224285D01*
X103377380Y-80367142D01*
X103377380Y-80462380D01*
X103329761Y-80605238D01*
X103234523Y-80700476D01*
X103139285Y-80748095D01*
X102948809Y-80795714D01*
X102805952Y-80795714D01*
X102615476Y-80748095D01*
X102520238Y-80700476D01*
X102425000Y-80605238D01*
X102377380Y-80462380D01*
X102377380Y-80367142D01*
X102425000Y-80224285D01*
X102472619Y-80176666D01*
X102472619Y-79795714D02*
X102425000Y-79748095D01*
X102377380Y-79652857D01*
X102377380Y-79414761D01*
X102425000Y-79319523D01*
X102472619Y-79271904D01*
X102567857Y-79224285D01*
X102663095Y-79224285D01*
X102805952Y-79271904D01*
X103377380Y-79843333D01*
X103377380Y-79224285D01*
%TO.C,R11*%
X142498380Y-92971857D02*
X142022190Y-93305190D01*
X142498380Y-93543285D02*
X141498380Y-93543285D01*
X141498380Y-93162333D01*
X141546000Y-93067095D01*
X141593619Y-93019476D01*
X141688857Y-92971857D01*
X141831714Y-92971857D01*
X141926952Y-93019476D01*
X141974571Y-93067095D01*
X142022190Y-93162333D01*
X142022190Y-93543285D01*
X142498380Y-92019476D02*
X142498380Y-92590904D01*
X142498380Y-92305190D02*
X141498380Y-92305190D01*
X141641238Y-92400428D01*
X141736476Y-92495666D01*
X141784095Y-92590904D01*
X142498380Y-91067095D02*
X142498380Y-91638523D01*
X142498380Y-91352809D02*
X141498380Y-91352809D01*
X141641238Y-91448047D01*
X141736476Y-91543285D01*
X141784095Y-91638523D01*
%TO.C,U11*%
X76070380Y-99028095D02*
X76879904Y-99028095D01*
X76975142Y-98980476D01*
X77022761Y-98932857D01*
X77070380Y-98837619D01*
X77070380Y-98647142D01*
X77022761Y-98551904D01*
X76975142Y-98504285D01*
X76879904Y-98456666D01*
X76070380Y-98456666D01*
X77070380Y-97456666D02*
X77070380Y-98028095D01*
X77070380Y-97742380D02*
X76070380Y-97742380D01*
X76213238Y-97837619D01*
X76308476Y-97932857D01*
X76356095Y-98028095D01*
X77070380Y-96504285D02*
X77070380Y-97075714D01*
X77070380Y-96790000D02*
X76070380Y-96790000D01*
X76213238Y-96885238D01*
X76308476Y-96980476D01*
X76356095Y-97075714D01*
%TO.C,U4*%
X126492095Y-77093380D02*
X126492095Y-77902904D01*
X126539714Y-77998142D01*
X126587333Y-78045761D01*
X126682571Y-78093380D01*
X126873047Y-78093380D01*
X126968285Y-78045761D01*
X127015904Y-77998142D01*
X127063523Y-77902904D01*
X127063523Y-77093380D01*
X127968285Y-77426714D02*
X127968285Y-78093380D01*
X127730190Y-77045761D02*
X127492095Y-77760047D01*
X128111142Y-77760047D01*
%TO.C,C12*%
X111498142Y-94562142D02*
X111450523Y-94609761D01*
X111307666Y-94657380D01*
X111212428Y-94657380D01*
X111069571Y-94609761D01*
X110974333Y-94514523D01*
X110926714Y-94419285D01*
X110879095Y-94228809D01*
X110879095Y-94085952D01*
X110926714Y-93895476D01*
X110974333Y-93800238D01*
X111069571Y-93705000D01*
X111212428Y-93657380D01*
X111307666Y-93657380D01*
X111450523Y-93705000D01*
X111498142Y-93752619D01*
X112450523Y-94657380D02*
X111879095Y-94657380D01*
X112164809Y-94657380D02*
X112164809Y-93657380D01*
X112069571Y-93800238D01*
X111974333Y-93895476D01*
X111879095Y-93943095D01*
X112831476Y-93752619D02*
X112879095Y-93705000D01*
X112974333Y-93657380D01*
X113212428Y-93657380D01*
X113307666Y-93705000D01*
X113355285Y-93752619D01*
X113402904Y-93847857D01*
X113402904Y-93943095D01*
X113355285Y-94085952D01*
X112783857Y-94657380D01*
X113402904Y-94657380D01*
%TO.C,U8*%
X100721095Y-30660380D02*
X100721095Y-31469904D01*
X100768714Y-31565142D01*
X100816333Y-31612761D01*
X100911571Y-31660380D01*
X101102047Y-31660380D01*
X101197285Y-31612761D01*
X101244904Y-31565142D01*
X101292523Y-31469904D01*
X101292523Y-30660380D01*
X101911571Y-31088952D02*
X101816333Y-31041333D01*
X101768714Y-30993714D01*
X101721095Y-30898476D01*
X101721095Y-30850857D01*
X101768714Y-30755619D01*
X101816333Y-30708000D01*
X101911571Y-30660380D01*
X102102047Y-30660380D01*
X102197285Y-30708000D01*
X102244904Y-30755619D01*
X102292523Y-30850857D01*
X102292523Y-30898476D01*
X102244904Y-30993714D01*
X102197285Y-31041333D01*
X102102047Y-31088952D01*
X101911571Y-31088952D01*
X101816333Y-31136571D01*
X101768714Y-31184190D01*
X101721095Y-31279428D01*
X101721095Y-31469904D01*
X101768714Y-31565142D01*
X101816333Y-31612761D01*
X101911571Y-31660380D01*
X102102047Y-31660380D01*
X102197285Y-31612761D01*
X102244904Y-31565142D01*
X102292523Y-31469904D01*
X102292523Y-31279428D01*
X102244904Y-31184190D01*
X102197285Y-31136571D01*
X102102047Y-31088952D01*
%TO.C,R48*%
X93591142Y-89480380D02*
X93257809Y-89004190D01*
X93019714Y-89480380D02*
X93019714Y-88480380D01*
X93400666Y-88480380D01*
X93495904Y-88528000D01*
X93543523Y-88575619D01*
X93591142Y-88670857D01*
X93591142Y-88813714D01*
X93543523Y-88908952D01*
X93495904Y-88956571D01*
X93400666Y-89004190D01*
X93019714Y-89004190D01*
X94448285Y-88813714D02*
X94448285Y-89480380D01*
X94210190Y-88432761D02*
X93972095Y-89147047D01*
X94591142Y-89147047D01*
X95114952Y-88908952D02*
X95019714Y-88861333D01*
X94972095Y-88813714D01*
X94924476Y-88718476D01*
X94924476Y-88670857D01*
X94972095Y-88575619D01*
X95019714Y-88528000D01*
X95114952Y-88480380D01*
X95305428Y-88480380D01*
X95400666Y-88528000D01*
X95448285Y-88575619D01*
X95495904Y-88670857D01*
X95495904Y-88718476D01*
X95448285Y-88813714D01*
X95400666Y-88861333D01*
X95305428Y-88908952D01*
X95114952Y-88908952D01*
X95019714Y-88956571D01*
X94972095Y-89004190D01*
X94924476Y-89099428D01*
X94924476Y-89289904D01*
X94972095Y-89385142D01*
X95019714Y-89432761D01*
X95114952Y-89480380D01*
X95305428Y-89480380D01*
X95400666Y-89432761D01*
X95448285Y-89385142D01*
X95495904Y-89289904D01*
X95495904Y-89099428D01*
X95448285Y-89004190D01*
X95400666Y-88956571D01*
X95305428Y-88908952D01*
%TO.C,C38*%
X93083142Y-60584142D02*
X93035523Y-60631761D01*
X92892666Y-60679380D01*
X92797428Y-60679380D01*
X92654571Y-60631761D01*
X92559333Y-60536523D01*
X92511714Y-60441285D01*
X92464095Y-60250809D01*
X92464095Y-60107952D01*
X92511714Y-59917476D01*
X92559333Y-59822238D01*
X92654571Y-59727000D01*
X92797428Y-59679380D01*
X92892666Y-59679380D01*
X93035523Y-59727000D01*
X93083142Y-59774619D01*
X93416476Y-59679380D02*
X94035523Y-59679380D01*
X93702190Y-60060333D01*
X93845047Y-60060333D01*
X93940285Y-60107952D01*
X93987904Y-60155571D01*
X94035523Y-60250809D01*
X94035523Y-60488904D01*
X93987904Y-60584142D01*
X93940285Y-60631761D01*
X93845047Y-60679380D01*
X93559333Y-60679380D01*
X93464095Y-60631761D01*
X93416476Y-60584142D01*
X94606952Y-60107952D02*
X94511714Y-60060333D01*
X94464095Y-60012714D01*
X94416476Y-59917476D01*
X94416476Y-59869857D01*
X94464095Y-59774619D01*
X94511714Y-59727000D01*
X94606952Y-59679380D01*
X94797428Y-59679380D01*
X94892666Y-59727000D01*
X94940285Y-59774619D01*
X94987904Y-59869857D01*
X94987904Y-59917476D01*
X94940285Y-60012714D01*
X94892666Y-60060333D01*
X94797428Y-60107952D01*
X94606952Y-60107952D01*
X94511714Y-60155571D01*
X94464095Y-60203190D01*
X94416476Y-60298428D01*
X94416476Y-60488904D01*
X94464095Y-60584142D01*
X94511714Y-60631761D01*
X94606952Y-60679380D01*
X94797428Y-60679380D01*
X94892666Y-60631761D01*
X94940285Y-60584142D01*
X94987904Y-60488904D01*
X94987904Y-60298428D01*
X94940285Y-60203190D01*
X94892666Y-60155571D01*
X94797428Y-60107952D01*
%TO.C,R10*%
X136390142Y-85543380D02*
X136056809Y-85067190D01*
X135818714Y-85543380D02*
X135818714Y-84543380D01*
X136199666Y-84543380D01*
X136294904Y-84591000D01*
X136342523Y-84638619D01*
X136390142Y-84733857D01*
X136390142Y-84876714D01*
X136342523Y-84971952D01*
X136294904Y-85019571D01*
X136199666Y-85067190D01*
X135818714Y-85067190D01*
X137342523Y-85543380D02*
X136771095Y-85543380D01*
X137056809Y-85543380D02*
X137056809Y-84543380D01*
X136961571Y-84686238D01*
X136866333Y-84781476D01*
X136771095Y-84829095D01*
X137961571Y-84543380D02*
X138056809Y-84543380D01*
X138152047Y-84591000D01*
X138199666Y-84638619D01*
X138247285Y-84733857D01*
X138294904Y-84924333D01*
X138294904Y-85162428D01*
X138247285Y-85352904D01*
X138199666Y-85448142D01*
X138152047Y-85495761D01*
X138056809Y-85543380D01*
X137961571Y-85543380D01*
X137866333Y-85495761D01*
X137818714Y-85448142D01*
X137771095Y-85352904D01*
X137723476Y-85162428D01*
X137723476Y-84924333D01*
X137771095Y-84733857D01*
X137818714Y-84638619D01*
X137866333Y-84591000D01*
X137961571Y-84543380D01*
%TO.C,D8*%
X135659904Y-80764380D02*
X135659904Y-79764380D01*
X135898000Y-79764380D01*
X136040857Y-79812000D01*
X136136095Y-79907238D01*
X136183714Y-80002476D01*
X136231333Y-80192952D01*
X136231333Y-80335809D01*
X136183714Y-80526285D01*
X136136095Y-80621523D01*
X136040857Y-80716761D01*
X135898000Y-80764380D01*
X135659904Y-80764380D01*
X136802761Y-80192952D02*
X136707523Y-80145333D01*
X136659904Y-80097714D01*
X136612285Y-80002476D01*
X136612285Y-79954857D01*
X136659904Y-79859619D01*
X136707523Y-79812000D01*
X136802761Y-79764380D01*
X136993238Y-79764380D01*
X137088476Y-79812000D01*
X137136095Y-79859619D01*
X137183714Y-79954857D01*
X137183714Y-80002476D01*
X137136095Y-80097714D01*
X137088476Y-80145333D01*
X136993238Y-80192952D01*
X136802761Y-80192952D01*
X136707523Y-80240571D01*
X136659904Y-80288190D01*
X136612285Y-80383428D01*
X136612285Y-80573904D01*
X136659904Y-80669142D01*
X136707523Y-80716761D01*
X136802761Y-80764380D01*
X136993238Y-80764380D01*
X137088476Y-80716761D01*
X137136095Y-80669142D01*
X137183714Y-80573904D01*
X137183714Y-80383428D01*
X137136095Y-80288190D01*
X137088476Y-80240571D01*
X136993238Y-80192952D01*
%TO.C,C34*%
X80777142Y-71889857D02*
X80824761Y-71937476D01*
X80872380Y-72080333D01*
X80872380Y-72175571D01*
X80824761Y-72318428D01*
X80729523Y-72413666D01*
X80634285Y-72461285D01*
X80443809Y-72508904D01*
X80300952Y-72508904D01*
X80110476Y-72461285D01*
X80015238Y-72413666D01*
X79920000Y-72318428D01*
X79872380Y-72175571D01*
X79872380Y-72080333D01*
X79920000Y-71937476D01*
X79967619Y-71889857D01*
X79872380Y-71556523D02*
X79872380Y-70937476D01*
X80253333Y-71270809D01*
X80253333Y-71127952D01*
X80300952Y-71032714D01*
X80348571Y-70985095D01*
X80443809Y-70937476D01*
X80681904Y-70937476D01*
X80777142Y-70985095D01*
X80824761Y-71032714D01*
X80872380Y-71127952D01*
X80872380Y-71413666D01*
X80824761Y-71508904D01*
X80777142Y-71556523D01*
X80205714Y-70080333D02*
X80872380Y-70080333D01*
X79824761Y-70318428D02*
X80539047Y-70556523D01*
X80539047Y-69937476D01*
%TO.C,U15*%
X101568095Y-86653619D02*
X101568095Y-85844095D01*
X101520476Y-85748857D01*
X101472857Y-85701238D01*
X101377619Y-85653619D01*
X101187142Y-85653619D01*
X101091904Y-85701238D01*
X101044285Y-85748857D01*
X100996666Y-85844095D01*
X100996666Y-86653619D01*
X99996666Y-85653619D02*
X100568095Y-85653619D01*
X100282380Y-85653619D02*
X100282380Y-86653619D01*
X100377619Y-86510761D01*
X100472857Y-86415523D01*
X100568095Y-86367904D01*
X99091904Y-86653619D02*
X99568095Y-86653619D01*
X99615714Y-86177428D01*
X99568095Y-86225047D01*
X99472857Y-86272666D01*
X99234761Y-86272666D01*
X99139523Y-86225047D01*
X99091904Y-86177428D01*
X99044285Y-86082190D01*
X99044285Y-85844095D01*
X99091904Y-85748857D01*
X99139523Y-85701238D01*
X99234761Y-85653619D01*
X99472857Y-85653619D01*
X99568095Y-85701238D01*
X99615714Y-85748857D01*
X107149900Y-83450180D02*
X107149900Y-83688276D01*
X106911804Y-83593038D02*
X107149900Y-83688276D01*
X107387995Y-83593038D01*
X107007042Y-83878752D02*
X107149900Y-83688276D01*
X107292757Y-83878752D01*
X107149900Y-84545419D02*
X107149900Y-84307323D01*
X107387995Y-84402561D02*
X107149900Y-84307323D01*
X106911804Y-84402561D01*
X107292757Y-84116847D02*
X107149900Y-84307323D01*
X107007042Y-84116847D01*
%TO.C,C56*%
X100912142Y-81414857D02*
X100959761Y-81462476D01*
X101007380Y-81605333D01*
X101007380Y-81700571D01*
X100959761Y-81843428D01*
X100864523Y-81938666D01*
X100769285Y-81986285D01*
X100578809Y-82033904D01*
X100435952Y-82033904D01*
X100245476Y-81986285D01*
X100150238Y-81938666D01*
X100055000Y-81843428D01*
X100007380Y-81700571D01*
X100007380Y-81605333D01*
X100055000Y-81462476D01*
X100102619Y-81414857D01*
X100007380Y-80510095D02*
X100007380Y-80986285D01*
X100483571Y-81033904D01*
X100435952Y-80986285D01*
X100388333Y-80891047D01*
X100388333Y-80652952D01*
X100435952Y-80557714D01*
X100483571Y-80510095D01*
X100578809Y-80462476D01*
X100816904Y-80462476D01*
X100912142Y-80510095D01*
X100959761Y-80557714D01*
X101007380Y-80652952D01*
X101007380Y-80891047D01*
X100959761Y-80986285D01*
X100912142Y-81033904D01*
X100007380Y-79605333D02*
X100007380Y-79795809D01*
X100055000Y-79891047D01*
X100102619Y-79938666D01*
X100245476Y-80033904D01*
X100435952Y-80081523D01*
X100816904Y-80081523D01*
X100912142Y-80033904D01*
X100959761Y-79986285D01*
X101007380Y-79891047D01*
X101007380Y-79700571D01*
X100959761Y-79605333D01*
X100912142Y-79557714D01*
X100816904Y-79510095D01*
X100578809Y-79510095D01*
X100483571Y-79557714D01*
X100435952Y-79605333D01*
X100388333Y-79700571D01*
X100388333Y-79891047D01*
X100435952Y-79986285D01*
X100483571Y-80033904D01*
X100578809Y-80081523D01*
%TO.C,C43*%
X78478142Y-92715142D02*
X78430523Y-92762761D01*
X78287666Y-92810380D01*
X78192428Y-92810380D01*
X78049571Y-92762761D01*
X77954333Y-92667523D01*
X77906714Y-92572285D01*
X77859095Y-92381809D01*
X77859095Y-92238952D01*
X77906714Y-92048476D01*
X77954333Y-91953238D01*
X78049571Y-91858000D01*
X78192428Y-91810380D01*
X78287666Y-91810380D01*
X78430523Y-91858000D01*
X78478142Y-91905619D01*
X79335285Y-92143714D02*
X79335285Y-92810380D01*
X79097190Y-91762761D02*
X78859095Y-92477047D01*
X79478142Y-92477047D01*
X79763857Y-91810380D02*
X80382904Y-91810380D01*
X80049571Y-92191333D01*
X80192428Y-92191333D01*
X80287666Y-92238952D01*
X80335285Y-92286571D01*
X80382904Y-92381809D01*
X80382904Y-92619904D01*
X80335285Y-92715142D01*
X80287666Y-92762761D01*
X80192428Y-92810380D01*
X79906714Y-92810380D01*
X79811476Y-92762761D01*
X79763857Y-92715142D01*
%TO.C,C24*%
X236366642Y-73974857D02*
X236414261Y-74022476D01*
X236461880Y-74165333D01*
X236461880Y-74260571D01*
X236414261Y-74403428D01*
X236319023Y-74498666D01*
X236223785Y-74546285D01*
X236033309Y-74593904D01*
X235890452Y-74593904D01*
X235699976Y-74546285D01*
X235604738Y-74498666D01*
X235509500Y-74403428D01*
X235461880Y-74260571D01*
X235461880Y-74165333D01*
X235509500Y-74022476D01*
X235557119Y-73974857D01*
X235557119Y-73593904D02*
X235509500Y-73546285D01*
X235461880Y-73451047D01*
X235461880Y-73212952D01*
X235509500Y-73117714D01*
X235557119Y-73070095D01*
X235652357Y-73022476D01*
X235747595Y-73022476D01*
X235890452Y-73070095D01*
X236461880Y-73641523D01*
X236461880Y-73022476D01*
X235795214Y-72165333D02*
X236461880Y-72165333D01*
X235414261Y-72403428D02*
X236128547Y-72641523D01*
X236128547Y-72022476D01*
%TO.C,U7*%
X100721095Y-19357380D02*
X100721095Y-20166904D01*
X100768714Y-20262142D01*
X100816333Y-20309761D01*
X100911571Y-20357380D01*
X101102047Y-20357380D01*
X101197285Y-20309761D01*
X101244904Y-20262142D01*
X101292523Y-20166904D01*
X101292523Y-19357380D01*
X101673476Y-19357380D02*
X102340142Y-19357380D01*
X101911571Y-20357380D01*
%TO.C,U9*%
X79883095Y-58380380D02*
X79883095Y-59189904D01*
X79930714Y-59285142D01*
X79978333Y-59332761D01*
X80073571Y-59380380D01*
X80264047Y-59380380D01*
X80359285Y-59332761D01*
X80406904Y-59285142D01*
X80454523Y-59189904D01*
X80454523Y-58380380D01*
X80978333Y-59380380D02*
X81168809Y-59380380D01*
X81264047Y-59332761D01*
X81311666Y-59285142D01*
X81406904Y-59142285D01*
X81454523Y-58951809D01*
X81454523Y-58570857D01*
X81406904Y-58475619D01*
X81359285Y-58428000D01*
X81264047Y-58380380D01*
X81073571Y-58380380D01*
X80978333Y-58428000D01*
X80930714Y-58475619D01*
X80883095Y-58570857D01*
X80883095Y-58808952D01*
X80930714Y-58904190D01*
X80978333Y-58951809D01*
X81073571Y-58999428D01*
X81264047Y-58999428D01*
X81359285Y-58951809D01*
X81406904Y-58904190D01*
X81454523Y-58808952D01*
%TO.C,D4*%
X135659904Y-50030380D02*
X135659904Y-49030380D01*
X135898000Y-49030380D01*
X136040857Y-49078000D01*
X136136095Y-49173238D01*
X136183714Y-49268476D01*
X136231333Y-49458952D01*
X136231333Y-49601809D01*
X136183714Y-49792285D01*
X136136095Y-49887523D01*
X136040857Y-49982761D01*
X135898000Y-50030380D01*
X135659904Y-50030380D01*
X137088476Y-49363714D02*
X137088476Y-50030380D01*
X136850380Y-48982761D02*
X136612285Y-49697047D01*
X137231333Y-49697047D01*
%TO.C,D7*%
X185705380Y-95734095D02*
X184705380Y-95734095D01*
X184705380Y-95496000D01*
X184753000Y-95353142D01*
X184848238Y-95257904D01*
X184943476Y-95210285D01*
X185133952Y-95162666D01*
X185276809Y-95162666D01*
X185467285Y-95210285D01*
X185562523Y-95257904D01*
X185657761Y-95353142D01*
X185705380Y-95496000D01*
X185705380Y-95734095D01*
X184705380Y-94829333D02*
X184705380Y-94162666D01*
X185705380Y-94591238D01*
X184235380Y-87637904D02*
X183235380Y-87637904D01*
X184235380Y-87066476D02*
X183663952Y-87495047D01*
X183235380Y-87066476D02*
X183806809Y-87637904D01*
%TO.C,C27*%
X248023142Y-102690142D02*
X247975523Y-102737761D01*
X247832666Y-102785380D01*
X247737428Y-102785380D01*
X247594571Y-102737761D01*
X247499333Y-102642523D01*
X247451714Y-102547285D01*
X247404095Y-102356809D01*
X247404095Y-102213952D01*
X247451714Y-102023476D01*
X247499333Y-101928238D01*
X247594571Y-101833000D01*
X247737428Y-101785380D01*
X247832666Y-101785380D01*
X247975523Y-101833000D01*
X248023142Y-101880619D01*
X248404095Y-101880619D02*
X248451714Y-101833000D01*
X248546952Y-101785380D01*
X248785047Y-101785380D01*
X248880285Y-101833000D01*
X248927904Y-101880619D01*
X248975523Y-101975857D01*
X248975523Y-102071095D01*
X248927904Y-102213952D01*
X248356476Y-102785380D01*
X248975523Y-102785380D01*
X249308857Y-101785380D02*
X249975523Y-101785380D01*
X249546952Y-102785380D01*
%TO.C,U3*%
X121705619Y-96774095D02*
X120896095Y-96774095D01*
X120800857Y-96821714D01*
X120753238Y-96869333D01*
X120705619Y-96964571D01*
X120705619Y-97155047D01*
X120753238Y-97250285D01*
X120800857Y-97297904D01*
X120896095Y-97345523D01*
X121705619Y-97345523D01*
X121705619Y-97726476D02*
X121705619Y-98345523D01*
X121324666Y-98012190D01*
X121324666Y-98155047D01*
X121277047Y-98250285D01*
X121229428Y-98297904D01*
X121134190Y-98345523D01*
X120896095Y-98345523D01*
X120800857Y-98297904D01*
X120753238Y-98250285D01*
X120705619Y-98155047D01*
X120705619Y-97869333D01*
X120753238Y-97774095D01*
X120800857Y-97726476D01*
X119597419Y-90716100D02*
X119359323Y-90716100D01*
X119454561Y-90478004D02*
X119359323Y-90716100D01*
X119454561Y-90954195D01*
X119168847Y-90573242D02*
X119359323Y-90716100D01*
X119168847Y-90858957D01*
X118502180Y-90716100D02*
X118740276Y-90716100D01*
X118645038Y-90954195D02*
X118740276Y-90716100D01*
X118645038Y-90478004D01*
X118930752Y-90858957D02*
X118740276Y-90716100D01*
X118930752Y-90573242D01*
%TO.C,J5*%
X78914666Y-51185380D02*
X78914666Y-51899666D01*
X78867047Y-52042523D01*
X78771809Y-52137761D01*
X78628952Y-52185380D01*
X78533714Y-52185380D01*
X79867047Y-51185380D02*
X79390857Y-51185380D01*
X79343238Y-51661571D01*
X79390857Y-51613952D01*
X79486095Y-51566333D01*
X79724190Y-51566333D01*
X79819428Y-51613952D01*
X79867047Y-51661571D01*
X79914666Y-51756809D01*
X79914666Y-51994904D01*
X79867047Y-52090142D01*
X79819428Y-52137761D01*
X79724190Y-52185380D01*
X79486095Y-52185380D01*
X79390857Y-52137761D01*
X79343238Y-52090142D01*
%TO.C,C53*%
X87495142Y-90048142D02*
X87447523Y-90095761D01*
X87304666Y-90143380D01*
X87209428Y-90143380D01*
X87066571Y-90095761D01*
X86971333Y-90000523D01*
X86923714Y-89905285D01*
X86876095Y-89714809D01*
X86876095Y-89571952D01*
X86923714Y-89381476D01*
X86971333Y-89286238D01*
X87066571Y-89191000D01*
X87209428Y-89143380D01*
X87304666Y-89143380D01*
X87447523Y-89191000D01*
X87495142Y-89238619D01*
X88399904Y-89143380D02*
X87923714Y-89143380D01*
X87876095Y-89619571D01*
X87923714Y-89571952D01*
X88018952Y-89524333D01*
X88257047Y-89524333D01*
X88352285Y-89571952D01*
X88399904Y-89619571D01*
X88447523Y-89714809D01*
X88447523Y-89952904D01*
X88399904Y-90048142D01*
X88352285Y-90095761D01*
X88257047Y-90143380D01*
X88018952Y-90143380D01*
X87923714Y-90095761D01*
X87876095Y-90048142D01*
X88780857Y-89143380D02*
X89399904Y-89143380D01*
X89066571Y-89524333D01*
X89209428Y-89524333D01*
X89304666Y-89571952D01*
X89352285Y-89619571D01*
X89399904Y-89714809D01*
X89399904Y-89952904D01*
X89352285Y-90048142D01*
X89304666Y-90095761D01*
X89209428Y-90143380D01*
X88923714Y-90143380D01*
X88828476Y-90095761D01*
X88780857Y-90048142D01*
%TO.C,R46*%
X78859142Y-56077380D02*
X78525809Y-55601190D01*
X78287714Y-56077380D02*
X78287714Y-55077380D01*
X78668666Y-55077380D01*
X78763904Y-55125000D01*
X78811523Y-55172619D01*
X78859142Y-55267857D01*
X78859142Y-55410714D01*
X78811523Y-55505952D01*
X78763904Y-55553571D01*
X78668666Y-55601190D01*
X78287714Y-55601190D01*
X79716285Y-55410714D02*
X79716285Y-56077380D01*
X79478190Y-55029761D02*
X79240095Y-55744047D01*
X79859142Y-55744047D01*
X80668666Y-55077380D02*
X80478190Y-55077380D01*
X80382952Y-55125000D01*
X80335333Y-55172619D01*
X80240095Y-55315476D01*
X80192476Y-55505952D01*
X80192476Y-55886904D01*
X80240095Y-55982142D01*
X80287714Y-56029761D01*
X80382952Y-56077380D01*
X80573428Y-56077380D01*
X80668666Y-56029761D01*
X80716285Y-55982142D01*
X80763904Y-55886904D01*
X80763904Y-55648809D01*
X80716285Y-55553571D01*
X80668666Y-55505952D01*
X80573428Y-55458333D01*
X80382952Y-55458333D01*
X80287714Y-55505952D01*
X80240095Y-55553571D01*
X80192476Y-55648809D01*
%TO.C,C29*%
X249039142Y-97610142D02*
X248991523Y-97657761D01*
X248848666Y-97705380D01*
X248753428Y-97705380D01*
X248610571Y-97657761D01*
X248515333Y-97562523D01*
X248467714Y-97467285D01*
X248420095Y-97276809D01*
X248420095Y-97133952D01*
X248467714Y-96943476D01*
X248515333Y-96848238D01*
X248610571Y-96753000D01*
X248753428Y-96705380D01*
X248848666Y-96705380D01*
X248991523Y-96753000D01*
X249039142Y-96800619D01*
X249420095Y-96800619D02*
X249467714Y-96753000D01*
X249562952Y-96705380D01*
X249801047Y-96705380D01*
X249896285Y-96753000D01*
X249943904Y-96800619D01*
X249991523Y-96895857D01*
X249991523Y-96991095D01*
X249943904Y-97133952D01*
X249372476Y-97705380D01*
X249991523Y-97705380D01*
X250467714Y-97705380D02*
X250658190Y-97705380D01*
X250753428Y-97657761D01*
X250801047Y-97610142D01*
X250896285Y-97467285D01*
X250943904Y-97276809D01*
X250943904Y-96895857D01*
X250896285Y-96800619D01*
X250848666Y-96753000D01*
X250753428Y-96705380D01*
X250562952Y-96705380D01*
X250467714Y-96753000D01*
X250420095Y-96800619D01*
X250372476Y-96895857D01*
X250372476Y-97133952D01*
X250420095Y-97229190D01*
X250467714Y-97276809D01*
X250562952Y-97324428D01*
X250753428Y-97324428D01*
X250848666Y-97276809D01*
X250896285Y-97229190D01*
X250943904Y-97133952D01*
%TO.C,D1*%
X195730904Y-27121380D02*
X195730904Y-26121380D01*
X195969000Y-26121380D01*
X196111857Y-26169000D01*
X196207095Y-26264238D01*
X196254714Y-26359476D01*
X196302333Y-26549952D01*
X196302333Y-26692809D01*
X196254714Y-26883285D01*
X196207095Y-26978523D01*
X196111857Y-27073761D01*
X195969000Y-27121380D01*
X195730904Y-27121380D01*
X197254714Y-27121380D02*
X196683285Y-27121380D01*
X196969000Y-27121380D02*
X196969000Y-26121380D01*
X196873761Y-26264238D01*
X196778523Y-26359476D01*
X196683285Y-26407095D01*
%TO.C,R15*%
X251833142Y-99894380D02*
X251499809Y-99418190D01*
X251261714Y-99894380D02*
X251261714Y-98894380D01*
X251642666Y-98894380D01*
X251737904Y-98942000D01*
X251785523Y-98989619D01*
X251833142Y-99084857D01*
X251833142Y-99227714D01*
X251785523Y-99322952D01*
X251737904Y-99370571D01*
X251642666Y-99418190D01*
X251261714Y-99418190D01*
X252785523Y-99894380D02*
X252214095Y-99894380D01*
X252499809Y-99894380D02*
X252499809Y-98894380D01*
X252404571Y-99037238D01*
X252309333Y-99132476D01*
X252214095Y-99180095D01*
X253690285Y-98894380D02*
X253214095Y-98894380D01*
X253166476Y-99370571D01*
X253214095Y-99322952D01*
X253309333Y-99275333D01*
X253547428Y-99275333D01*
X253642666Y-99322952D01*
X253690285Y-99370571D01*
X253737904Y-99465809D01*
X253737904Y-99703904D01*
X253690285Y-99799142D01*
X253642666Y-99846761D01*
X253547428Y-99894380D01*
X253309333Y-99894380D01*
X253214095Y-99846761D01*
X253166476Y-99799142D01*
%TO.C,C35*%
X82542142Y-60203142D02*
X82494523Y-60250761D01*
X82351666Y-60298380D01*
X82256428Y-60298380D01*
X82113571Y-60250761D01*
X82018333Y-60155523D01*
X81970714Y-60060285D01*
X81923095Y-59869809D01*
X81923095Y-59726952D01*
X81970714Y-59536476D01*
X82018333Y-59441238D01*
X82113571Y-59346000D01*
X82256428Y-59298380D01*
X82351666Y-59298380D01*
X82494523Y-59346000D01*
X82542142Y-59393619D01*
X82875476Y-59298380D02*
X83494523Y-59298380D01*
X83161190Y-59679333D01*
X83304047Y-59679333D01*
X83399285Y-59726952D01*
X83446904Y-59774571D01*
X83494523Y-59869809D01*
X83494523Y-60107904D01*
X83446904Y-60203142D01*
X83399285Y-60250761D01*
X83304047Y-60298380D01*
X83018333Y-60298380D01*
X82923095Y-60250761D01*
X82875476Y-60203142D01*
X84399285Y-59298380D02*
X83923095Y-59298380D01*
X83875476Y-59774571D01*
X83923095Y-59726952D01*
X84018333Y-59679333D01*
X84256428Y-59679333D01*
X84351666Y-59726952D01*
X84399285Y-59774571D01*
X84446904Y-59869809D01*
X84446904Y-60107904D01*
X84399285Y-60203142D01*
X84351666Y-60250761D01*
X84256428Y-60298380D01*
X84018333Y-60298380D01*
X83923095Y-60250761D01*
X83875476Y-60203142D01*
%TO.C,U14*%
X81439380Y-83407095D02*
X82248904Y-83407095D01*
X82344142Y-83359476D01*
X82391761Y-83311857D01*
X82439380Y-83216619D01*
X82439380Y-83026142D01*
X82391761Y-82930904D01*
X82344142Y-82883285D01*
X82248904Y-82835666D01*
X81439380Y-82835666D01*
X82439380Y-81835666D02*
X82439380Y-82407095D01*
X82439380Y-82121380D02*
X81439380Y-82121380D01*
X81582238Y-82216619D01*
X81677476Y-82311857D01*
X81725095Y-82407095D01*
X81772714Y-80978523D02*
X82439380Y-80978523D01*
X81391761Y-81216619D02*
X82106047Y-81454714D01*
X82106047Y-80835666D01*
%TO.C,L1*%
X220142380Y-37504666D02*
X220142380Y-37980857D01*
X219142380Y-37980857D01*
X220142380Y-36647523D02*
X220142380Y-37218952D01*
X220142380Y-36933238D02*
X219142380Y-36933238D01*
X219285238Y-37028476D01*
X219380476Y-37123714D01*
X219428095Y-37218952D01*
%TO.C,R50*%
X97401142Y-92780380D02*
X97067809Y-92304190D01*
X96829714Y-92780380D02*
X96829714Y-91780380D01*
X97210666Y-91780380D01*
X97305904Y-91828000D01*
X97353523Y-91875619D01*
X97401142Y-91970857D01*
X97401142Y-92113714D01*
X97353523Y-92208952D01*
X97305904Y-92256571D01*
X97210666Y-92304190D01*
X96829714Y-92304190D01*
X98305904Y-91780380D02*
X97829714Y-91780380D01*
X97782095Y-92256571D01*
X97829714Y-92208952D01*
X97924952Y-92161333D01*
X98163047Y-92161333D01*
X98258285Y-92208952D01*
X98305904Y-92256571D01*
X98353523Y-92351809D01*
X98353523Y-92589904D01*
X98305904Y-92685142D01*
X98258285Y-92732761D01*
X98163047Y-92780380D01*
X97924952Y-92780380D01*
X97829714Y-92732761D01*
X97782095Y-92685142D01*
X98972571Y-91780380D02*
X99067809Y-91780380D01*
X99163047Y-91828000D01*
X99210666Y-91875619D01*
X99258285Y-91970857D01*
X99305904Y-92161333D01*
X99305904Y-92399428D01*
X99258285Y-92589904D01*
X99210666Y-92685142D01*
X99163047Y-92732761D01*
X99067809Y-92780380D01*
X98972571Y-92780380D01*
X98877333Y-92732761D01*
X98829714Y-92685142D01*
X98782095Y-92589904D01*
X98734476Y-92399428D01*
X98734476Y-92161333D01*
X98782095Y-91970857D01*
X98829714Y-91875619D01*
X98877333Y-91828000D01*
X98972571Y-91780380D01*
%TO.C,L2*%
X216241333Y-74595380D02*
X215765142Y-74595380D01*
X215765142Y-73595380D01*
X216527047Y-73690619D02*
X216574666Y-73643000D01*
X216669904Y-73595380D01*
X216908000Y-73595380D01*
X217003238Y-73643000D01*
X217050857Y-73690619D01*
X217098476Y-73785857D01*
X217098476Y-73881095D01*
X217050857Y-74023952D01*
X216479428Y-74595380D01*
X217098476Y-74595380D01*
%TO.C,C20*%
X159935142Y-37599857D02*
X159982761Y-37647476D01*
X160030380Y-37790333D01*
X160030380Y-37885571D01*
X159982761Y-38028428D01*
X159887523Y-38123666D01*
X159792285Y-38171285D01*
X159601809Y-38218904D01*
X159458952Y-38218904D01*
X159268476Y-38171285D01*
X159173238Y-38123666D01*
X159078000Y-38028428D01*
X159030380Y-37885571D01*
X159030380Y-37790333D01*
X159078000Y-37647476D01*
X159125619Y-37599857D01*
X159125619Y-37218904D02*
X159078000Y-37171285D01*
X159030380Y-37076047D01*
X159030380Y-36837952D01*
X159078000Y-36742714D01*
X159125619Y-36695095D01*
X159220857Y-36647476D01*
X159316095Y-36647476D01*
X159458952Y-36695095D01*
X160030380Y-37266523D01*
X160030380Y-36647476D01*
X159030380Y-36028428D02*
X159030380Y-35933190D01*
X159078000Y-35837952D01*
X159125619Y-35790333D01*
X159220857Y-35742714D01*
X159411333Y-35695095D01*
X159649428Y-35695095D01*
X159839904Y-35742714D01*
X159935142Y-35790333D01*
X159982761Y-35837952D01*
X160030380Y-35933190D01*
X160030380Y-36028428D01*
X159982761Y-36123666D01*
X159935142Y-36171285D01*
X159839904Y-36218904D01*
X159649428Y-36266523D01*
X159411333Y-36266523D01*
X159220857Y-36218904D01*
X159125619Y-36171285D01*
X159078000Y-36123666D01*
X159030380Y-36028428D01*
%TO.C,C47*%
X89566142Y-46616857D02*
X89613761Y-46664476D01*
X89661380Y-46807333D01*
X89661380Y-46902571D01*
X89613761Y-47045428D01*
X89518523Y-47140666D01*
X89423285Y-47188285D01*
X89232809Y-47235904D01*
X89089952Y-47235904D01*
X88899476Y-47188285D01*
X88804238Y-47140666D01*
X88709000Y-47045428D01*
X88661380Y-46902571D01*
X88661380Y-46807333D01*
X88709000Y-46664476D01*
X88756619Y-46616857D01*
X88994714Y-45759714D02*
X89661380Y-45759714D01*
X88613761Y-45997809D02*
X89328047Y-46235904D01*
X89328047Y-45616857D01*
X88661380Y-45331142D02*
X88661380Y-44664476D01*
X89661380Y-45093047D01*
%TO.C,R38*%
X110052380Y-29852857D02*
X109576190Y-30186190D01*
X110052380Y-30424285D02*
X109052380Y-30424285D01*
X109052380Y-30043333D01*
X109100000Y-29948095D01*
X109147619Y-29900476D01*
X109242857Y-29852857D01*
X109385714Y-29852857D01*
X109480952Y-29900476D01*
X109528571Y-29948095D01*
X109576190Y-30043333D01*
X109576190Y-30424285D01*
X109052380Y-29519523D02*
X109052380Y-28900476D01*
X109433333Y-29233809D01*
X109433333Y-29090952D01*
X109480952Y-28995714D01*
X109528571Y-28948095D01*
X109623809Y-28900476D01*
X109861904Y-28900476D01*
X109957142Y-28948095D01*
X110004761Y-28995714D01*
X110052380Y-29090952D01*
X110052380Y-29376666D01*
X110004761Y-29471904D01*
X109957142Y-29519523D01*
X109480952Y-28329047D02*
X109433333Y-28424285D01*
X109385714Y-28471904D01*
X109290476Y-28519523D01*
X109242857Y-28519523D01*
X109147619Y-28471904D01*
X109100000Y-28424285D01*
X109052380Y-28329047D01*
X109052380Y-28138571D01*
X109100000Y-28043333D01*
X109147619Y-27995714D01*
X109242857Y-27948095D01*
X109290476Y-27948095D01*
X109385714Y-27995714D01*
X109433333Y-28043333D01*
X109480952Y-28138571D01*
X109480952Y-28329047D01*
X109528571Y-28424285D01*
X109576190Y-28471904D01*
X109671428Y-28519523D01*
X109861904Y-28519523D01*
X109957142Y-28471904D01*
X110004761Y-28424285D01*
X110052380Y-28329047D01*
X110052380Y-28138571D01*
X110004761Y-28043333D01*
X109957142Y-27995714D01*
X109861904Y-27948095D01*
X109671428Y-27948095D01*
X109576190Y-27995714D01*
X109528571Y-28043333D01*
X109480952Y-28138571D01*
%TO.C,C19*%
X106246142Y-80271857D02*
X106293761Y-80319476D01*
X106341380Y-80462333D01*
X106341380Y-80557571D01*
X106293761Y-80700428D01*
X106198523Y-80795666D01*
X106103285Y-80843285D01*
X105912809Y-80890904D01*
X105769952Y-80890904D01*
X105579476Y-80843285D01*
X105484238Y-80795666D01*
X105389000Y-80700428D01*
X105341380Y-80557571D01*
X105341380Y-80462333D01*
X105389000Y-80319476D01*
X105436619Y-80271857D01*
X106341380Y-79319476D02*
X106341380Y-79890904D01*
X106341380Y-79605190D02*
X105341380Y-79605190D01*
X105484238Y-79700428D01*
X105579476Y-79795666D01*
X105627095Y-79890904D01*
X106341380Y-78843285D02*
X106341380Y-78652809D01*
X106293761Y-78557571D01*
X106246142Y-78509952D01*
X106103285Y-78414714D01*
X105912809Y-78367095D01*
X105531857Y-78367095D01*
X105436619Y-78414714D01*
X105389000Y-78462333D01*
X105341380Y-78557571D01*
X105341380Y-78748047D01*
X105389000Y-78843285D01*
X105436619Y-78890904D01*
X105531857Y-78938523D01*
X105769952Y-78938523D01*
X105865190Y-78890904D01*
X105912809Y-78843285D01*
X105960428Y-78748047D01*
X105960428Y-78557571D01*
X105912809Y-78462333D01*
X105865190Y-78414714D01*
X105769952Y-78367095D01*
%TO.C,U10*%
X100234904Y-60456380D02*
X100234904Y-61265904D01*
X100282523Y-61361142D01*
X100330142Y-61408761D01*
X100425380Y-61456380D01*
X100615857Y-61456380D01*
X100711095Y-61408761D01*
X100758714Y-61361142D01*
X100806333Y-61265904D01*
X100806333Y-60456380D01*
X101806333Y-61456380D02*
X101234904Y-61456380D01*
X101520619Y-61456380D02*
X101520619Y-60456380D01*
X101425380Y-60599238D01*
X101330142Y-60694476D01*
X101234904Y-60742095D01*
X102425380Y-60456380D02*
X102520619Y-60456380D01*
X102615857Y-60504000D01*
X102663476Y-60551619D01*
X102711095Y-60646857D01*
X102758714Y-60837333D01*
X102758714Y-61075428D01*
X102711095Y-61265904D01*
X102663476Y-61361142D01*
X102615857Y-61408761D01*
X102520619Y-61456380D01*
X102425380Y-61456380D01*
X102330142Y-61408761D01*
X102282523Y-61361142D01*
X102234904Y-61265904D01*
X102187285Y-61075428D01*
X102187285Y-60837333D01*
X102234904Y-60646857D01*
X102282523Y-60551619D01*
X102330142Y-60504000D01*
X102425380Y-60456380D01*
%TO.C,R44*%
X82288142Y-89480380D02*
X81954809Y-89004190D01*
X81716714Y-89480380D02*
X81716714Y-88480380D01*
X82097666Y-88480380D01*
X82192904Y-88528000D01*
X82240523Y-88575619D01*
X82288142Y-88670857D01*
X82288142Y-88813714D01*
X82240523Y-88908952D01*
X82192904Y-88956571D01*
X82097666Y-89004190D01*
X81716714Y-89004190D01*
X83145285Y-88813714D02*
X83145285Y-89480380D01*
X82907190Y-88432761D02*
X82669095Y-89147047D01*
X83288142Y-89147047D01*
X84097666Y-88813714D02*
X84097666Y-89480380D01*
X83859571Y-88432761D02*
X83621476Y-89147047D01*
X84240523Y-89147047D01*
%TO.C,C37*%
X92357142Y-73988142D02*
X92309523Y-74035761D01*
X92166666Y-74083380D01*
X92071428Y-74083380D01*
X91928571Y-74035761D01*
X91833333Y-73940523D01*
X91785714Y-73845285D01*
X91738095Y-73654809D01*
X91738095Y-73511952D01*
X91785714Y-73321476D01*
X91833333Y-73226238D01*
X91928571Y-73131000D01*
X92071428Y-73083380D01*
X92166666Y-73083380D01*
X92309523Y-73131000D01*
X92357142Y-73178619D01*
X92690476Y-73083380D02*
X93309523Y-73083380D01*
X92976190Y-73464333D01*
X93119047Y-73464333D01*
X93214285Y-73511952D01*
X93261904Y-73559571D01*
X93309523Y-73654809D01*
X93309523Y-73892904D01*
X93261904Y-73988142D01*
X93214285Y-74035761D01*
X93119047Y-74083380D01*
X92833333Y-74083380D01*
X92738095Y-74035761D01*
X92690476Y-73988142D01*
X93642857Y-73083380D02*
X94309523Y-73083380D01*
X93880952Y-74083380D01*
%TO.C,C4*%
X168820142Y-64428666D02*
X168867761Y-64476285D01*
X168915380Y-64619142D01*
X168915380Y-64714380D01*
X168867761Y-64857238D01*
X168772523Y-64952476D01*
X168677285Y-65000095D01*
X168486809Y-65047714D01*
X168343952Y-65047714D01*
X168153476Y-65000095D01*
X168058238Y-64952476D01*
X167963000Y-64857238D01*
X167915380Y-64714380D01*
X167915380Y-64619142D01*
X167963000Y-64476285D01*
X168010619Y-64428666D01*
X168248714Y-63571523D02*
X168915380Y-63571523D01*
X167867761Y-63809619D02*
X168582047Y-64047714D01*
X168582047Y-63428666D01*
%TO.C,C11*%
X159168142Y-64650857D02*
X159215761Y-64698476D01*
X159263380Y-64841333D01*
X159263380Y-64936571D01*
X159215761Y-65079428D01*
X159120523Y-65174666D01*
X159025285Y-65222285D01*
X158834809Y-65269904D01*
X158691952Y-65269904D01*
X158501476Y-65222285D01*
X158406238Y-65174666D01*
X158311000Y-65079428D01*
X158263380Y-64936571D01*
X158263380Y-64841333D01*
X158311000Y-64698476D01*
X158358619Y-64650857D01*
X159263380Y-63698476D02*
X159263380Y-64269904D01*
X159263380Y-63984190D02*
X158263380Y-63984190D01*
X158406238Y-64079428D01*
X158501476Y-64174666D01*
X158549095Y-64269904D01*
X159263380Y-62746095D02*
X159263380Y-63317523D01*
X159263380Y-63031809D02*
X158263380Y-63031809D01*
X158406238Y-63127047D01*
X158501476Y-63222285D01*
X158549095Y-63317523D01*
%TO.C,U2*%
X109728095Y-88202380D02*
X109728095Y-89011904D01*
X109775714Y-89107142D01*
X109823333Y-89154761D01*
X109918571Y-89202380D01*
X110109047Y-89202380D01*
X110204285Y-89154761D01*
X110251904Y-89107142D01*
X110299523Y-89011904D01*
X110299523Y-88202380D01*
X110728095Y-88297619D02*
X110775714Y-88250000D01*
X110870952Y-88202380D01*
X111109047Y-88202380D01*
X111204285Y-88250000D01*
X111251904Y-88297619D01*
X111299523Y-88392857D01*
X111299523Y-88488095D01*
X111251904Y-88630952D01*
X110680476Y-89202380D01*
X111299523Y-89202380D01*
%TO.C,U13*%
X98348380Y-99028095D02*
X99157904Y-99028095D01*
X99253142Y-98980476D01*
X99300761Y-98932857D01*
X99348380Y-98837619D01*
X99348380Y-98647142D01*
X99300761Y-98551904D01*
X99253142Y-98504285D01*
X99157904Y-98456666D01*
X98348380Y-98456666D01*
X99348380Y-97456666D02*
X99348380Y-98028095D01*
X99348380Y-97742380D02*
X98348380Y-97742380D01*
X98491238Y-97837619D01*
X98586476Y-97932857D01*
X98634095Y-98028095D01*
X98348380Y-97123333D02*
X98348380Y-96504285D01*
X98729333Y-96837619D01*
X98729333Y-96694761D01*
X98776952Y-96599523D01*
X98824571Y-96551904D01*
X98919809Y-96504285D01*
X99157904Y-96504285D01*
X99253142Y-96551904D01*
X99300761Y-96599523D01*
X99348380Y-96694761D01*
X99348380Y-96980476D01*
X99300761Y-97075714D01*
X99253142Y-97123333D01*
%TO.C,U6*%
X100721095Y-59235380D02*
X100721095Y-60044904D01*
X100768714Y-60140142D01*
X100816333Y-60187761D01*
X100911571Y-60235380D01*
X101102047Y-60235380D01*
X101197285Y-60187761D01*
X101244904Y-60140142D01*
X101292523Y-60044904D01*
X101292523Y-59235380D01*
X102197285Y-59235380D02*
X102006809Y-59235380D01*
X101911571Y-59283000D01*
X101863952Y-59330619D01*
X101768714Y-59473476D01*
X101721095Y-59663952D01*
X101721095Y-60044904D01*
X101768714Y-60140142D01*
X101816333Y-60187761D01*
X101911571Y-60235380D01*
X102102047Y-60235380D01*
X102197285Y-60187761D01*
X102244904Y-60140142D01*
X102292523Y-60044904D01*
X102292523Y-59806809D01*
X102244904Y-59711571D01*
X102197285Y-59663952D01*
X102102047Y-59616333D01*
X101911571Y-59616333D01*
X101816333Y-59663952D01*
X101768714Y-59711571D01*
X101721095Y-59806809D01*
%TO.C,Q2*%
X193026619Y-87725238D02*
X192979000Y-87820476D01*
X192883761Y-87915714D01*
X192740904Y-88058571D01*
X192693285Y-88153809D01*
X192693285Y-88249047D01*
X192931380Y-88201428D02*
X192883761Y-88296666D01*
X192788523Y-88391904D01*
X192598047Y-88439523D01*
X192264714Y-88439523D01*
X192074238Y-88391904D01*
X191979000Y-88296666D01*
X191931380Y-88201428D01*
X191931380Y-88010952D01*
X191979000Y-87915714D01*
X192074238Y-87820476D01*
X192264714Y-87772857D01*
X192598047Y-87772857D01*
X192788523Y-87820476D01*
X192883761Y-87915714D01*
X192931380Y-88010952D01*
X192931380Y-88201428D01*
X192026619Y-87391904D02*
X191979000Y-87344285D01*
X191931380Y-87249047D01*
X191931380Y-87010952D01*
X191979000Y-86915714D01*
X192026619Y-86868095D01*
X192121857Y-86820476D01*
X192217095Y-86820476D01*
X192359952Y-86868095D01*
X192931380Y-87439523D01*
X192931380Y-86820476D01*
%TO.C,R4*%
X136866333Y-46935380D02*
X136533000Y-46459190D01*
X136294904Y-46935380D02*
X136294904Y-45935380D01*
X136675857Y-45935380D01*
X136771095Y-45983000D01*
X136818714Y-46030619D01*
X136866333Y-46125857D01*
X136866333Y-46268714D01*
X136818714Y-46363952D01*
X136771095Y-46411571D01*
X136675857Y-46459190D01*
X136294904Y-46459190D01*
X137723476Y-46268714D02*
X137723476Y-46935380D01*
X137485380Y-45887761D02*
X137247285Y-46602047D01*
X137866333Y-46602047D01*
%TO.C,R16*%
X251452142Y-95322380D02*
X251118809Y-94846190D01*
X250880714Y-95322380D02*
X250880714Y-94322380D01*
X251261666Y-94322380D01*
X251356904Y-94370000D01*
X251404523Y-94417619D01*
X251452142Y-94512857D01*
X251452142Y-94655714D01*
X251404523Y-94750952D01*
X251356904Y-94798571D01*
X251261666Y-94846190D01*
X250880714Y-94846190D01*
X252404523Y-95322380D02*
X251833095Y-95322380D01*
X252118809Y-95322380D02*
X252118809Y-94322380D01*
X252023571Y-94465238D01*
X251928333Y-94560476D01*
X251833095Y-94608095D01*
X253261666Y-94322380D02*
X253071190Y-94322380D01*
X252975952Y-94370000D01*
X252928333Y-94417619D01*
X252833095Y-94560476D01*
X252785476Y-94750952D01*
X252785476Y-95131904D01*
X252833095Y-95227142D01*
X252880714Y-95274761D01*
X252975952Y-95322380D01*
X253166428Y-95322380D01*
X253261666Y-95274761D01*
X253309285Y-95227142D01*
X253356904Y-95131904D01*
X253356904Y-94893809D01*
X253309285Y-94798571D01*
X253261666Y-94750952D01*
X253166428Y-94703333D01*
X252975952Y-94703333D01*
X252880714Y-94750952D01*
X252833095Y-94798571D01*
X252785476Y-94893809D01*
%TO.C,L4*%
X217769380Y-90844666D02*
X217769380Y-91320857D01*
X216769380Y-91320857D01*
X217102714Y-90082761D02*
X217769380Y-90082761D01*
X216721761Y-90320857D02*
X217436047Y-90558952D01*
X217436047Y-89939904D01*
%TO.C,D3*%
X185705380Y-61317095D02*
X184705380Y-61317095D01*
X184705380Y-61079000D01*
X184753000Y-60936142D01*
X184848238Y-60840904D01*
X184943476Y-60793285D01*
X185133952Y-60745666D01*
X185276809Y-60745666D01*
X185467285Y-60793285D01*
X185562523Y-60840904D01*
X185657761Y-60936142D01*
X185705380Y-61079000D01*
X185705380Y-61317095D01*
X184705380Y-60412333D02*
X184705380Y-59793285D01*
X185086333Y-60126619D01*
X185086333Y-59983761D01*
X185133952Y-59888523D01*
X185181571Y-59840904D01*
X185276809Y-59793285D01*
X185514904Y-59793285D01*
X185610142Y-59840904D01*
X185657761Y-59888523D01*
X185705380Y-59983761D01*
X185705380Y-60269476D01*
X185657761Y-60364714D01*
X185610142Y-60412333D01*
X184235380Y-53220904D02*
X183235380Y-53220904D01*
X184235380Y-52649476D02*
X183663952Y-53078047D01*
X183235380Y-52649476D02*
X183806809Y-53220904D01*
%TO.C,J3*%
X252309380Y-54086000D02*
X252309380Y-53895523D01*
X252357000Y-53800285D01*
X252452238Y-53705047D01*
X252642714Y-53657428D01*
X252976047Y-53657428D01*
X253166523Y-53705047D01*
X253261761Y-53800285D01*
X253309380Y-53895523D01*
X253309380Y-54086000D01*
X253261761Y-54181238D01*
X253166523Y-54276476D01*
X252976047Y-54324095D01*
X252642714Y-54324095D01*
X252452238Y-54276476D01*
X252357000Y-54181238D01*
X252309380Y-54086000D01*
X252309380Y-53228857D02*
X253118904Y-53228857D01*
X253214142Y-53181238D01*
X253261761Y-53133619D01*
X253309380Y-53038380D01*
X253309380Y-52847904D01*
X253261761Y-52752666D01*
X253214142Y-52705047D01*
X253118904Y-52657428D01*
X252309380Y-52657428D01*
X252309380Y-52324095D02*
X252309380Y-51752666D01*
X253309380Y-52038380D02*
X252309380Y-52038380D01*
%TO.C,J4*%
X80311666Y-19474380D02*
X80311666Y-20188666D01*
X80264047Y-20331523D01*
X80168809Y-20426761D01*
X80025952Y-20474380D01*
X79930714Y-20474380D01*
X81216428Y-19807714D02*
X81216428Y-20474380D01*
X80978333Y-19426761D02*
X80740238Y-20141047D01*
X81359285Y-20141047D01*
%TO.C,C52*%
X83812142Y-74834142D02*
X83764523Y-74881761D01*
X83621666Y-74929380D01*
X83526428Y-74929380D01*
X83383571Y-74881761D01*
X83288333Y-74786523D01*
X83240714Y-74691285D01*
X83193095Y-74500809D01*
X83193095Y-74357952D01*
X83240714Y-74167476D01*
X83288333Y-74072238D01*
X83383571Y-73977000D01*
X83526428Y-73929380D01*
X83621666Y-73929380D01*
X83764523Y-73977000D01*
X83812142Y-74024619D01*
X84716904Y-73929380D02*
X84240714Y-73929380D01*
X84193095Y-74405571D01*
X84240714Y-74357952D01*
X84335952Y-74310333D01*
X84574047Y-74310333D01*
X84669285Y-74357952D01*
X84716904Y-74405571D01*
X84764523Y-74500809D01*
X84764523Y-74738904D01*
X84716904Y-74834142D01*
X84669285Y-74881761D01*
X84574047Y-74929380D01*
X84335952Y-74929380D01*
X84240714Y-74881761D01*
X84193095Y-74834142D01*
X85145476Y-74024619D02*
X85193095Y-73977000D01*
X85288333Y-73929380D01*
X85526428Y-73929380D01*
X85621666Y-73977000D01*
X85669285Y-74024619D01*
X85716904Y-74119857D01*
X85716904Y-74215095D01*
X85669285Y-74357952D01*
X85097857Y-74929380D01*
X85716904Y-74929380D01*
%TO.C,D6*%
X150987380Y-71985095D02*
X149987380Y-71985095D01*
X149987380Y-71747000D01*
X150035000Y-71604142D01*
X150130238Y-71508904D01*
X150225476Y-71461285D01*
X150415952Y-71413666D01*
X150558809Y-71413666D01*
X150749285Y-71461285D01*
X150844523Y-71508904D01*
X150939761Y-71604142D01*
X150987380Y-71747000D01*
X150987380Y-71985095D01*
X149987380Y-70556523D02*
X149987380Y-70747000D01*
X150035000Y-70842238D01*
X150082619Y-70889857D01*
X150225476Y-70985095D01*
X150415952Y-71032714D01*
X150796904Y-71032714D01*
X150892142Y-70985095D01*
X150939761Y-70937476D01*
X150987380Y-70842238D01*
X150987380Y-70651761D01*
X150939761Y-70556523D01*
X150892142Y-70508904D01*
X150796904Y-70461285D01*
X150558809Y-70461285D01*
X150463571Y-70508904D01*
X150415952Y-70556523D01*
X150368333Y-70651761D01*
X150368333Y-70842238D01*
X150415952Y-70937476D01*
X150463571Y-70985095D01*
X150558809Y-71032714D01*
X152457380Y-79128904D02*
X151457380Y-79128904D01*
X152457380Y-78557476D02*
X151885952Y-78986047D01*
X151457380Y-78557476D02*
X152028809Y-79128904D01*
%TO.C,R9*%
X142117380Y-37758666D02*
X141641190Y-38092000D01*
X142117380Y-38330095D02*
X141117380Y-38330095D01*
X141117380Y-37949142D01*
X141165000Y-37853904D01*
X141212619Y-37806285D01*
X141307857Y-37758666D01*
X141450714Y-37758666D01*
X141545952Y-37806285D01*
X141593571Y-37853904D01*
X141641190Y-37949142D01*
X141641190Y-38330095D01*
X142117380Y-37282476D02*
X142117380Y-37092000D01*
X142069761Y-36996761D01*
X142022142Y-36949142D01*
X141879285Y-36853904D01*
X141688809Y-36806285D01*
X141307857Y-36806285D01*
X141212619Y-36853904D01*
X141165000Y-36901523D01*
X141117380Y-36996761D01*
X141117380Y-37187238D01*
X141165000Y-37282476D01*
X141212619Y-37330095D01*
X141307857Y-37377714D01*
X141545952Y-37377714D01*
X141641190Y-37330095D01*
X141688809Y-37282476D01*
X141736428Y-37187238D01*
X141736428Y-36996761D01*
X141688809Y-36901523D01*
X141641190Y-36853904D01*
X141545952Y-36806285D01*
%TO.C,C40*%
X88384142Y-73988142D02*
X88336523Y-74035761D01*
X88193666Y-74083380D01*
X88098428Y-74083380D01*
X87955571Y-74035761D01*
X87860333Y-73940523D01*
X87812714Y-73845285D01*
X87765095Y-73654809D01*
X87765095Y-73511952D01*
X87812714Y-73321476D01*
X87860333Y-73226238D01*
X87955571Y-73131000D01*
X88098428Y-73083380D01*
X88193666Y-73083380D01*
X88336523Y-73131000D01*
X88384142Y-73178619D01*
X89241285Y-73416714D02*
X89241285Y-74083380D01*
X89003190Y-73035761D02*
X88765095Y-73750047D01*
X89384142Y-73750047D01*
X89955571Y-73083380D02*
X90050809Y-73083380D01*
X90146047Y-73131000D01*
X90193666Y-73178619D01*
X90241285Y-73273857D01*
X90288904Y-73464333D01*
X90288904Y-73702428D01*
X90241285Y-73892904D01*
X90193666Y-73988142D01*
X90146047Y-74035761D01*
X90050809Y-74083380D01*
X89955571Y-74083380D01*
X89860333Y-74035761D01*
X89812714Y-73988142D01*
X89765095Y-73892904D01*
X89717476Y-73702428D01*
X89717476Y-73464333D01*
X89765095Y-73273857D01*
X89812714Y-73178619D01*
X89860333Y-73131000D01*
X89955571Y-73083380D01*
%TO.C,R39*%
X92321142Y-77161380D02*
X91987809Y-76685190D01*
X91749714Y-77161380D02*
X91749714Y-76161380D01*
X92130666Y-76161380D01*
X92225904Y-76209000D01*
X92273523Y-76256619D01*
X92321142Y-76351857D01*
X92321142Y-76494714D01*
X92273523Y-76589952D01*
X92225904Y-76637571D01*
X92130666Y-76685190D01*
X91749714Y-76685190D01*
X92654476Y-76161380D02*
X93273523Y-76161380D01*
X92940190Y-76542333D01*
X93083047Y-76542333D01*
X93178285Y-76589952D01*
X93225904Y-76637571D01*
X93273523Y-76732809D01*
X93273523Y-76970904D01*
X93225904Y-77066142D01*
X93178285Y-77113761D01*
X93083047Y-77161380D01*
X92797333Y-77161380D01*
X92702095Y-77113761D01*
X92654476Y-77066142D01*
X93749714Y-77161380D02*
X93940190Y-77161380D01*
X94035428Y-77113761D01*
X94083047Y-77066142D01*
X94178285Y-76923285D01*
X94225904Y-76732809D01*
X94225904Y-76351857D01*
X94178285Y-76256619D01*
X94130666Y-76209000D01*
X94035428Y-76161380D01*
X93844952Y-76161380D01*
X93749714Y-76209000D01*
X93702095Y-76256619D01*
X93654476Y-76351857D01*
X93654476Y-76589952D01*
X93702095Y-76685190D01*
X93749714Y-76732809D01*
X93844952Y-76780428D01*
X94035428Y-76780428D01*
X94130666Y-76732809D01*
X94178285Y-76685190D01*
X94225904Y-76589952D01*
%TO.C,L5*%
X219502380Y-90729666D02*
X219502380Y-91205857D01*
X218502380Y-91205857D01*
X218502380Y-89920142D02*
X218502380Y-90396333D01*
X218978571Y-90443952D01*
X218930952Y-90396333D01*
X218883333Y-90301095D01*
X218883333Y-90063000D01*
X218930952Y-89967761D01*
X218978571Y-89920142D01*
X219073809Y-89872523D01*
X219311904Y-89872523D01*
X219407142Y-89920142D01*
X219454761Y-89967761D01*
X219502380Y-90063000D01*
X219502380Y-90301095D01*
X219454761Y-90396333D01*
X219407142Y-90443952D01*
%TO.C,J1*%
X176173142Y-22804380D02*
X176173142Y-21804380D01*
X176411238Y-21804380D01*
X176554095Y-21852000D01*
X176649333Y-21947238D01*
X176696952Y-22042476D01*
X176744571Y-22232952D01*
X176744571Y-22375809D01*
X176696952Y-22566285D01*
X176649333Y-22661523D01*
X176554095Y-22756761D01*
X176411238Y-22804380D01*
X176173142Y-22804380D01*
X177744571Y-22709142D02*
X177696952Y-22756761D01*
X177554095Y-22804380D01*
X177458857Y-22804380D01*
X177316000Y-22756761D01*
X177220761Y-22661523D01*
X177173142Y-22566285D01*
X177125523Y-22375809D01*
X177125523Y-22232952D01*
X177173142Y-22042476D01*
X177220761Y-21947238D01*
X177316000Y-21852000D01*
X177458857Y-21804380D01*
X177554095Y-21804380D01*
X177696952Y-21852000D01*
X177744571Y-21899619D01*
X179411238Y-22804380D02*
X178935047Y-22804380D01*
X178935047Y-21804380D01*
X179744571Y-22804380D02*
X179744571Y-22137714D01*
X179744571Y-21804380D02*
X179696952Y-21852000D01*
X179744571Y-21899619D01*
X179792190Y-21852000D01*
X179744571Y-21804380D01*
X179744571Y-21899619D01*
X180220761Y-22137714D02*
X180220761Y-22804380D01*
X180220761Y-22232952D02*
X180268380Y-22185333D01*
X180363619Y-22137714D01*
X180506476Y-22137714D01*
X180601714Y-22185333D01*
X180649333Y-22280571D01*
X180649333Y-22804380D01*
X181125523Y-22804380D02*
X181125523Y-21804380D01*
X181220761Y-22423428D02*
X181506476Y-22804380D01*
X181506476Y-22137714D02*
X181125523Y-22518666D01*
D12*
%TO.C,C51*%
X83685748Y-73433000D02*
X84208252Y-73433000D01*
X83685748Y-74903000D02*
X84208252Y-74903000D01*
%TO.C,C6*%
X132948000Y-72593252D02*
X132948000Y-71170748D01*
X134768000Y-72593252D02*
X134768000Y-71170748D01*
%TO.C,R41*%
X106834000Y-40539936D02*
X106834000Y-40994064D01*
X108304000Y-40539936D02*
X108304000Y-40994064D01*
%TO.C,Q1*%
X191480000Y-51525000D02*
X186209000Y-51525000D01*
X191480000Y-45259000D02*
X191480000Y-61399000D01*
X186209000Y-45259000D02*
X186209000Y-61399000D01*
X191480000Y-61399000D02*
X186209000Y-61399000D01*
X191480000Y-55134000D02*
X186209000Y-55134000D01*
X191480000Y-45259000D02*
X186209000Y-45259000D01*
%TO.C,R43*%
X79290936Y-56869000D02*
X79745064Y-56869000D01*
X79290936Y-55399000D02*
X79745064Y-55399000D01*
%TO.C,C23*%
X158702000Y-106100000D02*
X155617000Y-106100000D01*
X158702000Y-81860000D02*
X155617000Y-81860000D01*
X153247000Y-106100000D02*
X150162000Y-106100000D01*
X158702000Y-81860000D02*
X158702000Y-106100000D01*
X150162000Y-81860000D02*
X150162000Y-106100000D01*
X153247000Y-81860000D02*
X150162000Y-81860000D01*
%TO.C,J6*%
X83322000Y-106994000D02*
X81992000Y-106994000D01*
X81992000Y-106994000D02*
X81992000Y-105664000D01*
X84592000Y-106994000D02*
X84592000Y-104334000D01*
X84592000Y-104334000D02*
X92272000Y-104334000D01*
X84592000Y-106994000D02*
X92272000Y-106994000D01*
X92272000Y-106994000D02*
X92272000Y-104334000D01*
D13*
%TO.C,U12*%
X97294700Y-48538586D02*
X97294700Y-49250600D01*
X105143300Y-42951400D02*
X97294700Y-42951400D01*
X97294700Y-49250600D02*
X105143300Y-49250600D01*
X105143300Y-49250600D02*
X105143300Y-48538586D01*
X97294700Y-42951400D02*
X97294700Y-43663414D01*
X105143300Y-43663414D02*
X105143300Y-42951400D01*
D12*
%TO.C,C48*%
X92610000Y-46362252D02*
X92610000Y-45839748D01*
X94080000Y-46362252D02*
X94080000Y-45839748D01*
%TO.C,R14*%
X252502936Y-103151000D02*
X252957064Y-103151000D01*
X252502936Y-104621000D02*
X252957064Y-104621000D01*
%TO.C,C17*%
X175035246Y-33813000D02*
X175035246Y-45181000D01*
X176355246Y-35561000D02*
X176355246Y-43433000D01*
X174075246Y-32987000D02*
X174075246Y-38057000D01*
X169474246Y-31419000D02*
X169474246Y-47575000D01*
X172715246Y-32181000D02*
X172715246Y-38057000D01*
X173995246Y-40937000D02*
X173995246Y-46065000D01*
X172395246Y-32040000D02*
X172395246Y-38057000D01*
X173275246Y-40937000D02*
X173275246Y-46524000D01*
X173555246Y-32636000D02*
X173555246Y-38057000D01*
X176755246Y-36377000D02*
X176755246Y-42617000D01*
X175235246Y-34022000D02*
X175235246Y-44972000D01*
X172275246Y-40937000D02*
X172275246Y-47003000D01*
X173115246Y-32382000D02*
X173115246Y-38057000D01*
X174715246Y-33508000D02*
X174715246Y-45486000D01*
X172835246Y-32239000D02*
X172835246Y-38057000D01*
X177115246Y-37423000D02*
X177115246Y-41571000D01*
X173355246Y-40937000D02*
X173355246Y-46478000D01*
X172155246Y-31944000D02*
X172155246Y-38057000D01*
X171675246Y-40937000D02*
X171675246Y-47215000D01*
X172155246Y-40937000D02*
X172155246Y-47050000D01*
X172795246Y-32219000D02*
X172795246Y-38057000D01*
X176715246Y-36284000D02*
X176715246Y-42710000D01*
X171555246Y-31743000D02*
X171555246Y-47251000D01*
X173475246Y-32587000D02*
X173475246Y-38057000D01*
X171035246Y-31610000D02*
X171035246Y-47384000D01*
X173915246Y-40937000D02*
X173915246Y-46121000D01*
X171635246Y-31767000D02*
X171635246Y-38057000D01*
X174435246Y-40937000D02*
X174435246Y-45727000D01*
X175515246Y-34341000D02*
X175515246Y-44653000D01*
X171955246Y-40937000D02*
X171955246Y-47122000D01*
X174555246Y-33368000D02*
X174555246Y-45626000D01*
X172755246Y-40937000D02*
X172755246Y-46794000D01*
X171795246Y-40937000D02*
X171795246Y-47177000D01*
X175995246Y-34978000D02*
X175995246Y-44016000D01*
X174675246Y-33472000D02*
X174675246Y-45522000D01*
X171755246Y-40937000D02*
X171755246Y-47190000D01*
X176515246Y-35860000D02*
X176515246Y-43134000D01*
X172395246Y-40937000D02*
X172395246Y-46954000D01*
X170995246Y-31601000D02*
X170995246Y-47393000D01*
X176275246Y-35421000D02*
X176275246Y-43573000D01*
X177195246Y-37745000D02*
X177195246Y-41249000D01*
X173595246Y-32661000D02*
X173595246Y-38057000D01*
X172235246Y-31975000D02*
X172235246Y-38057000D01*
X175435246Y-34246000D02*
X175435246Y-44748000D01*
X172035246Y-31900000D02*
X172035246Y-38057000D01*
X173195246Y-32425000D02*
X173195246Y-38057000D01*
X172115246Y-31929000D02*
X172115246Y-38057000D01*
X176035246Y-35038000D02*
X176035246Y-43956000D01*
X175075246Y-33854000D02*
X175075246Y-45140000D01*
X171595246Y-31755000D02*
X171595246Y-38057000D01*
X174315246Y-33170000D02*
X174315246Y-38057000D01*
X174075246Y-40937000D02*
X174075246Y-46007000D01*
X174515246Y-33334000D02*
X174515246Y-45660000D01*
X173315246Y-32493000D02*
X173315246Y-38057000D01*
X172635246Y-32144000D02*
X172635246Y-38057000D01*
X173835246Y-32818000D02*
X173835246Y-38057000D01*
X173235246Y-32448000D02*
X173235246Y-38057000D01*
X175475246Y-34293000D02*
X175475246Y-44701000D01*
X172755246Y-32200000D02*
X172755246Y-38057000D01*
X173075246Y-40937000D02*
X173075246Y-46633000D01*
X171995246Y-40937000D02*
X171995246Y-47108000D01*
X169514246Y-31420000D02*
X169514246Y-47574000D01*
X174195246Y-33077000D02*
X174195246Y-38057000D01*
X173035246Y-40937000D02*
X173035246Y-46654000D01*
X175715246Y-34591000D02*
X175715246Y-44403000D01*
X173315246Y-40937000D02*
X173315246Y-46501000D01*
X174395246Y-40937000D02*
X174395246Y-45760000D01*
X169354246Y-31417000D02*
X169354246Y-47577000D01*
X174475246Y-33300000D02*
X174475246Y-45694000D01*
X176795246Y-36473000D02*
X176795246Y-42521000D01*
X173755246Y-32764000D02*
X173755246Y-38057000D01*
X176315246Y-35490000D02*
X176315246Y-43504000D01*
X175395246Y-34200000D02*
X175395246Y-44794000D01*
X174235246Y-40937000D02*
X174235246Y-45887000D01*
X171635246Y-40937000D02*
X171635246Y-47227000D01*
X172915246Y-32278000D02*
X172915246Y-38057000D01*
X169394246Y-31417000D02*
X169394246Y-47577000D01*
X177155246Y-37577000D02*
X177155246Y-41417000D01*
X176195246Y-35288000D02*
X176195246Y-43706000D01*
X170435246Y-31500000D02*
X170435246Y-47494000D01*
X169714246Y-31428000D02*
X169714246Y-47566000D01*
X176955246Y-36900000D02*
X176955246Y-42094000D01*
X173955246Y-40937000D02*
X173955246Y-46093000D01*
X172595246Y-32126000D02*
X172595246Y-38057000D01*
X171875246Y-31844000D02*
X171875246Y-38057000D01*
X175115246Y-33895000D02*
X175115246Y-45099000D01*
X170955246Y-31592000D02*
X170955246Y-47402000D01*
X173675246Y-32712000D02*
X173675246Y-38057000D01*
X169554246Y-31421000D02*
X169554246Y-47573000D01*
X169594246Y-31423000D02*
X169594246Y-47571000D01*
X170235246Y-31473000D02*
X170235246Y-47521000D01*
X172195246Y-40937000D02*
X172195246Y-47034000D01*
X173515246Y-40937000D02*
X173515246Y-46383000D01*
X172275246Y-31991000D02*
X172275246Y-38057000D01*
X174635246Y-33437000D02*
X174635246Y-45557000D01*
X173155246Y-32403000D02*
X173155246Y-38057000D01*
X175275246Y-34065000D02*
X175275246Y-44929000D01*
X169834246Y-31436000D02*
X169834246Y-47558000D01*
X171915246Y-40937000D02*
X171915246Y-47136000D01*
X172235246Y-40937000D02*
X172235246Y-47019000D01*
X173955246Y-32901000D02*
X173955246Y-38057000D01*
X174035246Y-40937000D02*
X174035246Y-46036000D01*
X175795246Y-34697000D02*
X175795246Y-44297000D01*
X174395246Y-33234000D02*
X174395246Y-38057000D01*
X173835246Y-40937000D02*
X173835246Y-46176000D01*
X173915246Y-32873000D02*
X173915246Y-38057000D01*
X169794246Y-31433000D02*
X169794246Y-47561000D01*
X170635246Y-31531000D02*
X170635246Y-47463000D01*
X176595246Y-36022000D02*
X176595246Y-42972000D01*
X176635246Y-36107000D02*
X176635246Y-42887000D01*
X176995246Y-37019000D02*
X176995246Y-41975000D01*
X170755246Y-31553000D02*
X170755246Y-47441000D01*
X176115246Y-35161000D02*
X176115246Y-43833000D01*
X171115246Y-31628000D02*
X171115246Y-47366000D01*
X171355246Y-31687000D02*
X171355246Y-47307000D01*
X174035246Y-32958000D02*
X174035246Y-38057000D01*
X171715246Y-31792000D02*
X171715246Y-38057000D01*
X173435246Y-32563000D02*
X173435246Y-38057000D01*
X173395246Y-40937000D02*
X173395246Y-46455000D01*
X173875246Y-40937000D02*
X173875246Y-46149000D01*
X174835246Y-33619000D02*
X174835246Y-45375000D01*
X172475246Y-32074000D02*
X172475246Y-38057000D01*
X174195246Y-40937000D02*
X174195246Y-45917000D01*
X175315246Y-34109000D02*
X175315246Y-44885000D01*
X176235246Y-35354000D02*
X176235246Y-43640000D01*
X171275246Y-31667000D02*
X171275246Y-47327000D01*
X170195246Y-31469000D02*
X170195246Y-47525000D01*
X173555246Y-40937000D02*
X173555246Y-46358000D01*
X174595246Y-33402000D02*
X174595246Y-45592000D01*
X170835246Y-31568000D02*
X170835246Y-47426000D01*
X175835246Y-34751000D02*
X175835246Y-44243000D01*
X173675246Y-40937000D02*
X173675246Y-46282000D01*
X172075246Y-40937000D02*
X172075246Y-47079000D01*
X174235246Y-33107000D02*
X174235246Y-38057000D01*
X173275246Y-32470000D02*
X173275246Y-38057000D01*
X174275246Y-40937000D02*
X174275246Y-45855000D01*
X169954246Y-31445000D02*
X169954246Y-47549000D01*
X169995246Y-31448000D02*
X169995246Y-47546000D01*
X171995246Y-31886000D02*
X171995246Y-38057000D01*
X174875246Y-33657000D02*
X174875246Y-45337000D01*
X171835246Y-40937000D02*
X171835246Y-47163000D01*
X173715246Y-40937000D02*
X173715246Y-46256000D01*
X170555246Y-31518000D02*
X170555246Y-47476000D01*
X169874246Y-31439000D02*
X169874246Y-47555000D01*
X169634246Y-31424000D02*
X169634246Y-47570000D01*
X172195246Y-31960000D02*
X172195246Y-38057000D01*
X170315246Y-31483000D02*
X170315246Y-47511000D01*
X169274246Y-31416000D02*
X169274246Y-47578000D01*
X174155246Y-33047000D02*
X174155246Y-38057000D01*
X175955246Y-34920000D02*
X175955246Y-44074000D01*
X172595246Y-40937000D02*
X172595246Y-46868000D01*
X170155246Y-31464000D02*
X170155246Y-47530000D01*
X169914246Y-31442000D02*
X169914246Y-47552000D01*
X172075246Y-31915000D02*
X172075246Y-38057000D01*
X171315246Y-31677000D02*
X171315246Y-47317000D01*
X172875246Y-32258000D02*
X172875246Y-38057000D01*
X172315246Y-32007000D02*
X172315246Y-38057000D01*
X172435246Y-40937000D02*
X172435246Y-46937000D01*
X171075246Y-31619000D02*
X171075246Y-47375000D01*
X172555246Y-32108000D02*
X172555246Y-38057000D01*
X177355246Y-38732000D02*
X177355246Y-40262000D01*
X174115246Y-40937000D02*
X174115246Y-45977000D01*
X176155246Y-35224000D02*
X176155246Y-43770000D01*
X171235246Y-31657000D02*
X171235246Y-47337000D01*
X169674246Y-31426000D02*
X169674246Y-47568000D01*
X171435246Y-31709000D02*
X171435246Y-47285000D01*
X173995246Y-32929000D02*
X173995246Y-38057000D01*
X171675246Y-31779000D02*
X171675246Y-38057000D01*
X177075246Y-37279000D02*
X177075246Y-41715000D01*
X170115246Y-31460000D02*
X170115246Y-47534000D01*
X170515246Y-31512000D02*
X170515246Y-47482000D01*
X173635246Y-40937000D02*
X173635246Y-46308000D01*
X171955246Y-31872000D02*
X171955246Y-38057000D01*
X170275246Y-31478000D02*
X170275246Y-47516000D01*
X171475246Y-31720000D02*
X171475246Y-47274000D01*
X171875246Y-40937000D02*
X171875246Y-47150000D01*
X176435246Y-35707000D02*
X176435246Y-43287000D01*
X175915246Y-34863000D02*
X175915246Y-44131000D01*
X173235246Y-40937000D02*
X173235246Y-46546000D01*
X177275246Y-38146000D02*
X177275246Y-40848000D01*
X169314246Y-31417000D02*
X169314246Y-47577000D01*
X170035246Y-31452000D02*
X170035246Y-47542000D01*
X171715246Y-40937000D02*
X171715246Y-47202000D01*
X173875246Y-32845000D02*
X173875246Y-38057000D01*
X171755246Y-31804000D02*
X171755246Y-38057000D01*
X172635246Y-40937000D02*
X172635246Y-46850000D01*
X173355246Y-32516000D02*
X173355246Y-38057000D01*
X174155246Y-40937000D02*
X174155246Y-45947000D01*
X170915246Y-31584000D02*
X170915246Y-47410000D01*
X172675246Y-40937000D02*
X172675246Y-46831000D01*
X175595246Y-34438000D02*
X175595246Y-44556000D01*
X173755246Y-40937000D02*
X173755246Y-46230000D01*
X173475246Y-40937000D02*
X173475246Y-46407000D01*
X176835246Y-36573000D02*
X176835246Y-42421000D01*
X172355246Y-40937000D02*
X172355246Y-46971000D01*
X172955246Y-40937000D02*
X172955246Y-46696000D01*
X171155246Y-31637000D02*
X171155246Y-47357000D01*
X176875246Y-36677000D02*
X176875246Y-42317000D01*
X171595246Y-40937000D02*
X171595246Y-47239000D01*
X173195246Y-40937000D02*
X173195246Y-46569000D01*
X172115246Y-40937000D02*
X172115246Y-47065000D01*
X176675246Y-36194000D02*
X176675246Y-42800000D01*
X170875246Y-31576000D02*
X170875246Y-47418000D01*
X174355246Y-40937000D02*
X174355246Y-45792000D01*
X173395246Y-32539000D02*
X173395246Y-38057000D01*
X174315246Y-40937000D02*
X174315246Y-45824000D01*
X175555246Y-34389000D02*
X175555246Y-44605000D01*
X172475246Y-40937000D02*
X172475246Y-46920000D01*
X171795246Y-31817000D02*
X171795246Y-38057000D01*
X173515246Y-32611000D02*
X173515246Y-38057000D01*
X169754246Y-31431000D02*
X169754246Y-47563000D01*
X173715246Y-32738000D02*
X173715246Y-38057000D01*
X176395246Y-35633000D02*
X176395246Y-43361000D01*
X172795246Y-40937000D02*
X172795246Y-46775000D01*
X170075246Y-31456000D02*
X170075246Y-47538000D01*
X174435246Y-33267000D02*
X174435246Y-38057000D01*
X172315246Y-40937000D02*
X172315246Y-46987000D01*
X175355246Y-34154000D02*
X175355246Y-44840000D01*
X170795246Y-31560000D02*
X170795246Y-47434000D01*
X177315246Y-38399000D02*
X177315246Y-40595000D01*
X174955246Y-33734000D02*
X174955246Y-45260000D01*
X170355246Y-31489000D02*
X170355246Y-47505000D01*
X172435246Y-32057000D02*
X172435246Y-38057000D01*
X172035246Y-40937000D02*
X172035246Y-47094000D01*
X170595246Y-31525000D02*
X170595246Y-47469000D01*
X173115246Y-40937000D02*
X173115246Y-46612000D01*
X172835246Y-40937000D02*
X172835246Y-46755000D01*
X175635246Y-34488000D02*
X175635246Y-44506000D01*
X161384755Y-34142000D02*
X161384755Y-35742000D01*
X172995246Y-32319000D02*
X172995246Y-38057000D01*
X170715246Y-31545000D02*
X170715246Y-47449000D01*
X173155246Y-40937000D02*
X173155246Y-46591000D01*
X172915246Y-40937000D02*
X172915246Y-46716000D01*
X174115246Y-33017000D02*
X174115246Y-38057000D01*
X176075246Y-35099000D02*
X176075246Y-43895000D01*
X173075246Y-32361000D02*
X173075246Y-38057000D01*
X170395246Y-31494000D02*
X170395246Y-47500000D01*
X175675246Y-34539000D02*
X175675246Y-44455000D01*
X172995246Y-40937000D02*
X172995246Y-46675000D01*
X172675246Y-32163000D02*
X172675246Y-38057000D01*
X174915246Y-33695000D02*
X174915246Y-45299000D01*
X174795246Y-33581000D02*
X174795246Y-45413000D01*
X172875246Y-40937000D02*
X172875246Y-46736000D01*
X173435246Y-40937000D02*
X173435246Y-46431000D01*
X172955246Y-32298000D02*
X172955246Y-38057000D01*
X172555246Y-40937000D02*
X172555246Y-46886000D01*
X170475246Y-31506000D02*
X170475246Y-47488000D01*
X172715246Y-40937000D02*
X172715246Y-46813000D01*
X176475246Y-35782000D02*
X176475246Y-43212000D01*
X171395246Y-31698000D02*
X171395246Y-47296000D01*
X173595246Y-40937000D02*
X173595246Y-46333000D01*
X175875246Y-34806000D02*
X175875246Y-44188000D01*
X160584755Y-34942000D02*
X162184755Y-34942000D01*
X177235246Y-37933000D02*
X177235246Y-41061000D01*
X175155246Y-33937000D02*
X175155246Y-45057000D01*
X172515246Y-32091000D02*
X172515246Y-38057000D01*
X175755246Y-34643000D02*
X175755246Y-44351000D01*
X172515246Y-40937000D02*
X172515246Y-46903000D01*
X173635246Y-32686000D02*
X173635246Y-38057000D01*
X173795246Y-40937000D02*
X173795246Y-46203000D01*
X171915246Y-31858000D02*
X171915246Y-38057000D01*
X173795246Y-32791000D02*
X173795246Y-38057000D01*
X172355246Y-32023000D02*
X172355246Y-38057000D01*
X170675246Y-31538000D02*
X170675246Y-47456000D01*
X175195246Y-33979000D02*
X175195246Y-45015000D01*
X174355246Y-33202000D02*
X174355246Y-38057000D01*
X169434246Y-31418000D02*
X169434246Y-47576000D01*
X174995246Y-33773000D02*
X174995246Y-45221000D01*
X176915246Y-36786000D02*
X176915246Y-42208000D01*
X173035246Y-32340000D02*
X173035246Y-38057000D01*
X174755246Y-33545000D02*
X174755246Y-45449000D01*
X174275246Y-33139000D02*
X174275246Y-38057000D01*
X171835246Y-31831000D02*
X171835246Y-38057000D01*
X177035246Y-37146000D02*
X177035246Y-41848000D01*
X171195246Y-31647000D02*
X171195246Y-47347000D01*
X171515246Y-31732000D02*
X171515246Y-47262000D01*
X176555246Y-35940000D02*
X176555246Y-43054000D01*
X177394246Y-39497000D02*
G75*
G03*
X177394246Y-39497000I-8120000J0D01*
G01*
%TO.C,R36*%
X108304000Y-69241936D02*
X108304000Y-69696064D01*
X106834000Y-69241936D02*
X106834000Y-69696064D01*
%TO.C,J2*%
X110531500Y-98715500D02*
X113531500Y-98715500D01*
X103911500Y-98615500D02*
X103911500Y-97365500D01*
X104301500Y-97755500D02*
X104301500Y-105225500D01*
X105701500Y-99715500D02*
X105451500Y-98715500D01*
X107701500Y-100065500D02*
X108451500Y-100065500D01*
X103911500Y-97365500D02*
X105911500Y-97365500D01*
X105451500Y-100065500D02*
X106201500Y-100065500D01*
X112781500Y-99715500D02*
X112781500Y-100065500D01*
X114681500Y-97755500D02*
X104301500Y-97755500D01*
X107701500Y-99715500D02*
X107701500Y-100065500D01*
X108451500Y-98715500D02*
X108201500Y-99715500D01*
X110781500Y-99715500D02*
X110531500Y-98715500D01*
X112781500Y-100065500D02*
X113531500Y-100065500D01*
X111281500Y-100065500D02*
X111281500Y-99715500D01*
X110531500Y-104365500D02*
X110531500Y-100065500D01*
X110531500Y-100065500D02*
X111281500Y-100065500D01*
X108451500Y-104365500D02*
X107701500Y-104365500D01*
X114681500Y-105225500D02*
X114681500Y-97755500D01*
X108201500Y-99715500D02*
X107701500Y-99715500D01*
X104301500Y-105225500D02*
X114681500Y-105225500D01*
X111281500Y-99715500D02*
X110781500Y-99715500D01*
X113281500Y-99715500D02*
X112781500Y-99715500D01*
X105451500Y-104365500D02*
X105451500Y-100065500D01*
X106201500Y-104365500D02*
X105451500Y-104365500D01*
X105451500Y-98715500D02*
X108451500Y-98715500D01*
X106201500Y-99715500D02*
X105701500Y-99715500D01*
X113531500Y-100065500D02*
X113531500Y-104365500D01*
X108451500Y-100065500D02*
X108451500Y-104365500D01*
X106201500Y-100065500D02*
X106201500Y-99715500D01*
X113531500Y-98715500D02*
X113281500Y-99715500D01*
X111281500Y-104365500D02*
X110531500Y-104365500D01*
X113531500Y-104365500D02*
X112781500Y-104365500D01*
X112781147Y-104365345D02*
G75*
G03*
X111281500Y-104365500I-749647J-1700155D01*
G01*
X107701147Y-104365345D02*
G75*
G03*
X106201500Y-104365500I-749647J-1700155D01*
G01*
%TO.C,L3*%
X219595000Y-20707000D02*
X237615000Y-20707000D01*
X237615000Y-53969000D02*
X237615000Y-20707000D01*
X219595000Y-53969000D02*
X219595000Y-20707000D01*
X219595000Y-53969000D02*
X237615000Y-53969000D01*
%TO.C,C39*%
X79348000Y-64523252D02*
X79348000Y-64000748D01*
X77878000Y-64523252D02*
X77878000Y-64000748D01*
%TO.C,C28*%
X248277748Y-101954000D02*
X248800252Y-101954000D01*
X248277748Y-100484000D02*
X248800252Y-100484000D01*
%TO.C,C44*%
X78005000Y-60332252D02*
X78005000Y-59809748D01*
X79475000Y-60332252D02*
X79475000Y-59809748D01*
%TO.C,D5*%
X144804000Y-68167000D02*
X150344000Y-68167000D01*
X144804000Y-69517000D02*
X150344000Y-69517000D01*
X144804000Y-60277000D02*
X144804000Y-69517000D01*
X150344000Y-69517000D02*
X150344000Y-60277000D01*
X150344000Y-60277000D02*
X144804000Y-60277000D01*
X144804000Y-67927000D02*
X150344000Y-67927000D01*
X147574000Y-58817000D02*
X147574000Y-60277000D01*
X144804000Y-68047000D02*
X150344000Y-68047000D01*
X147574000Y-70977000D02*
X147574000Y-69517000D01*
%TO.C,C2*%
X105685000Y-80721252D02*
X105685000Y-79298748D01*
X103865000Y-80721252D02*
X103865000Y-79298748D01*
%TO.C,R11*%
X143176000Y-79209000D02*
X148416000Y-79209000D01*
X148416000Y-105449000D02*
X148416000Y-79209000D01*
X143176000Y-105449000D02*
X143176000Y-79209000D01*
X143176000Y-105449000D02*
X148416000Y-105449000D01*
%TO.C,U11*%
X77403000Y-101290000D02*
X77423000Y-101290000D01*
X87443000Y-94320000D02*
X86923000Y-94320000D01*
X77403000Y-94320000D02*
X77403000Y-101290000D01*
X86923000Y-101260000D02*
X87443000Y-101260000D01*
X77423000Y-101290000D02*
X77423000Y-102790000D01*
X78163000Y-94320000D02*
X77403000Y-94320000D01*
X87443000Y-101260000D02*
X87443000Y-94320000D01*
%TO.C,U4*%
X124604000Y-76641000D02*
X126254000Y-76641000D01*
X129904000Y-58741000D02*
X124604000Y-58741000D01*
X124604000Y-58741000D02*
X124604000Y-76641000D01*
X128254000Y-76641000D02*
X129904000Y-76641000D01*
X129904000Y-76641000D02*
X129904000Y-58741000D01*
X128254000Y-76641000D02*
G75*
G03*
X126254000Y-76641000I-1000000J0D01*
G01*
%TO.C,C12*%
X111879748Y-95150000D02*
X112402252Y-95150000D01*
X111879748Y-96620000D02*
X112402252Y-96620000D01*
%TO.C,U8*%
X104133000Y-32208000D02*
X102483000Y-32208000D01*
X100483000Y-32208000D02*
X98833000Y-32208000D01*
X98833000Y-42488000D02*
X104133000Y-42488000D01*
X98833000Y-32208000D02*
X98833000Y-42488000D01*
X104133000Y-42488000D02*
X104133000Y-32208000D01*
X100483000Y-32208000D02*
G75*
G03*
X102483000Y-32208000I1000000J0D01*
G01*
%TO.C,R48*%
X94006936Y-91413000D02*
X94461064Y-91413000D01*
X94006936Y-89943000D02*
X94461064Y-89943000D01*
%TO.C,C38*%
X93987252Y-57812000D02*
X93464748Y-57812000D01*
X93987252Y-59282000D02*
X93464748Y-59282000D01*
%TO.C,R10*%
X136805936Y-87476000D02*
X137260064Y-87476000D01*
X136805936Y-86006000D02*
X137260064Y-86006000D01*
%TO.C,D8*%
X131548000Y-81162000D02*
X139098000Y-81162000D01*
X131548000Y-81162000D02*
X131548000Y-85462000D01*
X131548000Y-85462000D02*
X139098000Y-85462000D01*
%TO.C,C34*%
X79475000Y-70985748D02*
X79475000Y-71508252D01*
X78005000Y-70985748D02*
X78005000Y-71508252D01*
D13*
%TO.C,U15*%
X101227771Y-82981800D02*
X99432229Y-82981800D01*
X96147771Y-82981800D02*
X94399100Y-82981800D01*
X98687771Y-82981800D02*
X96892229Y-82981800D01*
X106260900Y-82981800D02*
X105088265Y-82981800D01*
X94399100Y-89230200D02*
X106260900Y-89230200D01*
X103191735Y-82981800D02*
X101972229Y-82981800D01*
X94399100Y-82981800D02*
X94399100Y-89230200D01*
X106260900Y-89230200D02*
X106260900Y-82981800D01*
D12*
%TO.C,C56*%
X101500000Y-81033252D02*
X101500000Y-80510748D01*
X102970000Y-81033252D02*
X102970000Y-80510748D01*
%TO.C,C43*%
X79382252Y-89943000D02*
X78859748Y-89943000D01*
X79382252Y-91413000D02*
X78859748Y-91413000D01*
%TO.C,C24*%
X245679500Y-85452000D02*
X245679500Y-61212000D01*
X237139500Y-85452000D02*
X240224500Y-85452000D01*
X237139500Y-85452000D02*
X237139500Y-61212000D01*
X237139500Y-61212000D02*
X240224500Y-61212000D01*
X242594500Y-85452000D02*
X245679500Y-85452000D01*
X242594500Y-61212000D02*
X245679500Y-61212000D01*
%TO.C,U7*%
X98833000Y-20905000D02*
X98833000Y-31185000D01*
X100483000Y-20905000D02*
X98833000Y-20905000D01*
X104133000Y-20905000D02*
X102483000Y-20905000D01*
X98833000Y-31185000D02*
X104133000Y-31185000D01*
X104133000Y-31185000D02*
X104133000Y-20905000D01*
X100483000Y-20905000D02*
G75*
G03*
X102483000Y-20905000I1000000J0D01*
G01*
D14*
%TO.C,U9*%
X81620000Y-71421000D02*
X82410000Y-71421000D01*
X81620000Y-61421000D02*
X82410000Y-61421000D01*
X91620000Y-61421000D02*
X91620000Y-62211000D01*
X91620000Y-71421000D02*
X90830000Y-71421000D01*
X91620000Y-61421000D02*
X90830000Y-61421000D01*
X81620000Y-61421000D02*
X81620000Y-62211000D01*
X91620000Y-71421000D02*
X91620000Y-70631000D01*
X81620000Y-71421000D02*
X81620000Y-70631000D01*
D15*
X79720000Y-62671000D02*
G75*
G03*
X79720000Y-62671000I-100000J0D01*
G01*
D12*
%TO.C,D4*%
X131548000Y-50428000D02*
X139098000Y-50428000D01*
X131548000Y-54728000D02*
X139098000Y-54728000D01*
X131548000Y-50428000D02*
X131548000Y-54728000D01*
%TO.C,D7*%
X181483000Y-101076000D02*
X181483000Y-99616000D01*
X184253000Y-91846000D02*
X178713000Y-91846000D01*
X178713000Y-90376000D02*
X178713000Y-99616000D01*
X184253000Y-90376000D02*
X178713000Y-90376000D01*
X181483000Y-88916000D02*
X181483000Y-90376000D01*
X184253000Y-91726000D02*
X178713000Y-91726000D01*
X178713000Y-99616000D02*
X184253000Y-99616000D01*
X184253000Y-99616000D02*
X184253000Y-90376000D01*
X184253000Y-91966000D02*
X178713000Y-91966000D01*
%TO.C,C27*%
X248404748Y-103278000D02*
X248927252Y-103278000D01*
X248404748Y-104748000D02*
X248927252Y-104748000D01*
D13*
%TO.C,U3*%
X118033800Y-99178229D02*
X118033800Y-100973771D01*
X118033800Y-103466900D02*
X124282200Y-103466900D01*
X118033800Y-96638229D02*
X118033800Y-98433771D01*
X118033800Y-101718229D02*
X118033800Y-103466900D01*
X124282200Y-103466900D02*
X124282200Y-91605100D01*
X124282200Y-91605100D02*
X118033800Y-91605100D01*
X118033800Y-94674265D02*
X118033800Y-95893771D01*
X118033800Y-91605100D02*
X118033800Y-92777735D01*
D12*
%TO.C,J5*%
X80578000Y-40453000D02*
X77918000Y-40453000D01*
X80578000Y-49403000D02*
X80578000Y-50733000D01*
X80578000Y-48133000D02*
X80578000Y-40453000D01*
X80578000Y-50733000D02*
X79248000Y-50733000D01*
X80578000Y-48133000D02*
X77918000Y-48133000D01*
X77918000Y-48133000D02*
X77918000Y-40453000D01*
%TO.C,C53*%
X88399252Y-87276000D02*
X87876748Y-87276000D01*
X88399252Y-88746000D02*
X87876748Y-88746000D01*
%TO.C,R46*%
X79729064Y-53240000D02*
X79274936Y-53240000D01*
X79729064Y-54710000D02*
X79274936Y-54710000D01*
%TO.C,C29*%
X249420748Y-98198000D02*
X249943252Y-98198000D01*
X249420748Y-99668000D02*
X249943252Y-99668000D01*
%TO.C,D1*%
X195469000Y-25979000D02*
X198329000Y-25979000D01*
X198329000Y-24059000D02*
X195469000Y-24059000D01*
X198329000Y-25979000D02*
X198329000Y-24059000D01*
%TO.C,R15*%
X252248936Y-100357000D02*
X252703064Y-100357000D01*
X252248936Y-101827000D02*
X252703064Y-101827000D01*
%TO.C,C35*%
X83446252Y-57431000D02*
X82923748Y-57431000D01*
X83446252Y-58901000D02*
X82923748Y-58901000D01*
%TO.C,U14*%
X83077000Y-80259000D02*
X84337000Y-80259000D01*
X89897000Y-84019000D02*
X89897000Y-80259000D01*
X89897000Y-80259000D02*
X88637000Y-80259000D01*
X83077000Y-86269000D02*
X83077000Y-80259000D01*
%TO.C,L1*%
X218560000Y-20707000D02*
X200540000Y-20707000D01*
X218560000Y-20707000D02*
X218560000Y-53969000D01*
X200540000Y-20707000D02*
X200540000Y-53969000D01*
X218560000Y-53969000D02*
X200540000Y-53969000D01*
%TO.C,R50*%
X98271064Y-91413000D02*
X97816936Y-91413000D01*
X98271064Y-89943000D02*
X97816936Y-89943000D01*
%TO.C,L2*%
X199777000Y-73013000D02*
X199777000Y-54993000D01*
X233039000Y-73013000D02*
X199777000Y-73013000D01*
X233039000Y-73013000D02*
X233039000Y-54993000D01*
X233039000Y-54993000D02*
X199777000Y-54993000D01*
%TO.C,C20*%
X158448000Y-24837000D02*
X155363000Y-24837000D01*
X149908000Y-24837000D02*
X149908000Y-49077000D01*
X158448000Y-49077000D02*
X155363000Y-49077000D01*
X152993000Y-24837000D02*
X149908000Y-24837000D01*
X152993000Y-49077000D02*
X149908000Y-49077000D01*
X158448000Y-24837000D02*
X158448000Y-49077000D01*
%TO.C,C47*%
X91969000Y-46685252D02*
X91969000Y-45262748D01*
X90149000Y-46685252D02*
X90149000Y-45262748D01*
%TO.C,R38*%
X107215000Y-28982936D02*
X107215000Y-29437064D01*
X108685000Y-28982936D02*
X108685000Y-29437064D01*
%TO.C,C19*%
X108304000Y-79890252D02*
X108304000Y-79367748D01*
X106834000Y-79890252D02*
X106834000Y-79367748D01*
%TO.C,U10*%
X104123000Y-60004000D02*
X104123000Y-49724000D01*
X98823000Y-60004000D02*
X100473000Y-60004000D01*
X98823000Y-49724000D02*
X98823000Y-60004000D01*
X104123000Y-49724000D02*
X98823000Y-49724000D01*
X102473000Y-60004000D02*
X104123000Y-60004000D01*
X102473000Y-60004000D02*
G75*
G03*
X100473000Y-60004000I-1000000J0D01*
G01*
%TO.C,R44*%
X82703936Y-89943000D02*
X83158064Y-89943000D01*
X82703936Y-91413000D02*
X83158064Y-91413000D01*
%TO.C,C37*%
X92738748Y-74576000D02*
X93261252Y-74576000D01*
X92738748Y-76046000D02*
X93261252Y-76046000D01*
%TO.C,C4*%
X169593000Y-76382000D02*
X172678000Y-76382000D01*
X169593000Y-76382000D02*
X169593000Y-52142000D01*
X178133000Y-76382000D02*
X178133000Y-52142000D01*
X175048000Y-76382000D02*
X178133000Y-76382000D01*
X169593000Y-52142000D02*
X172678000Y-52142000D01*
X175048000Y-52142000D02*
X178133000Y-52142000D01*
%TO.C,C11*%
X165396000Y-76128000D02*
X168481000Y-76128000D01*
X159941000Y-51888000D02*
X163026000Y-51888000D01*
X159941000Y-76128000D02*
X159941000Y-51888000D01*
X159941000Y-76128000D02*
X163026000Y-76128000D01*
X165396000Y-51888000D02*
X168481000Y-51888000D01*
X168481000Y-76128000D02*
X168481000Y-51888000D01*
%TO.C,U2*%
X105370000Y-94391000D02*
X115610000Y-94391000D01*
X108640000Y-89750000D02*
X108640000Y-91260000D01*
X112341000Y-89750000D02*
X112341000Y-91260000D01*
X115610000Y-89750000D02*
X115610000Y-94391000D01*
X105370000Y-91260000D02*
X115610000Y-91260000D01*
X105370000Y-89750000D02*
X105370000Y-94391000D01*
X105370000Y-89750000D02*
X115610000Y-89750000D01*
%TO.C,U13*%
X98111000Y-94290000D02*
X98091000Y-94290000D01*
X98091000Y-94290000D02*
X98091000Y-92790000D01*
X88591000Y-94320000D02*
X88071000Y-94320000D01*
X88071000Y-101260000D02*
X88591000Y-101260000D01*
X97351000Y-101260000D02*
X98111000Y-101260000D01*
X98111000Y-101260000D02*
X98111000Y-94290000D01*
X88071000Y-94320000D02*
X88071000Y-101260000D01*
%TO.C,U6*%
X104133000Y-60783000D02*
X102483000Y-60783000D01*
X104133000Y-71063000D02*
X104133000Y-60783000D01*
X98833000Y-60783000D02*
X98833000Y-71063000D01*
X100483000Y-60783000D02*
X98833000Y-60783000D01*
X98833000Y-71063000D02*
X104133000Y-71063000D01*
X100483000Y-60783000D02*
G75*
G03*
X102483000Y-60783000I1000000J0D01*
G01*
%TO.C,Q2*%
X186209000Y-79560000D02*
X186209000Y-95700000D01*
X191480000Y-85826000D02*
X186209000Y-85826000D01*
X191480000Y-95700000D02*
X186209000Y-95700000D01*
X191480000Y-79560000D02*
X186209000Y-79560000D01*
X191480000Y-79560000D02*
X191480000Y-95700000D01*
X191480000Y-89435000D02*
X186209000Y-89435000D01*
%TO.C,R4*%
X136805936Y-48868000D02*
X137260064Y-48868000D01*
X136805936Y-47398000D02*
X137260064Y-47398000D01*
%TO.C,R16*%
X251867936Y-97255000D02*
X252322064Y-97255000D01*
X251867936Y-95785000D02*
X252322064Y-95785000D01*
%TO.C,L4*%
X218447000Y-74047000D02*
X236467000Y-74047000D01*
X218447000Y-107309000D02*
X236467000Y-107309000D01*
X218447000Y-107309000D02*
X218447000Y-74047000D01*
X236467000Y-107309000D02*
X236467000Y-74047000D01*
%TO.C,D3*%
X184253000Y-57309000D02*
X178713000Y-57309000D01*
X184253000Y-65199000D02*
X184253000Y-55959000D01*
X181483000Y-66659000D02*
X181483000Y-65199000D01*
X184253000Y-57549000D02*
X178713000Y-57549000D01*
X178713000Y-55959000D02*
X178713000Y-65199000D01*
X178713000Y-65199000D02*
X184253000Y-65199000D01*
X181483000Y-54499000D02*
X181483000Y-55959000D01*
X184253000Y-55959000D02*
X178713000Y-55959000D01*
X184253000Y-57429000D02*
X178713000Y-57429000D01*
%TO.C,J3*%
X254462000Y-63650500D02*
X254462000Y-64400500D01*
X247852000Y-55170500D02*
X247852000Y-65550500D01*
X254462000Y-64400500D02*
X250162000Y-64400500D01*
X248812000Y-59320500D02*
X248812000Y-56320500D01*
X247462000Y-65940500D02*
X247462000Y-63940500D01*
X249812000Y-57070500D02*
X250162000Y-57070500D01*
X255322000Y-55170500D02*
X247852000Y-55170500D01*
X254462000Y-61400500D02*
X254462000Y-62150500D01*
X250162000Y-61400500D02*
X254462000Y-61400500D01*
X255322000Y-65550500D02*
X255322000Y-55170500D01*
X248812000Y-61400500D02*
X249812000Y-61650500D01*
X250162000Y-56320500D02*
X254462000Y-56320500D01*
X250162000Y-62150500D02*
X250162000Y-61400500D01*
X248712000Y-65940500D02*
X247462000Y-65940500D01*
X250162000Y-58570500D02*
X249812000Y-58570500D01*
X254462000Y-59320500D02*
X250162000Y-59320500D01*
X249812000Y-61650500D02*
X249812000Y-62150500D01*
X249812000Y-62150500D02*
X250162000Y-62150500D01*
X248812000Y-64400500D02*
X248812000Y-61400500D01*
X249812000Y-56570500D02*
X249812000Y-57070500D01*
X249812000Y-64150500D02*
X248812000Y-64400500D01*
X250162000Y-64400500D02*
X250162000Y-63650500D01*
X249812000Y-59070500D02*
X248812000Y-59320500D01*
X254462000Y-58570500D02*
X254462000Y-59320500D01*
X249812000Y-63650500D02*
X249812000Y-64150500D01*
X250162000Y-63650500D02*
X249812000Y-63650500D01*
X250162000Y-57070500D02*
X250162000Y-56320500D01*
X254462000Y-56320500D02*
X254462000Y-57070500D01*
X250162000Y-59320500D02*
X250162000Y-58570500D01*
X247852000Y-65550500D02*
X255322000Y-65550500D01*
X248812000Y-56320500D02*
X249812000Y-56570500D01*
X249812000Y-58570500D02*
X249812000Y-59070500D01*
X254461845Y-57070853D02*
G75*
G03*
X254462000Y-58570500I1700155J-749647D01*
G01*
X254461845Y-62150853D02*
G75*
G03*
X254462000Y-63650500I1700155J-749647D01*
G01*
%TO.C,J4*%
X79315000Y-30732000D02*
X79315000Y-34292000D01*
X79315000Y-35812000D02*
X79315000Y-38922000D01*
X79315000Y-21022000D02*
X81975000Y-21022000D01*
X79315000Y-21022000D02*
X79315000Y-24132000D01*
X81975000Y-28192000D02*
X81975000Y-31752000D01*
X79315000Y-38922000D02*
X81975000Y-38922000D01*
X79315000Y-25652000D02*
X79315000Y-29212000D01*
X81975000Y-21592000D02*
X83495000Y-21592000D01*
X79315000Y-38352000D02*
X79315000Y-38922000D01*
X81975000Y-23112000D02*
X81975000Y-26672000D01*
X81975000Y-33272000D02*
X81975000Y-36832000D01*
X81975000Y-21022000D02*
X81975000Y-21592000D01*
%TO.C,C52*%
X83743748Y-77237000D02*
X85166252Y-77237000D01*
X83743748Y-75417000D02*
X85166252Y-75417000D01*
%TO.C,D6*%
X151535000Y-74277000D02*
X157075000Y-74277000D01*
X154305000Y-77327000D02*
X154305000Y-75867000D01*
X151535000Y-74517000D02*
X157075000Y-74517000D01*
X157075000Y-66627000D02*
X151535000Y-66627000D01*
X154305000Y-65167000D02*
X154305000Y-66627000D01*
X151535000Y-66627000D02*
X151535000Y-75867000D01*
X151535000Y-74397000D02*
X157075000Y-74397000D01*
X157075000Y-75867000D02*
X157075000Y-66627000D01*
X151535000Y-75867000D02*
X157075000Y-75867000D01*
%TO.C,R9*%
X148035000Y-50712000D02*
X148035000Y-24472000D01*
X142795000Y-24472000D02*
X148035000Y-24472000D01*
X142795000Y-50712000D02*
X142795000Y-24472000D01*
X142795000Y-50712000D02*
X148035000Y-50712000D01*
%TO.C,C40*%
X88765748Y-74576000D02*
X89288252Y-74576000D01*
X88765748Y-76046000D02*
X89288252Y-76046000D01*
%TO.C,R39*%
X92736936Y-79094000D02*
X93191064Y-79094000D01*
X92736936Y-77624000D02*
X93191064Y-77624000D01*
%TO.C,L5*%
X217920000Y-73932000D02*
X199900000Y-73932000D01*
X217920000Y-73932000D02*
X217920000Y-107194000D01*
X217920000Y-107194000D02*
X199900000Y-107194000D01*
X199900000Y-73932000D02*
X199900000Y-107194000D01*
%TO.C,J1*%
X183933500Y-25420500D02*
X183683500Y-24420500D01*
X183683500Y-25770500D02*
X184433500Y-25770500D01*
X191013500Y-25770500D02*
X191763500Y-25770500D01*
X188763500Y-25770500D02*
X189513500Y-25770500D01*
X183683500Y-30070500D02*
X183683500Y-25770500D01*
X186683500Y-25770500D02*
X186683500Y-30070500D01*
X192913500Y-30930500D02*
X192913500Y-23460500D01*
X184433500Y-30070500D02*
X183683500Y-30070500D01*
X186433500Y-25420500D02*
X185933500Y-25420500D01*
X191763500Y-30070500D02*
X191013500Y-30070500D01*
X182533500Y-30930500D02*
X192913500Y-30930500D01*
X182533500Y-23460500D02*
X182533500Y-30930500D01*
X184433500Y-25770500D02*
X184433500Y-25420500D01*
X188763500Y-30070500D02*
X188763500Y-25770500D01*
X182143500Y-23070500D02*
X184143500Y-23070500D01*
X191013500Y-25420500D02*
X191013500Y-25770500D01*
X185933500Y-25770500D02*
X186683500Y-25770500D01*
X188763500Y-24420500D02*
X191763500Y-24420500D01*
X184433500Y-25420500D02*
X183933500Y-25420500D01*
X183683500Y-24420500D02*
X186683500Y-24420500D01*
X189513500Y-30070500D02*
X188763500Y-30070500D01*
X189013500Y-25420500D02*
X188763500Y-24420500D01*
X191763500Y-24420500D02*
X191513500Y-25420500D01*
X192913500Y-23460500D02*
X182533500Y-23460500D01*
X185933500Y-25420500D02*
X185933500Y-25770500D01*
X189513500Y-25420500D02*
X189013500Y-25420500D01*
X186683500Y-24420500D02*
X186433500Y-25420500D01*
X189513500Y-25770500D02*
X189513500Y-25420500D01*
X182143500Y-24320500D02*
X182143500Y-23070500D01*
X191763500Y-25770500D02*
X191763500Y-30070500D01*
X186683500Y-30070500D02*
X185933500Y-30070500D01*
X191513500Y-25420500D02*
X191013500Y-25420500D01*
X191013147Y-30070345D02*
G75*
G03*
X189513500Y-30070500I-749647J-1700155D01*
G01*
X185933147Y-30070345D02*
G75*
G03*
X184433500Y-30070500I-749647J-1700155D01*
G01*
%TD*%
M02*
