%TF.GenerationSoftware,KiCad,Pcbnew,(6.0.8)*%
%TF.CreationDate,2024-04-13T01:58:17+05:30*%
%TF.ProjectId,Lu_Testing,4c755f54-6573-4746-996e-672e6b696361,rev?*%
%TF.SameCoordinates,Original*%
%TF.FileFunction,Paste,Top*%
%TF.FilePolarity,Positive*%
%FSLAX46Y46*%
G04 Gerber Fmt 4.6, Leading zero omitted, Abs format (unit mm)*
G04 Created by KiCad (PCBNEW (6.0.8)) date 2024-04-13 01:58:17*
%MOMM*%
%LPD*%
G01*
G04 APERTURE LIST*
G04 Aperture macros list*
%AMRoundRect*
0 Rectangle with rounded corners*
0 $1 Rounding radius*
0 $2 $3 $4 $5 $6 $7 $8 $9 X,Y pos of 4 corners*
0 Add a 4 corners polygon primitive as box body*
4,1,4,$2,$3,$4,$5,$6,$7,$8,$9,$2,$3,0*
0 Add four circle primitives for the rounded corners*
1,1,$1+$1,$2,$3*
1,1,$1+$1,$4,$5*
1,1,$1+$1,$6,$7*
1,1,$1+$1,$8,$9*
0 Add four rect primitives between the rounded corners*
20,1,$1+$1,$2,$3,$4,$5,0*
20,1,$1+$1,$4,$5,$6,$7,0*
20,1,$1+$1,$6,$7,$8,$9,0*
20,1,$1+$1,$8,$9,$2,$3,0*%
%AMOutline4P*
0 Free polygon, 4 corners , with rotation*
0 The origin of the aperture is its center*
0 number of corners: always 4*
0 $1 to $8 corner X, Y*
0 $9 Rotation angle, in degrees counterclockwise*
0 create outline with 4 corners*
4,1,4,$1,$2,$3,$4,$5,$6,$7,$8,$1,$2,$9*%
G04 Aperture macros list end*
%ADD10RoundRect,0.250000X-0.337500X-0.475000X0.337500X-0.475000X0.337500X0.475000X-0.337500X0.475000X0*%
%ADD11RoundRect,0.250000X0.650000X-0.412500X0.650000X0.412500X-0.650000X0.412500X-0.650000X-0.412500X0*%
%ADD12RoundRect,0.250000X-0.450000X0.350000X-0.450000X-0.350000X0.450000X-0.350000X0.450000X0.350000X0*%
%ADD13RoundRect,0.250000X-0.350000X-0.450000X0.350000X-0.450000X0.350000X0.450000X-0.350000X0.450000X0*%
%ADD14R,1.473200X0.558800*%
%ADD15RoundRect,0.250000X0.475000X-0.337500X0.475000X0.337500X-0.475000X0.337500X-0.475000X-0.337500X0*%
%ADD16R,1.780000X1.520000*%
%ADD17R,1.750000X1.520000*%
%ADD18RoundRect,0.250000X0.337500X0.475000X-0.337500X0.475000X-0.337500X-0.475000X0.337500X-0.475000X0*%
%ADD19Outline4P,-1.800000X-1.150000X1.800000X-0.550000X1.800000X0.550000X-1.800000X1.150000X0.000000*%
%ADD20Outline4P,-1.800000X-1.150000X1.800000X-0.550000X1.800000X0.550000X-1.800000X1.150000X180.000000*%
%ADD21RoundRect,0.250000X-0.475000X0.337500X-0.475000X-0.337500X0.475000X-0.337500X0.475000X0.337500X0*%
%ADD22R,1.470000X0.280000*%
%ADD23R,0.280000X1.470000*%
%ADD24RoundRect,0.250000X0.350000X0.450000X-0.350000X0.450000X-0.350000X-0.450000X0.350000X-0.450000X0*%
%ADD25RoundRect,0.250000X0.325000X0.450000X-0.325000X0.450000X-0.325000X-0.450000X0.325000X-0.450000X0*%
%ADD26R,1.500000X2.000000*%
%ADD27R,3.800000X2.000000*%
%ADD28R,2.510000X1.000000*%
%ADD29RoundRect,0.250000X-0.412500X-0.650000X0.412500X-0.650000X0.412500X0.650000X-0.412500X0.650000X0*%
G04 APERTURE END LIST*
D10*
%TO.C,C51*%
X82909500Y-74168000D03*
X84984500Y-74168000D03*
%TD*%
D11*
%TO.C,C6*%
X133858000Y-73444500D03*
X133858000Y-70319500D03*
%TD*%
D12*
%TO.C,R41*%
X107569000Y-39767000D03*
X107569000Y-41767000D03*
%TD*%
D13*
%TO.C,R43*%
X78518000Y-56134000D03*
X80518000Y-56134000D03*
%TD*%
D14*
%TO.C,U12*%
X106095800Y-48006000D03*
X106095800Y-46736000D03*
X106095800Y-45466000D03*
X106095800Y-44196000D03*
X96342200Y-44196000D03*
X96342200Y-45466000D03*
X96342200Y-46736000D03*
X96342200Y-48006000D03*
%TD*%
D15*
%TO.C,C48*%
X93345000Y-47138500D03*
X93345000Y-45063500D03*
%TD*%
D13*
%TO.C,R14*%
X251730000Y-103886000D03*
X253730000Y-103886000D03*
%TD*%
D12*
%TO.C,R36*%
X107569000Y-68469000D03*
X107569000Y-70469000D03*
%TD*%
D15*
%TO.C,C39*%
X78613000Y-65299500D03*
X78613000Y-63224500D03*
%TD*%
D10*
%TO.C,C28*%
X247501500Y-101219000D03*
X249576500Y-101219000D03*
%TD*%
D15*
%TO.C,C44*%
X78740000Y-61108500D03*
X78740000Y-59033500D03*
%TD*%
D11*
%TO.C,C2*%
X104775000Y-81572500D03*
X104775000Y-78447500D03*
%TD*%
D16*
%TO.C,U11*%
X78613000Y-102550000D03*
D17*
X81153000Y-102550000D03*
D16*
X83693000Y-102550000D03*
X86233000Y-102550000D03*
X86233000Y-93030000D03*
X83693000Y-93030000D03*
X81153000Y-93030000D03*
X78613000Y-93030000D03*
%TD*%
D10*
%TO.C,C12*%
X111103500Y-95885000D03*
X113178500Y-95885000D03*
%TD*%
D13*
%TO.C,R48*%
X93234000Y-90678000D03*
X95234000Y-90678000D03*
%TD*%
D18*
%TO.C,C38*%
X94763500Y-58547000D03*
X92688500Y-58547000D03*
%TD*%
D13*
%TO.C,R10*%
X136033000Y-86741000D03*
X138033000Y-86741000D03*
%TD*%
D19*
%TO.C,D8*%
X133498000Y-83312000D03*
D20*
X139298000Y-83312000D03*
%TD*%
D21*
%TO.C,C34*%
X78740000Y-70209500D03*
X78740000Y-72284500D03*
%TD*%
D15*
%TO.C,C56*%
X102235000Y-81809500D03*
X102235000Y-79734500D03*
%TD*%
D18*
%TO.C,C43*%
X80158500Y-90678000D03*
X78083500Y-90678000D03*
%TD*%
D22*
%TO.C,U9*%
X80950000Y-62671000D03*
X80950000Y-63171000D03*
X80950000Y-63671000D03*
X80950000Y-64171000D03*
X80950000Y-64671000D03*
X80950000Y-65171000D03*
X80950000Y-65671000D03*
X80950000Y-66171000D03*
X80950000Y-66671000D03*
X80950000Y-67171000D03*
X80950000Y-67671000D03*
X80950000Y-68171000D03*
X80950000Y-68671000D03*
X80950000Y-69171000D03*
X80950000Y-69671000D03*
X80950000Y-70171000D03*
D23*
X82870000Y-72091000D03*
X83370000Y-72091000D03*
X83870000Y-72091000D03*
X84370000Y-72091000D03*
X84870000Y-72091000D03*
X85370000Y-72091000D03*
X85870000Y-72091000D03*
X86370000Y-72091000D03*
X86870000Y-72091000D03*
X87370000Y-72091000D03*
X87870000Y-72091000D03*
X88370000Y-72091000D03*
X88870000Y-72091000D03*
X89370000Y-72091000D03*
X89870000Y-72091000D03*
X90370000Y-72091000D03*
D22*
X92290000Y-70171000D03*
X92290000Y-69671000D03*
X92290000Y-69171000D03*
X92290000Y-68671000D03*
X92290000Y-68171000D03*
X92290000Y-67671000D03*
X92290000Y-67171000D03*
X92290000Y-66671000D03*
X92290000Y-66171000D03*
X92290000Y-65671000D03*
X92290000Y-65171000D03*
X92290000Y-64671000D03*
X92290000Y-64171000D03*
X92290000Y-63671000D03*
X92290000Y-63171000D03*
X92290000Y-62671000D03*
D23*
X90370000Y-60751000D03*
X89870000Y-60751000D03*
X89370000Y-60751000D03*
X88870000Y-60751000D03*
X88370000Y-60751000D03*
X87870000Y-60751000D03*
X87370000Y-60751000D03*
X86870000Y-60751000D03*
X86370000Y-60751000D03*
X85870000Y-60751000D03*
X85370000Y-60751000D03*
X84870000Y-60751000D03*
X84370000Y-60751000D03*
X83870000Y-60751000D03*
X83370000Y-60751000D03*
X82870000Y-60751000D03*
%TD*%
D19*
%TO.C,D4*%
X133498000Y-52578000D03*
D20*
X139298000Y-52578000D03*
%TD*%
D10*
%TO.C,C27*%
X247628500Y-104013000D03*
X249703500Y-104013000D03*
%TD*%
D18*
%TO.C,C53*%
X89175500Y-88011000D03*
X87100500Y-88011000D03*
%TD*%
D24*
%TO.C,R46*%
X80502000Y-53975000D03*
X78502000Y-53975000D03*
%TD*%
D10*
%TO.C,C29*%
X248644500Y-98933000D03*
X250719500Y-98933000D03*
%TD*%
D25*
%TO.C,D1*%
X197494000Y-25019000D03*
X195444000Y-25019000D03*
%TD*%
D13*
%TO.C,R15*%
X251476000Y-101092000D03*
X253476000Y-101092000D03*
%TD*%
D18*
%TO.C,C35*%
X84222500Y-58166000D03*
X82147500Y-58166000D03*
%TD*%
D26*
%TO.C,U14*%
X84187000Y-85319000D03*
X86487000Y-85319000D03*
D27*
X86487000Y-79019000D03*
D26*
X88787000Y-85319000D03*
%TD*%
D24*
%TO.C,R50*%
X99044000Y-90678000D03*
X97044000Y-90678000D03*
%TD*%
D11*
%TO.C,C47*%
X91059000Y-47536500D03*
X91059000Y-44411500D03*
%TD*%
D12*
%TO.C,R38*%
X107950000Y-28210000D03*
X107950000Y-30210000D03*
%TD*%
D15*
%TO.C,C19*%
X107569000Y-80666500D03*
X107569000Y-78591500D03*
%TD*%
D13*
%TO.C,R44*%
X81931000Y-90678000D03*
X83931000Y-90678000D03*
%TD*%
D10*
%TO.C,C37*%
X91962500Y-75311000D03*
X94037500Y-75311000D03*
%TD*%
D16*
%TO.C,U13*%
X96901000Y-93030000D03*
D17*
X94361000Y-93030000D03*
D16*
X91821000Y-93030000D03*
X89281000Y-93030000D03*
X89281000Y-102550000D03*
X91821000Y-102550000D03*
X94361000Y-102550000D03*
X96901000Y-102550000D03*
%TD*%
D13*
%TO.C,R4*%
X136033000Y-48133000D03*
X138033000Y-48133000D03*
%TD*%
%TO.C,R16*%
X251095000Y-96520000D03*
X253095000Y-96520000D03*
%TD*%
D28*
%TO.C,J4*%
X82300000Y-22352000D03*
X78990000Y-24892000D03*
X82300000Y-27432000D03*
X78990000Y-29972000D03*
X82300000Y-32512000D03*
X78990000Y-35052000D03*
X82300000Y-37592000D03*
%TD*%
D29*
%TO.C,C52*%
X82892500Y-76327000D03*
X86017500Y-76327000D03*
%TD*%
D10*
%TO.C,C40*%
X87989500Y-75311000D03*
X90064500Y-75311000D03*
%TD*%
D13*
%TO.C,R39*%
X91964000Y-78359000D03*
X93964000Y-78359000D03*
%TD*%
M02*
