%TF.GenerationSoftware,KiCad,Pcbnew,(6.0.8)*%
%TF.CreationDate,2024-04-13T01:58:17+05:30*%
%TF.ProjectId,Lu_Testing,4c755f54-6573-4746-996e-672e6b696361,rev?*%
%TF.SameCoordinates,Original*%
%TF.FileFunction,Legend,Bot*%
%TF.FilePolarity,Positive*%
%FSLAX46Y46*%
G04 Gerber Fmt 4.6, Leading zero omitted, Abs format (unit mm)*
G04 Created by KiCad (PCBNEW (6.0.8)) date 2024-04-13 01:58:17*
%MOMM*%
%LPD*%
G01*
G04 APERTURE LIST*
%ADD10C,0.100000*%
%ADD11C,0.150000*%
%ADD12C,0.120000*%
G04 APERTURE END LIST*
D10*
X86459190Y-103548666D02*
X86221095Y-103382000D01*
X86459190Y-103262952D02*
X85959190Y-103262952D01*
X85959190Y-103453428D01*
X85983000Y-103501047D01*
X86006809Y-103524857D01*
X86054428Y-103548666D01*
X86125857Y-103548666D01*
X86173476Y-103524857D01*
X86197285Y-103501047D01*
X86221095Y-103453428D01*
X86221095Y-103262952D01*
X85959190Y-103715333D02*
X86459190Y-104048666D01*
X85959190Y-104048666D02*
X86459190Y-103715333D01*
X83316000Y-103124047D02*
X83292190Y-103076428D01*
X83292190Y-103005000D01*
X83316000Y-102933571D01*
X83363619Y-102885952D01*
X83411238Y-102862142D01*
X83506476Y-102838333D01*
X83577904Y-102838333D01*
X83673142Y-102862142D01*
X83720761Y-102885952D01*
X83768380Y-102933571D01*
X83792190Y-103005000D01*
X83792190Y-103052619D01*
X83768380Y-103124047D01*
X83744571Y-103147857D01*
X83577904Y-103147857D01*
X83577904Y-103052619D01*
X83792190Y-103362142D02*
X83292190Y-103362142D01*
X83792190Y-103647857D01*
X83292190Y-103647857D01*
X83792190Y-103885952D02*
X83292190Y-103885952D01*
X83292190Y-104005000D01*
X83316000Y-104076428D01*
X83363619Y-104124047D01*
X83411238Y-104147857D01*
X83506476Y-104171666D01*
X83577904Y-104171666D01*
X83673142Y-104147857D01*
X83720761Y-104124047D01*
X83768380Y-104076428D01*
X83792190Y-104005000D01*
X83792190Y-103885952D01*
X90785190Y-103409761D02*
X90785190Y-103171666D01*
X91023285Y-103147857D01*
X90999476Y-103171666D01*
X90975666Y-103219285D01*
X90975666Y-103338333D01*
X90999476Y-103385952D01*
X91023285Y-103409761D01*
X91070904Y-103433571D01*
X91189952Y-103433571D01*
X91237571Y-103409761D01*
X91261380Y-103385952D01*
X91285190Y-103338333D01*
X91285190Y-103219285D01*
X91261380Y-103171666D01*
X91237571Y-103147857D01*
X90785190Y-103576428D02*
X91285190Y-103743095D01*
X90785190Y-103909761D01*
X88245190Y-103378047D02*
X88245190Y-103663761D01*
X88745190Y-103520904D02*
X88245190Y-103520904D01*
X88245190Y-103782809D02*
X88745190Y-104116142D01*
X88245190Y-104116142D02*
X88745190Y-103782809D01*
D11*
%TO.C,R49*%
X95130857Y-102559380D02*
X95464190Y-102083190D01*
X95702285Y-102559380D02*
X95702285Y-101559380D01*
X95321333Y-101559380D01*
X95226095Y-101607000D01*
X95178476Y-101654619D01*
X95130857Y-101749857D01*
X95130857Y-101892714D01*
X95178476Y-101987952D01*
X95226095Y-102035571D01*
X95321333Y-102083190D01*
X95702285Y-102083190D01*
X94273714Y-101892714D02*
X94273714Y-102559380D01*
X94511809Y-101511761D02*
X94749904Y-102226047D01*
X94130857Y-102226047D01*
X93702285Y-102559380D02*
X93511809Y-102559380D01*
X93416571Y-102511761D01*
X93368952Y-102464142D01*
X93273714Y-102321285D01*
X93226095Y-102130809D01*
X93226095Y-101749857D01*
X93273714Y-101654619D01*
X93321333Y-101607000D01*
X93416571Y-101559380D01*
X93607047Y-101559380D01*
X93702285Y-101607000D01*
X93749904Y-101654619D01*
X93797523Y-101749857D01*
X93797523Y-101987952D01*
X93749904Y-102083190D01*
X93702285Y-102130809D01*
X93607047Y-102178428D01*
X93416571Y-102178428D01*
X93321333Y-102130809D01*
X93273714Y-102083190D01*
X93226095Y-101987952D01*
%TO.C,C1*%
X122546142Y-64095333D02*
X122593761Y-64047714D01*
X122641380Y-63904857D01*
X122641380Y-63809619D01*
X122593761Y-63666761D01*
X122498523Y-63571523D01*
X122403285Y-63523904D01*
X122212809Y-63476285D01*
X122069952Y-63476285D01*
X121879476Y-63523904D01*
X121784238Y-63571523D01*
X121689000Y-63666761D01*
X121641380Y-63809619D01*
X121641380Y-63904857D01*
X121689000Y-64047714D01*
X121736619Y-64095333D01*
X122641380Y-65047714D02*
X122641380Y-64476285D01*
X122641380Y-64762000D02*
X121641380Y-64762000D01*
X121784238Y-64666761D01*
X121879476Y-64571523D01*
X121927095Y-64476285D01*
%TO.C,C16*%
X129293857Y-56081142D02*
X129341476Y-56128761D01*
X129484333Y-56176380D01*
X129579571Y-56176380D01*
X129722428Y-56128761D01*
X129817666Y-56033523D01*
X129865285Y-55938285D01*
X129912904Y-55747809D01*
X129912904Y-55604952D01*
X129865285Y-55414476D01*
X129817666Y-55319238D01*
X129722428Y-55224000D01*
X129579571Y-55176380D01*
X129484333Y-55176380D01*
X129341476Y-55224000D01*
X129293857Y-55271619D01*
X128341476Y-56176380D02*
X128912904Y-56176380D01*
X128627190Y-56176380D02*
X128627190Y-55176380D01*
X128722428Y-55319238D01*
X128817666Y-55414476D01*
X128912904Y-55462095D01*
X127484333Y-55176380D02*
X127674809Y-55176380D01*
X127770047Y-55224000D01*
X127817666Y-55271619D01*
X127912904Y-55414476D01*
X127960523Y-55604952D01*
X127960523Y-55985904D01*
X127912904Y-56081142D01*
X127865285Y-56128761D01*
X127770047Y-56176380D01*
X127579571Y-56176380D01*
X127484333Y-56128761D01*
X127436714Y-56081142D01*
X127389095Y-55985904D01*
X127389095Y-55747809D01*
X127436714Y-55652571D01*
X127484333Y-55604952D01*
X127579571Y-55557333D01*
X127770047Y-55557333D01*
X127865285Y-55604952D01*
X127912904Y-55652571D01*
X127960523Y-55747809D01*
%TO.C,C32*%
X108211857Y-73919142D02*
X108259476Y-73966761D01*
X108402333Y-74014380D01*
X108497571Y-74014380D01*
X108640428Y-73966761D01*
X108735666Y-73871523D01*
X108783285Y-73776285D01*
X108830904Y-73585809D01*
X108830904Y-73442952D01*
X108783285Y-73252476D01*
X108735666Y-73157238D01*
X108640428Y-73062000D01*
X108497571Y-73014380D01*
X108402333Y-73014380D01*
X108259476Y-73062000D01*
X108211857Y-73109619D01*
X107878523Y-73014380D02*
X107259476Y-73014380D01*
X107592809Y-73395333D01*
X107449952Y-73395333D01*
X107354714Y-73442952D01*
X107307095Y-73490571D01*
X107259476Y-73585809D01*
X107259476Y-73823904D01*
X107307095Y-73919142D01*
X107354714Y-73966761D01*
X107449952Y-74014380D01*
X107735666Y-74014380D01*
X107830904Y-73966761D01*
X107878523Y-73919142D01*
X106878523Y-73109619D02*
X106830904Y-73062000D01*
X106735666Y-73014380D01*
X106497571Y-73014380D01*
X106402333Y-73062000D01*
X106354714Y-73109619D01*
X106307095Y-73204857D01*
X106307095Y-73300095D01*
X106354714Y-73442952D01*
X106926142Y-74014380D01*
X106307095Y-74014380D01*
%TO.C,R27*%
X251323357Y-103963380D02*
X251656690Y-103487190D01*
X251894785Y-103963380D02*
X251894785Y-102963380D01*
X251513833Y-102963380D01*
X251418595Y-103011000D01*
X251370976Y-103058619D01*
X251323357Y-103153857D01*
X251323357Y-103296714D01*
X251370976Y-103391952D01*
X251418595Y-103439571D01*
X251513833Y-103487190D01*
X251894785Y-103487190D01*
X250942404Y-103058619D02*
X250894785Y-103011000D01*
X250799547Y-102963380D01*
X250561452Y-102963380D01*
X250466214Y-103011000D01*
X250418595Y-103058619D01*
X250370976Y-103153857D01*
X250370976Y-103249095D01*
X250418595Y-103391952D01*
X250990023Y-103963380D01*
X250370976Y-103963380D01*
X250037642Y-102963380D02*
X249370976Y-102963380D01*
X249799547Y-103963380D01*
%TO.C,R19*%
X251450357Y-79579380D02*
X251783690Y-79103190D01*
X252021785Y-79579380D02*
X252021785Y-78579380D01*
X251640833Y-78579380D01*
X251545595Y-78627000D01*
X251497976Y-78674619D01*
X251450357Y-78769857D01*
X251450357Y-78912714D01*
X251497976Y-79007952D01*
X251545595Y-79055571D01*
X251640833Y-79103190D01*
X252021785Y-79103190D01*
X250497976Y-79579380D02*
X251069404Y-79579380D01*
X250783690Y-79579380D02*
X250783690Y-78579380D01*
X250878928Y-78722238D01*
X250974166Y-78817476D01*
X251069404Y-78865095D01*
X250021785Y-79579380D02*
X249831309Y-79579380D01*
X249736071Y-79531761D01*
X249688452Y-79484142D01*
X249593214Y-79341285D01*
X249545595Y-79150809D01*
X249545595Y-78769857D01*
X249593214Y-78674619D01*
X249640833Y-78627000D01*
X249736071Y-78579380D01*
X249926547Y-78579380D01*
X250021785Y-78627000D01*
X250069404Y-78674619D01*
X250117023Y-78769857D01*
X250117023Y-79007952D01*
X250069404Y-79103190D01*
X250021785Y-79150809D01*
X249926547Y-79198428D01*
X249736071Y-79198428D01*
X249640833Y-79150809D01*
X249593214Y-79103190D01*
X249545595Y-79007952D01*
%TO.C,R30*%
X139072857Y-102432380D02*
X139406190Y-101956190D01*
X139644285Y-102432380D02*
X139644285Y-101432380D01*
X139263333Y-101432380D01*
X139168095Y-101480000D01*
X139120476Y-101527619D01*
X139072857Y-101622857D01*
X139072857Y-101765714D01*
X139120476Y-101860952D01*
X139168095Y-101908571D01*
X139263333Y-101956190D01*
X139644285Y-101956190D01*
X138739523Y-101432380D02*
X138120476Y-101432380D01*
X138453809Y-101813333D01*
X138310952Y-101813333D01*
X138215714Y-101860952D01*
X138168095Y-101908571D01*
X138120476Y-102003809D01*
X138120476Y-102241904D01*
X138168095Y-102337142D01*
X138215714Y-102384761D01*
X138310952Y-102432380D01*
X138596666Y-102432380D01*
X138691904Y-102384761D01*
X138739523Y-102337142D01*
X137501428Y-101432380D02*
X137406190Y-101432380D01*
X137310952Y-101480000D01*
X137263333Y-101527619D01*
X137215714Y-101622857D01*
X137168095Y-101813333D01*
X137168095Y-102051428D01*
X137215714Y-102241904D01*
X137263333Y-102337142D01*
X137310952Y-102384761D01*
X137406190Y-102432380D01*
X137501428Y-102432380D01*
X137596666Y-102384761D01*
X137644285Y-102337142D01*
X137691904Y-102241904D01*
X137739523Y-102051428D01*
X137739523Y-101813333D01*
X137691904Y-101622857D01*
X137644285Y-101527619D01*
X137596666Y-101480000D01*
X137501428Y-101432380D01*
%TO.C,R42*%
X97479380Y-53840142D02*
X97003190Y-53506809D01*
X97479380Y-53268714D02*
X96479380Y-53268714D01*
X96479380Y-53649666D01*
X96527000Y-53744904D01*
X96574619Y-53792523D01*
X96669857Y-53840142D01*
X96812714Y-53840142D01*
X96907952Y-53792523D01*
X96955571Y-53744904D01*
X97003190Y-53649666D01*
X97003190Y-53268714D01*
X96812714Y-54697285D02*
X97479380Y-54697285D01*
X96431761Y-54459190D02*
X97146047Y-54221095D01*
X97146047Y-54840142D01*
X96574619Y-55173476D02*
X96527000Y-55221095D01*
X96479380Y-55316333D01*
X96479380Y-55554428D01*
X96527000Y-55649666D01*
X96574619Y-55697285D01*
X96669857Y-55744904D01*
X96765095Y-55744904D01*
X96907952Y-55697285D01*
X97479380Y-55125857D01*
X97479380Y-55744904D01*
%TO.C,R8*%
X208446666Y-32105380D02*
X208780000Y-31629190D01*
X209018095Y-32105380D02*
X209018095Y-31105380D01*
X208637142Y-31105380D01*
X208541904Y-31153000D01*
X208494285Y-31200619D01*
X208446666Y-31295857D01*
X208446666Y-31438714D01*
X208494285Y-31533952D01*
X208541904Y-31581571D01*
X208637142Y-31629190D01*
X209018095Y-31629190D01*
X207875238Y-31533952D02*
X207970476Y-31486333D01*
X208018095Y-31438714D01*
X208065714Y-31343476D01*
X208065714Y-31295857D01*
X208018095Y-31200619D01*
X207970476Y-31153000D01*
X207875238Y-31105380D01*
X207684761Y-31105380D01*
X207589523Y-31153000D01*
X207541904Y-31200619D01*
X207494285Y-31295857D01*
X207494285Y-31343476D01*
X207541904Y-31438714D01*
X207589523Y-31486333D01*
X207684761Y-31533952D01*
X207875238Y-31533952D01*
X207970476Y-31581571D01*
X208018095Y-31629190D01*
X208065714Y-31724428D01*
X208065714Y-31914904D01*
X208018095Y-32010142D01*
X207970476Y-32057761D01*
X207875238Y-32105380D01*
X207684761Y-32105380D01*
X207589523Y-32057761D01*
X207541904Y-32010142D01*
X207494285Y-31914904D01*
X207494285Y-31724428D01*
X207541904Y-31629190D01*
X207589523Y-31581571D01*
X207684761Y-31533952D01*
%TO.C,C41*%
X101674142Y-27805142D02*
X101721761Y-27757523D01*
X101769380Y-27614666D01*
X101769380Y-27519428D01*
X101721761Y-27376571D01*
X101626523Y-27281333D01*
X101531285Y-27233714D01*
X101340809Y-27186095D01*
X101197952Y-27186095D01*
X101007476Y-27233714D01*
X100912238Y-27281333D01*
X100817000Y-27376571D01*
X100769380Y-27519428D01*
X100769380Y-27614666D01*
X100817000Y-27757523D01*
X100864619Y-27805142D01*
X101102714Y-28662285D02*
X101769380Y-28662285D01*
X100721761Y-28424190D02*
X101436047Y-28186095D01*
X101436047Y-28805142D01*
X101769380Y-29709904D02*
X101769380Y-29138476D01*
X101769380Y-29424190D02*
X100769380Y-29424190D01*
X100912238Y-29328952D01*
X101007476Y-29233714D01*
X101055095Y-29138476D01*
%TO.C,R28*%
X140180885Y-99807616D02*
X140514218Y-99331426D01*
X140752313Y-99807616D02*
X140752313Y-98807616D01*
X140371361Y-98807616D01*
X140276123Y-98855236D01*
X140228504Y-98902855D01*
X140180885Y-98998093D01*
X140180885Y-99140950D01*
X140228504Y-99236188D01*
X140276123Y-99283807D01*
X140371361Y-99331426D01*
X140752313Y-99331426D01*
X139799932Y-98902855D02*
X139752313Y-98855236D01*
X139657075Y-98807616D01*
X139418980Y-98807616D01*
X139323742Y-98855236D01*
X139276123Y-98902855D01*
X139228504Y-98998093D01*
X139228504Y-99093331D01*
X139276123Y-99236188D01*
X139847551Y-99807616D01*
X139228504Y-99807616D01*
X138657075Y-99236188D02*
X138752313Y-99188569D01*
X138799932Y-99140950D01*
X138847551Y-99045712D01*
X138847551Y-98998093D01*
X138799932Y-98902855D01*
X138752313Y-98855236D01*
X138657075Y-98807616D01*
X138466599Y-98807616D01*
X138371361Y-98855236D01*
X138323742Y-98902855D01*
X138276123Y-98998093D01*
X138276123Y-99045712D01*
X138323742Y-99140950D01*
X138371361Y-99188569D01*
X138466599Y-99236188D01*
X138657075Y-99236188D01*
X138752313Y-99283807D01*
X138799932Y-99331426D01*
X138847551Y-99426664D01*
X138847551Y-99617140D01*
X138799932Y-99712378D01*
X138752313Y-99759997D01*
X138657075Y-99807616D01*
X138466599Y-99807616D01*
X138371361Y-99759997D01*
X138323742Y-99712378D01*
X138276123Y-99617140D01*
X138276123Y-99426664D01*
X138323742Y-99331426D01*
X138371361Y-99283807D01*
X138466599Y-99236188D01*
%TO.C,R26*%
X251323357Y-87707380D02*
X251656690Y-87231190D01*
X251894785Y-87707380D02*
X251894785Y-86707380D01*
X251513833Y-86707380D01*
X251418595Y-86755000D01*
X251370976Y-86802619D01*
X251323357Y-86897857D01*
X251323357Y-87040714D01*
X251370976Y-87135952D01*
X251418595Y-87183571D01*
X251513833Y-87231190D01*
X251894785Y-87231190D01*
X250942404Y-86802619D02*
X250894785Y-86755000D01*
X250799547Y-86707380D01*
X250561452Y-86707380D01*
X250466214Y-86755000D01*
X250418595Y-86802619D01*
X250370976Y-86897857D01*
X250370976Y-86993095D01*
X250418595Y-87135952D01*
X250990023Y-87707380D01*
X250370976Y-87707380D01*
X249513833Y-86707380D02*
X249704309Y-86707380D01*
X249799547Y-86755000D01*
X249847166Y-86802619D01*
X249942404Y-86945476D01*
X249990023Y-87135952D01*
X249990023Y-87516904D01*
X249942404Y-87612142D01*
X249894785Y-87659761D01*
X249799547Y-87707380D01*
X249609071Y-87707380D01*
X249513833Y-87659761D01*
X249466214Y-87612142D01*
X249418595Y-87516904D01*
X249418595Y-87278809D01*
X249466214Y-87183571D01*
X249513833Y-87135952D01*
X249609071Y-87088333D01*
X249799547Y-87088333D01*
X249894785Y-87135952D01*
X249942404Y-87183571D01*
X249990023Y-87278809D01*
%TO.C,R25*%
X251372357Y-83656380D02*
X251705690Y-83180190D01*
X251943785Y-83656380D02*
X251943785Y-82656380D01*
X251562833Y-82656380D01*
X251467595Y-82704000D01*
X251419976Y-82751619D01*
X251372357Y-82846857D01*
X251372357Y-82989714D01*
X251419976Y-83084952D01*
X251467595Y-83132571D01*
X251562833Y-83180190D01*
X251943785Y-83180190D01*
X250991404Y-82751619D02*
X250943785Y-82704000D01*
X250848547Y-82656380D01*
X250610452Y-82656380D01*
X250515214Y-82704000D01*
X250467595Y-82751619D01*
X250419976Y-82846857D01*
X250419976Y-82942095D01*
X250467595Y-83084952D01*
X251039023Y-83656380D01*
X250419976Y-83656380D01*
X249515214Y-82656380D02*
X249991404Y-82656380D01*
X250039023Y-83132571D01*
X249991404Y-83084952D01*
X249896166Y-83037333D01*
X249658071Y-83037333D01*
X249562833Y-83084952D01*
X249515214Y-83132571D01*
X249467595Y-83227809D01*
X249467595Y-83465904D01*
X249515214Y-83561142D01*
X249562833Y-83608761D01*
X249658071Y-83656380D01*
X249896166Y-83656380D01*
X249991404Y-83608761D01*
X250039023Y-83561142D01*
%TO.C,Q4*%
X107621619Y-28733761D02*
X107574000Y-28638523D01*
X107478761Y-28543285D01*
X107335904Y-28400428D01*
X107288285Y-28305190D01*
X107288285Y-28209952D01*
X107526380Y-28257571D02*
X107478761Y-28162333D01*
X107383523Y-28067095D01*
X107193047Y-28019476D01*
X106859714Y-28019476D01*
X106669238Y-28067095D01*
X106574000Y-28162333D01*
X106526380Y-28257571D01*
X106526380Y-28448047D01*
X106574000Y-28543285D01*
X106669238Y-28638523D01*
X106859714Y-28686142D01*
X107193047Y-28686142D01*
X107383523Y-28638523D01*
X107478761Y-28543285D01*
X107526380Y-28448047D01*
X107526380Y-28257571D01*
X106859714Y-29543285D02*
X107526380Y-29543285D01*
X106478761Y-29305190D02*
X107193047Y-29067095D01*
X107193047Y-29686142D01*
%TO.C,C25*%
X120300142Y-94099142D02*
X120347761Y-94051523D01*
X120395380Y-93908666D01*
X120395380Y-93813428D01*
X120347761Y-93670571D01*
X120252523Y-93575333D01*
X120157285Y-93527714D01*
X119966809Y-93480095D01*
X119823952Y-93480095D01*
X119633476Y-93527714D01*
X119538238Y-93575333D01*
X119443000Y-93670571D01*
X119395380Y-93813428D01*
X119395380Y-93908666D01*
X119443000Y-94051523D01*
X119490619Y-94099142D01*
X119490619Y-94480095D02*
X119443000Y-94527714D01*
X119395380Y-94622952D01*
X119395380Y-94861047D01*
X119443000Y-94956285D01*
X119490619Y-95003904D01*
X119585857Y-95051523D01*
X119681095Y-95051523D01*
X119823952Y-95003904D01*
X120395380Y-94432476D01*
X120395380Y-95051523D01*
X119395380Y-95956285D02*
X119395380Y-95480095D01*
X119871571Y-95432476D01*
X119823952Y-95480095D01*
X119776333Y-95575333D01*
X119776333Y-95813428D01*
X119823952Y-95908666D01*
X119871571Y-95956285D01*
X119966809Y-96003904D01*
X120204904Y-96003904D01*
X120300142Y-95956285D01*
X120347761Y-95908666D01*
X120395380Y-95813428D01*
X120395380Y-95575333D01*
X120347761Y-95480095D01*
X120300142Y-95432476D01*
%TO.C,C18*%
X126286142Y-99814142D02*
X126333761Y-99766523D01*
X126381380Y-99623666D01*
X126381380Y-99528428D01*
X126333761Y-99385571D01*
X126238523Y-99290333D01*
X126143285Y-99242714D01*
X125952809Y-99195095D01*
X125809952Y-99195095D01*
X125619476Y-99242714D01*
X125524238Y-99290333D01*
X125429000Y-99385571D01*
X125381380Y-99528428D01*
X125381380Y-99623666D01*
X125429000Y-99766523D01*
X125476619Y-99814142D01*
X126381380Y-100766523D02*
X126381380Y-100195095D01*
X126381380Y-100480809D02*
X125381380Y-100480809D01*
X125524238Y-100385571D01*
X125619476Y-100290333D01*
X125667095Y-100195095D01*
X125809952Y-101337952D02*
X125762333Y-101242714D01*
X125714714Y-101195095D01*
X125619476Y-101147476D01*
X125571857Y-101147476D01*
X125476619Y-101195095D01*
X125429000Y-101242714D01*
X125381380Y-101337952D01*
X125381380Y-101528428D01*
X125429000Y-101623666D01*
X125476619Y-101671285D01*
X125571857Y-101718904D01*
X125619476Y-101718904D01*
X125714714Y-101671285D01*
X125762333Y-101623666D01*
X125809952Y-101528428D01*
X125809952Y-101337952D01*
X125857571Y-101242714D01*
X125905190Y-101195095D01*
X126000428Y-101147476D01*
X126190904Y-101147476D01*
X126286142Y-101195095D01*
X126333761Y-101242714D01*
X126381380Y-101337952D01*
X126381380Y-101528428D01*
X126333761Y-101623666D01*
X126286142Y-101671285D01*
X126190904Y-101718904D01*
X126000428Y-101718904D01*
X125905190Y-101671285D01*
X125857571Y-101623666D01*
X125809952Y-101528428D01*
%TO.C,R5*%
X192858380Y-53427333D02*
X192382190Y-53094000D01*
X192858380Y-52855904D02*
X191858380Y-52855904D01*
X191858380Y-53236857D01*
X191906000Y-53332095D01*
X191953619Y-53379714D01*
X192048857Y-53427333D01*
X192191714Y-53427333D01*
X192286952Y-53379714D01*
X192334571Y-53332095D01*
X192382190Y-53236857D01*
X192382190Y-52855904D01*
X191858380Y-54332095D02*
X191858380Y-53855904D01*
X192334571Y-53808285D01*
X192286952Y-53855904D01*
X192239333Y-53951142D01*
X192239333Y-54189238D01*
X192286952Y-54284476D01*
X192334571Y-54332095D01*
X192429809Y-54379714D01*
X192667904Y-54379714D01*
X192763142Y-54332095D01*
X192810761Y-54284476D01*
X192858380Y-54189238D01*
X192858380Y-53951142D01*
X192810761Y-53855904D01*
X192763142Y-53808285D01*
%TO.C,C57*%
X105544857Y-84994142D02*
X105592476Y-85041761D01*
X105735333Y-85089380D01*
X105830571Y-85089380D01*
X105973428Y-85041761D01*
X106068666Y-84946523D01*
X106116285Y-84851285D01*
X106163904Y-84660809D01*
X106163904Y-84517952D01*
X106116285Y-84327476D01*
X106068666Y-84232238D01*
X105973428Y-84137000D01*
X105830571Y-84089380D01*
X105735333Y-84089380D01*
X105592476Y-84137000D01*
X105544857Y-84184619D01*
X104640095Y-84089380D02*
X105116285Y-84089380D01*
X105163904Y-84565571D01*
X105116285Y-84517952D01*
X105021047Y-84470333D01*
X104782952Y-84470333D01*
X104687714Y-84517952D01*
X104640095Y-84565571D01*
X104592476Y-84660809D01*
X104592476Y-84898904D01*
X104640095Y-84994142D01*
X104687714Y-85041761D01*
X104782952Y-85089380D01*
X105021047Y-85089380D01*
X105116285Y-85041761D01*
X105163904Y-84994142D01*
X104259142Y-84089380D02*
X103592476Y-84089380D01*
X104021047Y-85089380D01*
%TO.C,C21*%
X123830142Y-99560142D02*
X123877761Y-99512523D01*
X123925380Y-99369666D01*
X123925380Y-99274428D01*
X123877761Y-99131571D01*
X123782523Y-99036333D01*
X123687285Y-98988714D01*
X123496809Y-98941095D01*
X123353952Y-98941095D01*
X123163476Y-98988714D01*
X123068238Y-99036333D01*
X122973000Y-99131571D01*
X122925380Y-99274428D01*
X122925380Y-99369666D01*
X122973000Y-99512523D01*
X123020619Y-99560142D01*
X123020619Y-99941095D02*
X122973000Y-99988714D01*
X122925380Y-100083952D01*
X122925380Y-100322047D01*
X122973000Y-100417285D01*
X123020619Y-100464904D01*
X123115857Y-100512523D01*
X123211095Y-100512523D01*
X123353952Y-100464904D01*
X123925380Y-99893476D01*
X123925380Y-100512523D01*
X123925380Y-101464904D02*
X123925380Y-100893476D01*
X123925380Y-101179190D02*
X122925380Y-101179190D01*
X123068238Y-101083952D01*
X123163476Y-100988714D01*
X123211095Y-100893476D01*
%TO.C,U1*%
X111413904Y-83834380D02*
X111413904Y-84643904D01*
X111366285Y-84739142D01*
X111318666Y-84786761D01*
X111223428Y-84834380D01*
X111032952Y-84834380D01*
X110937714Y-84786761D01*
X110890095Y-84739142D01*
X110842476Y-84643904D01*
X110842476Y-83834380D01*
X109842476Y-84834380D02*
X110413904Y-84834380D01*
X110128190Y-84834380D02*
X110128190Y-83834380D01*
X110223428Y-83977238D01*
X110318666Y-84072476D01*
X110413904Y-84120095D01*
%TO.C,C33*%
X101674142Y-68064142D02*
X101721761Y-68016523D01*
X101769380Y-67873666D01*
X101769380Y-67778428D01*
X101721761Y-67635571D01*
X101626523Y-67540333D01*
X101531285Y-67492714D01*
X101340809Y-67445095D01*
X101197952Y-67445095D01*
X101007476Y-67492714D01*
X100912238Y-67540333D01*
X100817000Y-67635571D01*
X100769380Y-67778428D01*
X100769380Y-67873666D01*
X100817000Y-68016523D01*
X100864619Y-68064142D01*
X100769380Y-68397476D02*
X100769380Y-69016523D01*
X101150333Y-68683190D01*
X101150333Y-68826047D01*
X101197952Y-68921285D01*
X101245571Y-68968904D01*
X101340809Y-69016523D01*
X101578904Y-69016523D01*
X101674142Y-68968904D01*
X101721761Y-68921285D01*
X101769380Y-68826047D01*
X101769380Y-68540333D01*
X101721761Y-68445095D01*
X101674142Y-68397476D01*
X100769380Y-69349857D02*
X100769380Y-69968904D01*
X101150333Y-69635571D01*
X101150333Y-69778428D01*
X101197952Y-69873666D01*
X101245571Y-69921285D01*
X101340809Y-69968904D01*
X101578904Y-69968904D01*
X101674142Y-69921285D01*
X101721761Y-69873666D01*
X101769380Y-69778428D01*
X101769380Y-69492714D01*
X101721761Y-69397476D01*
X101674142Y-69349857D01*
%TO.C,R32*%
X135262857Y-102432380D02*
X135596190Y-101956190D01*
X135834285Y-102432380D02*
X135834285Y-101432380D01*
X135453333Y-101432380D01*
X135358095Y-101480000D01*
X135310476Y-101527619D01*
X135262857Y-101622857D01*
X135262857Y-101765714D01*
X135310476Y-101860952D01*
X135358095Y-101908571D01*
X135453333Y-101956190D01*
X135834285Y-101956190D01*
X134929523Y-101432380D02*
X134310476Y-101432380D01*
X134643809Y-101813333D01*
X134500952Y-101813333D01*
X134405714Y-101860952D01*
X134358095Y-101908571D01*
X134310476Y-102003809D01*
X134310476Y-102241904D01*
X134358095Y-102337142D01*
X134405714Y-102384761D01*
X134500952Y-102432380D01*
X134786666Y-102432380D01*
X134881904Y-102384761D01*
X134929523Y-102337142D01*
X133929523Y-101527619D02*
X133881904Y-101480000D01*
X133786666Y-101432380D01*
X133548571Y-101432380D01*
X133453333Y-101480000D01*
X133405714Y-101527619D01*
X133358095Y-101622857D01*
X133358095Y-101718095D01*
X133405714Y-101860952D01*
X133977142Y-102432380D01*
X133358095Y-102432380D01*
%TO.C,R22*%
X251458357Y-75554380D02*
X251791690Y-75078190D01*
X252029785Y-75554380D02*
X252029785Y-74554380D01*
X251648833Y-74554380D01*
X251553595Y-74602000D01*
X251505976Y-74649619D01*
X251458357Y-74744857D01*
X251458357Y-74887714D01*
X251505976Y-74982952D01*
X251553595Y-75030571D01*
X251648833Y-75078190D01*
X252029785Y-75078190D01*
X251077404Y-74649619D02*
X251029785Y-74602000D01*
X250934547Y-74554380D01*
X250696452Y-74554380D01*
X250601214Y-74602000D01*
X250553595Y-74649619D01*
X250505976Y-74744857D01*
X250505976Y-74840095D01*
X250553595Y-74982952D01*
X251125023Y-75554380D01*
X250505976Y-75554380D01*
X250125023Y-74649619D02*
X250077404Y-74602000D01*
X249982166Y-74554380D01*
X249744071Y-74554380D01*
X249648833Y-74602000D01*
X249601214Y-74649619D01*
X249553595Y-74744857D01*
X249553595Y-74840095D01*
X249601214Y-74982952D01*
X250172642Y-75554380D01*
X249553595Y-75554380D01*
%TO.C,R20*%
X251323357Y-95835380D02*
X251656690Y-95359190D01*
X251894785Y-95835380D02*
X251894785Y-94835380D01*
X251513833Y-94835380D01*
X251418595Y-94883000D01*
X251370976Y-94930619D01*
X251323357Y-95025857D01*
X251323357Y-95168714D01*
X251370976Y-95263952D01*
X251418595Y-95311571D01*
X251513833Y-95359190D01*
X251894785Y-95359190D01*
X250942404Y-94930619D02*
X250894785Y-94883000D01*
X250799547Y-94835380D01*
X250561452Y-94835380D01*
X250466214Y-94883000D01*
X250418595Y-94930619D01*
X250370976Y-95025857D01*
X250370976Y-95121095D01*
X250418595Y-95263952D01*
X250990023Y-95835380D01*
X250370976Y-95835380D01*
X249751928Y-94835380D02*
X249656690Y-94835380D01*
X249561452Y-94883000D01*
X249513833Y-94930619D01*
X249466214Y-95025857D01*
X249418595Y-95216333D01*
X249418595Y-95454428D01*
X249466214Y-95644904D01*
X249513833Y-95740142D01*
X249561452Y-95787761D01*
X249656690Y-95835380D01*
X249751928Y-95835380D01*
X249847166Y-95787761D01*
X249894785Y-95740142D01*
X249942404Y-95644904D01*
X249990023Y-95454428D01*
X249990023Y-95216333D01*
X249942404Y-95025857D01*
X249894785Y-94930619D01*
X249847166Y-94883000D01*
X249751928Y-94835380D01*
%TO.C,C15*%
X130434142Y-70858142D02*
X130481761Y-70810523D01*
X130529380Y-70667666D01*
X130529380Y-70572428D01*
X130481761Y-70429571D01*
X130386523Y-70334333D01*
X130291285Y-70286714D01*
X130100809Y-70239095D01*
X129957952Y-70239095D01*
X129767476Y-70286714D01*
X129672238Y-70334333D01*
X129577000Y-70429571D01*
X129529380Y-70572428D01*
X129529380Y-70667666D01*
X129577000Y-70810523D01*
X129624619Y-70858142D01*
X130529380Y-71810523D02*
X130529380Y-71239095D01*
X130529380Y-71524809D02*
X129529380Y-71524809D01*
X129672238Y-71429571D01*
X129767476Y-71334333D01*
X129815095Y-71239095D01*
X129529380Y-72715285D02*
X129529380Y-72239095D01*
X130005571Y-72191476D01*
X129957952Y-72239095D01*
X129910333Y-72334333D01*
X129910333Y-72572428D01*
X129957952Y-72667666D01*
X130005571Y-72715285D01*
X130100809Y-72762904D01*
X130338904Y-72762904D01*
X130434142Y-72715285D01*
X130481761Y-72667666D01*
X130529380Y-72572428D01*
X130529380Y-72334333D01*
X130481761Y-72239095D01*
X130434142Y-72191476D01*
%TO.C,C31*%
X129139170Y-92067142D02*
X129186789Y-92019523D01*
X129234408Y-91876666D01*
X129234408Y-91781428D01*
X129186789Y-91638571D01*
X129091551Y-91543333D01*
X128996313Y-91495714D01*
X128805837Y-91448095D01*
X128662980Y-91448095D01*
X128472504Y-91495714D01*
X128377266Y-91543333D01*
X128282028Y-91638571D01*
X128234408Y-91781428D01*
X128234408Y-91876666D01*
X128282028Y-92019523D01*
X128329647Y-92067142D01*
X128234408Y-92400476D02*
X128234408Y-93019523D01*
X128615361Y-92686190D01*
X128615361Y-92829047D01*
X128662980Y-92924285D01*
X128710599Y-92971904D01*
X128805837Y-93019523D01*
X129043932Y-93019523D01*
X129139170Y-92971904D01*
X129186789Y-92924285D01*
X129234408Y-92829047D01*
X129234408Y-92543333D01*
X129186789Y-92448095D01*
X129139170Y-92400476D01*
X129234408Y-93971904D02*
X129234408Y-93400476D01*
X129234408Y-93686190D02*
X128234408Y-93686190D01*
X128377266Y-93590952D01*
X128472504Y-93495714D01*
X128520123Y-93400476D01*
%TO.C,Q5*%
X107113619Y-39528761D02*
X107066000Y-39433523D01*
X106970761Y-39338285D01*
X106827904Y-39195428D01*
X106780285Y-39100190D01*
X106780285Y-39004952D01*
X107018380Y-39052571D02*
X106970761Y-38957333D01*
X106875523Y-38862095D01*
X106685047Y-38814476D01*
X106351714Y-38814476D01*
X106161238Y-38862095D01*
X106066000Y-38957333D01*
X106018380Y-39052571D01*
X106018380Y-39243047D01*
X106066000Y-39338285D01*
X106161238Y-39433523D01*
X106351714Y-39481142D01*
X106685047Y-39481142D01*
X106875523Y-39433523D01*
X106970761Y-39338285D01*
X107018380Y-39243047D01*
X107018380Y-39052571D01*
X106018380Y-40385904D02*
X106018380Y-39909714D01*
X106494571Y-39862095D01*
X106446952Y-39909714D01*
X106399333Y-40004952D01*
X106399333Y-40243047D01*
X106446952Y-40338285D01*
X106494571Y-40385904D01*
X106589809Y-40433523D01*
X106827904Y-40433523D01*
X106923142Y-40385904D01*
X106970761Y-40338285D01*
X107018380Y-40243047D01*
X107018380Y-40004952D01*
X106970761Y-39909714D01*
X106923142Y-39862095D01*
%TO.C,R45*%
X80144857Y-99005380D02*
X80478190Y-98529190D01*
X80716285Y-99005380D02*
X80716285Y-98005380D01*
X80335333Y-98005380D01*
X80240095Y-98053000D01*
X80192476Y-98100619D01*
X80144857Y-98195857D01*
X80144857Y-98338714D01*
X80192476Y-98433952D01*
X80240095Y-98481571D01*
X80335333Y-98529190D01*
X80716285Y-98529190D01*
X79287714Y-98338714D02*
X79287714Y-99005380D01*
X79525809Y-97957761D02*
X79763904Y-98672047D01*
X79144857Y-98672047D01*
X78287714Y-98005380D02*
X78763904Y-98005380D01*
X78811523Y-98481571D01*
X78763904Y-98433952D01*
X78668666Y-98386333D01*
X78430571Y-98386333D01*
X78335333Y-98433952D01*
X78287714Y-98481571D01*
X78240095Y-98576809D01*
X78240095Y-98814904D01*
X78287714Y-98910142D01*
X78335333Y-98957761D01*
X78430571Y-99005380D01*
X78668666Y-99005380D01*
X78763904Y-98957761D01*
X78811523Y-98910142D01*
%TO.C,C36*%
X101674142Y-39235142D02*
X101721761Y-39187523D01*
X101769380Y-39044666D01*
X101769380Y-38949428D01*
X101721761Y-38806571D01*
X101626523Y-38711333D01*
X101531285Y-38663714D01*
X101340809Y-38616095D01*
X101197952Y-38616095D01*
X101007476Y-38663714D01*
X100912238Y-38711333D01*
X100817000Y-38806571D01*
X100769380Y-38949428D01*
X100769380Y-39044666D01*
X100817000Y-39187523D01*
X100864619Y-39235142D01*
X100769380Y-39568476D02*
X100769380Y-40187523D01*
X101150333Y-39854190D01*
X101150333Y-39997047D01*
X101197952Y-40092285D01*
X101245571Y-40139904D01*
X101340809Y-40187523D01*
X101578904Y-40187523D01*
X101674142Y-40139904D01*
X101721761Y-40092285D01*
X101769380Y-39997047D01*
X101769380Y-39711333D01*
X101721761Y-39616095D01*
X101674142Y-39568476D01*
X100769380Y-41044666D02*
X100769380Y-40854190D01*
X100817000Y-40758952D01*
X100864619Y-40711333D01*
X101007476Y-40616095D01*
X101197952Y-40568476D01*
X101578904Y-40568476D01*
X101674142Y-40616095D01*
X101721761Y-40663714D01*
X101769380Y-40758952D01*
X101769380Y-40949428D01*
X101721761Y-41044666D01*
X101674142Y-41092285D01*
X101578904Y-41139904D01*
X101340809Y-41139904D01*
X101245571Y-41092285D01*
X101197952Y-41044666D01*
X101150333Y-40949428D01*
X101150333Y-40758952D01*
X101197952Y-40663714D01*
X101245571Y-40616095D01*
X101340809Y-40568476D01*
%TO.C,R24*%
X251323357Y-108027380D02*
X251656690Y-107551190D01*
X251894785Y-108027380D02*
X251894785Y-107027380D01*
X251513833Y-107027380D01*
X251418595Y-107075000D01*
X251370976Y-107122619D01*
X251323357Y-107217857D01*
X251323357Y-107360714D01*
X251370976Y-107455952D01*
X251418595Y-107503571D01*
X251513833Y-107551190D01*
X251894785Y-107551190D01*
X250942404Y-107122619D02*
X250894785Y-107075000D01*
X250799547Y-107027380D01*
X250561452Y-107027380D01*
X250466214Y-107075000D01*
X250418595Y-107122619D01*
X250370976Y-107217857D01*
X250370976Y-107313095D01*
X250418595Y-107455952D01*
X250990023Y-108027380D01*
X250370976Y-108027380D01*
X249513833Y-107360714D02*
X249513833Y-108027380D01*
X249751928Y-106979761D02*
X249990023Y-107694047D01*
X249370976Y-107694047D01*
%TO.C,R21*%
X251323357Y-91771380D02*
X251656690Y-91295190D01*
X251894785Y-91771380D02*
X251894785Y-90771380D01*
X251513833Y-90771380D01*
X251418595Y-90819000D01*
X251370976Y-90866619D01*
X251323357Y-90961857D01*
X251323357Y-91104714D01*
X251370976Y-91199952D01*
X251418595Y-91247571D01*
X251513833Y-91295190D01*
X251894785Y-91295190D01*
X250942404Y-90866619D02*
X250894785Y-90819000D01*
X250799547Y-90771380D01*
X250561452Y-90771380D01*
X250466214Y-90819000D01*
X250418595Y-90866619D01*
X250370976Y-90961857D01*
X250370976Y-91057095D01*
X250418595Y-91199952D01*
X250990023Y-91771380D01*
X250370976Y-91771380D01*
X249418595Y-91771380D02*
X249990023Y-91771380D01*
X249704309Y-91771380D02*
X249704309Y-90771380D01*
X249799547Y-90914238D01*
X249894785Y-91009476D01*
X249990023Y-91057095D01*
%TO.C,C45*%
X106119142Y-46093142D02*
X106166761Y-46045523D01*
X106214380Y-45902666D01*
X106214380Y-45807428D01*
X106166761Y-45664571D01*
X106071523Y-45569333D01*
X105976285Y-45521714D01*
X105785809Y-45474095D01*
X105642952Y-45474095D01*
X105452476Y-45521714D01*
X105357238Y-45569333D01*
X105262000Y-45664571D01*
X105214380Y-45807428D01*
X105214380Y-45902666D01*
X105262000Y-46045523D01*
X105309619Y-46093142D01*
X105547714Y-46950285D02*
X106214380Y-46950285D01*
X105166761Y-46712190D02*
X105881047Y-46474095D01*
X105881047Y-47093142D01*
X105214380Y-47950285D02*
X105214380Y-47474095D01*
X105690571Y-47426476D01*
X105642952Y-47474095D01*
X105595333Y-47569333D01*
X105595333Y-47807428D01*
X105642952Y-47902666D01*
X105690571Y-47950285D01*
X105785809Y-47997904D01*
X106023904Y-47997904D01*
X106119142Y-47950285D01*
X106166761Y-47902666D01*
X106214380Y-47807428D01*
X106214380Y-47569333D01*
X106166761Y-47474095D01*
X106119142Y-47426476D01*
%TO.C,R12*%
X147530885Y-99172616D02*
X147864218Y-98696426D01*
X148102313Y-99172616D02*
X148102313Y-98172616D01*
X147721361Y-98172616D01*
X147626123Y-98220236D01*
X147578504Y-98267855D01*
X147530885Y-98363093D01*
X147530885Y-98505950D01*
X147578504Y-98601188D01*
X147626123Y-98648807D01*
X147721361Y-98696426D01*
X148102313Y-98696426D01*
X146578504Y-99172616D02*
X147149932Y-99172616D01*
X146864218Y-99172616D02*
X146864218Y-98172616D01*
X146959456Y-98315474D01*
X147054694Y-98410712D01*
X147149932Y-98458331D01*
X146197551Y-98267855D02*
X146149932Y-98220236D01*
X146054694Y-98172616D01*
X145816599Y-98172616D01*
X145721361Y-98220236D01*
X145673742Y-98267855D01*
X145626123Y-98363093D01*
X145626123Y-98458331D01*
X145673742Y-98601188D01*
X146245170Y-99172616D01*
X145626123Y-99172616D01*
%TO.C,Q3*%
X106605619Y-68357761D02*
X106558000Y-68262523D01*
X106462761Y-68167285D01*
X106319904Y-68024428D01*
X106272285Y-67929190D01*
X106272285Y-67833952D01*
X106510380Y-67881571D02*
X106462761Y-67786333D01*
X106367523Y-67691095D01*
X106177047Y-67643476D01*
X105843714Y-67643476D01*
X105653238Y-67691095D01*
X105558000Y-67786333D01*
X105510380Y-67881571D01*
X105510380Y-68072047D01*
X105558000Y-68167285D01*
X105653238Y-68262523D01*
X105843714Y-68310142D01*
X106177047Y-68310142D01*
X106367523Y-68262523D01*
X106462761Y-68167285D01*
X106510380Y-68072047D01*
X106510380Y-67881571D01*
X105510380Y-68643476D02*
X105510380Y-69262523D01*
X105891333Y-68929190D01*
X105891333Y-69072047D01*
X105938952Y-69167285D01*
X105986571Y-69214904D01*
X106081809Y-69262523D01*
X106319904Y-69262523D01*
X106415142Y-69214904D01*
X106462761Y-69167285D01*
X106510380Y-69072047D01*
X106510380Y-68786333D01*
X106462761Y-68691095D01*
X106415142Y-68643476D01*
%TO.C,R18*%
X251450357Y-71451380D02*
X251783690Y-70975190D01*
X252021785Y-71451380D02*
X252021785Y-70451380D01*
X251640833Y-70451380D01*
X251545595Y-70499000D01*
X251497976Y-70546619D01*
X251450357Y-70641857D01*
X251450357Y-70784714D01*
X251497976Y-70879952D01*
X251545595Y-70927571D01*
X251640833Y-70975190D01*
X252021785Y-70975190D01*
X250497976Y-71451380D02*
X251069404Y-71451380D01*
X250783690Y-71451380D02*
X250783690Y-70451380D01*
X250878928Y-70594238D01*
X250974166Y-70689476D01*
X251069404Y-70737095D01*
X249926547Y-70879952D02*
X250021785Y-70832333D01*
X250069404Y-70784714D01*
X250117023Y-70689476D01*
X250117023Y-70641857D01*
X250069404Y-70546619D01*
X250021785Y-70499000D01*
X249926547Y-70451380D01*
X249736071Y-70451380D01*
X249640833Y-70499000D01*
X249593214Y-70546619D01*
X249545595Y-70641857D01*
X249545595Y-70689476D01*
X249593214Y-70784714D01*
X249640833Y-70832333D01*
X249736071Y-70879952D01*
X249926547Y-70879952D01*
X250021785Y-70927571D01*
X250069404Y-70975190D01*
X250117023Y-71070428D01*
X250117023Y-71260904D01*
X250069404Y-71356142D01*
X250021785Y-71403761D01*
X249926547Y-71451380D01*
X249736071Y-71451380D01*
X249640833Y-71403761D01*
X249593214Y-71356142D01*
X249545595Y-71260904D01*
X249545595Y-71070428D01*
X249593214Y-70975190D01*
X249640833Y-70927571D01*
X249736071Y-70879952D01*
%TO.C,R2*%
X203283666Y-32049380D02*
X203617000Y-31573190D01*
X203855095Y-32049380D02*
X203855095Y-31049380D01*
X203474142Y-31049380D01*
X203378904Y-31097000D01*
X203331285Y-31144619D01*
X203283666Y-31239857D01*
X203283666Y-31382714D01*
X203331285Y-31477952D01*
X203378904Y-31525571D01*
X203474142Y-31573190D01*
X203855095Y-31573190D01*
X202902714Y-31144619D02*
X202855095Y-31097000D01*
X202759857Y-31049380D01*
X202521761Y-31049380D01*
X202426523Y-31097000D01*
X202378904Y-31144619D01*
X202331285Y-31239857D01*
X202331285Y-31335095D01*
X202378904Y-31477952D01*
X202950333Y-32049380D01*
X202331285Y-32049380D01*
%TO.C,D2*%
X125341380Y-63650904D02*
X124341380Y-63650904D01*
X124341380Y-63889000D01*
X124389000Y-64031857D01*
X124484238Y-64127095D01*
X124579476Y-64174714D01*
X124769952Y-64222333D01*
X124912809Y-64222333D01*
X125103285Y-64174714D01*
X125198523Y-64127095D01*
X125293761Y-64031857D01*
X125341380Y-63889000D01*
X125341380Y-63650904D01*
X124436619Y-64603285D02*
X124389000Y-64650904D01*
X124341380Y-64746142D01*
X124341380Y-64984238D01*
X124389000Y-65079476D01*
X124436619Y-65127095D01*
X124531857Y-65174714D01*
X124627095Y-65174714D01*
X124769952Y-65127095D01*
X125341380Y-64555666D01*
X125341380Y-65174714D01*
%TO.C,C55*%
X97756809Y-81314142D02*
X97804428Y-81361761D01*
X97947285Y-81409380D01*
X98042523Y-81409380D01*
X98185380Y-81361761D01*
X98280618Y-81266523D01*
X98328237Y-81171285D01*
X98375856Y-80980809D01*
X98375856Y-80837952D01*
X98328237Y-80647476D01*
X98280618Y-80552238D01*
X98185380Y-80457000D01*
X98042523Y-80409380D01*
X97947285Y-80409380D01*
X97804428Y-80457000D01*
X97756809Y-80504619D01*
X96852047Y-80409380D02*
X97328237Y-80409380D01*
X97375856Y-80885571D01*
X97328237Y-80837952D01*
X97232999Y-80790333D01*
X96994904Y-80790333D01*
X96899666Y-80837952D01*
X96852047Y-80885571D01*
X96804428Y-80980809D01*
X96804428Y-81218904D01*
X96852047Y-81314142D01*
X96899666Y-81361761D01*
X96994904Y-81409380D01*
X97232999Y-81409380D01*
X97328237Y-81361761D01*
X97375856Y-81314142D01*
X95899666Y-80409380D02*
X96375856Y-80409380D01*
X96423475Y-80885571D01*
X96375856Y-80837952D01*
X96280618Y-80790333D01*
X96042523Y-80790333D01*
X95947285Y-80837952D01*
X95899666Y-80885571D01*
X95852047Y-80980809D01*
X95852047Y-81218904D01*
X95899666Y-81314142D01*
X95947285Y-81361761D01*
X96042523Y-81409380D01*
X96280618Y-81409380D01*
X96375856Y-81361761D01*
X96423475Y-81314142D01*
%TO.C,R29*%
X147530885Y-93586616D02*
X147864218Y-93110426D01*
X148102313Y-93586616D02*
X148102313Y-92586616D01*
X147721361Y-92586616D01*
X147626123Y-92634236D01*
X147578504Y-92681855D01*
X147530885Y-92777093D01*
X147530885Y-92919950D01*
X147578504Y-93015188D01*
X147626123Y-93062807D01*
X147721361Y-93110426D01*
X148102313Y-93110426D01*
X147149932Y-92681855D02*
X147102313Y-92634236D01*
X147007075Y-92586616D01*
X146768980Y-92586616D01*
X146673742Y-92634236D01*
X146626123Y-92681855D01*
X146578504Y-92777093D01*
X146578504Y-92872331D01*
X146626123Y-93015188D01*
X147197551Y-93586616D01*
X146578504Y-93586616D01*
X146102313Y-93586616D02*
X145911837Y-93586616D01*
X145816599Y-93538997D01*
X145768980Y-93491378D01*
X145673742Y-93348521D01*
X145626123Y-93158045D01*
X145626123Y-92777093D01*
X145673742Y-92681855D01*
X145721361Y-92634236D01*
X145816599Y-92586616D01*
X146007075Y-92586616D01*
X146102313Y-92634236D01*
X146149932Y-92681855D01*
X146197551Y-92777093D01*
X146197551Y-93015188D01*
X146149932Y-93110426D01*
X146102313Y-93158045D01*
X146007075Y-93205664D01*
X145816599Y-93205664D01*
X145721361Y-93158045D01*
X145673742Y-93110426D01*
X145626123Y-93015188D01*
%TO.C,C30*%
X131722170Y-91855378D02*
X131769789Y-91807759D01*
X131817408Y-91664902D01*
X131817408Y-91569664D01*
X131769789Y-91426807D01*
X131674551Y-91331569D01*
X131579313Y-91283950D01*
X131388837Y-91236331D01*
X131245980Y-91236331D01*
X131055504Y-91283950D01*
X130960266Y-91331569D01*
X130865028Y-91426807D01*
X130817408Y-91569664D01*
X130817408Y-91664902D01*
X130865028Y-91807759D01*
X130912647Y-91855378D01*
X130817408Y-92188712D02*
X130817408Y-92807759D01*
X131198361Y-92474426D01*
X131198361Y-92617283D01*
X131245980Y-92712521D01*
X131293599Y-92760140D01*
X131388837Y-92807759D01*
X131626932Y-92807759D01*
X131722170Y-92760140D01*
X131769789Y-92712521D01*
X131817408Y-92617283D01*
X131817408Y-92331569D01*
X131769789Y-92236331D01*
X131722170Y-92188712D01*
X130817408Y-93426807D02*
X130817408Y-93522045D01*
X130865028Y-93617283D01*
X130912647Y-93664902D01*
X131007885Y-93712521D01*
X131198361Y-93760140D01*
X131436456Y-93760140D01*
X131626932Y-93712521D01*
X131722170Y-93664902D01*
X131769789Y-93617283D01*
X131817408Y-93522045D01*
X131817408Y-93426807D01*
X131769789Y-93331569D01*
X131722170Y-93283950D01*
X131626932Y-93236331D01*
X131436456Y-93188712D01*
X131198361Y-93188712D01*
X131007885Y-93236331D01*
X130912647Y-93283950D01*
X130865028Y-93331569D01*
X130817408Y-93426807D01*
%TO.C,R7*%
X203239666Y-34657380D02*
X203573000Y-34181190D01*
X203811095Y-34657380D02*
X203811095Y-33657380D01*
X203430142Y-33657380D01*
X203334904Y-33705000D01*
X203287285Y-33752619D01*
X203239666Y-33847857D01*
X203239666Y-33990714D01*
X203287285Y-34085952D01*
X203334904Y-34133571D01*
X203430142Y-34181190D01*
X203811095Y-34181190D01*
X202906333Y-33657380D02*
X202239666Y-33657380D01*
X202668238Y-34657380D01*
%TO.C,C9*%
X128318142Y-71842333D02*
X128365761Y-71794714D01*
X128413380Y-71651857D01*
X128413380Y-71556619D01*
X128365761Y-71413761D01*
X128270523Y-71318523D01*
X128175285Y-71270904D01*
X127984809Y-71223285D01*
X127841952Y-71223285D01*
X127651476Y-71270904D01*
X127556238Y-71318523D01*
X127461000Y-71413761D01*
X127413380Y-71556619D01*
X127413380Y-71651857D01*
X127461000Y-71794714D01*
X127508619Y-71842333D01*
X128413380Y-72318523D02*
X128413380Y-72509000D01*
X128365761Y-72604238D01*
X128318142Y-72651857D01*
X128175285Y-72747095D01*
X127984809Y-72794714D01*
X127603857Y-72794714D01*
X127508619Y-72747095D01*
X127461000Y-72699476D01*
X127413380Y-72604238D01*
X127413380Y-72413761D01*
X127461000Y-72318523D01*
X127508619Y-72270904D01*
X127603857Y-72223285D01*
X127841952Y-72223285D01*
X127937190Y-72270904D01*
X127984809Y-72318523D01*
X128032428Y-72413761D01*
X128032428Y-72604238D01*
X127984809Y-72699476D01*
X127937190Y-72747095D01*
X127841952Y-72794714D01*
%TO.C,C22*%
X122756142Y-94353142D02*
X122803761Y-94305523D01*
X122851380Y-94162666D01*
X122851380Y-94067428D01*
X122803761Y-93924571D01*
X122708523Y-93829333D01*
X122613285Y-93781714D01*
X122422809Y-93734095D01*
X122279952Y-93734095D01*
X122089476Y-93781714D01*
X121994238Y-93829333D01*
X121899000Y-93924571D01*
X121851380Y-94067428D01*
X121851380Y-94162666D01*
X121899000Y-94305523D01*
X121946619Y-94353142D01*
X121946619Y-94734095D02*
X121899000Y-94781714D01*
X121851380Y-94876952D01*
X121851380Y-95115047D01*
X121899000Y-95210285D01*
X121946619Y-95257904D01*
X122041857Y-95305523D01*
X122137095Y-95305523D01*
X122279952Y-95257904D01*
X122851380Y-94686476D01*
X122851380Y-95305523D01*
X121946619Y-95686476D02*
X121899000Y-95734095D01*
X121851380Y-95829333D01*
X121851380Y-96067428D01*
X121899000Y-96162666D01*
X121946619Y-96210285D01*
X122041857Y-96257904D01*
X122137095Y-96257904D01*
X122279952Y-96210285D01*
X122851380Y-95638857D01*
X122851380Y-96257904D01*
%TO.C,R40*%
X101799380Y-34536142D02*
X101323190Y-34202809D01*
X101799380Y-33964714D02*
X100799380Y-33964714D01*
X100799380Y-34345666D01*
X100847000Y-34440904D01*
X100894619Y-34488523D01*
X100989857Y-34536142D01*
X101132714Y-34536142D01*
X101227952Y-34488523D01*
X101275571Y-34440904D01*
X101323190Y-34345666D01*
X101323190Y-33964714D01*
X101132714Y-35393285D02*
X101799380Y-35393285D01*
X100751761Y-35155190D02*
X101466047Y-34917095D01*
X101466047Y-35536142D01*
X100799380Y-36107571D02*
X100799380Y-36202809D01*
X100847000Y-36298047D01*
X100894619Y-36345666D01*
X100989857Y-36393285D01*
X101180333Y-36440904D01*
X101418428Y-36440904D01*
X101608904Y-36393285D01*
X101704142Y-36345666D01*
X101751761Y-36298047D01*
X101799380Y-36202809D01*
X101799380Y-36107571D01*
X101751761Y-36012333D01*
X101704142Y-35964714D01*
X101608904Y-35917095D01*
X101418428Y-35869476D01*
X101180333Y-35869476D01*
X100989857Y-35917095D01*
X100894619Y-35964714D01*
X100847000Y-36012333D01*
X100799380Y-36107571D01*
%TO.C,C8*%
X108878666Y-94646142D02*
X108926285Y-94693761D01*
X109069142Y-94741380D01*
X109164380Y-94741380D01*
X109307238Y-94693761D01*
X109402476Y-94598523D01*
X109450095Y-94503285D01*
X109497714Y-94312809D01*
X109497714Y-94169952D01*
X109450095Y-93979476D01*
X109402476Y-93884238D01*
X109307238Y-93789000D01*
X109164380Y-93741380D01*
X109069142Y-93741380D01*
X108926285Y-93789000D01*
X108878666Y-93836619D01*
X108307238Y-94169952D02*
X108402476Y-94122333D01*
X108450095Y-94074714D01*
X108497714Y-93979476D01*
X108497714Y-93931857D01*
X108450095Y-93836619D01*
X108402476Y-93789000D01*
X108307238Y-93741380D01*
X108116761Y-93741380D01*
X108021523Y-93789000D01*
X107973904Y-93836619D01*
X107926285Y-93931857D01*
X107926285Y-93979476D01*
X107973904Y-94074714D01*
X108021523Y-94122333D01*
X108116761Y-94169952D01*
X108307238Y-94169952D01*
X108402476Y-94217571D01*
X108450095Y-94265190D01*
X108497714Y-94360428D01*
X108497714Y-94550904D01*
X108450095Y-94646142D01*
X108402476Y-94693761D01*
X108307238Y-94741380D01*
X108116761Y-94741380D01*
X108021523Y-94693761D01*
X107973904Y-94646142D01*
X107926285Y-94550904D01*
X107926285Y-94360428D01*
X107973904Y-94265190D01*
X108021523Y-94217571D01*
X108116761Y-94169952D01*
%TO.C,C46*%
X108362142Y-45458142D02*
X108409761Y-45410523D01*
X108457380Y-45267666D01*
X108457380Y-45172428D01*
X108409761Y-45029571D01*
X108314523Y-44934333D01*
X108219285Y-44886714D01*
X108028809Y-44839095D01*
X107885952Y-44839095D01*
X107695476Y-44886714D01*
X107600238Y-44934333D01*
X107505000Y-45029571D01*
X107457380Y-45172428D01*
X107457380Y-45267666D01*
X107505000Y-45410523D01*
X107552619Y-45458142D01*
X107790714Y-46315285D02*
X108457380Y-46315285D01*
X107409761Y-46077190D02*
X108124047Y-45839095D01*
X108124047Y-46458142D01*
X107457380Y-47267666D02*
X107457380Y-47077190D01*
X107505000Y-46981952D01*
X107552619Y-46934333D01*
X107695476Y-46839095D01*
X107885952Y-46791476D01*
X108266904Y-46791476D01*
X108362142Y-46839095D01*
X108409761Y-46886714D01*
X108457380Y-46981952D01*
X108457380Y-47172428D01*
X108409761Y-47267666D01*
X108362142Y-47315285D01*
X108266904Y-47362904D01*
X108028809Y-47362904D01*
X107933571Y-47315285D01*
X107885952Y-47267666D01*
X107838333Y-47172428D01*
X107838333Y-46981952D01*
X107885952Y-46886714D01*
X107933571Y-46839095D01*
X108028809Y-46791476D01*
%TO.C,C54*%
X98391809Y-83557142D02*
X98439428Y-83604761D01*
X98582285Y-83652380D01*
X98677523Y-83652380D01*
X98820380Y-83604761D01*
X98915618Y-83509523D01*
X98963237Y-83414285D01*
X99010856Y-83223809D01*
X99010856Y-83080952D01*
X98963237Y-82890476D01*
X98915618Y-82795238D01*
X98820380Y-82700000D01*
X98677523Y-82652380D01*
X98582285Y-82652380D01*
X98439428Y-82700000D01*
X98391809Y-82747619D01*
X97487047Y-82652380D02*
X97963237Y-82652380D01*
X98010856Y-83128571D01*
X97963237Y-83080952D01*
X97867999Y-83033333D01*
X97629904Y-83033333D01*
X97534666Y-83080952D01*
X97487047Y-83128571D01*
X97439428Y-83223809D01*
X97439428Y-83461904D01*
X97487047Y-83557142D01*
X97534666Y-83604761D01*
X97629904Y-83652380D01*
X97867999Y-83652380D01*
X97963237Y-83604761D01*
X98010856Y-83557142D01*
X96582285Y-82985714D02*
X96582285Y-83652380D01*
X96820380Y-82604761D02*
X97058475Y-83319047D01*
X96439428Y-83319047D01*
%TO.C,C5*%
X112307666Y-91742142D02*
X112355285Y-91789761D01*
X112498142Y-91837380D01*
X112593380Y-91837380D01*
X112736238Y-91789761D01*
X112831476Y-91694523D01*
X112879095Y-91599285D01*
X112926714Y-91408809D01*
X112926714Y-91265952D01*
X112879095Y-91075476D01*
X112831476Y-90980238D01*
X112736238Y-90885000D01*
X112593380Y-90837380D01*
X112498142Y-90837380D01*
X112355285Y-90885000D01*
X112307666Y-90932619D01*
X111402904Y-90837380D02*
X111879095Y-90837380D01*
X111926714Y-91313571D01*
X111879095Y-91265952D01*
X111783857Y-91218333D01*
X111545761Y-91218333D01*
X111450523Y-91265952D01*
X111402904Y-91313571D01*
X111355285Y-91408809D01*
X111355285Y-91646904D01*
X111402904Y-91742142D01*
X111450523Y-91789761D01*
X111545761Y-91837380D01*
X111783857Y-91837380D01*
X111879095Y-91789761D01*
X111926714Y-91742142D01*
%TO.C,C50*%
X91193857Y-102367142D02*
X91241476Y-102414761D01*
X91384333Y-102462380D01*
X91479571Y-102462380D01*
X91622428Y-102414761D01*
X91717666Y-102319523D01*
X91765285Y-102224285D01*
X91812904Y-102033809D01*
X91812904Y-101890952D01*
X91765285Y-101700476D01*
X91717666Y-101605238D01*
X91622428Y-101510000D01*
X91479571Y-101462380D01*
X91384333Y-101462380D01*
X91241476Y-101510000D01*
X91193857Y-101557619D01*
X90289095Y-101462380D02*
X90765285Y-101462380D01*
X90812904Y-101938571D01*
X90765285Y-101890952D01*
X90670047Y-101843333D01*
X90431952Y-101843333D01*
X90336714Y-101890952D01*
X90289095Y-101938571D01*
X90241476Y-102033809D01*
X90241476Y-102271904D01*
X90289095Y-102367142D01*
X90336714Y-102414761D01*
X90431952Y-102462380D01*
X90670047Y-102462380D01*
X90765285Y-102414761D01*
X90812904Y-102367142D01*
X89622428Y-101462380D02*
X89527190Y-101462380D01*
X89431952Y-101510000D01*
X89384333Y-101557619D01*
X89336714Y-101652857D01*
X89289095Y-101843333D01*
X89289095Y-102081428D01*
X89336714Y-102271904D01*
X89384333Y-102367142D01*
X89431952Y-102414761D01*
X89527190Y-102462380D01*
X89622428Y-102462380D01*
X89717666Y-102414761D01*
X89765285Y-102367142D01*
X89812904Y-102271904D01*
X89860523Y-102081428D01*
X89860523Y-101843333D01*
X89812904Y-101652857D01*
X89765285Y-101557619D01*
X89717666Y-101510000D01*
X89622428Y-101462380D01*
%TO.C,U5*%
X143873408Y-91863331D02*
X144682932Y-91863331D01*
X144778170Y-91910950D01*
X144825789Y-91958569D01*
X144873408Y-92053807D01*
X144873408Y-92244283D01*
X144825789Y-92339521D01*
X144778170Y-92387140D01*
X144682932Y-92434759D01*
X143873408Y-92434759D01*
X143873408Y-93387140D02*
X143873408Y-92910950D01*
X144349599Y-92863331D01*
X144301980Y-92910950D01*
X144254361Y-93006188D01*
X144254361Y-93244283D01*
X144301980Y-93339521D01*
X144349599Y-93387140D01*
X144444837Y-93434759D01*
X144682932Y-93434759D01*
X144778170Y-93387140D01*
X144825789Y-93339521D01*
X144873408Y-93244283D01*
X144873408Y-93006188D01*
X144825789Y-92910950D01*
X144778170Y-92863331D01*
%TO.C,C3*%
X129325666Y-51085142D02*
X129373285Y-51132761D01*
X129516142Y-51180380D01*
X129611380Y-51180380D01*
X129754238Y-51132761D01*
X129849476Y-51037523D01*
X129897095Y-50942285D01*
X129944714Y-50751809D01*
X129944714Y-50608952D01*
X129897095Y-50418476D01*
X129849476Y-50323238D01*
X129754238Y-50228000D01*
X129611380Y-50180380D01*
X129516142Y-50180380D01*
X129373285Y-50228000D01*
X129325666Y-50275619D01*
X128992333Y-50180380D02*
X128373285Y-50180380D01*
X128706619Y-50561333D01*
X128563761Y-50561333D01*
X128468523Y-50608952D01*
X128420904Y-50656571D01*
X128373285Y-50751809D01*
X128373285Y-50989904D01*
X128420904Y-51085142D01*
X128468523Y-51132761D01*
X128563761Y-51180380D01*
X128849476Y-51180380D01*
X128944714Y-51132761D01*
X128992333Y-51085142D01*
%TO.C,C42*%
X95130857Y-60711142D02*
X95178476Y-60758761D01*
X95321333Y-60806380D01*
X95416571Y-60806380D01*
X95559428Y-60758761D01*
X95654666Y-60663523D01*
X95702285Y-60568285D01*
X95749904Y-60377809D01*
X95749904Y-60234952D01*
X95702285Y-60044476D01*
X95654666Y-59949238D01*
X95559428Y-59854000D01*
X95416571Y-59806380D01*
X95321333Y-59806380D01*
X95178476Y-59854000D01*
X95130857Y-59901619D01*
X94273714Y-60139714D02*
X94273714Y-60806380D01*
X94511809Y-59758761D02*
X94749904Y-60473047D01*
X94130857Y-60473047D01*
X93797523Y-59901619D02*
X93749904Y-59854000D01*
X93654666Y-59806380D01*
X93416571Y-59806380D01*
X93321333Y-59854000D01*
X93273714Y-59901619D01*
X93226095Y-59996857D01*
X93226095Y-60092095D01*
X93273714Y-60234952D01*
X93845142Y-60806380D01*
X93226095Y-60806380D01*
%TO.C,R6*%
X198032666Y-31990380D02*
X198366000Y-31514190D01*
X198604095Y-31990380D02*
X198604095Y-30990380D01*
X198223142Y-30990380D01*
X198127904Y-31038000D01*
X198080285Y-31085619D01*
X198032666Y-31180857D01*
X198032666Y-31323714D01*
X198080285Y-31418952D01*
X198127904Y-31466571D01*
X198223142Y-31514190D01*
X198604095Y-31514190D01*
X197175523Y-30990380D02*
X197366000Y-30990380D01*
X197461238Y-31038000D01*
X197508857Y-31085619D01*
X197604095Y-31228476D01*
X197651714Y-31418952D01*
X197651714Y-31799904D01*
X197604095Y-31895142D01*
X197556476Y-31942761D01*
X197461238Y-31990380D01*
X197270761Y-31990380D01*
X197175523Y-31942761D01*
X197127904Y-31895142D01*
X197080285Y-31799904D01*
X197080285Y-31561809D01*
X197127904Y-31466571D01*
X197175523Y-31418952D01*
X197270761Y-31371333D01*
X197461238Y-31371333D01*
X197556476Y-31418952D01*
X197604095Y-31466571D01*
X197651714Y-31561809D01*
%TO.C,R47*%
X84081857Y-102305380D02*
X84415190Y-101829190D01*
X84653285Y-102305380D02*
X84653285Y-101305380D01*
X84272333Y-101305380D01*
X84177095Y-101353000D01*
X84129476Y-101400619D01*
X84081857Y-101495857D01*
X84081857Y-101638714D01*
X84129476Y-101733952D01*
X84177095Y-101781571D01*
X84272333Y-101829190D01*
X84653285Y-101829190D01*
X83224714Y-101638714D02*
X83224714Y-102305380D01*
X83462809Y-101257761D02*
X83700904Y-101972047D01*
X83081857Y-101972047D01*
X82796142Y-101305380D02*
X82129476Y-101305380D01*
X82558047Y-102305380D01*
%TO.C,R37*%
X101799380Y-23106142D02*
X101323190Y-22772809D01*
X101799380Y-22534714D02*
X100799380Y-22534714D01*
X100799380Y-22915666D01*
X100847000Y-23010904D01*
X100894619Y-23058523D01*
X100989857Y-23106142D01*
X101132714Y-23106142D01*
X101227952Y-23058523D01*
X101275571Y-23010904D01*
X101323190Y-22915666D01*
X101323190Y-22534714D01*
X100799380Y-23439476D02*
X100799380Y-24058523D01*
X101180333Y-23725190D01*
X101180333Y-23868047D01*
X101227952Y-23963285D01*
X101275571Y-24010904D01*
X101370809Y-24058523D01*
X101608904Y-24058523D01*
X101704142Y-24010904D01*
X101751761Y-23963285D01*
X101799380Y-23868047D01*
X101799380Y-23582333D01*
X101751761Y-23487095D01*
X101704142Y-23439476D01*
X100799380Y-24391857D02*
X100799380Y-25058523D01*
X101799380Y-24629952D01*
%TO.C,C13*%
X109989857Y-97102142D02*
X110037476Y-97149761D01*
X110180333Y-97197380D01*
X110275571Y-97197380D01*
X110418428Y-97149761D01*
X110513666Y-97054523D01*
X110561285Y-96959285D01*
X110608904Y-96768809D01*
X110608904Y-96625952D01*
X110561285Y-96435476D01*
X110513666Y-96340238D01*
X110418428Y-96245000D01*
X110275571Y-96197380D01*
X110180333Y-96197380D01*
X110037476Y-96245000D01*
X109989857Y-96292619D01*
X109037476Y-97197380D02*
X109608904Y-97197380D01*
X109323190Y-97197380D02*
X109323190Y-96197380D01*
X109418428Y-96340238D01*
X109513666Y-96435476D01*
X109608904Y-96483095D01*
X108704142Y-96197380D02*
X108085095Y-96197380D01*
X108418428Y-96578333D01*
X108275571Y-96578333D01*
X108180333Y-96625952D01*
X108132714Y-96673571D01*
X108085095Y-96768809D01*
X108085095Y-97006904D01*
X108132714Y-97102142D01*
X108180333Y-97149761D01*
X108275571Y-97197380D01*
X108561285Y-97197380D01*
X108656523Y-97149761D01*
X108704142Y-97102142D01*
%TO.C,R34*%
X113354380Y-69588142D02*
X112878190Y-69254809D01*
X113354380Y-69016714D02*
X112354380Y-69016714D01*
X112354380Y-69397666D01*
X112402000Y-69492904D01*
X112449619Y-69540523D01*
X112544857Y-69588142D01*
X112687714Y-69588142D01*
X112782952Y-69540523D01*
X112830571Y-69492904D01*
X112878190Y-69397666D01*
X112878190Y-69016714D01*
X112354380Y-69921476D02*
X112354380Y-70540523D01*
X112735333Y-70207190D01*
X112735333Y-70350047D01*
X112782952Y-70445285D01*
X112830571Y-70492904D01*
X112925809Y-70540523D01*
X113163904Y-70540523D01*
X113259142Y-70492904D01*
X113306761Y-70445285D01*
X113354380Y-70350047D01*
X113354380Y-70064333D01*
X113306761Y-69969095D01*
X113259142Y-69921476D01*
X112687714Y-71397666D02*
X113354380Y-71397666D01*
X112306761Y-71159571D02*
X113021047Y-70921476D01*
X113021047Y-71540523D01*
%TO.C,C14*%
X120317142Y-64254142D02*
X120364761Y-64206523D01*
X120412380Y-64063666D01*
X120412380Y-63968428D01*
X120364761Y-63825571D01*
X120269523Y-63730333D01*
X120174285Y-63682714D01*
X119983809Y-63635095D01*
X119840952Y-63635095D01*
X119650476Y-63682714D01*
X119555238Y-63730333D01*
X119460000Y-63825571D01*
X119412380Y-63968428D01*
X119412380Y-64063666D01*
X119460000Y-64206523D01*
X119507619Y-64254142D01*
X120412380Y-65206523D02*
X120412380Y-64635095D01*
X120412380Y-64920809D02*
X119412380Y-64920809D01*
X119555238Y-64825571D01*
X119650476Y-64730333D01*
X119698095Y-64635095D01*
X119745714Y-66063666D02*
X120412380Y-66063666D01*
X119364761Y-65825571D02*
X120079047Y-65587476D01*
X120079047Y-66206523D01*
%TO.C,R35*%
X101926380Y-63873142D02*
X101450190Y-63539809D01*
X101926380Y-63301714D02*
X100926380Y-63301714D01*
X100926380Y-63682666D01*
X100974000Y-63777904D01*
X101021619Y-63825523D01*
X101116857Y-63873142D01*
X101259714Y-63873142D01*
X101354952Y-63825523D01*
X101402571Y-63777904D01*
X101450190Y-63682666D01*
X101450190Y-63301714D01*
X100926380Y-64206476D02*
X100926380Y-64825523D01*
X101307333Y-64492190D01*
X101307333Y-64635047D01*
X101354952Y-64730285D01*
X101402571Y-64777904D01*
X101497809Y-64825523D01*
X101735904Y-64825523D01*
X101831142Y-64777904D01*
X101878761Y-64730285D01*
X101926380Y-64635047D01*
X101926380Y-64349333D01*
X101878761Y-64254095D01*
X101831142Y-64206476D01*
X100926380Y-65730285D02*
X100926380Y-65254095D01*
X101402571Y-65206476D01*
X101354952Y-65254095D01*
X101307333Y-65349333D01*
X101307333Y-65587428D01*
X101354952Y-65682666D01*
X101402571Y-65730285D01*
X101497809Y-65777904D01*
X101735904Y-65777904D01*
X101831142Y-65730285D01*
X101878761Y-65682666D01*
X101926380Y-65587428D01*
X101926380Y-65349333D01*
X101878761Y-65254095D01*
X101831142Y-65206476D01*
%TO.C,C10*%
X129801857Y-53625142D02*
X129849476Y-53672761D01*
X129992333Y-53720380D01*
X130087571Y-53720380D01*
X130230428Y-53672761D01*
X130325666Y-53577523D01*
X130373285Y-53482285D01*
X130420904Y-53291809D01*
X130420904Y-53148952D01*
X130373285Y-52958476D01*
X130325666Y-52863238D01*
X130230428Y-52768000D01*
X130087571Y-52720380D01*
X129992333Y-52720380D01*
X129849476Y-52768000D01*
X129801857Y-52815619D01*
X128849476Y-53720380D02*
X129420904Y-53720380D01*
X129135190Y-53720380D02*
X129135190Y-52720380D01*
X129230428Y-52863238D01*
X129325666Y-52958476D01*
X129420904Y-53006095D01*
X128230428Y-52720380D02*
X128135190Y-52720380D01*
X128039952Y-52768000D01*
X127992333Y-52815619D01*
X127944714Y-52910857D01*
X127897095Y-53101333D01*
X127897095Y-53339428D01*
X127944714Y-53529904D01*
X127992333Y-53625142D01*
X128039952Y-53672761D01*
X128135190Y-53720380D01*
X128230428Y-53720380D01*
X128325666Y-53672761D01*
X128373285Y-53625142D01*
X128420904Y-53529904D01*
X128468523Y-53339428D01*
X128468523Y-53101333D01*
X128420904Y-52910857D01*
X128373285Y-52815619D01*
X128325666Y-52768000D01*
X128230428Y-52720380D01*
%TO.C,C49*%
X87383857Y-105204142D02*
X87431476Y-105251761D01*
X87574333Y-105299380D01*
X87669571Y-105299380D01*
X87812428Y-105251761D01*
X87907666Y-105156523D01*
X87955285Y-105061285D01*
X88002904Y-104870809D01*
X88002904Y-104727952D01*
X87955285Y-104537476D01*
X87907666Y-104442238D01*
X87812428Y-104347000D01*
X87669571Y-104299380D01*
X87574333Y-104299380D01*
X87431476Y-104347000D01*
X87383857Y-104394619D01*
X86526714Y-104632714D02*
X86526714Y-105299380D01*
X86764809Y-104251761D02*
X87002904Y-104966047D01*
X86383857Y-104966047D01*
X85955285Y-105299380D02*
X85764809Y-105299380D01*
X85669571Y-105251761D01*
X85621952Y-105204142D01*
X85526714Y-105061285D01*
X85479095Y-104870809D01*
X85479095Y-104489857D01*
X85526714Y-104394619D01*
X85574333Y-104347000D01*
X85669571Y-104299380D01*
X85860047Y-104299380D01*
X85955285Y-104347000D01*
X86002904Y-104394619D01*
X86050523Y-104489857D01*
X86050523Y-104727952D01*
X86002904Y-104823190D01*
X85955285Y-104870809D01*
X85860047Y-104918428D01*
X85669571Y-104918428D01*
X85574333Y-104870809D01*
X85526714Y-104823190D01*
X85479095Y-104727952D01*
%TO.C,R3*%
X208446666Y-34657380D02*
X208780000Y-34181190D01*
X209018095Y-34657380D02*
X209018095Y-33657380D01*
X208637142Y-33657380D01*
X208541904Y-33705000D01*
X208494285Y-33752619D01*
X208446666Y-33847857D01*
X208446666Y-33990714D01*
X208494285Y-34085952D01*
X208541904Y-34133571D01*
X208637142Y-34181190D01*
X209018095Y-34181190D01*
X208113333Y-33657380D02*
X207494285Y-33657380D01*
X207827619Y-34038333D01*
X207684761Y-34038333D01*
X207589523Y-34085952D01*
X207541904Y-34133571D01*
X207494285Y-34228809D01*
X207494285Y-34466904D01*
X207541904Y-34562142D01*
X207589523Y-34609761D01*
X207684761Y-34657380D01*
X207970476Y-34657380D01*
X208065714Y-34609761D01*
X208113333Y-34562142D01*
%TO.C,C26*%
X131722170Y-95919378D02*
X131769789Y-95871759D01*
X131817408Y-95728902D01*
X131817408Y-95633664D01*
X131769789Y-95490807D01*
X131674551Y-95395569D01*
X131579313Y-95347950D01*
X131388837Y-95300331D01*
X131245980Y-95300331D01*
X131055504Y-95347950D01*
X130960266Y-95395569D01*
X130865028Y-95490807D01*
X130817408Y-95633664D01*
X130817408Y-95728902D01*
X130865028Y-95871759D01*
X130912647Y-95919378D01*
X130912647Y-96300331D02*
X130865028Y-96347950D01*
X130817408Y-96443188D01*
X130817408Y-96681283D01*
X130865028Y-96776521D01*
X130912647Y-96824140D01*
X131007885Y-96871759D01*
X131103123Y-96871759D01*
X131245980Y-96824140D01*
X131817408Y-96252712D01*
X131817408Y-96871759D01*
X130817408Y-97728902D02*
X130817408Y-97538426D01*
X130865028Y-97443188D01*
X130912647Y-97395569D01*
X131055504Y-97300331D01*
X131245980Y-97252712D01*
X131626932Y-97252712D01*
X131722170Y-97300331D01*
X131769789Y-97347950D01*
X131817408Y-97443188D01*
X131817408Y-97633664D01*
X131769789Y-97728902D01*
X131722170Y-97776521D01*
X131626932Y-97824140D01*
X131388837Y-97824140D01*
X131293599Y-97776521D01*
X131245980Y-97728902D01*
X131198361Y-97633664D01*
X131198361Y-97443188D01*
X131245980Y-97347950D01*
X131293599Y-97300331D01*
X131388837Y-97252712D01*
%TO.C,R13*%
X193239380Y-86606142D02*
X192763190Y-86272809D01*
X193239380Y-86034714D02*
X192239380Y-86034714D01*
X192239380Y-86415666D01*
X192287000Y-86510904D01*
X192334619Y-86558523D01*
X192429857Y-86606142D01*
X192572714Y-86606142D01*
X192667952Y-86558523D01*
X192715571Y-86510904D01*
X192763190Y-86415666D01*
X192763190Y-86034714D01*
X193239380Y-87558523D02*
X193239380Y-86987095D01*
X193239380Y-87272809D02*
X192239380Y-87272809D01*
X192382238Y-87177571D01*
X192477476Y-87082333D01*
X192525095Y-86987095D01*
X192239380Y-87891857D02*
X192239380Y-88510904D01*
X192620333Y-88177571D01*
X192620333Y-88320428D01*
X192667952Y-88415666D01*
X192715571Y-88463285D01*
X192810809Y-88510904D01*
X193048904Y-88510904D01*
X193144142Y-88463285D01*
X193191761Y-88415666D01*
X193239380Y-88320428D01*
X193239380Y-88034714D01*
X193191761Y-87939476D01*
X193144142Y-87891857D01*
%TO.C,R31*%
X147403885Y-91173616D02*
X147737218Y-90697426D01*
X147975313Y-91173616D02*
X147975313Y-90173616D01*
X147594361Y-90173616D01*
X147499123Y-90221236D01*
X147451504Y-90268855D01*
X147403885Y-90364093D01*
X147403885Y-90506950D01*
X147451504Y-90602188D01*
X147499123Y-90649807D01*
X147594361Y-90697426D01*
X147975313Y-90697426D01*
X147070551Y-90173616D02*
X146451504Y-90173616D01*
X146784837Y-90554569D01*
X146641980Y-90554569D01*
X146546742Y-90602188D01*
X146499123Y-90649807D01*
X146451504Y-90745045D01*
X146451504Y-90983140D01*
X146499123Y-91078378D01*
X146546742Y-91125997D01*
X146641980Y-91173616D01*
X146927694Y-91173616D01*
X147022932Y-91125997D01*
X147070551Y-91078378D01*
X145499123Y-91173616D02*
X146070551Y-91173616D01*
X145784837Y-91173616D02*
X145784837Y-90173616D01*
X145880075Y-90316474D01*
X145975313Y-90411712D01*
X146070551Y-90459331D01*
%TO.C,R17*%
X151848885Y-90284616D02*
X152182218Y-89808426D01*
X152420313Y-90284616D02*
X152420313Y-89284616D01*
X152039361Y-89284616D01*
X151944123Y-89332236D01*
X151896504Y-89379855D01*
X151848885Y-89475093D01*
X151848885Y-89617950D01*
X151896504Y-89713188D01*
X151944123Y-89760807D01*
X152039361Y-89808426D01*
X152420313Y-89808426D01*
X150896504Y-90284616D02*
X151467932Y-90284616D01*
X151182218Y-90284616D02*
X151182218Y-89284616D01*
X151277456Y-89427474D01*
X151372694Y-89522712D01*
X151467932Y-89570331D01*
X150563170Y-89284616D02*
X149896504Y-89284616D01*
X150325075Y-90284616D01*
%TO.C,R1*%
X198032666Y-34657380D02*
X198366000Y-34181190D01*
X198604095Y-34657380D02*
X198604095Y-33657380D01*
X198223142Y-33657380D01*
X198127904Y-33705000D01*
X198080285Y-33752619D01*
X198032666Y-33847857D01*
X198032666Y-33990714D01*
X198080285Y-34085952D01*
X198127904Y-34133571D01*
X198223142Y-34181190D01*
X198604095Y-34181190D01*
X197080285Y-34657380D02*
X197651714Y-34657380D01*
X197366000Y-34657380D02*
X197366000Y-33657380D01*
X197461238Y-33800238D01*
X197556476Y-33895476D01*
X197651714Y-33943095D01*
%TO.C,R33*%
X133103857Y-83511380D02*
X133437190Y-83035190D01*
X133675285Y-83511380D02*
X133675285Y-82511380D01*
X133294333Y-82511380D01*
X133199095Y-82559000D01*
X133151476Y-82606619D01*
X133103857Y-82701857D01*
X133103857Y-82844714D01*
X133151476Y-82939952D01*
X133199095Y-82987571D01*
X133294333Y-83035190D01*
X133675285Y-83035190D01*
X132770523Y-82511380D02*
X132151476Y-82511380D01*
X132484809Y-82892333D01*
X132341952Y-82892333D01*
X132246714Y-82939952D01*
X132199095Y-82987571D01*
X132151476Y-83082809D01*
X132151476Y-83320904D01*
X132199095Y-83416142D01*
X132246714Y-83463761D01*
X132341952Y-83511380D01*
X132627666Y-83511380D01*
X132722904Y-83463761D01*
X132770523Y-83416142D01*
X131818142Y-82511380D02*
X131199095Y-82511380D01*
X131532428Y-82892333D01*
X131389571Y-82892333D01*
X131294333Y-82939952D01*
X131246714Y-82987571D01*
X131199095Y-83082809D01*
X131199095Y-83320904D01*
X131246714Y-83416142D01*
X131294333Y-83463761D01*
X131389571Y-83511380D01*
X131675285Y-83511380D01*
X131770523Y-83463761D01*
X131818142Y-83416142D01*
%TO.C,R23*%
X251323357Y-99899380D02*
X251656690Y-99423190D01*
X251894785Y-99899380D02*
X251894785Y-98899380D01*
X251513833Y-98899380D01*
X251418595Y-98947000D01*
X251370976Y-98994619D01*
X251323357Y-99089857D01*
X251323357Y-99232714D01*
X251370976Y-99327952D01*
X251418595Y-99375571D01*
X251513833Y-99423190D01*
X251894785Y-99423190D01*
X250942404Y-98994619D02*
X250894785Y-98947000D01*
X250799547Y-98899380D01*
X250561452Y-98899380D01*
X250466214Y-98947000D01*
X250418595Y-98994619D01*
X250370976Y-99089857D01*
X250370976Y-99185095D01*
X250418595Y-99327952D01*
X250990023Y-99899380D01*
X250370976Y-99899380D01*
X250037642Y-98899380D02*
X249418595Y-98899380D01*
X249751928Y-99280333D01*
X249609071Y-99280333D01*
X249513833Y-99327952D01*
X249466214Y-99375571D01*
X249418595Y-99470809D01*
X249418595Y-99708904D01*
X249466214Y-99804142D01*
X249513833Y-99851761D01*
X249609071Y-99899380D01*
X249894785Y-99899380D01*
X249990023Y-99851761D01*
X250037642Y-99804142D01*
%TO.C,C7*%
X129325666Y-48418142D02*
X129373285Y-48465761D01*
X129516142Y-48513380D01*
X129611380Y-48513380D01*
X129754238Y-48465761D01*
X129849476Y-48370523D01*
X129897095Y-48275285D01*
X129944714Y-48084809D01*
X129944714Y-47941952D01*
X129897095Y-47751476D01*
X129849476Y-47656238D01*
X129754238Y-47561000D01*
X129611380Y-47513380D01*
X129516142Y-47513380D01*
X129373285Y-47561000D01*
X129325666Y-47608619D01*
X128992333Y-47513380D02*
X128325666Y-47513380D01*
X128754238Y-48513380D01*
D12*
%TO.C,R49*%
X94260936Y-99722000D02*
X94715064Y-99722000D01*
X94260936Y-101192000D02*
X94715064Y-101192000D01*
%TO.C,C1*%
X121244000Y-64523252D02*
X121244000Y-64000748D01*
X119774000Y-64523252D02*
X119774000Y-64000748D01*
%TO.C,C16*%
X128912252Y-58139000D02*
X128389748Y-58139000D01*
X128912252Y-56669000D02*
X128389748Y-56669000D01*
%TO.C,C32*%
X107307748Y-72617000D02*
X107830252Y-72617000D01*
X107307748Y-71147000D02*
X107830252Y-71147000D01*
%TO.C,R27*%
X248503436Y-102601000D02*
X252857564Y-102601000D01*
X248503436Y-99181000D02*
X252857564Y-99181000D01*
%TO.C,R19*%
X248630436Y-78217000D02*
X252984564Y-78217000D01*
X248630436Y-74797000D02*
X252984564Y-74797000D01*
%TO.C,R30*%
X138202936Y-99595000D02*
X138657064Y-99595000D01*
X138202936Y-101065000D02*
X138657064Y-101065000D01*
%TO.C,R42*%
X94642000Y-54710064D02*
X94642000Y-54255936D01*
X96112000Y-54710064D02*
X96112000Y-54255936D01*
%TO.C,R8*%
X207552936Y-30743000D02*
X209007064Y-30743000D01*
X207552936Y-28923000D02*
X209007064Y-28923000D01*
%TO.C,C41*%
X103732000Y-28186748D02*
X103732000Y-28709252D01*
X102262000Y-28186748D02*
X102262000Y-28709252D01*
%TO.C,R28*%
X139310964Y-96970236D02*
X139765092Y-96970236D01*
X139310964Y-98440236D02*
X139765092Y-98440236D01*
%TO.C,R26*%
X248503436Y-86345000D02*
X252857564Y-86345000D01*
X248503436Y-82925000D02*
X252857564Y-82925000D01*
%TO.C,R25*%
X248552436Y-82294000D02*
X252906564Y-82294000D01*
X248552436Y-78874000D02*
X252906564Y-78874000D01*
%TO.C,Q4*%
X107914000Y-28829000D02*
X107914000Y-29479000D01*
X111034000Y-28829000D02*
X111034000Y-29479000D01*
X111034000Y-28829000D02*
X111034000Y-28179000D01*
X107914000Y-28829000D02*
X107914000Y-27154000D01*
%TO.C,C25*%
X122703000Y-94030748D02*
X122703000Y-95453252D01*
X120883000Y-94030748D02*
X120883000Y-95453252D01*
%TO.C,C18*%
X124989000Y-101168252D02*
X124989000Y-99745748D01*
X123169000Y-101168252D02*
X123169000Y-99745748D01*
%TO.C,R5*%
X194791000Y-53366936D02*
X194791000Y-53821064D01*
X193321000Y-53366936D02*
X193321000Y-53821064D01*
%TO.C,C57*%
X105613252Y-85577000D02*
X104190748Y-85577000D01*
X105613252Y-87397000D02*
X104190748Y-87397000D01*
%TO.C,C21*%
X122528000Y-100464252D02*
X122528000Y-99941748D01*
X121058000Y-100464252D02*
X121058000Y-99941748D01*
%TO.C,U1*%
X108182000Y-83332000D02*
X108182000Y-83062000D01*
X109682000Y-76432000D02*
X108182000Y-76432000D01*
X108182000Y-76702000D02*
X107082000Y-76702000D01*
X108182000Y-76432000D02*
X108182000Y-76702000D01*
X108182000Y-83062000D02*
X105352000Y-83062000D01*
X109682000Y-83332000D02*
X108182000Y-83332000D01*
%TO.C,C33*%
X103732000Y-68445748D02*
X103732000Y-68968252D01*
X102262000Y-68445748D02*
X102262000Y-68968252D01*
%TO.C,R32*%
X134392936Y-99595000D02*
X134847064Y-99595000D01*
X134392936Y-101065000D02*
X134847064Y-101065000D01*
%TO.C,R22*%
X248638436Y-70772000D02*
X252992564Y-70772000D01*
X248638436Y-74192000D02*
X252992564Y-74192000D01*
%TO.C,R20*%
X248503436Y-94473000D02*
X252857564Y-94473000D01*
X248503436Y-91053000D02*
X252857564Y-91053000D01*
%TO.C,C15*%
X127662000Y-71762252D02*
X127662000Y-71239748D01*
X129132000Y-71762252D02*
X129132000Y-71239748D01*
%TO.C,C31*%
X129722028Y-91998748D02*
X129722028Y-93421252D01*
X131542028Y-91998748D02*
X131542028Y-93421252D01*
%TO.C,Q5*%
X107406000Y-39624000D02*
X107406000Y-37949000D01*
X110526000Y-39624000D02*
X110526000Y-38974000D01*
X107406000Y-39624000D02*
X107406000Y-40274000D01*
X110526000Y-39624000D02*
X110526000Y-40274000D01*
%TO.C,R45*%
X79729064Y-99468000D02*
X79274936Y-99468000D01*
X79729064Y-100938000D02*
X79274936Y-100938000D01*
%TO.C,C36*%
X102262000Y-39616748D02*
X102262000Y-40139252D01*
X103732000Y-39616748D02*
X103732000Y-40139252D01*
%TO.C,R24*%
X248503436Y-106665000D02*
X252857564Y-106665000D01*
X248503436Y-103245000D02*
X252857564Y-103245000D01*
%TO.C,R21*%
X248503436Y-86989000D02*
X252857564Y-86989000D01*
X248503436Y-90409000D02*
X252857564Y-90409000D01*
%TO.C,C45*%
X106707000Y-46474748D02*
X106707000Y-46997252D01*
X108177000Y-46474748D02*
X108177000Y-46997252D01*
%TO.C,R12*%
X146660964Y-97805236D02*
X147115092Y-97805236D01*
X146660964Y-96335236D02*
X147115092Y-96335236D01*
%TO.C,Q3*%
X110018000Y-68453000D02*
X110018000Y-67803000D01*
X106898000Y-68453000D02*
X106898000Y-69103000D01*
X110018000Y-68453000D02*
X110018000Y-69103000D01*
X106898000Y-68453000D02*
X106898000Y-66778000D01*
%TO.C,R18*%
X248630436Y-70089000D02*
X252984564Y-70089000D01*
X248630436Y-66669000D02*
X252984564Y-66669000D01*
%TO.C,R2*%
X202389936Y-28867000D02*
X203844064Y-28867000D01*
X202389936Y-30687000D02*
X203844064Y-30687000D01*
%TO.C,D2*%
X125739000Y-59539000D02*
X130039000Y-59539000D01*
X125739000Y-59539000D02*
X125739000Y-67089000D01*
X130039000Y-59539000D02*
X130039000Y-67089000D01*
%TO.C,C55*%
X96402700Y-80017000D02*
X97825204Y-80017000D01*
X96402700Y-78197000D02*
X97825204Y-78197000D01*
%TO.C,R29*%
X147115092Y-95519236D02*
X146660964Y-95519236D01*
X147115092Y-94049236D02*
X146660964Y-94049236D01*
%TO.C,C30*%
X132310028Y-92236984D02*
X132310028Y-92759488D01*
X133780028Y-92236984D02*
X133780028Y-92759488D01*
%TO.C,R7*%
X202345936Y-33295000D02*
X203800064Y-33295000D01*
X202345936Y-31475000D02*
X203800064Y-31475000D01*
%TO.C,C9*%
X127021000Y-72720252D02*
X127021000Y-71297748D01*
X125201000Y-72720252D02*
X125201000Y-71297748D01*
%TO.C,C22*%
X123344000Y-94734748D02*
X123344000Y-95257252D01*
X124814000Y-94734748D02*
X124814000Y-95257252D01*
%TO.C,R40*%
X102262000Y-34951936D02*
X102262000Y-35406064D01*
X103732000Y-34951936D02*
X103732000Y-35406064D01*
%TO.C,C8*%
X109423252Y-97049000D02*
X108000748Y-97049000D01*
X109423252Y-95229000D02*
X108000748Y-95229000D01*
%TO.C,C46*%
X108945000Y-45389748D02*
X108945000Y-46812252D01*
X110765000Y-45389748D02*
X110765000Y-46812252D01*
%TO.C,C54*%
X97487700Y-82255000D02*
X98010204Y-82255000D01*
X97487700Y-80785000D02*
X98010204Y-80785000D01*
%TO.C,C5*%
X111429748Y-90445000D02*
X112852252Y-90445000D01*
X111429748Y-88625000D02*
X112852252Y-88625000D01*
%TO.C,C50*%
X90289748Y-101065000D02*
X90812252Y-101065000D01*
X90289748Y-99595000D02*
X90812252Y-99595000D01*
%TO.C,U5*%
X143576028Y-92625236D02*
X143576028Y-90675236D01*
X134706028Y-92625236D02*
X134706028Y-90675236D01*
X134706028Y-92625236D02*
X134706028Y-94575236D01*
X143576028Y-92625236D02*
X143576028Y-96075236D01*
%TO.C,C3*%
X129870252Y-51668000D02*
X128447748Y-51668000D01*
X129870252Y-53488000D02*
X128447748Y-53488000D01*
%TO.C,C42*%
X94226748Y-57939000D02*
X94749252Y-57939000D01*
X94226748Y-59409000D02*
X94749252Y-59409000D01*
%TO.C,R6*%
X197138936Y-30628000D02*
X198593064Y-30628000D01*
X197138936Y-28808000D02*
X198593064Y-28808000D01*
%TO.C,R47*%
X83211936Y-99468000D02*
X83666064Y-99468000D01*
X83211936Y-100938000D02*
X83666064Y-100938000D01*
%TO.C,R37*%
X103732000Y-23521936D02*
X103732000Y-23976064D01*
X102262000Y-23521936D02*
X102262000Y-23976064D01*
%TO.C,C13*%
X109608252Y-99160000D02*
X109085748Y-99160000D01*
X109608252Y-97690000D02*
X109085748Y-97690000D01*
%TO.C,R34*%
X110517000Y-70458064D02*
X110517000Y-70003936D01*
X111987000Y-70458064D02*
X111987000Y-70003936D01*
%TO.C,C14*%
X119020000Y-65608252D02*
X119020000Y-64185748D01*
X117200000Y-65608252D02*
X117200000Y-64185748D01*
%TO.C,R35*%
X103859000Y-64288936D02*
X103859000Y-64743064D01*
X102389000Y-64288936D02*
X102389000Y-64743064D01*
%TO.C,C10*%
X129870252Y-54208000D02*
X128447748Y-54208000D01*
X129870252Y-56028000D02*
X128447748Y-56028000D01*
%TO.C,C49*%
X86029748Y-102087000D02*
X87452252Y-102087000D01*
X86029748Y-103907000D02*
X87452252Y-103907000D01*
%TO.C,R3*%
X207552936Y-33295000D02*
X209007064Y-33295000D01*
X207552936Y-31475000D02*
X209007064Y-31475000D01*
%TO.C,C26*%
X132310028Y-96300984D02*
X132310028Y-96823488D01*
X133780028Y-96300984D02*
X133780028Y-96823488D01*
%TO.C,R13*%
X193702000Y-87021936D02*
X193702000Y-87476064D01*
X195172000Y-87021936D02*
X195172000Y-87476064D01*
%TO.C,R31*%
X146988092Y-93106236D02*
X146533964Y-93106236D01*
X146988092Y-91636236D02*
X146533964Y-91636236D01*
%TO.C,R17*%
X151433092Y-90747236D02*
X150978964Y-90747236D01*
X151433092Y-92217236D02*
X150978964Y-92217236D01*
%TO.C,R1*%
X197138936Y-31475000D02*
X198593064Y-31475000D01*
X197138936Y-33295000D02*
X198593064Y-33295000D01*
%TO.C,R33*%
X132688064Y-83974000D02*
X132233936Y-83974000D01*
X132688064Y-85444000D02*
X132233936Y-85444000D01*
%TO.C,R23*%
X248503436Y-98537000D02*
X252857564Y-98537000D01*
X248503436Y-95117000D02*
X252857564Y-95117000D01*
%TO.C,C7*%
X129870252Y-49001000D02*
X128447748Y-49001000D01*
X129870252Y-50821000D02*
X128447748Y-50821000D01*
%TD*%
M02*
