%TF.GenerationSoftware,KiCad,Pcbnew,(6.0.8)*%
%TF.CreationDate,2024-04-13T01:58:17+05:30*%
%TF.ProjectId,Lu_Testing,4c755f54-6573-4746-996e-672e6b696361,rev?*%
%TF.SameCoordinates,Original*%
%TF.FileFunction,Soldermask,Top*%
%TF.FilePolarity,Negative*%
%FSLAX46Y46*%
G04 Gerber Fmt 4.6, Leading zero omitted, Abs format (unit mm)*
G04 Created by KiCad (PCBNEW (6.0.8)) date 2024-04-13 01:58:17*
%MOMM*%
%LPD*%
G01*
G04 APERTURE LIST*
G04 Aperture macros list*
%AMRoundRect*
0 Rectangle with rounded corners*
0 $1 Rounding radius*
0 $2 $3 $4 $5 $6 $7 $8 $9 X,Y pos of 4 corners*
0 Add a 4 corners polygon primitive as box body*
4,1,4,$2,$3,$4,$5,$6,$7,$8,$9,$2,$3,0*
0 Add four circle primitives for the rounded corners*
1,1,$1+$1,$2,$3*
1,1,$1+$1,$4,$5*
1,1,$1+$1,$6,$7*
1,1,$1+$1,$8,$9*
0 Add four rect primitives between the rounded corners*
20,1,$1+$1,$2,$3,$4,$5,0*
20,1,$1+$1,$4,$5,$6,$7,0*
20,1,$1+$1,$6,$7,$8,$9,0*
20,1,$1+$1,$8,$9,$2,$3,0*%
%AMOutline4P*
0 Free polygon, 4 corners , with rotation*
0 The origin of the aperture is its center*
0 number of corners: always 4*
0 $1 to $8 corner X, Y*
0 $9 Rotation angle, in degrees counterclockwise*
0 create outline with 4 corners*
4,1,4,$1,$2,$3,$4,$5,$6,$7,$8,$1,$2,$9*%
G04 Aperture macros list end*
%ADD10RoundRect,0.250000X-0.337500X-0.475000X0.337500X-0.475000X0.337500X0.475000X-0.337500X0.475000X0*%
%ADD11RoundRect,0.250000X0.650000X-0.412500X0.650000X0.412500X-0.650000X0.412500X-0.650000X-0.412500X0*%
%ADD12RoundRect,0.250000X-0.450000X0.350000X-0.450000X-0.350000X0.450000X-0.350000X0.450000X0.350000X0*%
%ADD13R,4.500000X2.500000*%
%ADD14O,4.500000X2.500000*%
%ADD15RoundRect,0.250000X-0.350000X-0.450000X0.350000X-0.450000X0.350000X0.450000X-0.350000X0.450000X0*%
%ADD16C,2.400000*%
%ADD17R,1.700000X1.700000*%
%ADD18O,1.700000X1.700000*%
%ADD19R,1.473200X0.558800*%
%ADD20RoundRect,0.250000X0.475000X-0.337500X0.475000X0.337500X-0.475000X0.337500X-0.475000X-0.337500X0*%
%ADD21R,2.400000X2.400000*%
%ADD22RoundRect,0.250000X-0.650000X-1.550000X0.650000X-1.550000X0.650000X1.550000X-0.650000X1.550000X0*%
%ADD23O,1.800000X3.600000*%
%ADD24C,3.600000*%
%ADD25R,2.600000X2.600000*%
%ADD26O,2.600000X2.600000*%
%ADD27C,2.800000*%
%ADD28R,1.780000X1.520000*%
%ADD29R,1.750000X1.520000*%
%ADD30R,1.600000X1.600000*%
%ADD31O,1.600000X1.600000*%
%ADD32RoundRect,0.250000X0.337500X0.475000X-0.337500X0.475000X-0.337500X-0.475000X0.337500X-0.475000X0*%
%ADD33Outline4P,-1.800000X-1.150000X1.800000X-0.550000X1.800000X0.550000X-1.800000X1.150000X0.000000*%
%ADD34Outline4P,-1.800000X-1.150000X1.800000X-0.550000X1.800000X0.550000X-1.800000X1.150000X180.000000*%
%ADD35RoundRect,0.250000X-0.475000X0.337500X-0.475000X-0.337500X0.475000X-0.337500X0.475000X0.337500X0*%
%ADD36R,1.498600X1.498600*%
%ADD37C,1.498600*%
%ADD38RoundRect,0.102000X-0.735000X-0.140000X0.735000X-0.140000X0.735000X0.140000X-0.735000X0.140000X0*%
%ADD39RoundRect,0.102000X-0.140000X-0.735000X0.140000X-0.735000X0.140000X0.735000X-0.140000X0.735000X0*%
%ADD40RoundRect,0.250000X0.350000X0.450000X-0.350000X0.450000X-0.350000X-0.450000X0.350000X-0.450000X0*%
%ADD41RoundRect,0.250000X0.325000X0.450000X-0.325000X0.450000X-0.325000X-0.450000X0.325000X-0.450000X0*%
%ADD42R,1.500000X2.000000*%
%ADD43R,3.800000X2.000000*%
%ADD44R,1.905000X2.000000*%
%ADD45O,1.905000X2.000000*%
%ADD46RoundRect,0.250000X1.550000X-0.650000X1.550000X0.650000X-1.550000X0.650000X-1.550000X-0.650000X0*%
%ADD47O,3.600000X1.800000*%
%ADD48R,2.510000X1.000000*%
%ADD49RoundRect,0.250000X-0.412500X-0.650000X0.412500X-0.650000X0.412500X0.650000X-0.412500X0.650000X0*%
G04 APERTURE END LIST*
D10*
%TO.C,C51*%
X82909500Y-74168000D03*
X84984500Y-74168000D03*
%TD*%
D11*
%TO.C,C6*%
X133858000Y-73444500D03*
X133858000Y-70319500D03*
%TD*%
D12*
%TO.C,R41*%
X107569000Y-39767000D03*
X107569000Y-41767000D03*
%TD*%
D13*
%TO.C,Q1*%
X189029000Y-47879000D03*
D14*
X189029000Y-53329000D03*
X189029000Y-58779000D03*
%TD*%
D15*
%TO.C,R43*%
X78518000Y-56134000D03*
X80518000Y-56134000D03*
%TD*%
D16*
%TO.C,C23*%
X154432000Y-82730000D03*
X154432000Y-105230000D03*
%TD*%
D17*
%TO.C,J6*%
X83322000Y-105664000D03*
D18*
X85862000Y-105664000D03*
X88402000Y-105664000D03*
X90942000Y-105664000D03*
%TD*%
D19*
%TO.C,U12*%
X106095800Y-48006000D03*
X106095800Y-46736000D03*
X106095800Y-45466000D03*
X106095800Y-44196000D03*
X96342200Y-44196000D03*
X96342200Y-45466000D03*
X96342200Y-46736000D03*
X96342200Y-48006000D03*
%TD*%
D20*
%TO.C,C48*%
X93345000Y-47138500D03*
X93345000Y-45063500D03*
%TD*%
D15*
%TO.C,R14*%
X251730000Y-103886000D03*
X253730000Y-103886000D03*
%TD*%
D21*
%TO.C,C17*%
X165524246Y-39497000D03*
D16*
X173024246Y-39497000D03*
%TD*%
D12*
%TO.C,R36*%
X107569000Y-68469000D03*
X107569000Y-70469000D03*
%TD*%
D22*
%TO.C,J2*%
X106951500Y-102215500D03*
D23*
X112031500Y-102215500D03*
%TD*%
D24*
%TO.C,L3*%
X222255000Y-37338000D03*
X234955000Y-37338000D03*
%TD*%
D20*
%TO.C,C39*%
X78613000Y-65299500D03*
X78613000Y-63224500D03*
%TD*%
D10*
%TO.C,C28*%
X247501500Y-101219000D03*
X249576500Y-101219000D03*
%TD*%
D20*
%TO.C,C44*%
X78740000Y-61108500D03*
X78740000Y-59033500D03*
%TD*%
D25*
%TO.C,D5*%
X147574000Y-72517000D03*
D26*
X147574000Y-57277000D03*
%TD*%
D11*
%TO.C,C2*%
X104775000Y-81572500D03*
X104775000Y-78447500D03*
%TD*%
D27*
%TO.C,R11*%
X145796000Y-102329000D03*
X145796000Y-82329000D03*
%TD*%
D28*
%TO.C,U11*%
X78613000Y-102550000D03*
D29*
X81153000Y-102550000D03*
D28*
X83693000Y-102550000D03*
X86233000Y-102550000D03*
X86233000Y-93030000D03*
X83693000Y-93030000D03*
X81153000Y-93030000D03*
X78613000Y-93030000D03*
%TD*%
D30*
%TO.C,U4*%
X131064000Y-75311000D03*
D31*
X131064000Y-72771000D03*
X131064000Y-70231000D03*
X131064000Y-67691000D03*
X131064000Y-65151000D03*
X131064000Y-62611000D03*
X131064000Y-60071000D03*
X123444000Y-60071000D03*
X123444000Y-62611000D03*
X123444000Y-65151000D03*
X123444000Y-67691000D03*
X123444000Y-70231000D03*
X123444000Y-72771000D03*
X123444000Y-75311000D03*
%TD*%
D10*
%TO.C,C12*%
X111103500Y-95885000D03*
X113178500Y-95885000D03*
%TD*%
D30*
%TO.C,U8*%
X97673000Y-33538000D03*
D31*
X97673000Y-36078000D03*
X97673000Y-38618000D03*
X97673000Y-41158000D03*
X105293000Y-41158000D03*
X105293000Y-38618000D03*
X105293000Y-36078000D03*
X105293000Y-33538000D03*
%TD*%
D15*
%TO.C,R48*%
X93234000Y-90678000D03*
X95234000Y-90678000D03*
%TD*%
D32*
%TO.C,C38*%
X94763500Y-58547000D03*
X92688500Y-58547000D03*
%TD*%
D15*
%TO.C,R10*%
X136033000Y-86741000D03*
X138033000Y-86741000D03*
%TD*%
D33*
%TO.C,D8*%
X133498000Y-83312000D03*
D34*
X139298000Y-83312000D03*
%TD*%
D35*
%TO.C,C34*%
X78740000Y-70209500D03*
X78740000Y-72284500D03*
%TD*%
D36*
%TO.C,U15*%
X104140000Y-83997800D03*
D37*
X101600000Y-83997800D03*
X99060000Y-83997800D03*
X96520000Y-83997800D03*
%TD*%
D20*
%TO.C,C56*%
X102235000Y-81809500D03*
X102235000Y-79734500D03*
%TD*%
D32*
%TO.C,C43*%
X80158500Y-90678000D03*
X78083500Y-90678000D03*
%TD*%
D16*
%TO.C,C24*%
X241409500Y-84582000D03*
X241409500Y-62082000D03*
%TD*%
D30*
%TO.C,U7*%
X97673000Y-22235000D03*
D31*
X97673000Y-24775000D03*
X97673000Y-27315000D03*
X97673000Y-29855000D03*
X105293000Y-29855000D03*
X105293000Y-27315000D03*
X105293000Y-24775000D03*
X105293000Y-22235000D03*
%TD*%
D38*
%TO.C,U9*%
X80950000Y-62671000D03*
X80950000Y-63171000D03*
X80950000Y-63671000D03*
X80950000Y-64171000D03*
X80950000Y-64671000D03*
X80950000Y-65171000D03*
X80950000Y-65671000D03*
X80950000Y-66171000D03*
X80950000Y-66671000D03*
X80950000Y-67171000D03*
X80950000Y-67671000D03*
X80950000Y-68171000D03*
X80950000Y-68671000D03*
X80950000Y-69171000D03*
X80950000Y-69671000D03*
X80950000Y-70171000D03*
D39*
X82870000Y-72091000D03*
X83370000Y-72091000D03*
X83870000Y-72091000D03*
X84370000Y-72091000D03*
X84870000Y-72091000D03*
X85370000Y-72091000D03*
X85870000Y-72091000D03*
X86370000Y-72091000D03*
X86870000Y-72091000D03*
X87370000Y-72091000D03*
X87870000Y-72091000D03*
X88370000Y-72091000D03*
X88870000Y-72091000D03*
X89370000Y-72091000D03*
X89870000Y-72091000D03*
X90370000Y-72091000D03*
D38*
X92290000Y-70171000D03*
X92290000Y-69671000D03*
X92290000Y-69171000D03*
X92290000Y-68671000D03*
X92290000Y-68171000D03*
X92290000Y-67671000D03*
X92290000Y-67171000D03*
X92290000Y-66671000D03*
X92290000Y-66171000D03*
X92290000Y-65671000D03*
X92290000Y-65171000D03*
X92290000Y-64671000D03*
X92290000Y-64171000D03*
X92290000Y-63671000D03*
X92290000Y-63171000D03*
X92290000Y-62671000D03*
D39*
X90370000Y-60751000D03*
X89870000Y-60751000D03*
X89370000Y-60751000D03*
X88870000Y-60751000D03*
X88370000Y-60751000D03*
X87870000Y-60751000D03*
X87370000Y-60751000D03*
X86870000Y-60751000D03*
X86370000Y-60751000D03*
X85870000Y-60751000D03*
X85370000Y-60751000D03*
X84870000Y-60751000D03*
X84370000Y-60751000D03*
X83870000Y-60751000D03*
X83370000Y-60751000D03*
X82870000Y-60751000D03*
%TD*%
D33*
%TO.C,D4*%
X133498000Y-52578000D03*
D34*
X139298000Y-52578000D03*
%TD*%
D25*
%TO.C,D7*%
X181483000Y-87376000D03*
D26*
X181483000Y-102616000D03*
%TD*%
D10*
%TO.C,C27*%
X247628500Y-104013000D03*
X249703500Y-104013000D03*
%TD*%
D36*
%TO.C,U3*%
X119049800Y-93726000D03*
D37*
X119049800Y-96266000D03*
X119049800Y-98806000D03*
X119049800Y-101346000D03*
%TD*%
D17*
%TO.C,J5*%
X79248000Y-49403000D03*
D18*
X79248000Y-46863000D03*
X79248000Y-44323000D03*
X79248000Y-41783000D03*
%TD*%
D32*
%TO.C,C53*%
X89175500Y-88011000D03*
X87100500Y-88011000D03*
%TD*%
D40*
%TO.C,R46*%
X80502000Y-53975000D03*
X78502000Y-53975000D03*
%TD*%
D10*
%TO.C,C29*%
X248644500Y-98933000D03*
X250719500Y-98933000D03*
%TD*%
D41*
%TO.C,D1*%
X197494000Y-25019000D03*
X195444000Y-25019000D03*
%TD*%
D15*
%TO.C,R15*%
X251476000Y-101092000D03*
X253476000Y-101092000D03*
%TD*%
D32*
%TO.C,C35*%
X84222500Y-58166000D03*
X82147500Y-58166000D03*
%TD*%
D42*
%TO.C,U14*%
X84187000Y-85319000D03*
X86487000Y-85319000D03*
D43*
X86487000Y-79019000D03*
D42*
X88787000Y-85319000D03*
%TD*%
D24*
%TO.C,L1*%
X215900000Y-37338000D03*
X203200000Y-37338000D03*
%TD*%
D40*
%TO.C,R50*%
X99044000Y-90678000D03*
X97044000Y-90678000D03*
%TD*%
D24*
%TO.C,L2*%
X216408000Y-70353000D03*
X216408000Y-57653000D03*
%TD*%
D16*
%TO.C,C20*%
X154178000Y-25707000D03*
X154178000Y-48207000D03*
%TD*%
D11*
%TO.C,C47*%
X91059000Y-47536500D03*
X91059000Y-44411500D03*
%TD*%
D12*
%TO.C,R38*%
X107950000Y-28210000D03*
X107950000Y-30210000D03*
%TD*%
D20*
%TO.C,C19*%
X107569000Y-80666500D03*
X107569000Y-78591500D03*
%TD*%
D30*
%TO.C,U10*%
X105283000Y-58674000D03*
D31*
X105283000Y-56134000D03*
X105283000Y-53594000D03*
X105283000Y-51054000D03*
X97663000Y-51054000D03*
X97663000Y-53594000D03*
X97663000Y-56134000D03*
X97663000Y-58674000D03*
%TD*%
D15*
%TO.C,R44*%
X81931000Y-90678000D03*
X83931000Y-90678000D03*
%TD*%
D10*
%TO.C,C37*%
X91962500Y-75311000D03*
X94037500Y-75311000D03*
%TD*%
D16*
%TO.C,C4*%
X173863000Y-75512000D03*
X173863000Y-53012000D03*
%TD*%
%TO.C,C11*%
X164211000Y-75258000D03*
X164211000Y-52758000D03*
%TD*%
D44*
%TO.C,U2*%
X107950000Y-93020000D03*
D45*
X110490000Y-93020000D03*
X113030000Y-93020000D03*
%TD*%
D28*
%TO.C,U13*%
X96901000Y-93030000D03*
D29*
X94361000Y-93030000D03*
D28*
X91821000Y-93030000D03*
X89281000Y-93030000D03*
X89281000Y-102550000D03*
X91821000Y-102550000D03*
X94361000Y-102550000D03*
X96901000Y-102550000D03*
%TD*%
D30*
%TO.C,U6*%
X97673000Y-62113000D03*
D31*
X97673000Y-64653000D03*
X97673000Y-67193000D03*
X97673000Y-69733000D03*
X105293000Y-69733000D03*
X105293000Y-67193000D03*
X105293000Y-64653000D03*
X105293000Y-62113000D03*
%TD*%
D13*
%TO.C,Q2*%
X189029000Y-82180000D03*
D14*
X189029000Y-87630000D03*
X189029000Y-93080000D03*
%TD*%
D15*
%TO.C,R4*%
X136033000Y-48133000D03*
X138033000Y-48133000D03*
%TD*%
%TO.C,R16*%
X251095000Y-96520000D03*
X253095000Y-96520000D03*
%TD*%
D24*
%TO.C,L4*%
X221107000Y-90678000D03*
X233807000Y-90678000D03*
%TD*%
D25*
%TO.C,D3*%
X181483000Y-52959000D03*
D26*
X181483000Y-68199000D03*
%TD*%
D46*
%TO.C,J3*%
X252312000Y-62900500D03*
D47*
X252312000Y-57820500D03*
%TD*%
D48*
%TO.C,J4*%
X82300000Y-22352000D03*
X78990000Y-24892000D03*
X82300000Y-27432000D03*
X78990000Y-29972000D03*
X82300000Y-32512000D03*
X78990000Y-35052000D03*
X82300000Y-37592000D03*
%TD*%
D49*
%TO.C,C52*%
X82892500Y-76327000D03*
X86017500Y-76327000D03*
%TD*%
D25*
%TO.C,D6*%
X154305000Y-78867000D03*
D26*
X154305000Y-63627000D03*
%TD*%
D27*
%TO.C,R9*%
X145415000Y-47592000D03*
X145415000Y-27592000D03*
%TD*%
D10*
%TO.C,C40*%
X87989500Y-75311000D03*
X90064500Y-75311000D03*
%TD*%
D15*
%TO.C,R39*%
X91964000Y-78359000D03*
X93964000Y-78359000D03*
%TD*%
D24*
%TO.C,L5*%
X215260000Y-90563000D03*
X202560000Y-90563000D03*
%TD*%
D22*
%TO.C,J1*%
X185183500Y-27920500D03*
D23*
X190263500Y-27920500D03*
%TD*%
M02*
