%TF.GenerationSoftware,KiCad,Pcbnew,(6.0.8)*%
%TF.CreationDate,2024-04-13T01:58:17+05:30*%
%TF.ProjectId,Lu_Testing,4c755f54-6573-4746-996e-672e6b696361,rev?*%
%TF.SameCoordinates,Original*%
%TF.FileFunction,Paste,Bot*%
%TF.FilePolarity,Positive*%
%FSLAX46Y46*%
G04 Gerber Fmt 4.6, Leading zero omitted, Abs format (unit mm)*
G04 Created by KiCad (PCBNEW (6.0.8)) date 2024-04-13 01:58:17*
%MOMM*%
%LPD*%
G01*
G04 APERTURE LIST*
G04 Aperture macros list*
%AMRoundRect*
0 Rectangle with rounded corners*
0 $1 Rounding radius*
0 $2 $3 $4 $5 $6 $7 $8 $9 X,Y pos of 4 corners*
0 Add a 4 corners polygon primitive as box body*
4,1,4,$2,$3,$4,$5,$6,$7,$8,$9,$2,$3,0*
0 Add four circle primitives for the rounded corners*
1,1,$1+$1,$2,$3*
1,1,$1+$1,$4,$5*
1,1,$1+$1,$6,$7*
1,1,$1+$1,$8,$9*
0 Add four rect primitives between the rounded corners*
20,1,$1+$1,$2,$3,$4,$5,0*
20,1,$1+$1,$4,$5,$6,$7,0*
20,1,$1+$1,$6,$7,$8,$9,0*
20,1,$1+$1,$8,$9,$2,$3,0*%
%AMOutline4P*
0 Free polygon, 4 corners , with rotation*
0 The origin of the aperture is its center*
0 number of corners: always 4*
0 $1 to $8 corner X, Y*
0 $9 Rotation angle, in degrees counterclockwise*
0 create outline with 4 corners*
4,1,4,$1,$2,$3,$4,$5,$6,$7,$8,$1,$2,$9*%
G04 Aperture macros list end*
%ADD10RoundRect,0.250000X-0.350000X-0.450000X0.350000X-0.450000X0.350000X0.450000X-0.350000X0.450000X0*%
%ADD11RoundRect,0.250000X0.475000X-0.337500X0.475000X0.337500X-0.475000X0.337500X-0.475000X-0.337500X0*%
%ADD12RoundRect,0.250000X0.337500X0.475000X-0.337500X0.475000X-0.337500X-0.475000X0.337500X-0.475000X0*%
%ADD13RoundRect,0.250000X-0.337500X-0.475000X0.337500X-0.475000X0.337500X0.475000X-0.337500X0.475000X0*%
%ADD14RoundRect,0.249999X-0.450001X-1.425001X0.450001X-1.425001X0.450001X1.425001X-0.450001X1.425001X0*%
%ADD15RoundRect,0.250000X0.450000X-0.350000X0.450000X0.350000X-0.450000X0.350000X-0.450000X-0.350000X0*%
%ADD16RoundRect,0.250000X-0.400000X-0.625000X0.400000X-0.625000X0.400000X0.625000X-0.400000X0.625000X0*%
%ADD17RoundRect,0.250000X-0.475000X0.337500X-0.475000X-0.337500X0.475000X-0.337500X0.475000X0.337500X0*%
%ADD18RoundRect,0.150000X-0.150000X0.587500X-0.150000X-0.587500X0.150000X-0.587500X0.150000X0.587500X0*%
%ADD19RoundRect,0.250000X-0.650000X0.412500X-0.650000X-0.412500X0.650000X-0.412500X0.650000X0.412500X0*%
%ADD20RoundRect,0.250000X0.650000X-0.412500X0.650000X0.412500X-0.650000X0.412500X-0.650000X-0.412500X0*%
%ADD21RoundRect,0.250000X-0.450000X0.350000X-0.450000X-0.350000X0.450000X-0.350000X0.450000X0.350000X0*%
%ADD22RoundRect,0.250000X0.412500X0.650000X-0.412500X0.650000X-0.412500X-0.650000X0.412500X-0.650000X0*%
%ADD23R,3.050000X2.750000*%
%ADD24R,2.200000X1.200000*%
%ADD25RoundRect,0.250000X0.350000X0.450000X-0.350000X0.450000X-0.350000X-0.450000X0.350000X-0.450000X0*%
%ADD26Outline4P,-1.800000X-1.150000X1.800000X-0.550000X1.800000X0.550000X-1.800000X1.150000X270.000000*%
%ADD27Outline4P,-1.800000X-1.150000X1.800000X-0.550000X1.800000X0.550000X-1.800000X1.150000X90.000000*%
%ADD28RoundRect,0.250000X-0.412500X-0.650000X0.412500X-0.650000X0.412500X0.650000X-0.412500X0.650000X0*%
%ADD29RoundRect,0.150000X0.150000X-0.825000X0.150000X0.825000X-0.150000X0.825000X-0.150000X-0.825000X0*%
G04 APERTURE END LIST*
D10*
%TO.C,R49*%
X93488000Y-100457000D03*
X95488000Y-100457000D03*
%TD*%
D11*
%TO.C,C1*%
X120509000Y-65299500D03*
X120509000Y-63224500D03*
%TD*%
D12*
%TO.C,C16*%
X129688500Y-57404000D03*
X127613500Y-57404000D03*
%TD*%
D13*
%TO.C,C32*%
X106531500Y-71882000D03*
X108606500Y-71882000D03*
%TD*%
D14*
%TO.C,R27*%
X247630500Y-100891000D03*
X253730500Y-100891000D03*
%TD*%
%TO.C,R19*%
X247757500Y-76507000D03*
X253857500Y-76507000D03*
%TD*%
D10*
%TO.C,R30*%
X137430000Y-100330000D03*
X139430000Y-100330000D03*
%TD*%
D15*
%TO.C,R42*%
X95377000Y-55483000D03*
X95377000Y-53483000D03*
%TD*%
D16*
%TO.C,R8*%
X206730000Y-29833000D03*
X209830000Y-29833000D03*
%TD*%
D17*
%TO.C,C41*%
X102997000Y-27410500D03*
X102997000Y-29485500D03*
%TD*%
D10*
%TO.C,R28*%
X138538028Y-97705236D03*
X140538028Y-97705236D03*
%TD*%
D14*
%TO.C,R26*%
X247630500Y-84635000D03*
X253730500Y-84635000D03*
%TD*%
%TO.C,R25*%
X247679500Y-80584000D03*
X253779500Y-80584000D03*
%TD*%
D18*
%TO.C,Q4*%
X108524000Y-27891500D03*
X110424000Y-27891500D03*
X109474000Y-29766500D03*
%TD*%
D19*
%TO.C,C25*%
X121793000Y-93179500D03*
X121793000Y-96304500D03*
%TD*%
D20*
%TO.C,C18*%
X124079000Y-102019500D03*
X124079000Y-98894500D03*
%TD*%
D21*
%TO.C,R5*%
X194056000Y-52594000D03*
X194056000Y-54594000D03*
%TD*%
D22*
%TO.C,C57*%
X106464500Y-86487000D03*
X103339500Y-86487000D03*
%TD*%
D11*
%TO.C,C21*%
X121793000Y-101240500D03*
X121793000Y-99165500D03*
%TD*%
D23*
%TO.C,U1*%
X114427000Y-78357000D03*
X111077000Y-78357000D03*
X114427000Y-81407000D03*
X111077000Y-81407000D03*
D24*
X106452000Y-82162000D03*
X106452000Y-77602000D03*
%TD*%
D17*
%TO.C,C33*%
X102997000Y-67669500D03*
X102997000Y-69744500D03*
%TD*%
D10*
%TO.C,R32*%
X133620000Y-100330000D03*
X135620000Y-100330000D03*
%TD*%
D14*
%TO.C,R22*%
X247765500Y-72482000D03*
X253865500Y-72482000D03*
%TD*%
%TO.C,R20*%
X247630500Y-92763000D03*
X253730500Y-92763000D03*
%TD*%
D11*
%TO.C,C15*%
X128397000Y-72538500D03*
X128397000Y-70463500D03*
%TD*%
D19*
%TO.C,C31*%
X130632028Y-91147500D03*
X130632028Y-94272500D03*
%TD*%
D18*
%TO.C,Q5*%
X108016000Y-38686500D03*
X109916000Y-38686500D03*
X108966000Y-40561500D03*
%TD*%
D25*
%TO.C,R45*%
X80502000Y-100203000D03*
X78502000Y-100203000D03*
%TD*%
D17*
%TO.C,C36*%
X102997000Y-38840500D03*
X102997000Y-40915500D03*
%TD*%
D14*
%TO.C,R24*%
X247630500Y-104955000D03*
X253730500Y-104955000D03*
%TD*%
%TO.C,R21*%
X247630500Y-88699000D03*
X253730500Y-88699000D03*
%TD*%
D17*
%TO.C,C45*%
X107442000Y-45698500D03*
X107442000Y-47773500D03*
%TD*%
D10*
%TO.C,R12*%
X145888028Y-97070236D03*
X147888028Y-97070236D03*
%TD*%
D18*
%TO.C,Q3*%
X107508000Y-67515500D03*
X109408000Y-67515500D03*
X108458000Y-69390500D03*
%TD*%
D14*
%TO.C,R18*%
X247757500Y-68379000D03*
X253857500Y-68379000D03*
%TD*%
D16*
%TO.C,R2*%
X201567000Y-29777000D03*
X204667000Y-29777000D03*
%TD*%
D26*
%TO.C,D2*%
X127889000Y-61489000D03*
D27*
X127889000Y-67289000D03*
%TD*%
D28*
%TO.C,C55*%
X95551452Y-79107000D03*
X98676452Y-79107000D03*
%TD*%
D25*
%TO.C,R29*%
X147888028Y-94784236D03*
X145888028Y-94784236D03*
%TD*%
D17*
%TO.C,C30*%
X133045028Y-91460736D03*
X133045028Y-93535736D03*
%TD*%
D16*
%TO.C,R7*%
X201523000Y-32385000D03*
X204623000Y-32385000D03*
%TD*%
D20*
%TO.C,C9*%
X126111000Y-73571500D03*
X126111000Y-70446500D03*
%TD*%
D17*
%TO.C,C22*%
X124079000Y-93958500D03*
X124079000Y-96033500D03*
%TD*%
D21*
%TO.C,R40*%
X102997000Y-34179000D03*
X102997000Y-36179000D03*
%TD*%
D22*
%TO.C,C8*%
X110274500Y-96139000D03*
X107149500Y-96139000D03*
%TD*%
D19*
%TO.C,C46*%
X109855000Y-44538500D03*
X109855000Y-47663500D03*
%TD*%
D13*
%TO.C,C54*%
X96711452Y-81520000D03*
X98786452Y-81520000D03*
%TD*%
D28*
%TO.C,C5*%
X110578500Y-89535000D03*
X113703500Y-89535000D03*
%TD*%
D13*
%TO.C,C50*%
X89513500Y-100330000D03*
X91588500Y-100330000D03*
%TD*%
D29*
%TO.C,U5*%
X142951028Y-95100236D03*
X141681028Y-95100236D03*
X140411028Y-95100236D03*
X139141028Y-95100236D03*
X137871028Y-95100236D03*
X136601028Y-95100236D03*
X135331028Y-95100236D03*
X135331028Y-90150236D03*
X136601028Y-90150236D03*
X137871028Y-90150236D03*
X139141028Y-90150236D03*
X140411028Y-90150236D03*
X141681028Y-90150236D03*
X142951028Y-90150236D03*
%TD*%
D22*
%TO.C,C3*%
X130721500Y-52578000D03*
X127596500Y-52578000D03*
%TD*%
D13*
%TO.C,C42*%
X93450500Y-58674000D03*
X95525500Y-58674000D03*
%TD*%
D16*
%TO.C,R6*%
X196316000Y-29718000D03*
X199416000Y-29718000D03*
%TD*%
D10*
%TO.C,R47*%
X82439000Y-100203000D03*
X84439000Y-100203000D03*
%TD*%
D21*
%TO.C,R37*%
X102997000Y-22749000D03*
X102997000Y-24749000D03*
%TD*%
D12*
%TO.C,C13*%
X110384500Y-98425000D03*
X108309500Y-98425000D03*
%TD*%
D15*
%TO.C,R34*%
X111252000Y-71231000D03*
X111252000Y-69231000D03*
%TD*%
D20*
%TO.C,C14*%
X118110000Y-66459500D03*
X118110000Y-63334500D03*
%TD*%
D21*
%TO.C,R35*%
X103124000Y-63516000D03*
X103124000Y-65516000D03*
%TD*%
D22*
%TO.C,C10*%
X130721500Y-55118000D03*
X127596500Y-55118000D03*
%TD*%
D28*
%TO.C,C49*%
X85178500Y-102997000D03*
X88303500Y-102997000D03*
%TD*%
D16*
%TO.C,R3*%
X206730000Y-32385000D03*
X209830000Y-32385000D03*
%TD*%
D17*
%TO.C,C26*%
X133045028Y-95524736D03*
X133045028Y-97599736D03*
%TD*%
D21*
%TO.C,R13*%
X194437000Y-86249000D03*
X194437000Y-88249000D03*
%TD*%
D25*
%TO.C,R31*%
X147761028Y-92371236D03*
X145761028Y-92371236D03*
%TD*%
%TO.C,R17*%
X152206028Y-91482236D03*
X150206028Y-91482236D03*
%TD*%
D16*
%TO.C,R1*%
X196316000Y-32385000D03*
X199416000Y-32385000D03*
%TD*%
D25*
%TO.C,R33*%
X133461000Y-84709000D03*
X131461000Y-84709000D03*
%TD*%
D14*
%TO.C,R23*%
X247630500Y-96827000D03*
X253730500Y-96827000D03*
%TD*%
D22*
%TO.C,C7*%
X130721500Y-49911000D03*
X127596500Y-49911000D03*
%TD*%
M02*
