%TF.GenerationSoftware,KiCad,Pcbnew,(6.0.8)*%
%TF.CreationDate,2024-04-13T01:58:22+05:30*%
%TF.ProjectId,Lu_Testing,4c755f54-6573-4746-996e-672e6b696361,rev?*%
%TF.SameCoordinates,Original*%
%TF.FileFunction,Drillmap*%
%TF.FilePolarity,Positive*%
%FSLAX45Y45*%
G04 Gerber Fmt 4.5, Leading zero omitted, Abs format (unit mm)*
G04 Created by KiCad (PCBNEW (6.0.8)) date 2024-04-13 01:58:22*
%MOMM*%
%LPD*%
G01*
G04 APERTURE LIST*
%ADD10C,0.100000*%
%ADD11C,0.200000*%
G04 APERTURE END LIST*
D10*
X25654000Y-1993900D02*
X7708900Y-1993900D01*
X7708900Y-1993900D02*
X7708900Y-10731500D01*
X7708900Y-10731500D02*
X25654000Y-10731500D01*
X25654000Y-10731500D02*
X25654000Y-1993900D01*
D11*
X7961519Y-11046976D02*
X7961519Y-10846976D01*
X8009138Y-10846976D01*
X8037709Y-10856500D01*
X8056757Y-10875548D01*
X8066281Y-10894595D01*
X8075805Y-10932690D01*
X8075805Y-10961262D01*
X8066281Y-10999357D01*
X8056757Y-11018405D01*
X8037709Y-11037452D01*
X8009138Y-11046976D01*
X7961519Y-11046976D01*
X8161519Y-11046976D02*
X8161519Y-10913643D01*
X8161519Y-10951738D02*
X8171043Y-10932690D01*
X8180567Y-10923167D01*
X8199614Y-10913643D01*
X8218662Y-10913643D01*
X8285328Y-11046976D02*
X8285328Y-10913643D01*
X8285328Y-10846976D02*
X8275805Y-10856500D01*
X8285328Y-10866024D01*
X8294852Y-10856500D01*
X8285328Y-10846976D01*
X8285328Y-10866024D01*
X8409138Y-11046976D02*
X8390090Y-11037452D01*
X8380567Y-11018405D01*
X8380567Y-10846976D01*
X8513900Y-11046976D02*
X8494852Y-11037452D01*
X8485329Y-11018405D01*
X8485329Y-10846976D01*
X8742471Y-11046976D02*
X8742471Y-10846976D01*
X8809138Y-10989833D01*
X8875805Y-10846976D01*
X8875805Y-11046976D01*
X9056757Y-11046976D02*
X9056757Y-10942214D01*
X9047233Y-10923167D01*
X9028186Y-10913643D01*
X8990090Y-10913643D01*
X8971043Y-10923167D01*
X9056757Y-11037452D02*
X9037710Y-11046976D01*
X8990090Y-11046976D01*
X8971043Y-11037452D01*
X8961519Y-11018405D01*
X8961519Y-10999357D01*
X8971043Y-10980310D01*
X8990090Y-10970786D01*
X9037710Y-10970786D01*
X9056757Y-10961262D01*
X9151995Y-10913643D02*
X9151995Y-11113643D01*
X9151995Y-10923167D02*
X9171043Y-10913643D01*
X9209138Y-10913643D01*
X9228186Y-10923167D01*
X9237710Y-10932690D01*
X9247233Y-10951738D01*
X9247233Y-11008881D01*
X9237710Y-11027929D01*
X9228186Y-11037452D01*
X9209138Y-11046976D01*
X9171043Y-11046976D01*
X9151995Y-11037452D01*
X9332948Y-11027929D02*
X9342471Y-11037452D01*
X9332948Y-11046976D01*
X9323424Y-11037452D01*
X9332948Y-11027929D01*
X9332948Y-11046976D01*
X9332948Y-10923167D02*
X9342471Y-10932690D01*
X9332948Y-10942214D01*
X9323424Y-10932690D01*
X9332948Y-10923167D01*
X9332948Y-10942214D01*
M02*
