%TF.GenerationSoftware,KiCad,Pcbnew,(6.0.8)*%
%TF.CreationDate,2024-04-13T01:58:22+05:30*%
%TF.ProjectId,Lu_Testing,4c755f54-6573-4746-996e-672e6b696361,rev?*%
%TF.SameCoordinates,Original*%
%TF.FileFunction,Drillmap*%
%TF.FilePolarity,Positive*%
%FSLAX45Y45*%
G04 Gerber Fmt 4.5, Leading zero omitted, Abs format (unit mm)*
G04 Created by KiCad (PCBNEW (6.0.8)) date 2024-04-13 01:58:22*
%MOMM*%
%LPD*%
G01*
G04 APERTURE LIST*
%ADD10C,0.100000*%
%ADD11C,0.200000*%
%ADD12C,0.040000*%
%ADD13C,0.080000*%
%ADD14C,0.099060*%
%ADD15C,0.110000*%
%ADD16C,0.120000*%
%ADD17C,0.130000*%
%ADD18C,0.140000*%
%ADD19C,0.150000*%
%ADD20C,0.180000*%
G04 APERTURE END LIST*
D10*
X25654000Y-1993900D02*
X7708900Y-1993900D01*
X7708900Y-1993900D02*
X7708900Y-10731500D01*
X7708900Y-10731500D02*
X25654000Y-10731500D01*
X25654000Y-10731500D02*
X25654000Y-1993900D01*
D11*
D12*
X7749463Y-6184737D02*
X7789463Y-6224737D01*
X7789463Y-6184737D02*
X7749463Y-6224737D01*
X7790500Y-5212400D02*
X7830500Y-5252400D01*
X7830500Y-5212400D02*
X7790500Y-5252400D01*
X7841300Y-6888800D02*
X7881300Y-6928800D01*
X7881300Y-6888800D02*
X7841300Y-6928800D01*
X7854000Y-6622100D02*
X7894000Y-6662100D01*
X7894000Y-6622100D02*
X7854000Y-6662100D01*
X7866700Y-5783900D02*
X7906700Y-5823900D01*
X7906700Y-5783900D02*
X7866700Y-5823900D01*
X7866700Y-6749100D02*
X7906700Y-6789100D01*
X7906700Y-6749100D02*
X7866700Y-6789100D01*
X7866700Y-9898700D02*
X7906700Y-9938700D01*
X7906700Y-9898700D02*
X7866700Y-9938700D01*
X7981000Y-8908100D02*
X8021000Y-8948100D01*
X8021000Y-8908100D02*
X7981000Y-8948100D01*
X7993700Y-3764600D02*
X8033700Y-3804600D01*
X8033700Y-3764600D02*
X7993700Y-3804600D01*
X8108000Y-10076500D02*
X8148000Y-10116500D01*
X8148000Y-10076500D02*
X8108000Y-10116500D01*
X8222300Y-6571300D02*
X8262300Y-6611300D01*
X8262300Y-6571300D02*
X8222300Y-6611300D01*
X8336600Y-6279200D02*
X8376600Y-6319200D01*
X8376600Y-6279200D02*
X8336600Y-6319200D01*
X8362000Y-3205800D02*
X8402000Y-3245800D01*
X8402000Y-3205800D02*
X8362000Y-3245800D01*
X8374700Y-6596700D02*
X8414700Y-6636700D01*
X8414700Y-6596700D02*
X8374700Y-6636700D01*
X8387400Y-5656900D02*
X8427400Y-5696900D01*
X8427400Y-5656900D02*
X8387400Y-5696900D01*
X8400100Y-6939600D02*
X8440100Y-6979600D01*
X8440100Y-6939600D02*
X8400100Y-6979600D01*
X8412800Y-6418900D02*
X8452800Y-6458900D01*
X8452800Y-6418900D02*
X8412800Y-6458900D01*
X8438200Y-2310150D02*
X8478200Y-2350150D01*
X8478200Y-2310150D02*
X8438200Y-2350150D01*
X8476300Y-2539950D02*
X8516300Y-2579950D01*
X8516300Y-2539950D02*
X8476300Y-2579950D01*
X8476300Y-3510600D02*
X8516300Y-3550600D01*
X8516300Y-3510600D02*
X8476300Y-3550600D01*
X8476300Y-9124000D02*
X8516300Y-9164000D01*
X8516300Y-9124000D02*
X8476300Y-9164000D01*
X8514400Y-6888800D02*
X8554400Y-6928800D01*
X8554400Y-6888800D02*
X8514400Y-6928800D01*
X8552500Y-6749100D02*
X8592500Y-6789100D01*
X8592500Y-6749100D02*
X8552500Y-6789100D01*
X8590600Y-7447600D02*
X8630600Y-7487600D01*
X8630600Y-7447600D02*
X8590600Y-7487600D01*
X8603300Y-6983950D02*
X8643300Y-7023950D01*
X8643300Y-6983950D02*
X8603300Y-7023950D01*
X8628700Y-7333300D02*
X8668700Y-7373300D01*
X8668700Y-7333300D02*
X8628700Y-7373300D01*
X8666800Y-8895400D02*
X8706800Y-8935400D01*
X8706800Y-8895400D02*
X8666800Y-8935400D01*
X8679500Y-4628200D02*
X8719500Y-4668200D01*
X8719500Y-4628200D02*
X8679500Y-4668200D01*
X8679500Y-5809300D02*
X8719500Y-5849300D01*
X8719500Y-5809300D02*
X8679500Y-5849300D01*
X8679500Y-6672900D02*
X8719500Y-6712900D01*
X8719500Y-6672900D02*
X8679500Y-6712900D01*
X8692200Y-5542600D02*
X8732200Y-5582600D01*
X8732200Y-5542600D02*
X8692200Y-5582600D01*
X8743000Y-3040700D02*
X8783000Y-3080700D01*
X8783000Y-3040700D02*
X8743000Y-3080700D01*
X8780000Y-7680000D02*
X8820000Y-7720000D01*
X8820000Y-7680000D02*
X8780000Y-7720000D01*
X8804327Y-6785337D02*
X8844327Y-6825337D01*
X8844327Y-6785337D02*
X8804327Y-6825337D01*
X8844600Y-5339400D02*
X8884600Y-5379400D01*
X8884600Y-5339400D02*
X8844600Y-5379400D01*
X8920800Y-10127300D02*
X8960800Y-10167300D01*
X8960800Y-10127300D02*
X8920800Y-10167300D01*
X8923113Y-6802007D02*
X8963113Y-6842007D01*
X8963113Y-6802007D02*
X8923113Y-6842007D01*
X8925950Y-4450400D02*
X8965950Y-4490400D01*
X8965950Y-4450400D02*
X8925950Y-4490400D01*
X8961323Y-5918564D02*
X9001323Y-5958564D01*
X9001323Y-5918564D02*
X8961323Y-5958564D01*
X9022400Y-4907600D02*
X9062400Y-4947600D01*
X9062400Y-4907600D02*
X9022400Y-4947600D01*
X9022400Y-5796600D02*
X9062400Y-5836600D01*
X9062400Y-5796600D02*
X9022400Y-5836600D01*
X9136700Y-9111300D02*
X9176700Y-9151300D01*
X9176700Y-9111300D02*
X9136700Y-9151300D01*
X9174800Y-5542600D02*
X9214800Y-5582600D01*
X9214800Y-5542600D02*
X9174800Y-5582600D01*
X9174800Y-7663500D02*
X9214800Y-7703500D01*
X9214800Y-7663500D02*
X9174800Y-7703500D01*
X9187500Y-4298000D02*
X9227500Y-4338000D01*
X9227500Y-4298000D02*
X9187500Y-4338000D01*
X9263700Y-2761300D02*
X9303700Y-2801300D01*
X9303700Y-2761300D02*
X9263700Y-2801300D01*
X9263700Y-10127300D02*
X9303700Y-10167300D01*
X9303700Y-10127300D02*
X9263700Y-10167300D01*
X9327200Y-5644200D02*
X9367200Y-5684200D01*
X9367200Y-5644200D02*
X9327200Y-5684200D01*
X9425195Y-6571300D02*
X9465195Y-6611300D01*
X9465195Y-6571300D02*
X9425195Y-6611300D01*
X9441500Y-2291400D02*
X9481500Y-2331400D01*
X9481500Y-2291400D02*
X9441500Y-2331400D01*
X9530400Y-4844100D02*
X9570400Y-4884100D01*
X9570400Y-4844100D02*
X9530400Y-4884100D01*
X9530400Y-10127300D02*
X9570400Y-10167300D01*
X9570400Y-10127300D02*
X9530400Y-10167300D01*
X9835200Y-8933500D02*
X9875200Y-8973500D01*
X9875200Y-8933500D02*
X9835200Y-8973500D01*
X10444800Y-4640900D02*
X10484800Y-4680900D01*
X10484800Y-4640900D02*
X10444800Y-4680900D01*
X10622600Y-7663500D02*
X10662600Y-7703500D01*
X10662600Y-7663500D02*
X10622600Y-7703500D01*
X10660700Y-4818700D02*
X10700700Y-4858700D01*
X10700700Y-4818700D02*
X10660700Y-4858700D01*
X10762300Y-4399600D02*
X10802300Y-4439600D01*
X10802300Y-4399600D02*
X10762300Y-4439600D01*
X10825800Y-6841442D02*
X10865800Y-6881442D01*
X10865800Y-6841442D02*
X10825800Y-6881442D01*
X10876600Y-3958542D02*
X10916600Y-3998542D01*
X10916600Y-3958542D02*
X10876600Y-3998542D01*
X10978200Y-7968300D02*
X11018200Y-8008300D01*
X11018200Y-7968300D02*
X10978200Y-8008300D01*
X10999860Y-2922550D02*
X11039860Y-2962550D01*
X11039860Y-2922550D02*
X10999860Y-2962550D01*
X11079800Y-3358200D02*
X11119800Y-3398200D01*
X11119800Y-3358200D02*
X11079800Y-3398200D01*
X11079800Y-7396800D02*
X11119800Y-7436800D01*
X11119800Y-7396800D02*
X11079800Y-7436800D01*
X11092500Y-2164400D02*
X11132500Y-2204400D01*
X11132500Y-2164400D02*
X11092500Y-2204400D01*
X11092500Y-4767900D02*
X11132500Y-4807900D01*
X11132500Y-4767900D02*
X11092500Y-4807900D01*
X11117900Y-6469700D02*
X11157900Y-6509700D01*
X11157900Y-6469700D02*
X11117900Y-6509700D01*
X11270300Y-5656900D02*
X11310300Y-5696900D01*
X11310300Y-5656900D02*
X11270300Y-5696900D01*
X11346500Y-7079300D02*
X11386500Y-7119300D01*
X11386500Y-7079300D02*
X11346500Y-7119300D01*
X11371900Y-4691700D02*
X11411900Y-4731700D01*
X11411900Y-4691700D02*
X11371900Y-4731700D01*
X11486200Y-7003100D02*
X11526200Y-7043100D01*
X11526200Y-7003100D02*
X11486200Y-7043100D01*
X11549700Y-4107500D02*
X11589700Y-4147500D01*
X11589700Y-4107500D02*
X11549700Y-4147500D01*
X11549700Y-9593900D02*
X11589700Y-9633900D01*
X11589700Y-9593900D02*
X11549700Y-9633900D01*
X11638600Y-6952300D02*
X11678600Y-6992300D01*
X11678600Y-6952300D02*
X11638600Y-6992300D01*
X11778300Y-3028000D02*
X11818300Y-3068000D01*
X11818300Y-3028000D02*
X11778300Y-3068000D01*
X12146600Y-2659700D02*
X12186600Y-2699700D01*
X12186600Y-2659700D02*
X12146600Y-2699700D01*
X12172000Y-3802700D02*
X12212000Y-3842700D01*
X12212000Y-3802700D02*
X12172000Y-3842700D01*
X12172000Y-5199700D02*
X12212000Y-5239700D01*
X12212000Y-5199700D02*
X12172000Y-5239700D01*
X12781600Y-8565200D02*
X12821600Y-8605200D01*
X12821600Y-8565200D02*
X12781600Y-8605200D01*
X12781600Y-9327200D02*
X12821600Y-9367200D01*
X12821600Y-9327200D02*
X12781600Y-9367200D01*
X13010200Y-9847900D02*
X13050200Y-9887900D01*
X13050200Y-9847900D02*
X13010200Y-9887900D01*
X13053531Y-8289419D02*
X13093531Y-8329419D01*
X13093531Y-8289419D02*
X13053531Y-8329419D01*
X13119403Y-9585424D02*
X13159403Y-9625424D01*
X13159403Y-9585424D02*
X13119403Y-9625424D01*
X13188000Y-9047800D02*
X13228000Y-9087800D01*
X13228000Y-9047800D02*
X13188000Y-9087800D01*
X15626400Y-9301800D02*
X15666400Y-9341800D01*
X15666400Y-9301800D02*
X15626400Y-9341800D01*
X15626400Y-9517700D02*
X15666400Y-9557700D01*
X15666400Y-9517700D02*
X15626400Y-9557700D01*
X19817400Y-2507300D02*
X19857400Y-2547300D01*
X19857400Y-2507300D02*
X19817400Y-2547300D01*
X24541800Y-10343200D02*
X24581800Y-10383200D01*
X24581800Y-10343200D02*
X24541800Y-10383200D01*
X24618000Y-9847900D02*
X24658000Y-9887900D01*
X24658000Y-9847900D02*
X24618000Y-9887900D01*
X25353050Y-9900250D02*
X25393050Y-9940250D01*
X25393050Y-9900250D02*
X25353050Y-9940250D01*
D13*
X15711800Y-4356100D02*
G75*
G03*
X15711800Y-4356100I-40000J0D01*
G01*
X17286600Y-4572000D02*
G75*
G03*
X17286600Y-4572000I-40000J0D01*
G01*
X17591400Y-8140700D02*
G75*
G03*
X17591400Y-8140700I-40000J0D01*
G01*
X9766300Y-5065400D02*
X9766300Y-5145400D01*
X9726300Y-5105400D02*
X9806300Y-5105400D01*
X9766300Y-5319400D02*
X9766300Y-5399400D01*
X9726300Y-5359400D02*
X9806300Y-5359400D01*
X9766300Y-5573400D02*
X9766300Y-5653400D01*
X9726300Y-5613400D02*
X9806300Y-5613400D01*
X9766300Y-5827400D02*
X9766300Y-5907400D01*
X9726300Y-5867400D02*
X9806300Y-5867400D01*
X9767300Y-2183500D02*
X9767300Y-2263500D01*
X9727300Y-2223500D02*
X9807300Y-2223500D01*
X9767300Y-2437500D02*
X9767300Y-2517500D01*
X9727300Y-2477500D02*
X9807300Y-2477500D01*
X9767300Y-2691500D02*
X9767300Y-2771500D01*
X9727300Y-2731500D02*
X9807300Y-2731500D01*
X9767300Y-2945500D02*
X9767300Y-3025500D01*
X9727300Y-2985500D02*
X9807300Y-2985500D01*
X9767300Y-3313800D02*
X9767300Y-3393800D01*
X9727300Y-3353800D02*
X9807300Y-3353800D01*
X9767300Y-3567800D02*
X9767300Y-3647800D01*
X9727300Y-3607800D02*
X9807300Y-3607800D01*
X9767300Y-3821800D02*
X9767300Y-3901800D01*
X9727300Y-3861800D02*
X9807300Y-3861800D01*
X9767300Y-4075800D02*
X9767300Y-4155800D01*
X9727300Y-4115800D02*
X9807300Y-4115800D01*
X9767300Y-6171300D02*
X9767300Y-6251300D01*
X9727300Y-6211300D02*
X9807300Y-6211300D01*
X9767300Y-6425300D02*
X9767300Y-6505300D01*
X9727300Y-6465300D02*
X9807300Y-6465300D01*
X9767300Y-6679300D02*
X9767300Y-6759300D01*
X9727300Y-6719300D02*
X9807300Y-6719300D01*
X9767300Y-6933300D02*
X9767300Y-7013300D01*
X9727300Y-6973300D02*
X9807300Y-6973300D01*
X10528300Y-5065400D02*
X10528300Y-5145400D01*
X10488300Y-5105400D02*
X10568300Y-5105400D01*
X10528300Y-5319400D02*
X10528300Y-5399400D01*
X10488300Y-5359400D02*
X10568300Y-5359400D01*
X10528300Y-5573400D02*
X10528300Y-5653400D01*
X10488300Y-5613400D02*
X10568300Y-5613400D01*
X10528300Y-5827400D02*
X10528300Y-5907400D01*
X10488300Y-5867400D02*
X10568300Y-5867400D01*
X10529300Y-2183500D02*
X10529300Y-2263500D01*
X10489300Y-2223500D02*
X10569300Y-2223500D01*
X10529300Y-2437500D02*
X10529300Y-2517500D01*
X10489300Y-2477500D02*
X10569300Y-2477500D01*
X10529300Y-2691500D02*
X10529300Y-2771500D01*
X10489300Y-2731500D02*
X10569300Y-2731500D01*
X10529300Y-2945500D02*
X10529300Y-3025500D01*
X10489300Y-2985500D02*
X10569300Y-2985500D01*
X10529300Y-3313800D02*
X10529300Y-3393800D01*
X10489300Y-3353800D02*
X10569300Y-3353800D01*
X10529300Y-3567800D02*
X10529300Y-3647800D01*
X10489300Y-3607800D02*
X10569300Y-3607800D01*
X10529300Y-3821800D02*
X10529300Y-3901800D01*
X10489300Y-3861800D02*
X10569300Y-3861800D01*
X10529300Y-4075800D02*
X10529300Y-4155800D01*
X10489300Y-4115800D02*
X10569300Y-4115800D01*
X10529300Y-6171300D02*
X10529300Y-6251300D01*
X10489300Y-6211300D02*
X10569300Y-6211300D01*
X10529300Y-6425300D02*
X10529300Y-6505300D01*
X10489300Y-6465300D02*
X10569300Y-6465300D01*
X10529300Y-6679300D02*
X10529300Y-6759300D01*
X10489300Y-6719300D02*
X10569300Y-6719300D01*
X10529300Y-6933300D02*
X10529300Y-7013300D01*
X10489300Y-6973300D02*
X10569300Y-6973300D01*
X12344400Y-5967100D02*
X12344400Y-6047100D01*
X12304400Y-6007100D02*
X12384400Y-6007100D01*
X12344400Y-6221100D02*
X12344400Y-6301100D01*
X12304400Y-6261100D02*
X12384400Y-6261100D01*
X12344400Y-6475100D02*
X12344400Y-6555100D01*
X12304400Y-6515100D02*
X12384400Y-6515100D01*
X12344400Y-6729100D02*
X12344400Y-6809100D01*
X12304400Y-6769100D02*
X12384400Y-6769100D01*
X12344400Y-6983100D02*
X12344400Y-7063100D01*
X12304400Y-7023100D02*
X12384400Y-7023100D01*
X12344400Y-7237100D02*
X12344400Y-7317100D01*
X12304400Y-7277100D02*
X12384400Y-7277100D01*
X12344400Y-7491100D02*
X12344400Y-7571100D01*
X12304400Y-7531100D02*
X12384400Y-7531100D01*
X13106400Y-5967100D02*
X13106400Y-6047100D01*
X13066400Y-6007100D02*
X13146400Y-6007100D01*
X13106400Y-6221100D02*
X13106400Y-6301100D01*
X13066400Y-6261100D02*
X13146400Y-6261100D01*
X13106400Y-6475100D02*
X13106400Y-6555100D01*
X13066400Y-6515100D02*
X13146400Y-6515100D01*
X13106400Y-6729100D02*
X13106400Y-6809100D01*
X13066400Y-6769100D02*
X13146400Y-6769100D01*
X13106400Y-6983100D02*
X13106400Y-7063100D01*
X13066400Y-7023100D02*
X13146400Y-7023100D01*
X13106400Y-7237100D02*
X13106400Y-7317100D01*
X13066400Y-7277100D02*
X13146400Y-7277100D01*
X13106400Y-7491100D02*
X13106400Y-7571100D01*
X13066400Y-7531100D02*
X13146400Y-7531100D01*
D14*
X9687023Y-8434803D02*
X9687023Y-8364757D01*
X9616977Y-8364757D01*
X9616977Y-8434803D01*
X9687023Y-8434803D01*
X9941023Y-8434803D02*
X9941023Y-8364757D01*
X9870977Y-8364757D01*
X9870977Y-8434803D01*
X9941023Y-8434803D01*
X10195023Y-8434803D02*
X10195023Y-8364757D01*
X10124977Y-8364757D01*
X10124977Y-8434803D01*
X10195023Y-8434803D01*
X10449023Y-8434803D02*
X10449023Y-8364757D01*
X10378977Y-8364757D01*
X10378977Y-8434803D01*
X10449023Y-8434803D01*
X11940003Y-9407623D02*
X11940003Y-9337577D01*
X11869957Y-9337577D01*
X11869957Y-9407623D01*
X11940003Y-9407623D01*
X11940003Y-9661623D02*
X11940003Y-9591577D01*
X11869957Y-9591577D01*
X11869957Y-9661623D01*
X11940003Y-9661623D01*
X11940003Y-9915623D02*
X11940003Y-9845577D01*
X11869957Y-9845577D01*
X11869957Y-9915623D01*
X11940003Y-9915623D01*
X11940003Y-10169623D02*
X11940003Y-10099577D01*
X11869957Y-10099577D01*
X11869957Y-10169623D01*
X11940003Y-10169623D01*
D10*
X7924800Y-4228300D02*
X7974800Y-4178300D01*
X7924800Y-4128300D01*
X7874800Y-4178300D01*
X7924800Y-4228300D01*
X7924800Y-4482300D02*
X7974800Y-4432300D01*
X7924800Y-4382300D01*
X7874800Y-4432300D01*
X7924800Y-4482300D01*
X7924800Y-4736300D02*
X7974800Y-4686300D01*
X7924800Y-4636300D01*
X7874800Y-4686300D01*
X7924800Y-4736300D01*
X7924800Y-4990300D02*
X7974800Y-4940300D01*
X7924800Y-4890300D01*
X7874800Y-4940300D01*
X7924800Y-4990300D01*
X8332200Y-10616400D02*
X8382200Y-10566400D01*
X8332200Y-10516400D01*
X8282200Y-10566400D01*
X8332200Y-10616400D01*
X8586200Y-10616400D02*
X8636200Y-10566400D01*
X8586200Y-10516400D01*
X8536200Y-10566400D01*
X8586200Y-10616400D01*
X8840200Y-10616400D02*
X8890200Y-10566400D01*
X8840200Y-10516400D01*
X8790200Y-10566400D01*
X8840200Y-10616400D01*
X9094200Y-10616400D02*
X9144200Y-10566400D01*
X9094200Y-10516400D01*
X9044200Y-10566400D01*
X9094200Y-10616400D01*
D15*
X10740000Y-9247000D02*
X10850000Y-9357000D01*
X10850000Y-9247000D02*
X10740000Y-9357000D01*
X10850000Y-9302000D02*
G75*
G03*
X10850000Y-9302000I-55000J0D01*
G01*
X10994000Y-9247000D02*
X11104000Y-9357000D01*
X11104000Y-9247000D02*
X10994000Y-9357000D01*
X11104000Y-9302000D02*
G75*
G03*
X11104000Y-9302000I-55000J0D01*
G01*
X11248000Y-9247000D02*
X11358000Y-9357000D01*
X11358000Y-9247000D02*
X11248000Y-9357000D01*
X11358000Y-9302000D02*
G75*
G03*
X11358000Y-9302000I-55000J0D01*
G01*
D16*
X10635150Y-10161550D02*
X10755150Y-10281550D01*
X10755150Y-10161550D02*
X10635150Y-10281550D01*
X10695150Y-10161550D02*
X10695150Y-10281550D01*
X10635150Y-10221550D02*
X10755150Y-10221550D01*
X11143150Y-10161550D02*
X11263150Y-10281550D01*
X11263150Y-10161550D02*
X11143150Y-10281550D01*
X11203150Y-10161550D02*
X11203150Y-10281550D01*
X11143150Y-10221550D02*
X11263150Y-10221550D01*
X15357800Y-2510700D02*
X15477800Y-2630700D01*
X15477800Y-2510700D02*
X15357800Y-2630700D01*
X15417800Y-2510700D02*
X15417800Y-2630700D01*
X15357800Y-2570700D02*
X15477800Y-2570700D01*
X15357800Y-4760700D02*
X15477800Y-4880700D01*
X15477800Y-4760700D02*
X15357800Y-4880700D01*
X15417800Y-4760700D02*
X15417800Y-4880700D01*
X15357800Y-4820700D02*
X15477800Y-4820700D01*
X15383200Y-8213000D02*
X15503200Y-8333000D01*
X15503200Y-8213000D02*
X15383200Y-8333000D01*
X15443200Y-8213000D02*
X15443200Y-8333000D01*
X15383200Y-8273000D02*
X15503200Y-8273000D01*
X15383200Y-10463000D02*
X15503200Y-10583000D01*
X15503200Y-10463000D02*
X15383200Y-10583000D01*
X15443200Y-10463000D02*
X15443200Y-10583000D01*
X15383200Y-10523000D02*
X15503200Y-10523000D01*
X16361100Y-5215800D02*
X16481100Y-5335800D01*
X16481100Y-5215800D02*
X16361100Y-5335800D01*
X16421100Y-5215800D02*
X16421100Y-5335800D01*
X16361100Y-5275800D02*
X16481100Y-5275800D01*
X16361100Y-7465800D02*
X16481100Y-7585800D01*
X16481100Y-7465800D02*
X16361100Y-7585800D01*
X16421100Y-7465800D02*
X16421100Y-7585800D01*
X16361100Y-7525800D02*
X16481100Y-7525800D01*
X16492425Y-3889700D02*
X16612425Y-4009700D01*
X16612425Y-3889700D02*
X16492425Y-4009700D01*
X16552425Y-3889700D02*
X16552425Y-4009700D01*
X16492425Y-3949700D02*
X16612425Y-3949700D01*
X17242425Y-3889700D02*
X17362425Y-4009700D01*
X17362425Y-3889700D02*
X17242425Y-4009700D01*
X17302425Y-3889700D02*
X17302425Y-4009700D01*
X17242425Y-3949700D02*
X17362425Y-3949700D01*
X17326300Y-5241200D02*
X17446300Y-5361200D01*
X17446300Y-5241200D02*
X17326300Y-5361200D01*
X17386300Y-5241200D02*
X17386300Y-5361200D01*
X17326300Y-5301200D02*
X17446300Y-5301200D01*
X17326300Y-7491200D02*
X17446300Y-7611200D01*
X17446300Y-7491200D02*
X17326300Y-7611200D01*
X17386300Y-7491200D02*
X17386300Y-7611200D01*
X17326300Y-7551200D02*
X17446300Y-7551200D01*
X18458350Y-2732050D02*
X18578350Y-2852050D01*
X18578350Y-2732050D02*
X18458350Y-2852050D01*
X18518350Y-2732050D02*
X18518350Y-2852050D01*
X18458350Y-2792050D02*
X18578350Y-2792050D01*
X18966350Y-2732050D02*
X19086350Y-2852050D01*
X19086350Y-2732050D02*
X18966350Y-2852050D01*
X19026350Y-2732050D02*
X19026350Y-2852050D01*
X18966350Y-2792050D02*
X19086350Y-2792050D01*
X24080950Y-6148200D02*
X24200950Y-6268200D01*
X24200950Y-6148200D02*
X24080950Y-6268200D01*
X24140950Y-6148200D02*
X24140950Y-6268200D01*
X24080950Y-6208200D02*
X24200950Y-6208200D01*
X24080950Y-8398200D02*
X24200950Y-8518200D01*
X24200950Y-8398200D02*
X24080950Y-8518200D01*
X24140950Y-8398200D02*
X24140950Y-8518200D01*
X24080950Y-8458200D02*
X24200950Y-8458200D01*
X25171200Y-5722050D02*
X25291200Y-5842050D01*
X25291200Y-5722050D02*
X25171200Y-5842050D01*
X25231200Y-5722050D02*
X25231200Y-5842050D01*
X25171200Y-5782050D02*
X25291200Y-5782050D01*
X25171200Y-6230050D02*
X25291200Y-6350050D01*
X25291200Y-6230050D02*
X25171200Y-6350050D01*
X25231200Y-6230050D02*
X25231200Y-6350050D01*
X25171200Y-6290050D02*
X25291200Y-6290050D01*
D17*
X14692400Y-5662700D02*
X14822400Y-5792700D01*
X14822400Y-5662700D02*
X14692400Y-5792700D01*
X14803362Y-5773662D02*
X14803362Y-5681738D01*
X14711438Y-5681738D01*
X14711438Y-5773662D01*
X14803362Y-5773662D01*
X14692400Y-7186700D02*
X14822400Y-7316700D01*
X14822400Y-7186700D02*
X14692400Y-7316700D01*
X14803362Y-7297662D02*
X14803362Y-7205738D01*
X14711438Y-7205738D01*
X14711438Y-7297662D01*
X14803362Y-7297662D01*
X15365500Y-6297700D02*
X15495500Y-6427700D01*
X15495500Y-6297700D02*
X15365500Y-6427700D01*
X15476462Y-6408662D02*
X15476462Y-6316738D01*
X15384538Y-6316738D01*
X15384538Y-6408662D01*
X15476462Y-6408662D01*
X15365500Y-7821700D02*
X15495500Y-7951700D01*
X15495500Y-7821700D02*
X15365500Y-7951700D01*
X15476462Y-7932662D02*
X15476462Y-7840738D01*
X15384538Y-7840738D01*
X15384538Y-7932662D01*
X15476462Y-7932662D01*
X18083300Y-5230900D02*
X18213300Y-5360900D01*
X18213300Y-5230900D02*
X18083300Y-5360900D01*
X18194262Y-5341862D02*
X18194262Y-5249938D01*
X18102338Y-5249938D01*
X18102338Y-5341862D01*
X18194262Y-5341862D01*
X18083300Y-6754900D02*
X18213300Y-6884900D01*
X18213300Y-6754900D02*
X18083300Y-6884900D01*
X18194262Y-6865862D02*
X18194262Y-6773938D01*
X18102338Y-6773938D01*
X18102338Y-6865862D01*
X18194262Y-6865862D01*
X18083300Y-8672600D02*
X18213300Y-8802600D01*
X18213300Y-8672600D02*
X18083300Y-8802600D01*
X18194262Y-8783562D02*
X18194262Y-8691638D01*
X18102338Y-8691638D01*
X18102338Y-8783562D01*
X18194262Y-8783562D01*
X18083300Y-10196600D02*
X18213300Y-10326600D01*
X18213300Y-10196600D02*
X18083300Y-10326600D01*
X18194262Y-10307562D02*
X18194262Y-10215638D01*
X18102338Y-10215638D01*
X18102338Y-10307562D01*
X18194262Y-10307562D01*
D18*
X14471500Y-2689200D02*
X14611500Y-2829200D01*
X14611500Y-2689200D02*
X14471500Y-2829200D01*
X14541500Y-2829200D02*
X14611500Y-2759200D01*
X14541500Y-2689200D01*
X14471500Y-2759200D01*
X14541500Y-2829200D01*
X14471500Y-4689200D02*
X14611500Y-4829200D01*
X14611500Y-4689200D02*
X14471500Y-4829200D01*
X14541500Y-4829200D02*
X14611500Y-4759200D01*
X14541500Y-4689200D01*
X14471500Y-4759200D01*
X14541500Y-4829200D01*
X14509600Y-8162900D02*
X14649600Y-8302900D01*
X14649600Y-8162900D02*
X14509600Y-8302900D01*
X14579600Y-8302900D02*
X14649600Y-8232900D01*
X14579600Y-8162900D01*
X14509600Y-8232900D01*
X14579600Y-8302900D01*
X14509600Y-10162900D02*
X14649600Y-10302900D01*
X14649600Y-10162900D02*
X14509600Y-10302900D01*
X14579600Y-10302900D02*
X14649600Y-10232900D01*
X14579600Y-10162900D01*
X14509600Y-10232900D01*
X14579600Y-10302900D01*
D19*
X18902900Y-4712900D02*
X18902900Y-4862900D01*
X18827900Y-4787900D02*
X18977900Y-4787900D01*
X18977900Y-4787900D02*
G75*
G03*
X18977900Y-4787900I-75000J0D01*
G01*
X18902900Y-5257900D02*
X18902900Y-5407900D01*
X18827900Y-5332900D02*
X18977900Y-5332900D01*
X18977900Y-5332900D02*
G75*
G03*
X18977900Y-5332900I-75000J0D01*
G01*
X18902900Y-5802900D02*
X18902900Y-5952900D01*
X18827900Y-5877900D02*
X18977900Y-5877900D01*
X18977900Y-5877900D02*
G75*
G03*
X18977900Y-5877900I-75000J0D01*
G01*
X18902900Y-8143000D02*
X18902900Y-8293000D01*
X18827900Y-8218000D02*
X18977900Y-8218000D01*
X18977900Y-8218000D02*
G75*
G03*
X18977900Y-8218000I-75000J0D01*
G01*
X18902900Y-8688000D02*
X18902900Y-8838000D01*
X18827900Y-8763000D02*
X18977900Y-8763000D01*
X18977900Y-8763000D02*
G75*
G03*
X18977900Y-8763000I-75000J0D01*
G01*
X18902900Y-9233000D02*
X18902900Y-9383000D01*
X18827900Y-9308000D02*
X18977900Y-9308000D01*
X18977900Y-9308000D02*
G75*
G03*
X18977900Y-9308000I-75000J0D01*
G01*
D20*
X20319640Y-9119940D02*
X20319640Y-8992660D01*
X20192360Y-8992660D01*
X20192360Y-9119940D01*
X20319640Y-9119940D01*
X20346000Y-9056300D02*
G75*
G03*
X20346000Y-9056300I-90000J0D01*
G01*
X20383640Y-3797440D02*
X20383640Y-3670160D01*
X20256360Y-3670160D01*
X20256360Y-3797440D01*
X20383640Y-3797440D01*
X20410000Y-3733800D02*
G75*
G03*
X20410000Y-3733800I-90000J0D01*
G01*
X21589640Y-9119940D02*
X21589640Y-8992660D01*
X21462360Y-8992660D01*
X21462360Y-9119940D01*
X21589640Y-9119940D01*
X21616000Y-9056300D02*
G75*
G03*
X21616000Y-9056300I-90000J0D01*
G01*
X21653640Y-3797440D02*
X21653640Y-3670160D01*
X21526360Y-3670160D01*
X21526360Y-3797440D01*
X21653640Y-3797440D01*
X21680000Y-3733800D02*
G75*
G03*
X21680000Y-3733800I-90000J0D01*
G01*
X21704440Y-5828940D02*
X21704440Y-5701660D01*
X21577160Y-5701660D01*
X21577160Y-5828940D01*
X21704440Y-5828940D01*
X21730800Y-5765300D02*
G75*
G03*
X21730800Y-5765300I-90000J0D01*
G01*
X21704440Y-7098940D02*
X21704440Y-6971660D01*
X21577160Y-6971660D01*
X21577160Y-7098940D01*
X21704440Y-7098940D01*
X21730800Y-7035300D02*
G75*
G03*
X21730800Y-7035300I-90000J0D01*
G01*
X22174340Y-9131440D02*
X22174340Y-9004160D01*
X22047060Y-9004160D01*
X22047060Y-9131440D01*
X22174340Y-9131440D01*
X22200700Y-9067800D02*
G75*
G03*
X22200700Y-9067800I-90000J0D01*
G01*
X22289140Y-3797440D02*
X22289140Y-3670160D01*
X22161860Y-3670160D01*
X22161860Y-3797440D01*
X22289140Y-3797440D01*
X22315500Y-3733800D02*
G75*
G03*
X22315500Y-3733800I-90000J0D01*
G01*
X23444340Y-9131440D02*
X23444340Y-9004160D01*
X23317060Y-9004160D01*
X23317060Y-9131440D01*
X23444340Y-9131440D01*
X23470700Y-9067800D02*
G75*
G03*
X23470700Y-9067800I-90000J0D01*
G01*
X23559140Y-3797440D02*
X23559140Y-3670160D01*
X23431860Y-3670160D01*
X23431860Y-3797440D01*
X23559140Y-3797440D01*
X23585500Y-3733800D02*
G75*
G03*
X23585500Y-3733800I-90000J0D01*
G01*
D11*
X7961519Y-11046976D02*
X7961519Y-10846976D01*
X8009138Y-10846976D01*
X8037709Y-10856500D01*
X8056757Y-10875548D01*
X8066281Y-10894595D01*
X8075805Y-10932690D01*
X8075805Y-10961262D01*
X8066281Y-10999357D01*
X8056757Y-11018405D01*
X8037709Y-11037452D01*
X8009138Y-11046976D01*
X7961519Y-11046976D01*
X8161519Y-11046976D02*
X8161519Y-10913643D01*
X8161519Y-10951738D02*
X8171043Y-10932690D01*
X8180567Y-10923167D01*
X8199614Y-10913643D01*
X8218662Y-10913643D01*
X8285328Y-11046976D02*
X8285328Y-10913643D01*
X8285328Y-10846976D02*
X8275805Y-10856500D01*
X8285328Y-10866024D01*
X8294852Y-10856500D01*
X8285328Y-10846976D01*
X8285328Y-10866024D01*
X8409138Y-11046976D02*
X8390090Y-11037452D01*
X8380567Y-11018405D01*
X8380567Y-10846976D01*
X8513900Y-11046976D02*
X8494852Y-11037452D01*
X8485329Y-11018405D01*
X8485329Y-10846976D01*
X8742471Y-11046976D02*
X8742471Y-10846976D01*
X8809138Y-10989833D01*
X8875805Y-10846976D01*
X8875805Y-11046976D01*
X9056757Y-11046976D02*
X9056757Y-10942214D01*
X9047233Y-10923167D01*
X9028186Y-10913643D01*
X8990090Y-10913643D01*
X8971043Y-10923167D01*
X9056757Y-11037452D02*
X9037710Y-11046976D01*
X8990090Y-11046976D01*
X8971043Y-11037452D01*
X8961519Y-11018405D01*
X8961519Y-10999357D01*
X8971043Y-10980310D01*
X8990090Y-10970786D01*
X9037710Y-10970786D01*
X9056757Y-10961262D01*
X9151995Y-10913643D02*
X9151995Y-11113643D01*
X9151995Y-10923167D02*
X9171043Y-10913643D01*
X9209138Y-10913643D01*
X9228186Y-10923167D01*
X9237710Y-10932690D01*
X9247233Y-10951738D01*
X9247233Y-11008881D01*
X9237710Y-11027929D01*
X9228186Y-11037452D01*
X9209138Y-11046976D01*
X9171043Y-11046976D01*
X9151995Y-11037452D01*
X9332948Y-11027929D02*
X9342471Y-11037452D01*
X9332948Y-11046976D01*
X9323424Y-11037452D01*
X9332948Y-11027929D01*
X9332948Y-11046976D01*
X9332948Y-10923167D02*
X9342471Y-10932690D01*
X9332948Y-10942214D01*
X9323424Y-10932690D01*
X9332948Y-10923167D01*
X9332948Y-10942214D01*
D12*
X7663900Y-11356500D02*
X7703900Y-11396500D01*
X7703900Y-11356500D02*
X7663900Y-11396500D01*
D11*
X7999614Y-11266976D02*
X8018662Y-11266976D01*
X8037709Y-11276500D01*
X8047233Y-11286024D01*
X8056757Y-11305071D01*
X8066281Y-11343167D01*
X8066281Y-11390786D01*
X8056757Y-11428881D01*
X8047233Y-11447928D01*
X8037709Y-11457452D01*
X8018662Y-11466976D01*
X7999614Y-11466976D01*
X7980567Y-11457452D01*
X7971043Y-11447928D01*
X7961519Y-11428881D01*
X7951995Y-11390786D01*
X7951995Y-11343167D01*
X7961519Y-11305071D01*
X7971043Y-11286024D01*
X7980567Y-11276500D01*
X7999614Y-11266976D01*
X8151995Y-11447928D02*
X8161519Y-11457452D01*
X8151995Y-11466976D01*
X8142471Y-11457452D01*
X8151995Y-11447928D01*
X8151995Y-11466976D01*
X8332948Y-11333643D02*
X8332948Y-11466976D01*
X8285328Y-11257452D02*
X8237709Y-11400309D01*
X8361519Y-11400309D01*
X8475805Y-11266976D02*
X8494852Y-11266976D01*
X8513900Y-11276500D01*
X8523424Y-11286024D01*
X8532948Y-11305071D01*
X8542471Y-11343167D01*
X8542471Y-11390786D01*
X8532948Y-11428881D01*
X8523424Y-11447928D01*
X8513900Y-11457452D01*
X8494852Y-11466976D01*
X8475805Y-11466976D01*
X8456757Y-11457452D01*
X8447233Y-11447928D01*
X8437710Y-11428881D01*
X8428186Y-11390786D01*
X8428186Y-11343167D01*
X8437710Y-11305071D01*
X8447233Y-11286024D01*
X8456757Y-11276500D01*
X8475805Y-11266976D01*
X8666281Y-11266976D02*
X8685329Y-11266976D01*
X8704376Y-11276500D01*
X8713900Y-11286024D01*
X8723424Y-11305071D01*
X8732948Y-11343167D01*
X8732948Y-11390786D01*
X8723424Y-11428881D01*
X8713900Y-11447928D01*
X8704376Y-11457452D01*
X8685329Y-11466976D01*
X8666281Y-11466976D01*
X8647233Y-11457452D01*
X8637710Y-11447928D01*
X8628186Y-11428881D01*
X8618662Y-11390786D01*
X8618662Y-11343167D01*
X8628186Y-11305071D01*
X8637710Y-11286024D01*
X8647233Y-11276500D01*
X8666281Y-11266976D01*
X8818662Y-11466976D02*
X8818662Y-11333643D01*
X8818662Y-11352690D02*
X8828186Y-11343167D01*
X8847233Y-11333643D01*
X8875805Y-11333643D01*
X8894852Y-11343167D01*
X8904376Y-11362214D01*
X8904376Y-11466976D01*
X8904376Y-11362214D02*
X8913900Y-11343167D01*
X8932948Y-11333643D01*
X8961519Y-11333643D01*
X8980567Y-11343167D01*
X8990090Y-11362214D01*
X8990090Y-11466976D01*
X9085329Y-11466976D02*
X9085329Y-11333643D01*
X9085329Y-11352690D02*
X9094852Y-11343167D01*
X9113900Y-11333643D01*
X9142471Y-11333643D01*
X9161519Y-11343167D01*
X9171043Y-11362214D01*
X9171043Y-11466976D01*
X9171043Y-11362214D02*
X9180567Y-11343167D01*
X9199614Y-11333643D01*
X9228186Y-11333643D01*
X9247233Y-11343167D01*
X9256757Y-11362214D01*
X9256757Y-11466976D01*
X9647233Y-11257452D02*
X9475805Y-11514595D01*
X9904376Y-11266976D02*
X9923424Y-11266976D01*
X9942471Y-11276500D01*
X9951995Y-11286024D01*
X9961519Y-11305071D01*
X9971043Y-11343167D01*
X9971043Y-11390786D01*
X9961519Y-11428881D01*
X9951995Y-11447928D01*
X9942471Y-11457452D01*
X9923424Y-11466976D01*
X9904376Y-11466976D01*
X9885329Y-11457452D01*
X9875805Y-11447928D01*
X9866281Y-11428881D01*
X9856757Y-11390786D01*
X9856757Y-11343167D01*
X9866281Y-11305071D01*
X9875805Y-11286024D01*
X9885329Y-11276500D01*
X9904376Y-11266976D01*
X10056757Y-11447928D02*
X10066281Y-11457452D01*
X10056757Y-11466976D01*
X10047233Y-11457452D01*
X10056757Y-11447928D01*
X10056757Y-11466976D01*
X10190090Y-11266976D02*
X10209138Y-11266976D01*
X10228186Y-11276500D01*
X10237710Y-11286024D01*
X10247233Y-11305071D01*
X10256757Y-11343167D01*
X10256757Y-11390786D01*
X10247233Y-11428881D01*
X10237710Y-11447928D01*
X10228186Y-11457452D01*
X10209138Y-11466976D01*
X10190090Y-11466976D01*
X10171043Y-11457452D01*
X10161519Y-11447928D01*
X10151995Y-11428881D01*
X10142471Y-11390786D01*
X10142471Y-11343167D01*
X10151995Y-11305071D01*
X10161519Y-11286024D01*
X10171043Y-11276500D01*
X10190090Y-11266976D01*
X10447233Y-11466976D02*
X10332948Y-11466976D01*
X10390090Y-11466976D02*
X10390090Y-11266976D01*
X10371043Y-11295548D01*
X10351995Y-11314595D01*
X10332948Y-11324119D01*
X10628186Y-11266976D02*
X10532948Y-11266976D01*
X10523424Y-11362214D01*
X10532948Y-11352690D01*
X10551995Y-11343167D01*
X10599614Y-11343167D01*
X10618662Y-11352690D01*
X10628186Y-11362214D01*
X10637710Y-11381262D01*
X10637710Y-11428881D01*
X10628186Y-11447928D01*
X10618662Y-11457452D01*
X10599614Y-11466976D01*
X10551995Y-11466976D01*
X10532948Y-11457452D01*
X10523424Y-11447928D01*
X10704376Y-11266976D02*
X10837710Y-11266976D01*
X10751995Y-11466976D01*
X10904376Y-11266976D02*
X10904376Y-11305071D01*
X10980567Y-11266976D02*
X10980567Y-11305071D01*
X11275805Y-11543167D02*
X11266281Y-11533643D01*
X11247233Y-11505071D01*
X11237709Y-11486024D01*
X11228186Y-11457452D01*
X11218662Y-11409833D01*
X11218662Y-11371738D01*
X11228186Y-11324119D01*
X11237709Y-11295548D01*
X11247233Y-11276500D01*
X11266281Y-11247928D01*
X11275805Y-11238405D01*
X11380567Y-11352690D02*
X11361519Y-11343167D01*
X11351995Y-11333643D01*
X11342471Y-11314595D01*
X11342471Y-11305071D01*
X11351995Y-11286024D01*
X11361519Y-11276500D01*
X11380567Y-11266976D01*
X11418662Y-11266976D01*
X11437709Y-11276500D01*
X11447233Y-11286024D01*
X11456757Y-11305071D01*
X11456757Y-11314595D01*
X11447233Y-11333643D01*
X11437709Y-11343167D01*
X11418662Y-11352690D01*
X11380567Y-11352690D01*
X11361519Y-11362214D01*
X11351995Y-11371738D01*
X11342471Y-11390786D01*
X11342471Y-11428881D01*
X11351995Y-11447928D01*
X11361519Y-11457452D01*
X11380567Y-11466976D01*
X11418662Y-11466976D01*
X11437709Y-11457452D01*
X11447233Y-11447928D01*
X11456757Y-11428881D01*
X11456757Y-11390786D01*
X11447233Y-11371738D01*
X11437709Y-11362214D01*
X11418662Y-11352690D01*
X11551995Y-11466976D02*
X11590090Y-11466976D01*
X11609138Y-11457452D01*
X11618662Y-11447928D01*
X11637709Y-11419357D01*
X11647233Y-11381262D01*
X11647233Y-11305071D01*
X11637709Y-11286024D01*
X11628186Y-11276500D01*
X11609138Y-11266976D01*
X11571043Y-11266976D01*
X11551995Y-11276500D01*
X11542471Y-11286024D01*
X11532948Y-11305071D01*
X11532948Y-11352690D01*
X11542471Y-11371738D01*
X11551995Y-11381262D01*
X11571043Y-11390786D01*
X11609138Y-11390786D01*
X11628186Y-11381262D01*
X11637709Y-11371738D01*
X11647233Y-11352690D01*
X11885328Y-11466976D02*
X11885328Y-11266976D01*
X11971043Y-11466976D02*
X11971043Y-11362214D01*
X11961519Y-11343167D01*
X11942471Y-11333643D01*
X11913900Y-11333643D01*
X11894852Y-11343167D01*
X11885328Y-11352690D01*
X12094852Y-11466976D02*
X12075805Y-11457452D01*
X12066281Y-11447928D01*
X12056757Y-11428881D01*
X12056757Y-11371738D01*
X12066281Y-11352690D01*
X12075805Y-11343167D01*
X12094852Y-11333643D01*
X12123424Y-11333643D01*
X12142471Y-11343167D01*
X12151995Y-11352690D01*
X12161519Y-11371738D01*
X12161519Y-11428881D01*
X12151995Y-11447928D01*
X12142471Y-11457452D01*
X12123424Y-11466976D01*
X12094852Y-11466976D01*
X12275805Y-11466976D02*
X12256757Y-11457452D01*
X12247233Y-11438405D01*
X12247233Y-11266976D01*
X12428186Y-11457452D02*
X12409138Y-11466976D01*
X12371043Y-11466976D01*
X12351995Y-11457452D01*
X12342471Y-11438405D01*
X12342471Y-11362214D01*
X12351995Y-11343167D01*
X12371043Y-11333643D01*
X12409138Y-11333643D01*
X12428186Y-11343167D01*
X12437709Y-11362214D01*
X12437709Y-11381262D01*
X12342471Y-11400309D01*
X12513900Y-11457452D02*
X12532948Y-11466976D01*
X12571043Y-11466976D01*
X12590090Y-11457452D01*
X12599614Y-11438405D01*
X12599614Y-11428881D01*
X12590090Y-11409833D01*
X12571043Y-11400309D01*
X12542471Y-11400309D01*
X12523424Y-11390786D01*
X12513900Y-11371738D01*
X12513900Y-11362214D01*
X12523424Y-11343167D01*
X12542471Y-11333643D01*
X12571043Y-11333643D01*
X12590090Y-11343167D01*
X12666281Y-11543167D02*
X12675805Y-11533643D01*
X12694852Y-11505071D01*
X12704376Y-11486024D01*
X12713900Y-11457452D01*
X12723424Y-11409833D01*
X12723424Y-11371738D01*
X12713900Y-11324119D01*
X12704376Y-11295548D01*
X12694852Y-11276500D01*
X12675805Y-11247928D01*
X12666281Y-11238405D01*
D13*
X7703900Y-11640500D02*
G75*
G03*
X7703900Y-11640500I-40000J0D01*
G01*
D11*
X7999614Y-11530976D02*
X8018662Y-11530976D01*
X8037709Y-11540500D01*
X8047233Y-11550024D01*
X8056757Y-11569071D01*
X8066281Y-11607167D01*
X8066281Y-11654786D01*
X8056757Y-11692881D01*
X8047233Y-11711928D01*
X8037709Y-11721452D01*
X8018662Y-11730976D01*
X7999614Y-11730976D01*
X7980567Y-11721452D01*
X7971043Y-11711928D01*
X7961519Y-11692881D01*
X7951995Y-11654786D01*
X7951995Y-11607167D01*
X7961519Y-11569071D01*
X7971043Y-11550024D01*
X7980567Y-11540500D01*
X7999614Y-11530976D01*
X8151995Y-11711928D02*
X8161519Y-11721452D01*
X8151995Y-11730976D01*
X8142471Y-11721452D01*
X8151995Y-11711928D01*
X8151995Y-11730976D01*
X8275805Y-11616690D02*
X8256757Y-11607167D01*
X8247233Y-11597643D01*
X8237709Y-11578595D01*
X8237709Y-11569071D01*
X8247233Y-11550024D01*
X8256757Y-11540500D01*
X8275805Y-11530976D01*
X8313900Y-11530976D01*
X8332948Y-11540500D01*
X8342471Y-11550024D01*
X8351995Y-11569071D01*
X8351995Y-11578595D01*
X8342471Y-11597643D01*
X8332948Y-11607167D01*
X8313900Y-11616690D01*
X8275805Y-11616690D01*
X8256757Y-11626214D01*
X8247233Y-11635738D01*
X8237709Y-11654786D01*
X8237709Y-11692881D01*
X8247233Y-11711928D01*
X8256757Y-11721452D01*
X8275805Y-11730976D01*
X8313900Y-11730976D01*
X8332948Y-11721452D01*
X8342471Y-11711928D01*
X8351995Y-11692881D01*
X8351995Y-11654786D01*
X8342471Y-11635738D01*
X8332948Y-11626214D01*
X8313900Y-11616690D01*
X8475805Y-11530976D02*
X8494852Y-11530976D01*
X8513900Y-11540500D01*
X8523424Y-11550024D01*
X8532948Y-11569071D01*
X8542471Y-11607167D01*
X8542471Y-11654786D01*
X8532948Y-11692881D01*
X8523424Y-11711928D01*
X8513900Y-11721452D01*
X8494852Y-11730976D01*
X8475805Y-11730976D01*
X8456757Y-11721452D01*
X8447233Y-11711928D01*
X8437710Y-11692881D01*
X8428186Y-11654786D01*
X8428186Y-11607167D01*
X8437710Y-11569071D01*
X8447233Y-11550024D01*
X8456757Y-11540500D01*
X8475805Y-11530976D01*
X8666281Y-11530976D02*
X8685329Y-11530976D01*
X8704376Y-11540500D01*
X8713900Y-11550024D01*
X8723424Y-11569071D01*
X8732948Y-11607167D01*
X8732948Y-11654786D01*
X8723424Y-11692881D01*
X8713900Y-11711928D01*
X8704376Y-11721452D01*
X8685329Y-11730976D01*
X8666281Y-11730976D01*
X8647233Y-11721452D01*
X8637710Y-11711928D01*
X8628186Y-11692881D01*
X8618662Y-11654786D01*
X8618662Y-11607167D01*
X8628186Y-11569071D01*
X8637710Y-11550024D01*
X8647233Y-11540500D01*
X8666281Y-11530976D01*
X8818662Y-11730976D02*
X8818662Y-11597643D01*
X8818662Y-11616690D02*
X8828186Y-11607167D01*
X8847233Y-11597643D01*
X8875805Y-11597643D01*
X8894852Y-11607167D01*
X8904376Y-11626214D01*
X8904376Y-11730976D01*
X8904376Y-11626214D02*
X8913900Y-11607167D01*
X8932948Y-11597643D01*
X8961519Y-11597643D01*
X8980567Y-11607167D01*
X8990090Y-11626214D01*
X8990090Y-11730976D01*
X9085329Y-11730976D02*
X9085329Y-11597643D01*
X9085329Y-11616690D02*
X9094852Y-11607167D01*
X9113900Y-11597643D01*
X9142471Y-11597643D01*
X9161519Y-11607167D01*
X9171043Y-11626214D01*
X9171043Y-11730976D01*
X9171043Y-11626214D02*
X9180567Y-11607167D01*
X9199614Y-11597643D01*
X9228186Y-11597643D01*
X9247233Y-11607167D01*
X9256757Y-11626214D01*
X9256757Y-11730976D01*
X9647233Y-11521452D02*
X9475805Y-11778595D01*
X9904376Y-11530976D02*
X9923424Y-11530976D01*
X9942471Y-11540500D01*
X9951995Y-11550024D01*
X9961519Y-11569071D01*
X9971043Y-11607167D01*
X9971043Y-11654786D01*
X9961519Y-11692881D01*
X9951995Y-11711928D01*
X9942471Y-11721452D01*
X9923424Y-11730976D01*
X9904376Y-11730976D01*
X9885329Y-11721452D01*
X9875805Y-11711928D01*
X9866281Y-11692881D01*
X9856757Y-11654786D01*
X9856757Y-11607167D01*
X9866281Y-11569071D01*
X9875805Y-11550024D01*
X9885329Y-11540500D01*
X9904376Y-11530976D01*
X10056757Y-11711928D02*
X10066281Y-11721452D01*
X10056757Y-11730976D01*
X10047233Y-11721452D01*
X10056757Y-11711928D01*
X10056757Y-11730976D01*
X10190090Y-11530976D02*
X10209138Y-11530976D01*
X10228186Y-11540500D01*
X10237710Y-11550024D01*
X10247233Y-11569071D01*
X10256757Y-11607167D01*
X10256757Y-11654786D01*
X10247233Y-11692881D01*
X10237710Y-11711928D01*
X10228186Y-11721452D01*
X10209138Y-11730976D01*
X10190090Y-11730976D01*
X10171043Y-11721452D01*
X10161519Y-11711928D01*
X10151995Y-11692881D01*
X10142471Y-11654786D01*
X10142471Y-11607167D01*
X10151995Y-11569071D01*
X10161519Y-11550024D01*
X10171043Y-11540500D01*
X10190090Y-11530976D01*
X10323424Y-11530976D02*
X10447233Y-11530976D01*
X10380567Y-11607167D01*
X10409138Y-11607167D01*
X10428186Y-11616690D01*
X10437710Y-11626214D01*
X10447233Y-11645262D01*
X10447233Y-11692881D01*
X10437710Y-11711928D01*
X10428186Y-11721452D01*
X10409138Y-11730976D01*
X10351995Y-11730976D01*
X10332948Y-11721452D01*
X10323424Y-11711928D01*
X10637710Y-11730976D02*
X10523424Y-11730976D01*
X10580567Y-11730976D02*
X10580567Y-11530976D01*
X10561519Y-11559548D01*
X10542471Y-11578595D01*
X10523424Y-11588119D01*
X10818662Y-11530976D02*
X10723424Y-11530976D01*
X10713900Y-11626214D01*
X10723424Y-11616690D01*
X10742471Y-11607167D01*
X10790090Y-11607167D01*
X10809138Y-11616690D01*
X10818662Y-11626214D01*
X10828186Y-11645262D01*
X10828186Y-11692881D01*
X10818662Y-11711928D01*
X10809138Y-11721452D01*
X10790090Y-11730976D01*
X10742471Y-11730976D01*
X10723424Y-11721452D01*
X10713900Y-11711928D01*
X10904376Y-11530976D02*
X10904376Y-11569071D01*
X10980567Y-11530976D02*
X10980567Y-11569071D01*
X11275805Y-11807167D02*
X11266281Y-11797643D01*
X11247233Y-11769071D01*
X11237709Y-11750024D01*
X11228186Y-11721452D01*
X11218662Y-11673833D01*
X11218662Y-11635738D01*
X11228186Y-11588119D01*
X11237709Y-11559548D01*
X11247233Y-11540500D01*
X11266281Y-11511928D01*
X11275805Y-11502405D01*
X11332948Y-11530976D02*
X11456757Y-11530976D01*
X11390090Y-11607167D01*
X11418662Y-11607167D01*
X11437709Y-11616690D01*
X11447233Y-11626214D01*
X11456757Y-11645262D01*
X11456757Y-11692881D01*
X11447233Y-11711928D01*
X11437709Y-11721452D01*
X11418662Y-11730976D01*
X11361519Y-11730976D01*
X11342471Y-11721452D01*
X11332948Y-11711928D01*
X11694852Y-11730976D02*
X11694852Y-11530976D01*
X11780567Y-11730976D02*
X11780567Y-11626214D01*
X11771043Y-11607167D01*
X11751995Y-11597643D01*
X11723424Y-11597643D01*
X11704376Y-11607167D01*
X11694852Y-11616690D01*
X11904376Y-11730976D02*
X11885328Y-11721452D01*
X11875805Y-11711928D01*
X11866281Y-11692881D01*
X11866281Y-11635738D01*
X11875805Y-11616690D01*
X11885328Y-11607167D01*
X11904376Y-11597643D01*
X11932948Y-11597643D01*
X11951995Y-11607167D01*
X11961519Y-11616690D01*
X11971043Y-11635738D01*
X11971043Y-11692881D01*
X11961519Y-11711928D01*
X11951995Y-11721452D01*
X11932948Y-11730976D01*
X11904376Y-11730976D01*
X12085328Y-11730976D02*
X12066281Y-11721452D01*
X12056757Y-11702405D01*
X12056757Y-11530976D01*
X12237709Y-11721452D02*
X12218662Y-11730976D01*
X12180567Y-11730976D01*
X12161519Y-11721452D01*
X12151995Y-11702405D01*
X12151995Y-11626214D01*
X12161519Y-11607167D01*
X12180567Y-11597643D01*
X12218662Y-11597643D01*
X12237709Y-11607167D01*
X12247233Y-11626214D01*
X12247233Y-11645262D01*
X12151995Y-11664309D01*
X12323424Y-11721452D02*
X12342471Y-11730976D01*
X12380567Y-11730976D01*
X12399614Y-11721452D01*
X12409138Y-11702405D01*
X12409138Y-11692881D01*
X12399614Y-11673833D01*
X12380567Y-11664309D01*
X12351995Y-11664309D01*
X12332948Y-11654786D01*
X12323424Y-11635738D01*
X12323424Y-11626214D01*
X12332948Y-11607167D01*
X12351995Y-11597643D01*
X12380567Y-11597643D01*
X12399614Y-11607167D01*
X12475805Y-11807167D02*
X12485328Y-11797643D01*
X12504376Y-11769071D01*
X12513900Y-11750024D01*
X12523424Y-11721452D01*
X12532948Y-11673833D01*
X12532948Y-11635738D01*
X12523424Y-11588119D01*
X12513900Y-11559548D01*
X12504376Y-11540500D01*
X12485328Y-11511928D01*
X12475805Y-11502405D01*
D13*
X7663900Y-11864500D02*
X7663900Y-11944500D01*
X7623900Y-11904500D02*
X7703900Y-11904500D01*
D11*
X7999614Y-11794976D02*
X8018662Y-11794976D01*
X8037709Y-11804500D01*
X8047233Y-11814024D01*
X8056757Y-11833071D01*
X8066281Y-11871167D01*
X8066281Y-11918786D01*
X8056757Y-11956881D01*
X8047233Y-11975928D01*
X8037709Y-11985452D01*
X8018662Y-11994976D01*
X7999614Y-11994976D01*
X7980567Y-11985452D01*
X7971043Y-11975928D01*
X7961519Y-11956881D01*
X7951995Y-11918786D01*
X7951995Y-11871167D01*
X7961519Y-11833071D01*
X7971043Y-11814024D01*
X7980567Y-11804500D01*
X7999614Y-11794976D01*
X8151995Y-11975928D02*
X8161519Y-11985452D01*
X8151995Y-11994976D01*
X8142471Y-11985452D01*
X8151995Y-11975928D01*
X8151995Y-11994976D01*
X8275805Y-11880690D02*
X8256757Y-11871167D01*
X8247233Y-11861643D01*
X8237709Y-11842595D01*
X8237709Y-11833071D01*
X8247233Y-11814024D01*
X8256757Y-11804500D01*
X8275805Y-11794976D01*
X8313900Y-11794976D01*
X8332948Y-11804500D01*
X8342471Y-11814024D01*
X8351995Y-11833071D01*
X8351995Y-11842595D01*
X8342471Y-11861643D01*
X8332948Y-11871167D01*
X8313900Y-11880690D01*
X8275805Y-11880690D01*
X8256757Y-11890214D01*
X8247233Y-11899738D01*
X8237709Y-11918786D01*
X8237709Y-11956881D01*
X8247233Y-11975928D01*
X8256757Y-11985452D01*
X8275805Y-11994976D01*
X8313900Y-11994976D01*
X8332948Y-11985452D01*
X8342471Y-11975928D01*
X8351995Y-11956881D01*
X8351995Y-11918786D01*
X8342471Y-11899738D01*
X8332948Y-11890214D01*
X8313900Y-11880690D01*
X8475805Y-11794976D02*
X8494852Y-11794976D01*
X8513900Y-11804500D01*
X8523424Y-11814024D01*
X8532948Y-11833071D01*
X8542471Y-11871167D01*
X8542471Y-11918786D01*
X8532948Y-11956881D01*
X8523424Y-11975928D01*
X8513900Y-11985452D01*
X8494852Y-11994976D01*
X8475805Y-11994976D01*
X8456757Y-11985452D01*
X8447233Y-11975928D01*
X8437710Y-11956881D01*
X8428186Y-11918786D01*
X8428186Y-11871167D01*
X8437710Y-11833071D01*
X8447233Y-11814024D01*
X8456757Y-11804500D01*
X8475805Y-11794976D01*
X8666281Y-11794976D02*
X8685329Y-11794976D01*
X8704376Y-11804500D01*
X8713900Y-11814024D01*
X8723424Y-11833071D01*
X8732948Y-11871167D01*
X8732948Y-11918786D01*
X8723424Y-11956881D01*
X8713900Y-11975928D01*
X8704376Y-11985452D01*
X8685329Y-11994976D01*
X8666281Y-11994976D01*
X8647233Y-11985452D01*
X8637710Y-11975928D01*
X8628186Y-11956881D01*
X8618662Y-11918786D01*
X8618662Y-11871167D01*
X8628186Y-11833071D01*
X8637710Y-11814024D01*
X8647233Y-11804500D01*
X8666281Y-11794976D01*
X8818662Y-11994976D02*
X8818662Y-11861643D01*
X8818662Y-11880690D02*
X8828186Y-11871167D01*
X8847233Y-11861643D01*
X8875805Y-11861643D01*
X8894852Y-11871167D01*
X8904376Y-11890214D01*
X8904376Y-11994976D01*
X8904376Y-11890214D02*
X8913900Y-11871167D01*
X8932948Y-11861643D01*
X8961519Y-11861643D01*
X8980567Y-11871167D01*
X8990090Y-11890214D01*
X8990090Y-11994976D01*
X9085329Y-11994976D02*
X9085329Y-11861643D01*
X9085329Y-11880690D02*
X9094852Y-11871167D01*
X9113900Y-11861643D01*
X9142471Y-11861643D01*
X9161519Y-11871167D01*
X9171043Y-11890214D01*
X9171043Y-11994976D01*
X9171043Y-11890214D02*
X9180567Y-11871167D01*
X9199614Y-11861643D01*
X9228186Y-11861643D01*
X9247233Y-11871167D01*
X9256757Y-11890214D01*
X9256757Y-11994976D01*
X9647233Y-11785452D02*
X9475805Y-12042595D01*
X9904376Y-11794976D02*
X9923424Y-11794976D01*
X9942471Y-11804500D01*
X9951995Y-11814024D01*
X9961519Y-11833071D01*
X9971043Y-11871167D01*
X9971043Y-11918786D01*
X9961519Y-11956881D01*
X9951995Y-11975928D01*
X9942471Y-11985452D01*
X9923424Y-11994976D01*
X9904376Y-11994976D01*
X9885329Y-11985452D01*
X9875805Y-11975928D01*
X9866281Y-11956881D01*
X9856757Y-11918786D01*
X9856757Y-11871167D01*
X9866281Y-11833071D01*
X9875805Y-11814024D01*
X9885329Y-11804500D01*
X9904376Y-11794976D01*
X10056757Y-11975928D02*
X10066281Y-11985452D01*
X10056757Y-11994976D01*
X10047233Y-11985452D01*
X10056757Y-11975928D01*
X10056757Y-11994976D01*
X10190090Y-11794976D02*
X10209138Y-11794976D01*
X10228186Y-11804500D01*
X10237710Y-11814024D01*
X10247233Y-11833071D01*
X10256757Y-11871167D01*
X10256757Y-11918786D01*
X10247233Y-11956881D01*
X10237710Y-11975928D01*
X10228186Y-11985452D01*
X10209138Y-11994976D01*
X10190090Y-11994976D01*
X10171043Y-11985452D01*
X10161519Y-11975928D01*
X10151995Y-11956881D01*
X10142471Y-11918786D01*
X10142471Y-11871167D01*
X10151995Y-11833071D01*
X10161519Y-11814024D01*
X10171043Y-11804500D01*
X10190090Y-11794976D01*
X10323424Y-11794976D02*
X10447233Y-11794976D01*
X10380567Y-11871167D01*
X10409138Y-11871167D01*
X10428186Y-11880690D01*
X10437710Y-11890214D01*
X10447233Y-11909262D01*
X10447233Y-11956881D01*
X10437710Y-11975928D01*
X10428186Y-11985452D01*
X10409138Y-11994976D01*
X10351995Y-11994976D01*
X10332948Y-11985452D01*
X10323424Y-11975928D01*
X10637710Y-11994976D02*
X10523424Y-11994976D01*
X10580567Y-11994976D02*
X10580567Y-11794976D01*
X10561519Y-11823548D01*
X10542471Y-11842595D01*
X10523424Y-11852119D01*
X10818662Y-11794976D02*
X10723424Y-11794976D01*
X10713900Y-11890214D01*
X10723424Y-11880690D01*
X10742471Y-11871167D01*
X10790090Y-11871167D01*
X10809138Y-11880690D01*
X10818662Y-11890214D01*
X10828186Y-11909262D01*
X10828186Y-11956881D01*
X10818662Y-11975928D01*
X10809138Y-11985452D01*
X10790090Y-11994976D01*
X10742471Y-11994976D01*
X10723424Y-11985452D01*
X10713900Y-11975928D01*
X10904376Y-11794976D02*
X10904376Y-11833071D01*
X10980567Y-11794976D02*
X10980567Y-11833071D01*
X11275805Y-12071167D02*
X11266281Y-12061643D01*
X11247233Y-12033071D01*
X11237709Y-12014024D01*
X11228186Y-11985452D01*
X11218662Y-11937833D01*
X11218662Y-11899738D01*
X11228186Y-11852119D01*
X11237709Y-11823548D01*
X11247233Y-11804500D01*
X11266281Y-11775928D01*
X11275805Y-11766405D01*
X11437709Y-11861643D02*
X11437709Y-11994976D01*
X11390090Y-11785452D02*
X11342471Y-11928309D01*
X11466281Y-11928309D01*
X11628186Y-11794976D02*
X11590090Y-11794976D01*
X11571043Y-11804500D01*
X11561519Y-11814024D01*
X11542471Y-11842595D01*
X11532948Y-11880690D01*
X11532948Y-11956881D01*
X11542471Y-11975928D01*
X11551995Y-11985452D01*
X11571043Y-11994976D01*
X11609138Y-11994976D01*
X11628186Y-11985452D01*
X11637709Y-11975928D01*
X11647233Y-11956881D01*
X11647233Y-11909262D01*
X11637709Y-11890214D01*
X11628186Y-11880690D01*
X11609138Y-11871167D01*
X11571043Y-11871167D01*
X11551995Y-11880690D01*
X11542471Y-11890214D01*
X11532948Y-11909262D01*
X11885328Y-11994976D02*
X11885328Y-11794976D01*
X11971043Y-11994976D02*
X11971043Y-11890214D01*
X11961519Y-11871167D01*
X11942471Y-11861643D01*
X11913900Y-11861643D01*
X11894852Y-11871167D01*
X11885328Y-11880690D01*
X12094852Y-11994976D02*
X12075805Y-11985452D01*
X12066281Y-11975928D01*
X12056757Y-11956881D01*
X12056757Y-11899738D01*
X12066281Y-11880690D01*
X12075805Y-11871167D01*
X12094852Y-11861643D01*
X12123424Y-11861643D01*
X12142471Y-11871167D01*
X12151995Y-11880690D01*
X12161519Y-11899738D01*
X12161519Y-11956881D01*
X12151995Y-11975928D01*
X12142471Y-11985452D01*
X12123424Y-11994976D01*
X12094852Y-11994976D01*
X12275805Y-11994976D02*
X12256757Y-11985452D01*
X12247233Y-11966405D01*
X12247233Y-11794976D01*
X12428186Y-11985452D02*
X12409138Y-11994976D01*
X12371043Y-11994976D01*
X12351995Y-11985452D01*
X12342471Y-11966405D01*
X12342471Y-11890214D01*
X12351995Y-11871167D01*
X12371043Y-11861643D01*
X12409138Y-11861643D01*
X12428186Y-11871167D01*
X12437709Y-11890214D01*
X12437709Y-11909262D01*
X12342471Y-11928309D01*
X12513900Y-11985452D02*
X12532948Y-11994976D01*
X12571043Y-11994976D01*
X12590090Y-11985452D01*
X12599614Y-11966405D01*
X12599614Y-11956881D01*
X12590090Y-11937833D01*
X12571043Y-11928309D01*
X12542471Y-11928309D01*
X12523424Y-11918786D01*
X12513900Y-11899738D01*
X12513900Y-11890214D01*
X12523424Y-11871167D01*
X12542471Y-11861643D01*
X12571043Y-11861643D01*
X12590090Y-11871167D01*
X12666281Y-12071167D02*
X12675805Y-12061643D01*
X12694852Y-12033071D01*
X12704376Y-12014024D01*
X12713900Y-11985452D01*
X12723424Y-11937833D01*
X12723424Y-11899738D01*
X12713900Y-11852119D01*
X12704376Y-11823548D01*
X12694852Y-11804500D01*
X12675805Y-11775928D01*
X12666281Y-11766405D01*
D14*
X7689393Y-12203523D02*
X7689393Y-12133477D01*
X7619347Y-12133477D01*
X7619347Y-12203523D01*
X7689393Y-12203523D01*
D11*
X7999614Y-12058976D02*
X8018662Y-12058976D01*
X8037709Y-12068500D01*
X8047233Y-12078024D01*
X8056757Y-12097071D01*
X8066281Y-12135167D01*
X8066281Y-12182786D01*
X8056757Y-12220881D01*
X8047233Y-12239928D01*
X8037709Y-12249452D01*
X8018662Y-12258976D01*
X7999614Y-12258976D01*
X7980567Y-12249452D01*
X7971043Y-12239928D01*
X7961519Y-12220881D01*
X7951995Y-12182786D01*
X7951995Y-12135167D01*
X7961519Y-12097071D01*
X7971043Y-12078024D01*
X7980567Y-12068500D01*
X7999614Y-12058976D01*
X8151995Y-12239928D02*
X8161519Y-12249452D01*
X8151995Y-12258976D01*
X8142471Y-12249452D01*
X8151995Y-12239928D01*
X8151995Y-12258976D01*
X8256757Y-12258976D02*
X8294852Y-12258976D01*
X8313900Y-12249452D01*
X8323424Y-12239928D01*
X8342471Y-12211357D01*
X8351995Y-12173262D01*
X8351995Y-12097071D01*
X8342471Y-12078024D01*
X8332948Y-12068500D01*
X8313900Y-12058976D01*
X8275805Y-12058976D01*
X8256757Y-12068500D01*
X8247233Y-12078024D01*
X8237709Y-12097071D01*
X8237709Y-12144690D01*
X8247233Y-12163738D01*
X8256757Y-12173262D01*
X8275805Y-12182786D01*
X8313900Y-12182786D01*
X8332948Y-12173262D01*
X8342471Y-12163738D01*
X8351995Y-12144690D01*
X8447233Y-12258976D02*
X8485329Y-12258976D01*
X8504376Y-12249452D01*
X8513900Y-12239928D01*
X8532948Y-12211357D01*
X8542471Y-12173262D01*
X8542471Y-12097071D01*
X8532948Y-12078024D01*
X8523424Y-12068500D01*
X8504376Y-12058976D01*
X8466281Y-12058976D01*
X8447233Y-12068500D01*
X8437710Y-12078024D01*
X8428186Y-12097071D01*
X8428186Y-12144690D01*
X8437710Y-12163738D01*
X8447233Y-12173262D01*
X8466281Y-12182786D01*
X8504376Y-12182786D01*
X8523424Y-12173262D01*
X8532948Y-12163738D01*
X8542471Y-12144690D01*
X8732948Y-12258976D02*
X8618662Y-12258976D01*
X8675805Y-12258976D02*
X8675805Y-12058976D01*
X8656757Y-12087548D01*
X8637710Y-12106595D01*
X8618662Y-12116119D01*
X8818662Y-12258976D02*
X8818662Y-12125643D01*
X8818662Y-12144690D02*
X8828186Y-12135167D01*
X8847233Y-12125643D01*
X8875805Y-12125643D01*
X8894852Y-12135167D01*
X8904376Y-12154214D01*
X8904376Y-12258976D01*
X8904376Y-12154214D02*
X8913900Y-12135167D01*
X8932948Y-12125643D01*
X8961519Y-12125643D01*
X8980567Y-12135167D01*
X8990090Y-12154214D01*
X8990090Y-12258976D01*
X9085329Y-12258976D02*
X9085329Y-12125643D01*
X9085329Y-12144690D02*
X9094852Y-12135167D01*
X9113900Y-12125643D01*
X9142471Y-12125643D01*
X9161519Y-12135167D01*
X9171043Y-12154214D01*
X9171043Y-12258976D01*
X9171043Y-12154214D02*
X9180567Y-12135167D01*
X9199614Y-12125643D01*
X9228186Y-12125643D01*
X9247233Y-12135167D01*
X9256757Y-12154214D01*
X9256757Y-12258976D01*
X9647233Y-12049452D02*
X9475805Y-12306595D01*
X9904376Y-12058976D02*
X9923424Y-12058976D01*
X9942471Y-12068500D01*
X9951995Y-12078024D01*
X9961519Y-12097071D01*
X9971043Y-12135167D01*
X9971043Y-12182786D01*
X9961519Y-12220881D01*
X9951995Y-12239928D01*
X9942471Y-12249452D01*
X9923424Y-12258976D01*
X9904376Y-12258976D01*
X9885329Y-12249452D01*
X9875805Y-12239928D01*
X9866281Y-12220881D01*
X9856757Y-12182786D01*
X9856757Y-12135167D01*
X9866281Y-12097071D01*
X9875805Y-12078024D01*
X9885329Y-12068500D01*
X9904376Y-12058976D01*
X10056757Y-12239928D02*
X10066281Y-12249452D01*
X10056757Y-12258976D01*
X10047233Y-12249452D01*
X10056757Y-12239928D01*
X10056757Y-12258976D01*
X10190090Y-12058976D02*
X10209138Y-12058976D01*
X10228186Y-12068500D01*
X10237710Y-12078024D01*
X10247233Y-12097071D01*
X10256757Y-12135167D01*
X10256757Y-12182786D01*
X10247233Y-12220881D01*
X10237710Y-12239928D01*
X10228186Y-12249452D01*
X10209138Y-12258976D01*
X10190090Y-12258976D01*
X10171043Y-12249452D01*
X10161519Y-12239928D01*
X10151995Y-12220881D01*
X10142471Y-12182786D01*
X10142471Y-12135167D01*
X10151995Y-12097071D01*
X10161519Y-12078024D01*
X10171043Y-12068500D01*
X10190090Y-12058976D01*
X10323424Y-12058976D02*
X10447233Y-12058976D01*
X10380567Y-12135167D01*
X10409138Y-12135167D01*
X10428186Y-12144690D01*
X10437710Y-12154214D01*
X10447233Y-12173262D01*
X10447233Y-12220881D01*
X10437710Y-12239928D01*
X10428186Y-12249452D01*
X10409138Y-12258976D01*
X10351995Y-12258976D01*
X10332948Y-12249452D01*
X10323424Y-12239928D01*
X10542471Y-12258976D02*
X10580567Y-12258976D01*
X10599614Y-12249452D01*
X10609138Y-12239928D01*
X10628186Y-12211357D01*
X10637710Y-12173262D01*
X10637710Y-12097071D01*
X10628186Y-12078024D01*
X10618662Y-12068500D01*
X10599614Y-12058976D01*
X10561519Y-12058976D01*
X10542471Y-12068500D01*
X10532948Y-12078024D01*
X10523424Y-12097071D01*
X10523424Y-12144690D01*
X10532948Y-12163738D01*
X10542471Y-12173262D01*
X10561519Y-12182786D01*
X10599614Y-12182786D01*
X10618662Y-12173262D01*
X10628186Y-12163738D01*
X10637710Y-12144690D01*
X10761519Y-12058976D02*
X10780567Y-12058976D01*
X10799614Y-12068500D01*
X10809138Y-12078024D01*
X10818662Y-12097071D01*
X10828186Y-12135167D01*
X10828186Y-12182786D01*
X10818662Y-12220881D01*
X10809138Y-12239928D01*
X10799614Y-12249452D01*
X10780567Y-12258976D01*
X10761519Y-12258976D01*
X10742471Y-12249452D01*
X10732948Y-12239928D01*
X10723424Y-12220881D01*
X10713900Y-12182786D01*
X10713900Y-12135167D01*
X10723424Y-12097071D01*
X10732948Y-12078024D01*
X10742471Y-12068500D01*
X10761519Y-12058976D01*
X10904376Y-12058976D02*
X10904376Y-12097071D01*
X10980567Y-12058976D02*
X10980567Y-12097071D01*
X11275805Y-12335167D02*
X11266281Y-12325643D01*
X11247233Y-12297071D01*
X11237709Y-12278024D01*
X11228186Y-12249452D01*
X11218662Y-12201833D01*
X11218662Y-12163738D01*
X11228186Y-12116119D01*
X11237709Y-12087548D01*
X11247233Y-12068500D01*
X11266281Y-12039928D01*
X11275805Y-12030405D01*
X11380567Y-12144690D02*
X11361519Y-12135167D01*
X11351995Y-12125643D01*
X11342471Y-12106595D01*
X11342471Y-12097071D01*
X11351995Y-12078024D01*
X11361519Y-12068500D01*
X11380567Y-12058976D01*
X11418662Y-12058976D01*
X11437709Y-12068500D01*
X11447233Y-12078024D01*
X11456757Y-12097071D01*
X11456757Y-12106595D01*
X11447233Y-12125643D01*
X11437709Y-12135167D01*
X11418662Y-12144690D01*
X11380567Y-12144690D01*
X11361519Y-12154214D01*
X11351995Y-12163738D01*
X11342471Y-12182786D01*
X11342471Y-12220881D01*
X11351995Y-12239928D01*
X11361519Y-12249452D01*
X11380567Y-12258976D01*
X11418662Y-12258976D01*
X11437709Y-12249452D01*
X11447233Y-12239928D01*
X11456757Y-12220881D01*
X11456757Y-12182786D01*
X11447233Y-12163738D01*
X11437709Y-12154214D01*
X11418662Y-12144690D01*
X11694852Y-12258976D02*
X11694852Y-12058976D01*
X11780567Y-12258976D02*
X11780567Y-12154214D01*
X11771043Y-12135167D01*
X11751995Y-12125643D01*
X11723424Y-12125643D01*
X11704376Y-12135167D01*
X11694852Y-12144690D01*
X11904376Y-12258976D02*
X11885328Y-12249452D01*
X11875805Y-12239928D01*
X11866281Y-12220881D01*
X11866281Y-12163738D01*
X11875805Y-12144690D01*
X11885328Y-12135167D01*
X11904376Y-12125643D01*
X11932948Y-12125643D01*
X11951995Y-12135167D01*
X11961519Y-12144690D01*
X11971043Y-12163738D01*
X11971043Y-12220881D01*
X11961519Y-12239928D01*
X11951995Y-12249452D01*
X11932948Y-12258976D01*
X11904376Y-12258976D01*
X12085328Y-12258976D02*
X12066281Y-12249452D01*
X12056757Y-12230405D01*
X12056757Y-12058976D01*
X12237709Y-12249452D02*
X12218662Y-12258976D01*
X12180567Y-12258976D01*
X12161519Y-12249452D01*
X12151995Y-12230405D01*
X12151995Y-12154214D01*
X12161519Y-12135167D01*
X12180567Y-12125643D01*
X12218662Y-12125643D01*
X12237709Y-12135167D01*
X12247233Y-12154214D01*
X12247233Y-12173262D01*
X12151995Y-12192309D01*
X12323424Y-12249452D02*
X12342471Y-12258976D01*
X12380567Y-12258976D01*
X12399614Y-12249452D01*
X12409138Y-12230405D01*
X12409138Y-12220881D01*
X12399614Y-12201833D01*
X12380567Y-12192309D01*
X12351995Y-12192309D01*
X12332948Y-12182786D01*
X12323424Y-12163738D01*
X12323424Y-12154214D01*
X12332948Y-12135167D01*
X12351995Y-12125643D01*
X12380567Y-12125643D01*
X12399614Y-12135167D01*
X12475805Y-12335167D02*
X12485328Y-12325643D01*
X12504376Y-12297071D01*
X12513900Y-12278024D01*
X12523424Y-12249452D01*
X12532948Y-12201833D01*
X12532948Y-12163738D01*
X12523424Y-12116119D01*
X12513900Y-12087548D01*
X12504376Y-12068500D01*
X12485328Y-12039928D01*
X12475805Y-12030405D01*
D10*
X7653900Y-12482500D02*
X7703900Y-12432500D01*
X7653900Y-12382500D01*
X7603900Y-12432500D01*
X7653900Y-12482500D01*
D11*
X8066281Y-12522976D02*
X7951995Y-12522976D01*
X8009138Y-12522976D02*
X8009138Y-12322976D01*
X7990090Y-12351548D01*
X7971043Y-12370595D01*
X7951995Y-12380119D01*
X8151995Y-12503928D02*
X8161519Y-12513452D01*
X8151995Y-12522976D01*
X8142471Y-12513452D01*
X8151995Y-12503928D01*
X8151995Y-12522976D01*
X8285328Y-12322976D02*
X8304376Y-12322976D01*
X8323424Y-12332500D01*
X8332948Y-12342024D01*
X8342471Y-12361071D01*
X8351995Y-12399167D01*
X8351995Y-12446786D01*
X8342471Y-12484881D01*
X8332948Y-12503928D01*
X8323424Y-12513452D01*
X8304376Y-12522976D01*
X8285328Y-12522976D01*
X8266281Y-12513452D01*
X8256757Y-12503928D01*
X8247233Y-12484881D01*
X8237709Y-12446786D01*
X8237709Y-12399167D01*
X8247233Y-12361071D01*
X8256757Y-12342024D01*
X8266281Y-12332500D01*
X8285328Y-12322976D01*
X8475805Y-12322976D02*
X8494852Y-12322976D01*
X8513900Y-12332500D01*
X8523424Y-12342024D01*
X8532948Y-12361071D01*
X8542471Y-12399167D01*
X8542471Y-12446786D01*
X8532948Y-12484881D01*
X8523424Y-12503928D01*
X8513900Y-12513452D01*
X8494852Y-12522976D01*
X8475805Y-12522976D01*
X8456757Y-12513452D01*
X8447233Y-12503928D01*
X8437710Y-12484881D01*
X8428186Y-12446786D01*
X8428186Y-12399167D01*
X8437710Y-12361071D01*
X8447233Y-12342024D01*
X8456757Y-12332500D01*
X8475805Y-12322976D01*
X8666281Y-12322976D02*
X8685329Y-12322976D01*
X8704376Y-12332500D01*
X8713900Y-12342024D01*
X8723424Y-12361071D01*
X8732948Y-12399167D01*
X8732948Y-12446786D01*
X8723424Y-12484881D01*
X8713900Y-12503928D01*
X8704376Y-12513452D01*
X8685329Y-12522976D01*
X8666281Y-12522976D01*
X8647233Y-12513452D01*
X8637710Y-12503928D01*
X8628186Y-12484881D01*
X8618662Y-12446786D01*
X8618662Y-12399167D01*
X8628186Y-12361071D01*
X8637710Y-12342024D01*
X8647233Y-12332500D01*
X8666281Y-12322976D01*
X8818662Y-12522976D02*
X8818662Y-12389643D01*
X8818662Y-12408690D02*
X8828186Y-12399167D01*
X8847233Y-12389643D01*
X8875805Y-12389643D01*
X8894852Y-12399167D01*
X8904376Y-12418214D01*
X8904376Y-12522976D01*
X8904376Y-12418214D02*
X8913900Y-12399167D01*
X8932948Y-12389643D01*
X8961519Y-12389643D01*
X8980567Y-12399167D01*
X8990090Y-12418214D01*
X8990090Y-12522976D01*
X9085329Y-12522976D02*
X9085329Y-12389643D01*
X9085329Y-12408690D02*
X9094852Y-12399167D01*
X9113900Y-12389643D01*
X9142471Y-12389643D01*
X9161519Y-12399167D01*
X9171043Y-12418214D01*
X9171043Y-12522976D01*
X9171043Y-12418214D02*
X9180567Y-12399167D01*
X9199614Y-12389643D01*
X9228186Y-12389643D01*
X9247233Y-12399167D01*
X9256757Y-12418214D01*
X9256757Y-12522976D01*
X9647233Y-12313452D02*
X9475805Y-12570595D01*
X9904376Y-12322976D02*
X9923424Y-12322976D01*
X9942471Y-12332500D01*
X9951995Y-12342024D01*
X9961519Y-12361071D01*
X9971043Y-12399167D01*
X9971043Y-12446786D01*
X9961519Y-12484881D01*
X9951995Y-12503928D01*
X9942471Y-12513452D01*
X9923424Y-12522976D01*
X9904376Y-12522976D01*
X9885329Y-12513452D01*
X9875805Y-12503928D01*
X9866281Y-12484881D01*
X9856757Y-12446786D01*
X9856757Y-12399167D01*
X9866281Y-12361071D01*
X9875805Y-12342024D01*
X9885329Y-12332500D01*
X9904376Y-12322976D01*
X10056757Y-12503928D02*
X10066281Y-12513452D01*
X10056757Y-12522976D01*
X10047233Y-12513452D01*
X10056757Y-12503928D01*
X10056757Y-12522976D01*
X10190090Y-12322976D02*
X10209138Y-12322976D01*
X10228186Y-12332500D01*
X10237710Y-12342024D01*
X10247233Y-12361071D01*
X10256757Y-12399167D01*
X10256757Y-12446786D01*
X10247233Y-12484881D01*
X10237710Y-12503928D01*
X10228186Y-12513452D01*
X10209138Y-12522976D01*
X10190090Y-12522976D01*
X10171043Y-12513452D01*
X10161519Y-12503928D01*
X10151995Y-12484881D01*
X10142471Y-12446786D01*
X10142471Y-12399167D01*
X10151995Y-12361071D01*
X10161519Y-12342024D01*
X10171043Y-12332500D01*
X10190090Y-12322976D01*
X10323424Y-12322976D02*
X10447233Y-12322976D01*
X10380567Y-12399167D01*
X10409138Y-12399167D01*
X10428186Y-12408690D01*
X10437710Y-12418214D01*
X10447233Y-12437262D01*
X10447233Y-12484881D01*
X10437710Y-12503928D01*
X10428186Y-12513452D01*
X10409138Y-12522976D01*
X10351995Y-12522976D01*
X10332948Y-12513452D01*
X10323424Y-12503928D01*
X10542471Y-12522976D02*
X10580567Y-12522976D01*
X10599614Y-12513452D01*
X10609138Y-12503928D01*
X10628186Y-12475357D01*
X10637710Y-12437262D01*
X10637710Y-12361071D01*
X10628186Y-12342024D01*
X10618662Y-12332500D01*
X10599614Y-12322976D01*
X10561519Y-12322976D01*
X10542471Y-12332500D01*
X10532948Y-12342024D01*
X10523424Y-12361071D01*
X10523424Y-12408690D01*
X10532948Y-12427738D01*
X10542471Y-12437262D01*
X10561519Y-12446786D01*
X10599614Y-12446786D01*
X10618662Y-12437262D01*
X10628186Y-12427738D01*
X10637710Y-12408690D01*
X10809138Y-12389643D02*
X10809138Y-12522976D01*
X10761519Y-12313452D02*
X10713900Y-12456309D01*
X10837710Y-12456309D01*
X10904376Y-12322976D02*
X10904376Y-12361071D01*
X10980567Y-12322976D02*
X10980567Y-12361071D01*
X11275805Y-12599167D02*
X11266281Y-12589643D01*
X11247233Y-12561071D01*
X11237709Y-12542024D01*
X11228186Y-12513452D01*
X11218662Y-12465833D01*
X11218662Y-12427738D01*
X11228186Y-12380119D01*
X11237709Y-12351548D01*
X11247233Y-12332500D01*
X11266281Y-12303928D01*
X11275805Y-12294405D01*
X11380567Y-12408690D02*
X11361519Y-12399167D01*
X11351995Y-12389643D01*
X11342471Y-12370595D01*
X11342471Y-12361071D01*
X11351995Y-12342024D01*
X11361519Y-12332500D01*
X11380567Y-12322976D01*
X11418662Y-12322976D01*
X11437709Y-12332500D01*
X11447233Y-12342024D01*
X11456757Y-12361071D01*
X11456757Y-12370595D01*
X11447233Y-12389643D01*
X11437709Y-12399167D01*
X11418662Y-12408690D01*
X11380567Y-12408690D01*
X11361519Y-12418214D01*
X11351995Y-12427738D01*
X11342471Y-12446786D01*
X11342471Y-12484881D01*
X11351995Y-12503928D01*
X11361519Y-12513452D01*
X11380567Y-12522976D01*
X11418662Y-12522976D01*
X11437709Y-12513452D01*
X11447233Y-12503928D01*
X11456757Y-12484881D01*
X11456757Y-12446786D01*
X11447233Y-12427738D01*
X11437709Y-12418214D01*
X11418662Y-12408690D01*
X11694852Y-12522976D02*
X11694852Y-12322976D01*
X11780567Y-12522976D02*
X11780567Y-12418214D01*
X11771043Y-12399167D01*
X11751995Y-12389643D01*
X11723424Y-12389643D01*
X11704376Y-12399167D01*
X11694852Y-12408690D01*
X11904376Y-12522976D02*
X11885328Y-12513452D01*
X11875805Y-12503928D01*
X11866281Y-12484881D01*
X11866281Y-12427738D01*
X11875805Y-12408690D01*
X11885328Y-12399167D01*
X11904376Y-12389643D01*
X11932948Y-12389643D01*
X11951995Y-12399167D01*
X11961519Y-12408690D01*
X11971043Y-12427738D01*
X11971043Y-12484881D01*
X11961519Y-12503928D01*
X11951995Y-12513452D01*
X11932948Y-12522976D01*
X11904376Y-12522976D01*
X12085328Y-12522976D02*
X12066281Y-12513452D01*
X12056757Y-12494405D01*
X12056757Y-12322976D01*
X12237709Y-12513452D02*
X12218662Y-12522976D01*
X12180567Y-12522976D01*
X12161519Y-12513452D01*
X12151995Y-12494405D01*
X12151995Y-12418214D01*
X12161519Y-12399167D01*
X12180567Y-12389643D01*
X12218662Y-12389643D01*
X12237709Y-12399167D01*
X12247233Y-12418214D01*
X12247233Y-12437262D01*
X12151995Y-12456309D01*
X12323424Y-12513452D02*
X12342471Y-12522976D01*
X12380567Y-12522976D01*
X12399614Y-12513452D01*
X12409138Y-12494405D01*
X12409138Y-12484881D01*
X12399614Y-12465833D01*
X12380567Y-12456309D01*
X12351995Y-12456309D01*
X12332948Y-12446786D01*
X12323424Y-12427738D01*
X12323424Y-12418214D01*
X12332948Y-12399167D01*
X12351995Y-12389643D01*
X12380567Y-12389643D01*
X12399614Y-12399167D01*
X12475805Y-12599167D02*
X12485328Y-12589643D01*
X12504376Y-12561071D01*
X12513900Y-12542024D01*
X12523424Y-12513452D01*
X12532948Y-12465833D01*
X12532948Y-12427738D01*
X12523424Y-12380119D01*
X12513900Y-12351548D01*
X12504376Y-12332500D01*
X12485328Y-12303928D01*
X12475805Y-12294405D01*
D15*
X7593900Y-12641500D02*
X7703900Y-12751500D01*
X7703900Y-12641500D02*
X7593900Y-12751500D01*
X7703900Y-12696500D02*
G75*
G03*
X7703900Y-12696500I-55000J0D01*
G01*
D11*
X8066281Y-12786976D02*
X7951995Y-12786976D01*
X8009138Y-12786976D02*
X8009138Y-12586976D01*
X7990090Y-12615548D01*
X7971043Y-12634595D01*
X7951995Y-12644119D01*
X8151995Y-12767928D02*
X8161519Y-12777452D01*
X8151995Y-12786976D01*
X8142471Y-12777452D01*
X8151995Y-12767928D01*
X8151995Y-12786976D01*
X8351995Y-12786976D02*
X8237709Y-12786976D01*
X8294852Y-12786976D02*
X8294852Y-12586976D01*
X8275805Y-12615548D01*
X8256757Y-12634595D01*
X8237709Y-12644119D01*
X8475805Y-12586976D02*
X8494852Y-12586976D01*
X8513900Y-12596500D01*
X8523424Y-12606024D01*
X8532948Y-12625071D01*
X8542471Y-12663167D01*
X8542471Y-12710786D01*
X8532948Y-12748881D01*
X8523424Y-12767928D01*
X8513900Y-12777452D01*
X8494852Y-12786976D01*
X8475805Y-12786976D01*
X8456757Y-12777452D01*
X8447233Y-12767928D01*
X8437710Y-12748881D01*
X8428186Y-12710786D01*
X8428186Y-12663167D01*
X8437710Y-12625071D01*
X8447233Y-12606024D01*
X8456757Y-12596500D01*
X8475805Y-12586976D01*
X8666281Y-12586976D02*
X8685329Y-12586976D01*
X8704376Y-12596500D01*
X8713900Y-12606024D01*
X8723424Y-12625071D01*
X8732948Y-12663167D01*
X8732948Y-12710786D01*
X8723424Y-12748881D01*
X8713900Y-12767928D01*
X8704376Y-12777452D01*
X8685329Y-12786976D01*
X8666281Y-12786976D01*
X8647233Y-12777452D01*
X8637710Y-12767928D01*
X8628186Y-12748881D01*
X8618662Y-12710786D01*
X8618662Y-12663167D01*
X8628186Y-12625071D01*
X8637710Y-12606024D01*
X8647233Y-12596500D01*
X8666281Y-12586976D01*
X8818662Y-12786976D02*
X8818662Y-12653643D01*
X8818662Y-12672690D02*
X8828186Y-12663167D01*
X8847233Y-12653643D01*
X8875805Y-12653643D01*
X8894852Y-12663167D01*
X8904376Y-12682214D01*
X8904376Y-12786976D01*
X8904376Y-12682214D02*
X8913900Y-12663167D01*
X8932948Y-12653643D01*
X8961519Y-12653643D01*
X8980567Y-12663167D01*
X8990090Y-12682214D01*
X8990090Y-12786976D01*
X9085329Y-12786976D02*
X9085329Y-12653643D01*
X9085329Y-12672690D02*
X9094852Y-12663167D01*
X9113900Y-12653643D01*
X9142471Y-12653643D01*
X9161519Y-12663167D01*
X9171043Y-12682214D01*
X9171043Y-12786976D01*
X9171043Y-12682214D02*
X9180567Y-12663167D01*
X9199614Y-12653643D01*
X9228186Y-12653643D01*
X9247233Y-12663167D01*
X9256757Y-12682214D01*
X9256757Y-12786976D01*
X9647233Y-12577452D02*
X9475805Y-12834595D01*
X9904376Y-12586976D02*
X9923424Y-12586976D01*
X9942471Y-12596500D01*
X9951995Y-12606024D01*
X9961519Y-12625071D01*
X9971043Y-12663167D01*
X9971043Y-12710786D01*
X9961519Y-12748881D01*
X9951995Y-12767928D01*
X9942471Y-12777452D01*
X9923424Y-12786976D01*
X9904376Y-12786976D01*
X9885329Y-12777452D01*
X9875805Y-12767928D01*
X9866281Y-12748881D01*
X9856757Y-12710786D01*
X9856757Y-12663167D01*
X9866281Y-12625071D01*
X9875805Y-12606024D01*
X9885329Y-12596500D01*
X9904376Y-12586976D01*
X10056757Y-12767928D02*
X10066281Y-12777452D01*
X10056757Y-12786976D01*
X10047233Y-12777452D01*
X10056757Y-12767928D01*
X10056757Y-12786976D01*
X10190090Y-12586976D02*
X10209138Y-12586976D01*
X10228186Y-12596500D01*
X10237710Y-12606024D01*
X10247233Y-12625071D01*
X10256757Y-12663167D01*
X10256757Y-12710786D01*
X10247233Y-12748881D01*
X10237710Y-12767928D01*
X10228186Y-12777452D01*
X10209138Y-12786976D01*
X10190090Y-12786976D01*
X10171043Y-12777452D01*
X10161519Y-12767928D01*
X10151995Y-12748881D01*
X10142471Y-12710786D01*
X10142471Y-12663167D01*
X10151995Y-12625071D01*
X10161519Y-12606024D01*
X10171043Y-12596500D01*
X10190090Y-12586976D01*
X10428186Y-12653643D02*
X10428186Y-12786976D01*
X10380567Y-12577452D02*
X10332948Y-12720309D01*
X10456757Y-12720309D01*
X10513900Y-12586976D02*
X10637710Y-12586976D01*
X10571043Y-12663167D01*
X10599614Y-12663167D01*
X10618662Y-12672690D01*
X10628186Y-12682214D01*
X10637710Y-12701262D01*
X10637710Y-12748881D01*
X10628186Y-12767928D01*
X10618662Y-12777452D01*
X10599614Y-12786976D01*
X10542471Y-12786976D01*
X10523424Y-12777452D01*
X10513900Y-12767928D01*
X10704376Y-12586976D02*
X10828186Y-12586976D01*
X10761519Y-12663167D01*
X10790090Y-12663167D01*
X10809138Y-12672690D01*
X10818662Y-12682214D01*
X10828186Y-12701262D01*
X10828186Y-12748881D01*
X10818662Y-12767928D01*
X10809138Y-12777452D01*
X10790090Y-12786976D01*
X10732948Y-12786976D01*
X10713900Y-12777452D01*
X10704376Y-12767928D01*
X10904376Y-12586976D02*
X10904376Y-12625071D01*
X10980567Y-12586976D02*
X10980567Y-12625071D01*
X11275805Y-12863167D02*
X11266281Y-12853643D01*
X11247233Y-12825071D01*
X11237709Y-12806024D01*
X11228186Y-12777452D01*
X11218662Y-12729833D01*
X11218662Y-12691738D01*
X11228186Y-12644119D01*
X11237709Y-12615548D01*
X11247233Y-12596500D01*
X11266281Y-12567928D01*
X11275805Y-12558405D01*
X11332948Y-12586976D02*
X11456757Y-12586976D01*
X11390090Y-12663167D01*
X11418662Y-12663167D01*
X11437709Y-12672690D01*
X11447233Y-12682214D01*
X11456757Y-12701262D01*
X11456757Y-12748881D01*
X11447233Y-12767928D01*
X11437709Y-12777452D01*
X11418662Y-12786976D01*
X11361519Y-12786976D01*
X11342471Y-12777452D01*
X11332948Y-12767928D01*
X11694852Y-12786976D02*
X11694852Y-12586976D01*
X11780567Y-12786976D02*
X11780567Y-12682214D01*
X11771043Y-12663167D01*
X11751995Y-12653643D01*
X11723424Y-12653643D01*
X11704376Y-12663167D01*
X11694852Y-12672690D01*
X11904376Y-12786976D02*
X11885328Y-12777452D01*
X11875805Y-12767928D01*
X11866281Y-12748881D01*
X11866281Y-12691738D01*
X11875805Y-12672690D01*
X11885328Y-12663167D01*
X11904376Y-12653643D01*
X11932948Y-12653643D01*
X11951995Y-12663167D01*
X11961519Y-12672690D01*
X11971043Y-12691738D01*
X11971043Y-12748881D01*
X11961519Y-12767928D01*
X11951995Y-12777452D01*
X11932948Y-12786976D01*
X11904376Y-12786976D01*
X12085328Y-12786976D02*
X12066281Y-12777452D01*
X12056757Y-12758405D01*
X12056757Y-12586976D01*
X12237709Y-12777452D02*
X12218662Y-12786976D01*
X12180567Y-12786976D01*
X12161519Y-12777452D01*
X12151995Y-12758405D01*
X12151995Y-12682214D01*
X12161519Y-12663167D01*
X12180567Y-12653643D01*
X12218662Y-12653643D01*
X12237709Y-12663167D01*
X12247233Y-12682214D01*
X12247233Y-12701262D01*
X12151995Y-12720309D01*
X12323424Y-12777452D02*
X12342471Y-12786976D01*
X12380567Y-12786976D01*
X12399614Y-12777452D01*
X12409138Y-12758405D01*
X12409138Y-12748881D01*
X12399614Y-12729833D01*
X12380567Y-12720309D01*
X12351995Y-12720309D01*
X12332948Y-12710786D01*
X12323424Y-12691738D01*
X12323424Y-12682214D01*
X12332948Y-12663167D01*
X12351995Y-12653643D01*
X12380567Y-12653643D01*
X12399614Y-12663167D01*
X12475805Y-12863167D02*
X12485328Y-12853643D01*
X12504376Y-12825071D01*
X12513900Y-12806024D01*
X12523424Y-12777452D01*
X12532948Y-12729833D01*
X12532948Y-12691738D01*
X12523424Y-12644119D01*
X12513900Y-12615548D01*
X12504376Y-12596500D01*
X12485328Y-12567928D01*
X12475805Y-12558405D01*
D16*
X7583900Y-12900500D02*
X7703900Y-13020500D01*
X7703900Y-12900500D02*
X7583900Y-13020500D01*
X7643900Y-12900500D02*
X7643900Y-13020500D01*
X7583900Y-12960500D02*
X7703900Y-12960500D01*
D11*
X8066281Y-13050976D02*
X7951995Y-13050976D01*
X8009138Y-13050976D02*
X8009138Y-12850976D01*
X7990090Y-12879548D01*
X7971043Y-12898595D01*
X7951995Y-12908119D01*
X8151995Y-13031928D02*
X8161519Y-13041452D01*
X8151995Y-13050976D01*
X8142471Y-13041452D01*
X8151995Y-13031928D01*
X8151995Y-13050976D01*
X8237709Y-12870024D02*
X8247233Y-12860500D01*
X8266281Y-12850976D01*
X8313900Y-12850976D01*
X8332948Y-12860500D01*
X8342471Y-12870024D01*
X8351995Y-12889071D01*
X8351995Y-12908119D01*
X8342471Y-12936690D01*
X8228186Y-13050976D01*
X8351995Y-13050976D01*
X8475805Y-12850976D02*
X8494852Y-12850976D01*
X8513900Y-12860500D01*
X8523424Y-12870024D01*
X8532948Y-12889071D01*
X8542471Y-12927167D01*
X8542471Y-12974786D01*
X8532948Y-13012881D01*
X8523424Y-13031928D01*
X8513900Y-13041452D01*
X8494852Y-13050976D01*
X8475805Y-13050976D01*
X8456757Y-13041452D01*
X8447233Y-13031928D01*
X8437710Y-13012881D01*
X8428186Y-12974786D01*
X8428186Y-12927167D01*
X8437710Y-12889071D01*
X8447233Y-12870024D01*
X8456757Y-12860500D01*
X8475805Y-12850976D01*
X8666281Y-12850976D02*
X8685329Y-12850976D01*
X8704376Y-12860500D01*
X8713900Y-12870024D01*
X8723424Y-12889071D01*
X8732948Y-12927167D01*
X8732948Y-12974786D01*
X8723424Y-13012881D01*
X8713900Y-13031928D01*
X8704376Y-13041452D01*
X8685329Y-13050976D01*
X8666281Y-13050976D01*
X8647233Y-13041452D01*
X8637710Y-13031928D01*
X8628186Y-13012881D01*
X8618662Y-12974786D01*
X8618662Y-12927167D01*
X8628186Y-12889071D01*
X8637710Y-12870024D01*
X8647233Y-12860500D01*
X8666281Y-12850976D01*
X8818662Y-13050976D02*
X8818662Y-12917643D01*
X8818662Y-12936690D02*
X8828186Y-12927167D01*
X8847233Y-12917643D01*
X8875805Y-12917643D01*
X8894852Y-12927167D01*
X8904376Y-12946214D01*
X8904376Y-13050976D01*
X8904376Y-12946214D02*
X8913900Y-12927167D01*
X8932948Y-12917643D01*
X8961519Y-12917643D01*
X8980567Y-12927167D01*
X8990090Y-12946214D01*
X8990090Y-13050976D01*
X9085329Y-13050976D02*
X9085329Y-12917643D01*
X9085329Y-12936690D02*
X9094852Y-12927167D01*
X9113900Y-12917643D01*
X9142471Y-12917643D01*
X9161519Y-12927167D01*
X9171043Y-12946214D01*
X9171043Y-13050976D01*
X9171043Y-12946214D02*
X9180567Y-12927167D01*
X9199614Y-12917643D01*
X9228186Y-12917643D01*
X9247233Y-12927167D01*
X9256757Y-12946214D01*
X9256757Y-13050976D01*
X9647233Y-12841452D02*
X9475805Y-13098595D01*
X9904376Y-12850976D02*
X9923424Y-12850976D01*
X9942471Y-12860500D01*
X9951995Y-12870024D01*
X9961519Y-12889071D01*
X9971043Y-12927167D01*
X9971043Y-12974786D01*
X9961519Y-13012881D01*
X9951995Y-13031928D01*
X9942471Y-13041452D01*
X9923424Y-13050976D01*
X9904376Y-13050976D01*
X9885329Y-13041452D01*
X9875805Y-13031928D01*
X9866281Y-13012881D01*
X9856757Y-12974786D01*
X9856757Y-12927167D01*
X9866281Y-12889071D01*
X9875805Y-12870024D01*
X9885329Y-12860500D01*
X9904376Y-12850976D01*
X10056757Y-13031928D02*
X10066281Y-13041452D01*
X10056757Y-13050976D01*
X10047233Y-13041452D01*
X10056757Y-13031928D01*
X10056757Y-13050976D01*
X10190090Y-12850976D02*
X10209138Y-12850976D01*
X10228186Y-12860500D01*
X10237710Y-12870024D01*
X10247233Y-12889071D01*
X10256757Y-12927167D01*
X10256757Y-12974786D01*
X10247233Y-13012881D01*
X10237710Y-13031928D01*
X10228186Y-13041452D01*
X10209138Y-13050976D01*
X10190090Y-13050976D01*
X10171043Y-13041452D01*
X10161519Y-13031928D01*
X10151995Y-13012881D01*
X10142471Y-12974786D01*
X10142471Y-12927167D01*
X10151995Y-12889071D01*
X10161519Y-12870024D01*
X10171043Y-12860500D01*
X10190090Y-12850976D01*
X10428186Y-12917643D02*
X10428186Y-13050976D01*
X10380567Y-12841452D02*
X10332948Y-12984309D01*
X10456757Y-12984309D01*
X10513900Y-12850976D02*
X10647233Y-12850976D01*
X10561519Y-13050976D01*
X10713900Y-12870024D02*
X10723424Y-12860500D01*
X10742471Y-12850976D01*
X10790090Y-12850976D01*
X10809138Y-12860500D01*
X10818662Y-12870024D01*
X10828186Y-12889071D01*
X10828186Y-12908119D01*
X10818662Y-12936690D01*
X10704376Y-13050976D01*
X10828186Y-13050976D01*
X10904376Y-12850976D02*
X10904376Y-12889071D01*
X10980567Y-12850976D02*
X10980567Y-12889071D01*
X11275805Y-13127167D02*
X11266281Y-13117643D01*
X11247233Y-13089071D01*
X11237709Y-13070024D01*
X11228186Y-13041452D01*
X11218662Y-12993833D01*
X11218662Y-12955738D01*
X11228186Y-12908119D01*
X11237709Y-12879548D01*
X11247233Y-12860500D01*
X11266281Y-12831928D01*
X11275805Y-12822405D01*
X11456757Y-13050976D02*
X11342471Y-13050976D01*
X11399614Y-13050976D02*
X11399614Y-12850976D01*
X11380567Y-12879548D01*
X11361519Y-12898595D01*
X11342471Y-12908119D01*
X11571043Y-12936690D02*
X11551995Y-12927167D01*
X11542471Y-12917643D01*
X11532948Y-12898595D01*
X11532948Y-12889071D01*
X11542471Y-12870024D01*
X11551995Y-12860500D01*
X11571043Y-12850976D01*
X11609138Y-12850976D01*
X11628186Y-12860500D01*
X11637709Y-12870024D01*
X11647233Y-12889071D01*
X11647233Y-12898595D01*
X11637709Y-12917643D01*
X11628186Y-12927167D01*
X11609138Y-12936690D01*
X11571043Y-12936690D01*
X11551995Y-12946214D01*
X11542471Y-12955738D01*
X11532948Y-12974786D01*
X11532948Y-13012881D01*
X11542471Y-13031928D01*
X11551995Y-13041452D01*
X11571043Y-13050976D01*
X11609138Y-13050976D01*
X11628186Y-13041452D01*
X11637709Y-13031928D01*
X11647233Y-13012881D01*
X11647233Y-12974786D01*
X11637709Y-12955738D01*
X11628186Y-12946214D01*
X11609138Y-12936690D01*
X11885328Y-13050976D02*
X11885328Y-12850976D01*
X11971043Y-13050976D02*
X11971043Y-12946214D01*
X11961519Y-12927167D01*
X11942471Y-12917643D01*
X11913900Y-12917643D01*
X11894852Y-12927167D01*
X11885328Y-12936690D01*
X12094852Y-13050976D02*
X12075805Y-13041452D01*
X12066281Y-13031928D01*
X12056757Y-13012881D01*
X12056757Y-12955738D01*
X12066281Y-12936690D01*
X12075805Y-12927167D01*
X12094852Y-12917643D01*
X12123424Y-12917643D01*
X12142471Y-12927167D01*
X12151995Y-12936690D01*
X12161519Y-12955738D01*
X12161519Y-13012881D01*
X12151995Y-13031928D01*
X12142471Y-13041452D01*
X12123424Y-13050976D01*
X12094852Y-13050976D01*
X12275805Y-13050976D02*
X12256757Y-13041452D01*
X12247233Y-13022405D01*
X12247233Y-12850976D01*
X12428186Y-13041452D02*
X12409138Y-13050976D01*
X12371043Y-13050976D01*
X12351995Y-13041452D01*
X12342471Y-13022405D01*
X12342471Y-12946214D01*
X12351995Y-12927167D01*
X12371043Y-12917643D01*
X12409138Y-12917643D01*
X12428186Y-12927167D01*
X12437709Y-12946214D01*
X12437709Y-12965262D01*
X12342471Y-12984309D01*
X12513900Y-13041452D02*
X12532948Y-13050976D01*
X12571043Y-13050976D01*
X12590090Y-13041452D01*
X12599614Y-13022405D01*
X12599614Y-13012881D01*
X12590090Y-12993833D01*
X12571043Y-12984309D01*
X12542471Y-12984309D01*
X12523424Y-12974786D01*
X12513900Y-12955738D01*
X12513900Y-12946214D01*
X12523424Y-12927167D01*
X12542471Y-12917643D01*
X12571043Y-12917643D01*
X12590090Y-12927167D01*
X12666281Y-13127167D02*
X12675805Y-13117643D01*
X12694852Y-13089071D01*
X12704376Y-13070024D01*
X12713900Y-13041452D01*
X12723424Y-12993833D01*
X12723424Y-12955738D01*
X12713900Y-12908119D01*
X12704376Y-12879548D01*
X12694852Y-12860500D01*
X12675805Y-12831928D01*
X12666281Y-12822405D01*
D17*
X7573900Y-13159500D02*
X7703900Y-13289500D01*
X7703900Y-13159500D02*
X7573900Y-13289500D01*
X7684862Y-13270462D02*
X7684862Y-13178538D01*
X7592938Y-13178538D01*
X7592938Y-13270462D01*
X7684862Y-13270462D01*
D11*
X8066281Y-13314976D02*
X7951995Y-13314976D01*
X8009138Y-13314976D02*
X8009138Y-13114976D01*
X7990090Y-13143548D01*
X7971043Y-13162595D01*
X7951995Y-13172119D01*
X8151995Y-13295928D02*
X8161519Y-13305452D01*
X8151995Y-13314976D01*
X8142471Y-13305452D01*
X8151995Y-13295928D01*
X8151995Y-13314976D01*
X8228186Y-13114976D02*
X8351995Y-13114976D01*
X8285328Y-13191167D01*
X8313900Y-13191167D01*
X8332948Y-13200690D01*
X8342471Y-13210214D01*
X8351995Y-13229262D01*
X8351995Y-13276881D01*
X8342471Y-13295928D01*
X8332948Y-13305452D01*
X8313900Y-13314976D01*
X8256757Y-13314976D01*
X8237709Y-13305452D01*
X8228186Y-13295928D01*
X8475805Y-13114976D02*
X8494852Y-13114976D01*
X8513900Y-13124500D01*
X8523424Y-13134024D01*
X8532948Y-13153071D01*
X8542471Y-13191167D01*
X8542471Y-13238786D01*
X8532948Y-13276881D01*
X8523424Y-13295928D01*
X8513900Y-13305452D01*
X8494852Y-13314976D01*
X8475805Y-13314976D01*
X8456757Y-13305452D01*
X8447233Y-13295928D01*
X8437710Y-13276881D01*
X8428186Y-13238786D01*
X8428186Y-13191167D01*
X8437710Y-13153071D01*
X8447233Y-13134024D01*
X8456757Y-13124500D01*
X8475805Y-13114976D01*
X8666281Y-13114976D02*
X8685329Y-13114976D01*
X8704376Y-13124500D01*
X8713900Y-13134024D01*
X8723424Y-13153071D01*
X8732948Y-13191167D01*
X8732948Y-13238786D01*
X8723424Y-13276881D01*
X8713900Y-13295928D01*
X8704376Y-13305452D01*
X8685329Y-13314976D01*
X8666281Y-13314976D01*
X8647233Y-13305452D01*
X8637710Y-13295928D01*
X8628186Y-13276881D01*
X8618662Y-13238786D01*
X8618662Y-13191167D01*
X8628186Y-13153071D01*
X8637710Y-13134024D01*
X8647233Y-13124500D01*
X8666281Y-13114976D01*
X8818662Y-13314976D02*
X8818662Y-13181643D01*
X8818662Y-13200690D02*
X8828186Y-13191167D01*
X8847233Y-13181643D01*
X8875805Y-13181643D01*
X8894852Y-13191167D01*
X8904376Y-13210214D01*
X8904376Y-13314976D01*
X8904376Y-13210214D02*
X8913900Y-13191167D01*
X8932948Y-13181643D01*
X8961519Y-13181643D01*
X8980567Y-13191167D01*
X8990090Y-13210214D01*
X8990090Y-13314976D01*
X9085329Y-13314976D02*
X9085329Y-13181643D01*
X9085329Y-13200690D02*
X9094852Y-13191167D01*
X9113900Y-13181643D01*
X9142471Y-13181643D01*
X9161519Y-13191167D01*
X9171043Y-13210214D01*
X9171043Y-13314976D01*
X9171043Y-13210214D02*
X9180567Y-13191167D01*
X9199614Y-13181643D01*
X9228186Y-13181643D01*
X9247233Y-13191167D01*
X9256757Y-13210214D01*
X9256757Y-13314976D01*
X9647233Y-13105452D02*
X9475805Y-13362595D01*
X9904376Y-13114976D02*
X9923424Y-13114976D01*
X9942471Y-13124500D01*
X9951995Y-13134024D01*
X9961519Y-13153071D01*
X9971043Y-13191167D01*
X9971043Y-13238786D01*
X9961519Y-13276881D01*
X9951995Y-13295928D01*
X9942471Y-13305452D01*
X9923424Y-13314976D01*
X9904376Y-13314976D01*
X9885329Y-13305452D01*
X9875805Y-13295928D01*
X9866281Y-13276881D01*
X9856757Y-13238786D01*
X9856757Y-13191167D01*
X9866281Y-13153071D01*
X9875805Y-13134024D01*
X9885329Y-13124500D01*
X9904376Y-13114976D01*
X10056757Y-13295928D02*
X10066281Y-13305452D01*
X10056757Y-13314976D01*
X10047233Y-13305452D01*
X10056757Y-13295928D01*
X10056757Y-13314976D01*
X10190090Y-13114976D02*
X10209138Y-13114976D01*
X10228186Y-13124500D01*
X10237710Y-13134024D01*
X10247233Y-13153071D01*
X10256757Y-13191167D01*
X10256757Y-13238786D01*
X10247233Y-13276881D01*
X10237710Y-13295928D01*
X10228186Y-13305452D01*
X10209138Y-13314976D01*
X10190090Y-13314976D01*
X10171043Y-13305452D01*
X10161519Y-13295928D01*
X10151995Y-13276881D01*
X10142471Y-13238786D01*
X10142471Y-13191167D01*
X10151995Y-13153071D01*
X10161519Y-13134024D01*
X10171043Y-13124500D01*
X10190090Y-13114976D01*
X10437710Y-13114976D02*
X10342471Y-13114976D01*
X10332948Y-13210214D01*
X10342471Y-13200690D01*
X10361519Y-13191167D01*
X10409138Y-13191167D01*
X10428186Y-13200690D01*
X10437710Y-13210214D01*
X10447233Y-13229262D01*
X10447233Y-13276881D01*
X10437710Y-13295928D01*
X10428186Y-13305452D01*
X10409138Y-13314976D01*
X10361519Y-13314976D01*
X10342471Y-13305452D01*
X10332948Y-13295928D01*
X10637710Y-13314976D02*
X10523424Y-13314976D01*
X10580567Y-13314976D02*
X10580567Y-13114976D01*
X10561519Y-13143548D01*
X10542471Y-13162595D01*
X10523424Y-13172119D01*
X10713900Y-13134024D02*
X10723424Y-13124500D01*
X10742471Y-13114976D01*
X10790090Y-13114976D01*
X10809138Y-13124500D01*
X10818662Y-13134024D01*
X10828186Y-13153071D01*
X10828186Y-13172119D01*
X10818662Y-13200690D01*
X10704376Y-13314976D01*
X10828186Y-13314976D01*
X10904376Y-13114976D02*
X10904376Y-13153071D01*
X10980567Y-13114976D02*
X10980567Y-13153071D01*
X11275805Y-13391167D02*
X11266281Y-13381643D01*
X11247233Y-13353071D01*
X11237709Y-13334024D01*
X11228186Y-13305452D01*
X11218662Y-13257833D01*
X11218662Y-13219738D01*
X11228186Y-13172119D01*
X11237709Y-13143548D01*
X11247233Y-13124500D01*
X11266281Y-13095928D01*
X11275805Y-13086405D01*
X11380567Y-13200690D02*
X11361519Y-13191167D01*
X11351995Y-13181643D01*
X11342471Y-13162595D01*
X11342471Y-13153071D01*
X11351995Y-13134024D01*
X11361519Y-13124500D01*
X11380567Y-13114976D01*
X11418662Y-13114976D01*
X11437709Y-13124500D01*
X11447233Y-13134024D01*
X11456757Y-13153071D01*
X11456757Y-13162595D01*
X11447233Y-13181643D01*
X11437709Y-13191167D01*
X11418662Y-13200690D01*
X11380567Y-13200690D01*
X11361519Y-13210214D01*
X11351995Y-13219738D01*
X11342471Y-13238786D01*
X11342471Y-13276881D01*
X11351995Y-13295928D01*
X11361519Y-13305452D01*
X11380567Y-13314976D01*
X11418662Y-13314976D01*
X11437709Y-13305452D01*
X11447233Y-13295928D01*
X11456757Y-13276881D01*
X11456757Y-13238786D01*
X11447233Y-13219738D01*
X11437709Y-13210214D01*
X11418662Y-13200690D01*
X11694852Y-13314976D02*
X11694852Y-13114976D01*
X11780567Y-13314976D02*
X11780567Y-13210214D01*
X11771043Y-13191167D01*
X11751995Y-13181643D01*
X11723424Y-13181643D01*
X11704376Y-13191167D01*
X11694852Y-13200690D01*
X11904376Y-13314976D02*
X11885328Y-13305452D01*
X11875805Y-13295928D01*
X11866281Y-13276881D01*
X11866281Y-13219738D01*
X11875805Y-13200690D01*
X11885328Y-13191167D01*
X11904376Y-13181643D01*
X11932948Y-13181643D01*
X11951995Y-13191167D01*
X11961519Y-13200690D01*
X11971043Y-13219738D01*
X11971043Y-13276881D01*
X11961519Y-13295928D01*
X11951995Y-13305452D01*
X11932948Y-13314976D01*
X11904376Y-13314976D01*
X12085328Y-13314976D02*
X12066281Y-13305452D01*
X12056757Y-13286405D01*
X12056757Y-13114976D01*
X12237709Y-13305452D02*
X12218662Y-13314976D01*
X12180567Y-13314976D01*
X12161519Y-13305452D01*
X12151995Y-13286405D01*
X12151995Y-13210214D01*
X12161519Y-13191167D01*
X12180567Y-13181643D01*
X12218662Y-13181643D01*
X12237709Y-13191167D01*
X12247233Y-13210214D01*
X12247233Y-13229262D01*
X12151995Y-13248309D01*
X12323424Y-13305452D02*
X12342471Y-13314976D01*
X12380567Y-13314976D01*
X12399614Y-13305452D01*
X12409138Y-13286405D01*
X12409138Y-13276881D01*
X12399614Y-13257833D01*
X12380567Y-13248309D01*
X12351995Y-13248309D01*
X12332948Y-13238786D01*
X12323424Y-13219738D01*
X12323424Y-13210214D01*
X12332948Y-13191167D01*
X12351995Y-13181643D01*
X12380567Y-13181643D01*
X12399614Y-13191167D01*
X12475805Y-13391167D02*
X12485328Y-13381643D01*
X12504376Y-13353071D01*
X12513900Y-13334024D01*
X12523424Y-13305452D01*
X12532948Y-13257833D01*
X12532948Y-13219738D01*
X12523424Y-13172119D01*
X12513900Y-13143548D01*
X12504376Y-13124500D01*
X12485328Y-13095928D01*
X12475805Y-13086405D01*
D18*
X7563900Y-13418500D02*
X7703900Y-13558500D01*
X7703900Y-13418500D02*
X7563900Y-13558500D01*
X7633900Y-13558500D02*
X7703900Y-13488500D01*
X7633900Y-13418500D01*
X7563900Y-13488500D01*
X7633900Y-13558500D01*
D11*
X8066281Y-13578976D02*
X7951995Y-13578976D01*
X8009138Y-13578976D02*
X8009138Y-13378976D01*
X7990090Y-13407548D01*
X7971043Y-13426595D01*
X7951995Y-13436119D01*
X8151995Y-13559928D02*
X8161519Y-13569452D01*
X8151995Y-13578976D01*
X8142471Y-13569452D01*
X8151995Y-13559928D01*
X8151995Y-13578976D01*
X8332948Y-13445643D02*
X8332948Y-13578976D01*
X8285328Y-13369452D02*
X8237709Y-13512309D01*
X8361519Y-13512309D01*
X8475805Y-13378976D02*
X8494852Y-13378976D01*
X8513900Y-13388500D01*
X8523424Y-13398024D01*
X8532948Y-13417071D01*
X8542471Y-13455167D01*
X8542471Y-13502786D01*
X8532948Y-13540881D01*
X8523424Y-13559928D01*
X8513900Y-13569452D01*
X8494852Y-13578976D01*
X8475805Y-13578976D01*
X8456757Y-13569452D01*
X8447233Y-13559928D01*
X8437710Y-13540881D01*
X8428186Y-13502786D01*
X8428186Y-13455167D01*
X8437710Y-13417071D01*
X8447233Y-13398024D01*
X8456757Y-13388500D01*
X8475805Y-13378976D01*
X8666281Y-13378976D02*
X8685329Y-13378976D01*
X8704376Y-13388500D01*
X8713900Y-13398024D01*
X8723424Y-13417071D01*
X8732948Y-13455167D01*
X8732948Y-13502786D01*
X8723424Y-13540881D01*
X8713900Y-13559928D01*
X8704376Y-13569452D01*
X8685329Y-13578976D01*
X8666281Y-13578976D01*
X8647233Y-13569452D01*
X8637710Y-13559928D01*
X8628186Y-13540881D01*
X8618662Y-13502786D01*
X8618662Y-13455167D01*
X8628186Y-13417071D01*
X8637710Y-13398024D01*
X8647233Y-13388500D01*
X8666281Y-13378976D01*
X8818662Y-13578976D02*
X8818662Y-13445643D01*
X8818662Y-13464690D02*
X8828186Y-13455167D01*
X8847233Y-13445643D01*
X8875805Y-13445643D01*
X8894852Y-13455167D01*
X8904376Y-13474214D01*
X8904376Y-13578976D01*
X8904376Y-13474214D02*
X8913900Y-13455167D01*
X8932948Y-13445643D01*
X8961519Y-13445643D01*
X8980567Y-13455167D01*
X8990090Y-13474214D01*
X8990090Y-13578976D01*
X9085329Y-13578976D02*
X9085329Y-13445643D01*
X9085329Y-13464690D02*
X9094852Y-13455167D01*
X9113900Y-13445643D01*
X9142471Y-13445643D01*
X9161519Y-13455167D01*
X9171043Y-13474214D01*
X9171043Y-13578976D01*
X9171043Y-13474214D02*
X9180567Y-13455167D01*
X9199614Y-13445643D01*
X9228186Y-13445643D01*
X9247233Y-13455167D01*
X9256757Y-13474214D01*
X9256757Y-13578976D01*
X9647233Y-13369452D02*
X9475805Y-13626595D01*
X9904376Y-13378976D02*
X9923424Y-13378976D01*
X9942471Y-13388500D01*
X9951995Y-13398024D01*
X9961519Y-13417071D01*
X9971043Y-13455167D01*
X9971043Y-13502786D01*
X9961519Y-13540881D01*
X9951995Y-13559928D01*
X9942471Y-13569452D01*
X9923424Y-13578976D01*
X9904376Y-13578976D01*
X9885329Y-13569452D01*
X9875805Y-13559928D01*
X9866281Y-13540881D01*
X9856757Y-13502786D01*
X9856757Y-13455167D01*
X9866281Y-13417071D01*
X9875805Y-13398024D01*
X9885329Y-13388500D01*
X9904376Y-13378976D01*
X10056757Y-13559928D02*
X10066281Y-13569452D01*
X10056757Y-13578976D01*
X10047233Y-13569452D01*
X10056757Y-13559928D01*
X10056757Y-13578976D01*
X10190090Y-13378976D02*
X10209138Y-13378976D01*
X10228186Y-13388500D01*
X10237710Y-13398024D01*
X10247233Y-13417071D01*
X10256757Y-13455167D01*
X10256757Y-13502786D01*
X10247233Y-13540881D01*
X10237710Y-13559928D01*
X10228186Y-13569452D01*
X10209138Y-13578976D01*
X10190090Y-13578976D01*
X10171043Y-13569452D01*
X10161519Y-13559928D01*
X10151995Y-13540881D01*
X10142471Y-13502786D01*
X10142471Y-13455167D01*
X10151995Y-13417071D01*
X10161519Y-13398024D01*
X10171043Y-13388500D01*
X10190090Y-13378976D01*
X10437710Y-13378976D02*
X10342471Y-13378976D01*
X10332948Y-13474214D01*
X10342471Y-13464690D01*
X10361519Y-13455167D01*
X10409138Y-13455167D01*
X10428186Y-13464690D01*
X10437710Y-13474214D01*
X10447233Y-13493262D01*
X10447233Y-13540881D01*
X10437710Y-13559928D01*
X10428186Y-13569452D01*
X10409138Y-13578976D01*
X10361519Y-13578976D01*
X10342471Y-13569452D01*
X10332948Y-13559928D01*
X10628186Y-13378976D02*
X10532948Y-13378976D01*
X10523424Y-13474214D01*
X10532948Y-13464690D01*
X10551995Y-13455167D01*
X10599614Y-13455167D01*
X10618662Y-13464690D01*
X10628186Y-13474214D01*
X10637710Y-13493262D01*
X10637710Y-13540881D01*
X10628186Y-13559928D01*
X10618662Y-13569452D01*
X10599614Y-13578976D01*
X10551995Y-13578976D01*
X10532948Y-13569452D01*
X10523424Y-13559928D01*
X10828186Y-13578976D02*
X10713900Y-13578976D01*
X10771043Y-13578976D02*
X10771043Y-13378976D01*
X10751995Y-13407548D01*
X10732948Y-13426595D01*
X10713900Y-13436119D01*
X10904376Y-13378976D02*
X10904376Y-13417071D01*
X10980567Y-13378976D02*
X10980567Y-13417071D01*
X11275805Y-13655167D02*
X11266281Y-13645643D01*
X11247233Y-13617071D01*
X11237709Y-13598024D01*
X11228186Y-13569452D01*
X11218662Y-13521833D01*
X11218662Y-13483738D01*
X11228186Y-13436119D01*
X11237709Y-13407548D01*
X11247233Y-13388500D01*
X11266281Y-13359928D01*
X11275805Y-13350405D01*
X11437709Y-13445643D02*
X11437709Y-13578976D01*
X11390090Y-13369452D02*
X11342471Y-13512309D01*
X11466281Y-13512309D01*
X11694852Y-13578976D02*
X11694852Y-13378976D01*
X11780567Y-13578976D02*
X11780567Y-13474214D01*
X11771043Y-13455167D01*
X11751995Y-13445643D01*
X11723424Y-13445643D01*
X11704376Y-13455167D01*
X11694852Y-13464690D01*
X11904376Y-13578976D02*
X11885328Y-13569452D01*
X11875805Y-13559928D01*
X11866281Y-13540881D01*
X11866281Y-13483738D01*
X11875805Y-13464690D01*
X11885328Y-13455167D01*
X11904376Y-13445643D01*
X11932948Y-13445643D01*
X11951995Y-13455167D01*
X11961519Y-13464690D01*
X11971043Y-13483738D01*
X11971043Y-13540881D01*
X11961519Y-13559928D01*
X11951995Y-13569452D01*
X11932948Y-13578976D01*
X11904376Y-13578976D01*
X12085328Y-13578976D02*
X12066281Y-13569452D01*
X12056757Y-13550405D01*
X12056757Y-13378976D01*
X12237709Y-13569452D02*
X12218662Y-13578976D01*
X12180567Y-13578976D01*
X12161519Y-13569452D01*
X12151995Y-13550405D01*
X12151995Y-13474214D01*
X12161519Y-13455167D01*
X12180567Y-13445643D01*
X12218662Y-13445643D01*
X12237709Y-13455167D01*
X12247233Y-13474214D01*
X12247233Y-13493262D01*
X12151995Y-13512309D01*
X12323424Y-13569452D02*
X12342471Y-13578976D01*
X12380567Y-13578976D01*
X12399614Y-13569452D01*
X12409138Y-13550405D01*
X12409138Y-13540881D01*
X12399614Y-13521833D01*
X12380567Y-13512309D01*
X12351995Y-13512309D01*
X12332948Y-13502786D01*
X12323424Y-13483738D01*
X12323424Y-13474214D01*
X12332948Y-13455167D01*
X12351995Y-13445643D01*
X12380567Y-13445643D01*
X12399614Y-13455167D01*
X12475805Y-13655167D02*
X12485328Y-13645643D01*
X12504376Y-13617071D01*
X12513900Y-13598024D01*
X12523424Y-13569452D01*
X12532948Y-13521833D01*
X12532948Y-13483738D01*
X12523424Y-13436119D01*
X12513900Y-13407548D01*
X12504376Y-13388500D01*
X12485328Y-13359928D01*
X12475805Y-13350405D01*
D19*
X7628900Y-13677500D02*
X7628900Y-13827500D01*
X7553900Y-13752500D02*
X7703900Y-13752500D01*
X7703900Y-13752500D02*
G75*
G03*
X7703900Y-13752500I-75000J0D01*
G01*
D11*
X8066281Y-13842976D02*
X7951995Y-13842976D01*
X8009138Y-13842976D02*
X8009138Y-13642976D01*
X7990090Y-13671548D01*
X7971043Y-13690595D01*
X7951995Y-13700119D01*
X8151995Y-13823928D02*
X8161519Y-13833452D01*
X8151995Y-13842976D01*
X8142471Y-13833452D01*
X8151995Y-13823928D01*
X8151995Y-13842976D01*
X8342471Y-13642976D02*
X8247233Y-13642976D01*
X8237709Y-13738214D01*
X8247233Y-13728690D01*
X8266281Y-13719167D01*
X8313900Y-13719167D01*
X8332948Y-13728690D01*
X8342471Y-13738214D01*
X8351995Y-13757262D01*
X8351995Y-13804881D01*
X8342471Y-13823928D01*
X8332948Y-13833452D01*
X8313900Y-13842976D01*
X8266281Y-13842976D01*
X8247233Y-13833452D01*
X8237709Y-13823928D01*
X8475805Y-13642976D02*
X8494852Y-13642976D01*
X8513900Y-13652500D01*
X8523424Y-13662024D01*
X8532948Y-13681071D01*
X8542471Y-13719167D01*
X8542471Y-13766786D01*
X8532948Y-13804881D01*
X8523424Y-13823928D01*
X8513900Y-13833452D01*
X8494852Y-13842976D01*
X8475805Y-13842976D01*
X8456757Y-13833452D01*
X8447233Y-13823928D01*
X8437710Y-13804881D01*
X8428186Y-13766786D01*
X8428186Y-13719167D01*
X8437710Y-13681071D01*
X8447233Y-13662024D01*
X8456757Y-13652500D01*
X8475805Y-13642976D01*
X8666281Y-13642976D02*
X8685329Y-13642976D01*
X8704376Y-13652500D01*
X8713900Y-13662024D01*
X8723424Y-13681071D01*
X8732948Y-13719167D01*
X8732948Y-13766786D01*
X8723424Y-13804881D01*
X8713900Y-13823928D01*
X8704376Y-13833452D01*
X8685329Y-13842976D01*
X8666281Y-13842976D01*
X8647233Y-13833452D01*
X8637710Y-13823928D01*
X8628186Y-13804881D01*
X8618662Y-13766786D01*
X8618662Y-13719167D01*
X8628186Y-13681071D01*
X8637710Y-13662024D01*
X8647233Y-13652500D01*
X8666281Y-13642976D01*
X8818662Y-13842976D02*
X8818662Y-13709643D01*
X8818662Y-13728690D02*
X8828186Y-13719167D01*
X8847233Y-13709643D01*
X8875805Y-13709643D01*
X8894852Y-13719167D01*
X8904376Y-13738214D01*
X8904376Y-13842976D01*
X8904376Y-13738214D02*
X8913900Y-13719167D01*
X8932948Y-13709643D01*
X8961519Y-13709643D01*
X8980567Y-13719167D01*
X8990090Y-13738214D01*
X8990090Y-13842976D01*
X9085329Y-13842976D02*
X9085329Y-13709643D01*
X9085329Y-13728690D02*
X9094852Y-13719167D01*
X9113900Y-13709643D01*
X9142471Y-13709643D01*
X9161519Y-13719167D01*
X9171043Y-13738214D01*
X9171043Y-13842976D01*
X9171043Y-13738214D02*
X9180567Y-13719167D01*
X9199614Y-13709643D01*
X9228186Y-13709643D01*
X9247233Y-13719167D01*
X9256757Y-13738214D01*
X9256757Y-13842976D01*
X9647233Y-13633452D02*
X9475805Y-13890595D01*
X9904376Y-13642976D02*
X9923424Y-13642976D01*
X9942471Y-13652500D01*
X9951995Y-13662024D01*
X9961519Y-13681071D01*
X9971043Y-13719167D01*
X9971043Y-13766786D01*
X9961519Y-13804881D01*
X9951995Y-13823928D01*
X9942471Y-13833452D01*
X9923424Y-13842976D01*
X9904376Y-13842976D01*
X9885329Y-13833452D01*
X9875805Y-13823928D01*
X9866281Y-13804881D01*
X9856757Y-13766786D01*
X9856757Y-13719167D01*
X9866281Y-13681071D01*
X9875805Y-13662024D01*
X9885329Y-13652500D01*
X9904376Y-13642976D01*
X10056757Y-13823928D02*
X10066281Y-13833452D01*
X10056757Y-13842976D01*
X10047233Y-13833452D01*
X10056757Y-13823928D01*
X10056757Y-13842976D01*
X10190090Y-13642976D02*
X10209138Y-13642976D01*
X10228186Y-13652500D01*
X10237710Y-13662024D01*
X10247233Y-13681071D01*
X10256757Y-13719167D01*
X10256757Y-13766786D01*
X10247233Y-13804881D01*
X10237710Y-13823928D01*
X10228186Y-13833452D01*
X10209138Y-13842976D01*
X10190090Y-13842976D01*
X10171043Y-13833452D01*
X10161519Y-13823928D01*
X10151995Y-13804881D01*
X10142471Y-13766786D01*
X10142471Y-13719167D01*
X10151995Y-13681071D01*
X10161519Y-13662024D01*
X10171043Y-13652500D01*
X10190090Y-13642976D01*
X10437710Y-13642976D02*
X10342471Y-13642976D01*
X10332948Y-13738214D01*
X10342471Y-13728690D01*
X10361519Y-13719167D01*
X10409138Y-13719167D01*
X10428186Y-13728690D01*
X10437710Y-13738214D01*
X10447233Y-13757262D01*
X10447233Y-13804881D01*
X10437710Y-13823928D01*
X10428186Y-13833452D01*
X10409138Y-13842976D01*
X10361519Y-13842976D01*
X10342471Y-13833452D01*
X10332948Y-13823928D01*
X10542471Y-13842976D02*
X10580567Y-13842976D01*
X10599614Y-13833452D01*
X10609138Y-13823928D01*
X10628186Y-13795357D01*
X10637710Y-13757262D01*
X10637710Y-13681071D01*
X10628186Y-13662024D01*
X10618662Y-13652500D01*
X10599614Y-13642976D01*
X10561519Y-13642976D01*
X10542471Y-13652500D01*
X10532948Y-13662024D01*
X10523424Y-13681071D01*
X10523424Y-13728690D01*
X10532948Y-13747738D01*
X10542471Y-13757262D01*
X10561519Y-13766786D01*
X10599614Y-13766786D01*
X10618662Y-13757262D01*
X10628186Y-13747738D01*
X10637710Y-13728690D01*
X10828186Y-13842976D02*
X10713900Y-13842976D01*
X10771043Y-13842976D02*
X10771043Y-13642976D01*
X10751995Y-13671548D01*
X10732948Y-13690595D01*
X10713900Y-13700119D01*
X10904376Y-13642976D02*
X10904376Y-13681071D01*
X10980567Y-13642976D02*
X10980567Y-13681071D01*
X11275805Y-13919167D02*
X11266281Y-13909643D01*
X11247233Y-13881071D01*
X11237709Y-13862024D01*
X11228186Y-13833452D01*
X11218662Y-13785833D01*
X11218662Y-13747738D01*
X11228186Y-13700119D01*
X11237709Y-13671548D01*
X11247233Y-13652500D01*
X11266281Y-13623928D01*
X11275805Y-13614405D01*
X11437709Y-13642976D02*
X11399614Y-13642976D01*
X11380567Y-13652500D01*
X11371043Y-13662024D01*
X11351995Y-13690595D01*
X11342471Y-13728690D01*
X11342471Y-13804881D01*
X11351995Y-13823928D01*
X11361519Y-13833452D01*
X11380567Y-13842976D01*
X11418662Y-13842976D01*
X11437709Y-13833452D01*
X11447233Y-13823928D01*
X11456757Y-13804881D01*
X11456757Y-13757262D01*
X11447233Y-13738214D01*
X11437709Y-13728690D01*
X11418662Y-13719167D01*
X11380567Y-13719167D01*
X11361519Y-13728690D01*
X11351995Y-13738214D01*
X11342471Y-13757262D01*
X11694852Y-13842976D02*
X11694852Y-13642976D01*
X11780567Y-13842976D02*
X11780567Y-13738214D01*
X11771043Y-13719167D01*
X11751995Y-13709643D01*
X11723424Y-13709643D01*
X11704376Y-13719167D01*
X11694852Y-13728690D01*
X11904376Y-13842976D02*
X11885328Y-13833452D01*
X11875805Y-13823928D01*
X11866281Y-13804881D01*
X11866281Y-13747738D01*
X11875805Y-13728690D01*
X11885328Y-13719167D01*
X11904376Y-13709643D01*
X11932948Y-13709643D01*
X11951995Y-13719167D01*
X11961519Y-13728690D01*
X11971043Y-13747738D01*
X11971043Y-13804881D01*
X11961519Y-13823928D01*
X11951995Y-13833452D01*
X11932948Y-13842976D01*
X11904376Y-13842976D01*
X12085328Y-13842976D02*
X12066281Y-13833452D01*
X12056757Y-13814405D01*
X12056757Y-13642976D01*
X12237709Y-13833452D02*
X12218662Y-13842976D01*
X12180567Y-13842976D01*
X12161519Y-13833452D01*
X12151995Y-13814405D01*
X12151995Y-13738214D01*
X12161519Y-13719167D01*
X12180567Y-13709643D01*
X12218662Y-13709643D01*
X12237709Y-13719167D01*
X12247233Y-13738214D01*
X12247233Y-13757262D01*
X12151995Y-13776309D01*
X12323424Y-13833452D02*
X12342471Y-13842976D01*
X12380567Y-13842976D01*
X12399614Y-13833452D01*
X12409138Y-13814405D01*
X12409138Y-13804881D01*
X12399614Y-13785833D01*
X12380567Y-13776309D01*
X12351995Y-13776309D01*
X12332948Y-13766786D01*
X12323424Y-13747738D01*
X12323424Y-13738214D01*
X12332948Y-13719167D01*
X12351995Y-13709643D01*
X12380567Y-13709643D01*
X12399614Y-13719167D01*
X12475805Y-13919167D02*
X12485328Y-13909643D01*
X12504376Y-13881071D01*
X12513900Y-13862024D01*
X12523424Y-13833452D01*
X12532948Y-13785833D01*
X12532948Y-13747738D01*
X12523424Y-13700119D01*
X12513900Y-13671548D01*
X12504376Y-13652500D01*
X12485328Y-13623928D01*
X12475805Y-13614405D01*
D20*
X7677540Y-14086140D02*
X7677540Y-13958860D01*
X7550260Y-13958860D01*
X7550260Y-14086140D01*
X7677540Y-14086140D01*
X7703900Y-14022500D02*
G75*
G03*
X7703900Y-14022500I-90000J0D01*
G01*
D11*
X8066281Y-14112976D02*
X7951995Y-14112976D01*
X8009138Y-14112976D02*
X8009138Y-13912976D01*
X7990090Y-13941548D01*
X7971043Y-13960595D01*
X7951995Y-13970119D01*
X8151995Y-14093928D02*
X8161519Y-14103452D01*
X8151995Y-14112976D01*
X8142471Y-14103452D01*
X8151995Y-14093928D01*
X8151995Y-14112976D01*
X8275805Y-13998690D02*
X8256757Y-13989167D01*
X8247233Y-13979643D01*
X8237709Y-13960595D01*
X8237709Y-13951071D01*
X8247233Y-13932024D01*
X8256757Y-13922500D01*
X8275805Y-13912976D01*
X8313900Y-13912976D01*
X8332948Y-13922500D01*
X8342471Y-13932024D01*
X8351995Y-13951071D01*
X8351995Y-13960595D01*
X8342471Y-13979643D01*
X8332948Y-13989167D01*
X8313900Y-13998690D01*
X8275805Y-13998690D01*
X8256757Y-14008214D01*
X8247233Y-14017738D01*
X8237709Y-14036786D01*
X8237709Y-14074881D01*
X8247233Y-14093928D01*
X8256757Y-14103452D01*
X8275805Y-14112976D01*
X8313900Y-14112976D01*
X8332948Y-14103452D01*
X8342471Y-14093928D01*
X8351995Y-14074881D01*
X8351995Y-14036786D01*
X8342471Y-14017738D01*
X8332948Y-14008214D01*
X8313900Y-13998690D01*
X8475805Y-13912976D02*
X8494852Y-13912976D01*
X8513900Y-13922500D01*
X8523424Y-13932024D01*
X8532948Y-13951071D01*
X8542471Y-13989167D01*
X8542471Y-14036786D01*
X8532948Y-14074881D01*
X8523424Y-14093928D01*
X8513900Y-14103452D01*
X8494852Y-14112976D01*
X8475805Y-14112976D01*
X8456757Y-14103452D01*
X8447233Y-14093928D01*
X8437710Y-14074881D01*
X8428186Y-14036786D01*
X8428186Y-13989167D01*
X8437710Y-13951071D01*
X8447233Y-13932024D01*
X8456757Y-13922500D01*
X8475805Y-13912976D01*
X8666281Y-13912976D02*
X8685329Y-13912976D01*
X8704376Y-13922500D01*
X8713900Y-13932024D01*
X8723424Y-13951071D01*
X8732948Y-13989167D01*
X8732948Y-14036786D01*
X8723424Y-14074881D01*
X8713900Y-14093928D01*
X8704376Y-14103452D01*
X8685329Y-14112976D01*
X8666281Y-14112976D01*
X8647233Y-14103452D01*
X8637710Y-14093928D01*
X8628186Y-14074881D01*
X8618662Y-14036786D01*
X8618662Y-13989167D01*
X8628186Y-13951071D01*
X8637710Y-13932024D01*
X8647233Y-13922500D01*
X8666281Y-13912976D01*
X8818662Y-14112976D02*
X8818662Y-13979643D01*
X8818662Y-13998690D02*
X8828186Y-13989167D01*
X8847233Y-13979643D01*
X8875805Y-13979643D01*
X8894852Y-13989167D01*
X8904376Y-14008214D01*
X8904376Y-14112976D01*
X8904376Y-14008214D02*
X8913900Y-13989167D01*
X8932948Y-13979643D01*
X8961519Y-13979643D01*
X8980567Y-13989167D01*
X8990090Y-14008214D01*
X8990090Y-14112976D01*
X9085329Y-14112976D02*
X9085329Y-13979643D01*
X9085329Y-13998690D02*
X9094852Y-13989167D01*
X9113900Y-13979643D01*
X9142471Y-13979643D01*
X9161519Y-13989167D01*
X9171043Y-14008214D01*
X9171043Y-14112976D01*
X9171043Y-14008214D02*
X9180567Y-13989167D01*
X9199614Y-13979643D01*
X9228186Y-13979643D01*
X9247233Y-13989167D01*
X9256757Y-14008214D01*
X9256757Y-14112976D01*
X9647233Y-13903452D02*
X9475805Y-14160595D01*
X9904376Y-13912976D02*
X9923424Y-13912976D01*
X9942471Y-13922500D01*
X9951995Y-13932024D01*
X9961519Y-13951071D01*
X9971043Y-13989167D01*
X9971043Y-14036786D01*
X9961519Y-14074881D01*
X9951995Y-14093928D01*
X9942471Y-14103452D01*
X9923424Y-14112976D01*
X9904376Y-14112976D01*
X9885329Y-14103452D01*
X9875805Y-14093928D01*
X9866281Y-14074881D01*
X9856757Y-14036786D01*
X9856757Y-13989167D01*
X9866281Y-13951071D01*
X9875805Y-13932024D01*
X9885329Y-13922500D01*
X9904376Y-13912976D01*
X10056757Y-14093928D02*
X10066281Y-14103452D01*
X10056757Y-14112976D01*
X10047233Y-14103452D01*
X10056757Y-14093928D01*
X10056757Y-14112976D01*
X10190090Y-13912976D02*
X10209138Y-13912976D01*
X10228186Y-13922500D01*
X10237710Y-13932024D01*
X10247233Y-13951071D01*
X10256757Y-13989167D01*
X10256757Y-14036786D01*
X10247233Y-14074881D01*
X10237710Y-14093928D01*
X10228186Y-14103452D01*
X10209138Y-14112976D01*
X10190090Y-14112976D01*
X10171043Y-14103452D01*
X10161519Y-14093928D01*
X10151995Y-14074881D01*
X10142471Y-14036786D01*
X10142471Y-13989167D01*
X10151995Y-13951071D01*
X10161519Y-13932024D01*
X10171043Y-13922500D01*
X10190090Y-13912976D01*
X10323424Y-13912976D02*
X10456757Y-13912976D01*
X10371043Y-14112976D01*
X10571043Y-13912976D02*
X10590090Y-13912976D01*
X10609138Y-13922500D01*
X10618662Y-13932024D01*
X10628186Y-13951071D01*
X10637710Y-13989167D01*
X10637710Y-14036786D01*
X10628186Y-14074881D01*
X10618662Y-14093928D01*
X10609138Y-14103452D01*
X10590090Y-14112976D01*
X10571043Y-14112976D01*
X10551995Y-14103452D01*
X10542471Y-14093928D01*
X10532948Y-14074881D01*
X10523424Y-14036786D01*
X10523424Y-13989167D01*
X10532948Y-13951071D01*
X10542471Y-13932024D01*
X10551995Y-13922500D01*
X10571043Y-13912976D01*
X10732948Y-14112976D02*
X10771043Y-14112976D01*
X10790090Y-14103452D01*
X10799614Y-14093928D01*
X10818662Y-14065357D01*
X10828186Y-14027262D01*
X10828186Y-13951071D01*
X10818662Y-13932024D01*
X10809138Y-13922500D01*
X10790090Y-13912976D01*
X10751995Y-13912976D01*
X10732948Y-13922500D01*
X10723424Y-13932024D01*
X10713900Y-13951071D01*
X10713900Y-13998690D01*
X10723424Y-14017738D01*
X10732948Y-14027262D01*
X10751995Y-14036786D01*
X10790090Y-14036786D01*
X10809138Y-14027262D01*
X10818662Y-14017738D01*
X10828186Y-13998690D01*
X10904376Y-13912976D02*
X10904376Y-13951071D01*
X10980567Y-13912976D02*
X10980567Y-13951071D01*
X11275805Y-14189167D02*
X11266281Y-14179643D01*
X11247233Y-14151071D01*
X11237709Y-14132024D01*
X11228186Y-14103452D01*
X11218662Y-14055833D01*
X11218662Y-14017738D01*
X11228186Y-13970119D01*
X11237709Y-13941548D01*
X11247233Y-13922500D01*
X11266281Y-13893928D01*
X11275805Y-13884405D01*
X11456757Y-14112976D02*
X11342471Y-14112976D01*
X11399614Y-14112976D02*
X11399614Y-13912976D01*
X11380567Y-13941548D01*
X11361519Y-13960595D01*
X11342471Y-13970119D01*
X11580567Y-13912976D02*
X11599614Y-13912976D01*
X11618662Y-13922500D01*
X11628186Y-13932024D01*
X11637709Y-13951071D01*
X11647233Y-13989167D01*
X11647233Y-14036786D01*
X11637709Y-14074881D01*
X11628186Y-14093928D01*
X11618662Y-14103452D01*
X11599614Y-14112976D01*
X11580567Y-14112976D01*
X11561519Y-14103452D01*
X11551995Y-14093928D01*
X11542471Y-14074881D01*
X11532948Y-14036786D01*
X11532948Y-13989167D01*
X11542471Y-13951071D01*
X11551995Y-13932024D01*
X11561519Y-13922500D01*
X11580567Y-13912976D01*
X11885328Y-14112976D02*
X11885328Y-13912976D01*
X11971043Y-14112976D02*
X11971043Y-14008214D01*
X11961519Y-13989167D01*
X11942471Y-13979643D01*
X11913900Y-13979643D01*
X11894852Y-13989167D01*
X11885328Y-13998690D01*
X12094852Y-14112976D02*
X12075805Y-14103452D01*
X12066281Y-14093928D01*
X12056757Y-14074881D01*
X12056757Y-14017738D01*
X12066281Y-13998690D01*
X12075805Y-13989167D01*
X12094852Y-13979643D01*
X12123424Y-13979643D01*
X12142471Y-13989167D01*
X12151995Y-13998690D01*
X12161519Y-14017738D01*
X12161519Y-14074881D01*
X12151995Y-14093928D01*
X12142471Y-14103452D01*
X12123424Y-14112976D01*
X12094852Y-14112976D01*
X12275805Y-14112976D02*
X12256757Y-14103452D01*
X12247233Y-14084405D01*
X12247233Y-13912976D01*
X12428186Y-14103452D02*
X12409138Y-14112976D01*
X12371043Y-14112976D01*
X12351995Y-14103452D01*
X12342471Y-14084405D01*
X12342471Y-14008214D01*
X12351995Y-13989167D01*
X12371043Y-13979643D01*
X12409138Y-13979643D01*
X12428186Y-13989167D01*
X12437709Y-14008214D01*
X12437709Y-14027262D01*
X12342471Y-14046309D01*
X12513900Y-14103452D02*
X12532948Y-14112976D01*
X12571043Y-14112976D01*
X12590090Y-14103452D01*
X12599614Y-14084405D01*
X12599614Y-14074881D01*
X12590090Y-14055833D01*
X12571043Y-14046309D01*
X12542471Y-14046309D01*
X12523424Y-14036786D01*
X12513900Y-14017738D01*
X12513900Y-14008214D01*
X12523424Y-13989167D01*
X12542471Y-13979643D01*
X12571043Y-13979643D01*
X12590090Y-13989167D01*
X12666281Y-14189167D02*
X12675805Y-14179643D01*
X12694852Y-14151071D01*
X12704376Y-14132024D01*
X12713900Y-14103452D01*
X12723424Y-14055833D01*
X12723424Y-14017738D01*
X12713900Y-13970119D01*
X12704376Y-13941548D01*
X12694852Y-13922500D01*
X12675805Y-13893928D01*
X12666281Y-13884405D01*
M02*
