%TF.GenerationSoftware,KiCad,Pcbnew,7.0.9*%
%TF.CreationDate,2024-06-05T16:20:13+05:30*%
%TF.ProjectId,BMS_Master,424d535f-4d61-4737-9465-722e6b696361,rev?*%
%TF.SameCoordinates,Original*%
%TF.FileFunction,Soldermask,Bot*%
%TF.FilePolarity,Negative*%
%FSLAX46Y46*%
G04 Gerber Fmt 4.6, Leading zero omitted, Abs format (unit mm)*
G04 Created by KiCad (PCBNEW 7.0.9) date 2024-06-05 16:20:13*
%MOMM*%
%LPD*%
G01*
G04 APERTURE LIST*
G04 Aperture macros list*
%AMRoundRect*
0 Rectangle with rounded corners*
0 $1 Rounding radius*
0 $2 $3 $4 $5 $6 $7 $8 $9 X,Y pos of 4 corners*
0 Add a 4 corners polygon primitive as box body*
4,1,4,$2,$3,$4,$5,$6,$7,$8,$9,$2,$3,0*
0 Add four circle primitives for the rounded corners*
1,1,$1+$1,$2,$3*
1,1,$1+$1,$4,$5*
1,1,$1+$1,$6,$7*
1,1,$1+$1,$8,$9*
0 Add four rect primitives between the rounded corners*
20,1,$1+$1,$2,$3,$4,$5,0*
20,1,$1+$1,$4,$5,$6,$7,0*
20,1,$1+$1,$6,$7,$8,$9,0*
20,1,$1+$1,$8,$9,$2,$3,0*%
%AMOutline4P*
0 Free polygon, 4 corners , with rotation*
0 The origin of the aperture is its center*
0 number of corners: always 4*
0 $1 to $8 corner X, Y*
0 $9 Rotation angle, in degrees counterclockwise*
0 create outline with 4 corners*
4,1,4,$1,$2,$3,$4,$5,$6,$7,$8,$1,$2,$9*%
G04 Aperture macros list end*
%ADD10R,1.498600X1.498600*%
%ADD11C,1.498600*%
%ADD12R,1.500000X1.780000*%
%ADD13RoundRect,0.250000X0.350000X0.450000X-0.350000X0.450000X-0.350000X-0.450000X0.350000X-0.450000X0*%
%ADD14R,1.350000X1.350000*%
%ADD15O,1.350000X1.350000*%
%ADD16RoundRect,0.250000X-0.650000X0.412500X-0.650000X-0.412500X0.650000X-0.412500X0.650000X0.412500X0*%
%ADD17RoundRect,0.250000X0.475000X-0.337500X0.475000X0.337500X-0.475000X0.337500X-0.475000X-0.337500X0*%
%ADD18R,1.520000X1.780000*%
%ADD19R,1.520000X1.750000*%
%ADD20RoundRect,0.250000X0.450000X-0.350000X0.450000X0.350000X-0.450000X0.350000X-0.450000X-0.350000X0*%
%ADD21RoundRect,0.250000X-0.750000X-1.550000X0.750000X-1.550000X0.750000X1.550000X-0.750000X1.550000X0*%
%ADD22O,2.000000X3.600000*%
%ADD23R,1.700000X1.700000*%
%ADD24O,1.700000X1.700000*%
%ADD25C,16.800000*%
%ADD26C,1.500000*%
%ADD27R,15.000000X15.000000*%
%ADD28C,1.512000*%
%ADD29RoundRect,0.102000X-0.654000X0.654000X-0.654000X-0.654000X0.654000X-0.654000X0.654000X0.654000X0*%
%ADD30R,16.000000X16.000000*%
%ADD31RoundRect,0.249999X-0.450001X-1.425001X0.450001X-1.425001X0.450001X1.425001X-0.450001X1.425001X0*%
%ADD32RoundRect,0.250000X-0.412500X-0.650000X0.412500X-0.650000X0.412500X0.650000X-0.412500X0.650000X0*%
%ADD33RoundRect,0.250000X-0.450000X0.350000X-0.450000X-0.350000X0.450000X-0.350000X0.450000X0.350000X0*%
%ADD34RoundRect,0.250000X-0.475000X0.337500X-0.475000X-0.337500X0.475000X-0.337500X0.475000X0.337500X0*%
%ADD35RoundRect,0.150000X-0.150000X0.825000X-0.150000X-0.825000X0.150000X-0.825000X0.150000X0.825000X0*%
%ADD36Outline4P,-1.800000X-1.150000X1.800000X-0.550000X1.800000X0.550000X-1.800000X1.150000X270.000000*%
%ADD37Outline4P,-1.800000X-1.150000X1.800000X-0.550000X1.800000X0.550000X-1.800000X1.150000X90.000000*%
%ADD38RoundRect,0.250000X0.650000X-0.412500X0.650000X0.412500X-0.650000X0.412500X-0.650000X-0.412500X0*%
%ADD39RoundRect,0.250000X0.337500X0.475000X-0.337500X0.475000X-0.337500X-0.475000X0.337500X-0.475000X0*%
%ADD40RoundRect,0.250000X0.412500X0.650000X-0.412500X0.650000X-0.412500X-0.650000X0.412500X-0.650000X0*%
G04 APERTURE END LIST*
D10*
%TO.C,U15*%
X244208200Y-67810000D03*
D11*
X244208200Y-65270000D03*
X244208200Y-62730000D03*
X244208200Y-60190000D03*
%TD*%
D12*
%TO.C,U16*%
X223835000Y-73470000D03*
X223835000Y-70930000D03*
X233365000Y-70930000D03*
X233365000Y-73470000D03*
%TD*%
D13*
%TO.C,R37*%
X215700000Y-73600000D03*
X213700000Y-73600000D03*
%TD*%
D14*
%TO.C,J4*%
X243300000Y-71600000D03*
D15*
X241300000Y-71600000D03*
X239300000Y-71600000D03*
X237300000Y-71600000D03*
X235300000Y-71600000D03*
%TD*%
D16*
%TO.C,C35*%
X246700000Y-62462500D03*
X246700000Y-59337500D03*
%TD*%
D17*
%TO.C,C33*%
X225300000Y-61100000D03*
X225300000Y-59025000D03*
%TD*%
D18*
%TO.C,U14*%
X237360000Y-60190000D03*
D19*
X237360000Y-62730000D03*
D18*
X237360000Y-65270000D03*
X237360000Y-67810000D03*
X227840000Y-67810000D03*
X227840000Y-65270000D03*
X227840000Y-62730000D03*
X227840000Y-60190000D03*
%TD*%
D20*
%TO.C,R35*%
X239800000Y-66600000D03*
X239800000Y-64600000D03*
%TD*%
%TO.C,R34*%
X225300000Y-65100000D03*
X225300000Y-63100000D03*
%TD*%
%TO.C,R32*%
X239700000Y-62200000D03*
X239700000Y-60200000D03*
%TD*%
D21*
%TO.C,J1*%
X215100000Y-63000000D03*
D22*
X220100000Y-63000000D03*
%TD*%
D23*
%TO.C,J2*%
X189700000Y-90820000D03*
D24*
X189700000Y-88280000D03*
X189700000Y-85740000D03*
X189700000Y-83200000D03*
%TD*%
D25*
%TO.C,H1*%
X200000000Y-134000000D03*
%TD*%
D26*
%TO.C,K1*%
X239900000Y-109500000D03*
X241900000Y-109000000D03*
X232900000Y-113000000D03*
X234900000Y-112000000D03*
D27*
X234900000Y-137500000D03*
X261500000Y-137500000D03*
%TD*%
D28*
%TO.C,IC1*%
X228910000Y-95380000D03*
X228910000Y-100460000D03*
D29*
X228910000Y-92840000D03*
D28*
X228910000Y-105540000D03*
%TD*%
D26*
%TO.C,Y1*%
X191300000Y-62450000D03*
X191300000Y-67330000D03*
%TD*%
%TO.C,K2*%
X245500000Y-90900000D03*
X244500000Y-88400000D03*
X253500000Y-101900000D03*
X252000000Y-100400000D03*
D30*
X272000000Y-92900000D03*
X272000000Y-66300000D03*
%TD*%
D23*
%TO.C,J3*%
X208980000Y-59700000D03*
D24*
X206440000Y-59700000D03*
X203900000Y-59700000D03*
X201360000Y-59700000D03*
X198820000Y-59700000D03*
X196280000Y-59700000D03*
%TD*%
D16*
%TO.C,C20*%
X195500000Y-86937500D03*
X195500000Y-90062500D03*
%TD*%
D31*
%TO.C,R3*%
X211350000Y-133800000D03*
X217450000Y-133800000D03*
%TD*%
D32*
%TO.C,C16*%
X196937500Y-95900000D03*
X200062500Y-95900000D03*
%TD*%
D31*
%TO.C,R4*%
X211350000Y-129740000D03*
X217450000Y-129740000D03*
%TD*%
D20*
%TO.C,R28*%
X217900000Y-96400000D03*
X217900000Y-94400000D03*
%TD*%
D31*
%TO.C,R1*%
X211350000Y-141800000D03*
X217450000Y-141800000D03*
%TD*%
D32*
%TO.C,C12*%
X197137500Y-100000000D03*
X200262500Y-100000000D03*
%TD*%
D33*
%TO.C,R25*%
X194500000Y-104900000D03*
X194500000Y-106900000D03*
%TD*%
D31*
%TO.C,R2*%
X211350000Y-137800000D03*
X217450000Y-137800000D03*
%TD*%
D34*
%TO.C,C25*%
X195500000Y-77962500D03*
X195500000Y-80037500D03*
%TD*%
D35*
%TO.C,U11*%
X197650000Y-85550000D03*
X198920000Y-85550000D03*
X200190000Y-85550000D03*
X201460000Y-85550000D03*
X202730000Y-85550000D03*
X204000000Y-85550000D03*
X205270000Y-85550000D03*
X205270000Y-90500000D03*
X204000000Y-90500000D03*
X202730000Y-90500000D03*
X201460000Y-90500000D03*
X200190000Y-90500000D03*
X198920000Y-90500000D03*
X197650000Y-90500000D03*
%TD*%
D36*
%TO.C,D2*%
X197800000Y-105900000D03*
D37*
X197800000Y-111700000D03*
%TD*%
D16*
%TO.C,C1*%
X226000000Y-91977500D03*
X226000000Y-95102500D03*
%TD*%
D33*
%TO.C,R26*%
X209700000Y-105700000D03*
X209700000Y-107700000D03*
%TD*%
D32*
%TO.C,C3*%
X220437500Y-87540000D03*
X223562500Y-87540000D03*
%TD*%
D38*
%TO.C,C2*%
X227000000Y-104540000D03*
X227000000Y-101415000D03*
%TD*%
D16*
%TO.C,C11*%
X202700000Y-107875000D03*
X202700000Y-111000000D03*
%TD*%
D33*
%TO.C,R30*%
X231100000Y-76900000D03*
X231100000Y-78900000D03*
%TD*%
D39*
%TO.C,C13*%
X199637500Y-102200000D03*
X197562500Y-102200000D03*
%TD*%
D40*
%TO.C,C7*%
X193062500Y-111300000D03*
X189937500Y-111300000D03*
%TD*%
D20*
%TO.C,R27*%
X211800000Y-96400000D03*
X211800000Y-94400000D03*
%TD*%
D33*
%TO.C,R31*%
X231100000Y-81500000D03*
X231100000Y-83500000D03*
%TD*%
D39*
%TO.C,C19*%
X199737500Y-93600000D03*
X197662500Y-93600000D03*
%TD*%
%TO.C,C18*%
X206537500Y-93600000D03*
X204462500Y-93600000D03*
%TD*%
D32*
%TO.C,C17*%
X204037500Y-95900000D03*
X207162500Y-95900000D03*
%TD*%
D39*
%TO.C,C10*%
X206637500Y-102300000D03*
X204562500Y-102300000D03*
%TD*%
D17*
%TO.C,C28*%
X195400000Y-74537500D03*
X195400000Y-72462500D03*
%TD*%
D32*
%TO.C,C9*%
X203937500Y-100000000D03*
X207062500Y-100000000D03*
%TD*%
D20*
%TO.C,R20*%
X211900000Y-102300000D03*
X211900000Y-100300000D03*
%TD*%
D36*
%TO.C,D1*%
X213000000Y-106500000D03*
D37*
X213000000Y-112300000D03*
%TD*%
D32*
%TO.C,C4*%
X221437500Y-80540000D03*
X224562500Y-80540000D03*
%TD*%
D31*
%TO.C,R5*%
X211350000Y-125800000D03*
X217450000Y-125800000D03*
%TD*%
G36*
X209943039Y-122819685D02*
G01*
X209988794Y-122872489D01*
X210000000Y-122924000D01*
X210000000Y-144676000D01*
X209980315Y-144743039D01*
X209927511Y-144788794D01*
X209876000Y-144800000D01*
X188724000Y-144800000D01*
X188656961Y-144780315D01*
X188611206Y-144727511D01*
X188600000Y-144676000D01*
X188600000Y-122924000D01*
X188619685Y-122856961D01*
X188672489Y-122811206D01*
X188724000Y-122800000D01*
X209876000Y-122800000D01*
X209943039Y-122819685D01*
G37*
G36*
X242743039Y-122819685D02*
G01*
X242788794Y-122872489D01*
X242800000Y-122924000D01*
X242800000Y-125600000D01*
X245476000Y-125600000D01*
X245543039Y-125619685D01*
X245588794Y-125672489D01*
X245600000Y-125724000D01*
X245600000Y-144876000D01*
X245580315Y-144943039D01*
X245527511Y-144988794D01*
X245476000Y-145000000D01*
X219124000Y-145000000D01*
X219056961Y-144980315D01*
X219011206Y-144927511D01*
X219000000Y-144876000D01*
X219000000Y-122924000D01*
X219019685Y-122856961D01*
X219072489Y-122811206D01*
X219124000Y-122800000D01*
X242676000Y-122800000D01*
X242743039Y-122819685D01*
G37*
M02*
