%TF.GenerationSoftware,KiCad,Pcbnew,7.0.9*%
%TF.CreationDate,2024-06-05T16:20:13+05:30*%
%TF.ProjectId,BMS_Master,424d535f-4d61-4737-9465-722e6b696361,rev?*%
%TF.SameCoordinates,Original*%
%TF.FileFunction,Profile,NP*%
%FSLAX46Y46*%
G04 Gerber Fmt 4.6, Leading zero omitted, Abs format (unit mm)*
G04 Created by KiCad (PCBNEW 7.0.9) date 2024-06-05 16:20:13*
%MOMM*%
%LPD*%
G01*
G04 APERTURE LIST*
%TA.AperFunction,Profile*%
%ADD10C,0.100000*%
%TD*%
%TA.AperFunction,Profile*%
%ADD11C,0.120000*%
%TD*%
G04 APERTURE END LIST*
D10*
X187900000Y-57600000D02*
X280500000Y-57600000D01*
X280500000Y-145500000D01*
X187900000Y-145500000D01*
X187900000Y-57600000D01*
D11*
%TO.C,K1*%
X243300000Y-125100000D02*
X243300000Y-113300000D01*
X244300000Y-112300000D02*
X252100000Y-112300000D01*
X245500000Y-126100000D02*
X244300000Y-126100000D01*
X246500000Y-145500000D02*
X246500000Y-127100000D01*
X249900000Y-127100000D02*
X249900000Y-145500000D01*
X249900000Y-145500000D02*
X246500000Y-145500000D01*
X252100000Y-126100000D02*
X250900000Y-126100000D01*
X253100000Y-113300000D02*
X253100000Y-125100000D01*
X244300000Y-112300000D02*
G75*
G03*
X243300000Y-113300000I0J-1000000D01*
G01*
X243300000Y-125100000D02*
G75*
G03*
X244300000Y-126100000I1000000J0D01*
G01*
X246500000Y-127100000D02*
G75*
G03*
X245500000Y-126100000I-1000000J0D01*
G01*
X250900000Y-126100000D02*
G75*
G03*
X249900000Y-127100000I0J-1000000D01*
G01*
X253100000Y-113300000D02*
G75*
G03*
X252100000Y-112300000I-1000000J0D01*
G01*
X252100000Y-126100000D02*
G75*
G03*
X253100000Y-125100000I0J1000000D01*
G01*
%TO.C,K2*%
X259600000Y-84500000D02*
X247800000Y-84500000D01*
X246800000Y-83500000D02*
X246800000Y-75700000D01*
X260600000Y-82300000D02*
X260600000Y-83500000D01*
X280500000Y-81300000D02*
X261600000Y-81300000D01*
X261600000Y-77900000D02*
X280500000Y-77900000D01*
X280500000Y-77900000D02*
X280500000Y-81300000D01*
X260600000Y-75700000D02*
X260600000Y-76900000D01*
X247800000Y-74700000D02*
X259600000Y-74700000D01*
X246800000Y-83500000D02*
G75*
G03*
X247800000Y-84500000I1000000J0D01*
G01*
X259600000Y-84500000D02*
G75*
G03*
X260600000Y-83500000I0J1000000D01*
G01*
X261600000Y-81300000D02*
G75*
G03*
X260600000Y-82300000I0J-1000000D01*
G01*
X260600000Y-76900000D02*
G75*
G03*
X261600000Y-77900000I1000000J0D01*
G01*
X247800000Y-74700000D02*
G75*
G03*
X246800000Y-75700000I0J-1000000D01*
G01*
X260600000Y-75700000D02*
G75*
G03*
X259600000Y-74700000I-1000000J0D01*
G01*
%TD*%
M02*
