%TF.GenerationSoftware,KiCad,Pcbnew,7.0.9*%
%TF.CreationDate,2024-06-05T17:19:39+05:30*%
%TF.ProjectId,BMS_Master,424d535f-4d61-4737-9465-722e6b696361,rev?*%
%TF.SameCoordinates,Original*%
%TF.FileFunction,Legend,Top*%
%TF.FilePolarity,Positive*%
%FSLAX46Y46*%
G04 Gerber Fmt 4.6, Leading zero omitted, Abs format (unit mm)*
G04 Created by KiCad (PCBNEW 7.0.9) date 2024-06-05 17:19:39*
%MOMM*%
%LPD*%
G01*
G04 APERTURE LIST*
%ADD10C,0.300000*%
%ADD11C,0.150000*%
%ADD12C,0.125000*%
%ADD13C,0.152400*%
%ADD14C,0.120000*%
G04 APERTURE END LIST*
D10*
X261400828Y-89359774D02*
X261400828Y-89074060D01*
X261400828Y-89074060D02*
X261472257Y-88931203D01*
X261472257Y-88931203D02*
X261615114Y-88788346D01*
X261615114Y-88788346D02*
X261900828Y-88716917D01*
X261900828Y-88716917D02*
X262400828Y-88716917D01*
X262400828Y-88716917D02*
X262686542Y-88788346D01*
X262686542Y-88788346D02*
X262829400Y-88931203D01*
X262829400Y-88931203D02*
X262900828Y-89074060D01*
X262900828Y-89074060D02*
X262900828Y-89359774D01*
X262900828Y-89359774D02*
X262829400Y-89502632D01*
X262829400Y-89502632D02*
X262686542Y-89645489D01*
X262686542Y-89645489D02*
X262400828Y-89716917D01*
X262400828Y-89716917D02*
X261900828Y-89716917D01*
X261900828Y-89716917D02*
X261615114Y-89645489D01*
X261615114Y-89645489D02*
X261472257Y-89502632D01*
X261472257Y-89502632D02*
X261400828Y-89359774D01*
X261400828Y-88074060D02*
X262615114Y-88074060D01*
X262615114Y-88074060D02*
X262757971Y-88002631D01*
X262757971Y-88002631D02*
X262829400Y-87931203D01*
X262829400Y-87931203D02*
X262900828Y-87788345D01*
X262900828Y-87788345D02*
X262900828Y-87502631D01*
X262900828Y-87502631D02*
X262829400Y-87359774D01*
X262829400Y-87359774D02*
X262757971Y-87288345D01*
X262757971Y-87288345D02*
X262615114Y-87216917D01*
X262615114Y-87216917D02*
X261400828Y-87216917D01*
X261400828Y-86716916D02*
X261400828Y-85859774D01*
X262900828Y-86288345D02*
X261400828Y-86288345D01*
X262329400Y-85359774D02*
X262329400Y-84216917D01*
X262900828Y-84788345D02*
X261757971Y-84788345D01*
D11*
X195200000Y-71754819D02*
X195200000Y-71992914D01*
X194961905Y-71897676D02*
X195200000Y-71992914D01*
X195200000Y-71992914D02*
X195438095Y-71897676D01*
X195057143Y-72183390D02*
X195200000Y-71992914D01*
X195200000Y-71992914D02*
X195342857Y-72183390D01*
D10*
X264740225Y-121800828D02*
X265025939Y-121800828D01*
X265025939Y-121800828D02*
X265168796Y-121872257D01*
X265168796Y-121872257D02*
X265311653Y-122015114D01*
X265311653Y-122015114D02*
X265383082Y-122300828D01*
X265383082Y-122300828D02*
X265383082Y-122800828D01*
X265383082Y-122800828D02*
X265311653Y-123086542D01*
X265311653Y-123086542D02*
X265168796Y-123229400D01*
X265168796Y-123229400D02*
X265025939Y-123300828D01*
X265025939Y-123300828D02*
X264740225Y-123300828D01*
X264740225Y-123300828D02*
X264597368Y-123229400D01*
X264597368Y-123229400D02*
X264454510Y-123086542D01*
X264454510Y-123086542D02*
X264383082Y-122800828D01*
X264383082Y-122800828D02*
X264383082Y-122300828D01*
X264383082Y-122300828D02*
X264454510Y-122015114D01*
X264454510Y-122015114D02*
X264597368Y-121872257D01*
X264597368Y-121872257D02*
X264740225Y-121800828D01*
X266025939Y-121800828D02*
X266025939Y-123015114D01*
X266025939Y-123015114D02*
X266097368Y-123157971D01*
X266097368Y-123157971D02*
X266168797Y-123229400D01*
X266168797Y-123229400D02*
X266311654Y-123300828D01*
X266311654Y-123300828D02*
X266597368Y-123300828D01*
X266597368Y-123300828D02*
X266740225Y-123229400D01*
X266740225Y-123229400D02*
X266811654Y-123157971D01*
X266811654Y-123157971D02*
X266883082Y-123015114D01*
X266883082Y-123015114D02*
X266883082Y-121800828D01*
X267383083Y-121800828D02*
X268240226Y-121800828D01*
X267811654Y-123300828D02*
X267811654Y-121800828D01*
X268740225Y-122729400D02*
X269883083Y-122729400D01*
D12*
X243884690Y-87313002D02*
X243908500Y-87336811D01*
X243908500Y-87336811D02*
X243932309Y-87408240D01*
X243932309Y-87408240D02*
X243932309Y-87455859D01*
X243932309Y-87455859D02*
X243908500Y-87527287D01*
X243908500Y-87527287D02*
X243860880Y-87574906D01*
X243860880Y-87574906D02*
X243813261Y-87598716D01*
X243813261Y-87598716D02*
X243718023Y-87622525D01*
X243718023Y-87622525D02*
X243646595Y-87622525D01*
X243646595Y-87622525D02*
X243551357Y-87598716D01*
X243551357Y-87598716D02*
X243503738Y-87574906D01*
X243503738Y-87574906D02*
X243456119Y-87527287D01*
X243456119Y-87527287D02*
X243432309Y-87455859D01*
X243432309Y-87455859D02*
X243432309Y-87408240D01*
X243432309Y-87408240D02*
X243456119Y-87336811D01*
X243456119Y-87336811D02*
X243479928Y-87313002D01*
X243932309Y-87027287D02*
X243908500Y-87074906D01*
X243908500Y-87074906D02*
X243884690Y-87098716D01*
X243884690Y-87098716D02*
X243837071Y-87122525D01*
X243837071Y-87122525D02*
X243694214Y-87122525D01*
X243694214Y-87122525D02*
X243646595Y-87098716D01*
X243646595Y-87098716D02*
X243622785Y-87074906D01*
X243622785Y-87074906D02*
X243598976Y-87027287D01*
X243598976Y-87027287D02*
X243598976Y-86955859D01*
X243598976Y-86955859D02*
X243622785Y-86908240D01*
X243622785Y-86908240D02*
X243646595Y-86884430D01*
X243646595Y-86884430D02*
X243694214Y-86860621D01*
X243694214Y-86860621D02*
X243837071Y-86860621D01*
X243837071Y-86860621D02*
X243884690Y-86884430D01*
X243884690Y-86884430D02*
X243908500Y-86908240D01*
X243908500Y-86908240D02*
X243932309Y-86955859D01*
X243932309Y-86955859D02*
X243932309Y-87027287D01*
X243932309Y-86646335D02*
X243598976Y-86646335D01*
X243432309Y-86646335D02*
X243456119Y-86670144D01*
X243456119Y-86670144D02*
X243479928Y-86646335D01*
X243479928Y-86646335D02*
X243456119Y-86622525D01*
X243456119Y-86622525D02*
X243432309Y-86646335D01*
X243432309Y-86646335D02*
X243479928Y-86646335D01*
X243932309Y-86336811D02*
X243908500Y-86384430D01*
X243908500Y-86384430D02*
X243860880Y-86408240D01*
X243860880Y-86408240D02*
X243432309Y-86408240D01*
X243741833Y-86146335D02*
X243741833Y-85765383D01*
X243932309Y-85955859D02*
X243551357Y-85955859D01*
D11*
X204800000Y-113054819D02*
X204800000Y-113292914D01*
X204561905Y-113197676D02*
X204800000Y-113292914D01*
X204800000Y-113292914D02*
X205038095Y-113197676D01*
X204657143Y-113483390D02*
X204800000Y-113292914D01*
X204800000Y-113292914D02*
X204942857Y-113483390D01*
D12*
X243086997Y-108184690D02*
X243063188Y-108208500D01*
X243063188Y-108208500D02*
X242991759Y-108232309D01*
X242991759Y-108232309D02*
X242944140Y-108232309D01*
X242944140Y-108232309D02*
X242872712Y-108208500D01*
X242872712Y-108208500D02*
X242825093Y-108160880D01*
X242825093Y-108160880D02*
X242801283Y-108113261D01*
X242801283Y-108113261D02*
X242777474Y-108018023D01*
X242777474Y-108018023D02*
X242777474Y-107946595D01*
X242777474Y-107946595D02*
X242801283Y-107851357D01*
X242801283Y-107851357D02*
X242825093Y-107803738D01*
X242825093Y-107803738D02*
X242872712Y-107756119D01*
X242872712Y-107756119D02*
X242944140Y-107732309D01*
X242944140Y-107732309D02*
X242991759Y-107732309D01*
X242991759Y-107732309D02*
X243063188Y-107756119D01*
X243063188Y-107756119D02*
X243086997Y-107779928D01*
X243372712Y-108232309D02*
X243325093Y-108208500D01*
X243325093Y-108208500D02*
X243301283Y-108184690D01*
X243301283Y-108184690D02*
X243277474Y-108137071D01*
X243277474Y-108137071D02*
X243277474Y-107994214D01*
X243277474Y-107994214D02*
X243301283Y-107946595D01*
X243301283Y-107946595D02*
X243325093Y-107922785D01*
X243325093Y-107922785D02*
X243372712Y-107898976D01*
X243372712Y-107898976D02*
X243444140Y-107898976D01*
X243444140Y-107898976D02*
X243491759Y-107922785D01*
X243491759Y-107922785D02*
X243515569Y-107946595D01*
X243515569Y-107946595D02*
X243539378Y-107994214D01*
X243539378Y-107994214D02*
X243539378Y-108137071D01*
X243539378Y-108137071D02*
X243515569Y-108184690D01*
X243515569Y-108184690D02*
X243491759Y-108208500D01*
X243491759Y-108208500D02*
X243444140Y-108232309D01*
X243444140Y-108232309D02*
X243372712Y-108232309D01*
X243753664Y-108232309D02*
X243753664Y-107898976D01*
X243753664Y-107732309D02*
X243729855Y-107756119D01*
X243729855Y-107756119D02*
X243753664Y-107779928D01*
X243753664Y-107779928D02*
X243777474Y-107756119D01*
X243777474Y-107756119D02*
X243753664Y-107732309D01*
X243753664Y-107732309D02*
X243753664Y-107779928D01*
X244063188Y-108232309D02*
X244015569Y-108208500D01*
X244015569Y-108208500D02*
X243991759Y-108160880D01*
X243991759Y-108160880D02*
X243991759Y-107732309D01*
X244253664Y-108041833D02*
X244634617Y-108041833D01*
X244444140Y-108232309D02*
X244444140Y-107851357D01*
D10*
X207583082Y-63229400D02*
X207797368Y-63300828D01*
X207797368Y-63300828D02*
X208154510Y-63300828D01*
X208154510Y-63300828D02*
X208297368Y-63229400D01*
X208297368Y-63229400D02*
X208368796Y-63157971D01*
X208368796Y-63157971D02*
X208440225Y-63015114D01*
X208440225Y-63015114D02*
X208440225Y-62872257D01*
X208440225Y-62872257D02*
X208368796Y-62729400D01*
X208368796Y-62729400D02*
X208297368Y-62657971D01*
X208297368Y-62657971D02*
X208154510Y-62586542D01*
X208154510Y-62586542D02*
X207868796Y-62515114D01*
X207868796Y-62515114D02*
X207725939Y-62443685D01*
X207725939Y-62443685D02*
X207654510Y-62372257D01*
X207654510Y-62372257D02*
X207583082Y-62229400D01*
X207583082Y-62229400D02*
X207583082Y-62086542D01*
X207583082Y-62086542D02*
X207654510Y-61943685D01*
X207654510Y-61943685D02*
X207725939Y-61872257D01*
X207725939Y-61872257D02*
X207868796Y-61800828D01*
X207868796Y-61800828D02*
X208225939Y-61800828D01*
X208225939Y-61800828D02*
X208440225Y-61872257D01*
X209083081Y-63300828D02*
X209083081Y-61800828D01*
X209083081Y-61800828D02*
X209654510Y-61800828D01*
X209654510Y-61800828D02*
X209797367Y-61872257D01*
X209797367Y-61872257D02*
X209868796Y-61943685D01*
X209868796Y-61943685D02*
X209940224Y-62086542D01*
X209940224Y-62086542D02*
X209940224Y-62300828D01*
X209940224Y-62300828D02*
X209868796Y-62443685D01*
X209868796Y-62443685D02*
X209797367Y-62515114D01*
X209797367Y-62515114D02*
X209654510Y-62586542D01*
X209654510Y-62586542D02*
X209083081Y-62586542D01*
X210583081Y-63300828D02*
X210583081Y-61800828D01*
D11*
X217800000Y-102154819D02*
X217800000Y-102392914D01*
X217561905Y-102297676D02*
X217800000Y-102392914D01*
X217800000Y-102392914D02*
X218038095Y-102297676D01*
X217657143Y-102583390D02*
X217800000Y-102392914D01*
X217800000Y-102392914D02*
X217942857Y-102583390D01*
D12*
X237686997Y-108784690D02*
X237663188Y-108808500D01*
X237663188Y-108808500D02*
X237591759Y-108832309D01*
X237591759Y-108832309D02*
X237544140Y-108832309D01*
X237544140Y-108832309D02*
X237472712Y-108808500D01*
X237472712Y-108808500D02*
X237425093Y-108760880D01*
X237425093Y-108760880D02*
X237401283Y-108713261D01*
X237401283Y-108713261D02*
X237377474Y-108618023D01*
X237377474Y-108618023D02*
X237377474Y-108546595D01*
X237377474Y-108546595D02*
X237401283Y-108451357D01*
X237401283Y-108451357D02*
X237425093Y-108403738D01*
X237425093Y-108403738D02*
X237472712Y-108356119D01*
X237472712Y-108356119D02*
X237544140Y-108332309D01*
X237544140Y-108332309D02*
X237591759Y-108332309D01*
X237591759Y-108332309D02*
X237663188Y-108356119D01*
X237663188Y-108356119D02*
X237686997Y-108379928D01*
X237972712Y-108832309D02*
X237925093Y-108808500D01*
X237925093Y-108808500D02*
X237901283Y-108784690D01*
X237901283Y-108784690D02*
X237877474Y-108737071D01*
X237877474Y-108737071D02*
X237877474Y-108594214D01*
X237877474Y-108594214D02*
X237901283Y-108546595D01*
X237901283Y-108546595D02*
X237925093Y-108522785D01*
X237925093Y-108522785D02*
X237972712Y-108498976D01*
X237972712Y-108498976D02*
X238044140Y-108498976D01*
X238044140Y-108498976D02*
X238091759Y-108522785D01*
X238091759Y-108522785D02*
X238115569Y-108546595D01*
X238115569Y-108546595D02*
X238139378Y-108594214D01*
X238139378Y-108594214D02*
X238139378Y-108737071D01*
X238139378Y-108737071D02*
X238115569Y-108784690D01*
X238115569Y-108784690D02*
X238091759Y-108808500D01*
X238091759Y-108808500D02*
X238044140Y-108832309D01*
X238044140Y-108832309D02*
X237972712Y-108832309D01*
X238353664Y-108832309D02*
X238353664Y-108498976D01*
X238353664Y-108332309D02*
X238329855Y-108356119D01*
X238329855Y-108356119D02*
X238353664Y-108379928D01*
X238353664Y-108379928D02*
X238377474Y-108356119D01*
X238377474Y-108356119D02*
X238353664Y-108332309D01*
X238353664Y-108332309D02*
X238353664Y-108379928D01*
X238663188Y-108832309D02*
X238615569Y-108808500D01*
X238615569Y-108808500D02*
X238591759Y-108760880D01*
X238591759Y-108760880D02*
X238591759Y-108332309D01*
X238853664Y-108641833D02*
X239234617Y-108641833D01*
D11*
X212700000Y-112654819D02*
X212700000Y-112892914D01*
X212461905Y-112797676D02*
X212700000Y-112892914D01*
X212700000Y-112892914D02*
X212938095Y-112797676D01*
X212557143Y-113083390D02*
X212700000Y-112892914D01*
X212700000Y-112892914D02*
X212842857Y-113083390D01*
X211900000Y-102154819D02*
X211900000Y-102392914D01*
X211661905Y-102297676D02*
X211900000Y-102392914D01*
X211900000Y-102392914D02*
X212138095Y-102297676D01*
X211757143Y-102583390D02*
X211900000Y-102392914D01*
X211900000Y-102392914D02*
X212042857Y-102583390D01*
D12*
X244484690Y-92713002D02*
X244508500Y-92736811D01*
X244508500Y-92736811D02*
X244532309Y-92808240D01*
X244532309Y-92808240D02*
X244532309Y-92855859D01*
X244532309Y-92855859D02*
X244508500Y-92927287D01*
X244508500Y-92927287D02*
X244460880Y-92974906D01*
X244460880Y-92974906D02*
X244413261Y-92998716D01*
X244413261Y-92998716D02*
X244318023Y-93022525D01*
X244318023Y-93022525D02*
X244246595Y-93022525D01*
X244246595Y-93022525D02*
X244151357Y-92998716D01*
X244151357Y-92998716D02*
X244103738Y-92974906D01*
X244103738Y-92974906D02*
X244056119Y-92927287D01*
X244056119Y-92927287D02*
X244032309Y-92855859D01*
X244032309Y-92855859D02*
X244032309Y-92808240D01*
X244032309Y-92808240D02*
X244056119Y-92736811D01*
X244056119Y-92736811D02*
X244079928Y-92713002D01*
X244532309Y-92427287D02*
X244508500Y-92474906D01*
X244508500Y-92474906D02*
X244484690Y-92498716D01*
X244484690Y-92498716D02*
X244437071Y-92522525D01*
X244437071Y-92522525D02*
X244294214Y-92522525D01*
X244294214Y-92522525D02*
X244246595Y-92498716D01*
X244246595Y-92498716D02*
X244222785Y-92474906D01*
X244222785Y-92474906D02*
X244198976Y-92427287D01*
X244198976Y-92427287D02*
X244198976Y-92355859D01*
X244198976Y-92355859D02*
X244222785Y-92308240D01*
X244222785Y-92308240D02*
X244246595Y-92284430D01*
X244246595Y-92284430D02*
X244294214Y-92260621D01*
X244294214Y-92260621D02*
X244437071Y-92260621D01*
X244437071Y-92260621D02*
X244484690Y-92284430D01*
X244484690Y-92284430D02*
X244508500Y-92308240D01*
X244508500Y-92308240D02*
X244532309Y-92355859D01*
X244532309Y-92355859D02*
X244532309Y-92427287D01*
X244532309Y-92046335D02*
X244198976Y-92046335D01*
X244032309Y-92046335D02*
X244056119Y-92070144D01*
X244056119Y-92070144D02*
X244079928Y-92046335D01*
X244079928Y-92046335D02*
X244056119Y-92022525D01*
X244056119Y-92022525D02*
X244032309Y-92046335D01*
X244032309Y-92046335D02*
X244079928Y-92046335D01*
X244532309Y-91736811D02*
X244508500Y-91784430D01*
X244508500Y-91784430D02*
X244460880Y-91808240D01*
X244460880Y-91808240D02*
X244032309Y-91808240D01*
X244341833Y-91546335D02*
X244341833Y-91165383D01*
D10*
X261815114Y-72245489D02*
X261886542Y-72031203D01*
X261886542Y-72031203D02*
X261957971Y-71959774D01*
X261957971Y-71959774D02*
X262100828Y-71888346D01*
X262100828Y-71888346D02*
X262315114Y-71888346D01*
X262315114Y-71888346D02*
X262457971Y-71959774D01*
X262457971Y-71959774D02*
X262529400Y-72031203D01*
X262529400Y-72031203D02*
X262600828Y-72174060D01*
X262600828Y-72174060D02*
X262600828Y-72745489D01*
X262600828Y-72745489D02*
X261100828Y-72745489D01*
X261100828Y-72745489D02*
X261100828Y-72245489D01*
X261100828Y-72245489D02*
X261172257Y-72102632D01*
X261172257Y-72102632D02*
X261243685Y-72031203D01*
X261243685Y-72031203D02*
X261386542Y-71959774D01*
X261386542Y-71959774D02*
X261529400Y-71959774D01*
X261529400Y-71959774D02*
X261672257Y-72031203D01*
X261672257Y-72031203D02*
X261743685Y-72102632D01*
X261743685Y-72102632D02*
X261815114Y-72245489D01*
X261815114Y-72245489D02*
X261815114Y-72745489D01*
X262172257Y-71316917D02*
X262172257Y-70602632D01*
X262600828Y-71459774D02*
X261100828Y-70959774D01*
X261100828Y-70959774D02*
X262600828Y-70459774D01*
X261100828Y-70174060D02*
X261100828Y-69316918D01*
X262600828Y-69745489D02*
X261100828Y-69745489D01*
X261100828Y-69031203D02*
X261100828Y-68174061D01*
X262600828Y-68602632D02*
X261100828Y-68602632D01*
X262029400Y-67674061D02*
X262029400Y-66531204D01*
X262600828Y-67102632D02*
X261457971Y-67102632D01*
D11*
X241554819Y-65238094D02*
X242364342Y-65238094D01*
X242364342Y-65238094D02*
X242459580Y-65190475D01*
X242459580Y-65190475D02*
X242507200Y-65142856D01*
X242507200Y-65142856D02*
X242554819Y-65047618D01*
X242554819Y-65047618D02*
X242554819Y-64857142D01*
X242554819Y-64857142D02*
X242507200Y-64761904D01*
X242507200Y-64761904D02*
X242459580Y-64714285D01*
X242459580Y-64714285D02*
X242364342Y-64666666D01*
X242364342Y-64666666D02*
X241554819Y-64666666D01*
X242554819Y-63666666D02*
X242554819Y-64238094D01*
X242554819Y-63952380D02*
X241554819Y-63952380D01*
X241554819Y-63952380D02*
X241697676Y-64047618D01*
X241697676Y-64047618D02*
X241792914Y-64142856D01*
X241792914Y-64142856D02*
X241840533Y-64238094D01*
X241554819Y-62761904D02*
X241554819Y-63238094D01*
X241554819Y-63238094D02*
X242031009Y-63285713D01*
X242031009Y-63285713D02*
X241983390Y-63238094D01*
X241983390Y-63238094D02*
X241935771Y-63142856D01*
X241935771Y-63142856D02*
X241935771Y-62904761D01*
X241935771Y-62904761D02*
X241983390Y-62809523D01*
X241983390Y-62809523D02*
X242031009Y-62761904D01*
X242031009Y-62761904D02*
X242126247Y-62714285D01*
X242126247Y-62714285D02*
X242364342Y-62714285D01*
X242364342Y-62714285D02*
X242459580Y-62761904D01*
X242459580Y-62761904D02*
X242507200Y-62809523D01*
X242507200Y-62809523D02*
X242554819Y-62904761D01*
X242554819Y-62904761D02*
X242554819Y-63142856D01*
X242554819Y-63142856D02*
X242507200Y-63238094D01*
X242507200Y-63238094D02*
X242459580Y-63285713D01*
X243663019Y-70819899D02*
X243901114Y-70819899D01*
X243805876Y-71057994D02*
X243901114Y-70819899D01*
X243901114Y-70819899D02*
X243805876Y-70581804D01*
X244091590Y-70962756D02*
X243901114Y-70819899D01*
X243901114Y-70819899D02*
X244091590Y-70677042D01*
X243663019Y-70819899D02*
X243901114Y-70819899D01*
X243805876Y-71057994D02*
X243901114Y-70819899D01*
X243901114Y-70819899D02*
X243805876Y-70581804D01*
X244091590Y-70962756D02*
X243901114Y-70819899D01*
X243901114Y-70819899D02*
X244091590Y-70677042D01*
X198054819Y-97561904D02*
X198864342Y-97561904D01*
X198864342Y-97561904D02*
X198959580Y-97514285D01*
X198959580Y-97514285D02*
X199007200Y-97466666D01*
X199007200Y-97466666D02*
X199054819Y-97371428D01*
X199054819Y-97371428D02*
X199054819Y-97180952D01*
X199054819Y-97180952D02*
X199007200Y-97085714D01*
X199007200Y-97085714D02*
X198959580Y-97038095D01*
X198959580Y-97038095D02*
X198864342Y-96990476D01*
X198864342Y-96990476D02*
X198054819Y-96990476D01*
X199054819Y-96466666D02*
X199054819Y-96276190D01*
X199054819Y-96276190D02*
X199007200Y-96180952D01*
X199007200Y-96180952D02*
X198959580Y-96133333D01*
X198959580Y-96133333D02*
X198816723Y-96038095D01*
X198816723Y-96038095D02*
X198626247Y-95990476D01*
X198626247Y-95990476D02*
X198245295Y-95990476D01*
X198245295Y-95990476D02*
X198150057Y-96038095D01*
X198150057Y-96038095D02*
X198102438Y-96085714D01*
X198102438Y-96085714D02*
X198054819Y-96180952D01*
X198054819Y-96180952D02*
X198054819Y-96371428D01*
X198054819Y-96371428D02*
X198102438Y-96466666D01*
X198102438Y-96466666D02*
X198150057Y-96514285D01*
X198150057Y-96514285D02*
X198245295Y-96561904D01*
X198245295Y-96561904D02*
X198483390Y-96561904D01*
X198483390Y-96561904D02*
X198578628Y-96514285D01*
X198578628Y-96514285D02*
X198626247Y-96466666D01*
X198626247Y-96466666D02*
X198673866Y-96371428D01*
X198673866Y-96371428D02*
X198673866Y-96180952D01*
X198673866Y-96180952D02*
X198626247Y-96085714D01*
X198626247Y-96085714D02*
X198578628Y-96038095D01*
X198578628Y-96038095D02*
X198483390Y-95990476D01*
X194448019Y-101930799D02*
X194686114Y-101930799D01*
X194590876Y-102168894D02*
X194686114Y-101930799D01*
X194686114Y-101930799D02*
X194590876Y-101692704D01*
X194876590Y-102073656D02*
X194686114Y-101930799D01*
X194686114Y-101930799D02*
X194876590Y-101787942D01*
X194448019Y-101930799D02*
X194686114Y-101930799D01*
X194590876Y-102168894D02*
X194686114Y-101930799D01*
X194686114Y-101930799D02*
X194590876Y-101692704D01*
X194876590Y-102073656D02*
X194686114Y-101930799D01*
X194686114Y-101930799D02*
X194876590Y-101787942D01*
X205049819Y-97885104D02*
X205859342Y-97885104D01*
X205859342Y-97885104D02*
X205954580Y-97837485D01*
X205954580Y-97837485D02*
X206002200Y-97789866D01*
X206002200Y-97789866D02*
X206049819Y-97694628D01*
X206049819Y-97694628D02*
X206049819Y-97504152D01*
X206049819Y-97504152D02*
X206002200Y-97408914D01*
X206002200Y-97408914D02*
X205954580Y-97361295D01*
X205954580Y-97361295D02*
X205859342Y-97313676D01*
X205859342Y-97313676D02*
X205049819Y-97313676D01*
X205049819Y-96932723D02*
X205049819Y-96266057D01*
X205049819Y-96266057D02*
X206049819Y-96694628D01*
X201443019Y-102253999D02*
X201681114Y-102253999D01*
X201585876Y-102492094D02*
X201681114Y-102253999D01*
X201681114Y-102253999D02*
X201585876Y-102015904D01*
X201871590Y-102396856D02*
X201681114Y-102253999D01*
X201681114Y-102253999D02*
X201871590Y-102111142D01*
X201443019Y-102253999D02*
X201681114Y-102253999D01*
X201585876Y-102492094D02*
X201681114Y-102253999D01*
X201681114Y-102253999D02*
X201585876Y-102015904D01*
X201871590Y-102396856D02*
X201681114Y-102253999D01*
X201681114Y-102253999D02*
X201871590Y-102111142D01*
X246061905Y-104654819D02*
X246061905Y-103654819D01*
X246061905Y-103654819D02*
X246300000Y-103654819D01*
X246300000Y-103654819D02*
X246442857Y-103702438D01*
X246442857Y-103702438D02*
X246538095Y-103797676D01*
X246538095Y-103797676D02*
X246585714Y-103892914D01*
X246585714Y-103892914D02*
X246633333Y-104083390D01*
X246633333Y-104083390D02*
X246633333Y-104226247D01*
X246633333Y-104226247D02*
X246585714Y-104416723D01*
X246585714Y-104416723D02*
X246538095Y-104511961D01*
X246538095Y-104511961D02*
X246442857Y-104607200D01*
X246442857Y-104607200D02*
X246300000Y-104654819D01*
X246300000Y-104654819D02*
X246061905Y-104654819D01*
X247490476Y-103988152D02*
X247490476Y-104654819D01*
X247252381Y-103607200D02*
X247014286Y-104321485D01*
X247014286Y-104321485D02*
X247633333Y-104321485D01*
X214233333Y-126454819D02*
X213900000Y-125978628D01*
X213661905Y-126454819D02*
X213661905Y-125454819D01*
X213661905Y-125454819D02*
X214042857Y-125454819D01*
X214042857Y-125454819D02*
X214138095Y-125502438D01*
X214138095Y-125502438D02*
X214185714Y-125550057D01*
X214185714Y-125550057D02*
X214233333Y-125645295D01*
X214233333Y-125645295D02*
X214233333Y-125788152D01*
X214233333Y-125788152D02*
X214185714Y-125883390D01*
X214185714Y-125883390D02*
X214138095Y-125931009D01*
X214138095Y-125931009D02*
X214042857Y-125978628D01*
X214042857Y-125978628D02*
X213661905Y-125978628D01*
X215090476Y-125454819D02*
X214900000Y-125454819D01*
X214900000Y-125454819D02*
X214804762Y-125502438D01*
X214804762Y-125502438D02*
X214757143Y-125550057D01*
X214757143Y-125550057D02*
X214661905Y-125692914D01*
X214661905Y-125692914D02*
X214614286Y-125883390D01*
X214614286Y-125883390D02*
X214614286Y-126264342D01*
X214614286Y-126264342D02*
X214661905Y-126359580D01*
X214661905Y-126359580D02*
X214709524Y-126407200D01*
X214709524Y-126407200D02*
X214804762Y-126454819D01*
X214804762Y-126454819D02*
X214995238Y-126454819D01*
X214995238Y-126454819D02*
X215090476Y-126407200D01*
X215090476Y-126407200D02*
X215138095Y-126359580D01*
X215138095Y-126359580D02*
X215185714Y-126264342D01*
X215185714Y-126264342D02*
X215185714Y-126026247D01*
X215185714Y-126026247D02*
X215138095Y-125931009D01*
X215138095Y-125931009D02*
X215090476Y-125883390D01*
X215090476Y-125883390D02*
X214995238Y-125835771D01*
X214995238Y-125835771D02*
X214804762Y-125835771D01*
X214804762Y-125835771D02*
X214709524Y-125883390D01*
X214709524Y-125883390D02*
X214661905Y-125931009D01*
X214661905Y-125931009D02*
X214614286Y-126026247D01*
X198261905Y-75104819D02*
X198261905Y-75914342D01*
X198261905Y-75914342D02*
X198309524Y-76009580D01*
X198309524Y-76009580D02*
X198357143Y-76057200D01*
X198357143Y-76057200D02*
X198452381Y-76104819D01*
X198452381Y-76104819D02*
X198642857Y-76104819D01*
X198642857Y-76104819D02*
X198738095Y-76057200D01*
X198738095Y-76057200D02*
X198785714Y-76009580D01*
X198785714Y-76009580D02*
X198833333Y-75914342D01*
X198833333Y-75914342D02*
X198833333Y-75104819D01*
X199833333Y-76104819D02*
X199261905Y-76104819D01*
X199547619Y-76104819D02*
X199547619Y-75104819D01*
X199547619Y-75104819D02*
X199452381Y-75247676D01*
X199452381Y-75247676D02*
X199357143Y-75342914D01*
X199357143Y-75342914D02*
X199261905Y-75390533D01*
X200166667Y-75104819D02*
X200785714Y-75104819D01*
X200785714Y-75104819D02*
X200452381Y-75485771D01*
X200452381Y-75485771D02*
X200595238Y-75485771D01*
X200595238Y-75485771D02*
X200690476Y-75533390D01*
X200690476Y-75533390D02*
X200738095Y-75581009D01*
X200738095Y-75581009D02*
X200785714Y-75676247D01*
X200785714Y-75676247D02*
X200785714Y-75914342D01*
X200785714Y-75914342D02*
X200738095Y-76009580D01*
X200738095Y-76009580D02*
X200690476Y-76057200D01*
X200690476Y-76057200D02*
X200595238Y-76104819D01*
X200595238Y-76104819D02*
X200309524Y-76104819D01*
X200309524Y-76104819D02*
X200214286Y-76057200D01*
X200214286Y-76057200D02*
X200166667Y-76009580D01*
X218554819Y-99496904D02*
X219364342Y-99496904D01*
X219364342Y-99496904D02*
X219459580Y-99449285D01*
X219459580Y-99449285D02*
X219507200Y-99401666D01*
X219507200Y-99401666D02*
X219554819Y-99306428D01*
X219554819Y-99306428D02*
X219554819Y-99115952D01*
X219554819Y-99115952D02*
X219507200Y-99020714D01*
X219507200Y-99020714D02*
X219459580Y-98973095D01*
X219459580Y-98973095D02*
X219364342Y-98925476D01*
X219364342Y-98925476D02*
X218554819Y-98925476D01*
X218554819Y-97973095D02*
X218554819Y-98449285D01*
X218554819Y-98449285D02*
X219031009Y-98496904D01*
X219031009Y-98496904D02*
X218983390Y-98449285D01*
X218983390Y-98449285D02*
X218935771Y-98354047D01*
X218935771Y-98354047D02*
X218935771Y-98115952D01*
X218935771Y-98115952D02*
X218983390Y-98020714D01*
X218983390Y-98020714D02*
X219031009Y-97973095D01*
X219031009Y-97973095D02*
X219126247Y-97925476D01*
X219126247Y-97925476D02*
X219364342Y-97925476D01*
X219364342Y-97925476D02*
X219459580Y-97973095D01*
X219459580Y-97973095D02*
X219507200Y-98020714D01*
X219507200Y-98020714D02*
X219554819Y-98115952D01*
X219554819Y-98115952D02*
X219554819Y-98354047D01*
X219554819Y-98354047D02*
X219507200Y-98449285D01*
X219507200Y-98449285D02*
X219459580Y-98496904D01*
X237904761Y-79650057D02*
X237809523Y-79602438D01*
X237809523Y-79602438D02*
X237714285Y-79507200D01*
X237714285Y-79507200D02*
X237571428Y-79364342D01*
X237571428Y-79364342D02*
X237476190Y-79316723D01*
X237476190Y-79316723D02*
X237380952Y-79316723D01*
X237428571Y-79554819D02*
X237333333Y-79507200D01*
X237333333Y-79507200D02*
X237238095Y-79411961D01*
X237238095Y-79411961D02*
X237190476Y-79221485D01*
X237190476Y-79221485D02*
X237190476Y-78888152D01*
X237190476Y-78888152D02*
X237238095Y-78697676D01*
X237238095Y-78697676D02*
X237333333Y-78602438D01*
X237333333Y-78602438D02*
X237428571Y-78554819D01*
X237428571Y-78554819D02*
X237619047Y-78554819D01*
X237619047Y-78554819D02*
X237714285Y-78602438D01*
X237714285Y-78602438D02*
X237809523Y-78697676D01*
X237809523Y-78697676D02*
X237857142Y-78888152D01*
X237857142Y-78888152D02*
X237857142Y-79221485D01*
X237857142Y-79221485D02*
X237809523Y-79411961D01*
X237809523Y-79411961D02*
X237714285Y-79507200D01*
X237714285Y-79507200D02*
X237619047Y-79554819D01*
X237619047Y-79554819D02*
X237428571Y-79554819D01*
X238238095Y-78650057D02*
X238285714Y-78602438D01*
X238285714Y-78602438D02*
X238380952Y-78554819D01*
X238380952Y-78554819D02*
X238619047Y-78554819D01*
X238619047Y-78554819D02*
X238714285Y-78602438D01*
X238714285Y-78602438D02*
X238761904Y-78650057D01*
X238761904Y-78650057D02*
X238809523Y-78745295D01*
X238809523Y-78745295D02*
X238809523Y-78840533D01*
X238809523Y-78840533D02*
X238761904Y-78983390D01*
X238761904Y-78983390D02*
X238190476Y-79554819D01*
X238190476Y-79554819D02*
X238809523Y-79554819D01*
X224757141Y-58792319D02*
X224280951Y-58792319D01*
X224280951Y-58792319D02*
X224280951Y-57792319D01*
X224947618Y-57792319D02*
X225280951Y-58792319D01*
X225280951Y-58792319D02*
X225614284Y-57792319D01*
X227042856Y-58268509D02*
X227185713Y-58316128D01*
X227185713Y-58316128D02*
X227233332Y-58363747D01*
X227233332Y-58363747D02*
X227280951Y-58458985D01*
X227280951Y-58458985D02*
X227280951Y-58601842D01*
X227280951Y-58601842D02*
X227233332Y-58697080D01*
X227233332Y-58697080D02*
X227185713Y-58744700D01*
X227185713Y-58744700D02*
X227090475Y-58792319D01*
X227090475Y-58792319D02*
X226709523Y-58792319D01*
X226709523Y-58792319D02*
X226709523Y-57792319D01*
X226709523Y-57792319D02*
X227042856Y-57792319D01*
X227042856Y-57792319D02*
X227138094Y-57839938D01*
X227138094Y-57839938D02*
X227185713Y-57887557D01*
X227185713Y-57887557D02*
X227233332Y-57982795D01*
X227233332Y-57982795D02*
X227233332Y-58078033D01*
X227233332Y-58078033D02*
X227185713Y-58173271D01*
X227185713Y-58173271D02*
X227138094Y-58220890D01*
X227138094Y-58220890D02*
X227042856Y-58268509D01*
X227042856Y-58268509D02*
X226709523Y-58268509D01*
X228138094Y-58792319D02*
X228138094Y-58268509D01*
X228138094Y-58268509D02*
X228090475Y-58173271D01*
X228090475Y-58173271D02*
X227995237Y-58125652D01*
X227995237Y-58125652D02*
X227804761Y-58125652D01*
X227804761Y-58125652D02*
X227709523Y-58173271D01*
X228138094Y-58744700D02*
X228042856Y-58792319D01*
X228042856Y-58792319D02*
X227804761Y-58792319D01*
X227804761Y-58792319D02*
X227709523Y-58744700D01*
X227709523Y-58744700D02*
X227661904Y-58649461D01*
X227661904Y-58649461D02*
X227661904Y-58554223D01*
X227661904Y-58554223D02*
X227709523Y-58458985D01*
X227709523Y-58458985D02*
X227804761Y-58411366D01*
X227804761Y-58411366D02*
X228042856Y-58411366D01*
X228042856Y-58411366D02*
X228138094Y-58363747D01*
X228471428Y-58125652D02*
X228852380Y-58125652D01*
X228614285Y-57792319D02*
X228614285Y-58649461D01*
X228614285Y-58649461D02*
X228661904Y-58744700D01*
X228661904Y-58744700D02*
X228757142Y-58792319D01*
X228757142Y-58792319D02*
X228852380Y-58792319D01*
X229042857Y-58125652D02*
X229423809Y-58125652D01*
X229185714Y-57792319D02*
X229185714Y-58649461D01*
X229185714Y-58649461D02*
X229233333Y-58744700D01*
X229233333Y-58744700D02*
X229328571Y-58792319D01*
X229328571Y-58792319D02*
X229423809Y-58792319D01*
X230138095Y-58744700D02*
X230042857Y-58792319D01*
X230042857Y-58792319D02*
X229852381Y-58792319D01*
X229852381Y-58792319D02*
X229757143Y-58744700D01*
X229757143Y-58744700D02*
X229709524Y-58649461D01*
X229709524Y-58649461D02*
X229709524Y-58268509D01*
X229709524Y-58268509D02*
X229757143Y-58173271D01*
X229757143Y-58173271D02*
X229852381Y-58125652D01*
X229852381Y-58125652D02*
X230042857Y-58125652D01*
X230042857Y-58125652D02*
X230138095Y-58173271D01*
X230138095Y-58173271D02*
X230185714Y-58268509D01*
X230185714Y-58268509D02*
X230185714Y-58363747D01*
X230185714Y-58363747D02*
X229709524Y-58458985D01*
X230614286Y-58792319D02*
X230614286Y-58125652D01*
X230614286Y-58316128D02*
X230661905Y-58220890D01*
X230661905Y-58220890D02*
X230709524Y-58173271D01*
X230709524Y-58173271D02*
X230804762Y-58125652D01*
X230804762Y-58125652D02*
X230900000Y-58125652D01*
X231138096Y-58125652D02*
X231376191Y-58792319D01*
X231614286Y-58125652D02*
X231376191Y-58792319D01*
X231376191Y-58792319D02*
X231280953Y-59030414D01*
X231280953Y-59030414D02*
X231233334Y-59078033D01*
X231233334Y-59078033D02*
X231138096Y-59125652D01*
X212654819Y-99461904D02*
X213464342Y-99461904D01*
X213464342Y-99461904D02*
X213559580Y-99414285D01*
X213559580Y-99414285D02*
X213607200Y-99366666D01*
X213607200Y-99366666D02*
X213654819Y-99271428D01*
X213654819Y-99271428D02*
X213654819Y-99080952D01*
X213654819Y-99080952D02*
X213607200Y-98985714D01*
X213607200Y-98985714D02*
X213559580Y-98938095D01*
X213559580Y-98938095D02*
X213464342Y-98890476D01*
X213464342Y-98890476D02*
X212654819Y-98890476D01*
X212654819Y-97985714D02*
X212654819Y-98176190D01*
X212654819Y-98176190D02*
X212702438Y-98271428D01*
X212702438Y-98271428D02*
X212750057Y-98319047D01*
X212750057Y-98319047D02*
X212892914Y-98414285D01*
X212892914Y-98414285D02*
X213083390Y-98461904D01*
X213083390Y-98461904D02*
X213464342Y-98461904D01*
X213464342Y-98461904D02*
X213559580Y-98414285D01*
X213559580Y-98414285D02*
X213607200Y-98366666D01*
X213607200Y-98366666D02*
X213654819Y-98271428D01*
X213654819Y-98271428D02*
X213654819Y-98080952D01*
X213654819Y-98080952D02*
X213607200Y-97985714D01*
X213607200Y-97985714D02*
X213559580Y-97938095D01*
X213559580Y-97938095D02*
X213464342Y-97890476D01*
X213464342Y-97890476D02*
X213226247Y-97890476D01*
X213226247Y-97890476D02*
X213131009Y-97938095D01*
X213131009Y-97938095D02*
X213083390Y-97985714D01*
X213083390Y-97985714D02*
X213035771Y-98080952D01*
X213035771Y-98080952D02*
X213035771Y-98271428D01*
X213035771Y-98271428D02*
X213083390Y-98366666D01*
X213083390Y-98366666D02*
X213131009Y-98414285D01*
X213131009Y-98414285D02*
X213226247Y-98461904D01*
X195557142Y-115359580D02*
X195509523Y-115407200D01*
X195509523Y-115407200D02*
X195366666Y-115454819D01*
X195366666Y-115454819D02*
X195271428Y-115454819D01*
X195271428Y-115454819D02*
X195128571Y-115407200D01*
X195128571Y-115407200D02*
X195033333Y-115311961D01*
X195033333Y-115311961D02*
X194985714Y-115216723D01*
X194985714Y-115216723D02*
X194938095Y-115026247D01*
X194938095Y-115026247D02*
X194938095Y-114883390D01*
X194938095Y-114883390D02*
X194985714Y-114692914D01*
X194985714Y-114692914D02*
X195033333Y-114597676D01*
X195033333Y-114597676D02*
X195128571Y-114502438D01*
X195128571Y-114502438D02*
X195271428Y-114454819D01*
X195271428Y-114454819D02*
X195366666Y-114454819D01*
X195366666Y-114454819D02*
X195509523Y-114502438D01*
X195509523Y-114502438D02*
X195557142Y-114550057D01*
X196509523Y-115454819D02*
X195938095Y-115454819D01*
X196223809Y-115454819D02*
X196223809Y-114454819D01*
X196223809Y-114454819D02*
X196128571Y-114597676D01*
X196128571Y-114597676D02*
X196033333Y-114692914D01*
X196033333Y-114692914D02*
X195938095Y-114740533D01*
X197414285Y-114454819D02*
X196938095Y-114454819D01*
X196938095Y-114454819D02*
X196890476Y-114931009D01*
X196890476Y-114931009D02*
X196938095Y-114883390D01*
X196938095Y-114883390D02*
X197033333Y-114835771D01*
X197033333Y-114835771D02*
X197271428Y-114835771D01*
X197271428Y-114835771D02*
X197366666Y-114883390D01*
X197366666Y-114883390D02*
X197414285Y-114931009D01*
X197414285Y-114931009D02*
X197461904Y-115026247D01*
X197461904Y-115026247D02*
X197461904Y-115264342D01*
X197461904Y-115264342D02*
X197414285Y-115359580D01*
X197414285Y-115359580D02*
X197366666Y-115407200D01*
X197366666Y-115407200D02*
X197271428Y-115454819D01*
X197271428Y-115454819D02*
X197033333Y-115454819D01*
X197033333Y-115454819D02*
X196938095Y-115407200D01*
X196938095Y-115407200D02*
X196890476Y-115359580D01*
X203754819Y-113242857D02*
X203278628Y-113576190D01*
X203754819Y-113814285D02*
X202754819Y-113814285D01*
X202754819Y-113814285D02*
X202754819Y-113433333D01*
X202754819Y-113433333D02*
X202802438Y-113338095D01*
X202802438Y-113338095D02*
X202850057Y-113290476D01*
X202850057Y-113290476D02*
X202945295Y-113242857D01*
X202945295Y-113242857D02*
X203088152Y-113242857D01*
X203088152Y-113242857D02*
X203183390Y-113290476D01*
X203183390Y-113290476D02*
X203231009Y-113338095D01*
X203231009Y-113338095D02*
X203278628Y-113433333D01*
X203278628Y-113433333D02*
X203278628Y-113814285D01*
X203754819Y-112290476D02*
X203754819Y-112861904D01*
X203754819Y-112576190D02*
X202754819Y-112576190D01*
X202754819Y-112576190D02*
X202897676Y-112671428D01*
X202897676Y-112671428D02*
X202992914Y-112766666D01*
X202992914Y-112766666D02*
X203040533Y-112861904D01*
X203183390Y-111719047D02*
X203135771Y-111814285D01*
X203135771Y-111814285D02*
X203088152Y-111861904D01*
X203088152Y-111861904D02*
X202992914Y-111909523D01*
X202992914Y-111909523D02*
X202945295Y-111909523D01*
X202945295Y-111909523D02*
X202850057Y-111861904D01*
X202850057Y-111861904D02*
X202802438Y-111814285D01*
X202802438Y-111814285D02*
X202754819Y-111719047D01*
X202754819Y-111719047D02*
X202754819Y-111528571D01*
X202754819Y-111528571D02*
X202802438Y-111433333D01*
X202802438Y-111433333D02*
X202850057Y-111385714D01*
X202850057Y-111385714D02*
X202945295Y-111338095D01*
X202945295Y-111338095D02*
X202992914Y-111338095D01*
X202992914Y-111338095D02*
X203088152Y-111385714D01*
X203088152Y-111385714D02*
X203135771Y-111433333D01*
X203135771Y-111433333D02*
X203183390Y-111528571D01*
X203183390Y-111528571D02*
X203183390Y-111719047D01*
X203183390Y-111719047D02*
X203231009Y-111814285D01*
X203231009Y-111814285D02*
X203278628Y-111861904D01*
X203278628Y-111861904D02*
X203373866Y-111909523D01*
X203373866Y-111909523D02*
X203564342Y-111909523D01*
X203564342Y-111909523D02*
X203659580Y-111861904D01*
X203659580Y-111861904D02*
X203707200Y-111814285D01*
X203707200Y-111814285D02*
X203754819Y-111719047D01*
X203754819Y-111719047D02*
X203754819Y-111528571D01*
X203754819Y-111528571D02*
X203707200Y-111433333D01*
X203707200Y-111433333D02*
X203659580Y-111385714D01*
X203659580Y-111385714D02*
X203564342Y-111338095D01*
X203564342Y-111338095D02*
X203373866Y-111338095D01*
X203373866Y-111338095D02*
X203278628Y-111385714D01*
X203278628Y-111385714D02*
X203231009Y-111433333D01*
X203231009Y-111433333D02*
X203183390Y-111528571D01*
X228238095Y-70494819D02*
X228238095Y-71304342D01*
X228238095Y-71304342D02*
X228285714Y-71399580D01*
X228285714Y-71399580D02*
X228333333Y-71447200D01*
X228333333Y-71447200D02*
X228428571Y-71494819D01*
X228428571Y-71494819D02*
X228619047Y-71494819D01*
X228619047Y-71494819D02*
X228714285Y-71447200D01*
X228714285Y-71447200D02*
X228761904Y-71399580D01*
X228761904Y-71399580D02*
X228809523Y-71304342D01*
X228809523Y-71304342D02*
X228809523Y-70494819D01*
X229809523Y-71494819D02*
X229238095Y-71494819D01*
X229523809Y-71494819D02*
X229523809Y-70494819D01*
X229523809Y-70494819D02*
X229428571Y-70637676D01*
X229428571Y-70637676D02*
X229333333Y-70732914D01*
X229333333Y-70732914D02*
X229238095Y-70780533D01*
X213254819Y-84238094D02*
X214064342Y-84238094D01*
X214064342Y-84238094D02*
X214159580Y-84190475D01*
X214159580Y-84190475D02*
X214207200Y-84142856D01*
X214207200Y-84142856D02*
X214254819Y-84047618D01*
X214254819Y-84047618D02*
X214254819Y-83857142D01*
X214254819Y-83857142D02*
X214207200Y-83761904D01*
X214207200Y-83761904D02*
X214159580Y-83714285D01*
X214159580Y-83714285D02*
X214064342Y-83666666D01*
X214064342Y-83666666D02*
X213254819Y-83666666D01*
X214254819Y-82666666D02*
X214254819Y-83238094D01*
X214254819Y-82952380D02*
X213254819Y-82952380D01*
X213254819Y-82952380D02*
X213397676Y-83047618D01*
X213397676Y-83047618D02*
X213492914Y-83142856D01*
X213492914Y-83142856D02*
X213540533Y-83238094D01*
X213350057Y-82285713D02*
X213302438Y-82238094D01*
X213302438Y-82238094D02*
X213254819Y-82142856D01*
X213254819Y-82142856D02*
X213254819Y-81904761D01*
X213254819Y-81904761D02*
X213302438Y-81809523D01*
X213302438Y-81809523D02*
X213350057Y-81761904D01*
X213350057Y-81761904D02*
X213445295Y-81714285D01*
X213445295Y-81714285D02*
X213540533Y-81714285D01*
X213540533Y-81714285D02*
X213683390Y-81761904D01*
X213683390Y-81761904D02*
X214254819Y-82333332D01*
X214254819Y-82333332D02*
X214254819Y-81714285D01*
X206154819Y-110161904D02*
X206964342Y-110161904D01*
X206964342Y-110161904D02*
X207059580Y-110114285D01*
X207059580Y-110114285D02*
X207107200Y-110066666D01*
X207107200Y-110066666D02*
X207154819Y-109971428D01*
X207154819Y-109971428D02*
X207154819Y-109780952D01*
X207154819Y-109780952D02*
X207107200Y-109685714D01*
X207107200Y-109685714D02*
X207059580Y-109638095D01*
X207059580Y-109638095D02*
X206964342Y-109590476D01*
X206964342Y-109590476D02*
X206154819Y-109590476D01*
X206488152Y-108685714D02*
X207154819Y-108685714D01*
X206107200Y-108923809D02*
X206821485Y-109161904D01*
X206821485Y-109161904D02*
X206821485Y-108542857D01*
X221657142Y-106954819D02*
X221323809Y-106478628D01*
X221085714Y-106954819D02*
X221085714Y-105954819D01*
X221085714Y-105954819D02*
X221466666Y-105954819D01*
X221466666Y-105954819D02*
X221561904Y-106002438D01*
X221561904Y-106002438D02*
X221609523Y-106050057D01*
X221609523Y-106050057D02*
X221657142Y-106145295D01*
X221657142Y-106145295D02*
X221657142Y-106288152D01*
X221657142Y-106288152D02*
X221609523Y-106383390D01*
X221609523Y-106383390D02*
X221561904Y-106431009D01*
X221561904Y-106431009D02*
X221466666Y-106478628D01*
X221466666Y-106478628D02*
X221085714Y-106478628D01*
X222609523Y-106954819D02*
X222038095Y-106954819D01*
X222323809Y-106954819D02*
X222323809Y-105954819D01*
X222323809Y-105954819D02*
X222228571Y-106097676D01*
X222228571Y-106097676D02*
X222133333Y-106192914D01*
X222133333Y-106192914D02*
X222038095Y-106240533D01*
X223085714Y-106954819D02*
X223276190Y-106954819D01*
X223276190Y-106954819D02*
X223371428Y-106907200D01*
X223371428Y-106907200D02*
X223419047Y-106859580D01*
X223419047Y-106859580D02*
X223514285Y-106716723D01*
X223514285Y-106716723D02*
X223561904Y-106526247D01*
X223561904Y-106526247D02*
X223561904Y-106145295D01*
X223561904Y-106145295D02*
X223514285Y-106050057D01*
X223514285Y-106050057D02*
X223466666Y-106002438D01*
X223466666Y-106002438D02*
X223371428Y-105954819D01*
X223371428Y-105954819D02*
X223180952Y-105954819D01*
X223180952Y-105954819D02*
X223085714Y-106002438D01*
X223085714Y-106002438D02*
X223038095Y-106050057D01*
X223038095Y-106050057D02*
X222990476Y-106145295D01*
X222990476Y-106145295D02*
X222990476Y-106383390D01*
X222990476Y-106383390D02*
X223038095Y-106478628D01*
X223038095Y-106478628D02*
X223085714Y-106526247D01*
X223085714Y-106526247D02*
X223180952Y-106573866D01*
X223180952Y-106573866D02*
X223371428Y-106573866D01*
X223371428Y-106573866D02*
X223466666Y-106526247D01*
X223466666Y-106526247D02*
X223514285Y-106478628D01*
X223514285Y-106478628D02*
X223561904Y-106383390D01*
X189159580Y-76942857D02*
X189207200Y-76990476D01*
X189207200Y-76990476D02*
X189254819Y-77133333D01*
X189254819Y-77133333D02*
X189254819Y-77228571D01*
X189254819Y-77228571D02*
X189207200Y-77371428D01*
X189207200Y-77371428D02*
X189111961Y-77466666D01*
X189111961Y-77466666D02*
X189016723Y-77514285D01*
X189016723Y-77514285D02*
X188826247Y-77561904D01*
X188826247Y-77561904D02*
X188683390Y-77561904D01*
X188683390Y-77561904D02*
X188492914Y-77514285D01*
X188492914Y-77514285D02*
X188397676Y-77466666D01*
X188397676Y-77466666D02*
X188302438Y-77371428D01*
X188302438Y-77371428D02*
X188254819Y-77228571D01*
X188254819Y-77228571D02*
X188254819Y-77133333D01*
X188254819Y-77133333D02*
X188302438Y-76990476D01*
X188302438Y-76990476D02*
X188350057Y-76942857D01*
X188254819Y-76609523D02*
X188254819Y-75990476D01*
X188254819Y-75990476D02*
X188635771Y-76323809D01*
X188635771Y-76323809D02*
X188635771Y-76180952D01*
X188635771Y-76180952D02*
X188683390Y-76085714D01*
X188683390Y-76085714D02*
X188731009Y-76038095D01*
X188731009Y-76038095D02*
X188826247Y-75990476D01*
X188826247Y-75990476D02*
X189064342Y-75990476D01*
X189064342Y-75990476D02*
X189159580Y-76038095D01*
X189159580Y-76038095D02*
X189207200Y-76085714D01*
X189207200Y-76085714D02*
X189254819Y-76180952D01*
X189254819Y-76180952D02*
X189254819Y-76466666D01*
X189254819Y-76466666D02*
X189207200Y-76561904D01*
X189207200Y-76561904D02*
X189159580Y-76609523D01*
X188350057Y-75609523D02*
X188302438Y-75561904D01*
X188302438Y-75561904D02*
X188254819Y-75466666D01*
X188254819Y-75466666D02*
X188254819Y-75228571D01*
X188254819Y-75228571D02*
X188302438Y-75133333D01*
X188302438Y-75133333D02*
X188350057Y-75085714D01*
X188350057Y-75085714D02*
X188445295Y-75038095D01*
X188445295Y-75038095D02*
X188540533Y-75038095D01*
X188540533Y-75038095D02*
X188683390Y-75085714D01*
X188683390Y-75085714D02*
X189254819Y-75657142D01*
X189254819Y-75657142D02*
X189254819Y-75038095D01*
X214283333Y-138454819D02*
X213950000Y-137978628D01*
X213711905Y-138454819D02*
X213711905Y-137454819D01*
X213711905Y-137454819D02*
X214092857Y-137454819D01*
X214092857Y-137454819D02*
X214188095Y-137502438D01*
X214188095Y-137502438D02*
X214235714Y-137550057D01*
X214235714Y-137550057D02*
X214283333Y-137645295D01*
X214283333Y-137645295D02*
X214283333Y-137788152D01*
X214283333Y-137788152D02*
X214235714Y-137883390D01*
X214235714Y-137883390D02*
X214188095Y-137931009D01*
X214188095Y-137931009D02*
X214092857Y-137978628D01*
X214092857Y-137978628D02*
X213711905Y-137978628D01*
X214759524Y-138454819D02*
X214950000Y-138454819D01*
X214950000Y-138454819D02*
X215045238Y-138407200D01*
X215045238Y-138407200D02*
X215092857Y-138359580D01*
X215092857Y-138359580D02*
X215188095Y-138216723D01*
X215188095Y-138216723D02*
X215235714Y-138026247D01*
X215235714Y-138026247D02*
X215235714Y-137645295D01*
X215235714Y-137645295D02*
X215188095Y-137550057D01*
X215188095Y-137550057D02*
X215140476Y-137502438D01*
X215140476Y-137502438D02*
X215045238Y-137454819D01*
X215045238Y-137454819D02*
X214854762Y-137454819D01*
X214854762Y-137454819D02*
X214759524Y-137502438D01*
X214759524Y-137502438D02*
X214711905Y-137550057D01*
X214711905Y-137550057D02*
X214664286Y-137645295D01*
X214664286Y-137645295D02*
X214664286Y-137883390D01*
X214664286Y-137883390D02*
X214711905Y-137978628D01*
X214711905Y-137978628D02*
X214759524Y-138026247D01*
X214759524Y-138026247D02*
X214854762Y-138073866D01*
X214854762Y-138073866D02*
X215045238Y-138073866D01*
X215045238Y-138073866D02*
X215140476Y-138026247D01*
X215140476Y-138026247D02*
X215188095Y-137978628D01*
X215188095Y-137978628D02*
X215235714Y-137883390D01*
X213857142Y-142454819D02*
X213523809Y-141978628D01*
X213285714Y-142454819D02*
X213285714Y-141454819D01*
X213285714Y-141454819D02*
X213666666Y-141454819D01*
X213666666Y-141454819D02*
X213761904Y-141502438D01*
X213761904Y-141502438D02*
X213809523Y-141550057D01*
X213809523Y-141550057D02*
X213857142Y-141645295D01*
X213857142Y-141645295D02*
X213857142Y-141788152D01*
X213857142Y-141788152D02*
X213809523Y-141883390D01*
X213809523Y-141883390D02*
X213761904Y-141931009D01*
X213761904Y-141931009D02*
X213666666Y-141978628D01*
X213666666Y-141978628D02*
X213285714Y-141978628D01*
X214809523Y-142454819D02*
X214238095Y-142454819D01*
X214523809Y-142454819D02*
X214523809Y-141454819D01*
X214523809Y-141454819D02*
X214428571Y-141597676D01*
X214428571Y-141597676D02*
X214333333Y-141692914D01*
X214333333Y-141692914D02*
X214238095Y-141740533D01*
X215428571Y-141454819D02*
X215523809Y-141454819D01*
X215523809Y-141454819D02*
X215619047Y-141502438D01*
X215619047Y-141502438D02*
X215666666Y-141550057D01*
X215666666Y-141550057D02*
X215714285Y-141645295D01*
X215714285Y-141645295D02*
X215761904Y-141835771D01*
X215761904Y-141835771D02*
X215761904Y-142073866D01*
X215761904Y-142073866D02*
X215714285Y-142264342D01*
X215714285Y-142264342D02*
X215666666Y-142359580D01*
X215666666Y-142359580D02*
X215619047Y-142407200D01*
X215619047Y-142407200D02*
X215523809Y-142454819D01*
X215523809Y-142454819D02*
X215428571Y-142454819D01*
X215428571Y-142454819D02*
X215333333Y-142407200D01*
X215333333Y-142407200D02*
X215285714Y-142359580D01*
X215285714Y-142359580D02*
X215238095Y-142264342D01*
X215238095Y-142264342D02*
X215190476Y-142073866D01*
X215190476Y-142073866D02*
X215190476Y-141835771D01*
X215190476Y-141835771D02*
X215238095Y-141645295D01*
X215238095Y-141645295D02*
X215285714Y-141550057D01*
X215285714Y-141550057D02*
X215333333Y-141502438D01*
X215333333Y-141502438D02*
X215428571Y-141454819D01*
X198657142Y-63859580D02*
X198609523Y-63907200D01*
X198609523Y-63907200D02*
X198466666Y-63954819D01*
X198466666Y-63954819D02*
X198371428Y-63954819D01*
X198371428Y-63954819D02*
X198228571Y-63907200D01*
X198228571Y-63907200D02*
X198133333Y-63811961D01*
X198133333Y-63811961D02*
X198085714Y-63716723D01*
X198085714Y-63716723D02*
X198038095Y-63526247D01*
X198038095Y-63526247D02*
X198038095Y-63383390D01*
X198038095Y-63383390D02*
X198085714Y-63192914D01*
X198085714Y-63192914D02*
X198133333Y-63097676D01*
X198133333Y-63097676D02*
X198228571Y-63002438D01*
X198228571Y-63002438D02*
X198371428Y-62954819D01*
X198371428Y-62954819D02*
X198466666Y-62954819D01*
X198466666Y-62954819D02*
X198609523Y-63002438D01*
X198609523Y-63002438D02*
X198657142Y-63050057D01*
X198990476Y-62954819D02*
X199609523Y-62954819D01*
X199609523Y-62954819D02*
X199276190Y-63335771D01*
X199276190Y-63335771D02*
X199419047Y-63335771D01*
X199419047Y-63335771D02*
X199514285Y-63383390D01*
X199514285Y-63383390D02*
X199561904Y-63431009D01*
X199561904Y-63431009D02*
X199609523Y-63526247D01*
X199609523Y-63526247D02*
X199609523Y-63764342D01*
X199609523Y-63764342D02*
X199561904Y-63859580D01*
X199561904Y-63859580D02*
X199514285Y-63907200D01*
X199514285Y-63907200D02*
X199419047Y-63954819D01*
X199419047Y-63954819D02*
X199133333Y-63954819D01*
X199133333Y-63954819D02*
X199038095Y-63907200D01*
X199038095Y-63907200D02*
X198990476Y-63859580D01*
X200228571Y-62954819D02*
X200323809Y-62954819D01*
X200323809Y-62954819D02*
X200419047Y-63002438D01*
X200419047Y-63002438D02*
X200466666Y-63050057D01*
X200466666Y-63050057D02*
X200514285Y-63145295D01*
X200514285Y-63145295D02*
X200561904Y-63335771D01*
X200561904Y-63335771D02*
X200561904Y-63573866D01*
X200561904Y-63573866D02*
X200514285Y-63764342D01*
X200514285Y-63764342D02*
X200466666Y-63859580D01*
X200466666Y-63859580D02*
X200419047Y-63907200D01*
X200419047Y-63907200D02*
X200323809Y-63954819D01*
X200323809Y-63954819D02*
X200228571Y-63954819D01*
X200228571Y-63954819D02*
X200133333Y-63907200D01*
X200133333Y-63907200D02*
X200085714Y-63859580D01*
X200085714Y-63859580D02*
X200038095Y-63764342D01*
X200038095Y-63764342D02*
X199990476Y-63573866D01*
X199990476Y-63573866D02*
X199990476Y-63335771D01*
X199990476Y-63335771D02*
X200038095Y-63145295D01*
X200038095Y-63145295D02*
X200085714Y-63050057D01*
X200085714Y-63050057D02*
X200133333Y-63002438D01*
X200133333Y-63002438D02*
X200228571Y-62954819D01*
X237604761Y-84450057D02*
X237509523Y-84402438D01*
X237509523Y-84402438D02*
X237414285Y-84307200D01*
X237414285Y-84307200D02*
X237271428Y-84164342D01*
X237271428Y-84164342D02*
X237176190Y-84116723D01*
X237176190Y-84116723D02*
X237080952Y-84116723D01*
X237128571Y-84354819D02*
X237033333Y-84307200D01*
X237033333Y-84307200D02*
X236938095Y-84211961D01*
X236938095Y-84211961D02*
X236890476Y-84021485D01*
X236890476Y-84021485D02*
X236890476Y-83688152D01*
X236890476Y-83688152D02*
X236938095Y-83497676D01*
X236938095Y-83497676D02*
X237033333Y-83402438D01*
X237033333Y-83402438D02*
X237128571Y-83354819D01*
X237128571Y-83354819D02*
X237319047Y-83354819D01*
X237319047Y-83354819D02*
X237414285Y-83402438D01*
X237414285Y-83402438D02*
X237509523Y-83497676D01*
X237509523Y-83497676D02*
X237557142Y-83688152D01*
X237557142Y-83688152D02*
X237557142Y-84021485D01*
X237557142Y-84021485D02*
X237509523Y-84211961D01*
X237509523Y-84211961D02*
X237414285Y-84307200D01*
X237414285Y-84307200D02*
X237319047Y-84354819D01*
X237319047Y-84354819D02*
X237128571Y-84354819D01*
X238509523Y-84354819D02*
X237938095Y-84354819D01*
X238223809Y-84354819D02*
X238223809Y-83354819D01*
X238223809Y-83354819D02*
X238128571Y-83497676D01*
X238128571Y-83497676D02*
X238033333Y-83592914D01*
X238033333Y-83592914D02*
X237938095Y-83640533D01*
X248959580Y-62142857D02*
X249007200Y-62190476D01*
X249007200Y-62190476D02*
X249054819Y-62333333D01*
X249054819Y-62333333D02*
X249054819Y-62428571D01*
X249054819Y-62428571D02*
X249007200Y-62571428D01*
X249007200Y-62571428D02*
X248911961Y-62666666D01*
X248911961Y-62666666D02*
X248816723Y-62714285D01*
X248816723Y-62714285D02*
X248626247Y-62761904D01*
X248626247Y-62761904D02*
X248483390Y-62761904D01*
X248483390Y-62761904D02*
X248292914Y-62714285D01*
X248292914Y-62714285D02*
X248197676Y-62666666D01*
X248197676Y-62666666D02*
X248102438Y-62571428D01*
X248102438Y-62571428D02*
X248054819Y-62428571D01*
X248054819Y-62428571D02*
X248054819Y-62333333D01*
X248054819Y-62333333D02*
X248102438Y-62190476D01*
X248102438Y-62190476D02*
X248150057Y-62142857D01*
X248054819Y-61809523D02*
X248054819Y-61190476D01*
X248054819Y-61190476D02*
X248435771Y-61523809D01*
X248435771Y-61523809D02*
X248435771Y-61380952D01*
X248435771Y-61380952D02*
X248483390Y-61285714D01*
X248483390Y-61285714D02*
X248531009Y-61238095D01*
X248531009Y-61238095D02*
X248626247Y-61190476D01*
X248626247Y-61190476D02*
X248864342Y-61190476D01*
X248864342Y-61190476D02*
X248959580Y-61238095D01*
X248959580Y-61238095D02*
X249007200Y-61285714D01*
X249007200Y-61285714D02*
X249054819Y-61380952D01*
X249054819Y-61380952D02*
X249054819Y-61666666D01*
X249054819Y-61666666D02*
X249007200Y-61761904D01*
X249007200Y-61761904D02*
X248959580Y-61809523D01*
X248388152Y-60333333D02*
X249054819Y-60333333D01*
X248007200Y-60571428D02*
X248721485Y-60809523D01*
X248721485Y-60809523D02*
X248721485Y-60190476D01*
X217454819Y-115892857D02*
X216978628Y-116226190D01*
X217454819Y-116464285D02*
X216454819Y-116464285D01*
X216454819Y-116464285D02*
X216454819Y-116083333D01*
X216454819Y-116083333D02*
X216502438Y-115988095D01*
X216502438Y-115988095D02*
X216550057Y-115940476D01*
X216550057Y-115940476D02*
X216645295Y-115892857D01*
X216645295Y-115892857D02*
X216788152Y-115892857D01*
X216788152Y-115892857D02*
X216883390Y-115940476D01*
X216883390Y-115940476D02*
X216931009Y-115988095D01*
X216931009Y-115988095D02*
X216978628Y-116083333D01*
X216978628Y-116083333D02*
X216978628Y-116464285D01*
X217454819Y-114940476D02*
X217454819Y-115511904D01*
X217454819Y-115226190D02*
X216454819Y-115226190D01*
X216454819Y-115226190D02*
X216597676Y-115321428D01*
X216597676Y-115321428D02*
X216692914Y-115416666D01*
X216692914Y-115416666D02*
X216740533Y-115511904D01*
X216454819Y-114607142D02*
X216454819Y-113988095D01*
X216454819Y-113988095D02*
X216835771Y-114321428D01*
X216835771Y-114321428D02*
X216835771Y-114178571D01*
X216835771Y-114178571D02*
X216883390Y-114083333D01*
X216883390Y-114083333D02*
X216931009Y-114035714D01*
X216931009Y-114035714D02*
X217026247Y-113988095D01*
X217026247Y-113988095D02*
X217264342Y-113988095D01*
X217264342Y-113988095D02*
X217359580Y-114035714D01*
X217359580Y-114035714D02*
X217407200Y-114083333D01*
X217407200Y-114083333D02*
X217454819Y-114178571D01*
X217454819Y-114178571D02*
X217454819Y-114464285D01*
X217454819Y-114464285D02*
X217407200Y-114559523D01*
X217407200Y-114559523D02*
X217359580Y-114607142D01*
X214283333Y-134454819D02*
X213950000Y-133978628D01*
X213711905Y-134454819D02*
X213711905Y-133454819D01*
X213711905Y-133454819D02*
X214092857Y-133454819D01*
X214092857Y-133454819D02*
X214188095Y-133502438D01*
X214188095Y-133502438D02*
X214235714Y-133550057D01*
X214235714Y-133550057D02*
X214283333Y-133645295D01*
X214283333Y-133645295D02*
X214283333Y-133788152D01*
X214283333Y-133788152D02*
X214235714Y-133883390D01*
X214235714Y-133883390D02*
X214188095Y-133931009D01*
X214188095Y-133931009D02*
X214092857Y-133978628D01*
X214092857Y-133978628D02*
X213711905Y-133978628D01*
X214854762Y-133883390D02*
X214759524Y-133835771D01*
X214759524Y-133835771D02*
X214711905Y-133788152D01*
X214711905Y-133788152D02*
X214664286Y-133692914D01*
X214664286Y-133692914D02*
X214664286Y-133645295D01*
X214664286Y-133645295D02*
X214711905Y-133550057D01*
X214711905Y-133550057D02*
X214759524Y-133502438D01*
X214759524Y-133502438D02*
X214854762Y-133454819D01*
X214854762Y-133454819D02*
X215045238Y-133454819D01*
X215045238Y-133454819D02*
X215140476Y-133502438D01*
X215140476Y-133502438D02*
X215188095Y-133550057D01*
X215188095Y-133550057D02*
X215235714Y-133645295D01*
X215235714Y-133645295D02*
X215235714Y-133692914D01*
X215235714Y-133692914D02*
X215188095Y-133788152D01*
X215188095Y-133788152D02*
X215140476Y-133835771D01*
X215140476Y-133835771D02*
X215045238Y-133883390D01*
X215045238Y-133883390D02*
X214854762Y-133883390D01*
X214854762Y-133883390D02*
X214759524Y-133931009D01*
X214759524Y-133931009D02*
X214711905Y-133978628D01*
X214711905Y-133978628D02*
X214664286Y-134073866D01*
X214664286Y-134073866D02*
X214664286Y-134264342D01*
X214664286Y-134264342D02*
X214711905Y-134359580D01*
X214711905Y-134359580D02*
X214759524Y-134407200D01*
X214759524Y-134407200D02*
X214854762Y-134454819D01*
X214854762Y-134454819D02*
X215045238Y-134454819D01*
X215045238Y-134454819D02*
X215140476Y-134407200D01*
X215140476Y-134407200D02*
X215188095Y-134359580D01*
X215188095Y-134359580D02*
X215235714Y-134264342D01*
X215235714Y-134264342D02*
X215235714Y-134073866D01*
X215235714Y-134073866D02*
X215188095Y-133978628D01*
X215188095Y-133978628D02*
X215140476Y-133931009D01*
X215140476Y-133931009D02*
X215045238Y-133883390D01*
X192407200Y-92385713D02*
X192454819Y-92242856D01*
X192454819Y-92242856D02*
X192454819Y-92004761D01*
X192454819Y-92004761D02*
X192407200Y-91909523D01*
X192407200Y-91909523D02*
X192359580Y-91861904D01*
X192359580Y-91861904D02*
X192264342Y-91814285D01*
X192264342Y-91814285D02*
X192169104Y-91814285D01*
X192169104Y-91814285D02*
X192073866Y-91861904D01*
X192073866Y-91861904D02*
X192026247Y-91909523D01*
X192026247Y-91909523D02*
X191978628Y-92004761D01*
X191978628Y-92004761D02*
X191931009Y-92195237D01*
X191931009Y-92195237D02*
X191883390Y-92290475D01*
X191883390Y-92290475D02*
X191835771Y-92338094D01*
X191835771Y-92338094D02*
X191740533Y-92385713D01*
X191740533Y-92385713D02*
X191645295Y-92385713D01*
X191645295Y-92385713D02*
X191550057Y-92338094D01*
X191550057Y-92338094D02*
X191502438Y-92290475D01*
X191502438Y-92290475D02*
X191454819Y-92195237D01*
X191454819Y-92195237D02*
X191454819Y-91957142D01*
X191454819Y-91957142D02*
X191502438Y-91814285D01*
X191454819Y-91528570D02*
X191454819Y-90957142D01*
X192454819Y-91242856D02*
X191454819Y-91242856D01*
X192073866Y-90623808D02*
X192073866Y-89861904D01*
X192454819Y-88909523D02*
X192454819Y-89385713D01*
X192454819Y-89385713D02*
X191454819Y-89385713D01*
X192454819Y-88576189D02*
X191788152Y-88576189D01*
X191454819Y-88576189D02*
X191502438Y-88623808D01*
X191502438Y-88623808D02*
X191550057Y-88576189D01*
X191550057Y-88576189D02*
X191502438Y-88528570D01*
X191502438Y-88528570D02*
X191454819Y-88576189D01*
X191454819Y-88576189D02*
X191550057Y-88576189D01*
X191788152Y-88099999D02*
X192454819Y-88099999D01*
X191883390Y-88099999D02*
X191835771Y-88052380D01*
X191835771Y-88052380D02*
X191788152Y-87957142D01*
X191788152Y-87957142D02*
X191788152Y-87814285D01*
X191788152Y-87814285D02*
X191835771Y-87719047D01*
X191835771Y-87719047D02*
X191931009Y-87671428D01*
X191931009Y-87671428D02*
X192454819Y-87671428D01*
X192454819Y-87195237D02*
X191454819Y-87195237D01*
X192073866Y-87099999D02*
X192454819Y-86814285D01*
X191788152Y-86814285D02*
X192169104Y-87195237D01*
X212454819Y-115892857D02*
X211978628Y-116226190D01*
X212454819Y-116464285D02*
X211454819Y-116464285D01*
X211454819Y-116464285D02*
X211454819Y-116083333D01*
X211454819Y-116083333D02*
X211502438Y-115988095D01*
X211502438Y-115988095D02*
X211550057Y-115940476D01*
X211550057Y-115940476D02*
X211645295Y-115892857D01*
X211645295Y-115892857D02*
X211788152Y-115892857D01*
X211788152Y-115892857D02*
X211883390Y-115940476D01*
X211883390Y-115940476D02*
X211931009Y-115988095D01*
X211931009Y-115988095D02*
X211978628Y-116083333D01*
X211978628Y-116083333D02*
X211978628Y-116464285D01*
X212454819Y-114940476D02*
X212454819Y-115511904D01*
X212454819Y-115226190D02*
X211454819Y-115226190D01*
X211454819Y-115226190D02*
X211597676Y-115321428D01*
X211597676Y-115321428D02*
X211692914Y-115416666D01*
X211692914Y-115416666D02*
X211740533Y-115511904D01*
X211788152Y-114083333D02*
X212454819Y-114083333D01*
X211407200Y-114321428D02*
X212121485Y-114559523D01*
X212121485Y-114559523D02*
X212121485Y-113940476D01*
X198757142Y-66059580D02*
X198709523Y-66107200D01*
X198709523Y-66107200D02*
X198566666Y-66154819D01*
X198566666Y-66154819D02*
X198471428Y-66154819D01*
X198471428Y-66154819D02*
X198328571Y-66107200D01*
X198328571Y-66107200D02*
X198233333Y-66011961D01*
X198233333Y-66011961D02*
X198185714Y-65916723D01*
X198185714Y-65916723D02*
X198138095Y-65726247D01*
X198138095Y-65726247D02*
X198138095Y-65583390D01*
X198138095Y-65583390D02*
X198185714Y-65392914D01*
X198185714Y-65392914D02*
X198233333Y-65297676D01*
X198233333Y-65297676D02*
X198328571Y-65202438D01*
X198328571Y-65202438D02*
X198471428Y-65154819D01*
X198471428Y-65154819D02*
X198566666Y-65154819D01*
X198566666Y-65154819D02*
X198709523Y-65202438D01*
X198709523Y-65202438D02*
X198757142Y-65250057D01*
X199090476Y-65154819D02*
X199709523Y-65154819D01*
X199709523Y-65154819D02*
X199376190Y-65535771D01*
X199376190Y-65535771D02*
X199519047Y-65535771D01*
X199519047Y-65535771D02*
X199614285Y-65583390D01*
X199614285Y-65583390D02*
X199661904Y-65631009D01*
X199661904Y-65631009D02*
X199709523Y-65726247D01*
X199709523Y-65726247D02*
X199709523Y-65964342D01*
X199709523Y-65964342D02*
X199661904Y-66059580D01*
X199661904Y-66059580D02*
X199614285Y-66107200D01*
X199614285Y-66107200D02*
X199519047Y-66154819D01*
X199519047Y-66154819D02*
X199233333Y-66154819D01*
X199233333Y-66154819D02*
X199138095Y-66107200D01*
X199138095Y-66107200D02*
X199090476Y-66059580D01*
X200661904Y-66154819D02*
X200090476Y-66154819D01*
X200376190Y-66154819D02*
X200376190Y-65154819D01*
X200376190Y-65154819D02*
X200280952Y-65297676D01*
X200280952Y-65297676D02*
X200185714Y-65392914D01*
X200185714Y-65392914D02*
X200090476Y-65440533D01*
X210857142Y-76359580D02*
X210809523Y-76407200D01*
X210809523Y-76407200D02*
X210666666Y-76454819D01*
X210666666Y-76454819D02*
X210571428Y-76454819D01*
X210571428Y-76454819D02*
X210428571Y-76407200D01*
X210428571Y-76407200D02*
X210333333Y-76311961D01*
X210333333Y-76311961D02*
X210285714Y-76216723D01*
X210285714Y-76216723D02*
X210238095Y-76026247D01*
X210238095Y-76026247D02*
X210238095Y-75883390D01*
X210238095Y-75883390D02*
X210285714Y-75692914D01*
X210285714Y-75692914D02*
X210333333Y-75597676D01*
X210333333Y-75597676D02*
X210428571Y-75502438D01*
X210428571Y-75502438D02*
X210571428Y-75454819D01*
X210571428Y-75454819D02*
X210666666Y-75454819D01*
X210666666Y-75454819D02*
X210809523Y-75502438D01*
X210809523Y-75502438D02*
X210857142Y-75550057D01*
X211238095Y-75550057D02*
X211285714Y-75502438D01*
X211285714Y-75502438D02*
X211380952Y-75454819D01*
X211380952Y-75454819D02*
X211619047Y-75454819D01*
X211619047Y-75454819D02*
X211714285Y-75502438D01*
X211714285Y-75502438D02*
X211761904Y-75550057D01*
X211761904Y-75550057D02*
X211809523Y-75645295D01*
X211809523Y-75645295D02*
X211809523Y-75740533D01*
X211809523Y-75740533D02*
X211761904Y-75883390D01*
X211761904Y-75883390D02*
X211190476Y-76454819D01*
X211190476Y-76454819D02*
X211809523Y-76454819D01*
X212285714Y-76454819D02*
X212476190Y-76454819D01*
X212476190Y-76454819D02*
X212571428Y-76407200D01*
X212571428Y-76407200D02*
X212619047Y-76359580D01*
X212619047Y-76359580D02*
X212714285Y-76216723D01*
X212714285Y-76216723D02*
X212761904Y-76026247D01*
X212761904Y-76026247D02*
X212761904Y-75645295D01*
X212761904Y-75645295D02*
X212714285Y-75550057D01*
X212714285Y-75550057D02*
X212666666Y-75502438D01*
X212666666Y-75502438D02*
X212571428Y-75454819D01*
X212571428Y-75454819D02*
X212380952Y-75454819D01*
X212380952Y-75454819D02*
X212285714Y-75502438D01*
X212285714Y-75502438D02*
X212238095Y-75550057D01*
X212238095Y-75550057D02*
X212190476Y-75645295D01*
X212190476Y-75645295D02*
X212190476Y-75883390D01*
X212190476Y-75883390D02*
X212238095Y-75978628D01*
X212238095Y-75978628D02*
X212285714Y-76026247D01*
X212285714Y-76026247D02*
X212380952Y-76073866D01*
X212380952Y-76073866D02*
X212571428Y-76073866D01*
X212571428Y-76073866D02*
X212666666Y-76026247D01*
X212666666Y-76026247D02*
X212714285Y-75978628D01*
X212714285Y-75978628D02*
X212761904Y-75883390D01*
X207259580Y-69842857D02*
X207307200Y-69890476D01*
X207307200Y-69890476D02*
X207354819Y-70033333D01*
X207354819Y-70033333D02*
X207354819Y-70128571D01*
X207354819Y-70128571D02*
X207307200Y-70271428D01*
X207307200Y-70271428D02*
X207211961Y-70366666D01*
X207211961Y-70366666D02*
X207116723Y-70414285D01*
X207116723Y-70414285D02*
X206926247Y-70461904D01*
X206926247Y-70461904D02*
X206783390Y-70461904D01*
X206783390Y-70461904D02*
X206592914Y-70414285D01*
X206592914Y-70414285D02*
X206497676Y-70366666D01*
X206497676Y-70366666D02*
X206402438Y-70271428D01*
X206402438Y-70271428D02*
X206354819Y-70128571D01*
X206354819Y-70128571D02*
X206354819Y-70033333D01*
X206354819Y-70033333D02*
X206402438Y-69890476D01*
X206402438Y-69890476D02*
X206450057Y-69842857D01*
X206450057Y-69461904D02*
X206402438Y-69414285D01*
X206402438Y-69414285D02*
X206354819Y-69319047D01*
X206354819Y-69319047D02*
X206354819Y-69080952D01*
X206354819Y-69080952D02*
X206402438Y-68985714D01*
X206402438Y-68985714D02*
X206450057Y-68938095D01*
X206450057Y-68938095D02*
X206545295Y-68890476D01*
X206545295Y-68890476D02*
X206640533Y-68890476D01*
X206640533Y-68890476D02*
X206783390Y-68938095D01*
X206783390Y-68938095D02*
X207354819Y-69509523D01*
X207354819Y-69509523D02*
X207354819Y-68890476D01*
X206354819Y-68033333D02*
X206354819Y-68223809D01*
X206354819Y-68223809D02*
X206402438Y-68319047D01*
X206402438Y-68319047D02*
X206450057Y-68366666D01*
X206450057Y-68366666D02*
X206592914Y-68461904D01*
X206592914Y-68461904D02*
X206783390Y-68509523D01*
X206783390Y-68509523D02*
X207164342Y-68509523D01*
X207164342Y-68509523D02*
X207259580Y-68461904D01*
X207259580Y-68461904D02*
X207307200Y-68414285D01*
X207307200Y-68414285D02*
X207354819Y-68319047D01*
X207354819Y-68319047D02*
X207354819Y-68128571D01*
X207354819Y-68128571D02*
X207307200Y-68033333D01*
X207307200Y-68033333D02*
X207259580Y-67985714D01*
X207259580Y-67985714D02*
X207164342Y-67938095D01*
X207164342Y-67938095D02*
X206926247Y-67938095D01*
X206926247Y-67938095D02*
X206831009Y-67985714D01*
X206831009Y-67985714D02*
X206783390Y-68033333D01*
X206783390Y-68033333D02*
X206735771Y-68128571D01*
X206735771Y-68128571D02*
X206735771Y-68319047D01*
X206735771Y-68319047D02*
X206783390Y-68414285D01*
X206783390Y-68414285D02*
X206831009Y-68461904D01*
X206831009Y-68461904D02*
X206926247Y-68509523D01*
X219057142Y-116554819D02*
X218723809Y-116078628D01*
X218485714Y-116554819D02*
X218485714Y-115554819D01*
X218485714Y-115554819D02*
X218866666Y-115554819D01*
X218866666Y-115554819D02*
X218961904Y-115602438D01*
X218961904Y-115602438D02*
X219009523Y-115650057D01*
X219009523Y-115650057D02*
X219057142Y-115745295D01*
X219057142Y-115745295D02*
X219057142Y-115888152D01*
X219057142Y-115888152D02*
X219009523Y-115983390D01*
X219009523Y-115983390D02*
X218961904Y-116031009D01*
X218961904Y-116031009D02*
X218866666Y-116078628D01*
X218866666Y-116078628D02*
X218485714Y-116078628D01*
X220009523Y-116554819D02*
X219438095Y-116554819D01*
X219723809Y-116554819D02*
X219723809Y-115554819D01*
X219723809Y-115554819D02*
X219628571Y-115697676D01*
X219628571Y-115697676D02*
X219533333Y-115792914D01*
X219533333Y-115792914D02*
X219438095Y-115840533D01*
X220914285Y-115554819D02*
X220438095Y-115554819D01*
X220438095Y-115554819D02*
X220390476Y-116031009D01*
X220390476Y-116031009D02*
X220438095Y-115983390D01*
X220438095Y-115983390D02*
X220533333Y-115935771D01*
X220533333Y-115935771D02*
X220771428Y-115935771D01*
X220771428Y-115935771D02*
X220866666Y-115983390D01*
X220866666Y-115983390D02*
X220914285Y-116031009D01*
X220914285Y-116031009D02*
X220961904Y-116126247D01*
X220961904Y-116126247D02*
X220961904Y-116364342D01*
X220961904Y-116364342D02*
X220914285Y-116459580D01*
X220914285Y-116459580D02*
X220866666Y-116507200D01*
X220866666Y-116507200D02*
X220771428Y-116554819D01*
X220771428Y-116554819D02*
X220533333Y-116554819D01*
X220533333Y-116554819D02*
X220438095Y-116507200D01*
X220438095Y-116507200D02*
X220390476Y-116459580D01*
X208254819Y-87542857D02*
X207778628Y-87876190D01*
X208254819Y-88114285D02*
X207254819Y-88114285D01*
X207254819Y-88114285D02*
X207254819Y-87733333D01*
X207254819Y-87733333D02*
X207302438Y-87638095D01*
X207302438Y-87638095D02*
X207350057Y-87590476D01*
X207350057Y-87590476D02*
X207445295Y-87542857D01*
X207445295Y-87542857D02*
X207588152Y-87542857D01*
X207588152Y-87542857D02*
X207683390Y-87590476D01*
X207683390Y-87590476D02*
X207731009Y-87638095D01*
X207731009Y-87638095D02*
X207778628Y-87733333D01*
X207778628Y-87733333D02*
X207778628Y-88114285D01*
X207350057Y-87161904D02*
X207302438Y-87114285D01*
X207302438Y-87114285D02*
X207254819Y-87019047D01*
X207254819Y-87019047D02*
X207254819Y-86780952D01*
X207254819Y-86780952D02*
X207302438Y-86685714D01*
X207302438Y-86685714D02*
X207350057Y-86638095D01*
X207350057Y-86638095D02*
X207445295Y-86590476D01*
X207445295Y-86590476D02*
X207540533Y-86590476D01*
X207540533Y-86590476D02*
X207683390Y-86638095D01*
X207683390Y-86638095D02*
X208254819Y-87209523D01*
X208254819Y-87209523D02*
X208254819Y-86590476D01*
X207254819Y-86257142D02*
X207254819Y-85638095D01*
X207254819Y-85638095D02*
X207635771Y-85971428D01*
X207635771Y-85971428D02*
X207635771Y-85828571D01*
X207635771Y-85828571D02*
X207683390Y-85733333D01*
X207683390Y-85733333D02*
X207731009Y-85685714D01*
X207731009Y-85685714D02*
X207826247Y-85638095D01*
X207826247Y-85638095D02*
X208064342Y-85638095D01*
X208064342Y-85638095D02*
X208159580Y-85685714D01*
X208159580Y-85685714D02*
X208207200Y-85733333D01*
X208207200Y-85733333D02*
X208254819Y-85828571D01*
X208254819Y-85828571D02*
X208254819Y-86114285D01*
X208254819Y-86114285D02*
X208207200Y-86209523D01*
X208207200Y-86209523D02*
X208159580Y-86257142D01*
X206257142Y-116254819D02*
X205923809Y-115778628D01*
X205685714Y-116254819D02*
X205685714Y-115254819D01*
X205685714Y-115254819D02*
X206066666Y-115254819D01*
X206066666Y-115254819D02*
X206161904Y-115302438D01*
X206161904Y-115302438D02*
X206209523Y-115350057D01*
X206209523Y-115350057D02*
X206257142Y-115445295D01*
X206257142Y-115445295D02*
X206257142Y-115588152D01*
X206257142Y-115588152D02*
X206209523Y-115683390D01*
X206209523Y-115683390D02*
X206161904Y-115731009D01*
X206161904Y-115731009D02*
X206066666Y-115778628D01*
X206066666Y-115778628D02*
X205685714Y-115778628D01*
X207209523Y-116254819D02*
X206638095Y-116254819D01*
X206923809Y-116254819D02*
X206923809Y-115254819D01*
X206923809Y-115254819D02*
X206828571Y-115397676D01*
X206828571Y-115397676D02*
X206733333Y-115492914D01*
X206733333Y-115492914D02*
X206638095Y-115540533D01*
X207542857Y-115254819D02*
X208209523Y-115254819D01*
X208209523Y-115254819D02*
X207780952Y-116254819D01*
X195554819Y-88042857D02*
X195078628Y-88376190D01*
X195554819Y-88614285D02*
X194554819Y-88614285D01*
X194554819Y-88614285D02*
X194554819Y-88233333D01*
X194554819Y-88233333D02*
X194602438Y-88138095D01*
X194602438Y-88138095D02*
X194650057Y-88090476D01*
X194650057Y-88090476D02*
X194745295Y-88042857D01*
X194745295Y-88042857D02*
X194888152Y-88042857D01*
X194888152Y-88042857D02*
X194983390Y-88090476D01*
X194983390Y-88090476D02*
X195031009Y-88138095D01*
X195031009Y-88138095D02*
X195078628Y-88233333D01*
X195078628Y-88233333D02*
X195078628Y-88614285D01*
X194650057Y-87661904D02*
X194602438Y-87614285D01*
X194602438Y-87614285D02*
X194554819Y-87519047D01*
X194554819Y-87519047D02*
X194554819Y-87280952D01*
X194554819Y-87280952D02*
X194602438Y-87185714D01*
X194602438Y-87185714D02*
X194650057Y-87138095D01*
X194650057Y-87138095D02*
X194745295Y-87090476D01*
X194745295Y-87090476D02*
X194840533Y-87090476D01*
X194840533Y-87090476D02*
X194983390Y-87138095D01*
X194983390Y-87138095D02*
X195554819Y-87709523D01*
X195554819Y-87709523D02*
X195554819Y-87090476D01*
X194888152Y-86233333D02*
X195554819Y-86233333D01*
X194507200Y-86471428D02*
X195221485Y-86709523D01*
X195221485Y-86709523D02*
X195221485Y-86090476D01*
X218133333Y-113259580D02*
X218085714Y-113307200D01*
X218085714Y-113307200D02*
X217942857Y-113354819D01*
X217942857Y-113354819D02*
X217847619Y-113354819D01*
X217847619Y-113354819D02*
X217704762Y-113307200D01*
X217704762Y-113307200D02*
X217609524Y-113211961D01*
X217609524Y-113211961D02*
X217561905Y-113116723D01*
X217561905Y-113116723D02*
X217514286Y-112926247D01*
X217514286Y-112926247D02*
X217514286Y-112783390D01*
X217514286Y-112783390D02*
X217561905Y-112592914D01*
X217561905Y-112592914D02*
X217609524Y-112497676D01*
X217609524Y-112497676D02*
X217704762Y-112402438D01*
X217704762Y-112402438D02*
X217847619Y-112354819D01*
X217847619Y-112354819D02*
X217942857Y-112354819D01*
X217942857Y-112354819D02*
X218085714Y-112402438D01*
X218085714Y-112402438D02*
X218133333Y-112450057D01*
X218990476Y-112354819D02*
X218800000Y-112354819D01*
X218800000Y-112354819D02*
X218704762Y-112402438D01*
X218704762Y-112402438D02*
X218657143Y-112450057D01*
X218657143Y-112450057D02*
X218561905Y-112592914D01*
X218561905Y-112592914D02*
X218514286Y-112783390D01*
X218514286Y-112783390D02*
X218514286Y-113164342D01*
X218514286Y-113164342D02*
X218561905Y-113259580D01*
X218561905Y-113259580D02*
X218609524Y-113307200D01*
X218609524Y-113307200D02*
X218704762Y-113354819D01*
X218704762Y-113354819D02*
X218895238Y-113354819D01*
X218895238Y-113354819D02*
X218990476Y-113307200D01*
X218990476Y-113307200D02*
X219038095Y-113259580D01*
X219038095Y-113259580D02*
X219085714Y-113164342D01*
X219085714Y-113164342D02*
X219085714Y-112926247D01*
X219085714Y-112926247D02*
X219038095Y-112831009D01*
X219038095Y-112831009D02*
X218990476Y-112783390D01*
X218990476Y-112783390D02*
X218895238Y-112735771D01*
X218895238Y-112735771D02*
X218704762Y-112735771D01*
X218704762Y-112735771D02*
X218609524Y-112783390D01*
X218609524Y-112783390D02*
X218561905Y-112831009D01*
X218561905Y-112831009D02*
X218514286Y-112926247D01*
D10*
X189392857Y-121592614D02*
X189607143Y-121664042D01*
X189607143Y-121664042D02*
X189678572Y-121735471D01*
X189678572Y-121735471D02*
X189750000Y-121878328D01*
X189750000Y-121878328D02*
X189750000Y-122092614D01*
X189750000Y-122092614D02*
X189678572Y-122235471D01*
X189678572Y-122235471D02*
X189607143Y-122306900D01*
X189607143Y-122306900D02*
X189464286Y-122378328D01*
X189464286Y-122378328D02*
X188892857Y-122378328D01*
X188892857Y-122378328D02*
X188892857Y-120878328D01*
X188892857Y-120878328D02*
X189392857Y-120878328D01*
X189392857Y-120878328D02*
X189535715Y-120949757D01*
X189535715Y-120949757D02*
X189607143Y-121021185D01*
X189607143Y-121021185D02*
X189678572Y-121164042D01*
X189678572Y-121164042D02*
X189678572Y-121306900D01*
X189678572Y-121306900D02*
X189607143Y-121449757D01*
X189607143Y-121449757D02*
X189535715Y-121521185D01*
X189535715Y-121521185D02*
X189392857Y-121592614D01*
X189392857Y-121592614D02*
X188892857Y-121592614D01*
X190321429Y-121949757D02*
X191035715Y-121949757D01*
X190178572Y-122378328D02*
X190678572Y-120878328D01*
X190678572Y-120878328D02*
X191178572Y-122378328D01*
X191464286Y-120878328D02*
X192321429Y-120878328D01*
X191892857Y-122378328D02*
X191892857Y-120878328D01*
X192607143Y-120878328D02*
X193464286Y-120878328D01*
X193035714Y-122378328D02*
X193035714Y-120878328D01*
X193964285Y-121806900D02*
X195107143Y-121806900D01*
D11*
X225854819Y-67942857D02*
X225378628Y-68276190D01*
X225854819Y-68514285D02*
X224854819Y-68514285D01*
X224854819Y-68514285D02*
X224854819Y-68133333D01*
X224854819Y-68133333D02*
X224902438Y-68038095D01*
X224902438Y-68038095D02*
X224950057Y-67990476D01*
X224950057Y-67990476D02*
X225045295Y-67942857D01*
X225045295Y-67942857D02*
X225188152Y-67942857D01*
X225188152Y-67942857D02*
X225283390Y-67990476D01*
X225283390Y-67990476D02*
X225331009Y-68038095D01*
X225331009Y-68038095D02*
X225378628Y-68133333D01*
X225378628Y-68133333D02*
X225378628Y-68514285D01*
X224854819Y-67609523D02*
X224854819Y-66990476D01*
X224854819Y-66990476D02*
X225235771Y-67323809D01*
X225235771Y-67323809D02*
X225235771Y-67180952D01*
X225235771Y-67180952D02*
X225283390Y-67085714D01*
X225283390Y-67085714D02*
X225331009Y-67038095D01*
X225331009Y-67038095D02*
X225426247Y-66990476D01*
X225426247Y-66990476D02*
X225664342Y-66990476D01*
X225664342Y-66990476D02*
X225759580Y-67038095D01*
X225759580Y-67038095D02*
X225807200Y-67085714D01*
X225807200Y-67085714D02*
X225854819Y-67180952D01*
X225854819Y-67180952D02*
X225854819Y-67466666D01*
X225854819Y-67466666D02*
X225807200Y-67561904D01*
X225807200Y-67561904D02*
X225759580Y-67609523D01*
X224854819Y-66657142D02*
X224854819Y-66038095D01*
X224854819Y-66038095D02*
X225235771Y-66371428D01*
X225235771Y-66371428D02*
X225235771Y-66228571D01*
X225235771Y-66228571D02*
X225283390Y-66133333D01*
X225283390Y-66133333D02*
X225331009Y-66085714D01*
X225331009Y-66085714D02*
X225426247Y-66038095D01*
X225426247Y-66038095D02*
X225664342Y-66038095D01*
X225664342Y-66038095D02*
X225759580Y-66085714D01*
X225759580Y-66085714D02*
X225807200Y-66133333D01*
X225807200Y-66133333D02*
X225854819Y-66228571D01*
X225854819Y-66228571D02*
X225854819Y-66514285D01*
X225854819Y-66514285D02*
X225807200Y-66609523D01*
X225807200Y-66609523D02*
X225759580Y-66657142D01*
X211804819Y-121642857D02*
X211328628Y-121976190D01*
X211804819Y-122214285D02*
X210804819Y-122214285D01*
X210804819Y-122214285D02*
X210804819Y-121833333D01*
X210804819Y-121833333D02*
X210852438Y-121738095D01*
X210852438Y-121738095D02*
X210900057Y-121690476D01*
X210900057Y-121690476D02*
X210995295Y-121642857D01*
X210995295Y-121642857D02*
X211138152Y-121642857D01*
X211138152Y-121642857D02*
X211233390Y-121690476D01*
X211233390Y-121690476D02*
X211281009Y-121738095D01*
X211281009Y-121738095D02*
X211328628Y-121833333D01*
X211328628Y-121833333D02*
X211328628Y-122214285D01*
X211804819Y-120690476D02*
X211804819Y-121261904D01*
X211804819Y-120976190D02*
X210804819Y-120976190D01*
X210804819Y-120976190D02*
X210947676Y-121071428D01*
X210947676Y-121071428D02*
X211042914Y-121166666D01*
X211042914Y-121166666D02*
X211090533Y-121261904D01*
X211804819Y-119738095D02*
X211804819Y-120309523D01*
X211804819Y-120023809D02*
X210804819Y-120023809D01*
X210804819Y-120023809D02*
X210947676Y-120119047D01*
X210947676Y-120119047D02*
X211042914Y-120214285D01*
X211042914Y-120214285D02*
X211090533Y-120309523D01*
X228238095Y-86994819D02*
X228238095Y-87804342D01*
X228238095Y-87804342D02*
X228285714Y-87899580D01*
X228285714Y-87899580D02*
X228333333Y-87947200D01*
X228333333Y-87947200D02*
X228428571Y-87994819D01*
X228428571Y-87994819D02*
X228619047Y-87994819D01*
X228619047Y-87994819D02*
X228714285Y-87947200D01*
X228714285Y-87947200D02*
X228761904Y-87899580D01*
X228761904Y-87899580D02*
X228809523Y-87804342D01*
X228809523Y-87804342D02*
X228809523Y-86994819D01*
X229238095Y-87090057D02*
X229285714Y-87042438D01*
X229285714Y-87042438D02*
X229380952Y-86994819D01*
X229380952Y-86994819D02*
X229619047Y-86994819D01*
X229619047Y-86994819D02*
X229714285Y-87042438D01*
X229714285Y-87042438D02*
X229761904Y-87090057D01*
X229761904Y-87090057D02*
X229809523Y-87185295D01*
X229809523Y-87185295D02*
X229809523Y-87280533D01*
X229809523Y-87280533D02*
X229761904Y-87423390D01*
X229761904Y-87423390D02*
X229190476Y-87994819D01*
X229190476Y-87994819D02*
X229809523Y-87994819D01*
X234516666Y-121349366D02*
X234750000Y-121349366D01*
X234850000Y-121716033D02*
X234516666Y-121716033D01*
X234516666Y-121716033D02*
X234516666Y-121016033D01*
X234516666Y-121016033D02*
X234850000Y-121016033D01*
X235549999Y-121649366D02*
X235516666Y-121682700D01*
X235516666Y-121682700D02*
X235416666Y-121716033D01*
X235416666Y-121716033D02*
X235349999Y-121716033D01*
X235349999Y-121716033D02*
X235249999Y-121682700D01*
X235249999Y-121682700D02*
X235183333Y-121616033D01*
X235183333Y-121616033D02*
X235149999Y-121549366D01*
X235149999Y-121549366D02*
X235116666Y-121416033D01*
X235116666Y-121416033D02*
X235116666Y-121316033D01*
X235116666Y-121316033D02*
X235149999Y-121182700D01*
X235149999Y-121182700D02*
X235183333Y-121116033D01*
X235183333Y-121116033D02*
X235249999Y-121049366D01*
X235249999Y-121049366D02*
X235349999Y-121016033D01*
X235349999Y-121016033D02*
X235416666Y-121016033D01*
X235416666Y-121016033D02*
X235516666Y-121049366D01*
X235516666Y-121049366D02*
X235549999Y-121082700D01*
X235849999Y-121716033D02*
X235849999Y-121016033D01*
X236249999Y-121716033D02*
X235949999Y-121316033D01*
X236249999Y-121016033D02*
X235849999Y-121416033D01*
X236516666Y-121082700D02*
X236549999Y-121049366D01*
X236549999Y-121049366D02*
X236616666Y-121016033D01*
X236616666Y-121016033D02*
X236783333Y-121016033D01*
X236783333Y-121016033D02*
X236849999Y-121049366D01*
X236849999Y-121049366D02*
X236883333Y-121082700D01*
X236883333Y-121082700D02*
X236916666Y-121149366D01*
X236916666Y-121149366D02*
X236916666Y-121216033D01*
X236916666Y-121216033D02*
X236883333Y-121316033D01*
X236883333Y-121316033D02*
X236483333Y-121716033D01*
X236483333Y-121716033D02*
X236916666Y-121716033D01*
X237350000Y-121016033D02*
X237416666Y-121016033D01*
X237416666Y-121016033D02*
X237483333Y-121049366D01*
X237483333Y-121049366D02*
X237516666Y-121082700D01*
X237516666Y-121082700D02*
X237550000Y-121149366D01*
X237550000Y-121149366D02*
X237583333Y-121282700D01*
X237583333Y-121282700D02*
X237583333Y-121449366D01*
X237583333Y-121449366D02*
X237550000Y-121582700D01*
X237550000Y-121582700D02*
X237516666Y-121649366D01*
X237516666Y-121649366D02*
X237483333Y-121682700D01*
X237483333Y-121682700D02*
X237416666Y-121716033D01*
X237416666Y-121716033D02*
X237350000Y-121716033D01*
X237350000Y-121716033D02*
X237283333Y-121682700D01*
X237283333Y-121682700D02*
X237250000Y-121649366D01*
X237250000Y-121649366D02*
X237216666Y-121582700D01*
X237216666Y-121582700D02*
X237183333Y-121449366D01*
X237183333Y-121449366D02*
X237183333Y-121282700D01*
X237183333Y-121282700D02*
X237216666Y-121149366D01*
X237216666Y-121149366D02*
X237250000Y-121082700D01*
X237250000Y-121082700D02*
X237283333Y-121049366D01*
X237283333Y-121049366D02*
X237350000Y-121016033D01*
X238016667Y-121016033D02*
X238083333Y-121016033D01*
X238083333Y-121016033D02*
X238150000Y-121049366D01*
X238150000Y-121049366D02*
X238183333Y-121082700D01*
X238183333Y-121082700D02*
X238216667Y-121149366D01*
X238216667Y-121149366D02*
X238250000Y-121282700D01*
X238250000Y-121282700D02*
X238250000Y-121449366D01*
X238250000Y-121449366D02*
X238216667Y-121582700D01*
X238216667Y-121582700D02*
X238183333Y-121649366D01*
X238183333Y-121649366D02*
X238150000Y-121682700D01*
X238150000Y-121682700D02*
X238083333Y-121716033D01*
X238083333Y-121716033D02*
X238016667Y-121716033D01*
X238016667Y-121716033D02*
X237950000Y-121682700D01*
X237950000Y-121682700D02*
X237916667Y-121649366D01*
X237916667Y-121649366D02*
X237883333Y-121582700D01*
X237883333Y-121582700D02*
X237850000Y-121449366D01*
X237850000Y-121449366D02*
X237850000Y-121282700D01*
X237850000Y-121282700D02*
X237883333Y-121149366D01*
X237883333Y-121149366D02*
X237916667Y-121082700D01*
X237916667Y-121082700D02*
X237950000Y-121049366D01*
X237950000Y-121049366D02*
X238016667Y-121016033D01*
X238783334Y-121349366D02*
X238883334Y-121382700D01*
X238883334Y-121382700D02*
X238916667Y-121416033D01*
X238916667Y-121416033D02*
X238950000Y-121482700D01*
X238950000Y-121482700D02*
X238950000Y-121582700D01*
X238950000Y-121582700D02*
X238916667Y-121649366D01*
X238916667Y-121649366D02*
X238883334Y-121682700D01*
X238883334Y-121682700D02*
X238816667Y-121716033D01*
X238816667Y-121716033D02*
X238550000Y-121716033D01*
X238550000Y-121716033D02*
X238550000Y-121016033D01*
X238550000Y-121016033D02*
X238783334Y-121016033D01*
X238783334Y-121016033D02*
X238850000Y-121049366D01*
X238850000Y-121049366D02*
X238883334Y-121082700D01*
X238883334Y-121082700D02*
X238916667Y-121149366D01*
X238916667Y-121149366D02*
X238916667Y-121216033D01*
X238916667Y-121216033D02*
X238883334Y-121282700D01*
X238883334Y-121282700D02*
X238850000Y-121316033D01*
X238850000Y-121316033D02*
X238783334Y-121349366D01*
X238783334Y-121349366D02*
X238550000Y-121349366D01*
X239250000Y-121716033D02*
X239250000Y-121016033D01*
X239250000Y-121349366D02*
X239650000Y-121349366D01*
X239650000Y-121716033D02*
X239650000Y-121016033D01*
X239950000Y-121516033D02*
X240283333Y-121516033D01*
X239883333Y-121716033D02*
X240116667Y-121016033D01*
X240116667Y-121016033D02*
X240350000Y-121716033D01*
X240550000Y-121516033D02*
X240883333Y-121516033D01*
X240483333Y-121716033D02*
X240716667Y-121016033D01*
X240716667Y-121016033D02*
X240950000Y-121716033D01*
X241183333Y-121349366D02*
X241416667Y-121349366D01*
X241516667Y-121716033D02*
X241183333Y-121716033D01*
X241183333Y-121716033D02*
X241183333Y-121016033D01*
X241183333Y-121016033D02*
X241516667Y-121016033D01*
X241783333Y-121516033D02*
X242116666Y-121516033D01*
X241716666Y-121716033D02*
X241950000Y-121016033D01*
X241950000Y-121016033D02*
X242183333Y-121716033D01*
X201857142Y-104059580D02*
X201809523Y-104107200D01*
X201809523Y-104107200D02*
X201666666Y-104154819D01*
X201666666Y-104154819D02*
X201571428Y-104154819D01*
X201571428Y-104154819D02*
X201428571Y-104107200D01*
X201428571Y-104107200D02*
X201333333Y-104011961D01*
X201333333Y-104011961D02*
X201285714Y-103916723D01*
X201285714Y-103916723D02*
X201238095Y-103726247D01*
X201238095Y-103726247D02*
X201238095Y-103583390D01*
X201238095Y-103583390D02*
X201285714Y-103392914D01*
X201285714Y-103392914D02*
X201333333Y-103297676D01*
X201333333Y-103297676D02*
X201428571Y-103202438D01*
X201428571Y-103202438D02*
X201571428Y-103154819D01*
X201571428Y-103154819D02*
X201666666Y-103154819D01*
X201666666Y-103154819D02*
X201809523Y-103202438D01*
X201809523Y-103202438D02*
X201857142Y-103250057D01*
X202809523Y-104154819D02*
X202238095Y-104154819D01*
X202523809Y-104154819D02*
X202523809Y-103154819D01*
X202523809Y-103154819D02*
X202428571Y-103297676D01*
X202428571Y-103297676D02*
X202333333Y-103392914D01*
X202333333Y-103392914D02*
X202238095Y-103440533D01*
X203666666Y-103488152D02*
X203666666Y-104154819D01*
X203428571Y-103107200D02*
X203190476Y-103821485D01*
X203190476Y-103821485D02*
X203809523Y-103821485D01*
X189354819Y-72942857D02*
X188878628Y-73276190D01*
X189354819Y-73514285D02*
X188354819Y-73514285D01*
X188354819Y-73514285D02*
X188354819Y-73133333D01*
X188354819Y-73133333D02*
X188402438Y-73038095D01*
X188402438Y-73038095D02*
X188450057Y-72990476D01*
X188450057Y-72990476D02*
X188545295Y-72942857D01*
X188545295Y-72942857D02*
X188688152Y-72942857D01*
X188688152Y-72942857D02*
X188783390Y-72990476D01*
X188783390Y-72990476D02*
X188831009Y-73038095D01*
X188831009Y-73038095D02*
X188878628Y-73133333D01*
X188878628Y-73133333D02*
X188878628Y-73514285D01*
X188450057Y-72561904D02*
X188402438Y-72514285D01*
X188402438Y-72514285D02*
X188354819Y-72419047D01*
X188354819Y-72419047D02*
X188354819Y-72180952D01*
X188354819Y-72180952D02*
X188402438Y-72085714D01*
X188402438Y-72085714D02*
X188450057Y-72038095D01*
X188450057Y-72038095D02*
X188545295Y-71990476D01*
X188545295Y-71990476D02*
X188640533Y-71990476D01*
X188640533Y-71990476D02*
X188783390Y-72038095D01*
X188783390Y-72038095D02*
X189354819Y-72609523D01*
X189354819Y-72609523D02*
X189354819Y-71990476D01*
X189354819Y-71514285D02*
X189354819Y-71323809D01*
X189354819Y-71323809D02*
X189307200Y-71228571D01*
X189307200Y-71228571D02*
X189259580Y-71180952D01*
X189259580Y-71180952D02*
X189116723Y-71085714D01*
X189116723Y-71085714D02*
X188926247Y-71038095D01*
X188926247Y-71038095D02*
X188545295Y-71038095D01*
X188545295Y-71038095D02*
X188450057Y-71085714D01*
X188450057Y-71085714D02*
X188402438Y-71133333D01*
X188402438Y-71133333D02*
X188354819Y-71228571D01*
X188354819Y-71228571D02*
X188354819Y-71419047D01*
X188354819Y-71419047D02*
X188402438Y-71514285D01*
X188402438Y-71514285D02*
X188450057Y-71561904D01*
X188450057Y-71561904D02*
X188545295Y-71609523D01*
X188545295Y-71609523D02*
X188783390Y-71609523D01*
X188783390Y-71609523D02*
X188878628Y-71561904D01*
X188878628Y-71561904D02*
X188926247Y-71514285D01*
X188926247Y-71514285D02*
X188973866Y-71419047D01*
X188973866Y-71419047D02*
X188973866Y-71228571D01*
X188973866Y-71228571D02*
X188926247Y-71133333D01*
X188926247Y-71133333D02*
X188878628Y-71085714D01*
X188878628Y-71085714D02*
X188783390Y-71038095D01*
X214283333Y-130454819D02*
X213950000Y-129978628D01*
X213711905Y-130454819D02*
X213711905Y-129454819D01*
X213711905Y-129454819D02*
X214092857Y-129454819D01*
X214092857Y-129454819D02*
X214188095Y-129502438D01*
X214188095Y-129502438D02*
X214235714Y-129550057D01*
X214235714Y-129550057D02*
X214283333Y-129645295D01*
X214283333Y-129645295D02*
X214283333Y-129788152D01*
X214283333Y-129788152D02*
X214235714Y-129883390D01*
X214235714Y-129883390D02*
X214188095Y-129931009D01*
X214188095Y-129931009D02*
X214092857Y-129978628D01*
X214092857Y-129978628D02*
X213711905Y-129978628D01*
X214616667Y-129454819D02*
X215283333Y-129454819D01*
X215283333Y-129454819D02*
X214854762Y-130454819D01*
X231809819Y-100801189D02*
X230809819Y-100801189D01*
X231714580Y-99753571D02*
X231762200Y-99801190D01*
X231762200Y-99801190D02*
X231809819Y-99944047D01*
X231809819Y-99944047D02*
X231809819Y-100039285D01*
X231809819Y-100039285D02*
X231762200Y-100182142D01*
X231762200Y-100182142D02*
X231666961Y-100277380D01*
X231666961Y-100277380D02*
X231571723Y-100324999D01*
X231571723Y-100324999D02*
X231381247Y-100372618D01*
X231381247Y-100372618D02*
X231238390Y-100372618D01*
X231238390Y-100372618D02*
X231047914Y-100324999D01*
X231047914Y-100324999D02*
X230952676Y-100277380D01*
X230952676Y-100277380D02*
X230857438Y-100182142D01*
X230857438Y-100182142D02*
X230809819Y-100039285D01*
X230809819Y-100039285D02*
X230809819Y-99944047D01*
X230809819Y-99944047D02*
X230857438Y-99801190D01*
X230857438Y-99801190D02*
X230905057Y-99753571D01*
X231809819Y-98801190D02*
X231809819Y-99372618D01*
X231809819Y-99086904D02*
X230809819Y-99086904D01*
X230809819Y-99086904D02*
X230952676Y-99182142D01*
X230952676Y-99182142D02*
X231047914Y-99277380D01*
X231047914Y-99277380D02*
X231095533Y-99372618D01*
X206609580Y-82542857D02*
X206657200Y-82590476D01*
X206657200Y-82590476D02*
X206704819Y-82733333D01*
X206704819Y-82733333D02*
X206704819Y-82828571D01*
X206704819Y-82828571D02*
X206657200Y-82971428D01*
X206657200Y-82971428D02*
X206561961Y-83066666D01*
X206561961Y-83066666D02*
X206466723Y-83114285D01*
X206466723Y-83114285D02*
X206276247Y-83161904D01*
X206276247Y-83161904D02*
X206133390Y-83161904D01*
X206133390Y-83161904D02*
X205942914Y-83114285D01*
X205942914Y-83114285D02*
X205847676Y-83066666D01*
X205847676Y-83066666D02*
X205752438Y-82971428D01*
X205752438Y-82971428D02*
X205704819Y-82828571D01*
X205704819Y-82828571D02*
X205704819Y-82733333D01*
X205704819Y-82733333D02*
X205752438Y-82590476D01*
X205752438Y-82590476D02*
X205800057Y-82542857D01*
X205800057Y-82161904D02*
X205752438Y-82114285D01*
X205752438Y-82114285D02*
X205704819Y-82019047D01*
X205704819Y-82019047D02*
X205704819Y-81780952D01*
X205704819Y-81780952D02*
X205752438Y-81685714D01*
X205752438Y-81685714D02*
X205800057Y-81638095D01*
X205800057Y-81638095D02*
X205895295Y-81590476D01*
X205895295Y-81590476D02*
X205990533Y-81590476D01*
X205990533Y-81590476D02*
X206133390Y-81638095D01*
X206133390Y-81638095D02*
X206704819Y-82209523D01*
X206704819Y-82209523D02*
X206704819Y-81590476D01*
X206704819Y-80638095D02*
X206704819Y-81209523D01*
X206704819Y-80923809D02*
X205704819Y-80923809D01*
X205704819Y-80923809D02*
X205847676Y-81019047D01*
X205847676Y-81019047D02*
X205942914Y-81114285D01*
X205942914Y-81114285D02*
X205990533Y-81209523D01*
X210857142Y-78459580D02*
X210809523Y-78507200D01*
X210809523Y-78507200D02*
X210666666Y-78554819D01*
X210666666Y-78554819D02*
X210571428Y-78554819D01*
X210571428Y-78554819D02*
X210428571Y-78507200D01*
X210428571Y-78507200D02*
X210333333Y-78411961D01*
X210333333Y-78411961D02*
X210285714Y-78316723D01*
X210285714Y-78316723D02*
X210238095Y-78126247D01*
X210238095Y-78126247D02*
X210238095Y-77983390D01*
X210238095Y-77983390D02*
X210285714Y-77792914D01*
X210285714Y-77792914D02*
X210333333Y-77697676D01*
X210333333Y-77697676D02*
X210428571Y-77602438D01*
X210428571Y-77602438D02*
X210571428Y-77554819D01*
X210571428Y-77554819D02*
X210666666Y-77554819D01*
X210666666Y-77554819D02*
X210809523Y-77602438D01*
X210809523Y-77602438D02*
X210857142Y-77650057D01*
X211238095Y-77650057D02*
X211285714Y-77602438D01*
X211285714Y-77602438D02*
X211380952Y-77554819D01*
X211380952Y-77554819D02*
X211619047Y-77554819D01*
X211619047Y-77554819D02*
X211714285Y-77602438D01*
X211714285Y-77602438D02*
X211761904Y-77650057D01*
X211761904Y-77650057D02*
X211809523Y-77745295D01*
X211809523Y-77745295D02*
X211809523Y-77840533D01*
X211809523Y-77840533D02*
X211761904Y-77983390D01*
X211761904Y-77983390D02*
X211190476Y-78554819D01*
X211190476Y-78554819D02*
X211809523Y-78554819D01*
X212190476Y-77650057D02*
X212238095Y-77602438D01*
X212238095Y-77602438D02*
X212333333Y-77554819D01*
X212333333Y-77554819D02*
X212571428Y-77554819D01*
X212571428Y-77554819D02*
X212666666Y-77602438D01*
X212666666Y-77602438D02*
X212714285Y-77650057D01*
X212714285Y-77650057D02*
X212761904Y-77745295D01*
X212761904Y-77745295D02*
X212761904Y-77840533D01*
X212761904Y-77840533D02*
X212714285Y-77983390D01*
X212714285Y-77983390D02*
X212142857Y-78554819D01*
X212142857Y-78554819D02*
X212761904Y-78554819D01*
X203057142Y-85259580D02*
X203009523Y-85307200D01*
X203009523Y-85307200D02*
X202866666Y-85354819D01*
X202866666Y-85354819D02*
X202771428Y-85354819D01*
X202771428Y-85354819D02*
X202628571Y-85307200D01*
X202628571Y-85307200D02*
X202533333Y-85211961D01*
X202533333Y-85211961D02*
X202485714Y-85116723D01*
X202485714Y-85116723D02*
X202438095Y-84926247D01*
X202438095Y-84926247D02*
X202438095Y-84783390D01*
X202438095Y-84783390D02*
X202485714Y-84592914D01*
X202485714Y-84592914D02*
X202533333Y-84497676D01*
X202533333Y-84497676D02*
X202628571Y-84402438D01*
X202628571Y-84402438D02*
X202771428Y-84354819D01*
X202771428Y-84354819D02*
X202866666Y-84354819D01*
X202866666Y-84354819D02*
X203009523Y-84402438D01*
X203009523Y-84402438D02*
X203057142Y-84450057D01*
X203438095Y-84450057D02*
X203485714Y-84402438D01*
X203485714Y-84402438D02*
X203580952Y-84354819D01*
X203580952Y-84354819D02*
X203819047Y-84354819D01*
X203819047Y-84354819D02*
X203914285Y-84402438D01*
X203914285Y-84402438D02*
X203961904Y-84450057D01*
X203961904Y-84450057D02*
X204009523Y-84545295D01*
X204009523Y-84545295D02*
X204009523Y-84640533D01*
X204009523Y-84640533D02*
X203961904Y-84783390D01*
X203961904Y-84783390D02*
X203390476Y-85354819D01*
X203390476Y-85354819D02*
X204009523Y-85354819D01*
X204342857Y-84354819D02*
X204961904Y-84354819D01*
X204961904Y-84354819D02*
X204628571Y-84735771D01*
X204628571Y-84735771D02*
X204771428Y-84735771D01*
X204771428Y-84735771D02*
X204866666Y-84783390D01*
X204866666Y-84783390D02*
X204914285Y-84831009D01*
X204914285Y-84831009D02*
X204961904Y-84926247D01*
X204961904Y-84926247D02*
X204961904Y-85164342D01*
X204961904Y-85164342D02*
X204914285Y-85259580D01*
X204914285Y-85259580D02*
X204866666Y-85307200D01*
X204866666Y-85307200D02*
X204771428Y-85354819D01*
X204771428Y-85354819D02*
X204485714Y-85354819D01*
X204485714Y-85354819D02*
X204390476Y-85307200D01*
X204390476Y-85307200D02*
X204342857Y-85259580D01*
X209333333Y-104059580D02*
X209285714Y-104107200D01*
X209285714Y-104107200D02*
X209142857Y-104154819D01*
X209142857Y-104154819D02*
X209047619Y-104154819D01*
X209047619Y-104154819D02*
X208904762Y-104107200D01*
X208904762Y-104107200D02*
X208809524Y-104011961D01*
X208809524Y-104011961D02*
X208761905Y-103916723D01*
X208761905Y-103916723D02*
X208714286Y-103726247D01*
X208714286Y-103726247D02*
X208714286Y-103583390D01*
X208714286Y-103583390D02*
X208761905Y-103392914D01*
X208761905Y-103392914D02*
X208809524Y-103297676D01*
X208809524Y-103297676D02*
X208904762Y-103202438D01*
X208904762Y-103202438D02*
X209047619Y-103154819D01*
X209047619Y-103154819D02*
X209142857Y-103154819D01*
X209142857Y-103154819D02*
X209285714Y-103202438D01*
X209285714Y-103202438D02*
X209333333Y-103250057D01*
X209904762Y-103583390D02*
X209809524Y-103535771D01*
X209809524Y-103535771D02*
X209761905Y-103488152D01*
X209761905Y-103488152D02*
X209714286Y-103392914D01*
X209714286Y-103392914D02*
X209714286Y-103345295D01*
X209714286Y-103345295D02*
X209761905Y-103250057D01*
X209761905Y-103250057D02*
X209809524Y-103202438D01*
X209809524Y-103202438D02*
X209904762Y-103154819D01*
X209904762Y-103154819D02*
X210095238Y-103154819D01*
X210095238Y-103154819D02*
X210190476Y-103202438D01*
X210190476Y-103202438D02*
X210238095Y-103250057D01*
X210238095Y-103250057D02*
X210285714Y-103345295D01*
X210285714Y-103345295D02*
X210285714Y-103392914D01*
X210285714Y-103392914D02*
X210238095Y-103488152D01*
X210238095Y-103488152D02*
X210190476Y-103535771D01*
X210190476Y-103535771D02*
X210095238Y-103583390D01*
X210095238Y-103583390D02*
X209904762Y-103583390D01*
X209904762Y-103583390D02*
X209809524Y-103631009D01*
X209809524Y-103631009D02*
X209761905Y-103678628D01*
X209761905Y-103678628D02*
X209714286Y-103773866D01*
X209714286Y-103773866D02*
X209714286Y-103964342D01*
X209714286Y-103964342D02*
X209761905Y-104059580D01*
X209761905Y-104059580D02*
X209809524Y-104107200D01*
X209809524Y-104107200D02*
X209904762Y-104154819D01*
X209904762Y-104154819D02*
X210095238Y-104154819D01*
X210095238Y-104154819D02*
X210190476Y-104107200D01*
X210190476Y-104107200D02*
X210238095Y-104059580D01*
X210238095Y-104059580D02*
X210285714Y-103964342D01*
X210285714Y-103964342D02*
X210285714Y-103773866D01*
X210285714Y-103773866D02*
X210238095Y-103678628D01*
X210238095Y-103678628D02*
X210190476Y-103631009D01*
X210190476Y-103631009D02*
X210095238Y-103583390D01*
X239857142Y-76254819D02*
X239523809Y-75778628D01*
X239285714Y-76254819D02*
X239285714Y-75254819D01*
X239285714Y-75254819D02*
X239666666Y-75254819D01*
X239666666Y-75254819D02*
X239761904Y-75302438D01*
X239761904Y-75302438D02*
X239809523Y-75350057D01*
X239809523Y-75350057D02*
X239857142Y-75445295D01*
X239857142Y-75445295D02*
X239857142Y-75588152D01*
X239857142Y-75588152D02*
X239809523Y-75683390D01*
X239809523Y-75683390D02*
X239761904Y-75731009D01*
X239761904Y-75731009D02*
X239666666Y-75778628D01*
X239666666Y-75778628D02*
X239285714Y-75778628D01*
X240190476Y-75254819D02*
X240809523Y-75254819D01*
X240809523Y-75254819D02*
X240476190Y-75635771D01*
X240476190Y-75635771D02*
X240619047Y-75635771D01*
X240619047Y-75635771D02*
X240714285Y-75683390D01*
X240714285Y-75683390D02*
X240761904Y-75731009D01*
X240761904Y-75731009D02*
X240809523Y-75826247D01*
X240809523Y-75826247D02*
X240809523Y-76064342D01*
X240809523Y-76064342D02*
X240761904Y-76159580D01*
X240761904Y-76159580D02*
X240714285Y-76207200D01*
X240714285Y-76207200D02*
X240619047Y-76254819D01*
X240619047Y-76254819D02*
X240333333Y-76254819D01*
X240333333Y-76254819D02*
X240238095Y-76207200D01*
X240238095Y-76207200D02*
X240190476Y-76159580D01*
X241666666Y-75254819D02*
X241476190Y-75254819D01*
X241476190Y-75254819D02*
X241380952Y-75302438D01*
X241380952Y-75302438D02*
X241333333Y-75350057D01*
X241333333Y-75350057D02*
X241238095Y-75492914D01*
X241238095Y-75492914D02*
X241190476Y-75683390D01*
X241190476Y-75683390D02*
X241190476Y-76064342D01*
X241190476Y-76064342D02*
X241238095Y-76159580D01*
X241238095Y-76159580D02*
X241285714Y-76207200D01*
X241285714Y-76207200D02*
X241380952Y-76254819D01*
X241380952Y-76254819D02*
X241571428Y-76254819D01*
X241571428Y-76254819D02*
X241666666Y-76207200D01*
X241666666Y-76207200D02*
X241714285Y-76159580D01*
X241714285Y-76159580D02*
X241761904Y-76064342D01*
X241761904Y-76064342D02*
X241761904Y-75826247D01*
X241761904Y-75826247D02*
X241714285Y-75731009D01*
X241714285Y-75731009D02*
X241666666Y-75683390D01*
X241666666Y-75683390D02*
X241571428Y-75635771D01*
X241571428Y-75635771D02*
X241380952Y-75635771D01*
X241380952Y-75635771D02*
X241285714Y-75683390D01*
X241285714Y-75683390D02*
X241238095Y-75731009D01*
X241238095Y-75731009D02*
X241190476Y-75826247D01*
X204954819Y-89942857D02*
X204478628Y-90276190D01*
X204954819Y-90514285D02*
X203954819Y-90514285D01*
X203954819Y-90514285D02*
X203954819Y-90133333D01*
X203954819Y-90133333D02*
X204002438Y-90038095D01*
X204002438Y-90038095D02*
X204050057Y-89990476D01*
X204050057Y-89990476D02*
X204145295Y-89942857D01*
X204145295Y-89942857D02*
X204288152Y-89942857D01*
X204288152Y-89942857D02*
X204383390Y-89990476D01*
X204383390Y-89990476D02*
X204431009Y-90038095D01*
X204431009Y-90038095D02*
X204478628Y-90133333D01*
X204478628Y-90133333D02*
X204478628Y-90514285D01*
X204050057Y-89561904D02*
X204002438Y-89514285D01*
X204002438Y-89514285D02*
X203954819Y-89419047D01*
X203954819Y-89419047D02*
X203954819Y-89180952D01*
X203954819Y-89180952D02*
X204002438Y-89085714D01*
X204002438Y-89085714D02*
X204050057Y-89038095D01*
X204050057Y-89038095D02*
X204145295Y-88990476D01*
X204145295Y-88990476D02*
X204240533Y-88990476D01*
X204240533Y-88990476D02*
X204383390Y-89038095D01*
X204383390Y-89038095D02*
X204954819Y-89609523D01*
X204954819Y-89609523D02*
X204954819Y-88990476D01*
X204050057Y-88609523D02*
X204002438Y-88561904D01*
X204002438Y-88561904D02*
X203954819Y-88466666D01*
X203954819Y-88466666D02*
X203954819Y-88228571D01*
X203954819Y-88228571D02*
X204002438Y-88133333D01*
X204002438Y-88133333D02*
X204050057Y-88085714D01*
X204050057Y-88085714D02*
X204145295Y-88038095D01*
X204145295Y-88038095D02*
X204240533Y-88038095D01*
X204240533Y-88038095D02*
X204383390Y-88085714D01*
X204383390Y-88085714D02*
X204954819Y-88657142D01*
X204954819Y-88657142D02*
X204954819Y-88038095D01*
X191178628Y-65376190D02*
X191654819Y-65376190D01*
X190654819Y-65709523D02*
X191178628Y-65376190D01*
X191178628Y-65376190D02*
X190654819Y-65042857D01*
X191654819Y-64185714D02*
X191654819Y-64757142D01*
X191654819Y-64471428D02*
X190654819Y-64471428D01*
X190654819Y-64471428D02*
X190797676Y-64566666D01*
X190797676Y-64566666D02*
X190892914Y-64661904D01*
X190892914Y-64661904D02*
X190940533Y-64757142D01*
D12*
X234590476Y-69893804D02*
X234661904Y-69917614D01*
X234661904Y-69917614D02*
X234685714Y-69941423D01*
X234685714Y-69941423D02*
X234709523Y-69989042D01*
X234709523Y-69989042D02*
X234709523Y-70060471D01*
X234709523Y-70060471D02*
X234685714Y-70108090D01*
X234685714Y-70108090D02*
X234661904Y-70131900D01*
X234661904Y-70131900D02*
X234614285Y-70155709D01*
X234614285Y-70155709D02*
X234423809Y-70155709D01*
X234423809Y-70155709D02*
X234423809Y-69655709D01*
X234423809Y-69655709D02*
X234590476Y-69655709D01*
X234590476Y-69655709D02*
X234638095Y-69679519D01*
X234638095Y-69679519D02*
X234661904Y-69703328D01*
X234661904Y-69703328D02*
X234685714Y-69750947D01*
X234685714Y-69750947D02*
X234685714Y-69798566D01*
X234685714Y-69798566D02*
X234661904Y-69846185D01*
X234661904Y-69846185D02*
X234638095Y-69869995D01*
X234638095Y-69869995D02*
X234590476Y-69893804D01*
X234590476Y-69893804D02*
X234423809Y-69893804D01*
X235138095Y-70155709D02*
X235138095Y-69893804D01*
X235138095Y-69893804D02*
X235114285Y-69846185D01*
X235114285Y-69846185D02*
X235066666Y-69822376D01*
X235066666Y-69822376D02*
X234971428Y-69822376D01*
X234971428Y-69822376D02*
X234923809Y-69846185D01*
X235138095Y-70131900D02*
X235090476Y-70155709D01*
X235090476Y-70155709D02*
X234971428Y-70155709D01*
X234971428Y-70155709D02*
X234923809Y-70131900D01*
X234923809Y-70131900D02*
X234900000Y-70084280D01*
X234900000Y-70084280D02*
X234900000Y-70036661D01*
X234900000Y-70036661D02*
X234923809Y-69989042D01*
X234923809Y-69989042D02*
X234971428Y-69965233D01*
X234971428Y-69965233D02*
X235090476Y-69965233D01*
X235090476Y-69965233D02*
X235138095Y-69941423D01*
X235304762Y-69822376D02*
X235495238Y-69822376D01*
X235376190Y-69655709D02*
X235376190Y-70084280D01*
X235376190Y-70084280D02*
X235400000Y-70131900D01*
X235400000Y-70131900D02*
X235447619Y-70155709D01*
X235447619Y-70155709D02*
X235495238Y-70155709D01*
X235590476Y-69822376D02*
X235780952Y-69822376D01*
X235661904Y-69655709D02*
X235661904Y-70084280D01*
X235661904Y-70084280D02*
X235685714Y-70131900D01*
X235685714Y-70131900D02*
X235733333Y-70155709D01*
X235733333Y-70155709D02*
X235780952Y-70155709D01*
X236614284Y-70108090D02*
X236590475Y-70131900D01*
X236590475Y-70131900D02*
X236519046Y-70155709D01*
X236519046Y-70155709D02*
X236471427Y-70155709D01*
X236471427Y-70155709D02*
X236399999Y-70131900D01*
X236399999Y-70131900D02*
X236352380Y-70084280D01*
X236352380Y-70084280D02*
X236328570Y-70036661D01*
X236328570Y-70036661D02*
X236304761Y-69941423D01*
X236304761Y-69941423D02*
X236304761Y-69869995D01*
X236304761Y-69869995D02*
X236328570Y-69774757D01*
X236328570Y-69774757D02*
X236352380Y-69727138D01*
X236352380Y-69727138D02*
X236399999Y-69679519D01*
X236399999Y-69679519D02*
X236471427Y-69655709D01*
X236471427Y-69655709D02*
X236519046Y-69655709D01*
X236519046Y-69655709D02*
X236590475Y-69679519D01*
X236590475Y-69679519D02*
X236614284Y-69703328D01*
X236899999Y-70155709D02*
X236852380Y-70131900D01*
X236852380Y-70131900D02*
X236828570Y-70108090D01*
X236828570Y-70108090D02*
X236804761Y-70060471D01*
X236804761Y-70060471D02*
X236804761Y-69917614D01*
X236804761Y-69917614D02*
X236828570Y-69869995D01*
X236828570Y-69869995D02*
X236852380Y-69846185D01*
X236852380Y-69846185D02*
X236899999Y-69822376D01*
X236899999Y-69822376D02*
X236971427Y-69822376D01*
X236971427Y-69822376D02*
X237019046Y-69846185D01*
X237019046Y-69846185D02*
X237042856Y-69869995D01*
X237042856Y-69869995D02*
X237066665Y-69917614D01*
X237066665Y-69917614D02*
X237066665Y-70060471D01*
X237066665Y-70060471D02*
X237042856Y-70108090D01*
X237042856Y-70108090D02*
X237019046Y-70131900D01*
X237019046Y-70131900D02*
X236971427Y-70155709D01*
X236971427Y-70155709D02*
X236899999Y-70155709D01*
X237280951Y-70155709D02*
X237280951Y-69822376D01*
X237280951Y-69869995D02*
X237304761Y-69846185D01*
X237304761Y-69846185D02*
X237352380Y-69822376D01*
X237352380Y-69822376D02*
X237423808Y-69822376D01*
X237423808Y-69822376D02*
X237471427Y-69846185D01*
X237471427Y-69846185D02*
X237495237Y-69893804D01*
X237495237Y-69893804D02*
X237495237Y-70155709D01*
X237495237Y-69893804D02*
X237519046Y-69846185D01*
X237519046Y-69846185D02*
X237566665Y-69822376D01*
X237566665Y-69822376D02*
X237638094Y-69822376D01*
X237638094Y-69822376D02*
X237685713Y-69846185D01*
X237685713Y-69846185D02*
X237709523Y-69893804D01*
X237709523Y-69893804D02*
X237709523Y-70155709D01*
X237947618Y-70155709D02*
X237947618Y-69822376D01*
X237947618Y-69869995D02*
X237971428Y-69846185D01*
X237971428Y-69846185D02*
X238019047Y-69822376D01*
X238019047Y-69822376D02*
X238090475Y-69822376D01*
X238090475Y-69822376D02*
X238138094Y-69846185D01*
X238138094Y-69846185D02*
X238161904Y-69893804D01*
X238161904Y-69893804D02*
X238161904Y-70155709D01*
X238161904Y-69893804D02*
X238185713Y-69846185D01*
X238185713Y-69846185D02*
X238233332Y-69822376D01*
X238233332Y-69822376D02*
X238304761Y-69822376D01*
X238304761Y-69822376D02*
X238352380Y-69846185D01*
X238352380Y-69846185D02*
X238376190Y-69893804D01*
X238376190Y-69893804D02*
X238376190Y-70155709D01*
D11*
X191738095Y-108254819D02*
X191738095Y-109064342D01*
X191738095Y-109064342D02*
X191785714Y-109159580D01*
X191785714Y-109159580D02*
X191833333Y-109207200D01*
X191833333Y-109207200D02*
X191928571Y-109254819D01*
X191928571Y-109254819D02*
X192119047Y-109254819D01*
X192119047Y-109254819D02*
X192214285Y-109207200D01*
X192214285Y-109207200D02*
X192261904Y-109159580D01*
X192261904Y-109159580D02*
X192309523Y-109064342D01*
X192309523Y-109064342D02*
X192309523Y-108254819D01*
X192928571Y-108683390D02*
X192833333Y-108635771D01*
X192833333Y-108635771D02*
X192785714Y-108588152D01*
X192785714Y-108588152D02*
X192738095Y-108492914D01*
X192738095Y-108492914D02*
X192738095Y-108445295D01*
X192738095Y-108445295D02*
X192785714Y-108350057D01*
X192785714Y-108350057D02*
X192833333Y-108302438D01*
X192833333Y-108302438D02*
X192928571Y-108254819D01*
X192928571Y-108254819D02*
X193119047Y-108254819D01*
X193119047Y-108254819D02*
X193214285Y-108302438D01*
X193214285Y-108302438D02*
X193261904Y-108350057D01*
X193261904Y-108350057D02*
X193309523Y-108445295D01*
X193309523Y-108445295D02*
X193309523Y-108492914D01*
X193309523Y-108492914D02*
X193261904Y-108588152D01*
X193261904Y-108588152D02*
X193214285Y-108635771D01*
X193214285Y-108635771D02*
X193119047Y-108683390D01*
X193119047Y-108683390D02*
X192928571Y-108683390D01*
X192928571Y-108683390D02*
X192833333Y-108731009D01*
X192833333Y-108731009D02*
X192785714Y-108778628D01*
X192785714Y-108778628D02*
X192738095Y-108873866D01*
X192738095Y-108873866D02*
X192738095Y-109064342D01*
X192738095Y-109064342D02*
X192785714Y-109159580D01*
X192785714Y-109159580D02*
X192833333Y-109207200D01*
X192833333Y-109207200D02*
X192928571Y-109254819D01*
X192928571Y-109254819D02*
X193119047Y-109254819D01*
X193119047Y-109254819D02*
X193214285Y-109207200D01*
X193214285Y-109207200D02*
X193261904Y-109159580D01*
X193261904Y-109159580D02*
X193309523Y-109064342D01*
X193309523Y-109064342D02*
X193309523Y-108873866D01*
X193309523Y-108873866D02*
X193261904Y-108778628D01*
X193261904Y-108778628D02*
X193214285Y-108731009D01*
X193214285Y-108731009D02*
X193119047Y-108683390D01*
X262949366Y-99683333D02*
X262949366Y-99450000D01*
X263316033Y-99350000D02*
X263316033Y-99683333D01*
X263316033Y-99683333D02*
X262616033Y-99683333D01*
X262616033Y-99683333D02*
X262616033Y-99350000D01*
X263249366Y-98650000D02*
X263282700Y-98683333D01*
X263282700Y-98683333D02*
X263316033Y-98783333D01*
X263316033Y-98783333D02*
X263316033Y-98850000D01*
X263316033Y-98850000D02*
X263282700Y-98950000D01*
X263282700Y-98950000D02*
X263216033Y-99016667D01*
X263216033Y-99016667D02*
X263149366Y-99050000D01*
X263149366Y-99050000D02*
X263016033Y-99083333D01*
X263016033Y-99083333D02*
X262916033Y-99083333D01*
X262916033Y-99083333D02*
X262782700Y-99050000D01*
X262782700Y-99050000D02*
X262716033Y-99016667D01*
X262716033Y-99016667D02*
X262649366Y-98950000D01*
X262649366Y-98950000D02*
X262616033Y-98850000D01*
X262616033Y-98850000D02*
X262616033Y-98783333D01*
X262616033Y-98783333D02*
X262649366Y-98683333D01*
X262649366Y-98683333D02*
X262682700Y-98650000D01*
X263316033Y-98350000D02*
X262616033Y-98350000D01*
X263316033Y-97950000D02*
X262916033Y-98250000D01*
X262616033Y-97950000D02*
X263016033Y-98350000D01*
X262682700Y-97683333D02*
X262649366Y-97650000D01*
X262649366Y-97650000D02*
X262616033Y-97583333D01*
X262616033Y-97583333D02*
X262616033Y-97416667D01*
X262616033Y-97416667D02*
X262649366Y-97350000D01*
X262649366Y-97350000D02*
X262682700Y-97316667D01*
X262682700Y-97316667D02*
X262749366Y-97283333D01*
X262749366Y-97283333D02*
X262816033Y-97283333D01*
X262816033Y-97283333D02*
X262916033Y-97316667D01*
X262916033Y-97316667D02*
X263316033Y-97716667D01*
X263316033Y-97716667D02*
X263316033Y-97283333D01*
X262616033Y-96850000D02*
X262616033Y-96783333D01*
X262616033Y-96783333D02*
X262649366Y-96716666D01*
X262649366Y-96716666D02*
X262682700Y-96683333D01*
X262682700Y-96683333D02*
X262749366Y-96650000D01*
X262749366Y-96650000D02*
X262882700Y-96616666D01*
X262882700Y-96616666D02*
X263049366Y-96616666D01*
X263049366Y-96616666D02*
X263182700Y-96650000D01*
X263182700Y-96650000D02*
X263249366Y-96683333D01*
X263249366Y-96683333D02*
X263282700Y-96716666D01*
X263282700Y-96716666D02*
X263316033Y-96783333D01*
X263316033Y-96783333D02*
X263316033Y-96850000D01*
X263316033Y-96850000D02*
X263282700Y-96916666D01*
X263282700Y-96916666D02*
X263249366Y-96950000D01*
X263249366Y-96950000D02*
X263182700Y-96983333D01*
X263182700Y-96983333D02*
X263049366Y-97016666D01*
X263049366Y-97016666D02*
X262882700Y-97016666D01*
X262882700Y-97016666D02*
X262749366Y-96983333D01*
X262749366Y-96983333D02*
X262682700Y-96950000D01*
X262682700Y-96950000D02*
X262649366Y-96916666D01*
X262649366Y-96916666D02*
X262616033Y-96850000D01*
X262616033Y-96183333D02*
X262616033Y-96116666D01*
X262616033Y-96116666D02*
X262649366Y-96049999D01*
X262649366Y-96049999D02*
X262682700Y-96016666D01*
X262682700Y-96016666D02*
X262749366Y-95983333D01*
X262749366Y-95983333D02*
X262882700Y-95949999D01*
X262882700Y-95949999D02*
X263049366Y-95949999D01*
X263049366Y-95949999D02*
X263182700Y-95983333D01*
X263182700Y-95983333D02*
X263249366Y-96016666D01*
X263249366Y-96016666D02*
X263282700Y-96049999D01*
X263282700Y-96049999D02*
X263316033Y-96116666D01*
X263316033Y-96116666D02*
X263316033Y-96183333D01*
X263316033Y-96183333D02*
X263282700Y-96249999D01*
X263282700Y-96249999D02*
X263249366Y-96283333D01*
X263249366Y-96283333D02*
X263182700Y-96316666D01*
X263182700Y-96316666D02*
X263049366Y-96349999D01*
X263049366Y-96349999D02*
X262882700Y-96349999D01*
X262882700Y-96349999D02*
X262749366Y-96316666D01*
X262749366Y-96316666D02*
X262682700Y-96283333D01*
X262682700Y-96283333D02*
X262649366Y-96249999D01*
X262649366Y-96249999D02*
X262616033Y-96183333D01*
X262949366Y-95416666D02*
X262982700Y-95316666D01*
X262982700Y-95316666D02*
X263016033Y-95283332D01*
X263016033Y-95283332D02*
X263082700Y-95249999D01*
X263082700Y-95249999D02*
X263182700Y-95249999D01*
X263182700Y-95249999D02*
X263249366Y-95283332D01*
X263249366Y-95283332D02*
X263282700Y-95316666D01*
X263282700Y-95316666D02*
X263316033Y-95383332D01*
X263316033Y-95383332D02*
X263316033Y-95649999D01*
X263316033Y-95649999D02*
X262616033Y-95649999D01*
X262616033Y-95649999D02*
X262616033Y-95416666D01*
X262616033Y-95416666D02*
X262649366Y-95349999D01*
X262649366Y-95349999D02*
X262682700Y-95316666D01*
X262682700Y-95316666D02*
X262749366Y-95283332D01*
X262749366Y-95283332D02*
X262816033Y-95283332D01*
X262816033Y-95283332D02*
X262882700Y-95316666D01*
X262882700Y-95316666D02*
X262916033Y-95349999D01*
X262916033Y-95349999D02*
X262949366Y-95416666D01*
X262949366Y-95416666D02*
X262949366Y-95649999D01*
X263316033Y-94949999D02*
X262616033Y-94949999D01*
X262949366Y-94949999D02*
X262949366Y-94549999D01*
X263316033Y-94549999D02*
X262616033Y-94549999D01*
X263116033Y-94249999D02*
X263116033Y-93916666D01*
X263316033Y-94316666D02*
X262616033Y-94083333D01*
X262616033Y-94083333D02*
X263316033Y-93849999D01*
X263116033Y-93649999D02*
X263116033Y-93316666D01*
X263316033Y-93716666D02*
X262616033Y-93483333D01*
X262616033Y-93483333D02*
X263316033Y-93249999D01*
X262949366Y-93016666D02*
X262949366Y-92783333D01*
X263316033Y-92683333D02*
X263316033Y-93016666D01*
X263316033Y-93016666D02*
X262616033Y-93016666D01*
X262616033Y-93016666D02*
X262616033Y-92683333D01*
X263116033Y-92416666D02*
X263116033Y-92083333D01*
X263316033Y-92483333D02*
X262616033Y-92250000D01*
X262616033Y-92250000D02*
X263316033Y-92016666D01*
X193057142Y-82559580D02*
X193009523Y-82607200D01*
X193009523Y-82607200D02*
X192866666Y-82654819D01*
X192866666Y-82654819D02*
X192771428Y-82654819D01*
X192771428Y-82654819D02*
X192628571Y-82607200D01*
X192628571Y-82607200D02*
X192533333Y-82511961D01*
X192533333Y-82511961D02*
X192485714Y-82416723D01*
X192485714Y-82416723D02*
X192438095Y-82226247D01*
X192438095Y-82226247D02*
X192438095Y-82083390D01*
X192438095Y-82083390D02*
X192485714Y-81892914D01*
X192485714Y-81892914D02*
X192533333Y-81797676D01*
X192533333Y-81797676D02*
X192628571Y-81702438D01*
X192628571Y-81702438D02*
X192771428Y-81654819D01*
X192771428Y-81654819D02*
X192866666Y-81654819D01*
X192866666Y-81654819D02*
X193009523Y-81702438D01*
X193009523Y-81702438D02*
X193057142Y-81750057D01*
X193438095Y-81750057D02*
X193485714Y-81702438D01*
X193485714Y-81702438D02*
X193580952Y-81654819D01*
X193580952Y-81654819D02*
X193819047Y-81654819D01*
X193819047Y-81654819D02*
X193914285Y-81702438D01*
X193914285Y-81702438D02*
X193961904Y-81750057D01*
X193961904Y-81750057D02*
X194009523Y-81845295D01*
X194009523Y-81845295D02*
X194009523Y-81940533D01*
X194009523Y-81940533D02*
X193961904Y-82083390D01*
X193961904Y-82083390D02*
X193390476Y-82654819D01*
X193390476Y-82654819D02*
X194009523Y-82654819D01*
X194866666Y-81988152D02*
X194866666Y-82654819D01*
X194628571Y-81607200D02*
X194390476Y-82321485D01*
X194390476Y-82321485D02*
X195009523Y-82321485D01*
X211583333Y-117859580D02*
X211535714Y-117907200D01*
X211535714Y-117907200D02*
X211392857Y-117954819D01*
X211392857Y-117954819D02*
X211297619Y-117954819D01*
X211297619Y-117954819D02*
X211154762Y-117907200D01*
X211154762Y-117907200D02*
X211059524Y-117811961D01*
X211059524Y-117811961D02*
X211011905Y-117716723D01*
X211011905Y-117716723D02*
X210964286Y-117526247D01*
X210964286Y-117526247D02*
X210964286Y-117383390D01*
X210964286Y-117383390D02*
X211011905Y-117192914D01*
X211011905Y-117192914D02*
X211059524Y-117097676D01*
X211059524Y-117097676D02*
X211154762Y-117002438D01*
X211154762Y-117002438D02*
X211297619Y-116954819D01*
X211297619Y-116954819D02*
X211392857Y-116954819D01*
X211392857Y-116954819D02*
X211535714Y-117002438D01*
X211535714Y-117002438D02*
X211583333Y-117050057D01*
X212488095Y-116954819D02*
X212011905Y-116954819D01*
X212011905Y-116954819D02*
X211964286Y-117431009D01*
X211964286Y-117431009D02*
X212011905Y-117383390D01*
X212011905Y-117383390D02*
X212107143Y-117335771D01*
X212107143Y-117335771D02*
X212345238Y-117335771D01*
X212345238Y-117335771D02*
X212440476Y-117383390D01*
X212440476Y-117383390D02*
X212488095Y-117431009D01*
X212488095Y-117431009D02*
X212535714Y-117526247D01*
X212535714Y-117526247D02*
X212535714Y-117764342D01*
X212535714Y-117764342D02*
X212488095Y-117859580D01*
X212488095Y-117859580D02*
X212440476Y-117907200D01*
X212440476Y-117907200D02*
X212345238Y-117954819D01*
X212345238Y-117954819D02*
X212107143Y-117954819D01*
X212107143Y-117954819D02*
X212011905Y-117907200D01*
X212011905Y-117907200D02*
X211964286Y-117859580D01*
X198954819Y-89942857D02*
X198478628Y-90276190D01*
X198954819Y-90514285D02*
X197954819Y-90514285D01*
X197954819Y-90514285D02*
X197954819Y-90133333D01*
X197954819Y-90133333D02*
X198002438Y-90038095D01*
X198002438Y-90038095D02*
X198050057Y-89990476D01*
X198050057Y-89990476D02*
X198145295Y-89942857D01*
X198145295Y-89942857D02*
X198288152Y-89942857D01*
X198288152Y-89942857D02*
X198383390Y-89990476D01*
X198383390Y-89990476D02*
X198431009Y-90038095D01*
X198431009Y-90038095D02*
X198478628Y-90133333D01*
X198478628Y-90133333D02*
X198478628Y-90514285D01*
X198050057Y-89561904D02*
X198002438Y-89514285D01*
X198002438Y-89514285D02*
X197954819Y-89419047D01*
X197954819Y-89419047D02*
X197954819Y-89180952D01*
X197954819Y-89180952D02*
X198002438Y-89085714D01*
X198002438Y-89085714D02*
X198050057Y-89038095D01*
X198050057Y-89038095D02*
X198145295Y-88990476D01*
X198145295Y-88990476D02*
X198240533Y-88990476D01*
X198240533Y-88990476D02*
X198383390Y-89038095D01*
X198383390Y-89038095D02*
X198954819Y-89609523D01*
X198954819Y-89609523D02*
X198954819Y-88990476D01*
X198954819Y-88038095D02*
X198954819Y-88609523D01*
X198954819Y-88323809D02*
X197954819Y-88323809D01*
X197954819Y-88323809D02*
X198097676Y-88419047D01*
X198097676Y-88419047D02*
X198192914Y-88514285D01*
X198192914Y-88514285D02*
X198240533Y-88609523D01*
X231361905Y-63454819D02*
X231361905Y-64264342D01*
X231361905Y-64264342D02*
X231409524Y-64359580D01*
X231409524Y-64359580D02*
X231457143Y-64407200D01*
X231457143Y-64407200D02*
X231552381Y-64454819D01*
X231552381Y-64454819D02*
X231742857Y-64454819D01*
X231742857Y-64454819D02*
X231838095Y-64407200D01*
X231838095Y-64407200D02*
X231885714Y-64359580D01*
X231885714Y-64359580D02*
X231933333Y-64264342D01*
X231933333Y-64264342D02*
X231933333Y-63454819D01*
X232933333Y-64454819D02*
X232361905Y-64454819D01*
X232647619Y-64454819D02*
X232647619Y-63454819D01*
X232647619Y-63454819D02*
X232552381Y-63597676D01*
X232552381Y-63597676D02*
X232457143Y-63692914D01*
X232457143Y-63692914D02*
X232361905Y-63740533D01*
X233552381Y-63454819D02*
X233647619Y-63454819D01*
X233647619Y-63454819D02*
X233742857Y-63502438D01*
X233742857Y-63502438D02*
X233790476Y-63550057D01*
X233790476Y-63550057D02*
X233838095Y-63645295D01*
X233838095Y-63645295D02*
X233885714Y-63835771D01*
X233885714Y-63835771D02*
X233885714Y-64073866D01*
X233885714Y-64073866D02*
X233838095Y-64264342D01*
X233838095Y-64264342D02*
X233790476Y-64359580D01*
X233790476Y-64359580D02*
X233742857Y-64407200D01*
X233742857Y-64407200D02*
X233647619Y-64454819D01*
X233647619Y-64454819D02*
X233552381Y-64454819D01*
X233552381Y-64454819D02*
X233457143Y-64407200D01*
X233457143Y-64407200D02*
X233409524Y-64359580D01*
X233409524Y-64359580D02*
X233361905Y-64264342D01*
X233361905Y-64264342D02*
X233314286Y-64073866D01*
X233314286Y-64073866D02*
X233314286Y-63835771D01*
X233314286Y-63835771D02*
X233361905Y-63645295D01*
X233361905Y-63645295D02*
X233409524Y-63550057D01*
X233409524Y-63550057D02*
X233457143Y-63502438D01*
X233457143Y-63502438D02*
X233552381Y-63454819D01*
X218454819Y-121642857D02*
X217978628Y-121976190D01*
X218454819Y-122214285D02*
X217454819Y-122214285D01*
X217454819Y-122214285D02*
X217454819Y-121833333D01*
X217454819Y-121833333D02*
X217502438Y-121738095D01*
X217502438Y-121738095D02*
X217550057Y-121690476D01*
X217550057Y-121690476D02*
X217645295Y-121642857D01*
X217645295Y-121642857D02*
X217788152Y-121642857D01*
X217788152Y-121642857D02*
X217883390Y-121690476D01*
X217883390Y-121690476D02*
X217931009Y-121738095D01*
X217931009Y-121738095D02*
X217978628Y-121833333D01*
X217978628Y-121833333D02*
X217978628Y-122214285D01*
X218454819Y-120690476D02*
X218454819Y-121261904D01*
X218454819Y-120976190D02*
X217454819Y-120976190D01*
X217454819Y-120976190D02*
X217597676Y-121071428D01*
X217597676Y-121071428D02*
X217692914Y-121166666D01*
X217692914Y-121166666D02*
X217740533Y-121261904D01*
X217550057Y-120309523D02*
X217502438Y-120261904D01*
X217502438Y-120261904D02*
X217454819Y-120166666D01*
X217454819Y-120166666D02*
X217454819Y-119928571D01*
X217454819Y-119928571D02*
X217502438Y-119833333D01*
X217502438Y-119833333D02*
X217550057Y-119785714D01*
X217550057Y-119785714D02*
X217645295Y-119738095D01*
X217645295Y-119738095D02*
X217740533Y-119738095D01*
X217740533Y-119738095D02*
X217883390Y-119785714D01*
X217883390Y-119785714D02*
X218454819Y-120357142D01*
X218454819Y-120357142D02*
X218454819Y-119738095D01*
X211154819Y-108142857D02*
X210678628Y-108476190D01*
X211154819Y-108714285D02*
X210154819Y-108714285D01*
X210154819Y-108714285D02*
X210154819Y-108333333D01*
X210154819Y-108333333D02*
X210202438Y-108238095D01*
X210202438Y-108238095D02*
X210250057Y-108190476D01*
X210250057Y-108190476D02*
X210345295Y-108142857D01*
X210345295Y-108142857D02*
X210488152Y-108142857D01*
X210488152Y-108142857D02*
X210583390Y-108190476D01*
X210583390Y-108190476D02*
X210631009Y-108238095D01*
X210631009Y-108238095D02*
X210678628Y-108333333D01*
X210678628Y-108333333D02*
X210678628Y-108714285D01*
X211154819Y-107190476D02*
X211154819Y-107761904D01*
X211154819Y-107476190D02*
X210154819Y-107476190D01*
X210154819Y-107476190D02*
X210297676Y-107571428D01*
X210297676Y-107571428D02*
X210392914Y-107666666D01*
X210392914Y-107666666D02*
X210440533Y-107761904D01*
X210154819Y-106333333D02*
X210154819Y-106523809D01*
X210154819Y-106523809D02*
X210202438Y-106619047D01*
X210202438Y-106619047D02*
X210250057Y-106666666D01*
X210250057Y-106666666D02*
X210392914Y-106761904D01*
X210392914Y-106761904D02*
X210583390Y-106809523D01*
X210583390Y-106809523D02*
X210964342Y-106809523D01*
X210964342Y-106809523D02*
X211059580Y-106761904D01*
X211059580Y-106761904D02*
X211107200Y-106714285D01*
X211107200Y-106714285D02*
X211154819Y-106619047D01*
X211154819Y-106619047D02*
X211154819Y-106428571D01*
X211154819Y-106428571D02*
X211107200Y-106333333D01*
X211107200Y-106333333D02*
X211059580Y-106285714D01*
X211059580Y-106285714D02*
X210964342Y-106238095D01*
X210964342Y-106238095D02*
X210726247Y-106238095D01*
X210726247Y-106238095D02*
X210631009Y-106285714D01*
X210631009Y-106285714D02*
X210583390Y-106333333D01*
X210583390Y-106333333D02*
X210535771Y-106428571D01*
X210535771Y-106428571D02*
X210535771Y-106619047D01*
X210535771Y-106619047D02*
X210583390Y-106714285D01*
X210583390Y-106714285D02*
X210631009Y-106761904D01*
X210631009Y-106761904D02*
X210726247Y-106809523D01*
X213954819Y-109761904D02*
X214764342Y-109761904D01*
X214764342Y-109761904D02*
X214859580Y-109714285D01*
X214859580Y-109714285D02*
X214907200Y-109666666D01*
X214907200Y-109666666D02*
X214954819Y-109571428D01*
X214954819Y-109571428D02*
X214954819Y-109380952D01*
X214954819Y-109380952D02*
X214907200Y-109285714D01*
X214907200Y-109285714D02*
X214859580Y-109238095D01*
X214859580Y-109238095D02*
X214764342Y-109190476D01*
X214764342Y-109190476D02*
X213954819Y-109190476D01*
X213954819Y-108809523D02*
X213954819Y-108190476D01*
X213954819Y-108190476D02*
X214335771Y-108523809D01*
X214335771Y-108523809D02*
X214335771Y-108380952D01*
X214335771Y-108380952D02*
X214383390Y-108285714D01*
X214383390Y-108285714D02*
X214431009Y-108238095D01*
X214431009Y-108238095D02*
X214526247Y-108190476D01*
X214526247Y-108190476D02*
X214764342Y-108190476D01*
X214764342Y-108190476D02*
X214859580Y-108238095D01*
X214859580Y-108238095D02*
X214907200Y-108285714D01*
X214907200Y-108285714D02*
X214954819Y-108380952D01*
X214954819Y-108380952D02*
X214954819Y-108666666D01*
X214954819Y-108666666D02*
X214907200Y-108761904D01*
X214907200Y-108761904D02*
X214859580Y-108809523D01*
X199057142Y-68659580D02*
X199009523Y-68707200D01*
X199009523Y-68707200D02*
X198866666Y-68754819D01*
X198866666Y-68754819D02*
X198771428Y-68754819D01*
X198771428Y-68754819D02*
X198628571Y-68707200D01*
X198628571Y-68707200D02*
X198533333Y-68611961D01*
X198533333Y-68611961D02*
X198485714Y-68516723D01*
X198485714Y-68516723D02*
X198438095Y-68326247D01*
X198438095Y-68326247D02*
X198438095Y-68183390D01*
X198438095Y-68183390D02*
X198485714Y-67992914D01*
X198485714Y-67992914D02*
X198533333Y-67897676D01*
X198533333Y-67897676D02*
X198628571Y-67802438D01*
X198628571Y-67802438D02*
X198771428Y-67754819D01*
X198771428Y-67754819D02*
X198866666Y-67754819D01*
X198866666Y-67754819D02*
X199009523Y-67802438D01*
X199009523Y-67802438D02*
X199057142Y-67850057D01*
X199438095Y-67850057D02*
X199485714Y-67802438D01*
X199485714Y-67802438D02*
X199580952Y-67754819D01*
X199580952Y-67754819D02*
X199819047Y-67754819D01*
X199819047Y-67754819D02*
X199914285Y-67802438D01*
X199914285Y-67802438D02*
X199961904Y-67850057D01*
X199961904Y-67850057D02*
X200009523Y-67945295D01*
X200009523Y-67945295D02*
X200009523Y-68040533D01*
X200009523Y-68040533D02*
X199961904Y-68183390D01*
X199961904Y-68183390D02*
X199390476Y-68754819D01*
X199390476Y-68754819D02*
X200009523Y-68754819D01*
X200342857Y-67754819D02*
X201009523Y-67754819D01*
X201009523Y-67754819D02*
X200580952Y-68754819D01*
D13*
%TO.C,U15*%
X245224200Y-69930900D02*
X245224200Y-68758265D01*
X245224200Y-58069100D02*
X238975800Y-58069100D01*
X238975800Y-58069100D02*
X238975800Y-69930900D01*
X238975800Y-69930900D02*
X245224200Y-69930900D01*
X245224200Y-66861735D02*
X245224200Y-65642229D01*
X245224200Y-64897771D02*
X245224200Y-63102229D01*
X245224200Y-62357771D02*
X245224200Y-60562229D01*
X245224200Y-59817771D02*
X245224200Y-58069100D01*
%TO.C,U9*%
X201749600Y-100724300D02*
X201749600Y-92875700D01*
X201749600Y-92875700D02*
X201037586Y-92875700D01*
X195450400Y-92875700D02*
X195450400Y-100724300D01*
X195450400Y-100724300D02*
X196162414Y-100724300D01*
X201037586Y-100724300D02*
X201749600Y-100724300D01*
X196162414Y-92875700D02*
X195450400Y-92875700D01*
%TO.C,U7*%
X208744600Y-101047500D02*
X208744600Y-93198900D01*
X208744600Y-93198900D02*
X208032586Y-93198900D01*
X202445400Y-93198900D02*
X202445400Y-101047500D01*
X202445400Y-101047500D02*
X203157414Y-101047500D01*
X208032586Y-101047500D02*
X208744600Y-101047500D01*
X203157414Y-93198900D02*
X202445400Y-93198900D01*
D14*
%TO.C,D4*%
X245960000Y-107950000D02*
X238300000Y-107950000D01*
X245960000Y-107950000D02*
X245960000Y-103650000D01*
X245960000Y-103650000D02*
X238300000Y-103650000D01*
%TO.C,R6*%
X212272936Y-124290000D02*
X216627064Y-124290000D01*
X212272936Y-127710000D02*
X216627064Y-127710000D01*
%TO.C,U13*%
X194390000Y-70590000D02*
X194390000Y-71540000D01*
X194390000Y-71540000D02*
X193050000Y-71540000D01*
X194390000Y-80810000D02*
X194390000Y-79860000D01*
X195340000Y-70590000D02*
X194390000Y-70590000D01*
X195340000Y-80810000D02*
X194390000Y-80810000D01*
X203660000Y-70590000D02*
X204610000Y-70590000D01*
X203660000Y-80810000D02*
X204610000Y-80810000D01*
X204610000Y-70590000D02*
X204610000Y-71540000D01*
X204610000Y-80810000D02*
X204610000Y-79860000D01*
%TO.C,U5*%
X216470000Y-101970000D02*
X221670000Y-101970000D01*
X221670000Y-101970000D02*
X221670000Y-95500000D01*
X216470000Y-99735000D02*
X216470000Y-101970000D01*
X216470000Y-95500000D02*
X216470000Y-97735000D01*
X221670000Y-95500000D02*
X216470000Y-95500000D01*
X216470000Y-99735000D02*
G75*
G03*
X216470000Y-97735000I0J1000000D01*
G01*
%TO.C,Q2*%
X235060000Y-76320000D02*
X231900000Y-76320000D01*
X235060000Y-76320000D02*
X235060000Y-77250000D01*
X235060000Y-79480000D02*
X233600000Y-79480000D01*
X235060000Y-79480000D02*
X235060000Y-78550000D01*
%TO.C,J1*%
X211490000Y-58090000D02*
X211490000Y-66910000D01*
X211490000Y-58900000D02*
X213990000Y-58900000D01*
X211490000Y-66910000D02*
X223710000Y-66910000D01*
X212400000Y-59900000D02*
X222800000Y-59900000D01*
X212400000Y-65200000D02*
X212400000Y-59900000D01*
X213100000Y-65200000D02*
X212400000Y-65200000D01*
X214100000Y-58090000D02*
X216100000Y-58090000D01*
X214100000Y-59900000D02*
X214100000Y-58090000D01*
X214800000Y-57290000D02*
X215400000Y-57290000D01*
X215100000Y-57890000D02*
X214800000Y-57290000D01*
X215400000Y-57290000D02*
X215100000Y-57890000D01*
X216100000Y-58090000D02*
X216100000Y-59900000D01*
X216100000Y-58900000D02*
X219100000Y-58900000D01*
X216100000Y-59900000D02*
X214100000Y-59900000D01*
X217100000Y-65200000D02*
X218100000Y-65200000D01*
X219100000Y-58090000D02*
X221100000Y-58090000D01*
X219100000Y-59900000D02*
X219100000Y-58090000D01*
X221100000Y-58090000D02*
X221100000Y-59900000D01*
X221100000Y-59900000D02*
X219100000Y-59900000D01*
X222800000Y-59900000D02*
X222800000Y-65200000D01*
X222800000Y-65200000D02*
X222100000Y-65200000D01*
X223710000Y-58090000D02*
X211490000Y-58090000D01*
X223710000Y-58900000D02*
X221210000Y-58900000D01*
X223710000Y-66910000D02*
X223710000Y-58090000D01*
X213100000Y-65200000D02*
G75*
G03*
X217086842Y-65215821I2000000J1650000D01*
G01*
X218100000Y-65200000D02*
G75*
G03*
X222086842Y-65215821I2000000J1650000D01*
G01*
%TO.C,U6*%
X210530000Y-102000000D02*
X215730000Y-102000000D01*
X215730000Y-102000000D02*
X215730000Y-95530000D01*
X210530000Y-99765000D02*
X210530000Y-102000000D01*
X210530000Y-95530000D02*
X210530000Y-97765000D01*
X215730000Y-95530000D02*
X210530000Y-95530000D01*
X210530000Y-99765000D02*
G75*
G03*
X210530000Y-97765000I0J1000000D01*
G01*
%TO.C,C15*%
X193073752Y-115510000D02*
X191651248Y-115510000D01*
X193073752Y-113690000D02*
X191651248Y-113690000D01*
%TO.C,R18*%
X203640000Y-109097936D02*
X203640000Y-109552064D01*
X202170000Y-109097936D02*
X202170000Y-109552064D01*
%TO.C,U1*%
X221730000Y-72090000D02*
X221730000Y-72360000D01*
X221730000Y-72360000D02*
X218900000Y-72360000D01*
X221730000Y-78720000D02*
X220630000Y-78720000D01*
X221730000Y-78990000D02*
X221730000Y-78720000D01*
X228150000Y-72090000D02*
X221730000Y-72090000D01*
X228150000Y-78990000D02*
X221730000Y-78990000D01*
%TO.C,U12*%
X209650000Y-79490000D02*
X215660000Y-79490000D01*
X211900000Y-86310000D02*
X215660000Y-86310000D01*
X215660000Y-79490000D02*
X215660000Y-80750000D01*
X215660000Y-86310000D02*
X215660000Y-85050000D01*
%TO.C,G\u002A\u002A\u002A*%
G36*
X238332806Y-91103034D02*
G01*
X238518458Y-91117807D01*
X238833629Y-91189319D01*
X239126224Y-91303079D01*
X239220397Y-91356822D01*
X239440163Y-91597854D01*
X239527603Y-91924656D01*
X239485516Y-92320945D01*
X239316705Y-92770441D01*
X239023969Y-93256864D01*
X238855070Y-93480333D01*
X238685930Y-93668662D01*
X238550180Y-93780732D01*
X238501563Y-93795735D01*
X238459938Y-93826285D01*
X238476063Y-93863053D01*
X238435476Y-93946392D01*
X238291601Y-94126147D01*
X238063894Y-94382082D01*
X237771813Y-94693965D01*
X237434815Y-95041560D01*
X237072357Y-95404635D01*
X236703897Y-95762953D01*
X236348892Y-96096283D01*
X236188808Y-96241620D01*
X236038137Y-96372117D01*
X235906503Y-96460398D01*
X235754996Y-96517036D01*
X235544705Y-96552604D01*
X235236721Y-96577675D01*
X234876474Y-96598227D01*
X234048407Y-96642032D01*
X233376779Y-96674518D01*
X232849105Y-96696084D01*
X232452897Y-96707126D01*
X232175668Y-96708044D01*
X232004930Y-96699234D01*
X231955667Y-96691324D01*
X231513020Y-96566969D01*
X231216041Y-96435616D01*
X231041108Y-96286415D01*
X231025428Y-96264122D01*
X230913834Y-95988670D01*
X230919429Y-95696770D01*
X231527965Y-95696770D01*
X231574393Y-95993612D01*
X231760077Y-96222082D01*
X231988399Y-96350195D01*
X232291693Y-96428221D01*
X232706793Y-96470821D01*
X233179624Y-96476599D01*
X233656116Y-96444162D01*
X233948486Y-96400735D01*
X234205044Y-96347072D01*
X234384153Y-96300231D01*
X234434318Y-96279237D01*
X234418217Y-96191514D01*
X234351300Y-95965749D01*
X234344826Y-95945690D01*
X236065065Y-95945690D01*
X236119634Y-95926734D01*
X236267147Y-95801309D01*
X236488373Y-95589790D01*
X236764081Y-95312558D01*
X237075038Y-94989988D01*
X237141200Y-94919667D01*
X237332000Y-94919667D01*
X237374333Y-94962000D01*
X237416667Y-94919667D01*
X237374333Y-94877333D01*
X237332000Y-94919667D01*
X237141200Y-94919667D01*
X237402014Y-94642460D01*
X237725778Y-94290350D01*
X238027097Y-93954036D01*
X238286740Y-93653898D01*
X238485476Y-93410311D01*
X238581432Y-93279329D01*
X238894200Y-92747550D01*
X239062677Y-92303917D01*
X239086476Y-91947330D01*
X238965213Y-91676685D01*
X238698499Y-91490881D01*
X238285949Y-91388817D01*
X237910770Y-91366610D01*
X237617126Y-91372028D01*
X237395828Y-91389067D01*
X237296816Y-91413177D01*
X237259099Y-91508375D01*
X237185998Y-91741409D01*
X237084602Y-92086195D01*
X236961998Y-92516650D01*
X236825276Y-93006690D01*
X236681524Y-93530229D01*
X236537830Y-94061185D01*
X236401283Y-94573474D01*
X236278972Y-95041011D01*
X236177986Y-95437712D01*
X236105411Y-95737494D01*
X236068339Y-95914273D01*
X236065065Y-95945690D01*
X234344826Y-95945690D01*
X234240677Y-95623018D01*
X234093458Y-95184396D01*
X233916754Y-94670958D01*
X233717673Y-94103781D01*
X233503327Y-93503940D01*
X233424875Y-93287038D01*
X233386343Y-93209002D01*
X233330829Y-93191780D01*
X233236008Y-93250823D01*
X233079553Y-93401583D01*
X232839140Y-93659511D01*
X232757512Y-93748899D01*
X232235566Y-94357622D01*
X231857416Y-94882615D01*
X231621927Y-95327718D01*
X231527965Y-95696770D01*
X230919429Y-95696770D01*
X230919919Y-95671180D01*
X231048491Y-95301948D01*
X231304360Y-94871270D01*
X231692335Y-94369440D01*
X232217225Y-93786756D01*
X232291778Y-93708714D01*
X233220556Y-92741851D01*
X232990278Y-92091736D01*
X232883312Y-91782824D01*
X232802775Y-91537047D01*
X232762299Y-91396448D01*
X232760000Y-91381477D01*
X232836035Y-91346664D01*
X233029797Y-91324950D01*
X233169242Y-91321333D01*
X233578483Y-91321333D01*
X234198832Y-92951167D01*
X234403413Y-93487983D01*
X234603489Y-94011763D01*
X234785361Y-94486732D01*
X234935331Y-94877116D01*
X235039699Y-95147143D01*
X235044251Y-95158838D01*
X235269321Y-95736676D01*
X235458700Y-95031838D01*
X235711808Y-94085195D01*
X235920684Y-93293527D01*
X236087290Y-92648899D01*
X236213590Y-92143376D01*
X236301544Y-91769023D01*
X236353116Y-91517904D01*
X236370268Y-91382085D01*
X236367475Y-91356960D01*
X236426213Y-91303262D01*
X236618494Y-91248753D01*
X236908598Y-91197403D01*
X237260803Y-91153185D01*
X237639387Y-91120069D01*
X238008629Y-91102028D01*
X238332806Y-91103034D01*
G37*
%TO.C,U4*%
X204140000Y-109400000D02*
X204140000Y-112850000D01*
X204140000Y-109400000D02*
X204140000Y-107450000D01*
X209260000Y-109400000D02*
X209260000Y-111350000D01*
X209260000Y-109400000D02*
X209260000Y-107450000D01*
%TO.C,R19*%
X218972936Y-105365000D02*
X219427064Y-105365000D01*
X218972936Y-106835000D02*
X219427064Y-106835000D01*
%TO.C,C32*%
X191135000Y-76601248D02*
X191135000Y-77123752D01*
X189665000Y-76601248D02*
X189665000Y-77123752D01*
%TO.C,R9*%
X212272936Y-136290000D02*
X216627064Y-136290000D01*
X212272936Y-139710000D02*
X216627064Y-139710000D01*
%TO.C,R10*%
X212322936Y-140290000D02*
X216677064Y-140290000D01*
X212322936Y-143710000D02*
X216677064Y-143710000D01*
%TO.C,C30*%
X195938748Y-62365000D02*
X196461252Y-62365000D01*
X195938748Y-63835000D02*
X196461252Y-63835000D01*
%TO.C,Q1*%
X234760000Y-80970000D02*
X231600000Y-80970000D01*
X234760000Y-80970000D02*
X234760000Y-81900000D01*
X234760000Y-84130000D02*
X233300000Y-84130000D01*
X234760000Y-84130000D02*
X234760000Y-83200000D01*
%TO.C,C34*%
X247610000Y-62188748D02*
X247610000Y-63611252D01*
X245790000Y-62188748D02*
X245790000Y-63611252D01*
%TO.C,R13*%
X216235000Y-114772936D02*
X216235000Y-115227064D01*
X214765000Y-114772936D02*
X214765000Y-115227064D01*
%TO.C,R8*%
X212272936Y-132290000D02*
X216627064Y-132290000D01*
X212272936Y-135710000D02*
X216627064Y-135710000D01*
%TO.C,J2*%
X191030000Y-92150000D02*
X189700000Y-92150000D01*
X191030000Y-90820000D02*
X191030000Y-92150000D01*
X191030000Y-89550000D02*
X191030000Y-81870000D01*
X191030000Y-89550000D02*
X188370000Y-89550000D01*
X191030000Y-81870000D02*
X188370000Y-81870000D01*
X188370000Y-89550000D02*
X188370000Y-81870000D01*
%TO.C,R14*%
X214235000Y-114772936D02*
X214235000Y-115227064D01*
X212765000Y-114772936D02*
X212765000Y-115227064D01*
%TO.C,C31*%
X195938748Y-64665000D02*
X196461252Y-64665000D01*
X195938748Y-66135000D02*
X196461252Y-66135000D01*
%TO.C,C29*%
X214438748Y-75065000D02*
X214961252Y-75065000D01*
X214438748Y-76535000D02*
X214961252Y-76535000D01*
%TO.C,C26*%
X206565000Y-72561252D02*
X206565000Y-72038748D01*
X208035000Y-72561252D02*
X208035000Y-72038748D01*
%TO.C,R15*%
X219427064Y-115235000D02*
X218972936Y-115235000D01*
X219427064Y-113765000D02*
X218972936Y-113765000D01*
%TO.C,R23*%
X207135000Y-86072936D02*
X207135000Y-86527064D01*
X205665000Y-86072936D02*
X205665000Y-86527064D01*
%TO.C,R17*%
X207277936Y-113390000D02*
X207732064Y-113390000D01*
X207277936Y-114860000D02*
X207732064Y-114860000D01*
%TO.C,R24*%
X197235000Y-86672936D02*
X197235000Y-87127064D01*
X195765000Y-86672936D02*
X195765000Y-87127064D01*
%TO.C,G\u002A\u002A\u002A*%
G36*
X273519420Y-117846493D02*
G01*
X273603017Y-117919534D01*
X273651237Y-118023339D01*
X273655374Y-118066004D01*
X273632710Y-118150891D01*
X273549201Y-118174492D01*
X273546879Y-118174499D01*
X273428537Y-118138920D01*
X273333608Y-118052288D01*
X273291275Y-117944760D01*
X273293289Y-117912443D01*
X273340864Y-117832900D01*
X273424138Y-117814266D01*
X273519420Y-117846493D01*
G37*
G36*
X272656433Y-123046026D02*
G01*
X272750951Y-123101453D01*
X272898354Y-123209952D01*
X273064301Y-123341569D01*
X273293229Y-123519540D01*
X273542383Y-123701728D01*
X273793574Y-123875885D01*
X274028610Y-124029768D01*
X274229300Y-124151129D01*
X274377454Y-124227725D01*
X274386190Y-124231427D01*
X274493630Y-124289725D01*
X274532226Y-124340213D01*
X274495884Y-124370039D01*
X274453461Y-124373296D01*
X274356630Y-124346510D01*
X274205387Y-124273685D01*
X274013041Y-124164103D01*
X273792899Y-124027042D01*
X273558267Y-123871782D01*
X273322453Y-123707602D01*
X273098765Y-123543782D01*
X272900510Y-123389600D01*
X272740995Y-123254336D01*
X272633528Y-123147270D01*
X272591415Y-123077681D01*
X272591257Y-123074756D01*
X272606101Y-123038762D01*
X272656433Y-123046026D01*
G37*
G36*
X274084166Y-109052873D02*
G01*
X274298500Y-109158476D01*
X274505076Y-109313422D01*
X274685704Y-109500478D01*
X274822194Y-109702415D01*
X274896355Y-109902000D01*
X274904554Y-109984106D01*
X274890092Y-110111278D01*
X274854706Y-110200957D01*
X274849035Y-110207504D01*
X274760976Y-110251771D01*
X274683554Y-110263023D01*
X274641661Y-110265263D01*
X274617718Y-110266544D01*
X274612231Y-110288346D01*
X274671652Y-110345292D01*
X274715940Y-110382801D01*
X274828974Y-110515190D01*
X274858288Y-110634533D01*
X274840581Y-110752505D01*
X274782449Y-110795235D01*
X274676374Y-110764648D01*
X274578022Y-110706274D01*
X274467197Y-110637979D01*
X274412320Y-110621715D01*
X274395866Y-110653261D01*
X274395629Y-110662338D01*
X274369215Y-110680632D01*
X274288540Y-110629961D01*
X274152732Y-110510187D01*
X273983796Y-110365049D01*
X273777282Y-110209263D01*
X273547809Y-110051525D01*
X273309992Y-109900530D01*
X273078449Y-109764973D01*
X272867797Y-109653549D01*
X272692651Y-109574953D01*
X272567630Y-109537881D01*
X272521321Y-109539705D01*
X272460696Y-109544233D01*
X272454007Y-109504789D01*
X272492936Y-109445860D01*
X272569165Y-109391934D01*
X272571952Y-109390644D01*
X272691838Y-109363167D01*
X272847034Y-109379455D01*
X273049155Y-109442557D01*
X273309820Y-109555523D01*
X273438674Y-109618135D01*
X273800299Y-109798068D01*
X273704704Y-109643391D01*
X273675923Y-109575997D01*
X273895641Y-109575997D01*
X273922032Y-109717842D01*
X274019374Y-109862934D01*
X274168037Y-109995627D01*
X274348386Y-110100278D01*
X274540792Y-110161242D01*
X274641661Y-110170491D01*
X274776551Y-110143700D01*
X274836055Y-110064843D01*
X274819683Y-109936197D01*
X274729391Y-109763768D01*
X274600389Y-109630045D01*
X274420030Y-109519468D01*
X274225648Y-109450885D01*
X274085817Y-109438862D01*
X273967731Y-109457891D01*
X273913309Y-109502498D01*
X273895641Y-109575997D01*
X273675923Y-109575997D01*
X273627979Y-109463733D01*
X273613378Y-109291952D01*
X273655598Y-109147059D01*
X273749338Y-109048063D01*
X273880266Y-109013843D01*
X274084166Y-109052873D01*
G37*
G36*
X273525171Y-121292516D02*
G01*
X273664002Y-121338347D01*
X273815741Y-121408893D01*
X274143152Y-121620512D01*
X274426597Y-121906855D01*
X274661668Y-122258991D01*
X274843959Y-122667996D01*
X274969061Y-123124941D01*
X275032568Y-123620899D01*
X275039805Y-123888342D01*
X275031132Y-124129290D01*
X275010333Y-124353518D01*
X274980760Y-124528312D01*
X274970184Y-124567836D01*
X274914411Y-124695073D01*
X274834709Y-124816660D01*
X274748761Y-124912068D01*
X274674246Y-124960763D01*
X274636972Y-124954761D01*
X274641701Y-124903728D01*
X274679973Y-124802072D01*
X274700800Y-124757483D01*
X274751573Y-124590364D01*
X274780576Y-124355179D01*
X274788066Y-124073731D01*
X274774301Y-123767824D01*
X274739539Y-123459264D01*
X274684037Y-123169854D01*
X274681939Y-123161225D01*
X274556708Y-122751983D01*
X274394031Y-122380122D01*
X274201198Y-122054588D01*
X273985499Y-121784334D01*
X273754224Y-121578306D01*
X273514662Y-121445456D01*
X273274105Y-121394732D01*
X273242920Y-121394642D01*
X273110692Y-121407521D01*
X273009745Y-121451589D01*
X272902733Y-121545761D01*
X272863860Y-121586613D01*
X272712764Y-121794764D01*
X272610159Y-122049174D01*
X272552486Y-122362521D01*
X272536187Y-122747482D01*
X272536238Y-122753696D01*
X272570250Y-123199895D01*
X272659995Y-123636419D01*
X272798764Y-124042327D01*
X272979847Y-124396672D01*
X273128803Y-124603548D01*
X273220654Y-124699288D01*
X273305131Y-124736073D01*
X273426631Y-124731639D01*
X273443912Y-124729429D01*
X273632241Y-124704640D01*
X273517120Y-124798624D01*
X273409547Y-124861254D01*
X273277982Y-124876093D01*
X273201309Y-124869988D01*
X273010241Y-124814074D01*
X272839151Y-124688364D01*
X272684086Y-124487477D01*
X272541098Y-124206031D01*
X272406235Y-123838644D01*
X272378107Y-123748528D01*
X272322450Y-123552260D01*
X272285379Y-123379163D01*
X272263112Y-123199672D01*
X272251866Y-122984223D01*
X272248021Y-122731694D01*
X272247483Y-122482542D01*
X272251786Y-122303769D01*
X272264340Y-122173231D01*
X272288555Y-122068787D01*
X272327839Y-121968292D01*
X272383060Y-121854650D01*
X272490301Y-121676785D01*
X272616805Y-121517036D01*
X272697963Y-121439622D01*
X272811385Y-121360930D01*
X272925647Y-121315004D01*
X273076040Y-121290699D01*
X273197382Y-121281911D01*
X273384283Y-121276713D01*
X273525171Y-121292516D01*
G37*
G36*
X277624790Y-121635313D02*
G01*
X277768244Y-121731460D01*
X277954818Y-121892518D01*
X278031726Y-121964355D01*
X278225474Y-122137699D01*
X278400808Y-122275723D01*
X278540121Y-122365090D01*
X278589699Y-122387010D01*
X278695787Y-122426025D01*
X278725086Y-122456424D01*
X278689700Y-122495283D01*
X278674488Y-122506626D01*
X278517656Y-122566422D01*
X278329516Y-122543368D01*
X278115453Y-122439558D01*
X277880847Y-122257090D01*
X277777225Y-122157240D01*
X277526945Y-121902776D01*
X277553310Y-122099339D01*
X277595420Y-122256152D01*
X277678666Y-122446494D01*
X277792864Y-122656111D01*
X277927827Y-122870749D01*
X278073371Y-123076156D01*
X278219311Y-123258079D01*
X278355462Y-123402264D01*
X278471639Y-123494459D01*
X278557657Y-123520409D01*
X278566952Y-123517854D01*
X278619864Y-123464927D01*
X278694290Y-123350237D01*
X278775357Y-123197098D01*
X278786501Y-123173682D01*
X278898957Y-122953960D01*
X279000236Y-122809460D01*
X279104831Y-122726501D01*
X279227235Y-122691406D01*
X279301573Y-122687531D01*
X279496905Y-122731105D01*
X279665133Y-122856714D01*
X279801851Y-123056690D01*
X279902655Y-123323363D01*
X279963137Y-123649064D01*
X279978106Y-123865209D01*
X279981319Y-124064090D01*
X279978668Y-124232297D01*
X279970793Y-124345319D01*
X279964849Y-124374134D01*
X279843395Y-124643171D01*
X279721128Y-124825126D01*
X279621239Y-124907455D01*
X279517104Y-124958365D01*
X279474846Y-124961283D01*
X279487650Y-124904564D01*
X279546826Y-124780344D01*
X279603722Y-124629490D01*
X279640295Y-124437775D01*
X279661053Y-124180762D01*
X279662271Y-124154227D01*
X279662654Y-123820857D01*
X279627815Y-123552786D01*
X279552774Y-123327862D01*
X279432548Y-123123934D01*
X279429631Y-123119893D01*
X279333720Y-123003708D01*
X279252469Y-122952910D01*
X279170235Y-122948611D01*
X279093443Y-122972271D01*
X279026361Y-123035657D01*
X278952509Y-123157545D01*
X278906558Y-123249048D01*
X278772345Y-123495412D01*
X278646232Y-123659100D01*
X278520088Y-123748535D01*
X278401134Y-123772504D01*
X278201552Y-123727011D01*
X277998583Y-123594311D01*
X277797128Y-123379356D01*
X277602092Y-123087098D01*
X277467340Y-122829371D01*
X277368018Y-122599748D01*
X277309255Y-122402195D01*
X277278964Y-122192688D01*
X277273862Y-122124704D01*
X277265855Y-121936401D01*
X277273672Y-121814900D01*
X277300784Y-121735300D01*
X277334530Y-121689589D01*
X277419795Y-121619052D01*
X277512594Y-121599402D01*
X277624790Y-121635313D01*
G37*
G36*
X273588310Y-107050342D02*
G01*
X273609108Y-107138884D01*
X273622998Y-107210840D01*
X273673445Y-107273289D01*
X273773616Y-107334145D01*
X273936676Y-107401322D01*
X274175791Y-107482732D01*
X274187432Y-107486496D01*
X274651233Y-107668505D01*
X275050830Y-107891957D01*
X275381283Y-108151715D01*
X275637654Y-108442640D01*
X275815007Y-108759596D01*
X275908403Y-109097444D01*
X275922195Y-109291438D01*
X275908747Y-109514338D01*
X275864830Y-109676496D01*
X275831909Y-109740018D01*
X275741249Y-109859479D01*
X275642554Y-109950288D01*
X275635451Y-109954963D01*
X275510246Y-110021093D01*
X275400764Y-110057572D01*
X275332152Y-110057613D01*
X275320947Y-110039827D01*
X275359935Y-109995652D01*
X275426328Y-109969010D01*
X275580740Y-109887491D01*
X275711787Y-109741221D01*
X275797988Y-109557962D01*
X275817261Y-109463826D01*
X275799847Y-109213306D01*
X275695618Y-108950682D01*
X275508695Y-108680965D01*
X275243198Y-108409167D01*
X274903247Y-108140300D01*
X274534426Y-107903437D01*
X274279964Y-107754375D01*
X274571980Y-108059215D01*
X274711566Y-108208590D01*
X274796843Y-108314033D01*
X274839767Y-108396191D01*
X274852296Y-108475714D01*
X274849576Y-108538585D01*
X274834371Y-108649737D01*
X274794514Y-108702332D01*
X274701677Y-108722389D01*
X274644387Y-108727054D01*
X274539356Y-108727481D01*
X274445689Y-108703890D01*
X274338151Y-108645093D01*
X274191506Y-108539903D01*
X274148706Y-108507291D01*
X274005707Y-108399966D01*
X273891664Y-108318621D01*
X273825458Y-108276571D01*
X273817354Y-108273588D01*
X273809710Y-108304993D01*
X273857914Y-108391265D01*
X273953771Y-108520483D01*
X274089082Y-108680730D01*
X274124803Y-108720591D01*
X274254374Y-108872723D01*
X274317877Y-108965930D01*
X274320717Y-109000054D01*
X274268299Y-108974941D01*
X274166030Y-108890431D01*
X274019313Y-108746370D01*
X273998203Y-108724258D01*
X273850905Y-108562647D01*
X273760364Y-108444207D01*
X273714604Y-108350159D01*
X273701647Y-108261725D01*
X273701640Y-108259286D01*
X273729829Y-108100244D01*
X273812622Y-108014186D01*
X273947354Y-108001410D01*
X274131360Y-108062219D01*
X274346419Y-108186439D01*
X274486782Y-108275078D01*
X274595947Y-108334522D01*
X274653238Y-108353699D01*
X274656168Y-108352332D01*
X274656515Y-108290956D01*
X274589133Y-108187597D01*
X274463459Y-108051334D01*
X274288929Y-107891250D01*
X274074981Y-107716425D01*
X273831051Y-107535941D01*
X273747905Y-107478272D01*
X273580088Y-107355132D01*
X273481156Y-107258379D01*
X273437073Y-107173341D01*
X273432537Y-107148727D01*
X273436004Y-107056540D01*
X273488389Y-107025577D01*
X273513503Y-107024408D01*
X273588310Y-107050342D01*
G37*
G36*
X273034691Y-111021332D02*
G01*
X273194645Y-111146256D01*
X273244858Y-111188269D01*
X273593916Y-111466660D01*
X273929045Y-111703189D01*
X274241757Y-111893575D01*
X274523561Y-112033535D01*
X274765968Y-112118788D01*
X274960488Y-112145050D01*
X275084707Y-112116289D01*
X275163035Y-112094898D01*
X275179516Y-112128705D01*
X275124317Y-112194148D01*
X274973623Y-112260431D01*
X274775804Y-112272380D01*
X274659410Y-112254681D01*
X274483665Y-112214923D01*
X274694109Y-112439906D01*
X274810850Y-112572639D01*
X274874541Y-112674581D01*
X274900544Y-112777249D01*
X274904554Y-112871709D01*
X274892697Y-113018516D01*
X274846447Y-113114409D01*
X274782650Y-113174419D01*
X274654797Y-113242957D01*
X274574539Y-113260010D01*
X274526068Y-113270309D01*
X274391390Y-113270309D01*
X274559456Y-113490072D01*
X274721642Y-113729612D01*
X274816948Y-113945100D01*
X274855962Y-114163087D01*
X274858288Y-114239479D01*
X274826561Y-114432795D01*
X274739083Y-114574725D01*
X274607409Y-114650107D01*
X274539123Y-114658287D01*
X274478902Y-114661974D01*
X274466775Y-114685775D01*
X274506195Y-114748801D01*
X274570466Y-114831785D01*
X274738415Y-115072815D01*
X274832305Y-115272937D01*
X274850999Y-115428743D01*
X274802769Y-115528087D01*
X274687807Y-115583194D01*
X274527721Y-115562298D01*
X274320940Y-115464844D01*
X274065895Y-115290277D01*
X274011801Y-115248307D01*
X273904458Y-115173481D01*
X273827073Y-115137496D01*
X273806703Y-115139259D01*
X273807651Y-115200605D01*
X273883631Y-115306230D01*
X274030750Y-115452110D01*
X274245118Y-115634219D01*
X274410581Y-115763929D01*
X274606726Y-115917411D01*
X274737971Y-116030414D01*
X274815743Y-116114767D01*
X274851470Y-116182298D01*
X274857580Y-116226589D01*
X274844409Y-116364603D01*
X274800856Y-116425427D01*
X274717725Y-116411142D01*
X274585821Y-116323827D01*
X274550588Y-116296024D01*
X274446682Y-116216620D01*
X274389149Y-116181190D01*
X274390306Y-116197302D01*
X274390655Y-116197748D01*
X274429942Y-116273183D01*
X274425697Y-116309215D01*
X274381377Y-116293174D01*
X274288868Y-116224875D01*
X274165382Y-116117520D01*
X274118500Y-116073610D01*
X273965586Y-115935308D01*
X273857902Y-115858346D01*
X273780871Y-115833453D01*
X273748030Y-115838029D01*
X273671697Y-115840814D01*
X273655374Y-115800586D01*
X273696024Y-115703543D01*
X273803275Y-115645423D01*
X273945349Y-115637398D01*
X274097801Y-115655196D01*
X273899720Y-115465401D01*
X273784302Y-115345477D01*
X273724582Y-115248968D01*
X273703288Y-115142394D01*
X273701640Y-115081466D01*
X273710556Y-114951542D01*
X273747582Y-114881446D01*
X273816903Y-114843504D01*
X273901162Y-114820630D01*
X273984764Y-114826306D01*
X274087936Y-114867809D01*
X274230901Y-114952415D01*
X274364495Y-115040516D01*
X274500721Y-115126661D01*
X274605590Y-115182848D01*
X274657777Y-115197749D01*
X274658934Y-115196924D01*
X274657051Y-115137941D01*
X274597543Y-115032625D01*
X274492042Y-114896013D01*
X274352176Y-114743138D01*
X274189577Y-114589037D01*
X274186889Y-114586674D01*
X273951142Y-114350029D01*
X273797357Y-114121047D01*
X273717628Y-113885354D01*
X273701640Y-113704481D01*
X273718161Y-113519187D01*
X273772359Y-113409886D01*
X273871178Y-113365291D01*
X273911919Y-113362841D01*
X274026307Y-113405215D01*
X274135347Y-113517436D01*
X274225855Y-113677149D01*
X274284648Y-113862002D01*
X274299874Y-114020645D01*
X274295901Y-114101615D01*
X274284356Y-114112413D01*
X274258558Y-114046183D01*
X274227097Y-113945949D01*
X274145871Y-113727323D01*
X274059657Y-113577356D01*
X273974767Y-113506145D01*
X273949329Y-113501639D01*
X273875200Y-113537051D01*
X273854475Y-113630967D01*
X273889222Y-113764908D01*
X273914135Y-113816461D01*
X274024324Y-113971227D01*
X274163304Y-114096140D01*
X274314566Y-114185426D01*
X274461601Y-114233311D01*
X274587902Y-114234022D01*
X274676960Y-114181785D01*
X274710658Y-114095045D01*
X274686891Y-113922881D01*
X274580786Y-113709621D01*
X274392650Y-113455787D01*
X274214837Y-113256906D01*
X274065013Y-113089275D01*
X273929607Y-112921131D01*
X273829418Y-112778988D01*
X273800321Y-112728528D01*
X273741312Y-112567293D01*
X273708279Y-112385309D01*
X273703110Y-112212538D01*
X273711810Y-112165257D01*
X273806695Y-112165257D01*
X273826208Y-112273280D01*
X273918258Y-112423072D01*
X274042619Y-112568701D01*
X274253512Y-112750156D01*
X274462279Y-112841403D01*
X274574539Y-112853916D01*
X274692070Y-112828591D01*
X274735029Y-112756433D01*
X274705001Y-112643166D01*
X274603573Y-112494516D01*
X274432328Y-112316206D01*
X274423347Y-112307891D01*
X274307301Y-112205424D01*
X274217038Y-112133927D01*
X274176899Y-112110707D01*
X274109846Y-112104514D01*
X273995717Y-112093500D01*
X273987388Y-112092685D01*
X273860246Y-112103544D01*
X273806695Y-112165257D01*
X273711810Y-112165257D01*
X273727692Y-112078943D01*
X273756388Y-112031153D01*
X273793592Y-111976759D01*
X273791087Y-111961301D01*
X273744625Y-111932661D01*
X273637770Y-111869149D01*
X273490133Y-111782386D01*
X273424044Y-111743771D01*
X273163331Y-111580818D01*
X272982067Y-111440402D01*
X272872279Y-111314738D01*
X272825993Y-111196042D01*
X272823295Y-111157201D01*
X272832098Y-111029389D01*
X272863525Y-110963643D01*
X272927687Y-110960709D01*
X273034691Y-111021332D01*
G37*
G36*
X274096342Y-116254607D02*
G01*
X274117669Y-116287051D01*
X274175866Y-116342939D01*
X274294897Y-116432231D01*
X274455868Y-116541368D01*
X274593377Y-116628469D01*
X274998436Y-116892303D01*
X275321088Y-117137287D01*
X275567598Y-117371021D01*
X275744230Y-117601105D01*
X275857249Y-117835139D01*
X275912917Y-118080724D01*
X275921388Y-118239721D01*
X275897138Y-118498901D01*
X275832492Y-118715055D01*
X275723704Y-118877727D01*
X275576719Y-118997241D01*
X275419374Y-119052175D01*
X275392644Y-119053551D01*
X275327706Y-119037196D01*
X275342827Y-118994288D01*
X275432736Y-118934061D01*
X275471875Y-118914754D01*
X275652926Y-118784684D01*
X275770245Y-118603803D01*
X275823710Y-118388497D01*
X275813200Y-118155154D01*
X275738591Y-117920161D01*
X275599764Y-117699907D01*
X275481799Y-117578300D01*
X275357165Y-117476175D01*
X275202996Y-117364835D01*
X275003576Y-117233637D01*
X274743186Y-117071942D01*
X274653506Y-117017513D01*
X274471858Y-116907696D01*
X274674326Y-117175863D01*
X274804693Y-117384518D01*
X274870130Y-117571250D01*
X274871432Y-117725271D01*
X274809392Y-117835790D01*
X274684804Y-117892017D01*
X274628600Y-117896341D01*
X274621293Y-117896903D01*
X274515002Y-117913580D01*
X274495202Y-117962079D01*
X274561169Y-118038696D01*
X274649713Y-118146647D01*
X274739063Y-118308902D01*
X274812756Y-118488859D01*
X274854333Y-118649917D01*
X274858288Y-118699354D01*
X274829451Y-118853045D01*
X274740475Y-118937286D01*
X274587658Y-118955233D01*
X274561442Y-118952692D01*
X274475552Y-118944675D01*
X274436643Y-118955849D01*
X274446518Y-119000951D01*
X274506977Y-119094719D01*
X274593557Y-119215482D01*
X274746815Y-119462489D01*
X274831310Y-119694154D01*
X274858249Y-119941686D01*
X274858288Y-119952663D01*
X274844567Y-120131139D01*
X274797728Y-120251219D01*
X274763954Y-120294008D01*
X274683643Y-120366519D01*
X274627627Y-120395264D01*
X274625478Y-120432046D01*
X274660912Y-120528190D01*
X274721962Y-120654424D01*
X274824415Y-120902749D01*
X274864300Y-121127932D01*
X274844469Y-121318416D01*
X274767769Y-121462647D01*
X274637052Y-121549068D01*
X274496429Y-121568843D01*
X274269782Y-121519326D01*
X274063411Y-121393866D01*
X273891346Y-121208842D01*
X273767615Y-120980632D01*
X273706248Y-120725613D01*
X273702074Y-120641465D01*
X273719436Y-120448132D01*
X273771036Y-120332613D01*
X273774343Y-120329169D01*
X273847392Y-120270278D01*
X273914933Y-120268444D01*
X274008959Y-120326532D01*
X274043560Y-120353272D01*
X274175403Y-120506046D01*
X274267050Y-120707633D01*
X274299933Y-120916875D01*
X274299852Y-120921406D01*
X274295021Y-120993809D01*
X274280738Y-120998414D01*
X274250336Y-120927694D01*
X274214384Y-120824909D01*
X274135906Y-120624894D01*
X274060200Y-120503704D01*
X273977630Y-120448466D01*
X273927304Y-120441530D01*
X273857584Y-120472328D01*
X273845786Y-120554265D01*
X273885828Y-120671655D01*
X273971628Y-120808811D01*
X274097103Y-120950047D01*
X274139651Y-120989184D01*
X274332882Y-121124856D01*
X274508575Y-121174323D01*
X274629061Y-121157984D01*
X274708006Y-121092744D01*
X274717916Y-120972067D01*
X274660756Y-120799857D01*
X274548481Y-120597991D01*
X274538487Y-120580022D01*
X274353071Y-120316467D01*
X274106472Y-120013098D01*
X273983276Y-119872680D01*
X273847912Y-119715238D01*
X273730129Y-119567060D01*
X273649162Y-119452748D01*
X273632347Y-119423885D01*
X273583474Y-119287714D01*
X273574168Y-119217973D01*
X273656545Y-119217973D01*
X273685749Y-119283290D01*
X273762926Y-119401829D01*
X273875089Y-119557201D01*
X274009252Y-119733011D01*
X274152430Y-119912871D01*
X274291634Y-120080386D01*
X274413881Y-120219167D01*
X274506182Y-120312822D01*
X274548481Y-120343797D01*
X274609065Y-120325182D01*
X274659686Y-120274398D01*
X274699647Y-120148095D01*
X274670701Y-119998928D01*
X274591028Y-119872537D01*
X274513783Y-119806953D01*
X274384374Y-119716035D01*
X274236071Y-119622675D01*
X274066727Y-119514177D01*
X273906819Y-119398978D01*
X273805738Y-119315105D01*
X273717106Y-119240353D01*
X273663714Y-119211379D01*
X273656545Y-119217973D01*
X273574168Y-119217973D01*
X273564564Y-119145998D01*
X273577369Y-119031873D01*
X273609108Y-118984153D01*
X273651915Y-118983786D01*
X273655374Y-118997528D01*
X273673183Y-119026645D01*
X273733931Y-119065937D01*
X273848594Y-119120628D01*
X274028151Y-119195943D01*
X274283577Y-119297105D01*
X274290793Y-119299918D01*
X274579218Y-119412327D01*
X274498990Y-119274835D01*
X274435067Y-119180982D01*
X274327915Y-119039600D01*
X274194860Y-118873124D01*
X274106466Y-118766563D01*
X273949159Y-118568331D01*
X273843382Y-118409983D01*
X273796061Y-118302197D01*
X273794171Y-118285141D01*
X273815405Y-118195012D01*
X273865560Y-118178682D01*
X273912680Y-118225365D01*
X273972923Y-118274151D01*
X274092021Y-118342120D01*
X274242108Y-118416183D01*
X274395317Y-118483248D01*
X274523783Y-118530227D01*
X274592259Y-118544590D01*
X274656176Y-118513948D01*
X274662217Y-118430696D01*
X274617614Y-118307976D01*
X274529601Y-118158928D01*
X274405410Y-117996692D01*
X274252273Y-117834408D01*
X274151859Y-117744449D01*
X273940833Y-117526898D01*
X273794959Y-117289742D01*
X273718118Y-117047421D01*
X273714193Y-116814371D01*
X273763896Y-116671591D01*
X273857565Y-116671591D01*
X273860659Y-116771547D01*
X273861478Y-116774954D01*
X273927666Y-116936829D01*
X274040598Y-117106775D01*
X274183716Y-117269428D01*
X274340461Y-117409430D01*
X274494276Y-117511419D01*
X274628600Y-117560033D01*
X274701590Y-117554302D01*
X274735672Y-117499986D01*
X274700685Y-117394774D01*
X274600404Y-117244827D01*
X274438606Y-117056310D01*
X274323465Y-116937119D01*
X274146970Y-116775049D01*
X274006581Y-116675399D01*
X273908160Y-116640228D01*
X273857565Y-116671591D01*
X273763896Y-116671591D01*
X273787066Y-116605030D01*
X273828871Y-116543300D01*
X273921278Y-116421612D01*
X273996879Y-116317015D01*
X274012452Y-116294042D01*
X274059966Y-116235307D01*
X274096342Y-116254607D01*
G37*
G36*
X279374835Y-112376208D02*
G01*
X279471213Y-112465717D01*
X279531734Y-112531941D01*
X279709906Y-112760498D01*
X279828478Y-112970099D01*
X279881786Y-113148581D01*
X279872529Y-113264041D01*
X279796313Y-113378346D01*
X279676114Y-113412174D01*
X279511581Y-113365458D01*
X279302364Y-113238129D01*
X279159655Y-113126689D01*
X279024940Y-113019918D01*
X278918160Y-112945235D01*
X278857745Y-112915223D01*
X278851726Y-112916458D01*
X278854758Y-112972273D01*
X278906656Y-113070584D01*
X278991127Y-113188189D01*
X279091879Y-113301883D01*
X279173305Y-113374467D01*
X279303105Y-113462186D01*
X279469041Y-113560054D01*
X279562573Y-113609860D01*
X279732689Y-113704045D01*
X279823520Y-113777341D01*
X279843359Y-113838731D01*
X279815327Y-113883689D01*
X279762176Y-113893454D01*
X279655291Y-113862015D01*
X279485693Y-113786106D01*
X279327954Y-113706375D01*
X279146226Y-113616265D01*
X278994888Y-113549500D01*
X278892217Y-113513633D01*
X278857666Y-113511976D01*
X278851503Y-113578173D01*
X278920513Y-113679864D01*
X279057758Y-113809882D01*
X279256297Y-113961064D01*
X279362542Y-114033270D01*
X279585298Y-114183967D01*
X279738954Y-114300055D01*
X279834553Y-114393177D01*
X279883137Y-114474977D01*
X279895748Y-114557099D01*
X279893177Y-114592795D01*
X279862233Y-114701745D01*
X279799146Y-114731879D01*
X279696048Y-114684141D01*
X279619997Y-114625502D01*
X279541780Y-114563293D01*
X279509021Y-114548820D01*
X279524226Y-114588668D01*
X279589902Y-114689420D01*
X279708179Y-114857135D01*
X279823245Y-115053200D01*
X279886773Y-115238330D01*
X279896162Y-115395277D01*
X279848809Y-115506790D01*
X279810630Y-115536331D01*
X279706898Y-115569170D01*
X279642858Y-115565358D01*
X279631895Y-115586016D01*
X279667221Y-115664674D01*
X279739006Y-115780941D01*
X279858443Y-116000481D01*
X279904869Y-116190868D01*
X279877607Y-116343429D01*
X279790509Y-116440570D01*
X279730047Y-116460266D01*
X279636854Y-116490625D01*
X279550106Y-116480610D01*
X279420469Y-116448073D01*
X279590492Y-116655563D01*
X279759295Y-116889146D01*
X279848505Y-117082141D01*
X279859647Y-117238484D01*
X279839380Y-117298368D01*
X279749440Y-117400434D01*
X279620569Y-117420524D01*
X279451379Y-117358577D01*
X279319727Y-117274720D01*
X279176743Y-117171900D01*
X279048745Y-117079884D01*
X278986079Y-117034855D01*
X278890129Y-116984317D01*
X278848740Y-117007757D01*
X278863442Y-117103324D01*
X278884079Y-117158229D01*
X278961238Y-117274572D01*
X279097672Y-117416840D01*
X279271565Y-117566396D01*
X279461098Y-117704600D01*
X279644454Y-117812814D01*
X279658379Y-117819703D01*
X279793063Y-117903489D01*
X279853127Y-117983756D01*
X279855009Y-117998654D01*
X279852720Y-118050129D01*
X279833759Y-118073094D01*
X279779987Y-118066000D01*
X279673262Y-118027293D01*
X279534391Y-117971234D01*
X279261877Y-117860502D01*
X279487250Y-118140187D01*
X279685137Y-118409377D01*
X279814411Y-118646285D01*
X279883519Y-118869851D01*
X279901275Y-119068469D01*
X279895243Y-119213485D01*
X279879768Y-119318656D01*
X279866628Y-119350372D01*
X279850355Y-119412116D01*
X279844178Y-119535879D01*
X279847444Y-119653472D01*
X279828481Y-119938173D01*
X279732315Y-120180764D01*
X279633806Y-120314582D01*
X279589833Y-120384803D01*
X279610823Y-120430331D01*
X279705173Y-120455445D01*
X279881282Y-120464426D01*
X279928264Y-120464663D01*
X280224428Y-120464663D01*
X280203043Y-120495714D01*
X280189729Y-120515569D01*
X280074582Y-120610023D01*
X279902345Y-120654776D01*
X279695593Y-120647195D01*
X279503976Y-120595509D01*
X279485606Y-120611780D01*
X279523840Y-120693408D01*
X279615874Y-120834810D01*
X279644717Y-120875704D01*
X279793805Y-121114455D01*
X279880388Y-121321304D01*
X279902626Y-121487750D01*
X279858684Y-121605289D01*
X279810630Y-121643434D01*
X279706898Y-121676274D01*
X279642858Y-121672462D01*
X279631895Y-121693119D01*
X279667221Y-121771778D01*
X279739006Y-121888045D01*
X279855396Y-122103569D01*
X279902953Y-122291777D01*
X279885438Y-122442519D01*
X279806617Y-122545645D01*
X279688347Y-122584987D01*
X279670252Y-122591006D01*
X279486086Y-122570087D01*
X279251199Y-122462357D01*
X279043232Y-122284480D01*
X278878694Y-122058254D01*
X278774095Y-121805476D01*
X278744627Y-121591163D01*
X278757460Y-121446116D01*
X278787562Y-121368691D01*
X278883425Y-121368691D01*
X278922082Y-121531756D01*
X279027156Y-121716360D01*
X279182303Y-121902658D01*
X279371177Y-122070806D01*
X279562806Y-122193519D01*
X279688347Y-122240407D01*
X279753782Y-122224193D01*
X279759555Y-122151741D01*
X279706112Y-122029918D01*
X279593898Y-121865590D01*
X279536939Y-121794630D01*
X279338122Y-121569632D01*
X279169034Y-121406336D01*
X279034667Y-121307996D01*
X278940016Y-121277867D01*
X278890072Y-121319204D01*
X278883425Y-121368691D01*
X278787562Y-121368691D01*
X278806478Y-121320038D01*
X278907457Y-121173054D01*
X278912747Y-121166244D01*
X279005621Y-121051163D01*
X279074949Y-120972878D01*
X279101591Y-120950455D01*
X279146111Y-120977091D01*
X279238356Y-121045543D01*
X279315165Y-121106270D01*
X279509071Y-121251573D01*
X279645320Y-121328178D01*
X279722848Y-121336147D01*
X279740587Y-121275544D01*
X279697473Y-121146430D01*
X279668084Y-121085604D01*
X279536588Y-120887957D01*
X279350840Y-120684107D01*
X279286188Y-120628544D01*
X279141631Y-120504308D01*
X278957489Y-120387433D01*
X278699465Y-120242688D01*
X278428631Y-120064290D01*
X278159440Y-119864476D01*
X277906344Y-119655482D01*
X277683795Y-119449543D01*
X277506245Y-119258895D01*
X277388147Y-119095775D01*
X277357581Y-119032871D01*
X277319305Y-118875343D01*
X277314162Y-118716180D01*
X277341530Y-118591144D01*
X277365902Y-118553879D01*
X277475326Y-118504297D01*
X277628100Y-118509991D01*
X277795974Y-118567619D01*
X277875739Y-118614179D01*
X277991391Y-118713552D01*
X278123491Y-118859178D01*
X278259644Y-119032895D01*
X278387454Y-119216538D01*
X278494524Y-119391944D01*
X278568458Y-119540947D01*
X278596861Y-119645386D01*
X278594161Y-119666879D01*
X278564248Y-119656756D01*
X278501418Y-119581909D01*
X278418573Y-119458003D01*
X278408247Y-119441152D01*
X278247743Y-119200280D01*
X278075098Y-118980606D01*
X277906647Y-118800771D01*
X277758731Y-118679418D01*
X277721479Y-118657551D01*
X277630224Y-118615210D01*
X277594132Y-118621888D01*
X277587978Y-118674304D01*
X277623818Y-118797854D01*
X277723790Y-118962407D01*
X277876578Y-119155402D01*
X278070863Y-119364275D01*
X278295328Y-119576465D01*
X278538655Y-119779410D01*
X278676688Y-119882726D01*
X278897570Y-120041044D01*
X278774833Y-119860420D01*
X278691980Y-119694811D01*
X278688706Y-119680124D01*
X278837159Y-119680124D01*
X278863562Y-119768300D01*
X278931627Y-119881423D01*
X279024638Y-120000924D01*
X279125879Y-120108235D01*
X279218634Y-120184786D01*
X279286188Y-120212010D01*
X279305732Y-120200630D01*
X279322749Y-120100666D01*
X279295517Y-119954483D01*
X279241207Y-119816939D01*
X279128721Y-119650687D01*
X279000312Y-119569826D01*
X278945653Y-119562477D01*
X278863014Y-119582999D01*
X278837514Y-119661620D01*
X278837159Y-119680124D01*
X278688706Y-119680124D01*
X278653797Y-119523501D01*
X278663719Y-119375432D01*
X278707614Y-119294134D01*
X278818002Y-119238369D01*
X278945938Y-119256891D01*
X279078332Y-119336672D01*
X279202094Y-119464689D01*
X279304132Y-119627913D01*
X279371357Y-119813321D01*
X279391334Y-119974474D01*
X279392350Y-120132009D01*
X279491416Y-120043873D01*
X279572111Y-119945866D01*
X279656483Y-119805165D01*
X279725545Y-119658170D01*
X279760309Y-119541282D01*
X279761461Y-119526149D01*
X279742672Y-119490186D01*
X279671581Y-119515338D01*
X279669946Y-119516211D01*
X279598115Y-119539192D01*
X279577414Y-119522789D01*
X279614668Y-119472185D01*
X279657082Y-119449273D01*
X279709966Y-119418047D01*
X279677001Y-119381008D01*
X279668649Y-119375633D01*
X279629565Y-119341607D01*
X279676433Y-119331997D01*
X279686528Y-119331856D01*
X279744831Y-119315246D01*
X279750721Y-119249805D01*
X279740755Y-119203916D01*
X279697269Y-119087741D01*
X279619902Y-118985113D01*
X279492128Y-118879556D01*
X279297418Y-118754592D01*
X279279059Y-118743622D01*
X279109714Y-118635124D01*
X278949806Y-118519925D01*
X278848725Y-118436052D01*
X278759538Y-118358975D01*
X278705638Y-118324932D01*
X278698361Y-118328273D01*
X278727329Y-118402173D01*
X278806504Y-118528651D01*
X278924294Y-118691414D01*
X279069106Y-118874171D01*
X279179092Y-119003839D01*
X279329143Y-119183279D01*
X279416379Y-119305415D01*
X279439446Y-119367995D01*
X279399322Y-119369702D01*
X279342972Y-119325103D01*
X279244801Y-119227099D01*
X279121309Y-119094125D01*
X278988993Y-118944617D01*
X278864352Y-118797011D01*
X278763885Y-118669742D01*
X278727627Y-118619135D01*
X278675228Y-118516628D01*
X278653777Y-118474664D01*
X278611185Y-118320703D01*
X278607901Y-118243898D01*
X278652095Y-118243898D01*
X278675228Y-118267030D01*
X278698361Y-118243898D01*
X278675228Y-118220765D01*
X278652095Y-118243898D01*
X278607901Y-118243898D01*
X278605519Y-118188195D01*
X278635157Y-118114326D01*
X278687509Y-118118981D01*
X278773464Y-118170739D01*
X278776573Y-118173165D01*
X278886239Y-118238860D01*
X279040661Y-118307925D01*
X279128939Y-118339849D01*
X279293808Y-118398181D01*
X279443734Y-118458518D01*
X279501225Y-118485153D01*
X279633233Y-118551943D01*
X279547491Y-118399285D01*
X279408475Y-118204940D01*
X279205676Y-117991166D01*
X278959734Y-117776417D01*
X278691288Y-117579146D01*
X278494032Y-117457377D01*
X278242309Y-117300458D01*
X277993026Y-117118318D01*
X277763504Y-116926051D01*
X277571066Y-116738755D01*
X277433034Y-116571524D01*
X277385518Y-116491345D01*
X277325662Y-116307053D01*
X277316032Y-116131890D01*
X277352226Y-115985975D01*
X277429842Y-115889429D01*
X277523370Y-115861202D01*
X277650125Y-115888369D01*
X277811274Y-115958097D01*
X277970956Y-116052724D01*
X278068479Y-116129685D01*
X278155893Y-116225977D01*
X278264851Y-116366453D01*
X278381533Y-116530487D01*
X278492117Y-116697453D01*
X278582783Y-116846726D01*
X278639709Y-116957679D01*
X278652095Y-117000653D01*
X278634249Y-117060362D01*
X278588484Y-117043300D01*
X278526462Y-116956335D01*
X278504551Y-116913752D01*
X278381604Y-116696152D01*
X278232475Y-116491152D01*
X278070612Y-116311639D01*
X277909466Y-116170501D01*
X277762483Y-116080626D01*
X277643114Y-116054902D01*
X277615157Y-116061444D01*
X277572208Y-116099709D01*
X277580012Y-116170044D01*
X277643066Y-116282691D01*
X277765868Y-116447892D01*
X277807980Y-116500521D01*
X277890172Y-116587914D01*
X278016509Y-116705619D01*
X278171939Y-116841424D01*
X278341414Y-116983120D01*
X278509882Y-117118494D01*
X278662292Y-117235335D01*
X278783595Y-117321432D01*
X278858740Y-117364575D01*
X278874622Y-117365936D01*
X278864691Y-117319685D01*
X278818745Y-117241877D01*
X278762819Y-117111693D01*
X278746923Y-116963203D01*
X278772734Y-116836640D01*
X278800146Y-116795774D01*
X278902156Y-116746072D01*
X279050993Y-116759644D01*
X279253595Y-116837785D01*
X279382482Y-116904356D01*
X279529820Y-116980609D01*
X279643852Y-117030792D01*
X279702745Y-117045456D01*
X279705390Y-117044094D01*
X279698442Y-116988757D01*
X279634678Y-116878239D01*
X279522031Y-116723458D01*
X279368437Y-116535334D01*
X279185967Y-116329290D01*
X278993344Y-116107081D01*
X278863209Y-115922662D01*
X278785436Y-115756474D01*
X278749895Y-115588959D01*
X278744627Y-115477020D01*
X278758784Y-115332950D01*
X278777640Y-115287020D01*
X278879335Y-115287020D01*
X278919065Y-115411018D01*
X278993871Y-115554848D01*
X279095806Y-115701336D01*
X279216926Y-115833309D01*
X279264019Y-115874220D01*
X279473505Y-116028277D01*
X279630262Y-116113521D01*
X279730047Y-116133005D01*
X279768617Y-116089781D01*
X279741730Y-115986902D01*
X279645143Y-115827422D01*
X279531895Y-115681464D01*
X279363603Y-115492871D01*
X279202040Y-115336298D01*
X279061993Y-115224525D01*
X278958250Y-115170333D01*
X278936890Y-115167213D01*
X278882628Y-115200027D01*
X278879335Y-115287020D01*
X278777640Y-115287020D01*
X278811737Y-115203967D01*
X278911821Y-115060329D01*
X278992423Y-114957629D01*
X279053878Y-114899348D01*
X279116448Y-114886971D01*
X279200393Y-114921983D01*
X279325976Y-115005871D01*
X279457721Y-115100353D01*
X279597587Y-115189025D01*
X279694642Y-115226788D01*
X279727499Y-115220697D01*
X279738555Y-115147758D01*
X279690513Y-115024241D01*
X279591491Y-114863157D01*
X279449608Y-114677521D01*
X279272983Y-114480346D01*
X279252328Y-114459069D01*
X279098724Y-114306676D01*
X278989939Y-114212862D01*
X278909883Y-114166551D01*
X278842466Y-114156665D01*
X278817840Y-114159957D01*
X278727663Y-114162453D01*
X278698767Y-114113810D01*
X278698361Y-114101630D01*
X278739533Y-114015227D01*
X278859880Y-113970360D01*
X278951981Y-113964298D01*
X279011048Y-113959774D01*
X279018170Y-113935192D01*
X278967868Y-113874035D01*
X278898721Y-113803784D01*
X278792427Y-113678158D01*
X278752395Y-113570976D01*
X278752983Y-113514622D01*
X278778660Y-113421637D01*
X278846331Y-113393644D01*
X278896134Y-113394841D01*
X279024508Y-113403707D01*
X278884568Y-113233935D01*
X278784984Y-113072140D01*
X278741398Y-112909867D01*
X278755558Y-112769559D01*
X278829212Y-112673660D01*
X278840438Y-112667097D01*
X278962402Y-112641943D01*
X279119950Y-112682870D01*
X279321392Y-112792761D01*
X279443950Y-112876464D01*
X279567414Y-112962630D01*
X279658589Y-113021554D01*
X279693186Y-113038979D01*
X279718952Y-113006985D01*
X279682189Y-112914479D01*
X279585498Y-112766676D01*
X279502903Y-112657566D01*
X279391001Y-112503727D01*
X279333305Y-112401418D01*
X279328391Y-112356843D01*
X279374835Y-112376208D01*
G37*
%TO.C,C6*%
X219410000Y-109026248D02*
X219410000Y-110448752D01*
X217590000Y-109026248D02*
X217590000Y-110448752D01*
%TO.C,R33*%
X225935000Y-63772936D02*
X225935000Y-64227064D01*
X224465000Y-63772936D02*
X224465000Y-64227064D01*
%TO.C,R11*%
X212265000Y-121227064D02*
X212265000Y-120772936D01*
X213735000Y-121227064D02*
X213735000Y-120772936D01*
%TO.C,U2*%
X221755000Y-79565000D02*
X221755000Y-79835000D01*
X221755000Y-79835000D02*
X218925000Y-79835000D01*
X221755000Y-86195000D02*
X220655000Y-86195000D01*
X221755000Y-86465000D02*
X221755000Y-86195000D01*
X228175000Y-79565000D02*
X221755000Y-79565000D01*
X228175000Y-86465000D02*
X221755000Y-86465000D01*
%TO.C,K1*%
X276400179Y-137500000D02*
G75*
G03*
X276400179Y-137500000I-28000179J0D01*
G01*
%TO.C,C14*%
X199461252Y-104535000D02*
X198938748Y-104535000D01*
X199461252Y-103065000D02*
X198938748Y-103065000D01*
%TO.C,R29*%
X191235000Y-72772936D02*
X191235000Y-73227064D01*
X189765000Y-72772936D02*
X189765000Y-73227064D01*
%TO.C,R7*%
X212272936Y-128290000D02*
X216627064Y-128290000D01*
X212272936Y-131710000D02*
X216627064Y-131710000D01*
%TO.C,C21*%
X207190000Y-82611252D02*
X207190000Y-81188748D01*
X209010000Y-82611252D02*
X209010000Y-81188748D01*
%TO.C,C22*%
X216011252Y-78910000D02*
X214588748Y-78910000D01*
X216011252Y-77090000D02*
X214588748Y-77090000D01*
%TO.C,C23*%
X199288748Y-83290000D02*
X200711252Y-83290000D01*
X199288748Y-85110000D02*
X200711252Y-85110000D01*
%TO.C,C8*%
X207161252Y-104735000D02*
X206638748Y-104735000D01*
X207161252Y-103265000D02*
X206638748Y-103265000D01*
%TO.C,R36*%
X239572936Y-73365000D02*
X240027064Y-73365000D01*
X239572936Y-74835000D02*
X240027064Y-74835000D01*
%TO.C,R22*%
X203735000Y-88572936D02*
X203735000Y-89027064D01*
X202265000Y-88572936D02*
X202265000Y-89027064D01*
%TO.C,Y1*%
X193825000Y-61765000D02*
X193825000Y-68015000D01*
X188775000Y-61765000D02*
X188775000Y-68015000D01*
X193825000Y-61765000D02*
G75*
G03*
X188775000Y-61765000I-2525000J0D01*
G01*
X188775000Y-68015000D02*
G75*
G03*
X193825000Y-68015000I2525000J0D01*
G01*
%TO.C,J4*%
X242300000Y-70540000D02*
X234240000Y-70540000D01*
X242300000Y-70540000D02*
X242300000Y-72660000D01*
X234240000Y-70540000D02*
X234240000Y-72660000D01*
X244360000Y-71600000D02*
X244360000Y-72660000D01*
X244360000Y-72660000D02*
X243300000Y-72660000D01*
X242300000Y-72660000D02*
X234240000Y-72660000D01*
%TO.C,U8*%
X189090000Y-112900000D02*
X189090000Y-106890000D01*
X195910000Y-110650000D02*
X195910000Y-106890000D01*
X189090000Y-106890000D02*
X190350000Y-106890000D01*
X195910000Y-106890000D02*
X194650000Y-106890000D01*
%TO.C,K2*%
X300000179Y-79400000D02*
G75*
G03*
X300000179Y-79400000I-28000179J0D01*
G01*
%TO.C,C24*%
X195661252Y-84635000D02*
X195138748Y-84635000D01*
X195661252Y-83165000D02*
X195138748Y-83165000D01*
%TO.C,C5*%
X214238748Y-117265000D02*
X214761252Y-117265000D01*
X214238748Y-118735000D02*
X214761252Y-118735000D01*
%TO.C,J3*%
X207710000Y-58370000D02*
X194950000Y-58370000D01*
X207710000Y-58370000D02*
X207710000Y-61030000D01*
X194950000Y-58370000D02*
X194950000Y-61030000D01*
X210310000Y-59700000D02*
X210310000Y-61030000D01*
X210310000Y-61030000D02*
X208980000Y-61030000D01*
X207710000Y-61030000D02*
X194950000Y-61030000D01*
%TO.C,R21*%
X200735000Y-88572936D02*
X200735000Y-89027064D01*
X199265000Y-88572936D02*
X199265000Y-89027064D01*
%TO.C,U10*%
X229100000Y-58980000D02*
X229100000Y-59000000D01*
X229100000Y-59000000D02*
X227600000Y-59000000D01*
X229130000Y-68500000D02*
X229130000Y-69020000D01*
X229130000Y-69020000D02*
X236070000Y-69020000D01*
X236070000Y-58980000D02*
X229100000Y-58980000D01*
X236070000Y-59740000D02*
X236070000Y-58980000D01*
X236070000Y-69020000D02*
X236070000Y-68500000D01*
%TO.C,R12*%
X215265000Y-121227064D02*
X215265000Y-120772936D01*
X216735000Y-121227064D02*
X216735000Y-120772936D01*
%TO.C,R16*%
X211435000Y-110672936D02*
X211435000Y-111127064D01*
X209965000Y-110672936D02*
X209965000Y-111127064D01*
%TO.C,U3*%
X211940000Y-109000000D02*
X211940000Y-112450000D01*
X211940000Y-109000000D02*
X211940000Y-107050000D01*
X217060000Y-109000000D02*
X217060000Y-110950000D01*
X217060000Y-109000000D02*
X217060000Y-107050000D01*
%TO.C,C27*%
X196561252Y-68735000D02*
X196038748Y-68735000D01*
X196561252Y-67265000D02*
X196038748Y-67265000D01*
%TD*%
M02*
