%TF.GenerationSoftware,KiCad,Pcbnew,7.0.9*%
%TF.CreationDate,2024-01-08T16:14:42+05:30*%
%TF.ProjectId,Inverter,496e7665-7274-4657-922e-6b696361645f,rev?*%
%TF.SameCoordinates,Original*%
%TF.FileFunction,Plated,1,4,PTH,Drill*%
%TF.FilePolarity,Positive*%
%FSLAX46Y46*%
G04 Gerber Fmt 4.6, Leading zero omitted, Abs format (unit mm)*
G04 Created by KiCad (PCBNEW 7.0.9) date 2024-01-08 16:14:42*
%MOMM*%
%LPD*%
G01*
G04 APERTURE LIST*
%TA.AperFunction,ViaDrill*%
%ADD10C,0.400000*%
%TD*%
%TA.AperFunction,ComponentDrill*%
%ADD11C,0.700000*%
%TD*%
%TA.AperFunction,ComponentDrill*%
%ADD12C,0.800000*%
%TD*%
%TA.AperFunction,ComponentDrill*%
%ADD13C,0.950000*%
%TD*%
%TA.AperFunction,ComponentDrill*%
%ADD14C,1.000000*%
%TD*%
%TA.AperFunction,ComponentDrill*%
%ADD15C,1.100000*%
%TD*%
%TA.AperFunction,ComponentDrill*%
%ADD16C,1.200000*%
%TD*%
%TA.AperFunction,ComponentDrill*%
%ADD17C,1.300000*%
%TD*%
%TA.AperFunction,ComponentDrill*%
%ADD18C,1.400000*%
%TD*%
%TA.AperFunction,ComponentDrill*%
%ADD19C,6.400000*%
%TD*%
G04 APERTURE END LIST*
D10*
X26035000Y-130429000D03*
X26137000Y-139319000D03*
X31877000Y-125476000D03*
X31877000Y-130302000D03*
X36982400Y-140665200D03*
X37973000Y-135255000D03*
X39497000Y-135255000D03*
X41351200Y-147738700D03*
X41351200Y-150863700D03*
X42926000Y-140792200D03*
X43180000Y-144348200D03*
X46050600Y-156845000D03*
X46355000Y-134874000D03*
X48487500Y-131977500D03*
X48729500Y-136779000D03*
X50368200Y-146354800D03*
X51054000Y-143136900D03*
X51348000Y-124587000D03*
X52400200Y-141452600D03*
X52400200Y-143417800D03*
X52578000Y-145771100D03*
X52920645Y-135580944D03*
X54152800Y-147220100D03*
X54168098Y-143443200D03*
X54330600Y-141427200D03*
X55494201Y-135560703D03*
X56362600Y-134312400D03*
X56565800Y-145161000D03*
X58928000Y-131191000D03*
X60401200Y-147220100D03*
X62385200Y-124587000D03*
X62636400Y-132384800D03*
X62661800Y-137210800D03*
X62915800Y-145771100D03*
X64706100Y-136956800D03*
X65582800Y-141579600D03*
X65735200Y-145643600D03*
X65836800Y-147472400D03*
X67741800Y-140411200D03*
X68148200Y-135407400D03*
X68148200Y-145770600D03*
X68206000Y-148640800D03*
X69037200Y-140436600D03*
X69900800Y-147574000D03*
X70485000Y-143468600D03*
X70561200Y-139827000D03*
X70586600Y-146481800D03*
X72125898Y-133654800D03*
X72161400Y-147675600D03*
X72212200Y-145135600D03*
X72694800Y-136144000D03*
X72771000Y-149783800D03*
X73152000Y-141478000D03*
X73456800Y-135229600D03*
X74599800Y-137414000D03*
X75539600Y-134696200D03*
X77114400Y-135966200D03*
X77834600Y-148005800D03*
X77834600Y-149987000D03*
X77834600Y-151968200D03*
X78816200Y-131546600D03*
X84226400Y-146456400D03*
X89382600Y-140004800D03*
X90754200Y-139877800D03*
X91998800Y-151714200D03*
X92430600Y-146278600D03*
D11*
%TO.C,J4*%
X56921400Y-148742400D03*
X58191400Y-148742400D03*
X59461400Y-148742400D03*
D12*
%TO.C,IC3*%
X16256000Y-121666000D03*
X18796000Y-121666000D03*
X23876000Y-121666000D03*
X28956000Y-121666000D03*
%TO.C,IC2*%
X32411800Y-146528200D03*
X32411800Y-151608200D03*
X32411800Y-156688200D03*
X32411800Y-159228200D03*
%TO.C,IC4*%
X92075000Y-124460000D03*
X92075000Y-127000000D03*
X92075000Y-132080000D03*
X92075000Y-137160000D03*
D13*
%TO.C,J2*%
X55706000Y-150977600D03*
X58206000Y-150977600D03*
X60706000Y-150977600D03*
X63206000Y-150977600D03*
X65706000Y-150977600D03*
X68206000Y-150977600D03*
X70706000Y-150977600D03*
D14*
%TO.C,PS1*%
X16365000Y-134815500D03*
X16365000Y-137355500D03*
X16365000Y-139895500D03*
X16365000Y-142435500D03*
X16365000Y-147515500D03*
X16365000Y-150055500D03*
X16365000Y-152595500D03*
%TO.C,J1*%
X16835800Y-158414400D03*
X16835800Y-160914400D03*
%TO.C,PS2*%
X81744600Y-143654700D03*
X81744600Y-146194700D03*
X81744600Y-148734700D03*
X81744600Y-151274700D03*
X81744600Y-156354700D03*
X81744600Y-158894700D03*
X81744600Y-161434700D03*
%TO.C,J3*%
X91622200Y-158414400D03*
X91622200Y-160914400D03*
D15*
%TO.C,U1*%
X26873200Y-156032200D03*
X26873200Y-158572200D03*
X26873200Y-161112200D03*
%TO.C,U3*%
X50977800Y-155981400D03*
X50977800Y-158521400D03*
X50977800Y-161061400D03*
%TO.C,U2*%
X77266800Y-155994500D03*
X77266800Y-158534500D03*
X77266800Y-161074500D03*
D16*
%TO.C,C24*%
X17449800Y-68556800D03*
X17449800Y-91056800D03*
%TO.C,C25*%
X24892000Y-42267800D03*
X24892000Y-64767800D03*
D17*
%TO.C,D7*%
X17500600Y-95758000D03*
X17500600Y-110998000D03*
%TO.C,D8*%
X26111200Y-15748000D03*
X26111200Y-30988000D03*
%TO.C,U7*%
X46659800Y-115402800D03*
X46659800Y-119212800D03*
X52755800Y-115402800D03*
X52755800Y-119212800D03*
X67741800Y-115402800D03*
X67741800Y-119212800D03*
X73837800Y-115402800D03*
X73837800Y-119212800D03*
D18*
%TO.C,R6*%
X16713200Y-17228800D03*
X16713200Y-37228800D03*
%TO.C,R5*%
X25679400Y-95029000D03*
X25679400Y-115029000D03*
D19*
%TO.C,U7*%
X61010800Y-41249800D03*
X61010800Y-69249800D03*
X61010800Y-97249800D03*
M02*
