%TF.GenerationSoftware,KiCad,Pcbnew,7.0.9*%
%TF.CreationDate,2024-01-08T16:14:27+05:30*%
%TF.ProjectId,Inverter,496e7665-7274-4657-922e-6b696361645f,rev?*%
%TF.SameCoordinates,Original*%
%TF.FileFunction,Soldermask,Bot*%
%TF.FilePolarity,Negative*%
%FSLAX46Y46*%
G04 Gerber Fmt 4.6, Leading zero omitted, Abs format (unit mm)*
G04 Created by KiCad (PCBNEW 7.0.9) date 2024-01-08 16:14:27*
%MOMM*%
%LPD*%
G01*
G04 APERTURE LIST*
G04 Aperture macros list*
%AMRoundRect*
0 Rectangle with rounded corners*
0 $1 Rounding radius*
0 $2 $3 $4 $5 $6 $7 $8 $9 X,Y pos of 4 corners*
0 Add a 4 corners polygon primitive as box body*
4,1,4,$2,$3,$4,$5,$6,$7,$8,$9,$2,$3,0*
0 Add four circle primitives for the rounded corners*
1,1,$1+$1,$2,$3*
1,1,$1+$1,$4,$5*
1,1,$1+$1,$6,$7*
1,1,$1+$1,$8,$9*
0 Add four rect primitives between the rounded corners*
20,1,$1+$1,$2,$3,$4,$5,0*
20,1,$1+$1,$4,$5,$6,$7,0*
20,1,$1+$1,$6,$7,$8,$9,0*
20,1,$1+$1,$8,$9,$2,$3,0*%
G04 Aperture macros list end*
%ADD10R,2.600000X2.600000*%
%ADD11O,2.600000X2.600000*%
%ADD12C,3.200000*%
%ADD13R,2.000000X1.905000*%
%ADD14O,2.000000X1.905000*%
%ADD15RoundRect,0.102000X0.754000X-0.754000X0.754000X0.754000X-0.754000X0.754000X-0.754000X-0.754000X0*%
%ADD16C,1.712000*%
%ADD17RoundRect,0.250000X-0.600000X-0.725000X0.600000X-0.725000X0.600000X0.725000X-0.600000X0.725000X0*%
%ADD18O,1.700000X1.950000*%
%ADD19C,2.400000*%
%ADD20C,2.800000*%
%ADD21C,1.512000*%
%ADD22RoundRect,0.102000X-0.654000X-0.654000X0.654000X-0.654000X0.654000X0.654000X-0.654000X0.654000X0*%
%ADD23RoundRect,0.250000X0.750000X-0.600000X0.750000X0.600000X-0.750000X0.600000X-0.750000X-0.600000X0*%
%ADD24O,2.000000X1.700000*%
%ADD25RoundRect,0.102000X0.654000X-0.654000X0.654000X0.654000X-0.654000X0.654000X-0.654000X-0.654000X0*%
%ADD26RoundRect,0.102000X-0.654000X0.654000X-0.654000X-0.654000X0.654000X-0.654000X0.654000X0.654000X0*%
%ADD27RoundRect,0.250000X-0.750000X0.600000X-0.750000X-0.600000X0.750000X-0.600000X0.750000X0.600000X0*%
%ADD28RoundRect,0.250000X-0.650000X0.412500X-0.650000X-0.412500X0.650000X-0.412500X0.650000X0.412500X0*%
%ADD29RoundRect,0.237500X0.250000X0.237500X-0.250000X0.237500X-0.250000X-0.237500X0.250000X-0.237500X0*%
%ADD30RoundRect,0.250000X0.650000X-0.412500X0.650000X0.412500X-0.650000X0.412500X-0.650000X-0.412500X0*%
%ADD31RoundRect,0.250000X0.625000X-0.400000X0.625000X0.400000X-0.625000X0.400000X-0.625000X-0.400000X0*%
%ADD32R,5.700000X2.000000*%
%ADD33RoundRect,0.250000X-0.450000X0.350000X-0.450000X-0.350000X0.450000X-0.350000X0.450000X0.350000X0*%
%ADD34RoundRect,0.250000X0.412500X0.650000X-0.412500X0.650000X-0.412500X-0.650000X0.412500X-0.650000X0*%
%ADD35RoundRect,0.250000X-0.450000X0.325000X-0.450000X-0.325000X0.450000X-0.325000X0.450000X0.325000X0*%
%ADD36RoundRect,0.250000X-0.412500X-0.650000X0.412500X-0.650000X0.412500X0.650000X-0.412500X0.650000X0*%
%ADD37RoundRect,0.237500X-0.250000X-0.237500X0.250000X-0.237500X0.250000X0.237500X-0.250000X0.237500X0*%
%ADD38RoundRect,0.250000X-0.325000X-0.450000X0.325000X-0.450000X0.325000X0.450000X-0.325000X0.450000X0*%
%ADD39RoundRect,0.237500X-0.300000X-0.237500X0.300000X-0.237500X0.300000X0.237500X-0.300000X0.237500X0*%
%ADD40RoundRect,0.250000X1.500000X0.650000X-1.500000X0.650000X-1.500000X-0.650000X1.500000X-0.650000X0*%
%ADD41C,6.000000*%
%ADD42R,18.000000X14.000000*%
%ADD43C,4.000000*%
%ADD44R,1.000000X1.000000*%
%ADD45O,1.000000X1.000000*%
%ADD46RoundRect,0.250000X-0.650000X1.500000X-0.650000X-1.500000X0.650000X-1.500000X0.650000X1.500000X0*%
%ADD47R,2.000000X1.500000*%
%ADD48R,2.000000X3.800000*%
%ADD49RoundRect,0.250000X0.450000X-0.325000X0.450000X0.325000X-0.450000X0.325000X-0.450000X-0.325000X0*%
%ADD50RoundRect,0.250000X0.325000X0.450000X-0.325000X0.450000X-0.325000X-0.450000X0.325000X-0.450000X0*%
%ADD51R,2.000000X5.700000*%
G04 APERTURE END LIST*
D10*
%TO.C,D8*%
X26111200Y-30988000D03*
D11*
X26111200Y-15748000D03*
%TD*%
D12*
%TO.C,H4*%
X-129313800Y-98988200D03*
%TD*%
D13*
%TO.C,U3*%
X50977800Y-161061400D03*
D14*
X50977800Y-158521400D03*
X50977800Y-155981400D03*
%TD*%
D15*
%TO.C,PS1*%
X16365000Y-152595500D03*
D16*
X16365000Y-150055500D03*
X16365000Y-147515500D03*
X16365000Y-142435500D03*
X16365000Y-139895500D03*
X16365000Y-137355500D03*
X16365000Y-134815500D03*
%TD*%
D17*
%TO.C,J2*%
X55706000Y-150977600D03*
D18*
X58206000Y-150977600D03*
X60706000Y-150977600D03*
X63206000Y-150977600D03*
X65706000Y-150977600D03*
X68206000Y-150977600D03*
X70706000Y-150977600D03*
%TD*%
D12*
%TO.C,H3*%
X-129313800Y-91038200D03*
%TD*%
D19*
%TO.C,C25*%
X24892000Y-42267800D03*
X24892000Y-64767800D03*
%TD*%
D20*
%TO.C,R5*%
X25679400Y-95029000D03*
X25679400Y-115029000D03*
%TD*%
D21*
%TO.C,IC3*%
X18796000Y-121666000D03*
X23876000Y-121666000D03*
D22*
X16256000Y-121666000D03*
D21*
X28956000Y-121666000D03*
%TD*%
D23*
%TO.C,J3*%
X91622200Y-160914400D03*
D24*
X91622200Y-158414400D03*
%TD*%
D13*
%TO.C,U2*%
X77266800Y-161074500D03*
D14*
X77266800Y-158534500D03*
X77266800Y-155994500D03*
%TD*%
D20*
%TO.C,R6*%
X16713200Y-37228800D03*
X16713200Y-17228800D03*
%TD*%
D21*
%TO.C,IC2*%
X32411800Y-156688200D03*
X32411800Y-151608200D03*
D25*
X32411800Y-159228200D03*
D21*
X32411800Y-146528200D03*
%TD*%
D13*
%TO.C,U1*%
X26873200Y-161112200D03*
D14*
X26873200Y-158572200D03*
X26873200Y-156032200D03*
%TD*%
D21*
%TO.C,IC4*%
X92075000Y-127000000D03*
X92075000Y-132080000D03*
D26*
X92075000Y-124460000D03*
D21*
X92075000Y-137160000D03*
%TD*%
D19*
%TO.C,C24*%
X17449800Y-91056800D03*
X17449800Y-68556800D03*
%TD*%
D12*
%TO.C,H1*%
X-129313800Y-75138200D03*
%TD*%
%TO.C,H2*%
X-129313800Y-83088200D03*
%TD*%
D15*
%TO.C,PS2*%
X81744600Y-161434700D03*
D16*
X81744600Y-158894700D03*
X81744600Y-156354700D03*
X81744600Y-151274700D03*
X81744600Y-148734700D03*
X81744600Y-146194700D03*
X81744600Y-143654700D03*
%TD*%
D27*
%TO.C,J1*%
X16835800Y-158414400D03*
D24*
X16835800Y-160914400D03*
%TD*%
D10*
%TO.C,D7*%
X17500600Y-95758000D03*
D11*
X17500600Y-110998000D03*
%TD*%
D28*
%TO.C,C11*%
X45720000Y-155917500D03*
X45720000Y-159042500D03*
%TD*%
D29*
%TO.C,R22*%
X39825300Y-142773400D03*
X38000300Y-142773400D03*
%TD*%
D30*
%TO.C,C27*%
X61341000Y-83147300D03*
X61341000Y-80022300D03*
%TD*%
D31*
%TO.C,R13*%
X44932600Y-83414200D03*
X44932600Y-80314200D03*
%TD*%
D32*
%TO.C,C32*%
X72085200Y-124587000D03*
X62385200Y-124587000D03*
%TD*%
D31*
%TO.C,R16*%
X49580800Y-83414200D03*
X49580800Y-80314200D03*
%TD*%
D33*
%TO.C,R10*%
X70485000Y-141468600D03*
X70485000Y-143468600D03*
%TD*%
D34*
%TO.C,C22*%
X67831100Y-136956800D03*
X64706100Y-136956800D03*
%TD*%
D33*
%TO.C,R9*%
X52400200Y-141417800D03*
X52400200Y-143417800D03*
%TD*%
D29*
%TO.C,R25*%
X89253700Y-143417400D03*
X87428700Y-143417400D03*
%TD*%
D28*
%TO.C,C14*%
X34975800Y-147205300D03*
X34975800Y-150330300D03*
%TD*%
D35*
%TO.C,D17*%
X91084400Y-141300200D03*
X91084400Y-143350200D03*
%TD*%
D32*
%TO.C,C30*%
X26464000Y-128219200D03*
X16764000Y-128219200D03*
%TD*%
D30*
%TO.C,C26*%
X64691000Y-83147300D03*
X64691000Y-80022300D03*
%TD*%
D31*
%TO.C,R17*%
X44831000Y-78308800D03*
X44831000Y-75208800D03*
%TD*%
D36*
%TO.C,C19*%
X54444500Y-136779000D03*
X57569500Y-136779000D03*
%TD*%
D37*
%TO.C,R26*%
X87377900Y-141156800D03*
X89202900Y-141156800D03*
%TD*%
D38*
%TO.C,D9*%
X75784600Y-151968200D03*
X77834600Y-151968200D03*
%TD*%
D39*
%TO.C,C34*%
X65482300Y-141528800D03*
X67207300Y-141528800D03*
%TD*%
D37*
%TO.C,R2*%
X51665500Y-127127000D03*
X53490500Y-127127000D03*
%TD*%
D40*
%TO.C,D1*%
X57745000Y-129794000D03*
X52745000Y-129794000D03*
%TD*%
D41*
%TO.C,U7*%
X84010800Y-116249800D03*
X84010800Y-22249800D03*
X38010800Y-116249800D03*
X38010800Y-22249800D03*
D42*
X61010800Y-41249800D03*
X61010800Y-69249800D03*
X61010800Y-97249800D03*
D43*
X73837800Y-119212800D03*
X73837800Y-115402800D03*
X67741800Y-119212800D03*
X67741800Y-115402800D03*
X46659800Y-119212800D03*
X46659800Y-115402800D03*
X52755800Y-119212800D03*
X52755800Y-115402800D03*
%TD*%
D44*
%TO.C,J4*%
X59461400Y-148742400D03*
D45*
X58191400Y-148742400D03*
X56921400Y-148742400D03*
%TD*%
D46*
%TO.C,D4*%
X76250800Y-128447800D03*
X76250800Y-133447800D03*
%TD*%
D31*
%TO.C,R15*%
X47203800Y-78308800D03*
X47203800Y-75208800D03*
%TD*%
D47*
%TO.C,U6*%
X85800800Y-151093200D03*
X85800800Y-148793200D03*
D48*
X92100800Y-148793200D03*
D47*
X85800800Y-146493200D03*
%TD*%
D39*
%TO.C,C35*%
X56236700Y-141351000D03*
X57961700Y-141351000D03*
%TD*%
D34*
%TO.C,C21*%
X73012700Y-136956800D03*
X69887700Y-136956800D03*
%TD*%
D47*
%TO.C,U5*%
X19837000Y-141619000D03*
X19837000Y-139319000D03*
D48*
X26137000Y-139319000D03*
D47*
X19837000Y-137019000D03*
%TD*%
D49*
%TO.C,D16*%
X85572600Y-143324800D03*
X85572600Y-141274800D03*
%TD*%
D31*
%TO.C,R7*%
X47269400Y-83414200D03*
X47269400Y-80314200D03*
%TD*%
D28*
%TO.C,C5*%
X24003000Y-155790500D03*
X24003000Y-158915500D03*
%TD*%
D47*
%TO.C,U8*%
X39115600Y-150458200D03*
X39115600Y-148158200D03*
D48*
X45415600Y-148158200D03*
D47*
X39115600Y-145858200D03*
%TD*%
D28*
%TO.C,C6*%
X74396600Y-155956000D03*
X74396600Y-159081000D03*
%TD*%
D33*
%TO.C,R8*%
X54381400Y-141443200D03*
X54381400Y-143443200D03*
%TD*%
D50*
%TO.C,D12*%
X43519200Y-140335000D03*
X41469200Y-140335000D03*
%TD*%
%TO.C,D13*%
X43519200Y-142773400D03*
X41469200Y-142773400D03*
%TD*%
D28*
%TO.C,C16*%
X31623000Y-120865500D03*
X31623000Y-123990500D03*
%TD*%
D49*
%TO.C,D18*%
X42316400Y-77174200D03*
X42316400Y-75124200D03*
%TD*%
D32*
%TO.C,C31*%
X41807000Y-132080000D03*
X32107000Y-132080000D03*
%TD*%
D31*
%TO.C,R14*%
X49555400Y-78308800D03*
X49555400Y-75208800D03*
%TD*%
D38*
%TO.C,D11*%
X75784600Y-148005800D03*
X77834600Y-148005800D03*
%TD*%
D36*
%TO.C,C17*%
X89013900Y-122021600D03*
X92138900Y-122021600D03*
%TD*%
D51*
%TO.C,C33*%
X85140800Y-125682000D03*
X85140800Y-135382000D03*
%TD*%
D30*
%TO.C,C28*%
X57991000Y-83147300D03*
X57991000Y-80022300D03*
%TD*%
D34*
%TO.C,C18*%
X51854500Y-136779000D03*
X48729500Y-136779000D03*
%TD*%
D40*
%TO.C,D5*%
X68311400Y-133654800D03*
X63311400Y-133654800D03*
%TD*%
D28*
%TO.C,C8*%
X48158400Y-155917500D03*
X48158400Y-159042500D03*
%TD*%
D38*
%TO.C,D10*%
X75784600Y-149987000D03*
X77834600Y-149987000D03*
%TD*%
D29*
%TO.C,R21*%
X39799900Y-140589000D03*
X37974900Y-140589000D03*
%TD*%
D40*
%TO.C,D2*%
X52284000Y-133477000D03*
X47284000Y-133477000D03*
%TD*%
M02*
