%TF.GenerationSoftware,KiCad,Pcbnew,7.0.9*%
%TF.CreationDate,2024-01-28T15:24:27+05:30*%
%TF.ProjectId,Inverter,496e7665-7274-4657-922e-6b696361645f,rev?*%
%TF.SameCoordinates,Original*%
%TF.FileFunction,Soldermask,Bot*%
%TF.FilePolarity,Negative*%
%FSLAX46Y46*%
G04 Gerber Fmt 4.6, Leading zero omitted, Abs format (unit mm)*
G04 Created by KiCad (PCBNEW 7.0.9) date 2024-01-28 15:24:27*
%MOMM*%
%LPD*%
G01*
G04 APERTURE LIST*
G04 Aperture macros list*
%AMRoundRect*
0 Rectangle with rounded corners*
0 $1 Rounding radius*
0 $2 $3 $4 $5 $6 $7 $8 $9 X,Y pos of 4 corners*
0 Add a 4 corners polygon primitive as box body*
4,1,4,$2,$3,$4,$5,$6,$7,$8,$9,$2,$3,0*
0 Add four circle primitives for the rounded corners*
1,1,$1+$1,$2,$3*
1,1,$1+$1,$4,$5*
1,1,$1+$1,$6,$7*
1,1,$1+$1,$8,$9*
0 Add four rect primitives between the rounded corners*
20,1,$1+$1,$2,$3,$4,$5,0*
20,1,$1+$1,$4,$5,$6,$7,0*
20,1,$1+$1,$6,$7,$8,$9,0*
20,1,$1+$1,$8,$9,$2,$3,0*%
G04 Aperture macros list end*
%ADD10R,1.000000X1.000000*%
%ADD11O,1.000000X1.000000*%
%ADD12R,2.600000X2.600000*%
%ADD13O,2.600000X2.600000*%
%ADD14R,2.000000X1.905000*%
%ADD15O,2.000000X1.905000*%
%ADD16RoundRect,0.102000X0.754000X-0.754000X0.754000X0.754000X-0.754000X0.754000X-0.754000X-0.754000X0*%
%ADD17C,1.712000*%
%ADD18RoundRect,0.250000X-0.600000X-0.725000X0.600000X-0.725000X0.600000X0.725000X-0.600000X0.725000X0*%
%ADD19O,1.700000X1.950000*%
%ADD20C,2.400000*%
%ADD21C,2.800000*%
%ADD22C,1.512000*%
%ADD23RoundRect,0.102000X-0.654000X-0.654000X0.654000X-0.654000X0.654000X0.654000X-0.654000X0.654000X0*%
%ADD24RoundRect,0.250000X0.750000X-0.600000X0.750000X0.600000X-0.750000X0.600000X-0.750000X-0.600000X0*%
%ADD25O,2.000000X1.700000*%
%ADD26RoundRect,0.102000X0.654000X-0.654000X0.654000X0.654000X-0.654000X0.654000X-0.654000X-0.654000X0*%
%ADD27RoundRect,0.102000X-0.654000X0.654000X-0.654000X-0.654000X0.654000X-0.654000X0.654000X0.654000X0*%
%ADD28RoundRect,0.250000X0.600000X0.725000X-0.600000X0.725000X-0.600000X-0.725000X0.600000X-0.725000X0*%
%ADD29RoundRect,0.250000X-0.750000X0.600000X-0.750000X-0.600000X0.750000X-0.600000X0.750000X0.600000X0*%
%ADD30C,1.524000*%
%ADD31RoundRect,0.250000X-0.650000X0.412500X-0.650000X-0.412500X0.650000X-0.412500X0.650000X0.412500X0*%
%ADD32RoundRect,0.237500X0.250000X0.237500X-0.250000X0.237500X-0.250000X-0.237500X0.250000X-0.237500X0*%
%ADD33RoundRect,0.250000X0.650000X-0.412500X0.650000X0.412500X-0.650000X0.412500X-0.650000X-0.412500X0*%
%ADD34RoundRect,0.250000X0.725000X-0.600000X0.725000X0.600000X-0.725000X0.600000X-0.725000X-0.600000X0*%
%ADD35O,1.950000X1.700000*%
%ADD36RoundRect,0.250000X0.625000X-0.400000X0.625000X0.400000X-0.625000X0.400000X-0.625000X-0.400000X0*%
%ADD37R,5.700000X2.000000*%
%ADD38RoundRect,0.250000X-0.450000X0.350000X-0.450000X-0.350000X0.450000X-0.350000X0.450000X0.350000X0*%
%ADD39RoundRect,0.250000X0.412500X0.650000X-0.412500X0.650000X-0.412500X-0.650000X0.412500X-0.650000X0*%
%ADD40RoundRect,0.250000X-0.450000X0.325000X-0.450000X-0.325000X0.450000X-0.325000X0.450000X0.325000X0*%
%ADD41RoundRect,0.250000X-0.412500X-0.650000X0.412500X-0.650000X0.412500X0.650000X-0.412500X0.650000X0*%
%ADD42RoundRect,0.237500X-0.250000X-0.237500X0.250000X-0.237500X0.250000X0.237500X-0.250000X0.237500X0*%
%ADD43RoundRect,0.250000X-0.325000X-0.450000X0.325000X-0.450000X0.325000X0.450000X-0.325000X0.450000X0*%
%ADD44RoundRect,0.237500X-0.300000X-0.237500X0.300000X-0.237500X0.300000X0.237500X-0.300000X0.237500X0*%
%ADD45RoundRect,0.250000X1.500000X0.650000X-1.500000X0.650000X-1.500000X-0.650000X1.500000X-0.650000X0*%
%ADD46C,6.000000*%
%ADD47R,18.000000X14.000000*%
%ADD48C,4.000000*%
%ADD49RoundRect,0.250000X-0.650000X1.500000X-0.650000X-1.500000X0.650000X-1.500000X0.650000X1.500000X0*%
%ADD50R,2.000000X1.500000*%
%ADD51R,2.000000X3.800000*%
%ADD52RoundRect,0.250000X0.450000X-0.325000X0.450000X0.325000X-0.450000X0.325000X-0.450000X-0.325000X0*%
%ADD53RoundRect,0.250000X0.325000X0.450000X-0.325000X0.450000X-0.325000X-0.450000X0.325000X-0.450000X0*%
%ADD54R,2.000000X5.700000*%
G04 APERTURE END LIST*
D10*
%TO.C,J11*%
X87500000Y-35850000D03*
D11*
X87500000Y-37120000D03*
%TD*%
D10*
%TO.C,J10*%
X83950000Y-99250000D03*
D11*
X83950000Y-100520000D03*
%TD*%
D12*
%TO.C,D8*%
X25400000Y-48260000D03*
D13*
X25400000Y-33020000D03*
%TD*%
D14*
%TO.C,U3*%
X50977800Y-161061400D03*
D15*
X50977800Y-158521400D03*
X50977800Y-155981400D03*
%TD*%
D16*
%TO.C,PS1*%
X16365000Y-152595500D03*
D17*
X16365000Y-150055500D03*
X16365000Y-147515500D03*
X16365000Y-142435500D03*
X16365000Y-139895500D03*
X16365000Y-137355500D03*
X16365000Y-134815500D03*
%TD*%
D18*
%TO.C,J2*%
X55706000Y-150977600D03*
D19*
X58206000Y-150977600D03*
X60706000Y-150977600D03*
X63206000Y-150977600D03*
X65706000Y-150977600D03*
X68206000Y-150977600D03*
X70706000Y-150977600D03*
X73206000Y-150977600D03*
%TD*%
D20*
%TO.C,C25*%
X24892000Y-56314000D03*
X24892000Y-78814000D03*
%TD*%
D21*
%TO.C,R5*%
X16764000Y-58580000D03*
X16764000Y-78580000D03*
%TD*%
D22*
%TO.C,IC3*%
X18796000Y-121666000D03*
X23876000Y-121666000D03*
D23*
X16256000Y-121666000D03*
D22*
X28956000Y-121666000D03*
%TD*%
D24*
%TO.C,J3*%
X91622200Y-160914400D03*
D25*
X91622200Y-158414400D03*
%TD*%
D14*
%TO.C,U2*%
X77266800Y-161074500D03*
D15*
X77266800Y-158534500D03*
X77266800Y-155994500D03*
%TD*%
D10*
%TO.C,J8*%
X88420000Y-78550000D03*
D11*
X87150000Y-78550000D03*
%TD*%
D21*
%TO.C,R6*%
X16764000Y-87536000D03*
X16764000Y-107536000D03*
%TD*%
D10*
%TO.C,J9*%
X49000000Y-151150000D03*
D11*
X50270000Y-151150000D03*
%TD*%
D22*
%TO.C,IC2*%
X32411800Y-156688200D03*
X32411800Y-151608200D03*
D26*
X32411800Y-159228200D03*
D22*
X32411800Y-146528200D03*
%TD*%
D14*
%TO.C,U1*%
X26873200Y-161112200D03*
D15*
X26873200Y-158572200D03*
X26873200Y-156032200D03*
%TD*%
D18*
%TO.C,J6*%
X81450000Y-107800000D03*
D19*
X83950000Y-107800000D03*
X86450000Y-107800000D03*
%TD*%
D22*
%TO.C,IC4*%
X92075000Y-127000000D03*
X92075000Y-132080000D03*
D27*
X92075000Y-124460000D03*
D22*
X92075000Y-137160000D03*
%TD*%
D20*
%TO.C,C24*%
X24892000Y-108278000D03*
X24892000Y-85778000D03*
%TD*%
D16*
%TO.C,PS2*%
X81744600Y-161434700D03*
D17*
X81744600Y-158894700D03*
X81744600Y-156354700D03*
X81744600Y-151274700D03*
X81744600Y-148734700D03*
X81744600Y-146194700D03*
X81744600Y-143654700D03*
%TD*%
D28*
%TO.C,J7*%
X86350000Y-31800000D03*
D19*
X83850000Y-31800000D03*
X81350000Y-31800000D03*
%TD*%
D29*
%TO.C,J1*%
X16835800Y-158414400D03*
D25*
X16835800Y-160914400D03*
%TD*%
D30*
%TO.C,U9*%
X76680000Y-88730000D03*
X91920000Y-45550000D03*
X76680000Y-83650000D03*
X76680000Y-86190000D03*
X91920000Y-40470000D03*
X91920000Y-43010000D03*
X91920000Y-48090000D03*
X91920000Y-78570000D03*
X91920000Y-76030000D03*
X91920000Y-73490000D03*
X91920000Y-70950000D03*
X91920000Y-68410000D03*
X91920000Y-65870000D03*
X91920000Y-63330000D03*
X91920000Y-60790000D03*
X76680000Y-50630000D03*
X76680000Y-53170000D03*
X76680000Y-55710000D03*
X76680000Y-58250000D03*
X76680000Y-60790000D03*
X76680000Y-63330000D03*
X91920000Y-58250000D03*
X91920000Y-55710000D03*
X76680000Y-65870000D03*
X76680000Y-68410000D03*
X76680000Y-70950000D03*
X76680000Y-73490000D03*
X76680000Y-76030000D03*
X76680000Y-78570000D03*
X76680000Y-81110000D03*
X91920000Y-53170000D03*
X91920000Y-50630000D03*
X76680000Y-40470000D03*
X76680000Y-43010000D03*
X76680000Y-45550000D03*
X76680000Y-48090000D03*
X91920000Y-86190000D03*
X91920000Y-83650000D03*
X91920000Y-81110000D03*
X91920000Y-88730000D03*
%TD*%
D12*
%TO.C,D7*%
X17272000Y-33020000D03*
D13*
X17272000Y-48260000D03*
%TD*%
D31*
%TO.C,C11*%
X45720000Y-155917500D03*
X45720000Y-159042500D03*
%TD*%
D32*
%TO.C,R22*%
X39825300Y-142773400D03*
X38000300Y-142773400D03*
%TD*%
D33*
%TO.C,C27*%
X44881800Y-83274300D03*
X44881800Y-80149300D03*
%TD*%
D34*
%TO.C,J5*%
X86100000Y-67400000D03*
D35*
X86100000Y-64900000D03*
X86100000Y-62400000D03*
X86100000Y-59900000D03*
X86100000Y-57400000D03*
X86100000Y-54900000D03*
X86100000Y-52400000D03*
X86100000Y-49900000D03*
%TD*%
D36*
%TO.C,R13*%
X33375600Y-85217600D03*
X33375600Y-82117600D03*
%TD*%
D37*
%TO.C,C32*%
X72085200Y-124587000D03*
X62385200Y-124587000D03*
%TD*%
D36*
%TO.C,R16*%
X38023800Y-85217600D03*
X38023800Y-82117600D03*
%TD*%
D38*
%TO.C,R10*%
X70485000Y-141468600D03*
X70485000Y-143468600D03*
%TD*%
D39*
%TO.C,C22*%
X67831100Y-136956800D03*
X64706100Y-136956800D03*
%TD*%
%TO.C,C2*%
X48400100Y-162509200D03*
X45275100Y-162509200D03*
%TD*%
D38*
%TO.C,R9*%
X52400200Y-141417800D03*
X52400200Y-143417800D03*
%TD*%
D32*
%TO.C,R25*%
X89253700Y-143417400D03*
X87428700Y-143417400D03*
%TD*%
D31*
%TO.C,C14*%
X34975800Y-147205300D03*
X34975800Y-150330300D03*
%TD*%
D40*
%TO.C,D17*%
X91084400Y-141300200D03*
X91084400Y-143350200D03*
%TD*%
D37*
%TO.C,C30*%
X26464000Y-128219200D03*
X16764000Y-128219200D03*
%TD*%
D33*
%TO.C,C26*%
X47320200Y-83299700D03*
X47320200Y-80174700D03*
%TD*%
D36*
%TO.C,R17*%
X33274000Y-80112200D03*
X33274000Y-77012200D03*
%TD*%
D41*
%TO.C,C19*%
X54444500Y-136779000D03*
X57569500Y-136779000D03*
%TD*%
D42*
%TO.C,R26*%
X87377900Y-141156800D03*
X89202900Y-141156800D03*
%TD*%
D43*
%TO.C,D9*%
X75784600Y-151968200D03*
X77834600Y-151968200D03*
%TD*%
D44*
%TO.C,C34*%
X65482300Y-141528800D03*
X67207300Y-141528800D03*
%TD*%
D42*
%TO.C,R2*%
X51665500Y-127127000D03*
X53490500Y-127127000D03*
%TD*%
D45*
%TO.C,D1*%
X57745000Y-129794000D03*
X52745000Y-129794000D03*
%TD*%
D46*
%TO.C,U7*%
X84010800Y-116249800D03*
X84010800Y-22249800D03*
X38010800Y-116249800D03*
X38010800Y-22249800D03*
D47*
X61010800Y-41249800D03*
X61010800Y-69249800D03*
X61010800Y-97249800D03*
D48*
X73837800Y-119212800D03*
X73837800Y-115402800D03*
X67741800Y-119212800D03*
X67741800Y-115402800D03*
X46659800Y-119212800D03*
X46659800Y-115402800D03*
X52755800Y-119212800D03*
X52755800Y-115402800D03*
%TD*%
D10*
%TO.C,J4*%
X59461400Y-148742400D03*
D11*
X58191400Y-148742400D03*
X56921400Y-148742400D03*
%TD*%
D49*
%TO.C,D4*%
X76250800Y-128447800D03*
X76250800Y-133447800D03*
%TD*%
D36*
%TO.C,R15*%
X35646800Y-80112200D03*
X35646800Y-77012200D03*
%TD*%
D50*
%TO.C,U6*%
X85800800Y-151093200D03*
X85800800Y-148793200D03*
D51*
X92100800Y-148793200D03*
D50*
X85800800Y-146493200D03*
%TD*%
D44*
%TO.C,C35*%
X56236700Y-141351000D03*
X57961700Y-141351000D03*
%TD*%
D39*
%TO.C,C7*%
X74460500Y-162395300D03*
X71335500Y-162395300D03*
%TD*%
%TO.C,C21*%
X73012700Y-136956800D03*
X69887700Y-136956800D03*
%TD*%
D50*
%TO.C,U5*%
X19837000Y-141619000D03*
X19837000Y-139319000D03*
D51*
X26137000Y-139319000D03*
D50*
X19837000Y-137019000D03*
%TD*%
D52*
%TO.C,D16*%
X85572600Y-143324800D03*
X85572600Y-141274800D03*
%TD*%
D36*
%TO.C,R7*%
X35712400Y-85217600D03*
X35712400Y-82117600D03*
%TD*%
D31*
%TO.C,C5*%
X24003000Y-155790500D03*
X24003000Y-158915500D03*
%TD*%
D50*
%TO.C,U8*%
X39115600Y-150458200D03*
X39115600Y-148158200D03*
D51*
X45415600Y-148158200D03*
D50*
X39115600Y-145858200D03*
%TD*%
D31*
%TO.C,C6*%
X74396600Y-155956000D03*
X74396600Y-159081000D03*
%TD*%
D38*
%TO.C,R8*%
X54381400Y-141443200D03*
X54381400Y-143443200D03*
%TD*%
D53*
%TO.C,D12*%
X43519200Y-140335000D03*
X41469200Y-140335000D03*
%TD*%
%TO.C,D13*%
X43519200Y-142773400D03*
X41469200Y-142773400D03*
%TD*%
D31*
%TO.C,C16*%
X31623000Y-120865500D03*
X31623000Y-123990500D03*
%TD*%
D52*
%TO.C,D18*%
X30759400Y-78977600D03*
X30759400Y-76927600D03*
%TD*%
D37*
%TO.C,C31*%
X41807000Y-132080000D03*
X32107000Y-132080000D03*
%TD*%
D36*
%TO.C,R14*%
X37998400Y-80112200D03*
X37998400Y-77012200D03*
%TD*%
D43*
%TO.C,D11*%
X75784600Y-148005800D03*
X77834600Y-148005800D03*
%TD*%
D41*
%TO.C,C17*%
X89013900Y-122021600D03*
X92138900Y-122021600D03*
%TD*%
D54*
%TO.C,C33*%
X85140800Y-125682000D03*
X85140800Y-135382000D03*
%TD*%
D33*
%TO.C,C28*%
X42494200Y-83274300D03*
X42494200Y-80149300D03*
%TD*%
D39*
%TO.C,C18*%
X51854500Y-136779000D03*
X48729500Y-136779000D03*
%TD*%
%TO.C,C1*%
X24219300Y-162407600D03*
X21094300Y-162407600D03*
%TD*%
D45*
%TO.C,D5*%
X68311400Y-133654800D03*
X63311400Y-133654800D03*
%TD*%
D31*
%TO.C,C8*%
X48158400Y-155917500D03*
X48158400Y-159042500D03*
%TD*%
D43*
%TO.C,D10*%
X75784600Y-149987000D03*
X77834600Y-149987000D03*
%TD*%
D32*
%TO.C,R21*%
X39799900Y-140589000D03*
X37974900Y-140589000D03*
%TD*%
D45*
%TO.C,D2*%
X52284000Y-133477000D03*
X47284000Y-133477000D03*
%TD*%
M02*
