%TF.GenerationSoftware,KiCad,Pcbnew,7.0.9*%
%TF.CreationDate,2024-01-25T19:07:59+05:30*%
%TF.ProjectId,Inverter,496e7665-7274-4657-922e-6b696361645f,rev?*%
%TF.SameCoordinates,Original*%
%TF.FileFunction,Drillmap*%
%TF.FilePolarity,Positive*%
%FSLAX45Y45*%
G04 Gerber Fmt 4.5, Leading zero omitted, Abs format (unit mm)*
G04 Created by KiCad (PCBNEW 7.0.9) date 2024-01-25 19:07:59*
%MOMM*%
%LPD*%
G01*
G04 APERTURE LIST*
%ADD10C,0.100000*%
%ADD11C,0.200000*%
%ADD12C,0.320000*%
%ADD13C,0.650000*%
G04 APERTURE END LIST*
D10*
X7508000Y-4478000D02*
X7522000Y-4478000D01*
X7522000Y-5000000D01*
X7508000Y-5000000D01*
X7508000Y-4478000D01*
X4254500Y-10723880D02*
X7256780Y-10723880D01*
X7256780Y-11094720D01*
X4254500Y-11094720D01*
X4254500Y-10723880D01*
X8265000Y-10999000D02*
X8787000Y-10999000D01*
X8787000Y-11013000D01*
X8265000Y-11013000D01*
X8265000Y-10999000D01*
X2900680Y-13962380D02*
X3012440Y-13962380D01*
X3012440Y-14317980D01*
X2900680Y-14317980D01*
X2900680Y-13962380D01*
X7510000Y-8496000D02*
X7524000Y-8496000D01*
X7524000Y-9018000D01*
X7510000Y-9018000D01*
X7510000Y-8496000D01*
X8808000Y-10999000D02*
X9330000Y-10999000D01*
X9330000Y-11013000D01*
X8808000Y-11013000D01*
X8808000Y-10999000D01*
X1412240Y-14373860D02*
X2837180Y-14373860D01*
X2837180Y-14480540D01*
X1412240Y-14480540D01*
X1412240Y-14373860D01*
X7510000Y-10233000D02*
X7524000Y-10233000D01*
X7524000Y-10755000D01*
X7510000Y-10755000D01*
X7510000Y-10233000D01*
X7675000Y-11001000D02*
X8197000Y-11001000D01*
X8197000Y-11015000D01*
X7675000Y-11015000D01*
X7675000Y-11001000D01*
X7525000Y-11000000D02*
X7650000Y-11000000D01*
X7650000Y-11015000D01*
X7510000Y-11015000D01*
X7510000Y-10805000D01*
X7525000Y-10805000D01*
X7525000Y-11000000D01*
X9350000Y-10764000D02*
X9350120Y-10764220D01*
X9344660Y-16393160D01*
X1330960Y-16383000D01*
X1320800Y-2997200D01*
X1323340Y-2943860D01*
X9345000Y-2940000D01*
X9350000Y-10764000D01*
X7508000Y-3933000D02*
X7522000Y-3933000D01*
X7522000Y-4455000D01*
X7508000Y-4455000D01*
X7508000Y-3933000D01*
X8140700Y-15273020D02*
X9166860Y-15273020D01*
X9166860Y-15367000D01*
X8140700Y-15367000D01*
X8140700Y-15273020D01*
X7507000Y-6798000D02*
X7521000Y-6798000D01*
X7521000Y-7320000D01*
X7507000Y-7320000D01*
X7507000Y-6798000D01*
X7511000Y-9650000D02*
X7525000Y-9650000D01*
X7525000Y-10172000D01*
X7511000Y-10172000D01*
X7511000Y-9650000D01*
X7511000Y-7368000D02*
X7525000Y-7368000D01*
X7525000Y-7890000D01*
X7511000Y-7890000D01*
X7511000Y-7368000D01*
X5986780Y-12733020D02*
X6118860Y-12733020D01*
X6118860Y-13703300D01*
X5986780Y-13703300D01*
X5986780Y-12733020D01*
X7511000Y-7913000D02*
X7525000Y-7913000D01*
X7525000Y-8435000D01*
X7511000Y-8435000D01*
X7511000Y-7913000D01*
X2885440Y-14599920D02*
X3025140Y-14599920D01*
X3025140Y-15158720D01*
X2885440Y-15158720D01*
X2885440Y-14599920D01*
X7511000Y-9105000D02*
X7525000Y-9105000D01*
X7525000Y-9627000D01*
X7511000Y-9627000D01*
X7511000Y-9105000D01*
X7879080Y-14056360D02*
X8016240Y-14056360D01*
X8016240Y-15123160D01*
X7879080Y-15123160D01*
X7879080Y-14056360D01*
X7508000Y-5670000D02*
X7522000Y-5670000D01*
X7522000Y-6192000D01*
X7508000Y-6192000D01*
X7508000Y-5670000D01*
X7508000Y-3390000D02*
X7522000Y-3390000D01*
X7522000Y-3912000D01*
X7508000Y-3912000D01*
X7508000Y-3390000D01*
X7507000Y-5061000D02*
X7521000Y-5061000D01*
X7521000Y-5583000D01*
X7507000Y-5583000D01*
X7507000Y-5061000D01*
X3154680Y-15245080D02*
X7485380Y-15245080D01*
X7485380Y-15346680D01*
X3154680Y-15346680D01*
X3154680Y-15245080D01*
X3073400Y-13794740D02*
X7856220Y-13794740D01*
X7856220Y-13934440D01*
X3073400Y-13934440D01*
X3073400Y-13794740D01*
X7508000Y-6215000D02*
X7522000Y-6215000D01*
X7522000Y-6737000D01*
X7508000Y-6737000D01*
X7508000Y-6215000D01*
X5689600Y-11254740D02*
X6093460Y-11254740D01*
X6093460Y-12194540D01*
X5689600Y-12194540D01*
X5689600Y-11254740D01*
X7506000Y-2997000D02*
X7525000Y-2997000D01*
X7525000Y-3354540D01*
X7506000Y-3354540D01*
X7506000Y-2997000D01*
D11*
D12*
X-13091380Y-7353820D02*
X-12771380Y-7673820D01*
X-12771380Y-7353820D02*
X-13091380Y-7673820D01*
X-13091380Y-8148820D02*
X-12771380Y-8468820D01*
X-12771380Y-8148820D02*
X-13091380Y-8468820D01*
X-13091380Y-8943820D02*
X-12771380Y-9263820D01*
X-12771380Y-8943820D02*
X-13091380Y-9263820D01*
X-13091380Y-9738820D02*
X-12771380Y-10058820D01*
X-12771380Y-9738820D02*
X-13091380Y-10058820D01*
D13*
X4126080Y-2224980D02*
G75*
G03*
X4126080Y-2224980I-325000J0D01*
G01*
X4126080Y-11624980D02*
G75*
G03*
X4126080Y-11624980I-325000J0D01*
G01*
X8726080Y-2224980D02*
G75*
G03*
X8726080Y-2224980I-325000J0D01*
G01*
X8726080Y-11624980D02*
G75*
G03*
X8726080Y-11624980I-325000J0D01*
G01*
D11*
X1576577Y-16709644D02*
X1576577Y-16509644D01*
X1576577Y-16509644D02*
X1624196Y-16509644D01*
X1624196Y-16509644D02*
X1652767Y-16519168D01*
X1652767Y-16519168D02*
X1671815Y-16538215D01*
X1671815Y-16538215D02*
X1681339Y-16557263D01*
X1681339Y-16557263D02*
X1690862Y-16595358D01*
X1690862Y-16595358D02*
X1690862Y-16623929D01*
X1690862Y-16623929D02*
X1681339Y-16662025D01*
X1681339Y-16662025D02*
X1671815Y-16681072D01*
X1671815Y-16681072D02*
X1652767Y-16700120D01*
X1652767Y-16700120D02*
X1624196Y-16709644D01*
X1624196Y-16709644D02*
X1576577Y-16709644D01*
X1776577Y-16709644D02*
X1776577Y-16576310D01*
X1776577Y-16614406D02*
X1786101Y-16595358D01*
X1786101Y-16595358D02*
X1795624Y-16585834D01*
X1795624Y-16585834D02*
X1814672Y-16576310D01*
X1814672Y-16576310D02*
X1833720Y-16576310D01*
X1900386Y-16709644D02*
X1900386Y-16576310D01*
X1900386Y-16509644D02*
X1890862Y-16519168D01*
X1890862Y-16519168D02*
X1900386Y-16528691D01*
X1900386Y-16528691D02*
X1909910Y-16519168D01*
X1909910Y-16519168D02*
X1900386Y-16509644D01*
X1900386Y-16509644D02*
X1900386Y-16528691D01*
X2024196Y-16709644D02*
X2005148Y-16700120D01*
X2005148Y-16700120D02*
X1995624Y-16681072D01*
X1995624Y-16681072D02*
X1995624Y-16509644D01*
X2128958Y-16709644D02*
X2109910Y-16700120D01*
X2109910Y-16700120D02*
X2100386Y-16681072D01*
X2100386Y-16681072D02*
X2100386Y-16509644D01*
X2357529Y-16709644D02*
X2357529Y-16509644D01*
X2357529Y-16509644D02*
X2424196Y-16652501D01*
X2424196Y-16652501D02*
X2490863Y-16509644D01*
X2490863Y-16509644D02*
X2490863Y-16709644D01*
X2671815Y-16709644D02*
X2671815Y-16604882D01*
X2671815Y-16604882D02*
X2662291Y-16585834D01*
X2662291Y-16585834D02*
X2643244Y-16576310D01*
X2643244Y-16576310D02*
X2605148Y-16576310D01*
X2605148Y-16576310D02*
X2586101Y-16585834D01*
X2671815Y-16700120D02*
X2652767Y-16709644D01*
X2652767Y-16709644D02*
X2605148Y-16709644D01*
X2605148Y-16709644D02*
X2586101Y-16700120D01*
X2586101Y-16700120D02*
X2576577Y-16681072D01*
X2576577Y-16681072D02*
X2576577Y-16662025D01*
X2576577Y-16662025D02*
X2586101Y-16642977D01*
X2586101Y-16642977D02*
X2605148Y-16633453D01*
X2605148Y-16633453D02*
X2652767Y-16633453D01*
X2652767Y-16633453D02*
X2671815Y-16623929D01*
X2767053Y-16576310D02*
X2767053Y-16776310D01*
X2767053Y-16585834D02*
X2786101Y-16576310D01*
X2786101Y-16576310D02*
X2824196Y-16576310D01*
X2824196Y-16576310D02*
X2843243Y-16585834D01*
X2843243Y-16585834D02*
X2852767Y-16595358D01*
X2852767Y-16595358D02*
X2862291Y-16614406D01*
X2862291Y-16614406D02*
X2862291Y-16671548D01*
X2862291Y-16671548D02*
X2852767Y-16690596D01*
X2852767Y-16690596D02*
X2843243Y-16700120D01*
X2843243Y-16700120D02*
X2824196Y-16709644D01*
X2824196Y-16709644D02*
X2786101Y-16709644D01*
X2786101Y-16709644D02*
X2767053Y-16700120D01*
X2948005Y-16690596D02*
X2957529Y-16700120D01*
X2957529Y-16700120D02*
X2948005Y-16709644D01*
X2948005Y-16709644D02*
X2938482Y-16700120D01*
X2938482Y-16700120D02*
X2948005Y-16690596D01*
X2948005Y-16690596D02*
X2948005Y-16709644D01*
X2948005Y-16585834D02*
X2957529Y-16595358D01*
X2957529Y-16595358D02*
X2948005Y-16604882D01*
X2948005Y-16604882D02*
X2938482Y-16595358D01*
X2938482Y-16595358D02*
X2948005Y-16585834D01*
X2948005Y-16585834D02*
X2948005Y-16604882D01*
X1115800Y-16938160D02*
X1315800Y-17138160D01*
X1315800Y-16938160D02*
X1115800Y-17138160D01*
X1557529Y-16929644D02*
X1681339Y-16929644D01*
X1681339Y-16929644D02*
X1614672Y-17005834D01*
X1614672Y-17005834D02*
X1643243Y-17005834D01*
X1643243Y-17005834D02*
X1662291Y-17015358D01*
X1662291Y-17015358D02*
X1671815Y-17024882D01*
X1671815Y-17024882D02*
X1681339Y-17043930D01*
X1681339Y-17043930D02*
X1681339Y-17091549D01*
X1681339Y-17091549D02*
X1671815Y-17110596D01*
X1671815Y-17110596D02*
X1662291Y-17120120D01*
X1662291Y-17120120D02*
X1643243Y-17129644D01*
X1643243Y-17129644D02*
X1586101Y-17129644D01*
X1586101Y-17129644D02*
X1567053Y-17120120D01*
X1567053Y-17120120D02*
X1557529Y-17110596D01*
X1767053Y-17110596D02*
X1776577Y-17120120D01*
X1776577Y-17120120D02*
X1767053Y-17129644D01*
X1767053Y-17129644D02*
X1757529Y-17120120D01*
X1757529Y-17120120D02*
X1767053Y-17110596D01*
X1767053Y-17110596D02*
X1767053Y-17129644D01*
X1852767Y-16948691D02*
X1862291Y-16939168D01*
X1862291Y-16939168D02*
X1881339Y-16929644D01*
X1881339Y-16929644D02*
X1928958Y-16929644D01*
X1928958Y-16929644D02*
X1948005Y-16939168D01*
X1948005Y-16939168D02*
X1957529Y-16948691D01*
X1957529Y-16948691D02*
X1967053Y-16967739D01*
X1967053Y-16967739D02*
X1967053Y-16986787D01*
X1967053Y-16986787D02*
X1957529Y-17015358D01*
X1957529Y-17015358D02*
X1843243Y-17129644D01*
X1843243Y-17129644D02*
X1967053Y-17129644D01*
X2090862Y-16929644D02*
X2109910Y-16929644D01*
X2109910Y-16929644D02*
X2128958Y-16939168D01*
X2128958Y-16939168D02*
X2138482Y-16948691D01*
X2138482Y-16948691D02*
X2148005Y-16967739D01*
X2148005Y-16967739D02*
X2157529Y-17005834D01*
X2157529Y-17005834D02*
X2157529Y-17053453D01*
X2157529Y-17053453D02*
X2148005Y-17091549D01*
X2148005Y-17091549D02*
X2138482Y-17110596D01*
X2138482Y-17110596D02*
X2128958Y-17120120D01*
X2128958Y-17120120D02*
X2109910Y-17129644D01*
X2109910Y-17129644D02*
X2090862Y-17129644D01*
X2090862Y-17129644D02*
X2071815Y-17120120D01*
X2071815Y-17120120D02*
X2062291Y-17110596D01*
X2062291Y-17110596D02*
X2052767Y-17091549D01*
X2052767Y-17091549D02*
X2043243Y-17053453D01*
X2043243Y-17053453D02*
X2043243Y-17005834D01*
X2043243Y-17005834D02*
X2052767Y-16967739D01*
X2052767Y-16967739D02*
X2062291Y-16948691D01*
X2062291Y-16948691D02*
X2071815Y-16939168D01*
X2071815Y-16939168D02*
X2090862Y-16929644D01*
X2281339Y-16929644D02*
X2300386Y-16929644D01*
X2300386Y-16929644D02*
X2319434Y-16939168D01*
X2319434Y-16939168D02*
X2328958Y-16948691D01*
X2328958Y-16948691D02*
X2338482Y-16967739D01*
X2338482Y-16967739D02*
X2348005Y-17005834D01*
X2348005Y-17005834D02*
X2348005Y-17053453D01*
X2348005Y-17053453D02*
X2338482Y-17091549D01*
X2338482Y-17091549D02*
X2328958Y-17110596D01*
X2328958Y-17110596D02*
X2319434Y-17120120D01*
X2319434Y-17120120D02*
X2300386Y-17129644D01*
X2300386Y-17129644D02*
X2281339Y-17129644D01*
X2281339Y-17129644D02*
X2262291Y-17120120D01*
X2262291Y-17120120D02*
X2252767Y-17110596D01*
X2252767Y-17110596D02*
X2243244Y-17091549D01*
X2243244Y-17091549D02*
X2233720Y-17053453D01*
X2233720Y-17053453D02*
X2233720Y-17005834D01*
X2233720Y-17005834D02*
X2243244Y-16967739D01*
X2243244Y-16967739D02*
X2252767Y-16948691D01*
X2252767Y-16948691D02*
X2262291Y-16939168D01*
X2262291Y-16939168D02*
X2281339Y-16929644D01*
X2433720Y-17129644D02*
X2433720Y-16996310D01*
X2433720Y-17015358D02*
X2443244Y-17005834D01*
X2443244Y-17005834D02*
X2462291Y-16996310D01*
X2462291Y-16996310D02*
X2490863Y-16996310D01*
X2490863Y-16996310D02*
X2509910Y-17005834D01*
X2509910Y-17005834D02*
X2519434Y-17024882D01*
X2519434Y-17024882D02*
X2519434Y-17129644D01*
X2519434Y-17024882D02*
X2528958Y-17005834D01*
X2528958Y-17005834D02*
X2548005Y-16996310D01*
X2548005Y-16996310D02*
X2576577Y-16996310D01*
X2576577Y-16996310D02*
X2595625Y-17005834D01*
X2595625Y-17005834D02*
X2605148Y-17024882D01*
X2605148Y-17024882D02*
X2605148Y-17129644D01*
X2700386Y-17129644D02*
X2700386Y-16996310D01*
X2700386Y-17015358D02*
X2709910Y-17005834D01*
X2709910Y-17005834D02*
X2728958Y-16996310D01*
X2728958Y-16996310D02*
X2757529Y-16996310D01*
X2757529Y-16996310D02*
X2776577Y-17005834D01*
X2776577Y-17005834D02*
X2786101Y-17024882D01*
X2786101Y-17024882D02*
X2786101Y-17129644D01*
X2786101Y-17024882D02*
X2795625Y-17005834D01*
X2795625Y-17005834D02*
X2814672Y-16996310D01*
X2814672Y-16996310D02*
X2843243Y-16996310D01*
X2843243Y-16996310D02*
X2862291Y-17005834D01*
X2862291Y-17005834D02*
X2871815Y-17024882D01*
X2871815Y-17024882D02*
X2871815Y-17129644D01*
X3262291Y-16920120D02*
X3090863Y-17177263D01*
X3519434Y-16929644D02*
X3538482Y-16929644D01*
X3538482Y-16929644D02*
X3557529Y-16939168D01*
X3557529Y-16939168D02*
X3567053Y-16948691D01*
X3567053Y-16948691D02*
X3576577Y-16967739D01*
X3576577Y-16967739D02*
X3586101Y-17005834D01*
X3586101Y-17005834D02*
X3586101Y-17053453D01*
X3586101Y-17053453D02*
X3576577Y-17091549D01*
X3576577Y-17091549D02*
X3567053Y-17110596D01*
X3567053Y-17110596D02*
X3557529Y-17120120D01*
X3557529Y-17120120D02*
X3538482Y-17129644D01*
X3538482Y-17129644D02*
X3519434Y-17129644D01*
X3519434Y-17129644D02*
X3500386Y-17120120D01*
X3500386Y-17120120D02*
X3490863Y-17110596D01*
X3490863Y-17110596D02*
X3481339Y-17091549D01*
X3481339Y-17091549D02*
X3471815Y-17053453D01*
X3471815Y-17053453D02*
X3471815Y-17005834D01*
X3471815Y-17005834D02*
X3481339Y-16967739D01*
X3481339Y-16967739D02*
X3490863Y-16948691D01*
X3490863Y-16948691D02*
X3500386Y-16939168D01*
X3500386Y-16939168D02*
X3519434Y-16929644D01*
X3671815Y-17110596D02*
X3681339Y-17120120D01*
X3681339Y-17120120D02*
X3671815Y-17129644D01*
X3671815Y-17129644D02*
X3662291Y-17120120D01*
X3662291Y-17120120D02*
X3671815Y-17110596D01*
X3671815Y-17110596D02*
X3671815Y-17129644D01*
X3871815Y-17129644D02*
X3757529Y-17129644D01*
X3814672Y-17129644D02*
X3814672Y-16929644D01*
X3814672Y-16929644D02*
X3795625Y-16958215D01*
X3795625Y-16958215D02*
X3776577Y-16977263D01*
X3776577Y-16977263D02*
X3757529Y-16986787D01*
X3948006Y-16948691D02*
X3957529Y-16939168D01*
X3957529Y-16939168D02*
X3976577Y-16929644D01*
X3976577Y-16929644D02*
X4024196Y-16929644D01*
X4024196Y-16929644D02*
X4043244Y-16939168D01*
X4043244Y-16939168D02*
X4052767Y-16948691D01*
X4052767Y-16948691D02*
X4062291Y-16967739D01*
X4062291Y-16967739D02*
X4062291Y-16986787D01*
X4062291Y-16986787D02*
X4052767Y-17015358D01*
X4052767Y-17015358D02*
X3938482Y-17129644D01*
X3938482Y-17129644D02*
X4062291Y-17129644D01*
X4233720Y-16929644D02*
X4195625Y-16929644D01*
X4195625Y-16929644D02*
X4176577Y-16939168D01*
X4176577Y-16939168D02*
X4167053Y-16948691D01*
X4167053Y-16948691D02*
X4148006Y-16977263D01*
X4148006Y-16977263D02*
X4138482Y-17015358D01*
X4138482Y-17015358D02*
X4138482Y-17091549D01*
X4138482Y-17091549D02*
X4148006Y-17110596D01*
X4148006Y-17110596D02*
X4157529Y-17120120D01*
X4157529Y-17120120D02*
X4176577Y-17129644D01*
X4176577Y-17129644D02*
X4214672Y-17129644D01*
X4214672Y-17129644D02*
X4233720Y-17120120D01*
X4233720Y-17120120D02*
X4243244Y-17110596D01*
X4243244Y-17110596D02*
X4252768Y-17091549D01*
X4252768Y-17091549D02*
X4252768Y-17043930D01*
X4252768Y-17043930D02*
X4243244Y-17024882D01*
X4243244Y-17024882D02*
X4233720Y-17015358D01*
X4233720Y-17015358D02*
X4214672Y-17005834D01*
X4214672Y-17005834D02*
X4176577Y-17005834D01*
X4176577Y-17005834D02*
X4157529Y-17015358D01*
X4157529Y-17015358D02*
X4148006Y-17024882D01*
X4148006Y-17024882D02*
X4138482Y-17043930D01*
X4376577Y-16929644D02*
X4395625Y-16929644D01*
X4395625Y-16929644D02*
X4414672Y-16939168D01*
X4414672Y-16939168D02*
X4424196Y-16948691D01*
X4424196Y-16948691D02*
X4433720Y-16967739D01*
X4433720Y-16967739D02*
X4443244Y-17005834D01*
X4443244Y-17005834D02*
X4443244Y-17053453D01*
X4443244Y-17053453D02*
X4433720Y-17091549D01*
X4433720Y-17091549D02*
X4424196Y-17110596D01*
X4424196Y-17110596D02*
X4414672Y-17120120D01*
X4414672Y-17120120D02*
X4395625Y-17129644D01*
X4395625Y-17129644D02*
X4376577Y-17129644D01*
X4376577Y-17129644D02*
X4357529Y-17120120D01*
X4357529Y-17120120D02*
X4348006Y-17110596D01*
X4348006Y-17110596D02*
X4338482Y-17091549D01*
X4338482Y-17091549D02*
X4328958Y-17053453D01*
X4328958Y-17053453D02*
X4328958Y-17005834D01*
X4328958Y-17005834D02*
X4338482Y-16967739D01*
X4338482Y-16967739D02*
X4348006Y-16948691D01*
X4348006Y-16948691D02*
X4357529Y-16939168D01*
X4357529Y-16939168D02*
X4376577Y-16929644D01*
X4519434Y-16929644D02*
X4519434Y-16967739D01*
X4595625Y-16929644D02*
X4595625Y-16967739D01*
X4890863Y-17205834D02*
X4881339Y-17196310D01*
X4881339Y-17196310D02*
X4862291Y-17167739D01*
X4862291Y-17167739D02*
X4852768Y-17148691D01*
X4852768Y-17148691D02*
X4843244Y-17120120D01*
X4843244Y-17120120D02*
X4833720Y-17072501D01*
X4833720Y-17072501D02*
X4833720Y-17034406D01*
X4833720Y-17034406D02*
X4843244Y-16986787D01*
X4843244Y-16986787D02*
X4852768Y-16958215D01*
X4852768Y-16958215D02*
X4862291Y-16939168D01*
X4862291Y-16939168D02*
X4881339Y-16910596D01*
X4881339Y-16910596D02*
X4890863Y-16901072D01*
X5052768Y-16996310D02*
X5052768Y-17129644D01*
X5005149Y-16920120D02*
X4957530Y-17062977D01*
X4957530Y-17062977D02*
X5081339Y-17062977D01*
X5309911Y-17129644D02*
X5309911Y-16929644D01*
X5395625Y-17129644D02*
X5395625Y-17024882D01*
X5395625Y-17024882D02*
X5386101Y-17005834D01*
X5386101Y-17005834D02*
X5367053Y-16996310D01*
X5367053Y-16996310D02*
X5338482Y-16996310D01*
X5338482Y-16996310D02*
X5319434Y-17005834D01*
X5319434Y-17005834D02*
X5309911Y-17015358D01*
X5519434Y-17129644D02*
X5500387Y-17120120D01*
X5500387Y-17120120D02*
X5490863Y-17110596D01*
X5490863Y-17110596D02*
X5481339Y-17091549D01*
X5481339Y-17091549D02*
X5481339Y-17034406D01*
X5481339Y-17034406D02*
X5490863Y-17015358D01*
X5490863Y-17015358D02*
X5500387Y-17005834D01*
X5500387Y-17005834D02*
X5519434Y-16996310D01*
X5519434Y-16996310D02*
X5548006Y-16996310D01*
X5548006Y-16996310D02*
X5567053Y-17005834D01*
X5567053Y-17005834D02*
X5576577Y-17015358D01*
X5576577Y-17015358D02*
X5586101Y-17034406D01*
X5586101Y-17034406D02*
X5586101Y-17091549D01*
X5586101Y-17091549D02*
X5576577Y-17110596D01*
X5576577Y-17110596D02*
X5567053Y-17120120D01*
X5567053Y-17120120D02*
X5548006Y-17129644D01*
X5548006Y-17129644D02*
X5519434Y-17129644D01*
X5700387Y-17129644D02*
X5681339Y-17120120D01*
X5681339Y-17120120D02*
X5671815Y-17101072D01*
X5671815Y-17101072D02*
X5671815Y-16929644D01*
X5852768Y-17120120D02*
X5833720Y-17129644D01*
X5833720Y-17129644D02*
X5795625Y-17129644D01*
X5795625Y-17129644D02*
X5776577Y-17120120D01*
X5776577Y-17120120D02*
X5767053Y-17101072D01*
X5767053Y-17101072D02*
X5767053Y-17024882D01*
X5767053Y-17024882D02*
X5776577Y-17005834D01*
X5776577Y-17005834D02*
X5795625Y-16996310D01*
X5795625Y-16996310D02*
X5833720Y-16996310D01*
X5833720Y-16996310D02*
X5852768Y-17005834D01*
X5852768Y-17005834D02*
X5862291Y-17024882D01*
X5862291Y-17024882D02*
X5862291Y-17043930D01*
X5862291Y-17043930D02*
X5767053Y-17062977D01*
X5938482Y-17120120D02*
X5957530Y-17129644D01*
X5957530Y-17129644D02*
X5995625Y-17129644D01*
X5995625Y-17129644D02*
X6014672Y-17120120D01*
X6014672Y-17120120D02*
X6024196Y-17101072D01*
X6024196Y-17101072D02*
X6024196Y-17091549D01*
X6024196Y-17091549D02*
X6014672Y-17072501D01*
X6014672Y-17072501D02*
X5995625Y-17062977D01*
X5995625Y-17062977D02*
X5967053Y-17062977D01*
X5967053Y-17062977D02*
X5948006Y-17053453D01*
X5948006Y-17053453D02*
X5938482Y-17034406D01*
X5938482Y-17034406D02*
X5938482Y-17024882D01*
X5938482Y-17024882D02*
X5948006Y-17005834D01*
X5948006Y-17005834D02*
X5967053Y-16996310D01*
X5967053Y-16996310D02*
X5995625Y-16996310D01*
X5995625Y-16996310D02*
X6014672Y-17005834D01*
X6090863Y-17205834D02*
X6100387Y-17196310D01*
X6100387Y-17196310D02*
X6119434Y-17167739D01*
X6119434Y-17167739D02*
X6128958Y-17148691D01*
X6128958Y-17148691D02*
X6138482Y-17120120D01*
X6138482Y-17120120D02*
X6148006Y-17072501D01*
X6148006Y-17072501D02*
X6148006Y-17034406D01*
X6148006Y-17034406D02*
X6138482Y-16986787D01*
X6138482Y-16986787D02*
X6128958Y-16958215D01*
X6128958Y-16958215D02*
X6119434Y-16939168D01*
X6119434Y-16939168D02*
X6100387Y-16910596D01*
X6100387Y-16910596D02*
X6090863Y-16901072D01*
X6452768Y-17205834D02*
X6443244Y-17196310D01*
X6443244Y-17196310D02*
X6424196Y-17167739D01*
X6424196Y-17167739D02*
X6414672Y-17148691D01*
X6414672Y-17148691D02*
X6405149Y-17120120D01*
X6405149Y-17120120D02*
X6395625Y-17072501D01*
X6395625Y-17072501D02*
X6395625Y-17034406D01*
X6395625Y-17034406D02*
X6405149Y-16986787D01*
X6405149Y-16986787D02*
X6414672Y-16958215D01*
X6414672Y-16958215D02*
X6424196Y-16939168D01*
X6424196Y-16939168D02*
X6443244Y-16910596D01*
X6443244Y-16910596D02*
X6452768Y-16901072D01*
X6528958Y-16996310D02*
X6528958Y-17129644D01*
X6528958Y-17015358D02*
X6538482Y-17005834D01*
X6538482Y-17005834D02*
X6557530Y-16996310D01*
X6557530Y-16996310D02*
X6586101Y-16996310D01*
X6586101Y-16996310D02*
X6605149Y-17005834D01*
X6605149Y-17005834D02*
X6614672Y-17024882D01*
X6614672Y-17024882D02*
X6614672Y-17129644D01*
X6738482Y-17129644D02*
X6719434Y-17120120D01*
X6719434Y-17120120D02*
X6709911Y-17110596D01*
X6709911Y-17110596D02*
X6700387Y-17091549D01*
X6700387Y-17091549D02*
X6700387Y-17034406D01*
X6700387Y-17034406D02*
X6709911Y-17015358D01*
X6709911Y-17015358D02*
X6719434Y-17005834D01*
X6719434Y-17005834D02*
X6738482Y-16996310D01*
X6738482Y-16996310D02*
X6767053Y-16996310D01*
X6767053Y-16996310D02*
X6786101Y-17005834D01*
X6786101Y-17005834D02*
X6795625Y-17015358D01*
X6795625Y-17015358D02*
X6805149Y-17034406D01*
X6805149Y-17034406D02*
X6805149Y-17091549D01*
X6805149Y-17091549D02*
X6795625Y-17110596D01*
X6795625Y-17110596D02*
X6786101Y-17120120D01*
X6786101Y-17120120D02*
X6767053Y-17129644D01*
X6767053Y-17129644D02*
X6738482Y-17129644D01*
X6862292Y-16996310D02*
X6938482Y-16996310D01*
X6890863Y-16929644D02*
X6890863Y-17101072D01*
X6890863Y-17101072D02*
X6900387Y-17120120D01*
X6900387Y-17120120D02*
X6919434Y-17129644D01*
X6919434Y-17129644D02*
X6938482Y-17129644D01*
X7157530Y-16996310D02*
X7157530Y-17196310D01*
X7157530Y-17005834D02*
X7176577Y-16996310D01*
X7176577Y-16996310D02*
X7214673Y-16996310D01*
X7214673Y-16996310D02*
X7233720Y-17005834D01*
X7233720Y-17005834D02*
X7243244Y-17015358D01*
X7243244Y-17015358D02*
X7252768Y-17034406D01*
X7252768Y-17034406D02*
X7252768Y-17091549D01*
X7252768Y-17091549D02*
X7243244Y-17110596D01*
X7243244Y-17110596D02*
X7233720Y-17120120D01*
X7233720Y-17120120D02*
X7214673Y-17129644D01*
X7214673Y-17129644D02*
X7176577Y-17129644D01*
X7176577Y-17129644D02*
X7157530Y-17120120D01*
X7367053Y-17129644D02*
X7348006Y-17120120D01*
X7348006Y-17120120D02*
X7338482Y-17101072D01*
X7338482Y-17101072D02*
X7338482Y-16929644D01*
X7528958Y-17129644D02*
X7528958Y-17024882D01*
X7528958Y-17024882D02*
X7519434Y-17005834D01*
X7519434Y-17005834D02*
X7500387Y-16996310D01*
X7500387Y-16996310D02*
X7462292Y-16996310D01*
X7462292Y-16996310D02*
X7443244Y-17005834D01*
X7528958Y-17120120D02*
X7509911Y-17129644D01*
X7509911Y-17129644D02*
X7462292Y-17129644D01*
X7462292Y-17129644D02*
X7443244Y-17120120D01*
X7443244Y-17120120D02*
X7433720Y-17101072D01*
X7433720Y-17101072D02*
X7433720Y-17082025D01*
X7433720Y-17082025D02*
X7443244Y-17062977D01*
X7443244Y-17062977D02*
X7462292Y-17053453D01*
X7462292Y-17053453D02*
X7509911Y-17053453D01*
X7509911Y-17053453D02*
X7528958Y-17043930D01*
X7595625Y-16996310D02*
X7671815Y-16996310D01*
X7624196Y-16929644D02*
X7624196Y-17101072D01*
X7624196Y-17101072D02*
X7633720Y-17120120D01*
X7633720Y-17120120D02*
X7652768Y-17129644D01*
X7652768Y-17129644D02*
X7671815Y-17129644D01*
X7814673Y-17120120D02*
X7795625Y-17129644D01*
X7795625Y-17129644D02*
X7757530Y-17129644D01*
X7757530Y-17129644D02*
X7738482Y-17120120D01*
X7738482Y-17120120D02*
X7728958Y-17101072D01*
X7728958Y-17101072D02*
X7728958Y-17024882D01*
X7728958Y-17024882D02*
X7738482Y-17005834D01*
X7738482Y-17005834D02*
X7757530Y-16996310D01*
X7757530Y-16996310D02*
X7795625Y-16996310D01*
X7795625Y-16996310D02*
X7814673Y-17005834D01*
X7814673Y-17005834D02*
X7824196Y-17024882D01*
X7824196Y-17024882D02*
X7824196Y-17043930D01*
X7824196Y-17043930D02*
X7728958Y-17062977D01*
X7995625Y-17129644D02*
X7995625Y-16929644D01*
X7995625Y-17120120D02*
X7976577Y-17129644D01*
X7976577Y-17129644D02*
X7938482Y-17129644D01*
X7938482Y-17129644D02*
X7919434Y-17120120D01*
X7919434Y-17120120D02*
X7909911Y-17110596D01*
X7909911Y-17110596D02*
X7900387Y-17091549D01*
X7900387Y-17091549D02*
X7900387Y-17034406D01*
X7900387Y-17034406D02*
X7909911Y-17015358D01*
X7909911Y-17015358D02*
X7919434Y-17005834D01*
X7919434Y-17005834D02*
X7938482Y-16996310D01*
X7938482Y-16996310D02*
X7976577Y-16996310D01*
X7976577Y-16996310D02*
X7995625Y-17005834D01*
X8071815Y-17205834D02*
X8081339Y-17196310D01*
X8081339Y-17196310D02*
X8100387Y-17167739D01*
X8100387Y-17167739D02*
X8109911Y-17148691D01*
X8109911Y-17148691D02*
X8119434Y-17120120D01*
X8119434Y-17120120D02*
X8128958Y-17072501D01*
X8128958Y-17072501D02*
X8128958Y-17034406D01*
X8128958Y-17034406D02*
X8119434Y-16986787D01*
X8119434Y-16986787D02*
X8109911Y-16958215D01*
X8109911Y-16958215D02*
X8100387Y-16939168D01*
X8100387Y-16939168D02*
X8081339Y-16910596D01*
X8081339Y-16910596D02*
X8071815Y-16901072D01*
X1315800Y-17358160D02*
G75*
G03*
X1315800Y-17358160I-100000J0D01*
G01*
X1662291Y-17249644D02*
X1624196Y-17249644D01*
X1624196Y-17249644D02*
X1605148Y-17259168D01*
X1605148Y-17259168D02*
X1595624Y-17268691D01*
X1595624Y-17268691D02*
X1576577Y-17297263D01*
X1576577Y-17297263D02*
X1567053Y-17335358D01*
X1567053Y-17335358D02*
X1567053Y-17411549D01*
X1567053Y-17411549D02*
X1576577Y-17430596D01*
X1576577Y-17430596D02*
X1586101Y-17440120D01*
X1586101Y-17440120D02*
X1605148Y-17449644D01*
X1605148Y-17449644D02*
X1643243Y-17449644D01*
X1643243Y-17449644D02*
X1662291Y-17440120D01*
X1662291Y-17440120D02*
X1671815Y-17430596D01*
X1671815Y-17430596D02*
X1681339Y-17411549D01*
X1681339Y-17411549D02*
X1681339Y-17363930D01*
X1681339Y-17363930D02*
X1671815Y-17344882D01*
X1671815Y-17344882D02*
X1662291Y-17335358D01*
X1662291Y-17335358D02*
X1643243Y-17325834D01*
X1643243Y-17325834D02*
X1605148Y-17325834D01*
X1605148Y-17325834D02*
X1586101Y-17335358D01*
X1586101Y-17335358D02*
X1576577Y-17344882D01*
X1576577Y-17344882D02*
X1567053Y-17363930D01*
X1767053Y-17430596D02*
X1776577Y-17440120D01*
X1776577Y-17440120D02*
X1767053Y-17449644D01*
X1767053Y-17449644D02*
X1757529Y-17440120D01*
X1757529Y-17440120D02*
X1767053Y-17430596D01*
X1767053Y-17430596D02*
X1767053Y-17449644D01*
X1957529Y-17249644D02*
X1862291Y-17249644D01*
X1862291Y-17249644D02*
X1852767Y-17344882D01*
X1852767Y-17344882D02*
X1862291Y-17335358D01*
X1862291Y-17335358D02*
X1881339Y-17325834D01*
X1881339Y-17325834D02*
X1928958Y-17325834D01*
X1928958Y-17325834D02*
X1948005Y-17335358D01*
X1948005Y-17335358D02*
X1957529Y-17344882D01*
X1957529Y-17344882D02*
X1967053Y-17363930D01*
X1967053Y-17363930D02*
X1967053Y-17411549D01*
X1967053Y-17411549D02*
X1957529Y-17430596D01*
X1957529Y-17430596D02*
X1948005Y-17440120D01*
X1948005Y-17440120D02*
X1928958Y-17449644D01*
X1928958Y-17449644D02*
X1881339Y-17449644D01*
X1881339Y-17449644D02*
X1862291Y-17440120D01*
X1862291Y-17440120D02*
X1852767Y-17430596D01*
X2090862Y-17249644D02*
X2109910Y-17249644D01*
X2109910Y-17249644D02*
X2128958Y-17259168D01*
X2128958Y-17259168D02*
X2138482Y-17268691D01*
X2138482Y-17268691D02*
X2148005Y-17287739D01*
X2148005Y-17287739D02*
X2157529Y-17325834D01*
X2157529Y-17325834D02*
X2157529Y-17373453D01*
X2157529Y-17373453D02*
X2148005Y-17411549D01*
X2148005Y-17411549D02*
X2138482Y-17430596D01*
X2138482Y-17430596D02*
X2128958Y-17440120D01*
X2128958Y-17440120D02*
X2109910Y-17449644D01*
X2109910Y-17449644D02*
X2090862Y-17449644D01*
X2090862Y-17449644D02*
X2071815Y-17440120D01*
X2071815Y-17440120D02*
X2062291Y-17430596D01*
X2062291Y-17430596D02*
X2052767Y-17411549D01*
X2052767Y-17411549D02*
X2043243Y-17373453D01*
X2043243Y-17373453D02*
X2043243Y-17325834D01*
X2043243Y-17325834D02*
X2052767Y-17287739D01*
X2052767Y-17287739D02*
X2062291Y-17268691D01*
X2062291Y-17268691D02*
X2071815Y-17259168D01*
X2071815Y-17259168D02*
X2090862Y-17249644D01*
X2281339Y-17249644D02*
X2300386Y-17249644D01*
X2300386Y-17249644D02*
X2319434Y-17259168D01*
X2319434Y-17259168D02*
X2328958Y-17268691D01*
X2328958Y-17268691D02*
X2338482Y-17287739D01*
X2338482Y-17287739D02*
X2348005Y-17325834D01*
X2348005Y-17325834D02*
X2348005Y-17373453D01*
X2348005Y-17373453D02*
X2338482Y-17411549D01*
X2338482Y-17411549D02*
X2328958Y-17430596D01*
X2328958Y-17430596D02*
X2319434Y-17440120D01*
X2319434Y-17440120D02*
X2300386Y-17449644D01*
X2300386Y-17449644D02*
X2281339Y-17449644D01*
X2281339Y-17449644D02*
X2262291Y-17440120D01*
X2262291Y-17440120D02*
X2252767Y-17430596D01*
X2252767Y-17430596D02*
X2243244Y-17411549D01*
X2243244Y-17411549D02*
X2233720Y-17373453D01*
X2233720Y-17373453D02*
X2233720Y-17325834D01*
X2233720Y-17325834D02*
X2243244Y-17287739D01*
X2243244Y-17287739D02*
X2252767Y-17268691D01*
X2252767Y-17268691D02*
X2262291Y-17259168D01*
X2262291Y-17259168D02*
X2281339Y-17249644D01*
X2433720Y-17449644D02*
X2433720Y-17316310D01*
X2433720Y-17335358D02*
X2443244Y-17325834D01*
X2443244Y-17325834D02*
X2462291Y-17316310D01*
X2462291Y-17316310D02*
X2490863Y-17316310D01*
X2490863Y-17316310D02*
X2509910Y-17325834D01*
X2509910Y-17325834D02*
X2519434Y-17344882D01*
X2519434Y-17344882D02*
X2519434Y-17449644D01*
X2519434Y-17344882D02*
X2528958Y-17325834D01*
X2528958Y-17325834D02*
X2548005Y-17316310D01*
X2548005Y-17316310D02*
X2576577Y-17316310D01*
X2576577Y-17316310D02*
X2595625Y-17325834D01*
X2595625Y-17325834D02*
X2605148Y-17344882D01*
X2605148Y-17344882D02*
X2605148Y-17449644D01*
X2700386Y-17449644D02*
X2700386Y-17316310D01*
X2700386Y-17335358D02*
X2709910Y-17325834D01*
X2709910Y-17325834D02*
X2728958Y-17316310D01*
X2728958Y-17316310D02*
X2757529Y-17316310D01*
X2757529Y-17316310D02*
X2776577Y-17325834D01*
X2776577Y-17325834D02*
X2786101Y-17344882D01*
X2786101Y-17344882D02*
X2786101Y-17449644D01*
X2786101Y-17344882D02*
X2795625Y-17325834D01*
X2795625Y-17325834D02*
X2814672Y-17316310D01*
X2814672Y-17316310D02*
X2843243Y-17316310D01*
X2843243Y-17316310D02*
X2862291Y-17325834D01*
X2862291Y-17325834D02*
X2871815Y-17344882D01*
X2871815Y-17344882D02*
X2871815Y-17449644D01*
X3262291Y-17240120D02*
X3090863Y-17497263D01*
X3519434Y-17249644D02*
X3538482Y-17249644D01*
X3538482Y-17249644D02*
X3557529Y-17259168D01*
X3557529Y-17259168D02*
X3567053Y-17268691D01*
X3567053Y-17268691D02*
X3576577Y-17287739D01*
X3576577Y-17287739D02*
X3586101Y-17325834D01*
X3586101Y-17325834D02*
X3586101Y-17373453D01*
X3586101Y-17373453D02*
X3576577Y-17411549D01*
X3576577Y-17411549D02*
X3567053Y-17430596D01*
X3567053Y-17430596D02*
X3557529Y-17440120D01*
X3557529Y-17440120D02*
X3538482Y-17449644D01*
X3538482Y-17449644D02*
X3519434Y-17449644D01*
X3519434Y-17449644D02*
X3500386Y-17440120D01*
X3500386Y-17440120D02*
X3490863Y-17430596D01*
X3490863Y-17430596D02*
X3481339Y-17411549D01*
X3481339Y-17411549D02*
X3471815Y-17373453D01*
X3471815Y-17373453D02*
X3471815Y-17325834D01*
X3471815Y-17325834D02*
X3481339Y-17287739D01*
X3481339Y-17287739D02*
X3490863Y-17268691D01*
X3490863Y-17268691D02*
X3500386Y-17259168D01*
X3500386Y-17259168D02*
X3519434Y-17249644D01*
X3671815Y-17430596D02*
X3681339Y-17440120D01*
X3681339Y-17440120D02*
X3671815Y-17449644D01*
X3671815Y-17449644D02*
X3662291Y-17440120D01*
X3662291Y-17440120D02*
X3671815Y-17430596D01*
X3671815Y-17430596D02*
X3671815Y-17449644D01*
X3757529Y-17268691D02*
X3767053Y-17259168D01*
X3767053Y-17259168D02*
X3786101Y-17249644D01*
X3786101Y-17249644D02*
X3833720Y-17249644D01*
X3833720Y-17249644D02*
X3852767Y-17259168D01*
X3852767Y-17259168D02*
X3862291Y-17268691D01*
X3862291Y-17268691D02*
X3871815Y-17287739D01*
X3871815Y-17287739D02*
X3871815Y-17306787D01*
X3871815Y-17306787D02*
X3862291Y-17335358D01*
X3862291Y-17335358D02*
X3748006Y-17449644D01*
X3748006Y-17449644D02*
X3871815Y-17449644D01*
X4052767Y-17249644D02*
X3957529Y-17249644D01*
X3957529Y-17249644D02*
X3948006Y-17344882D01*
X3948006Y-17344882D02*
X3957529Y-17335358D01*
X3957529Y-17335358D02*
X3976577Y-17325834D01*
X3976577Y-17325834D02*
X4024196Y-17325834D01*
X4024196Y-17325834D02*
X4043244Y-17335358D01*
X4043244Y-17335358D02*
X4052767Y-17344882D01*
X4052767Y-17344882D02*
X4062291Y-17363930D01*
X4062291Y-17363930D02*
X4062291Y-17411549D01*
X4062291Y-17411549D02*
X4052767Y-17430596D01*
X4052767Y-17430596D02*
X4043244Y-17440120D01*
X4043244Y-17440120D02*
X4024196Y-17449644D01*
X4024196Y-17449644D02*
X3976577Y-17449644D01*
X3976577Y-17449644D02*
X3957529Y-17440120D01*
X3957529Y-17440120D02*
X3948006Y-17430596D01*
X4243244Y-17249644D02*
X4148006Y-17249644D01*
X4148006Y-17249644D02*
X4138482Y-17344882D01*
X4138482Y-17344882D02*
X4148006Y-17335358D01*
X4148006Y-17335358D02*
X4167053Y-17325834D01*
X4167053Y-17325834D02*
X4214672Y-17325834D01*
X4214672Y-17325834D02*
X4233720Y-17335358D01*
X4233720Y-17335358D02*
X4243244Y-17344882D01*
X4243244Y-17344882D02*
X4252768Y-17363930D01*
X4252768Y-17363930D02*
X4252768Y-17411549D01*
X4252768Y-17411549D02*
X4243244Y-17430596D01*
X4243244Y-17430596D02*
X4233720Y-17440120D01*
X4233720Y-17440120D02*
X4214672Y-17449644D01*
X4214672Y-17449644D02*
X4167053Y-17449644D01*
X4167053Y-17449644D02*
X4148006Y-17440120D01*
X4148006Y-17440120D02*
X4138482Y-17430596D01*
X4348006Y-17449644D02*
X4386101Y-17449644D01*
X4386101Y-17449644D02*
X4405149Y-17440120D01*
X4405149Y-17440120D02*
X4414672Y-17430596D01*
X4414672Y-17430596D02*
X4433720Y-17402025D01*
X4433720Y-17402025D02*
X4443244Y-17363930D01*
X4443244Y-17363930D02*
X4443244Y-17287739D01*
X4443244Y-17287739D02*
X4433720Y-17268691D01*
X4433720Y-17268691D02*
X4424196Y-17259168D01*
X4424196Y-17259168D02*
X4405149Y-17249644D01*
X4405149Y-17249644D02*
X4367053Y-17249644D01*
X4367053Y-17249644D02*
X4348006Y-17259168D01*
X4348006Y-17259168D02*
X4338482Y-17268691D01*
X4338482Y-17268691D02*
X4328958Y-17287739D01*
X4328958Y-17287739D02*
X4328958Y-17335358D01*
X4328958Y-17335358D02*
X4338482Y-17354406D01*
X4338482Y-17354406D02*
X4348006Y-17363930D01*
X4348006Y-17363930D02*
X4367053Y-17373453D01*
X4367053Y-17373453D02*
X4405149Y-17373453D01*
X4405149Y-17373453D02*
X4424196Y-17363930D01*
X4424196Y-17363930D02*
X4433720Y-17354406D01*
X4433720Y-17354406D02*
X4443244Y-17335358D01*
X4519434Y-17249644D02*
X4519434Y-17287739D01*
X4595625Y-17249644D02*
X4595625Y-17287739D01*
X4890863Y-17525834D02*
X4881339Y-17516310D01*
X4881339Y-17516310D02*
X4862291Y-17487739D01*
X4862291Y-17487739D02*
X4852768Y-17468691D01*
X4852768Y-17468691D02*
X4843244Y-17440120D01*
X4843244Y-17440120D02*
X4833720Y-17392501D01*
X4833720Y-17392501D02*
X4833720Y-17354406D01*
X4833720Y-17354406D02*
X4843244Y-17306787D01*
X4843244Y-17306787D02*
X4852768Y-17278215D01*
X4852768Y-17278215D02*
X4862291Y-17259168D01*
X4862291Y-17259168D02*
X4881339Y-17230596D01*
X4881339Y-17230596D02*
X4890863Y-17221072D01*
X5052768Y-17316310D02*
X5052768Y-17449644D01*
X5005149Y-17240120D02*
X4957530Y-17382977D01*
X4957530Y-17382977D02*
X5081339Y-17382977D01*
X5309911Y-17449644D02*
X5309911Y-17249644D01*
X5395625Y-17449644D02*
X5395625Y-17344882D01*
X5395625Y-17344882D02*
X5386101Y-17325834D01*
X5386101Y-17325834D02*
X5367053Y-17316310D01*
X5367053Y-17316310D02*
X5338482Y-17316310D01*
X5338482Y-17316310D02*
X5319434Y-17325834D01*
X5319434Y-17325834D02*
X5309911Y-17335358D01*
X5519434Y-17449644D02*
X5500387Y-17440120D01*
X5500387Y-17440120D02*
X5490863Y-17430596D01*
X5490863Y-17430596D02*
X5481339Y-17411549D01*
X5481339Y-17411549D02*
X5481339Y-17354406D01*
X5481339Y-17354406D02*
X5490863Y-17335358D01*
X5490863Y-17335358D02*
X5500387Y-17325834D01*
X5500387Y-17325834D02*
X5519434Y-17316310D01*
X5519434Y-17316310D02*
X5548006Y-17316310D01*
X5548006Y-17316310D02*
X5567053Y-17325834D01*
X5567053Y-17325834D02*
X5576577Y-17335358D01*
X5576577Y-17335358D02*
X5586101Y-17354406D01*
X5586101Y-17354406D02*
X5586101Y-17411549D01*
X5586101Y-17411549D02*
X5576577Y-17430596D01*
X5576577Y-17430596D02*
X5567053Y-17440120D01*
X5567053Y-17440120D02*
X5548006Y-17449644D01*
X5548006Y-17449644D02*
X5519434Y-17449644D01*
X5700387Y-17449644D02*
X5681339Y-17440120D01*
X5681339Y-17440120D02*
X5671815Y-17421072D01*
X5671815Y-17421072D02*
X5671815Y-17249644D01*
X5852768Y-17440120D02*
X5833720Y-17449644D01*
X5833720Y-17449644D02*
X5795625Y-17449644D01*
X5795625Y-17449644D02*
X5776577Y-17440120D01*
X5776577Y-17440120D02*
X5767053Y-17421072D01*
X5767053Y-17421072D02*
X5767053Y-17344882D01*
X5767053Y-17344882D02*
X5776577Y-17325834D01*
X5776577Y-17325834D02*
X5795625Y-17316310D01*
X5795625Y-17316310D02*
X5833720Y-17316310D01*
X5833720Y-17316310D02*
X5852768Y-17325834D01*
X5852768Y-17325834D02*
X5862291Y-17344882D01*
X5862291Y-17344882D02*
X5862291Y-17363930D01*
X5862291Y-17363930D02*
X5767053Y-17382977D01*
X5938482Y-17440120D02*
X5957530Y-17449644D01*
X5957530Y-17449644D02*
X5995625Y-17449644D01*
X5995625Y-17449644D02*
X6014672Y-17440120D01*
X6014672Y-17440120D02*
X6024196Y-17421072D01*
X6024196Y-17421072D02*
X6024196Y-17411549D01*
X6024196Y-17411549D02*
X6014672Y-17392501D01*
X6014672Y-17392501D02*
X5995625Y-17382977D01*
X5995625Y-17382977D02*
X5967053Y-17382977D01*
X5967053Y-17382977D02*
X5948006Y-17373453D01*
X5948006Y-17373453D02*
X5938482Y-17354406D01*
X5938482Y-17354406D02*
X5938482Y-17344882D01*
X5938482Y-17344882D02*
X5948006Y-17325834D01*
X5948006Y-17325834D02*
X5967053Y-17316310D01*
X5967053Y-17316310D02*
X5995625Y-17316310D01*
X5995625Y-17316310D02*
X6014672Y-17325834D01*
X6090863Y-17525834D02*
X6100387Y-17516310D01*
X6100387Y-17516310D02*
X6119434Y-17487739D01*
X6119434Y-17487739D02*
X6128958Y-17468691D01*
X6128958Y-17468691D02*
X6138482Y-17440120D01*
X6138482Y-17440120D02*
X6148006Y-17392501D01*
X6148006Y-17392501D02*
X6148006Y-17354406D01*
X6148006Y-17354406D02*
X6138482Y-17306787D01*
X6138482Y-17306787D02*
X6128958Y-17278215D01*
X6128958Y-17278215D02*
X6119434Y-17259168D01*
X6119434Y-17259168D02*
X6100387Y-17230596D01*
X6100387Y-17230596D02*
X6090863Y-17221072D01*
X6452768Y-17525834D02*
X6443244Y-17516310D01*
X6443244Y-17516310D02*
X6424196Y-17487739D01*
X6424196Y-17487739D02*
X6414672Y-17468691D01*
X6414672Y-17468691D02*
X6405149Y-17440120D01*
X6405149Y-17440120D02*
X6395625Y-17392501D01*
X6395625Y-17392501D02*
X6395625Y-17354406D01*
X6395625Y-17354406D02*
X6405149Y-17306787D01*
X6405149Y-17306787D02*
X6414672Y-17278215D01*
X6414672Y-17278215D02*
X6424196Y-17259168D01*
X6424196Y-17259168D02*
X6443244Y-17230596D01*
X6443244Y-17230596D02*
X6452768Y-17221072D01*
X6528958Y-17316310D02*
X6528958Y-17449644D01*
X6528958Y-17335358D02*
X6538482Y-17325834D01*
X6538482Y-17325834D02*
X6557530Y-17316310D01*
X6557530Y-17316310D02*
X6586101Y-17316310D01*
X6586101Y-17316310D02*
X6605149Y-17325834D01*
X6605149Y-17325834D02*
X6614672Y-17344882D01*
X6614672Y-17344882D02*
X6614672Y-17449644D01*
X6738482Y-17449644D02*
X6719434Y-17440120D01*
X6719434Y-17440120D02*
X6709911Y-17430596D01*
X6709911Y-17430596D02*
X6700387Y-17411549D01*
X6700387Y-17411549D02*
X6700387Y-17354406D01*
X6700387Y-17354406D02*
X6709911Y-17335358D01*
X6709911Y-17335358D02*
X6719434Y-17325834D01*
X6719434Y-17325834D02*
X6738482Y-17316310D01*
X6738482Y-17316310D02*
X6767053Y-17316310D01*
X6767053Y-17316310D02*
X6786101Y-17325834D01*
X6786101Y-17325834D02*
X6795625Y-17335358D01*
X6795625Y-17335358D02*
X6805149Y-17354406D01*
X6805149Y-17354406D02*
X6805149Y-17411549D01*
X6805149Y-17411549D02*
X6795625Y-17430596D01*
X6795625Y-17430596D02*
X6786101Y-17440120D01*
X6786101Y-17440120D02*
X6767053Y-17449644D01*
X6767053Y-17449644D02*
X6738482Y-17449644D01*
X6862292Y-17316310D02*
X6938482Y-17316310D01*
X6890863Y-17249644D02*
X6890863Y-17421072D01*
X6890863Y-17421072D02*
X6900387Y-17440120D01*
X6900387Y-17440120D02*
X6919434Y-17449644D01*
X6919434Y-17449644D02*
X6938482Y-17449644D01*
X7157530Y-17316310D02*
X7157530Y-17516310D01*
X7157530Y-17325834D02*
X7176577Y-17316310D01*
X7176577Y-17316310D02*
X7214673Y-17316310D01*
X7214673Y-17316310D02*
X7233720Y-17325834D01*
X7233720Y-17325834D02*
X7243244Y-17335358D01*
X7243244Y-17335358D02*
X7252768Y-17354406D01*
X7252768Y-17354406D02*
X7252768Y-17411549D01*
X7252768Y-17411549D02*
X7243244Y-17430596D01*
X7243244Y-17430596D02*
X7233720Y-17440120D01*
X7233720Y-17440120D02*
X7214673Y-17449644D01*
X7214673Y-17449644D02*
X7176577Y-17449644D01*
X7176577Y-17449644D02*
X7157530Y-17440120D01*
X7367053Y-17449644D02*
X7348006Y-17440120D01*
X7348006Y-17440120D02*
X7338482Y-17421072D01*
X7338482Y-17421072D02*
X7338482Y-17249644D01*
X7528958Y-17449644D02*
X7528958Y-17344882D01*
X7528958Y-17344882D02*
X7519434Y-17325834D01*
X7519434Y-17325834D02*
X7500387Y-17316310D01*
X7500387Y-17316310D02*
X7462292Y-17316310D01*
X7462292Y-17316310D02*
X7443244Y-17325834D01*
X7528958Y-17440120D02*
X7509911Y-17449644D01*
X7509911Y-17449644D02*
X7462292Y-17449644D01*
X7462292Y-17449644D02*
X7443244Y-17440120D01*
X7443244Y-17440120D02*
X7433720Y-17421072D01*
X7433720Y-17421072D02*
X7433720Y-17402025D01*
X7433720Y-17402025D02*
X7443244Y-17382977D01*
X7443244Y-17382977D02*
X7462292Y-17373453D01*
X7462292Y-17373453D02*
X7509911Y-17373453D01*
X7509911Y-17373453D02*
X7528958Y-17363930D01*
X7595625Y-17316310D02*
X7671815Y-17316310D01*
X7624196Y-17249644D02*
X7624196Y-17421072D01*
X7624196Y-17421072D02*
X7633720Y-17440120D01*
X7633720Y-17440120D02*
X7652768Y-17449644D01*
X7652768Y-17449644D02*
X7671815Y-17449644D01*
X7814673Y-17440120D02*
X7795625Y-17449644D01*
X7795625Y-17449644D02*
X7757530Y-17449644D01*
X7757530Y-17449644D02*
X7738482Y-17440120D01*
X7738482Y-17440120D02*
X7728958Y-17421072D01*
X7728958Y-17421072D02*
X7728958Y-17344882D01*
X7728958Y-17344882D02*
X7738482Y-17325834D01*
X7738482Y-17325834D02*
X7757530Y-17316310D01*
X7757530Y-17316310D02*
X7795625Y-17316310D01*
X7795625Y-17316310D02*
X7814673Y-17325834D01*
X7814673Y-17325834D02*
X7824196Y-17344882D01*
X7824196Y-17344882D02*
X7824196Y-17363930D01*
X7824196Y-17363930D02*
X7728958Y-17382977D01*
X7995625Y-17449644D02*
X7995625Y-17249644D01*
X7995625Y-17440120D02*
X7976577Y-17449644D01*
X7976577Y-17449644D02*
X7938482Y-17449644D01*
X7938482Y-17449644D02*
X7919434Y-17440120D01*
X7919434Y-17440120D02*
X7909911Y-17430596D01*
X7909911Y-17430596D02*
X7900387Y-17411549D01*
X7900387Y-17411549D02*
X7900387Y-17354406D01*
X7900387Y-17354406D02*
X7909911Y-17335358D01*
X7909911Y-17335358D02*
X7919434Y-17325834D01*
X7919434Y-17325834D02*
X7938482Y-17316310D01*
X7938482Y-17316310D02*
X7976577Y-17316310D01*
X7976577Y-17316310D02*
X7995625Y-17325834D01*
X8071815Y-17525834D02*
X8081339Y-17516310D01*
X8081339Y-17516310D02*
X8100387Y-17487739D01*
X8100387Y-17487739D02*
X8109911Y-17468691D01*
X8109911Y-17468691D02*
X8119434Y-17440120D01*
X8119434Y-17440120D02*
X8128958Y-17392501D01*
X8128958Y-17392501D02*
X8128958Y-17354406D01*
X8128958Y-17354406D02*
X8119434Y-17306787D01*
X8119434Y-17306787D02*
X8109911Y-17278215D01*
X8109911Y-17278215D02*
X8100387Y-17259168D01*
X8100387Y-17259168D02*
X8081339Y-17230596D01*
X8081339Y-17230596D02*
X8071815Y-17221072D01*
M02*
