%TF.GenerationSoftware,KiCad,Pcbnew,7.0.9*%
%TF.CreationDate,2024-01-28T15:24:27+05:30*%
%TF.ProjectId,Inverter,496e7665-7274-4657-922e-6b696361645f,rev?*%
%TF.SameCoordinates,Original*%
%TF.FileFunction,Legend,Top*%
%TF.FilePolarity,Positive*%
%FSLAX46Y46*%
G04 Gerber Fmt 4.6, Leading zero omitted, Abs format (unit mm)*
G04 Created by KiCad (PCBNEW 7.0.9) date 2024-01-28 15:24:27*
%MOMM*%
%LPD*%
G01*
G04 APERTURE LIST*
%ADD10C,0.125000*%
%ADD11C,0.254000*%
%ADD12C,0.150000*%
%ADD13C,0.200000*%
%ADD14C,0.120000*%
%ADD15C,0.127000*%
G04 APERTURE END LIST*
D10*
G36*
X49101168Y-149915000D02*
G01*
X49206803Y-149406974D01*
X49303524Y-149406974D01*
X49433583Y-149750258D01*
X49505024Y-149406974D01*
X49597348Y-149406974D01*
X49491713Y-149915000D01*
X49391939Y-149915000D01*
X49263834Y-149576845D01*
X49193492Y-149915000D01*
X49101168Y-149915000D01*
G37*
G36*
X49716050Y-149915000D02*
G01*
X49803855Y-149492948D01*
X49657676Y-149492948D01*
X49675505Y-149406974D01*
X50066905Y-149406974D01*
X50049075Y-149492948D01*
X49903262Y-149492948D01*
X49815457Y-149915000D01*
X49716050Y-149915000D01*
G37*
G36*
X50388328Y-149719605D02*
G01*
X50478210Y-149750868D01*
X50475724Y-149756032D01*
X50473198Y-149761112D01*
X50470632Y-149766108D01*
X50468026Y-149771020D01*
X50465379Y-149775849D01*
X50462692Y-149780594D01*
X50459965Y-149785255D01*
X50457197Y-149789833D01*
X50454389Y-149794326D01*
X50451541Y-149798737D01*
X50448652Y-149803063D01*
X50445723Y-149807306D01*
X50442754Y-149811465D01*
X50439745Y-149815540D01*
X50436695Y-149819531D01*
X50433605Y-149823439D01*
X50430474Y-149827263D01*
X50427304Y-149831003D01*
X50420841Y-149838233D01*
X50414217Y-149845127D01*
X50407433Y-149851687D01*
X50400486Y-149857912D01*
X50393379Y-149863802D01*
X50386110Y-149869357D01*
X50378681Y-149874577D01*
X50371110Y-149879472D01*
X50363389Y-149884051D01*
X50355517Y-149888315D01*
X50347494Y-149892262D01*
X50339320Y-149895894D01*
X50330996Y-149899210D01*
X50322521Y-149902210D01*
X50313895Y-149904894D01*
X50305119Y-149907262D01*
X50296191Y-149909315D01*
X50287113Y-149911052D01*
X50277885Y-149912473D01*
X50268505Y-149913578D01*
X50258975Y-149914368D01*
X50249294Y-149914842D01*
X50244397Y-149914960D01*
X50239462Y-149915000D01*
X50233381Y-149914933D01*
X50227396Y-149914734D01*
X50221506Y-149914403D01*
X50215711Y-149913939D01*
X50210013Y-149913342D01*
X50204410Y-149912612D01*
X50198903Y-149911750D01*
X50193491Y-149910756D01*
X50188175Y-149909629D01*
X50182955Y-149908369D01*
X50177830Y-149906976D01*
X50172801Y-149905451D01*
X50167868Y-149903793D01*
X50163030Y-149902003D01*
X50158288Y-149900080D01*
X50153641Y-149898025D01*
X50149091Y-149895836D01*
X50144635Y-149893516D01*
X50140276Y-149891062D01*
X50136012Y-149888476D01*
X50131844Y-149885758D01*
X50127771Y-149882906D01*
X50123794Y-149879923D01*
X50119913Y-149876806D01*
X50116127Y-149873557D01*
X50112437Y-149870175D01*
X50108843Y-149866661D01*
X50105344Y-149863014D01*
X50101941Y-149859234D01*
X50098634Y-149855322D01*
X50095422Y-149851277D01*
X50092306Y-149847100D01*
X50089317Y-149842808D01*
X50086472Y-149838418D01*
X50083770Y-149833931D01*
X50081212Y-149829347D01*
X50078797Y-149824665D01*
X50076526Y-149819886D01*
X50074399Y-149815010D01*
X50072415Y-149810036D01*
X50070575Y-149804965D01*
X50068879Y-149799797D01*
X50067326Y-149794531D01*
X50065916Y-149789169D01*
X50064650Y-149783708D01*
X50063528Y-149778151D01*
X50062549Y-149772496D01*
X50061714Y-149766744D01*
X50061023Y-149760895D01*
X50060475Y-149754948D01*
X50060071Y-149748904D01*
X50059810Y-149742762D01*
X50059693Y-149736524D01*
X50059719Y-149730188D01*
X50059890Y-149723754D01*
X50060203Y-149717224D01*
X50060660Y-149710596D01*
X50061261Y-149703871D01*
X50062006Y-149697048D01*
X50062894Y-149690128D01*
X50063925Y-149683111D01*
X50065100Y-149675996D01*
X50066419Y-149668785D01*
X50067882Y-149661475D01*
X50069550Y-149653745D01*
X50071321Y-149646122D01*
X50073192Y-149638609D01*
X50075165Y-149631205D01*
X50077239Y-149623909D01*
X50079415Y-149616722D01*
X50081692Y-149609643D01*
X50084070Y-149602674D01*
X50086550Y-149595813D01*
X50089131Y-149589061D01*
X50091814Y-149582418D01*
X50094598Y-149575884D01*
X50097483Y-149569458D01*
X50100469Y-149563141D01*
X50103557Y-149556933D01*
X50106747Y-149550833D01*
X50110037Y-149544843D01*
X50113430Y-149538961D01*
X50116923Y-149533188D01*
X50120518Y-149527523D01*
X50124214Y-149521968D01*
X50128012Y-149516521D01*
X50131911Y-149511183D01*
X50135911Y-149505954D01*
X50140013Y-149500833D01*
X50144216Y-149495822D01*
X50148520Y-149490919D01*
X50152926Y-149486124D01*
X50157433Y-149481439D01*
X50162041Y-149476862D01*
X50166751Y-149472394D01*
X50171563Y-149468035D01*
X50176450Y-149463798D01*
X50181387Y-149459695D01*
X50186374Y-149455726D01*
X50191411Y-149451892D01*
X50196499Y-149448193D01*
X50201636Y-149444628D01*
X50206824Y-149441197D01*
X50212061Y-149437902D01*
X50217349Y-149434740D01*
X50222687Y-149431714D01*
X50228075Y-149428821D01*
X50233513Y-149426063D01*
X50239001Y-149423440D01*
X50244539Y-149420952D01*
X50250127Y-149418597D01*
X50255765Y-149416378D01*
X50261454Y-149414293D01*
X50267192Y-149412342D01*
X50272981Y-149410526D01*
X50278820Y-149408844D01*
X50284708Y-149407297D01*
X50290647Y-149405885D01*
X50296636Y-149404607D01*
X50302675Y-149403463D01*
X50308764Y-149402454D01*
X50314904Y-149401580D01*
X50321093Y-149400840D01*
X50327332Y-149400235D01*
X50333622Y-149399764D01*
X50339961Y-149399428D01*
X50346351Y-149399226D01*
X50352791Y-149399159D01*
X50358394Y-149399215D01*
X50363908Y-149399385D01*
X50369332Y-149399667D01*
X50374666Y-149400063D01*
X50379910Y-149400572D01*
X50385065Y-149401194D01*
X50390130Y-149401929D01*
X50395106Y-149402776D01*
X50399992Y-149403737D01*
X50404788Y-149404811D01*
X50414111Y-149407299D01*
X50423076Y-149410238D01*
X50431681Y-149413630D01*
X50439928Y-149417474D01*
X50447817Y-149421770D01*
X50455346Y-149426519D01*
X50462517Y-149431719D01*
X50469329Y-149437372D01*
X50475782Y-149443477D01*
X50481877Y-149450035D01*
X50487613Y-149457044D01*
X50490821Y-149461450D01*
X50493851Y-149466089D01*
X50496702Y-149470960D01*
X50499375Y-149476065D01*
X50501869Y-149481402D01*
X50504185Y-149486972D01*
X50506323Y-149492774D01*
X50508282Y-149498810D01*
X50510063Y-149505078D01*
X50511665Y-149511579D01*
X50513089Y-149518313D01*
X50514335Y-149525280D01*
X50515402Y-149532479D01*
X50516290Y-149539911D01*
X50517001Y-149547576D01*
X50517533Y-149555474D01*
X50415806Y-149571106D01*
X50415657Y-149566194D01*
X50415107Y-149559073D01*
X50414164Y-149552245D01*
X50412829Y-149545712D01*
X50411100Y-149539473D01*
X50408979Y-149533528D01*
X50406465Y-149527876D01*
X50403558Y-149522519D01*
X50400258Y-149517457D01*
X50396566Y-149512688D01*
X50392480Y-149508213D01*
X50388050Y-149504088D01*
X50383324Y-149500369D01*
X50378302Y-149497056D01*
X50372983Y-149494148D01*
X50367368Y-149491646D01*
X50361457Y-149489550D01*
X50355249Y-149487859D01*
X50348746Y-149486575D01*
X50341946Y-149485696D01*
X50334849Y-149485222D01*
X50329954Y-149485132D01*
X50323163Y-149485288D01*
X50316467Y-149485754D01*
X50309867Y-149486532D01*
X50303362Y-149487620D01*
X50296953Y-149489020D01*
X50290639Y-149490731D01*
X50284420Y-149492752D01*
X50278297Y-149495085D01*
X50272269Y-149497729D01*
X50266337Y-149500683D01*
X50260499Y-149503949D01*
X50254758Y-149507526D01*
X50249112Y-149511414D01*
X50243561Y-149515613D01*
X50238105Y-149520123D01*
X50232745Y-149524944D01*
X50227541Y-149530113D01*
X50222524Y-149535669D01*
X50217692Y-149541612D01*
X50213046Y-149547941D01*
X50208586Y-149554656D01*
X50204312Y-149561758D01*
X50200224Y-149569246D01*
X50196323Y-149577120D01*
X50192607Y-149585381D01*
X50189078Y-149594028D01*
X50185734Y-149603062D01*
X50184132Y-149607724D01*
X50182576Y-149612482D01*
X50181067Y-149617337D01*
X50179605Y-149622288D01*
X50178189Y-149627336D01*
X50176820Y-149632481D01*
X50175497Y-149637722D01*
X50174220Y-149643060D01*
X50172990Y-149648495D01*
X50171807Y-149654026D01*
X50170622Y-149659888D01*
X50169524Y-149665644D01*
X50168514Y-149671293D01*
X50167592Y-149676836D01*
X50166757Y-149682273D01*
X50166009Y-149687603D01*
X50165350Y-149692827D01*
X50164777Y-149697944D01*
X50164292Y-149702955D01*
X50163895Y-149707860D01*
X50163363Y-149717350D01*
X50163182Y-149726414D01*
X50163350Y-149735054D01*
X50163869Y-149743267D01*
X50164737Y-149751055D01*
X50165956Y-149758418D01*
X50167525Y-149765355D01*
X50169444Y-149771867D01*
X50171713Y-149777953D01*
X50174333Y-149783613D01*
X50177302Y-149788848D01*
X50180573Y-149793713D01*
X50184067Y-149798265D01*
X50187782Y-149802502D01*
X50191720Y-149806426D01*
X50195881Y-149810036D01*
X50200263Y-149813332D01*
X50204868Y-149816313D01*
X50209695Y-149818982D01*
X50214745Y-149821336D01*
X50220016Y-149823376D01*
X50225510Y-149825102D01*
X50231227Y-149826515D01*
X50237165Y-149827614D01*
X50243326Y-149828398D01*
X50249709Y-149828869D01*
X50256315Y-149829026D01*
X50261254Y-149828923D01*
X50266148Y-149828614D01*
X50273404Y-149827764D01*
X50280560Y-149826450D01*
X50287615Y-149824673D01*
X50294569Y-149822431D01*
X50299149Y-149820680D01*
X50303685Y-149818722D01*
X50308175Y-149816558D01*
X50312621Y-149814188D01*
X50317021Y-149811612D01*
X50321377Y-149808830D01*
X50325688Y-149805842D01*
X50329954Y-149802648D01*
X50334175Y-149799232D01*
X50338319Y-149795580D01*
X50342388Y-149791691D01*
X50346379Y-149787566D01*
X50350295Y-149783204D01*
X50354134Y-149778605D01*
X50357897Y-149773770D01*
X50361584Y-149768698D01*
X50365194Y-149763390D01*
X50368728Y-149757844D01*
X50372185Y-149752063D01*
X50375566Y-149746045D01*
X50378871Y-149739790D01*
X50382100Y-149733298D01*
X50385252Y-149726570D01*
X50388328Y-149719605D01*
G37*
D11*
X69179718Y-140125562D02*
X67909718Y-140125562D01*
X69058765Y-138795085D02*
X69119242Y-138855561D01*
X69119242Y-138855561D02*
X69179718Y-139036990D01*
X69179718Y-139036990D02*
X69179718Y-139157942D01*
X69179718Y-139157942D02*
X69119242Y-139339371D01*
X69119242Y-139339371D02*
X68998289Y-139460323D01*
X68998289Y-139460323D02*
X68877337Y-139520800D01*
X68877337Y-139520800D02*
X68635432Y-139581276D01*
X68635432Y-139581276D02*
X68454003Y-139581276D01*
X68454003Y-139581276D02*
X68212099Y-139520800D01*
X68212099Y-139520800D02*
X68091146Y-139460323D01*
X68091146Y-139460323D02*
X67970194Y-139339371D01*
X67970194Y-139339371D02*
X67909718Y-139157942D01*
X67909718Y-139157942D02*
X67909718Y-139036990D01*
X67909718Y-139036990D02*
X67970194Y-138855561D01*
X67970194Y-138855561D02*
X68030670Y-138795085D01*
X67909718Y-137646038D02*
X67909718Y-138250800D01*
X67909718Y-138250800D02*
X68514480Y-138311276D01*
X68514480Y-138311276D02*
X68454003Y-138250800D01*
X68454003Y-138250800D02*
X68393527Y-138129847D01*
X68393527Y-138129847D02*
X68393527Y-137827466D01*
X68393527Y-137827466D02*
X68454003Y-137706514D01*
X68454003Y-137706514D02*
X68514480Y-137646038D01*
X68514480Y-137646038D02*
X68635432Y-137585561D01*
X68635432Y-137585561D02*
X68937813Y-137585561D01*
X68937813Y-137585561D02*
X69058765Y-137646038D01*
X69058765Y-137646038D02*
X69119242Y-137706514D01*
X69119242Y-137706514D02*
X69179718Y-137827466D01*
X69179718Y-137827466D02*
X69179718Y-138129847D01*
X69179718Y-138129847D02*
X69119242Y-138250800D01*
X69119242Y-138250800D02*
X69058765Y-138311276D01*
X53761918Y-140227162D02*
X52491918Y-140227162D01*
X53640965Y-138896685D02*
X53701442Y-138957161D01*
X53701442Y-138957161D02*
X53761918Y-139138590D01*
X53761918Y-139138590D02*
X53761918Y-139259542D01*
X53761918Y-139259542D02*
X53701442Y-139440971D01*
X53701442Y-139440971D02*
X53580489Y-139561923D01*
X53580489Y-139561923D02*
X53459537Y-139622400D01*
X53459537Y-139622400D02*
X53217632Y-139682876D01*
X53217632Y-139682876D02*
X53036203Y-139682876D01*
X53036203Y-139682876D02*
X52794299Y-139622400D01*
X52794299Y-139622400D02*
X52673346Y-139561923D01*
X52673346Y-139561923D02*
X52552394Y-139440971D01*
X52552394Y-139440971D02*
X52491918Y-139259542D01*
X52491918Y-139259542D02*
X52491918Y-139138590D01*
X52491918Y-139138590D02*
X52552394Y-138957161D01*
X52552394Y-138957161D02*
X52612870Y-138896685D01*
X53761918Y-137687161D02*
X53761918Y-138412876D01*
X53761918Y-138050019D02*
X52491918Y-138050019D01*
X52491918Y-138050019D02*
X52673346Y-138170971D01*
X52673346Y-138170971D02*
X52794299Y-138291923D01*
X52794299Y-138291923D02*
X52854775Y-138412876D01*
D12*
X86690476Y-33609819D02*
X86690476Y-34324104D01*
X86690476Y-34324104D02*
X86642857Y-34466961D01*
X86642857Y-34466961D02*
X86547619Y-34562200D01*
X86547619Y-34562200D02*
X86404762Y-34609819D01*
X86404762Y-34609819D02*
X86309524Y-34609819D01*
X87690476Y-34609819D02*
X87119048Y-34609819D01*
X87404762Y-34609819D02*
X87404762Y-33609819D01*
X87404762Y-33609819D02*
X87309524Y-33752676D01*
X87309524Y-33752676D02*
X87214286Y-33847914D01*
X87214286Y-33847914D02*
X87119048Y-33895533D01*
X88642857Y-34609819D02*
X88071429Y-34609819D01*
X88357143Y-34609819D02*
X88357143Y-33609819D01*
X88357143Y-33609819D02*
X88261905Y-33752676D01*
X88261905Y-33752676D02*
X88166667Y-33847914D01*
X88166667Y-33847914D02*
X88071429Y-33895533D01*
X83140476Y-97009819D02*
X83140476Y-97724104D01*
X83140476Y-97724104D02*
X83092857Y-97866961D01*
X83092857Y-97866961D02*
X82997619Y-97962200D01*
X82997619Y-97962200D02*
X82854762Y-98009819D01*
X82854762Y-98009819D02*
X82759524Y-98009819D01*
X84140476Y-98009819D02*
X83569048Y-98009819D01*
X83854762Y-98009819D02*
X83854762Y-97009819D01*
X83854762Y-97009819D02*
X83759524Y-97152676D01*
X83759524Y-97152676D02*
X83664286Y-97247914D01*
X83664286Y-97247914D02*
X83569048Y-97295533D01*
X84759524Y-97009819D02*
X84854762Y-97009819D01*
X84854762Y-97009819D02*
X84950000Y-97057438D01*
X84950000Y-97057438D02*
X84997619Y-97105057D01*
X84997619Y-97105057D02*
X85045238Y-97200295D01*
X85045238Y-97200295D02*
X85092857Y-97390771D01*
X85092857Y-97390771D02*
X85092857Y-97628866D01*
X85092857Y-97628866D02*
X85045238Y-97819342D01*
X85045238Y-97819342D02*
X84997619Y-97914580D01*
X84997619Y-97914580D02*
X84950000Y-97962200D01*
X84950000Y-97962200D02*
X84854762Y-98009819D01*
X84854762Y-98009819D02*
X84759524Y-98009819D01*
X84759524Y-98009819D02*
X84664286Y-97962200D01*
X84664286Y-97962200D02*
X84616667Y-97914580D01*
X84616667Y-97914580D02*
X84569048Y-97819342D01*
X84569048Y-97819342D02*
X84521429Y-97628866D01*
X84521429Y-97628866D02*
X84521429Y-97390771D01*
X84521429Y-97390771D02*
X84569048Y-97200295D01*
X84569048Y-97200295D02*
X84616667Y-97105057D01*
X84616667Y-97105057D02*
X84664286Y-97057438D01*
X84664286Y-97057438D02*
X84759524Y-97009819D01*
X53109905Y-127541819D02*
X53109905Y-126541819D01*
X53109905Y-126541819D02*
X53348000Y-126541819D01*
X53348000Y-126541819D02*
X53490857Y-126589438D01*
X53490857Y-126589438D02*
X53586095Y-126684676D01*
X53586095Y-126684676D02*
X53633714Y-126779914D01*
X53633714Y-126779914D02*
X53681333Y-126970390D01*
X53681333Y-126970390D02*
X53681333Y-127113247D01*
X53681333Y-127113247D02*
X53633714Y-127303723D01*
X53633714Y-127303723D02*
X53586095Y-127398961D01*
X53586095Y-127398961D02*
X53490857Y-127494200D01*
X53490857Y-127494200D02*
X53348000Y-127541819D01*
X53348000Y-127541819D02*
X53109905Y-127541819D01*
X54014667Y-126541819D02*
X54633714Y-126541819D01*
X54633714Y-126541819D02*
X54300381Y-126922771D01*
X54300381Y-126922771D02*
X54443238Y-126922771D01*
X54443238Y-126922771D02*
X54538476Y-126970390D01*
X54538476Y-126970390D02*
X54586095Y-127018009D01*
X54586095Y-127018009D02*
X54633714Y-127113247D01*
X54633714Y-127113247D02*
X54633714Y-127351342D01*
X54633714Y-127351342D02*
X54586095Y-127446580D01*
X54586095Y-127446580D02*
X54538476Y-127494200D01*
X54538476Y-127494200D02*
X54443238Y-127541819D01*
X54443238Y-127541819D02*
X54157524Y-127541819D01*
X54157524Y-127541819D02*
X54062286Y-127494200D01*
X54062286Y-127494200D02*
X54014667Y-127446580D01*
X68063219Y-129963657D02*
X67587028Y-130296990D01*
X68063219Y-130535085D02*
X67063219Y-130535085D01*
X67063219Y-130535085D02*
X67063219Y-130154133D01*
X67063219Y-130154133D02*
X67110838Y-130058895D01*
X67110838Y-130058895D02*
X67158457Y-130011276D01*
X67158457Y-130011276D02*
X67253695Y-129963657D01*
X67253695Y-129963657D02*
X67396552Y-129963657D01*
X67396552Y-129963657D02*
X67491790Y-130011276D01*
X67491790Y-130011276D02*
X67539409Y-130058895D01*
X67539409Y-130058895D02*
X67587028Y-130154133D01*
X67587028Y-130154133D02*
X67587028Y-130535085D01*
X68063219Y-129011276D02*
X68063219Y-129582704D01*
X68063219Y-129296990D02*
X67063219Y-129296990D01*
X67063219Y-129296990D02*
X67206076Y-129392228D01*
X67206076Y-129392228D02*
X67301314Y-129487466D01*
X67301314Y-129487466D02*
X67348933Y-129582704D01*
X67158457Y-128630323D02*
X67110838Y-128582704D01*
X67110838Y-128582704D02*
X67063219Y-128487466D01*
X67063219Y-128487466D02*
X67063219Y-128249371D01*
X67063219Y-128249371D02*
X67110838Y-128154133D01*
X67110838Y-128154133D02*
X67158457Y-128106514D01*
X67158457Y-128106514D02*
X67253695Y-128058895D01*
X67253695Y-128058895D02*
X67348933Y-128058895D01*
X67348933Y-128058895D02*
X67491790Y-128106514D01*
X67491790Y-128106514D02*
X68063219Y-128677942D01*
X68063219Y-128677942D02*
X68063219Y-128058895D01*
X25392142Y-135796580D02*
X25344523Y-135844200D01*
X25344523Y-135844200D02*
X25201666Y-135891819D01*
X25201666Y-135891819D02*
X25106428Y-135891819D01*
X25106428Y-135891819D02*
X24963571Y-135844200D01*
X24963571Y-135844200D02*
X24868333Y-135748961D01*
X24868333Y-135748961D02*
X24820714Y-135653723D01*
X24820714Y-135653723D02*
X24773095Y-135463247D01*
X24773095Y-135463247D02*
X24773095Y-135320390D01*
X24773095Y-135320390D02*
X24820714Y-135129914D01*
X24820714Y-135129914D02*
X24868333Y-135034676D01*
X24868333Y-135034676D02*
X24963571Y-134939438D01*
X24963571Y-134939438D02*
X25106428Y-134891819D01*
X25106428Y-134891819D02*
X25201666Y-134891819D01*
X25201666Y-134891819D02*
X25344523Y-134939438D01*
X25344523Y-134939438D02*
X25392142Y-134987057D01*
X26344523Y-135891819D02*
X25773095Y-135891819D01*
X26058809Y-135891819D02*
X26058809Y-134891819D01*
X26058809Y-134891819D02*
X25963571Y-135034676D01*
X25963571Y-135034676D02*
X25868333Y-135129914D01*
X25868333Y-135129914D02*
X25773095Y-135177533D01*
X26725476Y-134987057D02*
X26773095Y-134939438D01*
X26773095Y-134939438D02*
X26868333Y-134891819D01*
X26868333Y-134891819D02*
X27106428Y-134891819D01*
X27106428Y-134891819D02*
X27201666Y-134939438D01*
X27201666Y-134939438D02*
X27249285Y-134987057D01*
X27249285Y-134987057D02*
X27296904Y-135082295D01*
X27296904Y-135082295D02*
X27296904Y-135177533D01*
X27296904Y-135177533D02*
X27249285Y-135320390D01*
X27249285Y-135320390D02*
X26677857Y-135891819D01*
X26677857Y-135891819D02*
X27296904Y-135891819D01*
X22084819Y-41378094D02*
X21084819Y-41378094D01*
X21084819Y-41378094D02*
X21084819Y-41139999D01*
X21084819Y-41139999D02*
X21132438Y-40997142D01*
X21132438Y-40997142D02*
X21227676Y-40901904D01*
X21227676Y-40901904D02*
X21322914Y-40854285D01*
X21322914Y-40854285D02*
X21513390Y-40806666D01*
X21513390Y-40806666D02*
X21656247Y-40806666D01*
X21656247Y-40806666D02*
X21846723Y-40854285D01*
X21846723Y-40854285D02*
X21941961Y-40901904D01*
X21941961Y-40901904D02*
X22037200Y-40997142D01*
X22037200Y-40997142D02*
X22084819Y-41139999D01*
X22084819Y-41139999D02*
X22084819Y-41378094D01*
X21513390Y-40235237D02*
X21465771Y-40330475D01*
X21465771Y-40330475D02*
X21418152Y-40378094D01*
X21418152Y-40378094D02*
X21322914Y-40425713D01*
X21322914Y-40425713D02*
X21275295Y-40425713D01*
X21275295Y-40425713D02*
X21180057Y-40378094D01*
X21180057Y-40378094D02*
X21132438Y-40330475D01*
X21132438Y-40330475D02*
X21084819Y-40235237D01*
X21084819Y-40235237D02*
X21084819Y-40044761D01*
X21084819Y-40044761D02*
X21132438Y-39949523D01*
X21132438Y-39949523D02*
X21180057Y-39901904D01*
X21180057Y-39901904D02*
X21275295Y-39854285D01*
X21275295Y-39854285D02*
X21322914Y-39854285D01*
X21322914Y-39854285D02*
X21418152Y-39901904D01*
X21418152Y-39901904D02*
X21465771Y-39949523D01*
X21465771Y-39949523D02*
X21513390Y-40044761D01*
X21513390Y-40044761D02*
X21513390Y-40235237D01*
X21513390Y-40235237D02*
X21561009Y-40330475D01*
X21561009Y-40330475D02*
X21608628Y-40378094D01*
X21608628Y-40378094D02*
X21703866Y-40425713D01*
X21703866Y-40425713D02*
X21894342Y-40425713D01*
X21894342Y-40425713D02*
X21989580Y-40378094D01*
X21989580Y-40378094D02*
X22037200Y-40330475D01*
X22037200Y-40330475D02*
X22084819Y-40235237D01*
X22084819Y-40235237D02*
X22084819Y-40044761D01*
X22084819Y-40044761D02*
X22037200Y-39949523D01*
X22037200Y-39949523D02*
X21989580Y-39901904D01*
X21989580Y-39901904D02*
X21894342Y-39854285D01*
X21894342Y-39854285D02*
X21703866Y-39854285D01*
X21703866Y-39854285D02*
X21608628Y-39901904D01*
X21608628Y-39901904D02*
X21561009Y-39949523D01*
X21561009Y-39949523D02*
X21513390Y-40044761D01*
X23554819Y-48521904D02*
X22554819Y-48521904D01*
X23554819Y-47950476D02*
X22983390Y-48379047D01*
X22554819Y-47950476D02*
X23126247Y-48521904D01*
X46162619Y-159283304D02*
X46972142Y-159283304D01*
X46972142Y-159283304D02*
X47067380Y-159235685D01*
X47067380Y-159235685D02*
X47115000Y-159188066D01*
X47115000Y-159188066D02*
X47162619Y-159092828D01*
X47162619Y-159092828D02*
X47162619Y-158902352D01*
X47162619Y-158902352D02*
X47115000Y-158807114D01*
X47115000Y-158807114D02*
X47067380Y-158759495D01*
X47067380Y-158759495D02*
X46972142Y-158711876D01*
X46972142Y-158711876D02*
X46162619Y-158711876D01*
X46162619Y-158330923D02*
X46162619Y-157711876D01*
X46162619Y-157711876D02*
X46543571Y-158045209D01*
X46543571Y-158045209D02*
X46543571Y-157902352D01*
X46543571Y-157902352D02*
X46591190Y-157807114D01*
X46591190Y-157807114D02*
X46638809Y-157759495D01*
X46638809Y-157759495D02*
X46734047Y-157711876D01*
X46734047Y-157711876D02*
X46972142Y-157711876D01*
X46972142Y-157711876D02*
X47067380Y-157759495D01*
X47067380Y-157759495D02*
X47115000Y-157807114D01*
X47115000Y-157807114D02*
X47162619Y-157902352D01*
X47162619Y-157902352D02*
X47162619Y-158188066D01*
X47162619Y-158188066D02*
X47115000Y-158283304D01*
X47115000Y-158283304D02*
X47067380Y-158330923D01*
X13034819Y-152744785D02*
X12034819Y-152744785D01*
X12034819Y-152744785D02*
X12034819Y-152363833D01*
X12034819Y-152363833D02*
X12082438Y-152268595D01*
X12082438Y-152268595D02*
X12130057Y-152220976D01*
X12130057Y-152220976D02*
X12225295Y-152173357D01*
X12225295Y-152173357D02*
X12368152Y-152173357D01*
X12368152Y-152173357D02*
X12463390Y-152220976D01*
X12463390Y-152220976D02*
X12511009Y-152268595D01*
X12511009Y-152268595D02*
X12558628Y-152363833D01*
X12558628Y-152363833D02*
X12558628Y-152744785D01*
X12987200Y-151792404D02*
X13034819Y-151649547D01*
X13034819Y-151649547D02*
X13034819Y-151411452D01*
X13034819Y-151411452D02*
X12987200Y-151316214D01*
X12987200Y-151316214D02*
X12939580Y-151268595D01*
X12939580Y-151268595D02*
X12844342Y-151220976D01*
X12844342Y-151220976D02*
X12749104Y-151220976D01*
X12749104Y-151220976D02*
X12653866Y-151268595D01*
X12653866Y-151268595D02*
X12606247Y-151316214D01*
X12606247Y-151316214D02*
X12558628Y-151411452D01*
X12558628Y-151411452D02*
X12511009Y-151601928D01*
X12511009Y-151601928D02*
X12463390Y-151697166D01*
X12463390Y-151697166D02*
X12415771Y-151744785D01*
X12415771Y-151744785D02*
X12320533Y-151792404D01*
X12320533Y-151792404D02*
X12225295Y-151792404D01*
X12225295Y-151792404D02*
X12130057Y-151744785D01*
X12130057Y-151744785D02*
X12082438Y-151697166D01*
X12082438Y-151697166D02*
X12034819Y-151601928D01*
X12034819Y-151601928D02*
X12034819Y-151363833D01*
X12034819Y-151363833D02*
X12082438Y-151220976D01*
X13034819Y-150268595D02*
X13034819Y-150840023D01*
X13034819Y-150554309D02*
X12034819Y-150554309D01*
X12034819Y-150554309D02*
X12177676Y-150649547D01*
X12177676Y-150649547D02*
X12272914Y-150744785D01*
X12272914Y-150744785D02*
X12320533Y-150840023D01*
X64122666Y-146882419D02*
X64122666Y-147596704D01*
X64122666Y-147596704D02*
X64075047Y-147739561D01*
X64075047Y-147739561D02*
X63979809Y-147834800D01*
X63979809Y-147834800D02*
X63836952Y-147882419D01*
X63836952Y-147882419D02*
X63741714Y-147882419D01*
X64551238Y-146977657D02*
X64598857Y-146930038D01*
X64598857Y-146930038D02*
X64694095Y-146882419D01*
X64694095Y-146882419D02*
X64932190Y-146882419D01*
X64932190Y-146882419D02*
X65027428Y-146930038D01*
X65027428Y-146930038D02*
X65075047Y-146977657D01*
X65075047Y-146977657D02*
X65122666Y-147072895D01*
X65122666Y-147072895D02*
X65122666Y-147168133D01*
X65122666Y-147168133D02*
X65075047Y-147310990D01*
X65075047Y-147310990D02*
X64503619Y-147882419D01*
X64503619Y-147882419D02*
X65122666Y-147882419D01*
X30651580Y-68206857D02*
X30699200Y-68254476D01*
X30699200Y-68254476D02*
X30746819Y-68397333D01*
X30746819Y-68397333D02*
X30746819Y-68492571D01*
X30746819Y-68492571D02*
X30699200Y-68635428D01*
X30699200Y-68635428D02*
X30603961Y-68730666D01*
X30603961Y-68730666D02*
X30508723Y-68778285D01*
X30508723Y-68778285D02*
X30318247Y-68825904D01*
X30318247Y-68825904D02*
X30175390Y-68825904D01*
X30175390Y-68825904D02*
X29984914Y-68778285D01*
X29984914Y-68778285D02*
X29889676Y-68730666D01*
X29889676Y-68730666D02*
X29794438Y-68635428D01*
X29794438Y-68635428D02*
X29746819Y-68492571D01*
X29746819Y-68492571D02*
X29746819Y-68397333D01*
X29746819Y-68397333D02*
X29794438Y-68254476D01*
X29794438Y-68254476D02*
X29842057Y-68206857D01*
X29842057Y-67825904D02*
X29794438Y-67778285D01*
X29794438Y-67778285D02*
X29746819Y-67683047D01*
X29746819Y-67683047D02*
X29746819Y-67444952D01*
X29746819Y-67444952D02*
X29794438Y-67349714D01*
X29794438Y-67349714D02*
X29842057Y-67302095D01*
X29842057Y-67302095D02*
X29937295Y-67254476D01*
X29937295Y-67254476D02*
X30032533Y-67254476D01*
X30032533Y-67254476D02*
X30175390Y-67302095D01*
X30175390Y-67302095D02*
X30746819Y-67873523D01*
X30746819Y-67873523D02*
X30746819Y-67254476D01*
X29746819Y-66349714D02*
X29746819Y-66825904D01*
X29746819Y-66825904D02*
X30223009Y-66873523D01*
X30223009Y-66873523D02*
X30175390Y-66825904D01*
X30175390Y-66825904D02*
X30127771Y-66730666D01*
X30127771Y-66730666D02*
X30127771Y-66492571D01*
X30127771Y-66492571D02*
X30175390Y-66397333D01*
X30175390Y-66397333D02*
X30223009Y-66349714D01*
X30223009Y-66349714D02*
X30318247Y-66302095D01*
X30318247Y-66302095D02*
X30556342Y-66302095D01*
X30556342Y-66302095D02*
X30651580Y-66349714D01*
X30651580Y-66349714D02*
X30699200Y-66397333D01*
X30699200Y-66397333D02*
X30746819Y-66492571D01*
X30746819Y-66492571D02*
X30746819Y-66730666D01*
X30746819Y-66730666D02*
X30699200Y-66825904D01*
X30699200Y-66825904D02*
X30651580Y-66873523D01*
X20968819Y-68746666D02*
X20492628Y-69079999D01*
X20968819Y-69318094D02*
X19968819Y-69318094D01*
X19968819Y-69318094D02*
X19968819Y-68937142D01*
X19968819Y-68937142D02*
X20016438Y-68841904D01*
X20016438Y-68841904D02*
X20064057Y-68794285D01*
X20064057Y-68794285D02*
X20159295Y-68746666D01*
X20159295Y-68746666D02*
X20302152Y-68746666D01*
X20302152Y-68746666D02*
X20397390Y-68794285D01*
X20397390Y-68794285D02*
X20445009Y-68841904D01*
X20445009Y-68841904D02*
X20492628Y-68937142D01*
X20492628Y-68937142D02*
X20492628Y-69318094D01*
X19968819Y-67841904D02*
X19968819Y-68318094D01*
X19968819Y-68318094D02*
X20445009Y-68365713D01*
X20445009Y-68365713D02*
X20397390Y-68318094D01*
X20397390Y-68318094D02*
X20349771Y-68222856D01*
X20349771Y-68222856D02*
X20349771Y-67984761D01*
X20349771Y-67984761D02*
X20397390Y-67889523D01*
X20397390Y-67889523D02*
X20445009Y-67841904D01*
X20445009Y-67841904D02*
X20540247Y-67794285D01*
X20540247Y-67794285D02*
X20778342Y-67794285D01*
X20778342Y-67794285D02*
X20873580Y-67841904D01*
X20873580Y-67841904D02*
X20921200Y-67889523D01*
X20921200Y-67889523D02*
X20968819Y-67984761D01*
X20968819Y-67984761D02*
X20968819Y-68222856D01*
X20968819Y-68222856D02*
X20921200Y-68318094D01*
X20921200Y-68318094D02*
X20873580Y-68365713D01*
X22264810Y-119675819D02*
X22264810Y-118675819D01*
X23312428Y-119580580D02*
X23264809Y-119628200D01*
X23264809Y-119628200D02*
X23121952Y-119675819D01*
X23121952Y-119675819D02*
X23026714Y-119675819D01*
X23026714Y-119675819D02*
X22883857Y-119628200D01*
X22883857Y-119628200D02*
X22788619Y-119532961D01*
X22788619Y-119532961D02*
X22741000Y-119437723D01*
X22741000Y-119437723D02*
X22693381Y-119247247D01*
X22693381Y-119247247D02*
X22693381Y-119104390D01*
X22693381Y-119104390D02*
X22741000Y-118913914D01*
X22741000Y-118913914D02*
X22788619Y-118818676D01*
X22788619Y-118818676D02*
X22883857Y-118723438D01*
X22883857Y-118723438D02*
X23026714Y-118675819D01*
X23026714Y-118675819D02*
X23121952Y-118675819D01*
X23121952Y-118675819D02*
X23264809Y-118723438D01*
X23264809Y-118723438D02*
X23312428Y-118771057D01*
X23645762Y-118675819D02*
X24264809Y-118675819D01*
X24264809Y-118675819D02*
X23931476Y-119056771D01*
X23931476Y-119056771D02*
X24074333Y-119056771D01*
X24074333Y-119056771D02*
X24169571Y-119104390D01*
X24169571Y-119104390D02*
X24217190Y-119152009D01*
X24217190Y-119152009D02*
X24264809Y-119247247D01*
X24264809Y-119247247D02*
X24264809Y-119485342D01*
X24264809Y-119485342D02*
X24217190Y-119580580D01*
X24217190Y-119580580D02*
X24169571Y-119628200D01*
X24169571Y-119628200D02*
X24074333Y-119675819D01*
X24074333Y-119675819D02*
X23788619Y-119675819D01*
X23788619Y-119675819D02*
X23693381Y-119628200D01*
X23693381Y-119628200D02*
X23645762Y-119580580D01*
X42778161Y-142198257D02*
X42682923Y-142150638D01*
X42682923Y-142150638D02*
X42587685Y-142055400D01*
X42587685Y-142055400D02*
X42444828Y-141912542D01*
X42444828Y-141912542D02*
X42349590Y-141864923D01*
X42349590Y-141864923D02*
X42254352Y-141864923D01*
X42301971Y-142103019D02*
X42206733Y-142055400D01*
X42206733Y-142055400D02*
X42111495Y-141960161D01*
X42111495Y-141960161D02*
X42063876Y-141769685D01*
X42063876Y-141769685D02*
X42063876Y-141436352D01*
X42063876Y-141436352D02*
X42111495Y-141245876D01*
X42111495Y-141245876D02*
X42206733Y-141150638D01*
X42206733Y-141150638D02*
X42301971Y-141103019D01*
X42301971Y-141103019D02*
X42492447Y-141103019D01*
X42492447Y-141103019D02*
X42587685Y-141150638D01*
X42587685Y-141150638D02*
X42682923Y-141245876D01*
X42682923Y-141245876D02*
X42730542Y-141436352D01*
X42730542Y-141436352D02*
X42730542Y-141769685D01*
X42730542Y-141769685D02*
X42682923Y-141960161D01*
X42682923Y-141960161D02*
X42587685Y-142055400D01*
X42587685Y-142055400D02*
X42492447Y-142103019D01*
X42492447Y-142103019D02*
X42301971Y-142103019D01*
X43111495Y-141198257D02*
X43159114Y-141150638D01*
X43159114Y-141150638D02*
X43254352Y-141103019D01*
X43254352Y-141103019D02*
X43492447Y-141103019D01*
X43492447Y-141103019D02*
X43587685Y-141150638D01*
X43587685Y-141150638D02*
X43635304Y-141198257D01*
X43635304Y-141198257D02*
X43682923Y-141293495D01*
X43682923Y-141293495D02*
X43682923Y-141388733D01*
X43682923Y-141388733D02*
X43635304Y-141531590D01*
X43635304Y-141531590D02*
X43063876Y-142103019D01*
X43063876Y-142103019D02*
X43682923Y-142103019D01*
X81009019Y-126366494D02*
X80009019Y-126366494D01*
X80009019Y-126366494D02*
X80009019Y-126128399D01*
X80009019Y-126128399D02*
X80056638Y-125985542D01*
X80056638Y-125985542D02*
X80151876Y-125890304D01*
X80151876Y-125890304D02*
X80247114Y-125842685D01*
X80247114Y-125842685D02*
X80437590Y-125795066D01*
X80437590Y-125795066D02*
X80580447Y-125795066D01*
X80580447Y-125795066D02*
X80770923Y-125842685D01*
X80770923Y-125842685D02*
X80866161Y-125890304D01*
X80866161Y-125890304D02*
X80961400Y-125985542D01*
X80961400Y-125985542D02*
X81009019Y-126128399D01*
X81009019Y-126128399D02*
X81009019Y-126366494D01*
X80009019Y-124937923D02*
X80009019Y-125128399D01*
X80009019Y-125128399D02*
X80056638Y-125223637D01*
X80056638Y-125223637D02*
X80104257Y-125271256D01*
X80104257Y-125271256D02*
X80247114Y-125366494D01*
X80247114Y-125366494D02*
X80437590Y-125414113D01*
X80437590Y-125414113D02*
X80818542Y-125414113D01*
X80818542Y-125414113D02*
X80913780Y-125366494D01*
X80913780Y-125366494D02*
X80961400Y-125318875D01*
X80961400Y-125318875D02*
X81009019Y-125223637D01*
X81009019Y-125223637D02*
X81009019Y-125033161D01*
X81009019Y-125033161D02*
X80961400Y-124937923D01*
X80961400Y-124937923D02*
X80913780Y-124890304D01*
X80913780Y-124890304D02*
X80818542Y-124842685D01*
X80818542Y-124842685D02*
X80580447Y-124842685D01*
X80580447Y-124842685D02*
X80485209Y-124890304D01*
X80485209Y-124890304D02*
X80437590Y-124937923D01*
X80437590Y-124937923D02*
X80389971Y-125033161D01*
X80389971Y-125033161D02*
X80389971Y-125223637D01*
X80389971Y-125223637D02*
X80437590Y-125318875D01*
X80437590Y-125318875D02*
X80485209Y-125366494D01*
X80485209Y-125366494D02*
X80580447Y-125414113D01*
X36187142Y-133456819D02*
X35853809Y-132980628D01*
X35615714Y-133456819D02*
X35615714Y-132456819D01*
X35615714Y-132456819D02*
X35996666Y-132456819D01*
X35996666Y-132456819D02*
X36091904Y-132504438D01*
X36091904Y-132504438D02*
X36139523Y-132552057D01*
X36139523Y-132552057D02*
X36187142Y-132647295D01*
X36187142Y-132647295D02*
X36187142Y-132790152D01*
X36187142Y-132790152D02*
X36139523Y-132885390D01*
X36139523Y-132885390D02*
X36091904Y-132933009D01*
X36091904Y-132933009D02*
X35996666Y-132980628D01*
X35996666Y-132980628D02*
X35615714Y-132980628D01*
X36568095Y-132552057D02*
X36615714Y-132504438D01*
X36615714Y-132504438D02*
X36710952Y-132456819D01*
X36710952Y-132456819D02*
X36949047Y-132456819D01*
X36949047Y-132456819D02*
X37044285Y-132504438D01*
X37044285Y-132504438D02*
X37091904Y-132552057D01*
X37091904Y-132552057D02*
X37139523Y-132647295D01*
X37139523Y-132647295D02*
X37139523Y-132742533D01*
X37139523Y-132742533D02*
X37091904Y-132885390D01*
X37091904Y-132885390D02*
X36520476Y-133456819D01*
X36520476Y-133456819D02*
X37139523Y-133456819D01*
X37996666Y-132790152D02*
X37996666Y-133456819D01*
X37758571Y-132409200D02*
X37520476Y-133123485D01*
X37520476Y-133123485D02*
X38139523Y-133123485D01*
X87577019Y-159997733D02*
X88291304Y-159997733D01*
X88291304Y-159997733D02*
X88434161Y-160045352D01*
X88434161Y-160045352D02*
X88529400Y-160140590D01*
X88529400Y-160140590D02*
X88577019Y-160283447D01*
X88577019Y-160283447D02*
X88577019Y-160378685D01*
X87577019Y-159616780D02*
X87577019Y-158997733D01*
X87577019Y-158997733D02*
X87957971Y-159331066D01*
X87957971Y-159331066D02*
X87957971Y-159188209D01*
X87957971Y-159188209D02*
X88005590Y-159092971D01*
X88005590Y-159092971D02*
X88053209Y-159045352D01*
X88053209Y-159045352D02*
X88148447Y-158997733D01*
X88148447Y-158997733D02*
X88386542Y-158997733D01*
X88386542Y-158997733D02*
X88481780Y-159045352D01*
X88481780Y-159045352D02*
X88529400Y-159092971D01*
X88529400Y-159092971D02*
X88577019Y-159188209D01*
X88577019Y-159188209D02*
X88577019Y-159473923D01*
X88577019Y-159473923D02*
X88529400Y-159569161D01*
X88529400Y-159569161D02*
X88481780Y-159616780D01*
X76371842Y-150662819D02*
X76038509Y-150186628D01*
X75800414Y-150662819D02*
X75800414Y-149662819D01*
X75800414Y-149662819D02*
X76181366Y-149662819D01*
X76181366Y-149662819D02*
X76276604Y-149710438D01*
X76276604Y-149710438D02*
X76324223Y-149758057D01*
X76324223Y-149758057D02*
X76371842Y-149853295D01*
X76371842Y-149853295D02*
X76371842Y-149996152D01*
X76371842Y-149996152D02*
X76324223Y-150091390D01*
X76324223Y-150091390D02*
X76276604Y-150139009D01*
X76276604Y-150139009D02*
X76181366Y-150186628D01*
X76181366Y-150186628D02*
X75800414Y-150186628D01*
X77324223Y-150662819D02*
X76752795Y-150662819D01*
X77038509Y-150662819D02*
X77038509Y-149662819D01*
X77038509Y-149662819D02*
X76943271Y-149805676D01*
X76943271Y-149805676D02*
X76848033Y-149900914D01*
X76848033Y-149900914D02*
X76752795Y-149948533D01*
X77895652Y-150091390D02*
X77800414Y-150043771D01*
X77800414Y-150043771D02*
X77752795Y-149996152D01*
X77752795Y-149996152D02*
X77705176Y-149900914D01*
X77705176Y-149900914D02*
X77705176Y-149853295D01*
X77705176Y-149853295D02*
X77752795Y-149758057D01*
X77752795Y-149758057D02*
X77800414Y-149710438D01*
X77800414Y-149710438D02*
X77895652Y-149662819D01*
X77895652Y-149662819D02*
X78086128Y-149662819D01*
X78086128Y-149662819D02*
X78181366Y-149710438D01*
X78181366Y-149710438D02*
X78228985Y-149758057D01*
X78228985Y-149758057D02*
X78276604Y-149853295D01*
X78276604Y-149853295D02*
X78276604Y-149900914D01*
X78276604Y-149900914D02*
X78228985Y-149996152D01*
X78228985Y-149996152D02*
X78181366Y-150043771D01*
X78181366Y-150043771D02*
X78086128Y-150091390D01*
X78086128Y-150091390D02*
X77895652Y-150091390D01*
X77895652Y-150091390D02*
X77800414Y-150139009D01*
X77800414Y-150139009D02*
X77752795Y-150186628D01*
X77752795Y-150186628D02*
X77705176Y-150281866D01*
X77705176Y-150281866D02*
X77705176Y-150472342D01*
X77705176Y-150472342D02*
X77752795Y-150567580D01*
X77752795Y-150567580D02*
X77800414Y-150615200D01*
X77800414Y-150615200D02*
X77895652Y-150662819D01*
X77895652Y-150662819D02*
X78086128Y-150662819D01*
X78086128Y-150662819D02*
X78181366Y-150615200D01*
X78181366Y-150615200D02*
X78228985Y-150567580D01*
X78228985Y-150567580D02*
X78276604Y-150472342D01*
X78276604Y-150472342D02*
X78276604Y-150281866D01*
X78276604Y-150281866D02*
X78228985Y-150186628D01*
X78228985Y-150186628D02*
X78181366Y-150139009D01*
X78181366Y-150139009D02*
X78086128Y-150091390D01*
X44143819Y-151099685D02*
X43143819Y-151099685D01*
X43143819Y-151099685D02*
X43143819Y-150861590D01*
X43143819Y-150861590D02*
X43191438Y-150718733D01*
X43191438Y-150718733D02*
X43286676Y-150623495D01*
X43286676Y-150623495D02*
X43381914Y-150575876D01*
X43381914Y-150575876D02*
X43572390Y-150528257D01*
X43572390Y-150528257D02*
X43715247Y-150528257D01*
X43715247Y-150528257D02*
X43905723Y-150575876D01*
X43905723Y-150575876D02*
X44000961Y-150623495D01*
X44000961Y-150623495D02*
X44096200Y-150718733D01*
X44096200Y-150718733D02*
X44143819Y-150861590D01*
X44143819Y-150861590D02*
X44143819Y-151099685D01*
X44143819Y-149575876D02*
X44143819Y-150147304D01*
X44143819Y-149861590D02*
X43143819Y-149861590D01*
X43143819Y-149861590D02*
X43286676Y-149956828D01*
X43286676Y-149956828D02*
X43381914Y-150052066D01*
X43381914Y-150052066D02*
X43429533Y-150147304D01*
X44143819Y-149099685D02*
X44143819Y-148909209D01*
X44143819Y-148909209D02*
X44096200Y-148813971D01*
X44096200Y-148813971D02*
X44048580Y-148766352D01*
X44048580Y-148766352D02*
X43905723Y-148671114D01*
X43905723Y-148671114D02*
X43715247Y-148623495D01*
X43715247Y-148623495D02*
X43334295Y-148623495D01*
X43334295Y-148623495D02*
X43239057Y-148671114D01*
X43239057Y-148671114D02*
X43191438Y-148718733D01*
X43191438Y-148718733D02*
X43143819Y-148813971D01*
X43143819Y-148813971D02*
X43143819Y-149004447D01*
X43143819Y-149004447D02*
X43191438Y-149099685D01*
X43191438Y-149099685D02*
X43239057Y-149147304D01*
X43239057Y-149147304D02*
X43334295Y-149194923D01*
X43334295Y-149194923D02*
X43572390Y-149194923D01*
X43572390Y-149194923D02*
X43667628Y-149147304D01*
X43667628Y-149147304D02*
X43715247Y-149099685D01*
X43715247Y-149099685D02*
X43762866Y-149004447D01*
X43762866Y-149004447D02*
X43762866Y-148813971D01*
X43762866Y-148813971D02*
X43715247Y-148718733D01*
X43715247Y-148718733D02*
X43667628Y-148671114D01*
X43667628Y-148671114D02*
X43572390Y-148623495D01*
X50239819Y-129325666D02*
X49763628Y-129658999D01*
X50239819Y-129897094D02*
X49239819Y-129897094D01*
X49239819Y-129897094D02*
X49239819Y-129516142D01*
X49239819Y-129516142D02*
X49287438Y-129420904D01*
X49287438Y-129420904D02*
X49335057Y-129373285D01*
X49335057Y-129373285D02*
X49430295Y-129325666D01*
X49430295Y-129325666D02*
X49573152Y-129325666D01*
X49573152Y-129325666D02*
X49668390Y-129373285D01*
X49668390Y-129373285D02*
X49716009Y-129420904D01*
X49716009Y-129420904D02*
X49763628Y-129516142D01*
X49763628Y-129516142D02*
X49763628Y-129897094D01*
X50239819Y-128373285D02*
X50239819Y-128944713D01*
X50239819Y-128658999D02*
X49239819Y-128658999D01*
X49239819Y-128658999D02*
X49382676Y-128754237D01*
X49382676Y-128754237D02*
X49477914Y-128849475D01*
X49477914Y-128849475D02*
X49525533Y-128944713D01*
X74437419Y-130468666D02*
X73961228Y-130801999D01*
X74437419Y-131040094D02*
X73437419Y-131040094D01*
X73437419Y-131040094D02*
X73437419Y-130659142D01*
X73437419Y-130659142D02*
X73485038Y-130563904D01*
X73485038Y-130563904D02*
X73532657Y-130516285D01*
X73532657Y-130516285D02*
X73627895Y-130468666D01*
X73627895Y-130468666D02*
X73770752Y-130468666D01*
X73770752Y-130468666D02*
X73865990Y-130516285D01*
X73865990Y-130516285D02*
X73913609Y-130563904D01*
X73913609Y-130563904D02*
X73961228Y-130659142D01*
X73961228Y-130659142D02*
X73961228Y-131040094D01*
X73770752Y-129611523D02*
X74437419Y-129611523D01*
X73389800Y-129849618D02*
X74104085Y-130087713D01*
X74104085Y-130087713D02*
X74104085Y-129468666D01*
X72451619Y-159296404D02*
X73261142Y-159296404D01*
X73261142Y-159296404D02*
X73356380Y-159248785D01*
X73356380Y-159248785D02*
X73404000Y-159201166D01*
X73404000Y-159201166D02*
X73451619Y-159105928D01*
X73451619Y-159105928D02*
X73451619Y-158915452D01*
X73451619Y-158915452D02*
X73404000Y-158820214D01*
X73404000Y-158820214D02*
X73356380Y-158772595D01*
X73356380Y-158772595D02*
X73261142Y-158724976D01*
X73261142Y-158724976D02*
X72451619Y-158724976D01*
X72546857Y-158296404D02*
X72499238Y-158248785D01*
X72499238Y-158248785D02*
X72451619Y-158153547D01*
X72451619Y-158153547D02*
X72451619Y-157915452D01*
X72451619Y-157915452D02*
X72499238Y-157820214D01*
X72499238Y-157820214D02*
X72546857Y-157772595D01*
X72546857Y-157772595D02*
X72642095Y-157724976D01*
X72642095Y-157724976D02*
X72737333Y-157724976D01*
X72737333Y-157724976D02*
X72880190Y-157772595D01*
X72880190Y-157772595D02*
X73451619Y-158344023D01*
X73451619Y-158344023D02*
X73451619Y-157724976D01*
X76346442Y-147538619D02*
X76013109Y-147062428D01*
X75775014Y-147538619D02*
X75775014Y-146538619D01*
X75775014Y-146538619D02*
X76155966Y-146538619D01*
X76155966Y-146538619D02*
X76251204Y-146586238D01*
X76251204Y-146586238D02*
X76298823Y-146633857D01*
X76298823Y-146633857D02*
X76346442Y-146729095D01*
X76346442Y-146729095D02*
X76346442Y-146871952D01*
X76346442Y-146871952D02*
X76298823Y-146967190D01*
X76298823Y-146967190D02*
X76251204Y-147014809D01*
X76251204Y-147014809D02*
X76155966Y-147062428D01*
X76155966Y-147062428D02*
X75775014Y-147062428D01*
X76727395Y-146633857D02*
X76775014Y-146586238D01*
X76775014Y-146586238D02*
X76870252Y-146538619D01*
X76870252Y-146538619D02*
X77108347Y-146538619D01*
X77108347Y-146538619D02*
X77203585Y-146586238D01*
X77203585Y-146586238D02*
X77251204Y-146633857D01*
X77251204Y-146633857D02*
X77298823Y-146729095D01*
X77298823Y-146729095D02*
X77298823Y-146824333D01*
X77298823Y-146824333D02*
X77251204Y-146967190D01*
X77251204Y-146967190D02*
X76679776Y-147538619D01*
X76679776Y-147538619D02*
X77298823Y-147538619D01*
X77917871Y-146538619D02*
X78013109Y-146538619D01*
X78013109Y-146538619D02*
X78108347Y-146586238D01*
X78108347Y-146586238D02*
X78155966Y-146633857D01*
X78155966Y-146633857D02*
X78203585Y-146729095D01*
X78203585Y-146729095D02*
X78251204Y-146919571D01*
X78251204Y-146919571D02*
X78251204Y-147157666D01*
X78251204Y-147157666D02*
X78203585Y-147348142D01*
X78203585Y-147348142D02*
X78155966Y-147443380D01*
X78155966Y-147443380D02*
X78108347Y-147491000D01*
X78108347Y-147491000D02*
X78013109Y-147538619D01*
X78013109Y-147538619D02*
X77917871Y-147538619D01*
X77917871Y-147538619D02*
X77822633Y-147491000D01*
X77822633Y-147491000D02*
X77775014Y-147443380D01*
X77775014Y-147443380D02*
X77727395Y-147348142D01*
X77727395Y-147348142D02*
X77679776Y-147157666D01*
X77679776Y-147157666D02*
X77679776Y-146919571D01*
X77679776Y-146919571D02*
X77727395Y-146729095D01*
X77727395Y-146729095D02*
X77775014Y-146633857D01*
X77775014Y-146633857D02*
X77822633Y-146586238D01*
X77822633Y-146586238D02*
X77917871Y-146538619D01*
X46982142Y-133996580D02*
X46934523Y-134044200D01*
X46934523Y-134044200D02*
X46791666Y-134091819D01*
X46791666Y-134091819D02*
X46696428Y-134091819D01*
X46696428Y-134091819D02*
X46553571Y-134044200D01*
X46553571Y-134044200D02*
X46458333Y-133948961D01*
X46458333Y-133948961D02*
X46410714Y-133853723D01*
X46410714Y-133853723D02*
X46363095Y-133663247D01*
X46363095Y-133663247D02*
X46363095Y-133520390D01*
X46363095Y-133520390D02*
X46410714Y-133329914D01*
X46410714Y-133329914D02*
X46458333Y-133234676D01*
X46458333Y-133234676D02*
X46553571Y-133139438D01*
X46553571Y-133139438D02*
X46696428Y-133091819D01*
X46696428Y-133091819D02*
X46791666Y-133091819D01*
X46791666Y-133091819D02*
X46934523Y-133139438D01*
X46934523Y-133139438D02*
X46982142Y-133187057D01*
X47363095Y-133187057D02*
X47410714Y-133139438D01*
X47410714Y-133139438D02*
X47505952Y-133091819D01*
X47505952Y-133091819D02*
X47744047Y-133091819D01*
X47744047Y-133091819D02*
X47839285Y-133139438D01*
X47839285Y-133139438D02*
X47886904Y-133187057D01*
X47886904Y-133187057D02*
X47934523Y-133282295D01*
X47934523Y-133282295D02*
X47934523Y-133377533D01*
X47934523Y-133377533D02*
X47886904Y-133520390D01*
X47886904Y-133520390D02*
X47315476Y-134091819D01*
X47315476Y-134091819D02*
X47934523Y-134091819D01*
X48553571Y-133091819D02*
X48648809Y-133091819D01*
X48648809Y-133091819D02*
X48744047Y-133139438D01*
X48744047Y-133139438D02*
X48791666Y-133187057D01*
X48791666Y-133187057D02*
X48839285Y-133282295D01*
X48839285Y-133282295D02*
X48886904Y-133472771D01*
X48886904Y-133472771D02*
X48886904Y-133710866D01*
X48886904Y-133710866D02*
X48839285Y-133901342D01*
X48839285Y-133901342D02*
X48791666Y-133996580D01*
X48791666Y-133996580D02*
X48744047Y-134044200D01*
X48744047Y-134044200D02*
X48648809Y-134091819D01*
X48648809Y-134091819D02*
X48553571Y-134091819D01*
X48553571Y-134091819D02*
X48458333Y-134044200D01*
X48458333Y-134044200D02*
X48410714Y-133996580D01*
X48410714Y-133996580D02*
X48363095Y-133901342D01*
X48363095Y-133901342D02*
X48315476Y-133710866D01*
X48315476Y-133710866D02*
X48315476Y-133472771D01*
X48315476Y-133472771D02*
X48363095Y-133282295D01*
X48363095Y-133282295D02*
X48410714Y-133187057D01*
X48410714Y-133187057D02*
X48458333Y-133139438D01*
X48458333Y-133139438D02*
X48553571Y-133091819D01*
X36200522Y-132882819D02*
X35867189Y-132406628D01*
X35629094Y-132882819D02*
X35629094Y-131882819D01*
X35629094Y-131882819D02*
X36010046Y-131882819D01*
X36010046Y-131882819D02*
X36105284Y-131930438D01*
X36105284Y-131930438D02*
X36152903Y-131978057D01*
X36152903Y-131978057D02*
X36200522Y-132073295D01*
X36200522Y-132073295D02*
X36200522Y-132216152D01*
X36200522Y-132216152D02*
X36152903Y-132311390D01*
X36152903Y-132311390D02*
X36105284Y-132359009D01*
X36105284Y-132359009D02*
X36010046Y-132406628D01*
X36010046Y-132406628D02*
X35629094Y-132406628D01*
X36581475Y-131978057D02*
X36629094Y-131930438D01*
X36629094Y-131930438D02*
X36724332Y-131882819D01*
X36724332Y-131882819D02*
X36962427Y-131882819D01*
X36962427Y-131882819D02*
X37057665Y-131930438D01*
X37057665Y-131930438D02*
X37105284Y-131978057D01*
X37105284Y-131978057D02*
X37152903Y-132073295D01*
X37152903Y-132073295D02*
X37152903Y-132168533D01*
X37152903Y-132168533D02*
X37105284Y-132311390D01*
X37105284Y-132311390D02*
X36533856Y-132882819D01*
X36533856Y-132882819D02*
X37152903Y-132882819D01*
X37486237Y-131882819D02*
X38105284Y-131882819D01*
X38105284Y-131882819D02*
X37771951Y-132263771D01*
X37771951Y-132263771D02*
X37914808Y-132263771D01*
X37914808Y-132263771D02*
X38010046Y-132311390D01*
X38010046Y-132311390D02*
X38057665Y-132359009D01*
X38057665Y-132359009D02*
X38105284Y-132454247D01*
X38105284Y-132454247D02*
X38105284Y-132692342D01*
X38105284Y-132692342D02*
X38057665Y-132787580D01*
X38057665Y-132787580D02*
X38010046Y-132835200D01*
X38010046Y-132835200D02*
X37914808Y-132882819D01*
X37914808Y-132882819D02*
X37629094Y-132882819D01*
X37629094Y-132882819D02*
X37533856Y-132835200D01*
X37533856Y-132835200D02*
X37486237Y-132787580D01*
X89569819Y-78883333D02*
X90284104Y-78883333D01*
X90284104Y-78883333D02*
X90426961Y-78930952D01*
X90426961Y-78930952D02*
X90522200Y-79026190D01*
X90522200Y-79026190D02*
X90569819Y-79169047D01*
X90569819Y-79169047D02*
X90569819Y-79264285D01*
X89998390Y-78264285D02*
X89950771Y-78359523D01*
X89950771Y-78359523D02*
X89903152Y-78407142D01*
X89903152Y-78407142D02*
X89807914Y-78454761D01*
X89807914Y-78454761D02*
X89760295Y-78454761D01*
X89760295Y-78454761D02*
X89665057Y-78407142D01*
X89665057Y-78407142D02*
X89617438Y-78359523D01*
X89617438Y-78359523D02*
X89569819Y-78264285D01*
X89569819Y-78264285D02*
X89569819Y-78073809D01*
X89569819Y-78073809D02*
X89617438Y-77978571D01*
X89617438Y-77978571D02*
X89665057Y-77930952D01*
X89665057Y-77930952D02*
X89760295Y-77883333D01*
X89760295Y-77883333D02*
X89807914Y-77883333D01*
X89807914Y-77883333D02*
X89903152Y-77930952D01*
X89903152Y-77930952D02*
X89950771Y-77978571D01*
X89950771Y-77978571D02*
X89998390Y-78073809D01*
X89998390Y-78073809D02*
X89998390Y-78264285D01*
X89998390Y-78264285D02*
X90046009Y-78359523D01*
X90046009Y-78359523D02*
X90093628Y-78407142D01*
X90093628Y-78407142D02*
X90188866Y-78454761D01*
X90188866Y-78454761D02*
X90379342Y-78454761D01*
X90379342Y-78454761D02*
X90474580Y-78407142D01*
X90474580Y-78407142D02*
X90522200Y-78359523D01*
X90522200Y-78359523D02*
X90569819Y-78264285D01*
X90569819Y-78264285D02*
X90569819Y-78073809D01*
X90569819Y-78073809D02*
X90522200Y-77978571D01*
X90522200Y-77978571D02*
X90474580Y-77930952D01*
X90474580Y-77930952D02*
X90379342Y-77883333D01*
X90379342Y-77883333D02*
X90188866Y-77883333D01*
X90188866Y-77883333D02*
X90093628Y-77930952D01*
X90093628Y-77930952D02*
X90046009Y-77978571D01*
X90046009Y-77978571D02*
X89998390Y-78073809D01*
X20968819Y-97702666D02*
X20492628Y-98035999D01*
X20968819Y-98274094D02*
X19968819Y-98274094D01*
X19968819Y-98274094D02*
X19968819Y-97893142D01*
X19968819Y-97893142D02*
X20016438Y-97797904D01*
X20016438Y-97797904D02*
X20064057Y-97750285D01*
X20064057Y-97750285D02*
X20159295Y-97702666D01*
X20159295Y-97702666D02*
X20302152Y-97702666D01*
X20302152Y-97702666D02*
X20397390Y-97750285D01*
X20397390Y-97750285D02*
X20445009Y-97797904D01*
X20445009Y-97797904D02*
X20492628Y-97893142D01*
X20492628Y-97893142D02*
X20492628Y-98274094D01*
X19968819Y-96845523D02*
X19968819Y-97035999D01*
X19968819Y-97035999D02*
X20016438Y-97131237D01*
X20016438Y-97131237D02*
X20064057Y-97178856D01*
X20064057Y-97178856D02*
X20206914Y-97274094D01*
X20206914Y-97274094D02*
X20397390Y-97321713D01*
X20397390Y-97321713D02*
X20778342Y-97321713D01*
X20778342Y-97321713D02*
X20873580Y-97274094D01*
X20873580Y-97274094D02*
X20921200Y-97226475D01*
X20921200Y-97226475D02*
X20968819Y-97131237D01*
X20968819Y-97131237D02*
X20968819Y-96940761D01*
X20968819Y-96940761D02*
X20921200Y-96845523D01*
X20921200Y-96845523D02*
X20873580Y-96797904D01*
X20873580Y-96797904D02*
X20778342Y-96750285D01*
X20778342Y-96750285D02*
X20540247Y-96750285D01*
X20540247Y-96750285D02*
X20445009Y-96797904D01*
X20445009Y-96797904D02*
X20397390Y-96845523D01*
X20397390Y-96845523D02*
X20349771Y-96940761D01*
X20349771Y-96940761D02*
X20349771Y-97131237D01*
X20349771Y-97131237D02*
X20397390Y-97226475D01*
X20397390Y-97226475D02*
X20445009Y-97274094D01*
X20445009Y-97274094D02*
X20540247Y-97321713D01*
X49007142Y-147304819D02*
X48673809Y-146828628D01*
X48435714Y-147304819D02*
X48435714Y-146304819D01*
X48435714Y-146304819D02*
X48816666Y-146304819D01*
X48816666Y-146304819D02*
X48911904Y-146352438D01*
X48911904Y-146352438D02*
X48959523Y-146400057D01*
X48959523Y-146400057D02*
X49007142Y-146495295D01*
X49007142Y-146495295D02*
X49007142Y-146638152D01*
X49007142Y-146638152D02*
X48959523Y-146733390D01*
X48959523Y-146733390D02*
X48911904Y-146781009D01*
X48911904Y-146781009D02*
X48816666Y-146828628D01*
X48816666Y-146828628D02*
X48435714Y-146828628D01*
X49388095Y-146400057D02*
X49435714Y-146352438D01*
X49435714Y-146352438D02*
X49530952Y-146304819D01*
X49530952Y-146304819D02*
X49769047Y-146304819D01*
X49769047Y-146304819D02*
X49864285Y-146352438D01*
X49864285Y-146352438D02*
X49911904Y-146400057D01*
X49911904Y-146400057D02*
X49959523Y-146495295D01*
X49959523Y-146495295D02*
X49959523Y-146590533D01*
X49959523Y-146590533D02*
X49911904Y-146733390D01*
X49911904Y-146733390D02*
X49340476Y-147304819D01*
X49340476Y-147304819D02*
X49959523Y-147304819D01*
X50530952Y-146733390D02*
X50435714Y-146685771D01*
X50435714Y-146685771D02*
X50388095Y-146638152D01*
X50388095Y-146638152D02*
X50340476Y-146542914D01*
X50340476Y-146542914D02*
X50340476Y-146495295D01*
X50340476Y-146495295D02*
X50388095Y-146400057D01*
X50388095Y-146400057D02*
X50435714Y-146352438D01*
X50435714Y-146352438D02*
X50530952Y-146304819D01*
X50530952Y-146304819D02*
X50721428Y-146304819D01*
X50721428Y-146304819D02*
X50816666Y-146352438D01*
X50816666Y-146352438D02*
X50864285Y-146400057D01*
X50864285Y-146400057D02*
X50911904Y-146495295D01*
X50911904Y-146495295D02*
X50911904Y-146542914D01*
X50911904Y-146542914D02*
X50864285Y-146638152D01*
X50864285Y-146638152D02*
X50816666Y-146685771D01*
X50816666Y-146685771D02*
X50721428Y-146733390D01*
X50721428Y-146733390D02*
X50530952Y-146733390D01*
X50530952Y-146733390D02*
X50435714Y-146781009D01*
X50435714Y-146781009D02*
X50388095Y-146828628D01*
X50388095Y-146828628D02*
X50340476Y-146923866D01*
X50340476Y-146923866D02*
X50340476Y-147114342D01*
X50340476Y-147114342D02*
X50388095Y-147209580D01*
X50388095Y-147209580D02*
X50435714Y-147257200D01*
X50435714Y-147257200D02*
X50530952Y-147304819D01*
X50530952Y-147304819D02*
X50721428Y-147304819D01*
X50721428Y-147304819D02*
X50816666Y-147257200D01*
X50816666Y-147257200D02*
X50864285Y-147209580D01*
X50864285Y-147209580D02*
X50911904Y-147114342D01*
X50911904Y-147114342D02*
X50911904Y-146923866D01*
X50911904Y-146923866D02*
X50864285Y-146828628D01*
X50864285Y-146828628D02*
X50816666Y-146781009D01*
X50816666Y-146781009D02*
X50721428Y-146733390D01*
X46759819Y-151483333D02*
X47474104Y-151483333D01*
X47474104Y-151483333D02*
X47616961Y-151530952D01*
X47616961Y-151530952D02*
X47712200Y-151626190D01*
X47712200Y-151626190D02*
X47759819Y-151769047D01*
X47759819Y-151769047D02*
X47759819Y-151864285D01*
X47759819Y-150959523D02*
X47759819Y-150769047D01*
X47759819Y-150769047D02*
X47712200Y-150673809D01*
X47712200Y-150673809D02*
X47664580Y-150626190D01*
X47664580Y-150626190D02*
X47521723Y-150530952D01*
X47521723Y-150530952D02*
X47331247Y-150483333D01*
X47331247Y-150483333D02*
X46950295Y-150483333D01*
X46950295Y-150483333D02*
X46855057Y-150530952D01*
X46855057Y-150530952D02*
X46807438Y-150578571D01*
X46807438Y-150578571D02*
X46759819Y-150673809D01*
X46759819Y-150673809D02*
X46759819Y-150864285D01*
X46759819Y-150864285D02*
X46807438Y-150959523D01*
X46807438Y-150959523D02*
X46855057Y-151007142D01*
X46855057Y-151007142D02*
X46950295Y-151054761D01*
X46950295Y-151054761D02*
X47188390Y-151054761D01*
X47188390Y-151054761D02*
X47283628Y-151007142D01*
X47283628Y-151007142D02*
X47331247Y-150959523D01*
X47331247Y-150959523D02*
X47378866Y-150864285D01*
X47378866Y-150864285D02*
X47378866Y-150673809D01*
X47378866Y-150673809D02*
X47331247Y-150578571D01*
X47331247Y-150578571D02*
X47283628Y-150530952D01*
X47283628Y-150530952D02*
X47188390Y-150483333D01*
X42138695Y-160799819D02*
X42138695Y-161609342D01*
X42138695Y-161609342D02*
X42186314Y-161704580D01*
X42186314Y-161704580D02*
X42233933Y-161752200D01*
X42233933Y-161752200D02*
X42329171Y-161799819D01*
X42329171Y-161799819D02*
X42519647Y-161799819D01*
X42519647Y-161799819D02*
X42614885Y-161752200D01*
X42614885Y-161752200D02*
X42662504Y-161704580D01*
X42662504Y-161704580D02*
X42710123Y-161609342D01*
X42710123Y-161609342D02*
X42710123Y-160799819D01*
X43614885Y-161133152D02*
X43614885Y-161799819D01*
X43376790Y-160752200D02*
X43138695Y-161466485D01*
X43138695Y-161466485D02*
X43757742Y-161466485D01*
X30421619Y-153219389D02*
X29421619Y-153219389D01*
X30326380Y-152171771D02*
X30374000Y-152219390D01*
X30374000Y-152219390D02*
X30421619Y-152362247D01*
X30421619Y-152362247D02*
X30421619Y-152457485D01*
X30421619Y-152457485D02*
X30374000Y-152600342D01*
X30374000Y-152600342D02*
X30278761Y-152695580D01*
X30278761Y-152695580D02*
X30183523Y-152743199D01*
X30183523Y-152743199D02*
X29993047Y-152790818D01*
X29993047Y-152790818D02*
X29850190Y-152790818D01*
X29850190Y-152790818D02*
X29659714Y-152743199D01*
X29659714Y-152743199D02*
X29564476Y-152695580D01*
X29564476Y-152695580D02*
X29469238Y-152600342D01*
X29469238Y-152600342D02*
X29421619Y-152457485D01*
X29421619Y-152457485D02*
X29421619Y-152362247D01*
X29421619Y-152362247D02*
X29469238Y-152219390D01*
X29469238Y-152219390D02*
X29516857Y-152171771D01*
X29516857Y-151790818D02*
X29469238Y-151743199D01*
X29469238Y-151743199D02*
X29421619Y-151647961D01*
X29421619Y-151647961D02*
X29421619Y-151409866D01*
X29421619Y-151409866D02*
X29469238Y-151314628D01*
X29469238Y-151314628D02*
X29516857Y-151267009D01*
X29516857Y-151267009D02*
X29612095Y-151219390D01*
X29612095Y-151219390D02*
X29707333Y-151219390D01*
X29707333Y-151219390D02*
X29850190Y-151267009D01*
X29850190Y-151267009D02*
X30421619Y-151838437D01*
X30421619Y-151838437D02*
X30421619Y-151219390D01*
X22058019Y-159334104D02*
X22867542Y-159334104D01*
X22867542Y-159334104D02*
X22962780Y-159286485D01*
X22962780Y-159286485D02*
X23010400Y-159238866D01*
X23010400Y-159238866D02*
X23058019Y-159143628D01*
X23058019Y-159143628D02*
X23058019Y-158953152D01*
X23058019Y-158953152D02*
X23010400Y-158857914D01*
X23010400Y-158857914D02*
X22962780Y-158810295D01*
X22962780Y-158810295D02*
X22867542Y-158762676D01*
X22867542Y-158762676D02*
X22058019Y-158762676D01*
X23058019Y-157762676D02*
X23058019Y-158334104D01*
X23058019Y-158048390D02*
X22058019Y-158048390D01*
X22058019Y-158048390D02*
X22200876Y-158143628D01*
X22200876Y-158143628D02*
X22296114Y-158238866D01*
X22296114Y-158238866D02*
X22343733Y-158334104D01*
X76348342Y-149088019D02*
X76015009Y-148611828D01*
X75776914Y-149088019D02*
X75776914Y-148088019D01*
X75776914Y-148088019D02*
X76157866Y-148088019D01*
X76157866Y-148088019D02*
X76253104Y-148135638D01*
X76253104Y-148135638D02*
X76300723Y-148183257D01*
X76300723Y-148183257D02*
X76348342Y-148278495D01*
X76348342Y-148278495D02*
X76348342Y-148421352D01*
X76348342Y-148421352D02*
X76300723Y-148516590D01*
X76300723Y-148516590D02*
X76253104Y-148564209D01*
X76253104Y-148564209D02*
X76157866Y-148611828D01*
X76157866Y-148611828D02*
X75776914Y-148611828D01*
X77300723Y-149088019D02*
X76729295Y-149088019D01*
X77015009Y-149088019D02*
X77015009Y-148088019D01*
X77015009Y-148088019D02*
X76919771Y-148230876D01*
X76919771Y-148230876D02*
X76824533Y-148326114D01*
X76824533Y-148326114D02*
X76729295Y-148373733D01*
X77776914Y-149088019D02*
X77967390Y-149088019D01*
X77967390Y-149088019D02*
X78062628Y-149040400D01*
X78062628Y-149040400D02*
X78110247Y-148992780D01*
X78110247Y-148992780D02*
X78205485Y-148849923D01*
X78205485Y-148849923D02*
X78253104Y-148659447D01*
X78253104Y-148659447D02*
X78253104Y-148278495D01*
X78253104Y-148278495D02*
X78205485Y-148183257D01*
X78205485Y-148183257D02*
X78157866Y-148135638D01*
X78157866Y-148135638D02*
X78062628Y-148088019D01*
X78062628Y-148088019D02*
X77872152Y-148088019D01*
X77872152Y-148088019D02*
X77776914Y-148135638D01*
X77776914Y-148135638D02*
X77729295Y-148183257D01*
X77729295Y-148183257D02*
X77681676Y-148278495D01*
X77681676Y-148278495D02*
X77681676Y-148516590D01*
X77681676Y-148516590D02*
X77729295Y-148611828D01*
X77729295Y-148611828D02*
X77776914Y-148659447D01*
X77776914Y-148659447D02*
X77872152Y-148707066D01*
X77872152Y-148707066D02*
X78062628Y-148707066D01*
X78062628Y-148707066D02*
X78157866Y-148659447D01*
X78157866Y-148659447D02*
X78205485Y-148611828D01*
X78205485Y-148611828D02*
X78253104Y-148516590D01*
X83616666Y-103754819D02*
X83616666Y-104469104D01*
X83616666Y-104469104D02*
X83569047Y-104611961D01*
X83569047Y-104611961D02*
X83473809Y-104707200D01*
X83473809Y-104707200D02*
X83330952Y-104754819D01*
X83330952Y-104754819D02*
X83235714Y-104754819D01*
X84521428Y-103754819D02*
X84330952Y-103754819D01*
X84330952Y-103754819D02*
X84235714Y-103802438D01*
X84235714Y-103802438D02*
X84188095Y-103850057D01*
X84188095Y-103850057D02*
X84092857Y-103992914D01*
X84092857Y-103992914D02*
X84045238Y-104183390D01*
X84045238Y-104183390D02*
X84045238Y-104564342D01*
X84045238Y-104564342D02*
X84092857Y-104659580D01*
X84092857Y-104659580D02*
X84140476Y-104707200D01*
X84140476Y-104707200D02*
X84235714Y-104754819D01*
X84235714Y-104754819D02*
X84426190Y-104754819D01*
X84426190Y-104754819D02*
X84521428Y-104707200D01*
X84521428Y-104707200D02*
X84569047Y-104659580D01*
X84569047Y-104659580D02*
X84616666Y-104564342D01*
X84616666Y-104564342D02*
X84616666Y-104326247D01*
X84616666Y-104326247D02*
X84569047Y-104231009D01*
X84569047Y-104231009D02*
X84521428Y-104183390D01*
X84521428Y-104183390D02*
X84426190Y-104135771D01*
X84426190Y-104135771D02*
X84235714Y-104135771D01*
X84235714Y-104135771D02*
X84140476Y-104183390D01*
X84140476Y-104183390D02*
X84092857Y-104231009D01*
X84092857Y-104231009D02*
X84045238Y-104326247D01*
X75582542Y-132406580D02*
X75534923Y-132454200D01*
X75534923Y-132454200D02*
X75392066Y-132501819D01*
X75392066Y-132501819D02*
X75296828Y-132501819D01*
X75296828Y-132501819D02*
X75153971Y-132454200D01*
X75153971Y-132454200D02*
X75058733Y-132358961D01*
X75058733Y-132358961D02*
X75011114Y-132263723D01*
X75011114Y-132263723D02*
X74963495Y-132073247D01*
X74963495Y-132073247D02*
X74963495Y-131930390D01*
X74963495Y-131930390D02*
X75011114Y-131739914D01*
X75011114Y-131739914D02*
X75058733Y-131644676D01*
X75058733Y-131644676D02*
X75153971Y-131549438D01*
X75153971Y-131549438D02*
X75296828Y-131501819D01*
X75296828Y-131501819D02*
X75392066Y-131501819D01*
X75392066Y-131501819D02*
X75534923Y-131549438D01*
X75534923Y-131549438D02*
X75582542Y-131597057D01*
X75963495Y-131597057D02*
X76011114Y-131549438D01*
X76011114Y-131549438D02*
X76106352Y-131501819D01*
X76106352Y-131501819D02*
X76344447Y-131501819D01*
X76344447Y-131501819D02*
X76439685Y-131549438D01*
X76439685Y-131549438D02*
X76487304Y-131597057D01*
X76487304Y-131597057D02*
X76534923Y-131692295D01*
X76534923Y-131692295D02*
X76534923Y-131787533D01*
X76534923Y-131787533D02*
X76487304Y-131930390D01*
X76487304Y-131930390D02*
X75915876Y-132501819D01*
X75915876Y-132501819D02*
X76534923Y-132501819D01*
X76868257Y-131501819D02*
X77487304Y-131501819D01*
X77487304Y-131501819D02*
X77153971Y-131882771D01*
X77153971Y-131882771D02*
X77296828Y-131882771D01*
X77296828Y-131882771D02*
X77392066Y-131930390D01*
X77392066Y-131930390D02*
X77439685Y-131978009D01*
X77439685Y-131978009D02*
X77487304Y-132073247D01*
X77487304Y-132073247D02*
X77487304Y-132311342D01*
X77487304Y-132311342D02*
X77439685Y-132406580D01*
X77439685Y-132406580D02*
X77392066Y-132454200D01*
X77392066Y-132454200D02*
X77296828Y-132501819D01*
X77296828Y-132501819D02*
X77011114Y-132501819D01*
X77011114Y-132501819D02*
X76915876Y-132454200D01*
X76915876Y-132454200D02*
X76868257Y-132406580D01*
X94974819Y-132421189D02*
X93974819Y-132421189D01*
X94879580Y-131373571D02*
X94927200Y-131421190D01*
X94927200Y-131421190D02*
X94974819Y-131564047D01*
X94974819Y-131564047D02*
X94974819Y-131659285D01*
X94974819Y-131659285D02*
X94927200Y-131802142D01*
X94927200Y-131802142D02*
X94831961Y-131897380D01*
X94831961Y-131897380D02*
X94736723Y-131944999D01*
X94736723Y-131944999D02*
X94546247Y-131992618D01*
X94546247Y-131992618D02*
X94403390Y-131992618D01*
X94403390Y-131992618D02*
X94212914Y-131944999D01*
X94212914Y-131944999D02*
X94117676Y-131897380D01*
X94117676Y-131897380D02*
X94022438Y-131802142D01*
X94022438Y-131802142D02*
X93974819Y-131659285D01*
X93974819Y-131659285D02*
X93974819Y-131564047D01*
X93974819Y-131564047D02*
X94022438Y-131421190D01*
X94022438Y-131421190D02*
X94070057Y-131373571D01*
X94308152Y-130516428D02*
X94974819Y-130516428D01*
X93927200Y-130754523D02*
X94641485Y-130992618D01*
X94641485Y-130992618D02*
X94641485Y-130373571D01*
X19851580Y-97670857D02*
X19899200Y-97718476D01*
X19899200Y-97718476D02*
X19946819Y-97861333D01*
X19946819Y-97861333D02*
X19946819Y-97956571D01*
X19946819Y-97956571D02*
X19899200Y-98099428D01*
X19899200Y-98099428D02*
X19803961Y-98194666D01*
X19803961Y-98194666D02*
X19708723Y-98242285D01*
X19708723Y-98242285D02*
X19518247Y-98289904D01*
X19518247Y-98289904D02*
X19375390Y-98289904D01*
X19375390Y-98289904D02*
X19184914Y-98242285D01*
X19184914Y-98242285D02*
X19089676Y-98194666D01*
X19089676Y-98194666D02*
X18994438Y-98099428D01*
X18994438Y-98099428D02*
X18946819Y-97956571D01*
X18946819Y-97956571D02*
X18946819Y-97861333D01*
X18946819Y-97861333D02*
X18994438Y-97718476D01*
X18994438Y-97718476D02*
X19042057Y-97670857D01*
X19042057Y-97289904D02*
X18994438Y-97242285D01*
X18994438Y-97242285D02*
X18946819Y-97147047D01*
X18946819Y-97147047D02*
X18946819Y-96908952D01*
X18946819Y-96908952D02*
X18994438Y-96813714D01*
X18994438Y-96813714D02*
X19042057Y-96766095D01*
X19042057Y-96766095D02*
X19137295Y-96718476D01*
X19137295Y-96718476D02*
X19232533Y-96718476D01*
X19232533Y-96718476D02*
X19375390Y-96766095D01*
X19375390Y-96766095D02*
X19946819Y-97337523D01*
X19946819Y-97337523D02*
X19946819Y-96718476D01*
X19280152Y-95861333D02*
X19946819Y-95861333D01*
X18899200Y-96099428D02*
X19613485Y-96337523D01*
X19613485Y-96337523D02*
X19613485Y-95718476D01*
X36140819Y-133929285D02*
X35140819Y-133929285D01*
X35140819Y-133929285D02*
X35140819Y-133691190D01*
X35140819Y-133691190D02*
X35188438Y-133548333D01*
X35188438Y-133548333D02*
X35283676Y-133453095D01*
X35283676Y-133453095D02*
X35378914Y-133405476D01*
X35378914Y-133405476D02*
X35569390Y-133357857D01*
X35569390Y-133357857D02*
X35712247Y-133357857D01*
X35712247Y-133357857D02*
X35902723Y-133405476D01*
X35902723Y-133405476D02*
X35997961Y-133453095D01*
X35997961Y-133453095D02*
X36093200Y-133548333D01*
X36093200Y-133548333D02*
X36140819Y-133691190D01*
X36140819Y-133691190D02*
X36140819Y-133929285D01*
X36140819Y-132405476D02*
X36140819Y-132976904D01*
X36140819Y-132691190D02*
X35140819Y-132691190D01*
X35140819Y-132691190D02*
X35283676Y-132786428D01*
X35283676Y-132786428D02*
X35378914Y-132881666D01*
X35378914Y-132881666D02*
X35426533Y-132976904D01*
X35474152Y-131548333D02*
X36140819Y-131548333D01*
X35093200Y-131786428D02*
X35807485Y-132024523D01*
X35807485Y-132024523D02*
X35807485Y-131405476D01*
X65683019Y-129452666D02*
X65206828Y-129785999D01*
X65683019Y-130024094D02*
X64683019Y-130024094D01*
X64683019Y-130024094D02*
X64683019Y-129643142D01*
X64683019Y-129643142D02*
X64730638Y-129547904D01*
X64730638Y-129547904D02*
X64778257Y-129500285D01*
X64778257Y-129500285D02*
X64873495Y-129452666D01*
X64873495Y-129452666D02*
X65016352Y-129452666D01*
X65016352Y-129452666D02*
X65111590Y-129500285D01*
X65111590Y-129500285D02*
X65159209Y-129547904D01*
X65159209Y-129547904D02*
X65206828Y-129643142D01*
X65206828Y-129643142D02*
X65206828Y-130024094D01*
X64683019Y-129119332D02*
X64683019Y-128500285D01*
X64683019Y-128500285D02*
X65063971Y-128833618D01*
X65063971Y-128833618D02*
X65063971Y-128690761D01*
X65063971Y-128690761D02*
X65111590Y-128595523D01*
X65111590Y-128595523D02*
X65159209Y-128547904D01*
X65159209Y-128547904D02*
X65254447Y-128500285D01*
X65254447Y-128500285D02*
X65492542Y-128500285D01*
X65492542Y-128500285D02*
X65587780Y-128547904D01*
X65587780Y-128547904D02*
X65635400Y-128595523D01*
X65635400Y-128595523D02*
X65683019Y-128690761D01*
X65683019Y-128690761D02*
X65683019Y-128976475D01*
X65683019Y-128976475D02*
X65635400Y-129071713D01*
X65635400Y-129071713D02*
X65587780Y-129119332D01*
X45420419Y-149232857D02*
X44944228Y-149566190D01*
X45420419Y-149804285D02*
X44420419Y-149804285D01*
X44420419Y-149804285D02*
X44420419Y-149423333D01*
X44420419Y-149423333D02*
X44468038Y-149328095D01*
X44468038Y-149328095D02*
X44515657Y-149280476D01*
X44515657Y-149280476D02*
X44610895Y-149232857D01*
X44610895Y-149232857D02*
X44753752Y-149232857D01*
X44753752Y-149232857D02*
X44848990Y-149280476D01*
X44848990Y-149280476D02*
X44896609Y-149328095D01*
X44896609Y-149328095D02*
X44944228Y-149423333D01*
X44944228Y-149423333D02*
X44944228Y-149804285D01*
X44515657Y-148851904D02*
X44468038Y-148804285D01*
X44468038Y-148804285D02*
X44420419Y-148709047D01*
X44420419Y-148709047D02*
X44420419Y-148470952D01*
X44420419Y-148470952D02*
X44468038Y-148375714D01*
X44468038Y-148375714D02*
X44515657Y-148328095D01*
X44515657Y-148328095D02*
X44610895Y-148280476D01*
X44610895Y-148280476D02*
X44706133Y-148280476D01*
X44706133Y-148280476D02*
X44848990Y-148328095D01*
X44848990Y-148328095D02*
X45420419Y-148899523D01*
X45420419Y-148899523D02*
X45420419Y-148280476D01*
X44420419Y-147947142D02*
X44420419Y-147280476D01*
X44420419Y-147280476D02*
X45420419Y-147709047D01*
X42727361Y-138642257D02*
X42632123Y-138594638D01*
X42632123Y-138594638D02*
X42536885Y-138499400D01*
X42536885Y-138499400D02*
X42394028Y-138356542D01*
X42394028Y-138356542D02*
X42298790Y-138308923D01*
X42298790Y-138308923D02*
X42203552Y-138308923D01*
X42251171Y-138547019D02*
X42155933Y-138499400D01*
X42155933Y-138499400D02*
X42060695Y-138404161D01*
X42060695Y-138404161D02*
X42013076Y-138213685D01*
X42013076Y-138213685D02*
X42013076Y-137880352D01*
X42013076Y-137880352D02*
X42060695Y-137689876D01*
X42060695Y-137689876D02*
X42155933Y-137594638D01*
X42155933Y-137594638D02*
X42251171Y-137547019D01*
X42251171Y-137547019D02*
X42441647Y-137547019D01*
X42441647Y-137547019D02*
X42536885Y-137594638D01*
X42536885Y-137594638D02*
X42632123Y-137689876D01*
X42632123Y-137689876D02*
X42679742Y-137880352D01*
X42679742Y-137880352D02*
X42679742Y-138213685D01*
X42679742Y-138213685D02*
X42632123Y-138404161D01*
X42632123Y-138404161D02*
X42536885Y-138499400D01*
X42536885Y-138499400D02*
X42441647Y-138547019D01*
X42441647Y-138547019D02*
X42251171Y-138547019D01*
X43632123Y-138547019D02*
X43060695Y-138547019D01*
X43346409Y-138547019D02*
X43346409Y-137547019D01*
X43346409Y-137547019D02*
X43251171Y-137689876D01*
X43251171Y-137689876D02*
X43155933Y-137785114D01*
X43155933Y-137785114D02*
X43060695Y-137832733D01*
X21892833Y-132511580D02*
X21845214Y-132559200D01*
X21845214Y-132559200D02*
X21702357Y-132606819D01*
X21702357Y-132606819D02*
X21607119Y-132606819D01*
X21607119Y-132606819D02*
X21464262Y-132559200D01*
X21464262Y-132559200D02*
X21369024Y-132463961D01*
X21369024Y-132463961D02*
X21321405Y-132368723D01*
X21321405Y-132368723D02*
X21273786Y-132178247D01*
X21273786Y-132178247D02*
X21273786Y-132035390D01*
X21273786Y-132035390D02*
X21321405Y-131844914D01*
X21321405Y-131844914D02*
X21369024Y-131749676D01*
X21369024Y-131749676D02*
X21464262Y-131654438D01*
X21464262Y-131654438D02*
X21607119Y-131606819D01*
X21607119Y-131606819D02*
X21702357Y-131606819D01*
X21702357Y-131606819D02*
X21845214Y-131654438D01*
X21845214Y-131654438D02*
X21892833Y-131702057D01*
X22369024Y-132606819D02*
X22559500Y-132606819D01*
X22559500Y-132606819D02*
X22654738Y-132559200D01*
X22654738Y-132559200D02*
X22702357Y-132511580D01*
X22702357Y-132511580D02*
X22797595Y-132368723D01*
X22797595Y-132368723D02*
X22845214Y-132178247D01*
X22845214Y-132178247D02*
X22845214Y-131797295D01*
X22845214Y-131797295D02*
X22797595Y-131702057D01*
X22797595Y-131702057D02*
X22749976Y-131654438D01*
X22749976Y-131654438D02*
X22654738Y-131606819D01*
X22654738Y-131606819D02*
X22464262Y-131606819D01*
X22464262Y-131606819D02*
X22369024Y-131654438D01*
X22369024Y-131654438D02*
X22321405Y-131702057D01*
X22321405Y-131702057D02*
X22273786Y-131797295D01*
X22273786Y-131797295D02*
X22273786Y-132035390D01*
X22273786Y-132035390D02*
X22321405Y-132130628D01*
X22321405Y-132130628D02*
X22369024Y-132178247D01*
X22369024Y-132178247D02*
X22464262Y-132225866D01*
X22464262Y-132225866D02*
X22654738Y-132225866D01*
X22654738Y-132225866D02*
X22749976Y-132178247D01*
X22749976Y-132178247D02*
X22797595Y-132130628D01*
X22797595Y-132130628D02*
X22845214Y-132035390D01*
X78414419Y-161583985D02*
X77414419Y-161583985D01*
X77414419Y-161583985D02*
X77414419Y-161203033D01*
X77414419Y-161203033D02*
X77462038Y-161107795D01*
X77462038Y-161107795D02*
X77509657Y-161060176D01*
X77509657Y-161060176D02*
X77604895Y-161012557D01*
X77604895Y-161012557D02*
X77747752Y-161012557D01*
X77747752Y-161012557D02*
X77842990Y-161060176D01*
X77842990Y-161060176D02*
X77890609Y-161107795D01*
X77890609Y-161107795D02*
X77938228Y-161203033D01*
X77938228Y-161203033D02*
X77938228Y-161583985D01*
X78366800Y-160631604D02*
X78414419Y-160488747D01*
X78414419Y-160488747D02*
X78414419Y-160250652D01*
X78414419Y-160250652D02*
X78366800Y-160155414D01*
X78366800Y-160155414D02*
X78319180Y-160107795D01*
X78319180Y-160107795D02*
X78223942Y-160060176D01*
X78223942Y-160060176D02*
X78128704Y-160060176D01*
X78128704Y-160060176D02*
X78033466Y-160107795D01*
X78033466Y-160107795D02*
X77985847Y-160155414D01*
X77985847Y-160155414D02*
X77938228Y-160250652D01*
X77938228Y-160250652D02*
X77890609Y-160441128D01*
X77890609Y-160441128D02*
X77842990Y-160536366D01*
X77842990Y-160536366D02*
X77795371Y-160583985D01*
X77795371Y-160583985D02*
X77700133Y-160631604D01*
X77700133Y-160631604D02*
X77604895Y-160631604D01*
X77604895Y-160631604D02*
X77509657Y-160583985D01*
X77509657Y-160583985D02*
X77462038Y-160536366D01*
X77462038Y-160536366D02*
X77414419Y-160441128D01*
X77414419Y-160441128D02*
X77414419Y-160203033D01*
X77414419Y-160203033D02*
X77462038Y-160060176D01*
X77509657Y-159679223D02*
X77462038Y-159631604D01*
X77462038Y-159631604D02*
X77414419Y-159536366D01*
X77414419Y-159536366D02*
X77414419Y-159298271D01*
X77414419Y-159298271D02*
X77462038Y-159203033D01*
X77462038Y-159203033D02*
X77509657Y-159155414D01*
X77509657Y-159155414D02*
X77604895Y-159107795D01*
X77604895Y-159107795D02*
X77700133Y-159107795D01*
X77700133Y-159107795D02*
X77842990Y-159155414D01*
X77842990Y-159155414D02*
X78414419Y-159726842D01*
X78414419Y-159726842D02*
X78414419Y-159107795D01*
X38428819Y-133929285D02*
X37428819Y-133929285D01*
X37428819Y-133929285D02*
X37428819Y-133691190D01*
X37428819Y-133691190D02*
X37476438Y-133548333D01*
X37476438Y-133548333D02*
X37571676Y-133453095D01*
X37571676Y-133453095D02*
X37666914Y-133405476D01*
X37666914Y-133405476D02*
X37857390Y-133357857D01*
X37857390Y-133357857D02*
X38000247Y-133357857D01*
X38000247Y-133357857D02*
X38190723Y-133405476D01*
X38190723Y-133405476D02*
X38285961Y-133453095D01*
X38285961Y-133453095D02*
X38381200Y-133548333D01*
X38381200Y-133548333D02*
X38428819Y-133691190D01*
X38428819Y-133691190D02*
X38428819Y-133929285D01*
X38428819Y-132405476D02*
X38428819Y-132976904D01*
X38428819Y-132691190D02*
X37428819Y-132691190D01*
X37428819Y-132691190D02*
X37571676Y-132786428D01*
X37571676Y-132786428D02*
X37666914Y-132881666D01*
X37666914Y-132881666D02*
X37714533Y-132976904D01*
X37428819Y-131500714D02*
X37428819Y-131976904D01*
X37428819Y-131976904D02*
X37905009Y-132024523D01*
X37905009Y-132024523D02*
X37857390Y-131976904D01*
X37857390Y-131976904D02*
X37809771Y-131881666D01*
X37809771Y-131881666D02*
X37809771Y-131643571D01*
X37809771Y-131643571D02*
X37857390Y-131548333D01*
X37857390Y-131548333D02*
X37905009Y-131500714D01*
X37905009Y-131500714D02*
X38000247Y-131453095D01*
X38000247Y-131453095D02*
X38238342Y-131453095D01*
X38238342Y-131453095D02*
X38333580Y-131500714D01*
X38333580Y-131500714D02*
X38381200Y-131548333D01*
X38381200Y-131548333D02*
X38428819Y-131643571D01*
X38428819Y-131643571D02*
X38428819Y-131881666D01*
X38428819Y-131881666D02*
X38381200Y-131976904D01*
X38381200Y-131976904D02*
X38333580Y-132024523D01*
X83516666Y-34754819D02*
X83516666Y-35469104D01*
X83516666Y-35469104D02*
X83469047Y-35611961D01*
X83469047Y-35611961D02*
X83373809Y-35707200D01*
X83373809Y-35707200D02*
X83230952Y-35754819D01*
X83230952Y-35754819D02*
X83135714Y-35754819D01*
X83897619Y-34754819D02*
X84564285Y-34754819D01*
X84564285Y-34754819D02*
X84135714Y-35754819D01*
X19790619Y-159997733D02*
X20504904Y-159997733D01*
X20504904Y-159997733D02*
X20647761Y-160045352D01*
X20647761Y-160045352D02*
X20743000Y-160140590D01*
X20743000Y-160140590D02*
X20790619Y-160283447D01*
X20790619Y-160283447D02*
X20790619Y-160378685D01*
X20790619Y-158997733D02*
X20790619Y-159569161D01*
X20790619Y-159283447D02*
X19790619Y-159283447D01*
X19790619Y-159283447D02*
X19933476Y-159378685D01*
X19933476Y-159378685D02*
X20028714Y-159473923D01*
X20028714Y-159473923D02*
X20076333Y-159569161D01*
X88704980Y-150426657D02*
X88752600Y-150474276D01*
X88752600Y-150474276D02*
X88800219Y-150617133D01*
X88800219Y-150617133D02*
X88800219Y-150712371D01*
X88800219Y-150712371D02*
X88752600Y-150855228D01*
X88752600Y-150855228D02*
X88657361Y-150950466D01*
X88657361Y-150950466D02*
X88562123Y-150998085D01*
X88562123Y-150998085D02*
X88371647Y-151045704D01*
X88371647Y-151045704D02*
X88228790Y-151045704D01*
X88228790Y-151045704D02*
X88038314Y-150998085D01*
X88038314Y-150998085D02*
X87943076Y-150950466D01*
X87943076Y-150950466D02*
X87847838Y-150855228D01*
X87847838Y-150855228D02*
X87800219Y-150712371D01*
X87800219Y-150712371D02*
X87800219Y-150617133D01*
X87800219Y-150617133D02*
X87847838Y-150474276D01*
X87847838Y-150474276D02*
X87895457Y-150426657D01*
X88800219Y-149474276D02*
X88800219Y-150045704D01*
X88800219Y-149759990D02*
X87800219Y-149759990D01*
X87800219Y-149759990D02*
X87943076Y-149855228D01*
X87943076Y-149855228D02*
X88038314Y-149950466D01*
X88038314Y-149950466D02*
X88085933Y-150045704D01*
X87800219Y-148855228D02*
X87800219Y-148759990D01*
X87800219Y-148759990D02*
X87847838Y-148664752D01*
X87847838Y-148664752D02*
X87895457Y-148617133D01*
X87895457Y-148617133D02*
X87990695Y-148569514D01*
X87990695Y-148569514D02*
X88181171Y-148521895D01*
X88181171Y-148521895D02*
X88419266Y-148521895D01*
X88419266Y-148521895D02*
X88609742Y-148569514D01*
X88609742Y-148569514D02*
X88704980Y-148617133D01*
X88704980Y-148617133D02*
X88752600Y-148664752D01*
X88752600Y-148664752D02*
X88800219Y-148759990D01*
X88800219Y-148759990D02*
X88800219Y-148855228D01*
X88800219Y-148855228D02*
X88752600Y-148950466D01*
X88752600Y-148950466D02*
X88704980Y-148998085D01*
X88704980Y-148998085D02*
X88609742Y-149045704D01*
X88609742Y-149045704D02*
X88419266Y-149093323D01*
X88419266Y-149093323D02*
X88181171Y-149093323D01*
X88181171Y-149093323D02*
X87990695Y-149045704D01*
X87990695Y-149045704D02*
X87895457Y-148998085D01*
X87895457Y-148998085D02*
X87847838Y-148950466D01*
X87847838Y-148950466D02*
X87800219Y-148855228D01*
X83038095Y-39924819D02*
X83038095Y-40734342D01*
X83038095Y-40734342D02*
X83085714Y-40829580D01*
X83085714Y-40829580D02*
X83133333Y-40877200D01*
X83133333Y-40877200D02*
X83228571Y-40924819D01*
X83228571Y-40924819D02*
X83419047Y-40924819D01*
X83419047Y-40924819D02*
X83514285Y-40877200D01*
X83514285Y-40877200D02*
X83561904Y-40829580D01*
X83561904Y-40829580D02*
X83609523Y-40734342D01*
X83609523Y-40734342D02*
X83609523Y-39924819D01*
X84038095Y-40877200D02*
X84180952Y-40924819D01*
X84180952Y-40924819D02*
X84419047Y-40924819D01*
X84419047Y-40924819D02*
X84514285Y-40877200D01*
X84514285Y-40877200D02*
X84561904Y-40829580D01*
X84561904Y-40829580D02*
X84609523Y-40734342D01*
X84609523Y-40734342D02*
X84609523Y-40639104D01*
X84609523Y-40639104D02*
X84561904Y-40543866D01*
X84561904Y-40543866D02*
X84514285Y-40496247D01*
X84514285Y-40496247D02*
X84419047Y-40448628D01*
X84419047Y-40448628D02*
X84228571Y-40401009D01*
X84228571Y-40401009D02*
X84133333Y-40353390D01*
X84133333Y-40353390D02*
X84085714Y-40305771D01*
X84085714Y-40305771D02*
X84038095Y-40210533D01*
X84038095Y-40210533D02*
X84038095Y-40115295D01*
X84038095Y-40115295D02*
X84085714Y-40020057D01*
X84085714Y-40020057D02*
X84133333Y-39972438D01*
X84133333Y-39972438D02*
X84228571Y-39924819D01*
X84228571Y-39924819D02*
X84466666Y-39924819D01*
X84466666Y-39924819D02*
X84609523Y-39972438D01*
X85371428Y-40401009D02*
X85514285Y-40448628D01*
X85514285Y-40448628D02*
X85561904Y-40496247D01*
X85561904Y-40496247D02*
X85609523Y-40591485D01*
X85609523Y-40591485D02*
X85609523Y-40734342D01*
X85609523Y-40734342D02*
X85561904Y-40829580D01*
X85561904Y-40829580D02*
X85514285Y-40877200D01*
X85514285Y-40877200D02*
X85419047Y-40924819D01*
X85419047Y-40924819D02*
X85038095Y-40924819D01*
X85038095Y-40924819D02*
X85038095Y-39924819D01*
X85038095Y-39924819D02*
X85371428Y-39924819D01*
X85371428Y-39924819D02*
X85466666Y-39972438D01*
X85466666Y-39972438D02*
X85514285Y-40020057D01*
X85514285Y-40020057D02*
X85561904Y-40115295D01*
X85561904Y-40115295D02*
X85561904Y-40210533D01*
X85561904Y-40210533D02*
X85514285Y-40305771D01*
X85514285Y-40305771D02*
X85466666Y-40353390D01*
X85466666Y-40353390D02*
X85371428Y-40401009D01*
X85371428Y-40401009D02*
X85038095Y-40401009D01*
X88730380Y-145118057D02*
X88778000Y-145165676D01*
X88778000Y-145165676D02*
X88825619Y-145308533D01*
X88825619Y-145308533D02*
X88825619Y-145403771D01*
X88825619Y-145403771D02*
X88778000Y-145546628D01*
X88778000Y-145546628D02*
X88682761Y-145641866D01*
X88682761Y-145641866D02*
X88587523Y-145689485D01*
X88587523Y-145689485D02*
X88397047Y-145737104D01*
X88397047Y-145737104D02*
X88254190Y-145737104D01*
X88254190Y-145737104D02*
X88063714Y-145689485D01*
X88063714Y-145689485D02*
X87968476Y-145641866D01*
X87968476Y-145641866D02*
X87873238Y-145546628D01*
X87873238Y-145546628D02*
X87825619Y-145403771D01*
X87825619Y-145403771D02*
X87825619Y-145308533D01*
X87825619Y-145308533D02*
X87873238Y-145165676D01*
X87873238Y-145165676D02*
X87920857Y-145118057D01*
X88825619Y-144165676D02*
X88825619Y-144737104D01*
X88825619Y-144451390D02*
X87825619Y-144451390D01*
X87825619Y-144451390D02*
X87968476Y-144546628D01*
X87968476Y-144546628D02*
X88063714Y-144641866D01*
X88063714Y-144641866D02*
X88111333Y-144737104D01*
X87825619Y-143832342D02*
X87825619Y-143213295D01*
X87825619Y-143213295D02*
X88206571Y-143546628D01*
X88206571Y-143546628D02*
X88206571Y-143403771D01*
X88206571Y-143403771D02*
X88254190Y-143308533D01*
X88254190Y-143308533D02*
X88301809Y-143260914D01*
X88301809Y-143260914D02*
X88397047Y-143213295D01*
X88397047Y-143213295D02*
X88635142Y-143213295D01*
X88635142Y-143213295D02*
X88730380Y-143260914D01*
X88730380Y-143260914D02*
X88778000Y-143308533D01*
X88778000Y-143308533D02*
X88825619Y-143403771D01*
X88825619Y-143403771D02*
X88825619Y-143689485D01*
X88825619Y-143689485D02*
X88778000Y-143784723D01*
X88778000Y-143784723D02*
X88730380Y-143832342D01*
X43560780Y-149944057D02*
X43608400Y-149991676D01*
X43608400Y-149991676D02*
X43656019Y-150134533D01*
X43656019Y-150134533D02*
X43656019Y-150229771D01*
X43656019Y-150229771D02*
X43608400Y-150372628D01*
X43608400Y-150372628D02*
X43513161Y-150467866D01*
X43513161Y-150467866D02*
X43417923Y-150515485D01*
X43417923Y-150515485D02*
X43227447Y-150563104D01*
X43227447Y-150563104D02*
X43084590Y-150563104D01*
X43084590Y-150563104D02*
X42894114Y-150515485D01*
X42894114Y-150515485D02*
X42798876Y-150467866D01*
X42798876Y-150467866D02*
X42703638Y-150372628D01*
X42703638Y-150372628D02*
X42656019Y-150229771D01*
X42656019Y-150229771D02*
X42656019Y-150134533D01*
X42656019Y-150134533D02*
X42703638Y-149991676D01*
X42703638Y-149991676D02*
X42751257Y-149944057D01*
X43656019Y-148991676D02*
X43656019Y-149563104D01*
X43656019Y-149277390D02*
X42656019Y-149277390D01*
X42656019Y-149277390D02*
X42798876Y-149372628D01*
X42798876Y-149372628D02*
X42894114Y-149467866D01*
X42894114Y-149467866D02*
X42941733Y-149563104D01*
X42656019Y-148086914D02*
X42656019Y-148563104D01*
X42656019Y-148563104D02*
X43132209Y-148610723D01*
X43132209Y-148610723D02*
X43084590Y-148563104D01*
X43084590Y-148563104D02*
X43036971Y-148467866D01*
X43036971Y-148467866D02*
X43036971Y-148229771D01*
X43036971Y-148229771D02*
X43084590Y-148134533D01*
X43084590Y-148134533D02*
X43132209Y-148086914D01*
X43132209Y-148086914D02*
X43227447Y-148039295D01*
X43227447Y-148039295D02*
X43465542Y-148039295D01*
X43465542Y-148039295D02*
X43560780Y-148086914D01*
X43560780Y-148086914D02*
X43608400Y-148134533D01*
X43608400Y-148134533D02*
X43656019Y-148229771D01*
X43656019Y-148229771D02*
X43656019Y-148467866D01*
X43656019Y-148467866D02*
X43608400Y-148563104D01*
X43608400Y-148563104D02*
X43560780Y-148610723D01*
X52525819Y-129801857D02*
X52049628Y-130135190D01*
X52525819Y-130373285D02*
X51525819Y-130373285D01*
X51525819Y-130373285D02*
X51525819Y-129992333D01*
X51525819Y-129992333D02*
X51573438Y-129897095D01*
X51573438Y-129897095D02*
X51621057Y-129849476D01*
X51621057Y-129849476D02*
X51716295Y-129801857D01*
X51716295Y-129801857D02*
X51859152Y-129801857D01*
X51859152Y-129801857D02*
X51954390Y-129849476D01*
X51954390Y-129849476D02*
X52002009Y-129897095D01*
X52002009Y-129897095D02*
X52049628Y-129992333D01*
X52049628Y-129992333D02*
X52049628Y-130373285D01*
X52525819Y-128849476D02*
X52525819Y-129420904D01*
X52525819Y-129135190D02*
X51525819Y-129135190D01*
X51525819Y-129135190D02*
X51668676Y-129230428D01*
X51668676Y-129230428D02*
X51763914Y-129325666D01*
X51763914Y-129325666D02*
X51811533Y-129420904D01*
X52525819Y-127897095D02*
X52525819Y-128468523D01*
X52525819Y-128182809D02*
X51525819Y-128182809D01*
X51525819Y-128182809D02*
X51668676Y-128278047D01*
X51668676Y-128278047D02*
X51763914Y-128373285D01*
X51763914Y-128373285D02*
X51811533Y-128468523D01*
X21496819Y-41378094D02*
X20496819Y-41378094D01*
X20496819Y-41378094D02*
X20496819Y-41139999D01*
X20496819Y-41139999D02*
X20544438Y-40997142D01*
X20544438Y-40997142D02*
X20639676Y-40901904D01*
X20639676Y-40901904D02*
X20734914Y-40854285D01*
X20734914Y-40854285D02*
X20925390Y-40806666D01*
X20925390Y-40806666D02*
X21068247Y-40806666D01*
X21068247Y-40806666D02*
X21258723Y-40854285D01*
X21258723Y-40854285D02*
X21353961Y-40901904D01*
X21353961Y-40901904D02*
X21449200Y-40997142D01*
X21449200Y-40997142D02*
X21496819Y-41139999D01*
X21496819Y-41139999D02*
X21496819Y-41378094D01*
X20496819Y-40473332D02*
X20496819Y-39806666D01*
X20496819Y-39806666D02*
X21496819Y-40235237D01*
X20026819Y-33281904D02*
X19026819Y-33281904D01*
X20026819Y-32710476D02*
X19455390Y-33139047D01*
X19026819Y-32710476D02*
X19598247Y-33281904D01*
X33391752Y-34180809D02*
X33058419Y-34180809D01*
X33058419Y-34704619D02*
X33058419Y-33704619D01*
X33058419Y-33704619D02*
X33534609Y-33704619D01*
X34248895Y-34180809D02*
X33915562Y-34180809D01*
X33915562Y-34704619D02*
X33915562Y-33704619D01*
X33915562Y-33704619D02*
X34391752Y-33704619D01*
X34915562Y-34133190D02*
X34820324Y-34085571D01*
X34820324Y-34085571D02*
X34772705Y-34037952D01*
X34772705Y-34037952D02*
X34725086Y-33942714D01*
X34725086Y-33942714D02*
X34725086Y-33895095D01*
X34725086Y-33895095D02*
X34772705Y-33799857D01*
X34772705Y-33799857D02*
X34820324Y-33752238D01*
X34820324Y-33752238D02*
X34915562Y-33704619D01*
X34915562Y-33704619D02*
X35106038Y-33704619D01*
X35106038Y-33704619D02*
X35201276Y-33752238D01*
X35201276Y-33752238D02*
X35248895Y-33799857D01*
X35248895Y-33799857D02*
X35296514Y-33895095D01*
X35296514Y-33895095D02*
X35296514Y-33942714D01*
X35296514Y-33942714D02*
X35248895Y-34037952D01*
X35248895Y-34037952D02*
X35201276Y-34085571D01*
X35201276Y-34085571D02*
X35106038Y-34133190D01*
X35106038Y-34133190D02*
X34915562Y-34133190D01*
X34915562Y-34133190D02*
X34820324Y-34180809D01*
X34820324Y-34180809D02*
X34772705Y-34228428D01*
X34772705Y-34228428D02*
X34725086Y-34323666D01*
X34725086Y-34323666D02*
X34725086Y-34514142D01*
X34725086Y-34514142D02*
X34772705Y-34609380D01*
X34772705Y-34609380D02*
X34820324Y-34657000D01*
X34820324Y-34657000D02*
X34915562Y-34704619D01*
X34915562Y-34704619D02*
X35106038Y-34704619D01*
X35106038Y-34704619D02*
X35201276Y-34657000D01*
X35201276Y-34657000D02*
X35248895Y-34609380D01*
X35248895Y-34609380D02*
X35296514Y-34514142D01*
X35296514Y-34514142D02*
X35296514Y-34323666D01*
X35296514Y-34323666D02*
X35248895Y-34228428D01*
X35248895Y-34228428D02*
X35201276Y-34180809D01*
X35201276Y-34180809D02*
X35106038Y-34133190D01*
X35915562Y-33704619D02*
X36010800Y-33704619D01*
X36010800Y-33704619D02*
X36106038Y-33752238D01*
X36106038Y-33752238D02*
X36153657Y-33799857D01*
X36153657Y-33799857D02*
X36201276Y-33895095D01*
X36201276Y-33895095D02*
X36248895Y-34085571D01*
X36248895Y-34085571D02*
X36248895Y-34323666D01*
X36248895Y-34323666D02*
X36201276Y-34514142D01*
X36201276Y-34514142D02*
X36153657Y-34609380D01*
X36153657Y-34609380D02*
X36106038Y-34657000D01*
X36106038Y-34657000D02*
X36010800Y-34704619D01*
X36010800Y-34704619D02*
X35915562Y-34704619D01*
X35915562Y-34704619D02*
X35820324Y-34657000D01*
X35820324Y-34657000D02*
X35772705Y-34609380D01*
X35772705Y-34609380D02*
X35725086Y-34514142D01*
X35725086Y-34514142D02*
X35677467Y-34323666D01*
X35677467Y-34323666D02*
X35677467Y-34085571D01*
X35677467Y-34085571D02*
X35725086Y-33895095D01*
X35725086Y-33895095D02*
X35772705Y-33799857D01*
X35772705Y-33799857D02*
X35820324Y-33752238D01*
X35820324Y-33752238D02*
X35915562Y-33704619D01*
X36867943Y-33704619D02*
X36963181Y-33704619D01*
X36963181Y-33704619D02*
X37058419Y-33752238D01*
X37058419Y-33752238D02*
X37106038Y-33799857D01*
X37106038Y-33799857D02*
X37153657Y-33895095D01*
X37153657Y-33895095D02*
X37201276Y-34085571D01*
X37201276Y-34085571D02*
X37201276Y-34323666D01*
X37201276Y-34323666D02*
X37153657Y-34514142D01*
X37153657Y-34514142D02*
X37106038Y-34609380D01*
X37106038Y-34609380D02*
X37058419Y-34657000D01*
X37058419Y-34657000D02*
X36963181Y-34704619D01*
X36963181Y-34704619D02*
X36867943Y-34704619D01*
X36867943Y-34704619D02*
X36772705Y-34657000D01*
X36772705Y-34657000D02*
X36725086Y-34609380D01*
X36725086Y-34609380D02*
X36677467Y-34514142D01*
X36677467Y-34514142D02*
X36629848Y-34323666D01*
X36629848Y-34323666D02*
X36629848Y-34085571D01*
X36629848Y-34085571D02*
X36677467Y-33895095D01*
X36677467Y-33895095D02*
X36725086Y-33799857D01*
X36725086Y-33799857D02*
X36772705Y-33752238D01*
X36772705Y-33752238D02*
X36867943Y-33704619D01*
X38201276Y-34704619D02*
X37867943Y-34228428D01*
X37629848Y-34704619D02*
X37629848Y-33704619D01*
X37629848Y-33704619D02*
X38010800Y-33704619D01*
X38010800Y-33704619D02*
X38106038Y-33752238D01*
X38106038Y-33752238D02*
X38153657Y-33799857D01*
X38153657Y-33799857D02*
X38201276Y-33895095D01*
X38201276Y-33895095D02*
X38201276Y-34037952D01*
X38201276Y-34037952D02*
X38153657Y-34133190D01*
X38153657Y-34133190D02*
X38106038Y-34180809D01*
X38106038Y-34180809D02*
X38010800Y-34228428D01*
X38010800Y-34228428D02*
X37629848Y-34228428D01*
X39153657Y-34704619D02*
X38582229Y-34704619D01*
X38867943Y-34704619D02*
X38867943Y-33704619D01*
X38867943Y-33704619D02*
X38772705Y-33847476D01*
X38772705Y-33847476D02*
X38677467Y-33942714D01*
X38677467Y-33942714D02*
X38582229Y-33990333D01*
X39534610Y-33799857D02*
X39582229Y-33752238D01*
X39582229Y-33752238D02*
X39677467Y-33704619D01*
X39677467Y-33704619D02*
X39915562Y-33704619D01*
X39915562Y-33704619D02*
X40010800Y-33752238D01*
X40010800Y-33752238D02*
X40058419Y-33799857D01*
X40058419Y-33799857D02*
X40106038Y-33895095D01*
X40106038Y-33895095D02*
X40106038Y-33990333D01*
X40106038Y-33990333D02*
X40058419Y-34133190D01*
X40058419Y-34133190D02*
X39486991Y-34704619D01*
X39486991Y-34704619D02*
X40106038Y-34704619D01*
X40534610Y-34704619D02*
X40534610Y-33704619D01*
X41106038Y-34704619D02*
X40677467Y-34133190D01*
X41106038Y-33704619D02*
X40534610Y-34276047D01*
X41486991Y-34657000D02*
X41629848Y-34704619D01*
X41629848Y-34704619D02*
X41867943Y-34704619D01*
X41867943Y-34704619D02*
X41963181Y-34657000D01*
X41963181Y-34657000D02*
X42010800Y-34609380D01*
X42010800Y-34609380D02*
X42058419Y-34514142D01*
X42058419Y-34514142D02*
X42058419Y-34418904D01*
X42058419Y-34418904D02*
X42010800Y-34323666D01*
X42010800Y-34323666D02*
X41963181Y-34276047D01*
X41963181Y-34276047D02*
X41867943Y-34228428D01*
X41867943Y-34228428D02*
X41677467Y-34180809D01*
X41677467Y-34180809D02*
X41582229Y-34133190D01*
X41582229Y-34133190D02*
X41534610Y-34085571D01*
X41534610Y-34085571D02*
X41486991Y-33990333D01*
X41486991Y-33990333D02*
X41486991Y-33895095D01*
X41486991Y-33895095D02*
X41534610Y-33799857D01*
X41534610Y-33799857D02*
X41582229Y-33752238D01*
X41582229Y-33752238D02*
X41677467Y-33704619D01*
X41677467Y-33704619D02*
X41915562Y-33704619D01*
X41915562Y-33704619D02*
X42058419Y-33752238D01*
X42915562Y-34037952D02*
X42915562Y-34704619D01*
X42677467Y-33657000D02*
X42439372Y-34371285D01*
X42439372Y-34371285D02*
X43058419Y-34371285D01*
D10*
X56745239Y-147474809D02*
X57054763Y-147474809D01*
X57054763Y-147474809D02*
X56864287Y-147665285D01*
X56864287Y-147665285D02*
X56935715Y-147665285D01*
X56935715Y-147665285D02*
X56980358Y-147689095D01*
X56980358Y-147689095D02*
X57001191Y-147712904D01*
X57001191Y-147712904D02*
X57019048Y-147760523D01*
X57019048Y-147760523D02*
X57004167Y-147879571D01*
X57004167Y-147879571D02*
X56974406Y-147927190D01*
X56974406Y-147927190D02*
X56947620Y-147951000D01*
X56947620Y-147951000D02*
X56897025Y-147974809D01*
X56897025Y-147974809D02*
X56754167Y-147974809D01*
X56754167Y-147974809D02*
X56709525Y-147951000D01*
X56709525Y-147951000D02*
X56688691Y-147927190D01*
X57197619Y-147474809D02*
X57301786Y-147974809D01*
X57301786Y-147974809D02*
X57530953Y-147474809D01*
X57650000Y-147474809D02*
X57959524Y-147474809D01*
X57959524Y-147474809D02*
X57769048Y-147665285D01*
X57769048Y-147665285D02*
X57840476Y-147665285D01*
X57840476Y-147665285D02*
X57885119Y-147689095D01*
X57885119Y-147689095D02*
X57905952Y-147712904D01*
X57905952Y-147712904D02*
X57923809Y-147760523D01*
X57923809Y-147760523D02*
X57908928Y-147879571D01*
X57908928Y-147879571D02*
X57879167Y-147927190D01*
X57879167Y-147927190D02*
X57852381Y-147951000D01*
X57852381Y-147951000D02*
X57801786Y-147974809D01*
X57801786Y-147974809D02*
X57658928Y-147974809D01*
X57658928Y-147974809D02*
X57614286Y-147951000D01*
X57614286Y-147951000D02*
X57593452Y-147927190D01*
X58914880Y-147451000D02*
X58405951Y-148093857D01*
X59697618Y-147474809D02*
X59459523Y-147474809D01*
X59459523Y-147474809D02*
X59405952Y-147712904D01*
X59405952Y-147712904D02*
X59432737Y-147689095D01*
X59432737Y-147689095D02*
X59483332Y-147665285D01*
X59483332Y-147665285D02*
X59602380Y-147665285D01*
X59602380Y-147665285D02*
X59647023Y-147689095D01*
X59647023Y-147689095D02*
X59667856Y-147712904D01*
X59667856Y-147712904D02*
X59685713Y-147760523D01*
X59685713Y-147760523D02*
X59670832Y-147879571D01*
X59670832Y-147879571D02*
X59641071Y-147927190D01*
X59641071Y-147927190D02*
X59614285Y-147951000D01*
X59614285Y-147951000D02*
X59563690Y-147974809D01*
X59563690Y-147974809D02*
X59444642Y-147974809D01*
X59444642Y-147974809D02*
X59399999Y-147951000D01*
X59399999Y-147951000D02*
X59379166Y-147927190D01*
X59864284Y-147474809D02*
X59968451Y-147974809D01*
X59968451Y-147974809D02*
X60197618Y-147474809D01*
D13*
%TO.C,IC5*%
X73755400Y-135485800D02*
X73755400Y-142285800D01*
X73755400Y-142285800D02*
X63455400Y-142285800D01*
X63455400Y-142285800D02*
X63455400Y-135485800D01*
X63455400Y-135485800D02*
X73755400Y-135485800D01*
X73725400Y-133285800D02*
X73725400Y-135135800D01*
%TO.C,IC1*%
X58337600Y-135587400D02*
X58337600Y-142387400D01*
X58337600Y-142387400D02*
X48037600Y-142387400D01*
X48037600Y-142387400D02*
X48037600Y-135587400D01*
X48037600Y-135587400D02*
X58337600Y-135587400D01*
X58307600Y-133387400D02*
X58307600Y-135237400D01*
D14*
%TO.C,J11*%
X88063471Y-36610000D02*
X88610000Y-36610000D01*
X86390000Y-36610000D02*
X86936529Y-36610000D01*
X86390000Y-35090000D02*
X87500000Y-35090000D01*
X86390000Y-36610000D02*
X86390000Y-37815000D01*
X86390000Y-37815000D02*
X87192470Y-37815000D01*
X86390000Y-35850000D02*
X86390000Y-35090000D01*
X88610000Y-36610000D02*
X88610000Y-37815000D01*
X87807530Y-37815000D02*
X88610000Y-37815000D01*
%TO.C,J10*%
X84513471Y-100010000D02*
X85060000Y-100010000D01*
X82840000Y-100010000D02*
X83386529Y-100010000D01*
X82840000Y-98490000D02*
X83950000Y-98490000D01*
X82840000Y-100010000D02*
X82840000Y-101215000D01*
X82840000Y-101215000D02*
X83642470Y-101215000D01*
X82840000Y-99250000D02*
X82840000Y-98490000D01*
X85060000Y-100010000D02*
X85060000Y-101215000D01*
X84257530Y-101215000D02*
X85060000Y-101215000D01*
%TO.C,D3*%
X58358000Y-126237000D02*
X58358000Y-122937000D01*
X58358000Y-126237000D02*
X51348000Y-126237000D01*
X58358000Y-122937000D02*
X51348000Y-122937000D01*
%TO.C,R12*%
X68523400Y-129547864D02*
X68523400Y-129093736D01*
X69993400Y-129547864D02*
X69993400Y-129093736D01*
%TO.C,C12*%
X25323748Y-136377000D02*
X26746252Y-136377000D01*
X25323748Y-138197000D02*
X26746252Y-138197000D01*
%TO.C,D8*%
X25400000Y-46720000D02*
X25400000Y-45260000D01*
X22630000Y-45260000D02*
X28170000Y-45260000D01*
X28170000Y-45260000D02*
X28170000Y-36020000D01*
X22630000Y-43910000D02*
X28170000Y-43910000D01*
X22630000Y-43790000D02*
X28170000Y-43790000D01*
X22630000Y-43670000D02*
X28170000Y-43670000D01*
X22630000Y-36020000D02*
X22630000Y-45260000D01*
X28170000Y-36020000D02*
X22630000Y-36020000D01*
X25400000Y-34560000D02*
X25400000Y-36020000D01*
%TO.C,U3*%
X47707800Y-163641400D02*
X52348800Y-163641400D01*
X47707800Y-163641400D02*
X47707800Y-153401400D01*
X49217800Y-163641400D02*
X49217800Y-153401400D01*
X52348800Y-163641400D02*
X52348800Y-153401400D01*
X47707800Y-160371400D02*
X49217800Y-160371400D01*
X47707800Y-156670400D02*
X49217800Y-156670400D01*
X47707800Y-153401400D02*
X52348800Y-153401400D01*
D15*
%TO.C,PS1*%
X13665000Y-154705500D02*
X13665000Y-132705500D01*
X23165000Y-154705500D02*
X13665000Y-154705500D01*
X13665000Y-132705500D02*
X23165000Y-132705500D01*
X23165000Y-132705500D02*
X23165000Y-154705500D01*
D13*
X16465000Y-155405500D02*
G75*
G03*
X16465000Y-155405500I-100000J0D01*
G01*
D14*
%TO.C,J2*%
X52856000Y-148227600D02*
X52856000Y-149477600D01*
X53146000Y-148517600D02*
X53146000Y-153977600D01*
X53146000Y-152977600D02*
X75766000Y-152977600D01*
X53156000Y-148527600D02*
X53156000Y-149277600D01*
X53156000Y-149277600D02*
X54956000Y-149277600D01*
X53156000Y-150777600D02*
X53906000Y-150777600D01*
X53906000Y-150777600D02*
X53906000Y-152252600D01*
X53906000Y-152252600D02*
X64456000Y-151977600D01*
X54106000Y-148227600D02*
X52856000Y-148227600D01*
X54956000Y-148527600D02*
X53156000Y-148527600D01*
X54956000Y-149277600D02*
X54956000Y-148527600D01*
X56456000Y-148527600D02*
X56456000Y-149277600D01*
X56456000Y-149277600D02*
X72456000Y-149277600D01*
X72456000Y-148527600D02*
X56456000Y-148527600D01*
X72456000Y-149277600D02*
X72456000Y-148527600D01*
X73956000Y-148527600D02*
X73956000Y-149277600D01*
X73956000Y-149277600D02*
X75756000Y-149277600D01*
X75006000Y-150777600D02*
X75006000Y-152252600D01*
X75006000Y-152252600D02*
X64456000Y-151977600D01*
X75756000Y-148527600D02*
X73956000Y-148527600D01*
X75756000Y-149277600D02*
X75756000Y-148527600D01*
X75756000Y-150777600D02*
X75006000Y-150777600D01*
X75766000Y-148517600D02*
X53146000Y-148517600D01*
X75766000Y-153977600D02*
X75766000Y-148517600D01*
%TO.C,C25*%
X29162000Y-55444000D02*
X26077000Y-55444000D01*
X29162000Y-55444000D02*
X29162000Y-79684000D01*
X23707000Y-55444000D02*
X20622000Y-55444000D01*
X20622000Y-55444000D02*
X20622000Y-79684000D01*
X29162000Y-79684000D02*
X26077000Y-79684000D01*
X23707000Y-79684000D02*
X20622000Y-79684000D01*
%TO.C,R5*%
X19384000Y-55460000D02*
X14144000Y-55460000D01*
X19384000Y-55460000D02*
X19384000Y-81700000D01*
X14144000Y-55460000D02*
X14144000Y-81700000D01*
X19384000Y-81700000D02*
X14144000Y-81700000D01*
D15*
%TO.C,Q2*%
X42278400Y-142748200D02*
X43878400Y-142748200D01*
X42278400Y-145948200D02*
X43878400Y-145948200D01*
D13*
X40750400Y-143403200D02*
G75*
G03*
X40750400Y-143403200I-100000J0D01*
G01*
D14*
%TO.C,D6*%
X79704200Y-121118400D02*
X76404200Y-121118400D01*
X79704200Y-121118400D02*
X79704200Y-128128400D01*
X76404200Y-121118400D02*
X76404200Y-128128400D01*
%TO.C,R24*%
X37084724Y-132094500D02*
X36575276Y-132094500D01*
X37084724Y-131049500D02*
X36575276Y-131049500D01*
%TO.C,J3*%
X89212200Y-163474400D02*
X89212200Y-162054400D01*
X100932200Y-163474400D02*
X89212200Y-163474400D01*
X89212200Y-162054400D02*
X93712200Y-162054400D01*
X93712200Y-162054400D02*
X93712200Y-159664400D01*
X89522200Y-161214400D02*
X89522200Y-160614400D01*
X94822200Y-161164400D02*
X100322200Y-161164400D01*
X100322200Y-161164400D02*
X100322200Y-160664400D01*
X90122200Y-160914400D02*
X89522200Y-161214400D01*
X94822200Y-160664400D02*
X94822200Y-161164400D01*
X100322200Y-160664400D02*
X94822200Y-160664400D01*
X89522200Y-160614400D02*
X90122200Y-160914400D01*
X100932200Y-159664400D02*
X100932200Y-163474400D01*
X100932200Y-159664400D02*
X100932200Y-155854400D01*
X94822200Y-158664400D02*
X100322200Y-158664400D01*
X100322200Y-158664400D02*
X100322200Y-158164400D01*
X94822200Y-158164400D02*
X94822200Y-158664400D01*
X100322200Y-158164400D02*
X94822200Y-158164400D01*
X89212200Y-157274400D02*
X93712200Y-157274400D01*
X93712200Y-157274400D02*
X93712200Y-159664400D01*
X89212200Y-155854400D02*
X89212200Y-157274400D01*
X100932200Y-155854400D02*
X89212200Y-155854400D01*
%TO.C,R18*%
X76759976Y-151115500D02*
X77269424Y-151115500D01*
X76759976Y-152160500D02*
X77269424Y-152160500D01*
%TO.C,D19*%
X44379000Y-151745400D02*
X46299000Y-151745400D01*
X46299000Y-151745400D02*
X46299000Y-148885400D01*
X44379000Y-148885400D02*
X44379000Y-151745400D01*
%TO.C,R1*%
X50700000Y-129386064D02*
X50700000Y-128931936D01*
X52170000Y-129386064D02*
X52170000Y-128931936D01*
%TO.C,R4*%
X74890100Y-130556724D02*
X74890100Y-130047276D01*
X75935100Y-130556724D02*
X75935100Y-130047276D01*
%TO.C,U2*%
X73996800Y-163654500D02*
X78637800Y-163654500D01*
X73996800Y-163654500D02*
X73996800Y-153414500D01*
X75506800Y-163654500D02*
X75506800Y-153414500D01*
X78637800Y-163654500D02*
X78637800Y-153414500D01*
X73996800Y-160384500D02*
X75506800Y-160384500D01*
X73996800Y-156683500D02*
X75506800Y-156683500D01*
X73996800Y-153414500D02*
X78637800Y-153414500D01*
%TO.C,R20*%
X76734576Y-147991300D02*
X77244024Y-147991300D01*
X76734576Y-149036300D02*
X77244024Y-149036300D01*
%TO.C,C20*%
X47771267Y-132717000D02*
X47478733Y-132717000D01*
X47771267Y-131697000D02*
X47478733Y-131697000D01*
%TO.C,R23*%
X36588656Y-133335500D02*
X37098104Y-133335500D01*
X36588656Y-134380500D02*
X37098104Y-134380500D01*
%TO.C,J8*%
X89180000Y-77440000D02*
X89180000Y-78550000D01*
X88420000Y-77440000D02*
X89180000Y-77440000D01*
X87660000Y-77440000D02*
X86455000Y-77440000D01*
X87660000Y-77440000D02*
X87660000Y-77986529D01*
X86455000Y-77440000D02*
X86455000Y-78242470D01*
X86455000Y-78857530D02*
X86455000Y-79660000D01*
X87660000Y-79113471D02*
X87660000Y-79660000D01*
X87660000Y-79660000D02*
X86455000Y-79660000D01*
%TO.C,R6*%
X19384000Y-84416000D02*
X14144000Y-84416000D01*
X19384000Y-84416000D02*
X19384000Y-110656000D01*
X14144000Y-84416000D02*
X14144000Y-110656000D01*
X19384000Y-110656000D02*
X14144000Y-110656000D01*
%TO.C,R28*%
X49422936Y-147765000D02*
X49877064Y-147765000D01*
X49422936Y-149235000D02*
X49877064Y-149235000D01*
%TO.C,J9*%
X48240000Y-152260000D02*
X48240000Y-151150000D01*
X49000000Y-152260000D02*
X48240000Y-152260000D01*
X49760000Y-152260000D02*
X50965000Y-152260000D01*
X49760000Y-152260000D02*
X49760000Y-151713471D01*
X50965000Y-152260000D02*
X50965000Y-151457530D01*
X50965000Y-150842470D02*
X50965000Y-150040000D01*
X49760000Y-150586529D02*
X49760000Y-150040000D01*
X49760000Y-150040000D02*
X50965000Y-150040000D01*
%TO.C,U4*%
X47000600Y-160255000D02*
X40990600Y-160255000D01*
X44750600Y-153435000D02*
X40990600Y-153435000D01*
X40990600Y-160255000D02*
X40990600Y-158995000D01*
X40990600Y-153435000D02*
X40990600Y-154695000D01*
%TO.C,U1*%
X23603200Y-163692200D02*
X28244200Y-163692200D01*
X23603200Y-163692200D02*
X23603200Y-153452200D01*
X25113200Y-163692200D02*
X25113200Y-153452200D01*
X28244200Y-163692200D02*
X28244200Y-153452200D01*
X23603200Y-160422200D02*
X25113200Y-160422200D01*
X23603200Y-156721200D02*
X25113200Y-156721200D01*
X23603200Y-153452200D02*
X28244200Y-153452200D01*
%TO.C,R19*%
X76736476Y-149540700D02*
X77245924Y-149540700D01*
X76736476Y-150585700D02*
X77245924Y-150585700D01*
%TO.C,J6*%
X78890000Y-105390000D02*
X80310000Y-105390000D01*
X78890000Y-117110000D02*
X78890000Y-105390000D01*
X80310000Y-105390000D02*
X80310000Y-109890000D01*
X80310000Y-109890000D02*
X83950000Y-109890000D01*
X81150000Y-105700000D02*
X81750000Y-105700000D01*
X81200000Y-111000000D02*
X81200000Y-116500000D01*
X81200000Y-116500000D02*
X81700000Y-116500000D01*
X81450000Y-106300000D02*
X81150000Y-105700000D01*
X81700000Y-111000000D02*
X81200000Y-111000000D01*
X81700000Y-116500000D02*
X81700000Y-111000000D01*
X81750000Y-105700000D02*
X81450000Y-106300000D01*
X83700000Y-111000000D02*
X83700000Y-116500000D01*
X83700000Y-116500000D02*
X84200000Y-116500000D01*
X83950000Y-117110000D02*
X78890000Y-117110000D01*
X83950000Y-117110000D02*
X89010000Y-117110000D01*
X84200000Y-111000000D02*
X83700000Y-111000000D01*
X84200000Y-116500000D02*
X84200000Y-111000000D01*
X86200000Y-111000000D02*
X86200000Y-116500000D01*
X86200000Y-116500000D02*
X86700000Y-116500000D01*
X86700000Y-111000000D02*
X86200000Y-111000000D01*
X86700000Y-116500000D02*
X86700000Y-111000000D01*
X87590000Y-105390000D02*
X87590000Y-109890000D01*
X87590000Y-109890000D02*
X83950000Y-109890000D01*
X89010000Y-105390000D02*
X87590000Y-105390000D01*
X89010000Y-117110000D02*
X89010000Y-105390000D01*
%TO.C,C23*%
X76079133Y-132967000D02*
X76371667Y-132967000D01*
X76079133Y-133987000D02*
X76371667Y-133987000D01*
%TO.C,C24*%
X20622000Y-109148000D02*
X23707000Y-109148000D01*
X20622000Y-109148000D02*
X20622000Y-84908000D01*
X26077000Y-109148000D02*
X29162000Y-109148000D01*
X29162000Y-109148000D02*
X29162000Y-84908000D01*
X20622000Y-84908000D02*
X23707000Y-84908000D01*
X26077000Y-84908000D02*
X29162000Y-84908000D01*
%TO.C,D14*%
X34996000Y-130855000D02*
X33076000Y-130855000D01*
X33076000Y-130855000D02*
X33076000Y-133715000D01*
X34996000Y-133715000D02*
X34996000Y-130855000D01*
%TO.C,R3*%
X66143200Y-129513064D02*
X66143200Y-129058936D01*
X67613200Y-129513064D02*
X67613200Y-129058936D01*
%TO.C,R27*%
X44058100Y-148335276D02*
X44058100Y-148844724D01*
X43013100Y-148335276D02*
X43013100Y-148844724D01*
D15*
%TO.C,Q1*%
X42227600Y-139192200D02*
X43827600Y-139192200D01*
X42227600Y-142392200D02*
X43827600Y-142392200D01*
D13*
X40699600Y-139847200D02*
G75*
G03*
X40699600Y-139847200I-100000J0D01*
G01*
D14*
%TO.C,C9*%
X22770752Y-131212000D02*
X21348248Y-131212000D01*
X22770752Y-129392000D02*
X21348248Y-129392000D01*
D15*
%TO.C,PS2*%
X79044600Y-163544700D02*
X79044600Y-141544700D01*
X88544600Y-163544700D02*
X79044600Y-163544700D01*
X79044600Y-141544700D02*
X88544600Y-141544700D01*
X88544600Y-141544700D02*
X88544600Y-163544700D01*
D13*
X81844600Y-164244700D02*
G75*
G03*
X81844600Y-164244700I-100000J0D01*
G01*
D14*
%TO.C,D15*%
X38664000Y-134575000D02*
X40584000Y-134575000D01*
X40584000Y-134575000D02*
X40584000Y-131715000D01*
X38664000Y-131715000D02*
X38664000Y-134575000D01*
%TO.C,J7*%
X88910000Y-34210000D02*
X87490000Y-34210000D01*
X88910000Y-22490000D02*
X88910000Y-34210000D01*
X87490000Y-34210000D02*
X87490000Y-29710000D01*
X87490000Y-29710000D02*
X83850000Y-29710000D01*
X86650000Y-33900000D02*
X86050000Y-33900000D01*
X86600000Y-28600000D02*
X86600000Y-23100000D01*
X86600000Y-23100000D02*
X86100000Y-23100000D01*
X86350000Y-33300000D02*
X86650000Y-33900000D01*
X86100000Y-28600000D02*
X86600000Y-28600000D01*
X86100000Y-23100000D02*
X86100000Y-28600000D01*
X86050000Y-33900000D02*
X86350000Y-33300000D01*
X84100000Y-28600000D02*
X84100000Y-23100000D01*
X84100000Y-23100000D02*
X83600000Y-23100000D01*
X83850000Y-22490000D02*
X88910000Y-22490000D01*
X83850000Y-22490000D02*
X78790000Y-22490000D01*
X83600000Y-28600000D02*
X84100000Y-28600000D01*
X83600000Y-23100000D02*
X83600000Y-28600000D01*
X81600000Y-28600000D02*
X81600000Y-23100000D01*
X81600000Y-23100000D02*
X81100000Y-23100000D01*
X81100000Y-28600000D02*
X81600000Y-28600000D01*
X81100000Y-23100000D02*
X81100000Y-28600000D01*
X80210000Y-34210000D02*
X80210000Y-29710000D01*
X80210000Y-29710000D02*
X83850000Y-29710000D01*
X78790000Y-34210000D02*
X80210000Y-34210000D01*
X78790000Y-22490000D02*
X78790000Y-34210000D01*
%TO.C,J1*%
X19245800Y-155854400D02*
X19245800Y-157274400D01*
X7525800Y-155854400D02*
X19245800Y-155854400D01*
X19245800Y-157274400D02*
X14745800Y-157274400D01*
X14745800Y-157274400D02*
X14745800Y-159664400D01*
X18935800Y-158114400D02*
X18935800Y-158714400D01*
X13635800Y-158164400D02*
X8135800Y-158164400D01*
X8135800Y-158164400D02*
X8135800Y-158664400D01*
X18335800Y-158414400D02*
X18935800Y-158114400D01*
X13635800Y-158664400D02*
X13635800Y-158164400D01*
X8135800Y-158664400D02*
X13635800Y-158664400D01*
X18935800Y-158714400D02*
X18335800Y-158414400D01*
X7525800Y-159664400D02*
X7525800Y-155854400D01*
X7525800Y-159664400D02*
X7525800Y-163474400D01*
X13635800Y-160664400D02*
X8135800Y-160664400D01*
X8135800Y-160664400D02*
X8135800Y-161164400D01*
X13635800Y-161164400D02*
X13635800Y-160664400D01*
X8135800Y-161164400D02*
X13635800Y-161164400D01*
X19245800Y-162054400D02*
X14745800Y-162054400D01*
X14745800Y-162054400D02*
X14745800Y-159664400D01*
X19245800Y-163474400D02*
X19245800Y-162054400D01*
X7525800Y-163474400D02*
X19245800Y-163474400D01*
%TO.C,C10*%
X89285400Y-150495052D02*
X89285400Y-149072548D01*
X91105400Y-150495052D02*
X91105400Y-149072548D01*
D12*
%TO.C,U9*%
X74140000Y-37930000D02*
X94460000Y-37930000D01*
X74140000Y-91270000D02*
X74140000Y-37930000D01*
X80490000Y-37930000D02*
X80490000Y-43010000D01*
X80490000Y-43010000D02*
X88110000Y-43010000D01*
X88110000Y-43010000D02*
X88110000Y-37930000D01*
X94460000Y-37930000D02*
X94460000Y-91270000D01*
X94460000Y-91270000D02*
X74140000Y-91270000D01*
D14*
%TO.C,C13*%
X89310800Y-145186452D02*
X89310800Y-143763948D01*
X91130800Y-145186452D02*
X91130800Y-143763948D01*
%TO.C,C15*%
X42261200Y-148589948D02*
X42261200Y-150012452D01*
X40441200Y-148589948D02*
X40441200Y-150012452D01*
%TO.C,R11*%
X52986000Y-129386064D02*
X52986000Y-128931936D01*
X54456000Y-129386064D02*
X54456000Y-128931936D01*
%TO.C,D7*%
X17272000Y-34560000D02*
X17272000Y-36020000D01*
X20042000Y-36020000D02*
X14502000Y-36020000D01*
X14502000Y-36020000D02*
X14502000Y-45260000D01*
X20042000Y-37370000D02*
X14502000Y-37370000D01*
X20042000Y-37490000D02*
X14502000Y-37490000D01*
X20042000Y-37610000D02*
X14502000Y-37610000D01*
X20042000Y-45260000D02*
X20042000Y-36020000D01*
X14502000Y-45260000D02*
X20042000Y-45260000D01*
X17272000Y-46720000D02*
X17272000Y-45260000D01*
%TO.C,U7*%
X92010800Y-122249800D02*
X30010800Y-122249800D01*
X92010800Y-14249800D02*
X92010800Y-122249800D01*
X92010800Y-14249800D02*
X30010800Y-14249800D01*
X30010800Y-14249800D02*
X30010800Y-122249800D01*
%TD*%
M02*
