%TF.GenerationSoftware,KiCad,Pcbnew,7.0.9*%
%TF.CreationDate,2024-01-08T16:14:26+05:30*%
%TF.ProjectId,Inverter,496e7665-7274-4657-922e-6b696361645f,rev?*%
%TF.SameCoordinates,Original*%
%TF.FileFunction,Soldermask,Top*%
%TF.FilePolarity,Negative*%
%FSLAX46Y46*%
G04 Gerber Fmt 4.6, Leading zero omitted, Abs format (unit mm)*
G04 Created by KiCad (PCBNEW 7.0.9) date 2024-01-08 16:14:26*
%MOMM*%
%LPD*%
G01*
G04 APERTURE LIST*
G04 Aperture macros list*
%AMRoundRect*
0 Rectangle with rounded corners*
0 $1 Rounding radius*
0 $2 $3 $4 $5 $6 $7 $8 $9 X,Y pos of 4 corners*
0 Add a 4 corners polygon primitive as box body*
4,1,4,$2,$3,$4,$5,$6,$7,$8,$9,$2,$3,0*
0 Add four circle primitives for the rounded corners*
1,1,$1+$1,$2,$3*
1,1,$1+$1,$4,$5*
1,1,$1+$1,$6,$7*
1,1,$1+$1,$8,$9*
0 Add four rect primitives between the rounded corners*
20,1,$1+$1,$2,$3,$4,$5,0*
20,1,$1+$1,$4,$5,$6,$7,0*
20,1,$1+$1,$6,$7,$8,$9,0*
20,1,$1+$1,$8,$9,$2,$3,0*%
G04 Aperture macros list end*
%ADD10RoundRect,0.250000X1.500000X0.650000X-1.500000X0.650000X-1.500000X-0.650000X1.500000X-0.650000X0*%
%ADD11RoundRect,0.250000X0.450000X-0.350000X0.450000X0.350000X-0.450000X0.350000X-0.450000X-0.350000X0*%
%ADD12RoundRect,0.250000X0.412500X0.650000X-0.412500X0.650000X-0.412500X-0.650000X0.412500X-0.650000X0*%
%ADD13RoundRect,0.250000X-0.412500X-0.650000X0.412500X-0.650000X0.412500X0.650000X-0.412500X0.650000X0*%
%ADD14R,2.600000X2.600000*%
%ADD15O,2.600000X2.600000*%
%ADD16R,0.650000X1.850000*%
%ADD17C,3.200000*%
%ADD18R,2.000000X1.905000*%
%ADD19O,2.000000X1.905000*%
%ADD20RoundRect,0.102000X0.754000X-0.754000X0.754000X0.754000X-0.754000X0.754000X-0.754000X-0.754000X0*%
%ADD21C,1.712000*%
%ADD22RoundRect,0.250000X-0.600000X-0.725000X0.600000X-0.725000X0.600000X0.725000X-0.600000X0.725000X0*%
%ADD23O,1.700000X1.950000*%
%ADD24C,2.400000*%
%ADD25C,2.800000*%
%ADD26C,1.512000*%
%ADD27RoundRect,0.102000X-0.654000X-0.654000X0.654000X-0.654000X0.654000X0.654000X-0.654000X0.654000X0*%
%ADD28RoundRect,0.190500X-0.516500X-0.206500X0.516500X-0.206500X0.516500X0.206500X-0.516500X0.206500X0*%
%ADD29RoundRect,0.250000X-0.650000X1.500000X-0.650000X-1.500000X0.650000X-1.500000X0.650000X1.500000X0*%
%ADD30RoundRect,0.237500X0.250000X0.237500X-0.250000X0.237500X-0.250000X-0.237500X0.250000X-0.237500X0*%
%ADD31RoundRect,0.250000X0.750000X-0.600000X0.750000X0.600000X-0.750000X0.600000X-0.750000X-0.600000X0*%
%ADD32O,2.000000X1.700000*%
%ADD33RoundRect,0.237500X-0.250000X-0.237500X0.250000X-0.237500X0.250000X0.237500X-0.250000X0.237500X0*%
%ADD34RoundRect,0.250000X0.450000X-0.325000X0.450000X0.325000X-0.450000X0.325000X-0.450000X-0.325000X0*%
%ADD35RoundRect,0.237500X0.237500X-0.250000X0.237500X0.250000X-0.237500X0.250000X-0.237500X-0.250000X0*%
%ADD36RoundRect,0.237500X0.300000X0.237500X-0.300000X0.237500X-0.300000X-0.237500X0.300000X-0.237500X0*%
%ADD37R,2.000000X1.500000*%
%ADD38R,2.000000X3.800000*%
%ADD39RoundRect,0.102000X0.654000X-0.654000X0.654000X0.654000X-0.654000X0.654000X-0.654000X-0.654000X0*%
%ADD40RoundRect,0.237500X-0.300000X-0.237500X0.300000X-0.237500X0.300000X0.237500X-0.300000X0.237500X0*%
%ADD41RoundRect,0.102000X-0.654000X0.654000X-0.654000X-0.654000X0.654000X-0.654000X0.654000X0.654000X0*%
%ADD42RoundRect,0.250000X-0.450000X0.325000X-0.450000X-0.325000X0.450000X-0.325000X0.450000X0.325000X0*%
%ADD43RoundRect,0.237500X-0.237500X0.250000X-0.237500X-0.250000X0.237500X-0.250000X0.237500X0.250000X0*%
%ADD44RoundRect,0.250000X-0.750000X0.600000X-0.750000X-0.600000X0.750000X-0.600000X0.750000X0.600000X0*%
%ADD45RoundRect,0.250000X0.650000X-0.412500X0.650000X0.412500X-0.650000X0.412500X-0.650000X-0.412500X0*%
%ADD46RoundRect,0.250000X-0.650000X0.412500X-0.650000X-0.412500X0.650000X-0.412500X0.650000X0.412500X0*%
%ADD47C,6.000000*%
%ADD48R,18.000000X14.000000*%
%ADD49C,4.000000*%
%ADD50R,1.000000X1.000000*%
%ADD51O,1.000000X1.000000*%
G04 APERTURE END LIST*
D10*
%TO.C,D3*%
X56348000Y-124587000D03*
X51348000Y-124587000D03*
%TD*%
D11*
%TO.C,R12*%
X69258400Y-130320800D03*
X69258400Y-128320800D03*
%TD*%
D12*
%TO.C,C2*%
X48400100Y-162509200D03*
X45275100Y-162509200D03*
%TD*%
D13*
%TO.C,C12*%
X24472500Y-137287000D03*
X27597500Y-137287000D03*
%TD*%
D14*
%TO.C,D8*%
X26111200Y-30988000D03*
D15*
X26111200Y-15748000D03*
%TD*%
D16*
%TO.C,IC1*%
X57632600Y-134312400D03*
X56362600Y-134312400D03*
X55092600Y-134312400D03*
X53822600Y-134312400D03*
X52552600Y-134312400D03*
X51282600Y-134312400D03*
X50012600Y-134312400D03*
X48742600Y-134312400D03*
X48742600Y-143662400D03*
X50012600Y-143662400D03*
X51282600Y-143662400D03*
X52552600Y-143662400D03*
X53822600Y-143662400D03*
X55092600Y-143662400D03*
X56362600Y-143662400D03*
X57632600Y-143662400D03*
%TD*%
D17*
%TO.C,H4*%
X-129313800Y-98988200D03*
%TD*%
D18*
%TO.C,U3*%
X50977800Y-161061400D03*
D19*
X50977800Y-158521400D03*
X50977800Y-155981400D03*
%TD*%
D20*
%TO.C,PS1*%
X16365000Y-152595500D03*
D21*
X16365000Y-150055500D03*
X16365000Y-147515500D03*
X16365000Y-142435500D03*
X16365000Y-139895500D03*
X16365000Y-137355500D03*
X16365000Y-134815500D03*
%TD*%
D22*
%TO.C,J2*%
X55706000Y-150977600D03*
D23*
X58206000Y-150977600D03*
X60706000Y-150977600D03*
X63206000Y-150977600D03*
X65706000Y-150977600D03*
X68206000Y-150977600D03*
X70706000Y-150977600D03*
%TD*%
D17*
%TO.C,H3*%
X-129313800Y-91038200D03*
%TD*%
D24*
%TO.C,C25*%
X24892000Y-42267800D03*
X24892000Y-64767800D03*
%TD*%
D25*
%TO.C,R5*%
X25679400Y-95029000D03*
X25679400Y-115029000D03*
%TD*%
D26*
%TO.C,IC3*%
X18796000Y-121666000D03*
X23876000Y-121666000D03*
D27*
X16256000Y-121666000D03*
D26*
X28956000Y-121666000D03*
%TD*%
D28*
%TO.C,Q2*%
X41823400Y-143398200D03*
X41823400Y-144348200D03*
X41823400Y-145298200D03*
X44333400Y-145298200D03*
X44333400Y-144348200D03*
X44333400Y-143398200D03*
%TD*%
D29*
%TO.C,D6*%
X78054200Y-123128400D03*
X78054200Y-128128400D03*
%TD*%
D30*
%TO.C,R24*%
X37742500Y-131572000D03*
X35917500Y-131572000D03*
%TD*%
D31*
%TO.C,J3*%
X91622200Y-160914400D03*
D32*
X91622200Y-158414400D03*
%TD*%
D33*
%TO.C,R18*%
X76102200Y-151638000D03*
X77927200Y-151638000D03*
%TD*%
D34*
%TO.C,D19*%
X45339000Y-150910400D03*
X45339000Y-148860400D03*
%TD*%
D11*
%TO.C,R1*%
X51435000Y-130159000D03*
X51435000Y-128159000D03*
%TD*%
D35*
%TO.C,R4*%
X75412600Y-131214500D03*
X75412600Y-129389500D03*
%TD*%
D18*
%TO.C,U2*%
X77266800Y-161074500D03*
D19*
X77266800Y-158534500D03*
X77266800Y-155994500D03*
%TD*%
D33*
%TO.C,R20*%
X76076800Y-148513800D03*
X77901800Y-148513800D03*
%TD*%
D36*
%TO.C,C20*%
X48487500Y-132207000D03*
X46762500Y-132207000D03*
%TD*%
D33*
%TO.C,R23*%
X35930880Y-133858000D03*
X37755880Y-133858000D03*
%TD*%
D16*
%TO.C,IC5*%
X73050400Y-134210800D03*
X71780400Y-134210800D03*
X70510400Y-134210800D03*
X69240400Y-134210800D03*
X67970400Y-134210800D03*
X66700400Y-134210800D03*
X65430400Y-134210800D03*
X64160400Y-134210800D03*
X64160400Y-143560800D03*
X65430400Y-143560800D03*
X66700400Y-143560800D03*
X67970400Y-143560800D03*
X69240400Y-143560800D03*
X70510400Y-143560800D03*
X71780400Y-143560800D03*
X73050400Y-143560800D03*
%TD*%
D12*
%TO.C,C7*%
X74460500Y-162395300D03*
X71335500Y-162395300D03*
%TD*%
D25*
%TO.C,R6*%
X16713200Y-37228800D03*
X16713200Y-17228800D03*
%TD*%
D37*
%TO.C,U4*%
X46050600Y-159145000D03*
X46050600Y-156845000D03*
D38*
X39750600Y-156845000D03*
D37*
X46050600Y-154545000D03*
%TD*%
D26*
%TO.C,IC2*%
X32411800Y-156688200D03*
X32411800Y-151608200D03*
D39*
X32411800Y-159228200D03*
D26*
X32411800Y-146528200D03*
%TD*%
D18*
%TO.C,U1*%
X26873200Y-161112200D03*
D19*
X26873200Y-158572200D03*
X26873200Y-156032200D03*
%TD*%
D33*
%TO.C,R19*%
X76078700Y-150063200D03*
X77903700Y-150063200D03*
%TD*%
D40*
%TO.C,C23*%
X75362900Y-133477000D03*
X77087900Y-133477000D03*
%TD*%
D26*
%TO.C,IC4*%
X92075000Y-127000000D03*
X92075000Y-132080000D03*
D41*
X92075000Y-124460000D03*
D26*
X92075000Y-137160000D03*
%TD*%
D24*
%TO.C,C24*%
X17449800Y-91056800D03*
X17449800Y-68556800D03*
%TD*%
D42*
%TO.C,D14*%
X34036000Y-131690000D03*
X34036000Y-133740000D03*
%TD*%
D17*
%TO.C,H1*%
X-129313800Y-75138200D03*
%TD*%
D11*
%TO.C,R3*%
X66878200Y-130286000D03*
X66878200Y-128286000D03*
%TD*%
D43*
%TO.C,R27*%
X43535600Y-147677500D03*
X43535600Y-149502500D03*
%TD*%
D28*
%TO.C,Q1*%
X41772600Y-139842200D03*
X41772600Y-140792200D03*
X41772600Y-141742200D03*
X44282600Y-141742200D03*
X44282600Y-140792200D03*
X44282600Y-139842200D03*
%TD*%
D12*
%TO.C,C9*%
X23622000Y-130302000D03*
X20497000Y-130302000D03*
%TD*%
D17*
%TO.C,H2*%
X-129313800Y-83088200D03*
%TD*%
D20*
%TO.C,PS2*%
X81744600Y-161434700D03*
D21*
X81744600Y-158894700D03*
X81744600Y-156354700D03*
X81744600Y-151274700D03*
X81744600Y-148734700D03*
X81744600Y-146194700D03*
X81744600Y-143654700D03*
%TD*%
D34*
%TO.C,D15*%
X39624000Y-133740000D03*
X39624000Y-131690000D03*
%TD*%
D12*
%TO.C,C1*%
X24219300Y-162407600D03*
X21094300Y-162407600D03*
%TD*%
D44*
%TO.C,J1*%
X16835800Y-158414400D03*
D32*
X16835800Y-160914400D03*
%TD*%
D45*
%TO.C,C10*%
X90195400Y-151346300D03*
X90195400Y-148221300D03*
%TD*%
%TO.C,C13*%
X90220800Y-146037700D03*
X90220800Y-142912700D03*
%TD*%
D46*
%TO.C,C15*%
X41351200Y-147738700D03*
X41351200Y-150863700D03*
%TD*%
D11*
%TO.C,R11*%
X53721000Y-130159000D03*
X53721000Y-128159000D03*
%TD*%
D14*
%TO.C,D7*%
X17500600Y-95758000D03*
D15*
X17500600Y-110998000D03*
%TD*%
D47*
%TO.C,U7*%
X84010800Y-116249800D03*
X84010800Y-22249800D03*
X38010800Y-116249800D03*
X38010800Y-22249800D03*
D48*
X61010800Y-41249800D03*
X61010800Y-69249800D03*
X61010800Y-97249800D03*
D49*
X73837800Y-119212800D03*
X73837800Y-115402800D03*
X67741800Y-119212800D03*
X67741800Y-115402800D03*
X46659800Y-119212800D03*
X46659800Y-115402800D03*
X52755800Y-119212800D03*
X52755800Y-115402800D03*
%TD*%
D50*
%TO.C,J4*%
X59461400Y-148742400D03*
D51*
X58191400Y-148742400D03*
X56921400Y-148742400D03*
%TD*%
M02*
