%TF.GenerationSoftware,KiCad,Pcbnew,7.0.9*%
%TF.CreationDate,2024-01-08T16:14:44+05:30*%
%TF.ProjectId,Inverter,496e7665-7274-4657-922e-6b696361645f,rev?*%
%TF.SameCoordinates,Original*%
%TF.FileFunction,Drillmap*%
%TF.FilePolarity,Positive*%
%FSLAX45Y45*%
G04 Gerber Fmt 4.5, Leading zero omitted, Abs format (unit mm)*
G04 Created by KiCad (PCBNEW 7.0.9) date 2024-01-08 16:14:44*
%MOMM*%
%LPD*%
G01*
G04 APERTURE LIST*
%ADD10C,0.100000*%
%ADD11C,0.200000*%
G04 APERTURE END LIST*
D10*
X7520940Y-10642600D02*
X9342120Y-10650220D01*
X9344660Y-16393160D01*
X1330960Y-16383000D01*
X1320800Y-1267460D01*
X1323340Y-1267460D01*
X7495540Y-1267460D01*
X7520940Y-10642600D01*
D11*
D10*
X4211640Y-7754940D02*
X4251640Y-7794940D01*
X4251640Y-7754940D02*
X4211640Y-7794940D01*
X4483420Y-8377240D02*
X4523420Y-8417240D01*
X4523420Y-8377240D02*
X4483420Y-8417240D01*
X4706940Y-8382320D02*
X4746940Y-8422320D01*
X4746940Y-8382320D02*
X4706940Y-8422320D01*
X4940620Y-8384860D02*
X4980620Y-8424860D01*
X4980620Y-8384860D02*
X4940620Y-8424860D01*
X5781360Y-7925120D02*
X5821360Y-7965120D01*
X5821360Y-7925120D02*
X5781360Y-7965120D01*
X5791520Y-8364540D02*
X5831520Y-8404540D01*
X5831520Y-8364540D02*
X5791520Y-8404540D01*
X6116640Y-7920040D02*
X6156640Y-7960040D01*
X6156640Y-7920040D02*
X6116640Y-7960040D01*
X6119180Y-8364540D02*
X6159180Y-8404540D01*
X6159180Y-8364540D02*
X6119180Y-8404540D01*
X6449380Y-7912420D02*
X6489380Y-7952420D01*
X6489380Y-7912420D02*
X6449380Y-7952420D01*
X6457000Y-8367080D02*
X6497000Y-8407080D01*
X6497000Y-8367080D02*
X6457000Y-8407080D01*
D11*
X1576577Y-16709644D02*
X1576577Y-16509644D01*
X1576577Y-16509644D02*
X1624196Y-16509644D01*
X1624196Y-16509644D02*
X1652767Y-16519168D01*
X1652767Y-16519168D02*
X1671815Y-16538215D01*
X1671815Y-16538215D02*
X1681339Y-16557263D01*
X1681339Y-16557263D02*
X1690862Y-16595358D01*
X1690862Y-16595358D02*
X1690862Y-16623929D01*
X1690862Y-16623929D02*
X1681339Y-16662025D01*
X1681339Y-16662025D02*
X1671815Y-16681072D01*
X1671815Y-16681072D02*
X1652767Y-16700120D01*
X1652767Y-16700120D02*
X1624196Y-16709644D01*
X1624196Y-16709644D02*
X1576577Y-16709644D01*
X1776577Y-16709644D02*
X1776577Y-16576310D01*
X1776577Y-16614406D02*
X1786101Y-16595358D01*
X1786101Y-16595358D02*
X1795624Y-16585834D01*
X1795624Y-16585834D02*
X1814672Y-16576310D01*
X1814672Y-16576310D02*
X1833720Y-16576310D01*
X1900386Y-16709644D02*
X1900386Y-16576310D01*
X1900386Y-16509644D02*
X1890862Y-16519168D01*
X1890862Y-16519168D02*
X1900386Y-16528691D01*
X1900386Y-16528691D02*
X1909910Y-16519168D01*
X1909910Y-16519168D02*
X1900386Y-16509644D01*
X1900386Y-16509644D02*
X1900386Y-16528691D01*
X2024196Y-16709644D02*
X2005148Y-16700120D01*
X2005148Y-16700120D02*
X1995624Y-16681072D01*
X1995624Y-16681072D02*
X1995624Y-16509644D01*
X2128958Y-16709644D02*
X2109910Y-16700120D01*
X2109910Y-16700120D02*
X2100386Y-16681072D01*
X2100386Y-16681072D02*
X2100386Y-16509644D01*
X2357529Y-16709644D02*
X2357529Y-16509644D01*
X2357529Y-16509644D02*
X2424196Y-16652501D01*
X2424196Y-16652501D02*
X2490863Y-16509644D01*
X2490863Y-16509644D02*
X2490863Y-16709644D01*
X2671815Y-16709644D02*
X2671815Y-16604882D01*
X2671815Y-16604882D02*
X2662291Y-16585834D01*
X2662291Y-16585834D02*
X2643244Y-16576310D01*
X2643244Y-16576310D02*
X2605148Y-16576310D01*
X2605148Y-16576310D02*
X2586101Y-16585834D01*
X2671815Y-16700120D02*
X2652767Y-16709644D01*
X2652767Y-16709644D02*
X2605148Y-16709644D01*
X2605148Y-16709644D02*
X2586101Y-16700120D01*
X2586101Y-16700120D02*
X2576577Y-16681072D01*
X2576577Y-16681072D02*
X2576577Y-16662025D01*
X2576577Y-16662025D02*
X2586101Y-16642977D01*
X2586101Y-16642977D02*
X2605148Y-16633453D01*
X2605148Y-16633453D02*
X2652767Y-16633453D01*
X2652767Y-16633453D02*
X2671815Y-16623929D01*
X2767053Y-16576310D02*
X2767053Y-16776310D01*
X2767053Y-16585834D02*
X2786101Y-16576310D01*
X2786101Y-16576310D02*
X2824196Y-16576310D01*
X2824196Y-16576310D02*
X2843243Y-16585834D01*
X2843243Y-16585834D02*
X2852767Y-16595358D01*
X2852767Y-16595358D02*
X2862291Y-16614406D01*
X2862291Y-16614406D02*
X2862291Y-16671548D01*
X2862291Y-16671548D02*
X2852767Y-16690596D01*
X2852767Y-16690596D02*
X2843243Y-16700120D01*
X2843243Y-16700120D02*
X2824196Y-16709644D01*
X2824196Y-16709644D02*
X2786101Y-16709644D01*
X2786101Y-16709644D02*
X2767053Y-16700120D01*
X2948005Y-16690596D02*
X2957529Y-16700120D01*
X2957529Y-16700120D02*
X2948005Y-16709644D01*
X2948005Y-16709644D02*
X2938482Y-16700120D01*
X2938482Y-16700120D02*
X2948005Y-16690596D01*
X2948005Y-16690596D02*
X2948005Y-16709644D01*
X2948005Y-16585834D02*
X2957529Y-16595358D01*
X2957529Y-16595358D02*
X2948005Y-16604882D01*
X2948005Y-16604882D02*
X2938482Y-16595358D01*
X2938482Y-16595358D02*
X2948005Y-16585834D01*
X2948005Y-16585834D02*
X2948005Y-16604882D01*
D10*
X1275800Y-17018160D02*
X1315800Y-17058160D01*
X1315800Y-17018160D02*
X1275800Y-17058160D01*
D11*
X1614672Y-16929644D02*
X1633720Y-16929644D01*
X1633720Y-16929644D02*
X1652767Y-16939168D01*
X1652767Y-16939168D02*
X1662291Y-16948691D01*
X1662291Y-16948691D02*
X1671815Y-16967739D01*
X1671815Y-16967739D02*
X1681339Y-17005834D01*
X1681339Y-17005834D02*
X1681339Y-17053453D01*
X1681339Y-17053453D02*
X1671815Y-17091549D01*
X1671815Y-17091549D02*
X1662291Y-17110596D01*
X1662291Y-17110596D02*
X1652767Y-17120120D01*
X1652767Y-17120120D02*
X1633720Y-17129644D01*
X1633720Y-17129644D02*
X1614672Y-17129644D01*
X1614672Y-17129644D02*
X1595624Y-17120120D01*
X1595624Y-17120120D02*
X1586101Y-17110596D01*
X1586101Y-17110596D02*
X1576577Y-17091549D01*
X1576577Y-17091549D02*
X1567053Y-17053453D01*
X1567053Y-17053453D02*
X1567053Y-17005834D01*
X1567053Y-17005834D02*
X1576577Y-16967739D01*
X1576577Y-16967739D02*
X1586101Y-16948691D01*
X1586101Y-16948691D02*
X1595624Y-16939168D01*
X1595624Y-16939168D02*
X1614672Y-16929644D01*
X1767053Y-17110596D02*
X1776577Y-17120120D01*
X1776577Y-17120120D02*
X1767053Y-17129644D01*
X1767053Y-17129644D02*
X1757529Y-17120120D01*
X1757529Y-17120120D02*
X1767053Y-17110596D01*
X1767053Y-17110596D02*
X1767053Y-17129644D01*
X1948005Y-16996310D02*
X1948005Y-17129644D01*
X1900386Y-16920120D02*
X1852767Y-17062977D01*
X1852767Y-17062977D02*
X1976577Y-17062977D01*
X2090862Y-16929644D02*
X2109910Y-16929644D01*
X2109910Y-16929644D02*
X2128958Y-16939168D01*
X2128958Y-16939168D02*
X2138482Y-16948691D01*
X2138482Y-16948691D02*
X2148005Y-16967739D01*
X2148005Y-16967739D02*
X2157529Y-17005834D01*
X2157529Y-17005834D02*
X2157529Y-17053453D01*
X2157529Y-17053453D02*
X2148005Y-17091549D01*
X2148005Y-17091549D02*
X2138482Y-17110596D01*
X2138482Y-17110596D02*
X2128958Y-17120120D01*
X2128958Y-17120120D02*
X2109910Y-17129644D01*
X2109910Y-17129644D02*
X2090862Y-17129644D01*
X2090862Y-17129644D02*
X2071815Y-17120120D01*
X2071815Y-17120120D02*
X2062291Y-17110596D01*
X2062291Y-17110596D02*
X2052767Y-17091549D01*
X2052767Y-17091549D02*
X2043243Y-17053453D01*
X2043243Y-17053453D02*
X2043243Y-17005834D01*
X2043243Y-17005834D02*
X2052767Y-16967739D01*
X2052767Y-16967739D02*
X2062291Y-16948691D01*
X2062291Y-16948691D02*
X2071815Y-16939168D01*
X2071815Y-16939168D02*
X2090862Y-16929644D01*
X2281339Y-16929644D02*
X2300386Y-16929644D01*
X2300386Y-16929644D02*
X2319434Y-16939168D01*
X2319434Y-16939168D02*
X2328958Y-16948691D01*
X2328958Y-16948691D02*
X2338482Y-16967739D01*
X2338482Y-16967739D02*
X2348005Y-17005834D01*
X2348005Y-17005834D02*
X2348005Y-17053453D01*
X2348005Y-17053453D02*
X2338482Y-17091549D01*
X2338482Y-17091549D02*
X2328958Y-17110596D01*
X2328958Y-17110596D02*
X2319434Y-17120120D01*
X2319434Y-17120120D02*
X2300386Y-17129644D01*
X2300386Y-17129644D02*
X2281339Y-17129644D01*
X2281339Y-17129644D02*
X2262291Y-17120120D01*
X2262291Y-17120120D02*
X2252767Y-17110596D01*
X2252767Y-17110596D02*
X2243244Y-17091549D01*
X2243244Y-17091549D02*
X2233720Y-17053453D01*
X2233720Y-17053453D02*
X2233720Y-17005834D01*
X2233720Y-17005834D02*
X2243244Y-16967739D01*
X2243244Y-16967739D02*
X2252767Y-16948691D01*
X2252767Y-16948691D02*
X2262291Y-16939168D01*
X2262291Y-16939168D02*
X2281339Y-16929644D01*
X2433720Y-17129644D02*
X2433720Y-16996310D01*
X2433720Y-17015358D02*
X2443244Y-17005834D01*
X2443244Y-17005834D02*
X2462291Y-16996310D01*
X2462291Y-16996310D02*
X2490863Y-16996310D01*
X2490863Y-16996310D02*
X2509910Y-17005834D01*
X2509910Y-17005834D02*
X2519434Y-17024882D01*
X2519434Y-17024882D02*
X2519434Y-17129644D01*
X2519434Y-17024882D02*
X2528958Y-17005834D01*
X2528958Y-17005834D02*
X2548005Y-16996310D01*
X2548005Y-16996310D02*
X2576577Y-16996310D01*
X2576577Y-16996310D02*
X2595625Y-17005834D01*
X2595625Y-17005834D02*
X2605148Y-17024882D01*
X2605148Y-17024882D02*
X2605148Y-17129644D01*
X2700386Y-17129644D02*
X2700386Y-16996310D01*
X2700386Y-17015358D02*
X2709910Y-17005834D01*
X2709910Y-17005834D02*
X2728958Y-16996310D01*
X2728958Y-16996310D02*
X2757529Y-16996310D01*
X2757529Y-16996310D02*
X2776577Y-17005834D01*
X2776577Y-17005834D02*
X2786101Y-17024882D01*
X2786101Y-17024882D02*
X2786101Y-17129644D01*
X2786101Y-17024882D02*
X2795625Y-17005834D01*
X2795625Y-17005834D02*
X2814672Y-16996310D01*
X2814672Y-16996310D02*
X2843243Y-16996310D01*
X2843243Y-16996310D02*
X2862291Y-17005834D01*
X2862291Y-17005834D02*
X2871815Y-17024882D01*
X2871815Y-17024882D02*
X2871815Y-17129644D01*
X3262291Y-16920120D02*
X3090863Y-17177263D01*
X3519434Y-16929644D02*
X3538482Y-16929644D01*
X3538482Y-16929644D02*
X3557529Y-16939168D01*
X3557529Y-16939168D02*
X3567053Y-16948691D01*
X3567053Y-16948691D02*
X3576577Y-16967739D01*
X3576577Y-16967739D02*
X3586101Y-17005834D01*
X3586101Y-17005834D02*
X3586101Y-17053453D01*
X3586101Y-17053453D02*
X3576577Y-17091549D01*
X3576577Y-17091549D02*
X3567053Y-17110596D01*
X3567053Y-17110596D02*
X3557529Y-17120120D01*
X3557529Y-17120120D02*
X3538482Y-17129644D01*
X3538482Y-17129644D02*
X3519434Y-17129644D01*
X3519434Y-17129644D02*
X3500386Y-17120120D01*
X3500386Y-17120120D02*
X3490863Y-17110596D01*
X3490863Y-17110596D02*
X3481339Y-17091549D01*
X3481339Y-17091549D02*
X3471815Y-17053453D01*
X3471815Y-17053453D02*
X3471815Y-17005834D01*
X3471815Y-17005834D02*
X3481339Y-16967739D01*
X3481339Y-16967739D02*
X3490863Y-16948691D01*
X3490863Y-16948691D02*
X3500386Y-16939168D01*
X3500386Y-16939168D02*
X3519434Y-16929644D01*
X3671815Y-17110596D02*
X3681339Y-17120120D01*
X3681339Y-17120120D02*
X3671815Y-17129644D01*
X3671815Y-17129644D02*
X3662291Y-17120120D01*
X3662291Y-17120120D02*
X3671815Y-17110596D01*
X3671815Y-17110596D02*
X3671815Y-17129644D01*
X3805148Y-16929644D02*
X3824196Y-16929644D01*
X3824196Y-16929644D02*
X3843244Y-16939168D01*
X3843244Y-16939168D02*
X3852767Y-16948691D01*
X3852767Y-16948691D02*
X3862291Y-16967739D01*
X3862291Y-16967739D02*
X3871815Y-17005834D01*
X3871815Y-17005834D02*
X3871815Y-17053453D01*
X3871815Y-17053453D02*
X3862291Y-17091549D01*
X3862291Y-17091549D02*
X3852767Y-17110596D01*
X3852767Y-17110596D02*
X3843244Y-17120120D01*
X3843244Y-17120120D02*
X3824196Y-17129644D01*
X3824196Y-17129644D02*
X3805148Y-17129644D01*
X3805148Y-17129644D02*
X3786101Y-17120120D01*
X3786101Y-17120120D02*
X3776577Y-17110596D01*
X3776577Y-17110596D02*
X3767053Y-17091549D01*
X3767053Y-17091549D02*
X3757529Y-17053453D01*
X3757529Y-17053453D02*
X3757529Y-17005834D01*
X3757529Y-17005834D02*
X3767053Y-16967739D01*
X3767053Y-16967739D02*
X3776577Y-16948691D01*
X3776577Y-16948691D02*
X3786101Y-16939168D01*
X3786101Y-16939168D02*
X3805148Y-16929644D01*
X4062291Y-17129644D02*
X3948006Y-17129644D01*
X4005148Y-17129644D02*
X4005148Y-16929644D01*
X4005148Y-16929644D02*
X3986101Y-16958215D01*
X3986101Y-16958215D02*
X3967053Y-16977263D01*
X3967053Y-16977263D02*
X3948006Y-16986787D01*
X4243244Y-16929644D02*
X4148006Y-16929644D01*
X4148006Y-16929644D02*
X4138482Y-17024882D01*
X4138482Y-17024882D02*
X4148006Y-17015358D01*
X4148006Y-17015358D02*
X4167053Y-17005834D01*
X4167053Y-17005834D02*
X4214672Y-17005834D01*
X4214672Y-17005834D02*
X4233720Y-17015358D01*
X4233720Y-17015358D02*
X4243244Y-17024882D01*
X4243244Y-17024882D02*
X4252768Y-17043930D01*
X4252768Y-17043930D02*
X4252768Y-17091549D01*
X4252768Y-17091549D02*
X4243244Y-17110596D01*
X4243244Y-17110596D02*
X4233720Y-17120120D01*
X4233720Y-17120120D02*
X4214672Y-17129644D01*
X4214672Y-17129644D02*
X4167053Y-17129644D01*
X4167053Y-17129644D02*
X4148006Y-17120120D01*
X4148006Y-17120120D02*
X4138482Y-17110596D01*
X4319434Y-16929644D02*
X4452768Y-16929644D01*
X4452768Y-16929644D02*
X4367053Y-17129644D01*
X4519434Y-16929644D02*
X4519434Y-16967739D01*
X4595625Y-16929644D02*
X4595625Y-16967739D01*
X4890863Y-17205834D02*
X4881339Y-17196310D01*
X4881339Y-17196310D02*
X4862291Y-17167739D01*
X4862291Y-17167739D02*
X4852768Y-17148691D01*
X4852768Y-17148691D02*
X4843244Y-17120120D01*
X4843244Y-17120120D02*
X4833720Y-17072501D01*
X4833720Y-17072501D02*
X4833720Y-17034406D01*
X4833720Y-17034406D02*
X4843244Y-16986787D01*
X4843244Y-16986787D02*
X4852768Y-16958215D01*
X4852768Y-16958215D02*
X4862291Y-16939168D01*
X4862291Y-16939168D02*
X4881339Y-16910596D01*
X4881339Y-16910596D02*
X4890863Y-16901072D01*
X5071815Y-17129644D02*
X4957530Y-17129644D01*
X5014672Y-17129644D02*
X5014672Y-16929644D01*
X5014672Y-16929644D02*
X4995625Y-16958215D01*
X4995625Y-16958215D02*
X4976577Y-16977263D01*
X4976577Y-16977263D02*
X4957530Y-16986787D01*
X5195625Y-16929644D02*
X5214672Y-16929644D01*
X5214672Y-16929644D02*
X5233720Y-16939168D01*
X5233720Y-16939168D02*
X5243244Y-16948691D01*
X5243244Y-16948691D02*
X5252768Y-16967739D01*
X5252768Y-16967739D02*
X5262291Y-17005834D01*
X5262291Y-17005834D02*
X5262291Y-17053453D01*
X5262291Y-17053453D02*
X5252768Y-17091549D01*
X5252768Y-17091549D02*
X5243244Y-17110596D01*
X5243244Y-17110596D02*
X5233720Y-17120120D01*
X5233720Y-17120120D02*
X5214672Y-17129644D01*
X5214672Y-17129644D02*
X5195625Y-17129644D01*
X5195625Y-17129644D02*
X5176577Y-17120120D01*
X5176577Y-17120120D02*
X5167053Y-17110596D01*
X5167053Y-17110596D02*
X5157530Y-17091549D01*
X5157530Y-17091549D02*
X5148006Y-17053453D01*
X5148006Y-17053453D02*
X5148006Y-17005834D01*
X5148006Y-17005834D02*
X5157530Y-16967739D01*
X5157530Y-16967739D02*
X5167053Y-16948691D01*
X5167053Y-16948691D02*
X5176577Y-16939168D01*
X5176577Y-16939168D02*
X5195625Y-16929644D01*
X5500387Y-17129644D02*
X5500387Y-16929644D01*
X5586101Y-17129644D02*
X5586101Y-17024882D01*
X5586101Y-17024882D02*
X5576577Y-17005834D01*
X5576577Y-17005834D02*
X5557530Y-16996310D01*
X5557530Y-16996310D02*
X5528958Y-16996310D01*
X5528958Y-16996310D02*
X5509911Y-17005834D01*
X5509911Y-17005834D02*
X5500387Y-17015358D01*
X5709910Y-17129644D02*
X5690863Y-17120120D01*
X5690863Y-17120120D02*
X5681339Y-17110596D01*
X5681339Y-17110596D02*
X5671815Y-17091549D01*
X5671815Y-17091549D02*
X5671815Y-17034406D01*
X5671815Y-17034406D02*
X5681339Y-17015358D01*
X5681339Y-17015358D02*
X5690863Y-17005834D01*
X5690863Y-17005834D02*
X5709910Y-16996310D01*
X5709910Y-16996310D02*
X5738482Y-16996310D01*
X5738482Y-16996310D02*
X5757530Y-17005834D01*
X5757530Y-17005834D02*
X5767053Y-17015358D01*
X5767053Y-17015358D02*
X5776577Y-17034406D01*
X5776577Y-17034406D02*
X5776577Y-17091549D01*
X5776577Y-17091549D02*
X5767053Y-17110596D01*
X5767053Y-17110596D02*
X5757530Y-17120120D01*
X5757530Y-17120120D02*
X5738482Y-17129644D01*
X5738482Y-17129644D02*
X5709910Y-17129644D01*
X5890863Y-17129644D02*
X5871815Y-17120120D01*
X5871815Y-17120120D02*
X5862291Y-17101072D01*
X5862291Y-17101072D02*
X5862291Y-16929644D01*
X6043244Y-17120120D02*
X6024196Y-17129644D01*
X6024196Y-17129644D02*
X5986101Y-17129644D01*
X5986101Y-17129644D02*
X5967053Y-17120120D01*
X5967053Y-17120120D02*
X5957530Y-17101072D01*
X5957530Y-17101072D02*
X5957530Y-17024882D01*
X5957530Y-17024882D02*
X5967053Y-17005834D01*
X5967053Y-17005834D02*
X5986101Y-16996310D01*
X5986101Y-16996310D02*
X6024196Y-16996310D01*
X6024196Y-16996310D02*
X6043244Y-17005834D01*
X6043244Y-17005834D02*
X6052768Y-17024882D01*
X6052768Y-17024882D02*
X6052768Y-17043930D01*
X6052768Y-17043930D02*
X5957530Y-17062977D01*
X6128958Y-17120120D02*
X6148006Y-17129644D01*
X6148006Y-17129644D02*
X6186101Y-17129644D01*
X6186101Y-17129644D02*
X6205149Y-17120120D01*
X6205149Y-17120120D02*
X6214672Y-17101072D01*
X6214672Y-17101072D02*
X6214672Y-17091549D01*
X6214672Y-17091549D02*
X6205149Y-17072501D01*
X6205149Y-17072501D02*
X6186101Y-17062977D01*
X6186101Y-17062977D02*
X6157530Y-17062977D01*
X6157530Y-17062977D02*
X6138482Y-17053453D01*
X6138482Y-17053453D02*
X6128958Y-17034406D01*
X6128958Y-17034406D02*
X6128958Y-17024882D01*
X6128958Y-17024882D02*
X6138482Y-17005834D01*
X6138482Y-17005834D02*
X6157530Y-16996310D01*
X6157530Y-16996310D02*
X6186101Y-16996310D01*
X6186101Y-16996310D02*
X6205149Y-17005834D01*
X6281339Y-17205834D02*
X6290863Y-17196310D01*
X6290863Y-17196310D02*
X6309911Y-17167739D01*
X6309911Y-17167739D02*
X6319434Y-17148691D01*
X6319434Y-17148691D02*
X6328958Y-17120120D01*
X6328958Y-17120120D02*
X6338482Y-17072501D01*
X6338482Y-17072501D02*
X6338482Y-17034406D01*
X6338482Y-17034406D02*
X6328958Y-16986787D01*
X6328958Y-16986787D02*
X6319434Y-16958215D01*
X6319434Y-16958215D02*
X6309911Y-16939168D01*
X6309911Y-16939168D02*
X6290863Y-16910596D01*
X6290863Y-16910596D02*
X6281339Y-16901072D01*
M02*
