%TF.GenerationSoftware,KiCad,Pcbnew,7.0.9*%
%TF.CreationDate,2024-01-28T15:24:27+05:30*%
%TF.ProjectId,Inverter,496e7665-7274-4657-922e-6b696361645f,rev?*%
%TF.SameCoordinates,Original*%
%TF.FileFunction,Profile,NP*%
%FSLAX46Y46*%
G04 Gerber Fmt 4.6, Leading zero omitted, Abs format (unit mm)*
G04 Created by KiCad (PCBNEW 7.0.9) date 2024-01-28 15:24:27*
%MOMM*%
%LPD*%
G01*
G04 APERTURE LIST*
%TA.AperFunction,Profile*%
%ADD10C,0.100000*%
%TD*%
G04 APERTURE END LIST*
D10*
X75080000Y-44780000D02*
X75370000Y-44780000D01*
X75370000Y-50000000D01*
X75080000Y-50000000D01*
X75080000Y-44780000D01*
X39350000Y-106688800D02*
X72567800Y-106688800D01*
X72567800Y-111747200D01*
X39350000Y-111747200D01*
X39350000Y-106688800D01*
X82650000Y-109840000D02*
X87870000Y-109840000D01*
X87870000Y-110130000D01*
X82650000Y-110130000D01*
X82650000Y-109840000D01*
X75100000Y-84960000D02*
X75340000Y-84960000D01*
X75340000Y-90180000D01*
X75100000Y-90180000D01*
X75100000Y-84960000D01*
X88080000Y-109840000D02*
X93300000Y-109840000D01*
X93300000Y-110130000D01*
X88080000Y-110130000D01*
X88080000Y-109840000D01*
X15472400Y-143738600D02*
X28371800Y-143738600D01*
X28371800Y-144805400D01*
X15472400Y-144805400D01*
X15472400Y-143738600D01*
X75100000Y-102330000D02*
X75340000Y-102330000D01*
X75340000Y-107550000D01*
X75100000Y-107550000D01*
X75100000Y-102330000D01*
X76750000Y-109860000D02*
X81970000Y-109860000D01*
X81970000Y-110150000D01*
X76750000Y-110150000D01*
X76750000Y-109860000D01*
X75350000Y-109850000D02*
X76500000Y-109850000D01*
X76500000Y-110150000D01*
X75100000Y-110150000D01*
X75100000Y-108050000D01*
X75350000Y-108050000D01*
X75350000Y-109850000D01*
X93500000Y-107640000D02*
X93501200Y-107642200D01*
X93446600Y-163931600D01*
X13309600Y-163830000D01*
X13208000Y-29972000D01*
X13233400Y-29438600D01*
X93450000Y-29400000D01*
X93500000Y-107640000D01*
X75080000Y-39330000D02*
X75370000Y-39330000D01*
X75370000Y-44550000D01*
X75080000Y-44550000D01*
X75080000Y-39330000D01*
X82157000Y-152730200D02*
X91668600Y-152730200D01*
X91668600Y-153670000D01*
X82157000Y-153670000D01*
X82157000Y-152730200D01*
X75070000Y-67980000D02*
X75360000Y-67980000D01*
X75360000Y-73200000D01*
X75070000Y-73200000D01*
X75070000Y-67980000D01*
X75110000Y-96500000D02*
X75350000Y-96500000D01*
X75350000Y-101720000D01*
X75110000Y-101720000D01*
X75110000Y-96500000D01*
X75110000Y-73680000D02*
X75350000Y-73680000D01*
X75350000Y-78900000D01*
X75110000Y-78900000D01*
X75110000Y-73680000D01*
X59867800Y-127330200D02*
X61188600Y-127330200D01*
X61188600Y-137033000D01*
X59867800Y-137033000D01*
X59867800Y-127330200D01*
X75110000Y-79130000D02*
X75350000Y-79130000D01*
X75350000Y-84350000D01*
X75110000Y-84350000D01*
X75110000Y-79130000D01*
X28854400Y-146549200D02*
X30251400Y-146549200D01*
X30251400Y-151587200D01*
X28854400Y-151587200D01*
X28854400Y-146549200D01*
X75110000Y-91050000D02*
X75350000Y-91050000D01*
X75350000Y-96270000D01*
X75110000Y-96270000D01*
X75110000Y-91050000D01*
X78790800Y-142513600D02*
X80162400Y-142513600D01*
X80162400Y-151231600D01*
X78790800Y-151231600D01*
X78790800Y-142513600D01*
X75080000Y-56700000D02*
X75370000Y-56700000D01*
X75370000Y-61920000D01*
X75080000Y-61920000D01*
X75080000Y-56700000D01*
X75080000Y-33900000D02*
X75370000Y-33900000D01*
X75370000Y-39120000D01*
X75080000Y-39120000D01*
X75080000Y-33900000D01*
X75070000Y-50610000D02*
X75360000Y-50610000D01*
X75360000Y-55830000D01*
X75070000Y-55830000D01*
X75070000Y-50610000D01*
X32746800Y-152450800D02*
X74853800Y-152450800D01*
X74853800Y-153466800D01*
X32746800Y-153466800D01*
X32746800Y-152450800D01*
X30734000Y-137947400D02*
X78562200Y-137947400D01*
X78562200Y-139094400D01*
X30734000Y-139094400D01*
X30734000Y-137947400D01*
X75080000Y-62150000D02*
X75370000Y-62150000D01*
X75370000Y-67370000D01*
X75080000Y-67370000D01*
X75080000Y-62150000D01*
X56896000Y-111897400D02*
X60934600Y-111897400D01*
X60934600Y-121945400D01*
X56896000Y-121945400D01*
X56896000Y-111897400D01*
X75060000Y-29970000D02*
X75350000Y-29970000D01*
X75350000Y-33545400D01*
X75060000Y-33545400D01*
X75060000Y-29970000D01*
M02*
