%TF.GenerationSoftware,KiCad,Pcbnew,7.0.9*%
%TF.CreationDate,2025-02-22T11:45:53+05:30*%
%TF.ProjectId,DigitalCurrentShunt,44696769-7461-46c4-9375-7272656e7453,rev?*%
%TF.SameCoordinates,Original*%
%TF.FileFunction,Drillmap*%
%TF.FilePolarity,Positive*%
%FSLAX45Y45*%
G04 Gerber Fmt 4.5, Leading zero omitted, Abs format (unit mm)*
G04 Created by KiCad (PCBNEW 7.0.9) date 2025-02-22 11:45:53*
%MOMM*%
%LPD*%
G01*
G04 APERTURE LIST*
%ADD10C,0.100000*%
%ADD11C,0.200000*%
%ADD12C,0.630000*%
G04 APERTURE END LIST*
D10*
X5900000Y-8425000D02*
X3575000Y-8425000D01*
X3575000Y-9300000D01*
X1350000Y-9300000D01*
X1350000Y-1900000D01*
X5900000Y-1900000D01*
X5900000Y-8425000D01*
D11*
D12*
X2145000Y-2885000D02*
X2775000Y-3515000D01*
X2775000Y-2885000D02*
X2145000Y-3515000D01*
X2145000Y-7685000D02*
X2775000Y-8315000D01*
X2775000Y-7685000D02*
X2145000Y-8315000D01*
D11*
X1605777Y-9616484D02*
X1605777Y-9416484D01*
X1605777Y-9416484D02*
X1653396Y-9416484D01*
X1653396Y-9416484D02*
X1681967Y-9426008D01*
X1681967Y-9426008D02*
X1701015Y-9445055D01*
X1701015Y-9445055D02*
X1710539Y-9464103D01*
X1710539Y-9464103D02*
X1720062Y-9502198D01*
X1720062Y-9502198D02*
X1720062Y-9530770D01*
X1720062Y-9530770D02*
X1710539Y-9568865D01*
X1710539Y-9568865D02*
X1701015Y-9587912D01*
X1701015Y-9587912D02*
X1681967Y-9606960D01*
X1681967Y-9606960D02*
X1653396Y-9616484D01*
X1653396Y-9616484D02*
X1605777Y-9616484D01*
X1805777Y-9616484D02*
X1805777Y-9483150D01*
X1805777Y-9521246D02*
X1815301Y-9502198D01*
X1815301Y-9502198D02*
X1824824Y-9492674D01*
X1824824Y-9492674D02*
X1843872Y-9483150D01*
X1843872Y-9483150D02*
X1862920Y-9483150D01*
X1929586Y-9616484D02*
X1929586Y-9483150D01*
X1929586Y-9416484D02*
X1920062Y-9426008D01*
X1920062Y-9426008D02*
X1929586Y-9435531D01*
X1929586Y-9435531D02*
X1939110Y-9426008D01*
X1939110Y-9426008D02*
X1929586Y-9416484D01*
X1929586Y-9416484D02*
X1929586Y-9435531D01*
X2053396Y-9616484D02*
X2034348Y-9606960D01*
X2034348Y-9606960D02*
X2024824Y-9587912D01*
X2024824Y-9587912D02*
X2024824Y-9416484D01*
X2158158Y-9616484D02*
X2139110Y-9606960D01*
X2139110Y-9606960D02*
X2129586Y-9587912D01*
X2129586Y-9587912D02*
X2129586Y-9416484D01*
X2386729Y-9616484D02*
X2386729Y-9416484D01*
X2386729Y-9416484D02*
X2453396Y-9559341D01*
X2453396Y-9559341D02*
X2520063Y-9416484D01*
X2520063Y-9416484D02*
X2520063Y-9616484D01*
X2701015Y-9616484D02*
X2701015Y-9511722D01*
X2701015Y-9511722D02*
X2691491Y-9492674D01*
X2691491Y-9492674D02*
X2672444Y-9483150D01*
X2672444Y-9483150D02*
X2634348Y-9483150D01*
X2634348Y-9483150D02*
X2615301Y-9492674D01*
X2701015Y-9606960D02*
X2681967Y-9616484D01*
X2681967Y-9616484D02*
X2634348Y-9616484D01*
X2634348Y-9616484D02*
X2615301Y-9606960D01*
X2615301Y-9606960D02*
X2605777Y-9587912D01*
X2605777Y-9587912D02*
X2605777Y-9568865D01*
X2605777Y-9568865D02*
X2615301Y-9549817D01*
X2615301Y-9549817D02*
X2634348Y-9540293D01*
X2634348Y-9540293D02*
X2681967Y-9540293D01*
X2681967Y-9540293D02*
X2701015Y-9530770D01*
X2796253Y-9483150D02*
X2796253Y-9683150D01*
X2796253Y-9492674D02*
X2815301Y-9483150D01*
X2815301Y-9483150D02*
X2853396Y-9483150D01*
X2853396Y-9483150D02*
X2872443Y-9492674D01*
X2872443Y-9492674D02*
X2881967Y-9502198D01*
X2881967Y-9502198D02*
X2891491Y-9521246D01*
X2891491Y-9521246D02*
X2891491Y-9578389D01*
X2891491Y-9578389D02*
X2881967Y-9597436D01*
X2881967Y-9597436D02*
X2872443Y-9606960D01*
X2872443Y-9606960D02*
X2853396Y-9616484D01*
X2853396Y-9616484D02*
X2815301Y-9616484D01*
X2815301Y-9616484D02*
X2796253Y-9606960D01*
X2977205Y-9597436D02*
X2986729Y-9606960D01*
X2986729Y-9606960D02*
X2977205Y-9616484D01*
X2977205Y-9616484D02*
X2967682Y-9606960D01*
X2967682Y-9606960D02*
X2977205Y-9597436D01*
X2977205Y-9597436D02*
X2977205Y-9616484D01*
X2977205Y-9492674D02*
X2986729Y-9502198D01*
X2986729Y-9502198D02*
X2977205Y-9511722D01*
X2977205Y-9511722D02*
X2967682Y-9502198D01*
X2967682Y-9502198D02*
X2977205Y-9492674D01*
X2977205Y-9492674D02*
X2977205Y-9511722D01*
X1145000Y-9845000D02*
X1345000Y-10045000D01*
X1345000Y-9845000D02*
X1145000Y-10045000D01*
X1691491Y-9836484D02*
X1653396Y-9836484D01*
X1653396Y-9836484D02*
X1634348Y-9846008D01*
X1634348Y-9846008D02*
X1624824Y-9855531D01*
X1624824Y-9855531D02*
X1605777Y-9884103D01*
X1605777Y-9884103D02*
X1596253Y-9922198D01*
X1596253Y-9922198D02*
X1596253Y-9998389D01*
X1596253Y-9998389D02*
X1605777Y-10017436D01*
X1605777Y-10017436D02*
X1615301Y-10026960D01*
X1615301Y-10026960D02*
X1634348Y-10036484D01*
X1634348Y-10036484D02*
X1672443Y-10036484D01*
X1672443Y-10036484D02*
X1691491Y-10026960D01*
X1691491Y-10026960D02*
X1701015Y-10017436D01*
X1701015Y-10017436D02*
X1710539Y-9998389D01*
X1710539Y-9998389D02*
X1710539Y-9950770D01*
X1710539Y-9950770D02*
X1701015Y-9931722D01*
X1701015Y-9931722D02*
X1691491Y-9922198D01*
X1691491Y-9922198D02*
X1672443Y-9912674D01*
X1672443Y-9912674D02*
X1634348Y-9912674D01*
X1634348Y-9912674D02*
X1615301Y-9922198D01*
X1615301Y-9922198D02*
X1605777Y-9931722D01*
X1605777Y-9931722D02*
X1596253Y-9950770D01*
X1796253Y-10017436D02*
X1805777Y-10026960D01*
X1805777Y-10026960D02*
X1796253Y-10036484D01*
X1796253Y-10036484D02*
X1786729Y-10026960D01*
X1786729Y-10026960D02*
X1796253Y-10017436D01*
X1796253Y-10017436D02*
X1796253Y-10036484D01*
X1872443Y-9836484D02*
X1996253Y-9836484D01*
X1996253Y-9836484D02*
X1929586Y-9912674D01*
X1929586Y-9912674D02*
X1958158Y-9912674D01*
X1958158Y-9912674D02*
X1977205Y-9922198D01*
X1977205Y-9922198D02*
X1986729Y-9931722D01*
X1986729Y-9931722D02*
X1996253Y-9950770D01*
X1996253Y-9950770D02*
X1996253Y-9998389D01*
X1996253Y-9998389D02*
X1986729Y-10017436D01*
X1986729Y-10017436D02*
X1977205Y-10026960D01*
X1977205Y-10026960D02*
X1958158Y-10036484D01*
X1958158Y-10036484D02*
X1901015Y-10036484D01*
X1901015Y-10036484D02*
X1881967Y-10026960D01*
X1881967Y-10026960D02*
X1872443Y-10017436D01*
X2120063Y-9836484D02*
X2139110Y-9836484D01*
X2139110Y-9836484D02*
X2158158Y-9846008D01*
X2158158Y-9846008D02*
X2167682Y-9855531D01*
X2167682Y-9855531D02*
X2177205Y-9874579D01*
X2177205Y-9874579D02*
X2186729Y-9912674D01*
X2186729Y-9912674D02*
X2186729Y-9960293D01*
X2186729Y-9960293D02*
X2177205Y-9998389D01*
X2177205Y-9998389D02*
X2167682Y-10017436D01*
X2167682Y-10017436D02*
X2158158Y-10026960D01*
X2158158Y-10026960D02*
X2139110Y-10036484D01*
X2139110Y-10036484D02*
X2120063Y-10036484D01*
X2120063Y-10036484D02*
X2101015Y-10026960D01*
X2101015Y-10026960D02*
X2091491Y-10017436D01*
X2091491Y-10017436D02*
X2081967Y-9998389D01*
X2081967Y-9998389D02*
X2072443Y-9960293D01*
X2072443Y-9960293D02*
X2072443Y-9912674D01*
X2072443Y-9912674D02*
X2081967Y-9874579D01*
X2081967Y-9874579D02*
X2091491Y-9855531D01*
X2091491Y-9855531D02*
X2101015Y-9846008D01*
X2101015Y-9846008D02*
X2120063Y-9836484D01*
X2310539Y-9836484D02*
X2329586Y-9836484D01*
X2329586Y-9836484D02*
X2348634Y-9846008D01*
X2348634Y-9846008D02*
X2358158Y-9855531D01*
X2358158Y-9855531D02*
X2367682Y-9874579D01*
X2367682Y-9874579D02*
X2377205Y-9912674D01*
X2377205Y-9912674D02*
X2377205Y-9960293D01*
X2377205Y-9960293D02*
X2367682Y-9998389D01*
X2367682Y-9998389D02*
X2358158Y-10017436D01*
X2358158Y-10017436D02*
X2348634Y-10026960D01*
X2348634Y-10026960D02*
X2329586Y-10036484D01*
X2329586Y-10036484D02*
X2310539Y-10036484D01*
X2310539Y-10036484D02*
X2291491Y-10026960D01*
X2291491Y-10026960D02*
X2281967Y-10017436D01*
X2281967Y-10017436D02*
X2272444Y-9998389D01*
X2272444Y-9998389D02*
X2262920Y-9960293D01*
X2262920Y-9960293D02*
X2262920Y-9912674D01*
X2262920Y-9912674D02*
X2272444Y-9874579D01*
X2272444Y-9874579D02*
X2281967Y-9855531D01*
X2281967Y-9855531D02*
X2291491Y-9846008D01*
X2291491Y-9846008D02*
X2310539Y-9836484D01*
X2462920Y-10036484D02*
X2462920Y-9903150D01*
X2462920Y-9922198D02*
X2472444Y-9912674D01*
X2472444Y-9912674D02*
X2491491Y-9903150D01*
X2491491Y-9903150D02*
X2520063Y-9903150D01*
X2520063Y-9903150D02*
X2539110Y-9912674D01*
X2539110Y-9912674D02*
X2548634Y-9931722D01*
X2548634Y-9931722D02*
X2548634Y-10036484D01*
X2548634Y-9931722D02*
X2558158Y-9912674D01*
X2558158Y-9912674D02*
X2577205Y-9903150D01*
X2577205Y-9903150D02*
X2605777Y-9903150D01*
X2605777Y-9903150D02*
X2624825Y-9912674D01*
X2624825Y-9912674D02*
X2634348Y-9931722D01*
X2634348Y-9931722D02*
X2634348Y-10036484D01*
X2729586Y-10036484D02*
X2729586Y-9903150D01*
X2729586Y-9922198D02*
X2739110Y-9912674D01*
X2739110Y-9912674D02*
X2758158Y-9903150D01*
X2758158Y-9903150D02*
X2786729Y-9903150D01*
X2786729Y-9903150D02*
X2805777Y-9912674D01*
X2805777Y-9912674D02*
X2815301Y-9931722D01*
X2815301Y-9931722D02*
X2815301Y-10036484D01*
X2815301Y-9931722D02*
X2824824Y-9912674D01*
X2824824Y-9912674D02*
X2843872Y-9903150D01*
X2843872Y-9903150D02*
X2872443Y-9903150D01*
X2872443Y-9903150D02*
X2891491Y-9912674D01*
X2891491Y-9912674D02*
X2901015Y-9931722D01*
X2901015Y-9931722D02*
X2901015Y-10036484D01*
X3291491Y-9826960D02*
X3120063Y-10084103D01*
X3548634Y-9836484D02*
X3567682Y-9836484D01*
X3567682Y-9836484D02*
X3586729Y-9846008D01*
X3586729Y-9846008D02*
X3596253Y-9855531D01*
X3596253Y-9855531D02*
X3605777Y-9874579D01*
X3605777Y-9874579D02*
X3615301Y-9912674D01*
X3615301Y-9912674D02*
X3615301Y-9960293D01*
X3615301Y-9960293D02*
X3605777Y-9998389D01*
X3605777Y-9998389D02*
X3596253Y-10017436D01*
X3596253Y-10017436D02*
X3586729Y-10026960D01*
X3586729Y-10026960D02*
X3567682Y-10036484D01*
X3567682Y-10036484D02*
X3548634Y-10036484D01*
X3548634Y-10036484D02*
X3529586Y-10026960D01*
X3529586Y-10026960D02*
X3520063Y-10017436D01*
X3520063Y-10017436D02*
X3510539Y-9998389D01*
X3510539Y-9998389D02*
X3501015Y-9960293D01*
X3501015Y-9960293D02*
X3501015Y-9912674D01*
X3501015Y-9912674D02*
X3510539Y-9874579D01*
X3510539Y-9874579D02*
X3520063Y-9855531D01*
X3520063Y-9855531D02*
X3529586Y-9846008D01*
X3529586Y-9846008D02*
X3548634Y-9836484D01*
X3701015Y-10017436D02*
X3710539Y-10026960D01*
X3710539Y-10026960D02*
X3701015Y-10036484D01*
X3701015Y-10036484D02*
X3691491Y-10026960D01*
X3691491Y-10026960D02*
X3701015Y-10017436D01*
X3701015Y-10017436D02*
X3701015Y-10036484D01*
X3786729Y-9855531D02*
X3796253Y-9846008D01*
X3796253Y-9846008D02*
X3815301Y-9836484D01*
X3815301Y-9836484D02*
X3862920Y-9836484D01*
X3862920Y-9836484D02*
X3881967Y-9846008D01*
X3881967Y-9846008D02*
X3891491Y-9855531D01*
X3891491Y-9855531D02*
X3901015Y-9874579D01*
X3901015Y-9874579D02*
X3901015Y-9893627D01*
X3901015Y-9893627D02*
X3891491Y-9922198D01*
X3891491Y-9922198D02*
X3777206Y-10036484D01*
X3777206Y-10036484D02*
X3901015Y-10036484D01*
X4072444Y-9903150D02*
X4072444Y-10036484D01*
X4024825Y-9826960D02*
X3977206Y-9969817D01*
X3977206Y-9969817D02*
X4101015Y-9969817D01*
X4205777Y-9922198D02*
X4186729Y-9912674D01*
X4186729Y-9912674D02*
X4177206Y-9903150D01*
X4177206Y-9903150D02*
X4167682Y-9884103D01*
X4167682Y-9884103D02*
X4167682Y-9874579D01*
X4167682Y-9874579D02*
X4177206Y-9855531D01*
X4177206Y-9855531D02*
X4186729Y-9846008D01*
X4186729Y-9846008D02*
X4205777Y-9836484D01*
X4205777Y-9836484D02*
X4243872Y-9836484D01*
X4243872Y-9836484D02*
X4262920Y-9846008D01*
X4262920Y-9846008D02*
X4272444Y-9855531D01*
X4272444Y-9855531D02*
X4281968Y-9874579D01*
X4281968Y-9874579D02*
X4281968Y-9884103D01*
X4281968Y-9884103D02*
X4272444Y-9903150D01*
X4272444Y-9903150D02*
X4262920Y-9912674D01*
X4262920Y-9912674D02*
X4243872Y-9922198D01*
X4243872Y-9922198D02*
X4205777Y-9922198D01*
X4205777Y-9922198D02*
X4186729Y-9931722D01*
X4186729Y-9931722D02*
X4177206Y-9941246D01*
X4177206Y-9941246D02*
X4167682Y-9960293D01*
X4167682Y-9960293D02*
X4167682Y-9998389D01*
X4167682Y-9998389D02*
X4177206Y-10017436D01*
X4177206Y-10017436D02*
X4186729Y-10026960D01*
X4186729Y-10026960D02*
X4205777Y-10036484D01*
X4205777Y-10036484D02*
X4243872Y-10036484D01*
X4243872Y-10036484D02*
X4262920Y-10026960D01*
X4262920Y-10026960D02*
X4272444Y-10017436D01*
X4272444Y-10017436D02*
X4281968Y-9998389D01*
X4281968Y-9998389D02*
X4281968Y-9960293D01*
X4281968Y-9960293D02*
X4272444Y-9941246D01*
X4272444Y-9941246D02*
X4262920Y-9931722D01*
X4262920Y-9931722D02*
X4243872Y-9922198D01*
X4405777Y-9836484D02*
X4424825Y-9836484D01*
X4424825Y-9836484D02*
X4443872Y-9846008D01*
X4443872Y-9846008D02*
X4453396Y-9855531D01*
X4453396Y-9855531D02*
X4462920Y-9874579D01*
X4462920Y-9874579D02*
X4472444Y-9912674D01*
X4472444Y-9912674D02*
X4472444Y-9960293D01*
X4472444Y-9960293D02*
X4462920Y-9998389D01*
X4462920Y-9998389D02*
X4453396Y-10017436D01*
X4453396Y-10017436D02*
X4443872Y-10026960D01*
X4443872Y-10026960D02*
X4424825Y-10036484D01*
X4424825Y-10036484D02*
X4405777Y-10036484D01*
X4405777Y-10036484D02*
X4386729Y-10026960D01*
X4386729Y-10026960D02*
X4377206Y-10017436D01*
X4377206Y-10017436D02*
X4367682Y-9998389D01*
X4367682Y-9998389D02*
X4358158Y-9960293D01*
X4358158Y-9960293D02*
X4358158Y-9912674D01*
X4358158Y-9912674D02*
X4367682Y-9874579D01*
X4367682Y-9874579D02*
X4377206Y-9855531D01*
X4377206Y-9855531D02*
X4386729Y-9846008D01*
X4386729Y-9846008D02*
X4405777Y-9836484D01*
X4548634Y-9836484D02*
X4548634Y-9874579D01*
X4624825Y-9836484D02*
X4624825Y-9874579D01*
X4920063Y-10112674D02*
X4910539Y-10103150D01*
X4910539Y-10103150D02*
X4891491Y-10074579D01*
X4891491Y-10074579D02*
X4881968Y-10055531D01*
X4881968Y-10055531D02*
X4872444Y-10026960D01*
X4872444Y-10026960D02*
X4862920Y-9979341D01*
X4862920Y-9979341D02*
X4862920Y-9941246D01*
X4862920Y-9941246D02*
X4872444Y-9893627D01*
X4872444Y-9893627D02*
X4881968Y-9865055D01*
X4881968Y-9865055D02*
X4891491Y-9846008D01*
X4891491Y-9846008D02*
X4910539Y-9817436D01*
X4910539Y-9817436D02*
X4920063Y-9807912D01*
X4986730Y-9855531D02*
X4996253Y-9846008D01*
X4996253Y-9846008D02*
X5015301Y-9836484D01*
X5015301Y-9836484D02*
X5062920Y-9836484D01*
X5062920Y-9836484D02*
X5081968Y-9846008D01*
X5081968Y-9846008D02*
X5091491Y-9855531D01*
X5091491Y-9855531D02*
X5101015Y-9874579D01*
X5101015Y-9874579D02*
X5101015Y-9893627D01*
X5101015Y-9893627D02*
X5091491Y-9922198D01*
X5091491Y-9922198D02*
X4977206Y-10036484D01*
X4977206Y-10036484D02*
X5101015Y-10036484D01*
X5339111Y-10036484D02*
X5339111Y-9836484D01*
X5424825Y-10036484D02*
X5424825Y-9931722D01*
X5424825Y-9931722D02*
X5415301Y-9912674D01*
X5415301Y-9912674D02*
X5396253Y-9903150D01*
X5396253Y-9903150D02*
X5367682Y-9903150D01*
X5367682Y-9903150D02*
X5348634Y-9912674D01*
X5348634Y-9912674D02*
X5339111Y-9922198D01*
X5548634Y-10036484D02*
X5529587Y-10026960D01*
X5529587Y-10026960D02*
X5520063Y-10017436D01*
X5520063Y-10017436D02*
X5510539Y-9998389D01*
X5510539Y-9998389D02*
X5510539Y-9941246D01*
X5510539Y-9941246D02*
X5520063Y-9922198D01*
X5520063Y-9922198D02*
X5529587Y-9912674D01*
X5529587Y-9912674D02*
X5548634Y-9903150D01*
X5548634Y-9903150D02*
X5577206Y-9903150D01*
X5577206Y-9903150D02*
X5596253Y-9912674D01*
X5596253Y-9912674D02*
X5605777Y-9922198D01*
X5605777Y-9922198D02*
X5615301Y-9941246D01*
X5615301Y-9941246D02*
X5615301Y-9998389D01*
X5615301Y-9998389D02*
X5605777Y-10017436D01*
X5605777Y-10017436D02*
X5596253Y-10026960D01*
X5596253Y-10026960D02*
X5577206Y-10036484D01*
X5577206Y-10036484D02*
X5548634Y-10036484D01*
X5729587Y-10036484D02*
X5710539Y-10026960D01*
X5710539Y-10026960D02*
X5701015Y-10007912D01*
X5701015Y-10007912D02*
X5701015Y-9836484D01*
X5881968Y-10026960D02*
X5862920Y-10036484D01*
X5862920Y-10036484D02*
X5824825Y-10036484D01*
X5824825Y-10036484D02*
X5805777Y-10026960D01*
X5805777Y-10026960D02*
X5796253Y-10007912D01*
X5796253Y-10007912D02*
X5796253Y-9931722D01*
X5796253Y-9931722D02*
X5805777Y-9912674D01*
X5805777Y-9912674D02*
X5824825Y-9903150D01*
X5824825Y-9903150D02*
X5862920Y-9903150D01*
X5862920Y-9903150D02*
X5881968Y-9912674D01*
X5881968Y-9912674D02*
X5891491Y-9931722D01*
X5891491Y-9931722D02*
X5891491Y-9950770D01*
X5891491Y-9950770D02*
X5796253Y-9969817D01*
X5967682Y-10026960D02*
X5986730Y-10036484D01*
X5986730Y-10036484D02*
X6024825Y-10036484D01*
X6024825Y-10036484D02*
X6043872Y-10026960D01*
X6043872Y-10026960D02*
X6053396Y-10007912D01*
X6053396Y-10007912D02*
X6053396Y-9998389D01*
X6053396Y-9998389D02*
X6043872Y-9979341D01*
X6043872Y-9979341D02*
X6024825Y-9969817D01*
X6024825Y-9969817D02*
X5996253Y-9969817D01*
X5996253Y-9969817D02*
X5977206Y-9960293D01*
X5977206Y-9960293D02*
X5967682Y-9941246D01*
X5967682Y-9941246D02*
X5967682Y-9931722D01*
X5967682Y-9931722D02*
X5977206Y-9912674D01*
X5977206Y-9912674D02*
X5996253Y-9903150D01*
X5996253Y-9903150D02*
X6024825Y-9903150D01*
X6024825Y-9903150D02*
X6043872Y-9912674D01*
X6120063Y-10112674D02*
X6129587Y-10103150D01*
X6129587Y-10103150D02*
X6148634Y-10074579D01*
X6148634Y-10074579D02*
X6158158Y-10055531D01*
X6158158Y-10055531D02*
X6167682Y-10026960D01*
X6167682Y-10026960D02*
X6177206Y-9979341D01*
X6177206Y-9979341D02*
X6177206Y-9941246D01*
X6177206Y-9941246D02*
X6167682Y-9893627D01*
X6167682Y-9893627D02*
X6158158Y-9865055D01*
X6158158Y-9865055D02*
X6148634Y-9846008D01*
X6148634Y-9846008D02*
X6129587Y-9817436D01*
X6129587Y-9817436D02*
X6120063Y-9807912D01*
X6481968Y-10112674D02*
X6472444Y-10103150D01*
X6472444Y-10103150D02*
X6453396Y-10074579D01*
X6453396Y-10074579D02*
X6443872Y-10055531D01*
X6443872Y-10055531D02*
X6434349Y-10026960D01*
X6434349Y-10026960D02*
X6424825Y-9979341D01*
X6424825Y-9979341D02*
X6424825Y-9941246D01*
X6424825Y-9941246D02*
X6434349Y-9893627D01*
X6434349Y-9893627D02*
X6443872Y-9865055D01*
X6443872Y-9865055D02*
X6453396Y-9846008D01*
X6453396Y-9846008D02*
X6472444Y-9817436D01*
X6472444Y-9817436D02*
X6481968Y-9807912D01*
X6558158Y-9903150D02*
X6558158Y-10036484D01*
X6558158Y-9922198D02*
X6567682Y-9912674D01*
X6567682Y-9912674D02*
X6586730Y-9903150D01*
X6586730Y-9903150D02*
X6615301Y-9903150D01*
X6615301Y-9903150D02*
X6634349Y-9912674D01*
X6634349Y-9912674D02*
X6643872Y-9931722D01*
X6643872Y-9931722D02*
X6643872Y-10036484D01*
X6767682Y-10036484D02*
X6748634Y-10026960D01*
X6748634Y-10026960D02*
X6739111Y-10017436D01*
X6739111Y-10017436D02*
X6729587Y-9998389D01*
X6729587Y-9998389D02*
X6729587Y-9941246D01*
X6729587Y-9941246D02*
X6739111Y-9922198D01*
X6739111Y-9922198D02*
X6748634Y-9912674D01*
X6748634Y-9912674D02*
X6767682Y-9903150D01*
X6767682Y-9903150D02*
X6796253Y-9903150D01*
X6796253Y-9903150D02*
X6815301Y-9912674D01*
X6815301Y-9912674D02*
X6824825Y-9922198D01*
X6824825Y-9922198D02*
X6834349Y-9941246D01*
X6834349Y-9941246D02*
X6834349Y-9998389D01*
X6834349Y-9998389D02*
X6824825Y-10017436D01*
X6824825Y-10017436D02*
X6815301Y-10026960D01*
X6815301Y-10026960D02*
X6796253Y-10036484D01*
X6796253Y-10036484D02*
X6767682Y-10036484D01*
X6891492Y-9903150D02*
X6967682Y-9903150D01*
X6920063Y-9836484D02*
X6920063Y-10007912D01*
X6920063Y-10007912D02*
X6929587Y-10026960D01*
X6929587Y-10026960D02*
X6948634Y-10036484D01*
X6948634Y-10036484D02*
X6967682Y-10036484D01*
X7186730Y-9903150D02*
X7186730Y-10103150D01*
X7186730Y-9912674D02*
X7205777Y-9903150D01*
X7205777Y-9903150D02*
X7243873Y-9903150D01*
X7243873Y-9903150D02*
X7262920Y-9912674D01*
X7262920Y-9912674D02*
X7272444Y-9922198D01*
X7272444Y-9922198D02*
X7281968Y-9941246D01*
X7281968Y-9941246D02*
X7281968Y-9998389D01*
X7281968Y-9998389D02*
X7272444Y-10017436D01*
X7272444Y-10017436D02*
X7262920Y-10026960D01*
X7262920Y-10026960D02*
X7243873Y-10036484D01*
X7243873Y-10036484D02*
X7205777Y-10036484D01*
X7205777Y-10036484D02*
X7186730Y-10026960D01*
X7396253Y-10036484D02*
X7377206Y-10026960D01*
X7377206Y-10026960D02*
X7367682Y-10007912D01*
X7367682Y-10007912D02*
X7367682Y-9836484D01*
X7558158Y-10036484D02*
X7558158Y-9931722D01*
X7558158Y-9931722D02*
X7548634Y-9912674D01*
X7548634Y-9912674D02*
X7529587Y-9903150D01*
X7529587Y-9903150D02*
X7491492Y-9903150D01*
X7491492Y-9903150D02*
X7472444Y-9912674D01*
X7558158Y-10026960D02*
X7539111Y-10036484D01*
X7539111Y-10036484D02*
X7491492Y-10036484D01*
X7491492Y-10036484D02*
X7472444Y-10026960D01*
X7472444Y-10026960D02*
X7462920Y-10007912D01*
X7462920Y-10007912D02*
X7462920Y-9988865D01*
X7462920Y-9988865D02*
X7472444Y-9969817D01*
X7472444Y-9969817D02*
X7491492Y-9960293D01*
X7491492Y-9960293D02*
X7539111Y-9960293D01*
X7539111Y-9960293D02*
X7558158Y-9950770D01*
X7624825Y-9903150D02*
X7701015Y-9903150D01*
X7653396Y-9836484D02*
X7653396Y-10007912D01*
X7653396Y-10007912D02*
X7662920Y-10026960D01*
X7662920Y-10026960D02*
X7681968Y-10036484D01*
X7681968Y-10036484D02*
X7701015Y-10036484D01*
X7843873Y-10026960D02*
X7824825Y-10036484D01*
X7824825Y-10036484D02*
X7786730Y-10036484D01*
X7786730Y-10036484D02*
X7767682Y-10026960D01*
X7767682Y-10026960D02*
X7758158Y-10007912D01*
X7758158Y-10007912D02*
X7758158Y-9931722D01*
X7758158Y-9931722D02*
X7767682Y-9912674D01*
X7767682Y-9912674D02*
X7786730Y-9903150D01*
X7786730Y-9903150D02*
X7824825Y-9903150D01*
X7824825Y-9903150D02*
X7843873Y-9912674D01*
X7843873Y-9912674D02*
X7853396Y-9931722D01*
X7853396Y-9931722D02*
X7853396Y-9950770D01*
X7853396Y-9950770D02*
X7758158Y-9969817D01*
X8024825Y-10036484D02*
X8024825Y-9836484D01*
X8024825Y-10026960D02*
X8005777Y-10036484D01*
X8005777Y-10036484D02*
X7967682Y-10036484D01*
X7967682Y-10036484D02*
X7948634Y-10026960D01*
X7948634Y-10026960D02*
X7939111Y-10017436D01*
X7939111Y-10017436D02*
X7929587Y-9998389D01*
X7929587Y-9998389D02*
X7929587Y-9941246D01*
X7929587Y-9941246D02*
X7939111Y-9922198D01*
X7939111Y-9922198D02*
X7948634Y-9912674D01*
X7948634Y-9912674D02*
X7967682Y-9903150D01*
X7967682Y-9903150D02*
X8005777Y-9903150D01*
X8005777Y-9903150D02*
X8024825Y-9912674D01*
X8101015Y-10112674D02*
X8110539Y-10103150D01*
X8110539Y-10103150D02*
X8129587Y-10074579D01*
X8129587Y-10074579D02*
X8139111Y-10055531D01*
X8139111Y-10055531D02*
X8148634Y-10026960D01*
X8148634Y-10026960D02*
X8158158Y-9979341D01*
X8158158Y-9979341D02*
X8158158Y-9941246D01*
X8158158Y-9941246D02*
X8148634Y-9893627D01*
X8148634Y-9893627D02*
X8139111Y-9865055D01*
X8139111Y-9865055D02*
X8129587Y-9846008D01*
X8129587Y-9846008D02*
X8110539Y-9817436D01*
X8110539Y-9817436D02*
X8101015Y-9807912D01*
M02*
