%TF.GenerationSoftware,KiCad,Pcbnew,7.0.9*%
%TF.CreationDate,2025-02-22T11:45:47+05:30*%
%TF.ProjectId,DigitalCurrentShunt,44696769-7461-46c4-9375-7272656e7453,rev?*%
%TF.SameCoordinates,Original*%
%TF.FileFunction,Copper,L1,Top*%
%TF.FilePolarity,Positive*%
%FSLAX46Y46*%
G04 Gerber Fmt 4.6, Leading zero omitted, Abs format (unit mm)*
G04 Created by KiCad (PCBNEW 7.0.9) date 2025-02-22 11:45:47*
%MOMM*%
%LPD*%
G01*
G04 APERTURE LIST*
G04 Aperture macros list*
%AMRoundRect*
0 Rectangle with rounded corners*
0 $1 Rounding radius*
0 $2 $3 $4 $5 $6 $7 $8 $9 X,Y pos of 4 corners*
0 Add a 4 corners polygon primitive as box body*
4,1,4,$2,$3,$4,$5,$6,$7,$8,$9,$2,$3,0*
0 Add four circle primitives for the rounded corners*
1,1,$1+$1,$2,$3*
1,1,$1+$1,$4,$5*
1,1,$1+$1,$6,$7*
1,1,$1+$1,$8,$9*
0 Add four rect primitives between the rounded corners*
20,1,$1+$1,$2,$3,$4,$5,0*
20,1,$1+$1,$4,$5,$6,$7,0*
20,1,$1+$1,$6,$7,$8,$9,0*
20,1,$1+$1,$8,$9,$2,$3,0*%
G04 Aperture macros list end*
%TA.AperFunction,ComponentPad*%
%ADD10R,1.700000X1.700000*%
%TD*%
%TA.AperFunction,ComponentPad*%
%ADD11O,1.700000X1.700000*%
%TD*%
%TA.AperFunction,SMDPad,CuDef*%
%ADD12RoundRect,0.100000X-0.100000X0.637500X-0.100000X-0.637500X0.100000X-0.637500X0.100000X0.637500X0*%
%TD*%
%TA.AperFunction,SMDPad,CuDef*%
%ADD13RoundRect,0.250000X-0.412500X-0.650000X0.412500X-0.650000X0.412500X0.650000X-0.412500X0.650000X0*%
%TD*%
%TA.AperFunction,SMDPad,CuDef*%
%ADD14RoundRect,0.250000X0.412500X0.650000X-0.412500X0.650000X-0.412500X-0.650000X0.412500X-0.650000X0*%
%TD*%
%TA.AperFunction,ComponentPad*%
%ADD15C,1.700000*%
%TD*%
%TA.AperFunction,SMDPad,CuDef*%
%ADD16RoundRect,0.150000X0.150000X-0.825000X0.150000X0.825000X-0.150000X0.825000X-0.150000X-0.825000X0*%
%TD*%
%TA.AperFunction,SMDPad,CuDef*%
%ADD17RoundRect,0.250000X0.450000X-0.350000X0.450000X0.350000X-0.450000X0.350000X-0.450000X-0.350000X0*%
%TD*%
%TA.AperFunction,SMDPad,CuDef*%
%ADD18RoundRect,0.250000X0.350000X0.450000X-0.350000X0.450000X-0.350000X-0.450000X0.350000X-0.450000X0*%
%TD*%
%TA.AperFunction,SMDPad,CuDef*%
%ADD19RoundRect,0.250000X-0.650000X0.412500X-0.650000X-0.412500X0.650000X-0.412500X0.650000X0.412500X0*%
%TD*%
%TA.AperFunction,SMDPad,CuDef*%
%ADD20RoundRect,0.250000X-0.337500X-0.475000X0.337500X-0.475000X0.337500X0.475000X-0.337500X0.475000X0*%
%TD*%
%TA.AperFunction,ComponentPad*%
%ADD21C,2.000000*%
%TD*%
%TA.AperFunction,SMDPad,CuDef*%
%ADD22RoundRect,0.250000X-0.475000X0.337500X-0.475000X-0.337500X0.475000X-0.337500X0.475000X0.337500X0*%
%TD*%
%TA.AperFunction,SMDPad,CuDef*%
%ADD23RoundRect,0.250000X-0.350000X-0.450000X0.350000X-0.450000X0.350000X0.450000X-0.350000X0.450000X0*%
%TD*%
%TA.AperFunction,SMDPad,CuDef*%
%ADD24RoundRect,0.249999X-0.450001X-1.425001X0.450001X-1.425001X0.450001X1.425001X-0.450001X1.425001X0*%
%TD*%
%TA.AperFunction,SMDPad,CuDef*%
%ADD25R,1.500000X2.000000*%
%TD*%
%TA.AperFunction,SMDPad,CuDef*%
%ADD26R,3.800000X2.000000*%
%TD*%
%TA.AperFunction,ViaPad*%
%ADD27C,0.800000*%
%TD*%
%TA.AperFunction,Conductor*%
%ADD28C,0.250000*%
%TD*%
%TA.AperFunction,Conductor*%
%ADD29C,0.500000*%
%TD*%
G04 APERTURE END LIST*
D10*
%TO.P,J3,1,Pin_1*%
%TO.N,GNDD*%
X45550000Y-81750000D03*
D11*
%TO.P,J3,2,Pin_2*%
%TO.N,RX*%
X43010000Y-81750000D03*
%TO.P,J3,3,Pin_3*%
%TO.N,TX*%
X40470000Y-81750000D03*
%TO.P,J3,4,Pin_4*%
%TO.N,+5VD*%
X37930000Y-81750000D03*
%TD*%
D12*
%TO.P,U10,1,BOOT0*%
%TO.N,Net-(J1-Pin_2)*%
X52675000Y-69887500D03*
%TO.P,U10,2,PF0*%
%TO.N,unconnected-(U10-PF0-Pad2)*%
X52025000Y-69887500D03*
%TO.P,U10,3,PF1*%
%TO.N,unconnected-(U10-PF1-Pad3)*%
X51375000Y-69887500D03*
%TO.P,U10,4,NRST*%
%TO.N,/RST*%
X50725000Y-69887500D03*
%TO.P,U10,5,VDDA*%
%TO.N,+3.3V*%
X50075000Y-69887500D03*
%TO.P,U10,6,PA0*%
%TO.N,PA0*%
X49425000Y-69887500D03*
%TO.P,U10,7,PA1*%
%TO.N,PA1*%
X48775000Y-69887500D03*
%TO.P,U10,8,PA2*%
%TO.N,PA2*%
X48125000Y-69887500D03*
%TO.P,U10,9,PA3*%
%TO.N,RX*%
X47475000Y-69887500D03*
%TO.P,U10,10,PA4*%
%TO.N,unconnected-(U10-PA4-Pad10)*%
X46825000Y-69887500D03*
%TO.P,U10,11,PA5*%
%TO.N,unconnected-(U10-PA5-Pad11)*%
X46825000Y-75612500D03*
%TO.P,U10,12,PA6*%
%TO.N,unconnected-(U10-PA6-Pad12)*%
X47475000Y-75612500D03*
%TO.P,U10,13,PA7*%
%TO.N,unconnected-(U10-PA7-Pad13)*%
X48125000Y-75612500D03*
%TO.P,U10,14,PB1*%
%TO.N,unconnected-(U10-PB1-Pad14)*%
X48775000Y-75612500D03*
%TO.P,U10,15,VSS*%
%TO.N,GNDD*%
X49425000Y-75612500D03*
%TO.P,U10,16,VDD*%
%TO.N,+3.3V*%
X50075000Y-75612500D03*
%TO.P,U10,17,PA9*%
%TO.N,TX*%
X50725000Y-75612500D03*
%TO.P,U10,18,PA10*%
%TO.N,unconnected-(U10-PA10-Pad18)*%
X51375000Y-75612500D03*
%TO.P,U10,19,PA13*%
%TO.N,SWCLK*%
X52025000Y-75612500D03*
%TO.P,U10,20,PA14*%
%TO.N,SWDIO*%
X52675000Y-75612500D03*
%TD*%
D13*
%TO.P,C17,1*%
%TO.N,+5VD*%
X40687500Y-77750000D03*
%TO.P,C17,2*%
%TO.N,GNDD*%
X43812500Y-77750000D03*
%TD*%
D14*
%TO.P,C16,1*%
%TO.N,Net-(U3-VDD2)*%
X53312500Y-47000000D03*
%TO.P,C16,2*%
%TO.N,-5V*%
X50187500Y-47000000D03*
%TD*%
D10*
%TO.P,U9,1,GND*%
%TO.N,+5VD*%
X40608200Y-49120000D03*
D15*
%TO.P,U9,2,VIN*%
%TO.N,GNDD*%
X40608200Y-46580000D03*
%TO.P,U9,3,0V*%
%TO.N,-5V*%
X40608200Y-44040000D03*
%TO.P,U9,4,+VO*%
%TO.N,-BATT*%
X40608200Y-41500000D03*
%TD*%
D16*
%TO.P,U1,1,NC*%
%TO.N,unconnected-(U1-NC-Pad1)*%
X36095000Y-36070000D03*
%TO.P,U1,2,-*%
%TO.N,Net-(U1--)*%
X37365000Y-36070000D03*
%TO.P,U1,3,+*%
%TO.N,Net-(U1-+)*%
X38635000Y-36070000D03*
%TO.P,U1,4,V-*%
%TO.N,-5V*%
X39905000Y-36070000D03*
%TO.P,U1,5,NC*%
%TO.N,unconnected-(U1-NC-Pad5)*%
X39905000Y-31120000D03*
%TO.P,U1,6*%
%TO.N,Net-(U2-+)*%
X38635000Y-31120000D03*
%TO.P,U1,7,V+*%
%TO.N,+5V*%
X37365000Y-31120000D03*
%TO.P,U1,8,NC*%
%TO.N,unconnected-(U1-NC-Pad8)*%
X36095000Y-31120000D03*
%TD*%
D17*
%TO.P,R29,1*%
%TO.N,Net-(U7-VIN)*%
X44750000Y-37750000D03*
%TO.P,R29,2*%
%TO.N,-5V*%
X44750000Y-35750000D03*
%TD*%
D18*
%TO.P,R23,1*%
%TO.N,PA0*%
X47000000Y-61710000D03*
%TO.P,R23,2*%
%TO.N,GNDD*%
X45000000Y-61710000D03*
%TD*%
D10*
%TO.P,U8,1,GND*%
%TO.N,+5VD*%
X47608200Y-49120000D03*
D15*
%TO.P,U8,2,VIN*%
%TO.N,GNDD*%
X47608200Y-46580000D03*
%TO.P,U8,3,0V*%
%TO.N,-BATT*%
X47608200Y-44040000D03*
%TO.P,U8,4,+VO*%
%TO.N,+5V*%
X47608200Y-41500000D03*
%TD*%
D19*
%TO.P,C2,1*%
%TO.N,+5V*%
X42000000Y-31687500D03*
%TO.P,C2,2*%
%TO.N,-5V*%
X42000000Y-34812500D03*
%TD*%
D18*
%TO.P,R22,1*%
%TO.N,Net-(U3-VOUT)*%
X47000000Y-59710000D03*
%TO.P,R22,2*%
%TO.N,GNDD*%
X45000000Y-59710000D03*
%TD*%
D20*
%TO.P,C13,1*%
%TO.N,GNDD*%
X38712500Y-59000000D03*
%TO.P,C13,2*%
%TO.N,/RST*%
X40787500Y-59000000D03*
%TD*%
D21*
%TO.P,SW1,1,1*%
%TO.N,GNDD*%
X37500000Y-68500000D03*
X37500000Y-62000000D03*
%TO.P,SW1,2,2*%
%TO.N,/RST*%
X42000000Y-68500000D03*
X42000000Y-62000000D03*
%TD*%
D22*
%TO.P,C18,1*%
%TO.N,-5V*%
X48000000Y-35962500D03*
%TO.P,C18,2*%
%TO.N,Net-(U3-VDD2)*%
X48000000Y-38037500D03*
%TD*%
D23*
%TO.P,R27,1*%
%TO.N,Net-(U5C-+)*%
X54250000Y-51000000D03*
%TO.P,R27,2*%
%TO.N,GNDD*%
X56250000Y-51000000D03*
%TD*%
D18*
%TO.P,R24,1*%
%TO.N,PA1*%
X47000000Y-54710000D03*
%TO.P,R24,2*%
%TO.N,GNDD*%
X45000000Y-54710000D03*
%TD*%
D22*
%TO.P,C7,1*%
%TO.N,-5V*%
X48000000Y-29212500D03*
%TO.P,C7,2*%
%TO.N,Net-(U3-VDD2)*%
X48000000Y-31287500D03*
%TD*%
D24*
%TO.P,R4,1*%
%TO.N,-BATT*%
X21550000Y-56380000D03*
%TO.P,R4,2*%
%TO.N,Net-(MP2-Pad1)*%
X27650000Y-56380000D03*
%TD*%
D22*
%TO.P,C6,1*%
%TO.N,-5V*%
X48000000Y-22462500D03*
%TO.P,C6,2*%
%TO.N,Net-(U3-VDD2)*%
X48000000Y-24537500D03*
%TD*%
%TO.P,C10,1*%
%TO.N,GNDD*%
X54500000Y-21962500D03*
%TO.P,C10,2*%
%TO.N,+5VD*%
X54500000Y-24037500D03*
%TD*%
%TO.P,C11,1*%
%TO.N,GNDD*%
X54500000Y-28962500D03*
%TO.P,C11,2*%
%TO.N,+5VD*%
X54500000Y-31037500D03*
%TD*%
D24*
%TO.P,R2,1*%
%TO.N,-BATT*%
X21550000Y-46600000D03*
%TO.P,R2,2*%
%TO.N,Net-(MP2-Pad1)*%
X27650000Y-46600000D03*
%TD*%
D10*
%TO.P,J2,1,Pin_1*%
%TO.N,GNDD*%
X49250000Y-81750000D03*
D11*
%TO.P,J2,2,Pin_2*%
%TO.N,SWCLK*%
X51790000Y-81750000D03*
%TO.P,J2,3,Pin_3*%
%TO.N,SWDIO*%
X54330000Y-81750000D03*
%TO.P,J2,4,Pin_4*%
%TO.N,+3.3V*%
X56870000Y-81750000D03*
%TD*%
D24*
%TO.P,R5,1*%
%TO.N,-BATT*%
X21550000Y-61270000D03*
%TO.P,R5,2*%
%TO.N,Net-(MP2-Pad1)*%
X27650000Y-61270000D03*
%TD*%
D13*
%TO.P,C15,1*%
%TO.N,+3.3V*%
X40687500Y-75250000D03*
%TO.P,C15,2*%
%TO.N,GNDD*%
X43812500Y-75250000D03*
%TD*%
D19*
%TO.P,C3,1*%
%TO.N,+5V*%
X42000000Y-24187500D03*
%TO.P,C3,2*%
%TO.N,-5V*%
X42000000Y-27312500D03*
%TD*%
D21*
%TO.P,MP1,1*%
%TO.N,-BATT*%
X19520000Y-26920000D03*
X19520000Y-29460000D03*
X19520000Y-32000000D03*
X19520000Y-34540000D03*
X19520000Y-37080000D03*
X22060000Y-26920000D03*
X22060000Y-37080000D03*
X24600000Y-26920000D03*
X24600000Y-37080000D03*
X27140000Y-26920000D03*
X27140000Y-37080000D03*
X29680000Y-26920000D03*
X29680000Y-29460000D03*
X29680000Y-32000000D03*
X29680000Y-34540000D03*
X29680000Y-37080000D03*
%TD*%
D22*
%TO.P,C8,1*%
%TO.N,-5V*%
X45250000Y-27462500D03*
%TO.P,C8,2*%
%TO.N,A0*%
X45250000Y-29537500D03*
%TD*%
D21*
%TO.P,MP2,1*%
%TO.N,Net-(MP2-Pad1)*%
X19520000Y-74920000D03*
X19520000Y-77460000D03*
X19520000Y-80000000D03*
X19520000Y-82540000D03*
X19520000Y-85080000D03*
X22060000Y-74920000D03*
X22060000Y-85080000D03*
X24600000Y-74920000D03*
X24600000Y-85080000D03*
X27140000Y-74920000D03*
X27140000Y-85080000D03*
X29680000Y-74920000D03*
X29680000Y-77460000D03*
X29680000Y-80000000D03*
X29680000Y-82540000D03*
X29680000Y-85080000D03*
%TD*%
D16*
%TO.P,U2,1,NC*%
%TO.N,unconnected-(U2-NC-Pad1)*%
X36095000Y-27225000D03*
%TO.P,U2,2,-*%
%TO.N,Net-(U2--)*%
X37365000Y-27225000D03*
%TO.P,U2,3,+*%
%TO.N,Net-(U2-+)*%
X38635000Y-27225000D03*
%TO.P,U2,4,V-*%
%TO.N,-5V*%
X39905000Y-27225000D03*
%TO.P,U2,5,NC*%
%TO.N,unconnected-(U2-NC-Pad5)*%
X39905000Y-22275000D03*
%TO.P,U2,6*%
%TO.N,Net-(R19-Pad1)*%
X38635000Y-22275000D03*
%TO.P,U2,7,V+*%
%TO.N,+5V*%
X37365000Y-22275000D03*
%TO.P,U2,8,NC*%
%TO.N,unconnected-(U2-NC-Pad8)*%
X36095000Y-22275000D03*
%TD*%
D23*
%TO.P,R30,1*%
%TO.N,PA2*%
X54250000Y-53250000D03*
%TO.P,R30,2*%
%TO.N,GNDD*%
X56250000Y-53250000D03*
%TD*%
D24*
%TO.P,R3,1*%
%TO.N,-BATT*%
X21550000Y-51490000D03*
%TO.P,R3,2*%
%TO.N,Net-(MP2-Pad1)*%
X27650000Y-51490000D03*
%TD*%
D18*
%TO.P,R21,1*%
%TO.N,Net-(U4-VOUT)*%
X47000000Y-56710000D03*
%TO.P,R21,2*%
%TO.N,GNDD*%
X45000000Y-56710000D03*
%TD*%
D24*
%TO.P,R6,1*%
%TO.N,-BATT*%
X21550000Y-66160000D03*
%TO.P,R6,2*%
%TO.N,Net-(MP2-Pad1)*%
X27650000Y-66160000D03*
%TD*%
D10*
%TO.P,J1,1,Pin_1*%
%TO.N,+3.3V*%
X56250000Y-74540000D03*
D11*
%TO.P,J1,2,Pin_2*%
%TO.N,Net-(J1-Pin_2)*%
X56250000Y-72000000D03*
%TO.P,J1,3,Pin_3*%
%TO.N,GNDD*%
X56250000Y-69460000D03*
%TD*%
D25*
%TO.P,U6,1,GND*%
%TO.N,-5V*%
X50450000Y-44400000D03*
%TO.P,U6,2,VO*%
%TO.N,Net-(U3-VDD2)*%
X52750000Y-44400000D03*
D26*
X52750000Y-38100000D03*
D25*
%TO.P,U6,3,VI*%
%TO.N,+5V*%
X55050000Y-44400000D03*
%TD*%
D27*
%TO.N,+5V*%
X50750000Y-41500000D03*
X44250000Y-32250000D03*
X43750000Y-24250000D03*
%TO.N,-5V*%
X51500000Y-35250000D03*
X46623200Y-28750000D03*
X51250000Y-22250000D03*
X46623200Y-21750000D03*
X51250000Y-43000000D03*
X46623200Y-35750000D03*
X51500000Y-29500000D03*
X43500000Y-27500000D03*
X42250000Y-36000000D03*
%TO.N,Net-(U3-VDD2)*%
X45500000Y-25000000D03*
X47000000Y-31750000D03*
X47750000Y-39000000D03*
X52224500Y-42598524D03*
X52224500Y-39750000D03*
%TO.N,A0*%
X41874799Y-29875201D03*
X45750000Y-30500000D03*
%TO.N,A1*%
X45500000Y-23500000D03*
X42724500Y-22250000D03*
%TO.N,GNDD*%
X45100000Y-52400000D03*
X37250000Y-64850000D03*
X54500000Y-77500000D03*
X56376800Y-28750000D03*
X56376800Y-35750000D03*
X57750000Y-59650000D03*
X50050000Y-50050000D03*
X53050000Y-67200000D03*
X47750000Y-77750000D03*
X52600000Y-62400000D03*
X58250000Y-36250000D03*
X36750000Y-71500000D03*
X44750000Y-69250000D03*
X40250000Y-52300000D03*
X58000000Y-22000000D03*
X57750000Y-61800000D03*
X56376800Y-21750000D03*
X52250000Y-72500000D03*
X36750000Y-74750000D03*
X36750000Y-52450000D03*
X57750000Y-57400000D03*
X42850000Y-58750000D03*
X57500000Y-77250000D03*
X36750000Y-77750000D03*
X57850000Y-65450000D03*
X58224500Y-29000000D03*
X36900000Y-58900000D03*
X54000000Y-75500000D03*
X57800000Y-63800000D03*
X46800000Y-72400000D03*
X49850000Y-52800000D03*
X47500000Y-81750000D03*
%TO.N,+5VD*%
X50224500Y-63350000D03*
X54750000Y-24905000D03*
X57500000Y-25000000D03*
X57500000Y-32000000D03*
X39500000Y-65750000D03*
X39900498Y-77750000D03*
X55000000Y-32000000D03*
X56212500Y-49037500D03*
%TO.N,Net-(U7-VIN)*%
X45750000Y-37750000D03*
%TO.N,-BATT*%
X16000000Y-52500000D03*
X17500000Y-60000000D03*
X23250000Y-55000000D03*
X19000000Y-57500000D03*
X19000000Y-65000000D03*
X42250000Y-33500000D03*
X16000000Y-55000000D03*
X16000000Y-47500000D03*
X17500000Y-45000000D03*
X19000000Y-60000000D03*
X17500000Y-62500000D03*
X49500000Y-39750000D03*
X17500000Y-65000000D03*
X16000000Y-57500000D03*
X19000000Y-52500000D03*
X22500000Y-42500000D03*
X17500000Y-42500000D03*
X16000000Y-45000000D03*
X17500000Y-57500000D03*
X16000000Y-67500000D03*
X41500000Y-25750000D03*
X17500000Y-55000000D03*
X16000000Y-62500000D03*
X23250000Y-67500000D03*
X23250000Y-52500000D03*
X23250000Y-60000000D03*
X20500000Y-42500000D03*
X23250000Y-57500000D03*
X35750000Y-33250000D03*
X19000000Y-42500000D03*
X23250000Y-62500000D03*
X17500000Y-67500000D03*
X19000000Y-50000000D03*
X16000000Y-50000000D03*
X16000000Y-42500000D03*
X49000000Y-33750000D03*
X49000000Y-27000000D03*
X17500000Y-52500000D03*
X19000000Y-62500000D03*
X17500000Y-47500000D03*
X19000000Y-67500000D03*
X23250000Y-47500000D03*
X19000000Y-55000000D03*
X19000000Y-45000000D03*
X34500000Y-43000000D03*
X23250000Y-65000000D03*
X23250000Y-45000000D03*
X16000000Y-65000000D03*
X17500000Y-50000000D03*
X23250000Y-50000000D03*
X16000000Y-60000000D03*
X19000000Y-47500000D03*
X42500000Y-20500000D03*
%TO.N,Net-(U1--)*%
X37742461Y-37000860D03*
%TO.N,Net-(U1-+)*%
X36962255Y-34536534D03*
%TO.N,Net-(U2-+)*%
X38242089Y-28784734D03*
X38264500Y-31750000D03*
%TO.N,Net-(U2--)*%
X37711089Y-27937949D03*
%TO.N,Net-(R19-Pad1)*%
X38500000Y-24250000D03*
%TO.N,Net-(U4-VOUT)*%
X48000000Y-56710000D03*
%TO.N,Net-(U3-VOUT)*%
X52550000Y-57100000D03*
X48000000Y-59710000D03*
%TO.N,Net-(U5C-+)*%
X54068851Y-50127754D03*
%TO.N,+3.3V*%
X50074848Y-70958848D03*
X41250000Y-75000000D03*
X49190800Y-73139397D03*
X50149500Y-74460009D03*
%TO.N,SWCLK*%
X52000000Y-76750000D03*
%TO.N,SWDIO*%
X52999503Y-76750000D03*
%TO.N,RX*%
X45500000Y-71750000D03*
%TO.N,TX*%
X50500000Y-79750000D03*
X50750000Y-77000000D03*
%TO.N,PA0*%
X49500000Y-68500000D03*
X49500000Y-61210000D03*
%TO.N,PA1*%
X46250000Y-54500000D03*
X48668363Y-67945576D03*
X49500000Y-55210000D03*
%TO.N,PA2*%
X54000000Y-71250000D03*
X54450000Y-55000000D03*
%TO.N,Net-(MP2-Pad1)*%
X26000000Y-70000000D03*
X31500000Y-62500000D03*
X26000000Y-45000000D03*
X26000000Y-67500000D03*
X30000000Y-70000000D03*
X33000000Y-45000000D03*
X30000000Y-50000000D03*
X26000000Y-55000000D03*
X31500000Y-57500000D03*
X30000000Y-67500000D03*
X31500000Y-70000000D03*
X26000000Y-65000000D03*
X31500000Y-45000000D03*
X33000000Y-62500000D03*
X30000000Y-55000000D03*
X30000000Y-57500000D03*
X33000000Y-67500000D03*
X26000000Y-62500000D03*
X33000000Y-60000000D03*
X30000000Y-60000000D03*
X26000000Y-47500000D03*
X26000000Y-52500000D03*
X26000000Y-50000000D03*
X33000000Y-47500000D03*
X30000000Y-65000000D03*
X26000000Y-57500000D03*
X31500000Y-55000000D03*
X30000000Y-45000000D03*
X30000000Y-62500000D03*
X31500000Y-67500000D03*
X33000000Y-50000000D03*
X30000000Y-47500000D03*
X31500000Y-65000000D03*
X30000000Y-52500000D03*
X33000000Y-52500000D03*
X31500000Y-52500000D03*
X31500000Y-50000000D03*
X33000000Y-65000000D03*
X31500000Y-60000000D03*
X31500000Y-47500000D03*
X26000000Y-60000000D03*
X33000000Y-57500000D03*
X28000000Y-70000000D03*
X33000000Y-70000000D03*
X33000000Y-55000000D03*
%TD*%
D28*
%TO.N,+5V*%
X44000000Y-39250000D02*
X43725000Y-38975000D01*
X52500000Y-41500000D02*
X50750000Y-41500000D01*
X44000000Y-33250000D02*
X44000000Y-32500000D01*
X55050000Y-44050000D02*
X52500000Y-41500000D01*
X44000000Y-33250000D02*
X44000000Y-32750000D01*
X55050000Y-44400000D02*
X55050000Y-44050000D01*
X44000000Y-34500000D02*
X44000000Y-33250000D01*
X42937500Y-31687500D02*
X42000000Y-31687500D01*
X43725000Y-38975000D02*
X43725000Y-34775000D01*
X44000000Y-32500000D02*
X44250000Y-32250000D01*
X47608200Y-41500000D02*
X44500000Y-41500000D01*
X37365000Y-21300001D02*
X37365000Y-22275000D01*
X42000000Y-31025000D02*
X40475000Y-29500000D01*
X43750000Y-24250000D02*
X42062500Y-24250000D01*
X44000000Y-32750000D02*
X42937500Y-31687500D01*
X40475000Y-29500000D02*
X38604092Y-29500000D01*
X55050000Y-43550000D02*
X55050000Y-44400000D01*
X42000000Y-31687500D02*
X42000000Y-31025000D01*
X42062500Y-24250000D02*
X42000000Y-24187500D01*
X50750000Y-41500000D02*
X47608200Y-41500000D01*
X44500000Y-41500000D02*
X44000000Y-41000000D01*
X38604092Y-29500000D02*
X37365000Y-30739092D01*
X44000000Y-41000000D02*
X44000000Y-39250000D01*
X38415001Y-20250000D02*
X37365000Y-21300001D01*
X41000000Y-20250000D02*
X38415001Y-20250000D01*
X37365000Y-30739092D02*
X37365000Y-31120000D01*
X42000000Y-21250000D02*
X41000000Y-20250000D01*
X43725000Y-34775000D02*
X44000000Y-34500000D01*
X42000000Y-24187500D02*
X42000000Y-21250000D01*
%TO.N,-5V*%
X45750000Y-44040000D02*
X46960000Y-45250000D01*
X46960000Y-45250000D02*
X49600000Y-45250000D01*
X51250000Y-43000000D02*
X51500000Y-43250000D01*
X50187500Y-44662500D02*
X50450000Y-44400000D01*
X40608200Y-44040000D02*
X42500000Y-42148200D01*
X42500000Y-42148200D02*
X42500000Y-36250000D01*
X51037500Y-22462500D02*
X48000000Y-22462500D01*
X42250000Y-36000000D02*
X42000000Y-35750000D01*
X45250000Y-27462500D02*
X45335700Y-27462500D01*
X42000000Y-27312500D02*
X39992500Y-27312500D01*
X50187500Y-47000000D02*
X50187500Y-44662500D01*
X48000000Y-22462500D02*
X47335700Y-22462500D01*
X51500000Y-43350000D02*
X50450000Y-44400000D01*
X48000000Y-35962500D02*
X50787500Y-35962500D01*
X48000000Y-29212500D02*
X51212500Y-29212500D01*
X45335700Y-27462500D02*
X46623200Y-28750000D01*
X44750000Y-35750000D02*
X46623200Y-35750000D01*
X48000000Y-29212500D02*
X47085700Y-29212500D01*
X47085700Y-29212500D02*
X46623200Y-28750000D01*
X42000000Y-34812500D02*
X41162500Y-34812500D01*
X51212500Y-29212500D02*
X51500000Y-29500000D01*
X51250000Y-22250000D02*
X51037500Y-22462500D01*
X40608200Y-44040000D02*
X45750000Y-44040000D01*
X50787500Y-35962500D02*
X51500000Y-35250000D01*
X43500000Y-27500000D02*
X42187500Y-27500000D01*
X41162500Y-34812500D02*
X39905000Y-36070000D01*
X42500000Y-36250000D02*
X42250000Y-36000000D01*
X42187500Y-27500000D02*
X42000000Y-27312500D01*
X39992500Y-27312500D02*
X39905000Y-27225000D01*
X47335700Y-22462500D02*
X46623200Y-21750000D01*
X49600000Y-45250000D02*
X50450000Y-44400000D01*
X42000000Y-35750000D02*
X42000000Y-34812500D01*
X48000000Y-35962500D02*
X46835700Y-35962500D01*
X51500000Y-43250000D02*
X51500000Y-43350000D01*
X46835700Y-35962500D02*
X46623200Y-35750000D01*
%TO.N,Net-(U3-VDD2)*%
X53312500Y-44962500D02*
X52750000Y-44400000D01*
X48000000Y-38037500D02*
X48000000Y-38750000D01*
X48000000Y-38750000D02*
X47750000Y-39000000D01*
X52750000Y-43124024D02*
X52224500Y-42598524D01*
X52750000Y-38100000D02*
X52750000Y-32250000D01*
X53312500Y-47000000D02*
X53312500Y-44962500D01*
X48000000Y-24537500D02*
X45962500Y-24537500D01*
X45962500Y-24537500D02*
X45500000Y-25000000D01*
X52224500Y-38625500D02*
X52750000Y-38100000D01*
X47000000Y-31750000D02*
X47537500Y-31750000D01*
X52224500Y-39750000D02*
X52224500Y-38625500D01*
X52750000Y-44400000D02*
X52750000Y-43124024D01*
X47537500Y-31750000D02*
X48000000Y-31287500D01*
X52037500Y-24537500D02*
X48000000Y-24537500D01*
X52750000Y-25250000D02*
X52037500Y-24537500D01*
X52750000Y-32250000D02*
X52750000Y-25250000D01*
X52037500Y-31287500D02*
X48000000Y-31287500D01*
X52750000Y-38100000D02*
X48062500Y-38100000D01*
X52750000Y-32250000D02*
X52750000Y-32000000D01*
X48062500Y-38100000D02*
X48000000Y-38037500D01*
X52750000Y-32000000D02*
X52037500Y-31287500D01*
%TO.N,A0*%
X45750000Y-30500000D02*
X42499598Y-30500000D01*
X45250000Y-30000000D02*
X45750000Y-30500000D01*
X42499598Y-30500000D02*
X41874799Y-29875201D01*
X45250000Y-29537500D02*
X45250000Y-30000000D01*
%TO.N,A1*%
X42724500Y-22250000D02*
X43974500Y-23500000D01*
X43974500Y-23500000D02*
X45500000Y-23500000D01*
%TO.N,GNDD*%
X57974500Y-28750000D02*
X58224500Y-29000000D01*
X56164300Y-28962500D02*
X56376800Y-28750000D01*
X56376800Y-35750000D02*
X56876800Y-36250000D01*
X56164300Y-21962500D02*
X56376800Y-21750000D01*
X54500000Y-28962500D02*
X56164300Y-28962500D01*
X57750000Y-21750000D02*
X58000000Y-22000000D01*
X49425000Y-75612500D02*
X49425000Y-73825000D01*
X56376800Y-21750000D02*
X57750000Y-21750000D01*
X49425000Y-75612500D02*
X49425000Y-77175000D01*
X56876800Y-36250000D02*
X58250000Y-36250000D01*
X56376800Y-28750000D02*
X57974500Y-28750000D01*
X54500000Y-21962500D02*
X56164300Y-21962500D01*
%TO.N,+5VD*%
X54750000Y-24905000D02*
X54500000Y-24655000D01*
X40687500Y-78312500D02*
X38670000Y-80330000D01*
D29*
X50224500Y-63350000D02*
X49364500Y-64210000D01*
D28*
X38670000Y-81010000D02*
X37930000Y-81750000D01*
D29*
X41040000Y-64210000D02*
X39500000Y-65750000D01*
D28*
X54500000Y-24655000D02*
X54500000Y-24037500D01*
X38670000Y-80330000D02*
X38670000Y-80750000D01*
X47608200Y-49120000D02*
X56130000Y-49120000D01*
X55000000Y-32000000D02*
X55000000Y-31537500D01*
X56130000Y-49120000D02*
X56212500Y-49037500D01*
D29*
X49364500Y-64210000D02*
X41040000Y-64210000D01*
D28*
X40608200Y-49120000D02*
X47608200Y-49120000D01*
X38670000Y-80750000D02*
X38670000Y-81010000D01*
X54845000Y-25000000D02*
X57500000Y-25000000D01*
X54750000Y-24905000D02*
X54845000Y-25000000D01*
X55000000Y-31537500D02*
X54500000Y-31037500D01*
X40687500Y-77750000D02*
X40687500Y-78312500D01*
X55000000Y-32000000D02*
X57500000Y-32000000D01*
%TO.N,Net-(U7-VIN)*%
X44750000Y-37750000D02*
X45750000Y-37750000D01*
%TO.N,-BATT*%
X23500000Y-54500000D02*
X23430000Y-54500000D01*
X24500000Y-53500000D02*
X23500000Y-54500000D01*
X34500000Y-43000000D02*
X25250000Y-43000000D01*
X23430000Y-54500000D02*
X21550000Y-56380000D01*
X37000000Y-41500000D02*
X40608200Y-41500000D01*
X24500000Y-43750000D02*
X24500000Y-53500000D01*
X25250000Y-43000000D02*
X24500000Y-43750000D01*
X34500000Y-43000000D02*
X35500000Y-43000000D01*
X35500000Y-43000000D02*
X37000000Y-41500000D01*
%TO.N,Net-(U1--)*%
X37365000Y-36623399D02*
X37742461Y-37000860D01*
X37365000Y-36070000D02*
X37365000Y-36623399D01*
%TO.N,Net-(U1-+)*%
X38635000Y-35095001D02*
X38076533Y-34536534D01*
X38076533Y-34536534D02*
X36962255Y-34536534D01*
X38635000Y-36070000D02*
X38635000Y-35095001D01*
%TO.N,Net-(U2-+)*%
X38264500Y-31750000D02*
X38264500Y-31490500D01*
X38635000Y-27225000D02*
X38635000Y-28391823D01*
X38264500Y-31490500D02*
X38635000Y-31120000D01*
X38635000Y-28391823D02*
X38242089Y-28784734D01*
%TO.N,Net-(U2--)*%
X37711089Y-27937949D02*
X37711089Y-27571089D01*
X37711089Y-27571089D02*
X37365000Y-27225000D01*
%TO.N,Net-(R19-Pad1)*%
X38500000Y-22410000D02*
X38635000Y-22275000D01*
X38500000Y-24250000D02*
X38500000Y-22410000D01*
%TO.N,Net-(U4-VOUT)*%
X47000000Y-56710000D02*
X48000000Y-56710000D01*
%TO.N,Net-(U3-VOUT)*%
X52550000Y-57100000D02*
X52550000Y-58050000D01*
X47000000Y-59710000D02*
X48000000Y-59710000D01*
X48160000Y-59550000D02*
X48000000Y-59710000D01*
X51050000Y-59550000D02*
X48160000Y-59550000D01*
X52550000Y-58050000D02*
X51050000Y-59550000D01*
%TO.N,Net-(U5C-+)*%
X54250000Y-50308903D02*
X54068851Y-50127754D01*
X54250000Y-51000000D02*
X54250000Y-50308903D01*
%TO.N,+3.3V*%
X40687500Y-75250000D02*
X41000000Y-75250000D01*
X49301403Y-73250000D02*
X49190800Y-73139397D01*
X49190800Y-73139397D02*
X49017496Y-73312701D01*
X55040000Y-74540000D02*
X53750000Y-73250000D01*
X41000000Y-75250000D02*
X41250000Y-75000000D01*
X50075000Y-70958696D02*
X50074848Y-70958848D01*
X49017496Y-73312701D02*
X42937299Y-73312701D01*
X50075000Y-75612500D02*
X50075000Y-74534509D01*
X53750000Y-73250000D02*
X49301403Y-73250000D01*
X50075000Y-74534509D02*
X50149500Y-74460009D01*
X42937299Y-73312701D02*
X41250000Y-75000000D01*
X50075000Y-69887500D02*
X50075000Y-70958696D01*
X56250000Y-74540000D02*
X55040000Y-74540000D01*
%TO.N,/RST*%
X50725000Y-66975000D02*
X50725000Y-69887500D01*
X40787500Y-60787500D02*
X42000000Y-62000000D01*
X44000000Y-66500000D02*
X50250000Y-66500000D01*
X40787500Y-59000000D02*
X40787500Y-60787500D01*
X50250000Y-66500000D02*
X50725000Y-66975000D01*
X42000000Y-68500000D02*
X44000000Y-66500000D01*
%TO.N,Net-(J1-Pin_2)*%
X56500000Y-72250000D02*
X54137500Y-69887500D01*
X54137500Y-69887500D02*
X52675000Y-69887500D01*
%TO.N,SWCLK*%
X52025000Y-75612500D02*
X52025000Y-76725000D01*
X52025000Y-76725000D02*
X52000000Y-76750000D01*
%TO.N,SWDIO*%
X52675000Y-76425497D02*
X52999503Y-76750000D01*
X52675000Y-75612500D02*
X52675000Y-76425497D01*
%TO.N,RX*%
X47475000Y-70624999D02*
X46349999Y-71750000D01*
X47475000Y-69887500D02*
X47475000Y-70624999D01*
X46349999Y-71750000D02*
X45500000Y-71750000D01*
%TO.N,TX*%
X50250000Y-80000000D02*
X41500000Y-80000000D01*
X50500000Y-79750000D02*
X50250000Y-80000000D01*
X41500000Y-80000000D02*
X40470000Y-81030000D01*
X50725000Y-75612500D02*
X50725000Y-76975000D01*
X40470000Y-81030000D02*
X40470000Y-81750000D01*
X50725000Y-76975000D02*
X50750000Y-77000000D01*
%TO.N,PA0*%
X49000000Y-61710000D02*
X49500000Y-61210000D01*
X49425000Y-68575000D02*
X49500000Y-68500000D01*
X49425000Y-69887500D02*
X49425000Y-68575000D01*
X47000000Y-61710000D02*
X49000000Y-61710000D01*
%TO.N,PA1*%
X46790000Y-54500000D02*
X47000000Y-54710000D01*
X49000000Y-54710000D02*
X49500000Y-55210000D01*
X47000000Y-54710000D02*
X49000000Y-54710000D01*
X48775000Y-68052213D02*
X48668363Y-67945576D01*
X48775000Y-69887500D02*
X48775000Y-68052213D01*
X46250000Y-54500000D02*
X46790000Y-54500000D01*
%TO.N,PA2*%
X54250000Y-53250000D02*
X54250000Y-54800000D01*
X54000000Y-71250000D02*
X53500000Y-71750000D01*
X53500000Y-71750000D02*
X49250001Y-71750000D01*
X54250000Y-54800000D02*
X54450000Y-55000000D01*
X49250001Y-71750000D02*
X48125000Y-70624999D01*
X48125000Y-70624999D02*
X48125000Y-69887500D01*
%TD*%
%TA.AperFunction,Conductor*%
%TO.N,-BATT*%
G36*
X33002208Y-20000157D02*
G01*
X33275790Y-20019724D01*
X33293291Y-20022241D01*
X33554803Y-20079129D01*
X33571762Y-20084108D01*
X33822524Y-20177638D01*
X33838616Y-20184987D01*
X34073501Y-20313244D01*
X34088375Y-20322802D01*
X34302624Y-20483188D01*
X34315994Y-20494774D01*
X34505225Y-20684005D01*
X34516811Y-20697375D01*
X34677193Y-20911619D01*
X34686758Y-20926503D01*
X34815011Y-21161382D01*
X34822361Y-21177475D01*
X34915888Y-21428229D01*
X34920872Y-21445205D01*
X34977757Y-21706702D01*
X34980275Y-21724214D01*
X34999842Y-21997789D01*
X35000000Y-22002213D01*
X35000000Y-40497786D01*
X34999842Y-40502210D01*
X34980275Y-40775785D01*
X34977757Y-40793297D01*
X34920872Y-41054794D01*
X34915888Y-41071770D01*
X34822361Y-41322524D01*
X34815011Y-41338617D01*
X34686758Y-41573496D01*
X34677193Y-41588380D01*
X34516811Y-41802624D01*
X34505225Y-41815994D01*
X34315994Y-42005225D01*
X34302624Y-42016811D01*
X34088380Y-42177193D01*
X34073496Y-42186758D01*
X33838617Y-42315011D01*
X33822524Y-42322361D01*
X33571770Y-42415888D01*
X33554794Y-42420872D01*
X33293297Y-42477757D01*
X33275785Y-42480275D01*
X33027448Y-42498036D01*
X33002208Y-42499842D01*
X32997786Y-42500000D01*
X26000000Y-42500000D01*
X25715364Y-42520357D01*
X25436541Y-42581012D01*
X25436536Y-42581013D01*
X25436535Y-42581014D01*
X25371892Y-42605124D01*
X25169168Y-42680736D01*
X25169164Y-42680738D01*
X24918723Y-42817489D01*
X24918722Y-42817490D01*
X24690280Y-42988500D01*
X24690268Y-42988510D01*
X24488510Y-43190268D01*
X24488500Y-43190280D01*
X24317490Y-43418722D01*
X24317489Y-43418723D01*
X24180738Y-43669164D01*
X24180736Y-43669168D01*
X24081012Y-43936541D01*
X24020357Y-44215364D01*
X24000000Y-44500000D01*
X24000000Y-66997786D01*
X23999842Y-67002210D01*
X23980275Y-67275785D01*
X23977757Y-67293297D01*
X23920872Y-67554794D01*
X23915888Y-67571770D01*
X23822361Y-67822524D01*
X23815011Y-67838617D01*
X23686758Y-68073496D01*
X23677193Y-68088380D01*
X23516811Y-68302624D01*
X23505225Y-68315994D01*
X23315994Y-68505225D01*
X23302624Y-68516811D01*
X23088380Y-68677193D01*
X23073496Y-68686758D01*
X22838617Y-68815011D01*
X22822524Y-68822361D01*
X22571770Y-68915888D01*
X22554794Y-68920872D01*
X22293297Y-68977757D01*
X22275785Y-68980275D01*
X22027448Y-68998036D01*
X22002208Y-68999842D01*
X21997786Y-69000000D01*
X16002214Y-69000000D01*
X15997791Y-68999842D01*
X15969503Y-68997818D01*
X15724214Y-68980275D01*
X15706702Y-68977757D01*
X15445205Y-68920872D01*
X15428229Y-68915888D01*
X15177475Y-68822361D01*
X15161382Y-68815011D01*
X14926503Y-68686758D01*
X14911619Y-68677193D01*
X14697375Y-68516811D01*
X14684005Y-68505225D01*
X14494774Y-68315994D01*
X14483188Y-68302624D01*
X14322802Y-68088375D01*
X14313244Y-68073501D01*
X14184987Y-67838616D01*
X14177638Y-67822524D01*
X14084108Y-67571762D01*
X14079129Y-67554803D01*
X14022241Y-67293291D01*
X14019724Y-67275785D01*
X14000158Y-67002210D01*
X14000000Y-66997786D01*
X14000000Y-32184371D01*
X21199500Y-32184371D01*
X21239367Y-32550946D01*
X21318635Y-32911065D01*
X21378983Y-33090172D01*
X21436375Y-33260503D01*
X21436377Y-33260508D01*
X21436379Y-33260513D01*
X21591200Y-33595153D01*
X21591202Y-33595157D01*
X21591204Y-33595161D01*
X21591205Y-33595162D01*
X21781310Y-33911119D01*
X22004462Y-34204670D01*
X22258044Y-34472373D01*
X22539083Y-34711090D01*
X22844284Y-34918022D01*
X22844288Y-34918024D01*
X22844291Y-34918026D01*
X22969867Y-34984602D01*
X23170070Y-35090743D01*
X23512621Y-35227227D01*
X23512627Y-35227228D01*
X23512628Y-35227229D01*
X23512634Y-35227231D01*
X23788226Y-35303748D01*
X23867919Y-35325875D01*
X23867930Y-35325876D01*
X23867931Y-35325877D01*
X24231786Y-35385529D01*
X24231790Y-35385529D01*
X24231801Y-35385531D01*
X24507890Y-35400500D01*
X24507892Y-35400500D01*
X24692108Y-35400500D01*
X24692110Y-35400500D01*
X24968199Y-35385531D01*
X24968210Y-35385529D01*
X24968213Y-35385529D01*
X25220077Y-35344237D01*
X25332081Y-35325875D01*
X25687379Y-35227227D01*
X26029930Y-35090743D01*
X26355716Y-34918022D01*
X26660917Y-34711090D01*
X26941956Y-34472373D01*
X27195538Y-34204670D01*
X27418690Y-33911119D01*
X27608795Y-33595162D01*
X27763625Y-33260503D01*
X27881364Y-32911066D01*
X27960632Y-32550948D01*
X28000500Y-32184370D01*
X28000500Y-31815630D01*
X27960632Y-31449052D01*
X27881364Y-31088934D01*
X27763625Y-30739497D01*
X27608795Y-30404838D01*
X27418690Y-30088881D01*
X27195538Y-29795330D01*
X26941956Y-29527627D01*
X26660917Y-29288910D01*
X26355716Y-29081978D01*
X26355713Y-29081976D01*
X26355708Y-29081973D01*
X26029938Y-28909261D01*
X26029926Y-28909255D01*
X25687371Y-28772770D01*
X25687365Y-28772768D01*
X25332094Y-28674128D01*
X25332068Y-28674122D01*
X24968213Y-28614470D01*
X24968200Y-28614469D01*
X24968199Y-28614469D01*
X24692110Y-28599500D01*
X24507890Y-28599500D01*
X24231801Y-28614469D01*
X24231799Y-28614469D01*
X24231786Y-28614470D01*
X23867931Y-28674122D01*
X23867905Y-28674128D01*
X23512634Y-28772768D01*
X23512628Y-28772770D01*
X23170073Y-28909255D01*
X23170061Y-28909261D01*
X22844291Y-29081973D01*
X22844282Y-29081979D01*
X22539083Y-29288909D01*
X22258044Y-29527626D01*
X22004462Y-29795330D01*
X22004461Y-29795330D01*
X21930112Y-29893135D01*
X21781310Y-30088881D01*
X21781309Y-30088883D01*
X21591202Y-30404842D01*
X21591200Y-30404846D01*
X21436379Y-30739486D01*
X21318635Y-31088934D01*
X21239367Y-31449053D01*
X21199500Y-31815628D01*
X21199500Y-32184371D01*
X14000000Y-32184371D01*
X14000000Y-22002213D01*
X14000158Y-21997789D01*
X14019724Y-21724214D01*
X14022240Y-21706710D01*
X14079130Y-21445192D01*
X14084107Y-21428241D01*
X14177640Y-21177470D01*
X14184985Y-21161388D01*
X14313248Y-20926491D01*
X14322798Y-20911630D01*
X14483195Y-20697366D01*
X14494767Y-20684012D01*
X14684012Y-20494767D01*
X14697366Y-20483195D01*
X14911630Y-20322798D01*
X14926491Y-20313248D01*
X15161388Y-20184985D01*
X15177470Y-20177640D01*
X15428241Y-20084107D01*
X15445192Y-20079130D01*
X15706710Y-20022240D01*
X15724207Y-20019724D01*
X15997791Y-20000157D01*
X16002214Y-20000000D01*
X32997786Y-20000000D01*
X33002208Y-20000157D01*
G37*
%TD.AperFunction*%
%TD*%
%TA.AperFunction,Conductor*%
%TO.N,-BATT*%
G36*
X41042507Y-35913737D02*
G01*
X41197203Y-35964999D01*
X41231248Y-35968477D01*
X41242229Y-35969599D01*
X41306921Y-35995995D01*
X41347073Y-36053176D01*
X41352947Y-36079991D01*
X41364326Y-36188256D01*
X41364327Y-36188259D01*
X41422818Y-36368277D01*
X41422821Y-36368284D01*
X41517467Y-36532216D01*
X41620732Y-36646903D01*
X41644129Y-36672888D01*
X41797265Y-36784148D01*
X41797268Y-36784150D01*
X41797269Y-36784150D01*
X41797270Y-36784151D01*
X41800934Y-36785782D01*
X41802709Y-36787291D01*
X41802893Y-36787397D01*
X41802873Y-36787430D01*
X41854172Y-36831032D01*
X41874494Y-36897881D01*
X41874500Y-36899062D01*
X41874500Y-40616547D01*
X41854815Y-40683586D01*
X41802011Y-40729341D01*
X41739693Y-40740075D01*
X41723125Y-40738625D01*
X41087489Y-41374261D01*
X41063373Y-41292129D01*
X40986372Y-41172312D01*
X40878733Y-41079043D01*
X40749177Y-41019876D01*
X40736582Y-41018065D01*
X41369573Y-40385073D01*
X41369573Y-40385072D01*
X41285783Y-40326402D01*
X41285779Y-40326400D01*
X41071692Y-40226570D01*
X41071683Y-40226566D01*
X40843526Y-40165432D01*
X40843515Y-40165430D01*
X40608202Y-40144843D01*
X40608198Y-40144843D01*
X40372884Y-40165430D01*
X40372873Y-40165432D01*
X40144716Y-40226566D01*
X40144707Y-40226570D01*
X39930619Y-40326401D01*
X39846825Y-40385072D01*
X40479818Y-41018065D01*
X40467223Y-41019876D01*
X40337667Y-41079043D01*
X40230028Y-41172312D01*
X40153027Y-41292129D01*
X40128909Y-41374262D01*
X39493272Y-40738625D01*
X39434601Y-40822419D01*
X39334770Y-41036507D01*
X39334766Y-41036516D01*
X39273632Y-41264673D01*
X39273630Y-41264684D01*
X39253043Y-41499998D01*
X39253043Y-41500001D01*
X39273630Y-41735315D01*
X39273632Y-41735326D01*
X39334766Y-41963483D01*
X39334770Y-41963492D01*
X39434600Y-42177579D01*
X39434602Y-42177583D01*
X39493272Y-42261373D01*
X39493273Y-42261373D01*
X40128909Y-41625736D01*
X40153027Y-41707871D01*
X40230028Y-41827688D01*
X40337667Y-41920957D01*
X40467223Y-41980124D01*
X40479817Y-41981934D01*
X39846825Y-42614925D01*
X39922794Y-42668119D01*
X39966419Y-42722696D01*
X39973613Y-42792194D01*
X39942090Y-42854549D01*
X39922795Y-42871269D01*
X39736794Y-43001508D01*
X39569705Y-43168597D01*
X39434165Y-43362169D01*
X39434164Y-43362171D01*
X39334298Y-43576335D01*
X39334294Y-43576344D01*
X39273138Y-43804586D01*
X39273136Y-43804596D01*
X39252541Y-44039999D01*
X39252541Y-44040000D01*
X39273136Y-44275403D01*
X39273138Y-44275413D01*
X39334294Y-44503655D01*
X39334296Y-44503659D01*
X39334297Y-44503663D01*
X39337951Y-44511499D01*
X39434164Y-44717829D01*
X39434165Y-44717830D01*
X39495116Y-44804877D01*
X39517443Y-44871082D01*
X39500433Y-44938850D01*
X39449485Y-44986663D01*
X39393541Y-45000000D01*
X39125000Y-45000000D01*
X39062499Y-45016747D01*
X39062498Y-45016747D01*
X39016747Y-45062498D01*
X39016747Y-45062499D01*
X38999999Y-45125001D01*
X38992112Y-45154434D01*
X38955746Y-45214094D01*
X38904438Y-45242111D01*
X38890774Y-45245773D01*
X38858674Y-45250000D01*
X37127214Y-45250000D01*
X37122791Y-45249842D01*
X37098592Y-45248111D01*
X36867005Y-45231547D01*
X36849493Y-45229029D01*
X36605421Y-45175935D01*
X36588445Y-45170951D01*
X36354402Y-45083657D01*
X36338309Y-45076307D01*
X36119083Y-44956601D01*
X36104199Y-44947036D01*
X35904232Y-44797342D01*
X35890862Y-44785756D01*
X35714243Y-44609137D01*
X35702657Y-44595767D01*
X35639575Y-44511499D01*
X35552959Y-44395795D01*
X35543401Y-44380921D01*
X35423691Y-44161689D01*
X35416342Y-44145597D01*
X35392354Y-44081282D01*
X35329045Y-43911546D01*
X35324066Y-43894587D01*
X35270969Y-43650503D01*
X35268452Y-43632994D01*
X35264400Y-43576344D01*
X35250157Y-43377208D01*
X35250000Y-43372786D01*
X35250000Y-37419309D01*
X35269685Y-37352270D01*
X35322489Y-37306515D01*
X35391647Y-37296571D01*
X35455203Y-37325596D01*
X35461681Y-37331628D01*
X35543129Y-37413076D01*
X35543133Y-37413079D01*
X35543135Y-37413081D01*
X35684602Y-37496744D01*
X35695255Y-37499839D01*
X35842426Y-37542597D01*
X35842429Y-37542597D01*
X35842431Y-37542598D01*
X35854722Y-37543565D01*
X35879304Y-37545500D01*
X35879306Y-37545500D01*
X36310696Y-37545500D01*
X36329131Y-37544049D01*
X36347569Y-37542598D01*
X36347571Y-37542597D01*
X36347573Y-37542597D01*
X36389191Y-37530505D01*
X36505398Y-37496744D01*
X36646865Y-37413081D01*
X36646870Y-37413075D01*
X36653031Y-37408298D01*
X36654933Y-37410750D01*
X36703579Y-37384155D01*
X36773274Y-37389104D01*
X36805695Y-37409940D01*
X36806969Y-37408298D01*
X36813138Y-37413083D01*
X36954598Y-37496742D01*
X36954600Y-37496742D01*
X36954602Y-37496744D01*
X36954603Y-37496744D01*
X36961755Y-37499839D01*
X36960903Y-37501807D01*
X37008860Y-37531890D01*
X37136590Y-37673748D01*
X37289726Y-37785008D01*
X37289731Y-37785011D01*
X37462653Y-37862002D01*
X37462658Y-37862004D01*
X37647815Y-37901360D01*
X37647816Y-37901360D01*
X37837105Y-37901360D01*
X37837107Y-37901360D01*
X38022264Y-37862004D01*
X38195191Y-37785011D01*
X38348332Y-37673748D01*
X38369723Y-37649991D01*
X38426866Y-37586528D01*
X38486353Y-37549879D01*
X38519016Y-37545500D01*
X38850696Y-37545500D01*
X38869131Y-37544049D01*
X38887569Y-37542598D01*
X38887571Y-37542597D01*
X38887573Y-37542597D01*
X38929191Y-37530505D01*
X39045398Y-37496744D01*
X39186865Y-37413081D01*
X39186870Y-37413075D01*
X39193031Y-37408298D01*
X39194933Y-37410750D01*
X39243579Y-37384155D01*
X39313274Y-37389104D01*
X39345695Y-37409940D01*
X39346969Y-37408298D01*
X39353132Y-37413078D01*
X39353135Y-37413081D01*
X39494602Y-37496744D01*
X39505255Y-37499839D01*
X39652426Y-37542597D01*
X39652429Y-37542597D01*
X39652431Y-37542598D01*
X39664722Y-37543565D01*
X39689304Y-37545500D01*
X39689306Y-37545500D01*
X40120696Y-37545500D01*
X40139131Y-37544049D01*
X40157569Y-37542598D01*
X40157571Y-37542597D01*
X40157573Y-37542597D01*
X40199191Y-37530505D01*
X40315398Y-37496744D01*
X40456865Y-37413081D01*
X40573081Y-37296865D01*
X40656744Y-37155398D01*
X40702598Y-36997569D01*
X40705094Y-36965849D01*
X40705500Y-36960696D01*
X40705500Y-36205451D01*
X40725185Y-36138412D01*
X40741815Y-36117774D01*
X40915827Y-35943761D01*
X40977148Y-35910278D01*
X41042507Y-35913737D01*
G37*
%TD.AperFunction*%
%TA.AperFunction,Conductor*%
G36*
X49943039Y-42145185D02*
G01*
X49988794Y-42197989D01*
X50000000Y-42249500D01*
X50000000Y-42775500D01*
X49980315Y-42842539D01*
X49927511Y-42888294D01*
X49876001Y-42899500D01*
X49652130Y-42899500D01*
X49652123Y-42899501D01*
X49592516Y-42905908D01*
X49457671Y-42956202D01*
X49457664Y-42956206D01*
X49342455Y-43042452D01*
X49342452Y-43042455D01*
X49256206Y-43157664D01*
X49256202Y-43157671D01*
X49205908Y-43292517D01*
X49199501Y-43352116D01*
X49199500Y-43352135D01*
X49199500Y-43899062D01*
X49179815Y-43966101D01*
X49127011Y-44011856D01*
X49057853Y-44021800D01*
X48994297Y-43992775D01*
X48956523Y-43933997D01*
X48951972Y-43909869D01*
X48942769Y-43804684D01*
X48942767Y-43804673D01*
X48881633Y-43576516D01*
X48881629Y-43576507D01*
X48781800Y-43362423D01*
X48781799Y-43362421D01*
X48723125Y-43278626D01*
X48723125Y-43278625D01*
X48087489Y-43914261D01*
X48063373Y-43832129D01*
X47986372Y-43712312D01*
X47878733Y-43619043D01*
X47749177Y-43559876D01*
X47736582Y-43558065D01*
X48369573Y-42925073D01*
X48369573Y-42925072D01*
X48293605Y-42871880D01*
X48249980Y-42817304D01*
X48242786Y-42747805D01*
X48274308Y-42685451D01*
X48293599Y-42668734D01*
X48479601Y-42538495D01*
X48646695Y-42371401D01*
X48781852Y-42178377D01*
X48836429Y-42134752D01*
X48883427Y-42125500D01*
X49876000Y-42125500D01*
X49943039Y-42145185D01*
G37*
%TD.AperFunction*%
%TA.AperFunction,Conductor*%
G36*
X43330703Y-39465739D02*
G01*
X43337181Y-39471771D01*
X43338181Y-39472771D01*
X43371666Y-39534094D01*
X43374500Y-39560452D01*
X43374500Y-40917255D01*
X43372774Y-40932877D01*
X43373060Y-40932904D01*
X43372949Y-40934078D01*
X43372525Y-40935139D01*
X43371513Y-40944306D01*
X43370624Y-40948283D01*
X43368940Y-40947906D01*
X43373439Y-40976048D01*
X43374500Y-41009814D01*
X43374500Y-41039343D01*
X43374501Y-41039360D01*
X43375368Y-41046231D01*
X43375826Y-41052050D01*
X43377290Y-41098624D01*
X43377291Y-41098627D01*
X43382880Y-41117867D01*
X43386824Y-41136911D01*
X43389336Y-41156791D01*
X43406490Y-41200119D01*
X43408382Y-41205647D01*
X43421381Y-41250388D01*
X43431580Y-41267634D01*
X43440138Y-41285103D01*
X43447514Y-41303732D01*
X43474898Y-41341423D01*
X43478106Y-41346307D01*
X43501827Y-41386416D01*
X43501833Y-41386424D01*
X43515990Y-41400580D01*
X43528628Y-41415376D01*
X43540405Y-41431586D01*
X43540406Y-41431587D01*
X43576309Y-41461288D01*
X43580620Y-41465210D01*
X43823281Y-41707871D01*
X43999194Y-41883784D01*
X44009019Y-41896048D01*
X44009240Y-41895866D01*
X44014210Y-41901873D01*
X44014213Y-41901876D01*
X44014214Y-41901877D01*
X44064651Y-41949241D01*
X44078893Y-41963483D01*
X44085529Y-41970119D01*
X44091004Y-41974366D01*
X44095446Y-41978160D01*
X44129415Y-42010060D01*
X44129417Y-42010061D01*
X44129418Y-42010062D01*
X44146976Y-42019714D01*
X44163237Y-42030396D01*
X44179064Y-42042673D01*
X44221823Y-42061176D01*
X44227073Y-42063748D01*
X44267904Y-42086195D01*
X44267908Y-42086197D01*
X44267912Y-42086198D01*
X44287311Y-42091179D01*
X44305722Y-42097483D01*
X44324097Y-42105435D01*
X44324100Y-42105435D01*
X44324105Y-42105438D01*
X44370149Y-42112729D01*
X44375832Y-42113906D01*
X44420981Y-42125500D01*
X44441016Y-42125500D01*
X44460413Y-42127026D01*
X44480196Y-42130160D01*
X44526584Y-42125775D01*
X44532422Y-42125500D01*
X46332973Y-42125500D01*
X46400012Y-42145185D01*
X46434548Y-42178377D01*
X46562522Y-42361144D01*
X46569705Y-42371401D01*
X46736799Y-42538495D01*
X46894625Y-42649006D01*
X46922794Y-42668730D01*
X46966418Y-42723307D01*
X46973611Y-42792806D01*
X46942089Y-42855160D01*
X46922793Y-42871880D01*
X46846826Y-42925072D01*
X46846825Y-42925072D01*
X47479818Y-43558065D01*
X47467223Y-43559876D01*
X47337667Y-43619043D01*
X47230028Y-43712312D01*
X47153027Y-43832129D01*
X47128909Y-43914262D01*
X46493272Y-43278625D01*
X46434601Y-43362419D01*
X46357396Y-43527984D01*
X46311223Y-43580423D01*
X46244029Y-43599575D01*
X46177148Y-43579359D01*
X46167656Y-43572131D01*
X46167550Y-43572269D01*
X46158986Y-43565625D01*
X46154561Y-43561847D01*
X46120582Y-43529938D01*
X46120580Y-43529936D01*
X46120577Y-43529935D01*
X46103029Y-43520288D01*
X46086763Y-43509604D01*
X46070933Y-43497325D01*
X46028168Y-43478818D01*
X46022922Y-43476248D01*
X45982093Y-43453803D01*
X45982092Y-43453802D01*
X45962693Y-43448822D01*
X45944281Y-43442518D01*
X45925898Y-43434562D01*
X45925892Y-43434560D01*
X45879874Y-43427272D01*
X45874152Y-43426087D01*
X45829021Y-43414500D01*
X45829019Y-43414500D01*
X45808984Y-43414500D01*
X45789586Y-43412973D01*
X45782162Y-43411797D01*
X45769805Y-43409840D01*
X45769804Y-43409840D01*
X45723416Y-43414225D01*
X45717578Y-43414500D01*
X42417653Y-43414500D01*
X42350614Y-43394815D01*
X42304859Y-43342011D01*
X42294915Y-43272853D01*
X42323940Y-43209297D01*
X42329972Y-43202819D01*
X42447609Y-43085180D01*
X42883788Y-42649001D01*
X42896042Y-42639186D01*
X42895859Y-42638964D01*
X42901866Y-42633992D01*
X42901877Y-42633986D01*
X42932775Y-42601082D01*
X42949227Y-42583564D01*
X42959671Y-42573118D01*
X42970120Y-42562671D01*
X42974379Y-42557178D01*
X42978152Y-42552761D01*
X43010062Y-42518782D01*
X43019713Y-42501224D01*
X43030396Y-42484961D01*
X43042673Y-42469136D01*
X43061185Y-42426353D01*
X43063738Y-42421141D01*
X43086197Y-42380292D01*
X43091180Y-42360880D01*
X43097481Y-42342480D01*
X43105437Y-42324096D01*
X43112729Y-42278052D01*
X43113906Y-42272371D01*
X43125500Y-42227219D01*
X43125500Y-42207183D01*
X43127027Y-42187782D01*
X43130160Y-42168004D01*
X43125775Y-42121615D01*
X43125500Y-42115777D01*
X43125500Y-40979943D01*
X43132677Y-40955498D01*
X43127763Y-40945987D01*
X43125500Y-40922406D01*
X43125500Y-39559452D01*
X43145185Y-39492413D01*
X43197989Y-39446658D01*
X43267147Y-39436714D01*
X43330703Y-39465739D01*
G37*
%TD.AperFunction*%
%TA.AperFunction,Conductor*%
G36*
X46727151Y-38141815D02*
G01*
X46767680Y-38198728D01*
X46774500Y-38239285D01*
X46774500Y-38425000D01*
X46774501Y-38425019D01*
X46785000Y-38527796D01*
X46785001Y-38527799D01*
X46825661Y-38650500D01*
X46840186Y-38694334D01*
X46850859Y-38711638D01*
X46869299Y-38779030D01*
X46864903Y-38805233D01*
X46865675Y-38805398D01*
X46864325Y-38811742D01*
X46847276Y-38973967D01*
X46844540Y-39000000D01*
X46864326Y-39188256D01*
X46864327Y-39188259D01*
X46922818Y-39368277D01*
X46922821Y-39368284D01*
X47017467Y-39532216D01*
X47098701Y-39622435D01*
X47144129Y-39672888D01*
X47297265Y-39784148D01*
X47297270Y-39784151D01*
X47470192Y-39861142D01*
X47470193Y-39861142D01*
X47470197Y-39861144D01*
X47654934Y-39900410D01*
X47656041Y-39901008D01*
X47661150Y-39900500D01*
X47844644Y-39900500D01*
X47844646Y-39900500D01*
X48029803Y-39861144D01*
X48202730Y-39784151D01*
X48355871Y-39672888D01*
X48482533Y-39532216D01*
X48577179Y-39368284D01*
X48635674Y-39188256D01*
X48635674Y-39188252D01*
X48637027Y-39181892D01*
X48638465Y-39182197D01*
X48662153Y-39124616D01*
X48719449Y-39084629D01*
X48719711Y-39084541D01*
X48794334Y-39059814D01*
X48943656Y-38967712D01*
X49067712Y-38843656D01*
X49104259Y-38784402D01*
X49156207Y-38737679D01*
X49209798Y-38725500D01*
X49876000Y-38725500D01*
X49943039Y-38745185D01*
X49988794Y-38797989D01*
X50000000Y-38849500D01*
X50000000Y-40750500D01*
X49980315Y-40817539D01*
X49927511Y-40863294D01*
X49876000Y-40874500D01*
X48883427Y-40874500D01*
X48816388Y-40854815D01*
X48781852Y-40821623D01*
X48646694Y-40628597D01*
X48479602Y-40461506D01*
X48479595Y-40461501D01*
X48286034Y-40325967D01*
X48286030Y-40325965D01*
X48286028Y-40325964D01*
X48071863Y-40226097D01*
X48071859Y-40226096D01*
X48071855Y-40226094D01*
X47843613Y-40164938D01*
X47843603Y-40164936D01*
X47650342Y-40148028D01*
X47641069Y-40144400D01*
X47638588Y-40145340D01*
X47618350Y-40145228D01*
X47608208Y-40144341D01*
X47608199Y-40144341D01*
X47372796Y-40164936D01*
X47372786Y-40164938D01*
X47144544Y-40226094D01*
X47144535Y-40226098D01*
X46930371Y-40325964D01*
X46930369Y-40325965D01*
X46736797Y-40461505D01*
X46569705Y-40628597D01*
X46434548Y-40821623D01*
X46379971Y-40865248D01*
X46332973Y-40874500D01*
X44810453Y-40874500D01*
X44743414Y-40854815D01*
X44722771Y-40838181D01*
X44661818Y-40777227D01*
X44628334Y-40715903D01*
X44625500Y-40689546D01*
X44625500Y-39332742D01*
X44627224Y-39317122D01*
X44626939Y-39317095D01*
X44627673Y-39309333D01*
X44625500Y-39240172D01*
X44625500Y-39210656D01*
X44625500Y-39210650D01*
X44624631Y-39203779D01*
X44624173Y-39197952D01*
X44622710Y-39151373D01*
X44617119Y-39132130D01*
X44613173Y-39113078D01*
X44610664Y-39093208D01*
X44593504Y-39049867D01*
X44591622Y-39044372D01*
X44581372Y-39009089D01*
X44581574Y-38939221D01*
X44619518Y-38880552D01*
X44683158Y-38851711D01*
X44700450Y-38850499D01*
X45250002Y-38850499D01*
X45250008Y-38850499D01*
X45352797Y-38839999D01*
X45519334Y-38784814D01*
X45668656Y-38692712D01*
X45674549Y-38686819D01*
X45735872Y-38653334D01*
X45762230Y-38650500D01*
X45844644Y-38650500D01*
X45844646Y-38650500D01*
X46029803Y-38611144D01*
X46202730Y-38534151D01*
X46355871Y-38422888D01*
X46482533Y-38282216D01*
X46543115Y-38177283D01*
X46593679Y-38129071D01*
X46662286Y-38115847D01*
X46727151Y-38141815D01*
G37*
%TD.AperFunction*%
%TA.AperFunction,Conductor*%
G36*
X45113291Y-31145185D02*
G01*
X45138400Y-31166526D01*
X45144126Y-31172885D01*
X45144130Y-31172889D01*
X45297265Y-31284148D01*
X45297270Y-31284151D01*
X45470192Y-31361142D01*
X45470197Y-31361144D01*
X45655354Y-31400500D01*
X45655355Y-31400500D01*
X45844644Y-31400500D01*
X45844646Y-31400500D01*
X45980530Y-31371617D01*
X46050197Y-31376933D01*
X46105931Y-31419070D01*
X46130036Y-31484650D01*
X46124242Y-31531224D01*
X46114327Y-31561739D01*
X46114326Y-31561741D01*
X46114326Y-31561744D01*
X46094540Y-31750000D01*
X46114326Y-31938256D01*
X46114327Y-31938259D01*
X46172818Y-32118277D01*
X46172821Y-32118284D01*
X46267467Y-32282216D01*
X46388403Y-32416529D01*
X46394129Y-32422888D01*
X46547265Y-32534148D01*
X46547270Y-32534151D01*
X46720192Y-32611142D01*
X46720195Y-32611143D01*
X46720197Y-32611144D01*
X46905354Y-32650500D01*
X46905355Y-32650500D01*
X47094644Y-32650500D01*
X47094646Y-32650500D01*
X47279803Y-32611144D01*
X47452730Y-32534151D01*
X47605871Y-32422888D01*
X47611597Y-32416529D01*
X47671083Y-32379879D01*
X47703749Y-32375499D01*
X48525002Y-32375499D01*
X48525008Y-32375499D01*
X48627797Y-32364999D01*
X48794334Y-32309814D01*
X48943656Y-32217712D01*
X49067712Y-32093656D01*
X49142809Y-31971902D01*
X49194757Y-31925179D01*
X49248348Y-31913000D01*
X49876000Y-31913000D01*
X49943039Y-31932685D01*
X49988794Y-31985489D01*
X50000000Y-32037000D01*
X50000000Y-35213000D01*
X49980315Y-35280039D01*
X49927511Y-35325794D01*
X49876000Y-35337000D01*
X49248348Y-35337000D01*
X49181309Y-35317315D01*
X49142809Y-35278097D01*
X49102657Y-35213000D01*
X49067712Y-35156344D01*
X48943656Y-35032288D01*
X48829713Y-34962008D01*
X48794336Y-34940187D01*
X48794331Y-34940185D01*
X48792862Y-34939698D01*
X48627797Y-34885001D01*
X48627795Y-34885000D01*
X48525010Y-34874500D01*
X47474998Y-34874500D01*
X47474980Y-34874501D01*
X47372203Y-34885000D01*
X47372200Y-34885001D01*
X47232349Y-34931344D01*
X47205666Y-34940186D01*
X47182833Y-34954269D01*
X47115441Y-34972708D01*
X47067303Y-34962008D01*
X46903007Y-34888857D01*
X46903002Y-34888855D01*
X46757201Y-34857865D01*
X46717846Y-34849500D01*
X46528554Y-34849500D01*
X46496097Y-34856398D01*
X46343397Y-34888855D01*
X46343392Y-34888857D01*
X46170470Y-34965848D01*
X46170465Y-34965851D01*
X46032515Y-35066078D01*
X45966709Y-35089558D01*
X45898655Y-35073732D01*
X45854091Y-35030856D01*
X45792712Y-34931344D01*
X45668657Y-34807289D01*
X45668656Y-34807288D01*
X45538358Y-34726920D01*
X45519336Y-34715187D01*
X45519331Y-34715185D01*
X45517862Y-34714698D01*
X45352797Y-34660001D01*
X45352795Y-34660000D01*
X45250016Y-34649500D01*
X45250009Y-34649500D01*
X44754042Y-34649500D01*
X44687003Y-34629815D01*
X44641248Y-34577011D01*
X44631295Y-34527532D01*
X44630894Y-34527570D01*
X44630530Y-34523728D01*
X44630103Y-34521601D01*
X44630158Y-34519812D01*
X44630160Y-34519804D01*
X44625775Y-34473415D01*
X44625500Y-34467577D01*
X44625500Y-33149062D01*
X44645185Y-33082023D01*
X44697989Y-33036268D01*
X44699013Y-33035805D01*
X44702730Y-33034151D01*
X44855871Y-32922888D01*
X44982533Y-32782216D01*
X45077179Y-32618284D01*
X45135674Y-32438256D01*
X45155460Y-32250000D01*
X45135674Y-32061744D01*
X45077179Y-31881716D01*
X44982533Y-31717784D01*
X44855871Y-31577112D01*
X44834712Y-31561739D01*
X44702734Y-31465851D01*
X44702729Y-31465848D01*
X44529807Y-31388857D01*
X44529802Y-31388855D01*
X44444809Y-31370790D01*
X44383327Y-31337598D01*
X44349551Y-31276435D01*
X44354203Y-31206720D01*
X44395808Y-31150588D01*
X44461155Y-31125859D01*
X44470590Y-31125500D01*
X45046252Y-31125500D01*
X45113291Y-31145185D01*
G37*
%TD.AperFunction*%
%TA.AperFunction,Conductor*%
G36*
X35455203Y-32375596D02*
G01*
X35461681Y-32381628D01*
X35543129Y-32463076D01*
X35543133Y-32463079D01*
X35543135Y-32463081D01*
X35684602Y-32546744D01*
X35709006Y-32553834D01*
X35842426Y-32592597D01*
X35842429Y-32592597D01*
X35842431Y-32592598D01*
X35854722Y-32593565D01*
X35879304Y-32595500D01*
X35879306Y-32595500D01*
X36310696Y-32595500D01*
X36329131Y-32594049D01*
X36347569Y-32592598D01*
X36347571Y-32592597D01*
X36347573Y-32592597D01*
X36389191Y-32580505D01*
X36505398Y-32546744D01*
X36646865Y-32463081D01*
X36646870Y-32463075D01*
X36653031Y-32458298D01*
X36654933Y-32460750D01*
X36703579Y-32434155D01*
X36773274Y-32439104D01*
X36805695Y-32459940D01*
X36806969Y-32458298D01*
X36813132Y-32463078D01*
X36813135Y-32463081D01*
X36954602Y-32546744D01*
X36979006Y-32553834D01*
X37112426Y-32592597D01*
X37112429Y-32592597D01*
X37112431Y-32592598D01*
X37124722Y-32593565D01*
X37149304Y-32595500D01*
X37149306Y-32595500D01*
X37580696Y-32595500D01*
X37599131Y-32594049D01*
X37617569Y-32592598D01*
X37770947Y-32548037D01*
X37840816Y-32548236D01*
X37855978Y-32553834D01*
X37984692Y-32611142D01*
X37984695Y-32611143D01*
X37984697Y-32611144D01*
X38169854Y-32650500D01*
X38169855Y-32650500D01*
X38359144Y-32650500D01*
X38359146Y-32650500D01*
X38544303Y-32611144D01*
X38552130Y-32607659D01*
X38555363Y-32606220D01*
X38605798Y-32595500D01*
X38850696Y-32595500D01*
X38869131Y-32594049D01*
X38887569Y-32592598D01*
X38887571Y-32592597D01*
X38887573Y-32592597D01*
X38929191Y-32580505D01*
X39045398Y-32546744D01*
X39186865Y-32463081D01*
X39186870Y-32463075D01*
X39193031Y-32458298D01*
X39194933Y-32460750D01*
X39243579Y-32434155D01*
X39313274Y-32439104D01*
X39345695Y-32459940D01*
X39346969Y-32458298D01*
X39353132Y-32463078D01*
X39353135Y-32463081D01*
X39494602Y-32546744D01*
X39519006Y-32553834D01*
X39652426Y-32592597D01*
X39652429Y-32592597D01*
X39652431Y-32592598D01*
X39664722Y-32593565D01*
X39689304Y-32595500D01*
X39689306Y-32595500D01*
X40120696Y-32595500D01*
X40139131Y-32594049D01*
X40157569Y-32592598D01*
X40157571Y-32592597D01*
X40157573Y-32592597D01*
X40199191Y-32580505D01*
X40315398Y-32546744D01*
X40456865Y-32463081D01*
X40491509Y-32428437D01*
X40552831Y-32394951D01*
X40622523Y-32399935D01*
X40678457Y-32441805D01*
X40684729Y-32451019D01*
X40757288Y-32568656D01*
X40881344Y-32692712D01*
X41030666Y-32784814D01*
X41197203Y-32839999D01*
X41299991Y-32850500D01*
X42700008Y-32850499D01*
X42802797Y-32839999D01*
X42969334Y-32784814D01*
X42997766Y-32767276D01*
X43065157Y-32748836D01*
X43131821Y-32769758D01*
X43150544Y-32785134D01*
X43338181Y-32972771D01*
X43371666Y-33034094D01*
X43374500Y-33060452D01*
X43374500Y-33763770D01*
X43354815Y-33830809D01*
X43302011Y-33876564D01*
X43232853Y-33886508D01*
X43169297Y-33857483D01*
X43162819Y-33851451D01*
X43118657Y-33807289D01*
X43118656Y-33807288D01*
X42969334Y-33715186D01*
X42802797Y-33660001D01*
X42802795Y-33660000D01*
X42700010Y-33649500D01*
X41299998Y-33649500D01*
X41299981Y-33649501D01*
X41197203Y-33660000D01*
X41197200Y-33660001D01*
X41030668Y-33715185D01*
X41030663Y-33715187D01*
X40881342Y-33807289D01*
X40757289Y-33931342D01*
X40665187Y-34080663D01*
X40665186Y-34080666D01*
X40610001Y-34247203D01*
X40610001Y-34247204D01*
X40610000Y-34247204D01*
X40599500Y-34349983D01*
X40599500Y-34439547D01*
X40579815Y-34506586D01*
X40563185Y-34527223D01*
X40513398Y-34577011D01*
X40466202Y-34624207D01*
X40404878Y-34657691D01*
X40335187Y-34652707D01*
X40315405Y-34643260D01*
X40315398Y-34643256D01*
X40315393Y-34643254D01*
X40157573Y-34597402D01*
X40157567Y-34597401D01*
X40120696Y-34594500D01*
X40120694Y-34594500D01*
X39689306Y-34594500D01*
X39689304Y-34594500D01*
X39652432Y-34597401D01*
X39652426Y-34597402D01*
X39494606Y-34643254D01*
X39494603Y-34643255D01*
X39353137Y-34726917D01*
X39346969Y-34731702D01*
X39345072Y-34729256D01*
X39296358Y-34755857D01*
X39226666Y-34750873D01*
X39194297Y-34730070D01*
X39193032Y-34731702D01*
X39186867Y-34726920D01*
X39128078Y-34692151D01*
X39101317Y-34667806D01*
X39099937Y-34669103D01*
X39094598Y-34663419D01*
X39094597Y-34663418D01*
X39094594Y-34663414D01*
X39058689Y-34633711D01*
X39054366Y-34629777D01*
X38577336Y-34152746D01*
X38567513Y-34140484D01*
X38567292Y-34140668D01*
X38562319Y-34134657D01*
X38511897Y-34087307D01*
X38501452Y-34076862D01*
X38491008Y-34066417D01*
X38485519Y-34062159D01*
X38481094Y-34058381D01*
X38447115Y-34026472D01*
X38447113Y-34026470D01*
X38447110Y-34026469D01*
X38429562Y-34016822D01*
X38413296Y-34006138D01*
X38397466Y-33993859D01*
X38354701Y-33975352D01*
X38349455Y-33972782D01*
X38308626Y-33950337D01*
X38308625Y-33950336D01*
X38289226Y-33945356D01*
X38270814Y-33939052D01*
X38252431Y-33931096D01*
X38252425Y-33931094D01*
X38206407Y-33923806D01*
X38200685Y-33922621D01*
X38155554Y-33911034D01*
X38155552Y-33911034D01*
X38135517Y-33911034D01*
X38116119Y-33909507D01*
X38108695Y-33908331D01*
X38096338Y-33906374D01*
X38096337Y-33906374D01*
X38049949Y-33910759D01*
X38044111Y-33911034D01*
X37666003Y-33911034D01*
X37598964Y-33891349D01*
X37573855Y-33870008D01*
X37568128Y-33863648D01*
X37568124Y-33863644D01*
X37414989Y-33752385D01*
X37414984Y-33752382D01*
X37242062Y-33675391D01*
X37242057Y-33675389D01*
X37096256Y-33644399D01*
X37056901Y-33636034D01*
X36867609Y-33636034D01*
X36835152Y-33642932D01*
X36682452Y-33675389D01*
X36682447Y-33675391D01*
X36509525Y-33752382D01*
X36509520Y-33752385D01*
X36356384Y-33863645D01*
X36229721Y-34004319D01*
X36135076Y-34168249D01*
X36135073Y-34168256D01*
X36076582Y-34348274D01*
X36076581Y-34348278D01*
X36063735Y-34470507D01*
X36062373Y-34483462D01*
X36035788Y-34548076D01*
X35978491Y-34588061D01*
X35939052Y-34594500D01*
X35879304Y-34594500D01*
X35842432Y-34597401D01*
X35842426Y-34597402D01*
X35684606Y-34643254D01*
X35684603Y-34643255D01*
X35543137Y-34726917D01*
X35543129Y-34726923D01*
X35461681Y-34808372D01*
X35400358Y-34841857D01*
X35330666Y-34836873D01*
X35274733Y-34795001D01*
X35250316Y-34729537D01*
X35250000Y-34720691D01*
X35250000Y-32469309D01*
X35269685Y-32402270D01*
X35322489Y-32356515D01*
X35391647Y-32346571D01*
X35455203Y-32375596D01*
G37*
%TD.AperFunction*%
%TA.AperFunction,Conductor*%
G36*
X35455203Y-23530596D02*
G01*
X35461681Y-23536628D01*
X35543129Y-23618076D01*
X35543133Y-23618079D01*
X35543135Y-23618081D01*
X35684602Y-23701744D01*
X35691789Y-23703832D01*
X35842426Y-23747597D01*
X35842429Y-23747597D01*
X35842431Y-23747598D01*
X35854722Y-23748565D01*
X35879304Y-23750500D01*
X35879306Y-23750500D01*
X36310696Y-23750500D01*
X36329131Y-23749049D01*
X36347569Y-23747598D01*
X36347571Y-23747597D01*
X36347573Y-23747597D01*
X36450188Y-23717784D01*
X36505398Y-23701744D01*
X36646865Y-23618081D01*
X36646870Y-23618075D01*
X36653031Y-23613298D01*
X36654933Y-23615750D01*
X36703579Y-23589155D01*
X36773274Y-23594104D01*
X36805695Y-23614940D01*
X36806969Y-23613298D01*
X36813132Y-23618078D01*
X36813135Y-23618081D01*
X36954602Y-23701744D01*
X36961789Y-23703832D01*
X37112426Y-23747597D01*
X37112429Y-23747597D01*
X37112431Y-23747598D01*
X37124722Y-23748565D01*
X37149304Y-23750500D01*
X37544784Y-23750500D01*
X37611823Y-23770185D01*
X37657578Y-23822989D01*
X37667522Y-23892147D01*
X37662715Y-23912818D01*
X37634873Y-23998508D01*
X37614326Y-24061744D01*
X37594540Y-24250000D01*
X37614326Y-24438256D01*
X37614327Y-24438259D01*
X37672818Y-24618277D01*
X37672821Y-24618284D01*
X37767467Y-24782216D01*
X37870105Y-24896207D01*
X37894129Y-24922888D01*
X38047265Y-25034148D01*
X38047270Y-25034151D01*
X38220192Y-25111142D01*
X38220197Y-25111144D01*
X38405354Y-25150500D01*
X38405355Y-25150500D01*
X38594644Y-25150500D01*
X38594646Y-25150500D01*
X38779803Y-25111144D01*
X38952730Y-25034151D01*
X39105871Y-24922888D01*
X39232533Y-24782216D01*
X39327179Y-24618284D01*
X39385674Y-24438256D01*
X39405460Y-24250000D01*
X39385674Y-24061744D01*
X39327179Y-23881716D01*
X39318924Y-23867418D01*
X39302450Y-23799521D01*
X39325301Y-23733494D01*
X39380221Y-23690302D01*
X39449774Y-23683658D01*
X39489430Y-23698685D01*
X39494602Y-23701744D01*
X39501789Y-23703832D01*
X39652426Y-23747597D01*
X39652429Y-23747597D01*
X39652431Y-23747598D01*
X39664722Y-23748565D01*
X39689304Y-23750500D01*
X39689306Y-23750500D01*
X40120696Y-23750500D01*
X40139131Y-23749049D01*
X40157569Y-23747598D01*
X40157571Y-23747597D01*
X40157573Y-23747597D01*
X40260188Y-23717784D01*
X40315398Y-23701744D01*
X40412381Y-23644388D01*
X40480102Y-23627206D01*
X40546365Y-23649366D01*
X40590129Y-23703832D01*
X40599500Y-23751121D01*
X40599500Y-24650001D01*
X40599501Y-24650019D01*
X40610000Y-24752796D01*
X40610001Y-24752799D01*
X40652152Y-24880000D01*
X40665186Y-24919334D01*
X40757288Y-25068656D01*
X40881344Y-25192712D01*
X41030666Y-25284814D01*
X41197203Y-25339999D01*
X41299991Y-25350500D01*
X42700008Y-25350499D01*
X42802797Y-25339999D01*
X42969334Y-25284814D01*
X43118656Y-25192712D01*
X43223133Y-25088235D01*
X43284456Y-25054750D01*
X43354148Y-25059734D01*
X43361247Y-25062636D01*
X43470197Y-25111144D01*
X43655354Y-25150500D01*
X43655355Y-25150500D01*
X43844644Y-25150500D01*
X43844646Y-25150500D01*
X44029803Y-25111144D01*
X44202730Y-25034151D01*
X44355871Y-24922888D01*
X44379895Y-24896205D01*
X44439381Y-24859558D01*
X44509238Y-24860887D01*
X44567286Y-24899773D01*
X44595096Y-24963870D01*
X44595366Y-24992135D01*
X44594845Y-24997094D01*
X44594540Y-25000000D01*
X44614326Y-25188256D01*
X44614327Y-25188259D01*
X44672818Y-25368277D01*
X44672821Y-25368284D01*
X44767467Y-25532216D01*
X44846103Y-25619550D01*
X44894129Y-25672888D01*
X45047265Y-25784148D01*
X45047270Y-25784151D01*
X45220192Y-25861142D01*
X45220197Y-25861144D01*
X45405354Y-25900500D01*
X45405355Y-25900500D01*
X45594644Y-25900500D01*
X45594646Y-25900500D01*
X45779803Y-25861144D01*
X45952730Y-25784151D01*
X46105871Y-25672888D01*
X46232533Y-25532216D01*
X46327179Y-25368284D01*
X46366040Y-25248681D01*
X46405477Y-25191007D01*
X46469836Y-25163808D01*
X46483971Y-25163000D01*
X46751652Y-25163000D01*
X46818691Y-25182685D01*
X46857189Y-25221901D01*
X46932288Y-25343656D01*
X47056344Y-25467712D01*
X47205666Y-25559814D01*
X47372203Y-25614999D01*
X47474991Y-25625500D01*
X48525008Y-25625499D01*
X48525016Y-25625498D01*
X48525019Y-25625498D01*
X48583245Y-25619550D01*
X48627797Y-25614999D01*
X48794334Y-25559814D01*
X48943656Y-25467712D01*
X49067712Y-25343656D01*
X49142809Y-25221902D01*
X49194757Y-25175179D01*
X49248348Y-25163000D01*
X49876000Y-25163000D01*
X49943039Y-25182685D01*
X49988794Y-25235489D01*
X50000000Y-25287000D01*
X50000000Y-28463000D01*
X49980315Y-28530039D01*
X49927511Y-28575794D01*
X49876000Y-28587000D01*
X49248348Y-28587000D01*
X49181309Y-28567315D01*
X49142809Y-28528097D01*
X49137077Y-28518804D01*
X49067712Y-28406344D01*
X48943656Y-28282288D01*
X48794334Y-28190186D01*
X48627797Y-28135001D01*
X48627795Y-28135000D01*
X48525010Y-28124500D01*
X47474998Y-28124500D01*
X47474980Y-28124501D01*
X47372199Y-28135001D01*
X47366014Y-28136325D01*
X47296339Y-28131104D01*
X47247916Y-28098041D01*
X47229075Y-28077115D01*
X47229069Y-28077110D01*
X47075934Y-27965851D01*
X47075929Y-27965848D01*
X46903007Y-27888857D01*
X46903002Y-27888855D01*
X46757201Y-27857865D01*
X46717846Y-27849500D01*
X46717845Y-27849500D01*
X46658652Y-27849500D01*
X46591613Y-27829815D01*
X46570971Y-27813181D01*
X46511818Y-27754028D01*
X46478333Y-27692705D01*
X46475499Y-27666347D01*
X46475499Y-27074998D01*
X46475498Y-27074981D01*
X46464999Y-26972203D01*
X46464998Y-26972200D01*
X46409814Y-26805666D01*
X46317712Y-26656344D01*
X46193656Y-26532288D01*
X46044334Y-26440186D01*
X45877797Y-26385001D01*
X45877795Y-26385000D01*
X45775010Y-26374500D01*
X44724998Y-26374500D01*
X44724980Y-26374501D01*
X44622203Y-26385000D01*
X44622200Y-26385001D01*
X44455668Y-26440185D01*
X44455663Y-26440187D01*
X44306342Y-26532289D01*
X44182287Y-26656344D01*
X44156120Y-26698768D01*
X44104171Y-26745492D01*
X44035209Y-26756713D01*
X43977697Y-26733988D01*
X43952734Y-26715851D01*
X43952729Y-26715848D01*
X43779807Y-26638857D01*
X43779802Y-26638855D01*
X43634001Y-26607865D01*
X43594646Y-26599500D01*
X43415637Y-26599500D01*
X43348598Y-26579815D01*
X43310100Y-26540598D01*
X43242712Y-26431344D01*
X43118656Y-26307288D01*
X42969334Y-26215186D01*
X42802797Y-26160001D01*
X42802795Y-26160000D01*
X42700010Y-26149500D01*
X41299998Y-26149500D01*
X41299981Y-26149501D01*
X41197203Y-26160000D01*
X41197200Y-26160001D01*
X41030668Y-26215185D01*
X41030663Y-26215187D01*
X40940061Y-26271071D01*
X40881344Y-26307288D01*
X40881342Y-26307289D01*
X40875197Y-26311080D01*
X40874255Y-26309553D01*
X40818074Y-26332209D01*
X40749434Y-26319159D01*
X40698745Y-26271071D01*
X40686900Y-26243396D01*
X40656746Y-26139606D01*
X40656744Y-26139603D01*
X40656744Y-26139602D01*
X40573081Y-25998135D01*
X40573079Y-25998133D01*
X40573076Y-25998129D01*
X40456870Y-25881923D01*
X40456862Y-25881917D01*
X40315396Y-25798255D01*
X40315393Y-25798254D01*
X40157573Y-25752402D01*
X40157567Y-25752401D01*
X40120696Y-25749500D01*
X40120694Y-25749500D01*
X39689306Y-25749500D01*
X39689304Y-25749500D01*
X39652432Y-25752401D01*
X39652426Y-25752402D01*
X39494606Y-25798254D01*
X39494603Y-25798255D01*
X39353137Y-25881917D01*
X39346969Y-25886702D01*
X39345072Y-25884256D01*
X39296358Y-25910857D01*
X39226666Y-25905873D01*
X39194296Y-25885069D01*
X39193031Y-25886702D01*
X39186862Y-25881917D01*
X39045396Y-25798255D01*
X39045393Y-25798254D01*
X38887573Y-25752402D01*
X38887567Y-25752401D01*
X38850696Y-25749500D01*
X38850694Y-25749500D01*
X38419306Y-25749500D01*
X38419304Y-25749500D01*
X38382432Y-25752401D01*
X38382426Y-25752402D01*
X38224606Y-25798254D01*
X38224603Y-25798255D01*
X38083137Y-25881917D01*
X38076969Y-25886702D01*
X38075072Y-25884256D01*
X38026358Y-25910857D01*
X37956666Y-25905873D01*
X37924296Y-25885069D01*
X37923031Y-25886702D01*
X37916862Y-25881917D01*
X37775396Y-25798255D01*
X37775393Y-25798254D01*
X37617573Y-25752402D01*
X37617567Y-25752401D01*
X37580696Y-25749500D01*
X37580694Y-25749500D01*
X37149306Y-25749500D01*
X37149304Y-25749500D01*
X37112432Y-25752401D01*
X37112426Y-25752402D01*
X36954606Y-25798254D01*
X36954603Y-25798255D01*
X36813137Y-25881917D01*
X36806969Y-25886702D01*
X36805072Y-25884256D01*
X36756358Y-25910857D01*
X36686666Y-25905873D01*
X36654296Y-25885069D01*
X36653031Y-25886702D01*
X36646862Y-25881917D01*
X36505396Y-25798255D01*
X36505393Y-25798254D01*
X36347573Y-25752402D01*
X36347567Y-25752401D01*
X36310696Y-25749500D01*
X36310694Y-25749500D01*
X35879306Y-25749500D01*
X35879304Y-25749500D01*
X35842432Y-25752401D01*
X35842426Y-25752402D01*
X35684606Y-25798254D01*
X35684603Y-25798255D01*
X35543137Y-25881917D01*
X35543129Y-25881923D01*
X35461681Y-25963372D01*
X35400358Y-25996857D01*
X35330666Y-25991873D01*
X35274733Y-25950001D01*
X35250316Y-25884537D01*
X35250000Y-25875691D01*
X35250000Y-23624309D01*
X35269685Y-23557270D01*
X35322489Y-23511515D01*
X35391647Y-23501571D01*
X35455203Y-23530596D01*
G37*
%TD.AperFunction*%
%TA.AperFunction,Conductor*%
G36*
X48002208Y-19500157D02*
G01*
X48275790Y-19519724D01*
X48293291Y-19522241D01*
X48554803Y-19579129D01*
X48571762Y-19584108D01*
X48822524Y-19677638D01*
X48838616Y-19684987D01*
X49073501Y-19813244D01*
X49088375Y-19822802D01*
X49146363Y-19866212D01*
X49302624Y-19983188D01*
X49315994Y-19994774D01*
X49505225Y-20184005D01*
X49516811Y-20197375D01*
X49677193Y-20411619D01*
X49686758Y-20426503D01*
X49815011Y-20661382D01*
X49822361Y-20677475D01*
X49915888Y-20928229D01*
X49920872Y-20945205D01*
X49977757Y-21206702D01*
X49980275Y-21224214D01*
X49999842Y-21497789D01*
X50000000Y-21502213D01*
X50000000Y-21713000D01*
X49980315Y-21780039D01*
X49927511Y-21825794D01*
X49876000Y-21837000D01*
X49248348Y-21837000D01*
X49181309Y-21817315D01*
X49142809Y-21778097D01*
X49125479Y-21750000D01*
X49067712Y-21656344D01*
X48943656Y-21532288D01*
X48835939Y-21465848D01*
X48794336Y-21440187D01*
X48794331Y-21440185D01*
X48792862Y-21439698D01*
X48627797Y-21385001D01*
X48627795Y-21385000D01*
X48525016Y-21374500D01*
X47517804Y-21374500D01*
X47450765Y-21354815D01*
X47410417Y-21312499D01*
X47355736Y-21217788D01*
X47355734Y-21217785D01*
X47229070Y-21077111D01*
X47075934Y-20965851D01*
X47075929Y-20965848D01*
X46903007Y-20888857D01*
X46903002Y-20888855D01*
X46737135Y-20853600D01*
X46717846Y-20849500D01*
X46528554Y-20849500D01*
X46509265Y-20853600D01*
X46343397Y-20888855D01*
X46343392Y-20888857D01*
X46170470Y-20965848D01*
X46170465Y-20965851D01*
X46017329Y-21077111D01*
X45890666Y-21217785D01*
X45796021Y-21381715D01*
X45796018Y-21381722D01*
X45737527Y-21561740D01*
X45737526Y-21561744D01*
X45717740Y-21750000D01*
X45737526Y-21938256D01*
X45737527Y-21938259D01*
X45796018Y-22118277D01*
X45796021Y-22118284D01*
X45890667Y-22282216D01*
X45910614Y-22304369D01*
X46017329Y-22422888D01*
X46170465Y-22534148D01*
X46170470Y-22534151D01*
X46343392Y-22611142D01*
X46343397Y-22611144D01*
X46528554Y-22650500D01*
X46587747Y-22650500D01*
X46654786Y-22670185D01*
X46675428Y-22686819D01*
X46738181Y-22749572D01*
X46771666Y-22810895D01*
X46774500Y-22837245D01*
X46774500Y-22849998D01*
X46774501Y-22850018D01*
X46785001Y-22952797D01*
X46785001Y-22952799D01*
X46840185Y-23119331D01*
X46840187Y-23119336D01*
X46859409Y-23150500D01*
X46891525Y-23202569D01*
X46932289Y-23268657D01*
X47056346Y-23392714D01*
X47059182Y-23394463D01*
X47060717Y-23396170D01*
X47062011Y-23397193D01*
X47061836Y-23397414D01*
X47105905Y-23446411D01*
X47117126Y-23515374D01*
X47089282Y-23579456D01*
X47059182Y-23605537D01*
X47056346Y-23607285D01*
X46932289Y-23731342D01*
X46913325Y-23762088D01*
X46865571Y-23839511D01*
X46857191Y-23853097D01*
X46805243Y-23899821D01*
X46751652Y-23912000D01*
X46483646Y-23912000D01*
X46416607Y-23892315D01*
X46370852Y-23839511D01*
X46360908Y-23770353D01*
X46365713Y-23749688D01*
X46385674Y-23688256D01*
X46405460Y-23500000D01*
X46385674Y-23311744D01*
X46327179Y-23131716D01*
X46232533Y-22967784D01*
X46105871Y-22827112D01*
X46105870Y-22827111D01*
X45952734Y-22715851D01*
X45952729Y-22715848D01*
X45779807Y-22638857D01*
X45779802Y-22638855D01*
X45634001Y-22607865D01*
X45594646Y-22599500D01*
X45405354Y-22599500D01*
X45372897Y-22606398D01*
X45220197Y-22638855D01*
X45220192Y-22638857D01*
X45047270Y-22715848D01*
X45047265Y-22715851D01*
X44894130Y-22827110D01*
X44894126Y-22827114D01*
X44888400Y-22833474D01*
X44828913Y-22870121D01*
X44796252Y-22874500D01*
X44284952Y-22874500D01*
X44217913Y-22854815D01*
X44197271Y-22838181D01*
X43663460Y-22304369D01*
X43629975Y-22243046D01*
X43627823Y-22229668D01*
X43610174Y-22061744D01*
X43551679Y-21881716D01*
X43457033Y-21717784D01*
X43330371Y-21577112D01*
X43309219Y-21561744D01*
X43177234Y-21465851D01*
X43177229Y-21465848D01*
X43004307Y-21388857D01*
X43004302Y-21388855D01*
X42844151Y-21354815D01*
X42819146Y-21349500D01*
X42749500Y-21349500D01*
X42682461Y-21329815D01*
X42636706Y-21277011D01*
X42625500Y-21225500D01*
X42625500Y-21210656D01*
X42625500Y-21210650D01*
X42624631Y-21203779D01*
X42624173Y-21197952D01*
X42623911Y-21189602D01*
X42622710Y-21151373D01*
X42617119Y-21132130D01*
X42613173Y-21113078D01*
X42610664Y-21093208D01*
X42593504Y-21049867D01*
X42591624Y-21044379D01*
X42578618Y-20999610D01*
X42568422Y-20982370D01*
X42559861Y-20964894D01*
X42552487Y-20946270D01*
X42552486Y-20946268D01*
X42525079Y-20908545D01*
X42521888Y-20903686D01*
X42513118Y-20888857D01*
X42498170Y-20863580D01*
X42498168Y-20863578D01*
X42498165Y-20863574D01*
X42484006Y-20849415D01*
X42471368Y-20834619D01*
X42459594Y-20818413D01*
X42454519Y-20814215D01*
X42423688Y-20788709D01*
X42419376Y-20784786D01*
X41500803Y-19866212D01*
X41490980Y-19853950D01*
X41490759Y-19854134D01*
X41485786Y-19848123D01*
X41467159Y-19830631D01*
X41435364Y-19800773D01*
X41424919Y-19790328D01*
X41414475Y-19779883D01*
X41408986Y-19775625D01*
X41404561Y-19771847D01*
X41370582Y-19739938D01*
X41357347Y-19732662D01*
X41308084Y-19683119D01*
X41293425Y-19614804D01*
X41318028Y-19549409D01*
X41374079Y-19507696D01*
X41417084Y-19500000D01*
X47997786Y-19500000D01*
X48002208Y-19500157D01*
G37*
%TD.AperFunction*%
%TD*%
%TA.AperFunction,Conductor*%
%TO.N,Net-(MP2-Pad1)*%
G36*
X33703697Y-43633318D02*
G01*
X33822525Y-43677638D01*
X33838610Y-43684984D01*
X34073501Y-43813244D01*
X34088375Y-43822802D01*
X34302624Y-43983188D01*
X34315994Y-43994774D01*
X34505225Y-44184005D01*
X34516811Y-44197375D01*
X34677193Y-44411619D01*
X34686758Y-44426503D01*
X34815011Y-44661382D01*
X34822361Y-44677475D01*
X34915888Y-44928229D01*
X34920872Y-44945205D01*
X34977757Y-45206702D01*
X34980275Y-45224214D01*
X34999842Y-45497789D01*
X35000000Y-45502213D01*
X35000000Y-89997786D01*
X34999842Y-90002210D01*
X34980275Y-90275785D01*
X34977757Y-90293297D01*
X34920872Y-90554794D01*
X34915888Y-90571770D01*
X34822361Y-90822524D01*
X34815011Y-90838617D01*
X34686758Y-91073496D01*
X34677193Y-91088380D01*
X34516811Y-91302624D01*
X34505225Y-91315994D01*
X34315994Y-91505225D01*
X34302624Y-91516811D01*
X34088380Y-91677193D01*
X34073496Y-91686758D01*
X33838617Y-91815011D01*
X33822524Y-91822361D01*
X33571770Y-91915888D01*
X33554794Y-91920872D01*
X33293297Y-91977757D01*
X33275785Y-91980275D01*
X33027448Y-91998036D01*
X33002208Y-91999842D01*
X32997786Y-92000000D01*
X16002214Y-92000000D01*
X15997791Y-91999842D01*
X15969503Y-91997818D01*
X15724214Y-91980275D01*
X15706702Y-91977757D01*
X15445205Y-91920872D01*
X15428229Y-91915888D01*
X15177475Y-91822361D01*
X15161382Y-91815011D01*
X14926503Y-91686758D01*
X14911619Y-91677193D01*
X14697375Y-91516811D01*
X14684005Y-91505225D01*
X14494774Y-91315994D01*
X14483188Y-91302624D01*
X14322802Y-91088375D01*
X14313244Y-91073501D01*
X14184987Y-90838616D01*
X14177638Y-90822524D01*
X14084108Y-90571762D01*
X14079129Y-90554803D01*
X14022241Y-90293291D01*
X14019724Y-90275785D01*
X14000158Y-90002210D01*
X14000000Y-89997786D01*
X14000000Y-80184371D01*
X21199500Y-80184371D01*
X21239367Y-80550946D01*
X21318635Y-80911065D01*
X21353795Y-81015414D01*
X21436375Y-81260503D01*
X21436377Y-81260508D01*
X21436379Y-81260513D01*
X21591200Y-81595153D01*
X21591202Y-81595157D01*
X21591204Y-81595161D01*
X21591205Y-81595162D01*
X21781310Y-81911119D01*
X22004462Y-82204670D01*
X22258044Y-82472373D01*
X22539083Y-82711090D01*
X22844284Y-82918022D01*
X22844288Y-82918024D01*
X22844291Y-82918026D01*
X23026172Y-83014453D01*
X23170070Y-83090743D01*
X23512621Y-83227227D01*
X23512627Y-83227228D01*
X23512628Y-83227229D01*
X23512634Y-83227231D01*
X23788226Y-83303748D01*
X23867919Y-83325875D01*
X23867930Y-83325876D01*
X23867931Y-83325877D01*
X24231786Y-83385529D01*
X24231790Y-83385529D01*
X24231801Y-83385531D01*
X24507890Y-83400500D01*
X24507892Y-83400500D01*
X24692108Y-83400500D01*
X24692110Y-83400500D01*
X24968199Y-83385531D01*
X24968210Y-83385529D01*
X24968213Y-83385529D01*
X25220077Y-83344237D01*
X25332081Y-83325875D01*
X25687379Y-83227227D01*
X26029930Y-83090743D01*
X26355716Y-82918022D01*
X26660917Y-82711090D01*
X26941956Y-82472373D01*
X27195538Y-82204670D01*
X27418690Y-81911119D01*
X27608795Y-81595162D01*
X27763625Y-81260503D01*
X27881364Y-80911066D01*
X27960632Y-80550948D01*
X28000500Y-80184370D01*
X28000500Y-79815630D01*
X27960632Y-79449052D01*
X27881364Y-79088934D01*
X27763625Y-78739497D01*
X27720576Y-78646448D01*
X27608799Y-78404846D01*
X27608797Y-78404842D01*
X27608795Y-78404838D01*
X27418690Y-78088881D01*
X27195538Y-77795330D01*
X26941956Y-77527627D01*
X26792747Y-77400887D01*
X26660916Y-77288909D01*
X26360062Y-77084925D01*
X26355716Y-77081978D01*
X26355713Y-77081976D01*
X26355708Y-77081973D01*
X26029938Y-76909261D01*
X26029926Y-76909255D01*
X25687371Y-76772770D01*
X25687365Y-76772768D01*
X25332094Y-76674128D01*
X25332068Y-76674122D01*
X24968213Y-76614470D01*
X24968200Y-76614469D01*
X24968199Y-76614469D01*
X24692110Y-76599500D01*
X24507890Y-76599500D01*
X24231801Y-76614469D01*
X24231799Y-76614469D01*
X24231786Y-76614470D01*
X23867931Y-76674122D01*
X23867905Y-76674128D01*
X23512634Y-76772768D01*
X23512628Y-76772770D01*
X23170073Y-76909255D01*
X23170061Y-76909261D01*
X22844291Y-77081973D01*
X22844282Y-77081979D01*
X22539083Y-77288909D01*
X22258044Y-77527626D01*
X22004462Y-77795330D01*
X22004461Y-77795330D01*
X21861453Y-77983455D01*
X21781310Y-78088881D01*
X21781309Y-78088883D01*
X21591202Y-78404842D01*
X21591200Y-78404846D01*
X21436379Y-78739486D01*
X21436376Y-78739494D01*
X21436375Y-78739497D01*
X21409650Y-78818812D01*
X21318635Y-79088934D01*
X21239367Y-79449053D01*
X21199500Y-79815628D01*
X21199500Y-80184371D01*
X14000000Y-80184371D01*
X14000000Y-72002213D01*
X14000158Y-71997789D01*
X14019724Y-71724214D01*
X14022240Y-71706710D01*
X14079130Y-71445192D01*
X14084107Y-71428241D01*
X14177640Y-71177470D01*
X14184985Y-71161388D01*
X14313248Y-70926491D01*
X14322798Y-70911630D01*
X14483195Y-70697366D01*
X14494767Y-70684012D01*
X14684012Y-70494767D01*
X14697366Y-70483195D01*
X14911630Y-70322798D01*
X14926491Y-70313248D01*
X15161388Y-70184985D01*
X15177470Y-70177640D01*
X15428241Y-70084107D01*
X15445192Y-70079130D01*
X15706710Y-70022240D01*
X15724207Y-70019724D01*
X15997791Y-70000157D01*
X16002214Y-70000000D01*
X23000000Y-70000000D01*
X23284630Y-69979643D01*
X23563465Y-69918986D01*
X23830830Y-69819264D01*
X24081282Y-69682507D01*
X24309721Y-69511499D01*
X24511499Y-69309721D01*
X24682507Y-69081282D01*
X24819264Y-68830830D01*
X24918986Y-68563465D01*
X24979643Y-68284630D01*
X25000000Y-68000000D01*
X25000000Y-53920722D01*
X25015336Y-53860989D01*
X25019710Y-53853032D01*
X25030389Y-53836772D01*
X25042674Y-53820936D01*
X25061186Y-53778152D01*
X25063742Y-53772935D01*
X25086197Y-53732092D01*
X25091180Y-53712680D01*
X25097477Y-53694291D01*
X25105438Y-53675895D01*
X25112729Y-53629853D01*
X25113908Y-53624162D01*
X25125500Y-53579019D01*
X25125500Y-53558983D01*
X25127027Y-53539582D01*
X25130160Y-53519804D01*
X25125775Y-53473415D01*
X25125500Y-53467577D01*
X25125500Y-44839636D01*
X25133318Y-44796303D01*
X25142195Y-44772500D01*
X25177640Y-44677469D01*
X25184981Y-44661394D01*
X25313248Y-44426491D01*
X25322798Y-44411630D01*
X25483195Y-44197366D01*
X25494767Y-44184012D01*
X25684012Y-43994767D01*
X25697366Y-43983195D01*
X25911630Y-43822798D01*
X25926491Y-43813248D01*
X26161394Y-43684981D01*
X26177469Y-43677640D01*
X26296303Y-43633318D01*
X26339636Y-43625500D01*
X33660364Y-43625500D01*
X33703697Y-43633318D01*
G37*
%TD.AperFunction*%
%TD*%
%TA.AperFunction,Conductor*%
%TO.N,GNDD*%
G36*
X54814225Y-71799818D02*
G01*
X54872274Y-71838705D01*
X54900084Y-71902802D01*
X54900560Y-71928917D01*
X54894341Y-71999999D01*
X54894341Y-72000000D01*
X54914936Y-72235403D01*
X54914938Y-72235413D01*
X54976094Y-72463655D01*
X54976096Y-72463659D01*
X54976097Y-72463663D01*
X55073907Y-72673416D01*
X55075965Y-72677830D01*
X55075967Y-72677834D01*
X55143189Y-72773836D01*
X55211501Y-72871396D01*
X55211506Y-72871402D01*
X55333430Y-72993326D01*
X55366915Y-73054649D01*
X55361931Y-73124341D01*
X55320059Y-73180274D01*
X55289083Y-73197189D01*
X55157669Y-73246203D01*
X55157664Y-73246206D01*
X55042455Y-73332452D01*
X55042453Y-73332454D01*
X54988898Y-73403993D01*
X54932964Y-73445863D01*
X54863272Y-73450846D01*
X54801952Y-73417361D01*
X54250803Y-72866212D01*
X54240980Y-72853950D01*
X54240759Y-72854134D01*
X54235786Y-72848123D01*
X54215104Y-72828701D01*
X54185364Y-72800773D01*
X54172190Y-72787599D01*
X54164475Y-72779883D01*
X54158986Y-72775625D01*
X54154561Y-72771847D01*
X54120582Y-72739938D01*
X54120580Y-72739936D01*
X54120577Y-72739935D01*
X54103029Y-72730288D01*
X54086763Y-72719604D01*
X54070933Y-72707325D01*
X54028168Y-72688818D01*
X54022922Y-72686248D01*
X53982093Y-72663803D01*
X53982092Y-72663802D01*
X53962693Y-72658822D01*
X53944281Y-72652518D01*
X53925898Y-72644562D01*
X53925892Y-72644560D01*
X53879874Y-72637272D01*
X53874152Y-72636087D01*
X53829021Y-72624500D01*
X53829019Y-72624500D01*
X53808984Y-72624500D01*
X53789586Y-72622973D01*
X53782162Y-72621797D01*
X53769805Y-72619840D01*
X53769804Y-72619840D01*
X53723416Y-72624225D01*
X53717578Y-72624500D01*
X53479943Y-72624500D01*
X53455501Y-72617323D01*
X53445989Y-72622238D01*
X53422414Y-72624500D01*
X49994135Y-72624500D01*
X49927096Y-72604815D01*
X49901967Y-72583452D01*
X49901067Y-72582452D01*
X49870851Y-72519453D01*
X49879491Y-72450120D01*
X49924245Y-72396464D01*
X49990902Y-72375522D01*
X49993235Y-72375500D01*
X53417257Y-72375500D01*
X53432880Y-72377224D01*
X53432908Y-72376939D01*
X53434092Y-72377051D01*
X53435156Y-72377476D01*
X53444305Y-72378486D01*
X53448278Y-72379374D01*
X53447901Y-72381060D01*
X53476047Y-72376561D01*
X53509814Y-72375500D01*
X53539350Y-72375500D01*
X53546228Y-72374630D01*
X53552041Y-72374172D01*
X53598627Y-72372709D01*
X53617869Y-72367117D01*
X53636912Y-72363174D01*
X53656792Y-72360664D01*
X53700122Y-72343507D01*
X53705646Y-72341617D01*
X53709396Y-72340527D01*
X53750390Y-72328618D01*
X53767629Y-72318422D01*
X53785103Y-72309862D01*
X53803727Y-72302488D01*
X53803727Y-72302487D01*
X53803732Y-72302486D01*
X53841449Y-72275082D01*
X53846305Y-72271892D01*
X53886420Y-72248170D01*
X53900589Y-72233999D01*
X53915379Y-72221368D01*
X53931587Y-72209594D01*
X53938822Y-72200847D01*
X53943279Y-72195461D01*
X54001179Y-72156352D01*
X54038824Y-72150500D01*
X54094644Y-72150500D01*
X54094646Y-72150500D01*
X54279803Y-72111144D01*
X54452730Y-72034151D01*
X54605871Y-71922888D01*
X54684883Y-71835136D01*
X54744368Y-71798488D01*
X54814225Y-71799818D01*
G37*
%TD.AperFunction*%
%TA.AperFunction,Conductor*%
G36*
X47843333Y-71243768D02*
G01*
X47887680Y-71272269D01*
X48749195Y-72133784D01*
X48759020Y-72146048D01*
X48759241Y-72145866D01*
X48764211Y-72151873D01*
X48766665Y-72154178D01*
X48768006Y-72156461D01*
X48769186Y-72157887D01*
X48768956Y-72158077D01*
X48802060Y-72214419D01*
X48799268Y-72284233D01*
X48759174Y-72341455D01*
X48743266Y-72351253D01*
X48743696Y-72351997D01*
X48738072Y-72355243D01*
X48584929Y-72466508D01*
X48458267Y-72607180D01*
X48447864Y-72625200D01*
X48397297Y-72673416D01*
X48340476Y-72687201D01*
X46123708Y-72687201D01*
X46056669Y-72667516D01*
X46010914Y-72614712D01*
X46000970Y-72545554D01*
X46029995Y-72481998D01*
X46050822Y-72462883D01*
X46105871Y-72422888D01*
X46108788Y-72419647D01*
X46111600Y-72416526D01*
X46171087Y-72379879D01*
X46203748Y-72375500D01*
X46267256Y-72375500D01*
X46282876Y-72377224D01*
X46282903Y-72376939D01*
X46290659Y-72377671D01*
X46290666Y-72377673D01*
X46359813Y-72375500D01*
X46389349Y-72375500D01*
X46396227Y-72374630D01*
X46402040Y-72374172D01*
X46448626Y-72372709D01*
X46467868Y-72367117D01*
X46486911Y-72363174D01*
X46506791Y-72360664D01*
X46550121Y-72343507D01*
X46555645Y-72341617D01*
X46559395Y-72340527D01*
X46600389Y-72328618D01*
X46617628Y-72318422D01*
X46635102Y-72309862D01*
X46653726Y-72302488D01*
X46653726Y-72302487D01*
X46653731Y-72302486D01*
X46691448Y-72275082D01*
X46696304Y-72271892D01*
X46736419Y-72248170D01*
X46750588Y-72233999D01*
X46765378Y-72221368D01*
X46781586Y-72209594D01*
X46811298Y-72173676D01*
X46815211Y-72169376D01*
X47712322Y-71272266D01*
X47773641Y-71238784D01*
X47843333Y-71243768D01*
G37*
%TD.AperFunction*%
%TA.AperFunction,Conductor*%
G36*
X39271426Y-46019685D02*
G01*
X39317181Y-46072489D01*
X39327125Y-46141647D01*
X39324162Y-46156093D01*
X39273632Y-46344673D01*
X39273630Y-46344684D01*
X39253043Y-46579998D01*
X39253043Y-46580001D01*
X39273630Y-46815315D01*
X39273632Y-46815326D01*
X39334766Y-47043483D01*
X39334770Y-47043492D01*
X39434600Y-47257579D01*
X39434602Y-47257583D01*
X39493272Y-47341373D01*
X39493273Y-47341373D01*
X40128909Y-46705736D01*
X40153027Y-46787871D01*
X40230028Y-46907688D01*
X40337667Y-47000957D01*
X40467223Y-47060124D01*
X40479817Y-47061934D01*
X39808569Y-47733181D01*
X39747246Y-47766666D01*
X39720897Y-47769500D01*
X39710334Y-47769500D01*
X39710323Y-47769501D01*
X39650716Y-47775908D01*
X39515871Y-47826202D01*
X39515864Y-47826206D01*
X39400655Y-47912452D01*
X39400652Y-47912455D01*
X39314406Y-48027664D01*
X39314402Y-48027671D01*
X39264108Y-48162517D01*
X39257701Y-48222116D01*
X39257701Y-48222123D01*
X39257700Y-48222135D01*
X39257700Y-50017870D01*
X39257701Y-50017876D01*
X39264108Y-50077483D01*
X39314402Y-50212328D01*
X39314406Y-50212335D01*
X39400652Y-50327544D01*
X39400655Y-50327547D01*
X39515864Y-50413793D01*
X39515871Y-50413797D01*
X39650717Y-50464091D01*
X39650716Y-50464091D01*
X39657644Y-50464835D01*
X39710327Y-50470500D01*
X41506072Y-50470499D01*
X41565683Y-50464091D01*
X41700531Y-50413796D01*
X41815746Y-50327546D01*
X41901996Y-50212331D01*
X41952291Y-50077483D01*
X41958700Y-50017873D01*
X41958700Y-49869500D01*
X41978385Y-49802461D01*
X42031189Y-49756706D01*
X42082700Y-49745500D01*
X46133701Y-49745500D01*
X46200740Y-49765185D01*
X46246495Y-49817989D01*
X46257701Y-49869500D01*
X46257701Y-50017876D01*
X46264108Y-50077483D01*
X46314402Y-50212328D01*
X46314406Y-50212335D01*
X46400652Y-50327544D01*
X46400655Y-50327547D01*
X46515864Y-50413793D01*
X46515871Y-50413797D01*
X46650717Y-50464091D01*
X46650716Y-50464091D01*
X46657644Y-50464835D01*
X46710327Y-50470500D01*
X48506072Y-50470499D01*
X48565683Y-50464091D01*
X48700531Y-50413796D01*
X48815746Y-50327546D01*
X48901996Y-50212331D01*
X48952291Y-50077483D01*
X48958700Y-50017873D01*
X48958700Y-49869500D01*
X48978385Y-49802461D01*
X49031189Y-49756706D01*
X49082700Y-49745500D01*
X53075539Y-49745500D01*
X53142578Y-49765185D01*
X53188333Y-49817989D01*
X53198277Y-49887147D01*
X53193470Y-49907817D01*
X53183178Y-49939492D01*
X53183177Y-49939496D01*
X53183177Y-49939498D01*
X53174939Y-50017883D01*
X53163391Y-50127754D01*
X53181280Y-50297963D01*
X53175666Y-50349926D01*
X53160001Y-50397202D01*
X53149500Y-50499983D01*
X53149500Y-51500001D01*
X53149501Y-51500019D01*
X53160000Y-51602796D01*
X53160001Y-51602799D01*
X53215115Y-51769119D01*
X53215186Y-51769334D01*
X53307096Y-51918345D01*
X53307289Y-51918657D01*
X53425951Y-52037319D01*
X53459436Y-52098642D01*
X53454452Y-52168334D01*
X53425951Y-52212681D01*
X53307289Y-52331342D01*
X53215187Y-52480663D01*
X53215185Y-52480668D01*
X53215115Y-52480880D01*
X53160001Y-52647203D01*
X53160001Y-52647204D01*
X53160000Y-52647204D01*
X53149500Y-52749983D01*
X53149500Y-53750001D01*
X53149501Y-53750019D01*
X53160000Y-53852796D01*
X53160001Y-53852799D01*
X53189117Y-53940663D01*
X53215186Y-54019334D01*
X53307288Y-54168656D01*
X53431344Y-54292712D01*
X53565597Y-54375519D01*
X53612321Y-54427465D01*
X53624500Y-54481057D01*
X53624500Y-54606908D01*
X53618431Y-54645226D01*
X53607852Y-54677785D01*
X53564326Y-54811744D01*
X53544540Y-55000000D01*
X53564326Y-55188256D01*
X53564327Y-55188259D01*
X53622818Y-55368277D01*
X53622821Y-55368284D01*
X53717467Y-55532216D01*
X53758941Y-55578277D01*
X53844129Y-55672888D01*
X53997265Y-55784148D01*
X53997270Y-55784151D01*
X54170192Y-55861142D01*
X54170197Y-55861144D01*
X54355354Y-55900500D01*
X54355355Y-55900500D01*
X54544644Y-55900500D01*
X54544646Y-55900500D01*
X54729803Y-55861144D01*
X54902730Y-55784151D01*
X55055871Y-55672888D01*
X55182533Y-55532216D01*
X55277179Y-55368284D01*
X55335674Y-55188256D01*
X55355460Y-55000000D01*
X55335674Y-54811744D01*
X55277179Y-54631716D01*
X55182533Y-54467784D01*
X55124367Y-54403184D01*
X55094137Y-54340192D01*
X55102762Y-54270857D01*
X55128833Y-54232534D01*
X55162674Y-54198693D01*
X55223995Y-54165210D01*
X55293687Y-54170194D01*
X55338034Y-54198695D01*
X55431654Y-54292315D01*
X55580875Y-54384356D01*
X55580880Y-54384358D01*
X55747302Y-54439505D01*
X55747309Y-54439506D01*
X55850019Y-54449999D01*
X55999999Y-54449999D01*
X56000000Y-54449998D01*
X56000000Y-53500000D01*
X56500000Y-53500000D01*
X56500000Y-54449999D01*
X56649972Y-54449999D01*
X56649986Y-54449998D01*
X56752697Y-54439505D01*
X56919119Y-54384358D01*
X56919124Y-54384356D01*
X57068345Y-54292315D01*
X57192315Y-54168345D01*
X57284356Y-54019124D01*
X57284358Y-54019119D01*
X57339505Y-53852697D01*
X57339506Y-53852690D01*
X57349999Y-53749986D01*
X57350000Y-53749973D01*
X57350000Y-53500000D01*
X56500000Y-53500000D01*
X56000000Y-53500000D01*
X56000000Y-51250000D01*
X56500000Y-51250000D01*
X56500000Y-53000000D01*
X57349999Y-53000000D01*
X57349999Y-52750028D01*
X57349998Y-52750013D01*
X57339505Y-52647302D01*
X57284358Y-52480880D01*
X57284356Y-52480875D01*
X57192315Y-52331654D01*
X57073342Y-52212681D01*
X57039857Y-52151358D01*
X57044841Y-52081666D01*
X57073342Y-52037319D01*
X57192315Y-51918345D01*
X57284356Y-51769124D01*
X57284358Y-51769119D01*
X57339505Y-51602697D01*
X57339506Y-51602690D01*
X57349999Y-51499986D01*
X57350000Y-51499973D01*
X57350000Y-51250000D01*
X56500000Y-51250000D01*
X56000000Y-51250000D01*
X56000000Y-50874000D01*
X56019685Y-50806961D01*
X56072489Y-50761206D01*
X56124000Y-50750000D01*
X57349999Y-50750000D01*
X57349999Y-50500028D01*
X57349998Y-50500013D01*
X57339505Y-50397302D01*
X57284358Y-50230880D01*
X57284356Y-50230875D01*
X57192315Y-50081654D01*
X57068345Y-49957684D01*
X56919124Y-49865643D01*
X56919119Y-49865641D01*
X56913957Y-49863931D01*
X56856512Y-49824159D01*
X56829689Y-49759643D01*
X56842004Y-49690867D01*
X56860806Y-49663259D01*
X56945033Y-49569716D01*
X57039679Y-49405784D01*
X57098174Y-49225756D01*
X57117960Y-49037500D01*
X57098174Y-48849244D01*
X57065927Y-48750000D01*
X58500000Y-48750000D01*
X58500000Y-81747786D01*
X58499842Y-81752210D01*
X58480275Y-82025785D01*
X58477757Y-82043297D01*
X58420872Y-82304794D01*
X58415888Y-82321770D01*
X58322361Y-82572524D01*
X58315011Y-82588617D01*
X58186758Y-82823496D01*
X58177193Y-82838380D01*
X58016811Y-83052624D01*
X58005225Y-83065994D01*
X57815994Y-83255225D01*
X57802624Y-83266811D01*
X57588380Y-83427193D01*
X57573496Y-83436758D01*
X57338617Y-83565011D01*
X57322524Y-83572361D01*
X57071770Y-83665888D01*
X57054794Y-83670872D01*
X56793297Y-83727757D01*
X56775785Y-83730275D01*
X56527448Y-83748036D01*
X56502208Y-83749842D01*
X56497786Y-83750000D01*
X37752214Y-83750000D01*
X37747791Y-83749842D01*
X37719503Y-83747818D01*
X37474214Y-83730275D01*
X37456702Y-83727757D01*
X37195205Y-83670872D01*
X37178229Y-83665888D01*
X36927475Y-83572361D01*
X36911382Y-83565011D01*
X36676503Y-83436758D01*
X36661619Y-83427193D01*
X36447375Y-83266811D01*
X36434005Y-83255225D01*
X36244774Y-83065994D01*
X36233188Y-83052624D01*
X36161747Y-82957190D01*
X36072802Y-82838375D01*
X36063244Y-82823501D01*
X35934987Y-82588616D01*
X35927638Y-82572524D01*
X35860387Y-82392217D01*
X35834108Y-82321762D01*
X35829129Y-82304803D01*
X35772241Y-82043291D01*
X35769724Y-82025785D01*
X35750158Y-81752210D01*
X35750079Y-81750000D01*
X36574341Y-81750000D01*
X36594936Y-81985403D01*
X36594938Y-81985413D01*
X36656094Y-82213655D01*
X36656096Y-82213659D01*
X36656097Y-82213663D01*
X36736004Y-82385023D01*
X36755965Y-82427830D01*
X36755967Y-82427834D01*
X36857281Y-82572524D01*
X36891505Y-82621401D01*
X37058599Y-82788495D01*
X37108586Y-82823496D01*
X37252165Y-82924032D01*
X37252167Y-82924033D01*
X37252170Y-82924035D01*
X37466337Y-83023903D01*
X37694592Y-83085063D01*
X37865319Y-83100000D01*
X37929999Y-83105659D01*
X37930000Y-83105659D01*
X37930001Y-83105659D01*
X37994681Y-83100000D01*
X38165408Y-83085063D01*
X38393663Y-83023903D01*
X38607830Y-82924035D01*
X38801401Y-82788495D01*
X38968495Y-82621401D01*
X39098425Y-82435842D01*
X39153002Y-82392217D01*
X39222500Y-82385023D01*
X39284855Y-82416546D01*
X39301575Y-82435842D01*
X39431500Y-82621395D01*
X39431505Y-82621401D01*
X39598599Y-82788495D01*
X39648586Y-82823496D01*
X39792165Y-82924032D01*
X39792167Y-82924033D01*
X39792170Y-82924035D01*
X40006337Y-83023903D01*
X40234592Y-83085063D01*
X40405319Y-83100000D01*
X40469999Y-83105659D01*
X40470000Y-83105659D01*
X40470001Y-83105659D01*
X40534681Y-83100000D01*
X40705408Y-83085063D01*
X40933663Y-83023903D01*
X41147830Y-82924035D01*
X41341401Y-82788495D01*
X41508495Y-82621401D01*
X41638425Y-82435842D01*
X41693002Y-82392217D01*
X41762500Y-82385023D01*
X41824855Y-82416546D01*
X41841575Y-82435842D01*
X41971500Y-82621395D01*
X41971505Y-82621401D01*
X42138599Y-82788495D01*
X42188586Y-82823496D01*
X42332165Y-82924032D01*
X42332167Y-82924033D01*
X42332170Y-82924035D01*
X42546337Y-83023903D01*
X42774592Y-83085063D01*
X42945319Y-83100000D01*
X43009999Y-83105659D01*
X43010000Y-83105659D01*
X43010001Y-83105659D01*
X43074681Y-83100000D01*
X43245408Y-83085063D01*
X43473663Y-83023903D01*
X43687830Y-82924035D01*
X43881401Y-82788495D01*
X44003717Y-82666178D01*
X44065036Y-82632696D01*
X44134728Y-82637680D01*
X44190662Y-82679551D01*
X44207577Y-82710528D01*
X44256646Y-82842088D01*
X44256649Y-82842093D01*
X44342809Y-82957187D01*
X44342812Y-82957190D01*
X44457906Y-83043350D01*
X44457913Y-83043354D01*
X44592620Y-83093596D01*
X44592627Y-83093598D01*
X44652155Y-83099999D01*
X44652172Y-83100000D01*
X45300000Y-83100000D01*
X45300000Y-82185501D01*
X45407685Y-82234680D01*
X45514237Y-82250000D01*
X45585763Y-82250000D01*
X45692315Y-82234680D01*
X45800000Y-82185501D01*
X45800000Y-83100000D01*
X46447828Y-83100000D01*
X46447844Y-83099999D01*
X46507372Y-83093598D01*
X46507379Y-83093596D01*
X46642086Y-83043354D01*
X46642093Y-83043350D01*
X46757187Y-82957190D01*
X46757190Y-82957187D01*
X46843350Y-82842093D01*
X46843354Y-82842086D01*
X46893596Y-82707379D01*
X46893598Y-82707372D01*
X46899999Y-82647844D01*
X46900000Y-82647827D01*
X46900000Y-82000000D01*
X45983686Y-82000000D01*
X46009493Y-81959844D01*
X46050000Y-81821889D01*
X46050000Y-81678111D01*
X46009493Y-81540156D01*
X45983686Y-81500000D01*
X46900000Y-81500000D01*
X46900000Y-80852172D01*
X46899999Y-80852155D01*
X46893598Y-80792627D01*
X46891813Y-80785070D01*
X46893099Y-80784766D01*
X46888691Y-80723144D01*
X46922175Y-80661820D01*
X46983498Y-80628334D01*
X47009858Y-80625500D01*
X47790142Y-80625500D01*
X47857181Y-80645185D01*
X47902936Y-80697989D01*
X47912880Y-80767147D01*
X47906718Y-80791283D01*
X47906401Y-80792627D01*
X47900000Y-80852155D01*
X47900000Y-81500000D01*
X48816314Y-81500000D01*
X48790507Y-81540156D01*
X48750000Y-81678111D01*
X48750000Y-81821889D01*
X48790507Y-81959844D01*
X48816314Y-82000000D01*
X47900000Y-82000000D01*
X47900000Y-82647844D01*
X47906401Y-82707372D01*
X47906403Y-82707379D01*
X47956645Y-82842086D01*
X47956649Y-82842093D01*
X48042809Y-82957187D01*
X48042812Y-82957190D01*
X48157906Y-83043350D01*
X48157913Y-83043354D01*
X48292620Y-83093596D01*
X48292627Y-83093598D01*
X48352155Y-83099999D01*
X48352172Y-83100000D01*
X49000000Y-83100000D01*
X49000000Y-82185501D01*
X49107685Y-82234680D01*
X49214237Y-82250000D01*
X49285763Y-82250000D01*
X49392315Y-82234680D01*
X49500000Y-82185501D01*
X49500000Y-83100000D01*
X50147828Y-83100000D01*
X50147844Y-83099999D01*
X50207372Y-83093598D01*
X50207379Y-83093596D01*
X50342086Y-83043354D01*
X50342093Y-83043350D01*
X50457187Y-82957190D01*
X50457190Y-82957187D01*
X50543350Y-82842093D01*
X50543354Y-82842086D01*
X50592422Y-82710529D01*
X50634293Y-82654595D01*
X50699757Y-82630178D01*
X50768030Y-82645030D01*
X50796285Y-82666181D01*
X50918599Y-82788495D01*
X50968586Y-82823496D01*
X51112165Y-82924032D01*
X51112167Y-82924033D01*
X51112170Y-82924035D01*
X51326337Y-83023903D01*
X51554592Y-83085063D01*
X51725319Y-83100000D01*
X51789999Y-83105659D01*
X51790000Y-83105659D01*
X51790001Y-83105659D01*
X51854681Y-83100000D01*
X52025408Y-83085063D01*
X52253663Y-83023903D01*
X52467830Y-82924035D01*
X52661401Y-82788495D01*
X52828495Y-82621401D01*
X52958425Y-82435842D01*
X53013002Y-82392217D01*
X53082500Y-82385023D01*
X53144855Y-82416546D01*
X53161575Y-82435842D01*
X53291500Y-82621395D01*
X53291505Y-82621401D01*
X53458599Y-82788495D01*
X53508586Y-82823496D01*
X53652165Y-82924032D01*
X53652167Y-82924033D01*
X53652170Y-82924035D01*
X53866337Y-83023903D01*
X54094592Y-83085063D01*
X54265319Y-83100000D01*
X54329999Y-83105659D01*
X54330000Y-83105659D01*
X54330001Y-83105659D01*
X54394681Y-83100000D01*
X54565408Y-83085063D01*
X54793663Y-83023903D01*
X55007830Y-82924035D01*
X55201401Y-82788495D01*
X55368495Y-82621401D01*
X55498425Y-82435842D01*
X55553002Y-82392217D01*
X55622500Y-82385023D01*
X55684855Y-82416546D01*
X55701575Y-82435842D01*
X55831500Y-82621395D01*
X55831505Y-82621401D01*
X55998599Y-82788495D01*
X56048586Y-82823496D01*
X56192165Y-82924032D01*
X56192167Y-82924033D01*
X56192170Y-82924035D01*
X56406337Y-83023903D01*
X56634592Y-83085063D01*
X56805319Y-83100000D01*
X56869999Y-83105659D01*
X56870000Y-83105659D01*
X56870001Y-83105659D01*
X56934681Y-83100000D01*
X57105408Y-83085063D01*
X57333663Y-83023903D01*
X57547830Y-82924035D01*
X57741401Y-82788495D01*
X57908495Y-82621401D01*
X58044035Y-82427830D01*
X58143903Y-82213663D01*
X58205063Y-81985408D01*
X58225659Y-81750000D01*
X58205063Y-81514592D01*
X58143903Y-81286337D01*
X58044035Y-81072171D01*
X58038425Y-81064158D01*
X57908494Y-80878597D01*
X57741402Y-80711506D01*
X57741395Y-80711501D01*
X57547834Y-80575967D01*
X57547830Y-80575965D01*
X57498090Y-80552771D01*
X57333663Y-80476097D01*
X57333659Y-80476096D01*
X57333655Y-80476094D01*
X57105413Y-80414938D01*
X57105403Y-80414936D01*
X56870001Y-80394341D01*
X56869999Y-80394341D01*
X56634596Y-80414936D01*
X56634586Y-80414938D01*
X56406344Y-80476094D01*
X56406335Y-80476098D01*
X56192171Y-80575964D01*
X56192169Y-80575965D01*
X55998597Y-80711505D01*
X55831505Y-80878597D01*
X55701575Y-81064158D01*
X55646998Y-81107783D01*
X55577500Y-81114977D01*
X55515145Y-81083454D01*
X55498425Y-81064158D01*
X55368494Y-80878597D01*
X55201402Y-80711506D01*
X55201395Y-80711501D01*
X55007834Y-80575967D01*
X55007830Y-80575965D01*
X54958090Y-80552771D01*
X54793663Y-80476097D01*
X54793659Y-80476096D01*
X54793655Y-80476094D01*
X54565413Y-80414938D01*
X54565403Y-80414936D01*
X54330001Y-80394341D01*
X54329999Y-80394341D01*
X54094596Y-80414936D01*
X54094586Y-80414938D01*
X53866344Y-80476094D01*
X53866335Y-80476098D01*
X53652171Y-80575964D01*
X53652169Y-80575965D01*
X53458597Y-80711505D01*
X53291505Y-80878597D01*
X53161575Y-81064158D01*
X53106998Y-81107783D01*
X53037500Y-81114977D01*
X52975145Y-81083454D01*
X52958425Y-81064158D01*
X52828494Y-80878597D01*
X52661402Y-80711506D01*
X52661395Y-80711501D01*
X52467834Y-80575967D01*
X52467830Y-80575965D01*
X52418090Y-80552771D01*
X52253663Y-80476097D01*
X52253659Y-80476096D01*
X52253655Y-80476094D01*
X52025413Y-80414938D01*
X52025403Y-80414936D01*
X51790001Y-80394341D01*
X51789999Y-80394341D01*
X51554596Y-80414936D01*
X51554586Y-80414938D01*
X51372104Y-80463833D01*
X51302254Y-80462170D01*
X51244392Y-80423007D01*
X51216888Y-80358778D01*
X51228475Y-80289876D01*
X51232624Y-80282058D01*
X51250566Y-80250982D01*
X51327179Y-80118284D01*
X51385674Y-79938256D01*
X51405460Y-79750000D01*
X51385674Y-79561744D01*
X51327179Y-79381716D01*
X51232533Y-79217784D01*
X51105871Y-79077112D01*
X51105870Y-79077111D01*
X50952734Y-78965851D01*
X50952729Y-78965848D01*
X50779807Y-78888857D01*
X50779802Y-78888855D01*
X50634001Y-78857865D01*
X50594646Y-78849500D01*
X50405354Y-78849500D01*
X50372897Y-78856398D01*
X50220197Y-78888855D01*
X50220192Y-78888857D01*
X50047270Y-78965848D01*
X50047265Y-78965851D01*
X49894129Y-79077111D01*
X49767465Y-79217785D01*
X49767463Y-79217788D01*
X49712783Y-79312499D01*
X49662217Y-79360715D01*
X49605396Y-79374500D01*
X44436956Y-79374500D01*
X44369917Y-79354815D01*
X44324162Y-79302011D01*
X44314218Y-79232853D01*
X44343243Y-79169297D01*
X44397952Y-79132794D01*
X44544119Y-79084358D01*
X44544124Y-79084356D01*
X44693345Y-78992315D01*
X44817315Y-78868345D01*
X44909356Y-78719124D01*
X44909358Y-78719119D01*
X44964505Y-78552697D01*
X44964506Y-78552690D01*
X44974999Y-78449986D01*
X44975000Y-78449973D01*
X44975000Y-78000000D01*
X42650001Y-78000000D01*
X42650001Y-78449986D01*
X42660494Y-78552697D01*
X42715641Y-78719119D01*
X42715643Y-78719124D01*
X42807684Y-78868345D01*
X42931654Y-78992315D01*
X43080875Y-79084356D01*
X43080880Y-79084358D01*
X43227050Y-79132794D01*
X43284495Y-79172566D01*
X43311318Y-79237082D01*
X43299003Y-79305858D01*
X43251460Y-79357058D01*
X43188046Y-79374500D01*
X41582743Y-79374500D01*
X41567122Y-79372775D01*
X41567096Y-79373061D01*
X41559334Y-79372327D01*
X41559333Y-79372327D01*
X41490186Y-79374500D01*
X41460649Y-79374500D01*
X41453766Y-79375369D01*
X41447949Y-79375826D01*
X41401373Y-79377290D01*
X41382129Y-79382881D01*
X41363079Y-79386825D01*
X41343211Y-79389334D01*
X41299884Y-79406488D01*
X41294358Y-79408379D01*
X41249614Y-79421379D01*
X41249610Y-79421381D01*
X41232366Y-79431579D01*
X41214905Y-79440133D01*
X41196274Y-79447510D01*
X41196262Y-79447517D01*
X41158570Y-79474902D01*
X41153687Y-79478109D01*
X41113580Y-79501829D01*
X41099414Y-79515995D01*
X41084624Y-79528627D01*
X41068414Y-79540404D01*
X41068411Y-79540407D01*
X41038710Y-79576309D01*
X41034777Y-79580631D01*
X40211478Y-80403930D01*
X40155891Y-80436024D01*
X40006341Y-80476095D01*
X40006335Y-80476098D01*
X39792171Y-80575964D01*
X39792169Y-80575965D01*
X39598597Y-80711505D01*
X39507181Y-80802922D01*
X39445858Y-80836407D01*
X39376166Y-80831423D01*
X39320233Y-80789551D01*
X39295816Y-80724087D01*
X39295500Y-80715241D01*
X39295500Y-80640452D01*
X39315185Y-80573413D01*
X39331819Y-80552771D01*
X40697772Y-79186818D01*
X40759095Y-79153333D01*
X40785453Y-79150499D01*
X41150002Y-79150499D01*
X41150008Y-79150499D01*
X41252797Y-79139999D01*
X41419334Y-79084814D01*
X41568656Y-78992712D01*
X41692712Y-78868656D01*
X41784814Y-78719334D01*
X41839999Y-78552797D01*
X41850500Y-78450009D01*
X41850499Y-77500000D01*
X42650000Y-77500000D01*
X43562500Y-77500000D01*
X43562500Y-75500000D01*
X44062500Y-75500000D01*
X44062500Y-77500000D01*
X44974999Y-77500000D01*
X44974999Y-77050028D01*
X44974998Y-77050013D01*
X44964505Y-76947302D01*
X44909358Y-76780880D01*
X44909356Y-76780875D01*
X44817315Y-76631654D01*
X44773342Y-76587681D01*
X44739857Y-76526358D01*
X44744841Y-76456666D01*
X44773342Y-76412319D01*
X44817315Y-76368345D01*
X44909356Y-76219124D01*
X44909358Y-76219119D01*
X44964505Y-76052697D01*
X44964506Y-76052690D01*
X44974999Y-75949986D01*
X44975000Y-75949973D01*
X44975000Y-75500000D01*
X44062500Y-75500000D01*
X43562500Y-75500000D01*
X42650001Y-75500000D01*
X42650001Y-75949986D01*
X42660494Y-76052697D01*
X42715641Y-76219119D01*
X42715643Y-76219124D01*
X42807684Y-76368345D01*
X42851658Y-76412319D01*
X42885143Y-76473642D01*
X42880159Y-76543334D01*
X42851658Y-76587681D01*
X42807684Y-76631654D01*
X42715643Y-76780875D01*
X42715641Y-76780880D01*
X42660494Y-76947302D01*
X42660493Y-76947309D01*
X42650000Y-77050013D01*
X42650000Y-77500000D01*
X41850499Y-77500000D01*
X41850499Y-77049992D01*
X41839999Y-76947203D01*
X41784814Y-76780666D01*
X41692712Y-76631344D01*
X41649048Y-76587680D01*
X41615564Y-76526358D01*
X41620548Y-76456666D01*
X41649049Y-76412319D01*
X41654615Y-76406753D01*
X41692712Y-76368656D01*
X41784814Y-76219334D01*
X41839999Y-76052797D01*
X41850500Y-75950009D01*
X41850499Y-75726452D01*
X41870183Y-75659413D01*
X41882344Y-75643486D01*
X41982533Y-75532216D01*
X42077179Y-75368284D01*
X42135674Y-75188256D01*
X42153321Y-75020344D01*
X42179904Y-74955734D01*
X42188951Y-74945638D01*
X42438319Y-74696270D01*
X42499642Y-74662786D01*
X42569334Y-74667770D01*
X42625267Y-74709642D01*
X42649684Y-74775106D01*
X42650000Y-74783952D01*
X42650000Y-75000000D01*
X44974999Y-75000000D01*
X44974999Y-74550028D01*
X44974998Y-74550013D01*
X44964505Y-74447302D01*
X44909358Y-74280880D01*
X44909353Y-74280869D01*
X44814629Y-74127298D01*
X44796188Y-74059906D01*
X44817110Y-73993242D01*
X44870752Y-73948472D01*
X44920167Y-73938201D01*
X48744624Y-73938201D01*
X48795060Y-73948922D01*
X48910992Y-74000539D01*
X48910997Y-74000541D01*
X49096154Y-74039897D01*
X49096155Y-74039897D01*
X49168489Y-74039897D01*
X49235528Y-74059582D01*
X49281283Y-74112386D01*
X49291227Y-74181544D01*
X49286420Y-74202215D01*
X49263827Y-74271748D01*
X49263825Y-74271758D01*
X49262663Y-74282813D01*
X49236076Y-74347427D01*
X49178778Y-74387409D01*
X49171445Y-74389620D01*
X49168364Y-74390445D01*
X49148101Y-74398838D01*
X49078632Y-74406304D01*
X49053203Y-74398837D01*
X49031762Y-74389956D01*
X49031760Y-74389955D01*
X48914361Y-74374500D01*
X48635636Y-74374500D01*
X48518246Y-74389953D01*
X48518234Y-74389957D01*
X48497450Y-74398566D01*
X48427981Y-74406033D01*
X48402550Y-74398566D01*
X48381765Y-74389957D01*
X48381760Y-74389955D01*
X48264361Y-74374500D01*
X47985636Y-74374500D01*
X47868246Y-74389953D01*
X47868234Y-74389957D01*
X47847450Y-74398566D01*
X47777981Y-74406033D01*
X47752550Y-74398566D01*
X47731765Y-74389957D01*
X47731760Y-74389955D01*
X47614361Y-74374500D01*
X47335636Y-74374500D01*
X47218246Y-74389953D01*
X47218234Y-74389957D01*
X47197450Y-74398566D01*
X47127981Y-74406033D01*
X47102550Y-74398566D01*
X47081765Y-74389957D01*
X47081760Y-74389955D01*
X46964361Y-74374500D01*
X46685636Y-74374500D01*
X46568246Y-74389953D01*
X46568237Y-74389956D01*
X46422160Y-74450463D01*
X46296718Y-74546718D01*
X46200463Y-74672160D01*
X46139956Y-74818237D01*
X46139955Y-74818239D01*
X46124501Y-74935629D01*
X46124501Y-74935636D01*
X46124500Y-74935645D01*
X46124500Y-76289363D01*
X46139953Y-76406753D01*
X46139956Y-76406762D01*
X46178576Y-76500000D01*
X46200464Y-76552841D01*
X46296718Y-76678282D01*
X46422159Y-76774536D01*
X46568238Y-76835044D01*
X46685639Y-76850500D01*
X46964360Y-76850499D01*
X46964361Y-76850499D01*
X46976594Y-76848888D01*
X47081762Y-76835044D01*
X47102545Y-76826434D01*
X47172014Y-76818965D01*
X47197453Y-76826434D01*
X47218238Y-76835044D01*
X47335639Y-76850500D01*
X47614360Y-76850499D01*
X47614361Y-76850499D01*
X47626594Y-76848888D01*
X47731762Y-76835044D01*
X47752545Y-76826434D01*
X47822014Y-76818965D01*
X47847453Y-76826434D01*
X47868238Y-76835044D01*
X47985639Y-76850500D01*
X48264360Y-76850499D01*
X48264361Y-76850499D01*
X48276594Y-76848888D01*
X48381762Y-76835044D01*
X48402545Y-76826434D01*
X48472014Y-76818965D01*
X48497453Y-76826434D01*
X48518238Y-76835044D01*
X48635639Y-76850500D01*
X48914360Y-76850499D01*
X48914361Y-76850499D01*
X48928018Y-76848701D01*
X49031762Y-76835044D01*
X49053200Y-76826163D01*
X49122668Y-76818694D01*
X49148106Y-76826163D01*
X49168365Y-76834554D01*
X49168377Y-76834558D01*
X49224998Y-76842011D01*
X49225000Y-76842010D01*
X49225000Y-76799499D01*
X49244685Y-76732460D01*
X49273512Y-76701125D01*
X49303282Y-76678282D01*
X49326625Y-76647860D01*
X49383051Y-76606658D01*
X49452797Y-76602503D01*
X49513718Y-76636714D01*
X49523368Y-76647851D01*
X49546718Y-76678282D01*
X49576485Y-76701123D01*
X49617688Y-76757548D01*
X49625000Y-76799499D01*
X49625000Y-76842010D01*
X49681633Y-76834555D01*
X49689485Y-76832452D01*
X49690137Y-76834886D01*
X49747041Y-76828766D01*
X49809521Y-76860039D01*
X49845175Y-76920127D01*
X49848349Y-76963757D01*
X49844540Y-77000000D01*
X49864326Y-77188256D01*
X49864327Y-77188259D01*
X49922818Y-77368277D01*
X49922821Y-77368284D01*
X50017467Y-77532216D01*
X50123971Y-77650500D01*
X50144129Y-77672888D01*
X50297265Y-77784148D01*
X50297270Y-77784151D01*
X50470192Y-77861142D01*
X50470197Y-77861144D01*
X50655354Y-77900500D01*
X50655355Y-77900500D01*
X50844644Y-77900500D01*
X50844646Y-77900500D01*
X51029803Y-77861144D01*
X51202730Y-77784151D01*
X51355871Y-77672888D01*
X51439532Y-77579972D01*
X51499019Y-77543324D01*
X51568876Y-77544655D01*
X51582104Y-77549660D01*
X51720197Y-77611144D01*
X51905354Y-77650500D01*
X51905355Y-77650500D01*
X52094644Y-77650500D01*
X52094646Y-77650500D01*
X52279803Y-77611144D01*
X52449316Y-77535670D01*
X52518564Y-77526386D01*
X52550187Y-77535671D01*
X52719695Y-77611142D01*
X52719700Y-77611144D01*
X52904857Y-77650500D01*
X52904858Y-77650500D01*
X53094147Y-77650500D01*
X53094149Y-77650500D01*
X53279306Y-77611144D01*
X53452233Y-77534151D01*
X53605374Y-77422888D01*
X53732036Y-77282216D01*
X53826682Y-77118284D01*
X53885177Y-76938256D01*
X53904963Y-76750000D01*
X53885177Y-76561744D01*
X53826682Y-76381716D01*
X53732036Y-76217784D01*
X53605374Y-76077112D01*
X53571908Y-76052797D01*
X53452232Y-75965848D01*
X53449061Y-75964436D01*
X53447523Y-75963129D01*
X53446607Y-75962600D01*
X53446703Y-75962432D01*
X53395825Y-75919185D01*
X53375505Y-75852335D01*
X53375499Y-75851158D01*
X53375499Y-74935636D01*
X53360046Y-74818246D01*
X53360044Y-74818239D01*
X53360044Y-74818238D01*
X53299536Y-74672159D01*
X53203282Y-74546718D01*
X53077841Y-74450464D01*
X53070207Y-74447302D01*
X52931762Y-74389956D01*
X52931760Y-74389955D01*
X52814361Y-74374500D01*
X52535636Y-74374500D01*
X52418246Y-74389953D01*
X52418234Y-74389957D01*
X52397450Y-74398566D01*
X52327981Y-74406033D01*
X52302550Y-74398566D01*
X52281765Y-74389957D01*
X52281760Y-74389955D01*
X52164361Y-74374500D01*
X51885636Y-74374500D01*
X51768246Y-74389953D01*
X51768234Y-74389957D01*
X51747450Y-74398566D01*
X51677981Y-74406033D01*
X51652550Y-74398566D01*
X51631765Y-74389957D01*
X51631760Y-74389955D01*
X51514361Y-74374500D01*
X51235643Y-74374500D01*
X51174758Y-74382515D01*
X51105723Y-74371747D01*
X51053468Y-74325366D01*
X51037132Y-74277976D01*
X51036524Y-74278106D01*
X51035473Y-74273165D01*
X51035255Y-74272532D01*
X51035174Y-74271753D01*
X50976679Y-74091725D01*
X50959227Y-74061497D01*
X50942755Y-73993601D01*
X50965607Y-73927573D01*
X51020528Y-73884383D01*
X51066615Y-73875500D01*
X53439548Y-73875500D01*
X53506587Y-73895185D01*
X53527228Y-73911818D01*
X54033404Y-74417995D01*
X54539197Y-74923788D01*
X54549022Y-74936051D01*
X54549243Y-74935869D01*
X54554214Y-74941878D01*
X54558209Y-74945629D01*
X54604635Y-74989226D01*
X54625529Y-75010120D01*
X54631011Y-75014373D01*
X54635443Y-75018157D01*
X54669418Y-75050062D01*
X54686976Y-75059714D01*
X54703235Y-75070395D01*
X54719064Y-75082673D01*
X54761838Y-75101182D01*
X54767056Y-75103738D01*
X54807908Y-75126197D01*
X54807915Y-75126198D01*
X54815161Y-75129068D01*
X54814527Y-75130668D01*
X54866376Y-75161533D01*
X54897561Y-75224057D01*
X54899500Y-75245897D01*
X54899500Y-75437869D01*
X54899501Y-75437876D01*
X54905908Y-75497483D01*
X54956202Y-75632328D01*
X54956206Y-75632335D01*
X55042452Y-75747544D01*
X55042455Y-75747547D01*
X55157664Y-75833793D01*
X55157671Y-75833797D01*
X55292517Y-75884091D01*
X55292516Y-75884091D01*
X55299444Y-75884835D01*
X55352127Y-75890500D01*
X57147872Y-75890499D01*
X57207483Y-75884091D01*
X57342331Y-75833796D01*
X57457546Y-75747546D01*
X57543796Y-75632331D01*
X57594091Y-75497483D01*
X57600500Y-75437873D01*
X57600499Y-73642128D01*
X57594091Y-73582517D01*
X57543796Y-73447669D01*
X57543795Y-73447668D01*
X57543793Y-73447664D01*
X57457547Y-73332455D01*
X57457544Y-73332452D01*
X57342335Y-73246206D01*
X57342328Y-73246202D01*
X57210917Y-73197189D01*
X57154983Y-73155318D01*
X57130566Y-73089853D01*
X57145418Y-73021580D01*
X57166563Y-72993332D01*
X57288495Y-72871401D01*
X57424035Y-72677830D01*
X57523903Y-72463663D01*
X57585063Y-72235408D01*
X57605659Y-72000000D01*
X57585063Y-71764592D01*
X57523903Y-71536337D01*
X57424035Y-71322171D01*
X57389094Y-71272269D01*
X57288494Y-71128597D01*
X57121402Y-70961506D01*
X57121401Y-70961505D01*
X56935405Y-70831269D01*
X56891781Y-70776692D01*
X56884588Y-70707193D01*
X56916110Y-70644839D01*
X56935405Y-70628119D01*
X57121082Y-70498105D01*
X57288105Y-70331082D01*
X57423600Y-70137578D01*
X57523429Y-69923492D01*
X57523432Y-69923486D01*
X57580636Y-69710000D01*
X56683686Y-69710000D01*
X56709493Y-69669844D01*
X56750000Y-69531889D01*
X56750000Y-69388111D01*
X56709493Y-69250156D01*
X56683686Y-69210000D01*
X57580636Y-69210000D01*
X57580635Y-69209999D01*
X57523432Y-68996513D01*
X57523429Y-68996507D01*
X57423600Y-68782422D01*
X57423599Y-68782420D01*
X57288113Y-68588926D01*
X57288108Y-68588920D01*
X57121082Y-68421894D01*
X56927578Y-68286399D01*
X56713492Y-68186570D01*
X56713486Y-68186567D01*
X56500000Y-68129364D01*
X56500000Y-69024498D01*
X56392315Y-68975320D01*
X56285763Y-68960000D01*
X56214237Y-68960000D01*
X56107685Y-68975320D01*
X56000000Y-69024498D01*
X56000000Y-68129364D01*
X55999999Y-68129364D01*
X55786513Y-68186567D01*
X55786507Y-68186570D01*
X55572422Y-68286399D01*
X55572420Y-68286400D01*
X55378926Y-68421886D01*
X55378920Y-68421891D01*
X55211891Y-68588920D01*
X55211886Y-68588926D01*
X55076400Y-68782420D01*
X55076399Y-68782422D01*
X54976570Y-68996507D01*
X54976567Y-68996513D01*
X54919364Y-69209999D01*
X54919364Y-69210000D01*
X55816314Y-69210000D01*
X55790507Y-69250156D01*
X55750000Y-69388111D01*
X55750000Y-69531889D01*
X55790507Y-69669844D01*
X55816314Y-69710000D01*
X54895953Y-69710000D01*
X54828914Y-69690315D01*
X54808272Y-69673681D01*
X54638303Y-69503712D01*
X54628480Y-69491450D01*
X54628259Y-69491634D01*
X54623286Y-69485623D01*
X54572864Y-69438273D01*
X54559373Y-69424782D01*
X54551975Y-69417383D01*
X54546486Y-69413125D01*
X54542061Y-69409347D01*
X54508082Y-69377438D01*
X54508080Y-69377436D01*
X54508077Y-69377435D01*
X54490529Y-69367788D01*
X54474263Y-69357104D01*
X54458433Y-69344825D01*
X54415668Y-69326318D01*
X54410422Y-69323748D01*
X54369593Y-69301303D01*
X54369592Y-69301302D01*
X54350193Y-69296322D01*
X54331781Y-69290018D01*
X54313398Y-69282062D01*
X54313392Y-69282060D01*
X54267374Y-69274772D01*
X54261652Y-69273587D01*
X54216521Y-69262000D01*
X54216519Y-69262000D01*
X54196484Y-69262000D01*
X54177086Y-69260473D01*
X54169662Y-69259297D01*
X54157305Y-69257340D01*
X54157304Y-69257340D01*
X54110916Y-69261725D01*
X54105078Y-69262000D01*
X53491007Y-69262000D01*
X53423968Y-69242315D01*
X53378213Y-69189511D01*
X53368068Y-69154184D01*
X53360045Y-69093246D01*
X53360044Y-69093238D01*
X53299536Y-68947159D01*
X53203282Y-68821718D01*
X53077841Y-68725464D01*
X52982361Y-68685915D01*
X52931762Y-68664956D01*
X52931760Y-68664955D01*
X52814361Y-68649500D01*
X52535636Y-68649500D01*
X52418246Y-68664953D01*
X52418234Y-68664957D01*
X52397450Y-68673566D01*
X52327981Y-68681033D01*
X52302550Y-68673566D01*
X52281765Y-68664957D01*
X52281760Y-68664955D01*
X52164361Y-68649500D01*
X51885636Y-68649500D01*
X51768246Y-68664953D01*
X51768234Y-68664957D01*
X51747450Y-68673566D01*
X51677981Y-68681033D01*
X51652550Y-68673566D01*
X51631765Y-68664957D01*
X51631760Y-68664955D01*
X51514370Y-68649501D01*
X51514367Y-68649500D01*
X51514361Y-68649500D01*
X51514354Y-68649500D01*
X51474500Y-68649500D01*
X51407461Y-68629815D01*
X51361706Y-68577011D01*
X51350500Y-68525500D01*
X51350500Y-67057737D01*
X51352224Y-67042123D01*
X51351938Y-67042096D01*
X51352672Y-67034333D01*
X51350500Y-66965202D01*
X51350500Y-66935651D01*
X51350500Y-66935650D01*
X51349629Y-66928759D01*
X51349172Y-66922945D01*
X51347709Y-66876374D01*
X51347709Y-66876372D01*
X51342120Y-66857137D01*
X51338174Y-66838084D01*
X51335664Y-66818208D01*
X51318501Y-66774859D01*
X51316614Y-66769346D01*
X51303617Y-66724610D01*
X51303616Y-66724608D01*
X51293421Y-66707369D01*
X51284860Y-66689893D01*
X51277486Y-66671269D01*
X51277486Y-66671267D01*
X51262397Y-66650500D01*
X51250083Y-66633550D01*
X51246900Y-66628705D01*
X51223170Y-66588579D01*
X51223165Y-66588573D01*
X51209005Y-66574413D01*
X51196370Y-66559620D01*
X51184593Y-66543412D01*
X51148693Y-66513713D01*
X51144381Y-66509790D01*
X50750803Y-66116212D01*
X50740980Y-66103950D01*
X50740759Y-66104134D01*
X50735786Y-66098123D01*
X50717159Y-66080631D01*
X50685364Y-66050773D01*
X50674919Y-66040328D01*
X50664475Y-66029883D01*
X50658986Y-66025625D01*
X50654561Y-66021847D01*
X50620582Y-65989938D01*
X50620580Y-65989936D01*
X50620577Y-65989935D01*
X50603029Y-65980288D01*
X50586763Y-65969604D01*
X50570933Y-65957325D01*
X50528168Y-65938818D01*
X50522922Y-65936248D01*
X50482093Y-65913803D01*
X50482092Y-65913802D01*
X50462693Y-65908822D01*
X50444281Y-65902518D01*
X50425898Y-65894562D01*
X50425892Y-65894560D01*
X50379874Y-65887272D01*
X50374152Y-65886087D01*
X50329021Y-65874500D01*
X50329019Y-65874500D01*
X50308984Y-65874500D01*
X50289586Y-65872973D01*
X50282162Y-65871797D01*
X50269805Y-65869840D01*
X50269804Y-65869840D01*
X50223416Y-65874225D01*
X50217578Y-65874500D01*
X44082738Y-65874500D01*
X44067121Y-65872776D01*
X44067094Y-65873062D01*
X44059332Y-65872327D01*
X43990204Y-65874500D01*
X43960650Y-65874500D01*
X43959929Y-65874590D01*
X43953757Y-65875369D01*
X43947945Y-65875826D01*
X43901373Y-65877290D01*
X43901372Y-65877290D01*
X43882129Y-65882881D01*
X43863079Y-65886825D01*
X43843211Y-65889334D01*
X43843209Y-65889335D01*
X43799884Y-65906488D01*
X43794357Y-65908380D01*
X43749610Y-65921381D01*
X43749609Y-65921382D01*
X43732367Y-65931579D01*
X43714899Y-65940137D01*
X43696269Y-65947513D01*
X43696267Y-65947514D01*
X43658576Y-65974898D01*
X43653694Y-65978105D01*
X43613579Y-66001830D01*
X43599408Y-66016000D01*
X43584623Y-66028628D01*
X43568412Y-66040407D01*
X43538709Y-66076310D01*
X43534777Y-66080631D01*
X42577228Y-67038179D01*
X42515905Y-67071664D01*
X42449284Y-67067779D01*
X42369616Y-67040429D01*
X42124335Y-66999500D01*
X41875665Y-66999500D01*
X41630383Y-67040429D01*
X41395197Y-67121169D01*
X41395188Y-67121172D01*
X41176493Y-67239524D01*
X40980257Y-67392261D01*
X40811833Y-67575217D01*
X40675826Y-67783393D01*
X40575936Y-68011118D01*
X40514892Y-68252175D01*
X40514890Y-68252187D01*
X40494357Y-68499994D01*
X40494357Y-68500005D01*
X40514890Y-68747812D01*
X40514892Y-68747824D01*
X40575936Y-68988881D01*
X40675826Y-69216606D01*
X40811833Y-69424782D01*
X40844245Y-69459991D01*
X40980256Y-69607738D01*
X41176491Y-69760474D01*
X41176493Y-69760475D01*
X41394332Y-69878364D01*
X41395190Y-69878828D01*
X41525292Y-69923492D01*
X41628964Y-69959083D01*
X41630386Y-69959571D01*
X41875665Y-70000500D01*
X42124335Y-70000500D01*
X42369614Y-69959571D01*
X42604810Y-69878828D01*
X42823509Y-69760474D01*
X43019744Y-69607738D01*
X43188164Y-69424785D01*
X43324173Y-69216607D01*
X43424063Y-68988881D01*
X43485108Y-68747821D01*
X43486961Y-68725463D01*
X43505643Y-68500005D01*
X43505643Y-68499994D01*
X43485109Y-68252187D01*
X43485107Y-68252175D01*
X43431136Y-68039049D01*
X43433761Y-67969229D01*
X43463661Y-67920928D01*
X43627270Y-67757320D01*
X44222772Y-67161819D01*
X44284095Y-67128334D01*
X44310453Y-67125500D01*
X47916512Y-67125500D01*
X47983551Y-67145185D01*
X48029306Y-67197989D01*
X48039250Y-67267147D01*
X48010225Y-67330703D01*
X48008662Y-67332472D01*
X47935829Y-67413361D01*
X47841184Y-67577291D01*
X47841181Y-67577298D01*
X47782690Y-67757316D01*
X47782689Y-67757320D01*
X47762903Y-67945576D01*
X47782689Y-68133832D01*
X47782690Y-68133835D01*
X47841181Y-68313853D01*
X47841184Y-68313860D01*
X47939079Y-68483420D01*
X47936679Y-68484805D01*
X47956068Y-68539117D01*
X47940255Y-68607173D01*
X47890158Y-68655877D01*
X47875631Y-68661576D01*
X47875744Y-68661847D01*
X47847450Y-68673566D01*
X47777981Y-68681033D01*
X47752550Y-68673566D01*
X47731765Y-68664957D01*
X47731760Y-68664955D01*
X47614361Y-68649500D01*
X47335636Y-68649500D01*
X47218246Y-68664953D01*
X47218234Y-68664957D01*
X47197450Y-68673566D01*
X47127981Y-68681033D01*
X47102550Y-68673566D01*
X47081765Y-68664957D01*
X47081760Y-68664955D01*
X46964361Y-68649500D01*
X46685636Y-68649500D01*
X46568246Y-68664953D01*
X46568237Y-68664956D01*
X46422160Y-68725463D01*
X46296718Y-68821718D01*
X46200463Y-68947160D01*
X46139956Y-69093237D01*
X46139955Y-69093239D01*
X46124501Y-69210629D01*
X46124500Y-69210645D01*
X46124500Y-70564363D01*
X46139953Y-70681753D01*
X46139956Y-70681762D01*
X46200464Y-70827842D01*
X46215498Y-70847434D01*
X46240693Y-70912603D01*
X46226655Y-70981048D01*
X46204804Y-71010602D01*
X46199537Y-71015869D01*
X46138214Y-71049354D01*
X46068522Y-71044370D01*
X46038971Y-71028506D01*
X45952734Y-70965851D01*
X45952729Y-70965848D01*
X45779807Y-70888857D01*
X45779802Y-70888855D01*
X45634001Y-70857865D01*
X45594646Y-70849500D01*
X45405354Y-70849500D01*
X45372897Y-70856398D01*
X45220197Y-70888855D01*
X45220192Y-70888857D01*
X45047270Y-70965848D01*
X45047265Y-70965851D01*
X44894129Y-71077111D01*
X44767466Y-71217785D01*
X44672821Y-71381715D01*
X44672818Y-71381722D01*
X44622582Y-71536335D01*
X44614326Y-71561744D01*
X44594540Y-71750000D01*
X44614326Y-71938256D01*
X44614327Y-71938259D01*
X44672818Y-72118277D01*
X44672821Y-72118284D01*
X44767467Y-72282216D01*
X44856467Y-72381060D01*
X44888400Y-72416526D01*
X44894129Y-72422888D01*
X44931611Y-72450120D01*
X44949178Y-72462883D01*
X44991843Y-72518213D01*
X44997822Y-72587826D01*
X44965216Y-72649621D01*
X44904377Y-72683979D01*
X44876292Y-72687201D01*
X43020037Y-72687201D01*
X43004420Y-72685477D01*
X43004393Y-72685763D01*
X42996631Y-72685028D01*
X42927503Y-72687201D01*
X42897949Y-72687201D01*
X42897228Y-72687291D01*
X42891056Y-72688070D01*
X42885244Y-72688527D01*
X42838672Y-72689991D01*
X42838671Y-72689991D01*
X42819428Y-72695582D01*
X42800378Y-72699526D01*
X42780510Y-72702035D01*
X42780508Y-72702036D01*
X42737183Y-72719189D01*
X42731656Y-72721081D01*
X42686909Y-72734082D01*
X42686908Y-72734083D01*
X42669666Y-72744280D01*
X42652198Y-72752838D01*
X42633568Y-72760214D01*
X42633566Y-72760215D01*
X42595875Y-72787599D01*
X42590993Y-72790806D01*
X42550878Y-72814531D01*
X42536707Y-72828701D01*
X42521922Y-72841329D01*
X42505711Y-72853108D01*
X42476008Y-72889011D01*
X42472076Y-72893332D01*
X41496617Y-73868790D01*
X41435294Y-73902275D01*
X41369933Y-73898815D01*
X41252799Y-73860001D01*
X41252795Y-73860000D01*
X41150010Y-73849500D01*
X40224998Y-73849500D01*
X40224980Y-73849501D01*
X40122203Y-73860000D01*
X40122200Y-73860001D01*
X39955668Y-73915185D01*
X39955663Y-73915187D01*
X39806342Y-74007289D01*
X39682289Y-74131342D01*
X39590187Y-74280663D01*
X39590185Y-74280668D01*
X39562349Y-74364670D01*
X39535001Y-74447203D01*
X39535001Y-74447204D01*
X39535000Y-74447204D01*
X39524500Y-74549983D01*
X39524500Y-75950001D01*
X39524501Y-75950018D01*
X39535000Y-76052796D01*
X39535001Y-76052799D01*
X39543058Y-76077112D01*
X39590186Y-76219334D01*
X39682096Y-76368345D01*
X39682289Y-76368657D01*
X39725951Y-76412320D01*
X39759435Y-76473643D01*
X39754450Y-76543335D01*
X39725951Y-76587680D01*
X39682289Y-76631342D01*
X39590184Y-76780669D01*
X39590183Y-76780670D01*
X39560078Y-76871520D01*
X39520305Y-76928965D01*
X39492810Y-76945794D01*
X39447766Y-76965849D01*
X39294627Y-77077111D01*
X39167964Y-77217785D01*
X39073319Y-77381715D01*
X39073316Y-77381722D01*
X39018748Y-77549666D01*
X39014824Y-77561744D01*
X38995038Y-77750000D01*
X39014824Y-77938256D01*
X39014825Y-77938259D01*
X39073316Y-78118277D01*
X39073319Y-78118284D01*
X39167965Y-78282216D01*
X39294627Y-78422888D01*
X39331956Y-78450009D01*
X39407627Y-78504987D01*
X39450292Y-78560317D01*
X39456271Y-78629930D01*
X39423665Y-78691725D01*
X39422422Y-78692986D01*
X38286208Y-79829199D01*
X38273951Y-79839020D01*
X38274134Y-79839241D01*
X38268123Y-79844213D01*
X38220772Y-79894636D01*
X38199889Y-79915519D01*
X38199877Y-79915532D01*
X38195621Y-79921017D01*
X38191837Y-79925447D01*
X38159937Y-79959418D01*
X38159936Y-79959420D01*
X38150284Y-79976976D01*
X38139610Y-79993226D01*
X38127329Y-80009061D01*
X38127324Y-80009068D01*
X38108815Y-80051838D01*
X38106245Y-80057084D01*
X38083803Y-80097906D01*
X38078822Y-80117307D01*
X38072521Y-80135710D01*
X38064562Y-80154102D01*
X38064561Y-80154105D01*
X38057271Y-80200127D01*
X38056087Y-80205846D01*
X38044501Y-80250972D01*
X38044500Y-80250982D01*
X38044500Y-80270698D01*
X38024815Y-80337737D01*
X37972011Y-80383492D01*
X37931308Y-80394226D01*
X37694596Y-80414936D01*
X37694586Y-80414938D01*
X37466344Y-80476094D01*
X37466335Y-80476098D01*
X37252171Y-80575964D01*
X37252169Y-80575965D01*
X37058597Y-80711505D01*
X36891505Y-80878597D01*
X36755965Y-81072169D01*
X36755964Y-81072171D01*
X36656098Y-81286335D01*
X36656094Y-81286344D01*
X36594938Y-81514586D01*
X36594936Y-81514596D01*
X36574341Y-81749999D01*
X36574341Y-81750000D01*
X35750079Y-81750000D01*
X35750000Y-81747786D01*
X35750000Y-68543035D01*
X35762458Y-68500607D01*
X35760662Y-68497228D01*
X35985990Y-68497228D01*
X35992977Y-68508100D01*
X35997576Y-68532795D01*
X36015385Y-68747730D01*
X36015387Y-68747738D01*
X36076412Y-68988717D01*
X36176266Y-69216364D01*
X36276564Y-69369882D01*
X36974070Y-68672376D01*
X36976884Y-68685915D01*
X37046442Y-68820156D01*
X37149638Y-68930652D01*
X37278819Y-69009209D01*
X37330002Y-69023549D01*
X36629942Y-69723609D01*
X36676768Y-69760055D01*
X36676770Y-69760056D01*
X36895385Y-69878364D01*
X36895396Y-69878369D01*
X37130506Y-69959083D01*
X37375707Y-70000000D01*
X37624293Y-70000000D01*
X37869493Y-69959083D01*
X38104603Y-69878369D01*
X38104614Y-69878364D01*
X38323228Y-69760057D01*
X38323231Y-69760055D01*
X38370056Y-69723609D01*
X37671568Y-69025121D01*
X37788458Y-68974349D01*
X37905739Y-68878934D01*
X37992928Y-68755415D01*
X38023354Y-68669802D01*
X38723434Y-69369882D01*
X38823731Y-69216369D01*
X38923587Y-68988717D01*
X38984612Y-68747738D01*
X38984614Y-68747729D01*
X39005141Y-68500005D01*
X39005141Y-68499994D01*
X38984614Y-68252270D01*
X38984612Y-68252261D01*
X38923587Y-68011282D01*
X38823731Y-67783630D01*
X38723434Y-67630116D01*
X38025929Y-68327622D01*
X38023116Y-68314085D01*
X37953558Y-68179844D01*
X37850362Y-68069348D01*
X37721181Y-67990791D01*
X37669997Y-67976450D01*
X38370057Y-67276390D01*
X38370056Y-67276389D01*
X38323229Y-67239943D01*
X38104614Y-67121635D01*
X38104603Y-67121630D01*
X37869493Y-67040916D01*
X37624293Y-67000000D01*
X37375707Y-67000000D01*
X37130506Y-67040916D01*
X36895396Y-67121630D01*
X36895390Y-67121632D01*
X36676761Y-67239949D01*
X36629942Y-67276388D01*
X36629942Y-67276390D01*
X37328431Y-67974878D01*
X37211542Y-68025651D01*
X37094261Y-68121066D01*
X37007072Y-68244585D01*
X36976645Y-68330197D01*
X36276564Y-67630116D01*
X36176267Y-67783632D01*
X36076412Y-68011282D01*
X36015387Y-68252261D01*
X36015385Y-68252270D01*
X35997576Y-68467204D01*
X35985990Y-68497228D01*
X35760662Y-68497228D01*
X35752544Y-68481955D01*
X35750000Y-68456964D01*
X35750000Y-65750000D01*
X38594540Y-65750000D01*
X38614326Y-65938256D01*
X38614327Y-65938259D01*
X38672818Y-66118277D01*
X38672821Y-66118284D01*
X38767467Y-66282216D01*
X38894129Y-66422888D01*
X39047265Y-66534148D01*
X39047270Y-66534151D01*
X39220192Y-66611142D01*
X39220197Y-66611144D01*
X39405354Y-66650500D01*
X39405355Y-66650500D01*
X39594644Y-66650500D01*
X39594646Y-66650500D01*
X39779803Y-66611144D01*
X39952730Y-66534151D01*
X40105871Y-66422888D01*
X40232533Y-66282216D01*
X40327179Y-66118284D01*
X40382522Y-65947956D01*
X40412768Y-65898598D01*
X41314549Y-64996819D01*
X41375872Y-64963334D01*
X41402230Y-64960500D01*
X49300795Y-64960500D01*
X49318765Y-64961809D01*
X49342523Y-64965289D01*
X49394568Y-64960735D01*
X49399970Y-64960500D01*
X49408204Y-64960500D01*
X49408209Y-64960500D01*
X49419827Y-64959141D01*
X49440776Y-64956693D01*
X49453528Y-64955577D01*
X49517297Y-64949999D01*
X49517305Y-64949996D01*
X49524366Y-64948539D01*
X49524378Y-64948598D01*
X49531743Y-64946965D01*
X49531729Y-64946906D01*
X49538746Y-64945241D01*
X49538755Y-64945241D01*
X49610923Y-64918974D01*
X49683834Y-64894814D01*
X49683843Y-64894807D01*
X49690382Y-64891760D01*
X49690408Y-64891816D01*
X49697190Y-64888532D01*
X49697163Y-64888478D01*
X49703606Y-64885240D01*
X49703617Y-64885237D01*
X49767783Y-64843034D01*
X49833156Y-64802712D01*
X49833162Y-64802705D01*
X49838825Y-64798229D01*
X49838862Y-64798277D01*
X49844704Y-64793518D01*
X49844664Y-64793471D01*
X49850186Y-64788836D01*
X49850196Y-64788830D01*
X49871899Y-64765825D01*
X49902887Y-64732981D01*
X50058323Y-64577542D01*
X50377271Y-64258594D01*
X50438591Y-64225112D01*
X50438927Y-64225039D01*
X50504303Y-64211144D01*
X50677230Y-64134151D01*
X50830371Y-64022888D01*
X50957033Y-63882216D01*
X51051679Y-63718284D01*
X51110174Y-63538256D01*
X51129960Y-63350000D01*
X51110174Y-63161744D01*
X51051679Y-62981716D01*
X50957033Y-62817784D01*
X50830371Y-62677112D01*
X50830370Y-62677111D01*
X50677234Y-62565851D01*
X50677229Y-62565848D01*
X50504307Y-62488857D01*
X50504302Y-62488855D01*
X50358501Y-62457865D01*
X50319146Y-62449500D01*
X50129854Y-62449500D01*
X50097397Y-62456398D01*
X49944697Y-62488855D01*
X49944692Y-62488857D01*
X49771770Y-62565848D01*
X49771765Y-62565851D01*
X49618629Y-62677111D01*
X49491966Y-62817785D01*
X49397321Y-62981715D01*
X49397318Y-62981722D01*
X49341979Y-63152039D01*
X49311729Y-63201402D01*
X49089951Y-63423181D01*
X49028628Y-63456666D01*
X49002270Y-63459500D01*
X42928999Y-63459500D01*
X42861960Y-63439815D01*
X42816205Y-63387011D01*
X42806261Y-63317853D01*
X42835286Y-63254297D01*
X42852830Y-63237651D01*
X43019744Y-63107738D01*
X43188164Y-62924785D01*
X43324173Y-62716607D01*
X43424063Y-62488881D01*
X43485108Y-62247821D01*
X43485116Y-62247729D01*
X43505643Y-62000005D01*
X43505643Y-61999994D01*
X43502329Y-61960000D01*
X43900001Y-61960000D01*
X43900001Y-62209986D01*
X43910494Y-62312697D01*
X43965641Y-62479119D01*
X43965643Y-62479124D01*
X44057684Y-62628345D01*
X44181654Y-62752315D01*
X44330875Y-62844356D01*
X44330880Y-62844358D01*
X44497302Y-62899505D01*
X44497309Y-62899506D01*
X44600019Y-62909999D01*
X44749999Y-62909999D01*
X45250000Y-62909999D01*
X45399972Y-62909999D01*
X45399986Y-62909998D01*
X45502697Y-62899505D01*
X45669119Y-62844358D01*
X45669124Y-62844356D01*
X45818342Y-62752317D01*
X45911964Y-62658695D01*
X45973287Y-62625210D01*
X46042979Y-62630194D01*
X46087327Y-62658695D01*
X46181344Y-62752712D01*
X46330666Y-62844814D01*
X46497203Y-62899999D01*
X46599991Y-62910500D01*
X47400008Y-62910499D01*
X47400016Y-62910498D01*
X47400019Y-62910498D01*
X47456302Y-62904748D01*
X47502797Y-62899999D01*
X47669334Y-62844814D01*
X47818656Y-62752712D01*
X47942712Y-62628656D01*
X48034814Y-62479334D01*
X48054311Y-62420493D01*
X48094084Y-62363051D01*
X48158600Y-62336228D01*
X48172017Y-62335500D01*
X48917257Y-62335500D01*
X48932877Y-62337224D01*
X48932904Y-62336939D01*
X48940660Y-62337671D01*
X48940667Y-62337673D01*
X49009814Y-62335500D01*
X49039350Y-62335500D01*
X49046228Y-62334630D01*
X49052041Y-62334172D01*
X49098627Y-62332709D01*
X49117869Y-62327117D01*
X49136912Y-62323174D01*
X49156792Y-62320664D01*
X49200122Y-62303507D01*
X49205646Y-62301617D01*
X49209396Y-62300527D01*
X49250390Y-62288618D01*
X49267629Y-62278422D01*
X49285103Y-62269862D01*
X49303727Y-62262488D01*
X49303727Y-62262487D01*
X49303732Y-62262486D01*
X49341449Y-62235082D01*
X49346305Y-62231892D01*
X49386420Y-62208170D01*
X49400589Y-62193999D01*
X49415379Y-62181368D01*
X49431587Y-62169594D01*
X49438822Y-62160847D01*
X49443279Y-62155461D01*
X49501179Y-62116352D01*
X49538824Y-62110500D01*
X49594644Y-62110500D01*
X49594646Y-62110500D01*
X49779803Y-62071144D01*
X49952730Y-61994151D01*
X50105871Y-61882888D01*
X50232533Y-61742216D01*
X50327179Y-61578284D01*
X50385674Y-61398256D01*
X50405460Y-61210000D01*
X50385674Y-61021744D01*
X50327179Y-60841716D01*
X50232533Y-60677784D01*
X50105871Y-60537112D01*
X50105870Y-60537111D01*
X49952734Y-60425851D01*
X49952732Y-60425850D01*
X49952730Y-60425849D01*
X49923373Y-60412778D01*
X49870138Y-60367528D01*
X49849817Y-60300679D01*
X49868863Y-60233456D01*
X49921229Y-60187201D01*
X49973811Y-60175500D01*
X50967257Y-60175500D01*
X50982877Y-60177224D01*
X50982904Y-60176939D01*
X50990660Y-60177671D01*
X50990667Y-60177673D01*
X51059814Y-60175500D01*
X51089350Y-60175500D01*
X51096228Y-60174630D01*
X51102041Y-60174172D01*
X51148627Y-60172709D01*
X51167869Y-60167117D01*
X51186912Y-60163174D01*
X51206792Y-60160664D01*
X51250122Y-60143507D01*
X51255646Y-60141617D01*
X51259396Y-60140527D01*
X51300390Y-60128618D01*
X51317629Y-60118422D01*
X51335103Y-60109862D01*
X51353727Y-60102488D01*
X51353727Y-60102487D01*
X51353732Y-60102486D01*
X51391449Y-60075082D01*
X51396305Y-60071892D01*
X51436420Y-60048170D01*
X51450589Y-60033999D01*
X51465379Y-60021368D01*
X51481587Y-60009594D01*
X51511299Y-59973676D01*
X51515212Y-59969376D01*
X52933787Y-58550802D01*
X52946042Y-58540986D01*
X52945859Y-58540764D01*
X52951866Y-58535792D01*
X52951877Y-58535786D01*
X52982775Y-58502882D01*
X52999227Y-58485364D01*
X53009671Y-58474918D01*
X53020120Y-58464471D01*
X53024379Y-58458978D01*
X53028152Y-58454561D01*
X53060062Y-58420582D01*
X53069713Y-58403024D01*
X53080396Y-58386761D01*
X53092673Y-58370936D01*
X53111185Y-58328153D01*
X53113738Y-58322941D01*
X53136197Y-58282092D01*
X53141180Y-58262680D01*
X53147481Y-58244280D01*
X53155437Y-58225896D01*
X53162729Y-58179852D01*
X53163906Y-58174171D01*
X53175500Y-58129019D01*
X53175500Y-58108983D01*
X53177027Y-58089582D01*
X53180160Y-58069804D01*
X53175775Y-58023415D01*
X53175500Y-58017577D01*
X53175500Y-57798687D01*
X53195185Y-57731648D01*
X53207350Y-57715715D01*
X53235370Y-57684595D01*
X53282533Y-57632216D01*
X53377179Y-57468284D01*
X53435674Y-57288256D01*
X53455460Y-57100000D01*
X53435674Y-56911744D01*
X53377179Y-56731716D01*
X53282533Y-56567784D01*
X53155871Y-56427112D01*
X53155870Y-56427111D01*
X53002734Y-56315851D01*
X53002729Y-56315848D01*
X52829807Y-56238857D01*
X52829802Y-56238855D01*
X52684001Y-56207865D01*
X52644646Y-56199500D01*
X52455354Y-56199500D01*
X52422897Y-56206398D01*
X52270197Y-56238855D01*
X52270192Y-56238857D01*
X52097270Y-56315848D01*
X52097265Y-56315851D01*
X51944129Y-56427111D01*
X51817466Y-56567785D01*
X51722821Y-56731715D01*
X51722818Y-56731722D01*
X51664327Y-56911740D01*
X51664326Y-56911744D01*
X51644540Y-57100000D01*
X51664326Y-57288256D01*
X51664327Y-57288259D01*
X51722818Y-57468277D01*
X51722821Y-57468284D01*
X51817467Y-57632216D01*
X51830615Y-57646818D01*
X51864629Y-57684595D01*
X51894859Y-57747587D01*
X51886233Y-57816922D01*
X51860160Y-57855248D01*
X50827228Y-58888181D01*
X50765905Y-58921666D01*
X50739547Y-58924500D01*
X48476057Y-58924500D01*
X48425621Y-58913779D01*
X48279807Y-58848857D01*
X48279802Y-58848855D01*
X48134001Y-58817865D01*
X48094646Y-58809500D01*
X48094645Y-58809500D01*
X48012231Y-58809500D01*
X47945192Y-58789815D01*
X47924550Y-58773182D01*
X47901368Y-58750000D01*
X47818656Y-58667288D01*
X47669334Y-58575186D01*
X47502797Y-58520001D01*
X47502795Y-58520000D01*
X47400010Y-58509500D01*
X46599998Y-58509500D01*
X46599980Y-58509501D01*
X46497203Y-58520000D01*
X46497200Y-58520001D01*
X46330668Y-58575185D01*
X46330663Y-58575187D01*
X46181345Y-58667287D01*
X46087327Y-58761305D01*
X46026003Y-58794789D01*
X45956312Y-58789805D01*
X45911965Y-58761304D01*
X45818345Y-58667684D01*
X45669124Y-58575643D01*
X45669119Y-58575641D01*
X45502697Y-58520494D01*
X45502690Y-58520493D01*
X45399986Y-58510000D01*
X45250000Y-58510000D01*
X45250000Y-62909999D01*
X44749999Y-62909999D01*
X44750000Y-62909998D01*
X44750000Y-61960000D01*
X43900001Y-61960000D01*
X43502329Y-61960000D01*
X43485109Y-61752187D01*
X43485107Y-61752175D01*
X43424063Y-61511118D01*
X43401640Y-61460000D01*
X43900000Y-61460000D01*
X44750000Y-61460000D01*
X44750000Y-59960000D01*
X43900001Y-59960000D01*
X43900001Y-60209986D01*
X43910494Y-60312697D01*
X43965641Y-60479119D01*
X43965643Y-60479124D01*
X44057685Y-60628346D01*
X44061435Y-60633089D01*
X44087576Y-60697885D01*
X44074535Y-60766527D01*
X44061435Y-60786911D01*
X44057685Y-60791653D01*
X43965643Y-60940875D01*
X43965641Y-60940880D01*
X43910494Y-61107302D01*
X43910493Y-61107309D01*
X43900000Y-61210013D01*
X43900000Y-61460000D01*
X43401640Y-61460000D01*
X43324173Y-61283393D01*
X43188166Y-61075217D01*
X43153802Y-61037888D01*
X43019744Y-60892262D01*
X42823509Y-60739526D01*
X42823507Y-60739525D01*
X42823506Y-60739524D01*
X42604811Y-60621172D01*
X42604802Y-60621169D01*
X42369616Y-60540429D01*
X42124335Y-60499500D01*
X41875665Y-60499500D01*
X41630386Y-60540428D01*
X41577262Y-60558666D01*
X41507463Y-60561815D01*
X41447042Y-60526728D01*
X41415182Y-60464545D01*
X41413000Y-60441384D01*
X41413000Y-60248347D01*
X41432685Y-60181308D01*
X41471901Y-60142810D01*
X41593656Y-60067712D01*
X41717712Y-59943656D01*
X41809814Y-59794334D01*
X41864999Y-59627797D01*
X41875500Y-59525009D01*
X41875500Y-59460000D01*
X43900000Y-59460000D01*
X44750000Y-59460000D01*
X44750000Y-58510000D01*
X44600027Y-58510000D01*
X44600012Y-58510001D01*
X44497302Y-58520494D01*
X44330880Y-58575641D01*
X44330875Y-58575643D01*
X44181654Y-58667684D01*
X44057684Y-58791654D01*
X43965643Y-58940875D01*
X43965641Y-58940880D01*
X43910494Y-59107302D01*
X43910493Y-59107309D01*
X43900000Y-59210013D01*
X43900000Y-59460000D01*
X41875500Y-59460000D01*
X41875499Y-58474992D01*
X41873628Y-58456680D01*
X41864999Y-58372203D01*
X41864998Y-58372200D01*
X41864579Y-58370935D01*
X41809814Y-58205666D01*
X41717712Y-58056344D01*
X41593656Y-57932288D01*
X41468754Y-57855248D01*
X41444336Y-57840187D01*
X41444331Y-57840185D01*
X41442862Y-57839698D01*
X41277797Y-57785001D01*
X41277795Y-57785000D01*
X41175010Y-57774500D01*
X40399998Y-57774500D01*
X40399980Y-57774501D01*
X40297203Y-57785000D01*
X40297200Y-57785001D01*
X40130668Y-57840185D01*
X40130663Y-57840187D01*
X39981342Y-57932289D01*
X39857288Y-58056343D01*
X39857283Y-58056349D01*
X39855241Y-58059661D01*
X39853247Y-58061453D01*
X39852807Y-58062011D01*
X39852711Y-58061935D01*
X39803291Y-58106383D01*
X39734328Y-58117602D01*
X39670247Y-58089755D01*
X39644168Y-58059656D01*
X39642319Y-58056659D01*
X39642316Y-58056655D01*
X39518345Y-57932684D01*
X39369124Y-57840643D01*
X39369119Y-57840641D01*
X39202697Y-57785494D01*
X39202690Y-57785493D01*
X39099986Y-57775000D01*
X38962500Y-57775000D01*
X38962500Y-60224999D01*
X39099972Y-60224999D01*
X39099986Y-60224998D01*
X39202697Y-60214505D01*
X39369119Y-60159358D01*
X39369124Y-60159356D01*
X39518345Y-60067315D01*
X39642318Y-59943342D01*
X39644165Y-59940348D01*
X39645969Y-59938724D01*
X39646798Y-59937677D01*
X39646976Y-59937818D01*
X39696110Y-59893621D01*
X39765073Y-59882396D01*
X39829156Y-59910236D01*
X39855243Y-59940341D01*
X39857288Y-59943656D01*
X39981344Y-60067712D01*
X40103097Y-60142809D01*
X40149821Y-60194755D01*
X40162000Y-60248347D01*
X40162000Y-60704755D01*
X40160275Y-60720372D01*
X40160561Y-60720399D01*
X40159826Y-60728165D01*
X40162000Y-60797314D01*
X40162000Y-60826843D01*
X40162001Y-60826860D01*
X40162868Y-60833731D01*
X40163326Y-60839550D01*
X40164790Y-60886124D01*
X40164791Y-60886127D01*
X40170380Y-60905367D01*
X40174324Y-60924411D01*
X40176405Y-60940880D01*
X40176836Y-60944291D01*
X40193990Y-60987619D01*
X40195882Y-60993147D01*
X40208881Y-61037888D01*
X40219080Y-61055134D01*
X40227636Y-61072600D01*
X40235014Y-61091232D01*
X40262398Y-61128923D01*
X40265606Y-61133807D01*
X40289327Y-61173916D01*
X40289333Y-61173924D01*
X40303490Y-61188080D01*
X40316128Y-61202876D01*
X40327905Y-61219086D01*
X40327906Y-61219087D01*
X40363809Y-61248788D01*
X40368120Y-61252710D01*
X40513666Y-61398256D01*
X40536338Y-61420928D01*
X40569823Y-61482251D01*
X40568863Y-61539049D01*
X40514892Y-61752174D01*
X40514890Y-61752187D01*
X40494357Y-61999994D01*
X40494357Y-62000005D01*
X40514890Y-62247812D01*
X40514892Y-62247824D01*
X40575936Y-62488881D01*
X40675826Y-62716606D01*
X40811833Y-62924782D01*
X40811836Y-62924785D01*
X40980256Y-63107738D01*
X41141052Y-63232891D01*
X41181864Y-63289600D01*
X41185539Y-63359373D01*
X41150908Y-63420056D01*
X41088966Y-63452383D01*
X41069168Y-63454032D01*
X41069173Y-63454081D01*
X41028420Y-63457646D01*
X41009931Y-63459264D01*
X41004530Y-63459500D01*
X40996289Y-63459500D01*
X40974579Y-63462037D01*
X40963724Y-63463306D01*
X40948419Y-63464645D01*
X40887199Y-63470001D01*
X40880132Y-63471460D01*
X40880120Y-63471404D01*
X40872763Y-63473035D01*
X40872777Y-63473092D01*
X40865743Y-63474759D01*
X40793575Y-63501025D01*
X40720675Y-63525181D01*
X40714126Y-63528236D01*
X40714101Y-63528183D01*
X40707308Y-63531471D01*
X40707334Y-63531523D01*
X40700880Y-63534764D01*
X40636708Y-63576971D01*
X40571347Y-63617285D01*
X40565683Y-63621765D01*
X40565647Y-63621719D01*
X40559798Y-63626484D01*
X40559835Y-63626528D01*
X40554310Y-63631164D01*
X40501598Y-63687034D01*
X39347229Y-64841402D01*
X39285906Y-64874887D01*
X39285330Y-64875011D01*
X39220196Y-64888856D01*
X39220192Y-64888857D01*
X39047270Y-64965848D01*
X39047265Y-64965851D01*
X38894129Y-65077111D01*
X38767466Y-65217785D01*
X38672821Y-65381715D01*
X38672818Y-65381722D01*
X38614327Y-65561740D01*
X38614326Y-65561744D01*
X38594540Y-65750000D01*
X35750000Y-65750000D01*
X35750000Y-62043035D01*
X35762458Y-62000607D01*
X35760662Y-61997228D01*
X35985990Y-61997228D01*
X35992977Y-62008100D01*
X35997576Y-62032795D01*
X36015385Y-62247730D01*
X36015387Y-62247738D01*
X36076412Y-62488717D01*
X36176266Y-62716364D01*
X36276564Y-62869882D01*
X36974070Y-62172376D01*
X36976884Y-62185915D01*
X37046442Y-62320156D01*
X37149638Y-62430652D01*
X37278819Y-62509209D01*
X37330002Y-62523549D01*
X36629942Y-63223609D01*
X36676768Y-63260055D01*
X36676770Y-63260056D01*
X36895385Y-63378364D01*
X36895396Y-63378369D01*
X37130506Y-63459083D01*
X37375707Y-63500000D01*
X37624293Y-63500000D01*
X37869493Y-63459083D01*
X38104603Y-63378369D01*
X38104614Y-63378364D01*
X38323228Y-63260057D01*
X38323231Y-63260055D01*
X38370056Y-63223609D01*
X37671568Y-62525121D01*
X37788458Y-62474349D01*
X37905739Y-62378934D01*
X37992928Y-62255415D01*
X38023354Y-62169802D01*
X38723434Y-62869882D01*
X38823731Y-62716369D01*
X38923587Y-62488717D01*
X38984612Y-62247738D01*
X38984614Y-62247729D01*
X39005141Y-62000005D01*
X39005141Y-61999994D01*
X38984614Y-61752270D01*
X38984612Y-61752261D01*
X38923587Y-61511282D01*
X38823731Y-61283630D01*
X38723434Y-61130116D01*
X38025929Y-61827622D01*
X38023116Y-61814085D01*
X37953558Y-61679844D01*
X37850362Y-61569348D01*
X37721181Y-61490791D01*
X37669997Y-61476450D01*
X38370057Y-60776390D01*
X38370056Y-60776389D01*
X38323229Y-60739943D01*
X38104614Y-60621635D01*
X38104603Y-60621630D01*
X37869493Y-60540916D01*
X37624293Y-60500000D01*
X37375707Y-60500000D01*
X37130506Y-60540916D01*
X36895396Y-60621630D01*
X36895390Y-60621632D01*
X36676761Y-60739949D01*
X36629942Y-60776388D01*
X36629942Y-60776390D01*
X37328431Y-61474878D01*
X37211542Y-61525651D01*
X37094261Y-61621066D01*
X37007072Y-61744585D01*
X36976645Y-61830197D01*
X36276564Y-61130116D01*
X36176267Y-61283632D01*
X36076412Y-61511282D01*
X36015387Y-61752261D01*
X36015385Y-61752270D01*
X35997576Y-61967204D01*
X35985990Y-61997228D01*
X35760662Y-61997228D01*
X35752544Y-61981955D01*
X35750000Y-61956964D01*
X35750000Y-59250000D01*
X37625001Y-59250000D01*
X37625001Y-59524986D01*
X37635494Y-59627697D01*
X37690641Y-59794119D01*
X37690643Y-59794124D01*
X37782684Y-59943345D01*
X37906654Y-60067315D01*
X38055875Y-60159356D01*
X38055880Y-60159358D01*
X38222302Y-60214505D01*
X38222309Y-60214506D01*
X38325019Y-60224999D01*
X38462499Y-60224999D01*
X38462500Y-60224998D01*
X38462500Y-59250000D01*
X37625001Y-59250000D01*
X35750000Y-59250000D01*
X35750000Y-58750000D01*
X37625000Y-58750000D01*
X38462500Y-58750000D01*
X38462500Y-57775000D01*
X38325027Y-57775000D01*
X38325012Y-57775001D01*
X38222302Y-57785494D01*
X38055880Y-57840641D01*
X38055875Y-57840643D01*
X37906654Y-57932684D01*
X37782684Y-58056654D01*
X37690643Y-58205875D01*
X37690641Y-58205880D01*
X37635494Y-58372302D01*
X37635493Y-58372309D01*
X37625000Y-58475013D01*
X37625000Y-58750000D01*
X35750000Y-58750000D01*
X35750000Y-56960000D01*
X43900001Y-56960000D01*
X43900001Y-57209986D01*
X43910494Y-57312697D01*
X43965641Y-57479119D01*
X43965643Y-57479124D01*
X44057684Y-57628345D01*
X44181654Y-57752315D01*
X44330875Y-57844356D01*
X44330880Y-57844358D01*
X44497302Y-57899505D01*
X44497309Y-57899506D01*
X44600019Y-57909999D01*
X44749999Y-57909999D01*
X45250000Y-57909999D01*
X45399972Y-57909999D01*
X45399986Y-57909998D01*
X45502697Y-57899505D01*
X45669119Y-57844358D01*
X45669124Y-57844356D01*
X45818342Y-57752317D01*
X45911964Y-57658695D01*
X45973287Y-57625210D01*
X46042979Y-57630194D01*
X46087327Y-57658695D01*
X46181344Y-57752712D01*
X46330666Y-57844814D01*
X46497203Y-57899999D01*
X46599991Y-57910500D01*
X47400008Y-57910499D01*
X47400016Y-57910498D01*
X47400019Y-57910498D01*
X47456302Y-57904748D01*
X47502797Y-57899999D01*
X47669334Y-57844814D01*
X47818656Y-57752712D01*
X47924550Y-57646818D01*
X47985873Y-57613334D01*
X48012231Y-57610500D01*
X48094644Y-57610500D01*
X48094646Y-57610500D01*
X48279803Y-57571144D01*
X48452730Y-57494151D01*
X48605871Y-57382888D01*
X48732533Y-57242216D01*
X48827179Y-57078284D01*
X48885674Y-56898256D01*
X48905460Y-56710000D01*
X48885674Y-56521744D01*
X48827179Y-56341716D01*
X48732533Y-56177784D01*
X48605871Y-56037112D01*
X48605870Y-56037111D01*
X48452734Y-55925851D01*
X48452729Y-55925848D01*
X48279807Y-55848857D01*
X48279802Y-55848855D01*
X48134001Y-55817865D01*
X48094646Y-55809500D01*
X48094645Y-55809500D01*
X48053341Y-55809500D01*
X47986302Y-55789815D01*
X47940547Y-55737011D01*
X47930603Y-55667853D01*
X47947802Y-55620404D01*
X48002196Y-55532216D01*
X48034814Y-55479334D01*
X48054311Y-55420493D01*
X48094084Y-55363051D01*
X48158600Y-55336228D01*
X48172017Y-55335500D01*
X48503844Y-55335500D01*
X48570883Y-55355185D01*
X48616638Y-55407989D01*
X48621775Y-55421182D01*
X48672818Y-55578277D01*
X48672821Y-55578284D01*
X48767467Y-55742216D01*
X48863487Y-55848857D01*
X48894129Y-55882888D01*
X49047265Y-55994148D01*
X49047270Y-55994151D01*
X49220192Y-56071142D01*
X49220197Y-56071144D01*
X49405354Y-56110500D01*
X49405355Y-56110500D01*
X49594644Y-56110500D01*
X49594646Y-56110500D01*
X49779803Y-56071144D01*
X49952730Y-55994151D01*
X50105871Y-55882888D01*
X50232533Y-55742216D01*
X50327179Y-55578284D01*
X50385674Y-55398256D01*
X50405460Y-55210000D01*
X50385674Y-55021744D01*
X50327179Y-54841716D01*
X50232533Y-54677784D01*
X50105871Y-54537112D01*
X50028718Y-54481057D01*
X49952734Y-54425851D01*
X49952729Y-54425848D01*
X49779807Y-54348857D01*
X49779802Y-54348855D01*
X49634001Y-54317865D01*
X49594646Y-54309500D01*
X49594645Y-54309500D01*
X49536348Y-54309500D01*
X49469309Y-54289815D01*
X49451466Y-54275893D01*
X49435364Y-54260773D01*
X49414476Y-54239884D01*
X49408986Y-54235625D01*
X49404561Y-54231847D01*
X49370582Y-54199938D01*
X49370580Y-54199936D01*
X49370577Y-54199935D01*
X49353029Y-54190288D01*
X49336763Y-54179604D01*
X49324632Y-54170194D01*
X49320936Y-54167327D01*
X49320935Y-54167326D01*
X49320933Y-54167325D01*
X49278168Y-54148818D01*
X49272922Y-54146248D01*
X49232093Y-54123803D01*
X49232092Y-54123802D01*
X49212693Y-54118822D01*
X49194281Y-54112518D01*
X49175898Y-54104562D01*
X49175892Y-54104560D01*
X49129874Y-54097272D01*
X49124152Y-54096087D01*
X49079021Y-54084500D01*
X49079019Y-54084500D01*
X49058984Y-54084500D01*
X49039586Y-54082973D01*
X49032162Y-54081797D01*
X49019805Y-54079840D01*
X49019804Y-54079840D01*
X48973416Y-54084225D01*
X48967578Y-54084500D01*
X48172017Y-54084500D01*
X48104978Y-54064815D01*
X48059223Y-54012011D01*
X48054311Y-53999505D01*
X48034814Y-53940666D01*
X47942712Y-53791344D01*
X47818656Y-53667288D01*
X47669334Y-53575186D01*
X47502797Y-53520001D01*
X47502795Y-53520000D01*
X47400010Y-53509500D01*
X46599998Y-53509500D01*
X46599980Y-53509501D01*
X46497203Y-53520000D01*
X46497200Y-53520001D01*
X46372300Y-53561389D01*
X46330666Y-53575186D01*
X46321174Y-53581040D01*
X46256081Y-53599500D01*
X46155354Y-53599500D01*
X46122897Y-53606398D01*
X45970197Y-53638855D01*
X45914670Y-53663578D01*
X45845420Y-53672862D01*
X45799138Y-53655837D01*
X45669124Y-53575643D01*
X45669119Y-53575641D01*
X45502697Y-53520494D01*
X45502690Y-53520493D01*
X45399986Y-53510000D01*
X45250000Y-53510000D01*
X45250000Y-57909999D01*
X44749999Y-57909999D01*
X44750000Y-57909998D01*
X44750000Y-56960000D01*
X43900001Y-56960000D01*
X35750000Y-56960000D01*
X35750000Y-56460000D01*
X43900000Y-56460000D01*
X44750000Y-56460000D01*
X44750000Y-54960000D01*
X43900001Y-54960000D01*
X43900001Y-55209986D01*
X43910494Y-55312697D01*
X43965641Y-55479119D01*
X43965643Y-55479124D01*
X44057685Y-55628346D01*
X44061435Y-55633089D01*
X44087576Y-55697885D01*
X44074535Y-55766527D01*
X44061435Y-55786911D01*
X44057685Y-55791653D01*
X43965643Y-55940875D01*
X43965641Y-55940880D01*
X43910494Y-56107302D01*
X43910493Y-56107309D01*
X43900000Y-56210013D01*
X43900000Y-56460000D01*
X35750000Y-56460000D01*
X35750000Y-54460000D01*
X43900000Y-54460000D01*
X44750000Y-54460000D01*
X44750000Y-53510000D01*
X44600027Y-53510000D01*
X44600012Y-53510001D01*
X44497302Y-53520494D01*
X44330880Y-53575641D01*
X44330875Y-53575643D01*
X44181654Y-53667684D01*
X44057684Y-53791654D01*
X43965643Y-53940875D01*
X43965641Y-53940880D01*
X43910494Y-54107302D01*
X43910493Y-54107309D01*
X43900000Y-54210013D01*
X43900000Y-54460000D01*
X35750000Y-54460000D01*
X35750000Y-48002213D01*
X35750158Y-47997789D01*
X35756261Y-47912455D01*
X35769724Y-47724207D01*
X35772240Y-47706710D01*
X35829130Y-47445192D01*
X35834107Y-47428241D01*
X35927640Y-47177470D01*
X35934985Y-47161388D01*
X36063248Y-46926491D01*
X36072798Y-46911630D01*
X36233195Y-46697366D01*
X36244767Y-46684012D01*
X36434012Y-46494767D01*
X36447366Y-46483195D01*
X36661630Y-46322798D01*
X36676491Y-46313248D01*
X36911388Y-46184985D01*
X36927470Y-46177640D01*
X37178241Y-46084107D01*
X37195192Y-46079130D01*
X37456710Y-46022240D01*
X37474207Y-46019724D01*
X37747791Y-46000157D01*
X37752214Y-46000000D01*
X39204387Y-46000000D01*
X39271426Y-46019685D01*
G37*
%TD.AperFunction*%
%TA.AperFunction,Conductor*%
G36*
X46271426Y-46019685D02*
G01*
X46317181Y-46072489D01*
X46327125Y-46141647D01*
X46324162Y-46156093D01*
X46273632Y-46344673D01*
X46273630Y-46344684D01*
X46253043Y-46579998D01*
X46253043Y-46580001D01*
X46273630Y-46815315D01*
X46273632Y-46815326D01*
X46334766Y-47043483D01*
X46334770Y-47043492D01*
X46434600Y-47257579D01*
X46434602Y-47257583D01*
X46493272Y-47341373D01*
X46493273Y-47341373D01*
X47128909Y-46705736D01*
X47153027Y-46787871D01*
X47230028Y-46907688D01*
X47337667Y-47000957D01*
X47467223Y-47060124D01*
X47479817Y-47061934D01*
X46808569Y-47733181D01*
X46747246Y-47766666D01*
X46720897Y-47769500D01*
X46710334Y-47769500D01*
X46710323Y-47769501D01*
X46650716Y-47775908D01*
X46515871Y-47826202D01*
X46515864Y-47826206D01*
X46400655Y-47912452D01*
X46400652Y-47912455D01*
X46314406Y-48027664D01*
X46314402Y-48027671D01*
X46264108Y-48162517D01*
X46257701Y-48222116D01*
X46257701Y-48222123D01*
X46257700Y-48222135D01*
X46257700Y-48370500D01*
X46238015Y-48437539D01*
X46185211Y-48483294D01*
X46133700Y-48494500D01*
X42082699Y-48494500D01*
X42015660Y-48474815D01*
X41969905Y-48422011D01*
X41958699Y-48370500D01*
X41958699Y-48222129D01*
X41958698Y-48222123D01*
X41958697Y-48222116D01*
X41952291Y-48162517D01*
X41941369Y-48133234D01*
X41901997Y-48027671D01*
X41901993Y-48027664D01*
X41815747Y-47912455D01*
X41815744Y-47912452D01*
X41700535Y-47826206D01*
X41700528Y-47826202D01*
X41565682Y-47775908D01*
X41565683Y-47775908D01*
X41506083Y-47769501D01*
X41506081Y-47769500D01*
X41506073Y-47769500D01*
X41506065Y-47769500D01*
X41495510Y-47769500D01*
X41428471Y-47749815D01*
X41407829Y-47733181D01*
X40736582Y-47061934D01*
X40749177Y-47060124D01*
X40878733Y-47000957D01*
X40986372Y-46907688D01*
X41063373Y-46787871D01*
X41087489Y-46705737D01*
X41723125Y-47341373D01*
X41723126Y-47341373D01*
X41781798Y-47257582D01*
X41781800Y-47257578D01*
X41881629Y-47043492D01*
X41881633Y-47043483D01*
X41942767Y-46815326D01*
X41942769Y-46815315D01*
X41963357Y-46580001D01*
X41963357Y-46579998D01*
X41942769Y-46344684D01*
X41942767Y-46344673D01*
X41892238Y-46156093D01*
X41893901Y-46086243D01*
X41933064Y-46028381D01*
X41997292Y-46000877D01*
X42012013Y-46000000D01*
X46204387Y-46000000D01*
X46271426Y-46019685D01*
G37*
%TD.AperFunction*%
%TA.AperFunction,Conductor*%
G36*
X48723125Y-47341373D02*
G01*
X48750000Y-47302992D01*
X48750000Y-47863235D01*
X48700535Y-47826206D01*
X48700528Y-47826202D01*
X48565682Y-47775908D01*
X48565683Y-47775908D01*
X48506083Y-47769501D01*
X48506081Y-47769500D01*
X48506073Y-47769500D01*
X48506065Y-47769500D01*
X48495510Y-47769500D01*
X48428471Y-47749815D01*
X48407829Y-47733181D01*
X47736582Y-47061934D01*
X47749177Y-47060124D01*
X47878733Y-47000957D01*
X47986372Y-46907688D01*
X48063373Y-46787871D01*
X48087489Y-46705737D01*
X48723125Y-47341373D01*
G37*
%TD.AperFunction*%
%TD*%
%TA.AperFunction,Conductor*%
%TO.N,GNDD*%
G36*
X54075660Y-33055274D02*
G01*
X54166535Y-33126004D01*
X54200163Y-33152178D01*
X54231374Y-33176470D01*
X54435497Y-33286936D01*
X54549487Y-33326068D01*
X54655015Y-33362297D01*
X54655017Y-33362297D01*
X54655019Y-33362298D01*
X54883951Y-33400500D01*
X54883952Y-33400500D01*
X55116048Y-33400500D01*
X55116049Y-33400500D01*
X55344981Y-33362298D01*
X55564503Y-33286936D01*
X55768626Y-33176470D01*
X55768634Y-33176464D01*
X55800520Y-33151647D01*
X55865514Y-33126004D01*
X55876682Y-33125500D01*
X56623318Y-33125500D01*
X56690357Y-33145185D01*
X56699480Y-33151647D01*
X56731365Y-33176464D01*
X56731371Y-33176468D01*
X56731374Y-33176470D01*
X56935497Y-33286936D01*
X57049487Y-33326068D01*
X57155015Y-33362297D01*
X57155017Y-33362297D01*
X57155019Y-33362298D01*
X57383951Y-33400500D01*
X57383952Y-33400500D01*
X57616048Y-33400500D01*
X57616049Y-33400500D01*
X57844981Y-33362298D01*
X58064503Y-33286936D01*
X58268626Y-33176470D01*
X58299836Y-33152177D01*
X58364830Y-33126534D01*
X58433370Y-33140100D01*
X58483696Y-33188567D01*
X58500000Y-33250030D01*
X58500000Y-48750000D01*
X57584403Y-48750000D01*
X57541657Y-48581199D01*
X57448424Y-48368651D01*
X57321483Y-48174352D01*
X57321480Y-48174349D01*
X57321479Y-48174347D01*
X57164284Y-48003587D01*
X57164279Y-48003583D01*
X57164277Y-48003581D01*
X56981134Y-47861035D01*
X56981128Y-47861031D01*
X56777004Y-47750564D01*
X56776995Y-47750561D01*
X56557484Y-47675202D01*
X56385782Y-47646550D01*
X56328549Y-47637000D01*
X56096451Y-47637000D01*
X56050664Y-47644640D01*
X55867515Y-47675202D01*
X55648004Y-47750561D01*
X55647995Y-47750564D01*
X55443871Y-47861031D01*
X55443865Y-47861035D01*
X55305984Y-47968353D01*
X55240990Y-47993996D01*
X55229822Y-47994500D01*
X55086801Y-47994500D01*
X55019762Y-47974815D01*
X54974007Y-47922011D01*
X54964063Y-47852853D01*
X54964439Y-47850412D01*
X54965093Y-47846421D01*
X54965096Y-47846412D01*
X54975500Y-47714217D01*
X54975499Y-46524498D01*
X54995184Y-46457460D01*
X55047987Y-46411705D01*
X55099499Y-46400499D01*
X55858033Y-46400499D01*
X55858036Y-46400499D01*
X55977418Y-46389886D01*
X56173049Y-46333909D01*
X56353407Y-46239698D01*
X56511109Y-46111109D01*
X56639698Y-45953407D01*
X56733909Y-45773049D01*
X56789886Y-45577418D01*
X56800500Y-45458037D01*
X56800499Y-43341964D01*
X56789886Y-43222582D01*
X56733909Y-43026951D01*
X56639698Y-42846593D01*
X56532329Y-42714915D01*
X56511109Y-42688890D01*
X56353409Y-42560304D01*
X56353410Y-42560304D01*
X56353407Y-42560302D01*
X56173049Y-42466091D01*
X56173048Y-42466090D01*
X56173045Y-42466089D01*
X56055829Y-42432550D01*
X55977418Y-42410114D01*
X55977415Y-42410113D01*
X55977413Y-42410113D01*
X55886983Y-42402073D01*
X55858037Y-42399500D01*
X55858035Y-42399500D01*
X55042559Y-42399500D01*
X54975520Y-42379815D01*
X54954878Y-42363181D01*
X53369624Y-40777927D01*
X53356295Y-40762169D01*
X53354468Y-40759603D01*
X53350598Y-40755137D01*
X53352288Y-40753672D01*
X53322308Y-40701723D01*
X53325644Y-40631933D01*
X53339005Y-40604693D01*
X53460424Y-40418849D01*
X53553657Y-40206300D01*
X53556757Y-40194057D01*
X53592297Y-40133903D01*
X53654718Y-40102511D01*
X53676963Y-40100499D01*
X54708033Y-40100499D01*
X54708036Y-40100499D01*
X54827418Y-40089886D01*
X55023049Y-40033909D01*
X55203407Y-39939698D01*
X55361109Y-39811109D01*
X55489698Y-39653407D01*
X55583909Y-39473049D01*
X55639886Y-39277418D01*
X55650500Y-39158037D01*
X55650499Y-37041964D01*
X55639886Y-36922582D01*
X55583909Y-36726951D01*
X55489698Y-36546593D01*
X55437684Y-36482803D01*
X55361109Y-36388890D01*
X55203409Y-36260304D01*
X55203410Y-36260304D01*
X55203407Y-36260302D01*
X55023049Y-36166091D01*
X55023048Y-36166090D01*
X55023045Y-36166089D01*
X54905829Y-36132550D01*
X54827418Y-36110114D01*
X54827415Y-36110113D01*
X54827413Y-36110113D01*
X54736983Y-36102073D01*
X54708037Y-36099500D01*
X54708035Y-36099500D01*
X53999500Y-36099500D01*
X53932461Y-36079815D01*
X53886706Y-36027011D01*
X53875500Y-35975500D01*
X53875500Y-33153128D01*
X53895185Y-33086089D01*
X53947989Y-33040334D01*
X54017147Y-33030390D01*
X54075660Y-33055274D01*
G37*
%TD.AperFunction*%
%TA.AperFunction,Conductor*%
G36*
X54058516Y-26123217D02*
G01*
X54185497Y-26191936D01*
X54299487Y-26231068D01*
X54405015Y-26267297D01*
X54405017Y-26267297D01*
X54405019Y-26267298D01*
X54633951Y-26305500D01*
X54633952Y-26305500D01*
X54866048Y-26305500D01*
X54866049Y-26305500D01*
X55094981Y-26267298D01*
X55314503Y-26191936D01*
X55409650Y-26140444D01*
X55468667Y-26125500D01*
X56623318Y-26125500D01*
X56690357Y-26145185D01*
X56699480Y-26151647D01*
X56731365Y-26176464D01*
X56731371Y-26176468D01*
X56731374Y-26176470D01*
X56935497Y-26286936D01*
X57049487Y-26326068D01*
X57155015Y-26362297D01*
X57155017Y-26362297D01*
X57155019Y-26362298D01*
X57383951Y-26400500D01*
X57383952Y-26400500D01*
X57616048Y-26400500D01*
X57616049Y-26400500D01*
X57844981Y-26362298D01*
X58064503Y-26286936D01*
X58268626Y-26176470D01*
X58299836Y-26152177D01*
X58364830Y-26126534D01*
X58433370Y-26140100D01*
X58483696Y-26188567D01*
X58500000Y-26250030D01*
X58500000Y-30749969D01*
X58480315Y-30817008D01*
X58427511Y-30862763D01*
X58358353Y-30872707D01*
X58299838Y-30847823D01*
X58268627Y-30823531D01*
X58268626Y-30823530D01*
X58133679Y-30750500D01*
X58064504Y-30713064D01*
X58064495Y-30713061D01*
X57844984Y-30637702D01*
X57673282Y-30609050D01*
X57616049Y-30599500D01*
X57383951Y-30599500D01*
X57338164Y-30607140D01*
X57155015Y-30637702D01*
X56935504Y-30713061D01*
X56935495Y-30713064D01*
X56731371Y-30823531D01*
X56731365Y-30823535D01*
X56699480Y-30848353D01*
X56634486Y-30873996D01*
X56623318Y-30874500D01*
X56349499Y-30874500D01*
X56282460Y-30854815D01*
X56236705Y-30802011D01*
X56225499Y-30750500D01*
X56225499Y-30635782D01*
X56222644Y-30599500D01*
X56215096Y-30503588D01*
X56171449Y-30330374D01*
X56160097Y-30285321D01*
X56160096Y-30285318D01*
X56076478Y-30101227D01*
X56067007Y-30080374D01*
X55938819Y-29895346D01*
X55779654Y-29736181D01*
X55779653Y-29736180D01*
X55779651Y-29736178D01*
X55726549Y-29699389D01*
X55682652Y-29645030D01*
X55675113Y-29575569D01*
X55679459Y-29558456D01*
X55714505Y-29452694D01*
X55714506Y-29452690D01*
X55724999Y-29349986D01*
X55725000Y-29349973D01*
X55725000Y-29212500D01*
X54374000Y-29212500D01*
X54306961Y-29192815D01*
X54261206Y-29140011D01*
X54250000Y-29088500D01*
X54250000Y-27875000D01*
X54750000Y-27875000D01*
X54750000Y-28712500D01*
X55724999Y-28712500D01*
X55724999Y-28575028D01*
X55724998Y-28575013D01*
X55714505Y-28472302D01*
X55659358Y-28305880D01*
X55659356Y-28305875D01*
X55567315Y-28156654D01*
X55443345Y-28032684D01*
X55294124Y-27940643D01*
X55294119Y-27940641D01*
X55127697Y-27885494D01*
X55127690Y-27885493D01*
X55024986Y-27875000D01*
X54750000Y-27875000D01*
X54250000Y-27875000D01*
X53999500Y-27875000D01*
X53932461Y-27855315D01*
X53886706Y-27802511D01*
X53875500Y-27751000D01*
X53875500Y-26232273D01*
X53895185Y-26165234D01*
X53947989Y-26119479D01*
X54017147Y-26109535D01*
X54058516Y-26123217D01*
G37*
%TD.AperFunction*%
%TA.AperFunction,Conductor*%
G36*
X56502208Y-19500157D02*
G01*
X56775790Y-19519724D01*
X56793291Y-19522241D01*
X57054803Y-19579129D01*
X57071762Y-19584108D01*
X57322524Y-19677638D01*
X57338616Y-19684987D01*
X57573501Y-19813244D01*
X57588375Y-19822802D01*
X57802624Y-19983188D01*
X57815994Y-19994774D01*
X58005225Y-20184005D01*
X58016811Y-20197375D01*
X58177193Y-20411619D01*
X58186758Y-20426503D01*
X58315011Y-20661382D01*
X58322361Y-20677475D01*
X58415888Y-20928229D01*
X58420872Y-20945205D01*
X58477757Y-21206702D01*
X58480275Y-21224214D01*
X58499842Y-21497789D01*
X58500000Y-21502213D01*
X58500000Y-23749969D01*
X58480315Y-23817008D01*
X58427511Y-23862763D01*
X58358353Y-23872707D01*
X58299838Y-23847823D01*
X58268627Y-23823531D01*
X58268626Y-23823530D01*
X58133679Y-23750500D01*
X58064504Y-23713064D01*
X58064495Y-23713061D01*
X57844984Y-23637702D01*
X57673282Y-23609050D01*
X57616049Y-23599500D01*
X57383951Y-23599500D01*
X57338164Y-23607140D01*
X57155015Y-23637702D01*
X56935504Y-23713061D01*
X56935495Y-23713064D01*
X56731371Y-23823531D01*
X56731365Y-23823535D01*
X56699480Y-23848353D01*
X56634486Y-23873996D01*
X56623318Y-23874500D01*
X56349499Y-23874500D01*
X56282460Y-23854815D01*
X56236705Y-23802011D01*
X56225499Y-23750500D01*
X56225499Y-23635782D01*
X56219700Y-23562095D01*
X56215096Y-23503588D01*
X56208737Y-23478353D01*
X56160097Y-23285321D01*
X56160096Y-23285318D01*
X56128012Y-23214683D01*
X56067007Y-23080374D01*
X55955102Y-22918849D01*
X55938825Y-22895354D01*
X55938820Y-22895348D01*
X55938819Y-22895346D01*
X55779654Y-22736181D01*
X55779653Y-22736180D01*
X55779651Y-22736178D01*
X55726549Y-22699389D01*
X55682652Y-22645030D01*
X55675113Y-22575569D01*
X55679459Y-22558456D01*
X55714505Y-22452694D01*
X55714506Y-22452690D01*
X55724999Y-22349986D01*
X55725000Y-22349973D01*
X55725000Y-22212500D01*
X53275001Y-22212500D01*
X53275001Y-22349986D01*
X53285494Y-22452697D01*
X53320540Y-22558457D01*
X53322942Y-22628285D01*
X53287210Y-22688327D01*
X53273452Y-22699388D01*
X53220346Y-22736181D01*
X53220342Y-22736184D01*
X53061179Y-22895348D01*
X53061174Y-22895354D01*
X52932997Y-23080367D01*
X52932991Y-23080377D01*
X52839903Y-23285318D01*
X52788811Y-23488079D01*
X52753343Y-23548276D01*
X52690959Y-23579742D01*
X52621468Y-23572486D01*
X52601530Y-23562095D01*
X52555583Y-23532566D01*
X52521482Y-23518914D01*
X52514807Y-23515769D01*
X52482569Y-23498166D01*
X52420591Y-23478353D01*
X52416426Y-23476855D01*
X52356034Y-23452679D01*
X52356032Y-23452678D01*
X52350528Y-23451617D01*
X52288428Y-23419600D01*
X52253495Y-23359090D01*
X52250000Y-23329859D01*
X52250000Y-23279921D01*
X52269685Y-23212882D01*
X52282770Y-23195938D01*
X52358979Y-23113153D01*
X52485924Y-22918849D01*
X52579157Y-22706300D01*
X52636134Y-22481305D01*
X52636135Y-22481297D01*
X52655300Y-22250006D01*
X52655300Y-22249993D01*
X52636135Y-22018702D01*
X52636133Y-22018691D01*
X52579157Y-21793699D01*
X52543540Y-21712500D01*
X53275000Y-21712500D01*
X54250000Y-21712500D01*
X54250000Y-20875000D01*
X54750000Y-20875000D01*
X54750000Y-21712500D01*
X55724999Y-21712500D01*
X55724999Y-21575028D01*
X55724998Y-21575013D01*
X55714505Y-21472302D01*
X55659358Y-21305880D01*
X55659356Y-21305875D01*
X55567315Y-21156654D01*
X55443345Y-21032684D01*
X55294124Y-20940643D01*
X55294119Y-20940641D01*
X55127697Y-20885494D01*
X55127690Y-20885493D01*
X55024986Y-20875000D01*
X54750000Y-20875000D01*
X54250000Y-20875000D01*
X53975029Y-20875000D01*
X53975012Y-20875001D01*
X53872302Y-20885494D01*
X53705880Y-20940641D01*
X53705875Y-20940643D01*
X53556654Y-21032684D01*
X53432684Y-21156654D01*
X53340643Y-21305875D01*
X53340641Y-21305880D01*
X53285494Y-21472302D01*
X53285493Y-21472309D01*
X53275000Y-21575013D01*
X53275000Y-21712500D01*
X52543540Y-21712500D01*
X52485924Y-21581151D01*
X52358978Y-21386845D01*
X52301641Y-21324561D01*
X52270718Y-21261907D01*
X52269186Y-21231736D01*
X52269725Y-21224197D01*
X52272240Y-21206710D01*
X52329130Y-20945192D01*
X52334107Y-20928241D01*
X52427640Y-20677470D01*
X52434985Y-20661388D01*
X52563248Y-20426491D01*
X52572798Y-20411630D01*
X52733195Y-20197366D01*
X52744767Y-20184012D01*
X52934012Y-19994767D01*
X52947366Y-19983195D01*
X53161630Y-19822798D01*
X53176491Y-19813248D01*
X53411388Y-19684985D01*
X53427470Y-19677640D01*
X53678241Y-19584107D01*
X53695192Y-19579130D01*
X53956710Y-19522240D01*
X53974207Y-19519724D01*
X54247791Y-19500157D01*
X54252214Y-19500000D01*
X56497786Y-19500000D01*
X56502208Y-19500157D01*
G37*
%TD.AperFunction*%
%TD*%
M02*
