%TF.GenerationSoftware,KiCad,Pcbnew,7.0.9*%
%TF.CreationDate,2025-02-22T11:45:47+05:30*%
%TF.ProjectId,DigitalCurrentShunt,44696769-7461-46c4-9375-7272656e7453,rev?*%
%TF.SameCoordinates,Original*%
%TF.FileFunction,Copper,L4,Bot*%
%TF.FilePolarity,Positive*%
%FSLAX46Y46*%
G04 Gerber Fmt 4.6, Leading zero omitted, Abs format (unit mm)*
G04 Created by KiCad (PCBNEW 7.0.9) date 2025-02-22 11:45:47*
%MOMM*%
%LPD*%
G01*
G04 APERTURE LIST*
G04 Aperture macros list*
%AMRoundRect*
0 Rectangle with rounded corners*
0 $1 Rounding radius*
0 $2 $3 $4 $5 $6 $7 $8 $9 X,Y pos of 4 corners*
0 Add a 4 corners polygon primitive as box body*
4,1,4,$2,$3,$4,$5,$6,$7,$8,$9,$2,$3,0*
0 Add four circle primitives for the rounded corners*
1,1,$1+$1,$2,$3*
1,1,$1+$1,$4,$5*
1,1,$1+$1,$6,$7*
1,1,$1+$1,$8,$9*
0 Add four rect primitives between the rounded corners*
20,1,$1+$1,$2,$3,$4,$5,0*
20,1,$1+$1,$4,$5,$6,$7,0*
20,1,$1+$1,$6,$7,$8,$9,0*
20,1,$1+$1,$8,$9,$2,$3,0*%
G04 Aperture macros list end*
%TA.AperFunction,ComponentPad*%
%ADD10R,1.700000X1.700000*%
%TD*%
%TA.AperFunction,ComponentPad*%
%ADD11O,1.700000X1.700000*%
%TD*%
%TA.AperFunction,ComponentPad*%
%ADD12C,1.700000*%
%TD*%
%TA.AperFunction,ComponentPad*%
%ADD13C,2.000000*%
%TD*%
%TA.AperFunction,SMDPad,CuDef*%
%ADD14RoundRect,0.250000X-0.350000X-0.450000X0.350000X-0.450000X0.350000X0.450000X-0.350000X0.450000X0*%
%TD*%
%TA.AperFunction,SMDPad,CuDef*%
%ADD15RoundRect,0.250000X-0.412500X-0.650000X0.412500X-0.650000X0.412500X0.650000X-0.412500X0.650000X0*%
%TD*%
%TA.AperFunction,SMDPad,CuDef*%
%ADD16RoundRect,0.250000X0.337500X0.475000X-0.337500X0.475000X-0.337500X-0.475000X0.337500X-0.475000X0*%
%TD*%
%TA.AperFunction,SMDPad,CuDef*%
%ADD17RoundRect,0.250000X0.650000X-0.412500X0.650000X0.412500X-0.650000X0.412500X-0.650000X-0.412500X0*%
%TD*%
%TA.AperFunction,SMDPad,CuDef*%
%ADD18RoundRect,0.250000X-0.337500X-0.475000X0.337500X-0.475000X0.337500X0.475000X-0.337500X0.475000X0*%
%TD*%
%TA.AperFunction,SMDPad,CuDef*%
%ADD19R,1.473200X0.558800*%
%TD*%
%TA.AperFunction,SMDPad,CuDef*%
%ADD20RoundRect,0.150000X-0.825000X-0.150000X0.825000X-0.150000X0.825000X0.150000X-0.825000X0.150000X0*%
%TD*%
%TA.AperFunction,SMDPad,CuDef*%
%ADD21RoundRect,0.250000X-0.450000X0.350000X-0.450000X-0.350000X0.450000X-0.350000X0.450000X0.350000X0*%
%TD*%
%TA.AperFunction,SMDPad,CuDef*%
%ADD22RoundRect,0.250000X-0.475000X0.337500X-0.475000X-0.337500X0.475000X-0.337500X0.475000X0.337500X0*%
%TD*%
%TA.AperFunction,SMDPad,CuDef*%
%ADD23RoundRect,0.249999X-0.450001X-1.425001X0.450001X-1.425001X0.450001X1.425001X-0.450001X1.425001X0*%
%TD*%
%TA.AperFunction,SMDPad,CuDef*%
%ADD24RoundRect,0.250000X-0.650000X0.412500X-0.650000X-0.412500X0.650000X-0.412500X0.650000X0.412500X0*%
%TD*%
%TA.AperFunction,SMDPad,CuDef*%
%ADD25R,1.500000X2.000000*%
%TD*%
%TA.AperFunction,SMDPad,CuDef*%
%ADD26R,3.800000X2.000000*%
%TD*%
%TA.AperFunction,ViaPad*%
%ADD27C,0.800000*%
%TD*%
%TA.AperFunction,Conductor*%
%ADD28C,0.250000*%
%TD*%
%TA.AperFunction,Conductor*%
%ADD29C,0.500000*%
%TD*%
G04 APERTURE END LIST*
D10*
%TO.P,J3,1,Pin_1*%
%TO.N,GNDD*%
X45550000Y-81750000D03*
D11*
%TO.P,J3,2,Pin_2*%
%TO.N,RX*%
X43010000Y-81750000D03*
%TO.P,J3,3,Pin_3*%
%TO.N,TX*%
X40470000Y-81750000D03*
%TO.P,J3,4,Pin_4*%
%TO.N,+5VD*%
X37930000Y-81750000D03*
%TD*%
D10*
%TO.P,U9,1,GND*%
%TO.N,+5VD*%
X40608200Y-49120000D03*
D12*
%TO.P,U9,2,VIN*%
%TO.N,GNDD*%
X40608200Y-46580000D03*
%TO.P,U9,3,0V*%
%TO.N,-5V*%
X40608200Y-44040000D03*
%TO.P,U9,4,+VO*%
%TO.N,-BATT*%
X40608200Y-41500000D03*
%TD*%
D10*
%TO.P,U8,1,GND*%
%TO.N,+5VD*%
X47608200Y-49120000D03*
D12*
%TO.P,U8,2,VIN*%
%TO.N,GNDD*%
X47608200Y-46580000D03*
%TO.P,U8,3,0V*%
%TO.N,-BATT*%
X47608200Y-44040000D03*
%TO.P,U8,4,+VO*%
%TO.N,+5V*%
X47608200Y-41500000D03*
%TD*%
D13*
%TO.P,SW1,1,1*%
%TO.N,GNDD*%
X37500000Y-68500000D03*
X37500000Y-62000000D03*
%TO.P,SW1,2,2*%
%TO.N,/RST*%
X42000000Y-68500000D03*
X42000000Y-62000000D03*
%TD*%
D10*
%TO.P,J2,1,Pin_1*%
%TO.N,GNDD*%
X49250000Y-81750000D03*
D11*
%TO.P,J2,2,Pin_2*%
%TO.N,SWCLK*%
X51790000Y-81750000D03*
%TO.P,J2,3,Pin_3*%
%TO.N,SWDIO*%
X54330000Y-81750000D03*
%TO.P,J2,4,Pin_4*%
%TO.N,+3.3V*%
X56870000Y-81750000D03*
%TD*%
D13*
%TO.P,MP1,1*%
%TO.N,-BATT*%
X19520000Y-26920000D03*
X19520000Y-29460000D03*
X19520000Y-32000000D03*
X19520000Y-34540000D03*
X19520000Y-37080000D03*
X22060000Y-26920000D03*
X22060000Y-37080000D03*
X24600000Y-26920000D03*
X24600000Y-37080000D03*
X27140000Y-26920000D03*
X27140000Y-37080000D03*
X29680000Y-26920000D03*
X29680000Y-29460000D03*
X29680000Y-32000000D03*
X29680000Y-34540000D03*
X29680000Y-37080000D03*
%TD*%
%TO.P,MP2,1*%
%TO.N,Net-(MP2-Pad1)*%
X19520000Y-74920000D03*
X19520000Y-77460000D03*
X19520000Y-80000000D03*
X19520000Y-82540000D03*
X19520000Y-85080000D03*
X22060000Y-74920000D03*
X22060000Y-85080000D03*
X24600000Y-74920000D03*
X24600000Y-85080000D03*
X27140000Y-74920000D03*
X27140000Y-85080000D03*
X29680000Y-74920000D03*
X29680000Y-77460000D03*
X29680000Y-80000000D03*
X29680000Y-82540000D03*
X29680000Y-85080000D03*
%TD*%
D10*
%TO.P,J1,1,Pin_1*%
%TO.N,+3.3V*%
X56250000Y-74540000D03*
D11*
%TO.P,J1,2,Pin_2*%
%TO.N,Net-(J1-Pin_2)*%
X56250000Y-72000000D03*
%TO.P,J1,3,Pin_3*%
%TO.N,GNDD*%
X56250000Y-69460000D03*
%TD*%
D14*
%TO.P,R12,1*%
%TO.N,Net-(MP2-Pad1)*%
X36000000Y-44500000D03*
%TO.P,R12,2*%
%TO.N,Net-(C1-Pad2)*%
X38000000Y-44500000D03*
%TD*%
D15*
%TO.P,C14,1*%
%TO.N,+5VD*%
X51037500Y-64350000D03*
%TO.P,C14,2*%
%TO.N,GNDD*%
X54162500Y-64350000D03*
%TD*%
D16*
%TO.P,C20,1*%
%TO.N,GNDD*%
X58037500Y-41500000D03*
%TO.P,C20,2*%
%TO.N,+5VD*%
X55962500Y-41500000D03*
%TD*%
D17*
%TO.P,C22,1*%
%TO.N,+5VD*%
X45250000Y-49562500D03*
%TO.P,C22,2*%
%TO.N,GNDD*%
X45250000Y-46437500D03*
%TD*%
D18*
%TO.P,C12,1*%
%TO.N,GNDD*%
X54212500Y-78750000D03*
%TO.P,C12,2*%
%TO.N,+3.3V*%
X56287500Y-78750000D03*
%TD*%
D19*
%TO.P,U3,1,VDD2*%
%TO.N,Net-(U3-VDD2)*%
X46623200Y-31905000D03*
%TO.P,U3,2,VIN*%
%TO.N,A0*%
X46623200Y-30635000D03*
%TO.P,U3,3,SHTD*%
%TO.N,-5V*%
X46623200Y-29365000D03*
%TO.P,U3,4,GND2*%
X46623200Y-28095000D03*
%TO.P,U3,5,GND1*%
%TO.N,GNDD*%
X56376800Y-28095000D03*
%TO.P,U3,6,NC*%
X56376800Y-29365000D03*
%TO.P,U3,7,VOUT*%
%TO.N,Net-(U3-VOUT)*%
X56376800Y-30635000D03*
%TO.P,U3,8,VDD1*%
%TO.N,+5VD*%
X56376800Y-31905000D03*
%TD*%
D20*
%TO.P,U5,1*%
%TO.N,PA0*%
X49500000Y-62060000D03*
%TO.P,U5,2,-*%
X49500000Y-60790000D03*
%TO.P,U5,3,+*%
%TO.N,Net-(U3-VOUT)*%
X49500000Y-59520000D03*
%TO.P,U5,4,V+*%
%TO.N,+5VD*%
X49500000Y-58250000D03*
%TO.P,U5,5,+*%
%TO.N,Net-(U4-VOUT)*%
X49500000Y-56980000D03*
%TO.P,U5,6,-*%
%TO.N,PA1*%
X49500000Y-55710000D03*
%TO.P,U5,7*%
X49500000Y-54440000D03*
%TO.P,U5,8*%
%TO.N,PA2*%
X54450000Y-54440000D03*
%TO.P,U5,9,-*%
X54450000Y-55710000D03*
%TO.P,U5,10,+*%
%TO.N,Net-(U5C-+)*%
X54450000Y-56980000D03*
%TO.P,U5,11,V-*%
%TO.N,GNDD*%
X54450000Y-58250000D03*
%TO.P,U5,12,+*%
%TO.N,unconnected-(U5D-+-Pad12)*%
X54450000Y-59520000D03*
%TO.P,U5,13,-*%
%TO.N,unconnected-(U5D---Pad13)*%
X54450000Y-60790000D03*
%TO.P,U5,14*%
%TO.N,unconnected-(U5-Pad14)*%
X54450000Y-62060000D03*
%TD*%
D19*
%TO.P,U4,1,VDD2*%
%TO.N,Net-(U3-VDD2)*%
X46623200Y-24905000D03*
%TO.P,U4,2,VIN*%
%TO.N,A1*%
X46623200Y-23635000D03*
%TO.P,U4,3,SHTD*%
%TO.N,-5V*%
X46623200Y-22365000D03*
%TO.P,U4,4,GND2*%
X46623200Y-21095000D03*
%TO.P,U4,5,GND1*%
%TO.N,GNDD*%
X56376800Y-21095000D03*
%TO.P,U4,6,NC*%
X56376800Y-22365000D03*
%TO.P,U4,7,VOUT*%
%TO.N,Net-(U4-VOUT)*%
X56376800Y-23635000D03*
%TO.P,U4,8,VDD1*%
%TO.N,+5VD*%
X56376800Y-24905000D03*
%TD*%
%TO.P,U7,1,VDD2*%
%TO.N,Net-(U3-VDD2)*%
X46623200Y-38905000D03*
%TO.P,U7,2,VIN*%
%TO.N,Net-(U7-VIN)*%
X46623200Y-37635000D03*
%TO.P,U7,3,SHTD*%
%TO.N,-5V*%
X46623200Y-36365000D03*
%TO.P,U7,4,GND2*%
X46623200Y-35095000D03*
%TO.P,U7,5,GND1*%
%TO.N,GNDD*%
X56376800Y-35095000D03*
%TO.P,U7,6,NC*%
X56376800Y-36365000D03*
%TO.P,U7,7,VOUT*%
%TO.N,Net-(U5C-+)*%
X56376800Y-37635000D03*
%TO.P,U7,8,VDD1*%
%TO.N,+5VD*%
X56376800Y-38905000D03*
%TD*%
D21*
%TO.P,R26,1*%
%TO.N,A1*%
X40500000Y-22250000D03*
%TO.P,R26,2*%
%TO.N,-5V*%
X40500000Y-24250000D03*
%TD*%
D14*
%TO.P,R18,1*%
%TO.N,Net-(U2--)*%
X38750000Y-27500000D03*
%TO.P,R18,2*%
%TO.N,-BATT*%
X40750000Y-27500000D03*
%TD*%
D22*
%TO.P,C9,1*%
%TO.N,-5V*%
X44500000Y-20962500D03*
%TO.P,C9,2*%
%TO.N,A1*%
X44500000Y-23037500D03*
%TD*%
D23*
%TO.P,R7,1*%
%TO.N,-BATT*%
X21562500Y-66240000D03*
%TO.P,R7,2*%
%TO.N,Net-(MP2-Pad1)*%
X27662500Y-66240000D03*
%TD*%
D24*
%TO.P,C25,1*%
%TO.N,-BATT*%
X43000000Y-40937500D03*
%TO.P,C25,2*%
%TO.N,-5V*%
X43000000Y-44062500D03*
%TD*%
D22*
%TO.P,C19,1*%
%TO.N,-5V*%
X44500000Y-33712500D03*
%TO.P,C19,2*%
%TO.N,Net-(U7-VIN)*%
X44500000Y-35787500D03*
%TD*%
D21*
%TO.P,R25,1*%
%TO.N,A0*%
X42750000Y-30000000D03*
%TO.P,R25,2*%
%TO.N,-5V*%
X42750000Y-32000000D03*
%TD*%
D25*
%TO.P,U11,1,GND*%
%TO.N,GNDD*%
X43550000Y-78150000D03*
%TO.P,U11,2,VO*%
%TO.N,+3.3V*%
X41250000Y-78150000D03*
D26*
X41250000Y-71850000D03*
D25*
%TO.P,U11,3,VI*%
%TO.N,+5VD*%
X38950000Y-78150000D03*
%TD*%
D14*
%TO.P,R20,1*%
%TO.N,Net-(R19-Pad1)*%
X36500000Y-22250000D03*
%TO.P,R20,2*%
%TO.N,A1*%
X38500000Y-22250000D03*
%TD*%
D23*
%TO.P,R9,1*%
%TO.N,-BATT*%
X21562500Y-56460000D03*
%TO.P,R9,2*%
%TO.N,Net-(MP2-Pad1)*%
X27662500Y-56460000D03*
%TD*%
D14*
%TO.P,R1,1*%
%TO.N,-BATT*%
X36000000Y-42500000D03*
%TO.P,R1,2*%
%TO.N,Net-(C1-Pad1)*%
X38000000Y-42500000D03*
%TD*%
%TO.P,R28,1*%
%TO.N,-BATT*%
X42500000Y-37750000D03*
%TO.P,R28,2*%
%TO.N,Net-(U7-VIN)*%
X44500000Y-37750000D03*
%TD*%
D21*
%TO.P,R16,1*%
%TO.N,Net-(U1-+)*%
X36500000Y-36000000D03*
%TO.P,R16,2*%
%TO.N,Net-(C1-Pad2)*%
X36500000Y-38000000D03*
%TD*%
%TO.P,R13,1*%
%TO.N,Net-(U1--)*%
X38750000Y-36000000D03*
%TO.P,R13,2*%
%TO.N,Net-(C1-Pad1)*%
X38750000Y-38000000D03*
%TD*%
%TO.P,R19,1*%
%TO.N,Net-(R19-Pad1)*%
X36500000Y-25500000D03*
%TO.P,R19,2*%
%TO.N,Net-(U2--)*%
X36500000Y-27500000D03*
%TD*%
D24*
%TO.P,C23,1*%
%TO.N,+5V*%
X45500000Y-40937500D03*
%TO.P,C23,2*%
%TO.N,-BATT*%
X45500000Y-44062500D03*
%TD*%
D23*
%TO.P,R11,1*%
%TO.N,-BATT*%
X21562500Y-46680000D03*
%TO.P,R11,2*%
%TO.N,Net-(MP2-Pad1)*%
X27662500Y-46680000D03*
%TD*%
D21*
%TO.P,R14,1*%
%TO.N,-BATT*%
X40750000Y-32000000D03*
%TO.P,R14,2*%
%TO.N,Net-(U1-+)*%
X40750000Y-34000000D03*
%TD*%
D14*
%TO.P,R17,1*%
%TO.N,Net-(U2-+)*%
X38750000Y-30000000D03*
%TO.P,R17,2*%
%TO.N,A0*%
X40750000Y-30000000D03*
%TD*%
D23*
%TO.P,R8,1*%
%TO.N,-BATT*%
X21562500Y-61350000D03*
%TO.P,R8,2*%
%TO.N,Net-(MP2-Pad1)*%
X27662500Y-61350000D03*
%TD*%
D16*
%TO.P,C1,1*%
%TO.N,Net-(C1-Pad1)*%
X38037500Y-40000000D03*
%TO.P,C1,2*%
%TO.N,Net-(C1-Pad2)*%
X35962500Y-40000000D03*
%TD*%
D23*
%TO.P,R10,1*%
%TO.N,-BATT*%
X21562500Y-51570000D03*
%TO.P,R10,2*%
%TO.N,Net-(MP2-Pad1)*%
X27662500Y-51570000D03*
%TD*%
D17*
%TO.P,C24,1*%
%TO.N,+5VD*%
X38000000Y-49812500D03*
%TO.P,C24,2*%
%TO.N,GNDD*%
X38000000Y-46687500D03*
%TD*%
D21*
%TO.P,R15,1*%
%TO.N,Net-(U2-+)*%
X38750000Y-32000000D03*
%TO.P,R15,2*%
%TO.N,Net-(U1--)*%
X38750000Y-34000000D03*
%TD*%
D18*
%TO.P,C4,1*%
%TO.N,GNDD*%
X47962500Y-72000000D03*
%TO.P,C4,2*%
%TO.N,+3.3V*%
X50037500Y-72000000D03*
%TD*%
%TO.P,C5,1*%
%TO.N,GNDD*%
X48212500Y-74750000D03*
%TO.P,C5,2*%
%TO.N,+3.3V*%
X50287500Y-74750000D03*
%TD*%
D27*
%TO.N,+5V*%
X50750000Y-41500000D03*
X44250000Y-32250000D03*
X43750000Y-24250000D03*
%TO.N,-5V*%
X51500000Y-35250000D03*
X46623200Y-28750000D03*
X51250000Y-22250000D03*
X46623200Y-21750000D03*
X51250000Y-43000000D03*
X46623200Y-35750000D03*
X51500000Y-29500000D03*
X43500000Y-27500000D03*
X42250000Y-36000000D03*
%TO.N,Net-(U3-VDD2)*%
X45500000Y-25000000D03*
X47000000Y-31750000D03*
X47750000Y-39000000D03*
X52224500Y-42598524D03*
X52224500Y-39750000D03*
%TO.N,A0*%
X41874799Y-29875201D03*
X45750000Y-30500000D03*
%TO.N,A1*%
X45500000Y-23500000D03*
X42724500Y-22250000D03*
%TO.N,GNDD*%
X45100000Y-52400000D03*
X37250000Y-64850000D03*
X54500000Y-77500000D03*
X56376800Y-28750000D03*
X56376800Y-35750000D03*
X57750000Y-59650000D03*
X50050000Y-50050000D03*
X53050000Y-67200000D03*
X47750000Y-77750000D03*
X52600000Y-62400000D03*
X58250000Y-36250000D03*
X36750000Y-71500000D03*
X44750000Y-69250000D03*
X40250000Y-52300000D03*
X58000000Y-22000000D03*
X57750000Y-61800000D03*
X56376800Y-21750000D03*
X52250000Y-72500000D03*
X36750000Y-74750000D03*
X36750000Y-52450000D03*
X57750000Y-57400000D03*
X42850000Y-58750000D03*
X57500000Y-77250000D03*
X36750000Y-77750000D03*
X57850000Y-65450000D03*
X58224500Y-29000000D03*
X36900000Y-58900000D03*
X54000000Y-75500000D03*
X57800000Y-63800000D03*
X46800000Y-72400000D03*
X49850000Y-52800000D03*
X47500000Y-81750000D03*
%TO.N,+5VD*%
X50224500Y-63350000D03*
X54750000Y-24905000D03*
X57500000Y-25000000D03*
X57500000Y-32000000D03*
X39500000Y-65750000D03*
X39900498Y-77750000D03*
X55000000Y-32000000D03*
X56212500Y-49037500D03*
%TO.N,Net-(U7-VIN)*%
X45750000Y-37750000D03*
%TO.N,-BATT*%
X16000000Y-52500000D03*
X17500000Y-60000000D03*
X23250000Y-55000000D03*
X19000000Y-57500000D03*
X19000000Y-65000000D03*
X42250000Y-33500000D03*
X16000000Y-55000000D03*
X16000000Y-47500000D03*
X17500000Y-45000000D03*
X19000000Y-60000000D03*
X17500000Y-62500000D03*
X49500000Y-39750000D03*
X17500000Y-65000000D03*
X16000000Y-57500000D03*
X19000000Y-52500000D03*
X22500000Y-42500000D03*
X17500000Y-42500000D03*
X16000000Y-45000000D03*
X17500000Y-57500000D03*
X16000000Y-67500000D03*
X41500000Y-25750000D03*
X17500000Y-55000000D03*
X16000000Y-62500000D03*
X23250000Y-67500000D03*
X23250000Y-52500000D03*
X23250000Y-60000000D03*
X20500000Y-42500000D03*
X23250000Y-57500000D03*
X35750000Y-33250000D03*
X19000000Y-42500000D03*
X23250000Y-62500000D03*
X17500000Y-67500000D03*
X19000000Y-50000000D03*
X16000000Y-50000000D03*
X16000000Y-42500000D03*
X49000000Y-33750000D03*
X49000000Y-27000000D03*
X17500000Y-52500000D03*
X19000000Y-62500000D03*
X17500000Y-47500000D03*
X19000000Y-67500000D03*
X23250000Y-47500000D03*
X19000000Y-55000000D03*
X19000000Y-45000000D03*
X34500000Y-43000000D03*
X23250000Y-65000000D03*
X23250000Y-45000000D03*
X16000000Y-65000000D03*
X17500000Y-50000000D03*
X23250000Y-50000000D03*
X16000000Y-60000000D03*
X19000000Y-47500000D03*
X42500000Y-20500000D03*
%TO.N,Net-(U1--)*%
X37742461Y-37000860D03*
%TO.N,Net-(U1-+)*%
X36962255Y-34536534D03*
%TO.N,Net-(U2-+)*%
X38242089Y-28784734D03*
X38264500Y-31750000D03*
%TO.N,Net-(U2--)*%
X37711089Y-27937949D03*
%TO.N,Net-(R19-Pad1)*%
X38500000Y-24250000D03*
%TO.N,Net-(U4-VOUT)*%
X48000000Y-56710000D03*
%TO.N,Net-(U3-VOUT)*%
X52550000Y-57100000D03*
X48000000Y-59710000D03*
%TO.N,Net-(U5C-+)*%
X54068851Y-50127754D03*
%TO.N,+3.3V*%
X50074848Y-70958848D03*
X41250000Y-75000000D03*
X49190800Y-73139397D03*
X50149500Y-74460009D03*
%TO.N,SWCLK*%
X52000000Y-76750000D03*
%TO.N,SWDIO*%
X52999503Y-76750000D03*
%TO.N,RX*%
X45500000Y-71750000D03*
%TO.N,TX*%
X50500000Y-79750000D03*
X50750000Y-77000000D03*
%TO.N,PA0*%
X49500000Y-68500000D03*
X49500000Y-61210000D03*
%TO.N,PA1*%
X46250000Y-54500000D03*
X48668363Y-67945576D03*
X49500000Y-55210000D03*
%TO.N,PA2*%
X54000000Y-71250000D03*
X54450000Y-55000000D03*
%TO.N,Net-(MP2-Pad1)*%
X26000000Y-70000000D03*
X31500000Y-62500000D03*
X26000000Y-45000000D03*
X26000000Y-67500000D03*
X30000000Y-70000000D03*
X33000000Y-45000000D03*
X30000000Y-50000000D03*
X26000000Y-55000000D03*
X31500000Y-57500000D03*
X30000000Y-67500000D03*
X31500000Y-70000000D03*
X26000000Y-65000000D03*
X31500000Y-45000000D03*
X33000000Y-62500000D03*
X30000000Y-55000000D03*
X30000000Y-57500000D03*
X33000000Y-67500000D03*
X26000000Y-62500000D03*
X33000000Y-60000000D03*
X30000000Y-60000000D03*
X26000000Y-47500000D03*
X26000000Y-52500000D03*
X26000000Y-50000000D03*
X33000000Y-47500000D03*
X30000000Y-65000000D03*
X26000000Y-57500000D03*
X31500000Y-55000000D03*
X30000000Y-45000000D03*
X30000000Y-62500000D03*
X31500000Y-67500000D03*
X33000000Y-50000000D03*
X30000000Y-47500000D03*
X31500000Y-65000000D03*
X30000000Y-52500000D03*
X33000000Y-52500000D03*
X31500000Y-52500000D03*
X31500000Y-50000000D03*
X33000000Y-65000000D03*
X31500000Y-60000000D03*
X31500000Y-47500000D03*
X26000000Y-60000000D03*
X33000000Y-57500000D03*
X28000000Y-70000000D03*
X33000000Y-70000000D03*
X33000000Y-55000000D03*
%TD*%
D28*
%TO.N,Net-(C1-Pad1)*%
X38000000Y-40037500D02*
X38037500Y-40000000D01*
X38000000Y-42500000D02*
X38000000Y-40037500D01*
X38750000Y-39287500D02*
X38037500Y-40000000D01*
X38750000Y-38000000D02*
X38750000Y-39287500D01*
%TO.N,Net-(C1-Pad2)*%
X37042400Y-41079900D02*
X35962500Y-40000000D01*
X36500000Y-38000000D02*
X36500000Y-39462500D01*
X37042400Y-43542400D02*
X37042400Y-41079900D01*
X36500000Y-39462500D02*
X35962500Y-40000000D01*
X37042400Y-43542400D02*
X38000000Y-44500000D01*
%TO.N,+5V*%
X47045700Y-40937500D02*
X47608200Y-41500000D01*
X44250000Y-32250000D02*
X44250000Y-24750000D01*
X45500000Y-40937500D02*
X47045700Y-40937500D01*
X44250000Y-24750000D02*
X43750000Y-24250000D01*
X51000000Y-41750000D02*
X50750000Y-41500000D01*
%TO.N,-5V*%
X46623200Y-35095000D02*
X45240700Y-33712500D01*
X42250000Y-24250000D02*
X43500000Y-25500000D01*
X46623200Y-28095000D02*
X46623200Y-28750000D01*
X40630700Y-44062500D02*
X40608200Y-44040000D01*
X51500000Y-22500000D02*
X51250000Y-22250000D01*
X46623200Y-36365000D02*
X46623200Y-35750000D01*
X46623200Y-21750000D02*
X46623200Y-21095000D01*
X51500000Y-42750000D02*
X51500000Y-35250000D01*
X40500000Y-24250000D02*
X42250000Y-24250000D01*
X46623200Y-35750000D02*
X46623200Y-35095000D01*
X44500000Y-20962500D02*
X46490700Y-20962500D01*
X46623200Y-28750000D02*
X46623200Y-29365000D01*
X42975000Y-32225000D02*
X42975000Y-35275000D01*
X42975000Y-35275000D02*
X42250000Y-36000000D01*
X51500000Y-35250000D02*
X51500000Y-29500000D01*
X43775000Y-30975000D02*
X43775000Y-27775000D01*
X42750000Y-32000000D02*
X43775000Y-30975000D01*
X43500000Y-25500000D02*
X43500000Y-27500000D01*
X46623200Y-22365000D02*
X46623200Y-21750000D01*
X51500000Y-29500000D02*
X51500000Y-22500000D01*
X43775000Y-27775000D02*
X43500000Y-27500000D01*
X46490700Y-20962500D02*
X46623200Y-21095000D01*
X51250000Y-43000000D02*
X51500000Y-42750000D01*
X43000000Y-44062500D02*
X40630700Y-44062500D01*
X45240700Y-33712500D02*
X44500000Y-33712500D01*
X42750000Y-32000000D02*
X42975000Y-32225000D01*
%TO.N,Net-(U3-VDD2)*%
X46845000Y-31905000D02*
X47000000Y-31750000D01*
X46528200Y-25000000D02*
X46623200Y-24905000D01*
X47750000Y-39000000D02*
X46718200Y-39000000D01*
X46623200Y-31905000D02*
X46845000Y-31905000D01*
X46718200Y-39000000D02*
X46623200Y-38905000D01*
X52224500Y-42598524D02*
X52224500Y-39750000D01*
X45500000Y-25000000D02*
X46528200Y-25000000D01*
%TO.N,A0*%
X40750000Y-30000000D02*
X42750000Y-30000000D01*
X45885000Y-30635000D02*
X45750000Y-30500000D01*
X46623200Y-30635000D02*
X45885000Y-30635000D01*
%TO.N,A1*%
X46488200Y-23500000D02*
X46623200Y-23635000D01*
X45500000Y-23500000D02*
X46488200Y-23500000D01*
X38500000Y-22250000D02*
X40500000Y-22250000D01*
X44500000Y-22537500D02*
X44537500Y-22537500D01*
X40500000Y-22250000D02*
X42724500Y-22250000D01*
X44537500Y-22537500D02*
X45500000Y-23500000D01*
%TO.N,GNDD*%
X58224500Y-32300805D02*
X58000000Y-32525305D01*
X58287500Y-41500000D02*
X58287500Y-37287500D01*
X56376800Y-21750000D02*
X56376800Y-21095000D01*
X38000000Y-46687500D02*
X40500700Y-46687500D01*
X45250000Y-46437500D02*
X47465700Y-46437500D01*
X56376800Y-28750000D02*
X56376800Y-29365000D01*
X58224500Y-29000000D02*
X58000000Y-28775500D01*
X40500700Y-46687500D02*
X40608200Y-46580000D01*
X58287500Y-41500000D02*
X58000000Y-41787500D01*
X58000000Y-49000000D02*
X57750000Y-49250000D01*
X58250000Y-37250000D02*
X58250000Y-36250000D01*
X56376800Y-35095000D02*
X56376800Y-35750000D01*
X58000000Y-32525305D02*
X58000000Y-36000000D01*
X58000000Y-24474695D02*
X58000000Y-22000000D01*
X47465700Y-46437500D02*
X47608200Y-46580000D01*
X58000000Y-28775500D02*
X58000000Y-25525305D01*
X58287500Y-37287500D02*
X58250000Y-37250000D01*
X58225000Y-24699695D02*
X58000000Y-24474695D01*
X56376800Y-22365000D02*
X56376800Y-21750000D01*
X58000000Y-36000000D02*
X58250000Y-36250000D01*
X58224500Y-29000000D02*
X58224500Y-32300805D01*
X58000000Y-25525305D02*
X58225000Y-25300305D01*
X56376800Y-28095000D02*
X56376800Y-28750000D01*
X58225000Y-25300305D02*
X58225000Y-24699695D01*
X58000000Y-41787500D02*
X58000000Y-49000000D01*
X56376800Y-36365000D02*
X56376800Y-35750000D01*
%TO.N,+5VD*%
X57837500Y-38662500D02*
X57595000Y-38905000D01*
D29*
X51037500Y-58587500D02*
X51037500Y-64350000D01*
D28*
X56212500Y-41500000D02*
X56212500Y-39069300D01*
X38000000Y-49812500D02*
X39915700Y-49812500D01*
X47000000Y-49728200D02*
X47608200Y-49120000D01*
D29*
X38750000Y-70250000D02*
X39500000Y-69500000D01*
X38750000Y-77950000D02*
X38750000Y-70250000D01*
D28*
X56212500Y-39069300D02*
X56376800Y-38905000D01*
X49659799Y-58090201D02*
X49500000Y-58250000D01*
X57837500Y-37473896D02*
X57837500Y-38662500D01*
D29*
X49500000Y-58250000D02*
X50700000Y-58250000D01*
X38950000Y-78150000D02*
X38750000Y-77950000D01*
D28*
X38950000Y-78150000D02*
X39500498Y-78150000D01*
D29*
X51037500Y-64163000D02*
X50224500Y-63350000D01*
D28*
X57500000Y-25000000D02*
X57500000Y-32000000D01*
X39500498Y-78150000D02*
X39900498Y-77750000D01*
D29*
X50700000Y-58250000D02*
X51037500Y-58587500D01*
D28*
X55095000Y-31905000D02*
X55000000Y-32000000D01*
X56376800Y-31905000D02*
X55095000Y-31905000D01*
X56212500Y-41500000D02*
X56212500Y-49037500D01*
D29*
X47150000Y-49578200D02*
X47150000Y-57062082D01*
D28*
X45250000Y-49562500D02*
X47165700Y-49562500D01*
D29*
X39500000Y-69500000D02*
X39500000Y-65750000D01*
X51037500Y-64350000D02*
X51037500Y-64163000D01*
D28*
X47165700Y-49562500D02*
X47608200Y-49120000D01*
D29*
X48337918Y-58250000D02*
X49500000Y-58250000D01*
D28*
X57500000Y-32000000D02*
X57500000Y-37136396D01*
X39915700Y-49812500D02*
X40608200Y-49120000D01*
D29*
X47608200Y-49120000D02*
X47150000Y-49578200D01*
D28*
X57595000Y-38905000D02*
X56376800Y-38905000D01*
X57500000Y-37136396D02*
X57837500Y-37473896D01*
D29*
X47150000Y-57062082D02*
X48337918Y-58250000D01*
D28*
X54750000Y-24905000D02*
X56376800Y-24905000D01*
%TO.N,Net-(U7-VIN)*%
X44500000Y-37750000D02*
X45750000Y-37750000D01*
X45750000Y-37750000D02*
X46508200Y-37750000D01*
X46508200Y-37750000D02*
X46623200Y-37635000D01*
X44500000Y-35787500D02*
X44500000Y-37750000D01*
%TO.N,-BATT*%
X35500000Y-43000000D02*
X36000000Y-42500000D01*
X45500000Y-44062500D02*
X47585700Y-44062500D01*
X47585700Y-44062500D02*
X47608200Y-44040000D01*
X40750000Y-32000000D02*
X42250000Y-33500000D01*
X34500000Y-43000000D02*
X35500000Y-43000000D01*
%TO.N,Net-(U1--)*%
X37742461Y-37000860D02*
X37749140Y-37000860D01*
X38750000Y-34000000D02*
X38750000Y-36000000D01*
X37749140Y-37000860D02*
X38750000Y-36000000D01*
%TO.N,Net-(U1-+)*%
X38054900Y-33075000D02*
X36962255Y-34167645D01*
X40750000Y-34000000D02*
X39825000Y-33075000D01*
X39825000Y-33075000D02*
X38054900Y-33075000D01*
X36962255Y-34536534D02*
X36962255Y-35537745D01*
X36962255Y-35537745D02*
X36500000Y-36000000D01*
X36962255Y-34167645D02*
X36962255Y-34536534D01*
%TO.N,Net-(U2-+)*%
X38242089Y-28784734D02*
X38242089Y-29492089D01*
X38750000Y-32000000D02*
X38514500Y-32000000D01*
X38514500Y-32000000D02*
X38264500Y-31750000D01*
X38242089Y-29492089D02*
X38750000Y-30000000D01*
X38750000Y-30000000D02*
X38750000Y-32000000D01*
%TO.N,Net-(U2--)*%
X36750000Y-27500000D02*
X38750000Y-27500000D01*
%TO.N,Net-(R19-Pad1)*%
X37250000Y-25500000D02*
X38500000Y-24250000D01*
X36500000Y-25500000D02*
X37250000Y-25500000D01*
X36500000Y-22250000D02*
X38500000Y-24250000D01*
%TO.N,Net-(U4-VOUT)*%
X53514000Y-23635000D02*
X52949500Y-24199500D01*
X50474999Y-56980000D02*
X49500000Y-56980000D01*
X52949500Y-24199500D02*
X52949500Y-49550500D01*
X52000000Y-50500000D02*
X52000000Y-55454999D01*
X52949500Y-49550500D02*
X52000000Y-50500000D01*
X49230000Y-56710000D02*
X49500000Y-56980000D01*
X52000000Y-55454999D02*
X50474999Y-56980000D01*
X56376800Y-23635000D02*
X53514000Y-23635000D01*
X48000000Y-56710000D02*
X49230000Y-56710000D01*
%TO.N,Net-(U3-VOUT)*%
X52550000Y-57100000D02*
X52500000Y-57050000D01*
X55224695Y-30750000D02*
X55339695Y-30635000D01*
X53399500Y-49850500D02*
X53399500Y-31600500D01*
X55339695Y-30635000D02*
X56376800Y-30635000D01*
X49310000Y-59710000D02*
X49500000Y-59520000D01*
X52500000Y-57050000D02*
X52500000Y-50750000D01*
X48000000Y-59710000D02*
X49310000Y-59710000D01*
X52500000Y-50750000D02*
X53399500Y-49850500D01*
X53399500Y-31600500D02*
X54250000Y-30750000D01*
X54250000Y-30750000D02*
X55224695Y-30750000D01*
%TO.N,Net-(U5C-+)*%
X53849500Y-49500000D02*
X53849500Y-39250000D01*
X53849500Y-39250000D02*
X55464500Y-37635000D01*
X53475001Y-56980000D02*
X54450000Y-56980000D01*
X55464500Y-37635000D02*
X56376800Y-37635000D01*
X53000000Y-51000000D02*
X53000000Y-56504999D01*
X53849500Y-49500000D02*
X53849500Y-49908403D01*
X53849500Y-49908403D02*
X54068851Y-50127754D01*
X53872246Y-50127754D02*
X53000000Y-51000000D01*
X53000000Y-56504999D02*
X53475001Y-56980000D01*
X53849500Y-50036896D02*
X53849500Y-49500000D01*
X54068851Y-50127754D02*
X53872246Y-50127754D01*
%TO.N,+3.3V*%
X56250000Y-74540000D02*
X56250000Y-81130000D01*
X50287500Y-74750000D02*
X50287500Y-74236097D01*
X50074848Y-70958848D02*
X50074848Y-71962652D01*
X41250000Y-75000000D02*
X41250000Y-78150000D01*
X49190800Y-72846700D02*
X50037500Y-72000000D01*
X50074848Y-71962652D02*
X50037500Y-72000000D01*
X41250000Y-71850000D02*
X41250000Y-75000000D01*
X49190800Y-73139397D02*
X49190800Y-72846700D01*
X56250000Y-81130000D02*
X56870000Y-81750000D01*
X50287500Y-74236097D02*
X49190800Y-73139397D01*
%TO.N,/RST*%
X42000000Y-62000000D02*
X42000000Y-68500000D01*
%TO.N,SWCLK*%
X51790000Y-76960000D02*
X51790000Y-81750000D01*
X52000000Y-76750000D02*
X51790000Y-76960000D01*
%TO.N,SWDIO*%
X52999503Y-76750000D02*
X52999503Y-80419503D01*
X52999503Y-80419503D02*
X54330000Y-81750000D01*
%TO.N,RX*%
X45500000Y-71750000D02*
X45500000Y-79260000D01*
X45500000Y-79260000D02*
X43010000Y-81750000D01*
%TO.N,TX*%
X50750000Y-79500000D02*
X50500000Y-79750000D01*
X50750000Y-77000000D02*
X50750000Y-79500000D01*
%TO.N,PA0*%
X49500000Y-61210000D02*
X49500000Y-62060000D01*
X49500000Y-60790000D02*
X49500000Y-61210000D01*
X49500000Y-68500000D02*
X49500000Y-62060000D01*
%TO.N,PA1*%
X48668363Y-63418363D02*
X48668363Y-67945576D01*
X46250000Y-57500000D02*
X47275000Y-58525000D01*
X49500000Y-54440000D02*
X49500000Y-55210000D01*
X47275000Y-58525000D02*
X47275000Y-62025000D01*
X46250000Y-54500000D02*
X46250000Y-57500000D01*
X47275000Y-62025000D02*
X48668363Y-63418363D01*
X49500000Y-55210000D02*
X49500000Y-55710000D01*
%TO.N,PA2*%
X54450000Y-55000000D02*
X54450000Y-55710000D01*
X54000000Y-71250000D02*
X54000000Y-68500000D01*
X55750000Y-56300000D02*
X54450000Y-55000000D01*
X54000000Y-68500000D02*
X55750000Y-66750000D01*
X54450000Y-54440000D02*
X54450000Y-55000000D01*
X55750000Y-66750000D02*
X55750000Y-56300000D01*
%TO.N,Net-(MP2-Pad1)*%
X33500000Y-44500000D02*
X33000000Y-45000000D01*
X36000000Y-44500000D02*
X33500000Y-44500000D01*
%TD*%
%TA.AperFunction,Conductor*%
%TO.N,-BATT*%
G36*
X33002208Y-20000157D02*
G01*
X33275790Y-20019724D01*
X33293291Y-20022241D01*
X33554803Y-20079129D01*
X33571762Y-20084108D01*
X33822524Y-20177638D01*
X33838616Y-20184987D01*
X34073501Y-20313244D01*
X34088375Y-20322802D01*
X34302624Y-20483188D01*
X34315994Y-20494774D01*
X34505225Y-20684005D01*
X34516811Y-20697375D01*
X34677193Y-20911619D01*
X34686758Y-20926503D01*
X34815011Y-21161382D01*
X34822361Y-21177475D01*
X34915888Y-21428229D01*
X34920872Y-21445205D01*
X34977757Y-21706702D01*
X34980275Y-21724214D01*
X34999842Y-21997789D01*
X35000000Y-22002213D01*
X35000000Y-39073525D01*
X34981539Y-39138621D01*
X34940189Y-39205659D01*
X34940186Y-39205666D01*
X34885001Y-39372203D01*
X34885001Y-39372204D01*
X34885000Y-39372204D01*
X34874500Y-39474983D01*
X34874500Y-40525001D01*
X34874501Y-40525019D01*
X34885000Y-40627796D01*
X34885001Y-40627799D01*
X34940187Y-40794336D01*
X34941533Y-40796518D01*
X34942000Y-40798226D01*
X34943240Y-40800885D01*
X34942785Y-40801096D01*
X34959974Y-40863910D01*
X34957161Y-40887974D01*
X34920872Y-41054795D01*
X34915888Y-41071771D01*
X34822361Y-41322524D01*
X34815011Y-41338617D01*
X34686758Y-41573496D01*
X34677193Y-41588380D01*
X34516811Y-41802624D01*
X34505225Y-41815994D01*
X34315994Y-42005225D01*
X34302624Y-42016811D01*
X34088380Y-42177193D01*
X34073496Y-42186758D01*
X33838617Y-42315011D01*
X33822524Y-42322361D01*
X33571770Y-42415888D01*
X33554794Y-42420872D01*
X33293297Y-42477757D01*
X33275785Y-42480275D01*
X33027448Y-42498036D01*
X33002208Y-42499842D01*
X32997786Y-42500000D01*
X26000000Y-42500000D01*
X25715364Y-42520357D01*
X25436541Y-42581012D01*
X25436536Y-42581013D01*
X25436535Y-42581014D01*
X25371892Y-42605124D01*
X25169168Y-42680736D01*
X25169164Y-42680738D01*
X24918723Y-42817489D01*
X24918722Y-42817490D01*
X24690280Y-42988500D01*
X24690268Y-42988510D01*
X24488510Y-43190268D01*
X24488500Y-43190280D01*
X24317490Y-43418722D01*
X24317489Y-43418723D01*
X24180738Y-43669164D01*
X24180736Y-43669168D01*
X24081012Y-43936541D01*
X24020357Y-44215364D01*
X24000000Y-44500000D01*
X24000000Y-66997786D01*
X23999842Y-67002210D01*
X23980275Y-67275785D01*
X23977757Y-67293297D01*
X23920872Y-67554794D01*
X23915888Y-67571770D01*
X23822361Y-67822524D01*
X23815011Y-67838617D01*
X23686758Y-68073496D01*
X23677193Y-68088380D01*
X23516811Y-68302624D01*
X23505225Y-68315994D01*
X23315994Y-68505225D01*
X23302624Y-68516811D01*
X23088380Y-68677193D01*
X23073496Y-68686758D01*
X22838617Y-68815011D01*
X22822524Y-68822361D01*
X22571770Y-68915888D01*
X22554794Y-68920872D01*
X22293297Y-68977757D01*
X22275785Y-68980275D01*
X22027448Y-68998036D01*
X22002208Y-68999842D01*
X21997786Y-69000000D01*
X16002214Y-69000000D01*
X15997791Y-68999842D01*
X15969503Y-68997818D01*
X15724214Y-68980275D01*
X15706702Y-68977757D01*
X15445205Y-68920872D01*
X15428229Y-68915888D01*
X15177475Y-68822361D01*
X15161382Y-68815011D01*
X14926503Y-68686758D01*
X14911619Y-68677193D01*
X14697375Y-68516811D01*
X14684005Y-68505225D01*
X14494774Y-68315994D01*
X14483188Y-68302624D01*
X14322802Y-68088375D01*
X14313244Y-68073501D01*
X14184987Y-67838616D01*
X14177638Y-67822524D01*
X14084108Y-67571762D01*
X14079129Y-67554803D01*
X14022241Y-67293291D01*
X14019724Y-67275785D01*
X14000158Y-67002210D01*
X14000000Y-66997786D01*
X14000000Y-32184371D01*
X21199500Y-32184371D01*
X21239367Y-32550946D01*
X21318635Y-32911065D01*
X21378983Y-33090172D01*
X21436375Y-33260503D01*
X21436377Y-33260508D01*
X21436379Y-33260513D01*
X21591200Y-33595153D01*
X21591202Y-33595157D01*
X21591204Y-33595161D01*
X21591205Y-33595162D01*
X21781310Y-33911119D01*
X22004462Y-34204670D01*
X22258044Y-34472373D01*
X22539083Y-34711090D01*
X22844284Y-34918022D01*
X22844288Y-34918024D01*
X22844291Y-34918026D01*
X23026172Y-35014453D01*
X23170070Y-35090743D01*
X23512621Y-35227227D01*
X23512627Y-35227228D01*
X23512628Y-35227229D01*
X23512634Y-35227231D01*
X23788226Y-35303748D01*
X23867919Y-35325875D01*
X23867930Y-35325876D01*
X23867931Y-35325877D01*
X24231786Y-35385529D01*
X24231790Y-35385529D01*
X24231801Y-35385531D01*
X24507890Y-35400500D01*
X24507892Y-35400500D01*
X24692108Y-35400500D01*
X24692110Y-35400500D01*
X24968199Y-35385531D01*
X24968210Y-35385529D01*
X24968213Y-35385529D01*
X25302857Y-35330666D01*
X25332081Y-35325875D01*
X25687379Y-35227227D01*
X26029930Y-35090743D01*
X26355716Y-34918022D01*
X26660917Y-34711090D01*
X26941956Y-34472373D01*
X27195538Y-34204670D01*
X27418690Y-33911119D01*
X27608795Y-33595162D01*
X27763625Y-33260503D01*
X27881364Y-32911066D01*
X27960632Y-32550948D01*
X28000500Y-32184370D01*
X28000500Y-31815630D01*
X27960632Y-31449052D01*
X27881364Y-31088934D01*
X27763625Y-30739497D01*
X27608795Y-30404838D01*
X27418690Y-30088881D01*
X27195538Y-29795330D01*
X26941956Y-29527627D01*
X26660917Y-29288910D01*
X26355716Y-29081978D01*
X26355713Y-29081976D01*
X26355708Y-29081973D01*
X26029938Y-28909261D01*
X26029926Y-28909255D01*
X25687371Y-28772770D01*
X25687365Y-28772768D01*
X25332094Y-28674128D01*
X25332068Y-28674122D01*
X24968213Y-28614470D01*
X24968200Y-28614469D01*
X24968199Y-28614469D01*
X24692110Y-28599500D01*
X24507890Y-28599500D01*
X24231801Y-28614469D01*
X24231799Y-28614469D01*
X24231786Y-28614470D01*
X23867931Y-28674122D01*
X23867905Y-28674128D01*
X23512634Y-28772768D01*
X23512628Y-28772770D01*
X23170073Y-28909255D01*
X23170061Y-28909261D01*
X22844291Y-29081973D01*
X22844282Y-29081979D01*
X22539083Y-29288909D01*
X22258044Y-29527626D01*
X22004462Y-29795330D01*
X22004461Y-29795330D01*
X21857685Y-29988410D01*
X21781310Y-30088881D01*
X21781309Y-30088883D01*
X21591202Y-30404842D01*
X21591200Y-30404846D01*
X21436379Y-30739486D01*
X21318635Y-31088934D01*
X21239367Y-31449053D01*
X21199500Y-31815628D01*
X21199500Y-32184371D01*
X14000000Y-32184371D01*
X14000000Y-22002213D01*
X14000158Y-21997789D01*
X14019724Y-21724214D01*
X14022240Y-21706710D01*
X14079130Y-21445192D01*
X14084107Y-21428241D01*
X14177640Y-21177470D01*
X14184985Y-21161388D01*
X14313248Y-20926491D01*
X14322798Y-20911630D01*
X14483195Y-20697366D01*
X14494767Y-20684012D01*
X14684012Y-20494767D01*
X14697366Y-20483195D01*
X14911630Y-20322798D01*
X14926491Y-20313248D01*
X15161388Y-20184985D01*
X15177470Y-20177640D01*
X15428241Y-20084107D01*
X15445192Y-20079130D01*
X15706710Y-20022240D01*
X15724207Y-20019724D01*
X15997791Y-20000157D01*
X16002214Y-20000000D01*
X32997786Y-20000000D01*
X33002208Y-20000157D01*
G37*
%TD.AperFunction*%
%TD*%
%TA.AperFunction,Conductor*%
%TO.N,-BATT*%
G36*
X48002208Y-19500157D02*
G01*
X48275790Y-19519724D01*
X48293291Y-19522241D01*
X48554803Y-19579129D01*
X48571762Y-19584108D01*
X48822524Y-19677638D01*
X48838616Y-19684987D01*
X49073501Y-19813244D01*
X49088375Y-19822802D01*
X49302624Y-19983188D01*
X49315994Y-19994774D01*
X49505225Y-20184005D01*
X49516811Y-20197375D01*
X49597878Y-20305668D01*
X49677193Y-20411619D01*
X49686758Y-20426503D01*
X49815011Y-20661382D01*
X49822361Y-20677475D01*
X49915888Y-20928229D01*
X49920872Y-20945205D01*
X49977757Y-21206702D01*
X49980275Y-21224214D01*
X49995100Y-21431492D01*
X49998704Y-21481886D01*
X49999842Y-21497789D01*
X50000000Y-21502213D01*
X50000000Y-40964811D01*
X49983387Y-41026811D01*
X49922821Y-41131714D01*
X49870699Y-41292129D01*
X49864326Y-41311744D01*
X49844540Y-41500000D01*
X49864326Y-41688256D01*
X49864327Y-41688259D01*
X49922818Y-41868277D01*
X49922821Y-41868284D01*
X49977883Y-41963655D01*
X49983387Y-41973187D01*
X50000000Y-42035187D01*
X50000000Y-42997786D01*
X49999842Y-43002210D01*
X49980275Y-43275785D01*
X49977757Y-43293297D01*
X49920872Y-43554794D01*
X49915888Y-43571770D01*
X49822361Y-43822524D01*
X49815011Y-43838617D01*
X49686758Y-44073496D01*
X49677193Y-44088380D01*
X49516811Y-44302624D01*
X49505225Y-44315994D01*
X49315994Y-44505225D01*
X49302624Y-44516811D01*
X49088380Y-44677193D01*
X49073495Y-44686759D01*
X49032805Y-44708977D01*
X48964532Y-44723828D01*
X48899068Y-44699411D01*
X48857197Y-44643477D01*
X48852213Y-44573785D01*
X48860997Y-44547738D01*
X48881631Y-44503487D01*
X48881633Y-44503483D01*
X48942767Y-44275326D01*
X48942769Y-44275315D01*
X48963357Y-44040001D01*
X48963357Y-44039998D01*
X48942769Y-43804684D01*
X48942767Y-43804673D01*
X48881633Y-43576516D01*
X48881629Y-43576507D01*
X48781800Y-43362423D01*
X48781799Y-43362421D01*
X48723125Y-43278626D01*
X48723125Y-43278625D01*
X48087489Y-43914261D01*
X48063373Y-43832129D01*
X47986372Y-43712312D01*
X47878733Y-43619043D01*
X47749177Y-43559876D01*
X47736581Y-43558065D01*
X48369573Y-42925073D01*
X48369573Y-42925072D01*
X48293605Y-42871880D01*
X48249980Y-42817304D01*
X48242786Y-42747805D01*
X48274308Y-42685451D01*
X48293599Y-42668734D01*
X48479601Y-42538495D01*
X48646695Y-42371401D01*
X48782235Y-42177830D01*
X48882103Y-41963663D01*
X48943263Y-41735408D01*
X48963859Y-41500000D01*
X48943263Y-41264592D01*
X48882103Y-41036337D01*
X48782235Y-40822171D01*
X48768322Y-40802300D01*
X48646694Y-40628597D01*
X48479602Y-40461506D01*
X48479595Y-40461501D01*
X48286034Y-40325967D01*
X48286030Y-40325965D01*
X48169324Y-40271544D01*
X48071863Y-40226097D01*
X48071859Y-40226096D01*
X48071855Y-40226094D01*
X47843613Y-40164938D01*
X47843603Y-40164936D01*
X47650342Y-40148028D01*
X47641069Y-40144400D01*
X47638588Y-40145340D01*
X47618350Y-40145228D01*
X47608208Y-40144341D01*
X47608199Y-40144341D01*
X47372796Y-40164936D01*
X47372786Y-40164938D01*
X47144544Y-40226094D01*
X47144530Y-40226099D01*
X47008412Y-40289572D01*
X46939335Y-40300064D01*
X46875551Y-40271544D01*
X46838302Y-40216192D01*
X46834814Y-40205666D01*
X46742712Y-40056344D01*
X46618656Y-39932288D01*
X46618652Y-39932285D01*
X46589716Y-39914437D01*
X46542991Y-39862489D01*
X46531770Y-39793527D01*
X46559613Y-39729445D01*
X46617682Y-39690589D01*
X46654810Y-39684899D01*
X47120371Y-39684899D01*
X47187410Y-39704584D01*
X47193256Y-39708581D01*
X47297265Y-39784148D01*
X47297270Y-39784151D01*
X47470192Y-39861142D01*
X47470193Y-39861142D01*
X47470197Y-39861144D01*
X47654934Y-39900410D01*
X47656041Y-39901008D01*
X47661150Y-39900500D01*
X47844644Y-39900500D01*
X47844646Y-39900500D01*
X48029803Y-39861144D01*
X48202730Y-39784151D01*
X48355871Y-39672888D01*
X48482533Y-39532216D01*
X48577179Y-39368284D01*
X48635674Y-39188256D01*
X48655460Y-39000000D01*
X48635674Y-38811744D01*
X48577179Y-38631716D01*
X48482533Y-38467784D01*
X48355871Y-38327112D01*
X48355870Y-38327111D01*
X48202734Y-38215851D01*
X48202729Y-38215848D01*
X48029807Y-38138857D01*
X48029802Y-38138855D01*
X47954997Y-38122955D01*
X47893515Y-38089762D01*
X47859739Y-38028599D01*
X47857489Y-37988413D01*
X47860300Y-37962273D01*
X47860299Y-37307728D01*
X47854095Y-37250013D01*
X47853891Y-37248116D01*
X47803597Y-37113272D01*
X47803596Y-37113269D01*
X47774429Y-37074307D01*
X47750013Y-37008848D01*
X47764864Y-36940575D01*
X47774421Y-36925702D01*
X47803596Y-36886731D01*
X47853891Y-36751883D01*
X47860300Y-36692273D01*
X47860299Y-36037728D01*
X47853891Y-35978117D01*
X47803596Y-35843269D01*
X47774429Y-35804307D01*
X47750013Y-35738848D01*
X47764864Y-35670575D01*
X47774421Y-35655702D01*
X47803596Y-35616731D01*
X47853891Y-35481883D01*
X47860300Y-35422273D01*
X47860299Y-34767728D01*
X47853891Y-34708117D01*
X47851883Y-34702734D01*
X47803597Y-34573271D01*
X47803593Y-34573264D01*
X47717347Y-34458055D01*
X47717344Y-34458052D01*
X47602135Y-34371806D01*
X47602128Y-34371802D01*
X47467282Y-34321508D01*
X47467283Y-34321508D01*
X47407683Y-34315101D01*
X47407681Y-34315100D01*
X47407673Y-34315100D01*
X47407665Y-34315100D01*
X46779253Y-34315100D01*
X46712214Y-34295415D01*
X46691572Y-34278781D01*
X45755294Y-33342503D01*
X45721809Y-33281180D01*
X45719618Y-33267430D01*
X45714999Y-33222203D01*
X45659814Y-33055666D01*
X45567712Y-32906344D01*
X45459344Y-32797976D01*
X45444722Y-32771199D01*
X45428280Y-32770023D01*
X45406518Y-32759381D01*
X45294340Y-32690189D01*
X45294335Y-32690187D01*
X45294334Y-32690186D01*
X45194217Y-32657010D01*
X45136773Y-32617238D01*
X45109950Y-32552722D01*
X45115290Y-32500988D01*
X45135674Y-32438256D01*
X45149142Y-32310106D01*
X45175726Y-32245493D01*
X45233024Y-32205508D01*
X45302843Y-32202848D01*
X45363016Y-32238357D01*
X45388143Y-32285232D01*
X45389798Y-32284615D01*
X45442802Y-32426728D01*
X45442806Y-32426735D01*
X45507129Y-32512658D01*
X45529054Y-32541946D01*
X45545926Y-32554576D01*
X45576078Y-32594855D01*
X45606452Y-32601463D01*
X45621336Y-32611028D01*
X45641032Y-32625773D01*
X45644268Y-32628195D01*
X45644271Y-32628197D01*
X45779117Y-32678491D01*
X45779116Y-32678491D01*
X45786044Y-32679235D01*
X45838727Y-32684900D01*
X47407672Y-32684899D01*
X47467283Y-32678491D01*
X47602131Y-32628196D01*
X47717346Y-32541946D01*
X47803596Y-32426731D01*
X47853891Y-32291883D01*
X47860300Y-32232273D01*
X47860299Y-32035990D01*
X47866368Y-31997670D01*
X47885674Y-31938256D01*
X47905460Y-31750000D01*
X47885674Y-31561744D01*
X47827179Y-31381716D01*
X47784469Y-31307741D01*
X47767997Y-31239842D01*
X47790850Y-31173815D01*
X47792542Y-31171496D01*
X47803596Y-31156731D01*
X47853891Y-31021883D01*
X47860300Y-30962273D01*
X47860299Y-30307728D01*
X47853891Y-30248117D01*
X47823295Y-30166086D01*
X47803597Y-30113272D01*
X47803596Y-30113269D01*
X47774429Y-30074307D01*
X47750013Y-30008848D01*
X47764864Y-29940575D01*
X47774421Y-29925702D01*
X47803596Y-29886731D01*
X47853891Y-29751883D01*
X47860300Y-29692273D01*
X47860299Y-29037728D01*
X47853891Y-28978117D01*
X47849915Y-28967458D01*
X47811771Y-28865187D01*
X47803596Y-28843269D01*
X47774429Y-28804307D01*
X47750013Y-28738848D01*
X47764864Y-28670575D01*
X47774421Y-28655702D01*
X47803596Y-28616731D01*
X47853891Y-28481883D01*
X47860300Y-28422273D01*
X47860299Y-27767728D01*
X47853891Y-27708117D01*
X47846484Y-27688259D01*
X47803597Y-27573271D01*
X47803593Y-27573264D01*
X47717347Y-27458055D01*
X47717344Y-27458052D01*
X47602135Y-27371806D01*
X47602128Y-27371802D01*
X47467282Y-27321508D01*
X47467283Y-27321508D01*
X47407683Y-27315101D01*
X47407681Y-27315100D01*
X47407673Y-27315100D01*
X47407664Y-27315100D01*
X45838729Y-27315100D01*
X45838723Y-27315101D01*
X45779116Y-27321508D01*
X45644271Y-27371802D01*
X45644264Y-27371806D01*
X45529055Y-27458052D01*
X45529052Y-27458055D01*
X45442806Y-27573264D01*
X45442802Y-27573271D01*
X45394139Y-27703746D01*
X45392509Y-27708117D01*
X45386100Y-27767727D01*
X45386100Y-27767734D01*
X45386100Y-27767735D01*
X45386100Y-28422270D01*
X45386101Y-28422276D01*
X45392508Y-28481883D01*
X45442802Y-28616728D01*
X45442803Y-28616730D01*
X45471968Y-28655690D01*
X45496384Y-28721155D01*
X45481532Y-28789428D01*
X45471968Y-28804310D01*
X45442803Y-28843269D01*
X45442802Y-28843271D01*
X45392508Y-28978117D01*
X45390723Y-28994724D01*
X45386101Y-29037723D01*
X45386100Y-29037735D01*
X45386100Y-29595772D01*
X45366415Y-29662811D01*
X45313611Y-29708566D01*
X45312539Y-29709050D01*
X45297268Y-29715849D01*
X45144129Y-29827111D01*
X45144128Y-29827112D01*
X45091649Y-29885396D01*
X45032162Y-29922044D01*
X44962305Y-29920713D01*
X44904257Y-29881826D01*
X44876448Y-29817729D01*
X44875500Y-29802423D01*
X44875500Y-25898616D01*
X44895185Y-25831577D01*
X44947989Y-25785822D01*
X45017147Y-25775878D01*
X45049927Y-25785334D01*
X45220197Y-25861144D01*
X45405354Y-25900500D01*
X45405355Y-25900500D01*
X45594644Y-25900500D01*
X45594646Y-25900500D01*
X45779803Y-25861144D01*
X45952730Y-25784151D01*
X45964117Y-25775878D01*
X46056744Y-25708581D01*
X46122550Y-25685101D01*
X46129629Y-25684899D01*
X47407671Y-25684899D01*
X47407672Y-25684899D01*
X47467283Y-25678491D01*
X47602131Y-25628196D01*
X47717346Y-25541946D01*
X47803596Y-25426731D01*
X47853891Y-25291883D01*
X47860300Y-25232273D01*
X47860299Y-24577728D01*
X47853891Y-24518117D01*
X47852263Y-24513753D01*
X47803597Y-24383272D01*
X47803596Y-24383269D01*
X47774429Y-24344307D01*
X47750013Y-24278848D01*
X47764864Y-24210575D01*
X47774421Y-24195702D01*
X47803596Y-24156731D01*
X47853891Y-24021883D01*
X47860300Y-23962273D01*
X47860299Y-23307728D01*
X47855099Y-23259357D01*
X47853891Y-23248116D01*
X47803597Y-23113272D01*
X47803596Y-23113269D01*
X47774429Y-23074307D01*
X47750013Y-23008848D01*
X47764864Y-22940575D01*
X47774421Y-22925702D01*
X47803596Y-22886731D01*
X47853891Y-22751883D01*
X47860300Y-22692273D01*
X47860299Y-22037728D01*
X47853891Y-21978117D01*
X47803596Y-21843269D01*
X47774429Y-21804307D01*
X47750013Y-21738848D01*
X47764864Y-21670575D01*
X47774421Y-21655702D01*
X47803596Y-21616731D01*
X47853891Y-21481883D01*
X47860300Y-21422273D01*
X47860299Y-20767728D01*
X47853891Y-20708117D01*
X47843094Y-20679170D01*
X47803597Y-20573271D01*
X47803593Y-20573264D01*
X47717347Y-20458055D01*
X47717344Y-20458052D01*
X47602135Y-20371806D01*
X47602128Y-20371802D01*
X47467282Y-20321508D01*
X47467283Y-20321508D01*
X47407683Y-20315101D01*
X47407681Y-20315100D01*
X47407673Y-20315100D01*
X47407664Y-20315100D01*
X45838729Y-20315100D01*
X45838723Y-20315101D01*
X45779112Y-20321509D01*
X45771569Y-20323292D01*
X45770835Y-20320189D01*
X45715741Y-20324107D01*
X45654432Y-20290597D01*
X45636611Y-20268048D01*
X45591710Y-20195252D01*
X45567712Y-20156344D01*
X45443656Y-20032288D01*
X45294334Y-19940186D01*
X45127797Y-19885001D01*
X45127795Y-19885000D01*
X45025010Y-19874500D01*
X43974998Y-19874500D01*
X43974980Y-19874501D01*
X43872203Y-19885000D01*
X43872200Y-19885001D01*
X43705668Y-19940185D01*
X43705663Y-19940187D01*
X43556342Y-20032289D01*
X43432289Y-20156342D01*
X43340187Y-20305663D01*
X43340185Y-20305668D01*
X43334936Y-20321508D01*
X43285001Y-20472203D01*
X43285001Y-20472204D01*
X43285000Y-20472204D01*
X43274500Y-20574983D01*
X43274500Y-21318213D01*
X43254815Y-21385252D01*
X43202011Y-21431007D01*
X43132853Y-21440951D01*
X43100064Y-21431492D01*
X43004306Y-21388857D01*
X43004302Y-21388855D01*
X42858501Y-21357865D01*
X42819146Y-21349500D01*
X42629854Y-21349500D01*
X42597397Y-21356398D01*
X42444697Y-21388855D01*
X42444692Y-21388857D01*
X42271770Y-21465848D01*
X42271765Y-21465851D01*
X42118630Y-21577110D01*
X42118626Y-21577114D01*
X42112900Y-21583474D01*
X42053413Y-21620121D01*
X42020752Y-21624500D01*
X41731058Y-21624500D01*
X41664019Y-21604815D01*
X41625519Y-21565597D01*
X41586424Y-21502213D01*
X41542712Y-21431344D01*
X41418656Y-21307288D01*
X41283971Y-21224214D01*
X41269336Y-21215187D01*
X41269331Y-21215185D01*
X41243731Y-21206702D01*
X41102797Y-21160001D01*
X41102795Y-21160000D01*
X41000010Y-21149500D01*
X39999998Y-21149500D01*
X39999980Y-21149501D01*
X39897203Y-21160000D01*
X39897200Y-21160001D01*
X39730668Y-21215185D01*
X39730663Y-21215187D01*
X39581338Y-21307292D01*
X39577042Y-21310689D01*
X39512243Y-21336821D01*
X39443603Y-21323772D01*
X39412462Y-21301094D01*
X39318657Y-21207289D01*
X39318656Y-21207288D01*
X39169334Y-21115186D01*
X39002797Y-21060001D01*
X39002795Y-21060000D01*
X38900010Y-21049500D01*
X38099998Y-21049500D01*
X38099980Y-21049501D01*
X37997203Y-21060000D01*
X37997200Y-21060001D01*
X37830668Y-21115185D01*
X37830663Y-21115187D01*
X37681342Y-21207289D01*
X37587681Y-21300951D01*
X37526358Y-21334436D01*
X37456666Y-21329452D01*
X37412319Y-21300951D01*
X37318657Y-21207289D01*
X37318656Y-21207288D01*
X37169334Y-21115186D01*
X37002797Y-21060001D01*
X37002795Y-21060000D01*
X36900010Y-21049500D01*
X36099998Y-21049500D01*
X36099980Y-21049501D01*
X35997203Y-21060000D01*
X35997200Y-21060001D01*
X35830668Y-21115185D01*
X35830663Y-21115187D01*
X35681342Y-21207289D01*
X35557289Y-21331342D01*
X35488610Y-21442689D01*
X35436662Y-21489414D01*
X35367699Y-21500635D01*
X35303617Y-21472792D01*
X35264761Y-21414723D01*
X35259387Y-21368746D01*
X35269724Y-21224207D01*
X35272240Y-21206710D01*
X35329130Y-20945192D01*
X35334107Y-20928241D01*
X35427640Y-20677470D01*
X35434985Y-20661388D01*
X35563248Y-20426491D01*
X35572798Y-20411630D01*
X35733195Y-20197366D01*
X35744767Y-20184012D01*
X35934012Y-19994767D01*
X35947366Y-19983195D01*
X36161630Y-19822798D01*
X36176491Y-19813248D01*
X36411388Y-19684985D01*
X36427470Y-19677640D01*
X36678241Y-19584107D01*
X36695192Y-19579130D01*
X36956710Y-19522240D01*
X36974207Y-19519724D01*
X37247791Y-19500157D01*
X37252214Y-19500000D01*
X47997786Y-19500000D01*
X48002208Y-19500157D01*
G37*
%TD.AperFunction*%
%TA.AperFunction,Conductor*%
G36*
X41976711Y-33032375D02*
G01*
X41980657Y-33034809D01*
X41980660Y-33034810D01*
X41980666Y-33034814D01*
X42147203Y-33089999D01*
X42238103Y-33099285D01*
X42302794Y-33125681D01*
X42342945Y-33182861D01*
X42349500Y-33222643D01*
X42349500Y-34964546D01*
X42329815Y-35031585D01*
X42313185Y-35052223D01*
X42302232Y-35063177D01*
X42240911Y-35096665D01*
X42214547Y-35099500D01*
X42155354Y-35099500D01*
X42122897Y-35106398D01*
X41970197Y-35138855D01*
X41970192Y-35138857D01*
X41797270Y-35215848D01*
X41797265Y-35215851D01*
X41644129Y-35327111D01*
X41517466Y-35467785D01*
X41422821Y-35631715D01*
X41422818Y-35631722D01*
X41364327Y-35811740D01*
X41364326Y-35811744D01*
X41344540Y-36000000D01*
X41364326Y-36188256D01*
X41364327Y-36188259D01*
X41422818Y-36368277D01*
X41422821Y-36368284D01*
X41517467Y-36532216D01*
X41572788Y-36593656D01*
X41599657Y-36623497D01*
X41629887Y-36686488D01*
X41621262Y-36755824D01*
X41595189Y-36794149D01*
X41557684Y-36831654D01*
X41465643Y-36980875D01*
X41465641Y-36980880D01*
X41410494Y-37147302D01*
X41410493Y-37147309D01*
X41400000Y-37250013D01*
X41400000Y-37500000D01*
X42626000Y-37500000D01*
X42693039Y-37519685D01*
X42738794Y-37572489D01*
X42750000Y-37624000D01*
X42750000Y-38949999D01*
X42899972Y-38949999D01*
X42899986Y-38949998D01*
X43002697Y-38939505D01*
X43169119Y-38884358D01*
X43169124Y-38884356D01*
X43318342Y-38792317D01*
X43411964Y-38698695D01*
X43473287Y-38665210D01*
X43542979Y-38670194D01*
X43587327Y-38698695D01*
X43681344Y-38792712D01*
X43830666Y-38884814D01*
X43997203Y-38939999D01*
X44099991Y-38950500D01*
X44900008Y-38950499D01*
X44900016Y-38950498D01*
X44900019Y-38950498D01*
X44976238Y-38942712D01*
X45002797Y-38939999D01*
X45169334Y-38884814D01*
X45197003Y-38867747D01*
X45264393Y-38849306D01*
X45331057Y-38870227D01*
X45375827Y-38923868D01*
X45386100Y-38973285D01*
X45386100Y-39232269D01*
X45386101Y-39232276D01*
X45392508Y-39291883D01*
X45442802Y-39426728D01*
X45442806Y-39426735D01*
X45529052Y-39541944D01*
X45529053Y-39541945D01*
X45541460Y-39551233D01*
X45583332Y-39607166D01*
X45588316Y-39676858D01*
X45554831Y-39738181D01*
X45493508Y-39771666D01*
X45467150Y-39774500D01*
X44799998Y-39774500D01*
X44799981Y-39774501D01*
X44697203Y-39785000D01*
X44697200Y-39785001D01*
X44530668Y-39840185D01*
X44530663Y-39840187D01*
X44381342Y-39932289D01*
X44337326Y-39976305D01*
X44276003Y-40009789D01*
X44206311Y-40004804D01*
X44161965Y-39976304D01*
X44118345Y-39932684D01*
X43969124Y-39840643D01*
X43969119Y-39840641D01*
X43802697Y-39785494D01*
X43802690Y-39785493D01*
X43699986Y-39775000D01*
X43250000Y-39775000D01*
X43250000Y-42099999D01*
X43699972Y-42099999D01*
X43699986Y-42099998D01*
X43802697Y-42089505D01*
X43969119Y-42034358D01*
X43969124Y-42034356D01*
X44118345Y-41942315D01*
X44161964Y-41898696D01*
X44223287Y-41865210D01*
X44292978Y-41870194D01*
X44337327Y-41898695D01*
X44381344Y-41942712D01*
X44530666Y-42034814D01*
X44697203Y-42089999D01*
X44799991Y-42100500D01*
X46200008Y-42100499D01*
X46301381Y-42090143D01*
X46370070Y-42102912D01*
X46420955Y-42150793D01*
X46426362Y-42161096D01*
X46434165Y-42177830D01*
X46434167Y-42177834D01*
X46460786Y-42215849D01*
X46569705Y-42371401D01*
X46736799Y-42538495D01*
X46845292Y-42614463D01*
X46922794Y-42668730D01*
X46966419Y-42723307D01*
X46973613Y-42792805D01*
X46942090Y-42855160D01*
X46922795Y-42871880D01*
X46737115Y-43001894D01*
X46726622Y-43012387D01*
X46665297Y-43045868D01*
X46595605Y-43040879D01*
X46573850Y-43030239D01*
X46469124Y-42965643D01*
X46469119Y-42965641D01*
X46302697Y-42910494D01*
X46302690Y-42910493D01*
X46199986Y-42900000D01*
X45750000Y-42900000D01*
X45750000Y-44188500D01*
X45730315Y-44255539D01*
X45677511Y-44301294D01*
X45626000Y-44312500D01*
X45374000Y-44312500D01*
X45306961Y-44292815D01*
X45261206Y-44240011D01*
X45250000Y-44188500D01*
X45250000Y-42900000D01*
X44800028Y-42900000D01*
X44800012Y-42900001D01*
X44697302Y-42910494D01*
X44530880Y-42965641D01*
X44530875Y-42965643D01*
X44381654Y-43057684D01*
X44338033Y-43101305D01*
X44276710Y-43134789D01*
X44207018Y-43129804D01*
X44162672Y-43101304D01*
X44118657Y-43057289D01*
X44118656Y-43057288D01*
X43969334Y-42965186D01*
X43802797Y-42910001D01*
X43802795Y-42910000D01*
X43700010Y-42899500D01*
X42299998Y-42899500D01*
X42299981Y-42899501D01*
X42197203Y-42910000D01*
X42197200Y-42910001D01*
X42030668Y-42965185D01*
X42030663Y-42965187D01*
X41881345Y-43057287D01*
X41796045Y-43142587D01*
X41734721Y-43176071D01*
X41665030Y-43171087D01*
X41620683Y-43142587D01*
X41579400Y-43101304D01*
X41479601Y-43001505D01*
X41333923Y-42899500D01*
X41293605Y-42871269D01*
X41249981Y-42816692D01*
X41242788Y-42747193D01*
X41274310Y-42684839D01*
X41293605Y-42668119D01*
X41369573Y-42614925D01*
X40736582Y-41981934D01*
X40749177Y-41980124D01*
X40878733Y-41920957D01*
X40986372Y-41827688D01*
X41063373Y-41707871D01*
X41087489Y-41625737D01*
X41723125Y-42261373D01*
X41723126Y-42261373D01*
X41781798Y-42177582D01*
X41781802Y-42177574D01*
X41830418Y-42073317D01*
X41876590Y-42020877D01*
X41943783Y-42001725D01*
X42007899Y-42020183D01*
X42030878Y-42034357D01*
X42030880Y-42034358D01*
X42197302Y-42089505D01*
X42197309Y-42089506D01*
X42300019Y-42099999D01*
X42749999Y-42099999D01*
X42750000Y-42099998D01*
X42750000Y-39775000D01*
X42300028Y-39775000D01*
X42300012Y-39775001D01*
X42197302Y-39785494D01*
X42030880Y-39840641D01*
X42030875Y-39840643D01*
X41881654Y-39932684D01*
X41757684Y-40056654D01*
X41665643Y-40205875D01*
X41665641Y-40205880D01*
X41614078Y-40361487D01*
X41574305Y-40418932D01*
X41509789Y-40445755D01*
X41441013Y-40433440D01*
X41425248Y-40424058D01*
X41285778Y-40326400D01*
X41071692Y-40226570D01*
X41071683Y-40226566D01*
X40843526Y-40165432D01*
X40843515Y-40165430D01*
X40608202Y-40144843D01*
X40608198Y-40144843D01*
X40372884Y-40165430D01*
X40372873Y-40165432D01*
X40144716Y-40226566D01*
X40144707Y-40226570D01*
X39930619Y-40326401D01*
X39846825Y-40385072D01*
X40479818Y-41018065D01*
X40467223Y-41019876D01*
X40337667Y-41079043D01*
X40230028Y-41172312D01*
X40153027Y-41292129D01*
X40128909Y-41374262D01*
X39493272Y-40738625D01*
X39434601Y-40822419D01*
X39334770Y-41036507D01*
X39334766Y-41036516D01*
X39273632Y-41264673D01*
X39273630Y-41264684D01*
X39253043Y-41499998D01*
X39253043Y-41500002D01*
X39267029Y-41659867D01*
X39253262Y-41728367D01*
X39204647Y-41778550D01*
X39136618Y-41794483D01*
X39070775Y-41771107D01*
X39037962Y-41735770D01*
X38942712Y-41581344D01*
X38818657Y-41457289D01*
X38818656Y-41457288D01*
X38686218Y-41375600D01*
X38639494Y-41323652D01*
X38628271Y-41254689D01*
X38656115Y-41190607D01*
X38689164Y-41165190D01*
X38688187Y-41163605D01*
X38694332Y-41159814D01*
X38694334Y-41159814D01*
X38843656Y-41067712D01*
X38967712Y-40943656D01*
X39059814Y-40794334D01*
X39114999Y-40627797D01*
X39125500Y-40525009D01*
X39125499Y-39850469D01*
X39145183Y-39783431D01*
X39159104Y-39765589D01*
X39184843Y-39738181D01*
X39199227Y-39722864D01*
X39209671Y-39712418D01*
X39220120Y-39701971D01*
X39224379Y-39696478D01*
X39228152Y-39692061D01*
X39260062Y-39658082D01*
X39269713Y-39640524D01*
X39280396Y-39624261D01*
X39292673Y-39608436D01*
X39311185Y-39565653D01*
X39313738Y-39560441D01*
X39336197Y-39519592D01*
X39341180Y-39500180D01*
X39347481Y-39481780D01*
X39355437Y-39463396D01*
X39362729Y-39417352D01*
X39363906Y-39411671D01*
X39375500Y-39366519D01*
X39375500Y-39346483D01*
X39377027Y-39327082D01*
X39377316Y-39325257D01*
X39380160Y-39307304D01*
X39375775Y-39260915D01*
X39375500Y-39255077D01*
X39375500Y-39172016D01*
X39395185Y-39104977D01*
X39447989Y-39059222D01*
X39460488Y-39054313D01*
X39519334Y-39034814D01*
X39668656Y-38942712D01*
X39792712Y-38818656D01*
X39884814Y-38669334D01*
X39939999Y-38502797D01*
X39950500Y-38400009D01*
X39950499Y-38000000D01*
X41400001Y-38000000D01*
X41400001Y-38249986D01*
X41410494Y-38352697D01*
X41465641Y-38519119D01*
X41465643Y-38519124D01*
X41557684Y-38668345D01*
X41681654Y-38792315D01*
X41830875Y-38884356D01*
X41830880Y-38884358D01*
X41997302Y-38939505D01*
X41997309Y-38939506D01*
X42100019Y-38949999D01*
X42249999Y-38949999D01*
X42250000Y-38949998D01*
X42250000Y-38000000D01*
X41400001Y-38000000D01*
X39950499Y-38000000D01*
X39950499Y-37599992D01*
X39950072Y-37595816D01*
X39939999Y-37497203D01*
X39939998Y-37497200D01*
X39894575Y-37360124D01*
X39884814Y-37330666D01*
X39792712Y-37181344D01*
X39699049Y-37087681D01*
X39665564Y-37026358D01*
X39670548Y-36956666D01*
X39699049Y-36912319D01*
X39724641Y-36886727D01*
X39792712Y-36818656D01*
X39884814Y-36669334D01*
X39939999Y-36502797D01*
X39950500Y-36400009D01*
X39950499Y-35599992D01*
X39948112Y-35576628D01*
X39939999Y-35497203D01*
X39939998Y-35497200D01*
X39930250Y-35467784D01*
X39884814Y-35330666D01*
X39806074Y-35203008D01*
X39787635Y-35135617D01*
X39808558Y-35068954D01*
X39862200Y-35024184D01*
X39931531Y-35015523D01*
X39976711Y-35032375D01*
X39980657Y-35034809D01*
X39980660Y-35034810D01*
X39980666Y-35034814D01*
X40147203Y-35089999D01*
X40249991Y-35100500D01*
X41250008Y-35100499D01*
X41250016Y-35100498D01*
X41250019Y-35100498D01*
X41306302Y-35094748D01*
X41352797Y-35089999D01*
X41519334Y-35034814D01*
X41668656Y-34942712D01*
X41792712Y-34818656D01*
X41884814Y-34669334D01*
X41939999Y-34502797D01*
X41950500Y-34400009D01*
X41950499Y-33599992D01*
X41939999Y-33497203D01*
X41884814Y-33330666D01*
X41806074Y-33203008D01*
X41787635Y-33135617D01*
X41808558Y-33068954D01*
X41862200Y-33024184D01*
X41931531Y-33015523D01*
X41976711Y-33032375D01*
G37*
%TD.AperFunction*%
%TA.AperFunction,Conductor*%
G36*
X40153027Y-41707871D02*
G01*
X40230028Y-41827688D01*
X40337667Y-41920957D01*
X40467223Y-41980124D01*
X40479817Y-41981934D01*
X39846825Y-42614925D01*
X39922794Y-42668119D01*
X39966419Y-42722696D01*
X39973613Y-42792194D01*
X39942090Y-42854549D01*
X39922795Y-42871269D01*
X39736794Y-43001508D01*
X39569705Y-43168597D01*
X39434165Y-43362169D01*
X39434164Y-43362171D01*
X39334298Y-43576335D01*
X39334294Y-43576344D01*
X39284736Y-43761301D01*
X39248371Y-43820962D01*
X39185524Y-43851491D01*
X39116149Y-43843196D01*
X39062271Y-43798711D01*
X39047256Y-43768215D01*
X39034814Y-43730666D01*
X38942712Y-43581344D01*
X38942707Y-43581339D01*
X38939209Y-43576915D01*
X38913066Y-43512121D01*
X38926103Y-43443478D01*
X38939209Y-43423085D01*
X38942703Y-43418664D01*
X38942712Y-43418656D01*
X39034814Y-43269334D01*
X39089999Y-43102797D01*
X39100500Y-43000009D01*
X39100499Y-42020423D01*
X39120183Y-41953385D01*
X39172987Y-41907630D01*
X39242146Y-41897686D01*
X39305702Y-41926711D01*
X39336881Y-41968019D01*
X39434600Y-42177579D01*
X39434602Y-42177583D01*
X39493272Y-42261373D01*
X39493273Y-42261373D01*
X40128909Y-41625736D01*
X40153027Y-41707871D01*
G37*
%TD.AperFunction*%
%TA.AperFunction,Conductor*%
G36*
X35455203Y-28317017D02*
G01*
X35461681Y-28323049D01*
X35581344Y-28442712D01*
X35730666Y-28534814D01*
X35897203Y-28589999D01*
X35999991Y-28600500D01*
X37000008Y-28600499D01*
X37032626Y-28597166D01*
X37101316Y-28609934D01*
X37118113Y-28620206D01*
X37258354Y-28722097D01*
X37258359Y-28722100D01*
X37268163Y-28726465D01*
X37321400Y-28771715D01*
X37341048Y-28826782D01*
X37344714Y-28861656D01*
X37356415Y-28972990D01*
X37356416Y-28972993D01*
X37414907Y-29153011D01*
X37414910Y-29153018D01*
X37509556Y-29316950D01*
X37552030Y-29364122D01*
X37584073Y-29399710D01*
X37614303Y-29462702D01*
X37615862Y-29478783D01*
X37616589Y-29501901D01*
X37616589Y-29531432D01*
X37616590Y-29531449D01*
X37617457Y-29538320D01*
X37617915Y-29544139D01*
X37619379Y-29590715D01*
X37624968Y-29609951D01*
X37628913Y-29629003D01*
X37631423Y-29648878D01*
X37640792Y-29672539D01*
X37649500Y-29718187D01*
X37649500Y-30500001D01*
X37649501Y-30500019D01*
X37660000Y-30602796D01*
X37660001Y-30602799D01*
X37715185Y-30769331D01*
X37715189Y-30769340D01*
X37768425Y-30855650D01*
X37786865Y-30923043D01*
X37765942Y-30989706D01*
X37735772Y-31021064D01*
X37658627Y-31077113D01*
X37531966Y-31217785D01*
X37437321Y-31381715D01*
X37437318Y-31381722D01*
X37378827Y-31561740D01*
X37378826Y-31561744D01*
X37359040Y-31750000D01*
X37378826Y-31938256D01*
X37378827Y-31938259D01*
X37437318Y-32118277D01*
X37437321Y-32118284D01*
X37507487Y-32239816D01*
X37532887Y-32283809D01*
X37549500Y-32345807D01*
X37549500Y-32400000D01*
X37549501Y-32400019D01*
X37560000Y-32502796D01*
X37560001Y-32502799D01*
X37581368Y-32567279D01*
X37583770Y-32637107D01*
X37551343Y-32693964D01*
X36578463Y-33666844D01*
X36566206Y-33676665D01*
X36566389Y-33676886D01*
X36560378Y-33681858D01*
X36513027Y-33732281D01*
X36492144Y-33753164D01*
X36492135Y-33753174D01*
X36487877Y-33758661D01*
X36484090Y-33763094D01*
X36469159Y-33778993D01*
X36451655Y-33794425D01*
X36356383Y-33863646D01*
X36229721Y-34004319D01*
X36135076Y-34168249D01*
X36135073Y-34168256D01*
X36076582Y-34348274D01*
X36076581Y-34348278D01*
X36056795Y-34536534D01*
X36074369Y-34703746D01*
X36076582Y-34724795D01*
X36081603Y-34740248D01*
X36083598Y-34810090D01*
X36047517Y-34869922D01*
X35984815Y-34900749D01*
X35976274Y-34901923D01*
X35897202Y-34910001D01*
X35897200Y-34910001D01*
X35730668Y-34965185D01*
X35730663Y-34965187D01*
X35581342Y-35057289D01*
X35461681Y-35176951D01*
X35400358Y-35210436D01*
X35330666Y-35205452D01*
X35274733Y-35163580D01*
X35250316Y-35098116D01*
X35250000Y-35089270D01*
X35250000Y-28410730D01*
X35269685Y-28343691D01*
X35322489Y-28297936D01*
X35391647Y-28287992D01*
X35455203Y-28317017D01*
G37*
%TD.AperFunction*%
%TA.AperFunction,Conductor*%
G36*
X39282877Y-24834631D02*
G01*
X39340926Y-24873517D01*
X39363389Y-24913911D01*
X39365185Y-24919330D01*
X39365187Y-24919336D01*
X39400069Y-24975888D01*
X39457288Y-25068656D01*
X39581344Y-25192712D01*
X39730666Y-25284814D01*
X39897203Y-25339999D01*
X39999991Y-25350500D01*
X41000008Y-25350499D01*
X41000016Y-25350498D01*
X41000019Y-25350498D01*
X41056302Y-25344748D01*
X41102797Y-25339999D01*
X41269334Y-25284814D01*
X41418656Y-25192712D01*
X41542712Y-25068656D01*
X41625519Y-24934402D01*
X41677467Y-24887679D01*
X41731058Y-24875500D01*
X41939548Y-24875500D01*
X42006587Y-24895185D01*
X42027229Y-24911819D01*
X42838181Y-25722771D01*
X42871666Y-25784094D01*
X42874500Y-25810452D01*
X42874500Y-26801312D01*
X42854815Y-26868351D01*
X42842650Y-26884284D01*
X42767466Y-26967784D01*
X42672821Y-27131715D01*
X42672818Y-27131722D01*
X42614327Y-27311740D01*
X42614326Y-27311744D01*
X42594540Y-27500000D01*
X42614326Y-27688256D01*
X42614327Y-27688259D01*
X42672818Y-27868277D01*
X42672821Y-27868284D01*
X42767467Y-28032216D01*
X42830929Y-28102697D01*
X42894129Y-28172888D01*
X43047265Y-28284148D01*
X43047266Y-28284148D01*
X43047270Y-28284151D01*
X43075936Y-28296914D01*
X43129173Y-28342164D01*
X43149494Y-28409013D01*
X43149500Y-28410193D01*
X43149500Y-28775500D01*
X43129815Y-28842539D01*
X43077011Y-28888294D01*
X43025500Y-28899500D01*
X42249998Y-28899500D01*
X42249980Y-28899501D01*
X42147203Y-28910000D01*
X42147200Y-28910001D01*
X41995526Y-28960261D01*
X41992955Y-28961114D01*
X41973810Y-28967458D01*
X41973237Y-28965729D01*
X41932771Y-28974701D01*
X41780151Y-28974701D01*
X41685942Y-28994724D01*
X41616275Y-28989406D01*
X41572482Y-28961114D01*
X41568657Y-28957289D01*
X41568656Y-28957288D01*
X41419334Y-28865186D01*
X41419333Y-28865185D01*
X41412791Y-28862136D01*
X41414123Y-28859277D01*
X41368218Y-28827098D01*
X41341771Y-28762427D01*
X41354486Y-28693724D01*
X41402326Y-28642802D01*
X41412722Y-28637341D01*
X41419124Y-28634356D01*
X41568345Y-28542315D01*
X41692315Y-28418345D01*
X41784356Y-28269124D01*
X41784358Y-28269119D01*
X41839505Y-28102697D01*
X41839506Y-28102690D01*
X41849999Y-27999986D01*
X41850000Y-27999973D01*
X41850000Y-27750000D01*
X40624000Y-27750000D01*
X40556961Y-27730315D01*
X40511206Y-27677511D01*
X40500000Y-27626000D01*
X40500000Y-26300000D01*
X41000000Y-26300000D01*
X41000000Y-27250000D01*
X41849999Y-27250000D01*
X41849999Y-27000028D01*
X41849998Y-27000013D01*
X41839505Y-26897302D01*
X41784358Y-26730880D01*
X41784356Y-26730875D01*
X41692315Y-26581654D01*
X41568345Y-26457684D01*
X41419124Y-26365643D01*
X41419119Y-26365641D01*
X41252697Y-26310494D01*
X41252690Y-26310493D01*
X41149986Y-26300000D01*
X41000000Y-26300000D01*
X40500000Y-26300000D01*
X40350027Y-26300000D01*
X40350012Y-26300001D01*
X40247302Y-26310494D01*
X40080880Y-26365641D01*
X40080875Y-26365643D01*
X39931657Y-26457682D01*
X39838034Y-26551305D01*
X39776710Y-26584789D01*
X39707019Y-26579805D01*
X39662672Y-26551304D01*
X39568657Y-26457289D01*
X39568656Y-26457288D01*
X39419334Y-26365186D01*
X39252797Y-26310001D01*
X39252795Y-26310000D01*
X39150010Y-26299500D01*
X38349998Y-26299500D01*
X38349980Y-26299501D01*
X38247203Y-26310000D01*
X38247200Y-26310001D01*
X38080668Y-26365185D01*
X38080663Y-26365187D01*
X37931342Y-26457289D01*
X37807288Y-26581343D01*
X37807285Y-26581347D01*
X37749660Y-26674772D01*
X37697712Y-26721497D01*
X37628750Y-26732718D01*
X37564668Y-26704875D01*
X37546852Y-26686581D01*
X37542714Y-26681347D01*
X37542712Y-26681344D01*
X37449049Y-26587681D01*
X37415564Y-26526358D01*
X37420548Y-26456666D01*
X37449049Y-26412319D01*
X37495727Y-26365641D01*
X37542712Y-26318656D01*
X37634814Y-26169334D01*
X37689999Y-26002797D01*
X37692138Y-25981854D01*
X37718532Y-25917162D01*
X37727806Y-25906782D01*
X38447772Y-25186819D01*
X38509095Y-25153334D01*
X38535453Y-25150500D01*
X38594644Y-25150500D01*
X38594646Y-25150500D01*
X38779803Y-25111144D01*
X38952730Y-25034151D01*
X39105871Y-24922888D01*
X39153538Y-24869948D01*
X39213020Y-24833302D01*
X39282877Y-24834631D01*
G37*
%TD.AperFunction*%
%TD*%
%TA.AperFunction,Conductor*%
%TO.N,Net-(MP2-Pad1)*%
G36*
X33002208Y-43500157D02*
G01*
X33275790Y-43519724D01*
X33293291Y-43522241D01*
X33554803Y-43579129D01*
X33571762Y-43584108D01*
X33822524Y-43677638D01*
X33838616Y-43684987D01*
X34073501Y-43813244D01*
X34088375Y-43822802D01*
X34302624Y-43983188D01*
X34315994Y-43994774D01*
X34505225Y-44184005D01*
X34516811Y-44197375D01*
X34677193Y-44411619D01*
X34686758Y-44426503D01*
X34815011Y-44661382D01*
X34822361Y-44677475D01*
X34915888Y-44928229D01*
X34920872Y-44945205D01*
X34977757Y-45206702D01*
X34980275Y-45224214D01*
X34999842Y-45497789D01*
X35000000Y-45502213D01*
X35000000Y-89997786D01*
X34999842Y-90002210D01*
X34980275Y-90275785D01*
X34977757Y-90293297D01*
X34920872Y-90554794D01*
X34915888Y-90571770D01*
X34822361Y-90822524D01*
X34815011Y-90838617D01*
X34686758Y-91073496D01*
X34677193Y-91088380D01*
X34516811Y-91302624D01*
X34505225Y-91315994D01*
X34315994Y-91505225D01*
X34302624Y-91516811D01*
X34088380Y-91677193D01*
X34073496Y-91686758D01*
X33838617Y-91815011D01*
X33822524Y-91822361D01*
X33571770Y-91915888D01*
X33554794Y-91920872D01*
X33293297Y-91977757D01*
X33275785Y-91980275D01*
X33027448Y-91998036D01*
X33002208Y-91999842D01*
X32997786Y-92000000D01*
X16002214Y-92000000D01*
X15997791Y-91999842D01*
X15969503Y-91997818D01*
X15724214Y-91980275D01*
X15706702Y-91977757D01*
X15445205Y-91920872D01*
X15428229Y-91915888D01*
X15177475Y-91822361D01*
X15161382Y-91815011D01*
X14926503Y-91686758D01*
X14911619Y-91677193D01*
X14697375Y-91516811D01*
X14684005Y-91505225D01*
X14494774Y-91315994D01*
X14483188Y-91302624D01*
X14322802Y-91088375D01*
X14313244Y-91073501D01*
X14184987Y-90838616D01*
X14177638Y-90822524D01*
X14084108Y-90571762D01*
X14079129Y-90554803D01*
X14022241Y-90293291D01*
X14019724Y-90275785D01*
X14000158Y-90002210D01*
X14000000Y-89997786D01*
X14000000Y-80184371D01*
X21199500Y-80184371D01*
X21239367Y-80550946D01*
X21318635Y-80911065D01*
X21353795Y-81015414D01*
X21436375Y-81260503D01*
X21436377Y-81260508D01*
X21436379Y-81260513D01*
X21591200Y-81595153D01*
X21591202Y-81595157D01*
X21591204Y-81595161D01*
X21591205Y-81595162D01*
X21781310Y-81911119D01*
X22004462Y-82204670D01*
X22258044Y-82472373D01*
X22539083Y-82711090D01*
X22844284Y-82918022D01*
X22844288Y-82918024D01*
X22844291Y-82918026D01*
X23026172Y-83014453D01*
X23170070Y-83090743D01*
X23512621Y-83227227D01*
X23512627Y-83227228D01*
X23512628Y-83227229D01*
X23512634Y-83227231D01*
X23788226Y-83303748D01*
X23867919Y-83325875D01*
X23867930Y-83325876D01*
X23867931Y-83325877D01*
X24231786Y-83385529D01*
X24231790Y-83385529D01*
X24231801Y-83385531D01*
X24507890Y-83400500D01*
X24507892Y-83400500D01*
X24692108Y-83400500D01*
X24692110Y-83400500D01*
X24968199Y-83385531D01*
X24968210Y-83385529D01*
X24968213Y-83385529D01*
X25220077Y-83344237D01*
X25332081Y-83325875D01*
X25687379Y-83227227D01*
X26029930Y-83090743D01*
X26355716Y-82918022D01*
X26660917Y-82711090D01*
X26941956Y-82472373D01*
X27195538Y-82204670D01*
X27418690Y-81911119D01*
X27608795Y-81595162D01*
X27763625Y-81260503D01*
X27881364Y-80911066D01*
X27960632Y-80550948D01*
X28000500Y-80184370D01*
X28000500Y-79815630D01*
X27960632Y-79449052D01*
X27881364Y-79088934D01*
X27763625Y-78739497D01*
X27608795Y-78404838D01*
X27418690Y-78088881D01*
X27195538Y-77795330D01*
X26941956Y-77527627D01*
X26938606Y-77524781D01*
X26660916Y-77288909D01*
X26433214Y-77134523D01*
X26355716Y-77081978D01*
X26355713Y-77081976D01*
X26355708Y-77081973D01*
X26029938Y-76909261D01*
X26029926Y-76909255D01*
X25687371Y-76772770D01*
X25687365Y-76772768D01*
X25332094Y-76674128D01*
X25332068Y-76674122D01*
X24968213Y-76614470D01*
X24968200Y-76614469D01*
X24968199Y-76614469D01*
X24692110Y-76599500D01*
X24507890Y-76599500D01*
X24231801Y-76614469D01*
X24231799Y-76614469D01*
X24231786Y-76614470D01*
X23867931Y-76674122D01*
X23867905Y-76674128D01*
X23512634Y-76772768D01*
X23512628Y-76772770D01*
X23170073Y-76909255D01*
X23170061Y-76909261D01*
X22844291Y-77081973D01*
X22844282Y-77081979D01*
X22539083Y-77288909D01*
X22258044Y-77527626D01*
X22004462Y-77795330D01*
X22004461Y-77795330D01*
X21857685Y-77988410D01*
X21781310Y-78088881D01*
X21781309Y-78088883D01*
X21591202Y-78404842D01*
X21591200Y-78404846D01*
X21436379Y-78739486D01*
X21318635Y-79088934D01*
X21239367Y-79449053D01*
X21199500Y-79815628D01*
X21199500Y-80184371D01*
X14000000Y-80184371D01*
X14000000Y-72002213D01*
X14000158Y-71997789D01*
X14019724Y-71724214D01*
X14022240Y-71706710D01*
X14079130Y-71445192D01*
X14084107Y-71428241D01*
X14177640Y-71177470D01*
X14184985Y-71161388D01*
X14313248Y-70926491D01*
X14322798Y-70911630D01*
X14483195Y-70697366D01*
X14494767Y-70684012D01*
X14684012Y-70494767D01*
X14697366Y-70483195D01*
X14911630Y-70322798D01*
X14926491Y-70313248D01*
X15161388Y-70184985D01*
X15177470Y-70177640D01*
X15428241Y-70084107D01*
X15445192Y-70079130D01*
X15706710Y-70022240D01*
X15724207Y-70019724D01*
X15997791Y-70000157D01*
X16002214Y-70000000D01*
X23000000Y-70000000D01*
X23284630Y-69979643D01*
X23563465Y-69918986D01*
X23830830Y-69819264D01*
X24081282Y-69682507D01*
X24309721Y-69511499D01*
X24511499Y-69309721D01*
X24682507Y-69081282D01*
X24819264Y-68830830D01*
X24918986Y-68563465D01*
X24979643Y-68284630D01*
X25000000Y-68000000D01*
X25000000Y-45502213D01*
X25000158Y-45497789D01*
X25019724Y-45224214D01*
X25022240Y-45206710D01*
X25079130Y-44945192D01*
X25084107Y-44928241D01*
X25177640Y-44677470D01*
X25184985Y-44661388D01*
X25313248Y-44426491D01*
X25322798Y-44411630D01*
X25483195Y-44197366D01*
X25494767Y-44184012D01*
X25684012Y-43994767D01*
X25697366Y-43983195D01*
X25911630Y-43822798D01*
X25926491Y-43813248D01*
X26161388Y-43684985D01*
X26177470Y-43677640D01*
X26428241Y-43584107D01*
X26445192Y-43579130D01*
X26706710Y-43522240D01*
X26724207Y-43519724D01*
X26997791Y-43500157D01*
X27002214Y-43500000D01*
X32997786Y-43500000D01*
X33002208Y-43500157D01*
G37*
%TD.AperFunction*%
%TD*%
%TA.AperFunction,Conductor*%
%TO.N,GNDD*%
G36*
X43793039Y-46019685D02*
G01*
X43838794Y-46072489D01*
X43850000Y-46124000D01*
X43850000Y-46187500D01*
X45376000Y-46187500D01*
X45443039Y-46207185D01*
X45488794Y-46259989D01*
X45500000Y-46311500D01*
X45500000Y-47599999D01*
X45949972Y-47599999D01*
X45949986Y-47599998D01*
X46052697Y-47589505D01*
X46219119Y-47534358D01*
X46219124Y-47534356D01*
X46368345Y-47442315D01*
X46430330Y-47380330D01*
X46483167Y-47351478D01*
X47128909Y-46705735D01*
X47153027Y-46787871D01*
X47230028Y-46907688D01*
X47337667Y-47000957D01*
X47467223Y-47060124D01*
X47479817Y-47061934D01*
X46808569Y-47733181D01*
X46747246Y-47766666D01*
X46720897Y-47769500D01*
X46710334Y-47769500D01*
X46710323Y-47769501D01*
X46650716Y-47775908D01*
X46515871Y-47826202D01*
X46515864Y-47826206D01*
X46400655Y-47912452D01*
X46400652Y-47912455D01*
X46314406Y-48027664D01*
X46314402Y-48027671D01*
X46264108Y-48162517D01*
X46257701Y-48222116D01*
X46257701Y-48222123D01*
X46257700Y-48222135D01*
X46257700Y-48306179D01*
X46238015Y-48373218D01*
X46185211Y-48418973D01*
X46116053Y-48428917D01*
X46094697Y-48423885D01*
X46052799Y-48410001D01*
X46052795Y-48410000D01*
X45950010Y-48399500D01*
X44549998Y-48399500D01*
X44549981Y-48399501D01*
X44447203Y-48410000D01*
X44447200Y-48410001D01*
X44280668Y-48465185D01*
X44280663Y-48465187D01*
X44131342Y-48557289D01*
X44007289Y-48681342D01*
X43915187Y-48830663D01*
X43915186Y-48830666D01*
X43860001Y-48997203D01*
X43860001Y-48997204D01*
X43860000Y-48997204D01*
X43849500Y-49099983D01*
X43849500Y-50025001D01*
X43849501Y-50025019D01*
X43860000Y-50127796D01*
X43860001Y-50127799D01*
X43915185Y-50294331D01*
X43915187Y-50294336D01*
X43933547Y-50324102D01*
X44007288Y-50443656D01*
X44131344Y-50567712D01*
X44280666Y-50659814D01*
X44447203Y-50714999D01*
X44549991Y-50725500D01*
X45950008Y-50725499D01*
X46052797Y-50714999D01*
X46219334Y-50659814D01*
X46219340Y-50659809D01*
X46223097Y-50658059D01*
X46225924Y-50657629D01*
X46226189Y-50657542D01*
X46226203Y-50657587D01*
X46292175Y-50647568D01*
X46355958Y-50676089D01*
X46394197Y-50734567D01*
X46399500Y-50770442D01*
X46399500Y-53475500D01*
X46379815Y-53542539D01*
X46327011Y-53588294D01*
X46275500Y-53599500D01*
X46155354Y-53599500D01*
X46122897Y-53606398D01*
X45970197Y-53638855D01*
X45970192Y-53638857D01*
X45797270Y-53715848D01*
X45797265Y-53715851D01*
X45644129Y-53827111D01*
X45517466Y-53967785D01*
X45422821Y-54131715D01*
X45422818Y-54131722D01*
X45364327Y-54311740D01*
X45364326Y-54311744D01*
X45344540Y-54500000D01*
X45364326Y-54688256D01*
X45364327Y-54688259D01*
X45422818Y-54868277D01*
X45422821Y-54868284D01*
X45517467Y-55032216D01*
X45555990Y-55075000D01*
X45592650Y-55115715D01*
X45622880Y-55178706D01*
X45624500Y-55198687D01*
X45624500Y-57417255D01*
X45622775Y-57432872D01*
X45623061Y-57432899D01*
X45622326Y-57440665D01*
X45624500Y-57509814D01*
X45624500Y-57539343D01*
X45624501Y-57539360D01*
X45625368Y-57546231D01*
X45625826Y-57552050D01*
X45627290Y-57598624D01*
X45627291Y-57598627D01*
X45632880Y-57617867D01*
X45636824Y-57636911D01*
X45639336Y-57656791D01*
X45656490Y-57700119D01*
X45658382Y-57705647D01*
X45671381Y-57750388D01*
X45681580Y-57767634D01*
X45690138Y-57785103D01*
X45697514Y-57803732D01*
X45724898Y-57841423D01*
X45728106Y-57846307D01*
X45751827Y-57886416D01*
X45751833Y-57886424D01*
X45765990Y-57900580D01*
X45778627Y-57915375D01*
X45790406Y-57931587D01*
X45826132Y-57961142D01*
X45826309Y-57961288D01*
X45830620Y-57965210D01*
X46241410Y-58376000D01*
X46613181Y-58747771D01*
X46646666Y-58809094D01*
X46649500Y-58835452D01*
X46649500Y-61942255D01*
X46647775Y-61957872D01*
X46648061Y-61957899D01*
X46647326Y-61965665D01*
X46649500Y-62034814D01*
X46649500Y-62064343D01*
X46649501Y-62064360D01*
X46650368Y-62071231D01*
X46650826Y-62077050D01*
X46652290Y-62123624D01*
X46652291Y-62123627D01*
X46657880Y-62142867D01*
X46661824Y-62161911D01*
X46664336Y-62181792D01*
X46681490Y-62225119D01*
X46683382Y-62230647D01*
X46696381Y-62275388D01*
X46706580Y-62292634D01*
X46715136Y-62310100D01*
X46716114Y-62312569D01*
X46722514Y-62328732D01*
X46749898Y-62366423D01*
X46753106Y-62371307D01*
X46776827Y-62411416D01*
X46776833Y-62411424D01*
X46790990Y-62425580D01*
X46803627Y-62440375D01*
X46815406Y-62456587D01*
X46832098Y-62470396D01*
X46851309Y-62486288D01*
X46855620Y-62490210D01*
X47472697Y-63107287D01*
X48006544Y-63641134D01*
X48040029Y-63702457D01*
X48042863Y-63728815D01*
X48042863Y-67246888D01*
X48023178Y-67313927D01*
X48011013Y-67329860D01*
X47935829Y-67413360D01*
X47841184Y-67577291D01*
X47841181Y-67577298D01*
X47782690Y-67757316D01*
X47782689Y-67757320D01*
X47762903Y-67945576D01*
X47782689Y-68133832D01*
X47782690Y-68133835D01*
X47841181Y-68313853D01*
X47841184Y-68313860D01*
X47935830Y-68477792D01*
X48035896Y-68588926D01*
X48062492Y-68618464D01*
X48215628Y-68729724D01*
X48215633Y-68729727D01*
X48388555Y-68806718D01*
X48388560Y-68806720D01*
X48573717Y-68846076D01*
X48588408Y-68846076D01*
X48655447Y-68865761D01*
X48695794Y-68908075D01*
X48767467Y-69032216D01*
X48854794Y-69129202D01*
X48894129Y-69172888D01*
X49047265Y-69284148D01*
X49047270Y-69284151D01*
X49220192Y-69361142D01*
X49220197Y-69361144D01*
X49405354Y-69400500D01*
X49405355Y-69400500D01*
X49594644Y-69400500D01*
X49594646Y-69400500D01*
X49779803Y-69361144D01*
X49952730Y-69284151D01*
X50105871Y-69172888D01*
X50232533Y-69032216D01*
X50327179Y-68868284D01*
X50385674Y-68688256D01*
X50405460Y-68500000D01*
X50385674Y-68311744D01*
X50327179Y-68131716D01*
X50232533Y-67967784D01*
X50212537Y-67945576D01*
X50157350Y-67884284D01*
X50127120Y-67821292D01*
X50125500Y-67801312D01*
X50125500Y-65795442D01*
X50145185Y-65728403D01*
X50197989Y-65682648D01*
X50267147Y-65672704D01*
X50301903Y-65683059D01*
X50305662Y-65684811D01*
X50305666Y-65684814D01*
X50472203Y-65739999D01*
X50574991Y-65750500D01*
X51500008Y-65750499D01*
X51500016Y-65750498D01*
X51500019Y-65750498D01*
X51556302Y-65744748D01*
X51602797Y-65739999D01*
X51769334Y-65684814D01*
X51918656Y-65592712D01*
X52042712Y-65468656D01*
X52134814Y-65319334D01*
X52189999Y-65152797D01*
X52200500Y-65050009D01*
X52200500Y-64600000D01*
X53000001Y-64600000D01*
X53000001Y-65049986D01*
X53010494Y-65152697D01*
X53065641Y-65319119D01*
X53065643Y-65319124D01*
X53157684Y-65468345D01*
X53281654Y-65592315D01*
X53430875Y-65684356D01*
X53430880Y-65684358D01*
X53597302Y-65739505D01*
X53597309Y-65739506D01*
X53700019Y-65749999D01*
X53912499Y-65749999D01*
X53912500Y-65749998D01*
X53912500Y-64600000D01*
X53000001Y-64600000D01*
X52200500Y-64600000D01*
X52200499Y-63649992D01*
X52189999Y-63547203D01*
X52134814Y-63380666D01*
X52042712Y-63231344D01*
X51918656Y-63107288D01*
X51918655Y-63107287D01*
X51846902Y-63063029D01*
X51800178Y-63011081D01*
X51788000Y-62957491D01*
X51788000Y-58651205D01*
X51789309Y-58633235D01*
X51789629Y-58631047D01*
X51792789Y-58609477D01*
X51788235Y-58557431D01*
X51788000Y-58552028D01*
X51788000Y-58543797D01*
X51788000Y-58543791D01*
X51784193Y-58511224D01*
X51777499Y-58434703D01*
X51777499Y-58434701D01*
X51776039Y-58427629D01*
X51776097Y-58427616D01*
X51774465Y-58420257D01*
X51774406Y-58420272D01*
X51772741Y-58413251D01*
X51772741Y-58413245D01*
X51746474Y-58341076D01*
X51722314Y-58268166D01*
X51722313Y-58268165D01*
X51722313Y-58268163D01*
X51719264Y-58261624D01*
X51719317Y-58261599D01*
X51716031Y-58254811D01*
X51715979Y-58254838D01*
X51712736Y-58248382D01*
X51670534Y-58184216D01*
X51630214Y-58118847D01*
X51625734Y-58113181D01*
X51625780Y-58113143D01*
X51621019Y-58107299D01*
X51620974Y-58107338D01*
X51616334Y-58101808D01*
X51560482Y-58049113D01*
X51275729Y-57764361D01*
X51263949Y-57750730D01*
X51249814Y-57731744D01*
X51249612Y-57731472D01*
X51218835Y-57705647D01*
X51209587Y-57697886D01*
X51205612Y-57694244D01*
X51202690Y-57691322D01*
X51199780Y-57688411D01*
X51174040Y-57668059D01*
X51170978Y-57665490D01*
X51115214Y-57618698D01*
X51115213Y-57618697D01*
X51115209Y-57618694D01*
X51109180Y-57614729D01*
X51109212Y-57614680D01*
X51102853Y-57610628D01*
X51102822Y-57610679D01*
X51096680Y-57606891D01*
X51096678Y-57606890D01*
X51096677Y-57606889D01*
X51057474Y-57588608D01*
X51027058Y-57574424D01*
X51006174Y-57563936D01*
X50955099Y-57516259D01*
X50937909Y-57448537D01*
X50960061Y-57382271D01*
X50974137Y-57365450D01*
X51444498Y-56895090D01*
X51505820Y-56861606D01*
X51575512Y-56866590D01*
X51631445Y-56908462D01*
X51655862Y-56973926D01*
X51655499Y-56995728D01*
X51644540Y-57100000D01*
X51664326Y-57288256D01*
X51664327Y-57288259D01*
X51722818Y-57468277D01*
X51722821Y-57468284D01*
X51817467Y-57632216D01*
X51881055Y-57702837D01*
X51944129Y-57772888D01*
X52097265Y-57884148D01*
X52097270Y-57884151D01*
X52270192Y-57961142D01*
X52270197Y-57961144D01*
X52455354Y-58000500D01*
X52455355Y-58000500D01*
X52644644Y-58000500D01*
X52644646Y-58000500D01*
X52829803Y-57961144D01*
X52829805Y-57961142D01*
X52835987Y-57959135D01*
X52836533Y-57960816D01*
X52897205Y-57952679D01*
X52960483Y-57982304D01*
X52969452Y-57991072D01*
X52977705Y-58000000D01*
X54576000Y-58000000D01*
X54643039Y-58019685D01*
X54688794Y-58072489D01*
X54700000Y-58124000D01*
X54700000Y-58376000D01*
X54680315Y-58443039D01*
X54627511Y-58488794D01*
X54576000Y-58500000D01*
X52977705Y-58500000D01*
X52977704Y-58500001D01*
X52977899Y-58502486D01*
X53023718Y-58660198D01*
X53107314Y-58801552D01*
X53112100Y-58807722D01*
X53109640Y-58809629D01*
X53136210Y-58858288D01*
X53131226Y-58927980D01*
X53110162Y-58960781D01*
X53111699Y-58961974D01*
X53106915Y-58968140D01*
X53023255Y-59109603D01*
X53023254Y-59109606D01*
X52977402Y-59267426D01*
X52977401Y-59267432D01*
X52974500Y-59304304D01*
X52974500Y-59735696D01*
X52977401Y-59772567D01*
X52977402Y-59772573D01*
X53023254Y-59930393D01*
X53023255Y-59930396D01*
X53106917Y-60071862D01*
X53111702Y-60078031D01*
X53109256Y-60079927D01*
X53135857Y-60128642D01*
X53130873Y-60198334D01*
X53110069Y-60230703D01*
X53111702Y-60231969D01*
X53106917Y-60238137D01*
X53023255Y-60379603D01*
X53023254Y-60379606D01*
X52977402Y-60537426D01*
X52977401Y-60537432D01*
X52974500Y-60574304D01*
X52974500Y-61005696D01*
X52977401Y-61042567D01*
X52977402Y-61042573D01*
X53023254Y-61200393D01*
X53023255Y-61200396D01*
X53023256Y-61200398D01*
X53106918Y-61341864D01*
X53111702Y-61348031D01*
X53109256Y-61349927D01*
X53135857Y-61398642D01*
X53130873Y-61468334D01*
X53110069Y-61500703D01*
X53111702Y-61501969D01*
X53106917Y-61508137D01*
X53023255Y-61649603D01*
X53023254Y-61649606D01*
X52977402Y-61807426D01*
X52977401Y-61807432D01*
X52974500Y-61844304D01*
X52974500Y-62275696D01*
X52977401Y-62312567D01*
X52977402Y-62312573D01*
X53023254Y-62470393D01*
X53023255Y-62470396D01*
X53106917Y-62611862D01*
X53106923Y-62611870D01*
X53223129Y-62728076D01*
X53223133Y-62728079D01*
X53223135Y-62728081D01*
X53364602Y-62811744D01*
X53366085Y-62812175D01*
X53367110Y-62812829D01*
X53371765Y-62814844D01*
X53371440Y-62815594D01*
X53424971Y-62849779D01*
X53454179Y-62913250D01*
X53444436Y-62982437D01*
X53398834Y-63035373D01*
X53396590Y-63036790D01*
X53281659Y-63107680D01*
X53281655Y-63107683D01*
X53157684Y-63231654D01*
X53065643Y-63380875D01*
X53065641Y-63380880D01*
X53010494Y-63547302D01*
X53010493Y-63547309D01*
X53000000Y-63650013D01*
X53000000Y-64100000D01*
X54288500Y-64100000D01*
X54355539Y-64119685D01*
X54401294Y-64172489D01*
X54412500Y-64224000D01*
X54412500Y-65749999D01*
X54624972Y-65749999D01*
X54624986Y-65749998D01*
X54727697Y-65739505D01*
X54894119Y-65684358D01*
X54894130Y-65684353D01*
X54935403Y-65658896D01*
X55002795Y-65640455D01*
X55069459Y-65661377D01*
X55114229Y-65715019D01*
X55124500Y-65764434D01*
X55124500Y-66439546D01*
X55104815Y-66506585D01*
X55088181Y-66527227D01*
X53616208Y-67999199D01*
X53603951Y-68009020D01*
X53604134Y-68009241D01*
X53598123Y-68014213D01*
X53550772Y-68064636D01*
X53529889Y-68085519D01*
X53529877Y-68085532D01*
X53525621Y-68091017D01*
X53521837Y-68095447D01*
X53489937Y-68129418D01*
X53489936Y-68129420D01*
X53480284Y-68146976D01*
X53469610Y-68163226D01*
X53457329Y-68179061D01*
X53457324Y-68179068D01*
X53438815Y-68221838D01*
X53436245Y-68227084D01*
X53413803Y-68267906D01*
X53408822Y-68287307D01*
X53402521Y-68305710D01*
X53394562Y-68324102D01*
X53394561Y-68324105D01*
X53387271Y-68370127D01*
X53386087Y-68375846D01*
X53374501Y-68420972D01*
X53374500Y-68420982D01*
X53374500Y-68441016D01*
X53372973Y-68460415D01*
X53370221Y-68477792D01*
X53369840Y-68480196D01*
X53372478Y-68508100D01*
X53374225Y-68526583D01*
X53374500Y-68532421D01*
X53374500Y-70551312D01*
X53354815Y-70618351D01*
X53342650Y-70634284D01*
X53267466Y-70717784D01*
X53172821Y-70881715D01*
X53172818Y-70881722D01*
X53115002Y-71059662D01*
X53114326Y-71061744D01*
X53094540Y-71250000D01*
X53114326Y-71438256D01*
X53114327Y-71438259D01*
X53172818Y-71618277D01*
X53172821Y-71618284D01*
X53267467Y-71782216D01*
X53394129Y-71922888D01*
X53547265Y-72034148D01*
X53547270Y-72034151D01*
X53720192Y-72111142D01*
X53720197Y-72111144D01*
X53905354Y-72150500D01*
X53905355Y-72150500D01*
X54094644Y-72150500D01*
X54094646Y-72150500D01*
X54279803Y-72111144D01*
X54452730Y-72034151D01*
X54605871Y-71922888D01*
X54684883Y-71835136D01*
X54744368Y-71798488D01*
X54814225Y-71799818D01*
X54872274Y-71838705D01*
X54900084Y-71902802D01*
X54900560Y-71928917D01*
X54894341Y-71999999D01*
X54894341Y-72000000D01*
X54914936Y-72235403D01*
X54914938Y-72235413D01*
X54976094Y-72463655D01*
X54976096Y-72463659D01*
X54976097Y-72463663D01*
X55043021Y-72607181D01*
X55075965Y-72677830D01*
X55075967Y-72677834D01*
X55157395Y-72794124D01*
X55211501Y-72871396D01*
X55211506Y-72871402D01*
X55333430Y-72993326D01*
X55366915Y-73054649D01*
X55361931Y-73124341D01*
X55320059Y-73180274D01*
X55289083Y-73197189D01*
X55157669Y-73246203D01*
X55157664Y-73246206D01*
X55042455Y-73332452D01*
X55042452Y-73332455D01*
X54956206Y-73447664D01*
X54956202Y-73447671D01*
X54905908Y-73582517D01*
X54899501Y-73642116D01*
X54899501Y-73642123D01*
X54899500Y-73642135D01*
X54899500Y-75437870D01*
X54899501Y-75437876D01*
X54905908Y-75497483D01*
X54956202Y-75632328D01*
X54956206Y-75632335D01*
X55042452Y-75747544D01*
X55042455Y-75747547D01*
X55157664Y-75833793D01*
X55157671Y-75833797D01*
X55199774Y-75849500D01*
X55292517Y-75884091D01*
X55352127Y-75890500D01*
X55500500Y-75890499D01*
X55567539Y-75910183D01*
X55613294Y-75962987D01*
X55624500Y-76014499D01*
X55624500Y-77524781D01*
X55604815Y-77591820D01*
X55565597Y-77630319D01*
X55481347Y-77682285D01*
X55481343Y-77682288D01*
X55357288Y-77806343D01*
X55357283Y-77806349D01*
X55355241Y-77809661D01*
X55353247Y-77811453D01*
X55352807Y-77812011D01*
X55352711Y-77811935D01*
X55303291Y-77856383D01*
X55234328Y-77867602D01*
X55170247Y-77839755D01*
X55144168Y-77809656D01*
X55142319Y-77806659D01*
X55142316Y-77806655D01*
X55018345Y-77682684D01*
X54869124Y-77590643D01*
X54869119Y-77590641D01*
X54702697Y-77535494D01*
X54702690Y-77535493D01*
X54599986Y-77525000D01*
X54462500Y-77525000D01*
X54462500Y-79974999D01*
X54599972Y-79974999D01*
X54599986Y-79974998D01*
X54702697Y-79964505D01*
X54869119Y-79909358D01*
X54869124Y-79909356D01*
X55018345Y-79817315D01*
X55142318Y-79693342D01*
X55144165Y-79690348D01*
X55145969Y-79688724D01*
X55146798Y-79687677D01*
X55146976Y-79687818D01*
X55196110Y-79643621D01*
X55265073Y-79632396D01*
X55329156Y-79660236D01*
X55355243Y-79690341D01*
X55357288Y-79693656D01*
X55357289Y-79693657D01*
X55481345Y-79817713D01*
X55481348Y-79817715D01*
X55565595Y-79869678D01*
X55612321Y-79921625D01*
X55624500Y-79975217D01*
X55624500Y-80850934D01*
X55604815Y-80917973D01*
X55552011Y-80963728D01*
X55482853Y-80973672D01*
X55419297Y-80944647D01*
X55398925Y-80922057D01*
X55368494Y-80878597D01*
X55201402Y-80711506D01*
X55201395Y-80711501D01*
X55007834Y-80575967D01*
X55007830Y-80575965D01*
X54936727Y-80542809D01*
X54793663Y-80476097D01*
X54793659Y-80476096D01*
X54793655Y-80476094D01*
X54565413Y-80414938D01*
X54565403Y-80414936D01*
X54330001Y-80394341D01*
X54329999Y-80394341D01*
X54094596Y-80414936D01*
X54094586Y-80414938D01*
X53994126Y-80441856D01*
X53924276Y-80440193D01*
X53874352Y-80409762D01*
X53772860Y-80308270D01*
X53661322Y-80196731D01*
X53627837Y-80135408D01*
X53625003Y-80109050D01*
X53625003Y-80091879D01*
X53644688Y-80024840D01*
X53697492Y-79979085D01*
X53761606Y-79968521D01*
X53825020Y-79974999D01*
X53962499Y-79974999D01*
X53962500Y-79974998D01*
X53962500Y-77525000D01*
X53825027Y-77525000D01*
X53824999Y-77525002D01*
X53801825Y-77527369D01*
X53733133Y-77514597D01*
X53682250Y-77466715D01*
X53665332Y-77398924D01*
X53687750Y-77332749D01*
X53697071Y-77321047D01*
X53732036Y-77282216D01*
X53826682Y-77118284D01*
X53885177Y-76938256D01*
X53904963Y-76750000D01*
X53885177Y-76561744D01*
X53826682Y-76381716D01*
X53732036Y-76217784D01*
X53605374Y-76077112D01*
X53565287Y-76047987D01*
X53452237Y-75965851D01*
X53452232Y-75965848D01*
X53279310Y-75888857D01*
X53279305Y-75888855D01*
X53133504Y-75857865D01*
X53094149Y-75849500D01*
X52904857Y-75849500D01*
X52872400Y-75856398D01*
X52719700Y-75888855D01*
X52719695Y-75888857D01*
X52550187Y-75964328D01*
X52480937Y-75973613D01*
X52449315Y-75964328D01*
X52279807Y-75888857D01*
X52279802Y-75888855D01*
X52134001Y-75857865D01*
X52094646Y-75849500D01*
X51905354Y-75849500D01*
X51872897Y-75856398D01*
X51720197Y-75888855D01*
X51720192Y-75888857D01*
X51547270Y-75965848D01*
X51547265Y-75965851D01*
X51394132Y-76077109D01*
X51394129Y-76077111D01*
X51394129Y-76077112D01*
X51310468Y-76170027D01*
X51250981Y-76206675D01*
X51181124Y-76205344D01*
X51167882Y-76200333D01*
X51029807Y-76138857D01*
X51029803Y-76138856D01*
X50992808Y-76130992D01*
X50931326Y-76097799D01*
X50897550Y-76036635D01*
X50902204Y-75966921D01*
X50943809Y-75910789D01*
X50953477Y-75904174D01*
X51093656Y-75817712D01*
X51217712Y-75693656D01*
X51309814Y-75544334D01*
X51364999Y-75377797D01*
X51375500Y-75275009D01*
X51375499Y-74224992D01*
X51364999Y-74122203D01*
X51309814Y-73955666D01*
X51217712Y-73806344D01*
X51093656Y-73682288D01*
X50944334Y-73590186D01*
X50777797Y-73535001D01*
X50777795Y-73535000D01*
X50675016Y-73524500D01*
X50675009Y-73524500D01*
X50511855Y-73524500D01*
X50444816Y-73504815D01*
X50424174Y-73488181D01*
X50370436Y-73434443D01*
X50336951Y-73373120D01*
X50341935Y-73303428D01*
X50383807Y-73247495D01*
X50445515Y-73223404D01*
X50527797Y-73214999D01*
X50694334Y-73159814D01*
X50843656Y-73067712D01*
X50967712Y-72943656D01*
X51059814Y-72794334D01*
X51114999Y-72627797D01*
X51125500Y-72525009D01*
X51125499Y-71474992D01*
X51121746Y-71438256D01*
X51114999Y-71372203D01*
X51114998Y-71372200D01*
X51075433Y-71252802D01*
X51059814Y-71205666D01*
X50991920Y-71095592D01*
X50973481Y-71028201D01*
X50974137Y-71017554D01*
X50980308Y-70958848D01*
X50960522Y-70770592D01*
X50902027Y-70590564D01*
X50807381Y-70426632D01*
X50680719Y-70285960D01*
X50573214Y-70207853D01*
X50527582Y-70174699D01*
X50527577Y-70174696D01*
X50354655Y-70097705D01*
X50354650Y-70097703D01*
X50195826Y-70063945D01*
X50169494Y-70058348D01*
X49980202Y-70058348D01*
X49953870Y-70063945D01*
X49795045Y-70097703D01*
X49795040Y-70097705D01*
X49622118Y-70174696D01*
X49622113Y-70174699D01*
X49468977Y-70285959D01*
X49342314Y-70426633D01*
X49247669Y-70590563D01*
X49247666Y-70590570D01*
X49189175Y-70770588D01*
X49189174Y-70770592D01*
X49176744Y-70888857D01*
X49169821Y-70954730D01*
X49143236Y-71019344D01*
X49134183Y-71029448D01*
X49107287Y-71056343D01*
X49107287Y-71056344D01*
X49105241Y-71059662D01*
X49103246Y-71061455D01*
X49102814Y-71062003D01*
X49102720Y-71061928D01*
X49053291Y-71106384D01*
X48984328Y-71117603D01*
X48920247Y-71089756D01*
X48894165Y-71059652D01*
X48892318Y-71056657D01*
X48768345Y-70932684D01*
X48619124Y-70840643D01*
X48619119Y-70840641D01*
X48452697Y-70785494D01*
X48452690Y-70785493D01*
X48349986Y-70775000D01*
X48212500Y-70775000D01*
X48212500Y-73224999D01*
X48224807Y-73237306D01*
X48249932Y-73244684D01*
X48295687Y-73297488D01*
X48304183Y-73323217D01*
X48305125Y-73327652D01*
X48363618Y-73507674D01*
X48363621Y-73507681D01*
X48441244Y-73642129D01*
X48445887Y-73650170D01*
X48462500Y-73712170D01*
X48462500Y-75974999D01*
X48599972Y-75974999D01*
X48599986Y-75974998D01*
X48702697Y-75964505D01*
X48869119Y-75909358D01*
X48869124Y-75909356D01*
X49018345Y-75817315D01*
X49142318Y-75693342D01*
X49144165Y-75690348D01*
X49145969Y-75688724D01*
X49146798Y-75687677D01*
X49146976Y-75687818D01*
X49196110Y-75643621D01*
X49265073Y-75632396D01*
X49329156Y-75660236D01*
X49355243Y-75690341D01*
X49357288Y-75693656D01*
X49481344Y-75817712D01*
X49630666Y-75909814D01*
X49797203Y-75964999D01*
X49899991Y-75975500D01*
X50253731Y-75975499D01*
X50320769Y-75995183D01*
X50366524Y-76047987D01*
X50376468Y-76117146D01*
X50347443Y-76180701D01*
X50304171Y-76212776D01*
X50297271Y-76215848D01*
X50297265Y-76215851D01*
X50144129Y-76327111D01*
X50017466Y-76467785D01*
X49922821Y-76631715D01*
X49922818Y-76631722D01*
X49864327Y-76811740D01*
X49864326Y-76811744D01*
X49844540Y-77000000D01*
X49864326Y-77188256D01*
X49864327Y-77188259D01*
X49922818Y-77368277D01*
X49922821Y-77368284D01*
X50017467Y-77532216D01*
X50049126Y-77567376D01*
X50092650Y-77615715D01*
X50122880Y-77678706D01*
X50124500Y-77698687D01*
X50124500Y-78850937D01*
X50104815Y-78917976D01*
X50052011Y-78963731D01*
X50050940Y-78964215D01*
X50047267Y-78965850D01*
X49894129Y-79077111D01*
X49767466Y-79217785D01*
X49672821Y-79381715D01*
X49672818Y-79381722D01*
X49619983Y-79544334D01*
X49614326Y-79561744D01*
X49594540Y-79750000D01*
X49614326Y-79938256D01*
X49614327Y-79938259D01*
X49672818Y-80118277D01*
X49672821Y-80118284D01*
X49718112Y-80196731D01*
X49728083Y-80214000D01*
X49744556Y-80281900D01*
X49721703Y-80347927D01*
X49666782Y-80391118D01*
X49620696Y-80400000D01*
X49500000Y-80400000D01*
X49500000Y-81314498D01*
X49392315Y-81265320D01*
X49285763Y-81250000D01*
X49214237Y-81250000D01*
X49107685Y-81265320D01*
X49000000Y-81314498D01*
X49000000Y-80400000D01*
X48352155Y-80400000D01*
X48292627Y-80406401D01*
X48292620Y-80406403D01*
X48157913Y-80456645D01*
X48157906Y-80456649D01*
X48042812Y-80542809D01*
X48042809Y-80542812D01*
X47956649Y-80657906D01*
X47956645Y-80657913D01*
X47906403Y-80792620D01*
X47906401Y-80792627D01*
X47900000Y-80852155D01*
X47900000Y-81500000D01*
X48816314Y-81500000D01*
X48790507Y-81540156D01*
X48750000Y-81678111D01*
X48750000Y-81821889D01*
X48790507Y-81959844D01*
X48816314Y-82000000D01*
X47900000Y-82000000D01*
X47900000Y-82647844D01*
X47906401Y-82707372D01*
X47906403Y-82707379D01*
X47956645Y-82842086D01*
X47956649Y-82842093D01*
X48042809Y-82957187D01*
X48042812Y-82957190D01*
X48157906Y-83043350D01*
X48157913Y-83043354D01*
X48292620Y-83093596D01*
X48292627Y-83093598D01*
X48352155Y-83099999D01*
X48352172Y-83100000D01*
X49000000Y-83100000D01*
X49000000Y-82185501D01*
X49107685Y-82234680D01*
X49214237Y-82250000D01*
X49285763Y-82250000D01*
X49392315Y-82234680D01*
X49500000Y-82185501D01*
X49500000Y-83100000D01*
X50147828Y-83100000D01*
X50147844Y-83099999D01*
X50207372Y-83093598D01*
X50207379Y-83093596D01*
X50342086Y-83043354D01*
X50342093Y-83043350D01*
X50457187Y-82957190D01*
X50457190Y-82957187D01*
X50543350Y-82842093D01*
X50543354Y-82842086D01*
X50592422Y-82710529D01*
X50634293Y-82654595D01*
X50699757Y-82630178D01*
X50768030Y-82645030D01*
X50796285Y-82666181D01*
X50918599Y-82788495D01*
X50968586Y-82823496D01*
X51112165Y-82924032D01*
X51112167Y-82924033D01*
X51112170Y-82924035D01*
X51326337Y-83023903D01*
X51554592Y-83085063D01*
X51725319Y-83100000D01*
X51789999Y-83105659D01*
X51790000Y-83105659D01*
X51790001Y-83105659D01*
X51854681Y-83100000D01*
X52025408Y-83085063D01*
X52253663Y-83023903D01*
X52467830Y-82924035D01*
X52661401Y-82788495D01*
X52828495Y-82621401D01*
X52958425Y-82435842D01*
X53013002Y-82392217D01*
X53082500Y-82385023D01*
X53144855Y-82416546D01*
X53161575Y-82435842D01*
X53291500Y-82621395D01*
X53291505Y-82621401D01*
X53458599Y-82788495D01*
X53508586Y-82823496D01*
X53652165Y-82924032D01*
X53652167Y-82924033D01*
X53652170Y-82924035D01*
X53866337Y-83023903D01*
X54094592Y-83085063D01*
X54265319Y-83100000D01*
X54329999Y-83105659D01*
X54330000Y-83105659D01*
X54330001Y-83105659D01*
X54394681Y-83100000D01*
X54565408Y-83085063D01*
X54793663Y-83023903D01*
X55007830Y-82924035D01*
X55201401Y-82788495D01*
X55368495Y-82621401D01*
X55498425Y-82435842D01*
X55553002Y-82392217D01*
X55622500Y-82385023D01*
X55684855Y-82416546D01*
X55701575Y-82435842D01*
X55831500Y-82621395D01*
X55831505Y-82621401D01*
X55998599Y-82788495D01*
X56048586Y-82823496D01*
X56192165Y-82924032D01*
X56192167Y-82924033D01*
X56192170Y-82924035D01*
X56406337Y-83023903D01*
X56634592Y-83085063D01*
X56805319Y-83100000D01*
X56869999Y-83105659D01*
X56870000Y-83105659D01*
X56870001Y-83105659D01*
X56934681Y-83100000D01*
X57105408Y-83085063D01*
X57333663Y-83023903D01*
X57547830Y-82924035D01*
X57741401Y-82788495D01*
X57908495Y-82621401D01*
X58044035Y-82427830D01*
X58143903Y-82213663D01*
X58205063Y-81985408D01*
X58225659Y-81750000D01*
X58205063Y-81514592D01*
X58143903Y-81286337D01*
X58044035Y-81072171D01*
X58038425Y-81064158D01*
X57908494Y-80878597D01*
X57741402Y-80711506D01*
X57741395Y-80711501D01*
X57547834Y-80575967D01*
X57547830Y-80575965D01*
X57476727Y-80542809D01*
X57333663Y-80476097D01*
X57333659Y-80476096D01*
X57333655Y-80476094D01*
X57105413Y-80414938D01*
X57105403Y-80414936D01*
X56988692Y-80404725D01*
X56923623Y-80379272D01*
X56882645Y-80322681D01*
X56875500Y-80281197D01*
X56875500Y-80020908D01*
X56895185Y-79953869D01*
X56939271Y-79915363D01*
X56938187Y-79913605D01*
X56944332Y-79909814D01*
X56944334Y-79909814D01*
X57093656Y-79817712D01*
X57217712Y-79693656D01*
X57309814Y-79544334D01*
X57364999Y-79377797D01*
X57375500Y-79275009D01*
X57375499Y-78224992D01*
X57364999Y-78122203D01*
X57309814Y-77955666D01*
X57217712Y-77806344D01*
X57093656Y-77682288D01*
X56944334Y-77590186D01*
X56944332Y-77590185D01*
X56938187Y-77586395D01*
X56939290Y-77584605D01*
X56894649Y-77545290D01*
X56875500Y-77479091D01*
X56875500Y-76014499D01*
X56895185Y-75947460D01*
X56947989Y-75901705D01*
X56999500Y-75890499D01*
X57147871Y-75890499D01*
X57147872Y-75890499D01*
X57207483Y-75884091D01*
X57342331Y-75833796D01*
X57457546Y-75747546D01*
X57543796Y-75632331D01*
X57594091Y-75497483D01*
X57600500Y-75437873D01*
X57600499Y-73642128D01*
X57594091Y-73582517D01*
X57576368Y-73535000D01*
X57543797Y-73447671D01*
X57543793Y-73447664D01*
X57457547Y-73332455D01*
X57457544Y-73332452D01*
X57342335Y-73246206D01*
X57342328Y-73246202D01*
X57210917Y-73197189D01*
X57154983Y-73155318D01*
X57130566Y-73089853D01*
X57145418Y-73021580D01*
X57166563Y-72993332D01*
X57288495Y-72871401D01*
X57424035Y-72677830D01*
X57523903Y-72463663D01*
X57585063Y-72235408D01*
X57605659Y-72000000D01*
X57585063Y-71764592D01*
X57523903Y-71536337D01*
X57424035Y-71322171D01*
X57406009Y-71296426D01*
X57288494Y-71128597D01*
X57121402Y-70961506D01*
X57121401Y-70961505D01*
X56948792Y-70840643D01*
X56935405Y-70831269D01*
X56891781Y-70776692D01*
X56884588Y-70707193D01*
X56916110Y-70644839D01*
X56935405Y-70628119D01*
X57121082Y-70498105D01*
X57288105Y-70331082D01*
X57423600Y-70137578D01*
X57523429Y-69923492D01*
X57523432Y-69923486D01*
X57580636Y-69710000D01*
X56683686Y-69710000D01*
X56709493Y-69669844D01*
X56750000Y-69531889D01*
X56750000Y-69388111D01*
X56709493Y-69250156D01*
X56683686Y-69210000D01*
X57580636Y-69210000D01*
X57580635Y-69209999D01*
X57523432Y-68996513D01*
X57523429Y-68996507D01*
X57423600Y-68782422D01*
X57423599Y-68782420D01*
X57288113Y-68588926D01*
X57288108Y-68588920D01*
X57121082Y-68421894D01*
X56927578Y-68286399D01*
X56713492Y-68186570D01*
X56713486Y-68186567D01*
X56500000Y-68129364D01*
X56500000Y-69024498D01*
X56392315Y-68975320D01*
X56285763Y-68960000D01*
X56214237Y-68960000D01*
X56107685Y-68975320D01*
X56000000Y-69024498D01*
X56000000Y-68129364D01*
X55999999Y-68129364D01*
X55786513Y-68186567D01*
X55786507Y-68186570D01*
X55572422Y-68286399D01*
X55572420Y-68286400D01*
X55378926Y-68421886D01*
X55378920Y-68421891D01*
X55211891Y-68588920D01*
X55211886Y-68588926D01*
X55076400Y-68782420D01*
X55076399Y-68782422D01*
X54976570Y-68996507D01*
X54976567Y-68996513D01*
X54919364Y-69209999D01*
X54919364Y-69210000D01*
X55816314Y-69210000D01*
X55790507Y-69250156D01*
X55750000Y-69388111D01*
X55750000Y-69531889D01*
X55790507Y-69669844D01*
X55816314Y-69710000D01*
X54919364Y-69710000D01*
X54976567Y-69923486D01*
X54976570Y-69923492D01*
X55076399Y-70137578D01*
X55211894Y-70331082D01*
X55378917Y-70498105D01*
X55564595Y-70628119D01*
X55608219Y-70682696D01*
X55615412Y-70752195D01*
X55583890Y-70814549D01*
X55564595Y-70831269D01*
X55378594Y-70961508D01*
X55211508Y-71128594D01*
X55124537Y-71252802D01*
X55069960Y-71296426D01*
X55000461Y-71303619D01*
X54938107Y-71272097D01*
X54902693Y-71211867D01*
X54899641Y-71194639D01*
X54885674Y-71061744D01*
X54827179Y-70881716D01*
X54732533Y-70717784D01*
X54700940Y-70682696D01*
X54657350Y-70634284D01*
X54627120Y-70571292D01*
X54625500Y-70551312D01*
X54625500Y-68810451D01*
X54645185Y-68743412D01*
X54661814Y-68722775D01*
X56133786Y-67250802D01*
X56146048Y-67240980D01*
X56145865Y-67240759D01*
X56151867Y-67235792D01*
X56151877Y-67235786D01*
X56199241Y-67185348D01*
X56220120Y-67164470D01*
X56224373Y-67158986D01*
X56228150Y-67154563D01*
X56260062Y-67120582D01*
X56269714Y-67103023D01*
X56280389Y-67086772D01*
X56292674Y-67070936D01*
X56311186Y-67028152D01*
X56313742Y-67022935D01*
X56336197Y-66982092D01*
X56341180Y-66962680D01*
X56347477Y-66944291D01*
X56355438Y-66925895D01*
X56362729Y-66879853D01*
X56363908Y-66874162D01*
X56375500Y-66829019D01*
X56375500Y-66808983D01*
X56377027Y-66789582D01*
X56380160Y-66769804D01*
X56375775Y-66723415D01*
X56375500Y-66717577D01*
X56375500Y-56382742D01*
X56377224Y-56367122D01*
X56376939Y-56367095D01*
X56377673Y-56359333D01*
X56375500Y-56290172D01*
X56375500Y-56260656D01*
X56375500Y-56260650D01*
X56374631Y-56253779D01*
X56374173Y-56247952D01*
X56372710Y-56201373D01*
X56367119Y-56182130D01*
X56363173Y-56163078D01*
X56360664Y-56143208D01*
X56343504Y-56099867D01*
X56341624Y-56094379D01*
X56328618Y-56049610D01*
X56318422Y-56032370D01*
X56309861Y-56014894D01*
X56302487Y-55996270D01*
X56302486Y-55996268D01*
X56275079Y-55958545D01*
X56271888Y-55953686D01*
X56248172Y-55913583D01*
X56248165Y-55913574D01*
X56234006Y-55899415D01*
X56221368Y-55884619D01*
X56209594Y-55868413D01*
X56173688Y-55838709D01*
X56169376Y-55834786D01*
X55961819Y-55627228D01*
X55928334Y-55565905D01*
X55925500Y-55539547D01*
X55925500Y-55494304D01*
X55922598Y-55457432D01*
X55922597Y-55457426D01*
X55876745Y-55299606D01*
X55876744Y-55299603D01*
X55876744Y-55299602D01*
X55793081Y-55158135D01*
X55793078Y-55158132D01*
X55788298Y-55151969D01*
X55790750Y-55150066D01*
X55764155Y-55101421D01*
X55769104Y-55031726D01*
X55789940Y-54999304D01*
X55788298Y-54998031D01*
X55793075Y-54991870D01*
X55793081Y-54991865D01*
X55876744Y-54850398D01*
X55922598Y-54692569D01*
X55925500Y-54655694D01*
X55925500Y-54224306D01*
X55922598Y-54187431D01*
X55876744Y-54029602D01*
X55793081Y-53888135D01*
X55793079Y-53888133D01*
X55793076Y-53888129D01*
X55676870Y-53771923D01*
X55676862Y-53771917D01*
X55535396Y-53688255D01*
X55535393Y-53688254D01*
X55377573Y-53642402D01*
X55377567Y-53642401D01*
X55340696Y-53639500D01*
X55340694Y-53639500D01*
X53749500Y-53639500D01*
X53682461Y-53619815D01*
X53636706Y-53567011D01*
X53625500Y-53515500D01*
X53625500Y-51310452D01*
X53645185Y-51243413D01*
X53661813Y-51222776D01*
X53829394Y-51055195D01*
X53890714Y-51021713D01*
X53942848Y-51021589D01*
X53974205Y-51028254D01*
X53974209Y-51028254D01*
X54163495Y-51028254D01*
X54163497Y-51028254D01*
X54348654Y-50988898D01*
X54521581Y-50911905D01*
X54674722Y-50800642D01*
X54801384Y-50659970D01*
X54896030Y-50496038D01*
X54954525Y-50316010D01*
X54974311Y-50127754D01*
X54954525Y-49939498D01*
X54896030Y-49759470D01*
X54801384Y-49595538D01*
X54674722Y-49454866D01*
X54607157Y-49405777D01*
X54526114Y-49346896D01*
X54483449Y-49291566D01*
X54475000Y-49246578D01*
X54475000Y-48750000D01*
X55359072Y-48750000D01*
X55326827Y-48849240D01*
X55326826Y-48849244D01*
X55307040Y-49037500D01*
X55326826Y-49225756D01*
X55326827Y-49225759D01*
X55385318Y-49405777D01*
X55385321Y-49405784D01*
X55479967Y-49569716D01*
X55606629Y-49710388D01*
X55759765Y-49821648D01*
X55759770Y-49821651D01*
X55932692Y-49898642D01*
X55932697Y-49898644D01*
X56117854Y-49938000D01*
X56117855Y-49938000D01*
X56307144Y-49938000D01*
X56307146Y-49938000D01*
X56492303Y-49898644D01*
X56665230Y-49821651D01*
X56818371Y-49710388D01*
X56945033Y-49569716D01*
X57039679Y-49405784D01*
X57098174Y-49225756D01*
X57117960Y-49037500D01*
X57098174Y-48849244D01*
X57065927Y-48750000D01*
X58500000Y-48750000D01*
X58500000Y-81747786D01*
X58499842Y-81752210D01*
X58480275Y-82025785D01*
X58477757Y-82043297D01*
X58420872Y-82304794D01*
X58415888Y-82321770D01*
X58322361Y-82572524D01*
X58315011Y-82588617D01*
X58186758Y-82823496D01*
X58177193Y-82838380D01*
X58016811Y-83052624D01*
X58005225Y-83065994D01*
X57815994Y-83255225D01*
X57802624Y-83266811D01*
X57588380Y-83427193D01*
X57573496Y-83436758D01*
X57338617Y-83565011D01*
X57322524Y-83572361D01*
X57071770Y-83665888D01*
X57054794Y-83670872D01*
X56793297Y-83727757D01*
X56775785Y-83730275D01*
X56527448Y-83748036D01*
X56502208Y-83749842D01*
X56497786Y-83750000D01*
X37752214Y-83750000D01*
X37747791Y-83749842D01*
X37719503Y-83747818D01*
X37474214Y-83730275D01*
X37456702Y-83727757D01*
X37195205Y-83670872D01*
X37178229Y-83665888D01*
X36927475Y-83572361D01*
X36911382Y-83565011D01*
X36676503Y-83436758D01*
X36661619Y-83427193D01*
X36447375Y-83266811D01*
X36434005Y-83255225D01*
X36244774Y-83065994D01*
X36233188Y-83052624D01*
X36161747Y-82957190D01*
X36072802Y-82838375D01*
X36063244Y-82823501D01*
X35934987Y-82588616D01*
X35927638Y-82572524D01*
X35860387Y-82392217D01*
X35834108Y-82321762D01*
X35829129Y-82304803D01*
X35772241Y-82043291D01*
X35769724Y-82025785D01*
X35750158Y-81752210D01*
X35750079Y-81750000D01*
X36574341Y-81750000D01*
X36594936Y-81985403D01*
X36594938Y-81985413D01*
X36656094Y-82213655D01*
X36656096Y-82213659D01*
X36656097Y-82213663D01*
X36736004Y-82385023D01*
X36755965Y-82427830D01*
X36755967Y-82427834D01*
X36857281Y-82572524D01*
X36891505Y-82621401D01*
X37058599Y-82788495D01*
X37108586Y-82823496D01*
X37252165Y-82924032D01*
X37252167Y-82924033D01*
X37252170Y-82924035D01*
X37466337Y-83023903D01*
X37694592Y-83085063D01*
X37865319Y-83100000D01*
X37929999Y-83105659D01*
X37930000Y-83105659D01*
X37930001Y-83105659D01*
X37994681Y-83100000D01*
X38165408Y-83085063D01*
X38393663Y-83023903D01*
X38607830Y-82924035D01*
X38801401Y-82788495D01*
X38968495Y-82621401D01*
X39098425Y-82435842D01*
X39153002Y-82392217D01*
X39222500Y-82385023D01*
X39284855Y-82416546D01*
X39301575Y-82435842D01*
X39431500Y-82621395D01*
X39431505Y-82621401D01*
X39598599Y-82788495D01*
X39648586Y-82823496D01*
X39792165Y-82924032D01*
X39792167Y-82924033D01*
X39792170Y-82924035D01*
X40006337Y-83023903D01*
X40234592Y-83085063D01*
X40405319Y-83100000D01*
X40469999Y-83105659D01*
X40470000Y-83105659D01*
X40470001Y-83105659D01*
X40534681Y-83100000D01*
X40705408Y-83085063D01*
X40933663Y-83023903D01*
X41147830Y-82924035D01*
X41341401Y-82788495D01*
X41508495Y-82621401D01*
X41638425Y-82435842D01*
X41693002Y-82392217D01*
X41762500Y-82385023D01*
X41824855Y-82416546D01*
X41841575Y-82435842D01*
X41971500Y-82621395D01*
X41971505Y-82621401D01*
X42138599Y-82788495D01*
X42188586Y-82823496D01*
X42332165Y-82924032D01*
X42332167Y-82924033D01*
X42332170Y-82924035D01*
X42546337Y-83023903D01*
X42774592Y-83085063D01*
X42945319Y-83100000D01*
X43009999Y-83105659D01*
X43010000Y-83105659D01*
X43010001Y-83105659D01*
X43074681Y-83100000D01*
X43245408Y-83085063D01*
X43473663Y-83023903D01*
X43687830Y-82924035D01*
X43881401Y-82788495D01*
X44003717Y-82666178D01*
X44065036Y-82632696D01*
X44134728Y-82637680D01*
X44190662Y-82679551D01*
X44207577Y-82710528D01*
X44256646Y-82842088D01*
X44256649Y-82842093D01*
X44342809Y-82957187D01*
X44342812Y-82957190D01*
X44457906Y-83043350D01*
X44457913Y-83043354D01*
X44592620Y-83093596D01*
X44592627Y-83093598D01*
X44652155Y-83099999D01*
X44652172Y-83100000D01*
X45300000Y-83100000D01*
X45300000Y-82185501D01*
X45407685Y-82234680D01*
X45514237Y-82250000D01*
X45585763Y-82250000D01*
X45692315Y-82234680D01*
X45800000Y-82185501D01*
X45800000Y-83100000D01*
X46447828Y-83100000D01*
X46447844Y-83099999D01*
X46507372Y-83093598D01*
X46507379Y-83093596D01*
X46642086Y-83043354D01*
X46642093Y-83043350D01*
X46757187Y-82957190D01*
X46757190Y-82957187D01*
X46843350Y-82842093D01*
X46843354Y-82842086D01*
X46893596Y-82707379D01*
X46893598Y-82707372D01*
X46899999Y-82647844D01*
X46900000Y-82647827D01*
X46900000Y-82000000D01*
X45983686Y-82000000D01*
X46009493Y-81959844D01*
X46050000Y-81821889D01*
X46050000Y-81678111D01*
X46009493Y-81540156D01*
X45983686Y-81500000D01*
X46900000Y-81500000D01*
X46900000Y-80852172D01*
X46899999Y-80852155D01*
X46893598Y-80792627D01*
X46893596Y-80792620D01*
X46843354Y-80657913D01*
X46843350Y-80657906D01*
X46757190Y-80542812D01*
X46757187Y-80542809D01*
X46642093Y-80456649D01*
X46642086Y-80456645D01*
X46507379Y-80406403D01*
X46507372Y-80406401D01*
X46447844Y-80400000D01*
X45800000Y-80400000D01*
X45800000Y-81314498D01*
X45692315Y-81265320D01*
X45585763Y-81250000D01*
X45514237Y-81250000D01*
X45407685Y-81265320D01*
X45300000Y-81314498D01*
X45300000Y-80395951D01*
X45319685Y-80328912D01*
X45336319Y-80308270D01*
X45552710Y-80091879D01*
X45883786Y-79760802D01*
X45896048Y-79750980D01*
X45895865Y-79750759D01*
X45901867Y-79745792D01*
X45901877Y-79745786D01*
X45949241Y-79695348D01*
X45970120Y-79674470D01*
X45974373Y-79668986D01*
X45978150Y-79664563D01*
X46010062Y-79630582D01*
X46019714Y-79613023D01*
X46030389Y-79596772D01*
X46042674Y-79580936D01*
X46061186Y-79538152D01*
X46063742Y-79532935D01*
X46086197Y-79492092D01*
X46091180Y-79472680D01*
X46097477Y-79454291D01*
X46105438Y-79435895D01*
X46112729Y-79389853D01*
X46113908Y-79384162D01*
X46125500Y-79339019D01*
X46125500Y-79318983D01*
X46127027Y-79299582D01*
X46130160Y-79279804D01*
X46125775Y-79233415D01*
X46125500Y-79227577D01*
X46125500Y-75000000D01*
X47125001Y-75000000D01*
X47125001Y-75274986D01*
X47135494Y-75377697D01*
X47190641Y-75544119D01*
X47190643Y-75544124D01*
X47282684Y-75693345D01*
X47406654Y-75817315D01*
X47555875Y-75909356D01*
X47555880Y-75909358D01*
X47722302Y-75964505D01*
X47722309Y-75964506D01*
X47825019Y-75974999D01*
X47962499Y-75974999D01*
X47962500Y-75974998D01*
X47962500Y-75000000D01*
X47125001Y-75000000D01*
X46125500Y-75000000D01*
X46125500Y-74500000D01*
X47125000Y-74500000D01*
X47962500Y-74500000D01*
X47962500Y-73525000D01*
X47825027Y-73525000D01*
X47825012Y-73525001D01*
X47722302Y-73535494D01*
X47555880Y-73590641D01*
X47555875Y-73590643D01*
X47406654Y-73682684D01*
X47282684Y-73806654D01*
X47190643Y-73955875D01*
X47190641Y-73955880D01*
X47135494Y-74122302D01*
X47135493Y-74122309D01*
X47125000Y-74225013D01*
X47125000Y-74500000D01*
X46125500Y-74500000D01*
X46125500Y-72448687D01*
X46145185Y-72381648D01*
X46157350Y-72365715D01*
X46175891Y-72345122D01*
X46232533Y-72282216D01*
X46251133Y-72250000D01*
X46875001Y-72250000D01*
X46875001Y-72524986D01*
X46885494Y-72627697D01*
X46940641Y-72794119D01*
X46940643Y-72794124D01*
X47032684Y-72943345D01*
X47156654Y-73067315D01*
X47305875Y-73159356D01*
X47305880Y-73159358D01*
X47472302Y-73214505D01*
X47472309Y-73214506D01*
X47575019Y-73224999D01*
X47712499Y-73224999D01*
X47712500Y-73224998D01*
X47712500Y-72250000D01*
X46875001Y-72250000D01*
X46251133Y-72250000D01*
X46327179Y-72118284D01*
X46385674Y-71938256D01*
X46405460Y-71750000D01*
X46875000Y-71750000D01*
X47712500Y-71750000D01*
X47712500Y-70775000D01*
X47575027Y-70775000D01*
X47575012Y-70775001D01*
X47472302Y-70785494D01*
X47305880Y-70840641D01*
X47305875Y-70840643D01*
X47156654Y-70932684D01*
X47032684Y-71056654D01*
X46940643Y-71205875D01*
X46940641Y-71205880D01*
X46885494Y-71372302D01*
X46885493Y-71372309D01*
X46875000Y-71475013D01*
X46875000Y-71750000D01*
X46405460Y-71750000D01*
X46385674Y-71561744D01*
X46327179Y-71381716D01*
X46232533Y-71217784D01*
X46105871Y-71077112D01*
X46105870Y-71077111D01*
X45952734Y-70965851D01*
X45952729Y-70965848D01*
X45779807Y-70888857D01*
X45779802Y-70888855D01*
X45634001Y-70857865D01*
X45594646Y-70849500D01*
X45405354Y-70849500D01*
X45372897Y-70856398D01*
X45220197Y-70888855D01*
X45220192Y-70888857D01*
X45047270Y-70965848D01*
X45047265Y-70965851D01*
X44894129Y-71077111D01*
X44767466Y-71217785D01*
X44672821Y-71381715D01*
X44672818Y-71381722D01*
X44622582Y-71536335D01*
X44614326Y-71561744D01*
X44594540Y-71750000D01*
X44614326Y-71938256D01*
X44614327Y-71938259D01*
X44672818Y-72118277D01*
X44672821Y-72118284D01*
X44767467Y-72282216D01*
X44810772Y-72330310D01*
X44842650Y-72365715D01*
X44872880Y-72428706D01*
X44874500Y-72448687D01*
X44874500Y-76710760D01*
X44854815Y-76777799D01*
X44802011Y-76823554D01*
X44732853Y-76833498D01*
X44669297Y-76804473D01*
X44662819Y-76798441D01*
X44657187Y-76792809D01*
X44542093Y-76706649D01*
X44542086Y-76706645D01*
X44407379Y-76656403D01*
X44407372Y-76656401D01*
X44347844Y-76650000D01*
X43800000Y-76650000D01*
X43800000Y-79650000D01*
X43926047Y-79650000D01*
X43993086Y-79669685D01*
X44038841Y-79722489D01*
X44048785Y-79791647D01*
X44019760Y-79855203D01*
X44013728Y-79861681D01*
X43465646Y-80409762D01*
X43404323Y-80443247D01*
X43345872Y-80441856D01*
X43245413Y-80414938D01*
X43245403Y-80414936D01*
X43010001Y-80394341D01*
X43009999Y-80394341D01*
X42774596Y-80414936D01*
X42774586Y-80414938D01*
X42546344Y-80476094D01*
X42546335Y-80476098D01*
X42332171Y-80575964D01*
X42332169Y-80575965D01*
X42138597Y-80711505D01*
X41971505Y-80878597D01*
X41841575Y-81064158D01*
X41786998Y-81107783D01*
X41717500Y-81114977D01*
X41655145Y-81083454D01*
X41638425Y-81064158D01*
X41508494Y-80878597D01*
X41341402Y-80711506D01*
X41341395Y-80711501D01*
X41147834Y-80575967D01*
X41147830Y-80575965D01*
X41076727Y-80542809D01*
X40933663Y-80476097D01*
X40933659Y-80476096D01*
X40933655Y-80476094D01*
X40705413Y-80414938D01*
X40705403Y-80414936D01*
X40470001Y-80394341D01*
X40469999Y-80394341D01*
X40234596Y-80414936D01*
X40234586Y-80414938D01*
X40006344Y-80476094D01*
X40006335Y-80476098D01*
X39792171Y-80575964D01*
X39792169Y-80575965D01*
X39598597Y-80711505D01*
X39431505Y-80878597D01*
X39301575Y-81064158D01*
X39246998Y-81107783D01*
X39177500Y-81114977D01*
X39115145Y-81083454D01*
X39098425Y-81064158D01*
X38968494Y-80878597D01*
X38801402Y-80711506D01*
X38801395Y-80711501D01*
X38607834Y-80575967D01*
X38607830Y-80575965D01*
X38536727Y-80542809D01*
X38393663Y-80476097D01*
X38393659Y-80476096D01*
X38393655Y-80476094D01*
X38165413Y-80414938D01*
X38165403Y-80414936D01*
X37930001Y-80394341D01*
X37929999Y-80394341D01*
X37694596Y-80414936D01*
X37694586Y-80414938D01*
X37466344Y-80476094D01*
X37466335Y-80476098D01*
X37252171Y-80575964D01*
X37252169Y-80575965D01*
X37058597Y-80711505D01*
X36891505Y-80878597D01*
X36755965Y-81072169D01*
X36755964Y-81072171D01*
X36656098Y-81286335D01*
X36656094Y-81286344D01*
X36594938Y-81514586D01*
X36594936Y-81514596D01*
X36574341Y-81749999D01*
X36574341Y-81750000D01*
X35750079Y-81750000D01*
X35750000Y-81747786D01*
X35750000Y-68543035D01*
X35762458Y-68500607D01*
X35760662Y-68497228D01*
X35985990Y-68497228D01*
X35992977Y-68508100D01*
X35997576Y-68532795D01*
X36015385Y-68747730D01*
X36015387Y-68747738D01*
X36076412Y-68988717D01*
X36176266Y-69216364D01*
X36276564Y-69369882D01*
X36974070Y-68672376D01*
X36976884Y-68685915D01*
X37046442Y-68820156D01*
X37149638Y-68930652D01*
X37278819Y-69009209D01*
X37330002Y-69023549D01*
X36629942Y-69723609D01*
X36676768Y-69760055D01*
X36676770Y-69760056D01*
X36895385Y-69878364D01*
X36895396Y-69878369D01*
X37130506Y-69959083D01*
X37375707Y-70000000D01*
X37624293Y-70000000D01*
X37870880Y-69958852D01*
X37940245Y-69967234D01*
X37994068Y-70011787D01*
X38015258Y-70078365D01*
X38011948Y-70109756D01*
X37999499Y-70162284D01*
X37998661Y-70169454D01*
X37998601Y-70169447D01*
X37997835Y-70176945D01*
X37997895Y-70176951D01*
X37997265Y-70184140D01*
X37999500Y-70260916D01*
X37999500Y-76612819D01*
X37979815Y-76679858D01*
X37949812Y-76712085D01*
X37842452Y-76792455D01*
X37756206Y-76907664D01*
X37756202Y-76907671D01*
X37705908Y-77042517D01*
X37699501Y-77102116D01*
X37699500Y-77102135D01*
X37699500Y-79197870D01*
X37699501Y-79197876D01*
X37705908Y-79257483D01*
X37756202Y-79392328D01*
X37756206Y-79392335D01*
X37842452Y-79507544D01*
X37842455Y-79507547D01*
X37957664Y-79593793D01*
X37957671Y-79593797D01*
X38092517Y-79644091D01*
X38092516Y-79644091D01*
X38099444Y-79644835D01*
X38152127Y-79650500D01*
X39747872Y-79650499D01*
X39807483Y-79644091D01*
X39942331Y-79593796D01*
X40025689Y-79531393D01*
X40091153Y-79506977D01*
X40159426Y-79521828D01*
X40174309Y-79531393D01*
X40191599Y-79544336D01*
X40257669Y-79593796D01*
X40257671Y-79593797D01*
X40392517Y-79644091D01*
X40392516Y-79644091D01*
X40399444Y-79644835D01*
X40452127Y-79650500D01*
X42047872Y-79650499D01*
X42107483Y-79644091D01*
X42242331Y-79593796D01*
X42326105Y-79531082D01*
X42391569Y-79506665D01*
X42459842Y-79521516D01*
X42474727Y-79531082D01*
X42557910Y-79593352D01*
X42557913Y-79593354D01*
X42692620Y-79643596D01*
X42692627Y-79643598D01*
X42752155Y-79649999D01*
X42752172Y-79650000D01*
X43300000Y-79650000D01*
X43300000Y-76650000D01*
X42752155Y-76650000D01*
X42692627Y-76656401D01*
X42692620Y-76656403D01*
X42557913Y-76706645D01*
X42557910Y-76706647D01*
X42474727Y-76768918D01*
X42409262Y-76793335D01*
X42340989Y-76778483D01*
X42326106Y-76768918D01*
X42242331Y-76706204D01*
X42242328Y-76706202D01*
X42107482Y-76655908D01*
X42107483Y-76655908D01*
X42047883Y-76649501D01*
X42047881Y-76649500D01*
X42047873Y-76649500D01*
X42047865Y-76649500D01*
X41999500Y-76649500D01*
X41932461Y-76629815D01*
X41886706Y-76577011D01*
X41875500Y-76525500D01*
X41875500Y-75698687D01*
X41895185Y-75631648D01*
X41907350Y-75615715D01*
X41925891Y-75595122D01*
X41982533Y-75532216D01*
X42077179Y-75368284D01*
X42135674Y-75188256D01*
X42155460Y-75000000D01*
X42135674Y-74811744D01*
X42077179Y-74631716D01*
X41982533Y-74467784D01*
X41907350Y-74384284D01*
X41877120Y-74321292D01*
X41875500Y-74301312D01*
X41875500Y-73474499D01*
X41895185Y-73407460D01*
X41947989Y-73361705D01*
X41999500Y-73350499D01*
X43197871Y-73350499D01*
X43197872Y-73350499D01*
X43257483Y-73344091D01*
X43392331Y-73293796D01*
X43507546Y-73207546D01*
X43593796Y-73092331D01*
X43644091Y-72957483D01*
X43650500Y-72897873D01*
X43650499Y-70802128D01*
X43644091Y-70742517D01*
X43634866Y-70717784D01*
X43593797Y-70607671D01*
X43593793Y-70607664D01*
X43507547Y-70492455D01*
X43507544Y-70492452D01*
X43392335Y-70406206D01*
X43392328Y-70406202D01*
X43257482Y-70355908D01*
X43257483Y-70355908D01*
X43197883Y-70349501D01*
X43197881Y-70349500D01*
X43197873Y-70349500D01*
X43197865Y-70349500D01*
X40011228Y-70349500D01*
X39944189Y-70329815D01*
X39898434Y-70277011D01*
X39888490Y-70207853D01*
X39917515Y-70144297D01*
X39923532Y-70137833D01*
X39985647Y-70075718D01*
X39999260Y-70063954D01*
X40018530Y-70049610D01*
X40052123Y-70009574D01*
X40055757Y-70005608D01*
X40061590Y-69999777D01*
X40081927Y-69974055D01*
X40131302Y-69915214D01*
X40131304Y-69915209D01*
X40135272Y-69909179D01*
X40135323Y-69909212D01*
X40139369Y-69902860D01*
X40139317Y-69902828D01*
X40143109Y-69896679D01*
X40143111Y-69896677D01*
X40175569Y-69827069D01*
X40210040Y-69758433D01*
X40210043Y-69758417D01*
X40212510Y-69751644D01*
X40212568Y-69751665D01*
X40215043Y-69744546D01*
X40214985Y-69744527D01*
X40217256Y-69737672D01*
X40232784Y-69662467D01*
X40250500Y-69587721D01*
X40250500Y-69587720D01*
X40251339Y-69580548D01*
X40251397Y-69580554D01*
X40252164Y-69573056D01*
X40252104Y-69573051D01*
X40252733Y-69565860D01*
X40250500Y-69489103D01*
X40250500Y-68555127D01*
X40266614Y-68500247D01*
X40480659Y-68500247D01*
X40493477Y-68520192D01*
X40498076Y-68544887D01*
X40514890Y-68747812D01*
X40514892Y-68747824D01*
X40575936Y-68988881D01*
X40675826Y-69216606D01*
X40811833Y-69424782D01*
X40811836Y-69424785D01*
X40980256Y-69607738D01*
X41176491Y-69760474D01*
X41176493Y-69760475D01*
X41394332Y-69878364D01*
X41395190Y-69878828D01*
X41525292Y-69923492D01*
X41628964Y-69959083D01*
X41630386Y-69959571D01*
X41875665Y-70000500D01*
X42124335Y-70000500D01*
X42369614Y-69959571D01*
X42604810Y-69878828D01*
X42823509Y-69760474D01*
X43019744Y-69607738D01*
X43188164Y-69424785D01*
X43324173Y-69216607D01*
X43424063Y-68988881D01*
X43485108Y-68747821D01*
X43485116Y-68747730D01*
X43505643Y-68500005D01*
X43505643Y-68499994D01*
X43485109Y-68252187D01*
X43485107Y-68252175D01*
X43424063Y-68011118D01*
X43324173Y-67783393D01*
X43188166Y-67575217D01*
X43166557Y-67551744D01*
X43019744Y-67392262D01*
X42823509Y-67239526D01*
X42823508Y-67239525D01*
X42823505Y-67239523D01*
X42823503Y-67239522D01*
X42690481Y-67167533D01*
X42640891Y-67118313D01*
X42625500Y-67058479D01*
X42625500Y-63441519D01*
X42645185Y-63374480D01*
X42690483Y-63332464D01*
X42691369Y-63331984D01*
X42823509Y-63260474D01*
X43019744Y-63107738D01*
X43188164Y-62924785D01*
X43324173Y-62716607D01*
X43424063Y-62488881D01*
X43485108Y-62247821D01*
X43490238Y-62185915D01*
X43505643Y-62000005D01*
X43505643Y-61999994D01*
X43485109Y-61752187D01*
X43485107Y-61752175D01*
X43424063Y-61511118D01*
X43324173Y-61283393D01*
X43188166Y-61075217D01*
X43124165Y-61005694D01*
X43019744Y-60892262D01*
X42823509Y-60739526D01*
X42823507Y-60739525D01*
X42823506Y-60739524D01*
X42604811Y-60621172D01*
X42604802Y-60621169D01*
X42369616Y-60540429D01*
X42124335Y-60499500D01*
X41875665Y-60499500D01*
X41630383Y-60540429D01*
X41395197Y-60621169D01*
X41395188Y-60621172D01*
X41176493Y-60739524D01*
X40980257Y-60892261D01*
X40811833Y-61075217D01*
X40675826Y-61283393D01*
X40575936Y-61511118D01*
X40514892Y-61752175D01*
X40514890Y-61752187D01*
X40494357Y-61999994D01*
X40494357Y-62000005D01*
X40514890Y-62247812D01*
X40514892Y-62247824D01*
X40575936Y-62488881D01*
X40675826Y-62716606D01*
X40811833Y-62924782D01*
X40811836Y-62924785D01*
X40980256Y-63107738D01*
X41102764Y-63203090D01*
X41176488Y-63260472D01*
X41176493Y-63260475D01*
X41309517Y-63332464D01*
X41359108Y-63381683D01*
X41374500Y-63441519D01*
X41374500Y-67058479D01*
X41354815Y-67125518D01*
X41309519Y-67167533D01*
X41176496Y-67239522D01*
X41176494Y-67239523D01*
X40980257Y-67392261D01*
X40811833Y-67575217D01*
X40675826Y-67783393D01*
X40575936Y-68011118D01*
X40514892Y-68252175D01*
X40514890Y-68252187D01*
X40498076Y-68455112D01*
X40480659Y-68500247D01*
X40266614Y-68500247D01*
X40267532Y-68497121D01*
X40253044Y-68469862D01*
X40250500Y-68444872D01*
X40250500Y-66284321D01*
X40267113Y-66222321D01*
X40327179Y-66118284D01*
X40385674Y-65938256D01*
X40405460Y-65750000D01*
X40385674Y-65561744D01*
X40327179Y-65381716D01*
X40232533Y-65217784D01*
X40105871Y-65077112D01*
X40105870Y-65077111D01*
X39952734Y-64965851D01*
X39952729Y-64965848D01*
X39779807Y-64888857D01*
X39779802Y-64888855D01*
X39634001Y-64857865D01*
X39594646Y-64849500D01*
X39405354Y-64849500D01*
X39372897Y-64856398D01*
X39220197Y-64888855D01*
X39220192Y-64888857D01*
X39047270Y-64965848D01*
X39047265Y-64965851D01*
X38894129Y-65077111D01*
X38767466Y-65217785D01*
X38672821Y-65381715D01*
X38672818Y-65381722D01*
X38614327Y-65561740D01*
X38614326Y-65561744D01*
X38594540Y-65750000D01*
X38614326Y-65938256D01*
X38614327Y-65938259D01*
X38672818Y-66118277D01*
X38672821Y-66118284D01*
X38732887Y-66222321D01*
X38749500Y-66284321D01*
X38749500Y-67552690D01*
X38729815Y-67619729D01*
X38713181Y-67640371D01*
X38025929Y-68327623D01*
X38023116Y-68314085D01*
X37953558Y-68179844D01*
X37850362Y-68069348D01*
X37721181Y-67990791D01*
X37669997Y-67976450D01*
X38370057Y-67276390D01*
X38370056Y-67276389D01*
X38323229Y-67239943D01*
X38104614Y-67121635D01*
X38104603Y-67121630D01*
X37869493Y-67040916D01*
X37624293Y-67000000D01*
X37375707Y-67000000D01*
X37130506Y-67040916D01*
X36895396Y-67121630D01*
X36895390Y-67121632D01*
X36676761Y-67239949D01*
X36629942Y-67276388D01*
X36629942Y-67276390D01*
X37328431Y-67974878D01*
X37211542Y-68025651D01*
X37094261Y-68121066D01*
X37007072Y-68244585D01*
X36976645Y-68330197D01*
X36276564Y-67630116D01*
X36176267Y-67783632D01*
X36076412Y-68011282D01*
X36015387Y-68252261D01*
X36015385Y-68252270D01*
X35997576Y-68467204D01*
X35985990Y-68497228D01*
X35760662Y-68497228D01*
X35752544Y-68481955D01*
X35750000Y-68456964D01*
X35750000Y-62043035D01*
X35762458Y-62000607D01*
X35760662Y-61997228D01*
X35985990Y-61997228D01*
X35992977Y-62008100D01*
X35997576Y-62032795D01*
X36015385Y-62247730D01*
X36015387Y-62247738D01*
X36076412Y-62488717D01*
X36176266Y-62716364D01*
X36276564Y-62869882D01*
X36974070Y-62172376D01*
X36976884Y-62185915D01*
X37046442Y-62320156D01*
X37149638Y-62430652D01*
X37278819Y-62509209D01*
X37330002Y-62523549D01*
X36629942Y-63223609D01*
X36676768Y-63260055D01*
X36676770Y-63260056D01*
X36895385Y-63378364D01*
X36895396Y-63378369D01*
X37130506Y-63459083D01*
X37375707Y-63500000D01*
X37624293Y-63500000D01*
X37869493Y-63459083D01*
X38104603Y-63378369D01*
X38104614Y-63378364D01*
X38323228Y-63260057D01*
X38323231Y-63260055D01*
X38370056Y-63223609D01*
X37671568Y-62525121D01*
X37788458Y-62474349D01*
X37905739Y-62378934D01*
X37992928Y-62255415D01*
X38023354Y-62169802D01*
X38723434Y-62869882D01*
X38823731Y-62716369D01*
X38923587Y-62488717D01*
X38984612Y-62247738D01*
X38984614Y-62247729D01*
X39005141Y-62000005D01*
X39005141Y-61999994D01*
X38984614Y-61752270D01*
X38984612Y-61752261D01*
X38923587Y-61511282D01*
X38823731Y-61283630D01*
X38723434Y-61130116D01*
X38025929Y-61827622D01*
X38023116Y-61814085D01*
X37953558Y-61679844D01*
X37850362Y-61569348D01*
X37721181Y-61490791D01*
X37669997Y-61476450D01*
X38370057Y-60776390D01*
X38370056Y-60776389D01*
X38323229Y-60739943D01*
X38104614Y-60621635D01*
X38104603Y-60621630D01*
X37869493Y-60540916D01*
X37624293Y-60500000D01*
X37375707Y-60500000D01*
X37130506Y-60540916D01*
X36895396Y-60621630D01*
X36895390Y-60621632D01*
X36676761Y-60739949D01*
X36629942Y-60776388D01*
X36629942Y-60776390D01*
X37328431Y-61474878D01*
X37211542Y-61525651D01*
X37094261Y-61621066D01*
X37007072Y-61744585D01*
X36976645Y-61830197D01*
X36276564Y-61130116D01*
X36176267Y-61283632D01*
X36076412Y-61511282D01*
X36015387Y-61752261D01*
X36015385Y-61752270D01*
X35997576Y-61967204D01*
X35985990Y-61997228D01*
X35760662Y-61997228D01*
X35752544Y-61981955D01*
X35750000Y-61956964D01*
X35750000Y-48002213D01*
X35750158Y-47997789D01*
X35754504Y-47937020D01*
X35769724Y-47724207D01*
X35772240Y-47706710D01*
X35829130Y-47445192D01*
X35834107Y-47428241D01*
X35927640Y-47177470D01*
X35934985Y-47161388D01*
X36057237Y-46937500D01*
X36600001Y-46937500D01*
X36600001Y-47149986D01*
X36610494Y-47252697D01*
X36665641Y-47419119D01*
X36665643Y-47419124D01*
X36757684Y-47568345D01*
X36881654Y-47692315D01*
X37030875Y-47784356D01*
X37030880Y-47784358D01*
X37197302Y-47839505D01*
X37197309Y-47839506D01*
X37300019Y-47849999D01*
X37749999Y-47849999D01*
X37750000Y-47849998D01*
X37750000Y-46937500D01*
X36600001Y-46937500D01*
X36057237Y-46937500D01*
X36063248Y-46926491D01*
X36072798Y-46911630D01*
X36233195Y-46697366D01*
X36244767Y-46684012D01*
X36434012Y-46494767D01*
X36447371Y-46483191D01*
X36465501Y-46469619D01*
X36475372Y-46462231D01*
X36540837Y-46437816D01*
X36549680Y-46437500D01*
X38126000Y-46437500D01*
X38193039Y-46457185D01*
X38238794Y-46509989D01*
X38250000Y-46561500D01*
X38250000Y-47849999D01*
X38699972Y-47849999D01*
X38699986Y-47849998D01*
X38802697Y-47839505D01*
X38969119Y-47784358D01*
X38969124Y-47784356D01*
X39118345Y-47692315D01*
X39242315Y-47568345D01*
X39334356Y-47419124D01*
X39337408Y-47412579D01*
X39339619Y-47413610D01*
X39372793Y-47365686D01*
X39437305Y-47338855D01*
X39461546Y-47338597D01*
X39493273Y-47341373D01*
X40128909Y-46705736D01*
X40153027Y-46787871D01*
X40230028Y-46907688D01*
X40337667Y-47000957D01*
X40467223Y-47060124D01*
X40479817Y-47061934D01*
X39808569Y-47733181D01*
X39747246Y-47766666D01*
X39720897Y-47769500D01*
X39710334Y-47769500D01*
X39710323Y-47769501D01*
X39650716Y-47775908D01*
X39515871Y-47826202D01*
X39515864Y-47826206D01*
X39400655Y-47912452D01*
X39400652Y-47912455D01*
X39314406Y-48027664D01*
X39314402Y-48027671D01*
X39264108Y-48162517D01*
X39257701Y-48222116D01*
X39257701Y-48222123D01*
X39257700Y-48222135D01*
X39257700Y-48670876D01*
X39238015Y-48737915D01*
X39185211Y-48783670D01*
X39116053Y-48793614D01*
X39068604Y-48776415D01*
X38969340Y-48715189D01*
X38969335Y-48715187D01*
X38969334Y-48715186D01*
X38802797Y-48660001D01*
X38802795Y-48660000D01*
X38700010Y-48649500D01*
X37299998Y-48649500D01*
X37299981Y-48649501D01*
X37197203Y-48660000D01*
X37197200Y-48660001D01*
X37030668Y-48715185D01*
X37030663Y-48715187D01*
X36881342Y-48807289D01*
X36757289Y-48931342D01*
X36665187Y-49080663D01*
X36665186Y-49080666D01*
X36610001Y-49247203D01*
X36610001Y-49247204D01*
X36610000Y-49247204D01*
X36599500Y-49349983D01*
X36599500Y-50275001D01*
X36599501Y-50275019D01*
X36610000Y-50377796D01*
X36610001Y-50377799D01*
X36665185Y-50544331D01*
X36665187Y-50544336D01*
X36696128Y-50594499D01*
X36757288Y-50693656D01*
X36881344Y-50817712D01*
X37030666Y-50909814D01*
X37197203Y-50964999D01*
X37299991Y-50975500D01*
X38700008Y-50975499D01*
X38802797Y-50964999D01*
X38969334Y-50909814D01*
X39118656Y-50817712D01*
X39242712Y-50693656D01*
X39334814Y-50544334D01*
X39338762Y-50532421D01*
X39341886Y-50522994D01*
X39381659Y-50465550D01*
X39446175Y-50438728D01*
X39459591Y-50438000D01*
X39558391Y-50438000D01*
X39601724Y-50445818D01*
X39650717Y-50464091D01*
X39650716Y-50464091D01*
X39657644Y-50464835D01*
X39710327Y-50470500D01*
X41506072Y-50470499D01*
X41565683Y-50464091D01*
X41700531Y-50413796D01*
X41815746Y-50327546D01*
X41901996Y-50212331D01*
X41952291Y-50077483D01*
X41958700Y-50017873D01*
X41958699Y-48222128D01*
X41952291Y-48162517D01*
X41901996Y-48027669D01*
X41901995Y-48027668D01*
X41901993Y-48027664D01*
X41815747Y-47912455D01*
X41815744Y-47912452D01*
X41700535Y-47826206D01*
X41700528Y-47826202D01*
X41565682Y-47775908D01*
X41565683Y-47775908D01*
X41506083Y-47769501D01*
X41506081Y-47769500D01*
X41506073Y-47769500D01*
X41506065Y-47769500D01*
X41495510Y-47769500D01*
X41428471Y-47749815D01*
X41407829Y-47733181D01*
X40736582Y-47061934D01*
X40749177Y-47060124D01*
X40878733Y-47000957D01*
X40986372Y-46907688D01*
X41063373Y-46787871D01*
X41087489Y-46705737D01*
X41723125Y-47341373D01*
X41723126Y-47341373D01*
X41781798Y-47257582D01*
X41781800Y-47257578D01*
X41881629Y-47043492D01*
X41881633Y-47043483D01*
X41942767Y-46815326D01*
X41942769Y-46815315D01*
X41953952Y-46687500D01*
X43850001Y-46687500D01*
X43850001Y-46899986D01*
X43860494Y-47002697D01*
X43915641Y-47169119D01*
X43915643Y-47169124D01*
X44007684Y-47318345D01*
X44131654Y-47442315D01*
X44280875Y-47534356D01*
X44280880Y-47534358D01*
X44447302Y-47589505D01*
X44447309Y-47589506D01*
X44550019Y-47599999D01*
X44999999Y-47599999D01*
X45000000Y-47599998D01*
X45000000Y-46687500D01*
X43850001Y-46687500D01*
X41953952Y-46687500D01*
X41963357Y-46580001D01*
X41963357Y-46579998D01*
X41942769Y-46344684D01*
X41942767Y-46344673D01*
X41892238Y-46156093D01*
X41893901Y-46086243D01*
X41933064Y-46028381D01*
X41997292Y-46000877D01*
X42012013Y-46000000D01*
X43726000Y-46000000D01*
X43793039Y-46019685D01*
G37*
%TD.AperFunction*%
%TA.AperFunction,Conductor*%
G36*
X52324000Y-49240046D02*
G01*
X52304315Y-49307085D01*
X52287681Y-49327727D01*
X51616208Y-49999199D01*
X51603951Y-50009020D01*
X51604134Y-50009241D01*
X51598123Y-50014213D01*
X51550772Y-50064636D01*
X51529889Y-50085519D01*
X51529877Y-50085532D01*
X51525621Y-50091017D01*
X51521837Y-50095447D01*
X51489937Y-50129418D01*
X51489936Y-50129420D01*
X51480284Y-50146976D01*
X51469610Y-50163226D01*
X51457329Y-50179061D01*
X51457324Y-50179068D01*
X51438815Y-50221838D01*
X51436245Y-50227084D01*
X51413803Y-50267906D01*
X51408822Y-50287307D01*
X51402521Y-50305710D01*
X51394562Y-50324102D01*
X51394561Y-50324105D01*
X51387271Y-50370127D01*
X51386087Y-50375846D01*
X51374501Y-50420972D01*
X51374500Y-50420982D01*
X51374500Y-50441016D01*
X51372973Y-50460415D01*
X51369840Y-50480194D01*
X51369840Y-50480195D01*
X51374225Y-50526583D01*
X51374500Y-50532421D01*
X51374500Y-55144546D01*
X51354815Y-55211585D01*
X51338181Y-55232227D01*
X51152461Y-55417946D01*
X51091138Y-55451431D01*
X51021446Y-55446447D01*
X50965513Y-55404575D01*
X50945704Y-55364860D01*
X50926745Y-55299606D01*
X50926744Y-55299603D01*
X50926744Y-55299602D01*
X50843081Y-55158135D01*
X50843078Y-55158132D01*
X50838298Y-55151969D01*
X50840750Y-55150066D01*
X50814155Y-55101421D01*
X50819104Y-55031726D01*
X50839940Y-54999304D01*
X50838298Y-54998031D01*
X50843075Y-54991870D01*
X50843081Y-54991865D01*
X50926744Y-54850398D01*
X50972598Y-54692569D01*
X50975500Y-54655694D01*
X50975500Y-54224306D01*
X50972598Y-54187431D01*
X50926744Y-54029602D01*
X50843081Y-53888135D01*
X50843079Y-53888133D01*
X50843076Y-53888129D01*
X50726870Y-53771923D01*
X50726862Y-53771917D01*
X50585396Y-53688255D01*
X50585393Y-53688254D01*
X50427573Y-53642402D01*
X50427567Y-53642401D01*
X50390696Y-53639500D01*
X50390694Y-53639500D01*
X48609306Y-53639500D01*
X48609304Y-53639500D01*
X48572432Y-53642401D01*
X48572426Y-53642402D01*
X48414606Y-53688254D01*
X48414603Y-53688255D01*
X48273137Y-53771917D01*
X48273129Y-53771923D01*
X48156923Y-53888129D01*
X48156916Y-53888138D01*
X48131232Y-53931569D01*
X48080163Y-53979253D01*
X48011421Y-53991756D01*
X47946832Y-53965111D01*
X47906902Y-53907775D01*
X47900500Y-53868448D01*
X47900500Y-50594499D01*
X47920185Y-50527460D01*
X47972989Y-50481705D01*
X48024500Y-50470499D01*
X48506071Y-50470499D01*
X48506072Y-50470499D01*
X48565683Y-50464091D01*
X48700531Y-50413796D01*
X48815746Y-50327546D01*
X48901996Y-50212331D01*
X48952291Y-50077483D01*
X48958700Y-50017873D01*
X48958699Y-48750000D01*
X50125000Y-48750000D01*
X52324000Y-48750000D01*
X52324000Y-49240046D01*
G37*
%TD.AperFunction*%
%TA.AperFunction,Conductor*%
G36*
X48723125Y-47341373D02*
G01*
X48750000Y-47302992D01*
X48750000Y-47863235D01*
X48700535Y-47826206D01*
X48700528Y-47826202D01*
X48565682Y-47775908D01*
X48565683Y-47775908D01*
X48506083Y-47769501D01*
X48506081Y-47769500D01*
X48506073Y-47769500D01*
X48506065Y-47769500D01*
X48495510Y-47769500D01*
X48428471Y-47749815D01*
X48407829Y-47733181D01*
X47736582Y-47061934D01*
X47749177Y-47060124D01*
X47878733Y-47000957D01*
X47986372Y-46907688D01*
X48063373Y-46787871D01*
X48087489Y-46705737D01*
X48723125Y-47341373D01*
G37*
%TD.AperFunction*%
%TD*%
%TA.AperFunction,Conductor*%
%TO.N,GNDD*%
G36*
X51752315Y-45570058D02*
G01*
X51804791Y-45616189D01*
X51824000Y-45682482D01*
X51824000Y-48750000D01*
X50125000Y-48750000D01*
X49458699Y-48750000D01*
X49458699Y-48211964D01*
X49448086Y-48092582D01*
X49392109Y-47896951D01*
X49297898Y-47716593D01*
X49245884Y-47652803D01*
X49169309Y-47558890D01*
X49011609Y-47430304D01*
X49011610Y-47430304D01*
X49011607Y-47430302D01*
X48867110Y-47354823D01*
X48816804Y-47306337D01*
X48800697Y-47238349D01*
X48812141Y-47192510D01*
X48881630Y-47043492D01*
X48881633Y-47043483D01*
X48942767Y-46815326D01*
X48942769Y-46815315D01*
X48963357Y-46580001D01*
X48963357Y-46579998D01*
X48942769Y-46344684D01*
X48942767Y-46344673D01*
X48892238Y-46156093D01*
X48893901Y-46086243D01*
X48933064Y-46028381D01*
X48997292Y-46000877D01*
X49012013Y-46000000D01*
X50500002Y-46000000D01*
X50591253Y-45992818D01*
X50773760Y-45978455D01*
X51040780Y-45914349D01*
X51294483Y-45809261D01*
X51528624Y-45665780D01*
X51619468Y-45588192D01*
X51683229Y-45559621D01*
X51752315Y-45570058D01*
G37*
%TD.AperFunction*%
%TA.AperFunction,Conductor*%
G36*
X58440541Y-39779310D02*
G01*
X58487538Y-39831012D01*
X58500000Y-39885190D01*
X58500000Y-40151000D01*
X58480315Y-40218039D01*
X58427511Y-40263794D01*
X58376000Y-40275000D01*
X58287500Y-40275000D01*
X58287500Y-42724999D01*
X58376000Y-42724999D01*
X58443039Y-42744684D01*
X58488794Y-42797488D01*
X58500000Y-42848999D01*
X58500000Y-48750000D01*
X57584403Y-48750000D01*
X57541657Y-48581199D01*
X57448424Y-48368651D01*
X57358191Y-48230538D01*
X57338003Y-48163649D01*
X57338000Y-48162717D01*
X57338000Y-42816869D01*
X57357685Y-42749830D01*
X57410489Y-42704075D01*
X57479647Y-42694131D01*
X57501005Y-42699163D01*
X57547305Y-42714505D01*
X57547309Y-42714506D01*
X57650019Y-42724999D01*
X57787499Y-42724999D01*
X57787500Y-42724998D01*
X57787500Y-40275000D01*
X57741827Y-40275000D01*
X57674788Y-40255315D01*
X57629033Y-40202511D01*
X57619089Y-40133353D01*
X57648114Y-40069797D01*
X57706892Y-40032023D01*
X57727120Y-40027875D01*
X57729209Y-40027624D01*
X57729226Y-40027624D01*
X57765115Y-40019815D01*
X57772402Y-40018679D01*
X57808971Y-40015188D01*
X57871421Y-39996850D01*
X57875666Y-39995767D01*
X57939258Y-39981934D01*
X57973025Y-39967473D01*
X57979956Y-39964981D01*
X58015209Y-39954631D01*
X58015213Y-39954628D01*
X58015216Y-39954628D01*
X58057278Y-39932942D01*
X58073051Y-39924809D01*
X58077032Y-39922934D01*
X58136849Y-39897321D01*
X58167269Y-39876731D01*
X58173613Y-39872967D01*
X58206259Y-39856138D01*
X58257415Y-39815907D01*
X58260947Y-39813327D01*
X58306500Y-39782498D01*
X58373052Y-39761225D01*
X58440541Y-39779310D01*
G37*
%TD.AperFunction*%
%TA.AperFunction,Conductor*%
G36*
X56317539Y-33204584D02*
G01*
X56363294Y-33257388D01*
X56374500Y-33308899D01*
X56374500Y-34191600D01*
X56354815Y-34258639D01*
X56302011Y-34304394D01*
X56250500Y-34315600D01*
X55592355Y-34315600D01*
X55532827Y-34322001D01*
X55532820Y-34322003D01*
X55398113Y-34372245D01*
X55398106Y-34372249D01*
X55283012Y-34458409D01*
X55283009Y-34458412D01*
X55196849Y-34573506D01*
X55196845Y-34573513D01*
X55146603Y-34708220D01*
X55146601Y-34708227D01*
X55140200Y-34767755D01*
X55140200Y-34845000D01*
X56250500Y-34845000D01*
X56317539Y-34864685D01*
X56363294Y-34917489D01*
X56374500Y-34969000D01*
X56374500Y-35293338D01*
X56354815Y-35360377D01*
X56302011Y-35406132D01*
X56232853Y-35416076D01*
X56169297Y-35387051D01*
X56162819Y-35381019D01*
X56126800Y-35345000D01*
X55140200Y-35345000D01*
X55140200Y-35422244D01*
X55146601Y-35481772D01*
X55146603Y-35481779D01*
X55196845Y-35616486D01*
X55196847Y-35616489D01*
X55226192Y-35655689D01*
X55250609Y-35721154D01*
X55235757Y-35789426D01*
X55226192Y-35804311D01*
X55196847Y-35843510D01*
X55196845Y-35843513D01*
X55146603Y-35978220D01*
X55146601Y-35978227D01*
X55140200Y-36037755D01*
X55140200Y-36115000D01*
X55487810Y-36115000D01*
X55554849Y-36134685D01*
X55600604Y-36187489D01*
X55610548Y-36256647D01*
X55581523Y-36320203D01*
X55522745Y-36357977D01*
X55498790Y-36362512D01*
X55495125Y-36362838D01*
X55462784Y-36365713D01*
X55267154Y-36421689D01*
X55176972Y-36468796D01*
X55086793Y-36515902D01*
X55086791Y-36515903D01*
X55086790Y-36515904D01*
X54954404Y-36623848D01*
X54924869Y-36641728D01*
X54922656Y-36642675D01*
X54922650Y-36642679D01*
X54892233Y-36663266D01*
X54885887Y-36667031D01*
X54853237Y-36683864D01*
X54802094Y-36724082D01*
X54798520Y-36726692D01*
X54758115Y-36754041D01*
X54744642Y-36763160D01*
X54736678Y-36771124D01*
X54675353Y-36804606D01*
X54605662Y-36799619D01*
X54549730Y-36757745D01*
X54525316Y-36692280D01*
X54525000Y-36683439D01*
X54525000Y-33487008D01*
X54544685Y-33419969D01*
X54597489Y-33374214D01*
X54666647Y-33364270D01*
X54669372Y-33364693D01*
X54883951Y-33400500D01*
X54883952Y-33400500D01*
X55116048Y-33400500D01*
X55116049Y-33400500D01*
X55344981Y-33362298D01*
X55564503Y-33286936D01*
X55725431Y-33199845D01*
X55784449Y-33184899D01*
X56250500Y-33184899D01*
X56317539Y-33204584D01*
G37*
%TD.AperFunction*%
%TA.AperFunction,Conductor*%
G36*
X55435747Y-26166550D02*
G01*
X55462782Y-26174286D01*
X55582163Y-26184900D01*
X55582164Y-26184899D01*
X55582165Y-26184900D01*
X55582166Y-26184900D01*
X55582182Y-26184899D01*
X56250500Y-26184899D01*
X56317539Y-26204583D01*
X56363294Y-26257387D01*
X56374500Y-26308899D01*
X56374500Y-27191600D01*
X56354815Y-27258639D01*
X56302011Y-27304394D01*
X56250500Y-27315600D01*
X55592355Y-27315600D01*
X55532827Y-27322001D01*
X55532820Y-27322003D01*
X55398113Y-27372245D01*
X55398106Y-27372249D01*
X55283012Y-27458409D01*
X55283009Y-27458412D01*
X55196849Y-27573506D01*
X55196845Y-27573513D01*
X55146603Y-27708220D01*
X55146601Y-27708227D01*
X55140200Y-27767755D01*
X55140200Y-27845000D01*
X56250500Y-27845000D01*
X56317539Y-27864685D01*
X56363294Y-27917489D01*
X56374500Y-27969000D01*
X56374500Y-28293338D01*
X56354815Y-28360377D01*
X56302011Y-28406132D01*
X56232853Y-28416076D01*
X56169297Y-28387051D01*
X56162819Y-28381019D01*
X56126800Y-28345000D01*
X55140200Y-28345000D01*
X55140200Y-28422244D01*
X55146601Y-28481772D01*
X55146603Y-28481779D01*
X55196845Y-28616486D01*
X55196847Y-28616489D01*
X55226192Y-28655689D01*
X55250609Y-28721154D01*
X55235757Y-28789426D01*
X55226192Y-28804311D01*
X55196847Y-28843510D01*
X55196845Y-28843513D01*
X55146603Y-28978220D01*
X55146601Y-28978227D01*
X55140200Y-29037755D01*
X55140200Y-29115000D01*
X55487810Y-29115000D01*
X55554849Y-29134685D01*
X55600604Y-29187489D01*
X55610548Y-29256647D01*
X55581523Y-29320203D01*
X55522745Y-29357977D01*
X55498790Y-29362512D01*
X55495125Y-29362838D01*
X55462784Y-29365713D01*
X55267154Y-29421689D01*
X55172060Y-29471361D01*
X55086793Y-29515902D01*
X55086791Y-29515903D01*
X55086788Y-29515905D01*
X55072506Y-29527550D01*
X55020514Y-29552609D01*
X54995437Y-29558065D01*
X54995429Y-29558067D01*
X54961664Y-29572526D01*
X54954721Y-29575022D01*
X54919486Y-29585368D01*
X54870319Y-29610716D01*
X54813500Y-29624500D01*
X54354332Y-29624500D01*
X54333769Y-29622783D01*
X54332592Y-29622585D01*
X54330660Y-29622260D01*
X54330658Y-29622260D01*
X54236573Y-29624500D01*
X54199000Y-29624500D01*
X54131961Y-29604815D01*
X54086206Y-29552011D01*
X54075000Y-29500500D01*
X54075000Y-26327675D01*
X54094685Y-26260636D01*
X54147489Y-26214881D01*
X54216647Y-26204937D01*
X54239263Y-26210394D01*
X54405015Y-26267297D01*
X54405017Y-26267297D01*
X54405019Y-26267298D01*
X54633951Y-26305500D01*
X54633952Y-26305500D01*
X54866048Y-26305500D01*
X54866049Y-26305500D01*
X55094981Y-26267298D01*
X55314503Y-26191936D01*
X55342629Y-26176714D01*
X55410954Y-26162118D01*
X55435747Y-26166550D01*
G37*
%TD.AperFunction*%
%TA.AperFunction,Conductor*%
G36*
X56502208Y-19500157D02*
G01*
X56775790Y-19519724D01*
X56793291Y-19522241D01*
X57054803Y-19579129D01*
X57071762Y-19584108D01*
X57322524Y-19677638D01*
X57338616Y-19684987D01*
X57573501Y-19813244D01*
X57588375Y-19822802D01*
X57802624Y-19983188D01*
X57815994Y-19994774D01*
X58005225Y-20184005D01*
X58016811Y-20197375D01*
X58177193Y-20411619D01*
X58186758Y-20426503D01*
X58315011Y-20661382D01*
X58322361Y-20677475D01*
X58415888Y-20928229D01*
X58420872Y-20945205D01*
X58477757Y-21206702D01*
X58480275Y-21224214D01*
X58499842Y-21497789D01*
X58500000Y-21502213D01*
X58500000Y-23749969D01*
X58480315Y-23817008D01*
X58427511Y-23862763D01*
X58358353Y-23872707D01*
X58299838Y-23847823D01*
X58268627Y-23823530D01*
X58268619Y-23823525D01*
X58178881Y-23774961D01*
X58129291Y-23725742D01*
X58113899Y-23665907D01*
X58113899Y-23297567D01*
X58103286Y-23178184D01*
X58103286Y-23178182D01*
X58047309Y-22982551D01*
X57953098Y-22802193D01*
X57867998Y-22697826D01*
X57824509Y-22644490D01*
X57677733Y-22524811D01*
X57666807Y-22515902D01*
X57486449Y-22421691D01*
X57486448Y-22421690D01*
X57486445Y-22421689D01*
X57369229Y-22388150D01*
X57290818Y-22365714D01*
X57290815Y-22365713D01*
X57290813Y-22365713D01*
X57258635Y-22362852D01*
X57254813Y-22362512D01*
X57189781Y-22336969D01*
X57148882Y-22280320D01*
X57145102Y-22210553D01*
X57179641Y-22149817D01*
X57241534Y-22117397D01*
X57265795Y-22115000D01*
X57613400Y-22115000D01*
X57613400Y-22037772D01*
X57613399Y-22037755D01*
X57606998Y-21978227D01*
X57606997Y-21978223D01*
X57556752Y-21843511D01*
X57556751Y-21843510D01*
X57527407Y-21804312D01*
X57502989Y-21738848D01*
X57517840Y-21670575D01*
X57527407Y-21655688D01*
X57556751Y-21616489D01*
X57556752Y-21616488D01*
X57606997Y-21481776D01*
X57606998Y-21481772D01*
X57613399Y-21422244D01*
X57613400Y-21422227D01*
X57613400Y-21345000D01*
X56626800Y-21345000D01*
X56626800Y-22115000D01*
X56655219Y-22143419D01*
X56688704Y-22204742D01*
X56683720Y-22274434D01*
X56641848Y-22330367D01*
X56576384Y-22354784D01*
X56567538Y-22355100D01*
X56186061Y-22355100D01*
X56119022Y-22335415D01*
X56073267Y-22282611D01*
X56063323Y-22213453D01*
X56092348Y-22149897D01*
X56098380Y-22143418D01*
X56126800Y-22114998D01*
X56126800Y-21345000D01*
X55140200Y-21345000D01*
X55140200Y-21422244D01*
X55146601Y-21481772D01*
X55146603Y-21481779D01*
X55196845Y-21616486D01*
X55196847Y-21616489D01*
X55226192Y-21655689D01*
X55250609Y-21721154D01*
X55235757Y-21789426D01*
X55226192Y-21804311D01*
X55196847Y-21843510D01*
X55196845Y-21843513D01*
X55146603Y-21978220D01*
X55146601Y-21978227D01*
X55140200Y-22037755D01*
X55140200Y-22115000D01*
X55487810Y-22115000D01*
X55554849Y-22134685D01*
X55600604Y-22187489D01*
X55610548Y-22256647D01*
X55581523Y-22320203D01*
X55522745Y-22357977D01*
X55498790Y-22362512D01*
X55495125Y-22362838D01*
X55462784Y-22365713D01*
X55267152Y-22421690D01*
X55126025Y-22495409D01*
X55068614Y-22509500D01*
X53618332Y-22509500D01*
X53597769Y-22507783D01*
X53596592Y-22507585D01*
X53594660Y-22507260D01*
X53594658Y-22507260D01*
X53500573Y-22509500D01*
X53460382Y-22509500D01*
X53456626Y-22509858D01*
X53449236Y-22510563D01*
X53444824Y-22510826D01*
X53379769Y-22512376D01*
X53343873Y-22520184D01*
X53336586Y-22521320D01*
X53332214Y-22521738D01*
X53300033Y-22524811D01*
X53300029Y-22524811D01*
X53300029Y-22524812D01*
X53291149Y-22527419D01*
X53237612Y-22543138D01*
X53233324Y-22544233D01*
X53169747Y-22558063D01*
X53169737Y-22558066D01*
X53135969Y-22572526D01*
X53129026Y-22575022D01*
X53093793Y-22585368D01*
X53035971Y-22615176D01*
X53031968Y-22617062D01*
X52972153Y-22642677D01*
X52972152Y-22642677D01*
X52941732Y-22663267D01*
X52935387Y-22667031D01*
X52902737Y-22683864D01*
X52851594Y-22724082D01*
X52848020Y-22726692D01*
X52819005Y-22746331D01*
X52752454Y-22767607D01*
X52684965Y-22749525D01*
X52637965Y-22697826D01*
X52625500Y-22643642D01*
X52625500Y-22604332D01*
X52627218Y-22583765D01*
X52627738Y-22580668D01*
X52627739Y-22580660D01*
X52627740Y-22580657D01*
X52626702Y-22537088D01*
X52630461Y-22503705D01*
X52636134Y-22481305D01*
X52646591Y-22355101D01*
X52655300Y-22250006D01*
X52655300Y-22249993D01*
X52636135Y-22018702D01*
X52636133Y-22018691D01*
X52579157Y-21793699D01*
X52485924Y-21581151D01*
X52358978Y-21386845D01*
X52301641Y-21324561D01*
X52270718Y-21261907D01*
X52269186Y-21231736D01*
X52269725Y-21224197D01*
X52272240Y-21206710D01*
X52329130Y-20945192D01*
X52334107Y-20928241D01*
X52365154Y-20845000D01*
X55140200Y-20845000D01*
X56126800Y-20845000D01*
X56126800Y-20315600D01*
X56626800Y-20315600D01*
X56626800Y-20845000D01*
X57613400Y-20845000D01*
X57613400Y-20767772D01*
X57613399Y-20767755D01*
X57606998Y-20708227D01*
X57606996Y-20708220D01*
X57556754Y-20573513D01*
X57556750Y-20573506D01*
X57470590Y-20458412D01*
X57470587Y-20458409D01*
X57355493Y-20372249D01*
X57355486Y-20372245D01*
X57220779Y-20322003D01*
X57220772Y-20322001D01*
X57161244Y-20315600D01*
X56626800Y-20315600D01*
X56126800Y-20315600D01*
X55592355Y-20315600D01*
X55532827Y-20322001D01*
X55532820Y-20322003D01*
X55398113Y-20372245D01*
X55398106Y-20372249D01*
X55283012Y-20458409D01*
X55283009Y-20458412D01*
X55196849Y-20573506D01*
X55196845Y-20573513D01*
X55146603Y-20708220D01*
X55146601Y-20708227D01*
X55140200Y-20767755D01*
X55140200Y-20845000D01*
X52365154Y-20845000D01*
X52427640Y-20677470D01*
X52434985Y-20661388D01*
X52563248Y-20426491D01*
X52572798Y-20411630D01*
X52733195Y-20197366D01*
X52744767Y-20184012D01*
X52934012Y-19994767D01*
X52947366Y-19983195D01*
X53161630Y-19822798D01*
X53176491Y-19813248D01*
X53411388Y-19684985D01*
X53427470Y-19677640D01*
X53678241Y-19584107D01*
X53695192Y-19579130D01*
X53956710Y-19522240D01*
X53974207Y-19519724D01*
X54247791Y-19500157D01*
X54252214Y-19500000D01*
X56497786Y-19500000D01*
X56502208Y-19500157D01*
G37*
%TD.AperFunction*%
%TD*%
M02*
