%TF.GenerationSoftware,KiCad,Pcbnew,7.0.9*%
%TF.CreationDate,2025-02-22T11:45:47+05:30*%
%TF.ProjectId,DigitalCurrentShunt,44696769-7461-46c4-9375-7272656e7453,rev?*%
%TF.SameCoordinates,Original*%
%TF.FileFunction,Legend,Top*%
%TF.FilePolarity,Positive*%
%FSLAX46Y46*%
G04 Gerber Fmt 4.6, Leading zero omitted, Abs format (unit mm)*
G04 Created by KiCad (PCBNEW 7.0.9) date 2025-02-22 11:45:47*
%MOMM*%
%LPD*%
G01*
G04 APERTURE LIST*
%ADD10C,0.150000*%
%ADD11C,0.120000*%
%ADD12C,0.152400*%
%ADD13C,0.200000*%
G04 APERTURE END LIST*
D10*
X47334819Y-82083333D02*
X48049104Y-82083333D01*
X48049104Y-82083333D02*
X48191961Y-82130952D01*
X48191961Y-82130952D02*
X48287200Y-82226190D01*
X48287200Y-82226190D02*
X48334819Y-82369047D01*
X48334819Y-82369047D02*
X48334819Y-82464285D01*
X47334819Y-81702380D02*
X47334819Y-81083333D01*
X47334819Y-81083333D02*
X47715771Y-81416666D01*
X47715771Y-81416666D02*
X47715771Y-81273809D01*
X47715771Y-81273809D02*
X47763390Y-81178571D01*
X47763390Y-81178571D02*
X47811009Y-81130952D01*
X47811009Y-81130952D02*
X47906247Y-81083333D01*
X47906247Y-81083333D02*
X48144342Y-81083333D01*
X48144342Y-81083333D02*
X48239580Y-81130952D01*
X48239580Y-81130952D02*
X48287200Y-81178571D01*
X48287200Y-81178571D02*
X48334819Y-81273809D01*
X48334819Y-81273809D02*
X48334819Y-81559523D01*
X48334819Y-81559523D02*
X48287200Y-81654761D01*
X48287200Y-81654761D02*
X48239580Y-81702380D01*
X53404819Y-73988094D02*
X54214342Y-73988094D01*
X54214342Y-73988094D02*
X54309580Y-73940475D01*
X54309580Y-73940475D02*
X54357200Y-73892856D01*
X54357200Y-73892856D02*
X54404819Y-73797618D01*
X54404819Y-73797618D02*
X54404819Y-73607142D01*
X54404819Y-73607142D02*
X54357200Y-73511904D01*
X54357200Y-73511904D02*
X54309580Y-73464285D01*
X54309580Y-73464285D02*
X54214342Y-73416666D01*
X54214342Y-73416666D02*
X53404819Y-73416666D01*
X54404819Y-72416666D02*
X54404819Y-72988094D01*
X54404819Y-72702380D02*
X53404819Y-72702380D01*
X53404819Y-72702380D02*
X53547676Y-72797618D01*
X53547676Y-72797618D02*
X53642914Y-72892856D01*
X53642914Y-72892856D02*
X53690533Y-72988094D01*
X53404819Y-71797618D02*
X53404819Y-71702380D01*
X53404819Y-71702380D02*
X53452438Y-71607142D01*
X53452438Y-71607142D02*
X53500057Y-71559523D01*
X53500057Y-71559523D02*
X53595295Y-71511904D01*
X53595295Y-71511904D02*
X53785771Y-71464285D01*
X53785771Y-71464285D02*
X54023866Y-71464285D01*
X54023866Y-71464285D02*
X54214342Y-71511904D01*
X54214342Y-71511904D02*
X54309580Y-71559523D01*
X54309580Y-71559523D02*
X54357200Y-71607142D01*
X54357200Y-71607142D02*
X54404819Y-71702380D01*
X54404819Y-71702380D02*
X54404819Y-71797618D01*
X54404819Y-71797618D02*
X54357200Y-71892856D01*
X54357200Y-71892856D02*
X54309580Y-71940475D01*
X54309580Y-71940475D02*
X54214342Y-71988094D01*
X54214342Y-71988094D02*
X54023866Y-72035713D01*
X54023866Y-72035713D02*
X53785771Y-72035713D01*
X53785771Y-72035713D02*
X53595295Y-71988094D01*
X53595295Y-71988094D02*
X53500057Y-71940475D01*
X53500057Y-71940475D02*
X53452438Y-71892856D01*
X53452438Y-71892856D02*
X53404819Y-71797618D01*
X41607142Y-76259580D02*
X41559523Y-76307200D01*
X41559523Y-76307200D02*
X41416666Y-76354819D01*
X41416666Y-76354819D02*
X41321428Y-76354819D01*
X41321428Y-76354819D02*
X41178571Y-76307200D01*
X41178571Y-76307200D02*
X41083333Y-76211961D01*
X41083333Y-76211961D02*
X41035714Y-76116723D01*
X41035714Y-76116723D02*
X40988095Y-75926247D01*
X40988095Y-75926247D02*
X40988095Y-75783390D01*
X40988095Y-75783390D02*
X41035714Y-75592914D01*
X41035714Y-75592914D02*
X41083333Y-75497676D01*
X41083333Y-75497676D02*
X41178571Y-75402438D01*
X41178571Y-75402438D02*
X41321428Y-75354819D01*
X41321428Y-75354819D02*
X41416666Y-75354819D01*
X41416666Y-75354819D02*
X41559523Y-75402438D01*
X41559523Y-75402438D02*
X41607142Y-75450057D01*
X42559523Y-76354819D02*
X41988095Y-76354819D01*
X42273809Y-76354819D02*
X42273809Y-75354819D01*
X42273809Y-75354819D02*
X42178571Y-75497676D01*
X42178571Y-75497676D02*
X42083333Y-75592914D01*
X42083333Y-75592914D02*
X41988095Y-75640533D01*
X42892857Y-75354819D02*
X43559523Y-75354819D01*
X43559523Y-75354819D02*
X43130952Y-76354819D01*
X51107142Y-49209580D02*
X51059523Y-49257200D01*
X51059523Y-49257200D02*
X50916666Y-49304819D01*
X50916666Y-49304819D02*
X50821428Y-49304819D01*
X50821428Y-49304819D02*
X50678571Y-49257200D01*
X50678571Y-49257200D02*
X50583333Y-49161961D01*
X50583333Y-49161961D02*
X50535714Y-49066723D01*
X50535714Y-49066723D02*
X50488095Y-48876247D01*
X50488095Y-48876247D02*
X50488095Y-48733390D01*
X50488095Y-48733390D02*
X50535714Y-48542914D01*
X50535714Y-48542914D02*
X50583333Y-48447676D01*
X50583333Y-48447676D02*
X50678571Y-48352438D01*
X50678571Y-48352438D02*
X50821428Y-48304819D01*
X50821428Y-48304819D02*
X50916666Y-48304819D01*
X50916666Y-48304819D02*
X51059523Y-48352438D01*
X51059523Y-48352438D02*
X51107142Y-48400057D01*
X52059523Y-49304819D02*
X51488095Y-49304819D01*
X51773809Y-49304819D02*
X51773809Y-48304819D01*
X51773809Y-48304819D02*
X51678571Y-48447676D01*
X51678571Y-48447676D02*
X51583333Y-48542914D01*
X51583333Y-48542914D02*
X51488095Y-48590533D01*
X52916666Y-48304819D02*
X52726190Y-48304819D01*
X52726190Y-48304819D02*
X52630952Y-48352438D01*
X52630952Y-48352438D02*
X52583333Y-48400057D01*
X52583333Y-48400057D02*
X52488095Y-48542914D01*
X52488095Y-48542914D02*
X52440476Y-48733390D01*
X52440476Y-48733390D02*
X52440476Y-49114342D01*
X52440476Y-49114342D02*
X52488095Y-49209580D01*
X52488095Y-49209580D02*
X52535714Y-49257200D01*
X52535714Y-49257200D02*
X52630952Y-49304819D01*
X52630952Y-49304819D02*
X52821428Y-49304819D01*
X52821428Y-49304819D02*
X52916666Y-49257200D01*
X52916666Y-49257200D02*
X52964285Y-49209580D01*
X52964285Y-49209580D02*
X53011904Y-49114342D01*
X53011904Y-49114342D02*
X53011904Y-48876247D01*
X53011904Y-48876247D02*
X52964285Y-48781009D01*
X52964285Y-48781009D02*
X52916666Y-48733390D01*
X52916666Y-48733390D02*
X52821428Y-48685771D01*
X52821428Y-48685771D02*
X52630952Y-48685771D01*
X52630952Y-48685771D02*
X52535714Y-48733390D01*
X52535714Y-48733390D02*
X52488095Y-48781009D01*
X52488095Y-48781009D02*
X52440476Y-48876247D01*
X37954819Y-46071904D02*
X38764342Y-46071904D01*
X38764342Y-46071904D02*
X38859580Y-46024285D01*
X38859580Y-46024285D02*
X38907200Y-45976666D01*
X38907200Y-45976666D02*
X38954819Y-45881428D01*
X38954819Y-45881428D02*
X38954819Y-45690952D01*
X38954819Y-45690952D02*
X38907200Y-45595714D01*
X38907200Y-45595714D02*
X38859580Y-45548095D01*
X38859580Y-45548095D02*
X38764342Y-45500476D01*
X38764342Y-45500476D02*
X37954819Y-45500476D01*
X38954819Y-44976666D02*
X38954819Y-44786190D01*
X38954819Y-44786190D02*
X38907200Y-44690952D01*
X38907200Y-44690952D02*
X38859580Y-44643333D01*
X38859580Y-44643333D02*
X38716723Y-44548095D01*
X38716723Y-44548095D02*
X38526247Y-44500476D01*
X38526247Y-44500476D02*
X38145295Y-44500476D01*
X38145295Y-44500476D02*
X38050057Y-44548095D01*
X38050057Y-44548095D02*
X38002438Y-44595714D01*
X38002438Y-44595714D02*
X37954819Y-44690952D01*
X37954819Y-44690952D02*
X37954819Y-44881428D01*
X37954819Y-44881428D02*
X38002438Y-44976666D01*
X38002438Y-44976666D02*
X38050057Y-45024285D01*
X38050057Y-45024285D02*
X38145295Y-45071904D01*
X38145295Y-45071904D02*
X38383390Y-45071904D01*
X38383390Y-45071904D02*
X38478628Y-45024285D01*
X38478628Y-45024285D02*
X38526247Y-44976666D01*
X38526247Y-44976666D02*
X38573866Y-44881428D01*
X38573866Y-44881428D02*
X38573866Y-44690952D01*
X38573866Y-44690952D02*
X38526247Y-44595714D01*
X38526247Y-44595714D02*
X38478628Y-44548095D01*
X38478628Y-44548095D02*
X38383390Y-44500476D01*
X40063019Y-52129899D02*
X40301114Y-52129899D01*
X40205876Y-52367994D02*
X40301114Y-52129899D01*
X40301114Y-52129899D02*
X40205876Y-51891804D01*
X40491590Y-52272756D02*
X40301114Y-52129899D01*
X40301114Y-52129899D02*
X40491590Y-51987042D01*
X40063019Y-52129899D02*
X40301114Y-52129899D01*
X40205876Y-52367994D02*
X40301114Y-52129899D01*
X40301114Y-52129899D02*
X40205876Y-51891804D01*
X40491590Y-52272756D02*
X40301114Y-52129899D01*
X40301114Y-52129899D02*
X40491590Y-51987042D01*
X34054819Y-34356904D02*
X34864342Y-34356904D01*
X34864342Y-34356904D02*
X34959580Y-34309285D01*
X34959580Y-34309285D02*
X35007200Y-34261666D01*
X35007200Y-34261666D02*
X35054819Y-34166428D01*
X35054819Y-34166428D02*
X35054819Y-33975952D01*
X35054819Y-33975952D02*
X35007200Y-33880714D01*
X35007200Y-33880714D02*
X34959580Y-33833095D01*
X34959580Y-33833095D02*
X34864342Y-33785476D01*
X34864342Y-33785476D02*
X34054819Y-33785476D01*
X35054819Y-32785476D02*
X35054819Y-33356904D01*
X35054819Y-33071190D02*
X34054819Y-33071190D01*
X34054819Y-33071190D02*
X34197676Y-33166428D01*
X34197676Y-33166428D02*
X34292914Y-33261666D01*
X34292914Y-33261666D02*
X34340533Y-33356904D01*
X43554819Y-37392857D02*
X43078628Y-37726190D01*
X43554819Y-37964285D02*
X42554819Y-37964285D01*
X42554819Y-37964285D02*
X42554819Y-37583333D01*
X42554819Y-37583333D02*
X42602438Y-37488095D01*
X42602438Y-37488095D02*
X42650057Y-37440476D01*
X42650057Y-37440476D02*
X42745295Y-37392857D01*
X42745295Y-37392857D02*
X42888152Y-37392857D01*
X42888152Y-37392857D02*
X42983390Y-37440476D01*
X42983390Y-37440476D02*
X43031009Y-37488095D01*
X43031009Y-37488095D02*
X43078628Y-37583333D01*
X43078628Y-37583333D02*
X43078628Y-37964285D01*
X42650057Y-37011904D02*
X42602438Y-36964285D01*
X42602438Y-36964285D02*
X42554819Y-36869047D01*
X42554819Y-36869047D02*
X42554819Y-36630952D01*
X42554819Y-36630952D02*
X42602438Y-36535714D01*
X42602438Y-36535714D02*
X42650057Y-36488095D01*
X42650057Y-36488095D02*
X42745295Y-36440476D01*
X42745295Y-36440476D02*
X42840533Y-36440476D01*
X42840533Y-36440476D02*
X42983390Y-36488095D01*
X42983390Y-36488095D02*
X43554819Y-37059523D01*
X43554819Y-37059523D02*
X43554819Y-36440476D01*
X43554819Y-35964285D02*
X43554819Y-35773809D01*
X43554819Y-35773809D02*
X43507200Y-35678571D01*
X43507200Y-35678571D02*
X43459580Y-35630952D01*
X43459580Y-35630952D02*
X43316723Y-35535714D01*
X43316723Y-35535714D02*
X43126247Y-35488095D01*
X43126247Y-35488095D02*
X42745295Y-35488095D01*
X42745295Y-35488095D02*
X42650057Y-35535714D01*
X42650057Y-35535714D02*
X42602438Y-35583333D01*
X42602438Y-35583333D02*
X42554819Y-35678571D01*
X42554819Y-35678571D02*
X42554819Y-35869047D01*
X42554819Y-35869047D02*
X42602438Y-35964285D01*
X42602438Y-35964285D02*
X42650057Y-36011904D01*
X42650057Y-36011904D02*
X42745295Y-36059523D01*
X42745295Y-36059523D02*
X42983390Y-36059523D01*
X42983390Y-36059523D02*
X43078628Y-36011904D01*
X43078628Y-36011904D02*
X43126247Y-35964285D01*
X43126247Y-35964285D02*
X43173866Y-35869047D01*
X43173866Y-35869047D02*
X43173866Y-35678571D01*
X43173866Y-35678571D02*
X43126247Y-35583333D01*
X43126247Y-35583333D02*
X43078628Y-35535714D01*
X43078628Y-35535714D02*
X42983390Y-35488095D01*
X45357142Y-63814819D02*
X45023809Y-63338628D01*
X44785714Y-63814819D02*
X44785714Y-62814819D01*
X44785714Y-62814819D02*
X45166666Y-62814819D01*
X45166666Y-62814819D02*
X45261904Y-62862438D01*
X45261904Y-62862438D02*
X45309523Y-62910057D01*
X45309523Y-62910057D02*
X45357142Y-63005295D01*
X45357142Y-63005295D02*
X45357142Y-63148152D01*
X45357142Y-63148152D02*
X45309523Y-63243390D01*
X45309523Y-63243390D02*
X45261904Y-63291009D01*
X45261904Y-63291009D02*
X45166666Y-63338628D01*
X45166666Y-63338628D02*
X44785714Y-63338628D01*
X45738095Y-62910057D02*
X45785714Y-62862438D01*
X45785714Y-62862438D02*
X45880952Y-62814819D01*
X45880952Y-62814819D02*
X46119047Y-62814819D01*
X46119047Y-62814819D02*
X46214285Y-62862438D01*
X46214285Y-62862438D02*
X46261904Y-62910057D01*
X46261904Y-62910057D02*
X46309523Y-63005295D01*
X46309523Y-63005295D02*
X46309523Y-63100533D01*
X46309523Y-63100533D02*
X46261904Y-63243390D01*
X46261904Y-63243390D02*
X45690476Y-63814819D01*
X45690476Y-63814819D02*
X46309523Y-63814819D01*
X46642857Y-62814819D02*
X47261904Y-62814819D01*
X47261904Y-62814819D02*
X46928571Y-63195771D01*
X46928571Y-63195771D02*
X47071428Y-63195771D01*
X47071428Y-63195771D02*
X47166666Y-63243390D01*
X47166666Y-63243390D02*
X47214285Y-63291009D01*
X47214285Y-63291009D02*
X47261904Y-63386247D01*
X47261904Y-63386247D02*
X47261904Y-63624342D01*
X47261904Y-63624342D02*
X47214285Y-63719580D01*
X47214285Y-63719580D02*
X47166666Y-63767200D01*
X47166666Y-63767200D02*
X47071428Y-63814819D01*
X47071428Y-63814819D02*
X46785714Y-63814819D01*
X46785714Y-63814819D02*
X46690476Y-63767200D01*
X46690476Y-63767200D02*
X46642857Y-63719580D01*
X44954819Y-46071904D02*
X45764342Y-46071904D01*
X45764342Y-46071904D02*
X45859580Y-46024285D01*
X45859580Y-46024285D02*
X45907200Y-45976666D01*
X45907200Y-45976666D02*
X45954819Y-45881428D01*
X45954819Y-45881428D02*
X45954819Y-45690952D01*
X45954819Y-45690952D02*
X45907200Y-45595714D01*
X45907200Y-45595714D02*
X45859580Y-45548095D01*
X45859580Y-45548095D02*
X45764342Y-45500476D01*
X45764342Y-45500476D02*
X44954819Y-45500476D01*
X45383390Y-44881428D02*
X45335771Y-44976666D01*
X45335771Y-44976666D02*
X45288152Y-45024285D01*
X45288152Y-45024285D02*
X45192914Y-45071904D01*
X45192914Y-45071904D02*
X45145295Y-45071904D01*
X45145295Y-45071904D02*
X45050057Y-45024285D01*
X45050057Y-45024285D02*
X45002438Y-44976666D01*
X45002438Y-44976666D02*
X44954819Y-44881428D01*
X44954819Y-44881428D02*
X44954819Y-44690952D01*
X44954819Y-44690952D02*
X45002438Y-44595714D01*
X45002438Y-44595714D02*
X45050057Y-44548095D01*
X45050057Y-44548095D02*
X45145295Y-44500476D01*
X45145295Y-44500476D02*
X45192914Y-44500476D01*
X45192914Y-44500476D02*
X45288152Y-44548095D01*
X45288152Y-44548095D02*
X45335771Y-44595714D01*
X45335771Y-44595714D02*
X45383390Y-44690952D01*
X45383390Y-44690952D02*
X45383390Y-44881428D01*
X45383390Y-44881428D02*
X45431009Y-44976666D01*
X45431009Y-44976666D02*
X45478628Y-45024285D01*
X45478628Y-45024285D02*
X45573866Y-45071904D01*
X45573866Y-45071904D02*
X45764342Y-45071904D01*
X45764342Y-45071904D02*
X45859580Y-45024285D01*
X45859580Y-45024285D02*
X45907200Y-44976666D01*
X45907200Y-44976666D02*
X45954819Y-44881428D01*
X45954819Y-44881428D02*
X45954819Y-44690952D01*
X45954819Y-44690952D02*
X45907200Y-44595714D01*
X45907200Y-44595714D02*
X45859580Y-44548095D01*
X45859580Y-44548095D02*
X45764342Y-44500476D01*
X45764342Y-44500476D02*
X45573866Y-44500476D01*
X45573866Y-44500476D02*
X45478628Y-44548095D01*
X45478628Y-44548095D02*
X45431009Y-44595714D01*
X45431009Y-44595714D02*
X45383390Y-44690952D01*
X47063019Y-54129899D02*
X47301114Y-54129899D01*
X47205876Y-54367994D02*
X47301114Y-54129899D01*
X47301114Y-54129899D02*
X47205876Y-53891804D01*
X47491590Y-54272756D02*
X47301114Y-54129899D01*
X47301114Y-54129899D02*
X47491590Y-53987042D01*
X47063019Y-54129899D02*
X47301114Y-54129899D01*
X47205876Y-54367994D02*
X47301114Y-54129899D01*
X47301114Y-54129899D02*
X47205876Y-53891804D01*
X47491590Y-54272756D02*
X47301114Y-54129899D01*
X47301114Y-54129899D02*
X47491590Y-53987042D01*
X44209580Y-33416666D02*
X44257200Y-33464285D01*
X44257200Y-33464285D02*
X44304819Y-33607142D01*
X44304819Y-33607142D02*
X44304819Y-33702380D01*
X44304819Y-33702380D02*
X44257200Y-33845237D01*
X44257200Y-33845237D02*
X44161961Y-33940475D01*
X44161961Y-33940475D02*
X44066723Y-33988094D01*
X44066723Y-33988094D02*
X43876247Y-34035713D01*
X43876247Y-34035713D02*
X43733390Y-34035713D01*
X43733390Y-34035713D02*
X43542914Y-33988094D01*
X43542914Y-33988094D02*
X43447676Y-33940475D01*
X43447676Y-33940475D02*
X43352438Y-33845237D01*
X43352438Y-33845237D02*
X43304819Y-33702380D01*
X43304819Y-33702380D02*
X43304819Y-33607142D01*
X43304819Y-33607142D02*
X43352438Y-33464285D01*
X43352438Y-33464285D02*
X43400057Y-33416666D01*
X43400057Y-33035713D02*
X43352438Y-32988094D01*
X43352438Y-32988094D02*
X43304819Y-32892856D01*
X43304819Y-32892856D02*
X43304819Y-32654761D01*
X43304819Y-32654761D02*
X43352438Y-32559523D01*
X43352438Y-32559523D02*
X43400057Y-32511904D01*
X43400057Y-32511904D02*
X43495295Y-32464285D01*
X43495295Y-32464285D02*
X43590533Y-32464285D01*
X43590533Y-32464285D02*
X43733390Y-32511904D01*
X43733390Y-32511904D02*
X44304819Y-33083332D01*
X44304819Y-33083332D02*
X44304819Y-32464285D01*
X45357142Y-61814819D02*
X45023809Y-61338628D01*
X44785714Y-61814819D02*
X44785714Y-60814819D01*
X44785714Y-60814819D02*
X45166666Y-60814819D01*
X45166666Y-60814819D02*
X45261904Y-60862438D01*
X45261904Y-60862438D02*
X45309523Y-60910057D01*
X45309523Y-60910057D02*
X45357142Y-61005295D01*
X45357142Y-61005295D02*
X45357142Y-61148152D01*
X45357142Y-61148152D02*
X45309523Y-61243390D01*
X45309523Y-61243390D02*
X45261904Y-61291009D01*
X45261904Y-61291009D02*
X45166666Y-61338628D01*
X45166666Y-61338628D02*
X44785714Y-61338628D01*
X45738095Y-60910057D02*
X45785714Y-60862438D01*
X45785714Y-60862438D02*
X45880952Y-60814819D01*
X45880952Y-60814819D02*
X46119047Y-60814819D01*
X46119047Y-60814819D02*
X46214285Y-60862438D01*
X46214285Y-60862438D02*
X46261904Y-60910057D01*
X46261904Y-60910057D02*
X46309523Y-61005295D01*
X46309523Y-61005295D02*
X46309523Y-61100533D01*
X46309523Y-61100533D02*
X46261904Y-61243390D01*
X46261904Y-61243390D02*
X45690476Y-61814819D01*
X45690476Y-61814819D02*
X46309523Y-61814819D01*
X46690476Y-60910057D02*
X46738095Y-60862438D01*
X46738095Y-60862438D02*
X46833333Y-60814819D01*
X46833333Y-60814819D02*
X47071428Y-60814819D01*
X47071428Y-60814819D02*
X47166666Y-60862438D01*
X47166666Y-60862438D02*
X47214285Y-60910057D01*
X47214285Y-60910057D02*
X47261904Y-61005295D01*
X47261904Y-61005295D02*
X47261904Y-61100533D01*
X47261904Y-61100533D02*
X47214285Y-61243390D01*
X47214285Y-61243390D02*
X46642857Y-61814819D01*
X46642857Y-61814819D02*
X47261904Y-61814819D01*
X36307142Y-60409580D02*
X36259523Y-60457200D01*
X36259523Y-60457200D02*
X36116666Y-60504819D01*
X36116666Y-60504819D02*
X36021428Y-60504819D01*
X36021428Y-60504819D02*
X35878571Y-60457200D01*
X35878571Y-60457200D02*
X35783333Y-60361961D01*
X35783333Y-60361961D02*
X35735714Y-60266723D01*
X35735714Y-60266723D02*
X35688095Y-60076247D01*
X35688095Y-60076247D02*
X35688095Y-59933390D01*
X35688095Y-59933390D02*
X35735714Y-59742914D01*
X35735714Y-59742914D02*
X35783333Y-59647676D01*
X35783333Y-59647676D02*
X35878571Y-59552438D01*
X35878571Y-59552438D02*
X36021428Y-59504819D01*
X36021428Y-59504819D02*
X36116666Y-59504819D01*
X36116666Y-59504819D02*
X36259523Y-59552438D01*
X36259523Y-59552438D02*
X36307142Y-59600057D01*
X37259523Y-60504819D02*
X36688095Y-60504819D01*
X36973809Y-60504819D02*
X36973809Y-59504819D01*
X36973809Y-59504819D02*
X36878571Y-59647676D01*
X36878571Y-59647676D02*
X36783333Y-59742914D01*
X36783333Y-59742914D02*
X36688095Y-59790533D01*
X37592857Y-59504819D02*
X38211904Y-59504819D01*
X38211904Y-59504819D02*
X37878571Y-59885771D01*
X37878571Y-59885771D02*
X38021428Y-59885771D01*
X38021428Y-59885771D02*
X38116666Y-59933390D01*
X38116666Y-59933390D02*
X38164285Y-59981009D01*
X38164285Y-59981009D02*
X38211904Y-60076247D01*
X38211904Y-60076247D02*
X38211904Y-60314342D01*
X38211904Y-60314342D02*
X38164285Y-60409580D01*
X38164285Y-60409580D02*
X38116666Y-60457200D01*
X38116666Y-60457200D02*
X38021428Y-60504819D01*
X38021428Y-60504819D02*
X37735714Y-60504819D01*
X37735714Y-60504819D02*
X37640476Y-60457200D01*
X37640476Y-60457200D02*
X37592857Y-60409580D01*
X38807200Y-66333332D02*
X38854819Y-66190475D01*
X38854819Y-66190475D02*
X38854819Y-65952380D01*
X38854819Y-65952380D02*
X38807200Y-65857142D01*
X38807200Y-65857142D02*
X38759580Y-65809523D01*
X38759580Y-65809523D02*
X38664342Y-65761904D01*
X38664342Y-65761904D02*
X38569104Y-65761904D01*
X38569104Y-65761904D02*
X38473866Y-65809523D01*
X38473866Y-65809523D02*
X38426247Y-65857142D01*
X38426247Y-65857142D02*
X38378628Y-65952380D01*
X38378628Y-65952380D02*
X38331009Y-66142856D01*
X38331009Y-66142856D02*
X38283390Y-66238094D01*
X38283390Y-66238094D02*
X38235771Y-66285713D01*
X38235771Y-66285713D02*
X38140533Y-66333332D01*
X38140533Y-66333332D02*
X38045295Y-66333332D01*
X38045295Y-66333332D02*
X37950057Y-66285713D01*
X37950057Y-66285713D02*
X37902438Y-66238094D01*
X37902438Y-66238094D02*
X37854819Y-66142856D01*
X37854819Y-66142856D02*
X37854819Y-65904761D01*
X37854819Y-65904761D02*
X37902438Y-65761904D01*
X37854819Y-65428570D02*
X38854819Y-65190475D01*
X38854819Y-65190475D02*
X38140533Y-64999999D01*
X38140533Y-64999999D02*
X38854819Y-64809523D01*
X38854819Y-64809523D02*
X37854819Y-64571428D01*
X38854819Y-63666666D02*
X38854819Y-64238094D01*
X38854819Y-63952380D02*
X37854819Y-63952380D01*
X37854819Y-63952380D02*
X37997676Y-64047618D01*
X37997676Y-64047618D02*
X38092914Y-64142856D01*
X38092914Y-64142856D02*
X38140533Y-64238094D01*
X50039580Y-37642857D02*
X50087200Y-37690476D01*
X50087200Y-37690476D02*
X50134819Y-37833333D01*
X50134819Y-37833333D02*
X50134819Y-37928571D01*
X50134819Y-37928571D02*
X50087200Y-38071428D01*
X50087200Y-38071428D02*
X49991961Y-38166666D01*
X49991961Y-38166666D02*
X49896723Y-38214285D01*
X49896723Y-38214285D02*
X49706247Y-38261904D01*
X49706247Y-38261904D02*
X49563390Y-38261904D01*
X49563390Y-38261904D02*
X49372914Y-38214285D01*
X49372914Y-38214285D02*
X49277676Y-38166666D01*
X49277676Y-38166666D02*
X49182438Y-38071428D01*
X49182438Y-38071428D02*
X49134819Y-37928571D01*
X49134819Y-37928571D02*
X49134819Y-37833333D01*
X49134819Y-37833333D02*
X49182438Y-37690476D01*
X49182438Y-37690476D02*
X49230057Y-37642857D01*
X50134819Y-36690476D02*
X50134819Y-37261904D01*
X50134819Y-36976190D02*
X49134819Y-36976190D01*
X49134819Y-36976190D02*
X49277676Y-37071428D01*
X49277676Y-37071428D02*
X49372914Y-37166666D01*
X49372914Y-37166666D02*
X49420533Y-37261904D01*
X49563390Y-36119047D02*
X49515771Y-36214285D01*
X49515771Y-36214285D02*
X49468152Y-36261904D01*
X49468152Y-36261904D02*
X49372914Y-36309523D01*
X49372914Y-36309523D02*
X49325295Y-36309523D01*
X49325295Y-36309523D02*
X49230057Y-36261904D01*
X49230057Y-36261904D02*
X49182438Y-36214285D01*
X49182438Y-36214285D02*
X49134819Y-36119047D01*
X49134819Y-36119047D02*
X49134819Y-35928571D01*
X49134819Y-35928571D02*
X49182438Y-35833333D01*
X49182438Y-35833333D02*
X49230057Y-35785714D01*
X49230057Y-35785714D02*
X49325295Y-35738095D01*
X49325295Y-35738095D02*
X49372914Y-35738095D01*
X49372914Y-35738095D02*
X49468152Y-35785714D01*
X49468152Y-35785714D02*
X49515771Y-35833333D01*
X49515771Y-35833333D02*
X49563390Y-35928571D01*
X49563390Y-35928571D02*
X49563390Y-36119047D01*
X49563390Y-36119047D02*
X49611009Y-36214285D01*
X49611009Y-36214285D02*
X49658628Y-36261904D01*
X49658628Y-36261904D02*
X49753866Y-36309523D01*
X49753866Y-36309523D02*
X49944342Y-36309523D01*
X49944342Y-36309523D02*
X50039580Y-36261904D01*
X50039580Y-36261904D02*
X50087200Y-36214285D01*
X50087200Y-36214285D02*
X50134819Y-36119047D01*
X50134819Y-36119047D02*
X50134819Y-35928571D01*
X50134819Y-35928571D02*
X50087200Y-35833333D01*
X50087200Y-35833333D02*
X50039580Y-35785714D01*
X50039580Y-35785714D02*
X49944342Y-35738095D01*
X49944342Y-35738095D02*
X49753866Y-35738095D01*
X49753866Y-35738095D02*
X49658628Y-35785714D01*
X49658628Y-35785714D02*
X49611009Y-35833333D01*
X49611009Y-35833333D02*
X49563390Y-35928571D01*
X54607142Y-49804819D02*
X54273809Y-49328628D01*
X54035714Y-49804819D02*
X54035714Y-48804819D01*
X54035714Y-48804819D02*
X54416666Y-48804819D01*
X54416666Y-48804819D02*
X54511904Y-48852438D01*
X54511904Y-48852438D02*
X54559523Y-48900057D01*
X54559523Y-48900057D02*
X54607142Y-48995295D01*
X54607142Y-48995295D02*
X54607142Y-49138152D01*
X54607142Y-49138152D02*
X54559523Y-49233390D01*
X54559523Y-49233390D02*
X54511904Y-49281009D01*
X54511904Y-49281009D02*
X54416666Y-49328628D01*
X54416666Y-49328628D02*
X54035714Y-49328628D01*
X54988095Y-48900057D02*
X55035714Y-48852438D01*
X55035714Y-48852438D02*
X55130952Y-48804819D01*
X55130952Y-48804819D02*
X55369047Y-48804819D01*
X55369047Y-48804819D02*
X55464285Y-48852438D01*
X55464285Y-48852438D02*
X55511904Y-48900057D01*
X55511904Y-48900057D02*
X55559523Y-48995295D01*
X55559523Y-48995295D02*
X55559523Y-49090533D01*
X55559523Y-49090533D02*
X55511904Y-49233390D01*
X55511904Y-49233390D02*
X54940476Y-49804819D01*
X54940476Y-49804819D02*
X55559523Y-49804819D01*
X55892857Y-48804819D02*
X56559523Y-48804819D01*
X56559523Y-48804819D02*
X56130952Y-49804819D01*
X45357142Y-56814819D02*
X45023809Y-56338628D01*
X44785714Y-56814819D02*
X44785714Y-55814819D01*
X44785714Y-55814819D02*
X45166666Y-55814819D01*
X45166666Y-55814819D02*
X45261904Y-55862438D01*
X45261904Y-55862438D02*
X45309523Y-55910057D01*
X45309523Y-55910057D02*
X45357142Y-56005295D01*
X45357142Y-56005295D02*
X45357142Y-56148152D01*
X45357142Y-56148152D02*
X45309523Y-56243390D01*
X45309523Y-56243390D02*
X45261904Y-56291009D01*
X45261904Y-56291009D02*
X45166666Y-56338628D01*
X45166666Y-56338628D02*
X44785714Y-56338628D01*
X45738095Y-55910057D02*
X45785714Y-55862438D01*
X45785714Y-55862438D02*
X45880952Y-55814819D01*
X45880952Y-55814819D02*
X46119047Y-55814819D01*
X46119047Y-55814819D02*
X46214285Y-55862438D01*
X46214285Y-55862438D02*
X46261904Y-55910057D01*
X46261904Y-55910057D02*
X46309523Y-56005295D01*
X46309523Y-56005295D02*
X46309523Y-56100533D01*
X46309523Y-56100533D02*
X46261904Y-56243390D01*
X46261904Y-56243390D02*
X45690476Y-56814819D01*
X45690476Y-56814819D02*
X46309523Y-56814819D01*
X47166666Y-56148152D02*
X47166666Y-56814819D01*
X46928571Y-55767200D02*
X46690476Y-56481485D01*
X46690476Y-56481485D02*
X47309523Y-56481485D01*
X50039580Y-30416666D02*
X50087200Y-30464285D01*
X50087200Y-30464285D02*
X50134819Y-30607142D01*
X50134819Y-30607142D02*
X50134819Y-30702380D01*
X50134819Y-30702380D02*
X50087200Y-30845237D01*
X50087200Y-30845237D02*
X49991961Y-30940475D01*
X49991961Y-30940475D02*
X49896723Y-30988094D01*
X49896723Y-30988094D02*
X49706247Y-31035713D01*
X49706247Y-31035713D02*
X49563390Y-31035713D01*
X49563390Y-31035713D02*
X49372914Y-30988094D01*
X49372914Y-30988094D02*
X49277676Y-30940475D01*
X49277676Y-30940475D02*
X49182438Y-30845237D01*
X49182438Y-30845237D02*
X49134819Y-30702380D01*
X49134819Y-30702380D02*
X49134819Y-30607142D01*
X49134819Y-30607142D02*
X49182438Y-30464285D01*
X49182438Y-30464285D02*
X49230057Y-30416666D01*
X49134819Y-30083332D02*
X49134819Y-29416666D01*
X49134819Y-29416666D02*
X50134819Y-29845237D01*
X24433333Y-54214819D02*
X24100000Y-53738628D01*
X23861905Y-54214819D02*
X23861905Y-53214819D01*
X23861905Y-53214819D02*
X24242857Y-53214819D01*
X24242857Y-53214819D02*
X24338095Y-53262438D01*
X24338095Y-53262438D02*
X24385714Y-53310057D01*
X24385714Y-53310057D02*
X24433333Y-53405295D01*
X24433333Y-53405295D02*
X24433333Y-53548152D01*
X24433333Y-53548152D02*
X24385714Y-53643390D01*
X24385714Y-53643390D02*
X24338095Y-53691009D01*
X24338095Y-53691009D02*
X24242857Y-53738628D01*
X24242857Y-53738628D02*
X23861905Y-53738628D01*
X25290476Y-53548152D02*
X25290476Y-54214819D01*
X25052381Y-53167200D02*
X24814286Y-53881485D01*
X24814286Y-53881485D02*
X25433333Y-53881485D01*
X50039580Y-23666666D02*
X50087200Y-23714285D01*
X50087200Y-23714285D02*
X50134819Y-23857142D01*
X50134819Y-23857142D02*
X50134819Y-23952380D01*
X50134819Y-23952380D02*
X50087200Y-24095237D01*
X50087200Y-24095237D02*
X49991961Y-24190475D01*
X49991961Y-24190475D02*
X49896723Y-24238094D01*
X49896723Y-24238094D02*
X49706247Y-24285713D01*
X49706247Y-24285713D02*
X49563390Y-24285713D01*
X49563390Y-24285713D02*
X49372914Y-24238094D01*
X49372914Y-24238094D02*
X49277676Y-24190475D01*
X49277676Y-24190475D02*
X49182438Y-24095237D01*
X49182438Y-24095237D02*
X49134819Y-23952380D01*
X49134819Y-23952380D02*
X49134819Y-23857142D01*
X49134819Y-23857142D02*
X49182438Y-23714285D01*
X49182438Y-23714285D02*
X49230057Y-23666666D01*
X49134819Y-22809523D02*
X49134819Y-22999999D01*
X49134819Y-22999999D02*
X49182438Y-23095237D01*
X49182438Y-23095237D02*
X49230057Y-23142856D01*
X49230057Y-23142856D02*
X49372914Y-23238094D01*
X49372914Y-23238094D02*
X49563390Y-23285713D01*
X49563390Y-23285713D02*
X49944342Y-23285713D01*
X49944342Y-23285713D02*
X50039580Y-23238094D01*
X50039580Y-23238094D02*
X50087200Y-23190475D01*
X50087200Y-23190475D02*
X50134819Y-23095237D01*
X50134819Y-23095237D02*
X50134819Y-22904761D01*
X50134819Y-22904761D02*
X50087200Y-22809523D01*
X50087200Y-22809523D02*
X50039580Y-22761904D01*
X50039580Y-22761904D02*
X49944342Y-22714285D01*
X49944342Y-22714285D02*
X49706247Y-22714285D01*
X49706247Y-22714285D02*
X49611009Y-22761904D01*
X49611009Y-22761904D02*
X49563390Y-22809523D01*
X49563390Y-22809523D02*
X49515771Y-22904761D01*
X49515771Y-22904761D02*
X49515771Y-23095237D01*
X49515771Y-23095237D02*
X49563390Y-23190475D01*
X49563390Y-23190475D02*
X49611009Y-23238094D01*
X49611009Y-23238094D02*
X49706247Y-23285713D01*
X56539580Y-23642857D02*
X56587200Y-23690476D01*
X56587200Y-23690476D02*
X56634819Y-23833333D01*
X56634819Y-23833333D02*
X56634819Y-23928571D01*
X56634819Y-23928571D02*
X56587200Y-24071428D01*
X56587200Y-24071428D02*
X56491961Y-24166666D01*
X56491961Y-24166666D02*
X56396723Y-24214285D01*
X56396723Y-24214285D02*
X56206247Y-24261904D01*
X56206247Y-24261904D02*
X56063390Y-24261904D01*
X56063390Y-24261904D02*
X55872914Y-24214285D01*
X55872914Y-24214285D02*
X55777676Y-24166666D01*
X55777676Y-24166666D02*
X55682438Y-24071428D01*
X55682438Y-24071428D02*
X55634819Y-23928571D01*
X55634819Y-23928571D02*
X55634819Y-23833333D01*
X55634819Y-23833333D02*
X55682438Y-23690476D01*
X55682438Y-23690476D02*
X55730057Y-23642857D01*
X56634819Y-22690476D02*
X56634819Y-23261904D01*
X56634819Y-22976190D02*
X55634819Y-22976190D01*
X55634819Y-22976190D02*
X55777676Y-23071428D01*
X55777676Y-23071428D02*
X55872914Y-23166666D01*
X55872914Y-23166666D02*
X55920533Y-23261904D01*
X55634819Y-22071428D02*
X55634819Y-21976190D01*
X55634819Y-21976190D02*
X55682438Y-21880952D01*
X55682438Y-21880952D02*
X55730057Y-21833333D01*
X55730057Y-21833333D02*
X55825295Y-21785714D01*
X55825295Y-21785714D02*
X56015771Y-21738095D01*
X56015771Y-21738095D02*
X56253866Y-21738095D01*
X56253866Y-21738095D02*
X56444342Y-21785714D01*
X56444342Y-21785714D02*
X56539580Y-21833333D01*
X56539580Y-21833333D02*
X56587200Y-21880952D01*
X56587200Y-21880952D02*
X56634819Y-21976190D01*
X56634819Y-21976190D02*
X56634819Y-22071428D01*
X56634819Y-22071428D02*
X56587200Y-22166666D01*
X56587200Y-22166666D02*
X56539580Y-22214285D01*
X56539580Y-22214285D02*
X56444342Y-22261904D01*
X56444342Y-22261904D02*
X56253866Y-22309523D01*
X56253866Y-22309523D02*
X56015771Y-22309523D01*
X56015771Y-22309523D02*
X55825295Y-22261904D01*
X55825295Y-22261904D02*
X55730057Y-22214285D01*
X55730057Y-22214285D02*
X55682438Y-22166666D01*
X55682438Y-22166666D02*
X55634819Y-22071428D01*
X56539580Y-30642857D02*
X56587200Y-30690476D01*
X56587200Y-30690476D02*
X56634819Y-30833333D01*
X56634819Y-30833333D02*
X56634819Y-30928571D01*
X56634819Y-30928571D02*
X56587200Y-31071428D01*
X56587200Y-31071428D02*
X56491961Y-31166666D01*
X56491961Y-31166666D02*
X56396723Y-31214285D01*
X56396723Y-31214285D02*
X56206247Y-31261904D01*
X56206247Y-31261904D02*
X56063390Y-31261904D01*
X56063390Y-31261904D02*
X55872914Y-31214285D01*
X55872914Y-31214285D02*
X55777676Y-31166666D01*
X55777676Y-31166666D02*
X55682438Y-31071428D01*
X55682438Y-31071428D02*
X55634819Y-30928571D01*
X55634819Y-30928571D02*
X55634819Y-30833333D01*
X55634819Y-30833333D02*
X55682438Y-30690476D01*
X55682438Y-30690476D02*
X55730057Y-30642857D01*
X56634819Y-29690476D02*
X56634819Y-30261904D01*
X56634819Y-29976190D02*
X55634819Y-29976190D01*
X55634819Y-29976190D02*
X55777676Y-30071428D01*
X55777676Y-30071428D02*
X55872914Y-30166666D01*
X55872914Y-30166666D02*
X55920533Y-30261904D01*
X56634819Y-28738095D02*
X56634819Y-29309523D01*
X56634819Y-29023809D02*
X55634819Y-29023809D01*
X55634819Y-29023809D02*
X55777676Y-29119047D01*
X55777676Y-29119047D02*
X55872914Y-29214285D01*
X55872914Y-29214285D02*
X55920533Y-29309523D01*
X24433333Y-44434819D02*
X24100000Y-43958628D01*
X23861905Y-44434819D02*
X23861905Y-43434819D01*
X23861905Y-43434819D02*
X24242857Y-43434819D01*
X24242857Y-43434819D02*
X24338095Y-43482438D01*
X24338095Y-43482438D02*
X24385714Y-43530057D01*
X24385714Y-43530057D02*
X24433333Y-43625295D01*
X24433333Y-43625295D02*
X24433333Y-43768152D01*
X24433333Y-43768152D02*
X24385714Y-43863390D01*
X24385714Y-43863390D02*
X24338095Y-43911009D01*
X24338095Y-43911009D02*
X24242857Y-43958628D01*
X24242857Y-43958628D02*
X23861905Y-43958628D01*
X24814286Y-43530057D02*
X24861905Y-43482438D01*
X24861905Y-43482438D02*
X24957143Y-43434819D01*
X24957143Y-43434819D02*
X25195238Y-43434819D01*
X25195238Y-43434819D02*
X25290476Y-43482438D01*
X25290476Y-43482438D02*
X25338095Y-43530057D01*
X25338095Y-43530057D02*
X25385714Y-43625295D01*
X25385714Y-43625295D02*
X25385714Y-43720533D01*
X25385714Y-43720533D02*
X25338095Y-43863390D01*
X25338095Y-43863390D02*
X24766667Y-44434819D01*
X24766667Y-44434819D02*
X25385714Y-44434819D01*
X46374819Y-82083333D02*
X47089104Y-82083333D01*
X47089104Y-82083333D02*
X47231961Y-82130952D01*
X47231961Y-82130952D02*
X47327200Y-82226190D01*
X47327200Y-82226190D02*
X47374819Y-82369047D01*
X47374819Y-82369047D02*
X47374819Y-82464285D01*
X46470057Y-81654761D02*
X46422438Y-81607142D01*
X46422438Y-81607142D02*
X46374819Y-81511904D01*
X46374819Y-81511904D02*
X46374819Y-81273809D01*
X46374819Y-81273809D02*
X46422438Y-81178571D01*
X46422438Y-81178571D02*
X46470057Y-81130952D01*
X46470057Y-81130952D02*
X46565295Y-81083333D01*
X46565295Y-81083333D02*
X46660533Y-81083333D01*
X46660533Y-81083333D02*
X46803390Y-81130952D01*
X46803390Y-81130952D02*
X47374819Y-81702380D01*
X47374819Y-81702380D02*
X47374819Y-81083333D01*
X24433333Y-59104819D02*
X24100000Y-58628628D01*
X23861905Y-59104819D02*
X23861905Y-58104819D01*
X23861905Y-58104819D02*
X24242857Y-58104819D01*
X24242857Y-58104819D02*
X24338095Y-58152438D01*
X24338095Y-58152438D02*
X24385714Y-58200057D01*
X24385714Y-58200057D02*
X24433333Y-58295295D01*
X24433333Y-58295295D02*
X24433333Y-58438152D01*
X24433333Y-58438152D02*
X24385714Y-58533390D01*
X24385714Y-58533390D02*
X24338095Y-58581009D01*
X24338095Y-58581009D02*
X24242857Y-58628628D01*
X24242857Y-58628628D02*
X23861905Y-58628628D01*
X25338095Y-58104819D02*
X24861905Y-58104819D01*
X24861905Y-58104819D02*
X24814286Y-58581009D01*
X24814286Y-58581009D02*
X24861905Y-58533390D01*
X24861905Y-58533390D02*
X24957143Y-58485771D01*
X24957143Y-58485771D02*
X25195238Y-58485771D01*
X25195238Y-58485771D02*
X25290476Y-58533390D01*
X25290476Y-58533390D02*
X25338095Y-58581009D01*
X25338095Y-58581009D02*
X25385714Y-58676247D01*
X25385714Y-58676247D02*
X25385714Y-58914342D01*
X25385714Y-58914342D02*
X25338095Y-59009580D01*
X25338095Y-59009580D02*
X25290476Y-59057200D01*
X25290476Y-59057200D02*
X25195238Y-59104819D01*
X25195238Y-59104819D02*
X24957143Y-59104819D01*
X24957143Y-59104819D02*
X24861905Y-59057200D01*
X24861905Y-59057200D02*
X24814286Y-59009580D01*
X41607142Y-73759580D02*
X41559523Y-73807200D01*
X41559523Y-73807200D02*
X41416666Y-73854819D01*
X41416666Y-73854819D02*
X41321428Y-73854819D01*
X41321428Y-73854819D02*
X41178571Y-73807200D01*
X41178571Y-73807200D02*
X41083333Y-73711961D01*
X41083333Y-73711961D02*
X41035714Y-73616723D01*
X41035714Y-73616723D02*
X40988095Y-73426247D01*
X40988095Y-73426247D02*
X40988095Y-73283390D01*
X40988095Y-73283390D02*
X41035714Y-73092914D01*
X41035714Y-73092914D02*
X41083333Y-72997676D01*
X41083333Y-72997676D02*
X41178571Y-72902438D01*
X41178571Y-72902438D02*
X41321428Y-72854819D01*
X41321428Y-72854819D02*
X41416666Y-72854819D01*
X41416666Y-72854819D02*
X41559523Y-72902438D01*
X41559523Y-72902438D02*
X41607142Y-72950057D01*
X42559523Y-73854819D02*
X41988095Y-73854819D01*
X42273809Y-73854819D02*
X42273809Y-72854819D01*
X42273809Y-72854819D02*
X42178571Y-72997676D01*
X42178571Y-72997676D02*
X42083333Y-73092914D01*
X42083333Y-73092914D02*
X41988095Y-73140533D01*
X43464285Y-72854819D02*
X42988095Y-72854819D01*
X42988095Y-72854819D02*
X42940476Y-73331009D01*
X42940476Y-73331009D02*
X42988095Y-73283390D01*
X42988095Y-73283390D02*
X43083333Y-73235771D01*
X43083333Y-73235771D02*
X43321428Y-73235771D01*
X43321428Y-73235771D02*
X43416666Y-73283390D01*
X43416666Y-73283390D02*
X43464285Y-73331009D01*
X43464285Y-73331009D02*
X43511904Y-73426247D01*
X43511904Y-73426247D02*
X43511904Y-73664342D01*
X43511904Y-73664342D02*
X43464285Y-73759580D01*
X43464285Y-73759580D02*
X43416666Y-73807200D01*
X43416666Y-73807200D02*
X43321428Y-73854819D01*
X43321428Y-73854819D02*
X43083333Y-73854819D01*
X43083333Y-73854819D02*
X42988095Y-73807200D01*
X42988095Y-73807200D02*
X42940476Y-73759580D01*
X44209580Y-25916666D02*
X44257200Y-25964285D01*
X44257200Y-25964285D02*
X44304819Y-26107142D01*
X44304819Y-26107142D02*
X44304819Y-26202380D01*
X44304819Y-26202380D02*
X44257200Y-26345237D01*
X44257200Y-26345237D02*
X44161961Y-26440475D01*
X44161961Y-26440475D02*
X44066723Y-26488094D01*
X44066723Y-26488094D02*
X43876247Y-26535713D01*
X43876247Y-26535713D02*
X43733390Y-26535713D01*
X43733390Y-26535713D02*
X43542914Y-26488094D01*
X43542914Y-26488094D02*
X43447676Y-26440475D01*
X43447676Y-26440475D02*
X43352438Y-26345237D01*
X43352438Y-26345237D02*
X43304819Y-26202380D01*
X43304819Y-26202380D02*
X43304819Y-26107142D01*
X43304819Y-26107142D02*
X43352438Y-25964285D01*
X43352438Y-25964285D02*
X43400057Y-25916666D01*
X43304819Y-25583332D02*
X43304819Y-24964285D01*
X43304819Y-24964285D02*
X43685771Y-25297618D01*
X43685771Y-25297618D02*
X43685771Y-25154761D01*
X43685771Y-25154761D02*
X43733390Y-25059523D01*
X43733390Y-25059523D02*
X43781009Y-25011904D01*
X43781009Y-25011904D02*
X43876247Y-24964285D01*
X43876247Y-24964285D02*
X44114342Y-24964285D01*
X44114342Y-24964285D02*
X44209580Y-25011904D01*
X44209580Y-25011904D02*
X44257200Y-25059523D01*
X44257200Y-25059523D02*
X44304819Y-25154761D01*
X44304819Y-25154761D02*
X44304819Y-25440475D01*
X44304819Y-25440475D02*
X44257200Y-25535713D01*
X44257200Y-25535713D02*
X44209580Y-25583332D01*
X17940476Y-24704819D02*
X17940476Y-23704819D01*
X17940476Y-23704819D02*
X18273809Y-24419104D01*
X18273809Y-24419104D02*
X18607142Y-23704819D01*
X18607142Y-23704819D02*
X18607142Y-24704819D01*
X19083333Y-24704819D02*
X19083333Y-23704819D01*
X19083333Y-23704819D02*
X19464285Y-23704819D01*
X19464285Y-23704819D02*
X19559523Y-23752438D01*
X19559523Y-23752438D02*
X19607142Y-23800057D01*
X19607142Y-23800057D02*
X19654761Y-23895295D01*
X19654761Y-23895295D02*
X19654761Y-24038152D01*
X19654761Y-24038152D02*
X19607142Y-24133390D01*
X19607142Y-24133390D02*
X19559523Y-24181009D01*
X19559523Y-24181009D02*
X19464285Y-24228628D01*
X19464285Y-24228628D02*
X19083333Y-24228628D01*
X20607142Y-24704819D02*
X20035714Y-24704819D01*
X20321428Y-24704819D02*
X20321428Y-23704819D01*
X20321428Y-23704819D02*
X20226190Y-23847676D01*
X20226190Y-23847676D02*
X20130952Y-23942914D01*
X20130952Y-23942914D02*
X20035714Y-23990533D01*
X47289580Y-28666666D02*
X47337200Y-28714285D01*
X47337200Y-28714285D02*
X47384819Y-28857142D01*
X47384819Y-28857142D02*
X47384819Y-28952380D01*
X47384819Y-28952380D02*
X47337200Y-29095237D01*
X47337200Y-29095237D02*
X47241961Y-29190475D01*
X47241961Y-29190475D02*
X47146723Y-29238094D01*
X47146723Y-29238094D02*
X46956247Y-29285713D01*
X46956247Y-29285713D02*
X46813390Y-29285713D01*
X46813390Y-29285713D02*
X46622914Y-29238094D01*
X46622914Y-29238094D02*
X46527676Y-29190475D01*
X46527676Y-29190475D02*
X46432438Y-29095237D01*
X46432438Y-29095237D02*
X46384819Y-28952380D01*
X46384819Y-28952380D02*
X46384819Y-28857142D01*
X46384819Y-28857142D02*
X46432438Y-28714285D01*
X46432438Y-28714285D02*
X46480057Y-28666666D01*
X46813390Y-28095237D02*
X46765771Y-28190475D01*
X46765771Y-28190475D02*
X46718152Y-28238094D01*
X46718152Y-28238094D02*
X46622914Y-28285713D01*
X46622914Y-28285713D02*
X46575295Y-28285713D01*
X46575295Y-28285713D02*
X46480057Y-28238094D01*
X46480057Y-28238094D02*
X46432438Y-28190475D01*
X46432438Y-28190475D02*
X46384819Y-28095237D01*
X46384819Y-28095237D02*
X46384819Y-27904761D01*
X46384819Y-27904761D02*
X46432438Y-27809523D01*
X46432438Y-27809523D02*
X46480057Y-27761904D01*
X46480057Y-27761904D02*
X46575295Y-27714285D01*
X46575295Y-27714285D02*
X46622914Y-27714285D01*
X46622914Y-27714285D02*
X46718152Y-27761904D01*
X46718152Y-27761904D02*
X46765771Y-27809523D01*
X46765771Y-27809523D02*
X46813390Y-27904761D01*
X46813390Y-27904761D02*
X46813390Y-28095237D01*
X46813390Y-28095237D02*
X46861009Y-28190475D01*
X46861009Y-28190475D02*
X46908628Y-28238094D01*
X46908628Y-28238094D02*
X47003866Y-28285713D01*
X47003866Y-28285713D02*
X47194342Y-28285713D01*
X47194342Y-28285713D02*
X47289580Y-28238094D01*
X47289580Y-28238094D02*
X47337200Y-28190475D01*
X47337200Y-28190475D02*
X47384819Y-28095237D01*
X47384819Y-28095237D02*
X47384819Y-27904761D01*
X47384819Y-27904761D02*
X47337200Y-27809523D01*
X47337200Y-27809523D02*
X47289580Y-27761904D01*
X47289580Y-27761904D02*
X47194342Y-27714285D01*
X47194342Y-27714285D02*
X47003866Y-27714285D01*
X47003866Y-27714285D02*
X46908628Y-27761904D01*
X46908628Y-27761904D02*
X46861009Y-27809523D01*
X46861009Y-27809523D02*
X46813390Y-27904761D01*
X17940476Y-88204819D02*
X17940476Y-87204819D01*
X17940476Y-87204819D02*
X18273809Y-87919104D01*
X18273809Y-87919104D02*
X18607142Y-87204819D01*
X18607142Y-87204819D02*
X18607142Y-88204819D01*
X19083333Y-88204819D02*
X19083333Y-87204819D01*
X19083333Y-87204819D02*
X19464285Y-87204819D01*
X19464285Y-87204819D02*
X19559523Y-87252438D01*
X19559523Y-87252438D02*
X19607142Y-87300057D01*
X19607142Y-87300057D02*
X19654761Y-87395295D01*
X19654761Y-87395295D02*
X19654761Y-87538152D01*
X19654761Y-87538152D02*
X19607142Y-87633390D01*
X19607142Y-87633390D02*
X19559523Y-87681009D01*
X19559523Y-87681009D02*
X19464285Y-87728628D01*
X19464285Y-87728628D02*
X19083333Y-87728628D01*
X20035714Y-87300057D02*
X20083333Y-87252438D01*
X20083333Y-87252438D02*
X20178571Y-87204819D01*
X20178571Y-87204819D02*
X20416666Y-87204819D01*
X20416666Y-87204819D02*
X20511904Y-87252438D01*
X20511904Y-87252438D02*
X20559523Y-87300057D01*
X20559523Y-87300057D02*
X20607142Y-87395295D01*
X20607142Y-87395295D02*
X20607142Y-87490533D01*
X20607142Y-87490533D02*
X20559523Y-87633390D01*
X20559523Y-87633390D02*
X19988095Y-88204819D01*
X19988095Y-88204819D02*
X20607142Y-88204819D01*
X34054819Y-25511904D02*
X34864342Y-25511904D01*
X34864342Y-25511904D02*
X34959580Y-25464285D01*
X34959580Y-25464285D02*
X35007200Y-25416666D01*
X35007200Y-25416666D02*
X35054819Y-25321428D01*
X35054819Y-25321428D02*
X35054819Y-25130952D01*
X35054819Y-25130952D02*
X35007200Y-25035714D01*
X35007200Y-25035714D02*
X34959580Y-24988095D01*
X34959580Y-24988095D02*
X34864342Y-24940476D01*
X34864342Y-24940476D02*
X34054819Y-24940476D01*
X34150057Y-24511904D02*
X34102438Y-24464285D01*
X34102438Y-24464285D02*
X34054819Y-24369047D01*
X34054819Y-24369047D02*
X34054819Y-24130952D01*
X34054819Y-24130952D02*
X34102438Y-24035714D01*
X34102438Y-24035714D02*
X34150057Y-23988095D01*
X34150057Y-23988095D02*
X34245295Y-23940476D01*
X34245295Y-23940476D02*
X34340533Y-23940476D01*
X34340533Y-23940476D02*
X34483390Y-23988095D01*
X34483390Y-23988095D02*
X35054819Y-24559523D01*
X35054819Y-24559523D02*
X35054819Y-23940476D01*
X54607142Y-52054819D02*
X54273809Y-51578628D01*
X54035714Y-52054819D02*
X54035714Y-51054819D01*
X54035714Y-51054819D02*
X54416666Y-51054819D01*
X54416666Y-51054819D02*
X54511904Y-51102438D01*
X54511904Y-51102438D02*
X54559523Y-51150057D01*
X54559523Y-51150057D02*
X54607142Y-51245295D01*
X54607142Y-51245295D02*
X54607142Y-51388152D01*
X54607142Y-51388152D02*
X54559523Y-51483390D01*
X54559523Y-51483390D02*
X54511904Y-51531009D01*
X54511904Y-51531009D02*
X54416666Y-51578628D01*
X54416666Y-51578628D02*
X54035714Y-51578628D01*
X54940476Y-51054819D02*
X55559523Y-51054819D01*
X55559523Y-51054819D02*
X55226190Y-51435771D01*
X55226190Y-51435771D02*
X55369047Y-51435771D01*
X55369047Y-51435771D02*
X55464285Y-51483390D01*
X55464285Y-51483390D02*
X55511904Y-51531009D01*
X55511904Y-51531009D02*
X55559523Y-51626247D01*
X55559523Y-51626247D02*
X55559523Y-51864342D01*
X55559523Y-51864342D02*
X55511904Y-51959580D01*
X55511904Y-51959580D02*
X55464285Y-52007200D01*
X55464285Y-52007200D02*
X55369047Y-52054819D01*
X55369047Y-52054819D02*
X55083333Y-52054819D01*
X55083333Y-52054819D02*
X54988095Y-52007200D01*
X54988095Y-52007200D02*
X54940476Y-51959580D01*
X56178571Y-51054819D02*
X56273809Y-51054819D01*
X56273809Y-51054819D02*
X56369047Y-51102438D01*
X56369047Y-51102438D02*
X56416666Y-51150057D01*
X56416666Y-51150057D02*
X56464285Y-51245295D01*
X56464285Y-51245295D02*
X56511904Y-51435771D01*
X56511904Y-51435771D02*
X56511904Y-51673866D01*
X56511904Y-51673866D02*
X56464285Y-51864342D01*
X56464285Y-51864342D02*
X56416666Y-51959580D01*
X56416666Y-51959580D02*
X56369047Y-52007200D01*
X56369047Y-52007200D02*
X56273809Y-52054819D01*
X56273809Y-52054819D02*
X56178571Y-52054819D01*
X56178571Y-52054819D02*
X56083333Y-52007200D01*
X56083333Y-52007200D02*
X56035714Y-51959580D01*
X56035714Y-51959580D02*
X55988095Y-51864342D01*
X55988095Y-51864342D02*
X55940476Y-51673866D01*
X55940476Y-51673866D02*
X55940476Y-51435771D01*
X55940476Y-51435771D02*
X55988095Y-51245295D01*
X55988095Y-51245295D02*
X56035714Y-51150057D01*
X56035714Y-51150057D02*
X56083333Y-51102438D01*
X56083333Y-51102438D02*
X56178571Y-51054819D01*
X24433333Y-49324819D02*
X24100000Y-48848628D01*
X23861905Y-49324819D02*
X23861905Y-48324819D01*
X23861905Y-48324819D02*
X24242857Y-48324819D01*
X24242857Y-48324819D02*
X24338095Y-48372438D01*
X24338095Y-48372438D02*
X24385714Y-48420057D01*
X24385714Y-48420057D02*
X24433333Y-48515295D01*
X24433333Y-48515295D02*
X24433333Y-48658152D01*
X24433333Y-48658152D02*
X24385714Y-48753390D01*
X24385714Y-48753390D02*
X24338095Y-48801009D01*
X24338095Y-48801009D02*
X24242857Y-48848628D01*
X24242857Y-48848628D02*
X23861905Y-48848628D01*
X24766667Y-48324819D02*
X25385714Y-48324819D01*
X25385714Y-48324819D02*
X25052381Y-48705771D01*
X25052381Y-48705771D02*
X25195238Y-48705771D01*
X25195238Y-48705771D02*
X25290476Y-48753390D01*
X25290476Y-48753390D02*
X25338095Y-48801009D01*
X25338095Y-48801009D02*
X25385714Y-48896247D01*
X25385714Y-48896247D02*
X25385714Y-49134342D01*
X25385714Y-49134342D02*
X25338095Y-49229580D01*
X25338095Y-49229580D02*
X25290476Y-49277200D01*
X25290476Y-49277200D02*
X25195238Y-49324819D01*
X25195238Y-49324819D02*
X24909524Y-49324819D01*
X24909524Y-49324819D02*
X24814286Y-49277200D01*
X24814286Y-49277200D02*
X24766667Y-49229580D01*
X45357142Y-58814819D02*
X45023809Y-58338628D01*
X44785714Y-58814819D02*
X44785714Y-57814819D01*
X44785714Y-57814819D02*
X45166666Y-57814819D01*
X45166666Y-57814819D02*
X45261904Y-57862438D01*
X45261904Y-57862438D02*
X45309523Y-57910057D01*
X45309523Y-57910057D02*
X45357142Y-58005295D01*
X45357142Y-58005295D02*
X45357142Y-58148152D01*
X45357142Y-58148152D02*
X45309523Y-58243390D01*
X45309523Y-58243390D02*
X45261904Y-58291009D01*
X45261904Y-58291009D02*
X45166666Y-58338628D01*
X45166666Y-58338628D02*
X44785714Y-58338628D01*
X45738095Y-57910057D02*
X45785714Y-57862438D01*
X45785714Y-57862438D02*
X45880952Y-57814819D01*
X45880952Y-57814819D02*
X46119047Y-57814819D01*
X46119047Y-57814819D02*
X46214285Y-57862438D01*
X46214285Y-57862438D02*
X46261904Y-57910057D01*
X46261904Y-57910057D02*
X46309523Y-58005295D01*
X46309523Y-58005295D02*
X46309523Y-58100533D01*
X46309523Y-58100533D02*
X46261904Y-58243390D01*
X46261904Y-58243390D02*
X45690476Y-58814819D01*
X45690476Y-58814819D02*
X46309523Y-58814819D01*
X47261904Y-58814819D02*
X46690476Y-58814819D01*
X46976190Y-58814819D02*
X46976190Y-57814819D01*
X46976190Y-57814819D02*
X46880952Y-57957676D01*
X46880952Y-57957676D02*
X46785714Y-58052914D01*
X46785714Y-58052914D02*
X46690476Y-58100533D01*
X24433333Y-63994819D02*
X24100000Y-63518628D01*
X23861905Y-63994819D02*
X23861905Y-62994819D01*
X23861905Y-62994819D02*
X24242857Y-62994819D01*
X24242857Y-62994819D02*
X24338095Y-63042438D01*
X24338095Y-63042438D02*
X24385714Y-63090057D01*
X24385714Y-63090057D02*
X24433333Y-63185295D01*
X24433333Y-63185295D02*
X24433333Y-63328152D01*
X24433333Y-63328152D02*
X24385714Y-63423390D01*
X24385714Y-63423390D02*
X24338095Y-63471009D01*
X24338095Y-63471009D02*
X24242857Y-63518628D01*
X24242857Y-63518628D02*
X23861905Y-63518628D01*
X25290476Y-62994819D02*
X25100000Y-62994819D01*
X25100000Y-62994819D02*
X25004762Y-63042438D01*
X25004762Y-63042438D02*
X24957143Y-63090057D01*
X24957143Y-63090057D02*
X24861905Y-63232914D01*
X24861905Y-63232914D02*
X24814286Y-63423390D01*
X24814286Y-63423390D02*
X24814286Y-63804342D01*
X24814286Y-63804342D02*
X24861905Y-63899580D01*
X24861905Y-63899580D02*
X24909524Y-63947200D01*
X24909524Y-63947200D02*
X25004762Y-63994819D01*
X25004762Y-63994819D02*
X25195238Y-63994819D01*
X25195238Y-63994819D02*
X25290476Y-63947200D01*
X25290476Y-63947200D02*
X25338095Y-63899580D01*
X25338095Y-63899580D02*
X25385714Y-63804342D01*
X25385714Y-63804342D02*
X25385714Y-63566247D01*
X25385714Y-63566247D02*
X25338095Y-63471009D01*
X25338095Y-63471009D02*
X25290476Y-63423390D01*
X25290476Y-63423390D02*
X25195238Y-63375771D01*
X25195238Y-63375771D02*
X25004762Y-63375771D01*
X25004762Y-63375771D02*
X24909524Y-63423390D01*
X24909524Y-63423390D02*
X24861905Y-63471009D01*
X24861905Y-63471009D02*
X24814286Y-63566247D01*
X55916666Y-76324819D02*
X55916666Y-77039104D01*
X55916666Y-77039104D02*
X55869047Y-77181961D01*
X55869047Y-77181961D02*
X55773809Y-77277200D01*
X55773809Y-77277200D02*
X55630952Y-77324819D01*
X55630952Y-77324819D02*
X55535714Y-77324819D01*
X56916666Y-77324819D02*
X56345238Y-77324819D01*
X56630952Y-77324819D02*
X56630952Y-76324819D01*
X56630952Y-76324819D02*
X56535714Y-76467676D01*
X56535714Y-76467676D02*
X56440476Y-76562914D01*
X56440476Y-76562914D02*
X56345238Y-76610533D01*
X47704819Y-42011904D02*
X48514342Y-42011904D01*
X48514342Y-42011904D02*
X48609580Y-41964285D01*
X48609580Y-41964285D02*
X48657200Y-41916666D01*
X48657200Y-41916666D02*
X48704819Y-41821428D01*
X48704819Y-41821428D02*
X48704819Y-41630952D01*
X48704819Y-41630952D02*
X48657200Y-41535714D01*
X48657200Y-41535714D02*
X48609580Y-41488095D01*
X48609580Y-41488095D02*
X48514342Y-41440476D01*
X48514342Y-41440476D02*
X47704819Y-41440476D01*
X47704819Y-40535714D02*
X47704819Y-40726190D01*
X47704819Y-40726190D02*
X47752438Y-40821428D01*
X47752438Y-40821428D02*
X47800057Y-40869047D01*
X47800057Y-40869047D02*
X47942914Y-40964285D01*
X47942914Y-40964285D02*
X48133390Y-41011904D01*
X48133390Y-41011904D02*
X48514342Y-41011904D01*
X48514342Y-41011904D02*
X48609580Y-40964285D01*
X48609580Y-40964285D02*
X48657200Y-40916666D01*
X48657200Y-40916666D02*
X48704819Y-40821428D01*
X48704819Y-40821428D02*
X48704819Y-40630952D01*
X48704819Y-40630952D02*
X48657200Y-40535714D01*
X48657200Y-40535714D02*
X48609580Y-40488095D01*
X48609580Y-40488095D02*
X48514342Y-40440476D01*
X48514342Y-40440476D02*
X48276247Y-40440476D01*
X48276247Y-40440476D02*
X48181009Y-40488095D01*
X48181009Y-40488095D02*
X48133390Y-40535714D01*
X48133390Y-40535714D02*
X48085771Y-40630952D01*
X48085771Y-40630952D02*
X48085771Y-40821428D01*
X48085771Y-40821428D02*
X48133390Y-40916666D01*
X48133390Y-40916666D02*
X48181009Y-40964285D01*
X48181009Y-40964285D02*
X48276247Y-41011904D01*
D11*
%TO.C,J3*%
X46880000Y-80420000D02*
X46880000Y-81750000D01*
X45550000Y-80420000D02*
X46880000Y-80420000D01*
X44280000Y-80420000D02*
X36600000Y-80420000D01*
X44280000Y-80420000D02*
X44280000Y-83080000D01*
X36600000Y-80420000D02*
X36600000Y-83080000D01*
X44280000Y-83080000D02*
X36600000Y-83080000D01*
%TO.C,U10*%
X53135000Y-72750000D02*
X53135000Y-69150000D01*
X53135000Y-72750000D02*
X53135000Y-74950000D01*
X46365000Y-72750000D02*
X46365000Y-70550000D01*
X46365000Y-72750000D02*
X46365000Y-74950000D01*
%TO.C,C17*%
X41538748Y-76840000D02*
X42961252Y-76840000D01*
X41538748Y-78660000D02*
X42961252Y-78660000D01*
%TO.C,C16*%
X52461252Y-47910000D02*
X51038748Y-47910000D01*
X52461252Y-46090000D02*
X51038748Y-46090000D01*
D12*
%TO.C,U9*%
X35375800Y-51240900D02*
X41624200Y-51240900D01*
X41624200Y-51240900D02*
X41624200Y-50068265D01*
X41624200Y-48171735D02*
X41624200Y-46952229D01*
X41624200Y-46207771D02*
X41624200Y-44412229D01*
X41624200Y-43667771D02*
X41624200Y-41872229D01*
X41624200Y-41127771D02*
X41624200Y-39379100D01*
X35375800Y-39379100D02*
X35375800Y-51240900D01*
X41624200Y-39379100D02*
X35375800Y-39379100D01*
D11*
%TO.C,U1*%
X35440000Y-33595000D02*
X35440000Y-37045000D01*
X35440000Y-33595000D02*
X35440000Y-31645000D01*
X40560000Y-33595000D02*
X40560000Y-35545000D01*
X40560000Y-33595000D02*
X40560000Y-31645000D01*
%TO.C,R29*%
X44015000Y-36977064D02*
X44015000Y-36522936D01*
X45485000Y-36977064D02*
X45485000Y-36522936D01*
%TO.C,R23*%
X46227064Y-62445000D02*
X45772936Y-62445000D01*
X46227064Y-60975000D02*
X45772936Y-60975000D01*
D12*
%TO.C,U8*%
X42375800Y-51240900D02*
X48624200Y-51240900D01*
X48624200Y-51240900D02*
X48624200Y-50068265D01*
X48624200Y-48171735D02*
X48624200Y-46952229D01*
X48624200Y-46207771D02*
X48624200Y-44412229D01*
X48624200Y-43667771D02*
X48624200Y-41872229D01*
X48624200Y-41127771D02*
X48624200Y-39379100D01*
X42375800Y-39379100D02*
X42375800Y-51240900D01*
X48624200Y-39379100D02*
X42375800Y-39379100D01*
D11*
%TO.C,C2*%
X42910000Y-32538748D02*
X42910000Y-33961252D01*
X41090000Y-32538748D02*
X41090000Y-33961252D01*
%TO.C,R22*%
X46227064Y-60445000D02*
X45772936Y-60445000D01*
X46227064Y-58975000D02*
X45772936Y-58975000D01*
%TO.C,C13*%
X39488748Y-58265000D02*
X40011252Y-58265000D01*
X39488748Y-59735000D02*
X40011252Y-59735000D01*
%TO.C,SW1*%
X39000000Y-68750000D02*
X40500000Y-68750000D01*
X43000000Y-67500000D02*
X43000000Y-63000000D01*
X36500000Y-63000000D02*
X36500000Y-67500000D01*
X40500000Y-61750000D02*
X39000000Y-61750000D01*
%TO.C,C18*%
X48735000Y-36738748D02*
X48735000Y-37261252D01*
X47265000Y-36738748D02*
X47265000Y-37261252D01*
%TO.C,R27*%
X55022936Y-50265000D02*
X55477064Y-50265000D01*
X55022936Y-51735000D02*
X55477064Y-51735000D01*
%TO.C,R24*%
X46227064Y-55445000D02*
X45772936Y-55445000D01*
X46227064Y-53975000D02*
X45772936Y-53975000D01*
%TO.C,C7*%
X48735000Y-29988748D02*
X48735000Y-30511252D01*
X47265000Y-29988748D02*
X47265000Y-30511252D01*
%TO.C,R4*%
X22422936Y-54670000D02*
X26777064Y-54670000D01*
X22422936Y-58090000D02*
X26777064Y-58090000D01*
%TO.C,C6*%
X48735000Y-23238748D02*
X48735000Y-23761252D01*
X47265000Y-23238748D02*
X47265000Y-23761252D01*
%TO.C,C10*%
X55235000Y-22738748D02*
X55235000Y-23261252D01*
X53765000Y-22738748D02*
X53765000Y-23261252D01*
%TO.C,G\u002A\u002A\u002A*%
G36*
X50769420Y-60546493D02*
G01*
X50853017Y-60619534D01*
X50901237Y-60723339D01*
X50905374Y-60766004D01*
X50882710Y-60850891D01*
X50799201Y-60874492D01*
X50796879Y-60874499D01*
X50678537Y-60838920D01*
X50583608Y-60752288D01*
X50541275Y-60644760D01*
X50543289Y-60612443D01*
X50590864Y-60532900D01*
X50674138Y-60514266D01*
X50769420Y-60546493D01*
G37*
G36*
X49906433Y-65746026D02*
G01*
X50000951Y-65801453D01*
X50148354Y-65909952D01*
X50314301Y-66041569D01*
X50543229Y-66219540D01*
X50792383Y-66401728D01*
X51043574Y-66575885D01*
X51278610Y-66729768D01*
X51479300Y-66851129D01*
X51627454Y-66927725D01*
X51636190Y-66931427D01*
X51743630Y-66989725D01*
X51782226Y-67040213D01*
X51745884Y-67070039D01*
X51703461Y-67073296D01*
X51606630Y-67046510D01*
X51455387Y-66973685D01*
X51263041Y-66864103D01*
X51042899Y-66727042D01*
X50808267Y-66571782D01*
X50572453Y-66407602D01*
X50348765Y-66243782D01*
X50150510Y-66089600D01*
X49990995Y-65954336D01*
X49883528Y-65847270D01*
X49841415Y-65777681D01*
X49841257Y-65774756D01*
X49856101Y-65738762D01*
X49906433Y-65746026D01*
G37*
G36*
X51334166Y-51752873D02*
G01*
X51548500Y-51858476D01*
X51755076Y-52013422D01*
X51935704Y-52200478D01*
X52072194Y-52402415D01*
X52146355Y-52602000D01*
X52154554Y-52684106D01*
X52140092Y-52811278D01*
X52104706Y-52900957D01*
X52099035Y-52907504D01*
X52010976Y-52951771D01*
X51933554Y-52963023D01*
X51891661Y-52965263D01*
X51867718Y-52966544D01*
X51862231Y-52988346D01*
X51921652Y-53045292D01*
X51965940Y-53082801D01*
X52078974Y-53215190D01*
X52108288Y-53334533D01*
X52090581Y-53452505D01*
X52032449Y-53495235D01*
X51926374Y-53464648D01*
X51828022Y-53406274D01*
X51717197Y-53337979D01*
X51662320Y-53321715D01*
X51645866Y-53353261D01*
X51645629Y-53362338D01*
X51619215Y-53380632D01*
X51538540Y-53329961D01*
X51402732Y-53210187D01*
X51233796Y-53065049D01*
X51027282Y-52909263D01*
X50797809Y-52751525D01*
X50559992Y-52600530D01*
X50328449Y-52464973D01*
X50117797Y-52353549D01*
X49942651Y-52274953D01*
X49817630Y-52237881D01*
X49771321Y-52239705D01*
X49710696Y-52244233D01*
X49704007Y-52204789D01*
X49742936Y-52145860D01*
X49819165Y-52091934D01*
X49821952Y-52090644D01*
X49941838Y-52063167D01*
X50097034Y-52079455D01*
X50299155Y-52142557D01*
X50559820Y-52255523D01*
X50688674Y-52318135D01*
X51050299Y-52498068D01*
X50954704Y-52343391D01*
X50925923Y-52275997D01*
X51145641Y-52275997D01*
X51172032Y-52417842D01*
X51269374Y-52562934D01*
X51418037Y-52695627D01*
X51598386Y-52800278D01*
X51790792Y-52861242D01*
X51891661Y-52870491D01*
X52026551Y-52843700D01*
X52086055Y-52764843D01*
X52069683Y-52636197D01*
X51979391Y-52463768D01*
X51850389Y-52330045D01*
X51670030Y-52219468D01*
X51475648Y-52150885D01*
X51335817Y-52138862D01*
X51217731Y-52157891D01*
X51163309Y-52202498D01*
X51145641Y-52275997D01*
X50925923Y-52275997D01*
X50877979Y-52163733D01*
X50863378Y-51991952D01*
X50905598Y-51847059D01*
X50999338Y-51748063D01*
X51130266Y-51713843D01*
X51334166Y-51752873D01*
G37*
G36*
X50775171Y-63992516D02*
G01*
X50914002Y-64038347D01*
X51065741Y-64108893D01*
X51393152Y-64320512D01*
X51676597Y-64606855D01*
X51911668Y-64958991D01*
X52093959Y-65367996D01*
X52219061Y-65824941D01*
X52282568Y-66320899D01*
X52289805Y-66588342D01*
X52281132Y-66829290D01*
X52260333Y-67053518D01*
X52230760Y-67228312D01*
X52220184Y-67267836D01*
X52164411Y-67395073D01*
X52084709Y-67516660D01*
X51998761Y-67612068D01*
X51924246Y-67660763D01*
X51886972Y-67654761D01*
X51891701Y-67603728D01*
X51929973Y-67502072D01*
X51950800Y-67457483D01*
X52001573Y-67290364D01*
X52030576Y-67055179D01*
X52038066Y-66773731D01*
X52024301Y-66467824D01*
X51989539Y-66159264D01*
X51934037Y-65869854D01*
X51931939Y-65861225D01*
X51806708Y-65451983D01*
X51644031Y-65080122D01*
X51451198Y-64754588D01*
X51235499Y-64484334D01*
X51004224Y-64278306D01*
X50764662Y-64145456D01*
X50524105Y-64094732D01*
X50492920Y-64094642D01*
X50360692Y-64107521D01*
X50259745Y-64151589D01*
X50152733Y-64245761D01*
X50113860Y-64286613D01*
X49962764Y-64494764D01*
X49860159Y-64749174D01*
X49802486Y-65062521D01*
X49786187Y-65447482D01*
X49786238Y-65453696D01*
X49820250Y-65899895D01*
X49909995Y-66336419D01*
X50048764Y-66742327D01*
X50229847Y-67096672D01*
X50378803Y-67303548D01*
X50470654Y-67399288D01*
X50555131Y-67436073D01*
X50676631Y-67431639D01*
X50693912Y-67429429D01*
X50882241Y-67404640D01*
X50767120Y-67498624D01*
X50659547Y-67561254D01*
X50527982Y-67576093D01*
X50451309Y-67569988D01*
X50260241Y-67514074D01*
X50089151Y-67388364D01*
X49934086Y-67187477D01*
X49791098Y-66906031D01*
X49656235Y-66538644D01*
X49628107Y-66448528D01*
X49572450Y-66252260D01*
X49535379Y-66079163D01*
X49513112Y-65899672D01*
X49501866Y-65684223D01*
X49498021Y-65431694D01*
X49497483Y-65182542D01*
X49501786Y-65003769D01*
X49514340Y-64873231D01*
X49538555Y-64768787D01*
X49577839Y-64668292D01*
X49633060Y-64554650D01*
X49740301Y-64376785D01*
X49866805Y-64217036D01*
X49947963Y-64139622D01*
X50061385Y-64060930D01*
X50175647Y-64015004D01*
X50326040Y-63990699D01*
X50447382Y-63981911D01*
X50634283Y-63976713D01*
X50775171Y-63992516D01*
G37*
G36*
X54874790Y-64335313D02*
G01*
X55018244Y-64431460D01*
X55204818Y-64592518D01*
X55281726Y-64664355D01*
X55475474Y-64837699D01*
X55650808Y-64975723D01*
X55790121Y-65065090D01*
X55839699Y-65087010D01*
X55945787Y-65126025D01*
X55975086Y-65156424D01*
X55939700Y-65195283D01*
X55924488Y-65206626D01*
X55767656Y-65266422D01*
X55579516Y-65243368D01*
X55365453Y-65139558D01*
X55130847Y-64957090D01*
X55027225Y-64857240D01*
X54776945Y-64602776D01*
X54803310Y-64799339D01*
X54845420Y-64956152D01*
X54928666Y-65146494D01*
X55042864Y-65356111D01*
X55177827Y-65570749D01*
X55323371Y-65776156D01*
X55469311Y-65958079D01*
X55605462Y-66102264D01*
X55721639Y-66194459D01*
X55807657Y-66220409D01*
X55816952Y-66217854D01*
X55869864Y-66164927D01*
X55944290Y-66050237D01*
X56025357Y-65897098D01*
X56036501Y-65873682D01*
X56148957Y-65653960D01*
X56250236Y-65509460D01*
X56354831Y-65426501D01*
X56477235Y-65391406D01*
X56551573Y-65387531D01*
X56746905Y-65431105D01*
X56915133Y-65556714D01*
X57051851Y-65756690D01*
X57152655Y-66023363D01*
X57213137Y-66349064D01*
X57228106Y-66565209D01*
X57231319Y-66764090D01*
X57228668Y-66932297D01*
X57220793Y-67045319D01*
X57214849Y-67074134D01*
X57093395Y-67343171D01*
X56971128Y-67525126D01*
X56871239Y-67607455D01*
X56767104Y-67658365D01*
X56724846Y-67661283D01*
X56737650Y-67604564D01*
X56796826Y-67480344D01*
X56853722Y-67329490D01*
X56890295Y-67137775D01*
X56911053Y-66880762D01*
X56912271Y-66854227D01*
X56912654Y-66520857D01*
X56877815Y-66252786D01*
X56802774Y-66027862D01*
X56682548Y-65823934D01*
X56679631Y-65819893D01*
X56583720Y-65703708D01*
X56502469Y-65652910D01*
X56420235Y-65648611D01*
X56343443Y-65672271D01*
X56276361Y-65735657D01*
X56202509Y-65857545D01*
X56156558Y-65949048D01*
X56022345Y-66195412D01*
X55896232Y-66359100D01*
X55770088Y-66448535D01*
X55651134Y-66472504D01*
X55451552Y-66427011D01*
X55248583Y-66294311D01*
X55047128Y-66079356D01*
X54852092Y-65787098D01*
X54717340Y-65529371D01*
X54618018Y-65299748D01*
X54559255Y-65102195D01*
X54528964Y-64892688D01*
X54523862Y-64824704D01*
X54515855Y-64636401D01*
X54523672Y-64514900D01*
X54550784Y-64435300D01*
X54584530Y-64389589D01*
X54669795Y-64319052D01*
X54762594Y-64299402D01*
X54874790Y-64335313D01*
G37*
G36*
X50838310Y-49750342D02*
G01*
X50859108Y-49838884D01*
X50872998Y-49910840D01*
X50923445Y-49973289D01*
X51023616Y-50034145D01*
X51186676Y-50101322D01*
X51425791Y-50182732D01*
X51437432Y-50186496D01*
X51901233Y-50368505D01*
X52300830Y-50591957D01*
X52631283Y-50851715D01*
X52887654Y-51142640D01*
X53065007Y-51459596D01*
X53158403Y-51797444D01*
X53172195Y-51991438D01*
X53158747Y-52214338D01*
X53114830Y-52376496D01*
X53081909Y-52440018D01*
X52991249Y-52559479D01*
X52892554Y-52650288D01*
X52885451Y-52654963D01*
X52760246Y-52721093D01*
X52650764Y-52757572D01*
X52582152Y-52757613D01*
X52570947Y-52739827D01*
X52609935Y-52695652D01*
X52676328Y-52669010D01*
X52830740Y-52587491D01*
X52961787Y-52441221D01*
X53047988Y-52257962D01*
X53067261Y-52163826D01*
X53049847Y-51913306D01*
X52945618Y-51650682D01*
X52758695Y-51380965D01*
X52493198Y-51109167D01*
X52153247Y-50840300D01*
X51784426Y-50603437D01*
X51529964Y-50454375D01*
X51821980Y-50759215D01*
X51961566Y-50908590D01*
X52046843Y-51014033D01*
X52089767Y-51096191D01*
X52102296Y-51175714D01*
X52099576Y-51238585D01*
X52084371Y-51349737D01*
X52044514Y-51402332D01*
X51951677Y-51422389D01*
X51894387Y-51427054D01*
X51789356Y-51427481D01*
X51695689Y-51403890D01*
X51588151Y-51345093D01*
X51441506Y-51239903D01*
X51398706Y-51207291D01*
X51255707Y-51099966D01*
X51141664Y-51018621D01*
X51075458Y-50976571D01*
X51067354Y-50973588D01*
X51059710Y-51004993D01*
X51107914Y-51091265D01*
X51203771Y-51220483D01*
X51339082Y-51380730D01*
X51374803Y-51420591D01*
X51504374Y-51572723D01*
X51567877Y-51665930D01*
X51570717Y-51700054D01*
X51518299Y-51674941D01*
X51416030Y-51590431D01*
X51269313Y-51446370D01*
X51248203Y-51424258D01*
X51100905Y-51262647D01*
X51010364Y-51144207D01*
X50964604Y-51050159D01*
X50951647Y-50961725D01*
X50951640Y-50959286D01*
X50979829Y-50800244D01*
X51062622Y-50714186D01*
X51197354Y-50701410D01*
X51381360Y-50762219D01*
X51596419Y-50886439D01*
X51736782Y-50975078D01*
X51845947Y-51034522D01*
X51903238Y-51053699D01*
X51906168Y-51052332D01*
X51906515Y-50990956D01*
X51839133Y-50887597D01*
X51713459Y-50751334D01*
X51538929Y-50591250D01*
X51324981Y-50416425D01*
X51081051Y-50235941D01*
X50997905Y-50178272D01*
X50830088Y-50055132D01*
X50731156Y-49958379D01*
X50687073Y-49873341D01*
X50682537Y-49848727D01*
X50686004Y-49756540D01*
X50738389Y-49725577D01*
X50763503Y-49724408D01*
X50838310Y-49750342D01*
G37*
G36*
X50284691Y-53721332D02*
G01*
X50444645Y-53846256D01*
X50494858Y-53888269D01*
X50843916Y-54166660D01*
X51179045Y-54403189D01*
X51491757Y-54593575D01*
X51773561Y-54733535D01*
X52015968Y-54818788D01*
X52210488Y-54845050D01*
X52334707Y-54816289D01*
X52413035Y-54794898D01*
X52429516Y-54828705D01*
X52374317Y-54894148D01*
X52223623Y-54960431D01*
X52025804Y-54972380D01*
X51909410Y-54954681D01*
X51733665Y-54914923D01*
X51944109Y-55139906D01*
X52060850Y-55272639D01*
X52124541Y-55374581D01*
X52150544Y-55477249D01*
X52154554Y-55571709D01*
X52142697Y-55718516D01*
X52096447Y-55814409D01*
X52032650Y-55874419D01*
X51904797Y-55942957D01*
X51824539Y-55960010D01*
X51776068Y-55970309D01*
X51641390Y-55970309D01*
X51809456Y-56190072D01*
X51971642Y-56429612D01*
X52066948Y-56645100D01*
X52105962Y-56863087D01*
X52108288Y-56939479D01*
X52076561Y-57132795D01*
X51989083Y-57274725D01*
X51857409Y-57350107D01*
X51789123Y-57358287D01*
X51728902Y-57361974D01*
X51716775Y-57385775D01*
X51756195Y-57448801D01*
X51820466Y-57531785D01*
X51988415Y-57772815D01*
X52082305Y-57972937D01*
X52100999Y-58128743D01*
X52052769Y-58228087D01*
X51937807Y-58283194D01*
X51777721Y-58262298D01*
X51570940Y-58164844D01*
X51315895Y-57990277D01*
X51261801Y-57948307D01*
X51154458Y-57873481D01*
X51077073Y-57837496D01*
X51056703Y-57839259D01*
X51057651Y-57900605D01*
X51133631Y-58006230D01*
X51280750Y-58152110D01*
X51495118Y-58334219D01*
X51660581Y-58463929D01*
X51856726Y-58617411D01*
X51987971Y-58730414D01*
X52065743Y-58814767D01*
X52101470Y-58882298D01*
X52107580Y-58926589D01*
X52094409Y-59064603D01*
X52050856Y-59125427D01*
X51967725Y-59111142D01*
X51835821Y-59023827D01*
X51800588Y-58996024D01*
X51696682Y-58916620D01*
X51639149Y-58881190D01*
X51640306Y-58897302D01*
X51640655Y-58897748D01*
X51679942Y-58973183D01*
X51675697Y-59009215D01*
X51631377Y-58993174D01*
X51538868Y-58924875D01*
X51415382Y-58817520D01*
X51368500Y-58773610D01*
X51215586Y-58635308D01*
X51107902Y-58558346D01*
X51030871Y-58533453D01*
X50998030Y-58538029D01*
X50921697Y-58540814D01*
X50905374Y-58500586D01*
X50946024Y-58403543D01*
X51053275Y-58345423D01*
X51195349Y-58337398D01*
X51347801Y-58355196D01*
X51149720Y-58165401D01*
X51034302Y-58045477D01*
X50974582Y-57948968D01*
X50953288Y-57842394D01*
X50951640Y-57781466D01*
X50960556Y-57651542D01*
X50997582Y-57581446D01*
X51066903Y-57543504D01*
X51151162Y-57520630D01*
X51234764Y-57526306D01*
X51337936Y-57567809D01*
X51480901Y-57652415D01*
X51614495Y-57740516D01*
X51750721Y-57826661D01*
X51855590Y-57882848D01*
X51907777Y-57897749D01*
X51908934Y-57896924D01*
X51907051Y-57837941D01*
X51847543Y-57732625D01*
X51742042Y-57596013D01*
X51602176Y-57443138D01*
X51439577Y-57289037D01*
X51436889Y-57286674D01*
X51201142Y-57050029D01*
X51047357Y-56821047D01*
X50967628Y-56585354D01*
X50951640Y-56404481D01*
X50968161Y-56219187D01*
X51022359Y-56109886D01*
X51121178Y-56065291D01*
X51161919Y-56062841D01*
X51276307Y-56105215D01*
X51385347Y-56217436D01*
X51475855Y-56377149D01*
X51534648Y-56562002D01*
X51549874Y-56720645D01*
X51545901Y-56801615D01*
X51534356Y-56812413D01*
X51508558Y-56746183D01*
X51477097Y-56645949D01*
X51395871Y-56427323D01*
X51309657Y-56277356D01*
X51224767Y-56206145D01*
X51199329Y-56201639D01*
X51125200Y-56237051D01*
X51104475Y-56330967D01*
X51139222Y-56464908D01*
X51164135Y-56516461D01*
X51274324Y-56671227D01*
X51413304Y-56796140D01*
X51564566Y-56885426D01*
X51711601Y-56933311D01*
X51837902Y-56934022D01*
X51926960Y-56881785D01*
X51960658Y-56795045D01*
X51936891Y-56622881D01*
X51830786Y-56409621D01*
X51642650Y-56155787D01*
X51464837Y-55956906D01*
X51315013Y-55789275D01*
X51179607Y-55621131D01*
X51079418Y-55478988D01*
X51050321Y-55428528D01*
X50991312Y-55267293D01*
X50958279Y-55085309D01*
X50953110Y-54912538D01*
X50961810Y-54865257D01*
X51056695Y-54865257D01*
X51076208Y-54973280D01*
X51168258Y-55123072D01*
X51292619Y-55268701D01*
X51503512Y-55450156D01*
X51712279Y-55541403D01*
X51824539Y-55553916D01*
X51942070Y-55528591D01*
X51985029Y-55456433D01*
X51955001Y-55343166D01*
X51853573Y-55194516D01*
X51682328Y-55016206D01*
X51673347Y-55007891D01*
X51557301Y-54905424D01*
X51467038Y-54833927D01*
X51426899Y-54810707D01*
X51359846Y-54804514D01*
X51245717Y-54793500D01*
X51237388Y-54792685D01*
X51110246Y-54803544D01*
X51056695Y-54865257D01*
X50961810Y-54865257D01*
X50977692Y-54778943D01*
X51006388Y-54731153D01*
X51043592Y-54676759D01*
X51041087Y-54661301D01*
X50994625Y-54632661D01*
X50887770Y-54569149D01*
X50740133Y-54482386D01*
X50674044Y-54443771D01*
X50413331Y-54280818D01*
X50232067Y-54140402D01*
X50122279Y-54014738D01*
X50075993Y-53896042D01*
X50073295Y-53857201D01*
X50082098Y-53729389D01*
X50113525Y-53663643D01*
X50177687Y-53660709D01*
X50284691Y-53721332D01*
G37*
G36*
X51346342Y-58954607D02*
G01*
X51367669Y-58987051D01*
X51425866Y-59042939D01*
X51544897Y-59132231D01*
X51705868Y-59241368D01*
X51843377Y-59328469D01*
X52248436Y-59592303D01*
X52571088Y-59837287D01*
X52817598Y-60071021D01*
X52994230Y-60301105D01*
X53107249Y-60535139D01*
X53162917Y-60780724D01*
X53171388Y-60939721D01*
X53147138Y-61198901D01*
X53082492Y-61415055D01*
X52973704Y-61577727D01*
X52826719Y-61697241D01*
X52669374Y-61752175D01*
X52642644Y-61753551D01*
X52577706Y-61737196D01*
X52592827Y-61694288D01*
X52682736Y-61634061D01*
X52721875Y-61614754D01*
X52902926Y-61484684D01*
X53020245Y-61303803D01*
X53073710Y-61088497D01*
X53063200Y-60855154D01*
X52988591Y-60620161D01*
X52849764Y-60399907D01*
X52731799Y-60278300D01*
X52607165Y-60176175D01*
X52452996Y-60064835D01*
X52253576Y-59933637D01*
X51993186Y-59771942D01*
X51903506Y-59717513D01*
X51721858Y-59607696D01*
X51924326Y-59875863D01*
X52054693Y-60084518D01*
X52120130Y-60271250D01*
X52121432Y-60425271D01*
X52059392Y-60535790D01*
X51934804Y-60592017D01*
X51878600Y-60596341D01*
X51871293Y-60596903D01*
X51765002Y-60613580D01*
X51745202Y-60662079D01*
X51811169Y-60738696D01*
X51899713Y-60846647D01*
X51989063Y-61008902D01*
X52062756Y-61188859D01*
X52104333Y-61349917D01*
X52108288Y-61399354D01*
X52079451Y-61553045D01*
X51990475Y-61637286D01*
X51837658Y-61655233D01*
X51811442Y-61652692D01*
X51725552Y-61644675D01*
X51686643Y-61655849D01*
X51696518Y-61700951D01*
X51756977Y-61794719D01*
X51843557Y-61915482D01*
X51996815Y-62162489D01*
X52081310Y-62394154D01*
X52108249Y-62641686D01*
X52108288Y-62652663D01*
X52094567Y-62831139D01*
X52047728Y-62951219D01*
X52013954Y-62994008D01*
X51933643Y-63066519D01*
X51877627Y-63095264D01*
X51875478Y-63132046D01*
X51910912Y-63228190D01*
X51971962Y-63354424D01*
X52074415Y-63602749D01*
X52114300Y-63827932D01*
X52094469Y-64018416D01*
X52017769Y-64162647D01*
X51887052Y-64249068D01*
X51746429Y-64268843D01*
X51519782Y-64219326D01*
X51313411Y-64093866D01*
X51141346Y-63908842D01*
X51017615Y-63680632D01*
X50956248Y-63425613D01*
X50952074Y-63341465D01*
X50969436Y-63148132D01*
X51021036Y-63032613D01*
X51024343Y-63029169D01*
X51097392Y-62970278D01*
X51164933Y-62968444D01*
X51258959Y-63026532D01*
X51293560Y-63053272D01*
X51425403Y-63206046D01*
X51517050Y-63407633D01*
X51549933Y-63616875D01*
X51549852Y-63621406D01*
X51545021Y-63693809D01*
X51530738Y-63698414D01*
X51500336Y-63627694D01*
X51464384Y-63524909D01*
X51385906Y-63324894D01*
X51310200Y-63203704D01*
X51227630Y-63148466D01*
X51177304Y-63141530D01*
X51107584Y-63172328D01*
X51095786Y-63254265D01*
X51135828Y-63371655D01*
X51221628Y-63508811D01*
X51347103Y-63650047D01*
X51389651Y-63689184D01*
X51582882Y-63824856D01*
X51758575Y-63874323D01*
X51879061Y-63857984D01*
X51958006Y-63792744D01*
X51967916Y-63672067D01*
X51910756Y-63499857D01*
X51798481Y-63297991D01*
X51788487Y-63280022D01*
X51603071Y-63016467D01*
X51356472Y-62713098D01*
X51233276Y-62572680D01*
X51097912Y-62415238D01*
X50980129Y-62267060D01*
X50899162Y-62152748D01*
X50882347Y-62123885D01*
X50833474Y-61987714D01*
X50824168Y-61917973D01*
X50906545Y-61917973D01*
X50935749Y-61983290D01*
X51012926Y-62101829D01*
X51125089Y-62257201D01*
X51259252Y-62433011D01*
X51402430Y-62612871D01*
X51541634Y-62780386D01*
X51663881Y-62919167D01*
X51756182Y-63012822D01*
X51798481Y-63043797D01*
X51859065Y-63025182D01*
X51909686Y-62974398D01*
X51949647Y-62848095D01*
X51920701Y-62698928D01*
X51841028Y-62572537D01*
X51763783Y-62506953D01*
X51634374Y-62416035D01*
X51486071Y-62322675D01*
X51316727Y-62214177D01*
X51156819Y-62098978D01*
X51055738Y-62015105D01*
X50967106Y-61940353D01*
X50913714Y-61911379D01*
X50906545Y-61917973D01*
X50824168Y-61917973D01*
X50814564Y-61845998D01*
X50827369Y-61731873D01*
X50859108Y-61684153D01*
X50901915Y-61683786D01*
X50905374Y-61697528D01*
X50923183Y-61726645D01*
X50983931Y-61765937D01*
X51098594Y-61820628D01*
X51278151Y-61895943D01*
X51533577Y-61997105D01*
X51540793Y-61999918D01*
X51829218Y-62112327D01*
X51748990Y-61974835D01*
X51685067Y-61880982D01*
X51577915Y-61739600D01*
X51444860Y-61573124D01*
X51356466Y-61466563D01*
X51199159Y-61268331D01*
X51093382Y-61109983D01*
X51046061Y-61002197D01*
X51044171Y-60985141D01*
X51065405Y-60895012D01*
X51115560Y-60878682D01*
X51162680Y-60925365D01*
X51222923Y-60974151D01*
X51342021Y-61042120D01*
X51492108Y-61116183D01*
X51645317Y-61183248D01*
X51773783Y-61230227D01*
X51842259Y-61244590D01*
X51906176Y-61213948D01*
X51912217Y-61130696D01*
X51867614Y-61007976D01*
X51779601Y-60858928D01*
X51655410Y-60696692D01*
X51502273Y-60534408D01*
X51401859Y-60444449D01*
X51190833Y-60226898D01*
X51044959Y-59989742D01*
X50968118Y-59747421D01*
X50964193Y-59514371D01*
X51013896Y-59371591D01*
X51107565Y-59371591D01*
X51110659Y-59471547D01*
X51111478Y-59474954D01*
X51177666Y-59636829D01*
X51290598Y-59806775D01*
X51433716Y-59969428D01*
X51590461Y-60109430D01*
X51744276Y-60211419D01*
X51878600Y-60260033D01*
X51951590Y-60254302D01*
X51985672Y-60199986D01*
X51950685Y-60094774D01*
X51850404Y-59944827D01*
X51688606Y-59756310D01*
X51573465Y-59637119D01*
X51396970Y-59475049D01*
X51256581Y-59375399D01*
X51158160Y-59340228D01*
X51107565Y-59371591D01*
X51013896Y-59371591D01*
X51037066Y-59305030D01*
X51078871Y-59243300D01*
X51171278Y-59121612D01*
X51246879Y-59017015D01*
X51262452Y-58994042D01*
X51309966Y-58935307D01*
X51346342Y-58954607D01*
G37*
G36*
X56624835Y-55076208D02*
G01*
X56721213Y-55165717D01*
X56781734Y-55231941D01*
X56959906Y-55460498D01*
X57078478Y-55670099D01*
X57131786Y-55848581D01*
X57122529Y-55964041D01*
X57046313Y-56078346D01*
X56926114Y-56112174D01*
X56761581Y-56065458D01*
X56552364Y-55938129D01*
X56409655Y-55826689D01*
X56274940Y-55719918D01*
X56168160Y-55645235D01*
X56107745Y-55615223D01*
X56101726Y-55616458D01*
X56104758Y-55672273D01*
X56156656Y-55770584D01*
X56241127Y-55888189D01*
X56341879Y-56001883D01*
X56423305Y-56074467D01*
X56553105Y-56162186D01*
X56719041Y-56260054D01*
X56812573Y-56309860D01*
X56982689Y-56404045D01*
X57073520Y-56477341D01*
X57093359Y-56538731D01*
X57065327Y-56583689D01*
X57012176Y-56593454D01*
X56905291Y-56562015D01*
X56735693Y-56486106D01*
X56577954Y-56406375D01*
X56396226Y-56316265D01*
X56244888Y-56249500D01*
X56142217Y-56213633D01*
X56107666Y-56211976D01*
X56101503Y-56278173D01*
X56170513Y-56379864D01*
X56307758Y-56509882D01*
X56506297Y-56661064D01*
X56612542Y-56733270D01*
X56835298Y-56883967D01*
X56988954Y-57000055D01*
X57084553Y-57093177D01*
X57133137Y-57174977D01*
X57145748Y-57257099D01*
X57143177Y-57292795D01*
X57112233Y-57401745D01*
X57049146Y-57431879D01*
X56946048Y-57384141D01*
X56869997Y-57325502D01*
X56791780Y-57263293D01*
X56759021Y-57248820D01*
X56774226Y-57288668D01*
X56839902Y-57389420D01*
X56958179Y-57557135D01*
X57073245Y-57753200D01*
X57136773Y-57938330D01*
X57146162Y-58095277D01*
X57098809Y-58206790D01*
X57060630Y-58236331D01*
X56956898Y-58269170D01*
X56892858Y-58265358D01*
X56881895Y-58286016D01*
X56917221Y-58364674D01*
X56989006Y-58480941D01*
X57108443Y-58700481D01*
X57154869Y-58890868D01*
X57127607Y-59043429D01*
X57040509Y-59140570D01*
X56980047Y-59160266D01*
X56886854Y-59190625D01*
X56800106Y-59180610D01*
X56670469Y-59148073D01*
X56840492Y-59355563D01*
X57009295Y-59589146D01*
X57098505Y-59782141D01*
X57109647Y-59938484D01*
X57089380Y-59998368D01*
X56999440Y-60100434D01*
X56870569Y-60120524D01*
X56701379Y-60058577D01*
X56569727Y-59974720D01*
X56426743Y-59871900D01*
X56298745Y-59779884D01*
X56236079Y-59734855D01*
X56140129Y-59684317D01*
X56098740Y-59707757D01*
X56113442Y-59803324D01*
X56134079Y-59858229D01*
X56211238Y-59974572D01*
X56347672Y-60116840D01*
X56521565Y-60266396D01*
X56711098Y-60404600D01*
X56894454Y-60512814D01*
X56908379Y-60519703D01*
X57043063Y-60603489D01*
X57103127Y-60683756D01*
X57105009Y-60698654D01*
X57102720Y-60750129D01*
X57083759Y-60773094D01*
X57029987Y-60766000D01*
X56923262Y-60727293D01*
X56784391Y-60671234D01*
X56511877Y-60560502D01*
X56737250Y-60840187D01*
X56935137Y-61109377D01*
X57064411Y-61346285D01*
X57133519Y-61569851D01*
X57151275Y-61768469D01*
X57145243Y-61913485D01*
X57129768Y-62018656D01*
X57116628Y-62050372D01*
X57100355Y-62112116D01*
X57094178Y-62235879D01*
X57097444Y-62353472D01*
X57078481Y-62638173D01*
X56982315Y-62880764D01*
X56883806Y-63014582D01*
X56839833Y-63084803D01*
X56860823Y-63130331D01*
X56955173Y-63155445D01*
X57131282Y-63164426D01*
X57178264Y-63164663D01*
X57474428Y-63164663D01*
X57453043Y-63195714D01*
X57439729Y-63215569D01*
X57324582Y-63310023D01*
X57152345Y-63354776D01*
X56945593Y-63347195D01*
X56753976Y-63295509D01*
X56735606Y-63311780D01*
X56773840Y-63393408D01*
X56865874Y-63534810D01*
X56894717Y-63575704D01*
X57043805Y-63814455D01*
X57130388Y-64021304D01*
X57152626Y-64187750D01*
X57108684Y-64305289D01*
X57060630Y-64343434D01*
X56956898Y-64376274D01*
X56892858Y-64372462D01*
X56881895Y-64393119D01*
X56917221Y-64471778D01*
X56989006Y-64588045D01*
X57105396Y-64803569D01*
X57152953Y-64991777D01*
X57135438Y-65142519D01*
X57056617Y-65245645D01*
X56938347Y-65284987D01*
X56920252Y-65291006D01*
X56736086Y-65270087D01*
X56501199Y-65162357D01*
X56293232Y-64984480D01*
X56128694Y-64758254D01*
X56024095Y-64505476D01*
X55994627Y-64291163D01*
X56007460Y-64146116D01*
X56037562Y-64068691D01*
X56133425Y-64068691D01*
X56172082Y-64231756D01*
X56277156Y-64416360D01*
X56432303Y-64602658D01*
X56621177Y-64770806D01*
X56812806Y-64893519D01*
X56938347Y-64940407D01*
X57003782Y-64924193D01*
X57009555Y-64851741D01*
X56956112Y-64729918D01*
X56843898Y-64565590D01*
X56786939Y-64494630D01*
X56588122Y-64269632D01*
X56419034Y-64106336D01*
X56284667Y-64007996D01*
X56190016Y-63977867D01*
X56140072Y-64019204D01*
X56133425Y-64068691D01*
X56037562Y-64068691D01*
X56056478Y-64020038D01*
X56157457Y-63873054D01*
X56162747Y-63866244D01*
X56255621Y-63751163D01*
X56324949Y-63672878D01*
X56351591Y-63650455D01*
X56396111Y-63677091D01*
X56488356Y-63745543D01*
X56565165Y-63806270D01*
X56759071Y-63951573D01*
X56895320Y-64028178D01*
X56972848Y-64036147D01*
X56990587Y-63975544D01*
X56947473Y-63846430D01*
X56918084Y-63785604D01*
X56786588Y-63587957D01*
X56600840Y-63384107D01*
X56536188Y-63328544D01*
X56391631Y-63204308D01*
X56207489Y-63087433D01*
X55949465Y-62942688D01*
X55678631Y-62764290D01*
X55409440Y-62564476D01*
X55156344Y-62355482D01*
X54933795Y-62149543D01*
X54756245Y-61958895D01*
X54638147Y-61795775D01*
X54607581Y-61732871D01*
X54569305Y-61575343D01*
X54564162Y-61416180D01*
X54591530Y-61291144D01*
X54615902Y-61253879D01*
X54725326Y-61204297D01*
X54878100Y-61209991D01*
X55045974Y-61267619D01*
X55125739Y-61314179D01*
X55241391Y-61413552D01*
X55373491Y-61559178D01*
X55509644Y-61732895D01*
X55637454Y-61916538D01*
X55744524Y-62091944D01*
X55818458Y-62240947D01*
X55846861Y-62345386D01*
X55844161Y-62366879D01*
X55814248Y-62356756D01*
X55751418Y-62281909D01*
X55668573Y-62158003D01*
X55658247Y-62141152D01*
X55497743Y-61900280D01*
X55325098Y-61680606D01*
X55156647Y-61500771D01*
X55008731Y-61379418D01*
X54971479Y-61357551D01*
X54880224Y-61315210D01*
X54844132Y-61321888D01*
X54837978Y-61374304D01*
X54873818Y-61497854D01*
X54973790Y-61662407D01*
X55126578Y-61855402D01*
X55320863Y-62064275D01*
X55545328Y-62276465D01*
X55788655Y-62479410D01*
X55926688Y-62582726D01*
X56147570Y-62741044D01*
X56024833Y-62560420D01*
X55941980Y-62394811D01*
X55938706Y-62380124D01*
X56087159Y-62380124D01*
X56113562Y-62468300D01*
X56181627Y-62581423D01*
X56274638Y-62700924D01*
X56375879Y-62808235D01*
X56468634Y-62884786D01*
X56536188Y-62912010D01*
X56555732Y-62900630D01*
X56572749Y-62800666D01*
X56545517Y-62654483D01*
X56491207Y-62516939D01*
X56378721Y-62350687D01*
X56250312Y-62269826D01*
X56195653Y-62262477D01*
X56113014Y-62282999D01*
X56087514Y-62361620D01*
X56087159Y-62380124D01*
X55938706Y-62380124D01*
X55903797Y-62223501D01*
X55913719Y-62075432D01*
X55957614Y-61994134D01*
X56068002Y-61938369D01*
X56195938Y-61956891D01*
X56328332Y-62036672D01*
X56452094Y-62164689D01*
X56554132Y-62327913D01*
X56621357Y-62513321D01*
X56641334Y-62674474D01*
X56642350Y-62832009D01*
X56741416Y-62743873D01*
X56822111Y-62645866D01*
X56906483Y-62505165D01*
X56975545Y-62358170D01*
X57010309Y-62241282D01*
X57011461Y-62226149D01*
X56992672Y-62190186D01*
X56921581Y-62215338D01*
X56919946Y-62216211D01*
X56848115Y-62239192D01*
X56827414Y-62222789D01*
X56864668Y-62172185D01*
X56907082Y-62149273D01*
X56959966Y-62118047D01*
X56927001Y-62081008D01*
X56918649Y-62075633D01*
X56879565Y-62041607D01*
X56926433Y-62031997D01*
X56936528Y-62031856D01*
X56994831Y-62015246D01*
X57000721Y-61949805D01*
X56990755Y-61903916D01*
X56947269Y-61787741D01*
X56869902Y-61685113D01*
X56742128Y-61579556D01*
X56547418Y-61454592D01*
X56529059Y-61443622D01*
X56359714Y-61335124D01*
X56199806Y-61219925D01*
X56098725Y-61136052D01*
X56009538Y-61058975D01*
X55955638Y-61024932D01*
X55948361Y-61028273D01*
X55977329Y-61102173D01*
X56056504Y-61228651D01*
X56174294Y-61391414D01*
X56319106Y-61574171D01*
X56429092Y-61703839D01*
X56579143Y-61883279D01*
X56666379Y-62005415D01*
X56689446Y-62067995D01*
X56649322Y-62069702D01*
X56592972Y-62025103D01*
X56494801Y-61927099D01*
X56371309Y-61794125D01*
X56238993Y-61644617D01*
X56114352Y-61497011D01*
X56013885Y-61369742D01*
X55977627Y-61319135D01*
X55925228Y-61216628D01*
X55903777Y-61174664D01*
X55861185Y-61020703D01*
X55857901Y-60943898D01*
X55902095Y-60943898D01*
X55925228Y-60967030D01*
X55948361Y-60943898D01*
X55925228Y-60920765D01*
X55902095Y-60943898D01*
X55857901Y-60943898D01*
X55855519Y-60888195D01*
X55885157Y-60814326D01*
X55937509Y-60818981D01*
X56023464Y-60870739D01*
X56026573Y-60873165D01*
X56136239Y-60938860D01*
X56290661Y-61007925D01*
X56378939Y-61039849D01*
X56543808Y-61098181D01*
X56693734Y-61158518D01*
X56751225Y-61185153D01*
X56883233Y-61251943D01*
X56797491Y-61099285D01*
X56658475Y-60904940D01*
X56455676Y-60691166D01*
X56209734Y-60476417D01*
X55941288Y-60279146D01*
X55744032Y-60157377D01*
X55492309Y-60000458D01*
X55243026Y-59818318D01*
X55013504Y-59626051D01*
X54821066Y-59438755D01*
X54683034Y-59271524D01*
X54635518Y-59191345D01*
X54575662Y-59007053D01*
X54566032Y-58831890D01*
X54602226Y-58685975D01*
X54679842Y-58589429D01*
X54773370Y-58561202D01*
X54900125Y-58588369D01*
X55061274Y-58658097D01*
X55220956Y-58752724D01*
X55318479Y-58829685D01*
X55405893Y-58925977D01*
X55514851Y-59066453D01*
X55631533Y-59230487D01*
X55742117Y-59397453D01*
X55832783Y-59546726D01*
X55889709Y-59657679D01*
X55902095Y-59700653D01*
X55884249Y-59760362D01*
X55838484Y-59743300D01*
X55776462Y-59656335D01*
X55754551Y-59613752D01*
X55631604Y-59396152D01*
X55482475Y-59191152D01*
X55320612Y-59011639D01*
X55159466Y-58870501D01*
X55012483Y-58780626D01*
X54893114Y-58754902D01*
X54865157Y-58761444D01*
X54822208Y-58799709D01*
X54830012Y-58870044D01*
X54893066Y-58982691D01*
X55015868Y-59147892D01*
X55057980Y-59200521D01*
X55140172Y-59287914D01*
X55266509Y-59405619D01*
X55421939Y-59541424D01*
X55591414Y-59683120D01*
X55759882Y-59818494D01*
X55912292Y-59935335D01*
X56033595Y-60021432D01*
X56108740Y-60064575D01*
X56124622Y-60065936D01*
X56114691Y-60019685D01*
X56068745Y-59941877D01*
X56012819Y-59811693D01*
X55996923Y-59663203D01*
X56022734Y-59536640D01*
X56050146Y-59495774D01*
X56152156Y-59446072D01*
X56300993Y-59459644D01*
X56503595Y-59537785D01*
X56632482Y-59604356D01*
X56779820Y-59680609D01*
X56893852Y-59730792D01*
X56952745Y-59745456D01*
X56955390Y-59744094D01*
X56948442Y-59688757D01*
X56884678Y-59578239D01*
X56772031Y-59423458D01*
X56618437Y-59235334D01*
X56435967Y-59029290D01*
X56243344Y-58807081D01*
X56113209Y-58622662D01*
X56035436Y-58456474D01*
X55999895Y-58288959D01*
X55994627Y-58177020D01*
X56008784Y-58032950D01*
X56027640Y-57987020D01*
X56129335Y-57987020D01*
X56169065Y-58111018D01*
X56243871Y-58254848D01*
X56345806Y-58401336D01*
X56466926Y-58533309D01*
X56514019Y-58574220D01*
X56723505Y-58728277D01*
X56880262Y-58813521D01*
X56980047Y-58833005D01*
X57018617Y-58789781D01*
X56991730Y-58686902D01*
X56895143Y-58527422D01*
X56781895Y-58381464D01*
X56613603Y-58192871D01*
X56452040Y-58036298D01*
X56311993Y-57924525D01*
X56208250Y-57870333D01*
X56186890Y-57867213D01*
X56132628Y-57900027D01*
X56129335Y-57987020D01*
X56027640Y-57987020D01*
X56061737Y-57903967D01*
X56161821Y-57760329D01*
X56242423Y-57657629D01*
X56303878Y-57599348D01*
X56366448Y-57586971D01*
X56450393Y-57621983D01*
X56575976Y-57705871D01*
X56707721Y-57800353D01*
X56847587Y-57889025D01*
X56944642Y-57926788D01*
X56977499Y-57920697D01*
X56988555Y-57847758D01*
X56940513Y-57724241D01*
X56841491Y-57563157D01*
X56699608Y-57377521D01*
X56522983Y-57180346D01*
X56502328Y-57159069D01*
X56348724Y-57006676D01*
X56239939Y-56912862D01*
X56159883Y-56866551D01*
X56092466Y-56856665D01*
X56067840Y-56859957D01*
X55977663Y-56862453D01*
X55948767Y-56813810D01*
X55948361Y-56801630D01*
X55989533Y-56715227D01*
X56109880Y-56670360D01*
X56201981Y-56664298D01*
X56261048Y-56659774D01*
X56268170Y-56635192D01*
X56217868Y-56574035D01*
X56148721Y-56503784D01*
X56042427Y-56378158D01*
X56002395Y-56270976D01*
X56002983Y-56214622D01*
X56028660Y-56121637D01*
X56096331Y-56093644D01*
X56146134Y-56094841D01*
X56274508Y-56103707D01*
X56134568Y-55933935D01*
X56034984Y-55772140D01*
X55991398Y-55609867D01*
X56005558Y-55469559D01*
X56079212Y-55373660D01*
X56090438Y-55367097D01*
X56212402Y-55341943D01*
X56369950Y-55382870D01*
X56571392Y-55492761D01*
X56693950Y-55576464D01*
X56817414Y-55662630D01*
X56908589Y-55721554D01*
X56943186Y-55738979D01*
X56968952Y-55706985D01*
X56932189Y-55614479D01*
X56835498Y-55466676D01*
X56752903Y-55357566D01*
X56641001Y-55203727D01*
X56583305Y-55101418D01*
X56578391Y-55056843D01*
X56624835Y-55076208D01*
G37*
%TO.C,C11*%
X55235000Y-29738748D02*
X55235000Y-30261252D01*
X53765000Y-29738748D02*
X53765000Y-30261252D01*
%TO.C,R2*%
X22422936Y-44890000D02*
X26777064Y-44890000D01*
X22422936Y-48310000D02*
X26777064Y-48310000D01*
%TO.C,J2*%
X47920000Y-83080000D02*
X47920000Y-81750000D01*
X49250000Y-83080000D02*
X47920000Y-83080000D01*
X50520000Y-83080000D02*
X58200000Y-83080000D01*
X50520000Y-83080000D02*
X50520000Y-80420000D01*
X58200000Y-83080000D02*
X58200000Y-80420000D01*
X50520000Y-80420000D02*
X58200000Y-80420000D01*
%TO.C,R5*%
X22422936Y-59560000D02*
X26777064Y-59560000D01*
X22422936Y-62980000D02*
X26777064Y-62980000D01*
%TO.C,C15*%
X41538748Y-74340000D02*
X42961252Y-74340000D01*
X41538748Y-76160000D02*
X42961252Y-76160000D01*
%TO.C,C3*%
X42910000Y-25038748D02*
X42910000Y-26461252D01*
X41090000Y-25038748D02*
X41090000Y-26461252D01*
D13*
%TO.C,MP1*%
X18000000Y-25400000D02*
X31200000Y-25400000D01*
X18000000Y-38600000D02*
X18000000Y-25400000D01*
X31200000Y-25400000D02*
X31200000Y-38600000D01*
X31200000Y-38600000D02*
X18000000Y-38600000D01*
D11*
%TO.C,C8*%
X45985000Y-28238748D02*
X45985000Y-28761252D01*
X44515000Y-28238748D02*
X44515000Y-28761252D01*
D13*
%TO.C,MP2*%
X18000000Y-73400000D02*
X31200000Y-73400000D01*
X18000000Y-86600000D02*
X18000000Y-73400000D01*
X31200000Y-73400000D02*
X31200000Y-86600000D01*
X31200000Y-86600000D02*
X18000000Y-86600000D01*
D11*
%TO.C,U2*%
X35440000Y-24750000D02*
X35440000Y-28200000D01*
X35440000Y-24750000D02*
X35440000Y-22800000D01*
X40560000Y-24750000D02*
X40560000Y-26700000D01*
X40560000Y-24750000D02*
X40560000Y-22800000D01*
%TO.C,R30*%
X55022936Y-52515000D02*
X55477064Y-52515000D01*
X55022936Y-53985000D02*
X55477064Y-53985000D01*
%TO.C,R3*%
X22422936Y-49780000D02*
X26777064Y-49780000D01*
X22422936Y-53200000D02*
X26777064Y-53200000D01*
%TO.C,R21*%
X46227064Y-57445000D02*
X45772936Y-57445000D01*
X46227064Y-55975000D02*
X45772936Y-55975000D01*
%TO.C,G\u002A\u002A\u002A*%
G36*
X43232806Y-51953034D02*
G01*
X43418458Y-51967807D01*
X43733629Y-52039319D01*
X44026224Y-52153079D01*
X44120397Y-52206822D01*
X44340163Y-52447854D01*
X44427603Y-52774656D01*
X44385516Y-53170945D01*
X44216705Y-53620441D01*
X43923969Y-54106864D01*
X43755070Y-54330333D01*
X43585930Y-54518662D01*
X43450180Y-54630732D01*
X43401563Y-54645735D01*
X43359938Y-54676285D01*
X43376063Y-54713053D01*
X43335476Y-54796392D01*
X43191601Y-54976147D01*
X42963894Y-55232082D01*
X42671813Y-55543965D01*
X42334815Y-55891560D01*
X41972357Y-56254635D01*
X41603897Y-56612953D01*
X41248892Y-56946283D01*
X41088808Y-57091620D01*
X40938137Y-57222117D01*
X40806503Y-57310398D01*
X40654996Y-57367036D01*
X40444705Y-57402604D01*
X40136721Y-57427675D01*
X39776474Y-57448227D01*
X38948407Y-57492032D01*
X38276779Y-57524518D01*
X37749105Y-57546084D01*
X37352897Y-57557126D01*
X37075668Y-57558044D01*
X36904930Y-57549234D01*
X36855667Y-57541324D01*
X36413020Y-57416969D01*
X36116041Y-57285616D01*
X35941108Y-57136415D01*
X35925428Y-57114122D01*
X35813834Y-56838670D01*
X35819429Y-56546770D01*
X36427965Y-56546770D01*
X36474393Y-56843612D01*
X36660077Y-57072082D01*
X36888399Y-57200195D01*
X37191693Y-57278221D01*
X37606793Y-57320821D01*
X38079624Y-57326599D01*
X38556116Y-57294162D01*
X38848486Y-57250735D01*
X39105044Y-57197072D01*
X39284153Y-57150231D01*
X39334318Y-57129237D01*
X39318217Y-57041514D01*
X39251300Y-56815749D01*
X39244826Y-56795690D01*
X40965065Y-56795690D01*
X41019634Y-56776734D01*
X41167147Y-56651309D01*
X41388373Y-56439790D01*
X41664081Y-56162558D01*
X41975038Y-55839988D01*
X42041200Y-55769667D01*
X42232000Y-55769667D01*
X42274333Y-55812000D01*
X42316667Y-55769667D01*
X42274333Y-55727333D01*
X42232000Y-55769667D01*
X42041200Y-55769667D01*
X42302014Y-55492460D01*
X42625778Y-55140350D01*
X42927097Y-54804036D01*
X43186740Y-54503898D01*
X43385476Y-54260311D01*
X43481432Y-54129329D01*
X43794200Y-53597550D01*
X43962677Y-53153917D01*
X43986476Y-52797330D01*
X43865213Y-52526685D01*
X43598499Y-52340881D01*
X43185949Y-52238817D01*
X42810770Y-52216610D01*
X42517126Y-52222028D01*
X42295828Y-52239067D01*
X42196816Y-52263177D01*
X42159099Y-52358375D01*
X42085998Y-52591409D01*
X41984602Y-52936195D01*
X41861998Y-53366650D01*
X41725276Y-53856690D01*
X41581524Y-54380229D01*
X41437830Y-54911185D01*
X41301283Y-55423474D01*
X41178972Y-55891011D01*
X41077986Y-56287712D01*
X41005411Y-56587494D01*
X40968339Y-56764273D01*
X40965065Y-56795690D01*
X39244826Y-56795690D01*
X39140677Y-56473018D01*
X38993458Y-56034396D01*
X38816754Y-55520958D01*
X38617673Y-54953781D01*
X38403327Y-54353940D01*
X38324875Y-54137038D01*
X38286343Y-54059002D01*
X38230829Y-54041780D01*
X38136008Y-54100823D01*
X37979553Y-54251583D01*
X37739140Y-54509511D01*
X37657512Y-54598899D01*
X37135566Y-55207622D01*
X36757416Y-55732615D01*
X36521927Y-56177718D01*
X36427965Y-56546770D01*
X35819429Y-56546770D01*
X35819919Y-56521180D01*
X35948491Y-56151948D01*
X36204360Y-55721270D01*
X36592335Y-55219440D01*
X37117225Y-54636756D01*
X37191778Y-54558714D01*
X38120556Y-53591851D01*
X37890278Y-52941736D01*
X37783312Y-52632824D01*
X37702775Y-52387047D01*
X37662299Y-52246448D01*
X37660000Y-52231477D01*
X37736035Y-52196664D01*
X37929797Y-52174950D01*
X38069242Y-52171333D01*
X38478483Y-52171333D01*
X39098832Y-53801167D01*
X39303413Y-54337983D01*
X39503489Y-54861763D01*
X39685361Y-55336732D01*
X39835331Y-55727116D01*
X39939699Y-55997143D01*
X39944251Y-56008838D01*
X40169321Y-56586676D01*
X40358700Y-55881838D01*
X40611808Y-54935195D01*
X40820684Y-54143527D01*
X40987290Y-53498899D01*
X41113590Y-52993376D01*
X41201544Y-52619023D01*
X41253116Y-52367904D01*
X41270268Y-52232085D01*
X41267475Y-52206960D01*
X41326213Y-52153262D01*
X41518494Y-52098753D01*
X41808598Y-52047403D01*
X42160803Y-52003185D01*
X42539387Y-51970069D01*
X42908629Y-51952028D01*
X43232806Y-51953034D01*
G37*
%TO.C,R6*%
X22422936Y-64450000D02*
X26777064Y-64450000D01*
X22422936Y-67870000D02*
X26777064Y-67870000D01*
%TO.C,J1*%
X57580000Y-75870000D02*
X56250000Y-75870000D01*
X57580000Y-74540000D02*
X57580000Y-75870000D01*
X57580000Y-73270000D02*
X57580000Y-68130000D01*
X57580000Y-73270000D02*
X54920000Y-73270000D01*
X57580000Y-68130000D02*
X54920000Y-68130000D01*
X54920000Y-73270000D02*
X54920000Y-68130000D01*
%TO.C,U6*%
X49340000Y-45350000D02*
X49340000Y-39340000D01*
X56160000Y-43100000D02*
X56160000Y-39340000D01*
X49340000Y-39340000D02*
X50600000Y-39340000D01*
X56160000Y-39340000D02*
X54900000Y-39340000D01*
%TD*%
G36*
X32502210Y-44500158D02*
G01*
X32775785Y-44519724D01*
X32793297Y-44522242D01*
X33054794Y-44579127D01*
X33071770Y-44584111D01*
X33322524Y-44677638D01*
X33338617Y-44684988D01*
X33573496Y-44813241D01*
X33588380Y-44822806D01*
X33802624Y-44983188D01*
X33815994Y-44994774D01*
X34005225Y-45184005D01*
X34016811Y-45197375D01*
X34177193Y-45411619D01*
X34186758Y-45426503D01*
X34315011Y-45661382D01*
X34322361Y-45677475D01*
X34415888Y-45928229D01*
X34420872Y-45945205D01*
X34477757Y-46206702D01*
X34480275Y-46224214D01*
X34499842Y-46497789D01*
X34500000Y-46502213D01*
X34500000Y-88497786D01*
X34499842Y-88502210D01*
X34480275Y-88775785D01*
X34477757Y-88793297D01*
X34420872Y-89054794D01*
X34415888Y-89071770D01*
X34322361Y-89322524D01*
X34315011Y-89338617D01*
X34186758Y-89573496D01*
X34177193Y-89588380D01*
X34016811Y-89802624D01*
X34005225Y-89815994D01*
X33815994Y-90005225D01*
X33802624Y-90016811D01*
X33588380Y-90177193D01*
X33573496Y-90186758D01*
X33338617Y-90315011D01*
X33322524Y-90322361D01*
X33071770Y-90415888D01*
X33054794Y-90420872D01*
X32793297Y-90477757D01*
X32775785Y-90480275D01*
X32502210Y-90499842D01*
X32497786Y-90500000D01*
X17002214Y-90500000D01*
X16997790Y-90499842D01*
X16724214Y-90480275D01*
X16706702Y-90477757D01*
X16445205Y-90420872D01*
X16428229Y-90415888D01*
X16177475Y-90322361D01*
X16161382Y-90315011D01*
X15926503Y-90186758D01*
X15911619Y-90177193D01*
X15697375Y-90016811D01*
X15684005Y-90005225D01*
X15494774Y-89815994D01*
X15483188Y-89802624D01*
X15322806Y-89588380D01*
X15313241Y-89573496D01*
X15184988Y-89338617D01*
X15177638Y-89322524D01*
X15084111Y-89071770D01*
X15079127Y-89054794D01*
X15022242Y-88793297D01*
X15019724Y-88775785D01*
X15000158Y-88502210D01*
X15000000Y-88497786D01*
X15000000Y-73002213D01*
X15000158Y-72997789D01*
X15019724Y-72724214D01*
X15022242Y-72706702D01*
X15079127Y-72445205D01*
X15084111Y-72428229D01*
X15177638Y-72177475D01*
X15184988Y-72161382D01*
X15313241Y-71926503D01*
X15322806Y-71911619D01*
X15483188Y-71697375D01*
X15494774Y-71684005D01*
X15684005Y-71494774D01*
X15697375Y-71483188D01*
X15911619Y-71322806D01*
X15926503Y-71313241D01*
X16161382Y-71184988D01*
X16177475Y-71177638D01*
X16428229Y-71084111D01*
X16445205Y-71079127D01*
X16706702Y-71022242D01*
X16724214Y-71019724D01*
X16997790Y-71000158D01*
X17002214Y-71000000D01*
X27000000Y-71000000D01*
X27284635Y-70979642D01*
X27563458Y-70918987D01*
X27830831Y-70819263D01*
X27830835Y-70819261D01*
X28081276Y-70682510D01*
X28081277Y-70682509D01*
X28309719Y-70511499D01*
X28309731Y-70511489D01*
X28511489Y-70309731D01*
X28511499Y-70309719D01*
X28682509Y-70081277D01*
X28682510Y-70081276D01*
X28819261Y-69830835D01*
X28819263Y-69830831D01*
X28918987Y-69563458D01*
X28979642Y-69284635D01*
X29000000Y-69000000D01*
X29000000Y-46502213D01*
X29000158Y-46497789D01*
X29019724Y-46224214D01*
X29022242Y-46206702D01*
X29079127Y-45945205D01*
X29084111Y-45928229D01*
X29177638Y-45677475D01*
X29184988Y-45661382D01*
X29313241Y-45426503D01*
X29322806Y-45411619D01*
X29483188Y-45197375D01*
X29494774Y-45184005D01*
X29684005Y-44994774D01*
X29697375Y-44983188D01*
X29911619Y-44822806D01*
X29926503Y-44813241D01*
X30161382Y-44684988D01*
X30177475Y-44677638D01*
X30428229Y-44584111D01*
X30445205Y-44579127D01*
X30706702Y-44522242D01*
X30724214Y-44519724D01*
X30997790Y-44500158D01*
X31002214Y-44500000D01*
X32497786Y-44500000D01*
X32502210Y-44500158D01*
G37*
G36*
X32002210Y-22500158D02*
G01*
X32275785Y-22519724D01*
X32293297Y-22522242D01*
X32554794Y-22579127D01*
X32571770Y-22584111D01*
X32822524Y-22677638D01*
X32838617Y-22684988D01*
X33073496Y-22813241D01*
X33088380Y-22822806D01*
X33302624Y-22983188D01*
X33315994Y-22994774D01*
X33505225Y-23184005D01*
X33516811Y-23197375D01*
X33677193Y-23411619D01*
X33686758Y-23426503D01*
X33815011Y-23661382D01*
X33822361Y-23677475D01*
X33915888Y-23928229D01*
X33920872Y-23945205D01*
X33977757Y-24206702D01*
X33980275Y-24224214D01*
X33999842Y-24497789D01*
X34000000Y-24502213D01*
X34000000Y-39497786D01*
X33999842Y-39502210D01*
X33980275Y-39775785D01*
X33977757Y-39793297D01*
X33920872Y-40054794D01*
X33915888Y-40071770D01*
X33822361Y-40322524D01*
X33815011Y-40338617D01*
X33686758Y-40573496D01*
X33677193Y-40588380D01*
X33516811Y-40802624D01*
X33505225Y-40815994D01*
X33315994Y-41005225D01*
X33302624Y-41016811D01*
X33088380Y-41177193D01*
X33073496Y-41186758D01*
X32838617Y-41315011D01*
X32822524Y-41322361D01*
X32571770Y-41415888D01*
X32554794Y-41420872D01*
X32293297Y-41477757D01*
X32275785Y-41480275D01*
X32002210Y-41499842D01*
X31997786Y-41500000D01*
X22000000Y-41500000D01*
X21715364Y-41520357D01*
X21436541Y-41581012D01*
X21169168Y-41680736D01*
X21169164Y-41680738D01*
X20918723Y-41817489D01*
X20918722Y-41817490D01*
X20690280Y-41988500D01*
X20690268Y-41988510D01*
X20488510Y-42190268D01*
X20488500Y-42190280D01*
X20317490Y-42418722D01*
X20317489Y-42418723D01*
X20180738Y-42669164D01*
X20180736Y-42669168D01*
X20081012Y-42936541D01*
X20020357Y-43215364D01*
X20000000Y-43500000D01*
X20000000Y-66497786D01*
X19999842Y-66502210D01*
X19980275Y-66775785D01*
X19977757Y-66793297D01*
X19920872Y-67054794D01*
X19915888Y-67071770D01*
X19822361Y-67322524D01*
X19815011Y-67338617D01*
X19686758Y-67573496D01*
X19677193Y-67588380D01*
X19516811Y-67802624D01*
X19505225Y-67815994D01*
X19315994Y-68005225D01*
X19302624Y-68016811D01*
X19088380Y-68177193D01*
X19073496Y-68186758D01*
X18838617Y-68315011D01*
X18822524Y-68322361D01*
X18571770Y-68415888D01*
X18554794Y-68420872D01*
X18293297Y-68477757D01*
X18275785Y-68480275D01*
X18002210Y-68499842D01*
X17997786Y-68500000D01*
X16502214Y-68500000D01*
X16497790Y-68499842D01*
X16224214Y-68480275D01*
X16206702Y-68477757D01*
X15945205Y-68420872D01*
X15928229Y-68415888D01*
X15677475Y-68322361D01*
X15661382Y-68315011D01*
X15426503Y-68186758D01*
X15411619Y-68177193D01*
X15197375Y-68016811D01*
X15184005Y-68005225D01*
X14994774Y-67815994D01*
X14983188Y-67802624D01*
X14822806Y-67588380D01*
X14813241Y-67573496D01*
X14684988Y-67338617D01*
X14677638Y-67322524D01*
X14584111Y-67071770D01*
X14579127Y-67054794D01*
X14522242Y-66793297D01*
X14519724Y-66775785D01*
X14500158Y-66502210D01*
X14500000Y-66497786D01*
X14500000Y-24502213D01*
X14500158Y-24497789D01*
X14519724Y-24224214D01*
X14522242Y-24206702D01*
X14579127Y-23945205D01*
X14584111Y-23928229D01*
X14677638Y-23677475D01*
X14684988Y-23661382D01*
X14813241Y-23426503D01*
X14822806Y-23411619D01*
X14983188Y-23197375D01*
X14994774Y-23184005D01*
X15184005Y-22994774D01*
X15197375Y-22983188D01*
X15411619Y-22822806D01*
X15426503Y-22813241D01*
X15661382Y-22684988D01*
X15677475Y-22677638D01*
X15928229Y-22584111D01*
X15945205Y-22579127D01*
X16206702Y-22522242D01*
X16224214Y-22519724D01*
X16497790Y-22500158D01*
X16502214Y-22500000D01*
X31997786Y-22500000D01*
X32002210Y-22500158D01*
G37*
M02*
