%TF.GenerationSoftware,KiCad,Pcbnew,7.0.9*%
%TF.CreationDate,2025-02-22T11:45:52+05:30*%
%TF.ProjectId,DigitalCurrentShunt,44696769-7461-46c4-9375-7272656e7453,rev?*%
%TF.SameCoordinates,Original*%
%TF.FileFunction,Plated,1,4,PTH,Drill*%
%TF.FilePolarity,Positive*%
%FSLAX46Y46*%
G04 Gerber Fmt 4.6, Leading zero omitted, Abs format (unit mm)*
G04 Created by KiCad (PCBNEW 7.0.9) date 2025-02-22 11:45:52*
%MOMM*%
%LPD*%
G01*
G04 APERTURE LIST*
%TA.AperFunction,ViaDrill*%
%ADD10C,0.400000*%
%TD*%
%TA.AperFunction,ComponentDrill*%
%ADD11C,0.990600*%
%TD*%
%TA.AperFunction,ComponentDrill*%
%ADD12C,1.000000*%
%TD*%
%TA.AperFunction,ComponentDrill*%
%ADD13C,1.100000*%
%TD*%
%TA.AperFunction,ComponentDrill*%
%ADD14C,1.475000*%
%TD*%
G04 APERTURE END LIST*
D10*
X16000000Y-42500000D03*
X16000000Y-45000000D03*
X16000000Y-47500000D03*
X16000000Y-50000000D03*
X16000000Y-52500000D03*
X16000000Y-55000000D03*
X16000000Y-57500000D03*
X16000000Y-60000000D03*
X16000000Y-62500000D03*
X16000000Y-65000000D03*
X16000000Y-67500000D03*
X17500000Y-42500000D03*
X17500000Y-45000000D03*
X17500000Y-47500000D03*
X17500000Y-50000000D03*
X17500000Y-52500000D03*
X17500000Y-55000000D03*
X17500000Y-57500000D03*
X17500000Y-60000000D03*
X17500000Y-62500000D03*
X17500000Y-65000000D03*
X17500000Y-67500000D03*
X19000000Y-42500000D03*
X19000000Y-45000000D03*
X19000000Y-47500000D03*
X19000000Y-50000000D03*
X19000000Y-52500000D03*
X19000000Y-55000000D03*
X19000000Y-57500000D03*
X19000000Y-60000000D03*
X19000000Y-62500000D03*
X19000000Y-65000000D03*
X19000000Y-67500000D03*
X20500000Y-42500000D03*
X22500000Y-42500000D03*
X23250000Y-45000000D03*
X23250000Y-47500000D03*
X23250000Y-50000000D03*
X23250000Y-52500000D03*
X23250000Y-55000000D03*
X23250000Y-57500000D03*
X23250000Y-60000000D03*
X23250000Y-62500000D03*
X23250000Y-65000000D03*
X23250000Y-67500000D03*
X26000000Y-45000000D03*
X26000000Y-47500000D03*
X26000000Y-50000000D03*
X26000000Y-52500000D03*
X26000000Y-55000000D03*
X26000000Y-57500000D03*
X26000000Y-60000000D03*
X26000000Y-62500000D03*
X26000000Y-65000000D03*
X26000000Y-67500000D03*
X26000000Y-70000000D03*
X28000000Y-70000000D03*
X30000000Y-45000000D03*
X30000000Y-47500000D03*
X30000000Y-50000000D03*
X30000000Y-52500000D03*
X30000000Y-55000000D03*
X30000000Y-57500000D03*
X30000000Y-60000000D03*
X30000000Y-62500000D03*
X30000000Y-65000000D03*
X30000000Y-67500000D03*
X30000000Y-70000000D03*
X31500000Y-45000000D03*
X31500000Y-47500000D03*
X31500000Y-50000000D03*
X31500000Y-52500000D03*
X31500000Y-55000000D03*
X31500000Y-57500000D03*
X31500000Y-60000000D03*
X31500000Y-62500000D03*
X31500000Y-65000000D03*
X31500000Y-67500000D03*
X31500000Y-70000000D03*
X33000000Y-45000000D03*
X33000000Y-47500000D03*
X33000000Y-50000000D03*
X33000000Y-52500000D03*
X33000000Y-55000000D03*
X33000000Y-57500000D03*
X33000000Y-60000000D03*
X33000000Y-62500000D03*
X33000000Y-65000000D03*
X33000000Y-67500000D03*
X33000000Y-70000000D03*
X34500000Y-43000000D03*
X35750000Y-33250000D03*
X36750000Y-52450000D03*
X36750000Y-71500000D03*
X36750000Y-74750000D03*
X36750000Y-77750000D03*
X36900000Y-58900000D03*
X36962255Y-34536534D03*
X37250000Y-64850000D03*
X37711089Y-27937949D03*
X37742461Y-37000860D03*
X38242089Y-28784734D03*
X38264500Y-31750000D03*
X38500000Y-24250000D03*
X39500000Y-65750000D03*
X39900498Y-77750000D03*
X40250000Y-52300000D03*
X41250000Y-75000000D03*
X41500000Y-25750000D03*
X41874799Y-29875201D03*
X42250000Y-33500000D03*
X42250000Y-36000000D03*
X42500000Y-20500000D03*
X42724500Y-22250000D03*
X42850000Y-58750000D03*
X43500000Y-27500000D03*
X43750000Y-24250000D03*
X44250000Y-32250000D03*
X44750000Y-69250000D03*
X45100000Y-52400000D03*
X45500000Y-23500000D03*
X45500000Y-25000000D03*
X45500000Y-71750000D03*
X45750000Y-30500000D03*
X45750000Y-37750000D03*
X46250000Y-54500000D03*
X46623200Y-21750000D03*
X46623200Y-28750000D03*
X46623200Y-35750000D03*
X46800000Y-72400000D03*
X47000000Y-31750000D03*
X47500000Y-81750000D03*
X47750000Y-39000000D03*
X47750000Y-77750000D03*
X48000000Y-56710000D03*
X48000000Y-59710000D03*
X48668363Y-67945576D03*
X49000000Y-27000000D03*
X49000000Y-33750000D03*
X49190800Y-73139397D03*
X49500000Y-39750000D03*
X49500000Y-55210000D03*
X49500000Y-61210000D03*
X49500000Y-68500000D03*
X49850000Y-52800000D03*
X50050000Y-50050000D03*
X50074848Y-70958848D03*
X50149500Y-74460009D03*
X50224500Y-63350000D03*
X50500000Y-79750000D03*
X50750000Y-41500000D03*
X50750000Y-77000000D03*
X51250000Y-22250000D03*
X51250000Y-43000000D03*
X51500000Y-29500000D03*
X51500000Y-35250000D03*
X52000000Y-76750000D03*
X52224500Y-39750000D03*
X52224500Y-42598524D03*
X52250000Y-72500000D03*
X52550000Y-57100000D03*
X52600000Y-62400000D03*
X52999503Y-76750000D03*
X53050000Y-67200000D03*
X54000000Y-71250000D03*
X54000000Y-75500000D03*
X54068851Y-50127754D03*
X54450000Y-55000000D03*
X54500000Y-77500000D03*
X54750000Y-24905000D03*
X55000000Y-32000000D03*
X56212500Y-49037500D03*
X56376800Y-21750000D03*
X56376800Y-28750000D03*
X56376800Y-35750000D03*
X57500000Y-25000000D03*
X57500000Y-32000000D03*
X57500000Y-77250000D03*
X57750000Y-57400000D03*
X57750000Y-59650000D03*
X57750000Y-61800000D03*
X57800000Y-63800000D03*
X57850000Y-65450000D03*
X58000000Y-22000000D03*
X58224500Y-29000000D03*
X58250000Y-36250000D03*
D11*
%TO.C,U9*%
X40608200Y-41500000D03*
X40608200Y-44040000D03*
X40608200Y-46580000D03*
X40608200Y-49120000D03*
%TO.C,U8*%
X47608200Y-41500000D03*
X47608200Y-44040000D03*
X47608200Y-46580000D03*
X47608200Y-49120000D03*
D12*
%TO.C,J3*%
X37930000Y-81750000D03*
X40470000Y-81750000D03*
X43010000Y-81750000D03*
X45550000Y-81750000D03*
%TO.C,J2*%
X49250000Y-81750000D03*
X51790000Y-81750000D03*
X54330000Y-81750000D03*
%TO.C,J1*%
X56250000Y-69460000D03*
X56250000Y-72000000D03*
X56250000Y-74540000D03*
%TO.C,J2*%
X56870000Y-81750000D03*
D13*
%TO.C,SW1*%
X37500000Y-62000000D03*
X37500000Y-68500000D03*
X42000000Y-62000000D03*
X42000000Y-68500000D03*
D14*
%TO.C,MP1*%
X19520000Y-26920000D03*
X19520000Y-29460000D03*
X19520000Y-32000000D03*
X19520000Y-34540000D03*
X19520000Y-37080000D03*
%TO.C,MP2*%
X19520000Y-74920000D03*
X19520000Y-77460000D03*
X19520000Y-80000000D03*
X19520000Y-82540000D03*
X19520000Y-85080000D03*
%TO.C,MP1*%
X22060000Y-26920000D03*
X22060000Y-37080000D03*
%TO.C,MP2*%
X22060000Y-74920000D03*
X22060000Y-85080000D03*
%TO.C,MP1*%
X24600000Y-26920000D03*
X24600000Y-37080000D03*
%TO.C,MP2*%
X24600000Y-74920000D03*
X24600000Y-85080000D03*
%TO.C,MP1*%
X27140000Y-26920000D03*
X27140000Y-37080000D03*
%TO.C,MP2*%
X27140000Y-74920000D03*
X27140000Y-85080000D03*
%TO.C,MP1*%
X29680000Y-26920000D03*
X29680000Y-29460000D03*
X29680000Y-32000000D03*
X29680000Y-34540000D03*
X29680000Y-37080000D03*
%TO.C,MP2*%
X29680000Y-74920000D03*
X29680000Y-77460000D03*
X29680000Y-80000000D03*
X29680000Y-82540000D03*
X29680000Y-85080000D03*
M02*
