%TF.GenerationSoftware,KiCad,Pcbnew,7.0.9*%
%TF.CreationDate,2025-02-22T11:45:47+05:30*%
%TF.ProjectId,DigitalCurrentShunt,44696769-7461-46c4-9375-7272656e7453,rev?*%
%TF.SameCoordinates,Original*%
%TF.FileFunction,Legend,Bot*%
%TF.FilePolarity,Positive*%
%FSLAX46Y46*%
G04 Gerber Fmt 4.6, Leading zero omitted, Abs format (unit mm)*
G04 Created by KiCad (PCBNEW 7.0.9) date 2025-02-22 11:45:47*
%MOMM*%
%LPD*%
G01*
G04 APERTURE LIST*
%ADD10C,0.150000*%
%ADD11C,0.120000*%
%ADD12C,0.152400*%
G04 APERTURE END LIST*
D10*
X37642857Y-46604819D02*
X37976190Y-46128628D01*
X38214285Y-46604819D02*
X38214285Y-45604819D01*
X38214285Y-45604819D02*
X37833333Y-45604819D01*
X37833333Y-45604819D02*
X37738095Y-45652438D01*
X37738095Y-45652438D02*
X37690476Y-45700057D01*
X37690476Y-45700057D02*
X37642857Y-45795295D01*
X37642857Y-45795295D02*
X37642857Y-45938152D01*
X37642857Y-45938152D02*
X37690476Y-46033390D01*
X37690476Y-46033390D02*
X37738095Y-46081009D01*
X37738095Y-46081009D02*
X37833333Y-46128628D01*
X37833333Y-46128628D02*
X38214285Y-46128628D01*
X36690476Y-46604819D02*
X37261904Y-46604819D01*
X36976190Y-46604819D02*
X36976190Y-45604819D01*
X36976190Y-45604819D02*
X37071428Y-45747676D01*
X37071428Y-45747676D02*
X37166666Y-45842914D01*
X37166666Y-45842914D02*
X37261904Y-45890533D01*
X36309523Y-45700057D02*
X36261904Y-45652438D01*
X36261904Y-45652438D02*
X36166666Y-45604819D01*
X36166666Y-45604819D02*
X35928571Y-45604819D01*
X35928571Y-45604819D02*
X35833333Y-45652438D01*
X35833333Y-45652438D02*
X35785714Y-45700057D01*
X35785714Y-45700057D02*
X35738095Y-45795295D01*
X35738095Y-45795295D02*
X35738095Y-45890533D01*
X35738095Y-45890533D02*
X35785714Y-46033390D01*
X35785714Y-46033390D02*
X36357142Y-46604819D01*
X36357142Y-46604819D02*
X35738095Y-46604819D01*
X53242857Y-66559580D02*
X53290476Y-66607200D01*
X53290476Y-66607200D02*
X53433333Y-66654819D01*
X53433333Y-66654819D02*
X53528571Y-66654819D01*
X53528571Y-66654819D02*
X53671428Y-66607200D01*
X53671428Y-66607200D02*
X53766666Y-66511961D01*
X53766666Y-66511961D02*
X53814285Y-66416723D01*
X53814285Y-66416723D02*
X53861904Y-66226247D01*
X53861904Y-66226247D02*
X53861904Y-66083390D01*
X53861904Y-66083390D02*
X53814285Y-65892914D01*
X53814285Y-65892914D02*
X53766666Y-65797676D01*
X53766666Y-65797676D02*
X53671428Y-65702438D01*
X53671428Y-65702438D02*
X53528571Y-65654819D01*
X53528571Y-65654819D02*
X53433333Y-65654819D01*
X53433333Y-65654819D02*
X53290476Y-65702438D01*
X53290476Y-65702438D02*
X53242857Y-65750057D01*
X52290476Y-66654819D02*
X52861904Y-66654819D01*
X52576190Y-66654819D02*
X52576190Y-65654819D01*
X52576190Y-65654819D02*
X52671428Y-65797676D01*
X52671428Y-65797676D02*
X52766666Y-65892914D01*
X52766666Y-65892914D02*
X52861904Y-65940533D01*
X51433333Y-65988152D02*
X51433333Y-66654819D01*
X51671428Y-65607200D02*
X51909523Y-66321485D01*
X51909523Y-66321485D02*
X51290476Y-66321485D01*
X57642857Y-40179580D02*
X57690476Y-40227200D01*
X57690476Y-40227200D02*
X57833333Y-40274819D01*
X57833333Y-40274819D02*
X57928571Y-40274819D01*
X57928571Y-40274819D02*
X58071428Y-40227200D01*
X58071428Y-40227200D02*
X58166666Y-40131961D01*
X58166666Y-40131961D02*
X58214285Y-40036723D01*
X58214285Y-40036723D02*
X58261904Y-39846247D01*
X58261904Y-39846247D02*
X58261904Y-39703390D01*
X58261904Y-39703390D02*
X58214285Y-39512914D01*
X58214285Y-39512914D02*
X58166666Y-39417676D01*
X58166666Y-39417676D02*
X58071428Y-39322438D01*
X58071428Y-39322438D02*
X57928571Y-39274819D01*
X57928571Y-39274819D02*
X57833333Y-39274819D01*
X57833333Y-39274819D02*
X57690476Y-39322438D01*
X57690476Y-39322438D02*
X57642857Y-39370057D01*
X57261904Y-39370057D02*
X57214285Y-39322438D01*
X57214285Y-39322438D02*
X57119047Y-39274819D01*
X57119047Y-39274819D02*
X56880952Y-39274819D01*
X56880952Y-39274819D02*
X56785714Y-39322438D01*
X56785714Y-39322438D02*
X56738095Y-39370057D01*
X56738095Y-39370057D02*
X56690476Y-39465295D01*
X56690476Y-39465295D02*
X56690476Y-39560533D01*
X56690476Y-39560533D02*
X56738095Y-39703390D01*
X56738095Y-39703390D02*
X57309523Y-40274819D01*
X57309523Y-40274819D02*
X56690476Y-40274819D01*
X56071428Y-39274819D02*
X55976190Y-39274819D01*
X55976190Y-39274819D02*
X55880952Y-39322438D01*
X55880952Y-39322438D02*
X55833333Y-39370057D01*
X55833333Y-39370057D02*
X55785714Y-39465295D01*
X55785714Y-39465295D02*
X55738095Y-39655771D01*
X55738095Y-39655771D02*
X55738095Y-39893866D01*
X55738095Y-39893866D02*
X55785714Y-40084342D01*
X55785714Y-40084342D02*
X55833333Y-40179580D01*
X55833333Y-40179580D02*
X55880952Y-40227200D01*
X55880952Y-40227200D02*
X55976190Y-40274819D01*
X55976190Y-40274819D02*
X56071428Y-40274819D01*
X56071428Y-40274819D02*
X56166666Y-40227200D01*
X56166666Y-40227200D02*
X56214285Y-40179580D01*
X56214285Y-40179580D02*
X56261904Y-40084342D01*
X56261904Y-40084342D02*
X56309523Y-39893866D01*
X56309523Y-39893866D02*
X56309523Y-39655771D01*
X56309523Y-39655771D02*
X56261904Y-39465295D01*
X56261904Y-39465295D02*
X56214285Y-39370057D01*
X56214285Y-39370057D02*
X56166666Y-39322438D01*
X56166666Y-39322438D02*
X56071428Y-39274819D01*
X47459580Y-47357142D02*
X47507200Y-47309523D01*
X47507200Y-47309523D02*
X47554819Y-47166666D01*
X47554819Y-47166666D02*
X47554819Y-47071428D01*
X47554819Y-47071428D02*
X47507200Y-46928571D01*
X47507200Y-46928571D02*
X47411961Y-46833333D01*
X47411961Y-46833333D02*
X47316723Y-46785714D01*
X47316723Y-46785714D02*
X47126247Y-46738095D01*
X47126247Y-46738095D02*
X46983390Y-46738095D01*
X46983390Y-46738095D02*
X46792914Y-46785714D01*
X46792914Y-46785714D02*
X46697676Y-46833333D01*
X46697676Y-46833333D02*
X46602438Y-46928571D01*
X46602438Y-46928571D02*
X46554819Y-47071428D01*
X46554819Y-47071428D02*
X46554819Y-47166666D01*
X46554819Y-47166666D02*
X46602438Y-47309523D01*
X46602438Y-47309523D02*
X46650057Y-47357142D01*
X46650057Y-47738095D02*
X46602438Y-47785714D01*
X46602438Y-47785714D02*
X46554819Y-47880952D01*
X46554819Y-47880952D02*
X46554819Y-48119047D01*
X46554819Y-48119047D02*
X46602438Y-48214285D01*
X46602438Y-48214285D02*
X46650057Y-48261904D01*
X46650057Y-48261904D02*
X46745295Y-48309523D01*
X46745295Y-48309523D02*
X46840533Y-48309523D01*
X46840533Y-48309523D02*
X46983390Y-48261904D01*
X46983390Y-48261904D02*
X47554819Y-47690476D01*
X47554819Y-47690476D02*
X47554819Y-48309523D01*
X46650057Y-48690476D02*
X46602438Y-48738095D01*
X46602438Y-48738095D02*
X46554819Y-48833333D01*
X46554819Y-48833333D02*
X46554819Y-49071428D01*
X46554819Y-49071428D02*
X46602438Y-49166666D01*
X46602438Y-49166666D02*
X46650057Y-49214285D01*
X46650057Y-49214285D02*
X46745295Y-49261904D01*
X46745295Y-49261904D02*
X46840533Y-49261904D01*
X46840533Y-49261904D02*
X46983390Y-49214285D01*
X46983390Y-49214285D02*
X47554819Y-48642857D01*
X47554819Y-48642857D02*
X47554819Y-49261904D01*
X55892857Y-80789580D02*
X55940476Y-80837200D01*
X55940476Y-80837200D02*
X56083333Y-80884819D01*
X56083333Y-80884819D02*
X56178571Y-80884819D01*
X56178571Y-80884819D02*
X56321428Y-80837200D01*
X56321428Y-80837200D02*
X56416666Y-80741961D01*
X56416666Y-80741961D02*
X56464285Y-80646723D01*
X56464285Y-80646723D02*
X56511904Y-80456247D01*
X56511904Y-80456247D02*
X56511904Y-80313390D01*
X56511904Y-80313390D02*
X56464285Y-80122914D01*
X56464285Y-80122914D02*
X56416666Y-80027676D01*
X56416666Y-80027676D02*
X56321428Y-79932438D01*
X56321428Y-79932438D02*
X56178571Y-79884819D01*
X56178571Y-79884819D02*
X56083333Y-79884819D01*
X56083333Y-79884819D02*
X55940476Y-79932438D01*
X55940476Y-79932438D02*
X55892857Y-79980057D01*
X54940476Y-80884819D02*
X55511904Y-80884819D01*
X55226190Y-80884819D02*
X55226190Y-79884819D01*
X55226190Y-79884819D02*
X55321428Y-80027676D01*
X55321428Y-80027676D02*
X55416666Y-80122914D01*
X55416666Y-80122914D02*
X55511904Y-80170533D01*
X54559523Y-79980057D02*
X54511904Y-79932438D01*
X54511904Y-79932438D02*
X54416666Y-79884819D01*
X54416666Y-79884819D02*
X54178571Y-79884819D01*
X54178571Y-79884819D02*
X54083333Y-79932438D01*
X54083333Y-79932438D02*
X54035714Y-79980057D01*
X54035714Y-79980057D02*
X53988095Y-80075295D01*
X53988095Y-80075295D02*
X53988095Y-80170533D01*
X53988095Y-80170533D02*
X54035714Y-80313390D01*
X54035714Y-80313390D02*
X54607142Y-80884819D01*
X54607142Y-80884819D02*
X53988095Y-80884819D01*
X50738095Y-30545180D02*
X50738095Y-29735657D01*
X50738095Y-29735657D02*
X50785714Y-29640419D01*
X50785714Y-29640419D02*
X50833333Y-29592800D01*
X50833333Y-29592800D02*
X50928571Y-29545180D01*
X50928571Y-29545180D02*
X51119047Y-29545180D01*
X51119047Y-29545180D02*
X51214285Y-29592800D01*
X51214285Y-29592800D02*
X51261904Y-29640419D01*
X51261904Y-29640419D02*
X51309523Y-29735657D01*
X51309523Y-29735657D02*
X51309523Y-30545180D01*
X51690476Y-30545180D02*
X52309523Y-30545180D01*
X52309523Y-30545180D02*
X51976190Y-30164228D01*
X51976190Y-30164228D02*
X52119047Y-30164228D01*
X52119047Y-30164228D02*
X52214285Y-30116609D01*
X52214285Y-30116609D02*
X52261904Y-30068990D01*
X52261904Y-30068990D02*
X52309523Y-29973752D01*
X52309523Y-29973752D02*
X52309523Y-29735657D01*
X52309523Y-29735657D02*
X52261904Y-29640419D01*
X52261904Y-29640419D02*
X52214285Y-29592800D01*
X52214285Y-29592800D02*
X52119047Y-29545180D01*
X52119047Y-29545180D02*
X51833333Y-29545180D01*
X51833333Y-29545180D02*
X51738095Y-29592800D01*
X51738095Y-29592800D02*
X51690476Y-29640419D01*
X46369199Y-33061619D02*
X46369199Y-33299714D01*
X46607294Y-33204476D02*
X46369199Y-33299714D01*
X46369199Y-33299714D02*
X46131104Y-33204476D01*
X46512056Y-33490190D02*
X46369199Y-33299714D01*
X46369199Y-33299714D02*
X46226342Y-33490190D01*
X46369200Y-34151980D02*
X46369200Y-33913885D01*
X46131105Y-34009123D02*
X46369200Y-33913885D01*
X46369200Y-33913885D02*
X46607295Y-34009123D01*
X46226343Y-33723409D02*
X46369200Y-33913885D01*
X46369200Y-33913885D02*
X46512057Y-33723409D01*
X52736904Y-62984819D02*
X52736904Y-63794342D01*
X52736904Y-63794342D02*
X52689285Y-63889580D01*
X52689285Y-63889580D02*
X52641666Y-63937200D01*
X52641666Y-63937200D02*
X52546428Y-63984819D01*
X52546428Y-63984819D02*
X52355952Y-63984819D01*
X52355952Y-63984819D02*
X52260714Y-63937200D01*
X52260714Y-63937200D02*
X52213095Y-63889580D01*
X52213095Y-63889580D02*
X52165476Y-63794342D01*
X52165476Y-63794342D02*
X52165476Y-62984819D01*
X51213095Y-62984819D02*
X51689285Y-62984819D01*
X51689285Y-62984819D02*
X51736904Y-63461009D01*
X51736904Y-63461009D02*
X51689285Y-63413390D01*
X51689285Y-63413390D02*
X51594047Y-63365771D01*
X51594047Y-63365771D02*
X51355952Y-63365771D01*
X51355952Y-63365771D02*
X51260714Y-63413390D01*
X51260714Y-63413390D02*
X51213095Y-63461009D01*
X51213095Y-63461009D02*
X51165476Y-63556247D01*
X51165476Y-63556247D02*
X51165476Y-63794342D01*
X51165476Y-63794342D02*
X51213095Y-63889580D01*
X51213095Y-63889580D02*
X51260714Y-63937200D01*
X51260714Y-63937200D02*
X51355952Y-63984819D01*
X51355952Y-63984819D02*
X51594047Y-63984819D01*
X51594047Y-63984819D02*
X51689285Y-63937200D01*
X51689285Y-63937200D02*
X51736904Y-63889580D01*
X50738095Y-23545180D02*
X50738095Y-22735657D01*
X50738095Y-22735657D02*
X50785714Y-22640419D01*
X50785714Y-22640419D02*
X50833333Y-22592800D01*
X50833333Y-22592800D02*
X50928571Y-22545180D01*
X50928571Y-22545180D02*
X51119047Y-22545180D01*
X51119047Y-22545180D02*
X51214285Y-22592800D01*
X51214285Y-22592800D02*
X51261904Y-22640419D01*
X51261904Y-22640419D02*
X51309523Y-22735657D01*
X51309523Y-22735657D02*
X51309523Y-23545180D01*
X52214285Y-23211847D02*
X52214285Y-22545180D01*
X51976190Y-23592800D02*
X51738095Y-22878514D01*
X51738095Y-22878514D02*
X52357142Y-22878514D01*
X46369199Y-26061619D02*
X46369199Y-26299714D01*
X46607294Y-26204476D02*
X46369199Y-26299714D01*
X46369199Y-26299714D02*
X46131104Y-26204476D01*
X46512056Y-26490190D02*
X46369199Y-26299714D01*
X46369199Y-26299714D02*
X46226342Y-26490190D01*
X46369200Y-27151980D02*
X46369200Y-26913885D01*
X46131105Y-27009123D02*
X46369200Y-26913885D01*
X46369200Y-26913885D02*
X46607295Y-27009123D01*
X46226343Y-26723409D02*
X46369200Y-26913885D01*
X46369200Y-26913885D02*
X46512057Y-26723409D01*
X50738095Y-37545180D02*
X50738095Y-36735657D01*
X50738095Y-36735657D02*
X50785714Y-36640419D01*
X50785714Y-36640419D02*
X50833333Y-36592800D01*
X50833333Y-36592800D02*
X50928571Y-36545180D01*
X50928571Y-36545180D02*
X51119047Y-36545180D01*
X51119047Y-36545180D02*
X51214285Y-36592800D01*
X51214285Y-36592800D02*
X51261904Y-36640419D01*
X51261904Y-36640419D02*
X51309523Y-36735657D01*
X51309523Y-36735657D02*
X51309523Y-37545180D01*
X51690476Y-37545180D02*
X52357142Y-37545180D01*
X52357142Y-37545180D02*
X51928571Y-36545180D01*
X46369200Y-41151980D02*
X46369200Y-40913885D01*
X46131105Y-41009123D02*
X46369200Y-40913885D01*
X46369200Y-40913885D02*
X46607295Y-41009123D01*
X46226343Y-40723409D02*
X46369200Y-40913885D01*
X46369200Y-40913885D02*
X46512057Y-40723409D01*
X46369199Y-40061619D02*
X46369199Y-40299714D01*
X46607294Y-40204476D02*
X46369199Y-40299714D01*
X46369199Y-40299714D02*
X46131104Y-40204476D01*
X46512056Y-40490190D02*
X46369199Y-40299714D01*
X46369199Y-40299714D02*
X46226342Y-40490190D01*
X39304819Y-22607142D02*
X38828628Y-22273809D01*
X39304819Y-22035714D02*
X38304819Y-22035714D01*
X38304819Y-22035714D02*
X38304819Y-22416666D01*
X38304819Y-22416666D02*
X38352438Y-22511904D01*
X38352438Y-22511904D02*
X38400057Y-22559523D01*
X38400057Y-22559523D02*
X38495295Y-22607142D01*
X38495295Y-22607142D02*
X38638152Y-22607142D01*
X38638152Y-22607142D02*
X38733390Y-22559523D01*
X38733390Y-22559523D02*
X38781009Y-22511904D01*
X38781009Y-22511904D02*
X38828628Y-22416666D01*
X38828628Y-22416666D02*
X38828628Y-22035714D01*
X38400057Y-22988095D02*
X38352438Y-23035714D01*
X38352438Y-23035714D02*
X38304819Y-23130952D01*
X38304819Y-23130952D02*
X38304819Y-23369047D01*
X38304819Y-23369047D02*
X38352438Y-23464285D01*
X38352438Y-23464285D02*
X38400057Y-23511904D01*
X38400057Y-23511904D02*
X38495295Y-23559523D01*
X38495295Y-23559523D02*
X38590533Y-23559523D01*
X38590533Y-23559523D02*
X38733390Y-23511904D01*
X38733390Y-23511904D02*
X39304819Y-22940476D01*
X39304819Y-22940476D02*
X39304819Y-23559523D01*
X38304819Y-24416666D02*
X38304819Y-24226190D01*
X38304819Y-24226190D02*
X38352438Y-24130952D01*
X38352438Y-24130952D02*
X38400057Y-24083333D01*
X38400057Y-24083333D02*
X38542914Y-23988095D01*
X38542914Y-23988095D02*
X38733390Y-23940476D01*
X38733390Y-23940476D02*
X39114342Y-23940476D01*
X39114342Y-23940476D02*
X39209580Y-23988095D01*
X39209580Y-23988095D02*
X39257200Y-24035714D01*
X39257200Y-24035714D02*
X39304819Y-24130952D01*
X39304819Y-24130952D02*
X39304819Y-24321428D01*
X39304819Y-24321428D02*
X39257200Y-24416666D01*
X39257200Y-24416666D02*
X39209580Y-24464285D01*
X39209580Y-24464285D02*
X39114342Y-24511904D01*
X39114342Y-24511904D02*
X38876247Y-24511904D01*
X38876247Y-24511904D02*
X38781009Y-24464285D01*
X38781009Y-24464285D02*
X38733390Y-24416666D01*
X38733390Y-24416666D02*
X38685771Y-24321428D01*
X38685771Y-24321428D02*
X38685771Y-24130952D01*
X38685771Y-24130952D02*
X38733390Y-24035714D01*
X38733390Y-24035714D02*
X38781009Y-23988095D01*
X38781009Y-23988095D02*
X38876247Y-23940476D01*
X40392857Y-29604819D02*
X40726190Y-29128628D01*
X40964285Y-29604819D02*
X40964285Y-28604819D01*
X40964285Y-28604819D02*
X40583333Y-28604819D01*
X40583333Y-28604819D02*
X40488095Y-28652438D01*
X40488095Y-28652438D02*
X40440476Y-28700057D01*
X40440476Y-28700057D02*
X40392857Y-28795295D01*
X40392857Y-28795295D02*
X40392857Y-28938152D01*
X40392857Y-28938152D02*
X40440476Y-29033390D01*
X40440476Y-29033390D02*
X40488095Y-29081009D01*
X40488095Y-29081009D02*
X40583333Y-29128628D01*
X40583333Y-29128628D02*
X40964285Y-29128628D01*
X39440476Y-29604819D02*
X40011904Y-29604819D01*
X39726190Y-29604819D02*
X39726190Y-28604819D01*
X39726190Y-28604819D02*
X39821428Y-28747676D01*
X39821428Y-28747676D02*
X39916666Y-28842914D01*
X39916666Y-28842914D02*
X40011904Y-28890533D01*
X38869047Y-29033390D02*
X38964285Y-28985771D01*
X38964285Y-28985771D02*
X39011904Y-28938152D01*
X39011904Y-28938152D02*
X39059523Y-28842914D01*
X39059523Y-28842914D02*
X39059523Y-28795295D01*
X39059523Y-28795295D02*
X39011904Y-28700057D01*
X39011904Y-28700057D02*
X38964285Y-28652438D01*
X38964285Y-28652438D02*
X38869047Y-28604819D01*
X38869047Y-28604819D02*
X38678571Y-28604819D01*
X38678571Y-28604819D02*
X38583333Y-28652438D01*
X38583333Y-28652438D02*
X38535714Y-28700057D01*
X38535714Y-28700057D02*
X38488095Y-28795295D01*
X38488095Y-28795295D02*
X38488095Y-28842914D01*
X38488095Y-28842914D02*
X38535714Y-28938152D01*
X38535714Y-28938152D02*
X38583333Y-28985771D01*
X38583333Y-28985771D02*
X38678571Y-29033390D01*
X38678571Y-29033390D02*
X38869047Y-29033390D01*
X38869047Y-29033390D02*
X38964285Y-29081009D01*
X38964285Y-29081009D02*
X39011904Y-29128628D01*
X39011904Y-29128628D02*
X39059523Y-29223866D01*
X39059523Y-29223866D02*
X39059523Y-29414342D01*
X39059523Y-29414342D02*
X39011904Y-29509580D01*
X39011904Y-29509580D02*
X38964285Y-29557200D01*
X38964285Y-29557200D02*
X38869047Y-29604819D01*
X38869047Y-29604819D02*
X38678571Y-29604819D01*
X38678571Y-29604819D02*
X38583333Y-29557200D01*
X38583333Y-29557200D02*
X38535714Y-29509580D01*
X38535714Y-29509580D02*
X38488095Y-29414342D01*
X38488095Y-29414342D02*
X38488095Y-29223866D01*
X38488095Y-29223866D02*
X38535714Y-29128628D01*
X38535714Y-29128628D02*
X38583333Y-29081009D01*
X38583333Y-29081009D02*
X38678571Y-29033390D01*
X43179580Y-21833333D02*
X43227200Y-21785714D01*
X43227200Y-21785714D02*
X43274819Y-21642857D01*
X43274819Y-21642857D02*
X43274819Y-21547619D01*
X43274819Y-21547619D02*
X43227200Y-21404762D01*
X43227200Y-21404762D02*
X43131961Y-21309524D01*
X43131961Y-21309524D02*
X43036723Y-21261905D01*
X43036723Y-21261905D02*
X42846247Y-21214286D01*
X42846247Y-21214286D02*
X42703390Y-21214286D01*
X42703390Y-21214286D02*
X42512914Y-21261905D01*
X42512914Y-21261905D02*
X42417676Y-21309524D01*
X42417676Y-21309524D02*
X42322438Y-21404762D01*
X42322438Y-21404762D02*
X42274819Y-21547619D01*
X42274819Y-21547619D02*
X42274819Y-21642857D01*
X42274819Y-21642857D02*
X42322438Y-21785714D01*
X42322438Y-21785714D02*
X42370057Y-21833333D01*
X43274819Y-22309524D02*
X43274819Y-22500000D01*
X43274819Y-22500000D02*
X43227200Y-22595238D01*
X43227200Y-22595238D02*
X43179580Y-22642857D01*
X43179580Y-22642857D02*
X43036723Y-22738095D01*
X43036723Y-22738095D02*
X42846247Y-22785714D01*
X42846247Y-22785714D02*
X42465295Y-22785714D01*
X42465295Y-22785714D02*
X42370057Y-22738095D01*
X42370057Y-22738095D02*
X42322438Y-22690476D01*
X42322438Y-22690476D02*
X42274819Y-22595238D01*
X42274819Y-22595238D02*
X42274819Y-22404762D01*
X42274819Y-22404762D02*
X42322438Y-22309524D01*
X42322438Y-22309524D02*
X42370057Y-22261905D01*
X42370057Y-22261905D02*
X42465295Y-22214286D01*
X42465295Y-22214286D02*
X42703390Y-22214286D01*
X42703390Y-22214286D02*
X42798628Y-22261905D01*
X42798628Y-22261905D02*
X42846247Y-22309524D01*
X42846247Y-22309524D02*
X42893866Y-22404762D01*
X42893866Y-22404762D02*
X42893866Y-22595238D01*
X42893866Y-22595238D02*
X42846247Y-22690476D01*
X42846247Y-22690476D02*
X42798628Y-22738095D01*
X42798628Y-22738095D02*
X42703390Y-22785714D01*
X24779166Y-69314819D02*
X25112499Y-68838628D01*
X25350594Y-69314819D02*
X25350594Y-68314819D01*
X25350594Y-68314819D02*
X24969642Y-68314819D01*
X24969642Y-68314819D02*
X24874404Y-68362438D01*
X24874404Y-68362438D02*
X24826785Y-68410057D01*
X24826785Y-68410057D02*
X24779166Y-68505295D01*
X24779166Y-68505295D02*
X24779166Y-68648152D01*
X24779166Y-68648152D02*
X24826785Y-68743390D01*
X24826785Y-68743390D02*
X24874404Y-68791009D01*
X24874404Y-68791009D02*
X24969642Y-68838628D01*
X24969642Y-68838628D02*
X25350594Y-68838628D01*
X24445832Y-68314819D02*
X23779166Y-68314819D01*
X23779166Y-68314819D02*
X24207737Y-69314819D01*
X41509580Y-41857142D02*
X41557200Y-41809523D01*
X41557200Y-41809523D02*
X41604819Y-41666666D01*
X41604819Y-41666666D02*
X41604819Y-41571428D01*
X41604819Y-41571428D02*
X41557200Y-41428571D01*
X41557200Y-41428571D02*
X41461961Y-41333333D01*
X41461961Y-41333333D02*
X41366723Y-41285714D01*
X41366723Y-41285714D02*
X41176247Y-41238095D01*
X41176247Y-41238095D02*
X41033390Y-41238095D01*
X41033390Y-41238095D02*
X40842914Y-41285714D01*
X40842914Y-41285714D02*
X40747676Y-41333333D01*
X40747676Y-41333333D02*
X40652438Y-41428571D01*
X40652438Y-41428571D02*
X40604819Y-41571428D01*
X40604819Y-41571428D02*
X40604819Y-41666666D01*
X40604819Y-41666666D02*
X40652438Y-41809523D01*
X40652438Y-41809523D02*
X40700057Y-41857142D01*
X40700057Y-42238095D02*
X40652438Y-42285714D01*
X40652438Y-42285714D02*
X40604819Y-42380952D01*
X40604819Y-42380952D02*
X40604819Y-42619047D01*
X40604819Y-42619047D02*
X40652438Y-42714285D01*
X40652438Y-42714285D02*
X40700057Y-42761904D01*
X40700057Y-42761904D02*
X40795295Y-42809523D01*
X40795295Y-42809523D02*
X40890533Y-42809523D01*
X40890533Y-42809523D02*
X41033390Y-42761904D01*
X41033390Y-42761904D02*
X41604819Y-42190476D01*
X41604819Y-42190476D02*
X41604819Y-42809523D01*
X40604819Y-43714285D02*
X40604819Y-43238095D01*
X40604819Y-43238095D02*
X41081009Y-43190476D01*
X41081009Y-43190476D02*
X41033390Y-43238095D01*
X41033390Y-43238095D02*
X40985771Y-43333333D01*
X40985771Y-43333333D02*
X40985771Y-43571428D01*
X40985771Y-43571428D02*
X41033390Y-43666666D01*
X41033390Y-43666666D02*
X41081009Y-43714285D01*
X41081009Y-43714285D02*
X41176247Y-43761904D01*
X41176247Y-43761904D02*
X41414342Y-43761904D01*
X41414342Y-43761904D02*
X41509580Y-43714285D01*
X41509580Y-43714285D02*
X41557200Y-43666666D01*
X41557200Y-43666666D02*
X41604819Y-43571428D01*
X41604819Y-43571428D02*
X41604819Y-43333333D01*
X41604819Y-43333333D02*
X41557200Y-43238095D01*
X41557200Y-43238095D02*
X41509580Y-43190476D01*
X43179580Y-34107142D02*
X43227200Y-34059523D01*
X43227200Y-34059523D02*
X43274819Y-33916666D01*
X43274819Y-33916666D02*
X43274819Y-33821428D01*
X43274819Y-33821428D02*
X43227200Y-33678571D01*
X43227200Y-33678571D02*
X43131961Y-33583333D01*
X43131961Y-33583333D02*
X43036723Y-33535714D01*
X43036723Y-33535714D02*
X42846247Y-33488095D01*
X42846247Y-33488095D02*
X42703390Y-33488095D01*
X42703390Y-33488095D02*
X42512914Y-33535714D01*
X42512914Y-33535714D02*
X42417676Y-33583333D01*
X42417676Y-33583333D02*
X42322438Y-33678571D01*
X42322438Y-33678571D02*
X42274819Y-33821428D01*
X42274819Y-33821428D02*
X42274819Y-33916666D01*
X42274819Y-33916666D02*
X42322438Y-34059523D01*
X42322438Y-34059523D02*
X42370057Y-34107142D01*
X43274819Y-35059523D02*
X43274819Y-34488095D01*
X43274819Y-34773809D02*
X42274819Y-34773809D01*
X42274819Y-34773809D02*
X42417676Y-34678571D01*
X42417676Y-34678571D02*
X42512914Y-34583333D01*
X42512914Y-34583333D02*
X42560533Y-34488095D01*
X43274819Y-35535714D02*
X43274819Y-35726190D01*
X43274819Y-35726190D02*
X43227200Y-35821428D01*
X43227200Y-35821428D02*
X43179580Y-35869047D01*
X43179580Y-35869047D02*
X43036723Y-35964285D01*
X43036723Y-35964285D02*
X42846247Y-36011904D01*
X42846247Y-36011904D02*
X42465295Y-36011904D01*
X42465295Y-36011904D02*
X42370057Y-35964285D01*
X42370057Y-35964285D02*
X42322438Y-35916666D01*
X42322438Y-35916666D02*
X42274819Y-35821428D01*
X42274819Y-35821428D02*
X42274819Y-35630952D01*
X42274819Y-35630952D02*
X42322438Y-35535714D01*
X42322438Y-35535714D02*
X42370057Y-35488095D01*
X42370057Y-35488095D02*
X42465295Y-35440476D01*
X42465295Y-35440476D02*
X42703390Y-35440476D01*
X42703390Y-35440476D02*
X42798628Y-35488095D01*
X42798628Y-35488095D02*
X42846247Y-35535714D01*
X42846247Y-35535714D02*
X42893866Y-35630952D01*
X42893866Y-35630952D02*
X42893866Y-35821428D01*
X42893866Y-35821428D02*
X42846247Y-35916666D01*
X42846247Y-35916666D02*
X42798628Y-35964285D01*
X42798628Y-35964285D02*
X42703390Y-36011904D01*
X41554819Y-30357142D02*
X41078628Y-30023809D01*
X41554819Y-29785714D02*
X40554819Y-29785714D01*
X40554819Y-29785714D02*
X40554819Y-30166666D01*
X40554819Y-30166666D02*
X40602438Y-30261904D01*
X40602438Y-30261904D02*
X40650057Y-30309523D01*
X40650057Y-30309523D02*
X40745295Y-30357142D01*
X40745295Y-30357142D02*
X40888152Y-30357142D01*
X40888152Y-30357142D02*
X40983390Y-30309523D01*
X40983390Y-30309523D02*
X41031009Y-30261904D01*
X41031009Y-30261904D02*
X41078628Y-30166666D01*
X41078628Y-30166666D02*
X41078628Y-29785714D01*
X40650057Y-30738095D02*
X40602438Y-30785714D01*
X40602438Y-30785714D02*
X40554819Y-30880952D01*
X40554819Y-30880952D02*
X40554819Y-31119047D01*
X40554819Y-31119047D02*
X40602438Y-31214285D01*
X40602438Y-31214285D02*
X40650057Y-31261904D01*
X40650057Y-31261904D02*
X40745295Y-31309523D01*
X40745295Y-31309523D02*
X40840533Y-31309523D01*
X40840533Y-31309523D02*
X40983390Y-31261904D01*
X40983390Y-31261904D02*
X41554819Y-30690476D01*
X41554819Y-30690476D02*
X41554819Y-31309523D01*
X40554819Y-32214285D02*
X40554819Y-31738095D01*
X40554819Y-31738095D02*
X41031009Y-31690476D01*
X41031009Y-31690476D02*
X40983390Y-31738095D01*
X40983390Y-31738095D02*
X40935771Y-31833333D01*
X40935771Y-31833333D02*
X40935771Y-32071428D01*
X40935771Y-32071428D02*
X40983390Y-32166666D01*
X40983390Y-32166666D02*
X41031009Y-32214285D01*
X41031009Y-32214285D02*
X41126247Y-32261904D01*
X41126247Y-32261904D02*
X41364342Y-32261904D01*
X41364342Y-32261904D02*
X41459580Y-32214285D01*
X41459580Y-32214285D02*
X41507200Y-32166666D01*
X41507200Y-32166666D02*
X41554819Y-32071428D01*
X41554819Y-32071428D02*
X41554819Y-31833333D01*
X41554819Y-31833333D02*
X41507200Y-31738095D01*
X41507200Y-31738095D02*
X41459580Y-31690476D01*
X45204819Y-73761905D02*
X46014342Y-73761905D01*
X46014342Y-73761905D02*
X46109580Y-73809524D01*
X46109580Y-73809524D02*
X46157200Y-73857143D01*
X46157200Y-73857143D02*
X46204819Y-73952381D01*
X46204819Y-73952381D02*
X46204819Y-74142857D01*
X46204819Y-74142857D02*
X46157200Y-74238095D01*
X46157200Y-74238095D02*
X46109580Y-74285714D01*
X46109580Y-74285714D02*
X46014342Y-74333333D01*
X46014342Y-74333333D02*
X45204819Y-74333333D01*
X46204819Y-75333333D02*
X46204819Y-74761905D01*
X46204819Y-75047619D02*
X45204819Y-75047619D01*
X45204819Y-75047619D02*
X45347676Y-74952381D01*
X45347676Y-74952381D02*
X45442914Y-74857143D01*
X45442914Y-74857143D02*
X45490533Y-74761905D01*
X46204819Y-76285714D02*
X46204819Y-75714286D01*
X46204819Y-76000000D02*
X45204819Y-76000000D01*
X45204819Y-76000000D02*
X45347676Y-75904762D01*
X45347676Y-75904762D02*
X45442914Y-75809524D01*
X45442914Y-75809524D02*
X45490533Y-75714286D01*
X38142857Y-24354819D02*
X38476190Y-23878628D01*
X38714285Y-24354819D02*
X38714285Y-23354819D01*
X38714285Y-23354819D02*
X38333333Y-23354819D01*
X38333333Y-23354819D02*
X38238095Y-23402438D01*
X38238095Y-23402438D02*
X38190476Y-23450057D01*
X38190476Y-23450057D02*
X38142857Y-23545295D01*
X38142857Y-23545295D02*
X38142857Y-23688152D01*
X38142857Y-23688152D02*
X38190476Y-23783390D01*
X38190476Y-23783390D02*
X38238095Y-23831009D01*
X38238095Y-23831009D02*
X38333333Y-23878628D01*
X38333333Y-23878628D02*
X38714285Y-23878628D01*
X37761904Y-23450057D02*
X37714285Y-23402438D01*
X37714285Y-23402438D02*
X37619047Y-23354819D01*
X37619047Y-23354819D02*
X37380952Y-23354819D01*
X37380952Y-23354819D02*
X37285714Y-23402438D01*
X37285714Y-23402438D02*
X37238095Y-23450057D01*
X37238095Y-23450057D02*
X37190476Y-23545295D01*
X37190476Y-23545295D02*
X37190476Y-23640533D01*
X37190476Y-23640533D02*
X37238095Y-23783390D01*
X37238095Y-23783390D02*
X37809523Y-24354819D01*
X37809523Y-24354819D02*
X37190476Y-24354819D01*
X36571428Y-23354819D02*
X36476190Y-23354819D01*
X36476190Y-23354819D02*
X36380952Y-23402438D01*
X36380952Y-23402438D02*
X36333333Y-23450057D01*
X36333333Y-23450057D02*
X36285714Y-23545295D01*
X36285714Y-23545295D02*
X36238095Y-23735771D01*
X36238095Y-23735771D02*
X36238095Y-23973866D01*
X36238095Y-23973866D02*
X36285714Y-24164342D01*
X36285714Y-24164342D02*
X36333333Y-24259580D01*
X36333333Y-24259580D02*
X36380952Y-24307200D01*
X36380952Y-24307200D02*
X36476190Y-24354819D01*
X36476190Y-24354819D02*
X36571428Y-24354819D01*
X36571428Y-24354819D02*
X36666666Y-24307200D01*
X36666666Y-24307200D02*
X36714285Y-24259580D01*
X36714285Y-24259580D02*
X36761904Y-24164342D01*
X36761904Y-24164342D02*
X36809523Y-23973866D01*
X36809523Y-23973866D02*
X36809523Y-23735771D01*
X36809523Y-23735771D02*
X36761904Y-23545295D01*
X36761904Y-23545295D02*
X36714285Y-23450057D01*
X36714285Y-23450057D02*
X36666666Y-23402438D01*
X36666666Y-23402438D02*
X36571428Y-23354819D01*
X24779166Y-59534819D02*
X25112499Y-59058628D01*
X25350594Y-59534819D02*
X25350594Y-58534819D01*
X25350594Y-58534819D02*
X24969642Y-58534819D01*
X24969642Y-58534819D02*
X24874404Y-58582438D01*
X24874404Y-58582438D02*
X24826785Y-58630057D01*
X24826785Y-58630057D02*
X24779166Y-58725295D01*
X24779166Y-58725295D02*
X24779166Y-58868152D01*
X24779166Y-58868152D02*
X24826785Y-58963390D01*
X24826785Y-58963390D02*
X24874404Y-59011009D01*
X24874404Y-59011009D02*
X24969642Y-59058628D01*
X24969642Y-59058628D02*
X25350594Y-59058628D01*
X24302975Y-59534819D02*
X24112499Y-59534819D01*
X24112499Y-59534819D02*
X24017261Y-59487200D01*
X24017261Y-59487200D02*
X23969642Y-59439580D01*
X23969642Y-59439580D02*
X23874404Y-59296723D01*
X23874404Y-59296723D02*
X23826785Y-59106247D01*
X23826785Y-59106247D02*
X23826785Y-58725295D01*
X23826785Y-58725295D02*
X23874404Y-58630057D01*
X23874404Y-58630057D02*
X23922023Y-58582438D01*
X23922023Y-58582438D02*
X24017261Y-58534819D01*
X24017261Y-58534819D02*
X24207737Y-58534819D01*
X24207737Y-58534819D02*
X24302975Y-58582438D01*
X24302975Y-58582438D02*
X24350594Y-58630057D01*
X24350594Y-58630057D02*
X24398213Y-58725295D01*
X24398213Y-58725295D02*
X24398213Y-58963390D01*
X24398213Y-58963390D02*
X24350594Y-59058628D01*
X24350594Y-59058628D02*
X24302975Y-59106247D01*
X24302975Y-59106247D02*
X24207737Y-59153866D01*
X24207737Y-59153866D02*
X24017261Y-59153866D01*
X24017261Y-59153866D02*
X23922023Y-59106247D01*
X23922023Y-59106247D02*
X23874404Y-59058628D01*
X23874404Y-59058628D02*
X23826785Y-58963390D01*
X37166666Y-44604819D02*
X37499999Y-44128628D01*
X37738094Y-44604819D02*
X37738094Y-43604819D01*
X37738094Y-43604819D02*
X37357142Y-43604819D01*
X37357142Y-43604819D02*
X37261904Y-43652438D01*
X37261904Y-43652438D02*
X37214285Y-43700057D01*
X37214285Y-43700057D02*
X37166666Y-43795295D01*
X37166666Y-43795295D02*
X37166666Y-43938152D01*
X37166666Y-43938152D02*
X37214285Y-44033390D01*
X37214285Y-44033390D02*
X37261904Y-44081009D01*
X37261904Y-44081009D02*
X37357142Y-44128628D01*
X37357142Y-44128628D02*
X37738094Y-44128628D01*
X36214285Y-44604819D02*
X36785713Y-44604819D01*
X36499999Y-44604819D02*
X36499999Y-43604819D01*
X36499999Y-43604819D02*
X36595237Y-43747676D01*
X36595237Y-43747676D02*
X36690475Y-43842914D01*
X36690475Y-43842914D02*
X36785713Y-43890533D01*
X44142857Y-39854819D02*
X44476190Y-39378628D01*
X44714285Y-39854819D02*
X44714285Y-38854819D01*
X44714285Y-38854819D02*
X44333333Y-38854819D01*
X44333333Y-38854819D02*
X44238095Y-38902438D01*
X44238095Y-38902438D02*
X44190476Y-38950057D01*
X44190476Y-38950057D02*
X44142857Y-39045295D01*
X44142857Y-39045295D02*
X44142857Y-39188152D01*
X44142857Y-39188152D02*
X44190476Y-39283390D01*
X44190476Y-39283390D02*
X44238095Y-39331009D01*
X44238095Y-39331009D02*
X44333333Y-39378628D01*
X44333333Y-39378628D02*
X44714285Y-39378628D01*
X43761904Y-38950057D02*
X43714285Y-38902438D01*
X43714285Y-38902438D02*
X43619047Y-38854819D01*
X43619047Y-38854819D02*
X43380952Y-38854819D01*
X43380952Y-38854819D02*
X43285714Y-38902438D01*
X43285714Y-38902438D02*
X43238095Y-38950057D01*
X43238095Y-38950057D02*
X43190476Y-39045295D01*
X43190476Y-39045295D02*
X43190476Y-39140533D01*
X43190476Y-39140533D02*
X43238095Y-39283390D01*
X43238095Y-39283390D02*
X43809523Y-39854819D01*
X43809523Y-39854819D02*
X43190476Y-39854819D01*
X42619047Y-39283390D02*
X42714285Y-39235771D01*
X42714285Y-39235771D02*
X42761904Y-39188152D01*
X42761904Y-39188152D02*
X42809523Y-39092914D01*
X42809523Y-39092914D02*
X42809523Y-39045295D01*
X42809523Y-39045295D02*
X42761904Y-38950057D01*
X42761904Y-38950057D02*
X42714285Y-38902438D01*
X42714285Y-38902438D02*
X42619047Y-38854819D01*
X42619047Y-38854819D02*
X42428571Y-38854819D01*
X42428571Y-38854819D02*
X42333333Y-38902438D01*
X42333333Y-38902438D02*
X42285714Y-38950057D01*
X42285714Y-38950057D02*
X42238095Y-39045295D01*
X42238095Y-39045295D02*
X42238095Y-39092914D01*
X42238095Y-39092914D02*
X42285714Y-39188152D01*
X42285714Y-39188152D02*
X42333333Y-39235771D01*
X42333333Y-39235771D02*
X42428571Y-39283390D01*
X42428571Y-39283390D02*
X42619047Y-39283390D01*
X42619047Y-39283390D02*
X42714285Y-39331009D01*
X42714285Y-39331009D02*
X42761904Y-39378628D01*
X42761904Y-39378628D02*
X42809523Y-39473866D01*
X42809523Y-39473866D02*
X42809523Y-39664342D01*
X42809523Y-39664342D02*
X42761904Y-39759580D01*
X42761904Y-39759580D02*
X42714285Y-39807200D01*
X42714285Y-39807200D02*
X42619047Y-39854819D01*
X42619047Y-39854819D02*
X42428571Y-39854819D01*
X42428571Y-39854819D02*
X42333333Y-39807200D01*
X42333333Y-39807200D02*
X42285714Y-39759580D01*
X42285714Y-39759580D02*
X42238095Y-39664342D01*
X42238095Y-39664342D02*
X42238095Y-39473866D01*
X42238095Y-39473866D02*
X42285714Y-39378628D01*
X42285714Y-39378628D02*
X42333333Y-39331009D01*
X42333333Y-39331009D02*
X42428571Y-39283390D01*
X35304819Y-36357142D02*
X34828628Y-36023809D01*
X35304819Y-35785714D02*
X34304819Y-35785714D01*
X34304819Y-35785714D02*
X34304819Y-36166666D01*
X34304819Y-36166666D02*
X34352438Y-36261904D01*
X34352438Y-36261904D02*
X34400057Y-36309523D01*
X34400057Y-36309523D02*
X34495295Y-36357142D01*
X34495295Y-36357142D02*
X34638152Y-36357142D01*
X34638152Y-36357142D02*
X34733390Y-36309523D01*
X34733390Y-36309523D02*
X34781009Y-36261904D01*
X34781009Y-36261904D02*
X34828628Y-36166666D01*
X34828628Y-36166666D02*
X34828628Y-35785714D01*
X35304819Y-37309523D02*
X35304819Y-36738095D01*
X35304819Y-37023809D02*
X34304819Y-37023809D01*
X34304819Y-37023809D02*
X34447676Y-36928571D01*
X34447676Y-36928571D02*
X34542914Y-36833333D01*
X34542914Y-36833333D02*
X34590533Y-36738095D01*
X34304819Y-38166666D02*
X34304819Y-37976190D01*
X34304819Y-37976190D02*
X34352438Y-37880952D01*
X34352438Y-37880952D02*
X34400057Y-37833333D01*
X34400057Y-37833333D02*
X34542914Y-37738095D01*
X34542914Y-37738095D02*
X34733390Y-37690476D01*
X34733390Y-37690476D02*
X35114342Y-37690476D01*
X35114342Y-37690476D02*
X35209580Y-37738095D01*
X35209580Y-37738095D02*
X35257200Y-37785714D01*
X35257200Y-37785714D02*
X35304819Y-37880952D01*
X35304819Y-37880952D02*
X35304819Y-38071428D01*
X35304819Y-38071428D02*
X35257200Y-38166666D01*
X35257200Y-38166666D02*
X35209580Y-38214285D01*
X35209580Y-38214285D02*
X35114342Y-38261904D01*
X35114342Y-38261904D02*
X34876247Y-38261904D01*
X34876247Y-38261904D02*
X34781009Y-38214285D01*
X34781009Y-38214285D02*
X34733390Y-38166666D01*
X34733390Y-38166666D02*
X34685771Y-38071428D01*
X34685771Y-38071428D02*
X34685771Y-37880952D01*
X34685771Y-37880952D02*
X34733390Y-37785714D01*
X34733390Y-37785714D02*
X34781009Y-37738095D01*
X34781009Y-37738095D02*
X34876247Y-37690476D01*
X37554819Y-36357142D02*
X37078628Y-36023809D01*
X37554819Y-35785714D02*
X36554819Y-35785714D01*
X36554819Y-35785714D02*
X36554819Y-36166666D01*
X36554819Y-36166666D02*
X36602438Y-36261904D01*
X36602438Y-36261904D02*
X36650057Y-36309523D01*
X36650057Y-36309523D02*
X36745295Y-36357142D01*
X36745295Y-36357142D02*
X36888152Y-36357142D01*
X36888152Y-36357142D02*
X36983390Y-36309523D01*
X36983390Y-36309523D02*
X37031009Y-36261904D01*
X37031009Y-36261904D02*
X37078628Y-36166666D01*
X37078628Y-36166666D02*
X37078628Y-35785714D01*
X37554819Y-37309523D02*
X37554819Y-36738095D01*
X37554819Y-37023809D02*
X36554819Y-37023809D01*
X36554819Y-37023809D02*
X36697676Y-36928571D01*
X36697676Y-36928571D02*
X36792914Y-36833333D01*
X36792914Y-36833333D02*
X36840533Y-36738095D01*
X36554819Y-37642857D02*
X36554819Y-38261904D01*
X36554819Y-38261904D02*
X36935771Y-37928571D01*
X36935771Y-37928571D02*
X36935771Y-38071428D01*
X36935771Y-38071428D02*
X36983390Y-38166666D01*
X36983390Y-38166666D02*
X37031009Y-38214285D01*
X37031009Y-38214285D02*
X37126247Y-38261904D01*
X37126247Y-38261904D02*
X37364342Y-38261904D01*
X37364342Y-38261904D02*
X37459580Y-38214285D01*
X37459580Y-38214285D02*
X37507200Y-38166666D01*
X37507200Y-38166666D02*
X37554819Y-38071428D01*
X37554819Y-38071428D02*
X37554819Y-37785714D01*
X37554819Y-37785714D02*
X37507200Y-37690476D01*
X37507200Y-37690476D02*
X37459580Y-37642857D01*
X35304819Y-25857142D02*
X34828628Y-25523809D01*
X35304819Y-25285714D02*
X34304819Y-25285714D01*
X34304819Y-25285714D02*
X34304819Y-25666666D01*
X34304819Y-25666666D02*
X34352438Y-25761904D01*
X34352438Y-25761904D02*
X34400057Y-25809523D01*
X34400057Y-25809523D02*
X34495295Y-25857142D01*
X34495295Y-25857142D02*
X34638152Y-25857142D01*
X34638152Y-25857142D02*
X34733390Y-25809523D01*
X34733390Y-25809523D02*
X34781009Y-25761904D01*
X34781009Y-25761904D02*
X34828628Y-25666666D01*
X34828628Y-25666666D02*
X34828628Y-25285714D01*
X35304819Y-26809523D02*
X35304819Y-26238095D01*
X35304819Y-26523809D02*
X34304819Y-26523809D01*
X34304819Y-26523809D02*
X34447676Y-26428571D01*
X34447676Y-26428571D02*
X34542914Y-26333333D01*
X34542914Y-26333333D02*
X34590533Y-26238095D01*
X35304819Y-27285714D02*
X35304819Y-27476190D01*
X35304819Y-27476190D02*
X35257200Y-27571428D01*
X35257200Y-27571428D02*
X35209580Y-27619047D01*
X35209580Y-27619047D02*
X35066723Y-27714285D01*
X35066723Y-27714285D02*
X34876247Y-27761904D01*
X34876247Y-27761904D02*
X34495295Y-27761904D01*
X34495295Y-27761904D02*
X34400057Y-27714285D01*
X34400057Y-27714285D02*
X34352438Y-27666666D01*
X34352438Y-27666666D02*
X34304819Y-27571428D01*
X34304819Y-27571428D02*
X34304819Y-27380952D01*
X34304819Y-27380952D02*
X34352438Y-27285714D01*
X34352438Y-27285714D02*
X34400057Y-27238095D01*
X34400057Y-27238095D02*
X34495295Y-27190476D01*
X34495295Y-27190476D02*
X34733390Y-27190476D01*
X34733390Y-27190476D02*
X34828628Y-27238095D01*
X34828628Y-27238095D02*
X34876247Y-27285714D01*
X34876247Y-27285714D02*
X34923866Y-27380952D01*
X34923866Y-27380952D02*
X34923866Y-27571428D01*
X34923866Y-27571428D02*
X34876247Y-27666666D01*
X34876247Y-27666666D02*
X34828628Y-27714285D01*
X34828628Y-27714285D02*
X34733390Y-27761904D01*
X44009580Y-41857142D02*
X44057200Y-41809523D01*
X44057200Y-41809523D02*
X44104819Y-41666666D01*
X44104819Y-41666666D02*
X44104819Y-41571428D01*
X44104819Y-41571428D02*
X44057200Y-41428571D01*
X44057200Y-41428571D02*
X43961961Y-41333333D01*
X43961961Y-41333333D02*
X43866723Y-41285714D01*
X43866723Y-41285714D02*
X43676247Y-41238095D01*
X43676247Y-41238095D02*
X43533390Y-41238095D01*
X43533390Y-41238095D02*
X43342914Y-41285714D01*
X43342914Y-41285714D02*
X43247676Y-41333333D01*
X43247676Y-41333333D02*
X43152438Y-41428571D01*
X43152438Y-41428571D02*
X43104819Y-41571428D01*
X43104819Y-41571428D02*
X43104819Y-41666666D01*
X43104819Y-41666666D02*
X43152438Y-41809523D01*
X43152438Y-41809523D02*
X43200057Y-41857142D01*
X43200057Y-42238095D02*
X43152438Y-42285714D01*
X43152438Y-42285714D02*
X43104819Y-42380952D01*
X43104819Y-42380952D02*
X43104819Y-42619047D01*
X43104819Y-42619047D02*
X43152438Y-42714285D01*
X43152438Y-42714285D02*
X43200057Y-42761904D01*
X43200057Y-42761904D02*
X43295295Y-42809523D01*
X43295295Y-42809523D02*
X43390533Y-42809523D01*
X43390533Y-42809523D02*
X43533390Y-42761904D01*
X43533390Y-42761904D02*
X44104819Y-42190476D01*
X44104819Y-42190476D02*
X44104819Y-42809523D01*
X43104819Y-43142857D02*
X43104819Y-43761904D01*
X43104819Y-43761904D02*
X43485771Y-43428571D01*
X43485771Y-43428571D02*
X43485771Y-43571428D01*
X43485771Y-43571428D02*
X43533390Y-43666666D01*
X43533390Y-43666666D02*
X43581009Y-43714285D01*
X43581009Y-43714285D02*
X43676247Y-43761904D01*
X43676247Y-43761904D02*
X43914342Y-43761904D01*
X43914342Y-43761904D02*
X44009580Y-43714285D01*
X44009580Y-43714285D02*
X44057200Y-43666666D01*
X44057200Y-43666666D02*
X44104819Y-43571428D01*
X44104819Y-43571428D02*
X44104819Y-43285714D01*
X44104819Y-43285714D02*
X44057200Y-43190476D01*
X44057200Y-43190476D02*
X44009580Y-43142857D01*
X25255357Y-49754819D02*
X25588690Y-49278628D01*
X25826785Y-49754819D02*
X25826785Y-48754819D01*
X25826785Y-48754819D02*
X25445833Y-48754819D01*
X25445833Y-48754819D02*
X25350595Y-48802438D01*
X25350595Y-48802438D02*
X25302976Y-48850057D01*
X25302976Y-48850057D02*
X25255357Y-48945295D01*
X25255357Y-48945295D02*
X25255357Y-49088152D01*
X25255357Y-49088152D02*
X25302976Y-49183390D01*
X25302976Y-49183390D02*
X25350595Y-49231009D01*
X25350595Y-49231009D02*
X25445833Y-49278628D01*
X25445833Y-49278628D02*
X25826785Y-49278628D01*
X24302976Y-49754819D02*
X24874404Y-49754819D01*
X24588690Y-49754819D02*
X24588690Y-48754819D01*
X24588690Y-48754819D02*
X24683928Y-48897676D01*
X24683928Y-48897676D02*
X24779166Y-48992914D01*
X24779166Y-48992914D02*
X24874404Y-49040533D01*
X23350595Y-49754819D02*
X23922023Y-49754819D01*
X23636309Y-49754819D02*
X23636309Y-48754819D01*
X23636309Y-48754819D02*
X23731547Y-48897676D01*
X23731547Y-48897676D02*
X23826785Y-48992914D01*
X23826785Y-48992914D02*
X23922023Y-49040533D01*
X39554819Y-32357142D02*
X39078628Y-32023809D01*
X39554819Y-31785714D02*
X38554819Y-31785714D01*
X38554819Y-31785714D02*
X38554819Y-32166666D01*
X38554819Y-32166666D02*
X38602438Y-32261904D01*
X38602438Y-32261904D02*
X38650057Y-32309523D01*
X38650057Y-32309523D02*
X38745295Y-32357142D01*
X38745295Y-32357142D02*
X38888152Y-32357142D01*
X38888152Y-32357142D02*
X38983390Y-32309523D01*
X38983390Y-32309523D02*
X39031009Y-32261904D01*
X39031009Y-32261904D02*
X39078628Y-32166666D01*
X39078628Y-32166666D02*
X39078628Y-31785714D01*
X39554819Y-33309523D02*
X39554819Y-32738095D01*
X39554819Y-33023809D02*
X38554819Y-33023809D01*
X38554819Y-33023809D02*
X38697676Y-32928571D01*
X38697676Y-32928571D02*
X38792914Y-32833333D01*
X38792914Y-32833333D02*
X38840533Y-32738095D01*
X38888152Y-34166666D02*
X39554819Y-34166666D01*
X38507200Y-33928571D02*
X39221485Y-33690476D01*
X39221485Y-33690476D02*
X39221485Y-34309523D01*
X40392857Y-32104819D02*
X40726190Y-31628628D01*
X40964285Y-32104819D02*
X40964285Y-31104819D01*
X40964285Y-31104819D02*
X40583333Y-31104819D01*
X40583333Y-31104819D02*
X40488095Y-31152438D01*
X40488095Y-31152438D02*
X40440476Y-31200057D01*
X40440476Y-31200057D02*
X40392857Y-31295295D01*
X40392857Y-31295295D02*
X40392857Y-31438152D01*
X40392857Y-31438152D02*
X40440476Y-31533390D01*
X40440476Y-31533390D02*
X40488095Y-31581009D01*
X40488095Y-31581009D02*
X40583333Y-31628628D01*
X40583333Y-31628628D02*
X40964285Y-31628628D01*
X39440476Y-32104819D02*
X40011904Y-32104819D01*
X39726190Y-32104819D02*
X39726190Y-31104819D01*
X39726190Y-31104819D02*
X39821428Y-31247676D01*
X39821428Y-31247676D02*
X39916666Y-31342914D01*
X39916666Y-31342914D02*
X40011904Y-31390533D01*
X39107142Y-31104819D02*
X38440476Y-31104819D01*
X38440476Y-31104819D02*
X38869047Y-32104819D01*
X24779166Y-64424819D02*
X25112499Y-63948628D01*
X25350594Y-64424819D02*
X25350594Y-63424819D01*
X25350594Y-63424819D02*
X24969642Y-63424819D01*
X24969642Y-63424819D02*
X24874404Y-63472438D01*
X24874404Y-63472438D02*
X24826785Y-63520057D01*
X24826785Y-63520057D02*
X24779166Y-63615295D01*
X24779166Y-63615295D02*
X24779166Y-63758152D01*
X24779166Y-63758152D02*
X24826785Y-63853390D01*
X24826785Y-63853390D02*
X24874404Y-63901009D01*
X24874404Y-63901009D02*
X24969642Y-63948628D01*
X24969642Y-63948628D02*
X25350594Y-63948628D01*
X24207737Y-63853390D02*
X24302975Y-63805771D01*
X24302975Y-63805771D02*
X24350594Y-63758152D01*
X24350594Y-63758152D02*
X24398213Y-63662914D01*
X24398213Y-63662914D02*
X24398213Y-63615295D01*
X24398213Y-63615295D02*
X24350594Y-63520057D01*
X24350594Y-63520057D02*
X24302975Y-63472438D01*
X24302975Y-63472438D02*
X24207737Y-63424819D01*
X24207737Y-63424819D02*
X24017261Y-63424819D01*
X24017261Y-63424819D02*
X23922023Y-63472438D01*
X23922023Y-63472438D02*
X23874404Y-63520057D01*
X23874404Y-63520057D02*
X23826785Y-63615295D01*
X23826785Y-63615295D02*
X23826785Y-63662914D01*
X23826785Y-63662914D02*
X23874404Y-63758152D01*
X23874404Y-63758152D02*
X23922023Y-63805771D01*
X23922023Y-63805771D02*
X24017261Y-63853390D01*
X24017261Y-63853390D02*
X24207737Y-63853390D01*
X24207737Y-63853390D02*
X24302975Y-63901009D01*
X24302975Y-63901009D02*
X24350594Y-63948628D01*
X24350594Y-63948628D02*
X24398213Y-64043866D01*
X24398213Y-64043866D02*
X24398213Y-64234342D01*
X24398213Y-64234342D02*
X24350594Y-64329580D01*
X24350594Y-64329580D02*
X24302975Y-64377200D01*
X24302975Y-64377200D02*
X24207737Y-64424819D01*
X24207737Y-64424819D02*
X24017261Y-64424819D01*
X24017261Y-64424819D02*
X23922023Y-64377200D01*
X23922023Y-64377200D02*
X23874404Y-64329580D01*
X23874404Y-64329580D02*
X23826785Y-64234342D01*
X23826785Y-64234342D02*
X23826785Y-64043866D01*
X23826785Y-64043866D02*
X23874404Y-63948628D01*
X23874404Y-63948628D02*
X23922023Y-63901009D01*
X23922023Y-63901009D02*
X24017261Y-63853390D01*
X37166666Y-38679580D02*
X37214285Y-38727200D01*
X37214285Y-38727200D02*
X37357142Y-38774819D01*
X37357142Y-38774819D02*
X37452380Y-38774819D01*
X37452380Y-38774819D02*
X37595237Y-38727200D01*
X37595237Y-38727200D02*
X37690475Y-38631961D01*
X37690475Y-38631961D02*
X37738094Y-38536723D01*
X37738094Y-38536723D02*
X37785713Y-38346247D01*
X37785713Y-38346247D02*
X37785713Y-38203390D01*
X37785713Y-38203390D02*
X37738094Y-38012914D01*
X37738094Y-38012914D02*
X37690475Y-37917676D01*
X37690475Y-37917676D02*
X37595237Y-37822438D01*
X37595237Y-37822438D02*
X37452380Y-37774819D01*
X37452380Y-37774819D02*
X37357142Y-37774819D01*
X37357142Y-37774819D02*
X37214285Y-37822438D01*
X37214285Y-37822438D02*
X37166666Y-37870057D01*
X36214285Y-38774819D02*
X36785713Y-38774819D01*
X36499999Y-38774819D02*
X36499999Y-37774819D01*
X36499999Y-37774819D02*
X36595237Y-37917676D01*
X36595237Y-37917676D02*
X36690475Y-38012914D01*
X36690475Y-38012914D02*
X36785713Y-38060533D01*
X25255357Y-54644819D02*
X25588690Y-54168628D01*
X25826785Y-54644819D02*
X25826785Y-53644819D01*
X25826785Y-53644819D02*
X25445833Y-53644819D01*
X25445833Y-53644819D02*
X25350595Y-53692438D01*
X25350595Y-53692438D02*
X25302976Y-53740057D01*
X25302976Y-53740057D02*
X25255357Y-53835295D01*
X25255357Y-53835295D02*
X25255357Y-53978152D01*
X25255357Y-53978152D02*
X25302976Y-54073390D01*
X25302976Y-54073390D02*
X25350595Y-54121009D01*
X25350595Y-54121009D02*
X25445833Y-54168628D01*
X25445833Y-54168628D02*
X25826785Y-54168628D01*
X24302976Y-54644819D02*
X24874404Y-54644819D01*
X24588690Y-54644819D02*
X24588690Y-53644819D01*
X24588690Y-53644819D02*
X24683928Y-53787676D01*
X24683928Y-53787676D02*
X24779166Y-53882914D01*
X24779166Y-53882914D02*
X24874404Y-53930533D01*
X23683928Y-53644819D02*
X23588690Y-53644819D01*
X23588690Y-53644819D02*
X23493452Y-53692438D01*
X23493452Y-53692438D02*
X23445833Y-53740057D01*
X23445833Y-53740057D02*
X23398214Y-53835295D01*
X23398214Y-53835295D02*
X23350595Y-54025771D01*
X23350595Y-54025771D02*
X23350595Y-54263866D01*
X23350595Y-54263866D02*
X23398214Y-54454342D01*
X23398214Y-54454342D02*
X23445833Y-54549580D01*
X23445833Y-54549580D02*
X23493452Y-54597200D01*
X23493452Y-54597200D02*
X23588690Y-54644819D01*
X23588690Y-54644819D02*
X23683928Y-54644819D01*
X23683928Y-54644819D02*
X23779166Y-54597200D01*
X23779166Y-54597200D02*
X23826785Y-54549580D01*
X23826785Y-54549580D02*
X23874404Y-54454342D01*
X23874404Y-54454342D02*
X23922023Y-54263866D01*
X23922023Y-54263866D02*
X23922023Y-54025771D01*
X23922023Y-54025771D02*
X23874404Y-53835295D01*
X23874404Y-53835295D02*
X23826785Y-53740057D01*
X23826785Y-53740057D02*
X23779166Y-53692438D01*
X23779166Y-53692438D02*
X23683928Y-53644819D01*
X40209580Y-47607142D02*
X40257200Y-47559523D01*
X40257200Y-47559523D02*
X40304819Y-47416666D01*
X40304819Y-47416666D02*
X40304819Y-47321428D01*
X40304819Y-47321428D02*
X40257200Y-47178571D01*
X40257200Y-47178571D02*
X40161961Y-47083333D01*
X40161961Y-47083333D02*
X40066723Y-47035714D01*
X40066723Y-47035714D02*
X39876247Y-46988095D01*
X39876247Y-46988095D02*
X39733390Y-46988095D01*
X39733390Y-46988095D02*
X39542914Y-47035714D01*
X39542914Y-47035714D02*
X39447676Y-47083333D01*
X39447676Y-47083333D02*
X39352438Y-47178571D01*
X39352438Y-47178571D02*
X39304819Y-47321428D01*
X39304819Y-47321428D02*
X39304819Y-47416666D01*
X39304819Y-47416666D02*
X39352438Y-47559523D01*
X39352438Y-47559523D02*
X39400057Y-47607142D01*
X39400057Y-47988095D02*
X39352438Y-48035714D01*
X39352438Y-48035714D02*
X39304819Y-48130952D01*
X39304819Y-48130952D02*
X39304819Y-48369047D01*
X39304819Y-48369047D02*
X39352438Y-48464285D01*
X39352438Y-48464285D02*
X39400057Y-48511904D01*
X39400057Y-48511904D02*
X39495295Y-48559523D01*
X39495295Y-48559523D02*
X39590533Y-48559523D01*
X39590533Y-48559523D02*
X39733390Y-48511904D01*
X39733390Y-48511904D02*
X40304819Y-47940476D01*
X40304819Y-47940476D02*
X40304819Y-48559523D01*
X39638152Y-49416666D02*
X40304819Y-49416666D01*
X39257200Y-49178571D02*
X39971485Y-48940476D01*
X39971485Y-48940476D02*
X39971485Y-49559523D01*
X37554819Y-32357142D02*
X37078628Y-32023809D01*
X37554819Y-31785714D02*
X36554819Y-31785714D01*
X36554819Y-31785714D02*
X36554819Y-32166666D01*
X36554819Y-32166666D02*
X36602438Y-32261904D01*
X36602438Y-32261904D02*
X36650057Y-32309523D01*
X36650057Y-32309523D02*
X36745295Y-32357142D01*
X36745295Y-32357142D02*
X36888152Y-32357142D01*
X36888152Y-32357142D02*
X36983390Y-32309523D01*
X36983390Y-32309523D02*
X37031009Y-32261904D01*
X37031009Y-32261904D02*
X37078628Y-32166666D01*
X37078628Y-32166666D02*
X37078628Y-31785714D01*
X37554819Y-33309523D02*
X37554819Y-32738095D01*
X37554819Y-33023809D02*
X36554819Y-33023809D01*
X36554819Y-33023809D02*
X36697676Y-32928571D01*
X36697676Y-32928571D02*
X36792914Y-32833333D01*
X36792914Y-32833333D02*
X36840533Y-32738095D01*
X36554819Y-34214285D02*
X36554819Y-33738095D01*
X36554819Y-33738095D02*
X37031009Y-33690476D01*
X37031009Y-33690476D02*
X36983390Y-33738095D01*
X36983390Y-33738095D02*
X36935771Y-33833333D01*
X36935771Y-33833333D02*
X36935771Y-34071428D01*
X36935771Y-34071428D02*
X36983390Y-34166666D01*
X36983390Y-34166666D02*
X37031009Y-34214285D01*
X37031009Y-34214285D02*
X37126247Y-34261904D01*
X37126247Y-34261904D02*
X37364342Y-34261904D01*
X37364342Y-34261904D02*
X37459580Y-34214285D01*
X37459580Y-34214285D02*
X37507200Y-34166666D01*
X37507200Y-34166666D02*
X37554819Y-34071428D01*
X37554819Y-34071428D02*
X37554819Y-33833333D01*
X37554819Y-33833333D02*
X37507200Y-33738095D01*
X37507200Y-33738095D02*
X37459580Y-33690476D01*
X49166666Y-74039580D02*
X49214285Y-74087200D01*
X49214285Y-74087200D02*
X49357142Y-74134819D01*
X49357142Y-74134819D02*
X49452380Y-74134819D01*
X49452380Y-74134819D02*
X49595237Y-74087200D01*
X49595237Y-74087200D02*
X49690475Y-73991961D01*
X49690475Y-73991961D02*
X49738094Y-73896723D01*
X49738094Y-73896723D02*
X49785713Y-73706247D01*
X49785713Y-73706247D02*
X49785713Y-73563390D01*
X49785713Y-73563390D02*
X49738094Y-73372914D01*
X49738094Y-73372914D02*
X49690475Y-73277676D01*
X49690475Y-73277676D02*
X49595237Y-73182438D01*
X49595237Y-73182438D02*
X49452380Y-73134819D01*
X49452380Y-73134819D02*
X49357142Y-73134819D01*
X49357142Y-73134819D02*
X49214285Y-73182438D01*
X49214285Y-73182438D02*
X49166666Y-73230057D01*
X48309523Y-73468152D02*
X48309523Y-74134819D01*
X48547618Y-73087200D02*
X48785713Y-73801485D01*
X48785713Y-73801485D02*
X48166666Y-73801485D01*
X49416666Y-76789580D02*
X49464285Y-76837200D01*
X49464285Y-76837200D02*
X49607142Y-76884819D01*
X49607142Y-76884819D02*
X49702380Y-76884819D01*
X49702380Y-76884819D02*
X49845237Y-76837200D01*
X49845237Y-76837200D02*
X49940475Y-76741961D01*
X49940475Y-76741961D02*
X49988094Y-76646723D01*
X49988094Y-76646723D02*
X50035713Y-76456247D01*
X50035713Y-76456247D02*
X50035713Y-76313390D01*
X50035713Y-76313390D02*
X49988094Y-76122914D01*
X49988094Y-76122914D02*
X49940475Y-76027676D01*
X49940475Y-76027676D02*
X49845237Y-75932438D01*
X49845237Y-75932438D02*
X49702380Y-75884819D01*
X49702380Y-75884819D02*
X49607142Y-75884819D01*
X49607142Y-75884819D02*
X49464285Y-75932438D01*
X49464285Y-75932438D02*
X49416666Y-75980057D01*
X48511904Y-75884819D02*
X48988094Y-75884819D01*
X48988094Y-75884819D02*
X49035713Y-76361009D01*
X49035713Y-76361009D02*
X48988094Y-76313390D01*
X48988094Y-76313390D02*
X48892856Y-76265771D01*
X48892856Y-76265771D02*
X48654761Y-76265771D01*
X48654761Y-76265771D02*
X48559523Y-76313390D01*
X48559523Y-76313390D02*
X48511904Y-76361009D01*
X48511904Y-76361009D02*
X48464285Y-76456247D01*
X48464285Y-76456247D02*
X48464285Y-76694342D01*
X48464285Y-76694342D02*
X48511904Y-76789580D01*
X48511904Y-76789580D02*
X48559523Y-76837200D01*
X48559523Y-76837200D02*
X48654761Y-76884819D01*
X48654761Y-76884819D02*
X48892856Y-76884819D01*
X48892856Y-76884819D02*
X48988094Y-76837200D01*
X48988094Y-76837200D02*
X49035713Y-76789580D01*
D11*
%TO.C,R12*%
X36772936Y-43765000D02*
X37227064Y-43765000D01*
X36772936Y-45235000D02*
X37227064Y-45235000D01*
%TO.C,C14*%
X51888748Y-63440000D02*
X53311252Y-63440000D01*
X51888748Y-65260000D02*
X53311252Y-65260000D01*
%TO.C,C20*%
X57261252Y-42235000D02*
X56738748Y-42235000D01*
X57261252Y-40765000D02*
X56738748Y-40765000D01*
%TO.C,C22*%
X44340000Y-48711252D02*
X44340000Y-47288748D01*
X46160000Y-48711252D02*
X46160000Y-47288748D01*
%TO.C,C12*%
X54988748Y-78015000D02*
X55511252Y-78015000D01*
X54988748Y-79485000D02*
X55511252Y-79485000D01*
D12*
%TO.C,U3*%
X47575700Y-26850400D02*
X55424300Y-26850400D01*
X47575700Y-27562414D02*
X47575700Y-26850400D01*
X47575700Y-33149600D02*
X47575700Y-32437586D01*
X55424300Y-26850400D02*
X55424300Y-27562414D01*
X55424300Y-32437586D02*
X55424300Y-33149600D01*
X55424300Y-33149600D02*
X47575700Y-33149600D01*
D11*
%TO.C,U5*%
X51975000Y-53815000D02*
X50025000Y-53815000D01*
X51975000Y-53815000D02*
X53925000Y-53815000D01*
X51975000Y-62685000D02*
X48525000Y-62685000D01*
X51975000Y-62685000D02*
X53925000Y-62685000D01*
D12*
%TO.C,U4*%
X47575700Y-19850400D02*
X55424300Y-19850400D01*
X47575700Y-20562414D02*
X47575700Y-19850400D01*
X47575700Y-26149600D02*
X47575700Y-25437586D01*
X55424300Y-19850400D02*
X55424300Y-20562414D01*
X55424300Y-25437586D02*
X55424300Y-26149600D01*
X55424300Y-26149600D02*
X47575700Y-26149600D01*
%TO.C,U7*%
X47575700Y-33850400D02*
X55424300Y-33850400D01*
X47575700Y-34562414D02*
X47575700Y-33850400D01*
X47575700Y-40149600D02*
X47575700Y-39437586D01*
X55424300Y-33850400D02*
X55424300Y-34562414D01*
X55424300Y-39437586D02*
X55424300Y-40149600D01*
X55424300Y-40149600D02*
X47575700Y-40149600D01*
D11*
%TO.C,R26*%
X41235000Y-23022936D02*
X41235000Y-23477064D01*
X39765000Y-23022936D02*
X39765000Y-23477064D01*
%TO.C,R18*%
X39522936Y-26765000D02*
X39977064Y-26765000D01*
X39522936Y-28235000D02*
X39977064Y-28235000D01*
%TO.C,C9*%
X45235000Y-21738748D02*
X45235000Y-22261252D01*
X43765000Y-21738748D02*
X43765000Y-22261252D01*
%TO.C,R7*%
X22435436Y-64530000D02*
X26789564Y-64530000D01*
X22435436Y-67950000D02*
X26789564Y-67950000D01*
%TO.C,C25*%
X43910000Y-41788748D02*
X43910000Y-43211252D01*
X42090000Y-41788748D02*
X42090000Y-43211252D01*
%TO.C,C19*%
X45235000Y-34488748D02*
X45235000Y-35011252D01*
X43765000Y-34488748D02*
X43765000Y-35011252D01*
%TO.C,R25*%
X43485000Y-30772936D02*
X43485000Y-31227064D01*
X42015000Y-30772936D02*
X42015000Y-31227064D01*
%TO.C,U11*%
X44660000Y-79100000D02*
X44660000Y-73090000D01*
X37840000Y-76850000D02*
X37840000Y-73090000D01*
X37840000Y-73090000D02*
X39100000Y-73090000D01*
X44660000Y-73090000D02*
X43400000Y-73090000D01*
%TO.C,R20*%
X37272936Y-21515000D02*
X37727064Y-21515000D01*
X37272936Y-22985000D02*
X37727064Y-22985000D01*
%TO.C,R9*%
X22435436Y-54750000D02*
X26789564Y-54750000D01*
X22435436Y-58170000D02*
X26789564Y-58170000D01*
%TO.C,R1*%
X36772936Y-41765000D02*
X37227064Y-41765000D01*
X36772936Y-43235000D02*
X37227064Y-43235000D01*
%TO.C,R28*%
X43272936Y-37015000D02*
X43727064Y-37015000D01*
X43272936Y-38485000D02*
X43727064Y-38485000D01*
%TO.C,R16*%
X37235000Y-36772936D02*
X37235000Y-37227064D01*
X35765000Y-36772936D02*
X35765000Y-37227064D01*
%TO.C,R13*%
X39485000Y-36772936D02*
X39485000Y-37227064D01*
X38015000Y-36772936D02*
X38015000Y-37227064D01*
%TO.C,R19*%
X37235000Y-26272936D02*
X37235000Y-26727064D01*
X35765000Y-26272936D02*
X35765000Y-26727064D01*
%TO.C,C23*%
X46410000Y-41788748D02*
X46410000Y-43211252D01*
X44590000Y-41788748D02*
X44590000Y-43211252D01*
%TO.C,R11*%
X22435436Y-44970000D02*
X26789564Y-44970000D01*
X22435436Y-48390000D02*
X26789564Y-48390000D01*
%TO.C,R14*%
X41485000Y-32772936D02*
X41485000Y-33227064D01*
X40015000Y-32772936D02*
X40015000Y-33227064D01*
%TO.C,R17*%
X39522936Y-29265000D02*
X39977064Y-29265000D01*
X39522936Y-30735000D02*
X39977064Y-30735000D01*
%TO.C,R8*%
X22435436Y-59640000D02*
X26789564Y-59640000D01*
X22435436Y-63060000D02*
X26789564Y-63060000D01*
%TO.C,C1*%
X37261252Y-40735000D02*
X36738748Y-40735000D01*
X37261252Y-39265000D02*
X36738748Y-39265000D01*
%TO.C,R10*%
X22435436Y-49860000D02*
X26789564Y-49860000D01*
X22435436Y-53280000D02*
X26789564Y-53280000D01*
%TO.C,C24*%
X37090000Y-48961252D02*
X37090000Y-47538748D01*
X38910000Y-48961252D02*
X38910000Y-47538748D01*
%TO.C,R15*%
X39485000Y-32772936D02*
X39485000Y-33227064D01*
X38015000Y-32772936D02*
X38015000Y-33227064D01*
%TO.C,C4*%
X48738748Y-71265000D02*
X49261252Y-71265000D01*
X48738748Y-72735000D02*
X49261252Y-72735000D01*
%TO.C,C5*%
X48988748Y-74015000D02*
X49511252Y-74015000D01*
X48988748Y-75485000D02*
X49511252Y-75485000D01*
%TD*%
G36*
X32502210Y-44500158D02*
G01*
X32775785Y-44519724D01*
X32793297Y-44522242D01*
X33054794Y-44579127D01*
X33071770Y-44584111D01*
X33322524Y-44677638D01*
X33338617Y-44684988D01*
X33573496Y-44813241D01*
X33588380Y-44822806D01*
X33802624Y-44983188D01*
X33815994Y-44994774D01*
X34005225Y-45184005D01*
X34016811Y-45197375D01*
X34177193Y-45411619D01*
X34186758Y-45426503D01*
X34315011Y-45661382D01*
X34322361Y-45677475D01*
X34415888Y-45928229D01*
X34420872Y-45945205D01*
X34477757Y-46206702D01*
X34480275Y-46224214D01*
X34499842Y-46497789D01*
X34500000Y-46502213D01*
X34500000Y-88497786D01*
X34499842Y-88502210D01*
X34480275Y-88775785D01*
X34477757Y-88793297D01*
X34420872Y-89054794D01*
X34415888Y-89071770D01*
X34322361Y-89322524D01*
X34315011Y-89338617D01*
X34186758Y-89573496D01*
X34177193Y-89588380D01*
X34016811Y-89802624D01*
X34005225Y-89815994D01*
X33815994Y-90005225D01*
X33802624Y-90016811D01*
X33588380Y-90177193D01*
X33573496Y-90186758D01*
X33338617Y-90315011D01*
X33322524Y-90322361D01*
X33071770Y-90415888D01*
X33054794Y-90420872D01*
X32793297Y-90477757D01*
X32775785Y-90480275D01*
X32502210Y-90499842D01*
X32497786Y-90500000D01*
X17002214Y-90500000D01*
X16997790Y-90499842D01*
X16724214Y-90480275D01*
X16706702Y-90477757D01*
X16445205Y-90420872D01*
X16428229Y-90415888D01*
X16177475Y-90322361D01*
X16161382Y-90315011D01*
X15926503Y-90186758D01*
X15911619Y-90177193D01*
X15697375Y-90016811D01*
X15684005Y-90005225D01*
X15494774Y-89815994D01*
X15483188Y-89802624D01*
X15322806Y-89588380D01*
X15313241Y-89573496D01*
X15184988Y-89338617D01*
X15177638Y-89322524D01*
X15084111Y-89071770D01*
X15079127Y-89054794D01*
X15022242Y-88793297D01*
X15019724Y-88775785D01*
X15000158Y-88502210D01*
X15000000Y-88497786D01*
X15000000Y-73002213D01*
X15000158Y-72997789D01*
X15019724Y-72724214D01*
X15022242Y-72706702D01*
X15079127Y-72445205D01*
X15084111Y-72428229D01*
X15177638Y-72177475D01*
X15184988Y-72161382D01*
X15313241Y-71926503D01*
X15322806Y-71911619D01*
X15483188Y-71697375D01*
X15494774Y-71684005D01*
X15684005Y-71494774D01*
X15697375Y-71483188D01*
X15911619Y-71322806D01*
X15926503Y-71313241D01*
X16161382Y-71184988D01*
X16177475Y-71177638D01*
X16428229Y-71084111D01*
X16445205Y-71079127D01*
X16706702Y-71022242D01*
X16724214Y-71019724D01*
X16997790Y-71000158D01*
X17002214Y-71000000D01*
X27000000Y-71000000D01*
X27284635Y-70979642D01*
X27563458Y-70918987D01*
X27830831Y-70819263D01*
X27830835Y-70819261D01*
X28081276Y-70682510D01*
X28081277Y-70682509D01*
X28309719Y-70511499D01*
X28309731Y-70511489D01*
X28511489Y-70309731D01*
X28511499Y-70309719D01*
X28682509Y-70081277D01*
X28682510Y-70081276D01*
X28819261Y-69830835D01*
X28819263Y-69830831D01*
X28918987Y-69563458D01*
X28979642Y-69284635D01*
X29000000Y-69000000D01*
X29000000Y-46502213D01*
X29000158Y-46497789D01*
X29019724Y-46224214D01*
X29022242Y-46206702D01*
X29079127Y-45945205D01*
X29084111Y-45928229D01*
X29177638Y-45677475D01*
X29184988Y-45661382D01*
X29313241Y-45426503D01*
X29322806Y-45411619D01*
X29483188Y-45197375D01*
X29494774Y-45184005D01*
X29684005Y-44994774D01*
X29697375Y-44983188D01*
X29911619Y-44822806D01*
X29926503Y-44813241D01*
X30161382Y-44684988D01*
X30177475Y-44677638D01*
X30428229Y-44584111D01*
X30445205Y-44579127D01*
X30706702Y-44522242D01*
X30724214Y-44519724D01*
X30997790Y-44500158D01*
X31002214Y-44500000D01*
X32497786Y-44500000D01*
X32502210Y-44500158D01*
G37*
G36*
X32002210Y-22500158D02*
G01*
X32275785Y-22519724D01*
X32293297Y-22522242D01*
X32554794Y-22579127D01*
X32571770Y-22584111D01*
X32822524Y-22677638D01*
X32838617Y-22684988D01*
X33073496Y-22813241D01*
X33088380Y-22822806D01*
X33302624Y-22983188D01*
X33315994Y-22994774D01*
X33505225Y-23184005D01*
X33516811Y-23197375D01*
X33677193Y-23411619D01*
X33686758Y-23426503D01*
X33815011Y-23661382D01*
X33822361Y-23677475D01*
X33915888Y-23928229D01*
X33920872Y-23945205D01*
X33977757Y-24206702D01*
X33980275Y-24224214D01*
X33999842Y-24497789D01*
X34000000Y-24502213D01*
X34000000Y-39497786D01*
X33999842Y-39502210D01*
X33980275Y-39775785D01*
X33977757Y-39793297D01*
X33920872Y-40054794D01*
X33915888Y-40071770D01*
X33822361Y-40322524D01*
X33815011Y-40338617D01*
X33686758Y-40573496D01*
X33677193Y-40588380D01*
X33516811Y-40802624D01*
X33505225Y-40815994D01*
X33315994Y-41005225D01*
X33302624Y-41016811D01*
X33088380Y-41177193D01*
X33073496Y-41186758D01*
X32838617Y-41315011D01*
X32822524Y-41322361D01*
X32571770Y-41415888D01*
X32554794Y-41420872D01*
X32293297Y-41477757D01*
X32275785Y-41480275D01*
X32002210Y-41499842D01*
X31997786Y-41500000D01*
X22000000Y-41500000D01*
X21715364Y-41520357D01*
X21436541Y-41581012D01*
X21169168Y-41680736D01*
X21169164Y-41680738D01*
X20918723Y-41817489D01*
X20918722Y-41817490D01*
X20690280Y-41988500D01*
X20690268Y-41988510D01*
X20488510Y-42190268D01*
X20488500Y-42190280D01*
X20317490Y-42418722D01*
X20317489Y-42418723D01*
X20180738Y-42669164D01*
X20180736Y-42669168D01*
X20081012Y-42936541D01*
X20020357Y-43215364D01*
X20000000Y-43500000D01*
X20000000Y-66497786D01*
X19999842Y-66502210D01*
X19980275Y-66775785D01*
X19977757Y-66793297D01*
X19920872Y-67054794D01*
X19915888Y-67071770D01*
X19822361Y-67322524D01*
X19815011Y-67338617D01*
X19686758Y-67573496D01*
X19677193Y-67588380D01*
X19516811Y-67802624D01*
X19505225Y-67815994D01*
X19315994Y-68005225D01*
X19302624Y-68016811D01*
X19088380Y-68177193D01*
X19073496Y-68186758D01*
X18838617Y-68315011D01*
X18822524Y-68322361D01*
X18571770Y-68415888D01*
X18554794Y-68420872D01*
X18293297Y-68477757D01*
X18275785Y-68480275D01*
X18002210Y-68499842D01*
X17997786Y-68500000D01*
X16502214Y-68500000D01*
X16497790Y-68499842D01*
X16224214Y-68480275D01*
X16206702Y-68477757D01*
X15945205Y-68420872D01*
X15928229Y-68415888D01*
X15677475Y-68322361D01*
X15661382Y-68315011D01*
X15426503Y-68186758D01*
X15411619Y-68177193D01*
X15197375Y-68016811D01*
X15184005Y-68005225D01*
X14994774Y-67815994D01*
X14983188Y-67802624D01*
X14822806Y-67588380D01*
X14813241Y-67573496D01*
X14684988Y-67338617D01*
X14677638Y-67322524D01*
X14584111Y-67071770D01*
X14579127Y-67054794D01*
X14522242Y-66793297D01*
X14519724Y-66775785D01*
X14500158Y-66502210D01*
X14500000Y-66497786D01*
X14500000Y-24502213D01*
X14500158Y-24497789D01*
X14519724Y-24224214D01*
X14522242Y-24206702D01*
X14579127Y-23945205D01*
X14584111Y-23928229D01*
X14677638Y-23677475D01*
X14684988Y-23661382D01*
X14813241Y-23426503D01*
X14822806Y-23411619D01*
X14983188Y-23197375D01*
X14994774Y-23184005D01*
X15184005Y-22994774D01*
X15197375Y-22983188D01*
X15411619Y-22822806D01*
X15426503Y-22813241D01*
X15661382Y-22684988D01*
X15677475Y-22677638D01*
X15928229Y-22584111D01*
X15945205Y-22579127D01*
X16206702Y-22522242D01*
X16224214Y-22519724D01*
X16497790Y-22500158D01*
X16502214Y-22500000D01*
X31997786Y-22500000D01*
X32002210Y-22500158D01*
G37*
M02*
