%TF.GenerationSoftware,KiCad,Pcbnew,7.0.9*%
%TF.CreationDate,2024-01-19T18:50:41+05:30*%
%TF.ProjectId,BMS LTC6804-2,424d5320-4c54-4433-9638-30342d322e6b,rev?*%
%TF.SameCoordinates,Original*%
%TF.FileFunction,Paste,Bot*%
%TF.FilePolarity,Positive*%
%FSLAX46Y46*%
G04 Gerber Fmt 4.6, Leading zero omitted, Abs format (unit mm)*
G04 Created by KiCad (PCBNEW 7.0.9) date 2024-01-19 18:50:41*
%MOMM*%
%LPD*%
G01*
G04 APERTURE LIST*
G04 Aperture macros list*
%AMRoundRect*
0 Rectangle with rounded corners*
0 $1 Rounding radius*
0 $2 $3 $4 $5 $6 $7 $8 $9 X,Y pos of 4 corners*
0 Add a 4 corners polygon primitive as box body*
4,1,4,$2,$3,$4,$5,$6,$7,$8,$9,$2,$3,0*
0 Add four circle primitives for the rounded corners*
1,1,$1+$1,$2,$3*
1,1,$1+$1,$4,$5*
1,1,$1+$1,$6,$7*
1,1,$1+$1,$8,$9*
0 Add four rect primitives between the rounded corners*
20,1,$1+$1,$2,$3,$4,$5,0*
20,1,$1+$1,$4,$5,$6,$7,0*
20,1,$1+$1,$6,$7,$8,$9,0*
20,1,$1+$1,$8,$9,$2,$3,0*%
G04 Aperture macros list end*
%ADD10RoundRect,0.137500X0.662500X0.137500X-0.662500X0.137500X-0.662500X-0.137500X0.662500X-0.137500X0*%
%ADD11RoundRect,0.075000X0.875000X0.075000X-0.875000X0.075000X-0.875000X-0.075000X0.875000X-0.075000X0*%
%ADD12RoundRect,0.250000X0.350000X0.450000X-0.350000X0.450000X-0.350000X-0.450000X0.350000X-0.450000X0*%
%ADD13RoundRect,0.250000X-0.400000X-0.625000X0.400000X-0.625000X0.400000X0.625000X-0.400000X0.625000X0*%
%ADD14RoundRect,0.250000X-0.350000X-0.450000X0.350000X-0.450000X0.350000X0.450000X-0.350000X0.450000X0*%
%ADD15RoundRect,0.250000X0.475000X-0.337500X0.475000X0.337500X-0.475000X0.337500X-0.475000X-0.337500X0*%
%ADD16RoundRect,0.250000X-0.450000X0.350000X-0.450000X-0.350000X0.450000X-0.350000X0.450000X0.350000X0*%
%ADD17RoundRect,0.250000X-0.475000X0.337500X-0.475000X-0.337500X0.475000X-0.337500X0.475000X0.337500X0*%
%ADD18RoundRect,0.250000X0.337500X0.475000X-0.337500X0.475000X-0.337500X-0.475000X0.337500X-0.475000X0*%
G04 APERTURE END LIST*
D10*
%TO.C,U3*%
X50671800Y-58877200D03*
X50671800Y-61417200D03*
X44171800Y-61417200D03*
X44171800Y-58877200D03*
%TD*%
D11*
%TO.C,U9*%
X82677000Y-51690000D03*
X82677000Y-52190000D03*
X82677000Y-52690000D03*
X82677000Y-53190000D03*
X82677000Y-53690000D03*
X82677000Y-54190000D03*
X82677000Y-54690000D03*
X82677000Y-55190000D03*
X82677000Y-55690000D03*
X82677000Y-56190000D03*
X82677000Y-56690000D03*
X82677000Y-57190000D03*
X82677000Y-57690000D03*
X82677000Y-58190000D03*
X82677000Y-58690000D03*
X82677000Y-59190000D03*
X82677000Y-59690000D03*
X82677000Y-60190000D03*
X82677000Y-60690000D03*
X82677000Y-61190000D03*
X82677000Y-61690000D03*
X82677000Y-62190000D03*
X82677000Y-62690000D03*
X82677000Y-63190000D03*
X75677000Y-63190000D03*
X75677000Y-62690000D03*
X75677000Y-62190000D03*
X75677000Y-61690000D03*
X75677000Y-61190000D03*
X75677000Y-60690000D03*
X75677000Y-60190000D03*
X75677000Y-59690000D03*
X75677000Y-59190000D03*
X75677000Y-58690000D03*
X75677000Y-58190000D03*
X75677000Y-57690000D03*
X75677000Y-57190000D03*
X75677000Y-56690000D03*
X75677000Y-56190000D03*
X75677000Y-55690000D03*
X75677000Y-55190000D03*
X75677000Y-54690000D03*
X75677000Y-54190000D03*
X75677000Y-53690000D03*
X75677000Y-53190000D03*
X75677000Y-52690000D03*
X75677000Y-52190000D03*
X75677000Y-51690000D03*
%TD*%
D12*
%TO.C,R12*%
X89900000Y-67564000D03*
X87900000Y-67564000D03*
%TD*%
%TO.C,R16*%
X90027000Y-57404000D03*
X88027000Y-57404000D03*
%TD*%
%TO.C,R17*%
X90027000Y-54991000D03*
X88027000Y-54991000D03*
%TD*%
D13*
%TO.C,F2*%
X91922000Y-54864000D03*
X95022000Y-54864000D03*
%TD*%
D14*
%TO.C,R9*%
X49850800Y-44272200D03*
X51850800Y-44272200D03*
%TD*%
D12*
%TO.C,R13*%
X89900000Y-65151000D03*
X87900000Y-65151000D03*
%TD*%
D15*
%TO.C,C7*%
X43764200Y-46401900D03*
X43764200Y-44326900D03*
%TD*%
D16*
%TO.C,R33*%
X66979800Y-67986400D03*
X66979800Y-69986400D03*
%TD*%
D12*
%TO.C,R27*%
X89900000Y-50673000D03*
X87900000Y-50673000D03*
%TD*%
%TO.C,R29*%
X89900000Y-48641000D03*
X87900000Y-48641000D03*
%TD*%
D17*
%TO.C,C18*%
X85852000Y-61065500D03*
X85852000Y-63140500D03*
%TD*%
D13*
%TO.C,F4*%
X91922000Y-59817000D03*
X95022000Y-59817000D03*
%TD*%
D12*
%TO.C,R14*%
X89900000Y-62738000D03*
X87900000Y-62738000D03*
%TD*%
%TO.C,R2*%
X30845000Y-96012000D03*
X28845000Y-96012000D03*
%TD*%
D13*
%TO.C,F1*%
X91922000Y-52451000D03*
X95022000Y-52451000D03*
%TD*%
D17*
%TO.C,C20*%
X85725000Y-65383500D03*
X85725000Y-67458500D03*
%TD*%
D12*
%TO.C,R15*%
X90027000Y-60071000D03*
X88027000Y-60071000D03*
%TD*%
D17*
%TO.C,C16*%
X85852000Y-55604500D03*
X85852000Y-57679500D03*
%TD*%
D10*
%TO.C,U5*%
X50646400Y-63754000D03*
X50646400Y-66294000D03*
X44146400Y-66294000D03*
X44146400Y-63754000D03*
%TD*%
D13*
%TO.C,F7*%
X91896000Y-67437000D03*
X94996000Y-67437000D03*
%TD*%
D12*
%TO.C,R26*%
X89900000Y-46609000D03*
X87900000Y-46609000D03*
%TD*%
D13*
%TO.C,F3*%
X91922000Y-57277000D03*
X95022000Y-57277000D03*
%TD*%
%TO.C,F5*%
X91922000Y-62484000D03*
X95022000Y-62484000D03*
%TD*%
%TO.C,F6*%
X91922000Y-65024000D03*
X95022000Y-65024000D03*
%TD*%
D16*
%TO.C,R32*%
X64029800Y-67986400D03*
X64029800Y-69986400D03*
%TD*%
D12*
%TO.C,R18*%
X90027000Y-52578000D03*
X88027000Y-52578000D03*
%TD*%
D18*
%TO.C,C12*%
X67077500Y-50749200D03*
X65002500Y-50749200D03*
%TD*%
M02*
