%TF.GenerationSoftware,KiCad,Pcbnew,7.0.9*%
%TF.CreationDate,2024-01-03T22:11:43+05:30*%
%TF.ProjectId,BMS OPAMP,424d5320-4f50-4414-9d50-2e6b69636164,rev?*%
%TF.SameCoordinates,Original*%
%TF.FileFunction,Soldermask,Top*%
%TF.FilePolarity,Negative*%
%FSLAX46Y46*%
G04 Gerber Fmt 4.6, Leading zero omitted, Abs format (unit mm)*
G04 Created by KiCad (PCBNEW 7.0.9) date 2024-01-03 22:11:43*
%MOMM*%
%LPD*%
G01*
G04 APERTURE LIST*
G04 Aperture macros list*
%AMRoundRect*
0 Rectangle with rounded corners*
0 $1 Rounding radius*
0 $2 $3 $4 $5 $6 $7 $8 $9 X,Y pos of 4 corners*
0 Add a 4 corners polygon primitive as box body*
4,1,4,$2,$3,$4,$5,$6,$7,$8,$9,$2,$3,0*
0 Add four circle primitives for the rounded corners*
1,1,$1+$1,$2,$3*
1,1,$1+$1,$4,$5*
1,1,$1+$1,$6,$7*
1,1,$1+$1,$8,$9*
0 Add four rect primitives between the rounded corners*
20,1,$1+$1,$2,$3,$4,$5,0*
20,1,$1+$1,$4,$5,$6,$7,0*
20,1,$1+$1,$6,$7,$8,$9,0*
20,1,$1+$1,$8,$9,$2,$3,0*%
G04 Aperture macros list end*
%ADD10RoundRect,0.250000X0.450000X-0.350000X0.450000X0.350000X-0.450000X0.350000X-0.450000X-0.350000X0*%
%ADD11C,3.200000*%
%ADD12RoundRect,0.250000X-0.350000X-0.450000X0.350000X-0.450000X0.350000X0.450000X-0.350000X0.450000X0*%
%ADD13RoundRect,0.250000X-0.450000X0.350000X-0.450000X-0.350000X0.450000X-0.350000X0.450000X0.350000X0*%
%ADD14C,1.727200*%
%ADD15R,1.727200X1.727200*%
%ADD16RoundRect,0.250000X-0.337500X-0.475000X0.337500X-0.475000X0.337500X0.475000X-0.337500X0.475000X0*%
%ADD17RoundRect,0.250000X-0.725000X0.600000X-0.725000X-0.600000X0.725000X-0.600000X0.725000X0.600000X0*%
%ADD18O,1.950000X1.700000*%
%ADD19RoundRect,0.250000X0.475000X-0.337500X0.475000X0.337500X-0.475000X0.337500X-0.475000X-0.337500X0*%
%ADD20RoundRect,0.150000X-0.825000X-0.150000X0.825000X-0.150000X0.825000X0.150000X-0.825000X0.150000X0*%
%ADD21RoundRect,0.150000X-0.587500X-0.150000X0.587500X-0.150000X0.587500X0.150000X-0.587500X0.150000X0*%
%ADD22RoundRect,0.250000X0.350000X0.450000X-0.350000X0.450000X-0.350000X-0.450000X0.350000X-0.450000X0*%
%ADD23RoundRect,0.137500X-0.662500X-0.137500X0.662500X-0.137500X0.662500X0.137500X-0.662500X0.137500X0*%
%ADD24RoundRect,0.250000X0.600000X0.725000X-0.600000X0.725000X-0.600000X-0.725000X0.600000X-0.725000X0*%
%ADD25O,1.700000X1.950000*%
%ADD26RoundRect,0.250000X-1.000000X-0.650000X1.000000X-0.650000X1.000000X0.650000X-1.000000X0.650000X0*%
%ADD27RoundRect,0.250000X1.000000X0.650000X-1.000000X0.650000X-1.000000X-0.650000X1.000000X-0.650000X0*%
%ADD28RoundRect,0.250000X-0.750000X0.600000X-0.750000X-0.600000X0.750000X-0.600000X0.750000X0.600000X0*%
%ADD29O,2.000000X1.700000*%
%ADD30RoundRect,0.150000X0.150000X-0.587500X0.150000X0.587500X-0.150000X0.587500X-0.150000X-0.587500X0*%
%ADD31RoundRect,0.150000X0.825000X0.150000X-0.825000X0.150000X-0.825000X-0.150000X0.825000X-0.150000X0*%
%ADD32RoundRect,0.250000X0.725000X-0.600000X0.725000X0.600000X-0.725000X0.600000X-0.725000X-0.600000X0*%
%ADD33RoundRect,0.250000X0.650000X-1.000000X0.650000X1.000000X-0.650000X1.000000X-0.650000X-1.000000X0*%
%ADD34RoundRect,0.250000X-0.600000X-0.725000X0.600000X-0.725000X0.600000X0.725000X-0.600000X0.725000X0*%
%ADD35R,1.000000X1.000000*%
%ADD36O,1.000000X1.000000*%
%ADD37C,1.200000*%
G04 APERTURE END LIST*
D10*
%TO.C,R13*%
X78359000Y-92744800D03*
X78359000Y-90744800D03*
%TD*%
D11*
%TO.C,H1*%
X104216200Y-19100800D03*
%TD*%
D12*
%TO.C,R1*%
X37090600Y-62738000D03*
X39090600Y-62738000D03*
%TD*%
%TO.C,R60*%
X80111000Y-20316400D03*
X82111000Y-20316400D03*
%TD*%
%TO.C,R7*%
X54803800Y-97746400D03*
X56803800Y-97746400D03*
%TD*%
%TO.C,R44*%
X83988400Y-64287400D03*
X85988400Y-64287400D03*
%TD*%
D10*
%TO.C,R4*%
X39827200Y-46872400D03*
X39827200Y-44872400D03*
%TD*%
D13*
%TO.C,R26*%
X82854800Y-86604600D03*
X82854800Y-88604600D03*
%TD*%
D14*
%TO.C,A1*%
X69215000Y-62103000D03*
X69215000Y-59563000D03*
X69215000Y-57023000D03*
X69215000Y-54483000D03*
X66675000Y-55753000D03*
X66675000Y-53213000D03*
X64135000Y-72263000D03*
X66675000Y-72263000D03*
X53975000Y-46863000D03*
X53975000Y-44323000D03*
X53975000Y-54483000D03*
X53975000Y-57023000D03*
X53975000Y-59563000D03*
X53975000Y-62103000D03*
X53975000Y-64643000D03*
X53975000Y-67183000D03*
X53975000Y-69723000D03*
X53975000Y-72263000D03*
X69215000Y-72263000D03*
X69215000Y-69723000D03*
X69215000Y-67183000D03*
X69215000Y-64643000D03*
D15*
X53975000Y-51943000D03*
X69215000Y-46863000D03*
X61595000Y-72263000D03*
D14*
X69215000Y-44323000D03*
X53975000Y-49403000D03*
X69215000Y-49403000D03*
X69215000Y-51943000D03*
%TD*%
D16*
%TO.C,C14*%
X72799700Y-31826200D03*
X74874700Y-31826200D03*
%TD*%
D17*
%TO.C,J1*%
X32639000Y-66802000D03*
D18*
X32639000Y-69302000D03*
X32639000Y-71802000D03*
X32639000Y-74302000D03*
X32639000Y-76802000D03*
X32639000Y-79302000D03*
%TD*%
D10*
%TO.C,R53*%
X71348000Y-28051000D03*
X71348000Y-26051000D03*
%TD*%
D19*
%TO.C,C5*%
X97891600Y-67534700D03*
X97891600Y-65459700D03*
%TD*%
D20*
%TO.C,U6*%
X42711600Y-37896800D03*
X42711600Y-39166800D03*
X42711600Y-40436800D03*
X42711600Y-41706800D03*
X47661600Y-41706800D03*
X47661600Y-40436800D03*
X47661600Y-39166800D03*
X47661600Y-37896800D03*
%TD*%
D10*
%TO.C,R41*%
X81102200Y-64169800D03*
X81102200Y-62169800D03*
%TD*%
D21*
%TO.C,Q7*%
X86183900Y-23210400D03*
X86183900Y-25110400D03*
X88058900Y-24160400D03*
%TD*%
D13*
%TO.C,R40*%
X80822800Y-68494400D03*
X80822800Y-70494400D03*
%TD*%
D12*
%TO.C,R11*%
X46802800Y-63957200D03*
X48802800Y-63957200D03*
%TD*%
D13*
%TO.C,R24*%
X80721200Y-86630000D03*
X80721200Y-88630000D03*
%TD*%
D12*
%TO.C,R51*%
X102444800Y-72847200D03*
X104444800Y-72847200D03*
%TD*%
D22*
%TO.C,R3*%
X40436800Y-39166800D03*
X38436800Y-39166800D03*
%TD*%
D23*
%TO.C,U1*%
X42141000Y-51968400D03*
X42141000Y-54508400D03*
X48641000Y-54508400D03*
X48641000Y-51968400D03*
%TD*%
D24*
%TO.C,J4*%
X31115000Y-24638000D03*
D25*
X28615000Y-24638000D03*
X26115000Y-24638000D03*
%TD*%
D12*
%TO.C,R55*%
X83225800Y-32414000D03*
X85225800Y-32414000D03*
%TD*%
%TO.C,R39*%
X79111600Y-60248800D03*
X81111600Y-60248800D03*
%TD*%
D26*
%TO.C,D14*%
X92411200Y-32921800D03*
X96411200Y-32921800D03*
%TD*%
D27*
%TO.C,D3*%
X54705000Y-83693000D03*
X50705000Y-83693000D03*
%TD*%
D10*
%TO.C,R46*%
X86381800Y-54517800D03*
X86381800Y-52517800D03*
%TD*%
D13*
%TO.C,R58*%
X71348000Y-22148800D03*
X71348000Y-24148800D03*
%TD*%
D21*
%TO.C,Q1*%
X60682900Y-91302800D03*
X60682900Y-93202800D03*
X62557900Y-92252800D03*
%TD*%
D27*
%TO.C,D4*%
X54654200Y-76200000D03*
X50654200Y-76200000D03*
%TD*%
D22*
%TO.C,R38*%
X81416400Y-66522600D03*
X79416400Y-66522600D03*
%TD*%
%TO.C,R36*%
X84896200Y-72059800D03*
X82896200Y-72059800D03*
%TD*%
D28*
%TO.C,J7*%
X32914000Y-47518000D03*
D29*
X32914000Y-50018000D03*
%TD*%
D30*
%TO.C,Q3*%
X90286800Y-50086500D03*
X92186800Y-50086500D03*
X91236800Y-48211500D03*
%TD*%
D19*
%TO.C,C4*%
X97917000Y-63673900D03*
X97917000Y-61598900D03*
%TD*%
D21*
%TO.C,Q4*%
X87428500Y-27244000D03*
X87428500Y-29144000D03*
X89303500Y-28194000D03*
%TD*%
D26*
%TO.C,D13*%
X92411200Y-28371800D03*
X96411200Y-28371800D03*
%TD*%
D21*
%TO.C,Q5*%
X87428500Y-31694000D03*
X87428500Y-33594000D03*
X89303500Y-32644000D03*
%TD*%
D31*
%TO.C,U7*%
X47763200Y-47602600D03*
X47763200Y-46332600D03*
X47763200Y-45062600D03*
X47763200Y-43792600D03*
X42813200Y-43792600D03*
X42813200Y-45062600D03*
X42813200Y-46332600D03*
X42813200Y-47602600D03*
%TD*%
D22*
%TO.C,R21*%
X86953600Y-82854800D03*
X84953600Y-82854800D03*
%TD*%
D12*
%TO.C,R6*%
X54803800Y-94796400D03*
X56803800Y-94796400D03*
%TD*%
%TO.C,R45*%
X83988400Y-67237400D03*
X85988400Y-67237400D03*
%TD*%
D10*
%TO.C,R47*%
X89331800Y-54517800D03*
X89331800Y-52517800D03*
%TD*%
D16*
%TO.C,C10*%
X46460500Y-35991800D03*
X48535500Y-35991800D03*
%TD*%
D27*
%TO.C,D1*%
X54705000Y-80010000D03*
X50705000Y-80010000D03*
%TD*%
D26*
%TO.C,D18*%
X92055600Y-22914200D03*
X96055600Y-22914200D03*
%TD*%
D13*
%TO.C,R8*%
X50139600Y-38116000D03*
X50139600Y-40116000D03*
%TD*%
%TO.C,R59*%
X74142000Y-22250400D03*
X74142000Y-24250400D03*
%TD*%
D21*
%TO.C,Q6*%
X86183900Y-18760400D03*
X86183900Y-20660400D03*
X88058900Y-19710400D03*
%TD*%
D28*
%TO.C,J8*%
X32914000Y-56968000D03*
D29*
X32914000Y-59468000D03*
%TD*%
D12*
%TO.C,R54*%
X83225800Y-29464000D03*
X85225800Y-29464000D03*
%TD*%
D19*
%TO.C,C1*%
X98018600Y-52040700D03*
X98018600Y-49965700D03*
%TD*%
%TO.C,C2*%
X97942400Y-55876100D03*
X97942400Y-53801100D03*
%TD*%
D12*
%TO.C,R23*%
X76470000Y-82981800D03*
X78470000Y-82981800D03*
%TD*%
D26*
%TO.C,D17*%
X92055600Y-18364200D03*
X96055600Y-18364200D03*
%TD*%
D27*
%TO.C,D20*%
X91509600Y-72288400D03*
X87509600Y-72288400D03*
%TD*%
D10*
%TO.C,R22*%
X85547200Y-86801200D03*
X85547200Y-84801200D03*
%TD*%
D26*
%TO.C,D6*%
X75368400Y-53568600D03*
X79368400Y-53568600D03*
%TD*%
D12*
%TO.C,R50*%
X102606600Y-75260200D03*
X104606600Y-75260200D03*
%TD*%
D11*
%TO.C,H2*%
X104241600Y-97485200D03*
%TD*%
D19*
%TO.C,C6*%
X97891600Y-71395500D03*
X97891600Y-69320500D03*
%TD*%
D30*
%TO.C,Q2*%
X85836800Y-50086500D03*
X87736800Y-50086500D03*
X86786800Y-48211500D03*
%TD*%
D27*
%TO.C,D2*%
X54730400Y-87401400D03*
X50730400Y-87401400D03*
%TD*%
D32*
%TO.C,J9*%
X103148800Y-67603400D03*
D18*
X103148800Y-65103400D03*
X103148800Y-62603400D03*
X103148800Y-60103400D03*
X103148800Y-57603400D03*
X103148800Y-55103400D03*
X103148800Y-52603400D03*
%TD*%
D23*
%TO.C,U2*%
X45772000Y-91744800D03*
X45772000Y-94284800D03*
X52272000Y-94284800D03*
X52272000Y-91744800D03*
%TD*%
D12*
%TO.C,R20*%
X80391000Y-84709000D03*
X82391000Y-84709000D03*
%TD*%
D10*
%TO.C,R27*%
X80619600Y-82356200D03*
X80619600Y-80356200D03*
%TD*%
%TO.C,R25*%
X82778600Y-82330800D03*
X82778600Y-80330800D03*
%TD*%
D33*
%TO.C,D19*%
X73634600Y-64661800D03*
X73634600Y-60661800D03*
%TD*%
D23*
%TO.C,U4*%
X45797400Y-96799400D03*
X45797400Y-99339400D03*
X52297400Y-99339400D03*
X52297400Y-96799400D03*
%TD*%
D10*
%TO.C,R52*%
X74116600Y-28051000D03*
X74116600Y-26051000D03*
%TD*%
D19*
%TO.C,C3*%
X97942400Y-59787700D03*
X97942400Y-57712700D03*
%TD*%
D34*
%TO.C,J3*%
X26329000Y-92384000D03*
D25*
X28829000Y-92384000D03*
X31329000Y-92384000D03*
%TD*%
D12*
%TO.C,R5*%
X54803800Y-91846400D03*
X56803800Y-91846400D03*
%TD*%
%TO.C,R61*%
X80111000Y-23266400D03*
X82111000Y-23266400D03*
%TD*%
D22*
%TO.C,R10*%
X48726600Y-59131200D03*
X46726600Y-59131200D03*
%TD*%
D26*
%TO.C,D5*%
X75419200Y-57277000D03*
X79419200Y-57277000D03*
%TD*%
D35*
%TO.C,J6*%
X26908000Y-89281000D03*
D36*
X25638000Y-89281000D03*
X24368000Y-89281000D03*
%TD*%
D37*
%TO.C,J2*%
X40972000Y-65175000D03*
D17*
X38972000Y-66775000D03*
D18*
X38972000Y-69275000D03*
X38972000Y-71775000D03*
X38972000Y-74275000D03*
X38972000Y-76775000D03*
X38972000Y-79275000D03*
%TD*%
D11*
%TO.C,H4*%
X37566600Y-97459800D03*
%TD*%
D35*
%TO.C,J5*%
X27051000Y-27686000D03*
D36*
X25781000Y-27686000D03*
X24511000Y-27686000D03*
%TD*%
D11*
%TO.C,H3*%
X37363400Y-19100800D03*
%TD*%
M02*
