%TF.GenerationSoftware,KiCad,Pcbnew,7.0.9*%
%TF.CreationDate,2024-02-15T16:51:28+05:30*%
%TF.ProjectId,BMS OPAMP,424d5320-4f50-4414-9d50-2e6b69636164,rev?*%
%TF.SameCoordinates,Original*%
%TF.FileFunction,Drillmap*%
%TF.FilePolarity,Positive*%
%FSLAX45Y45*%
G04 Gerber Fmt 4.5, Leading zero omitted, Abs format (unit mm)*
G04 Created by KiCad (PCBNEW 7.0.9) date 2024-02-15 16:51:28*
%MOMM*%
%LPD*%
G01*
G04 APERTURE LIST*
%ADD10C,0.100000*%
%ADD11C,0.200000*%
%ADD12C,0.101600*%
G04 APERTURE END LIST*
D10*
X2247900Y-1574800D02*
X10756900Y-1574800D01*
X10756900Y-10083800D01*
X2247900Y-10083800D01*
X2247900Y-1574800D01*
D11*
D10*
X2431100Y-4030000D02*
X2471100Y-4070000D01*
X2471100Y-4030000D02*
X2431100Y-4070000D01*
X2545400Y-8463600D02*
X2585400Y-8503600D01*
X2585400Y-8463600D02*
X2545400Y-8503600D01*
X2670800Y-3180000D02*
X2710800Y-3220000D01*
X2710800Y-3180000D02*
X2670800Y-3220000D01*
X2718120Y-9073200D02*
X2758120Y-9113200D01*
X2758120Y-9073200D02*
X2718120Y-9113200D01*
X2758760Y-8428040D02*
X2798760Y-8468040D01*
X2798760Y-8428040D02*
X2758760Y-8468040D01*
X2820930Y-4558410D02*
X2860930Y-4598410D01*
X2860930Y-4558410D02*
X2820930Y-4598410D01*
X2913950Y-4371660D02*
X2953950Y-4411660D01*
X2953950Y-4371660D02*
X2913950Y-4411660D01*
X2913950Y-8948740D02*
X2953950Y-8988740D01*
X2953950Y-8948740D02*
X2913950Y-8988740D01*
X3421700Y-6365560D02*
X3461700Y-6405560D01*
X3461700Y-6365560D02*
X3421700Y-6405560D01*
X3495360Y-5928680D02*
X3535360Y-5968680D01*
X3535360Y-5928680D02*
X3495360Y-5968680D01*
X3580000Y-3180000D02*
X3620000Y-3220000D01*
X3620000Y-3180000D02*
X3580000Y-3220000D01*
X3630000Y-4030000D02*
X3670000Y-4070000D01*
X3670000Y-4030000D02*
X3630000Y-4070000D01*
X3711260Y-5194620D02*
X3751260Y-5234620D01*
X3751260Y-5194620D02*
X3711260Y-5234620D01*
X3739200Y-9093520D02*
X3779200Y-9133520D01*
X3779200Y-9093520D02*
X3739200Y-9133520D01*
X4028760Y-6167440D02*
X4068760Y-6207440D01*
X4068760Y-6167440D02*
X4028760Y-6207440D01*
X4150680Y-6685600D02*
X4190680Y-6725600D01*
X4190680Y-6685600D02*
X4150680Y-6725600D01*
X4158300Y-9177340D02*
X4198300Y-9217340D01*
X4198300Y-9177340D02*
X4158300Y-9217340D01*
X4194100Y-5176840D02*
X4234100Y-5216840D01*
X4234100Y-5176840D02*
X4194100Y-5216840D01*
X4300540Y-7429820D02*
X4340540Y-7469820D01*
X4340540Y-7429820D02*
X4300540Y-7469820D01*
X4341180Y-6693220D02*
X4381180Y-6733220D01*
X4381180Y-6693220D02*
X4341180Y-6733220D01*
X4356420Y-4620190D02*
X4396420Y-4660190D01*
X4396420Y-4620190D02*
X4356420Y-4660190D01*
X4488500Y-9913940D02*
X4528500Y-9953940D01*
X4528500Y-9913940D02*
X4488500Y-9953940D01*
X4499862Y-3129990D02*
X4539862Y-3169990D01*
X4539862Y-3129990D02*
X4499862Y-3169990D01*
X4508820Y-9405940D02*
X4548820Y-9445940D01*
X4548820Y-9405940D02*
X4508820Y-9445940D01*
X4557200Y-9154480D02*
X4597200Y-9194480D01*
X4597200Y-9154480D02*
X4557200Y-9194480D01*
X4559740Y-9659940D02*
X4599740Y-9699940D01*
X4599740Y-9659940D02*
X4559740Y-9699940D01*
X4567240Y-5453700D02*
X4607240Y-5493700D01*
X4607240Y-5453700D02*
X4567240Y-5493700D01*
X4630000Y-2980000D02*
X4670000Y-3020000D01*
X4670000Y-2980000D02*
X4630000Y-3020000D01*
X4630000Y-3380000D02*
X4670000Y-3420000D01*
X4670000Y-3380000D02*
X4630000Y-3420000D01*
X4666300Y-5689920D02*
X4706300Y-5729920D01*
X4706300Y-5689920D02*
X4666300Y-5729920D01*
X4852660Y-5893120D02*
X4892660Y-5933120D01*
X4892660Y-5893120D02*
X4852660Y-5933120D01*
X4860280Y-6375720D02*
X4900280Y-6415720D01*
X4900280Y-6375720D02*
X4860280Y-6415720D01*
X4915000Y-4307000D02*
X4955000Y-4347000D01*
X4955000Y-4307000D02*
X4915000Y-4347000D01*
X5014280Y-7343460D02*
X5054280Y-7383460D01*
X5054280Y-7343460D02*
X5014280Y-7383460D01*
X5255580Y-3147380D02*
X5295580Y-3187380D01*
X5295580Y-3147380D02*
X5255580Y-3187380D01*
X5333100Y-3068640D02*
X5373100Y-3108640D01*
X5373100Y-3068640D02*
X5333100Y-3108640D01*
X5455627Y-2679287D02*
X5495627Y-2719287D01*
X5495627Y-2679287D02*
X5455627Y-2719287D01*
X5494280Y-2771460D02*
X5534280Y-2811460D01*
X5534280Y-2771460D02*
X5494280Y-2811460D01*
X5656900Y-7950520D02*
X5696900Y-7990520D01*
X5696900Y-7950520D02*
X5656900Y-7990520D01*
X5679760Y-8181660D02*
X5719760Y-8221660D01*
X5719760Y-8181660D02*
X5679760Y-8221660D01*
X5837240Y-5931220D02*
X5877240Y-5971220D01*
X5877240Y-5931220D02*
X5837240Y-5971220D01*
X5862640Y-8491540D02*
X5902640Y-8531540D01*
X5902640Y-8491540D02*
X5862640Y-8531540D01*
X5866390Y-6246180D02*
X5906390Y-6286180D01*
X5906390Y-6246180D02*
X5866390Y-6286180D01*
X5880420Y-8720140D02*
X5920420Y-8760140D01*
X5920420Y-8720140D02*
X5880420Y-8760140D01*
X5915980Y-9792020D02*
X5955980Y-9832020D01*
X5955980Y-9792020D02*
X5915980Y-9832020D01*
X6068380Y-5611180D02*
X6108380Y-5651180D01*
X6108380Y-5611180D02*
X6068380Y-5651180D01*
X6078540Y-5733100D02*
X6118540Y-5773100D01*
X6118540Y-5733100D02*
X6078540Y-5773100D01*
X6119180Y-9903780D02*
X6159180Y-9943780D01*
X6159180Y-9903780D02*
X6119180Y-9943780D01*
X6167520Y-9682200D02*
X6207520Y-9722200D01*
X6207520Y-9682200D02*
X6167520Y-9722200D01*
X6211830Y-5246750D02*
X6251830Y-5286750D01*
X6251830Y-5246750D02*
X6211830Y-5286750D01*
X6211830Y-6797360D02*
X6251830Y-6837360D01*
X6251830Y-6797360D02*
X6211830Y-6837360D01*
X6220780Y-9009700D02*
X6260780Y-9049700D01*
X6260780Y-9009700D02*
X6220780Y-9049700D01*
X6284280Y-5100640D02*
X6324280Y-5140640D01*
X6324280Y-5100640D02*
X6284280Y-5140640D01*
X6317300Y-9205280D02*
X6357300Y-9245280D01*
X6357300Y-9205280D02*
X6317300Y-9245280D01*
X6480000Y-2880000D02*
X6520000Y-2920000D01*
X6520000Y-2880000D02*
X6480000Y-2920000D01*
X6482400Y-5128580D02*
X6522400Y-5168580D01*
X6522400Y-5128580D02*
X6482400Y-5168580D01*
X6520500Y-4666300D02*
X6560500Y-4706300D01*
X6560500Y-4666300D02*
X6520500Y-4706300D01*
X6568760Y-6081080D02*
X6608760Y-6121080D01*
X6608760Y-6081080D02*
X6568760Y-6121080D01*
X6802380Y-2437390D02*
X6842380Y-2477390D01*
X6842380Y-2437390D02*
X6802380Y-2477390D01*
X6884380Y-7785420D02*
X6924380Y-7825420D01*
X6924380Y-7785420D02*
X6884380Y-7825420D01*
X6928050Y-2509840D02*
X6968050Y-2549840D01*
X6968050Y-2509840D02*
X6928050Y-2549840D01*
X6970240Y-2093500D02*
X7010240Y-2133500D01*
X7010240Y-2093500D02*
X6970240Y-2133500D01*
X7114800Y-2194880D02*
X7154800Y-2234880D01*
X7154800Y-2194880D02*
X7114800Y-2234880D01*
X7119880Y-3072390D02*
X7159880Y-3112390D01*
X7159880Y-3072390D02*
X7119880Y-3112390D01*
X7131310Y-8034340D02*
X7171310Y-8074340D01*
X7171310Y-8034340D02*
X7131310Y-8074340D01*
X7135120Y-2593660D02*
X7175120Y-2633660D01*
X7175120Y-2593660D02*
X7135120Y-2633660D01*
X7135120Y-2785100D02*
X7175120Y-2825100D01*
X7175120Y-2785100D02*
X7135120Y-2825100D01*
X7137720Y-8534720D02*
X7177720Y-8574720D01*
X7177720Y-8534720D02*
X7137720Y-8574720D01*
X7196140Y-6586540D02*
X7236140Y-6626540D01*
X7236140Y-6586540D02*
X7196140Y-6626540D01*
X7203760Y-7787960D02*
X7243760Y-7827960D01*
X7243760Y-7787960D02*
X7203760Y-7827960D01*
X7216460Y-8153720D02*
X7256460Y-8193720D01*
X7256460Y-8153720D02*
X7216460Y-8193720D01*
X7224080Y-9007160D02*
X7264080Y-9047160D01*
X7264080Y-9007160D02*
X7224080Y-9047160D01*
X7244400Y-8682040D02*
X7284400Y-8722040D01*
X7284400Y-8682040D02*
X7244400Y-8722040D01*
X7254500Y-2782740D02*
X7294500Y-2822740D01*
X7294500Y-2782740D02*
X7254500Y-2822740D01*
X7262120Y-2165950D02*
X7302120Y-2205950D01*
X7302120Y-2165950D02*
X7262120Y-2205950D01*
X7295200Y-8270560D02*
X7335200Y-8310560D01*
X7335200Y-8270560D02*
X7295200Y-8310560D01*
X7343460Y-6046180D02*
X7383460Y-6086180D01*
X7383460Y-6046180D02*
X7343460Y-6086180D01*
X7349875Y-6439765D02*
X7389875Y-6479765D01*
X7389875Y-6439765D02*
X7349875Y-6479765D01*
X7351020Y-2555560D02*
X7391020Y-2595560D01*
X7391020Y-2555560D02*
X7351020Y-2595560D01*
X7351080Y-7755370D02*
X7391080Y-7795370D01*
X7391080Y-7755370D02*
X7351080Y-7795370D01*
X7357760Y-5555300D02*
X7397760Y-5595300D01*
X7397760Y-5555300D02*
X7357760Y-5595300D01*
X7360300Y-5788980D02*
X7400300Y-5828980D01*
X7400300Y-5788980D02*
X7360300Y-5828980D01*
X7361180Y-2446340D02*
X7401180Y-2486340D01*
X7401180Y-2446340D02*
X7361180Y-2486340D01*
X7366320Y-9195120D02*
X7406320Y-9235120D01*
X7406320Y-9195120D02*
X7366320Y-9235120D01*
X7367650Y-8062280D02*
X7407650Y-8102280D01*
X7407650Y-8062280D02*
X7367650Y-8102280D01*
X7378616Y-3049989D02*
X7418616Y-3089989D01*
X7418616Y-3049989D02*
X7378616Y-3089989D01*
X7381500Y-2782740D02*
X7421500Y-2822740D01*
X7421500Y-2782740D02*
X7381500Y-2822740D01*
X7394200Y-2205040D02*
X7434200Y-2245040D01*
X7434200Y-2205040D02*
X7394200Y-2245040D01*
X7434900Y-8410260D02*
X7474900Y-8450260D01*
X7474900Y-8410260D02*
X7434900Y-8450260D01*
X7455220Y-7954270D02*
X7495220Y-7994270D01*
X7495220Y-7954270D02*
X7455220Y-7994270D01*
X7493320Y-6611940D02*
X7533320Y-6651940D01*
X7533320Y-6611940D02*
X7493320Y-6651940D01*
X7527720Y-7173280D02*
X7567720Y-7213280D01*
X7567720Y-7173280D02*
X7527720Y-7213280D01*
X7538980Y-2916240D02*
X7578980Y-2956240D01*
X7578980Y-2916240D02*
X7538980Y-2956240D01*
X7564380Y-3602040D02*
X7604380Y-3642040D01*
X7604380Y-3602040D02*
X7564380Y-3642040D01*
X7640640Y-6426520D02*
X7680640Y-6466520D01*
X7680640Y-6426520D02*
X7640640Y-6466520D01*
X7660960Y-6695760D02*
X7700960Y-6735760D01*
X7700960Y-6695760D02*
X7660960Y-6735760D01*
X7660960Y-7439980D02*
X7700960Y-7479980D01*
X7700960Y-7439980D02*
X7660960Y-7479980D01*
X7663440Y-2083120D02*
X7703440Y-2123120D01*
X7703440Y-2083120D02*
X7663440Y-2123120D01*
X7682490Y-5857560D02*
X7722490Y-5897560D01*
X7722490Y-5857560D02*
X7682490Y-5897560D01*
X7686360Y-6830380D02*
X7726360Y-6870380D01*
X7726360Y-6830380D02*
X7686360Y-6870380D01*
X7754940Y-5573080D02*
X7794940Y-5613080D01*
X7794940Y-5573080D02*
X7754940Y-5613080D01*
X7790500Y-8280720D02*
X7830500Y-8320720D01*
X7830500Y-8280720D02*
X7790500Y-8320720D01*
X7815900Y-9254480D02*
X7855900Y-9294480D01*
X7855900Y-9254480D02*
X7815900Y-9294480D01*
X7915270Y-6205540D02*
X7955270Y-6245540D01*
X7955270Y-6205540D02*
X7915270Y-6245540D01*
X7927660Y-6713540D02*
X7967660Y-6753540D01*
X7967660Y-6713540D02*
X7927660Y-6753540D01*
X7960270Y-6425868D02*
X8000270Y-6465868D01*
X8000270Y-6425868D02*
X7960270Y-6465868D01*
X8041960Y-8015620D02*
X8081960Y-8055620D01*
X8081960Y-8015620D02*
X8041960Y-8055620D01*
X8050674Y-8206893D02*
X8090674Y-8246893D01*
X8090674Y-8206893D02*
X8050674Y-8246893D01*
X8052120Y-8643000D02*
X8092120Y-8683000D01*
X8092120Y-8643000D02*
X8052120Y-8683000D01*
X8052120Y-8843000D02*
X8092120Y-8883000D01*
X8092120Y-8843000D02*
X8052120Y-8883000D01*
X8062280Y-6829440D02*
X8102280Y-6869440D01*
X8102280Y-6829440D02*
X8062280Y-6869440D01*
X8062280Y-7029440D02*
X8102280Y-7069440D01*
X8102280Y-7029440D02*
X8062280Y-7069440D01*
X8072440Y-6191900D02*
X8112440Y-6231900D01*
X8112440Y-6191900D02*
X8072440Y-6231900D01*
X8072440Y-6391900D02*
X8112440Y-6431900D01*
X8112440Y-6391900D02*
X8072440Y-6431900D01*
X8135940Y-6614480D02*
X8175940Y-6654480D01*
X8175940Y-6614480D02*
X8135940Y-6654480D01*
X8161340Y-9578660D02*
X8201340Y-9618660D01*
X8201340Y-9578660D02*
X8161340Y-9618660D01*
X8219100Y-8450900D02*
X8259100Y-8490900D01*
X8259100Y-8450900D02*
X8219100Y-8490900D01*
X8252780Y-5955850D02*
X8292780Y-5995850D01*
X8292780Y-5955850D02*
X8252780Y-5995850D01*
X8257860Y-8013080D02*
X8297860Y-8053080D01*
X8297860Y-8013080D02*
X8257860Y-8053080D01*
X8257860Y-8213080D02*
X8297860Y-8253080D01*
X8297860Y-8213080D02*
X8257860Y-8253080D01*
X8259436Y-6758934D02*
X8299436Y-6798934D01*
X8299436Y-6758934D02*
X8259436Y-6798934D01*
X8265480Y-8640460D02*
X8305480Y-8680460D01*
X8305480Y-8640460D02*
X8265480Y-8680460D01*
X8265480Y-8840460D02*
X8305480Y-8880460D01*
X8305480Y-8840460D02*
X8265480Y-8880460D01*
X8287471Y-2411077D02*
X8327471Y-2451077D01*
X8327471Y-2411077D02*
X8287471Y-2451077D01*
X8302580Y-2926400D02*
X8342580Y-2966400D01*
X8342580Y-2926400D02*
X8302580Y-2966400D01*
X8302580Y-3221400D02*
X8342580Y-3261400D01*
X8342580Y-3221400D02*
X8302580Y-3261400D01*
X8310582Y-1956698D02*
X8350582Y-1996698D01*
X8350582Y-1956698D02*
X8310582Y-1996698D01*
X8378840Y-6422490D02*
X8418840Y-6462490D01*
X8418840Y-6422490D02*
X8378840Y-6462490D01*
X8378840Y-6703740D02*
X8418840Y-6743740D01*
X8418840Y-6703740D02*
X8378840Y-6743740D01*
X8404770Y-8430580D02*
X8444770Y-8470580D01*
X8444770Y-8430580D02*
X8404770Y-8470580D01*
X8422926Y-6574157D02*
X8462926Y-6614157D01*
X8462926Y-6574157D02*
X8422926Y-6614157D01*
X8440740Y-4527260D02*
X8480740Y-4567260D01*
X8480740Y-4527260D02*
X8440740Y-4567260D01*
X8475360Y-8265480D02*
X8515360Y-8305480D01*
X8515360Y-8265480D02*
X8475360Y-8305480D01*
X8480000Y-1680000D02*
X8520000Y-1720000D01*
X8520000Y-1680000D02*
X8480000Y-1720000D01*
X8547044Y-8480492D02*
X8587044Y-8520492D01*
X8587044Y-8480492D02*
X8547044Y-8520492D01*
X8562320Y-5819460D02*
X8602320Y-5859460D01*
X8602320Y-5819460D02*
X8562320Y-5859460D01*
X8572820Y-6185220D02*
X8612820Y-6225220D01*
X8612820Y-6185220D02*
X8572820Y-6225220D01*
X8598390Y-2046040D02*
X8638390Y-2086040D01*
X8638390Y-2046040D02*
X8598390Y-2086040D01*
X8598390Y-2491040D02*
X8638390Y-2531040D01*
X8638390Y-2491040D02*
X8598390Y-2531040D01*
X8616000Y-8796340D02*
X8656000Y-8836340D01*
X8656000Y-8796340D02*
X8616000Y-8836340D01*
X8618180Y-5431780D02*
X8658180Y-5471780D01*
X8658180Y-5431780D02*
X8618180Y-5471780D01*
X8630000Y-4380000D02*
X8670000Y-4420000D01*
X8670000Y-4380000D02*
X8630000Y-4420000D01*
X8658680Y-4801150D02*
X8698680Y-4841150D01*
X8698680Y-4801150D02*
X8658680Y-4841150D01*
X8742868Y-8001874D02*
X8782868Y-8041874D01*
X8782868Y-8001874D02*
X8742868Y-8041874D01*
X8745790Y-4988650D02*
X8785790Y-5028650D01*
X8785790Y-4988650D02*
X8745790Y-5028650D01*
X8753160Y-8468680D02*
X8793160Y-8508680D01*
X8793160Y-8468680D02*
X8753160Y-8508680D01*
X8768130Y-2939680D02*
X8808130Y-2979680D01*
X8808130Y-2939680D02*
X8768130Y-2979680D01*
X8770940Y-8839520D02*
X8810940Y-8879520D01*
X8810940Y-8839520D02*
X8770940Y-8879520D01*
X8775960Y-3116900D02*
X8815960Y-3156900D01*
X8815960Y-3116900D02*
X8775960Y-3156900D01*
X8778500Y-3396300D02*
X8818500Y-3436300D01*
X8818500Y-3396300D02*
X8778500Y-3436300D01*
X8782500Y-1680000D02*
X8822500Y-1720000D01*
X8822500Y-1680000D02*
X8782500Y-1720000D01*
X8830000Y-5480000D02*
X8870000Y-5520000D01*
X8870000Y-5480000D02*
X8830000Y-5520000D01*
X8895740Y-4527260D02*
X8935740Y-4567260D01*
X8935740Y-4527260D02*
X8895740Y-4567260D01*
X8905560Y-8445820D02*
X8945560Y-8485820D01*
X8945560Y-8445820D02*
X8905560Y-8485820D01*
X8910350Y-2799400D02*
X8950350Y-2839400D01*
X8950350Y-2799400D02*
X8910350Y-2839400D01*
X8910350Y-3244400D02*
X8950350Y-3284400D01*
X8950350Y-3244400D02*
X8910350Y-3284400D01*
X8991800Y-1912940D02*
X9031800Y-1952940D01*
X9031800Y-1912940D02*
X8991800Y-1952940D01*
X8991800Y-2241940D02*
X9031800Y-2281940D01*
X9031800Y-2241940D02*
X8991800Y-2281940D01*
X9002020Y-2939680D02*
X9042020Y-2979680D01*
X9042020Y-2939680D02*
X9002020Y-2979680D01*
X9017320Y-5819460D02*
X9057320Y-5859460D01*
X9057320Y-5819460D02*
X9017320Y-5859460D01*
X9019860Y-6942140D02*
X9059860Y-6982140D01*
X9059860Y-6942140D02*
X9019860Y-6982140D01*
X9030000Y-3530000D02*
X9070000Y-3570000D01*
X9070000Y-3530000D02*
X9030000Y-3570000D01*
X9070720Y-5604410D02*
X9110720Y-5644410D01*
X9110720Y-5604410D02*
X9070720Y-5644410D01*
X9098540Y-3149600D02*
X9138540Y-3189600D01*
X9138540Y-3149600D02*
X9098540Y-3189600D01*
X9103680Y-5085400D02*
X9143680Y-5125400D01*
X9143680Y-5085400D02*
X9103680Y-5125400D01*
X9198680Y-4988650D02*
X9238680Y-5028650D01*
X9238680Y-4988650D02*
X9198680Y-5028650D01*
X9220520Y-6241100D02*
X9260520Y-6281100D01*
X9260520Y-6241100D02*
X9220520Y-6281100D01*
X9244590Y-3701100D02*
X9284590Y-3741100D01*
X9284590Y-3701100D02*
X9244590Y-3741100D01*
X9282147Y-3422130D02*
X9322147Y-3462130D01*
X9322147Y-3422130D02*
X9282147Y-3462130D01*
X9317040Y-5199700D02*
X9357040Y-5239700D01*
X9357040Y-5199700D02*
X9317040Y-5239700D01*
X9352600Y-6162360D02*
X9392600Y-6202360D01*
X9392600Y-6162360D02*
X9352600Y-6202360D01*
X9389490Y-5955850D02*
X9429490Y-5995850D01*
X9429490Y-5955850D02*
X9389490Y-5995850D01*
X9423720Y-3485724D02*
X9463720Y-3525724D01*
X9463720Y-3485724D02*
X9423720Y-3525724D01*
X9434490Y-5702620D02*
X9474490Y-5742620D01*
X9474490Y-5702620D02*
X9434490Y-5742620D01*
X9450330Y-6324920D02*
X9490330Y-6364920D01*
X9490330Y-6324920D02*
X9450330Y-6364920D01*
X9450330Y-6840540D02*
X9490330Y-6880540D01*
X9490330Y-6840540D02*
X9450330Y-6880540D01*
X9474460Y-2939680D02*
X9514460Y-2979680D01*
X9514460Y-2939680D02*
X9474460Y-2979680D01*
X9498620Y-3394680D02*
X9538620Y-3434680D01*
X9538620Y-3394680D02*
X9498620Y-3434680D01*
X9502460Y-7185980D02*
X9542460Y-7225980D01*
X9542460Y-7185980D02*
X9502460Y-7225980D01*
X9507540Y-5105720D02*
X9547540Y-5145720D01*
X9547540Y-5105720D02*
X9507540Y-5145720D01*
X9578600Y-2539160D02*
X9618600Y-2579160D01*
X9618600Y-2539160D02*
X9578600Y-2579160D01*
X9595230Y-6060760D02*
X9635230Y-6100760D01*
X9635230Y-6060760D02*
X9595230Y-6100760D01*
X9595230Y-6294440D02*
X9635230Y-6334440D01*
X9635230Y-6294440D02*
X9595230Y-6334440D01*
X9595230Y-6868480D02*
X9635230Y-6908480D01*
X9635230Y-6868480D02*
X9595230Y-6908480D01*
X9600270Y-5260620D02*
X9640270Y-5300620D01*
X9640270Y-5260620D02*
X9600270Y-5300620D01*
X9601520Y-7046280D02*
X9641520Y-7086280D01*
X9641520Y-7046280D02*
X9601520Y-7086280D01*
X9640641Y-6586542D02*
X9680641Y-6626542D01*
X9680641Y-6586542D02*
X9640641Y-6626542D01*
X9699425Y-3111906D02*
X9739425Y-3151906D01*
X9739425Y-3111906D02*
X9699425Y-3151906D01*
X9733480Y-5722940D02*
X9773480Y-5762940D01*
X9773480Y-5722940D02*
X9733480Y-5762940D01*
X9733480Y-5976940D02*
X9773480Y-6016940D01*
X9773480Y-5976940D02*
X9733480Y-6016940D01*
X9736874Y-6258590D02*
X9776874Y-6298590D01*
X9776874Y-6258590D02*
X9736874Y-6298590D01*
X9741160Y-2052640D02*
X9781160Y-2092640D01*
X9781160Y-2052640D02*
X9741160Y-2092640D01*
X9750752Y-5448910D02*
X9790752Y-5488910D01*
X9790752Y-5448910D02*
X9750752Y-5488910D01*
X9756460Y-7732080D02*
X9796460Y-7772080D01*
X9796460Y-7732080D02*
X9756460Y-7772080D01*
X9764020Y-3477580D02*
X9804020Y-3517580D01*
X9804020Y-3477580D02*
X9764020Y-3517580D01*
X9769160Y-7119550D02*
X9809160Y-7159550D01*
X9809160Y-7119550D02*
X9769160Y-7159550D01*
X9781860Y-4976570D02*
X9821860Y-5016570D01*
X9821860Y-4976570D02*
X9781860Y-5016570D01*
X9837680Y-1930720D02*
X9877680Y-1970720D01*
X9877680Y-1930720D02*
X9837680Y-1970720D01*
X9851070Y-2539160D02*
X9891070Y-2579160D01*
X9891070Y-2539160D02*
X9851070Y-2579160D01*
X9891710Y-8128320D02*
X9931710Y-8168320D01*
X9931710Y-8128320D02*
X9891710Y-8168320D01*
X9901180Y-2263460D02*
X9941180Y-2303460D01*
X9941180Y-2263460D02*
X9901180Y-2303460D01*
X9903780Y-8638860D02*
X9943780Y-8678860D01*
X9943780Y-8638860D02*
X9903780Y-8678860D01*
X9919020Y-5082860D02*
X9959020Y-5122860D01*
X9959020Y-5082860D02*
X9919020Y-5122860D01*
X9926640Y-8844600D02*
X9966640Y-8884600D01*
X9966640Y-8844600D02*
X9926640Y-8884600D01*
X9953970Y-3130000D02*
X9993970Y-3170000D01*
X9993970Y-3130000D02*
X9953970Y-3170000D01*
X9980000Y-2180000D02*
X10020000Y-2220000D01*
X10020000Y-2180000D02*
X9980000Y-2220000D01*
X10030000Y-3030000D02*
X10070000Y-3070000D01*
X10070000Y-3030000D02*
X10030000Y-3070000D01*
X10036610Y-7480620D02*
X10076610Y-7520620D01*
X10076610Y-7480620D02*
X10036610Y-7520620D01*
X10180000Y-6980000D02*
X10220000Y-7020000D01*
X10220000Y-6980000D02*
X10180000Y-7020000D01*
X10381300Y-7099620D02*
X10421300Y-7139620D01*
X10421300Y-7099620D02*
X10381300Y-7139620D01*
X10440660Y-7506020D02*
X10480660Y-7546020D01*
X10480660Y-7506020D02*
X10440660Y-7546020D01*
X10594660Y-8621080D02*
X10634660Y-8661080D01*
X10634660Y-8621080D02*
X10594660Y-8661080D01*
X2469300Y-8928100D02*
G75*
G03*
X2469300Y-8928100I-32500J0D01*
G01*
X2483600Y-2768600D02*
G75*
G03*
X2483600Y-2768600I-32500J0D01*
G01*
X2596300Y-8928100D02*
G75*
G03*
X2596300Y-8928100I-32500J0D01*
G01*
X2610600Y-2768600D02*
G75*
G03*
X2610600Y-2768600I-32500J0D01*
G01*
X2723300Y-8928100D02*
G75*
G03*
X2723300Y-8928100I-32500J0D01*
G01*
X2737600Y-2768600D02*
G75*
G03*
X2737600Y-2768600I-32500J0D01*
G01*
X2611500Y-2416300D02*
X2611500Y-2511300D01*
X2564000Y-2463800D02*
X2659000Y-2463800D01*
X2632900Y-9190900D02*
X2632900Y-9285900D01*
X2585400Y-9238400D02*
X2680400Y-9238400D01*
X2861500Y-2416300D02*
X2861500Y-2511300D01*
X2814000Y-2463800D02*
X2909000Y-2463800D01*
X2882900Y-9190900D02*
X2882900Y-9285900D01*
X2835400Y-9238400D02*
X2930400Y-9238400D01*
X3111500Y-2416300D02*
X3111500Y-2511300D01*
X3064000Y-2463800D02*
X3159000Y-2463800D01*
X3132900Y-9190900D02*
X3132900Y-9285900D01*
X3085400Y-9238400D02*
X3180400Y-9238400D01*
X3263900Y-6632700D02*
X3263900Y-6727700D01*
X3216400Y-6680200D02*
X3311400Y-6680200D01*
X3263900Y-6882700D02*
X3263900Y-6977700D01*
X3216400Y-6930200D02*
X3311400Y-6930200D01*
X3263900Y-7132700D02*
X3263900Y-7227700D01*
X3216400Y-7180200D02*
X3311400Y-7180200D01*
X3263900Y-7382700D02*
X3263900Y-7477700D01*
X3216400Y-7430200D02*
X3311400Y-7430200D01*
X3263900Y-7632700D02*
X3263900Y-7727700D01*
X3216400Y-7680200D02*
X3311400Y-7680200D01*
X3263900Y-7882700D02*
X3263900Y-7977700D01*
X3216400Y-7930200D02*
X3311400Y-7930200D01*
X3897200Y-6630000D02*
X3897200Y-6725000D01*
X3849700Y-6677500D02*
X3944700Y-6677500D01*
X3897200Y-6880000D02*
X3897200Y-6975000D01*
X3849700Y-6927500D02*
X3944700Y-6927500D01*
X3897200Y-7130000D02*
X3897200Y-7225000D01*
X3849700Y-7177500D02*
X3944700Y-7177500D01*
X3897200Y-7380000D02*
X3897200Y-7475000D01*
X3849700Y-7427500D02*
X3944700Y-7427500D01*
X3897200Y-7630000D02*
X3897200Y-7725000D01*
X3849700Y-7677500D02*
X3944700Y-7677500D01*
X3897200Y-7880000D02*
X3897200Y-7975000D01*
X3849700Y-7927500D02*
X3944700Y-7927500D01*
X10314880Y-5212840D02*
X10314880Y-5307840D01*
X10267380Y-5260340D02*
X10362380Y-5260340D01*
X10314880Y-5462840D02*
X10314880Y-5557840D01*
X10267380Y-5510340D02*
X10362380Y-5510340D01*
X10314880Y-5712840D02*
X10314880Y-5807840D01*
X10267380Y-5760340D02*
X10362380Y-5760340D01*
X10314880Y-5962840D02*
X10314880Y-6057840D01*
X10267380Y-6010340D02*
X10362380Y-6010340D01*
X10314880Y-6212840D02*
X10314880Y-6307840D01*
X10267380Y-6260340D02*
X10362380Y-6260340D01*
X10314880Y-6462840D02*
X10314880Y-6557840D01*
X10267380Y-6510340D02*
X10362380Y-6510340D01*
X10314880Y-6712840D02*
X10314880Y-6807840D01*
X10267380Y-6760340D02*
X10362380Y-6760340D01*
X3326756Y-4787156D02*
X3326756Y-4716444D01*
X3256044Y-4716444D01*
X3256044Y-4787156D01*
X3326756Y-4787156D01*
X3326756Y-5037156D02*
X3326756Y-4966444D01*
X3256044Y-4966444D01*
X3256044Y-5037156D01*
X3326756Y-5037156D01*
X3326756Y-5732156D02*
X3326756Y-5661444D01*
X3256044Y-5661444D01*
X3256044Y-5732156D01*
X3326756Y-5732156D01*
X3326756Y-5982156D02*
X3326756Y-5911444D01*
X3256044Y-5911444D01*
X3256044Y-5982156D01*
X3326756Y-5982156D01*
D12*
X5397500Y-4483100D02*
X5448300Y-4432300D01*
X5397500Y-4381500D01*
X5346700Y-4432300D01*
X5397500Y-4483100D01*
X5397500Y-4737100D02*
X5448300Y-4686300D01*
X5397500Y-4635500D01*
X5346700Y-4686300D01*
X5397500Y-4737100D01*
X5397500Y-4991100D02*
X5448300Y-4940300D01*
X5397500Y-4889500D01*
X5346700Y-4940300D01*
X5397500Y-4991100D01*
X5397500Y-5245100D02*
X5448300Y-5194300D01*
X5397500Y-5143500D01*
X5346700Y-5194300D01*
X5397500Y-5245100D01*
X5397500Y-5499100D02*
X5448300Y-5448300D01*
X5397500Y-5397500D01*
X5346700Y-5448300D01*
X5397500Y-5499100D01*
X5397500Y-5753100D02*
X5448300Y-5702300D01*
X5397500Y-5651500D01*
X5346700Y-5702300D01*
X5397500Y-5753100D01*
X5397500Y-6007100D02*
X5448300Y-5956300D01*
X5397500Y-5905500D01*
X5346700Y-5956300D01*
X5397500Y-6007100D01*
X5397500Y-6261100D02*
X5448300Y-6210300D01*
X5397500Y-6159500D01*
X5346700Y-6210300D01*
X5397500Y-6261100D01*
X5397500Y-6515100D02*
X5448300Y-6464300D01*
X5397500Y-6413500D01*
X5346700Y-6464300D01*
X5397500Y-6515100D01*
X5397500Y-6769100D02*
X5448300Y-6718300D01*
X5397500Y-6667500D01*
X5346700Y-6718300D01*
X5397500Y-6769100D01*
X5397500Y-7023100D02*
X5448300Y-6972300D01*
X5397500Y-6921500D01*
X5346700Y-6972300D01*
X5397500Y-7023100D01*
X5397500Y-7277100D02*
X5448300Y-7226300D01*
X5397500Y-7175500D01*
X5346700Y-7226300D01*
X5397500Y-7277100D01*
X6159500Y-7277100D02*
X6210300Y-7226300D01*
X6159500Y-7175500D01*
X6108700Y-7226300D01*
X6159500Y-7277100D01*
X6413500Y-7277100D02*
X6464300Y-7226300D01*
X6413500Y-7175500D01*
X6362700Y-7226300D01*
X6413500Y-7277100D01*
X6667500Y-5372100D02*
X6718300Y-5321300D01*
X6667500Y-5270500D01*
X6616700Y-5321300D01*
X6667500Y-5372100D01*
X6667500Y-5626100D02*
X6718300Y-5575300D01*
X6667500Y-5524500D01*
X6616700Y-5575300D01*
X6667500Y-5626100D01*
X6667500Y-7277100D02*
X6718300Y-7226300D01*
X6667500Y-7175500D01*
X6616700Y-7226300D01*
X6667500Y-7277100D01*
X6921500Y-4483100D02*
X6972300Y-4432300D01*
X6921500Y-4381500D01*
X6870700Y-4432300D01*
X6921500Y-4483100D01*
X6921500Y-4737100D02*
X6972300Y-4686300D01*
X6921500Y-4635500D01*
X6870700Y-4686300D01*
X6921500Y-4737100D01*
X6921500Y-4991100D02*
X6972300Y-4940300D01*
X6921500Y-4889500D01*
X6870700Y-4940300D01*
X6921500Y-4991100D01*
X6921500Y-5245100D02*
X6972300Y-5194300D01*
X6921500Y-5143500D01*
X6870700Y-5194300D01*
X6921500Y-5245100D01*
X6921500Y-5499100D02*
X6972300Y-5448300D01*
X6921500Y-5397500D01*
X6870700Y-5448300D01*
X6921500Y-5499100D01*
X6921500Y-5753100D02*
X6972300Y-5702300D01*
X6921500Y-5651500D01*
X6870700Y-5702300D01*
X6921500Y-5753100D01*
X6921500Y-6007100D02*
X6972300Y-5956300D01*
X6921500Y-5905500D01*
X6870700Y-5956300D01*
X6921500Y-6007100D01*
X6921500Y-6261100D02*
X6972300Y-6210300D01*
X6921500Y-6159500D01*
X6870700Y-6210300D01*
X6921500Y-6261100D01*
X6921500Y-6515100D02*
X6972300Y-6464300D01*
X6921500Y-6413500D01*
X6870700Y-6464300D01*
X6921500Y-6515100D01*
X6921500Y-6769100D02*
X6972300Y-6718300D01*
X6921500Y-6667500D01*
X6870700Y-6718300D01*
X6921500Y-6769100D01*
X6921500Y-7023100D02*
X6972300Y-6972300D01*
X6921500Y-6921500D01*
X6870700Y-6972300D01*
X6921500Y-7023100D01*
X6921500Y-7277100D02*
X6972300Y-7226300D01*
X6921500Y-7175500D01*
X6870700Y-7226300D01*
X6921500Y-7277100D01*
D11*
X2503677Y-10400284D02*
X2503677Y-10200284D01*
X2503677Y-10200284D02*
X2551296Y-10200284D01*
X2551296Y-10200284D02*
X2579867Y-10209808D01*
X2579867Y-10209808D02*
X2598915Y-10228855D01*
X2598915Y-10228855D02*
X2608439Y-10247903D01*
X2608439Y-10247903D02*
X2617963Y-10285998D01*
X2617963Y-10285998D02*
X2617963Y-10314570D01*
X2617963Y-10314570D02*
X2608439Y-10352665D01*
X2608439Y-10352665D02*
X2598915Y-10371712D01*
X2598915Y-10371712D02*
X2579867Y-10390760D01*
X2579867Y-10390760D02*
X2551296Y-10400284D01*
X2551296Y-10400284D02*
X2503677Y-10400284D01*
X2703677Y-10400284D02*
X2703677Y-10266950D01*
X2703677Y-10305046D02*
X2713201Y-10285998D01*
X2713201Y-10285998D02*
X2722724Y-10276474D01*
X2722724Y-10276474D02*
X2741772Y-10266950D01*
X2741772Y-10266950D02*
X2760820Y-10266950D01*
X2827486Y-10400284D02*
X2827486Y-10266950D01*
X2827486Y-10200284D02*
X2817962Y-10209808D01*
X2817962Y-10209808D02*
X2827486Y-10219331D01*
X2827486Y-10219331D02*
X2837010Y-10209808D01*
X2837010Y-10209808D02*
X2827486Y-10200284D01*
X2827486Y-10200284D02*
X2827486Y-10219331D01*
X2951296Y-10400284D02*
X2932248Y-10390760D01*
X2932248Y-10390760D02*
X2922724Y-10371712D01*
X2922724Y-10371712D02*
X2922724Y-10200284D01*
X3056058Y-10400284D02*
X3037010Y-10390760D01*
X3037010Y-10390760D02*
X3027486Y-10371712D01*
X3027486Y-10371712D02*
X3027486Y-10200284D01*
X3284629Y-10400284D02*
X3284629Y-10200284D01*
X3284629Y-10200284D02*
X3351296Y-10343141D01*
X3351296Y-10343141D02*
X3417962Y-10200284D01*
X3417962Y-10200284D02*
X3417962Y-10400284D01*
X3598915Y-10400284D02*
X3598915Y-10295522D01*
X3598915Y-10295522D02*
X3589391Y-10276474D01*
X3589391Y-10276474D02*
X3570343Y-10266950D01*
X3570343Y-10266950D02*
X3532248Y-10266950D01*
X3532248Y-10266950D02*
X3513201Y-10276474D01*
X3598915Y-10390760D02*
X3579867Y-10400284D01*
X3579867Y-10400284D02*
X3532248Y-10400284D01*
X3532248Y-10400284D02*
X3513201Y-10390760D01*
X3513201Y-10390760D02*
X3503677Y-10371712D01*
X3503677Y-10371712D02*
X3503677Y-10352665D01*
X3503677Y-10352665D02*
X3513201Y-10333617D01*
X3513201Y-10333617D02*
X3532248Y-10324093D01*
X3532248Y-10324093D02*
X3579867Y-10324093D01*
X3579867Y-10324093D02*
X3598915Y-10314570D01*
X3694153Y-10266950D02*
X3694153Y-10466950D01*
X3694153Y-10276474D02*
X3713201Y-10266950D01*
X3713201Y-10266950D02*
X3751296Y-10266950D01*
X3751296Y-10266950D02*
X3770343Y-10276474D01*
X3770343Y-10276474D02*
X3779867Y-10285998D01*
X3779867Y-10285998D02*
X3789391Y-10305046D01*
X3789391Y-10305046D02*
X3789391Y-10362189D01*
X3789391Y-10362189D02*
X3779867Y-10381236D01*
X3779867Y-10381236D02*
X3770343Y-10390760D01*
X3770343Y-10390760D02*
X3751296Y-10400284D01*
X3751296Y-10400284D02*
X3713201Y-10400284D01*
X3713201Y-10400284D02*
X3694153Y-10390760D01*
X3875105Y-10381236D02*
X3884629Y-10390760D01*
X3884629Y-10390760D02*
X3875105Y-10400284D01*
X3875105Y-10400284D02*
X3865582Y-10390760D01*
X3865582Y-10390760D02*
X3875105Y-10381236D01*
X3875105Y-10381236D02*
X3875105Y-10400284D01*
X3875105Y-10276474D02*
X3884629Y-10285998D01*
X3884629Y-10285998D02*
X3875105Y-10295522D01*
X3875105Y-10295522D02*
X3865582Y-10285998D01*
X3865582Y-10285998D02*
X3875105Y-10276474D01*
X3875105Y-10276474D02*
X3875105Y-10295522D01*
D10*
X2202900Y-10708800D02*
X2242900Y-10748800D01*
X2242900Y-10708800D02*
X2202900Y-10748800D01*
D11*
X2541772Y-10620284D02*
X2560820Y-10620284D01*
X2560820Y-10620284D02*
X2579867Y-10629808D01*
X2579867Y-10629808D02*
X2589391Y-10639331D01*
X2589391Y-10639331D02*
X2598915Y-10658379D01*
X2598915Y-10658379D02*
X2608439Y-10696474D01*
X2608439Y-10696474D02*
X2608439Y-10744093D01*
X2608439Y-10744093D02*
X2598915Y-10782189D01*
X2598915Y-10782189D02*
X2589391Y-10801236D01*
X2589391Y-10801236D02*
X2579867Y-10810760D01*
X2579867Y-10810760D02*
X2560820Y-10820284D01*
X2560820Y-10820284D02*
X2541772Y-10820284D01*
X2541772Y-10820284D02*
X2522724Y-10810760D01*
X2522724Y-10810760D02*
X2513201Y-10801236D01*
X2513201Y-10801236D02*
X2503677Y-10782189D01*
X2503677Y-10782189D02*
X2494153Y-10744093D01*
X2494153Y-10744093D02*
X2494153Y-10696474D01*
X2494153Y-10696474D02*
X2503677Y-10658379D01*
X2503677Y-10658379D02*
X2513201Y-10639331D01*
X2513201Y-10639331D02*
X2522724Y-10629808D01*
X2522724Y-10629808D02*
X2541772Y-10620284D01*
X2694153Y-10801236D02*
X2703677Y-10810760D01*
X2703677Y-10810760D02*
X2694153Y-10820284D01*
X2694153Y-10820284D02*
X2684629Y-10810760D01*
X2684629Y-10810760D02*
X2694153Y-10801236D01*
X2694153Y-10801236D02*
X2694153Y-10820284D01*
X2875105Y-10686950D02*
X2875105Y-10820284D01*
X2827486Y-10610760D02*
X2779867Y-10753617D01*
X2779867Y-10753617D02*
X2903677Y-10753617D01*
X3017962Y-10620284D02*
X3037010Y-10620284D01*
X3037010Y-10620284D02*
X3056058Y-10629808D01*
X3056058Y-10629808D02*
X3065582Y-10639331D01*
X3065582Y-10639331D02*
X3075105Y-10658379D01*
X3075105Y-10658379D02*
X3084629Y-10696474D01*
X3084629Y-10696474D02*
X3084629Y-10744093D01*
X3084629Y-10744093D02*
X3075105Y-10782189D01*
X3075105Y-10782189D02*
X3065582Y-10801236D01*
X3065582Y-10801236D02*
X3056058Y-10810760D01*
X3056058Y-10810760D02*
X3037010Y-10820284D01*
X3037010Y-10820284D02*
X3017962Y-10820284D01*
X3017962Y-10820284D02*
X2998915Y-10810760D01*
X2998915Y-10810760D02*
X2989391Y-10801236D01*
X2989391Y-10801236D02*
X2979867Y-10782189D01*
X2979867Y-10782189D02*
X2970343Y-10744093D01*
X2970343Y-10744093D02*
X2970343Y-10696474D01*
X2970343Y-10696474D02*
X2979867Y-10658379D01*
X2979867Y-10658379D02*
X2989391Y-10639331D01*
X2989391Y-10639331D02*
X2998915Y-10629808D01*
X2998915Y-10629808D02*
X3017962Y-10620284D01*
X3208439Y-10620284D02*
X3227486Y-10620284D01*
X3227486Y-10620284D02*
X3246534Y-10629808D01*
X3246534Y-10629808D02*
X3256058Y-10639331D01*
X3256058Y-10639331D02*
X3265582Y-10658379D01*
X3265582Y-10658379D02*
X3275105Y-10696474D01*
X3275105Y-10696474D02*
X3275105Y-10744093D01*
X3275105Y-10744093D02*
X3265582Y-10782189D01*
X3265582Y-10782189D02*
X3256058Y-10801236D01*
X3256058Y-10801236D02*
X3246534Y-10810760D01*
X3246534Y-10810760D02*
X3227486Y-10820284D01*
X3227486Y-10820284D02*
X3208439Y-10820284D01*
X3208439Y-10820284D02*
X3189391Y-10810760D01*
X3189391Y-10810760D02*
X3179867Y-10801236D01*
X3179867Y-10801236D02*
X3170343Y-10782189D01*
X3170343Y-10782189D02*
X3160820Y-10744093D01*
X3160820Y-10744093D02*
X3160820Y-10696474D01*
X3160820Y-10696474D02*
X3170343Y-10658379D01*
X3170343Y-10658379D02*
X3179867Y-10639331D01*
X3179867Y-10639331D02*
X3189391Y-10629808D01*
X3189391Y-10629808D02*
X3208439Y-10620284D01*
X3360820Y-10820284D02*
X3360820Y-10686950D01*
X3360820Y-10705998D02*
X3370343Y-10696474D01*
X3370343Y-10696474D02*
X3389391Y-10686950D01*
X3389391Y-10686950D02*
X3417963Y-10686950D01*
X3417963Y-10686950D02*
X3437010Y-10696474D01*
X3437010Y-10696474D02*
X3446534Y-10715522D01*
X3446534Y-10715522D02*
X3446534Y-10820284D01*
X3446534Y-10715522D02*
X3456058Y-10696474D01*
X3456058Y-10696474D02*
X3475105Y-10686950D01*
X3475105Y-10686950D02*
X3503677Y-10686950D01*
X3503677Y-10686950D02*
X3522724Y-10696474D01*
X3522724Y-10696474D02*
X3532248Y-10715522D01*
X3532248Y-10715522D02*
X3532248Y-10820284D01*
X3627486Y-10820284D02*
X3627486Y-10686950D01*
X3627486Y-10705998D02*
X3637010Y-10696474D01*
X3637010Y-10696474D02*
X3656058Y-10686950D01*
X3656058Y-10686950D02*
X3684629Y-10686950D01*
X3684629Y-10686950D02*
X3703677Y-10696474D01*
X3703677Y-10696474D02*
X3713201Y-10715522D01*
X3713201Y-10715522D02*
X3713201Y-10820284D01*
X3713201Y-10715522D02*
X3722724Y-10696474D01*
X3722724Y-10696474D02*
X3741772Y-10686950D01*
X3741772Y-10686950D02*
X3770343Y-10686950D01*
X3770343Y-10686950D02*
X3789391Y-10696474D01*
X3789391Y-10696474D02*
X3798915Y-10715522D01*
X3798915Y-10715522D02*
X3798915Y-10820284D01*
X4189391Y-10610760D02*
X4017963Y-10867903D01*
X4446534Y-10620284D02*
X4465582Y-10620284D01*
X4465582Y-10620284D02*
X4484629Y-10629808D01*
X4484629Y-10629808D02*
X4494153Y-10639331D01*
X4494153Y-10639331D02*
X4503677Y-10658379D01*
X4503677Y-10658379D02*
X4513201Y-10696474D01*
X4513201Y-10696474D02*
X4513201Y-10744093D01*
X4513201Y-10744093D02*
X4503677Y-10782189D01*
X4503677Y-10782189D02*
X4494153Y-10801236D01*
X4494153Y-10801236D02*
X4484629Y-10810760D01*
X4484629Y-10810760D02*
X4465582Y-10820284D01*
X4465582Y-10820284D02*
X4446534Y-10820284D01*
X4446534Y-10820284D02*
X4427487Y-10810760D01*
X4427487Y-10810760D02*
X4417963Y-10801236D01*
X4417963Y-10801236D02*
X4408439Y-10782189D01*
X4408439Y-10782189D02*
X4398915Y-10744093D01*
X4398915Y-10744093D02*
X4398915Y-10696474D01*
X4398915Y-10696474D02*
X4408439Y-10658379D01*
X4408439Y-10658379D02*
X4417963Y-10639331D01*
X4417963Y-10639331D02*
X4427487Y-10629808D01*
X4427487Y-10629808D02*
X4446534Y-10620284D01*
X4598915Y-10801236D02*
X4608439Y-10810760D01*
X4608439Y-10810760D02*
X4598915Y-10820284D01*
X4598915Y-10820284D02*
X4589391Y-10810760D01*
X4589391Y-10810760D02*
X4598915Y-10801236D01*
X4598915Y-10801236D02*
X4598915Y-10820284D01*
X4732248Y-10620284D02*
X4751296Y-10620284D01*
X4751296Y-10620284D02*
X4770344Y-10629808D01*
X4770344Y-10629808D02*
X4779868Y-10639331D01*
X4779868Y-10639331D02*
X4789391Y-10658379D01*
X4789391Y-10658379D02*
X4798915Y-10696474D01*
X4798915Y-10696474D02*
X4798915Y-10744093D01*
X4798915Y-10744093D02*
X4789391Y-10782189D01*
X4789391Y-10782189D02*
X4779868Y-10801236D01*
X4779868Y-10801236D02*
X4770344Y-10810760D01*
X4770344Y-10810760D02*
X4751296Y-10820284D01*
X4751296Y-10820284D02*
X4732248Y-10820284D01*
X4732248Y-10820284D02*
X4713201Y-10810760D01*
X4713201Y-10810760D02*
X4703677Y-10801236D01*
X4703677Y-10801236D02*
X4694153Y-10782189D01*
X4694153Y-10782189D02*
X4684629Y-10744093D01*
X4684629Y-10744093D02*
X4684629Y-10696474D01*
X4684629Y-10696474D02*
X4694153Y-10658379D01*
X4694153Y-10658379D02*
X4703677Y-10639331D01*
X4703677Y-10639331D02*
X4713201Y-10629808D01*
X4713201Y-10629808D02*
X4732248Y-10620284D01*
X4989391Y-10820284D02*
X4875106Y-10820284D01*
X4932248Y-10820284D02*
X4932248Y-10620284D01*
X4932248Y-10620284D02*
X4913201Y-10648855D01*
X4913201Y-10648855D02*
X4894153Y-10667903D01*
X4894153Y-10667903D02*
X4875106Y-10677427D01*
X5170344Y-10620284D02*
X5075106Y-10620284D01*
X5075106Y-10620284D02*
X5065582Y-10715522D01*
X5065582Y-10715522D02*
X5075106Y-10705998D01*
X5075106Y-10705998D02*
X5094153Y-10696474D01*
X5094153Y-10696474D02*
X5141772Y-10696474D01*
X5141772Y-10696474D02*
X5160820Y-10705998D01*
X5160820Y-10705998D02*
X5170344Y-10715522D01*
X5170344Y-10715522D02*
X5179868Y-10734570D01*
X5179868Y-10734570D02*
X5179868Y-10782189D01*
X5179868Y-10782189D02*
X5170344Y-10801236D01*
X5170344Y-10801236D02*
X5160820Y-10810760D01*
X5160820Y-10810760D02*
X5141772Y-10820284D01*
X5141772Y-10820284D02*
X5094153Y-10820284D01*
X5094153Y-10820284D02*
X5075106Y-10810760D01*
X5075106Y-10810760D02*
X5065582Y-10801236D01*
X5246534Y-10620284D02*
X5379868Y-10620284D01*
X5379868Y-10620284D02*
X5294153Y-10820284D01*
X5446534Y-10620284D02*
X5446534Y-10658379D01*
X5522725Y-10620284D02*
X5522725Y-10658379D01*
X5817963Y-10896474D02*
X5808439Y-10886950D01*
X5808439Y-10886950D02*
X5789391Y-10858379D01*
X5789391Y-10858379D02*
X5779868Y-10839331D01*
X5779868Y-10839331D02*
X5770344Y-10810760D01*
X5770344Y-10810760D02*
X5760820Y-10763141D01*
X5760820Y-10763141D02*
X5760820Y-10725046D01*
X5760820Y-10725046D02*
X5770344Y-10677427D01*
X5770344Y-10677427D02*
X5779868Y-10648855D01*
X5779868Y-10648855D02*
X5789391Y-10629808D01*
X5789391Y-10629808D02*
X5808439Y-10601236D01*
X5808439Y-10601236D02*
X5817963Y-10591712D01*
X5884629Y-10639331D02*
X5894153Y-10629808D01*
X5894153Y-10629808D02*
X5913201Y-10620284D01*
X5913201Y-10620284D02*
X5960820Y-10620284D01*
X5960820Y-10620284D02*
X5979868Y-10629808D01*
X5979868Y-10629808D02*
X5989391Y-10639331D01*
X5989391Y-10639331D02*
X5998915Y-10658379D01*
X5998915Y-10658379D02*
X5998915Y-10677427D01*
X5998915Y-10677427D02*
X5989391Y-10705998D01*
X5989391Y-10705998D02*
X5875106Y-10820284D01*
X5875106Y-10820284D02*
X5998915Y-10820284D01*
X6189391Y-10820284D02*
X6075106Y-10820284D01*
X6132248Y-10820284D02*
X6132248Y-10620284D01*
X6132248Y-10620284D02*
X6113201Y-10648855D01*
X6113201Y-10648855D02*
X6094153Y-10667903D01*
X6094153Y-10667903D02*
X6075106Y-10677427D01*
X6265582Y-10639331D02*
X6275106Y-10629808D01*
X6275106Y-10629808D02*
X6294153Y-10620284D01*
X6294153Y-10620284D02*
X6341772Y-10620284D01*
X6341772Y-10620284D02*
X6360820Y-10629808D01*
X6360820Y-10629808D02*
X6370344Y-10639331D01*
X6370344Y-10639331D02*
X6379868Y-10658379D01*
X6379868Y-10658379D02*
X6379868Y-10677427D01*
X6379868Y-10677427D02*
X6370344Y-10705998D01*
X6370344Y-10705998D02*
X6256058Y-10820284D01*
X6256058Y-10820284D02*
X6379868Y-10820284D01*
X6617963Y-10820284D02*
X6617963Y-10620284D01*
X6703677Y-10820284D02*
X6703677Y-10715522D01*
X6703677Y-10715522D02*
X6694153Y-10696474D01*
X6694153Y-10696474D02*
X6675106Y-10686950D01*
X6675106Y-10686950D02*
X6646534Y-10686950D01*
X6646534Y-10686950D02*
X6627487Y-10696474D01*
X6627487Y-10696474D02*
X6617963Y-10705998D01*
X6827487Y-10820284D02*
X6808439Y-10810760D01*
X6808439Y-10810760D02*
X6798915Y-10801236D01*
X6798915Y-10801236D02*
X6789391Y-10782189D01*
X6789391Y-10782189D02*
X6789391Y-10725046D01*
X6789391Y-10725046D02*
X6798915Y-10705998D01*
X6798915Y-10705998D02*
X6808439Y-10696474D01*
X6808439Y-10696474D02*
X6827487Y-10686950D01*
X6827487Y-10686950D02*
X6856058Y-10686950D01*
X6856058Y-10686950D02*
X6875106Y-10696474D01*
X6875106Y-10696474D02*
X6884630Y-10705998D01*
X6884630Y-10705998D02*
X6894153Y-10725046D01*
X6894153Y-10725046D02*
X6894153Y-10782189D01*
X6894153Y-10782189D02*
X6884630Y-10801236D01*
X6884630Y-10801236D02*
X6875106Y-10810760D01*
X6875106Y-10810760D02*
X6856058Y-10820284D01*
X6856058Y-10820284D02*
X6827487Y-10820284D01*
X7008439Y-10820284D02*
X6989391Y-10810760D01*
X6989391Y-10810760D02*
X6979868Y-10791712D01*
X6979868Y-10791712D02*
X6979868Y-10620284D01*
X7160820Y-10810760D02*
X7141772Y-10820284D01*
X7141772Y-10820284D02*
X7103677Y-10820284D01*
X7103677Y-10820284D02*
X7084630Y-10810760D01*
X7084630Y-10810760D02*
X7075106Y-10791712D01*
X7075106Y-10791712D02*
X7075106Y-10715522D01*
X7075106Y-10715522D02*
X7084630Y-10696474D01*
X7084630Y-10696474D02*
X7103677Y-10686950D01*
X7103677Y-10686950D02*
X7141772Y-10686950D01*
X7141772Y-10686950D02*
X7160820Y-10696474D01*
X7160820Y-10696474D02*
X7170344Y-10715522D01*
X7170344Y-10715522D02*
X7170344Y-10734570D01*
X7170344Y-10734570D02*
X7075106Y-10753617D01*
X7246534Y-10810760D02*
X7265582Y-10820284D01*
X7265582Y-10820284D02*
X7303677Y-10820284D01*
X7303677Y-10820284D02*
X7322725Y-10810760D01*
X7322725Y-10810760D02*
X7332249Y-10791712D01*
X7332249Y-10791712D02*
X7332249Y-10782189D01*
X7332249Y-10782189D02*
X7322725Y-10763141D01*
X7322725Y-10763141D02*
X7303677Y-10753617D01*
X7303677Y-10753617D02*
X7275106Y-10753617D01*
X7275106Y-10753617D02*
X7256058Y-10744093D01*
X7256058Y-10744093D02*
X7246534Y-10725046D01*
X7246534Y-10725046D02*
X7246534Y-10715522D01*
X7246534Y-10715522D02*
X7256058Y-10696474D01*
X7256058Y-10696474D02*
X7275106Y-10686950D01*
X7275106Y-10686950D02*
X7303677Y-10686950D01*
X7303677Y-10686950D02*
X7322725Y-10696474D01*
X7398915Y-10896474D02*
X7408439Y-10886950D01*
X7408439Y-10886950D02*
X7427487Y-10858379D01*
X7427487Y-10858379D02*
X7437011Y-10839331D01*
X7437011Y-10839331D02*
X7446534Y-10810760D01*
X7446534Y-10810760D02*
X7456058Y-10763141D01*
X7456058Y-10763141D02*
X7456058Y-10725046D01*
X7456058Y-10725046D02*
X7446534Y-10677427D01*
X7446534Y-10677427D02*
X7437011Y-10648855D01*
X7437011Y-10648855D02*
X7427487Y-10629808D01*
X7427487Y-10629808D02*
X7408439Y-10601236D01*
X7408439Y-10601236D02*
X7398915Y-10591712D01*
D10*
X2242900Y-10992800D02*
G75*
G03*
X2242900Y-10992800I-32500J0D01*
G01*
D11*
X2541772Y-10884284D02*
X2560820Y-10884284D01*
X2560820Y-10884284D02*
X2579867Y-10893808D01*
X2579867Y-10893808D02*
X2589391Y-10903331D01*
X2589391Y-10903331D02*
X2598915Y-10922379D01*
X2598915Y-10922379D02*
X2608439Y-10960474D01*
X2608439Y-10960474D02*
X2608439Y-11008093D01*
X2608439Y-11008093D02*
X2598915Y-11046189D01*
X2598915Y-11046189D02*
X2589391Y-11065236D01*
X2589391Y-11065236D02*
X2579867Y-11074760D01*
X2579867Y-11074760D02*
X2560820Y-11084284D01*
X2560820Y-11084284D02*
X2541772Y-11084284D01*
X2541772Y-11084284D02*
X2522724Y-11074760D01*
X2522724Y-11074760D02*
X2513201Y-11065236D01*
X2513201Y-11065236D02*
X2503677Y-11046189D01*
X2503677Y-11046189D02*
X2494153Y-11008093D01*
X2494153Y-11008093D02*
X2494153Y-10960474D01*
X2494153Y-10960474D02*
X2503677Y-10922379D01*
X2503677Y-10922379D02*
X2513201Y-10903331D01*
X2513201Y-10903331D02*
X2522724Y-10893808D01*
X2522724Y-10893808D02*
X2541772Y-10884284D01*
X2694153Y-11065236D02*
X2703677Y-11074760D01*
X2703677Y-11074760D02*
X2694153Y-11084284D01*
X2694153Y-11084284D02*
X2684629Y-11074760D01*
X2684629Y-11074760D02*
X2694153Y-11065236D01*
X2694153Y-11065236D02*
X2694153Y-11084284D01*
X2875105Y-10884284D02*
X2837010Y-10884284D01*
X2837010Y-10884284D02*
X2817962Y-10893808D01*
X2817962Y-10893808D02*
X2808439Y-10903331D01*
X2808439Y-10903331D02*
X2789391Y-10931903D01*
X2789391Y-10931903D02*
X2779867Y-10969998D01*
X2779867Y-10969998D02*
X2779867Y-11046189D01*
X2779867Y-11046189D02*
X2789391Y-11065236D01*
X2789391Y-11065236D02*
X2798915Y-11074760D01*
X2798915Y-11074760D02*
X2817962Y-11084284D01*
X2817962Y-11084284D02*
X2856058Y-11084284D01*
X2856058Y-11084284D02*
X2875105Y-11074760D01*
X2875105Y-11074760D02*
X2884629Y-11065236D01*
X2884629Y-11065236D02*
X2894153Y-11046189D01*
X2894153Y-11046189D02*
X2894153Y-10998570D01*
X2894153Y-10998570D02*
X2884629Y-10979522D01*
X2884629Y-10979522D02*
X2875105Y-10969998D01*
X2875105Y-10969998D02*
X2856058Y-10960474D01*
X2856058Y-10960474D02*
X2817962Y-10960474D01*
X2817962Y-10960474D02*
X2798915Y-10969998D01*
X2798915Y-10969998D02*
X2789391Y-10979522D01*
X2789391Y-10979522D02*
X2779867Y-10998570D01*
X3075105Y-10884284D02*
X2979867Y-10884284D01*
X2979867Y-10884284D02*
X2970343Y-10979522D01*
X2970343Y-10979522D02*
X2979867Y-10969998D01*
X2979867Y-10969998D02*
X2998915Y-10960474D01*
X2998915Y-10960474D02*
X3046534Y-10960474D01*
X3046534Y-10960474D02*
X3065582Y-10969998D01*
X3065582Y-10969998D02*
X3075105Y-10979522D01*
X3075105Y-10979522D02*
X3084629Y-10998570D01*
X3084629Y-10998570D02*
X3084629Y-11046189D01*
X3084629Y-11046189D02*
X3075105Y-11065236D01*
X3075105Y-11065236D02*
X3065582Y-11074760D01*
X3065582Y-11074760D02*
X3046534Y-11084284D01*
X3046534Y-11084284D02*
X2998915Y-11084284D01*
X2998915Y-11084284D02*
X2979867Y-11074760D01*
X2979867Y-11074760D02*
X2970343Y-11065236D01*
X3208439Y-10884284D02*
X3227486Y-10884284D01*
X3227486Y-10884284D02*
X3246534Y-10893808D01*
X3246534Y-10893808D02*
X3256058Y-10903331D01*
X3256058Y-10903331D02*
X3265582Y-10922379D01*
X3265582Y-10922379D02*
X3275105Y-10960474D01*
X3275105Y-10960474D02*
X3275105Y-11008093D01*
X3275105Y-11008093D02*
X3265582Y-11046189D01*
X3265582Y-11046189D02*
X3256058Y-11065236D01*
X3256058Y-11065236D02*
X3246534Y-11074760D01*
X3246534Y-11074760D02*
X3227486Y-11084284D01*
X3227486Y-11084284D02*
X3208439Y-11084284D01*
X3208439Y-11084284D02*
X3189391Y-11074760D01*
X3189391Y-11074760D02*
X3179867Y-11065236D01*
X3179867Y-11065236D02*
X3170343Y-11046189D01*
X3170343Y-11046189D02*
X3160820Y-11008093D01*
X3160820Y-11008093D02*
X3160820Y-10960474D01*
X3160820Y-10960474D02*
X3170343Y-10922379D01*
X3170343Y-10922379D02*
X3179867Y-10903331D01*
X3179867Y-10903331D02*
X3189391Y-10893808D01*
X3189391Y-10893808D02*
X3208439Y-10884284D01*
X3360820Y-11084284D02*
X3360820Y-10950950D01*
X3360820Y-10969998D02*
X3370343Y-10960474D01*
X3370343Y-10960474D02*
X3389391Y-10950950D01*
X3389391Y-10950950D02*
X3417963Y-10950950D01*
X3417963Y-10950950D02*
X3437010Y-10960474D01*
X3437010Y-10960474D02*
X3446534Y-10979522D01*
X3446534Y-10979522D02*
X3446534Y-11084284D01*
X3446534Y-10979522D02*
X3456058Y-10960474D01*
X3456058Y-10960474D02*
X3475105Y-10950950D01*
X3475105Y-10950950D02*
X3503677Y-10950950D01*
X3503677Y-10950950D02*
X3522724Y-10960474D01*
X3522724Y-10960474D02*
X3532248Y-10979522D01*
X3532248Y-10979522D02*
X3532248Y-11084284D01*
X3627486Y-11084284D02*
X3627486Y-10950950D01*
X3627486Y-10969998D02*
X3637010Y-10960474D01*
X3637010Y-10960474D02*
X3656058Y-10950950D01*
X3656058Y-10950950D02*
X3684629Y-10950950D01*
X3684629Y-10950950D02*
X3703677Y-10960474D01*
X3703677Y-10960474D02*
X3713201Y-10979522D01*
X3713201Y-10979522D02*
X3713201Y-11084284D01*
X3713201Y-10979522D02*
X3722724Y-10960474D01*
X3722724Y-10960474D02*
X3741772Y-10950950D01*
X3741772Y-10950950D02*
X3770343Y-10950950D01*
X3770343Y-10950950D02*
X3789391Y-10960474D01*
X3789391Y-10960474D02*
X3798915Y-10979522D01*
X3798915Y-10979522D02*
X3798915Y-11084284D01*
X4189391Y-10874760D02*
X4017963Y-11131903D01*
X4446534Y-10884284D02*
X4465582Y-10884284D01*
X4465582Y-10884284D02*
X4484629Y-10893808D01*
X4484629Y-10893808D02*
X4494153Y-10903331D01*
X4494153Y-10903331D02*
X4503677Y-10922379D01*
X4503677Y-10922379D02*
X4513201Y-10960474D01*
X4513201Y-10960474D02*
X4513201Y-11008093D01*
X4513201Y-11008093D02*
X4503677Y-11046189D01*
X4503677Y-11046189D02*
X4494153Y-11065236D01*
X4494153Y-11065236D02*
X4484629Y-11074760D01*
X4484629Y-11074760D02*
X4465582Y-11084284D01*
X4465582Y-11084284D02*
X4446534Y-11084284D01*
X4446534Y-11084284D02*
X4427487Y-11074760D01*
X4427487Y-11074760D02*
X4417963Y-11065236D01*
X4417963Y-11065236D02*
X4408439Y-11046189D01*
X4408439Y-11046189D02*
X4398915Y-11008093D01*
X4398915Y-11008093D02*
X4398915Y-10960474D01*
X4398915Y-10960474D02*
X4408439Y-10922379D01*
X4408439Y-10922379D02*
X4417963Y-10903331D01*
X4417963Y-10903331D02*
X4427487Y-10893808D01*
X4427487Y-10893808D02*
X4446534Y-10884284D01*
X4598915Y-11065236D02*
X4608439Y-11074760D01*
X4608439Y-11074760D02*
X4598915Y-11084284D01*
X4598915Y-11084284D02*
X4589391Y-11074760D01*
X4589391Y-11074760D02*
X4598915Y-11065236D01*
X4598915Y-11065236D02*
X4598915Y-11084284D01*
X4732248Y-10884284D02*
X4751296Y-10884284D01*
X4751296Y-10884284D02*
X4770344Y-10893808D01*
X4770344Y-10893808D02*
X4779868Y-10903331D01*
X4779868Y-10903331D02*
X4789391Y-10922379D01*
X4789391Y-10922379D02*
X4798915Y-10960474D01*
X4798915Y-10960474D02*
X4798915Y-11008093D01*
X4798915Y-11008093D02*
X4789391Y-11046189D01*
X4789391Y-11046189D02*
X4779868Y-11065236D01*
X4779868Y-11065236D02*
X4770344Y-11074760D01*
X4770344Y-11074760D02*
X4751296Y-11084284D01*
X4751296Y-11084284D02*
X4732248Y-11084284D01*
X4732248Y-11084284D02*
X4713201Y-11074760D01*
X4713201Y-11074760D02*
X4703677Y-11065236D01*
X4703677Y-11065236D02*
X4694153Y-11046189D01*
X4694153Y-11046189D02*
X4684629Y-11008093D01*
X4684629Y-11008093D02*
X4684629Y-10960474D01*
X4684629Y-10960474D02*
X4694153Y-10922379D01*
X4694153Y-10922379D02*
X4703677Y-10903331D01*
X4703677Y-10903331D02*
X4713201Y-10893808D01*
X4713201Y-10893808D02*
X4732248Y-10884284D01*
X4875106Y-10903331D02*
X4884629Y-10893808D01*
X4884629Y-10893808D02*
X4903677Y-10884284D01*
X4903677Y-10884284D02*
X4951296Y-10884284D01*
X4951296Y-10884284D02*
X4970344Y-10893808D01*
X4970344Y-10893808D02*
X4979868Y-10903331D01*
X4979868Y-10903331D02*
X4989391Y-10922379D01*
X4989391Y-10922379D02*
X4989391Y-10941427D01*
X4989391Y-10941427D02*
X4979868Y-10969998D01*
X4979868Y-10969998D02*
X4865582Y-11084284D01*
X4865582Y-11084284D02*
X4989391Y-11084284D01*
X5170344Y-10884284D02*
X5075106Y-10884284D01*
X5075106Y-10884284D02*
X5065582Y-10979522D01*
X5065582Y-10979522D02*
X5075106Y-10969998D01*
X5075106Y-10969998D02*
X5094153Y-10960474D01*
X5094153Y-10960474D02*
X5141772Y-10960474D01*
X5141772Y-10960474D02*
X5160820Y-10969998D01*
X5160820Y-10969998D02*
X5170344Y-10979522D01*
X5170344Y-10979522D02*
X5179868Y-10998570D01*
X5179868Y-10998570D02*
X5179868Y-11046189D01*
X5179868Y-11046189D02*
X5170344Y-11065236D01*
X5170344Y-11065236D02*
X5160820Y-11074760D01*
X5160820Y-11074760D02*
X5141772Y-11084284D01*
X5141772Y-11084284D02*
X5094153Y-11084284D01*
X5094153Y-11084284D02*
X5075106Y-11074760D01*
X5075106Y-11074760D02*
X5065582Y-11065236D01*
X5351296Y-10884284D02*
X5313201Y-10884284D01*
X5313201Y-10884284D02*
X5294153Y-10893808D01*
X5294153Y-10893808D02*
X5284629Y-10903331D01*
X5284629Y-10903331D02*
X5265582Y-10931903D01*
X5265582Y-10931903D02*
X5256058Y-10969998D01*
X5256058Y-10969998D02*
X5256058Y-11046189D01*
X5256058Y-11046189D02*
X5265582Y-11065236D01*
X5265582Y-11065236D02*
X5275106Y-11074760D01*
X5275106Y-11074760D02*
X5294153Y-11084284D01*
X5294153Y-11084284D02*
X5332249Y-11084284D01*
X5332249Y-11084284D02*
X5351296Y-11074760D01*
X5351296Y-11074760D02*
X5360820Y-11065236D01*
X5360820Y-11065236D02*
X5370344Y-11046189D01*
X5370344Y-11046189D02*
X5370344Y-10998570D01*
X5370344Y-10998570D02*
X5360820Y-10979522D01*
X5360820Y-10979522D02*
X5351296Y-10969998D01*
X5351296Y-10969998D02*
X5332249Y-10960474D01*
X5332249Y-10960474D02*
X5294153Y-10960474D01*
X5294153Y-10960474D02*
X5275106Y-10969998D01*
X5275106Y-10969998D02*
X5265582Y-10979522D01*
X5265582Y-10979522D02*
X5256058Y-10998570D01*
X5446534Y-10884284D02*
X5446534Y-10922379D01*
X5522725Y-10884284D02*
X5522725Y-10922379D01*
X5817963Y-11160474D02*
X5808439Y-11150950D01*
X5808439Y-11150950D02*
X5789391Y-11122379D01*
X5789391Y-11122379D02*
X5779868Y-11103331D01*
X5779868Y-11103331D02*
X5770344Y-11074760D01*
X5770344Y-11074760D02*
X5760820Y-11027141D01*
X5760820Y-11027141D02*
X5760820Y-10989046D01*
X5760820Y-10989046D02*
X5770344Y-10941427D01*
X5770344Y-10941427D02*
X5779868Y-10912855D01*
X5779868Y-10912855D02*
X5789391Y-10893808D01*
X5789391Y-10893808D02*
X5808439Y-10865236D01*
X5808439Y-10865236D02*
X5817963Y-10855712D01*
X5979868Y-10884284D02*
X5941772Y-10884284D01*
X5941772Y-10884284D02*
X5922725Y-10893808D01*
X5922725Y-10893808D02*
X5913201Y-10903331D01*
X5913201Y-10903331D02*
X5894153Y-10931903D01*
X5894153Y-10931903D02*
X5884629Y-10969998D01*
X5884629Y-10969998D02*
X5884629Y-11046189D01*
X5884629Y-11046189D02*
X5894153Y-11065236D01*
X5894153Y-11065236D02*
X5903677Y-11074760D01*
X5903677Y-11074760D02*
X5922725Y-11084284D01*
X5922725Y-11084284D02*
X5960820Y-11084284D01*
X5960820Y-11084284D02*
X5979868Y-11074760D01*
X5979868Y-11074760D02*
X5989391Y-11065236D01*
X5989391Y-11065236D02*
X5998915Y-11046189D01*
X5998915Y-11046189D02*
X5998915Y-10998570D01*
X5998915Y-10998570D02*
X5989391Y-10979522D01*
X5989391Y-10979522D02*
X5979868Y-10969998D01*
X5979868Y-10969998D02*
X5960820Y-10960474D01*
X5960820Y-10960474D02*
X5922725Y-10960474D01*
X5922725Y-10960474D02*
X5903677Y-10969998D01*
X5903677Y-10969998D02*
X5894153Y-10979522D01*
X5894153Y-10979522D02*
X5884629Y-10998570D01*
X6237010Y-11084284D02*
X6237010Y-10884284D01*
X6322725Y-11084284D02*
X6322725Y-10979522D01*
X6322725Y-10979522D02*
X6313201Y-10960474D01*
X6313201Y-10960474D02*
X6294153Y-10950950D01*
X6294153Y-10950950D02*
X6265582Y-10950950D01*
X6265582Y-10950950D02*
X6246534Y-10960474D01*
X6246534Y-10960474D02*
X6237010Y-10969998D01*
X6446534Y-11084284D02*
X6427487Y-11074760D01*
X6427487Y-11074760D02*
X6417963Y-11065236D01*
X6417963Y-11065236D02*
X6408439Y-11046189D01*
X6408439Y-11046189D02*
X6408439Y-10989046D01*
X6408439Y-10989046D02*
X6417963Y-10969998D01*
X6417963Y-10969998D02*
X6427487Y-10960474D01*
X6427487Y-10960474D02*
X6446534Y-10950950D01*
X6446534Y-10950950D02*
X6475106Y-10950950D01*
X6475106Y-10950950D02*
X6494153Y-10960474D01*
X6494153Y-10960474D02*
X6503677Y-10969998D01*
X6503677Y-10969998D02*
X6513201Y-10989046D01*
X6513201Y-10989046D02*
X6513201Y-11046189D01*
X6513201Y-11046189D02*
X6503677Y-11065236D01*
X6503677Y-11065236D02*
X6494153Y-11074760D01*
X6494153Y-11074760D02*
X6475106Y-11084284D01*
X6475106Y-11084284D02*
X6446534Y-11084284D01*
X6627487Y-11084284D02*
X6608439Y-11074760D01*
X6608439Y-11074760D02*
X6598915Y-11055712D01*
X6598915Y-11055712D02*
X6598915Y-10884284D01*
X6779868Y-11074760D02*
X6760820Y-11084284D01*
X6760820Y-11084284D02*
X6722725Y-11084284D01*
X6722725Y-11084284D02*
X6703677Y-11074760D01*
X6703677Y-11074760D02*
X6694153Y-11055712D01*
X6694153Y-11055712D02*
X6694153Y-10979522D01*
X6694153Y-10979522D02*
X6703677Y-10960474D01*
X6703677Y-10960474D02*
X6722725Y-10950950D01*
X6722725Y-10950950D02*
X6760820Y-10950950D01*
X6760820Y-10950950D02*
X6779868Y-10960474D01*
X6779868Y-10960474D02*
X6789391Y-10979522D01*
X6789391Y-10979522D02*
X6789391Y-10998570D01*
X6789391Y-10998570D02*
X6694153Y-11017617D01*
X6865582Y-11074760D02*
X6884630Y-11084284D01*
X6884630Y-11084284D02*
X6922725Y-11084284D01*
X6922725Y-11084284D02*
X6941772Y-11074760D01*
X6941772Y-11074760D02*
X6951296Y-11055712D01*
X6951296Y-11055712D02*
X6951296Y-11046189D01*
X6951296Y-11046189D02*
X6941772Y-11027141D01*
X6941772Y-11027141D02*
X6922725Y-11017617D01*
X6922725Y-11017617D02*
X6894153Y-11017617D01*
X6894153Y-11017617D02*
X6875106Y-11008093D01*
X6875106Y-11008093D02*
X6865582Y-10989046D01*
X6865582Y-10989046D02*
X6865582Y-10979522D01*
X6865582Y-10979522D02*
X6875106Y-10960474D01*
X6875106Y-10960474D02*
X6894153Y-10950950D01*
X6894153Y-10950950D02*
X6922725Y-10950950D01*
X6922725Y-10950950D02*
X6941772Y-10960474D01*
X7017963Y-11160474D02*
X7027487Y-11150950D01*
X7027487Y-11150950D02*
X7046534Y-11122379D01*
X7046534Y-11122379D02*
X7056058Y-11103331D01*
X7056058Y-11103331D02*
X7065582Y-11074760D01*
X7065582Y-11074760D02*
X7075106Y-11027141D01*
X7075106Y-11027141D02*
X7075106Y-10989046D01*
X7075106Y-10989046D02*
X7065582Y-10941427D01*
X7065582Y-10941427D02*
X7056058Y-10912855D01*
X7056058Y-10912855D02*
X7046534Y-10893808D01*
X7046534Y-10893808D02*
X7027487Y-10865236D01*
X7027487Y-10865236D02*
X7017963Y-10855712D01*
D10*
X2195400Y-11209300D02*
X2195400Y-11304300D01*
X2147900Y-11256800D02*
X2242900Y-11256800D01*
D11*
X2541772Y-11148284D02*
X2560820Y-11148284D01*
X2560820Y-11148284D02*
X2579867Y-11157808D01*
X2579867Y-11157808D02*
X2589391Y-11167331D01*
X2589391Y-11167331D02*
X2598915Y-11186379D01*
X2598915Y-11186379D02*
X2608439Y-11224474D01*
X2608439Y-11224474D02*
X2608439Y-11272093D01*
X2608439Y-11272093D02*
X2598915Y-11310188D01*
X2598915Y-11310188D02*
X2589391Y-11329236D01*
X2589391Y-11329236D02*
X2579867Y-11338760D01*
X2579867Y-11338760D02*
X2560820Y-11348284D01*
X2560820Y-11348284D02*
X2541772Y-11348284D01*
X2541772Y-11348284D02*
X2522724Y-11338760D01*
X2522724Y-11338760D02*
X2513201Y-11329236D01*
X2513201Y-11329236D02*
X2503677Y-11310188D01*
X2503677Y-11310188D02*
X2494153Y-11272093D01*
X2494153Y-11272093D02*
X2494153Y-11224474D01*
X2494153Y-11224474D02*
X2503677Y-11186379D01*
X2503677Y-11186379D02*
X2513201Y-11167331D01*
X2513201Y-11167331D02*
X2522724Y-11157808D01*
X2522724Y-11157808D02*
X2541772Y-11148284D01*
X2694153Y-11329236D02*
X2703677Y-11338760D01*
X2703677Y-11338760D02*
X2694153Y-11348284D01*
X2694153Y-11348284D02*
X2684629Y-11338760D01*
X2684629Y-11338760D02*
X2694153Y-11329236D01*
X2694153Y-11329236D02*
X2694153Y-11348284D01*
X2798915Y-11348284D02*
X2837010Y-11348284D01*
X2837010Y-11348284D02*
X2856058Y-11338760D01*
X2856058Y-11338760D02*
X2865582Y-11329236D01*
X2865582Y-11329236D02*
X2884629Y-11300665D01*
X2884629Y-11300665D02*
X2894153Y-11262569D01*
X2894153Y-11262569D02*
X2894153Y-11186379D01*
X2894153Y-11186379D02*
X2884629Y-11167331D01*
X2884629Y-11167331D02*
X2875105Y-11157808D01*
X2875105Y-11157808D02*
X2856058Y-11148284D01*
X2856058Y-11148284D02*
X2817962Y-11148284D01*
X2817962Y-11148284D02*
X2798915Y-11157808D01*
X2798915Y-11157808D02*
X2789391Y-11167331D01*
X2789391Y-11167331D02*
X2779867Y-11186379D01*
X2779867Y-11186379D02*
X2779867Y-11233998D01*
X2779867Y-11233998D02*
X2789391Y-11253046D01*
X2789391Y-11253046D02*
X2798915Y-11262569D01*
X2798915Y-11262569D02*
X2817962Y-11272093D01*
X2817962Y-11272093D02*
X2856058Y-11272093D01*
X2856058Y-11272093D02*
X2875105Y-11262569D01*
X2875105Y-11262569D02*
X2884629Y-11253046D01*
X2884629Y-11253046D02*
X2894153Y-11233998D01*
X3075105Y-11148284D02*
X2979867Y-11148284D01*
X2979867Y-11148284D02*
X2970343Y-11243522D01*
X2970343Y-11243522D02*
X2979867Y-11233998D01*
X2979867Y-11233998D02*
X2998915Y-11224474D01*
X2998915Y-11224474D02*
X3046534Y-11224474D01*
X3046534Y-11224474D02*
X3065582Y-11233998D01*
X3065582Y-11233998D02*
X3075105Y-11243522D01*
X3075105Y-11243522D02*
X3084629Y-11262569D01*
X3084629Y-11262569D02*
X3084629Y-11310188D01*
X3084629Y-11310188D02*
X3075105Y-11329236D01*
X3075105Y-11329236D02*
X3065582Y-11338760D01*
X3065582Y-11338760D02*
X3046534Y-11348284D01*
X3046534Y-11348284D02*
X2998915Y-11348284D01*
X2998915Y-11348284D02*
X2979867Y-11338760D01*
X2979867Y-11338760D02*
X2970343Y-11329236D01*
X3208439Y-11148284D02*
X3227486Y-11148284D01*
X3227486Y-11148284D02*
X3246534Y-11157808D01*
X3246534Y-11157808D02*
X3256058Y-11167331D01*
X3256058Y-11167331D02*
X3265582Y-11186379D01*
X3265582Y-11186379D02*
X3275105Y-11224474D01*
X3275105Y-11224474D02*
X3275105Y-11272093D01*
X3275105Y-11272093D02*
X3265582Y-11310188D01*
X3265582Y-11310188D02*
X3256058Y-11329236D01*
X3256058Y-11329236D02*
X3246534Y-11338760D01*
X3246534Y-11338760D02*
X3227486Y-11348284D01*
X3227486Y-11348284D02*
X3208439Y-11348284D01*
X3208439Y-11348284D02*
X3189391Y-11338760D01*
X3189391Y-11338760D02*
X3179867Y-11329236D01*
X3179867Y-11329236D02*
X3170343Y-11310188D01*
X3170343Y-11310188D02*
X3160820Y-11272093D01*
X3160820Y-11272093D02*
X3160820Y-11224474D01*
X3160820Y-11224474D02*
X3170343Y-11186379D01*
X3170343Y-11186379D02*
X3179867Y-11167331D01*
X3179867Y-11167331D02*
X3189391Y-11157808D01*
X3189391Y-11157808D02*
X3208439Y-11148284D01*
X3360820Y-11348284D02*
X3360820Y-11214950D01*
X3360820Y-11233998D02*
X3370343Y-11224474D01*
X3370343Y-11224474D02*
X3389391Y-11214950D01*
X3389391Y-11214950D02*
X3417963Y-11214950D01*
X3417963Y-11214950D02*
X3437010Y-11224474D01*
X3437010Y-11224474D02*
X3446534Y-11243522D01*
X3446534Y-11243522D02*
X3446534Y-11348284D01*
X3446534Y-11243522D02*
X3456058Y-11224474D01*
X3456058Y-11224474D02*
X3475105Y-11214950D01*
X3475105Y-11214950D02*
X3503677Y-11214950D01*
X3503677Y-11214950D02*
X3522724Y-11224474D01*
X3522724Y-11224474D02*
X3532248Y-11243522D01*
X3532248Y-11243522D02*
X3532248Y-11348284D01*
X3627486Y-11348284D02*
X3627486Y-11214950D01*
X3627486Y-11233998D02*
X3637010Y-11224474D01*
X3637010Y-11224474D02*
X3656058Y-11214950D01*
X3656058Y-11214950D02*
X3684629Y-11214950D01*
X3684629Y-11214950D02*
X3703677Y-11224474D01*
X3703677Y-11224474D02*
X3713201Y-11243522D01*
X3713201Y-11243522D02*
X3713201Y-11348284D01*
X3713201Y-11243522D02*
X3722724Y-11224474D01*
X3722724Y-11224474D02*
X3741772Y-11214950D01*
X3741772Y-11214950D02*
X3770343Y-11214950D01*
X3770343Y-11214950D02*
X3789391Y-11224474D01*
X3789391Y-11224474D02*
X3798915Y-11243522D01*
X3798915Y-11243522D02*
X3798915Y-11348284D01*
X4189391Y-11138760D02*
X4017963Y-11395903D01*
X4446534Y-11148284D02*
X4465582Y-11148284D01*
X4465582Y-11148284D02*
X4484629Y-11157808D01*
X4484629Y-11157808D02*
X4494153Y-11167331D01*
X4494153Y-11167331D02*
X4503677Y-11186379D01*
X4503677Y-11186379D02*
X4513201Y-11224474D01*
X4513201Y-11224474D02*
X4513201Y-11272093D01*
X4513201Y-11272093D02*
X4503677Y-11310188D01*
X4503677Y-11310188D02*
X4494153Y-11329236D01*
X4494153Y-11329236D02*
X4484629Y-11338760D01*
X4484629Y-11338760D02*
X4465582Y-11348284D01*
X4465582Y-11348284D02*
X4446534Y-11348284D01*
X4446534Y-11348284D02*
X4427487Y-11338760D01*
X4427487Y-11338760D02*
X4417963Y-11329236D01*
X4417963Y-11329236D02*
X4408439Y-11310188D01*
X4408439Y-11310188D02*
X4398915Y-11272093D01*
X4398915Y-11272093D02*
X4398915Y-11224474D01*
X4398915Y-11224474D02*
X4408439Y-11186379D01*
X4408439Y-11186379D02*
X4417963Y-11167331D01*
X4417963Y-11167331D02*
X4427487Y-11157808D01*
X4427487Y-11157808D02*
X4446534Y-11148284D01*
X4598915Y-11329236D02*
X4608439Y-11338760D01*
X4608439Y-11338760D02*
X4598915Y-11348284D01*
X4598915Y-11348284D02*
X4589391Y-11338760D01*
X4589391Y-11338760D02*
X4598915Y-11329236D01*
X4598915Y-11329236D02*
X4598915Y-11348284D01*
X4732248Y-11148284D02*
X4751296Y-11148284D01*
X4751296Y-11148284D02*
X4770344Y-11157808D01*
X4770344Y-11157808D02*
X4779868Y-11167331D01*
X4779868Y-11167331D02*
X4789391Y-11186379D01*
X4789391Y-11186379D02*
X4798915Y-11224474D01*
X4798915Y-11224474D02*
X4798915Y-11272093D01*
X4798915Y-11272093D02*
X4789391Y-11310188D01*
X4789391Y-11310188D02*
X4779868Y-11329236D01*
X4779868Y-11329236D02*
X4770344Y-11338760D01*
X4770344Y-11338760D02*
X4751296Y-11348284D01*
X4751296Y-11348284D02*
X4732248Y-11348284D01*
X4732248Y-11348284D02*
X4713201Y-11338760D01*
X4713201Y-11338760D02*
X4703677Y-11329236D01*
X4703677Y-11329236D02*
X4694153Y-11310188D01*
X4694153Y-11310188D02*
X4684629Y-11272093D01*
X4684629Y-11272093D02*
X4684629Y-11224474D01*
X4684629Y-11224474D02*
X4694153Y-11186379D01*
X4694153Y-11186379D02*
X4703677Y-11167331D01*
X4703677Y-11167331D02*
X4713201Y-11157808D01*
X4713201Y-11157808D02*
X4732248Y-11148284D01*
X4865582Y-11148284D02*
X4989391Y-11148284D01*
X4989391Y-11148284D02*
X4922725Y-11224474D01*
X4922725Y-11224474D02*
X4951296Y-11224474D01*
X4951296Y-11224474D02*
X4970344Y-11233998D01*
X4970344Y-11233998D02*
X4979868Y-11243522D01*
X4979868Y-11243522D02*
X4989391Y-11262569D01*
X4989391Y-11262569D02*
X4989391Y-11310188D01*
X4989391Y-11310188D02*
X4979868Y-11329236D01*
X4979868Y-11329236D02*
X4970344Y-11338760D01*
X4970344Y-11338760D02*
X4951296Y-11348284D01*
X4951296Y-11348284D02*
X4894153Y-11348284D01*
X4894153Y-11348284D02*
X4875106Y-11338760D01*
X4875106Y-11338760D02*
X4865582Y-11329236D01*
X5056058Y-11148284D02*
X5189391Y-11148284D01*
X5189391Y-11148284D02*
X5103677Y-11348284D01*
X5351296Y-11214950D02*
X5351296Y-11348284D01*
X5303677Y-11138760D02*
X5256058Y-11281617D01*
X5256058Y-11281617D02*
X5379868Y-11281617D01*
X5446534Y-11148284D02*
X5446534Y-11186379D01*
X5522725Y-11148284D02*
X5522725Y-11186379D01*
X5817963Y-11424474D02*
X5808439Y-11414950D01*
X5808439Y-11414950D02*
X5789391Y-11386379D01*
X5789391Y-11386379D02*
X5779868Y-11367331D01*
X5779868Y-11367331D02*
X5770344Y-11338760D01*
X5770344Y-11338760D02*
X5760820Y-11291141D01*
X5760820Y-11291141D02*
X5760820Y-11253046D01*
X5760820Y-11253046D02*
X5770344Y-11205427D01*
X5770344Y-11205427D02*
X5779868Y-11176855D01*
X5779868Y-11176855D02*
X5789391Y-11157808D01*
X5789391Y-11157808D02*
X5808439Y-11129236D01*
X5808439Y-11129236D02*
X5817963Y-11119712D01*
X5884629Y-11167331D02*
X5894153Y-11157808D01*
X5894153Y-11157808D02*
X5913201Y-11148284D01*
X5913201Y-11148284D02*
X5960820Y-11148284D01*
X5960820Y-11148284D02*
X5979868Y-11157808D01*
X5979868Y-11157808D02*
X5989391Y-11167331D01*
X5989391Y-11167331D02*
X5998915Y-11186379D01*
X5998915Y-11186379D02*
X5998915Y-11205427D01*
X5998915Y-11205427D02*
X5989391Y-11233998D01*
X5989391Y-11233998D02*
X5875106Y-11348284D01*
X5875106Y-11348284D02*
X5998915Y-11348284D01*
X6179868Y-11148284D02*
X6084629Y-11148284D01*
X6084629Y-11148284D02*
X6075106Y-11243522D01*
X6075106Y-11243522D02*
X6084629Y-11233998D01*
X6084629Y-11233998D02*
X6103677Y-11224474D01*
X6103677Y-11224474D02*
X6151296Y-11224474D01*
X6151296Y-11224474D02*
X6170344Y-11233998D01*
X6170344Y-11233998D02*
X6179868Y-11243522D01*
X6179868Y-11243522D02*
X6189391Y-11262569D01*
X6189391Y-11262569D02*
X6189391Y-11310188D01*
X6189391Y-11310188D02*
X6179868Y-11329236D01*
X6179868Y-11329236D02*
X6170344Y-11338760D01*
X6170344Y-11338760D02*
X6151296Y-11348284D01*
X6151296Y-11348284D02*
X6103677Y-11348284D01*
X6103677Y-11348284D02*
X6084629Y-11338760D01*
X6084629Y-11338760D02*
X6075106Y-11329236D01*
X6427487Y-11348284D02*
X6427487Y-11148284D01*
X6513201Y-11348284D02*
X6513201Y-11243522D01*
X6513201Y-11243522D02*
X6503677Y-11224474D01*
X6503677Y-11224474D02*
X6484630Y-11214950D01*
X6484630Y-11214950D02*
X6456058Y-11214950D01*
X6456058Y-11214950D02*
X6437010Y-11224474D01*
X6437010Y-11224474D02*
X6427487Y-11233998D01*
X6637010Y-11348284D02*
X6617963Y-11338760D01*
X6617963Y-11338760D02*
X6608439Y-11329236D01*
X6608439Y-11329236D02*
X6598915Y-11310188D01*
X6598915Y-11310188D02*
X6598915Y-11253046D01*
X6598915Y-11253046D02*
X6608439Y-11233998D01*
X6608439Y-11233998D02*
X6617963Y-11224474D01*
X6617963Y-11224474D02*
X6637010Y-11214950D01*
X6637010Y-11214950D02*
X6665582Y-11214950D01*
X6665582Y-11214950D02*
X6684630Y-11224474D01*
X6684630Y-11224474D02*
X6694153Y-11233998D01*
X6694153Y-11233998D02*
X6703677Y-11253046D01*
X6703677Y-11253046D02*
X6703677Y-11310188D01*
X6703677Y-11310188D02*
X6694153Y-11329236D01*
X6694153Y-11329236D02*
X6684630Y-11338760D01*
X6684630Y-11338760D02*
X6665582Y-11348284D01*
X6665582Y-11348284D02*
X6637010Y-11348284D01*
X6817963Y-11348284D02*
X6798915Y-11338760D01*
X6798915Y-11338760D02*
X6789391Y-11319712D01*
X6789391Y-11319712D02*
X6789391Y-11148284D01*
X6970344Y-11338760D02*
X6951296Y-11348284D01*
X6951296Y-11348284D02*
X6913201Y-11348284D01*
X6913201Y-11348284D02*
X6894153Y-11338760D01*
X6894153Y-11338760D02*
X6884630Y-11319712D01*
X6884630Y-11319712D02*
X6884630Y-11243522D01*
X6884630Y-11243522D02*
X6894153Y-11224474D01*
X6894153Y-11224474D02*
X6913201Y-11214950D01*
X6913201Y-11214950D02*
X6951296Y-11214950D01*
X6951296Y-11214950D02*
X6970344Y-11224474D01*
X6970344Y-11224474D02*
X6979868Y-11243522D01*
X6979868Y-11243522D02*
X6979868Y-11262569D01*
X6979868Y-11262569D02*
X6884630Y-11281617D01*
X7056058Y-11338760D02*
X7075106Y-11348284D01*
X7075106Y-11348284D02*
X7113201Y-11348284D01*
X7113201Y-11348284D02*
X7132249Y-11338760D01*
X7132249Y-11338760D02*
X7141772Y-11319712D01*
X7141772Y-11319712D02*
X7141772Y-11310188D01*
X7141772Y-11310188D02*
X7132249Y-11291141D01*
X7132249Y-11291141D02*
X7113201Y-11281617D01*
X7113201Y-11281617D02*
X7084630Y-11281617D01*
X7084630Y-11281617D02*
X7065582Y-11272093D01*
X7065582Y-11272093D02*
X7056058Y-11253046D01*
X7056058Y-11253046D02*
X7056058Y-11243522D01*
X7056058Y-11243522D02*
X7065582Y-11224474D01*
X7065582Y-11224474D02*
X7084630Y-11214950D01*
X7084630Y-11214950D02*
X7113201Y-11214950D01*
X7113201Y-11214950D02*
X7132249Y-11224474D01*
X7208439Y-11424474D02*
X7217963Y-11414950D01*
X7217963Y-11414950D02*
X7237011Y-11386379D01*
X7237011Y-11386379D02*
X7246534Y-11367331D01*
X7246534Y-11367331D02*
X7256058Y-11338760D01*
X7256058Y-11338760D02*
X7265582Y-11291141D01*
X7265582Y-11291141D02*
X7265582Y-11253046D01*
X7265582Y-11253046D02*
X7256058Y-11205427D01*
X7256058Y-11205427D02*
X7246534Y-11176855D01*
X7246534Y-11176855D02*
X7237011Y-11157808D01*
X7237011Y-11157808D02*
X7217963Y-11129236D01*
X7217963Y-11129236D02*
X7208439Y-11119712D01*
D10*
X2228256Y-11556156D02*
X2228256Y-11485444D01*
X2157544Y-11485444D01*
X2157544Y-11556156D01*
X2228256Y-11556156D01*
D11*
X2608439Y-11612284D02*
X2494153Y-11612284D01*
X2551296Y-11612284D02*
X2551296Y-11412284D01*
X2551296Y-11412284D02*
X2532248Y-11440855D01*
X2532248Y-11440855D02*
X2513201Y-11459903D01*
X2513201Y-11459903D02*
X2494153Y-11469427D01*
X2694153Y-11593236D02*
X2703677Y-11602760D01*
X2703677Y-11602760D02*
X2694153Y-11612284D01*
X2694153Y-11612284D02*
X2684629Y-11602760D01*
X2684629Y-11602760D02*
X2694153Y-11593236D01*
X2694153Y-11593236D02*
X2694153Y-11612284D01*
X2827486Y-11412284D02*
X2846534Y-11412284D01*
X2846534Y-11412284D02*
X2865582Y-11421808D01*
X2865582Y-11421808D02*
X2875105Y-11431331D01*
X2875105Y-11431331D02*
X2884629Y-11450379D01*
X2884629Y-11450379D02*
X2894153Y-11488474D01*
X2894153Y-11488474D02*
X2894153Y-11536093D01*
X2894153Y-11536093D02*
X2884629Y-11574188D01*
X2884629Y-11574188D02*
X2875105Y-11593236D01*
X2875105Y-11593236D02*
X2865582Y-11602760D01*
X2865582Y-11602760D02*
X2846534Y-11612284D01*
X2846534Y-11612284D02*
X2827486Y-11612284D01*
X2827486Y-11612284D02*
X2808439Y-11602760D01*
X2808439Y-11602760D02*
X2798915Y-11593236D01*
X2798915Y-11593236D02*
X2789391Y-11574188D01*
X2789391Y-11574188D02*
X2779867Y-11536093D01*
X2779867Y-11536093D02*
X2779867Y-11488474D01*
X2779867Y-11488474D02*
X2789391Y-11450379D01*
X2789391Y-11450379D02*
X2798915Y-11431331D01*
X2798915Y-11431331D02*
X2808439Y-11421808D01*
X2808439Y-11421808D02*
X2827486Y-11412284D01*
X3017962Y-11412284D02*
X3037010Y-11412284D01*
X3037010Y-11412284D02*
X3056058Y-11421808D01*
X3056058Y-11421808D02*
X3065582Y-11431331D01*
X3065582Y-11431331D02*
X3075105Y-11450379D01*
X3075105Y-11450379D02*
X3084629Y-11488474D01*
X3084629Y-11488474D02*
X3084629Y-11536093D01*
X3084629Y-11536093D02*
X3075105Y-11574188D01*
X3075105Y-11574188D02*
X3065582Y-11593236D01*
X3065582Y-11593236D02*
X3056058Y-11602760D01*
X3056058Y-11602760D02*
X3037010Y-11612284D01*
X3037010Y-11612284D02*
X3017962Y-11612284D01*
X3017962Y-11612284D02*
X2998915Y-11602760D01*
X2998915Y-11602760D02*
X2989391Y-11593236D01*
X2989391Y-11593236D02*
X2979867Y-11574188D01*
X2979867Y-11574188D02*
X2970343Y-11536093D01*
X2970343Y-11536093D02*
X2970343Y-11488474D01*
X2970343Y-11488474D02*
X2979867Y-11450379D01*
X2979867Y-11450379D02*
X2989391Y-11431331D01*
X2989391Y-11431331D02*
X2998915Y-11421808D01*
X2998915Y-11421808D02*
X3017962Y-11412284D01*
X3208439Y-11412284D02*
X3227486Y-11412284D01*
X3227486Y-11412284D02*
X3246534Y-11421808D01*
X3246534Y-11421808D02*
X3256058Y-11431331D01*
X3256058Y-11431331D02*
X3265582Y-11450379D01*
X3265582Y-11450379D02*
X3275105Y-11488474D01*
X3275105Y-11488474D02*
X3275105Y-11536093D01*
X3275105Y-11536093D02*
X3265582Y-11574188D01*
X3265582Y-11574188D02*
X3256058Y-11593236D01*
X3256058Y-11593236D02*
X3246534Y-11602760D01*
X3246534Y-11602760D02*
X3227486Y-11612284D01*
X3227486Y-11612284D02*
X3208439Y-11612284D01*
X3208439Y-11612284D02*
X3189391Y-11602760D01*
X3189391Y-11602760D02*
X3179867Y-11593236D01*
X3179867Y-11593236D02*
X3170343Y-11574188D01*
X3170343Y-11574188D02*
X3160820Y-11536093D01*
X3160820Y-11536093D02*
X3160820Y-11488474D01*
X3160820Y-11488474D02*
X3170343Y-11450379D01*
X3170343Y-11450379D02*
X3179867Y-11431331D01*
X3179867Y-11431331D02*
X3189391Y-11421808D01*
X3189391Y-11421808D02*
X3208439Y-11412284D01*
X3360820Y-11612284D02*
X3360820Y-11478950D01*
X3360820Y-11497998D02*
X3370343Y-11488474D01*
X3370343Y-11488474D02*
X3389391Y-11478950D01*
X3389391Y-11478950D02*
X3417963Y-11478950D01*
X3417963Y-11478950D02*
X3437010Y-11488474D01*
X3437010Y-11488474D02*
X3446534Y-11507522D01*
X3446534Y-11507522D02*
X3446534Y-11612284D01*
X3446534Y-11507522D02*
X3456058Y-11488474D01*
X3456058Y-11488474D02*
X3475105Y-11478950D01*
X3475105Y-11478950D02*
X3503677Y-11478950D01*
X3503677Y-11478950D02*
X3522724Y-11488474D01*
X3522724Y-11488474D02*
X3532248Y-11507522D01*
X3532248Y-11507522D02*
X3532248Y-11612284D01*
X3627486Y-11612284D02*
X3627486Y-11478950D01*
X3627486Y-11497998D02*
X3637010Y-11488474D01*
X3637010Y-11488474D02*
X3656058Y-11478950D01*
X3656058Y-11478950D02*
X3684629Y-11478950D01*
X3684629Y-11478950D02*
X3703677Y-11488474D01*
X3703677Y-11488474D02*
X3713201Y-11507522D01*
X3713201Y-11507522D02*
X3713201Y-11612284D01*
X3713201Y-11507522D02*
X3722724Y-11488474D01*
X3722724Y-11488474D02*
X3741772Y-11478950D01*
X3741772Y-11478950D02*
X3770343Y-11478950D01*
X3770343Y-11478950D02*
X3789391Y-11488474D01*
X3789391Y-11488474D02*
X3798915Y-11507522D01*
X3798915Y-11507522D02*
X3798915Y-11612284D01*
X4189391Y-11402760D02*
X4017963Y-11659903D01*
X4446534Y-11412284D02*
X4465582Y-11412284D01*
X4465582Y-11412284D02*
X4484629Y-11421808D01*
X4484629Y-11421808D02*
X4494153Y-11431331D01*
X4494153Y-11431331D02*
X4503677Y-11450379D01*
X4503677Y-11450379D02*
X4513201Y-11488474D01*
X4513201Y-11488474D02*
X4513201Y-11536093D01*
X4513201Y-11536093D02*
X4503677Y-11574188D01*
X4503677Y-11574188D02*
X4494153Y-11593236D01*
X4494153Y-11593236D02*
X4484629Y-11602760D01*
X4484629Y-11602760D02*
X4465582Y-11612284D01*
X4465582Y-11612284D02*
X4446534Y-11612284D01*
X4446534Y-11612284D02*
X4427487Y-11602760D01*
X4427487Y-11602760D02*
X4417963Y-11593236D01*
X4417963Y-11593236D02*
X4408439Y-11574188D01*
X4408439Y-11574188D02*
X4398915Y-11536093D01*
X4398915Y-11536093D02*
X4398915Y-11488474D01*
X4398915Y-11488474D02*
X4408439Y-11450379D01*
X4408439Y-11450379D02*
X4417963Y-11431331D01*
X4417963Y-11431331D02*
X4427487Y-11421808D01*
X4427487Y-11421808D02*
X4446534Y-11412284D01*
X4598915Y-11593236D02*
X4608439Y-11602760D01*
X4608439Y-11602760D02*
X4598915Y-11612284D01*
X4598915Y-11612284D02*
X4589391Y-11602760D01*
X4589391Y-11602760D02*
X4598915Y-11593236D01*
X4598915Y-11593236D02*
X4598915Y-11612284D01*
X4732248Y-11412284D02*
X4751296Y-11412284D01*
X4751296Y-11412284D02*
X4770344Y-11421808D01*
X4770344Y-11421808D02*
X4779868Y-11431331D01*
X4779868Y-11431331D02*
X4789391Y-11450379D01*
X4789391Y-11450379D02*
X4798915Y-11488474D01*
X4798915Y-11488474D02*
X4798915Y-11536093D01*
X4798915Y-11536093D02*
X4789391Y-11574188D01*
X4789391Y-11574188D02*
X4779868Y-11593236D01*
X4779868Y-11593236D02*
X4770344Y-11602760D01*
X4770344Y-11602760D02*
X4751296Y-11612284D01*
X4751296Y-11612284D02*
X4732248Y-11612284D01*
X4732248Y-11612284D02*
X4713201Y-11602760D01*
X4713201Y-11602760D02*
X4703677Y-11593236D01*
X4703677Y-11593236D02*
X4694153Y-11574188D01*
X4694153Y-11574188D02*
X4684629Y-11536093D01*
X4684629Y-11536093D02*
X4684629Y-11488474D01*
X4684629Y-11488474D02*
X4694153Y-11450379D01*
X4694153Y-11450379D02*
X4703677Y-11431331D01*
X4703677Y-11431331D02*
X4713201Y-11421808D01*
X4713201Y-11421808D02*
X4732248Y-11412284D01*
X4865582Y-11412284D02*
X4989391Y-11412284D01*
X4989391Y-11412284D02*
X4922725Y-11488474D01*
X4922725Y-11488474D02*
X4951296Y-11488474D01*
X4951296Y-11488474D02*
X4970344Y-11497998D01*
X4970344Y-11497998D02*
X4979868Y-11507522D01*
X4979868Y-11507522D02*
X4989391Y-11526569D01*
X4989391Y-11526569D02*
X4989391Y-11574188D01*
X4989391Y-11574188D02*
X4979868Y-11593236D01*
X4979868Y-11593236D02*
X4970344Y-11602760D01*
X4970344Y-11602760D02*
X4951296Y-11612284D01*
X4951296Y-11612284D02*
X4894153Y-11612284D01*
X4894153Y-11612284D02*
X4875106Y-11602760D01*
X4875106Y-11602760D02*
X4865582Y-11593236D01*
X5084629Y-11612284D02*
X5122725Y-11612284D01*
X5122725Y-11612284D02*
X5141772Y-11602760D01*
X5141772Y-11602760D02*
X5151296Y-11593236D01*
X5151296Y-11593236D02*
X5170344Y-11564665D01*
X5170344Y-11564665D02*
X5179868Y-11526569D01*
X5179868Y-11526569D02*
X5179868Y-11450379D01*
X5179868Y-11450379D02*
X5170344Y-11431331D01*
X5170344Y-11431331D02*
X5160820Y-11421808D01*
X5160820Y-11421808D02*
X5141772Y-11412284D01*
X5141772Y-11412284D02*
X5103677Y-11412284D01*
X5103677Y-11412284D02*
X5084629Y-11421808D01*
X5084629Y-11421808D02*
X5075106Y-11431331D01*
X5075106Y-11431331D02*
X5065582Y-11450379D01*
X5065582Y-11450379D02*
X5065582Y-11497998D01*
X5065582Y-11497998D02*
X5075106Y-11517046D01*
X5075106Y-11517046D02*
X5084629Y-11526569D01*
X5084629Y-11526569D02*
X5103677Y-11536093D01*
X5103677Y-11536093D02*
X5141772Y-11536093D01*
X5141772Y-11536093D02*
X5160820Y-11526569D01*
X5160820Y-11526569D02*
X5170344Y-11517046D01*
X5170344Y-11517046D02*
X5179868Y-11497998D01*
X5351296Y-11478950D02*
X5351296Y-11612284D01*
X5303677Y-11402760D02*
X5256058Y-11545617D01*
X5256058Y-11545617D02*
X5379868Y-11545617D01*
X5446534Y-11412284D02*
X5446534Y-11450379D01*
X5522725Y-11412284D02*
X5522725Y-11450379D01*
X5817963Y-11688474D02*
X5808439Y-11678950D01*
X5808439Y-11678950D02*
X5789391Y-11650379D01*
X5789391Y-11650379D02*
X5779868Y-11631331D01*
X5779868Y-11631331D02*
X5770344Y-11602760D01*
X5770344Y-11602760D02*
X5760820Y-11555141D01*
X5760820Y-11555141D02*
X5760820Y-11517046D01*
X5760820Y-11517046D02*
X5770344Y-11469427D01*
X5770344Y-11469427D02*
X5779868Y-11440855D01*
X5779868Y-11440855D02*
X5789391Y-11421808D01*
X5789391Y-11421808D02*
X5808439Y-11393236D01*
X5808439Y-11393236D02*
X5817963Y-11383712D01*
X5979868Y-11478950D02*
X5979868Y-11612284D01*
X5932248Y-11402760D02*
X5884629Y-11545617D01*
X5884629Y-11545617D02*
X6008439Y-11545617D01*
X6237010Y-11612284D02*
X6237010Y-11412284D01*
X6322725Y-11612284D02*
X6322725Y-11507522D01*
X6322725Y-11507522D02*
X6313201Y-11488474D01*
X6313201Y-11488474D02*
X6294153Y-11478950D01*
X6294153Y-11478950D02*
X6265582Y-11478950D01*
X6265582Y-11478950D02*
X6246534Y-11488474D01*
X6246534Y-11488474D02*
X6237010Y-11497998D01*
X6446534Y-11612284D02*
X6427487Y-11602760D01*
X6427487Y-11602760D02*
X6417963Y-11593236D01*
X6417963Y-11593236D02*
X6408439Y-11574188D01*
X6408439Y-11574188D02*
X6408439Y-11517046D01*
X6408439Y-11517046D02*
X6417963Y-11497998D01*
X6417963Y-11497998D02*
X6427487Y-11488474D01*
X6427487Y-11488474D02*
X6446534Y-11478950D01*
X6446534Y-11478950D02*
X6475106Y-11478950D01*
X6475106Y-11478950D02*
X6494153Y-11488474D01*
X6494153Y-11488474D02*
X6503677Y-11497998D01*
X6503677Y-11497998D02*
X6513201Y-11517046D01*
X6513201Y-11517046D02*
X6513201Y-11574188D01*
X6513201Y-11574188D02*
X6503677Y-11593236D01*
X6503677Y-11593236D02*
X6494153Y-11602760D01*
X6494153Y-11602760D02*
X6475106Y-11612284D01*
X6475106Y-11612284D02*
X6446534Y-11612284D01*
X6627487Y-11612284D02*
X6608439Y-11602760D01*
X6608439Y-11602760D02*
X6598915Y-11583712D01*
X6598915Y-11583712D02*
X6598915Y-11412284D01*
X6779868Y-11602760D02*
X6760820Y-11612284D01*
X6760820Y-11612284D02*
X6722725Y-11612284D01*
X6722725Y-11612284D02*
X6703677Y-11602760D01*
X6703677Y-11602760D02*
X6694153Y-11583712D01*
X6694153Y-11583712D02*
X6694153Y-11507522D01*
X6694153Y-11507522D02*
X6703677Y-11488474D01*
X6703677Y-11488474D02*
X6722725Y-11478950D01*
X6722725Y-11478950D02*
X6760820Y-11478950D01*
X6760820Y-11478950D02*
X6779868Y-11488474D01*
X6779868Y-11488474D02*
X6789391Y-11507522D01*
X6789391Y-11507522D02*
X6789391Y-11526569D01*
X6789391Y-11526569D02*
X6694153Y-11545617D01*
X6865582Y-11602760D02*
X6884630Y-11612284D01*
X6884630Y-11612284D02*
X6922725Y-11612284D01*
X6922725Y-11612284D02*
X6941772Y-11602760D01*
X6941772Y-11602760D02*
X6951296Y-11583712D01*
X6951296Y-11583712D02*
X6951296Y-11574188D01*
X6951296Y-11574188D02*
X6941772Y-11555141D01*
X6941772Y-11555141D02*
X6922725Y-11545617D01*
X6922725Y-11545617D02*
X6894153Y-11545617D01*
X6894153Y-11545617D02*
X6875106Y-11536093D01*
X6875106Y-11536093D02*
X6865582Y-11517046D01*
X6865582Y-11517046D02*
X6865582Y-11507522D01*
X6865582Y-11507522D02*
X6875106Y-11488474D01*
X6875106Y-11488474D02*
X6894153Y-11478950D01*
X6894153Y-11478950D02*
X6922725Y-11478950D01*
X6922725Y-11478950D02*
X6941772Y-11488474D01*
X7017963Y-11688474D02*
X7027487Y-11678950D01*
X7027487Y-11678950D02*
X7046534Y-11650379D01*
X7046534Y-11650379D02*
X7056058Y-11631331D01*
X7056058Y-11631331D02*
X7065582Y-11602760D01*
X7065582Y-11602760D02*
X7075106Y-11555141D01*
X7075106Y-11555141D02*
X7075106Y-11517046D01*
X7075106Y-11517046D02*
X7065582Y-11469427D01*
X7065582Y-11469427D02*
X7056058Y-11440855D01*
X7056058Y-11440855D02*
X7046534Y-11421808D01*
X7046534Y-11421808D02*
X7027487Y-11393236D01*
X7027487Y-11393236D02*
X7017963Y-11383712D01*
D12*
X2192100Y-11835600D02*
X2242900Y-11784800D01*
X2192100Y-11734000D01*
X2141300Y-11784800D01*
X2192100Y-11835600D01*
D11*
X2608439Y-11876284D02*
X2494153Y-11876284D01*
X2551296Y-11876284D02*
X2551296Y-11676284D01*
X2551296Y-11676284D02*
X2532248Y-11704855D01*
X2532248Y-11704855D02*
X2513201Y-11723903D01*
X2513201Y-11723903D02*
X2494153Y-11733427D01*
X2694153Y-11857236D02*
X2703677Y-11866760D01*
X2703677Y-11866760D02*
X2694153Y-11876284D01*
X2694153Y-11876284D02*
X2684629Y-11866760D01*
X2684629Y-11866760D02*
X2694153Y-11857236D01*
X2694153Y-11857236D02*
X2694153Y-11876284D01*
X2827486Y-11676284D02*
X2846534Y-11676284D01*
X2846534Y-11676284D02*
X2865582Y-11685808D01*
X2865582Y-11685808D02*
X2875105Y-11695331D01*
X2875105Y-11695331D02*
X2884629Y-11714379D01*
X2884629Y-11714379D02*
X2894153Y-11752474D01*
X2894153Y-11752474D02*
X2894153Y-11800093D01*
X2894153Y-11800093D02*
X2884629Y-11838188D01*
X2884629Y-11838188D02*
X2875105Y-11857236D01*
X2875105Y-11857236D02*
X2865582Y-11866760D01*
X2865582Y-11866760D02*
X2846534Y-11876284D01*
X2846534Y-11876284D02*
X2827486Y-11876284D01*
X2827486Y-11876284D02*
X2808439Y-11866760D01*
X2808439Y-11866760D02*
X2798915Y-11857236D01*
X2798915Y-11857236D02*
X2789391Y-11838188D01*
X2789391Y-11838188D02*
X2779867Y-11800093D01*
X2779867Y-11800093D02*
X2779867Y-11752474D01*
X2779867Y-11752474D02*
X2789391Y-11714379D01*
X2789391Y-11714379D02*
X2798915Y-11695331D01*
X2798915Y-11695331D02*
X2808439Y-11685808D01*
X2808439Y-11685808D02*
X2827486Y-11676284D01*
X3084629Y-11876284D02*
X2970343Y-11876284D01*
X3027486Y-11876284D02*
X3027486Y-11676284D01*
X3027486Y-11676284D02*
X3008439Y-11704855D01*
X3008439Y-11704855D02*
X2989391Y-11723903D01*
X2989391Y-11723903D02*
X2970343Y-11733427D01*
X3256058Y-11676284D02*
X3217962Y-11676284D01*
X3217962Y-11676284D02*
X3198915Y-11685808D01*
X3198915Y-11685808D02*
X3189391Y-11695331D01*
X3189391Y-11695331D02*
X3170343Y-11723903D01*
X3170343Y-11723903D02*
X3160820Y-11761998D01*
X3160820Y-11761998D02*
X3160820Y-11838188D01*
X3160820Y-11838188D02*
X3170343Y-11857236D01*
X3170343Y-11857236D02*
X3179867Y-11866760D01*
X3179867Y-11866760D02*
X3198915Y-11876284D01*
X3198915Y-11876284D02*
X3237010Y-11876284D01*
X3237010Y-11876284D02*
X3256058Y-11866760D01*
X3256058Y-11866760D02*
X3265582Y-11857236D01*
X3265582Y-11857236D02*
X3275105Y-11838188D01*
X3275105Y-11838188D02*
X3275105Y-11790569D01*
X3275105Y-11790569D02*
X3265582Y-11771522D01*
X3265582Y-11771522D02*
X3256058Y-11761998D01*
X3256058Y-11761998D02*
X3237010Y-11752474D01*
X3237010Y-11752474D02*
X3198915Y-11752474D01*
X3198915Y-11752474D02*
X3179867Y-11761998D01*
X3179867Y-11761998D02*
X3170343Y-11771522D01*
X3170343Y-11771522D02*
X3160820Y-11790569D01*
X3360820Y-11876284D02*
X3360820Y-11742950D01*
X3360820Y-11761998D02*
X3370343Y-11752474D01*
X3370343Y-11752474D02*
X3389391Y-11742950D01*
X3389391Y-11742950D02*
X3417963Y-11742950D01*
X3417963Y-11742950D02*
X3437010Y-11752474D01*
X3437010Y-11752474D02*
X3446534Y-11771522D01*
X3446534Y-11771522D02*
X3446534Y-11876284D01*
X3446534Y-11771522D02*
X3456058Y-11752474D01*
X3456058Y-11752474D02*
X3475105Y-11742950D01*
X3475105Y-11742950D02*
X3503677Y-11742950D01*
X3503677Y-11742950D02*
X3522724Y-11752474D01*
X3522724Y-11752474D02*
X3532248Y-11771522D01*
X3532248Y-11771522D02*
X3532248Y-11876284D01*
X3627486Y-11876284D02*
X3627486Y-11742950D01*
X3627486Y-11761998D02*
X3637010Y-11752474D01*
X3637010Y-11752474D02*
X3656058Y-11742950D01*
X3656058Y-11742950D02*
X3684629Y-11742950D01*
X3684629Y-11742950D02*
X3703677Y-11752474D01*
X3703677Y-11752474D02*
X3713201Y-11771522D01*
X3713201Y-11771522D02*
X3713201Y-11876284D01*
X3713201Y-11771522D02*
X3722724Y-11752474D01*
X3722724Y-11752474D02*
X3741772Y-11742950D01*
X3741772Y-11742950D02*
X3770343Y-11742950D01*
X3770343Y-11742950D02*
X3789391Y-11752474D01*
X3789391Y-11752474D02*
X3798915Y-11771522D01*
X3798915Y-11771522D02*
X3798915Y-11876284D01*
X4189391Y-11666760D02*
X4017963Y-11923903D01*
X4446534Y-11676284D02*
X4465582Y-11676284D01*
X4465582Y-11676284D02*
X4484629Y-11685808D01*
X4484629Y-11685808D02*
X4494153Y-11695331D01*
X4494153Y-11695331D02*
X4503677Y-11714379D01*
X4503677Y-11714379D02*
X4513201Y-11752474D01*
X4513201Y-11752474D02*
X4513201Y-11800093D01*
X4513201Y-11800093D02*
X4503677Y-11838188D01*
X4503677Y-11838188D02*
X4494153Y-11857236D01*
X4494153Y-11857236D02*
X4484629Y-11866760D01*
X4484629Y-11866760D02*
X4465582Y-11876284D01*
X4465582Y-11876284D02*
X4446534Y-11876284D01*
X4446534Y-11876284D02*
X4427487Y-11866760D01*
X4427487Y-11866760D02*
X4417963Y-11857236D01*
X4417963Y-11857236D02*
X4408439Y-11838188D01*
X4408439Y-11838188D02*
X4398915Y-11800093D01*
X4398915Y-11800093D02*
X4398915Y-11752474D01*
X4398915Y-11752474D02*
X4408439Y-11714379D01*
X4408439Y-11714379D02*
X4417963Y-11695331D01*
X4417963Y-11695331D02*
X4427487Y-11685808D01*
X4427487Y-11685808D02*
X4446534Y-11676284D01*
X4598915Y-11857236D02*
X4608439Y-11866760D01*
X4608439Y-11866760D02*
X4598915Y-11876284D01*
X4598915Y-11876284D02*
X4589391Y-11866760D01*
X4589391Y-11866760D02*
X4598915Y-11857236D01*
X4598915Y-11857236D02*
X4598915Y-11876284D01*
X4732248Y-11676284D02*
X4751296Y-11676284D01*
X4751296Y-11676284D02*
X4770344Y-11685808D01*
X4770344Y-11685808D02*
X4779868Y-11695331D01*
X4779868Y-11695331D02*
X4789391Y-11714379D01*
X4789391Y-11714379D02*
X4798915Y-11752474D01*
X4798915Y-11752474D02*
X4798915Y-11800093D01*
X4798915Y-11800093D02*
X4789391Y-11838188D01*
X4789391Y-11838188D02*
X4779868Y-11857236D01*
X4779868Y-11857236D02*
X4770344Y-11866760D01*
X4770344Y-11866760D02*
X4751296Y-11876284D01*
X4751296Y-11876284D02*
X4732248Y-11876284D01*
X4732248Y-11876284D02*
X4713201Y-11866760D01*
X4713201Y-11866760D02*
X4703677Y-11857236D01*
X4703677Y-11857236D02*
X4694153Y-11838188D01*
X4694153Y-11838188D02*
X4684629Y-11800093D01*
X4684629Y-11800093D02*
X4684629Y-11752474D01*
X4684629Y-11752474D02*
X4694153Y-11714379D01*
X4694153Y-11714379D02*
X4703677Y-11695331D01*
X4703677Y-11695331D02*
X4713201Y-11685808D01*
X4713201Y-11685808D02*
X4732248Y-11676284D01*
X4970344Y-11742950D02*
X4970344Y-11876284D01*
X4922725Y-11666760D02*
X4875106Y-11809617D01*
X4875106Y-11809617D02*
X4998915Y-11809617D01*
X5113201Y-11676284D02*
X5132249Y-11676284D01*
X5132249Y-11676284D02*
X5151296Y-11685808D01*
X5151296Y-11685808D02*
X5160820Y-11695331D01*
X5160820Y-11695331D02*
X5170344Y-11714379D01*
X5170344Y-11714379D02*
X5179868Y-11752474D01*
X5179868Y-11752474D02*
X5179868Y-11800093D01*
X5179868Y-11800093D02*
X5170344Y-11838188D01*
X5170344Y-11838188D02*
X5160820Y-11857236D01*
X5160820Y-11857236D02*
X5151296Y-11866760D01*
X5151296Y-11866760D02*
X5132249Y-11876284D01*
X5132249Y-11876284D02*
X5113201Y-11876284D01*
X5113201Y-11876284D02*
X5094153Y-11866760D01*
X5094153Y-11866760D02*
X5084629Y-11857236D01*
X5084629Y-11857236D02*
X5075106Y-11838188D01*
X5075106Y-11838188D02*
X5065582Y-11800093D01*
X5065582Y-11800093D02*
X5065582Y-11752474D01*
X5065582Y-11752474D02*
X5075106Y-11714379D01*
X5075106Y-11714379D02*
X5084629Y-11695331D01*
X5084629Y-11695331D02*
X5094153Y-11685808D01*
X5094153Y-11685808D02*
X5113201Y-11676284D01*
X5303677Y-11676284D02*
X5322725Y-11676284D01*
X5322725Y-11676284D02*
X5341772Y-11685808D01*
X5341772Y-11685808D02*
X5351296Y-11695331D01*
X5351296Y-11695331D02*
X5360820Y-11714379D01*
X5360820Y-11714379D02*
X5370344Y-11752474D01*
X5370344Y-11752474D02*
X5370344Y-11800093D01*
X5370344Y-11800093D02*
X5360820Y-11838188D01*
X5360820Y-11838188D02*
X5351296Y-11857236D01*
X5351296Y-11857236D02*
X5341772Y-11866760D01*
X5341772Y-11866760D02*
X5322725Y-11876284D01*
X5322725Y-11876284D02*
X5303677Y-11876284D01*
X5303677Y-11876284D02*
X5284629Y-11866760D01*
X5284629Y-11866760D02*
X5275106Y-11857236D01*
X5275106Y-11857236D02*
X5265582Y-11838188D01*
X5265582Y-11838188D02*
X5256058Y-11800093D01*
X5256058Y-11800093D02*
X5256058Y-11752474D01*
X5256058Y-11752474D02*
X5265582Y-11714379D01*
X5265582Y-11714379D02*
X5275106Y-11695331D01*
X5275106Y-11695331D02*
X5284629Y-11685808D01*
X5284629Y-11685808D02*
X5303677Y-11676284D01*
X5446534Y-11676284D02*
X5446534Y-11714379D01*
X5522725Y-11676284D02*
X5522725Y-11714379D01*
X5817963Y-11952474D02*
X5808439Y-11942950D01*
X5808439Y-11942950D02*
X5789391Y-11914379D01*
X5789391Y-11914379D02*
X5779868Y-11895331D01*
X5779868Y-11895331D02*
X5770344Y-11866760D01*
X5770344Y-11866760D02*
X5760820Y-11819141D01*
X5760820Y-11819141D02*
X5760820Y-11781046D01*
X5760820Y-11781046D02*
X5770344Y-11733427D01*
X5770344Y-11733427D02*
X5779868Y-11704855D01*
X5779868Y-11704855D02*
X5789391Y-11685808D01*
X5789391Y-11685808D02*
X5808439Y-11657236D01*
X5808439Y-11657236D02*
X5817963Y-11647712D01*
X5884629Y-11695331D02*
X5894153Y-11685808D01*
X5894153Y-11685808D02*
X5913201Y-11676284D01*
X5913201Y-11676284D02*
X5960820Y-11676284D01*
X5960820Y-11676284D02*
X5979868Y-11685808D01*
X5979868Y-11685808D02*
X5989391Y-11695331D01*
X5989391Y-11695331D02*
X5998915Y-11714379D01*
X5998915Y-11714379D02*
X5998915Y-11733427D01*
X5998915Y-11733427D02*
X5989391Y-11761998D01*
X5989391Y-11761998D02*
X5875106Y-11876284D01*
X5875106Y-11876284D02*
X5998915Y-11876284D01*
X6094153Y-11876284D02*
X6132248Y-11876284D01*
X6132248Y-11876284D02*
X6151296Y-11866760D01*
X6151296Y-11866760D02*
X6160820Y-11857236D01*
X6160820Y-11857236D02*
X6179868Y-11828665D01*
X6179868Y-11828665D02*
X6189391Y-11790569D01*
X6189391Y-11790569D02*
X6189391Y-11714379D01*
X6189391Y-11714379D02*
X6179868Y-11695331D01*
X6179868Y-11695331D02*
X6170344Y-11685808D01*
X6170344Y-11685808D02*
X6151296Y-11676284D01*
X6151296Y-11676284D02*
X6113201Y-11676284D01*
X6113201Y-11676284D02*
X6094153Y-11685808D01*
X6094153Y-11685808D02*
X6084629Y-11695331D01*
X6084629Y-11695331D02*
X6075106Y-11714379D01*
X6075106Y-11714379D02*
X6075106Y-11761998D01*
X6075106Y-11761998D02*
X6084629Y-11781046D01*
X6084629Y-11781046D02*
X6094153Y-11790569D01*
X6094153Y-11790569D02*
X6113201Y-11800093D01*
X6113201Y-11800093D02*
X6151296Y-11800093D01*
X6151296Y-11800093D02*
X6170344Y-11790569D01*
X6170344Y-11790569D02*
X6179868Y-11781046D01*
X6179868Y-11781046D02*
X6189391Y-11761998D01*
X6427487Y-11876284D02*
X6427487Y-11676284D01*
X6513201Y-11876284D02*
X6513201Y-11771522D01*
X6513201Y-11771522D02*
X6503677Y-11752474D01*
X6503677Y-11752474D02*
X6484630Y-11742950D01*
X6484630Y-11742950D02*
X6456058Y-11742950D01*
X6456058Y-11742950D02*
X6437010Y-11752474D01*
X6437010Y-11752474D02*
X6427487Y-11761998D01*
X6637010Y-11876284D02*
X6617963Y-11866760D01*
X6617963Y-11866760D02*
X6608439Y-11857236D01*
X6608439Y-11857236D02*
X6598915Y-11838188D01*
X6598915Y-11838188D02*
X6598915Y-11781046D01*
X6598915Y-11781046D02*
X6608439Y-11761998D01*
X6608439Y-11761998D02*
X6617963Y-11752474D01*
X6617963Y-11752474D02*
X6637010Y-11742950D01*
X6637010Y-11742950D02*
X6665582Y-11742950D01*
X6665582Y-11742950D02*
X6684630Y-11752474D01*
X6684630Y-11752474D02*
X6694153Y-11761998D01*
X6694153Y-11761998D02*
X6703677Y-11781046D01*
X6703677Y-11781046D02*
X6703677Y-11838188D01*
X6703677Y-11838188D02*
X6694153Y-11857236D01*
X6694153Y-11857236D02*
X6684630Y-11866760D01*
X6684630Y-11866760D02*
X6665582Y-11876284D01*
X6665582Y-11876284D02*
X6637010Y-11876284D01*
X6817963Y-11876284D02*
X6798915Y-11866760D01*
X6798915Y-11866760D02*
X6789391Y-11847712D01*
X6789391Y-11847712D02*
X6789391Y-11676284D01*
X6970344Y-11866760D02*
X6951296Y-11876284D01*
X6951296Y-11876284D02*
X6913201Y-11876284D01*
X6913201Y-11876284D02*
X6894153Y-11866760D01*
X6894153Y-11866760D02*
X6884630Y-11847712D01*
X6884630Y-11847712D02*
X6884630Y-11771522D01*
X6884630Y-11771522D02*
X6894153Y-11752474D01*
X6894153Y-11752474D02*
X6913201Y-11742950D01*
X6913201Y-11742950D02*
X6951296Y-11742950D01*
X6951296Y-11742950D02*
X6970344Y-11752474D01*
X6970344Y-11752474D02*
X6979868Y-11771522D01*
X6979868Y-11771522D02*
X6979868Y-11790569D01*
X6979868Y-11790569D02*
X6884630Y-11809617D01*
X7056058Y-11866760D02*
X7075106Y-11876284D01*
X7075106Y-11876284D02*
X7113201Y-11876284D01*
X7113201Y-11876284D02*
X7132249Y-11866760D01*
X7132249Y-11866760D02*
X7141772Y-11847712D01*
X7141772Y-11847712D02*
X7141772Y-11838188D01*
X7141772Y-11838188D02*
X7132249Y-11819141D01*
X7132249Y-11819141D02*
X7113201Y-11809617D01*
X7113201Y-11809617D02*
X7084630Y-11809617D01*
X7084630Y-11809617D02*
X7065582Y-11800093D01*
X7065582Y-11800093D02*
X7056058Y-11781046D01*
X7056058Y-11781046D02*
X7056058Y-11771522D01*
X7056058Y-11771522D02*
X7065582Y-11752474D01*
X7065582Y-11752474D02*
X7084630Y-11742950D01*
X7084630Y-11742950D02*
X7113201Y-11742950D01*
X7113201Y-11742950D02*
X7132249Y-11752474D01*
X7208439Y-11952474D02*
X7217963Y-11942950D01*
X7217963Y-11942950D02*
X7237011Y-11914379D01*
X7237011Y-11914379D02*
X7246534Y-11895331D01*
X7246534Y-11895331D02*
X7256058Y-11866760D01*
X7256058Y-11866760D02*
X7265582Y-11819141D01*
X7265582Y-11819141D02*
X7265582Y-11781046D01*
X7265582Y-11781046D02*
X7256058Y-11733427D01*
X7256058Y-11733427D02*
X7246534Y-11704855D01*
X7246534Y-11704855D02*
X7237011Y-11685808D01*
X7237011Y-11685808D02*
X7217963Y-11657236D01*
X7217963Y-11657236D02*
X7208439Y-11647712D01*
M02*
