%TF.GenerationSoftware,KiCad,Pcbnew,7.0.9*%
%TF.CreationDate,2024-01-03T22:08:46+05:30*%
%TF.ProjectId,BMS LTC6804-2,424d5320-4c54-4433-9638-30342d322e6b,rev?*%
%TF.SameCoordinates,Original*%
%TF.FileFunction,Legend,Top*%
%TF.FilePolarity,Positive*%
%FSLAX46Y46*%
G04 Gerber Fmt 4.6, Leading zero omitted, Abs format (unit mm)*
G04 Created by KiCad (PCBNEW 7.0.9) date 2024-01-03 22:08:46*
%MOMM*%
%LPD*%
G01*
G04 APERTURE LIST*
%ADD10C,0.150000*%
%ADD11C,0.120000*%
G04 APERTURE END LIST*
D10*
X76903342Y-62034380D02*
X76855723Y-62082000D01*
X76855723Y-62082000D02*
X76712866Y-62129619D01*
X76712866Y-62129619D02*
X76617628Y-62129619D01*
X76617628Y-62129619D02*
X76474771Y-62082000D01*
X76474771Y-62082000D02*
X76379533Y-61986761D01*
X76379533Y-61986761D02*
X76331914Y-61891523D01*
X76331914Y-61891523D02*
X76284295Y-61701047D01*
X76284295Y-61701047D02*
X76284295Y-61558190D01*
X76284295Y-61558190D02*
X76331914Y-61367714D01*
X76331914Y-61367714D02*
X76379533Y-61272476D01*
X76379533Y-61272476D02*
X76474771Y-61177238D01*
X76474771Y-61177238D02*
X76617628Y-61129619D01*
X76617628Y-61129619D02*
X76712866Y-61129619D01*
X76712866Y-61129619D02*
X76855723Y-61177238D01*
X76855723Y-61177238D02*
X76903342Y-61224857D01*
X77855723Y-62129619D02*
X77284295Y-62129619D01*
X77570009Y-62129619D02*
X77570009Y-61129619D01*
X77570009Y-61129619D02*
X77474771Y-61272476D01*
X77474771Y-61272476D02*
X77379533Y-61367714D01*
X77379533Y-61367714D02*
X77284295Y-61415333D01*
X78712866Y-61462952D02*
X78712866Y-62129619D01*
X78474771Y-61082000D02*
X78236676Y-61796285D01*
X78236676Y-61796285D02*
X78855723Y-61796285D01*
X37923933Y-61542819D02*
X37590600Y-61066628D01*
X37352505Y-61542819D02*
X37352505Y-60542819D01*
X37352505Y-60542819D02*
X37733457Y-60542819D01*
X37733457Y-60542819D02*
X37828695Y-60590438D01*
X37828695Y-60590438D02*
X37876314Y-60638057D01*
X37876314Y-60638057D02*
X37923933Y-60733295D01*
X37923933Y-60733295D02*
X37923933Y-60876152D01*
X37923933Y-60876152D02*
X37876314Y-60971390D01*
X37876314Y-60971390D02*
X37828695Y-61019009D01*
X37828695Y-61019009D02*
X37733457Y-61066628D01*
X37733457Y-61066628D02*
X37352505Y-61066628D01*
X38876314Y-61542819D02*
X38304886Y-61542819D01*
X38590600Y-61542819D02*
X38590600Y-60542819D01*
X38590600Y-60542819D02*
X38495362Y-60685676D01*
X38495362Y-60685676D02*
X38400124Y-60780914D01*
X38400124Y-60780914D02*
X38304886Y-60828533D01*
X72426533Y-96043219D02*
X72093200Y-95567028D01*
X71855105Y-96043219D02*
X71855105Y-95043219D01*
X71855105Y-95043219D02*
X72236057Y-95043219D01*
X72236057Y-95043219D02*
X72331295Y-95090838D01*
X72331295Y-95090838D02*
X72378914Y-95138457D01*
X72378914Y-95138457D02*
X72426533Y-95233695D01*
X72426533Y-95233695D02*
X72426533Y-95376552D01*
X72426533Y-95376552D02*
X72378914Y-95471790D01*
X72378914Y-95471790D02*
X72331295Y-95519409D01*
X72331295Y-95519409D02*
X72236057Y-95567028D01*
X72236057Y-95567028D02*
X71855105Y-95567028D01*
X72759867Y-95043219D02*
X73426533Y-95043219D01*
X73426533Y-95043219D02*
X72997962Y-96043219D01*
X103454295Y-15355619D02*
X103454295Y-14355619D01*
X103454295Y-14831809D02*
X104025723Y-14831809D01*
X104025723Y-15355619D02*
X104025723Y-14355619D01*
X105025723Y-15355619D02*
X104454295Y-15355619D01*
X104740009Y-15355619D02*
X104740009Y-14355619D01*
X104740009Y-14355619D02*
X104644771Y-14498476D01*
X104644771Y-14498476D02*
X104549533Y-14593714D01*
X104549533Y-14593714D02*
X104454295Y-14641333D01*
X38632019Y-46039066D02*
X38155828Y-46372399D01*
X38632019Y-46610494D02*
X37632019Y-46610494D01*
X37632019Y-46610494D02*
X37632019Y-46229542D01*
X37632019Y-46229542D02*
X37679638Y-46134304D01*
X37679638Y-46134304D02*
X37727257Y-46086685D01*
X37727257Y-46086685D02*
X37822495Y-46039066D01*
X37822495Y-46039066D02*
X37965352Y-46039066D01*
X37965352Y-46039066D02*
X38060590Y-46086685D01*
X38060590Y-46086685D02*
X38108209Y-46134304D01*
X38108209Y-46134304D02*
X38155828Y-46229542D01*
X38155828Y-46229542D02*
X38155828Y-46610494D01*
X37965352Y-45181923D02*
X38632019Y-45181923D01*
X37584400Y-45420018D02*
X38298685Y-45658113D01*
X38298685Y-45658113D02*
X38298685Y-45039066D01*
X54022714Y-39666104D02*
X54498904Y-39666104D01*
X53927476Y-39951819D02*
X54260809Y-38951819D01*
X54260809Y-38951819D02*
X54594142Y-39951819D01*
X55451285Y-39951819D02*
X54879857Y-39951819D01*
X55165571Y-39951819D02*
X55165571Y-38951819D01*
X55165571Y-38951819D02*
X55070333Y-39094676D01*
X55070333Y-39094676D02*
X54975095Y-39189914D01*
X54975095Y-39189914D02*
X54879857Y-39237533D01*
X55425180Y-46124905D02*
X56425180Y-46124905D01*
X56425180Y-46124905D02*
X56425180Y-46363000D01*
X56425180Y-46363000D02*
X56377561Y-46505857D01*
X56377561Y-46505857D02*
X56282323Y-46601095D01*
X56282323Y-46601095D02*
X56187085Y-46648714D01*
X56187085Y-46648714D02*
X55996609Y-46696333D01*
X55996609Y-46696333D02*
X55853752Y-46696333D01*
X55853752Y-46696333D02*
X55663276Y-46648714D01*
X55663276Y-46648714D02*
X55568038Y-46601095D01*
X55568038Y-46601095D02*
X55472800Y-46505857D01*
X55472800Y-46505857D02*
X55425180Y-46363000D01*
X55425180Y-46363000D02*
X55425180Y-46124905D01*
X56425180Y-47315381D02*
X56425180Y-47410619D01*
X56425180Y-47410619D02*
X56377561Y-47505857D01*
X56377561Y-47505857D02*
X56329942Y-47553476D01*
X56329942Y-47553476D02*
X56234704Y-47601095D01*
X56234704Y-47601095D02*
X56044228Y-47648714D01*
X56044228Y-47648714D02*
X55806133Y-47648714D01*
X55806133Y-47648714D02*
X55615657Y-47601095D01*
X55615657Y-47601095D02*
X55520419Y-47553476D01*
X55520419Y-47553476D02*
X55472800Y-47505857D01*
X55472800Y-47505857D02*
X55425180Y-47410619D01*
X55425180Y-47410619D02*
X55425180Y-47315381D01*
X55425180Y-47315381D02*
X55472800Y-47220143D01*
X55472800Y-47220143D02*
X55520419Y-47172524D01*
X55520419Y-47172524D02*
X55615657Y-47124905D01*
X55615657Y-47124905D02*
X55806133Y-47077286D01*
X55806133Y-47077286D02*
X56044228Y-47077286D01*
X56044228Y-47077286D02*
X56234704Y-47124905D01*
X56234704Y-47124905D02*
X56329942Y-47172524D01*
X56329942Y-47172524D02*
X56377561Y-47220143D01*
X56377561Y-47220143D02*
X56425180Y-47315381D01*
X35593819Y-73385333D02*
X36308104Y-73385333D01*
X36308104Y-73385333D02*
X36450961Y-73432952D01*
X36450961Y-73432952D02*
X36546200Y-73528190D01*
X36546200Y-73528190D02*
X36593819Y-73671047D01*
X36593819Y-73671047D02*
X36593819Y-73766285D01*
X36593819Y-72385333D02*
X36593819Y-72956761D01*
X36593819Y-72671047D02*
X35593819Y-72671047D01*
X35593819Y-72671047D02*
X35736676Y-72766285D01*
X35736676Y-72766285D02*
X35831914Y-72861523D01*
X35831914Y-72861523D02*
X35879533Y-72956761D01*
X44424695Y-35856619D02*
X44424695Y-36666142D01*
X44424695Y-36666142D02*
X44472314Y-36761380D01*
X44472314Y-36761380D02*
X44519933Y-36809000D01*
X44519933Y-36809000D02*
X44615171Y-36856619D01*
X44615171Y-36856619D02*
X44805647Y-36856619D01*
X44805647Y-36856619D02*
X44900885Y-36809000D01*
X44900885Y-36809000D02*
X44948504Y-36761380D01*
X44948504Y-36761380D02*
X44996123Y-36666142D01*
X44996123Y-36666142D02*
X44996123Y-35856619D01*
X45900885Y-35856619D02*
X45710409Y-35856619D01*
X45710409Y-35856619D02*
X45615171Y-35904238D01*
X45615171Y-35904238D02*
X45567552Y-35951857D01*
X45567552Y-35951857D02*
X45472314Y-36094714D01*
X45472314Y-36094714D02*
X45424695Y-36285190D01*
X45424695Y-36285190D02*
X45424695Y-36666142D01*
X45424695Y-36666142D02*
X45472314Y-36761380D01*
X45472314Y-36761380D02*
X45519933Y-36809000D01*
X45519933Y-36809000D02*
X45615171Y-36856619D01*
X45615171Y-36856619D02*
X45805647Y-36856619D01*
X45805647Y-36856619D02*
X45900885Y-36809000D01*
X45900885Y-36809000D02*
X45948504Y-36761380D01*
X45948504Y-36761380D02*
X45996123Y-36666142D01*
X45996123Y-36666142D02*
X45996123Y-36428047D01*
X45996123Y-36428047D02*
X45948504Y-36332809D01*
X45948504Y-36332809D02*
X45900885Y-36285190D01*
X45900885Y-36285190D02*
X45805647Y-36237571D01*
X45805647Y-36237571D02*
X45615171Y-36237571D01*
X45615171Y-36237571D02*
X45519933Y-36285190D01*
X45519933Y-36285190D02*
X45472314Y-36332809D01*
X45472314Y-36332809D02*
X45424695Y-36428047D01*
X47159942Y-62762019D02*
X46826609Y-62285828D01*
X46588514Y-62762019D02*
X46588514Y-61762019D01*
X46588514Y-61762019D02*
X46969466Y-61762019D01*
X46969466Y-61762019D02*
X47064704Y-61809638D01*
X47064704Y-61809638D02*
X47112323Y-61857257D01*
X47112323Y-61857257D02*
X47159942Y-61952495D01*
X47159942Y-61952495D02*
X47159942Y-62095352D01*
X47159942Y-62095352D02*
X47112323Y-62190590D01*
X47112323Y-62190590D02*
X47064704Y-62238209D01*
X47064704Y-62238209D02*
X46969466Y-62285828D01*
X46969466Y-62285828D02*
X46588514Y-62285828D01*
X48112323Y-62762019D02*
X47540895Y-62762019D01*
X47826609Y-62762019D02*
X47826609Y-61762019D01*
X47826609Y-61762019D02*
X47731371Y-61904876D01*
X47731371Y-61904876D02*
X47636133Y-62000114D01*
X47636133Y-62000114D02*
X47540895Y-62047733D01*
X49064704Y-62762019D02*
X48493276Y-62762019D01*
X48778990Y-62762019D02*
X48778990Y-61762019D01*
X48778990Y-61762019D02*
X48683752Y-61904876D01*
X48683752Y-61904876D02*
X48588514Y-62000114D01*
X48588514Y-62000114D02*
X48493276Y-62047733D01*
X90289142Y-56968819D02*
X89955809Y-56492628D01*
X89717714Y-56968819D02*
X89717714Y-55968819D01*
X89717714Y-55968819D02*
X90098666Y-55968819D01*
X90098666Y-55968819D02*
X90193904Y-56016438D01*
X90193904Y-56016438D02*
X90241523Y-56064057D01*
X90241523Y-56064057D02*
X90289142Y-56159295D01*
X90289142Y-56159295D02*
X90289142Y-56302152D01*
X90289142Y-56302152D02*
X90241523Y-56397390D01*
X90241523Y-56397390D02*
X90193904Y-56445009D01*
X90193904Y-56445009D02*
X90098666Y-56492628D01*
X90098666Y-56492628D02*
X89717714Y-56492628D01*
X90670095Y-56064057D02*
X90717714Y-56016438D01*
X90717714Y-56016438D02*
X90812952Y-55968819D01*
X90812952Y-55968819D02*
X91051047Y-55968819D01*
X91051047Y-55968819D02*
X91146285Y-56016438D01*
X91146285Y-56016438D02*
X91193904Y-56064057D01*
X91193904Y-56064057D02*
X91241523Y-56159295D01*
X91241523Y-56159295D02*
X91241523Y-56254533D01*
X91241523Y-56254533D02*
X91193904Y-56397390D01*
X91193904Y-56397390D02*
X90622476Y-56968819D01*
X90622476Y-56968819D02*
X91241523Y-56968819D01*
X92098666Y-56302152D02*
X92098666Y-56968819D01*
X91860571Y-55921200D02*
X91622476Y-56635485D01*
X91622476Y-56635485D02*
X92241523Y-56635485D01*
X39270133Y-41271619D02*
X38936800Y-40795428D01*
X38698705Y-41271619D02*
X38698705Y-40271619D01*
X38698705Y-40271619D02*
X39079657Y-40271619D01*
X39079657Y-40271619D02*
X39174895Y-40319238D01*
X39174895Y-40319238D02*
X39222514Y-40366857D01*
X39222514Y-40366857D02*
X39270133Y-40462095D01*
X39270133Y-40462095D02*
X39270133Y-40604952D01*
X39270133Y-40604952D02*
X39222514Y-40700190D01*
X39222514Y-40700190D02*
X39174895Y-40747809D01*
X39174895Y-40747809D02*
X39079657Y-40795428D01*
X39079657Y-40795428D02*
X38698705Y-40795428D01*
X39603467Y-40271619D02*
X40222514Y-40271619D01*
X40222514Y-40271619D02*
X39889181Y-40652571D01*
X39889181Y-40652571D02*
X40032038Y-40652571D01*
X40032038Y-40652571D02*
X40127276Y-40700190D01*
X40127276Y-40700190D02*
X40174895Y-40747809D01*
X40174895Y-40747809D02*
X40222514Y-40843047D01*
X40222514Y-40843047D02*
X40222514Y-41081142D01*
X40222514Y-41081142D02*
X40174895Y-41176380D01*
X40174895Y-41176380D02*
X40127276Y-41224000D01*
X40127276Y-41224000D02*
X40032038Y-41271619D01*
X40032038Y-41271619D02*
X39746324Y-41271619D01*
X39746324Y-41271619D02*
X39651086Y-41224000D01*
X39651086Y-41224000D02*
X39603467Y-41176380D01*
X103479695Y-93740019D02*
X103479695Y-92740019D01*
X103479695Y-93216209D02*
X104051123Y-93216209D01*
X104051123Y-93740019D02*
X104051123Y-92740019D01*
X104955885Y-93073352D02*
X104955885Y-93740019D01*
X104717790Y-92692400D02*
X104479695Y-93406685D01*
X104479695Y-93406685D02*
X105098742Y-93406685D01*
X44629095Y-49893219D02*
X44629095Y-50702742D01*
X44629095Y-50702742D02*
X44676714Y-50797980D01*
X44676714Y-50797980D02*
X44724333Y-50845600D01*
X44724333Y-50845600D02*
X44819571Y-50893219D01*
X44819571Y-50893219D02*
X45010047Y-50893219D01*
X45010047Y-50893219D02*
X45105285Y-50845600D01*
X45105285Y-50845600D02*
X45152904Y-50797980D01*
X45152904Y-50797980D02*
X45200523Y-50702742D01*
X45200523Y-50702742D02*
X45200523Y-49893219D01*
X46200523Y-50893219D02*
X45629095Y-50893219D01*
X45914809Y-50893219D02*
X45914809Y-49893219D01*
X45914809Y-49893219D02*
X45819571Y-50036076D01*
X45819571Y-50036076D02*
X45724333Y-50131314D01*
X45724333Y-50131314D02*
X45629095Y-50178933D01*
X28281666Y-29192819D02*
X28281666Y-29907104D01*
X28281666Y-29907104D02*
X28234047Y-30049961D01*
X28234047Y-30049961D02*
X28138809Y-30145200D01*
X28138809Y-30145200D02*
X27995952Y-30192819D01*
X27995952Y-30192819D02*
X27900714Y-30192819D01*
X29186428Y-29526152D02*
X29186428Y-30192819D01*
X28948333Y-29145200D02*
X28710238Y-29859485D01*
X28710238Y-29859485D02*
X29329285Y-29859485D01*
X89923580Y-54490857D02*
X89971200Y-54538476D01*
X89971200Y-54538476D02*
X90018819Y-54681333D01*
X90018819Y-54681333D02*
X90018819Y-54776571D01*
X90018819Y-54776571D02*
X89971200Y-54919428D01*
X89971200Y-54919428D02*
X89875961Y-55014666D01*
X89875961Y-55014666D02*
X89780723Y-55062285D01*
X89780723Y-55062285D02*
X89590247Y-55109904D01*
X89590247Y-55109904D02*
X89447390Y-55109904D01*
X89447390Y-55109904D02*
X89256914Y-55062285D01*
X89256914Y-55062285D02*
X89161676Y-55014666D01*
X89161676Y-55014666D02*
X89066438Y-54919428D01*
X89066438Y-54919428D02*
X89018819Y-54776571D01*
X89018819Y-54776571D02*
X89018819Y-54681333D01*
X89018819Y-54681333D02*
X89066438Y-54538476D01*
X89066438Y-54538476D02*
X89114057Y-54490857D01*
X90018819Y-53538476D02*
X90018819Y-54109904D01*
X90018819Y-53824190D02*
X89018819Y-53824190D01*
X89018819Y-53824190D02*
X89161676Y-53919428D01*
X89161676Y-53919428D02*
X89256914Y-54014666D01*
X89256914Y-54014666D02*
X89304533Y-54109904D01*
X89018819Y-52633714D02*
X89018819Y-53109904D01*
X89018819Y-53109904D02*
X89495009Y-53157523D01*
X89495009Y-53157523D02*
X89447390Y-53109904D01*
X89447390Y-53109904D02*
X89399771Y-53014666D01*
X89399771Y-53014666D02*
X89399771Y-52776571D01*
X89399771Y-52776571D02*
X89447390Y-52681333D01*
X89447390Y-52681333D02*
X89495009Y-52633714D01*
X89495009Y-52633714D02*
X89590247Y-52586095D01*
X89590247Y-52586095D02*
X89828342Y-52586095D01*
X89828342Y-52586095D02*
X89923580Y-52633714D01*
X89923580Y-52633714D02*
X89971200Y-52681333D01*
X89971200Y-52681333D02*
X90018819Y-52776571D01*
X90018819Y-52776571D02*
X90018819Y-53014666D01*
X90018819Y-53014666D02*
X89971200Y-53109904D01*
X89971200Y-53109904D02*
X89923580Y-53157523D01*
X90162142Y-69541819D02*
X89828809Y-69065628D01*
X89590714Y-69541819D02*
X89590714Y-68541819D01*
X89590714Y-68541819D02*
X89971666Y-68541819D01*
X89971666Y-68541819D02*
X90066904Y-68589438D01*
X90066904Y-68589438D02*
X90114523Y-68637057D01*
X90114523Y-68637057D02*
X90162142Y-68732295D01*
X90162142Y-68732295D02*
X90162142Y-68875152D01*
X90162142Y-68875152D02*
X90114523Y-68970390D01*
X90114523Y-68970390D02*
X90066904Y-69018009D01*
X90066904Y-69018009D02*
X89971666Y-69065628D01*
X89971666Y-69065628D02*
X89590714Y-69065628D01*
X91114523Y-69541819D02*
X90543095Y-69541819D01*
X90828809Y-69541819D02*
X90828809Y-68541819D01*
X90828809Y-68541819D02*
X90733571Y-68684676D01*
X90733571Y-68684676D02*
X90638333Y-68779914D01*
X90638333Y-68779914D02*
X90543095Y-68827533D01*
X91590714Y-69541819D02*
X91781190Y-69541819D01*
X91781190Y-69541819D02*
X91876428Y-69494200D01*
X91876428Y-69494200D02*
X91924047Y-69446580D01*
X91924047Y-69446580D02*
X92019285Y-69303723D01*
X92019285Y-69303723D02*
X92066904Y-69113247D01*
X92066904Y-69113247D02*
X92066904Y-68732295D01*
X92066904Y-68732295D02*
X92019285Y-68637057D01*
X92019285Y-68637057D02*
X91971666Y-68589438D01*
X91971666Y-68589438D02*
X91876428Y-68541819D01*
X91876428Y-68541819D02*
X91685952Y-68541819D01*
X91685952Y-68541819D02*
X91590714Y-68589438D01*
X91590714Y-68589438D02*
X91543095Y-68637057D01*
X91543095Y-68637057D02*
X91495476Y-68732295D01*
X91495476Y-68732295D02*
X91495476Y-68970390D01*
X91495476Y-68970390D02*
X91543095Y-69065628D01*
X91543095Y-69065628D02*
X91590714Y-69113247D01*
X91590714Y-69113247D02*
X91685952Y-69160866D01*
X91685952Y-69160866D02*
X91876428Y-69160866D01*
X91876428Y-69160866D02*
X91971666Y-69113247D01*
X91971666Y-69113247D02*
X92019285Y-69065628D01*
X92019285Y-69065628D02*
X92066904Y-68970390D01*
X89923580Y-59316857D02*
X89971200Y-59364476D01*
X89971200Y-59364476D02*
X90018819Y-59507333D01*
X90018819Y-59507333D02*
X90018819Y-59602571D01*
X90018819Y-59602571D02*
X89971200Y-59745428D01*
X89971200Y-59745428D02*
X89875961Y-59840666D01*
X89875961Y-59840666D02*
X89780723Y-59888285D01*
X89780723Y-59888285D02*
X89590247Y-59935904D01*
X89590247Y-59935904D02*
X89447390Y-59935904D01*
X89447390Y-59935904D02*
X89256914Y-59888285D01*
X89256914Y-59888285D02*
X89161676Y-59840666D01*
X89161676Y-59840666D02*
X89066438Y-59745428D01*
X89066438Y-59745428D02*
X89018819Y-59602571D01*
X89018819Y-59602571D02*
X89018819Y-59507333D01*
X89018819Y-59507333D02*
X89066438Y-59364476D01*
X89066438Y-59364476D02*
X89114057Y-59316857D01*
X90018819Y-58364476D02*
X90018819Y-58935904D01*
X90018819Y-58650190D02*
X89018819Y-58650190D01*
X89018819Y-58650190D02*
X89161676Y-58745428D01*
X89161676Y-58745428D02*
X89256914Y-58840666D01*
X89256914Y-58840666D02*
X89304533Y-58935904D01*
X89018819Y-58031142D02*
X89018819Y-57364476D01*
X89018819Y-57364476D02*
X90018819Y-57793047D01*
X76886180Y-55125857D02*
X76933800Y-55173476D01*
X76933800Y-55173476D02*
X76981419Y-55316333D01*
X76981419Y-55316333D02*
X76981419Y-55411571D01*
X76981419Y-55411571D02*
X76933800Y-55554428D01*
X76933800Y-55554428D02*
X76838561Y-55649666D01*
X76838561Y-55649666D02*
X76743323Y-55697285D01*
X76743323Y-55697285D02*
X76552847Y-55744904D01*
X76552847Y-55744904D02*
X76409990Y-55744904D01*
X76409990Y-55744904D02*
X76219514Y-55697285D01*
X76219514Y-55697285D02*
X76124276Y-55649666D01*
X76124276Y-55649666D02*
X76029038Y-55554428D01*
X76029038Y-55554428D02*
X75981419Y-55411571D01*
X75981419Y-55411571D02*
X75981419Y-55316333D01*
X75981419Y-55316333D02*
X76029038Y-55173476D01*
X76029038Y-55173476D02*
X76076657Y-55125857D01*
X76981419Y-54173476D02*
X76981419Y-54744904D01*
X76981419Y-54459190D02*
X75981419Y-54459190D01*
X75981419Y-54459190D02*
X76124276Y-54554428D01*
X76124276Y-54554428D02*
X76219514Y-54649666D01*
X76219514Y-54649666D02*
X76267133Y-54744904D01*
X76981419Y-53221095D02*
X76981419Y-53792523D01*
X76981419Y-53506809D02*
X75981419Y-53506809D01*
X75981419Y-53506809D02*
X76124276Y-53602047D01*
X76124276Y-53602047D02*
X76219514Y-53697285D01*
X76219514Y-53697285D02*
X76267133Y-53792523D01*
X78628033Y-49581180D02*
X78580414Y-49628800D01*
X78580414Y-49628800D02*
X78437557Y-49676419D01*
X78437557Y-49676419D02*
X78342319Y-49676419D01*
X78342319Y-49676419D02*
X78199462Y-49628800D01*
X78199462Y-49628800D02*
X78104224Y-49533561D01*
X78104224Y-49533561D02*
X78056605Y-49438323D01*
X78056605Y-49438323D02*
X78008986Y-49247847D01*
X78008986Y-49247847D02*
X78008986Y-49104990D01*
X78008986Y-49104990D02*
X78056605Y-48914514D01*
X78056605Y-48914514D02*
X78104224Y-48819276D01*
X78104224Y-48819276D02*
X78199462Y-48724038D01*
X78199462Y-48724038D02*
X78342319Y-48676419D01*
X78342319Y-48676419D02*
X78437557Y-48676419D01*
X78437557Y-48676419D02*
X78580414Y-48724038D01*
X78580414Y-48724038D02*
X78628033Y-48771657D01*
X79580414Y-49676419D02*
X79008986Y-49676419D01*
X79294700Y-49676419D02*
X79294700Y-48676419D01*
X79294700Y-48676419D02*
X79199462Y-48819276D01*
X79199462Y-48819276D02*
X79104224Y-48914514D01*
X79104224Y-48914514D02*
X79008986Y-48962133D01*
X78314561Y-89894857D02*
X78219323Y-89847238D01*
X78219323Y-89847238D02*
X78124085Y-89752000D01*
X78124085Y-89752000D02*
X77981228Y-89609142D01*
X77981228Y-89609142D02*
X77885990Y-89561523D01*
X77885990Y-89561523D02*
X77790752Y-89561523D01*
X77838371Y-89799619D02*
X77743133Y-89752000D01*
X77743133Y-89752000D02*
X77647895Y-89656761D01*
X77647895Y-89656761D02*
X77600276Y-89466285D01*
X77600276Y-89466285D02*
X77600276Y-89132952D01*
X77600276Y-89132952D02*
X77647895Y-88942476D01*
X77647895Y-88942476D02*
X77743133Y-88847238D01*
X77743133Y-88847238D02*
X77838371Y-88799619D01*
X77838371Y-88799619D02*
X78028847Y-88799619D01*
X78028847Y-88799619D02*
X78124085Y-88847238D01*
X78124085Y-88847238D02*
X78219323Y-88942476D01*
X78219323Y-88942476D02*
X78266942Y-89132952D01*
X78266942Y-89132952D02*
X78266942Y-89466285D01*
X78266942Y-89466285D02*
X78219323Y-89656761D01*
X78219323Y-89656761D02*
X78124085Y-89752000D01*
X78124085Y-89752000D02*
X78028847Y-89799619D01*
X78028847Y-89799619D02*
X77838371Y-89799619D01*
X79219323Y-89799619D02*
X78647895Y-89799619D01*
X78933609Y-89799619D02*
X78933609Y-88799619D01*
X78933609Y-88799619D02*
X78838371Y-88942476D01*
X78838371Y-88942476D02*
X78743133Y-89037714D01*
X78743133Y-89037714D02*
X78647895Y-89085333D01*
X74854180Y-57386457D02*
X74901800Y-57434076D01*
X74901800Y-57434076D02*
X74949419Y-57576933D01*
X74949419Y-57576933D02*
X74949419Y-57672171D01*
X74949419Y-57672171D02*
X74901800Y-57815028D01*
X74901800Y-57815028D02*
X74806561Y-57910266D01*
X74806561Y-57910266D02*
X74711323Y-57957885D01*
X74711323Y-57957885D02*
X74520847Y-58005504D01*
X74520847Y-58005504D02*
X74377990Y-58005504D01*
X74377990Y-58005504D02*
X74187514Y-57957885D01*
X74187514Y-57957885D02*
X74092276Y-57910266D01*
X74092276Y-57910266D02*
X73997038Y-57815028D01*
X73997038Y-57815028D02*
X73949419Y-57672171D01*
X73949419Y-57672171D02*
X73949419Y-57576933D01*
X73949419Y-57576933D02*
X73997038Y-57434076D01*
X73997038Y-57434076D02*
X74044657Y-57386457D01*
X74949419Y-56434076D02*
X74949419Y-57005504D01*
X74949419Y-56719790D02*
X73949419Y-56719790D01*
X73949419Y-56719790D02*
X74092276Y-56815028D01*
X74092276Y-56815028D02*
X74187514Y-56910266D01*
X74187514Y-56910266D02*
X74235133Y-57005504D01*
X73949419Y-56100742D02*
X73949419Y-55481695D01*
X73949419Y-55481695D02*
X74330371Y-55815028D01*
X74330371Y-55815028D02*
X74330371Y-55672171D01*
X74330371Y-55672171D02*
X74377990Y-55576933D01*
X74377990Y-55576933D02*
X74425609Y-55529314D01*
X74425609Y-55529314D02*
X74520847Y-55481695D01*
X74520847Y-55481695D02*
X74758942Y-55481695D01*
X74758942Y-55481695D02*
X74854180Y-55529314D01*
X74854180Y-55529314D02*
X74901800Y-55576933D01*
X74901800Y-55576933D02*
X74949419Y-55672171D01*
X74949419Y-55672171D02*
X74949419Y-55957885D01*
X74949419Y-55957885D02*
X74901800Y-56053123D01*
X74901800Y-56053123D02*
X74854180Y-56100742D01*
X35868819Y-49101333D02*
X36583104Y-49101333D01*
X36583104Y-49101333D02*
X36725961Y-49148952D01*
X36725961Y-49148952D02*
X36821200Y-49244190D01*
X36821200Y-49244190D02*
X36868819Y-49387047D01*
X36868819Y-49387047D02*
X36868819Y-49482285D01*
X35868819Y-48720380D02*
X35868819Y-48053714D01*
X35868819Y-48053714D02*
X36868819Y-48482285D01*
X86650533Y-97587180D02*
X86602914Y-97634800D01*
X86602914Y-97634800D02*
X86460057Y-97682419D01*
X86460057Y-97682419D02*
X86364819Y-97682419D01*
X86364819Y-97682419D02*
X86221962Y-97634800D01*
X86221962Y-97634800D02*
X86126724Y-97539561D01*
X86126724Y-97539561D02*
X86079105Y-97444323D01*
X86079105Y-97444323D02*
X86031486Y-97253847D01*
X86031486Y-97253847D02*
X86031486Y-97110990D01*
X86031486Y-97110990D02*
X86079105Y-96920514D01*
X86079105Y-96920514D02*
X86126724Y-96825276D01*
X86126724Y-96825276D02*
X86221962Y-96730038D01*
X86221962Y-96730038D02*
X86364819Y-96682419D01*
X86364819Y-96682419D02*
X86460057Y-96682419D01*
X86460057Y-96682419D02*
X86602914Y-96730038D01*
X86602914Y-96730038D02*
X86650533Y-96777657D01*
X87126724Y-97682419D02*
X87317200Y-97682419D01*
X87317200Y-97682419D02*
X87412438Y-97634800D01*
X87412438Y-97634800D02*
X87460057Y-97587180D01*
X87460057Y-97587180D02*
X87555295Y-97444323D01*
X87555295Y-97444323D02*
X87602914Y-97253847D01*
X87602914Y-97253847D02*
X87602914Y-96872895D01*
X87602914Y-96872895D02*
X87555295Y-96777657D01*
X87555295Y-96777657D02*
X87507676Y-96730038D01*
X87507676Y-96730038D02*
X87412438Y-96682419D01*
X87412438Y-96682419D02*
X87221962Y-96682419D01*
X87221962Y-96682419D02*
X87126724Y-96730038D01*
X87126724Y-96730038D02*
X87079105Y-96777657D01*
X87079105Y-96777657D02*
X87031486Y-96872895D01*
X87031486Y-96872895D02*
X87031486Y-97110990D01*
X87031486Y-97110990D02*
X87079105Y-97206228D01*
X87079105Y-97206228D02*
X87126724Y-97253847D01*
X87126724Y-97253847D02*
X87221962Y-97301466D01*
X87221962Y-97301466D02*
X87412438Y-97301466D01*
X87412438Y-97301466D02*
X87507676Y-97253847D01*
X87507676Y-97253847D02*
X87555295Y-97206228D01*
X87555295Y-97206228D02*
X87602914Y-97110990D01*
X44526295Y-48552419D02*
X44526295Y-49361942D01*
X44526295Y-49361942D02*
X44573914Y-49457180D01*
X44573914Y-49457180D02*
X44621533Y-49504800D01*
X44621533Y-49504800D02*
X44716771Y-49552419D01*
X44716771Y-49552419D02*
X44907247Y-49552419D01*
X44907247Y-49552419D02*
X45002485Y-49504800D01*
X45002485Y-49504800D02*
X45050104Y-49457180D01*
X45050104Y-49457180D02*
X45097723Y-49361942D01*
X45097723Y-49361942D02*
X45097723Y-48552419D01*
X45478676Y-48552419D02*
X46145342Y-48552419D01*
X46145342Y-48552419D02*
X45716771Y-49552419D01*
X72426533Y-93093219D02*
X72093200Y-92617028D01*
X71855105Y-93093219D02*
X71855105Y-92093219D01*
X71855105Y-92093219D02*
X72236057Y-92093219D01*
X72236057Y-92093219D02*
X72331295Y-92140838D01*
X72331295Y-92140838D02*
X72378914Y-92188457D01*
X72378914Y-92188457D02*
X72426533Y-92283695D01*
X72426533Y-92283695D02*
X72426533Y-92426552D01*
X72426533Y-92426552D02*
X72378914Y-92521790D01*
X72378914Y-92521790D02*
X72331295Y-92569409D01*
X72331295Y-92569409D02*
X72236057Y-92617028D01*
X72236057Y-92617028D02*
X71855105Y-92617028D01*
X73283676Y-92093219D02*
X73093200Y-92093219D01*
X73093200Y-92093219D02*
X72997962Y-92140838D01*
X72997962Y-92140838D02*
X72950343Y-92188457D01*
X72950343Y-92188457D02*
X72855105Y-92331314D01*
X72855105Y-92331314D02*
X72807486Y-92521790D01*
X72807486Y-92521790D02*
X72807486Y-92902742D01*
X72807486Y-92902742D02*
X72855105Y-92997980D01*
X72855105Y-92997980D02*
X72902724Y-93045600D01*
X72902724Y-93045600D02*
X72997962Y-93093219D01*
X72997962Y-93093219D02*
X73188438Y-93093219D01*
X73188438Y-93093219D02*
X73283676Y-93045600D01*
X73283676Y-93045600D02*
X73331295Y-92997980D01*
X73331295Y-92997980D02*
X73378914Y-92902742D01*
X73378914Y-92902742D02*
X73378914Y-92664647D01*
X73378914Y-92664647D02*
X73331295Y-92569409D01*
X73331295Y-92569409D02*
X73283676Y-92521790D01*
X73283676Y-92521790D02*
X73188438Y-92474171D01*
X73188438Y-92474171D02*
X72997962Y-92474171D01*
X72997962Y-92474171D02*
X72902724Y-92521790D01*
X72902724Y-92521790D02*
X72855105Y-92569409D01*
X72855105Y-92569409D02*
X72807486Y-92664647D01*
X46855142Y-34671380D02*
X46807523Y-34719000D01*
X46807523Y-34719000D02*
X46664666Y-34766619D01*
X46664666Y-34766619D02*
X46569428Y-34766619D01*
X46569428Y-34766619D02*
X46426571Y-34719000D01*
X46426571Y-34719000D02*
X46331333Y-34623761D01*
X46331333Y-34623761D02*
X46283714Y-34528523D01*
X46283714Y-34528523D02*
X46236095Y-34338047D01*
X46236095Y-34338047D02*
X46236095Y-34195190D01*
X46236095Y-34195190D02*
X46283714Y-34004714D01*
X46283714Y-34004714D02*
X46331333Y-33909476D01*
X46331333Y-33909476D02*
X46426571Y-33814238D01*
X46426571Y-33814238D02*
X46569428Y-33766619D01*
X46569428Y-33766619D02*
X46664666Y-33766619D01*
X46664666Y-33766619D02*
X46807523Y-33814238D01*
X46807523Y-33814238D02*
X46855142Y-33861857D01*
X47807523Y-34766619D02*
X47236095Y-34766619D01*
X47521809Y-34766619D02*
X47521809Y-33766619D01*
X47521809Y-33766619D02*
X47426571Y-33909476D01*
X47426571Y-33909476D02*
X47331333Y-34004714D01*
X47331333Y-34004714D02*
X47236095Y-34052333D01*
X48426571Y-33766619D02*
X48521809Y-33766619D01*
X48521809Y-33766619D02*
X48617047Y-33814238D01*
X48617047Y-33814238D02*
X48664666Y-33861857D01*
X48664666Y-33861857D02*
X48712285Y-33957095D01*
X48712285Y-33957095D02*
X48759904Y-34147571D01*
X48759904Y-34147571D02*
X48759904Y-34385666D01*
X48759904Y-34385666D02*
X48712285Y-34576142D01*
X48712285Y-34576142D02*
X48664666Y-34671380D01*
X48664666Y-34671380D02*
X48617047Y-34719000D01*
X48617047Y-34719000D02*
X48521809Y-34766619D01*
X48521809Y-34766619D02*
X48426571Y-34766619D01*
X48426571Y-34766619D02*
X48331333Y-34719000D01*
X48331333Y-34719000D02*
X48283714Y-34671380D01*
X48283714Y-34671380D02*
X48236095Y-34576142D01*
X48236095Y-34576142D02*
X48188476Y-34385666D01*
X48188476Y-34385666D02*
X48188476Y-34147571D01*
X48188476Y-34147571D02*
X48236095Y-33957095D01*
X48236095Y-33957095D02*
X48283714Y-33861857D01*
X48283714Y-33861857D02*
X48331333Y-33814238D01*
X48331333Y-33814238D02*
X48426571Y-33766619D01*
X88257142Y-48713819D02*
X87923809Y-48237628D01*
X87685714Y-48713819D02*
X87685714Y-47713819D01*
X87685714Y-47713819D02*
X88066666Y-47713819D01*
X88066666Y-47713819D02*
X88161904Y-47761438D01*
X88161904Y-47761438D02*
X88209523Y-47809057D01*
X88209523Y-47809057D02*
X88257142Y-47904295D01*
X88257142Y-47904295D02*
X88257142Y-48047152D01*
X88257142Y-48047152D02*
X88209523Y-48142390D01*
X88209523Y-48142390D02*
X88161904Y-48190009D01*
X88161904Y-48190009D02*
X88066666Y-48237628D01*
X88066666Y-48237628D02*
X87685714Y-48237628D01*
X88590476Y-47713819D02*
X89209523Y-47713819D01*
X89209523Y-47713819D02*
X88876190Y-48094771D01*
X88876190Y-48094771D02*
X89019047Y-48094771D01*
X89019047Y-48094771D02*
X89114285Y-48142390D01*
X89114285Y-48142390D02*
X89161904Y-48190009D01*
X89161904Y-48190009D02*
X89209523Y-48285247D01*
X89209523Y-48285247D02*
X89209523Y-48523342D01*
X89209523Y-48523342D02*
X89161904Y-48618580D01*
X89161904Y-48618580D02*
X89114285Y-48666200D01*
X89114285Y-48666200D02*
X89019047Y-48713819D01*
X89019047Y-48713819D02*
X88733333Y-48713819D01*
X88733333Y-48713819D02*
X88638095Y-48666200D01*
X88638095Y-48666200D02*
X88590476Y-48618580D01*
X89828571Y-47713819D02*
X89923809Y-47713819D01*
X89923809Y-47713819D02*
X90019047Y-47761438D01*
X90019047Y-47761438D02*
X90066666Y-47809057D01*
X90066666Y-47809057D02*
X90114285Y-47904295D01*
X90114285Y-47904295D02*
X90161904Y-48094771D01*
X90161904Y-48094771D02*
X90161904Y-48332866D01*
X90161904Y-48332866D02*
X90114285Y-48523342D01*
X90114285Y-48523342D02*
X90066666Y-48618580D01*
X90066666Y-48618580D02*
X90019047Y-48666200D01*
X90019047Y-48666200D02*
X89923809Y-48713819D01*
X89923809Y-48713819D02*
X89828571Y-48713819D01*
X89828571Y-48713819D02*
X89733333Y-48666200D01*
X89733333Y-48666200D02*
X89685714Y-48618580D01*
X89685714Y-48618580D02*
X89638095Y-48523342D01*
X89638095Y-48523342D02*
X89590476Y-48332866D01*
X89590476Y-48332866D02*
X89590476Y-48094771D01*
X89590476Y-48094771D02*
X89638095Y-47904295D01*
X89638095Y-47904295D02*
X89685714Y-47809057D01*
X89685714Y-47809057D02*
X89733333Y-47761438D01*
X89733333Y-47761438D02*
X89828571Y-47713819D01*
X52244419Y-39282666D02*
X51768228Y-39615999D01*
X52244419Y-39854094D02*
X51244419Y-39854094D01*
X51244419Y-39854094D02*
X51244419Y-39473142D01*
X51244419Y-39473142D02*
X51292038Y-39377904D01*
X51292038Y-39377904D02*
X51339657Y-39330285D01*
X51339657Y-39330285D02*
X51434895Y-39282666D01*
X51434895Y-39282666D02*
X51577752Y-39282666D01*
X51577752Y-39282666D02*
X51672990Y-39330285D01*
X51672990Y-39330285D02*
X51720609Y-39377904D01*
X51720609Y-39377904D02*
X51768228Y-39473142D01*
X51768228Y-39473142D02*
X51768228Y-39854094D01*
X51672990Y-38711237D02*
X51625371Y-38806475D01*
X51625371Y-38806475D02*
X51577752Y-38854094D01*
X51577752Y-38854094D02*
X51482514Y-38901713D01*
X51482514Y-38901713D02*
X51434895Y-38901713D01*
X51434895Y-38901713D02*
X51339657Y-38854094D01*
X51339657Y-38854094D02*
X51292038Y-38806475D01*
X51292038Y-38806475D02*
X51244419Y-38711237D01*
X51244419Y-38711237D02*
X51244419Y-38520761D01*
X51244419Y-38520761D02*
X51292038Y-38425523D01*
X51292038Y-38425523D02*
X51339657Y-38377904D01*
X51339657Y-38377904D02*
X51434895Y-38330285D01*
X51434895Y-38330285D02*
X51482514Y-38330285D01*
X51482514Y-38330285D02*
X51577752Y-38377904D01*
X51577752Y-38377904D02*
X51625371Y-38425523D01*
X51625371Y-38425523D02*
X51672990Y-38520761D01*
X51672990Y-38520761D02*
X51672990Y-38711237D01*
X51672990Y-38711237D02*
X51720609Y-38806475D01*
X51720609Y-38806475D02*
X51768228Y-38854094D01*
X51768228Y-38854094D02*
X51863466Y-38901713D01*
X51863466Y-38901713D02*
X52053942Y-38901713D01*
X52053942Y-38901713D02*
X52149180Y-38854094D01*
X52149180Y-38854094D02*
X52196800Y-38806475D01*
X52196800Y-38806475D02*
X52244419Y-38711237D01*
X52244419Y-38711237D02*
X52244419Y-38520761D01*
X52244419Y-38520761D02*
X52196800Y-38425523D01*
X52196800Y-38425523D02*
X52149180Y-38377904D01*
X52149180Y-38377904D02*
X52053942Y-38330285D01*
X52053942Y-38330285D02*
X51863466Y-38330285D01*
X51863466Y-38330285D02*
X51768228Y-38377904D01*
X51768228Y-38377904D02*
X51720609Y-38425523D01*
X51720609Y-38425523D02*
X51672990Y-38520761D01*
X90289142Y-59381819D02*
X89955809Y-58905628D01*
X89717714Y-59381819D02*
X89717714Y-58381819D01*
X89717714Y-58381819D02*
X90098666Y-58381819D01*
X90098666Y-58381819D02*
X90193904Y-58429438D01*
X90193904Y-58429438D02*
X90241523Y-58477057D01*
X90241523Y-58477057D02*
X90289142Y-58572295D01*
X90289142Y-58572295D02*
X90289142Y-58715152D01*
X90289142Y-58715152D02*
X90241523Y-58810390D01*
X90241523Y-58810390D02*
X90193904Y-58858009D01*
X90193904Y-58858009D02*
X90098666Y-58905628D01*
X90098666Y-58905628D02*
X89717714Y-58905628D01*
X90670095Y-58477057D02*
X90717714Y-58429438D01*
X90717714Y-58429438D02*
X90812952Y-58381819D01*
X90812952Y-58381819D02*
X91051047Y-58381819D01*
X91051047Y-58381819D02*
X91146285Y-58429438D01*
X91146285Y-58429438D02*
X91193904Y-58477057D01*
X91193904Y-58477057D02*
X91241523Y-58572295D01*
X91241523Y-58572295D02*
X91241523Y-58667533D01*
X91241523Y-58667533D02*
X91193904Y-58810390D01*
X91193904Y-58810390D02*
X90622476Y-59381819D01*
X90622476Y-59381819D02*
X91241523Y-59381819D01*
X91574857Y-58381819D02*
X92193904Y-58381819D01*
X92193904Y-58381819D02*
X91860571Y-58762771D01*
X91860571Y-58762771D02*
X92003428Y-58762771D01*
X92003428Y-58762771D02*
X92098666Y-58810390D01*
X92098666Y-58810390D02*
X92146285Y-58858009D01*
X92146285Y-58858009D02*
X92193904Y-58953247D01*
X92193904Y-58953247D02*
X92193904Y-59191342D01*
X92193904Y-59191342D02*
X92146285Y-59286580D01*
X92146285Y-59286580D02*
X92098666Y-59334200D01*
X92098666Y-59334200D02*
X92003428Y-59381819D01*
X92003428Y-59381819D02*
X91717714Y-59381819D01*
X91717714Y-59381819D02*
X91622476Y-59334200D01*
X91622476Y-59334200D02*
X91574857Y-59286580D01*
X35868819Y-58551333D02*
X36583104Y-58551333D01*
X36583104Y-58551333D02*
X36725961Y-58598952D01*
X36725961Y-58598952D02*
X36821200Y-58694190D01*
X36821200Y-58694190D02*
X36868819Y-58837047D01*
X36868819Y-58837047D02*
X36868819Y-58932285D01*
X36297390Y-57932285D02*
X36249771Y-58027523D01*
X36249771Y-58027523D02*
X36202152Y-58075142D01*
X36202152Y-58075142D02*
X36106914Y-58122761D01*
X36106914Y-58122761D02*
X36059295Y-58122761D01*
X36059295Y-58122761D02*
X35964057Y-58075142D01*
X35964057Y-58075142D02*
X35916438Y-58027523D01*
X35916438Y-58027523D02*
X35868819Y-57932285D01*
X35868819Y-57932285D02*
X35868819Y-57741809D01*
X35868819Y-57741809D02*
X35916438Y-57646571D01*
X35916438Y-57646571D02*
X35964057Y-57598952D01*
X35964057Y-57598952D02*
X36059295Y-57551333D01*
X36059295Y-57551333D02*
X36106914Y-57551333D01*
X36106914Y-57551333D02*
X36202152Y-57598952D01*
X36202152Y-57598952D02*
X36249771Y-57646571D01*
X36249771Y-57646571D02*
X36297390Y-57741809D01*
X36297390Y-57741809D02*
X36297390Y-57932285D01*
X36297390Y-57932285D02*
X36345009Y-58027523D01*
X36345009Y-58027523D02*
X36392628Y-58075142D01*
X36392628Y-58075142D02*
X36487866Y-58122761D01*
X36487866Y-58122761D02*
X36678342Y-58122761D01*
X36678342Y-58122761D02*
X36773580Y-58075142D01*
X36773580Y-58075142D02*
X36821200Y-58027523D01*
X36821200Y-58027523D02*
X36868819Y-57932285D01*
X36868819Y-57932285D02*
X36868819Y-57741809D01*
X36868819Y-57741809D02*
X36821200Y-57646571D01*
X36821200Y-57646571D02*
X36773580Y-57598952D01*
X36773580Y-57598952D02*
X36678342Y-57551333D01*
X36678342Y-57551333D02*
X36487866Y-57551333D01*
X36487866Y-57551333D02*
X36392628Y-57598952D01*
X36392628Y-57598952D02*
X36345009Y-57646571D01*
X36345009Y-57646571D02*
X36297390Y-57741809D01*
X86345733Y-88036780D02*
X86298114Y-88084400D01*
X86298114Y-88084400D02*
X86155257Y-88132019D01*
X86155257Y-88132019D02*
X86060019Y-88132019D01*
X86060019Y-88132019D02*
X85917162Y-88084400D01*
X85917162Y-88084400D02*
X85821924Y-87989161D01*
X85821924Y-87989161D02*
X85774305Y-87893923D01*
X85774305Y-87893923D02*
X85726686Y-87703447D01*
X85726686Y-87703447D02*
X85726686Y-87560590D01*
X85726686Y-87560590D02*
X85774305Y-87370114D01*
X85774305Y-87370114D02*
X85821924Y-87274876D01*
X85821924Y-87274876D02*
X85917162Y-87179638D01*
X85917162Y-87179638D02*
X86060019Y-87132019D01*
X86060019Y-87132019D02*
X86155257Y-87132019D01*
X86155257Y-87132019D02*
X86298114Y-87179638D01*
X86298114Y-87179638D02*
X86345733Y-87227257D01*
X86917162Y-87560590D02*
X86821924Y-87512971D01*
X86821924Y-87512971D02*
X86774305Y-87465352D01*
X86774305Y-87465352D02*
X86726686Y-87370114D01*
X86726686Y-87370114D02*
X86726686Y-87322495D01*
X86726686Y-87322495D02*
X86774305Y-87227257D01*
X86774305Y-87227257D02*
X86821924Y-87179638D01*
X86821924Y-87179638D02*
X86917162Y-87132019D01*
X86917162Y-87132019D02*
X87107638Y-87132019D01*
X87107638Y-87132019D02*
X87202876Y-87179638D01*
X87202876Y-87179638D02*
X87250495Y-87227257D01*
X87250495Y-87227257D02*
X87298114Y-87322495D01*
X87298114Y-87322495D02*
X87298114Y-87370114D01*
X87298114Y-87370114D02*
X87250495Y-87465352D01*
X87250495Y-87465352D02*
X87202876Y-87512971D01*
X87202876Y-87512971D02*
X87107638Y-87560590D01*
X87107638Y-87560590D02*
X86917162Y-87560590D01*
X86917162Y-87560590D02*
X86821924Y-87608209D01*
X86821924Y-87608209D02*
X86774305Y-87655828D01*
X86774305Y-87655828D02*
X86726686Y-87751066D01*
X86726686Y-87751066D02*
X86726686Y-87941542D01*
X86726686Y-87941542D02*
X86774305Y-88036780D01*
X86774305Y-88036780D02*
X86821924Y-88084400D01*
X86821924Y-88084400D02*
X86917162Y-88132019D01*
X86917162Y-88132019D02*
X87107638Y-88132019D01*
X87107638Y-88132019D02*
X87202876Y-88084400D01*
X87202876Y-88084400D02*
X87250495Y-88036780D01*
X87250495Y-88036780D02*
X87298114Y-87941542D01*
X87298114Y-87941542D02*
X87298114Y-87751066D01*
X87298114Y-87751066D02*
X87250495Y-87655828D01*
X87250495Y-87655828D02*
X87202876Y-87608209D01*
X87202876Y-87608209D02*
X87107638Y-87560590D01*
X90289142Y-67128819D02*
X89955809Y-66652628D01*
X89717714Y-67128819D02*
X89717714Y-66128819D01*
X89717714Y-66128819D02*
X90098666Y-66128819D01*
X90098666Y-66128819D02*
X90193904Y-66176438D01*
X90193904Y-66176438D02*
X90241523Y-66224057D01*
X90241523Y-66224057D02*
X90289142Y-66319295D01*
X90289142Y-66319295D02*
X90289142Y-66462152D01*
X90289142Y-66462152D02*
X90241523Y-66557390D01*
X90241523Y-66557390D02*
X90193904Y-66605009D01*
X90193904Y-66605009D02*
X90098666Y-66652628D01*
X90098666Y-66652628D02*
X89717714Y-66652628D01*
X90670095Y-66224057D02*
X90717714Y-66176438D01*
X90717714Y-66176438D02*
X90812952Y-66128819D01*
X90812952Y-66128819D02*
X91051047Y-66128819D01*
X91051047Y-66128819D02*
X91146285Y-66176438D01*
X91146285Y-66176438D02*
X91193904Y-66224057D01*
X91193904Y-66224057D02*
X91241523Y-66319295D01*
X91241523Y-66319295D02*
X91241523Y-66414533D01*
X91241523Y-66414533D02*
X91193904Y-66557390D01*
X91193904Y-66557390D02*
X90622476Y-67128819D01*
X90622476Y-67128819D02*
X91241523Y-67128819D01*
X91860571Y-66128819D02*
X91955809Y-66128819D01*
X91955809Y-66128819D02*
X92051047Y-66176438D01*
X92051047Y-66176438D02*
X92098666Y-66224057D01*
X92098666Y-66224057D02*
X92146285Y-66319295D01*
X92146285Y-66319295D02*
X92193904Y-66509771D01*
X92193904Y-66509771D02*
X92193904Y-66747866D01*
X92193904Y-66747866D02*
X92146285Y-66938342D01*
X92146285Y-66938342D02*
X92098666Y-67033580D01*
X92098666Y-67033580D02*
X92051047Y-67081200D01*
X92051047Y-67081200D02*
X91955809Y-67128819D01*
X91955809Y-67128819D02*
X91860571Y-67128819D01*
X91860571Y-67128819D02*
X91765333Y-67081200D01*
X91765333Y-67081200D02*
X91717714Y-67033580D01*
X91717714Y-67033580D02*
X91670095Y-66938342D01*
X91670095Y-66938342D02*
X91622476Y-66747866D01*
X91622476Y-66747866D02*
X91622476Y-66509771D01*
X91622476Y-66509771D02*
X91670095Y-66319295D01*
X91670095Y-66319295D02*
X91717714Y-66224057D01*
X91717714Y-66224057D02*
X91765333Y-66176438D01*
X91765333Y-66176438D02*
X91860571Y-66128819D01*
X88705495Y-89035419D02*
X88705495Y-89844942D01*
X88705495Y-89844942D02*
X88753114Y-89940180D01*
X88753114Y-89940180D02*
X88800733Y-89987800D01*
X88800733Y-89987800D02*
X88895971Y-90035419D01*
X88895971Y-90035419D02*
X89086447Y-90035419D01*
X89086447Y-90035419D02*
X89181685Y-89987800D01*
X89181685Y-89987800D02*
X89229304Y-89940180D01*
X89229304Y-89940180D02*
X89276923Y-89844942D01*
X89276923Y-89844942D02*
X89276923Y-89035419D01*
X89895971Y-89463990D02*
X89800733Y-89416371D01*
X89800733Y-89416371D02*
X89753114Y-89368752D01*
X89753114Y-89368752D02*
X89705495Y-89273514D01*
X89705495Y-89273514D02*
X89705495Y-89225895D01*
X89705495Y-89225895D02*
X89753114Y-89130657D01*
X89753114Y-89130657D02*
X89800733Y-89083038D01*
X89800733Y-89083038D02*
X89895971Y-89035419D01*
X89895971Y-89035419D02*
X90086447Y-89035419D01*
X90086447Y-89035419D02*
X90181685Y-89083038D01*
X90181685Y-89083038D02*
X90229304Y-89130657D01*
X90229304Y-89130657D02*
X90276923Y-89225895D01*
X90276923Y-89225895D02*
X90276923Y-89273514D01*
X90276923Y-89273514D02*
X90229304Y-89368752D01*
X90229304Y-89368752D02*
X90181685Y-89416371D01*
X90181685Y-89416371D02*
X90086447Y-89463990D01*
X90086447Y-89463990D02*
X89895971Y-89463990D01*
X89895971Y-89463990D02*
X89800733Y-89511609D01*
X89800733Y-89511609D02*
X89753114Y-89559228D01*
X89753114Y-89559228D02*
X89705495Y-89654466D01*
X89705495Y-89654466D02*
X89705495Y-89844942D01*
X89705495Y-89844942D02*
X89753114Y-89940180D01*
X89753114Y-89940180D02*
X89800733Y-89987800D01*
X89800733Y-89987800D02*
X89895971Y-90035419D01*
X89895971Y-90035419D02*
X90086447Y-90035419D01*
X90086447Y-90035419D02*
X90181685Y-89987800D01*
X90181685Y-89987800D02*
X90229304Y-89940180D01*
X90229304Y-89940180D02*
X90276923Y-89844942D01*
X90276923Y-89844942D02*
X90276923Y-89654466D01*
X90276923Y-89654466D02*
X90229304Y-89559228D01*
X90229304Y-89559228D02*
X90181685Y-89511609D01*
X90181685Y-89511609D02*
X90086447Y-89463990D01*
X93490819Y-60284333D02*
X94205104Y-60284333D01*
X94205104Y-60284333D02*
X94347961Y-60331952D01*
X94347961Y-60331952D02*
X94443200Y-60427190D01*
X94443200Y-60427190D02*
X94490819Y-60570047D01*
X94490819Y-60570047D02*
X94490819Y-60665285D01*
X94490819Y-59760523D02*
X94490819Y-59570047D01*
X94490819Y-59570047D02*
X94443200Y-59474809D01*
X94443200Y-59474809D02*
X94395580Y-59427190D01*
X94395580Y-59427190D02*
X94252723Y-59331952D01*
X94252723Y-59331952D02*
X94062247Y-59284333D01*
X94062247Y-59284333D02*
X93681295Y-59284333D01*
X93681295Y-59284333D02*
X93586057Y-59331952D01*
X93586057Y-59331952D02*
X93538438Y-59379571D01*
X93538438Y-59379571D02*
X93490819Y-59474809D01*
X93490819Y-59474809D02*
X93490819Y-59665285D01*
X93490819Y-59665285D02*
X93538438Y-59760523D01*
X93538438Y-59760523D02*
X93586057Y-59808142D01*
X93586057Y-59808142D02*
X93681295Y-59855761D01*
X93681295Y-59855761D02*
X93919390Y-59855761D01*
X93919390Y-59855761D02*
X94014628Y-59808142D01*
X94014628Y-59808142D02*
X94062247Y-59760523D01*
X94062247Y-59760523D02*
X94109866Y-59665285D01*
X94109866Y-59665285D02*
X94109866Y-59474809D01*
X94109866Y-59474809D02*
X94062247Y-59379571D01*
X94062247Y-59379571D02*
X94014628Y-59331952D01*
X94014628Y-59331952D02*
X93919390Y-59284333D01*
X65049495Y-89161619D02*
X65049495Y-89971142D01*
X65049495Y-89971142D02*
X65097114Y-90066380D01*
X65097114Y-90066380D02*
X65144733Y-90114000D01*
X65144733Y-90114000D02*
X65239971Y-90161619D01*
X65239971Y-90161619D02*
X65430447Y-90161619D01*
X65430447Y-90161619D02*
X65525685Y-90114000D01*
X65525685Y-90114000D02*
X65573304Y-90066380D01*
X65573304Y-90066380D02*
X65620923Y-89971142D01*
X65620923Y-89971142D02*
X65620923Y-89161619D01*
X66049495Y-89256857D02*
X66097114Y-89209238D01*
X66097114Y-89209238D02*
X66192352Y-89161619D01*
X66192352Y-89161619D02*
X66430447Y-89161619D01*
X66430447Y-89161619D02*
X66525685Y-89209238D01*
X66525685Y-89209238D02*
X66573304Y-89256857D01*
X66573304Y-89256857D02*
X66620923Y-89352095D01*
X66620923Y-89352095D02*
X66620923Y-89447333D01*
X66620923Y-89447333D02*
X66573304Y-89590190D01*
X66573304Y-89590190D02*
X66001876Y-90161619D01*
X66001876Y-90161619D02*
X66620923Y-90161619D01*
X88257142Y-50745819D02*
X87923809Y-50269628D01*
X87685714Y-50745819D02*
X87685714Y-49745819D01*
X87685714Y-49745819D02*
X88066666Y-49745819D01*
X88066666Y-49745819D02*
X88161904Y-49793438D01*
X88161904Y-49793438D02*
X88209523Y-49841057D01*
X88209523Y-49841057D02*
X88257142Y-49936295D01*
X88257142Y-49936295D02*
X88257142Y-50079152D01*
X88257142Y-50079152D02*
X88209523Y-50174390D01*
X88209523Y-50174390D02*
X88161904Y-50222009D01*
X88161904Y-50222009D02*
X88066666Y-50269628D01*
X88066666Y-50269628D02*
X87685714Y-50269628D01*
X88638095Y-49841057D02*
X88685714Y-49793438D01*
X88685714Y-49793438D02*
X88780952Y-49745819D01*
X88780952Y-49745819D02*
X89019047Y-49745819D01*
X89019047Y-49745819D02*
X89114285Y-49793438D01*
X89114285Y-49793438D02*
X89161904Y-49841057D01*
X89161904Y-49841057D02*
X89209523Y-49936295D01*
X89209523Y-49936295D02*
X89209523Y-50031533D01*
X89209523Y-50031533D02*
X89161904Y-50174390D01*
X89161904Y-50174390D02*
X88590476Y-50745819D01*
X88590476Y-50745819D02*
X89209523Y-50745819D01*
X89780952Y-50174390D02*
X89685714Y-50126771D01*
X89685714Y-50126771D02*
X89638095Y-50079152D01*
X89638095Y-50079152D02*
X89590476Y-49983914D01*
X89590476Y-49983914D02*
X89590476Y-49936295D01*
X89590476Y-49936295D02*
X89638095Y-49841057D01*
X89638095Y-49841057D02*
X89685714Y-49793438D01*
X89685714Y-49793438D02*
X89780952Y-49745819D01*
X89780952Y-49745819D02*
X89971428Y-49745819D01*
X89971428Y-49745819D02*
X90066666Y-49793438D01*
X90066666Y-49793438D02*
X90114285Y-49841057D01*
X90114285Y-49841057D02*
X90161904Y-49936295D01*
X90161904Y-49936295D02*
X90161904Y-49983914D01*
X90161904Y-49983914D02*
X90114285Y-50079152D01*
X90114285Y-50079152D02*
X90066666Y-50126771D01*
X90066666Y-50126771D02*
X89971428Y-50174390D01*
X89971428Y-50174390D02*
X89780952Y-50174390D01*
X89780952Y-50174390D02*
X89685714Y-50222009D01*
X89685714Y-50222009D02*
X89638095Y-50269628D01*
X89638095Y-50269628D02*
X89590476Y-50364866D01*
X89590476Y-50364866D02*
X89590476Y-50555342D01*
X89590476Y-50555342D02*
X89638095Y-50650580D01*
X89638095Y-50650580D02*
X89685714Y-50698200D01*
X89685714Y-50698200D02*
X89780952Y-50745819D01*
X89780952Y-50745819D02*
X89971428Y-50745819D01*
X89971428Y-50745819D02*
X90066666Y-50698200D01*
X90066666Y-50698200D02*
X90114285Y-50650580D01*
X90114285Y-50650580D02*
X90161904Y-50555342D01*
X90161904Y-50555342D02*
X90161904Y-50364866D01*
X90161904Y-50364866D02*
X90114285Y-50269628D01*
X90114285Y-50269628D02*
X90066666Y-50222009D01*
X90066666Y-50222009D02*
X89971428Y-50174390D01*
X88257142Y-52777819D02*
X87923809Y-52301628D01*
X87685714Y-52777819D02*
X87685714Y-51777819D01*
X87685714Y-51777819D02*
X88066666Y-51777819D01*
X88066666Y-51777819D02*
X88161904Y-51825438D01*
X88161904Y-51825438D02*
X88209523Y-51873057D01*
X88209523Y-51873057D02*
X88257142Y-51968295D01*
X88257142Y-51968295D02*
X88257142Y-52111152D01*
X88257142Y-52111152D02*
X88209523Y-52206390D01*
X88209523Y-52206390D02*
X88161904Y-52254009D01*
X88161904Y-52254009D02*
X88066666Y-52301628D01*
X88066666Y-52301628D02*
X87685714Y-52301628D01*
X88638095Y-51873057D02*
X88685714Y-51825438D01*
X88685714Y-51825438D02*
X88780952Y-51777819D01*
X88780952Y-51777819D02*
X89019047Y-51777819D01*
X89019047Y-51777819D02*
X89114285Y-51825438D01*
X89114285Y-51825438D02*
X89161904Y-51873057D01*
X89161904Y-51873057D02*
X89209523Y-51968295D01*
X89209523Y-51968295D02*
X89209523Y-52063533D01*
X89209523Y-52063533D02*
X89161904Y-52206390D01*
X89161904Y-52206390D02*
X88590476Y-52777819D01*
X88590476Y-52777819D02*
X89209523Y-52777819D01*
X90114285Y-51777819D02*
X89638095Y-51777819D01*
X89638095Y-51777819D02*
X89590476Y-52254009D01*
X89590476Y-52254009D02*
X89638095Y-52206390D01*
X89638095Y-52206390D02*
X89733333Y-52158771D01*
X89733333Y-52158771D02*
X89971428Y-52158771D01*
X89971428Y-52158771D02*
X90066666Y-52206390D01*
X90066666Y-52206390D02*
X90114285Y-52254009D01*
X90114285Y-52254009D02*
X90161904Y-52349247D01*
X90161904Y-52349247D02*
X90161904Y-52587342D01*
X90161904Y-52587342D02*
X90114285Y-52682580D01*
X90114285Y-52682580D02*
X90066666Y-52730200D01*
X90066666Y-52730200D02*
X89971428Y-52777819D01*
X89971428Y-52777819D02*
X89733333Y-52777819D01*
X89733333Y-52777819D02*
X89638095Y-52730200D01*
X89638095Y-52730200D02*
X89590476Y-52682580D01*
X65074895Y-94216219D02*
X65074895Y-95025742D01*
X65074895Y-95025742D02*
X65122514Y-95120980D01*
X65122514Y-95120980D02*
X65170133Y-95168600D01*
X65170133Y-95168600D02*
X65265371Y-95216219D01*
X65265371Y-95216219D02*
X65455847Y-95216219D01*
X65455847Y-95216219D02*
X65551085Y-95168600D01*
X65551085Y-95168600D02*
X65598704Y-95120980D01*
X65598704Y-95120980D02*
X65646323Y-95025742D01*
X65646323Y-95025742D02*
X65646323Y-94216219D01*
X66551085Y-94549552D02*
X66551085Y-95216219D01*
X66312990Y-94168600D02*
X66074895Y-94882885D01*
X66074895Y-94882885D02*
X66693942Y-94882885D01*
X89923580Y-64523857D02*
X89971200Y-64571476D01*
X89971200Y-64571476D02*
X90018819Y-64714333D01*
X90018819Y-64714333D02*
X90018819Y-64809571D01*
X90018819Y-64809571D02*
X89971200Y-64952428D01*
X89971200Y-64952428D02*
X89875961Y-65047666D01*
X89875961Y-65047666D02*
X89780723Y-65095285D01*
X89780723Y-65095285D02*
X89590247Y-65142904D01*
X89590247Y-65142904D02*
X89447390Y-65142904D01*
X89447390Y-65142904D02*
X89256914Y-65095285D01*
X89256914Y-65095285D02*
X89161676Y-65047666D01*
X89161676Y-65047666D02*
X89066438Y-64952428D01*
X89066438Y-64952428D02*
X89018819Y-64809571D01*
X89018819Y-64809571D02*
X89018819Y-64714333D01*
X89018819Y-64714333D02*
X89066438Y-64571476D01*
X89066438Y-64571476D02*
X89114057Y-64523857D01*
X90018819Y-63571476D02*
X90018819Y-64142904D01*
X90018819Y-63857190D02*
X89018819Y-63857190D01*
X89018819Y-63857190D02*
X89161676Y-63952428D01*
X89161676Y-63952428D02*
X89256914Y-64047666D01*
X89256914Y-64047666D02*
X89304533Y-64142904D01*
X90018819Y-63095285D02*
X90018819Y-62904809D01*
X90018819Y-62904809D02*
X89971200Y-62809571D01*
X89971200Y-62809571D02*
X89923580Y-62761952D01*
X89923580Y-62761952D02*
X89780723Y-62666714D01*
X89780723Y-62666714D02*
X89590247Y-62619095D01*
X89590247Y-62619095D02*
X89209295Y-62619095D01*
X89209295Y-62619095D02*
X89114057Y-62666714D01*
X89114057Y-62666714D02*
X89066438Y-62714333D01*
X89066438Y-62714333D02*
X89018819Y-62809571D01*
X89018819Y-62809571D02*
X89018819Y-63000047D01*
X89018819Y-63000047D02*
X89066438Y-63095285D01*
X89066438Y-63095285D02*
X89114057Y-63142904D01*
X89114057Y-63142904D02*
X89209295Y-63190523D01*
X89209295Y-63190523D02*
X89447390Y-63190523D01*
X89447390Y-63190523D02*
X89542628Y-63142904D01*
X89542628Y-63142904D02*
X89590247Y-63095285D01*
X89590247Y-63095285D02*
X89637866Y-63000047D01*
X89637866Y-63000047D02*
X89637866Y-62809571D01*
X89637866Y-62809571D02*
X89590247Y-62714333D01*
X89590247Y-62714333D02*
X89542628Y-62666714D01*
X89542628Y-62666714D02*
X89447390Y-62619095D01*
X28495666Y-86738819D02*
X28495666Y-87453104D01*
X28495666Y-87453104D02*
X28448047Y-87595961D01*
X28448047Y-87595961D02*
X28352809Y-87691200D01*
X28352809Y-87691200D02*
X28209952Y-87738819D01*
X28209952Y-87738819D02*
X28114714Y-87738819D01*
X28876619Y-86738819D02*
X29495666Y-86738819D01*
X29495666Y-86738819D02*
X29162333Y-87119771D01*
X29162333Y-87119771D02*
X29305190Y-87119771D01*
X29305190Y-87119771D02*
X29400428Y-87167390D01*
X29400428Y-87167390D02*
X29448047Y-87215009D01*
X29448047Y-87215009D02*
X29495666Y-87310247D01*
X29495666Y-87310247D02*
X29495666Y-87548342D01*
X29495666Y-87548342D02*
X29448047Y-87643580D01*
X29448047Y-87643580D02*
X29400428Y-87691200D01*
X29400428Y-87691200D02*
X29305190Y-87738819D01*
X29305190Y-87738819D02*
X29019476Y-87738819D01*
X29019476Y-87738819D02*
X28924238Y-87691200D01*
X28924238Y-87691200D02*
X28876619Y-87643580D01*
X72426533Y-90143219D02*
X72093200Y-89667028D01*
X71855105Y-90143219D02*
X71855105Y-89143219D01*
X71855105Y-89143219D02*
X72236057Y-89143219D01*
X72236057Y-89143219D02*
X72331295Y-89190838D01*
X72331295Y-89190838D02*
X72378914Y-89238457D01*
X72378914Y-89238457D02*
X72426533Y-89333695D01*
X72426533Y-89333695D02*
X72426533Y-89476552D01*
X72426533Y-89476552D02*
X72378914Y-89571790D01*
X72378914Y-89571790D02*
X72331295Y-89619409D01*
X72331295Y-89619409D02*
X72236057Y-89667028D01*
X72236057Y-89667028D02*
X71855105Y-89667028D01*
X73331295Y-89143219D02*
X72855105Y-89143219D01*
X72855105Y-89143219D02*
X72807486Y-89619409D01*
X72807486Y-89619409D02*
X72855105Y-89571790D01*
X72855105Y-89571790D02*
X72950343Y-89524171D01*
X72950343Y-89524171D02*
X73188438Y-89524171D01*
X73188438Y-89524171D02*
X73283676Y-89571790D01*
X73283676Y-89571790D02*
X73331295Y-89619409D01*
X73331295Y-89619409D02*
X73378914Y-89714647D01*
X73378914Y-89714647D02*
X73378914Y-89952742D01*
X73378914Y-89952742D02*
X73331295Y-90047980D01*
X73331295Y-90047980D02*
X73283676Y-90095600D01*
X73283676Y-90095600D02*
X73188438Y-90143219D01*
X73188438Y-90143219D02*
X72950343Y-90143219D01*
X72950343Y-90143219D02*
X72855105Y-90095600D01*
X72855105Y-90095600D02*
X72807486Y-90047980D01*
X90289142Y-61921819D02*
X89955809Y-61445628D01*
X89717714Y-61921819D02*
X89717714Y-60921819D01*
X89717714Y-60921819D02*
X90098666Y-60921819D01*
X90098666Y-60921819D02*
X90193904Y-60969438D01*
X90193904Y-60969438D02*
X90241523Y-61017057D01*
X90241523Y-61017057D02*
X90289142Y-61112295D01*
X90289142Y-61112295D02*
X90289142Y-61255152D01*
X90289142Y-61255152D02*
X90241523Y-61350390D01*
X90241523Y-61350390D02*
X90193904Y-61398009D01*
X90193904Y-61398009D02*
X90098666Y-61445628D01*
X90098666Y-61445628D02*
X89717714Y-61445628D01*
X90670095Y-61017057D02*
X90717714Y-60969438D01*
X90717714Y-60969438D02*
X90812952Y-60921819D01*
X90812952Y-60921819D02*
X91051047Y-60921819D01*
X91051047Y-60921819D02*
X91146285Y-60969438D01*
X91146285Y-60969438D02*
X91193904Y-61017057D01*
X91193904Y-61017057D02*
X91241523Y-61112295D01*
X91241523Y-61112295D02*
X91241523Y-61207533D01*
X91241523Y-61207533D02*
X91193904Y-61350390D01*
X91193904Y-61350390D02*
X90622476Y-61921819D01*
X90622476Y-61921819D02*
X91241523Y-61921819D01*
X91622476Y-61017057D02*
X91670095Y-60969438D01*
X91670095Y-60969438D02*
X91765333Y-60921819D01*
X91765333Y-60921819D02*
X92003428Y-60921819D01*
X92003428Y-60921819D02*
X92098666Y-60969438D01*
X92098666Y-60969438D02*
X92146285Y-61017057D01*
X92146285Y-61017057D02*
X92193904Y-61112295D01*
X92193904Y-61112295D02*
X92193904Y-61207533D01*
X92193904Y-61207533D02*
X92146285Y-61350390D01*
X92146285Y-61350390D02*
X91574857Y-61921819D01*
X91574857Y-61921819D02*
X92193904Y-61921819D01*
X47083742Y-61236019D02*
X46750409Y-60759828D01*
X46512314Y-61236019D02*
X46512314Y-60236019D01*
X46512314Y-60236019D02*
X46893266Y-60236019D01*
X46893266Y-60236019D02*
X46988504Y-60283638D01*
X46988504Y-60283638D02*
X47036123Y-60331257D01*
X47036123Y-60331257D02*
X47083742Y-60426495D01*
X47083742Y-60426495D02*
X47083742Y-60569352D01*
X47083742Y-60569352D02*
X47036123Y-60664590D01*
X47036123Y-60664590D02*
X46988504Y-60712209D01*
X46988504Y-60712209D02*
X46893266Y-60759828D01*
X46893266Y-60759828D02*
X46512314Y-60759828D01*
X48036123Y-61236019D02*
X47464695Y-61236019D01*
X47750409Y-61236019D02*
X47750409Y-60236019D01*
X47750409Y-60236019D02*
X47655171Y-60378876D01*
X47655171Y-60378876D02*
X47559933Y-60474114D01*
X47559933Y-60474114D02*
X47464695Y-60521733D01*
X48655171Y-60236019D02*
X48750409Y-60236019D01*
X48750409Y-60236019D02*
X48845647Y-60283638D01*
X48845647Y-60283638D02*
X48893266Y-60331257D01*
X48893266Y-60331257D02*
X48940885Y-60426495D01*
X48940885Y-60426495D02*
X48988504Y-60616971D01*
X48988504Y-60616971D02*
X48988504Y-60855066D01*
X48988504Y-60855066D02*
X48940885Y-61045542D01*
X48940885Y-61045542D02*
X48893266Y-61140780D01*
X48893266Y-61140780D02*
X48845647Y-61188400D01*
X48845647Y-61188400D02*
X48750409Y-61236019D01*
X48750409Y-61236019D02*
X48655171Y-61236019D01*
X48655171Y-61236019D02*
X48559933Y-61188400D01*
X48559933Y-61188400D02*
X48512314Y-61140780D01*
X48512314Y-61140780D02*
X48464695Y-61045542D01*
X48464695Y-61045542D02*
X48417076Y-60855066D01*
X48417076Y-60855066D02*
X48417076Y-60616971D01*
X48417076Y-60616971D02*
X48464695Y-60426495D01*
X48464695Y-60426495D02*
X48512314Y-60331257D01*
X48512314Y-60331257D02*
X48559933Y-60283638D01*
X48559933Y-60283638D02*
X48655171Y-60236019D01*
X90289142Y-64588819D02*
X89955809Y-64112628D01*
X89717714Y-64588819D02*
X89717714Y-63588819D01*
X89717714Y-63588819D02*
X90098666Y-63588819D01*
X90098666Y-63588819D02*
X90193904Y-63636438D01*
X90193904Y-63636438D02*
X90241523Y-63684057D01*
X90241523Y-63684057D02*
X90289142Y-63779295D01*
X90289142Y-63779295D02*
X90289142Y-63922152D01*
X90289142Y-63922152D02*
X90241523Y-64017390D01*
X90241523Y-64017390D02*
X90193904Y-64065009D01*
X90193904Y-64065009D02*
X90098666Y-64112628D01*
X90098666Y-64112628D02*
X89717714Y-64112628D01*
X90670095Y-63684057D02*
X90717714Y-63636438D01*
X90717714Y-63636438D02*
X90812952Y-63588819D01*
X90812952Y-63588819D02*
X91051047Y-63588819D01*
X91051047Y-63588819D02*
X91146285Y-63636438D01*
X91146285Y-63636438D02*
X91193904Y-63684057D01*
X91193904Y-63684057D02*
X91241523Y-63779295D01*
X91241523Y-63779295D02*
X91241523Y-63874533D01*
X91241523Y-63874533D02*
X91193904Y-64017390D01*
X91193904Y-64017390D02*
X90622476Y-64588819D01*
X90622476Y-64588819D02*
X91241523Y-64588819D01*
X92193904Y-64588819D02*
X91622476Y-64588819D01*
X91908190Y-64588819D02*
X91908190Y-63588819D01*
X91908190Y-63588819D02*
X91812952Y-63731676D01*
X91812952Y-63731676D02*
X91717714Y-63826914D01*
X91717714Y-63826914D02*
X91622476Y-63874533D01*
D11*
%TO.C,C14*%
X77807452Y-60729800D02*
X77284948Y-60729800D01*
X77807452Y-59259800D02*
X77284948Y-59259800D01*
%TO.C,R1*%
X37863536Y-62003000D02*
X38317664Y-62003000D01*
X37863536Y-63473000D02*
X38317664Y-63473000D01*
%TO.C,R7*%
X72366136Y-96503400D02*
X72820264Y-96503400D01*
X72366136Y-97973400D02*
X72820264Y-97973400D01*
%TO.C,R4*%
X39092200Y-46099464D02*
X39092200Y-45645336D01*
X40562200Y-46099464D02*
X40562200Y-45645336D01*
D10*
%TO.C,A1*%
X52705000Y-40513000D02*
X52705000Y-73533000D01*
X70485000Y-40513000D02*
X52705000Y-40513000D01*
X70485000Y-40513000D02*
X70485000Y-73533000D01*
X70485000Y-73533000D02*
X52705000Y-73533000D01*
D11*
%TO.C,J1*%
X35049000Y-64242000D02*
X35049000Y-65662000D01*
X23329000Y-64242000D02*
X35049000Y-64242000D01*
X35049000Y-65662000D02*
X30549000Y-65662000D01*
X30549000Y-65662000D02*
X30549000Y-73052000D01*
X34739000Y-66502000D02*
X34739000Y-67102000D01*
X29439000Y-66552000D02*
X23939000Y-66552000D01*
X23939000Y-66552000D02*
X23939000Y-67052000D01*
X34139000Y-66802000D02*
X34739000Y-66502000D01*
X29439000Y-67052000D02*
X29439000Y-66552000D01*
X23939000Y-67052000D02*
X29439000Y-67052000D01*
X34739000Y-67102000D02*
X34139000Y-66802000D01*
X29439000Y-69052000D02*
X23939000Y-69052000D01*
X23939000Y-69052000D02*
X23939000Y-69552000D01*
X29439000Y-69552000D02*
X29439000Y-69052000D01*
X23939000Y-69552000D02*
X29439000Y-69552000D01*
X29439000Y-71552000D02*
X23939000Y-71552000D01*
X23939000Y-71552000D02*
X23939000Y-72052000D01*
X29439000Y-72052000D02*
X29439000Y-71552000D01*
X23939000Y-72052000D02*
X29439000Y-72052000D01*
X23329000Y-73052000D02*
X23329000Y-64242000D01*
X23329000Y-73052000D02*
X23329000Y-81862000D01*
X29439000Y-74052000D02*
X23939000Y-74052000D01*
X23939000Y-74052000D02*
X23939000Y-74552000D01*
X29439000Y-74552000D02*
X29439000Y-74052000D01*
X23939000Y-74552000D02*
X29439000Y-74552000D01*
X29439000Y-76552000D02*
X23939000Y-76552000D01*
X23939000Y-76552000D02*
X23939000Y-77052000D01*
X29439000Y-77052000D02*
X29439000Y-76552000D01*
X23939000Y-77052000D02*
X29439000Y-77052000D01*
X29439000Y-79052000D02*
X23939000Y-79052000D01*
X23939000Y-79052000D02*
X23939000Y-79552000D01*
X29439000Y-79552000D02*
X29439000Y-79052000D01*
X23939000Y-79552000D02*
X29439000Y-79552000D01*
X35049000Y-80442000D02*
X30549000Y-80442000D01*
X30549000Y-80442000D02*
X30549000Y-73052000D01*
X35049000Y-81862000D02*
X35049000Y-80442000D01*
X23329000Y-81862000D02*
X35049000Y-81862000D01*
%TO.C,U6*%
X45186600Y-37241800D02*
X41736600Y-37241800D01*
X45186600Y-37241800D02*
X47136600Y-37241800D01*
X45186600Y-42361800D02*
X43236600Y-42361800D01*
X45186600Y-42361800D02*
X47136600Y-42361800D01*
%TO.C,R11*%
X47575736Y-63222200D02*
X48029864Y-63222200D01*
X47575736Y-64692200D02*
X48029864Y-64692200D01*
%TO.C,R24*%
X91159064Y-55599000D02*
X90704936Y-55599000D01*
X91159064Y-54129000D02*
X90704936Y-54129000D01*
%TO.C,R3*%
X39663864Y-39901800D02*
X39209736Y-39901800D01*
X39663864Y-38431800D02*
X39209736Y-38431800D01*
%TO.C,U1*%
X45391000Y-51278400D02*
X41341000Y-51278400D01*
X45391000Y-51278400D02*
X47666000Y-51278400D01*
X45391000Y-55198400D02*
X43116000Y-55198400D01*
X45391000Y-55198400D02*
X47666000Y-55198400D01*
%TO.C,J4*%
X33675000Y-28648000D02*
X32255000Y-28648000D01*
X33675000Y-16928000D02*
X33675000Y-28648000D01*
X32255000Y-28648000D02*
X32255000Y-24148000D01*
X31415000Y-26738000D02*
X30815000Y-26738000D01*
X31365000Y-23038000D02*
X31365000Y-17538000D01*
X31365000Y-17538000D02*
X30865000Y-17538000D01*
X31115000Y-26138000D02*
X31415000Y-26738000D01*
X30865000Y-23038000D02*
X31365000Y-23038000D01*
X30865000Y-17538000D02*
X30865000Y-23038000D01*
X30815000Y-26738000D02*
X31115000Y-26138000D01*
X28865000Y-23038000D02*
X28865000Y-17538000D01*
X28865000Y-17538000D02*
X28365000Y-17538000D01*
X28615000Y-16928000D02*
X33675000Y-16928000D01*
X28615000Y-16928000D02*
X23555000Y-16928000D01*
X28365000Y-23038000D02*
X28865000Y-23038000D01*
X28365000Y-17538000D02*
X28365000Y-23038000D01*
X26365000Y-23038000D02*
X26365000Y-17538000D01*
X26365000Y-17538000D02*
X25865000Y-17538000D01*
X25865000Y-23038000D02*
X26365000Y-23038000D01*
X25865000Y-17538000D02*
X25865000Y-23038000D01*
X24975000Y-28648000D02*
X24975000Y-24148000D01*
X23555000Y-28648000D02*
X24975000Y-28648000D01*
X23555000Y-16928000D02*
X23555000Y-28648000D01*
%TO.C,C15*%
X88619000Y-53586748D02*
X88619000Y-54109252D01*
X87149000Y-53586748D02*
X87149000Y-54109252D01*
%TO.C,R19*%
X91032064Y-68172000D02*
X90577936Y-68172000D01*
X91032064Y-66702000D02*
X90577936Y-66702000D01*
%TO.C,C17*%
X88619000Y-58412748D02*
X88619000Y-58935252D01*
X87149000Y-58412748D02*
X87149000Y-58935252D01*
%TO.C,C11*%
X77471600Y-54744252D02*
X77471600Y-54221748D01*
X78941600Y-54744252D02*
X78941600Y-54221748D01*
%TO.C,C1*%
X78533448Y-50166600D02*
X79055952Y-50166600D01*
X78533448Y-51636600D02*
X79055952Y-51636600D01*
%TO.C,Q1*%
X78409800Y-90184800D02*
X76734800Y-90184800D01*
X78409800Y-90184800D02*
X79059800Y-90184800D01*
X78409800Y-93304800D02*
X77759800Y-93304800D01*
X78409800Y-93304800D02*
X79059800Y-93304800D01*
%TO.C,C13*%
X75439600Y-57004852D02*
X75439600Y-56482348D01*
X76909600Y-57004852D02*
X76909600Y-56482348D01*
%TO.C,J7*%
X35324000Y-44958000D02*
X35324000Y-46378000D01*
X23604000Y-44958000D02*
X35324000Y-44958000D01*
X35324000Y-46378000D02*
X30824000Y-46378000D01*
X30824000Y-46378000D02*
X30824000Y-48768000D01*
X35014000Y-47218000D02*
X35014000Y-47818000D01*
X29714000Y-47268000D02*
X24214000Y-47268000D01*
X24214000Y-47268000D02*
X24214000Y-47768000D01*
X34414000Y-47518000D02*
X35014000Y-47218000D01*
X29714000Y-47768000D02*
X29714000Y-47268000D01*
X24214000Y-47768000D02*
X29714000Y-47768000D01*
X35014000Y-47818000D02*
X34414000Y-47518000D01*
X23604000Y-48768000D02*
X23604000Y-44958000D01*
X23604000Y-48768000D02*
X23604000Y-52578000D01*
X29714000Y-49768000D02*
X24214000Y-49768000D01*
X24214000Y-49768000D02*
X24214000Y-50268000D01*
X29714000Y-50268000D02*
X29714000Y-49768000D01*
X24214000Y-50268000D02*
X29714000Y-50268000D01*
X35324000Y-51158000D02*
X30824000Y-51158000D01*
X30824000Y-51158000D02*
X30824000Y-48768000D01*
X35324000Y-52578000D02*
X35324000Y-51158000D01*
X23604000Y-52578000D02*
X35324000Y-52578000D01*
%TO.C,C9*%
X86555948Y-98172600D02*
X87078452Y-98172600D01*
X86555948Y-99642600D02*
X87078452Y-99642600D01*
%TO.C,U7*%
X45288200Y-48257600D02*
X48738200Y-48257600D01*
X45288200Y-48257600D02*
X43338200Y-48257600D01*
X45288200Y-43137600D02*
X47238200Y-43137600D01*
X45288200Y-43137600D02*
X43338200Y-43137600D01*
%TO.C,R6*%
X72366136Y-93553400D02*
X72820264Y-93553400D01*
X72366136Y-95023400D02*
X72820264Y-95023400D01*
%TO.C,C10*%
X47236748Y-35256800D02*
X47759252Y-35256800D01*
X47236748Y-36726800D02*
X47759252Y-36726800D01*
%TO.C,R30*%
X89127064Y-47344000D02*
X88672936Y-47344000D01*
X89127064Y-45874000D02*
X88672936Y-45874000D01*
%TO.C,R8*%
X50874600Y-38888936D02*
X50874600Y-39343064D01*
X49404600Y-38888936D02*
X49404600Y-39343064D01*
%TO.C,R23*%
X91159064Y-58012000D02*
X90704936Y-58012000D01*
X91159064Y-56542000D02*
X90704936Y-56542000D01*
%TO.C,J8*%
X35324000Y-54408000D02*
X35324000Y-55828000D01*
X23604000Y-54408000D02*
X35324000Y-54408000D01*
X35324000Y-55828000D02*
X30824000Y-55828000D01*
X30824000Y-55828000D02*
X30824000Y-58218000D01*
X35014000Y-56668000D02*
X35014000Y-57268000D01*
X29714000Y-56718000D02*
X24214000Y-56718000D01*
X24214000Y-56718000D02*
X24214000Y-57218000D01*
X34414000Y-56968000D02*
X35014000Y-56668000D01*
X29714000Y-57218000D02*
X29714000Y-56718000D01*
X24214000Y-57218000D02*
X29714000Y-57218000D01*
X35014000Y-57268000D02*
X34414000Y-56968000D01*
X23604000Y-58218000D02*
X23604000Y-54408000D01*
X23604000Y-58218000D02*
X23604000Y-62028000D01*
X29714000Y-59218000D02*
X24214000Y-59218000D01*
X24214000Y-59218000D02*
X24214000Y-59718000D01*
X29714000Y-59718000D02*
X29714000Y-59218000D01*
X24214000Y-59718000D02*
X29714000Y-59718000D01*
X35324000Y-60608000D02*
X30824000Y-60608000D01*
X30824000Y-60608000D02*
X30824000Y-58218000D01*
X35324000Y-62028000D02*
X35324000Y-60608000D01*
X23604000Y-62028000D02*
X35324000Y-62028000D01*
%TO.C,C8*%
X86251148Y-88622200D02*
X86773652Y-88622200D01*
X86251148Y-90092200D02*
X86773652Y-90092200D01*
%TO.C,R20*%
X91159064Y-65759000D02*
X90704936Y-65759000D01*
X91159064Y-64289000D02*
X90704936Y-64289000D01*
%TO.C,U8*%
X86157400Y-90630600D02*
X86157400Y-90900600D01*
X86157400Y-90900600D02*
X83327400Y-90900600D01*
X86157400Y-97260600D02*
X85057400Y-97260600D01*
X86157400Y-97530600D02*
X86157400Y-97260600D01*
X92577400Y-90630600D02*
X86157400Y-90630600D01*
X92577400Y-97530600D02*
X86157400Y-97530600D01*
%TO.C,J9*%
X95126000Y-70011000D02*
X95126000Y-68591000D01*
X106846000Y-70011000D02*
X95126000Y-70011000D01*
X95126000Y-68591000D02*
X99626000Y-68591000D01*
X99626000Y-68591000D02*
X99626000Y-59951000D01*
X95436000Y-67751000D02*
X95436000Y-67151000D01*
X100736000Y-67701000D02*
X106236000Y-67701000D01*
X106236000Y-67701000D02*
X106236000Y-67201000D01*
X96036000Y-67451000D02*
X95436000Y-67751000D01*
X100736000Y-67201000D02*
X100736000Y-67701000D01*
X106236000Y-67201000D02*
X100736000Y-67201000D01*
X95436000Y-67151000D02*
X96036000Y-67451000D01*
X100736000Y-65201000D02*
X106236000Y-65201000D01*
X106236000Y-65201000D02*
X106236000Y-64701000D01*
X100736000Y-64701000D02*
X100736000Y-65201000D01*
X106236000Y-64701000D02*
X100736000Y-64701000D01*
X100736000Y-62701000D02*
X106236000Y-62701000D01*
X106236000Y-62701000D02*
X106236000Y-62201000D01*
X100736000Y-62201000D02*
X100736000Y-62701000D01*
X106236000Y-62201000D02*
X100736000Y-62201000D01*
X100736000Y-60201000D02*
X106236000Y-60201000D01*
X106236000Y-60201000D02*
X106236000Y-59701000D01*
X106846000Y-59951000D02*
X106846000Y-70011000D01*
X106846000Y-59951000D02*
X106846000Y-49891000D01*
X100736000Y-59701000D02*
X100736000Y-60201000D01*
X106236000Y-59701000D02*
X100736000Y-59701000D01*
X100736000Y-57701000D02*
X106236000Y-57701000D01*
X106236000Y-57701000D02*
X106236000Y-57201000D01*
X100736000Y-57201000D02*
X100736000Y-57701000D01*
X106236000Y-57201000D02*
X100736000Y-57201000D01*
X100736000Y-55201000D02*
X106236000Y-55201000D01*
X106236000Y-55201000D02*
X106236000Y-54701000D01*
X100736000Y-54701000D02*
X100736000Y-55201000D01*
X106236000Y-54701000D02*
X100736000Y-54701000D01*
X100736000Y-52701000D02*
X106236000Y-52701000D01*
X106236000Y-52701000D02*
X106236000Y-52201000D01*
X100736000Y-52201000D02*
X100736000Y-52701000D01*
X106236000Y-52201000D02*
X100736000Y-52201000D01*
X95126000Y-51311000D02*
X99626000Y-51311000D01*
X99626000Y-51311000D02*
X99626000Y-59951000D01*
X95126000Y-49891000D02*
X95126000Y-51311000D01*
X106846000Y-49891000D02*
X95126000Y-49891000D01*
%TO.C,U2*%
X65811400Y-90546800D02*
X61761400Y-90546800D01*
X65811400Y-90546800D02*
X68086400Y-90546800D01*
X65811400Y-94466800D02*
X63536400Y-94466800D01*
X65811400Y-94466800D02*
X68086400Y-94466800D01*
%TO.C,R28*%
X89127064Y-49376000D02*
X88672936Y-49376000D01*
X89127064Y-47906000D02*
X88672936Y-47906000D01*
%TO.C,R25*%
X89127064Y-51408000D02*
X88672936Y-51408000D01*
X89127064Y-49938000D02*
X88672936Y-49938000D01*
%TO.C,U4*%
X65836800Y-95601400D02*
X61786800Y-95601400D01*
X65836800Y-95601400D02*
X68111800Y-95601400D01*
X65836800Y-99521400D02*
X63561800Y-99521400D01*
X65836800Y-99521400D02*
X68111800Y-99521400D01*
%TO.C,C19*%
X88619000Y-63619748D02*
X88619000Y-64142252D01*
X87149000Y-63619748D02*
X87149000Y-64142252D01*
%TO.C,J3*%
X23769000Y-88374000D02*
X25189000Y-88374000D01*
X23769000Y-100094000D02*
X23769000Y-88374000D01*
X25189000Y-88374000D02*
X25189000Y-92874000D01*
X26029000Y-90284000D02*
X26629000Y-90284000D01*
X26079000Y-93984000D02*
X26079000Y-99484000D01*
X26079000Y-99484000D02*
X26579000Y-99484000D01*
X26329000Y-90884000D02*
X26029000Y-90284000D01*
X26579000Y-93984000D02*
X26079000Y-93984000D01*
X26579000Y-99484000D02*
X26579000Y-93984000D01*
X26629000Y-90284000D02*
X26329000Y-90884000D01*
X28579000Y-93984000D02*
X28579000Y-99484000D01*
X28579000Y-99484000D02*
X29079000Y-99484000D01*
X28829000Y-100094000D02*
X23769000Y-100094000D01*
X28829000Y-100094000D02*
X33889000Y-100094000D01*
X29079000Y-93984000D02*
X28579000Y-93984000D01*
X29079000Y-99484000D02*
X29079000Y-93984000D01*
X31079000Y-93984000D02*
X31079000Y-99484000D01*
X31079000Y-99484000D02*
X31579000Y-99484000D01*
X31579000Y-93984000D02*
X31079000Y-93984000D01*
X31579000Y-99484000D02*
X31579000Y-93984000D01*
X32469000Y-88374000D02*
X32469000Y-92874000D01*
X33889000Y-88374000D02*
X32469000Y-88374000D01*
X33889000Y-100094000D02*
X33889000Y-88374000D01*
%TO.C,R5*%
X72366136Y-90603400D02*
X72820264Y-90603400D01*
X72366136Y-92073400D02*
X72820264Y-92073400D01*
%TO.C,R22*%
X91159064Y-60552000D02*
X90704936Y-60552000D01*
X91159064Y-59082000D02*
X90704936Y-59082000D01*
%TO.C,R10*%
X47953664Y-59866200D02*
X47499536Y-59866200D01*
X47953664Y-58396200D02*
X47499536Y-58396200D01*
%TO.C,R21*%
X91159064Y-63219000D02*
X90704936Y-63219000D01*
X91159064Y-61749000D02*
X90704936Y-61749000D01*
%TD*%
M02*
