%TF.GenerationSoftware,KiCad,Pcbnew,7.0.9*%
%TF.CreationDate,2024-01-03T22:08:46+05:30*%
%TF.ProjectId,BMS LTC6804-2,424d5320-4c54-4433-9638-30342d322e6b,rev?*%
%TF.SameCoordinates,Original*%
%TF.FileFunction,Paste,Top*%
%TF.FilePolarity,Positive*%
%FSLAX46Y46*%
G04 Gerber Fmt 4.6, Leading zero omitted, Abs format (unit mm)*
G04 Created by KiCad (PCBNEW 7.0.9) date 2024-01-03 22:08:46*
%MOMM*%
%LPD*%
G01*
G04 APERTURE LIST*
G04 Aperture macros list*
%AMRoundRect*
0 Rectangle with rounded corners*
0 $1 Rounding radius*
0 $2 $3 $4 $5 $6 $7 $8 $9 X,Y pos of 4 corners*
0 Add a 4 corners polygon primitive as box body*
4,1,4,$2,$3,$4,$5,$6,$7,$8,$9,$2,$3,0*
0 Add four circle primitives for the rounded corners*
1,1,$1+$1,$2,$3*
1,1,$1+$1,$4,$5*
1,1,$1+$1,$6,$7*
1,1,$1+$1,$8,$9*
0 Add four rect primitives between the rounded corners*
20,1,$1+$1,$2,$3,$4,$5,0*
20,1,$1+$1,$4,$5,$6,$7,0*
20,1,$1+$1,$6,$7,$8,$9,0*
20,1,$1+$1,$8,$9,$2,$3,0*%
G04 Aperture macros list end*
%ADD10RoundRect,0.250000X0.337500X0.475000X-0.337500X0.475000X-0.337500X-0.475000X0.337500X-0.475000X0*%
%ADD11RoundRect,0.250000X-0.350000X-0.450000X0.350000X-0.450000X0.350000X0.450000X-0.350000X0.450000X0*%
%ADD12RoundRect,0.250000X0.450000X-0.350000X0.450000X0.350000X-0.450000X0.350000X-0.450000X-0.350000X0*%
%ADD13RoundRect,0.150000X-0.825000X-0.150000X0.825000X-0.150000X0.825000X0.150000X-0.825000X0.150000X0*%
%ADD14RoundRect,0.250000X0.350000X0.450000X-0.350000X0.450000X-0.350000X-0.450000X0.350000X-0.450000X0*%
%ADD15RoundRect,0.137500X-0.662500X-0.137500X0.662500X-0.137500X0.662500X0.137500X-0.662500X0.137500X0*%
%ADD16RoundRect,0.250000X-0.475000X0.337500X-0.475000X-0.337500X0.475000X-0.337500X0.475000X0.337500X0*%
%ADD17RoundRect,0.250000X0.475000X-0.337500X0.475000X0.337500X-0.475000X0.337500X-0.475000X-0.337500X0*%
%ADD18RoundRect,0.250000X-0.337500X-0.475000X0.337500X-0.475000X0.337500X0.475000X-0.337500X0.475000X0*%
%ADD19RoundRect,0.150000X-0.587500X-0.150000X0.587500X-0.150000X0.587500X0.150000X-0.587500X0.150000X0*%
%ADD20RoundRect,0.150000X0.825000X0.150000X-0.825000X0.150000X-0.825000X-0.150000X0.825000X-0.150000X0*%
%ADD21RoundRect,0.250000X-0.450000X0.350000X-0.450000X-0.350000X0.450000X-0.350000X0.450000X0.350000X0*%
%ADD22RoundRect,0.250000X-0.850000X-0.350000X0.850000X-0.350000X0.850000X0.350000X-0.850000X0.350000X0*%
%ADD23RoundRect,0.250000X-1.275000X-1.125000X1.275000X-1.125000X1.275000X1.125000X-1.275000X1.125000X0*%
G04 APERTURE END LIST*
D10*
%TO.C,C14*%
X78583700Y-59994800D03*
X76508700Y-59994800D03*
%TD*%
D11*
%TO.C,R1*%
X37090600Y-62738000D03*
X39090600Y-62738000D03*
%TD*%
%TO.C,R7*%
X71593200Y-97238400D03*
X73593200Y-97238400D03*
%TD*%
D12*
%TO.C,R4*%
X39827200Y-46872400D03*
X39827200Y-44872400D03*
%TD*%
D13*
%TO.C,U6*%
X42711600Y-37896800D03*
X42711600Y-39166800D03*
X42711600Y-40436800D03*
X42711600Y-41706800D03*
X47661600Y-41706800D03*
X47661600Y-40436800D03*
X47661600Y-39166800D03*
X47661600Y-37896800D03*
%TD*%
D11*
%TO.C,R11*%
X46802800Y-63957200D03*
X48802800Y-63957200D03*
%TD*%
D14*
%TO.C,R24*%
X91932000Y-54864000D03*
X89932000Y-54864000D03*
%TD*%
%TO.C,R3*%
X40436800Y-39166800D03*
X38436800Y-39166800D03*
%TD*%
D15*
%TO.C,U1*%
X42141000Y-51968400D03*
X42141000Y-54508400D03*
X48641000Y-54508400D03*
X48641000Y-51968400D03*
%TD*%
D16*
%TO.C,C15*%
X87884000Y-52810500D03*
X87884000Y-54885500D03*
%TD*%
D14*
%TO.C,R19*%
X91805000Y-67437000D03*
X89805000Y-67437000D03*
%TD*%
D16*
%TO.C,C17*%
X87884000Y-57636500D03*
X87884000Y-59711500D03*
%TD*%
D17*
%TO.C,C11*%
X78206600Y-55520500D03*
X78206600Y-53445500D03*
%TD*%
D18*
%TO.C,C1*%
X77757200Y-50901600D03*
X79832200Y-50901600D03*
%TD*%
D19*
%TO.C,Q1*%
X77472300Y-90794800D03*
X77472300Y-92694800D03*
X79347300Y-91744800D03*
%TD*%
D17*
%TO.C,C13*%
X76174600Y-57781100D03*
X76174600Y-55706100D03*
%TD*%
D18*
%TO.C,C9*%
X85779700Y-98907600D03*
X87854700Y-98907600D03*
%TD*%
D20*
%TO.C,U7*%
X47763200Y-47602600D03*
X47763200Y-46332600D03*
X47763200Y-45062600D03*
X47763200Y-43792600D03*
X42813200Y-43792600D03*
X42813200Y-45062600D03*
X42813200Y-46332600D03*
X42813200Y-47602600D03*
%TD*%
D11*
%TO.C,R6*%
X71593200Y-94288400D03*
X73593200Y-94288400D03*
%TD*%
D18*
%TO.C,C10*%
X46460500Y-35991800D03*
X48535500Y-35991800D03*
%TD*%
D14*
%TO.C,R30*%
X89900000Y-46609000D03*
X87900000Y-46609000D03*
%TD*%
D21*
%TO.C,R8*%
X50139600Y-38116000D03*
X50139600Y-40116000D03*
%TD*%
D14*
%TO.C,R23*%
X91932000Y-57277000D03*
X89932000Y-57277000D03*
%TD*%
D18*
%TO.C,C8*%
X85474900Y-89357200D03*
X87549900Y-89357200D03*
%TD*%
D14*
%TO.C,R20*%
X91932000Y-65024000D03*
X89932000Y-65024000D03*
%TD*%
D22*
%TO.C,U8*%
X84427400Y-91800600D03*
D23*
X89052400Y-92555600D03*
X89052400Y-95605600D03*
X92402400Y-92555600D03*
X92402400Y-95605600D03*
D22*
X84427400Y-96360600D03*
%TD*%
D15*
%TO.C,U2*%
X62561400Y-91236800D03*
X62561400Y-93776800D03*
X69061400Y-93776800D03*
X69061400Y-91236800D03*
%TD*%
D14*
%TO.C,R28*%
X89900000Y-48641000D03*
X87900000Y-48641000D03*
%TD*%
%TO.C,R25*%
X89900000Y-50673000D03*
X87900000Y-50673000D03*
%TD*%
D15*
%TO.C,U4*%
X62586800Y-96291400D03*
X62586800Y-98831400D03*
X69086800Y-98831400D03*
X69086800Y-96291400D03*
%TD*%
D16*
%TO.C,C19*%
X87884000Y-62843500D03*
X87884000Y-64918500D03*
%TD*%
D11*
%TO.C,R5*%
X71593200Y-91338400D03*
X73593200Y-91338400D03*
%TD*%
D14*
%TO.C,R22*%
X91932000Y-59817000D03*
X89932000Y-59817000D03*
%TD*%
%TO.C,R10*%
X48726600Y-59131200D03*
X46726600Y-59131200D03*
%TD*%
%TO.C,R21*%
X91932000Y-62484000D03*
X89932000Y-62484000D03*
%TD*%
M02*
