%TF.GenerationSoftware,KiCad,Pcbnew,7.0.9*%
%TF.CreationDate,2024-01-03T22:09:01+05:30*%
%TF.ProjectId,BMS LTC6804-2,424d5320-4c54-4433-9638-30342d322e6b,rev?*%
%TF.SameCoordinates,Original*%
%TF.FileFunction,Drillmap*%
%TF.FilePolarity,Positive*%
%FSLAX45Y45*%
G04 Gerber Fmt 4.5, Leading zero omitted, Abs format (unit mm)*
G04 Created by KiCad (PCBNEW 7.0.9) date 2024-01-03 22:09:01*
%MOMM*%
%LPD*%
G01*
G04 APERTURE LIST*
%ADD10C,0.100000*%
%ADD11C,0.200000*%
%ADD12C,0.101600*%
G04 APERTURE END LIST*
D10*
X2247900Y-1574800D02*
X10756900Y-1574800D01*
X10756900Y-10083800D01*
X2247900Y-10083800D01*
X2247900Y-1574800D01*
D11*
D10*
X2428560Y-4493580D02*
X2468560Y-4533580D01*
X2468560Y-4493580D02*
X2428560Y-4533580D01*
X2545400Y-8463600D02*
X2585400Y-8503600D01*
X2585400Y-8463600D02*
X2545400Y-8503600D01*
X2670800Y-3901760D02*
X2710800Y-3941760D01*
X2710800Y-3901760D02*
X2670800Y-3941760D01*
X2718120Y-9073200D02*
X2758120Y-9113200D01*
X2758120Y-9073200D02*
X2718120Y-9113200D01*
X2758760Y-8428040D02*
X2798760Y-8468040D01*
X2798760Y-8428040D02*
X2758760Y-8468040D01*
X2766380Y-4244660D02*
X2806380Y-4284660D01*
X2806380Y-4244660D02*
X2766380Y-4284660D01*
X2820930Y-4558410D02*
X2860930Y-4598410D01*
X2860930Y-4558410D02*
X2820930Y-4598410D01*
X2913950Y-4371660D02*
X2953950Y-4411660D01*
X2953950Y-4371660D02*
X2913950Y-4411660D01*
X2913950Y-8948740D02*
X2953950Y-8988740D01*
X2953950Y-8948740D02*
X2913950Y-8988740D01*
X3421700Y-6365560D02*
X3461700Y-6405560D01*
X3461700Y-6365560D02*
X3421700Y-6405560D01*
X3495360Y-5928680D02*
X3535360Y-5968680D01*
X3535360Y-5928680D02*
X3495360Y-5968680D01*
X3711260Y-5194620D02*
X3751260Y-5234620D01*
X3751260Y-5194620D02*
X3711260Y-5234620D01*
X3739200Y-3896680D02*
X3779200Y-3936680D01*
X3779200Y-3896680D02*
X3739200Y-3936680D01*
X3739200Y-9093520D02*
X3779200Y-9133520D01*
X3779200Y-9093520D02*
X3739200Y-9133520D01*
X4028760Y-6167440D02*
X4068760Y-6207440D01*
X4068760Y-6167440D02*
X4028760Y-6207440D01*
X4110040Y-4618040D02*
X4150040Y-4658040D01*
X4150040Y-4618040D02*
X4110040Y-4658040D01*
X4112580Y-4485960D02*
X4152580Y-4525960D01*
X4152580Y-4485960D02*
X4112580Y-4525960D01*
X4117660Y-4356420D02*
X4157660Y-4396420D01*
X4157660Y-4356420D02*
X4117660Y-4396420D01*
X4150680Y-6685600D02*
X4190680Y-6725600D01*
X4190680Y-6685600D02*
X4150680Y-6725600D01*
X4158300Y-9177340D02*
X4198300Y-9217340D01*
X4198300Y-9177340D02*
X4158300Y-9217340D01*
X4194100Y-5176840D02*
X4234100Y-5216840D01*
X4234100Y-5176840D02*
X4194100Y-5216840D01*
X4300540Y-7429820D02*
X4340540Y-7469820D01*
X4340540Y-7429820D02*
X4300540Y-7469820D01*
X4341180Y-6693220D02*
X4381180Y-6733220D01*
X4381180Y-6693220D02*
X4341180Y-6733220D01*
X4567240Y-5453700D02*
X4607240Y-5493700D01*
X4607240Y-5453700D02*
X4567240Y-5493700D01*
X4666300Y-5689920D02*
X4706300Y-5729920D01*
X4706300Y-5689920D02*
X4666300Y-5729920D01*
X4852660Y-5893120D02*
X4892660Y-5933120D01*
X4892660Y-5893120D02*
X4852660Y-5933120D01*
X4860280Y-6375720D02*
X4900280Y-6415720D01*
X4900280Y-6375720D02*
X4860280Y-6415720D01*
X4978720Y-4463100D02*
X5018720Y-4503100D01*
X5018720Y-4463100D02*
X4978720Y-4503100D01*
X5034600Y-7201220D02*
X5074600Y-7241220D01*
X5074600Y-7201220D02*
X5034600Y-7241220D01*
X5049840Y-4668840D02*
X5089840Y-4708840D01*
X5089840Y-4668840D02*
X5049840Y-4708840D01*
X5090480Y-3792540D02*
X5130480Y-3832540D01*
X5130480Y-3792540D02*
X5090480Y-3832540D01*
X6167440Y-9863140D02*
X6207440Y-9903140D01*
X6207440Y-9863140D02*
X6167440Y-9903140D01*
X6187760Y-9355140D02*
X6227760Y-9395140D01*
X6227760Y-9355140D02*
X6187760Y-9395140D01*
X6236140Y-9103680D02*
X6276140Y-9143680D01*
X6276140Y-9103680D02*
X6236140Y-9143680D01*
X6238680Y-9609140D02*
X6278680Y-9649140D01*
X6278680Y-9609140D02*
X6238680Y-9649140D01*
X6284280Y-5100640D02*
X6324280Y-5140640D01*
X6324280Y-5100640D02*
X6284280Y-5140640D01*
X6482400Y-5128580D02*
X6522400Y-5168580D01*
X6522400Y-5128580D02*
X6482400Y-5168580D01*
X6520500Y-4666300D02*
X6560500Y-4706300D01*
X6560500Y-4666300D02*
X6520500Y-4706300D01*
X6545900Y-6136960D02*
X6585900Y-6176960D01*
X6585900Y-6136960D02*
X6545900Y-6176960D01*
X6708460Y-3805240D02*
X6748460Y-3845240D01*
X6748460Y-3805240D02*
X6708460Y-3845240D01*
X7005640Y-6566220D02*
X7045640Y-6606220D01*
X7045640Y-6566220D02*
X7005640Y-6606220D01*
X7075430Y-5750880D02*
X7115430Y-5790880D01*
X7115430Y-5750880D02*
X7075430Y-5790880D01*
X7135180Y-6970080D02*
X7175180Y-7010080D01*
X7175180Y-6970080D02*
X7135180Y-7010080D01*
X7158040Y-5357180D02*
X7198040Y-5397180D01*
X7198040Y-5357180D02*
X7158040Y-5397180D01*
X7221540Y-6451920D02*
X7261540Y-6491920D01*
X7261540Y-6451920D02*
X7221540Y-6491920D01*
X7230143Y-5426399D02*
X7270143Y-5466399D01*
X7270143Y-5426399D02*
X7230143Y-5466399D01*
X7266066Y-5519670D02*
X7306066Y-5559670D01*
X7306066Y-5519670D02*
X7266066Y-5559670D01*
X7307900Y-7198680D02*
X7347900Y-7238680D01*
X7347900Y-7198680D02*
X7307900Y-7238680D01*
X7340920Y-5588320D02*
X7380920Y-5628320D01*
X7380920Y-5588320D02*
X7340920Y-5628320D01*
X7531420Y-9202740D02*
X7571420Y-9242740D01*
X7571420Y-9202740D02*
X7531420Y-9242740D01*
X7541580Y-9588820D02*
X7581580Y-9628820D01*
X7581580Y-9588820D02*
X7541580Y-9628820D01*
X7594920Y-9741220D02*
X7634920Y-9781220D01*
X7634920Y-9741220D02*
X7594920Y-9781220D01*
X7737160Y-5821450D02*
X7777160Y-5861450D01*
X7777160Y-5821450D02*
X7737160Y-5861450D01*
X7754940Y-6324920D02*
X7794940Y-6364920D01*
X7794940Y-6324920D02*
X7754940Y-6364920D01*
X7782880Y-6614480D02*
X7822880Y-6654480D01*
X7822880Y-6614480D02*
X7782880Y-6654480D01*
X7792178Y-6232166D02*
X7832178Y-6272166D01*
X7832178Y-6232166D02*
X7792178Y-6272166D01*
X7815900Y-6723700D02*
X7855900Y-6763700D01*
X7855900Y-6723700D02*
X7815900Y-6763700D01*
X7838370Y-5979480D02*
X7878370Y-6019480D01*
X7878370Y-5979480D02*
X7838370Y-6019480D01*
X7899720Y-8958900D02*
X7939720Y-8998900D01*
X7939720Y-8958900D02*
X7899720Y-8998900D01*
X7904850Y-5740720D02*
X7944850Y-5780720D01*
X7944850Y-5740720D02*
X7904850Y-5780720D01*
X7988341Y-5216602D02*
X8028341Y-5256602D01*
X8028341Y-5216602D02*
X7988341Y-5256602D01*
X8087680Y-5227640D02*
X8127680Y-5267640D01*
X8127680Y-5227640D02*
X8087680Y-5267640D01*
X8093760Y-5729801D02*
X8133760Y-5769801D01*
X8133760Y-5729801D02*
X8093760Y-5769801D01*
X8094021Y-5878468D02*
X8134021Y-5918468D01*
X8134021Y-5878468D02*
X8094021Y-5918468D01*
X8096958Y-5380359D02*
X8136958Y-5420359D01*
X8136958Y-5380359D02*
X8096958Y-5420359D01*
X8097840Y-5611180D02*
X8137840Y-5651180D01*
X8137840Y-5611180D02*
X8097840Y-5651180D01*
X8257860Y-9619300D02*
X8297860Y-9659300D01*
X8297860Y-9619300D02*
X8257860Y-9659300D01*
X8311200Y-6342700D02*
X8351200Y-6382700D01*
X8351200Y-6342700D02*
X8311200Y-6382700D01*
X8336600Y-6520500D02*
X8376600Y-6560500D01*
X8376600Y-6520500D02*
X8336600Y-6560500D01*
X8439203Y-5819696D02*
X8479203Y-5859696D01*
X8479203Y-5819696D02*
X8439203Y-5859696D01*
X8532180Y-4874580D02*
X8572180Y-4914580D01*
X8572180Y-4874580D02*
X8532180Y-4914580D01*
X8544880Y-5921060D02*
X8584880Y-5961060D01*
X8584880Y-5921060D02*
X8544880Y-5961060D01*
X8560120Y-4713350D02*
X8600120Y-4753350D01*
X8600120Y-4713350D02*
X8560120Y-4753350D01*
X8590600Y-5062540D02*
X8630600Y-5102540D01*
X8630600Y-5062540D02*
X8590600Y-5102540D01*
X8632093Y-5970043D02*
X8672093Y-6010043D01*
X8672093Y-5970043D02*
X8632093Y-6010043D01*
X8692200Y-6253800D02*
X8732200Y-6293800D01*
X8732200Y-6253800D02*
X8692200Y-6293800D01*
X8692200Y-6469700D02*
X8732200Y-6509700D01*
X8732200Y-6469700D02*
X8692200Y-6509700D01*
X8730300Y-5466400D02*
X8770300Y-5506400D01*
X8770300Y-5466400D02*
X8730300Y-5506400D01*
X8755700Y-5212400D02*
X8795700Y-5252400D01*
X8795700Y-5212400D02*
X8755700Y-5252400D01*
X8755700Y-5987100D02*
X8795700Y-6027100D01*
X8795700Y-5987100D02*
X8755700Y-6027100D01*
X8768400Y-5707700D02*
X8808400Y-5747700D01*
X8808400Y-5707700D02*
X8768400Y-5747700D01*
X8825299Y-6126223D02*
X8865299Y-6166223D01*
X8865299Y-6126223D02*
X8825299Y-6166223D01*
X8872220Y-6633490D02*
X8912220Y-6673490D01*
X8912220Y-6633490D02*
X8872220Y-6673490D01*
X8878783Y-5855310D02*
X8918783Y-5895310D01*
X8918783Y-5855310D02*
X8878783Y-5895310D01*
X8895636Y-6374477D02*
X8935636Y-6414477D01*
X8935636Y-6374477D02*
X8895636Y-6414477D01*
X9172200Y-5225100D02*
X9212200Y-5265100D01*
X9212200Y-5225100D02*
X9172200Y-5265100D01*
X9200200Y-5453700D02*
X9240200Y-5493700D01*
X9240200Y-5453700D02*
X9200200Y-5493700D01*
X9200200Y-5707700D02*
X9240200Y-5747700D01*
X9240200Y-5707700D02*
X9200200Y-5747700D01*
X9200200Y-5949000D02*
X9240200Y-5989000D01*
X9240200Y-5949000D02*
X9200200Y-5989000D01*
X9200200Y-6228400D02*
X9240200Y-6268400D01*
X9240200Y-6228400D02*
X9200200Y-6268400D01*
X9200200Y-6482400D02*
X9240200Y-6522400D01*
X9240200Y-6482400D02*
X9200200Y-6522400D01*
X9200200Y-6723700D02*
X9240200Y-6763700D01*
X9240200Y-6723700D02*
X9200200Y-6763700D01*
X9456740Y-5062540D02*
X9496740Y-5102540D01*
X9496740Y-5062540D02*
X9456740Y-5102540D01*
X9568500Y-9647240D02*
X9608500Y-9687240D01*
X9608500Y-9647240D02*
X9568500Y-9687240D01*
X2469300Y-8928100D02*
G75*
G03*
X2469300Y-8928100I-32500J0D01*
G01*
X2483600Y-2768600D02*
G75*
G03*
X2483600Y-2768600I-32500J0D01*
G01*
X2596300Y-8928100D02*
G75*
G03*
X2596300Y-8928100I-32500J0D01*
G01*
X2610600Y-2768600D02*
G75*
G03*
X2610600Y-2768600I-32500J0D01*
G01*
X2723300Y-8928100D02*
G75*
G03*
X2723300Y-8928100I-32500J0D01*
G01*
X2737600Y-2768600D02*
G75*
G03*
X2737600Y-2768600I-32500J0D01*
G01*
X2611500Y-2416300D02*
X2611500Y-2511300D01*
X2564000Y-2463800D02*
X2659000Y-2463800D01*
X2632900Y-9190900D02*
X2632900Y-9285900D01*
X2585400Y-9238400D02*
X2680400Y-9238400D01*
X2861500Y-2416300D02*
X2861500Y-2511300D01*
X2814000Y-2463800D02*
X2909000Y-2463800D01*
X2882900Y-9190900D02*
X2882900Y-9285900D01*
X2835400Y-9238400D02*
X2930400Y-9238400D01*
X3111500Y-2416300D02*
X3111500Y-2511300D01*
X3064000Y-2463800D02*
X3159000Y-2463800D01*
X3132900Y-9190900D02*
X3132900Y-9285900D01*
X3085400Y-9238400D02*
X3180400Y-9238400D01*
X3263900Y-6632700D02*
X3263900Y-6727700D01*
X3216400Y-6680200D02*
X3311400Y-6680200D01*
X3263900Y-6882700D02*
X3263900Y-6977700D01*
X3216400Y-6930200D02*
X3311400Y-6930200D01*
X3263900Y-7132700D02*
X3263900Y-7227700D01*
X3216400Y-7180200D02*
X3311400Y-7180200D01*
X3263900Y-7382700D02*
X3263900Y-7477700D01*
X3216400Y-7430200D02*
X3311400Y-7430200D01*
X3263900Y-7632700D02*
X3263900Y-7727700D01*
X3216400Y-7680200D02*
X3311400Y-7680200D01*
X3263900Y-7882700D02*
X3263900Y-7977700D01*
X3216400Y-7930200D02*
X3311400Y-7930200D01*
X3897200Y-6630000D02*
X3897200Y-6725000D01*
X3849700Y-6677500D02*
X3944700Y-6677500D01*
X3897200Y-6880000D02*
X3897200Y-6975000D01*
X3849700Y-6927500D02*
X3944700Y-6927500D01*
X3897200Y-7130000D02*
X3897200Y-7225000D01*
X3849700Y-7177500D02*
X3944700Y-7177500D01*
X3897200Y-7380000D02*
X3897200Y-7475000D01*
X3849700Y-7427500D02*
X3944700Y-7427500D01*
X3897200Y-7630000D02*
X3897200Y-7725000D01*
X3849700Y-7677500D02*
X3944700Y-7677500D01*
X3897200Y-7880000D02*
X3897200Y-7975000D01*
X3849700Y-7927500D02*
X3944700Y-7927500D01*
X9753600Y-5197600D02*
X9753600Y-5292600D01*
X9706100Y-5245100D02*
X9801100Y-5245100D01*
X9753600Y-5447600D02*
X9753600Y-5542600D01*
X9706100Y-5495100D02*
X9801100Y-5495100D01*
X9753600Y-5697600D02*
X9753600Y-5792600D01*
X9706100Y-5745100D02*
X9801100Y-5745100D01*
X9753600Y-5947600D02*
X9753600Y-6042600D01*
X9706100Y-5995100D02*
X9801100Y-5995100D01*
X9753600Y-6197600D02*
X9753600Y-6292600D01*
X9706100Y-6245100D02*
X9801100Y-6245100D01*
X9753600Y-6447600D02*
X9753600Y-6542600D01*
X9706100Y-6495100D02*
X9801100Y-6495100D01*
X9753600Y-6697600D02*
X9753600Y-6792600D01*
X9706100Y-6745100D02*
X9801100Y-6745100D01*
X3326756Y-4787156D02*
X3326756Y-4716444D01*
X3256044Y-4716444D01*
X3256044Y-4787156D01*
X3326756Y-4787156D01*
X3326756Y-5037156D02*
X3326756Y-4966444D01*
X3256044Y-4966444D01*
X3256044Y-5037156D01*
X3326756Y-5037156D01*
X3326756Y-5732156D02*
X3326756Y-5661444D01*
X3256044Y-5661444D01*
X3256044Y-5732156D01*
X3326756Y-5732156D01*
X3326756Y-5982156D02*
X3326756Y-5911444D01*
X3256044Y-5911444D01*
X3256044Y-5982156D01*
X3326756Y-5982156D01*
D12*
X5397500Y-4483100D02*
X5448300Y-4432300D01*
X5397500Y-4381500D01*
X5346700Y-4432300D01*
X5397500Y-4483100D01*
X5397500Y-4737100D02*
X5448300Y-4686300D01*
X5397500Y-4635500D01*
X5346700Y-4686300D01*
X5397500Y-4737100D01*
X5397500Y-4991100D02*
X5448300Y-4940300D01*
X5397500Y-4889500D01*
X5346700Y-4940300D01*
X5397500Y-4991100D01*
X5397500Y-5245100D02*
X5448300Y-5194300D01*
X5397500Y-5143500D01*
X5346700Y-5194300D01*
X5397500Y-5245100D01*
X5397500Y-5499100D02*
X5448300Y-5448300D01*
X5397500Y-5397500D01*
X5346700Y-5448300D01*
X5397500Y-5499100D01*
X5397500Y-5753100D02*
X5448300Y-5702300D01*
X5397500Y-5651500D01*
X5346700Y-5702300D01*
X5397500Y-5753100D01*
X5397500Y-6007100D02*
X5448300Y-5956300D01*
X5397500Y-5905500D01*
X5346700Y-5956300D01*
X5397500Y-6007100D01*
X5397500Y-6261100D02*
X5448300Y-6210300D01*
X5397500Y-6159500D01*
X5346700Y-6210300D01*
X5397500Y-6261100D01*
X5397500Y-6515100D02*
X5448300Y-6464300D01*
X5397500Y-6413500D01*
X5346700Y-6464300D01*
X5397500Y-6515100D01*
X5397500Y-6769100D02*
X5448300Y-6718300D01*
X5397500Y-6667500D01*
X5346700Y-6718300D01*
X5397500Y-6769100D01*
X5397500Y-7023100D02*
X5448300Y-6972300D01*
X5397500Y-6921500D01*
X5346700Y-6972300D01*
X5397500Y-7023100D01*
X5397500Y-7277100D02*
X5448300Y-7226300D01*
X5397500Y-7175500D01*
X5346700Y-7226300D01*
X5397500Y-7277100D01*
X6159500Y-7277100D02*
X6210300Y-7226300D01*
X6159500Y-7175500D01*
X6108700Y-7226300D01*
X6159500Y-7277100D01*
X6413500Y-7277100D02*
X6464300Y-7226300D01*
X6413500Y-7175500D01*
X6362700Y-7226300D01*
X6413500Y-7277100D01*
X6667500Y-5372100D02*
X6718300Y-5321300D01*
X6667500Y-5270500D01*
X6616700Y-5321300D01*
X6667500Y-5372100D01*
X6667500Y-5626100D02*
X6718300Y-5575300D01*
X6667500Y-5524500D01*
X6616700Y-5575300D01*
X6667500Y-5626100D01*
X6667500Y-7277100D02*
X6718300Y-7226300D01*
X6667500Y-7175500D01*
X6616700Y-7226300D01*
X6667500Y-7277100D01*
X6921500Y-4483100D02*
X6972300Y-4432300D01*
X6921500Y-4381500D01*
X6870700Y-4432300D01*
X6921500Y-4483100D01*
X6921500Y-4737100D02*
X6972300Y-4686300D01*
X6921500Y-4635500D01*
X6870700Y-4686300D01*
X6921500Y-4737100D01*
X6921500Y-4991100D02*
X6972300Y-4940300D01*
X6921500Y-4889500D01*
X6870700Y-4940300D01*
X6921500Y-4991100D01*
X6921500Y-5245100D02*
X6972300Y-5194300D01*
X6921500Y-5143500D01*
X6870700Y-5194300D01*
X6921500Y-5245100D01*
X6921500Y-5499100D02*
X6972300Y-5448300D01*
X6921500Y-5397500D01*
X6870700Y-5448300D01*
X6921500Y-5499100D01*
X6921500Y-5753100D02*
X6972300Y-5702300D01*
X6921500Y-5651500D01*
X6870700Y-5702300D01*
X6921500Y-5753100D01*
X6921500Y-6007100D02*
X6972300Y-5956300D01*
X6921500Y-5905500D01*
X6870700Y-5956300D01*
X6921500Y-6007100D01*
X6921500Y-6261100D02*
X6972300Y-6210300D01*
X6921500Y-6159500D01*
X6870700Y-6210300D01*
X6921500Y-6261100D01*
X6921500Y-6515100D02*
X6972300Y-6464300D01*
X6921500Y-6413500D01*
X6870700Y-6464300D01*
X6921500Y-6515100D01*
X6921500Y-6769100D02*
X6972300Y-6718300D01*
X6921500Y-6667500D01*
X6870700Y-6718300D01*
X6921500Y-6769100D01*
X6921500Y-7023100D02*
X6972300Y-6972300D01*
X6921500Y-6921500D01*
X6870700Y-6972300D01*
X6921500Y-7023100D01*
X6921500Y-7277100D02*
X6972300Y-7226300D01*
X6921500Y-7175500D01*
X6870700Y-7226300D01*
X6921500Y-7277100D01*
D11*
X2503677Y-10400284D02*
X2503677Y-10200284D01*
X2503677Y-10200284D02*
X2551296Y-10200284D01*
X2551296Y-10200284D02*
X2579867Y-10209808D01*
X2579867Y-10209808D02*
X2598915Y-10228855D01*
X2598915Y-10228855D02*
X2608439Y-10247903D01*
X2608439Y-10247903D02*
X2617963Y-10285998D01*
X2617963Y-10285998D02*
X2617963Y-10314570D01*
X2617963Y-10314570D02*
X2608439Y-10352665D01*
X2608439Y-10352665D02*
X2598915Y-10371712D01*
X2598915Y-10371712D02*
X2579867Y-10390760D01*
X2579867Y-10390760D02*
X2551296Y-10400284D01*
X2551296Y-10400284D02*
X2503677Y-10400284D01*
X2703677Y-10400284D02*
X2703677Y-10266950D01*
X2703677Y-10305046D02*
X2713201Y-10285998D01*
X2713201Y-10285998D02*
X2722724Y-10276474D01*
X2722724Y-10276474D02*
X2741772Y-10266950D01*
X2741772Y-10266950D02*
X2760820Y-10266950D01*
X2827486Y-10400284D02*
X2827486Y-10266950D01*
X2827486Y-10200284D02*
X2817962Y-10209808D01*
X2817962Y-10209808D02*
X2827486Y-10219331D01*
X2827486Y-10219331D02*
X2837010Y-10209808D01*
X2837010Y-10209808D02*
X2827486Y-10200284D01*
X2827486Y-10200284D02*
X2827486Y-10219331D01*
X2951296Y-10400284D02*
X2932248Y-10390760D01*
X2932248Y-10390760D02*
X2922724Y-10371712D01*
X2922724Y-10371712D02*
X2922724Y-10200284D01*
X3056058Y-10400284D02*
X3037010Y-10390760D01*
X3037010Y-10390760D02*
X3027486Y-10371712D01*
X3027486Y-10371712D02*
X3027486Y-10200284D01*
X3284629Y-10400284D02*
X3284629Y-10200284D01*
X3284629Y-10200284D02*
X3351296Y-10343141D01*
X3351296Y-10343141D02*
X3417962Y-10200284D01*
X3417962Y-10200284D02*
X3417962Y-10400284D01*
X3598915Y-10400284D02*
X3598915Y-10295522D01*
X3598915Y-10295522D02*
X3589391Y-10276474D01*
X3589391Y-10276474D02*
X3570343Y-10266950D01*
X3570343Y-10266950D02*
X3532248Y-10266950D01*
X3532248Y-10266950D02*
X3513201Y-10276474D01*
X3598915Y-10390760D02*
X3579867Y-10400284D01*
X3579867Y-10400284D02*
X3532248Y-10400284D01*
X3532248Y-10400284D02*
X3513201Y-10390760D01*
X3513201Y-10390760D02*
X3503677Y-10371712D01*
X3503677Y-10371712D02*
X3503677Y-10352665D01*
X3503677Y-10352665D02*
X3513201Y-10333617D01*
X3513201Y-10333617D02*
X3532248Y-10324093D01*
X3532248Y-10324093D02*
X3579867Y-10324093D01*
X3579867Y-10324093D02*
X3598915Y-10314570D01*
X3694153Y-10266950D02*
X3694153Y-10466950D01*
X3694153Y-10276474D02*
X3713201Y-10266950D01*
X3713201Y-10266950D02*
X3751296Y-10266950D01*
X3751296Y-10266950D02*
X3770343Y-10276474D01*
X3770343Y-10276474D02*
X3779867Y-10285998D01*
X3779867Y-10285998D02*
X3789391Y-10305046D01*
X3789391Y-10305046D02*
X3789391Y-10362189D01*
X3789391Y-10362189D02*
X3779867Y-10381236D01*
X3779867Y-10381236D02*
X3770343Y-10390760D01*
X3770343Y-10390760D02*
X3751296Y-10400284D01*
X3751296Y-10400284D02*
X3713201Y-10400284D01*
X3713201Y-10400284D02*
X3694153Y-10390760D01*
X3875105Y-10381236D02*
X3884629Y-10390760D01*
X3884629Y-10390760D02*
X3875105Y-10400284D01*
X3875105Y-10400284D02*
X3865582Y-10390760D01*
X3865582Y-10390760D02*
X3875105Y-10381236D01*
X3875105Y-10381236D02*
X3875105Y-10400284D01*
X3875105Y-10276474D02*
X3884629Y-10285998D01*
X3884629Y-10285998D02*
X3875105Y-10295522D01*
X3875105Y-10295522D02*
X3865582Y-10285998D01*
X3865582Y-10285998D02*
X3875105Y-10276474D01*
X3875105Y-10276474D02*
X3875105Y-10295522D01*
D10*
X2202900Y-10708800D02*
X2242900Y-10748800D01*
X2242900Y-10708800D02*
X2202900Y-10748800D01*
D11*
X2541772Y-10620284D02*
X2560820Y-10620284D01*
X2560820Y-10620284D02*
X2579867Y-10629808D01*
X2579867Y-10629808D02*
X2589391Y-10639331D01*
X2589391Y-10639331D02*
X2598915Y-10658379D01*
X2598915Y-10658379D02*
X2608439Y-10696474D01*
X2608439Y-10696474D02*
X2608439Y-10744093D01*
X2608439Y-10744093D02*
X2598915Y-10782189D01*
X2598915Y-10782189D02*
X2589391Y-10801236D01*
X2589391Y-10801236D02*
X2579867Y-10810760D01*
X2579867Y-10810760D02*
X2560820Y-10820284D01*
X2560820Y-10820284D02*
X2541772Y-10820284D01*
X2541772Y-10820284D02*
X2522724Y-10810760D01*
X2522724Y-10810760D02*
X2513201Y-10801236D01*
X2513201Y-10801236D02*
X2503677Y-10782189D01*
X2503677Y-10782189D02*
X2494153Y-10744093D01*
X2494153Y-10744093D02*
X2494153Y-10696474D01*
X2494153Y-10696474D02*
X2503677Y-10658379D01*
X2503677Y-10658379D02*
X2513201Y-10639331D01*
X2513201Y-10639331D02*
X2522724Y-10629808D01*
X2522724Y-10629808D02*
X2541772Y-10620284D01*
X2694153Y-10801236D02*
X2703677Y-10810760D01*
X2703677Y-10810760D02*
X2694153Y-10820284D01*
X2694153Y-10820284D02*
X2684629Y-10810760D01*
X2684629Y-10810760D02*
X2694153Y-10801236D01*
X2694153Y-10801236D02*
X2694153Y-10820284D01*
X2875105Y-10686950D02*
X2875105Y-10820284D01*
X2827486Y-10610760D02*
X2779867Y-10753617D01*
X2779867Y-10753617D02*
X2903677Y-10753617D01*
X3017962Y-10620284D02*
X3037010Y-10620284D01*
X3037010Y-10620284D02*
X3056058Y-10629808D01*
X3056058Y-10629808D02*
X3065582Y-10639331D01*
X3065582Y-10639331D02*
X3075105Y-10658379D01*
X3075105Y-10658379D02*
X3084629Y-10696474D01*
X3084629Y-10696474D02*
X3084629Y-10744093D01*
X3084629Y-10744093D02*
X3075105Y-10782189D01*
X3075105Y-10782189D02*
X3065582Y-10801236D01*
X3065582Y-10801236D02*
X3056058Y-10810760D01*
X3056058Y-10810760D02*
X3037010Y-10820284D01*
X3037010Y-10820284D02*
X3017962Y-10820284D01*
X3017962Y-10820284D02*
X2998915Y-10810760D01*
X2998915Y-10810760D02*
X2989391Y-10801236D01*
X2989391Y-10801236D02*
X2979867Y-10782189D01*
X2979867Y-10782189D02*
X2970343Y-10744093D01*
X2970343Y-10744093D02*
X2970343Y-10696474D01*
X2970343Y-10696474D02*
X2979867Y-10658379D01*
X2979867Y-10658379D02*
X2989391Y-10639331D01*
X2989391Y-10639331D02*
X2998915Y-10629808D01*
X2998915Y-10629808D02*
X3017962Y-10620284D01*
X3208439Y-10620284D02*
X3227486Y-10620284D01*
X3227486Y-10620284D02*
X3246534Y-10629808D01*
X3246534Y-10629808D02*
X3256058Y-10639331D01*
X3256058Y-10639331D02*
X3265582Y-10658379D01*
X3265582Y-10658379D02*
X3275105Y-10696474D01*
X3275105Y-10696474D02*
X3275105Y-10744093D01*
X3275105Y-10744093D02*
X3265582Y-10782189D01*
X3265582Y-10782189D02*
X3256058Y-10801236D01*
X3256058Y-10801236D02*
X3246534Y-10810760D01*
X3246534Y-10810760D02*
X3227486Y-10820284D01*
X3227486Y-10820284D02*
X3208439Y-10820284D01*
X3208439Y-10820284D02*
X3189391Y-10810760D01*
X3189391Y-10810760D02*
X3179867Y-10801236D01*
X3179867Y-10801236D02*
X3170343Y-10782189D01*
X3170343Y-10782189D02*
X3160820Y-10744093D01*
X3160820Y-10744093D02*
X3160820Y-10696474D01*
X3160820Y-10696474D02*
X3170343Y-10658379D01*
X3170343Y-10658379D02*
X3179867Y-10639331D01*
X3179867Y-10639331D02*
X3189391Y-10629808D01*
X3189391Y-10629808D02*
X3208439Y-10620284D01*
X3360820Y-10820284D02*
X3360820Y-10686950D01*
X3360820Y-10705998D02*
X3370343Y-10696474D01*
X3370343Y-10696474D02*
X3389391Y-10686950D01*
X3389391Y-10686950D02*
X3417963Y-10686950D01*
X3417963Y-10686950D02*
X3437010Y-10696474D01*
X3437010Y-10696474D02*
X3446534Y-10715522D01*
X3446534Y-10715522D02*
X3446534Y-10820284D01*
X3446534Y-10715522D02*
X3456058Y-10696474D01*
X3456058Y-10696474D02*
X3475105Y-10686950D01*
X3475105Y-10686950D02*
X3503677Y-10686950D01*
X3503677Y-10686950D02*
X3522724Y-10696474D01*
X3522724Y-10696474D02*
X3532248Y-10715522D01*
X3532248Y-10715522D02*
X3532248Y-10820284D01*
X3627486Y-10820284D02*
X3627486Y-10686950D01*
X3627486Y-10705998D02*
X3637010Y-10696474D01*
X3637010Y-10696474D02*
X3656058Y-10686950D01*
X3656058Y-10686950D02*
X3684629Y-10686950D01*
X3684629Y-10686950D02*
X3703677Y-10696474D01*
X3703677Y-10696474D02*
X3713201Y-10715522D01*
X3713201Y-10715522D02*
X3713201Y-10820284D01*
X3713201Y-10715522D02*
X3722724Y-10696474D01*
X3722724Y-10696474D02*
X3741772Y-10686950D01*
X3741772Y-10686950D02*
X3770343Y-10686950D01*
X3770343Y-10686950D02*
X3789391Y-10696474D01*
X3789391Y-10696474D02*
X3798915Y-10715522D01*
X3798915Y-10715522D02*
X3798915Y-10820284D01*
X4189391Y-10610760D02*
X4017963Y-10867903D01*
X4446534Y-10620284D02*
X4465582Y-10620284D01*
X4465582Y-10620284D02*
X4484629Y-10629808D01*
X4484629Y-10629808D02*
X4494153Y-10639331D01*
X4494153Y-10639331D02*
X4503677Y-10658379D01*
X4503677Y-10658379D02*
X4513201Y-10696474D01*
X4513201Y-10696474D02*
X4513201Y-10744093D01*
X4513201Y-10744093D02*
X4503677Y-10782189D01*
X4503677Y-10782189D02*
X4494153Y-10801236D01*
X4494153Y-10801236D02*
X4484629Y-10810760D01*
X4484629Y-10810760D02*
X4465582Y-10820284D01*
X4465582Y-10820284D02*
X4446534Y-10820284D01*
X4446534Y-10820284D02*
X4427487Y-10810760D01*
X4427487Y-10810760D02*
X4417963Y-10801236D01*
X4417963Y-10801236D02*
X4408439Y-10782189D01*
X4408439Y-10782189D02*
X4398915Y-10744093D01*
X4398915Y-10744093D02*
X4398915Y-10696474D01*
X4398915Y-10696474D02*
X4408439Y-10658379D01*
X4408439Y-10658379D02*
X4417963Y-10639331D01*
X4417963Y-10639331D02*
X4427487Y-10629808D01*
X4427487Y-10629808D02*
X4446534Y-10620284D01*
X4598915Y-10801236D02*
X4608439Y-10810760D01*
X4608439Y-10810760D02*
X4598915Y-10820284D01*
X4598915Y-10820284D02*
X4589391Y-10810760D01*
X4589391Y-10810760D02*
X4598915Y-10801236D01*
X4598915Y-10801236D02*
X4598915Y-10820284D01*
X4732248Y-10620284D02*
X4751296Y-10620284D01*
X4751296Y-10620284D02*
X4770344Y-10629808D01*
X4770344Y-10629808D02*
X4779868Y-10639331D01*
X4779868Y-10639331D02*
X4789391Y-10658379D01*
X4789391Y-10658379D02*
X4798915Y-10696474D01*
X4798915Y-10696474D02*
X4798915Y-10744093D01*
X4798915Y-10744093D02*
X4789391Y-10782189D01*
X4789391Y-10782189D02*
X4779868Y-10801236D01*
X4779868Y-10801236D02*
X4770344Y-10810760D01*
X4770344Y-10810760D02*
X4751296Y-10820284D01*
X4751296Y-10820284D02*
X4732248Y-10820284D01*
X4732248Y-10820284D02*
X4713201Y-10810760D01*
X4713201Y-10810760D02*
X4703677Y-10801236D01*
X4703677Y-10801236D02*
X4694153Y-10782189D01*
X4694153Y-10782189D02*
X4684629Y-10744093D01*
X4684629Y-10744093D02*
X4684629Y-10696474D01*
X4684629Y-10696474D02*
X4694153Y-10658379D01*
X4694153Y-10658379D02*
X4703677Y-10639331D01*
X4703677Y-10639331D02*
X4713201Y-10629808D01*
X4713201Y-10629808D02*
X4732248Y-10620284D01*
X4989391Y-10820284D02*
X4875106Y-10820284D01*
X4932248Y-10820284D02*
X4932248Y-10620284D01*
X4932248Y-10620284D02*
X4913201Y-10648855D01*
X4913201Y-10648855D02*
X4894153Y-10667903D01*
X4894153Y-10667903D02*
X4875106Y-10677427D01*
X5170344Y-10620284D02*
X5075106Y-10620284D01*
X5075106Y-10620284D02*
X5065582Y-10715522D01*
X5065582Y-10715522D02*
X5075106Y-10705998D01*
X5075106Y-10705998D02*
X5094153Y-10696474D01*
X5094153Y-10696474D02*
X5141772Y-10696474D01*
X5141772Y-10696474D02*
X5160820Y-10705998D01*
X5160820Y-10705998D02*
X5170344Y-10715522D01*
X5170344Y-10715522D02*
X5179868Y-10734570D01*
X5179868Y-10734570D02*
X5179868Y-10782189D01*
X5179868Y-10782189D02*
X5170344Y-10801236D01*
X5170344Y-10801236D02*
X5160820Y-10810760D01*
X5160820Y-10810760D02*
X5141772Y-10820284D01*
X5141772Y-10820284D02*
X5094153Y-10820284D01*
X5094153Y-10820284D02*
X5075106Y-10810760D01*
X5075106Y-10810760D02*
X5065582Y-10801236D01*
X5246534Y-10620284D02*
X5379868Y-10620284D01*
X5379868Y-10620284D02*
X5294153Y-10820284D01*
X5446534Y-10620284D02*
X5446534Y-10658379D01*
X5522725Y-10620284D02*
X5522725Y-10658379D01*
X5817963Y-10896474D02*
X5808439Y-10886950D01*
X5808439Y-10886950D02*
X5789391Y-10858379D01*
X5789391Y-10858379D02*
X5779868Y-10839331D01*
X5779868Y-10839331D02*
X5770344Y-10810760D01*
X5770344Y-10810760D02*
X5760820Y-10763141D01*
X5760820Y-10763141D02*
X5760820Y-10725046D01*
X5760820Y-10725046D02*
X5770344Y-10677427D01*
X5770344Y-10677427D02*
X5779868Y-10648855D01*
X5779868Y-10648855D02*
X5789391Y-10629808D01*
X5789391Y-10629808D02*
X5808439Y-10601236D01*
X5808439Y-10601236D02*
X5817963Y-10591712D01*
X5903677Y-10820284D02*
X5941772Y-10820284D01*
X5941772Y-10820284D02*
X5960820Y-10810760D01*
X5960820Y-10810760D02*
X5970344Y-10801236D01*
X5970344Y-10801236D02*
X5989391Y-10772665D01*
X5989391Y-10772665D02*
X5998915Y-10734570D01*
X5998915Y-10734570D02*
X5998915Y-10658379D01*
X5998915Y-10658379D02*
X5989391Y-10639331D01*
X5989391Y-10639331D02*
X5979868Y-10629808D01*
X5979868Y-10629808D02*
X5960820Y-10620284D01*
X5960820Y-10620284D02*
X5922725Y-10620284D01*
X5922725Y-10620284D02*
X5903677Y-10629808D01*
X5903677Y-10629808D02*
X5894153Y-10639331D01*
X5894153Y-10639331D02*
X5884629Y-10658379D01*
X5884629Y-10658379D02*
X5884629Y-10705998D01*
X5884629Y-10705998D02*
X5894153Y-10725046D01*
X5894153Y-10725046D02*
X5903677Y-10734570D01*
X5903677Y-10734570D02*
X5922725Y-10744093D01*
X5922725Y-10744093D02*
X5960820Y-10744093D01*
X5960820Y-10744093D02*
X5979868Y-10734570D01*
X5979868Y-10734570D02*
X5989391Y-10725046D01*
X5989391Y-10725046D02*
X5998915Y-10705998D01*
X6170344Y-10686950D02*
X6170344Y-10820284D01*
X6122725Y-10610760D02*
X6075106Y-10753617D01*
X6075106Y-10753617D02*
X6198915Y-10753617D01*
X6427487Y-10820284D02*
X6427487Y-10620284D01*
X6513201Y-10820284D02*
X6513201Y-10715522D01*
X6513201Y-10715522D02*
X6503677Y-10696474D01*
X6503677Y-10696474D02*
X6484630Y-10686950D01*
X6484630Y-10686950D02*
X6456058Y-10686950D01*
X6456058Y-10686950D02*
X6437010Y-10696474D01*
X6437010Y-10696474D02*
X6427487Y-10705998D01*
X6637010Y-10820284D02*
X6617963Y-10810760D01*
X6617963Y-10810760D02*
X6608439Y-10801236D01*
X6608439Y-10801236D02*
X6598915Y-10782189D01*
X6598915Y-10782189D02*
X6598915Y-10725046D01*
X6598915Y-10725046D02*
X6608439Y-10705998D01*
X6608439Y-10705998D02*
X6617963Y-10696474D01*
X6617963Y-10696474D02*
X6637010Y-10686950D01*
X6637010Y-10686950D02*
X6665582Y-10686950D01*
X6665582Y-10686950D02*
X6684630Y-10696474D01*
X6684630Y-10696474D02*
X6694153Y-10705998D01*
X6694153Y-10705998D02*
X6703677Y-10725046D01*
X6703677Y-10725046D02*
X6703677Y-10782189D01*
X6703677Y-10782189D02*
X6694153Y-10801236D01*
X6694153Y-10801236D02*
X6684630Y-10810760D01*
X6684630Y-10810760D02*
X6665582Y-10820284D01*
X6665582Y-10820284D02*
X6637010Y-10820284D01*
X6817963Y-10820284D02*
X6798915Y-10810760D01*
X6798915Y-10810760D02*
X6789391Y-10791712D01*
X6789391Y-10791712D02*
X6789391Y-10620284D01*
X6970344Y-10810760D02*
X6951296Y-10820284D01*
X6951296Y-10820284D02*
X6913201Y-10820284D01*
X6913201Y-10820284D02*
X6894153Y-10810760D01*
X6894153Y-10810760D02*
X6884630Y-10791712D01*
X6884630Y-10791712D02*
X6884630Y-10715522D01*
X6884630Y-10715522D02*
X6894153Y-10696474D01*
X6894153Y-10696474D02*
X6913201Y-10686950D01*
X6913201Y-10686950D02*
X6951296Y-10686950D01*
X6951296Y-10686950D02*
X6970344Y-10696474D01*
X6970344Y-10696474D02*
X6979868Y-10715522D01*
X6979868Y-10715522D02*
X6979868Y-10734570D01*
X6979868Y-10734570D02*
X6884630Y-10753617D01*
X7056058Y-10810760D02*
X7075106Y-10820284D01*
X7075106Y-10820284D02*
X7113201Y-10820284D01*
X7113201Y-10820284D02*
X7132249Y-10810760D01*
X7132249Y-10810760D02*
X7141772Y-10791712D01*
X7141772Y-10791712D02*
X7141772Y-10782189D01*
X7141772Y-10782189D02*
X7132249Y-10763141D01*
X7132249Y-10763141D02*
X7113201Y-10753617D01*
X7113201Y-10753617D02*
X7084630Y-10753617D01*
X7084630Y-10753617D02*
X7065582Y-10744093D01*
X7065582Y-10744093D02*
X7056058Y-10725046D01*
X7056058Y-10725046D02*
X7056058Y-10715522D01*
X7056058Y-10715522D02*
X7065582Y-10696474D01*
X7065582Y-10696474D02*
X7084630Y-10686950D01*
X7084630Y-10686950D02*
X7113201Y-10686950D01*
X7113201Y-10686950D02*
X7132249Y-10696474D01*
X7208439Y-10896474D02*
X7217963Y-10886950D01*
X7217963Y-10886950D02*
X7237011Y-10858379D01*
X7237011Y-10858379D02*
X7246534Y-10839331D01*
X7246534Y-10839331D02*
X7256058Y-10810760D01*
X7256058Y-10810760D02*
X7265582Y-10763141D01*
X7265582Y-10763141D02*
X7265582Y-10725046D01*
X7265582Y-10725046D02*
X7256058Y-10677427D01*
X7256058Y-10677427D02*
X7246534Y-10648855D01*
X7246534Y-10648855D02*
X7237011Y-10629808D01*
X7237011Y-10629808D02*
X7217963Y-10601236D01*
X7217963Y-10601236D02*
X7208439Y-10591712D01*
D10*
X2242900Y-10992800D02*
G75*
G03*
X2242900Y-10992800I-32500J0D01*
G01*
D11*
X2541772Y-10884284D02*
X2560820Y-10884284D01*
X2560820Y-10884284D02*
X2579867Y-10893808D01*
X2579867Y-10893808D02*
X2589391Y-10903331D01*
X2589391Y-10903331D02*
X2598915Y-10922379D01*
X2598915Y-10922379D02*
X2608439Y-10960474D01*
X2608439Y-10960474D02*
X2608439Y-11008093D01*
X2608439Y-11008093D02*
X2598915Y-11046189D01*
X2598915Y-11046189D02*
X2589391Y-11065236D01*
X2589391Y-11065236D02*
X2579867Y-11074760D01*
X2579867Y-11074760D02*
X2560820Y-11084284D01*
X2560820Y-11084284D02*
X2541772Y-11084284D01*
X2541772Y-11084284D02*
X2522724Y-11074760D01*
X2522724Y-11074760D02*
X2513201Y-11065236D01*
X2513201Y-11065236D02*
X2503677Y-11046189D01*
X2503677Y-11046189D02*
X2494153Y-11008093D01*
X2494153Y-11008093D02*
X2494153Y-10960474D01*
X2494153Y-10960474D02*
X2503677Y-10922379D01*
X2503677Y-10922379D02*
X2513201Y-10903331D01*
X2513201Y-10903331D02*
X2522724Y-10893808D01*
X2522724Y-10893808D02*
X2541772Y-10884284D01*
X2694153Y-11065236D02*
X2703677Y-11074760D01*
X2703677Y-11074760D02*
X2694153Y-11084284D01*
X2694153Y-11084284D02*
X2684629Y-11074760D01*
X2684629Y-11074760D02*
X2694153Y-11065236D01*
X2694153Y-11065236D02*
X2694153Y-11084284D01*
X2875105Y-10884284D02*
X2837010Y-10884284D01*
X2837010Y-10884284D02*
X2817962Y-10893808D01*
X2817962Y-10893808D02*
X2808439Y-10903331D01*
X2808439Y-10903331D02*
X2789391Y-10931903D01*
X2789391Y-10931903D02*
X2779867Y-10969998D01*
X2779867Y-10969998D02*
X2779867Y-11046189D01*
X2779867Y-11046189D02*
X2789391Y-11065236D01*
X2789391Y-11065236D02*
X2798915Y-11074760D01*
X2798915Y-11074760D02*
X2817962Y-11084284D01*
X2817962Y-11084284D02*
X2856058Y-11084284D01*
X2856058Y-11084284D02*
X2875105Y-11074760D01*
X2875105Y-11074760D02*
X2884629Y-11065236D01*
X2884629Y-11065236D02*
X2894153Y-11046189D01*
X2894153Y-11046189D02*
X2894153Y-10998570D01*
X2894153Y-10998570D02*
X2884629Y-10979522D01*
X2884629Y-10979522D02*
X2875105Y-10969998D01*
X2875105Y-10969998D02*
X2856058Y-10960474D01*
X2856058Y-10960474D02*
X2817962Y-10960474D01*
X2817962Y-10960474D02*
X2798915Y-10969998D01*
X2798915Y-10969998D02*
X2789391Y-10979522D01*
X2789391Y-10979522D02*
X2779867Y-10998570D01*
X3075105Y-10884284D02*
X2979867Y-10884284D01*
X2979867Y-10884284D02*
X2970343Y-10979522D01*
X2970343Y-10979522D02*
X2979867Y-10969998D01*
X2979867Y-10969998D02*
X2998915Y-10960474D01*
X2998915Y-10960474D02*
X3046534Y-10960474D01*
X3046534Y-10960474D02*
X3065582Y-10969998D01*
X3065582Y-10969998D02*
X3075105Y-10979522D01*
X3075105Y-10979522D02*
X3084629Y-10998570D01*
X3084629Y-10998570D02*
X3084629Y-11046189D01*
X3084629Y-11046189D02*
X3075105Y-11065236D01*
X3075105Y-11065236D02*
X3065582Y-11074760D01*
X3065582Y-11074760D02*
X3046534Y-11084284D01*
X3046534Y-11084284D02*
X2998915Y-11084284D01*
X2998915Y-11084284D02*
X2979867Y-11074760D01*
X2979867Y-11074760D02*
X2970343Y-11065236D01*
X3208439Y-10884284D02*
X3227486Y-10884284D01*
X3227486Y-10884284D02*
X3246534Y-10893808D01*
X3246534Y-10893808D02*
X3256058Y-10903331D01*
X3256058Y-10903331D02*
X3265582Y-10922379D01*
X3265582Y-10922379D02*
X3275105Y-10960474D01*
X3275105Y-10960474D02*
X3275105Y-11008093D01*
X3275105Y-11008093D02*
X3265582Y-11046189D01*
X3265582Y-11046189D02*
X3256058Y-11065236D01*
X3256058Y-11065236D02*
X3246534Y-11074760D01*
X3246534Y-11074760D02*
X3227486Y-11084284D01*
X3227486Y-11084284D02*
X3208439Y-11084284D01*
X3208439Y-11084284D02*
X3189391Y-11074760D01*
X3189391Y-11074760D02*
X3179867Y-11065236D01*
X3179867Y-11065236D02*
X3170343Y-11046189D01*
X3170343Y-11046189D02*
X3160820Y-11008093D01*
X3160820Y-11008093D02*
X3160820Y-10960474D01*
X3160820Y-10960474D02*
X3170343Y-10922379D01*
X3170343Y-10922379D02*
X3179867Y-10903331D01*
X3179867Y-10903331D02*
X3189391Y-10893808D01*
X3189391Y-10893808D02*
X3208439Y-10884284D01*
X3360820Y-11084284D02*
X3360820Y-10950950D01*
X3360820Y-10969998D02*
X3370343Y-10960474D01*
X3370343Y-10960474D02*
X3389391Y-10950950D01*
X3389391Y-10950950D02*
X3417963Y-10950950D01*
X3417963Y-10950950D02*
X3437010Y-10960474D01*
X3437010Y-10960474D02*
X3446534Y-10979522D01*
X3446534Y-10979522D02*
X3446534Y-11084284D01*
X3446534Y-10979522D02*
X3456058Y-10960474D01*
X3456058Y-10960474D02*
X3475105Y-10950950D01*
X3475105Y-10950950D02*
X3503677Y-10950950D01*
X3503677Y-10950950D02*
X3522724Y-10960474D01*
X3522724Y-10960474D02*
X3532248Y-10979522D01*
X3532248Y-10979522D02*
X3532248Y-11084284D01*
X3627486Y-11084284D02*
X3627486Y-10950950D01*
X3627486Y-10969998D02*
X3637010Y-10960474D01*
X3637010Y-10960474D02*
X3656058Y-10950950D01*
X3656058Y-10950950D02*
X3684629Y-10950950D01*
X3684629Y-10950950D02*
X3703677Y-10960474D01*
X3703677Y-10960474D02*
X3713201Y-10979522D01*
X3713201Y-10979522D02*
X3713201Y-11084284D01*
X3713201Y-10979522D02*
X3722724Y-10960474D01*
X3722724Y-10960474D02*
X3741772Y-10950950D01*
X3741772Y-10950950D02*
X3770343Y-10950950D01*
X3770343Y-10950950D02*
X3789391Y-10960474D01*
X3789391Y-10960474D02*
X3798915Y-10979522D01*
X3798915Y-10979522D02*
X3798915Y-11084284D01*
X4189391Y-10874760D02*
X4017963Y-11131903D01*
X4446534Y-10884284D02*
X4465582Y-10884284D01*
X4465582Y-10884284D02*
X4484629Y-10893808D01*
X4484629Y-10893808D02*
X4494153Y-10903331D01*
X4494153Y-10903331D02*
X4503677Y-10922379D01*
X4503677Y-10922379D02*
X4513201Y-10960474D01*
X4513201Y-10960474D02*
X4513201Y-11008093D01*
X4513201Y-11008093D02*
X4503677Y-11046189D01*
X4503677Y-11046189D02*
X4494153Y-11065236D01*
X4494153Y-11065236D02*
X4484629Y-11074760D01*
X4484629Y-11074760D02*
X4465582Y-11084284D01*
X4465582Y-11084284D02*
X4446534Y-11084284D01*
X4446534Y-11084284D02*
X4427487Y-11074760D01*
X4427487Y-11074760D02*
X4417963Y-11065236D01*
X4417963Y-11065236D02*
X4408439Y-11046189D01*
X4408439Y-11046189D02*
X4398915Y-11008093D01*
X4398915Y-11008093D02*
X4398915Y-10960474D01*
X4398915Y-10960474D02*
X4408439Y-10922379D01*
X4408439Y-10922379D02*
X4417963Y-10903331D01*
X4417963Y-10903331D02*
X4427487Y-10893808D01*
X4427487Y-10893808D02*
X4446534Y-10884284D01*
X4598915Y-11065236D02*
X4608439Y-11074760D01*
X4608439Y-11074760D02*
X4598915Y-11084284D01*
X4598915Y-11084284D02*
X4589391Y-11074760D01*
X4589391Y-11074760D02*
X4598915Y-11065236D01*
X4598915Y-11065236D02*
X4598915Y-11084284D01*
X4732248Y-10884284D02*
X4751296Y-10884284D01*
X4751296Y-10884284D02*
X4770344Y-10893808D01*
X4770344Y-10893808D02*
X4779868Y-10903331D01*
X4779868Y-10903331D02*
X4789391Y-10922379D01*
X4789391Y-10922379D02*
X4798915Y-10960474D01*
X4798915Y-10960474D02*
X4798915Y-11008093D01*
X4798915Y-11008093D02*
X4789391Y-11046189D01*
X4789391Y-11046189D02*
X4779868Y-11065236D01*
X4779868Y-11065236D02*
X4770344Y-11074760D01*
X4770344Y-11074760D02*
X4751296Y-11084284D01*
X4751296Y-11084284D02*
X4732248Y-11084284D01*
X4732248Y-11084284D02*
X4713201Y-11074760D01*
X4713201Y-11074760D02*
X4703677Y-11065236D01*
X4703677Y-11065236D02*
X4694153Y-11046189D01*
X4694153Y-11046189D02*
X4684629Y-11008093D01*
X4684629Y-11008093D02*
X4684629Y-10960474D01*
X4684629Y-10960474D02*
X4694153Y-10922379D01*
X4694153Y-10922379D02*
X4703677Y-10903331D01*
X4703677Y-10903331D02*
X4713201Y-10893808D01*
X4713201Y-10893808D02*
X4732248Y-10884284D01*
X4875106Y-10903331D02*
X4884629Y-10893808D01*
X4884629Y-10893808D02*
X4903677Y-10884284D01*
X4903677Y-10884284D02*
X4951296Y-10884284D01*
X4951296Y-10884284D02*
X4970344Y-10893808D01*
X4970344Y-10893808D02*
X4979868Y-10903331D01*
X4979868Y-10903331D02*
X4989391Y-10922379D01*
X4989391Y-10922379D02*
X4989391Y-10941427D01*
X4989391Y-10941427D02*
X4979868Y-10969998D01*
X4979868Y-10969998D02*
X4865582Y-11084284D01*
X4865582Y-11084284D02*
X4989391Y-11084284D01*
X5170344Y-10884284D02*
X5075106Y-10884284D01*
X5075106Y-10884284D02*
X5065582Y-10979522D01*
X5065582Y-10979522D02*
X5075106Y-10969998D01*
X5075106Y-10969998D02*
X5094153Y-10960474D01*
X5094153Y-10960474D02*
X5141772Y-10960474D01*
X5141772Y-10960474D02*
X5160820Y-10969998D01*
X5160820Y-10969998D02*
X5170344Y-10979522D01*
X5170344Y-10979522D02*
X5179868Y-10998570D01*
X5179868Y-10998570D02*
X5179868Y-11046189D01*
X5179868Y-11046189D02*
X5170344Y-11065236D01*
X5170344Y-11065236D02*
X5160820Y-11074760D01*
X5160820Y-11074760D02*
X5141772Y-11084284D01*
X5141772Y-11084284D02*
X5094153Y-11084284D01*
X5094153Y-11084284D02*
X5075106Y-11074760D01*
X5075106Y-11074760D02*
X5065582Y-11065236D01*
X5351296Y-10884284D02*
X5313201Y-10884284D01*
X5313201Y-10884284D02*
X5294153Y-10893808D01*
X5294153Y-10893808D02*
X5284629Y-10903331D01*
X5284629Y-10903331D02*
X5265582Y-10931903D01*
X5265582Y-10931903D02*
X5256058Y-10969998D01*
X5256058Y-10969998D02*
X5256058Y-11046189D01*
X5256058Y-11046189D02*
X5265582Y-11065236D01*
X5265582Y-11065236D02*
X5275106Y-11074760D01*
X5275106Y-11074760D02*
X5294153Y-11084284D01*
X5294153Y-11084284D02*
X5332249Y-11084284D01*
X5332249Y-11084284D02*
X5351296Y-11074760D01*
X5351296Y-11074760D02*
X5360820Y-11065236D01*
X5360820Y-11065236D02*
X5370344Y-11046189D01*
X5370344Y-11046189D02*
X5370344Y-10998570D01*
X5370344Y-10998570D02*
X5360820Y-10979522D01*
X5360820Y-10979522D02*
X5351296Y-10969998D01*
X5351296Y-10969998D02*
X5332249Y-10960474D01*
X5332249Y-10960474D02*
X5294153Y-10960474D01*
X5294153Y-10960474D02*
X5275106Y-10969998D01*
X5275106Y-10969998D02*
X5265582Y-10979522D01*
X5265582Y-10979522D02*
X5256058Y-10998570D01*
X5446534Y-10884284D02*
X5446534Y-10922379D01*
X5522725Y-10884284D02*
X5522725Y-10922379D01*
X5817963Y-11160474D02*
X5808439Y-11150950D01*
X5808439Y-11150950D02*
X5789391Y-11122379D01*
X5789391Y-11122379D02*
X5779868Y-11103331D01*
X5779868Y-11103331D02*
X5770344Y-11074760D01*
X5770344Y-11074760D02*
X5760820Y-11027141D01*
X5760820Y-11027141D02*
X5760820Y-10989046D01*
X5760820Y-10989046D02*
X5770344Y-10941427D01*
X5770344Y-10941427D02*
X5779868Y-10912855D01*
X5779868Y-10912855D02*
X5789391Y-10893808D01*
X5789391Y-10893808D02*
X5808439Y-10865236D01*
X5808439Y-10865236D02*
X5817963Y-10855712D01*
X5979868Y-10884284D02*
X5941772Y-10884284D01*
X5941772Y-10884284D02*
X5922725Y-10893808D01*
X5922725Y-10893808D02*
X5913201Y-10903331D01*
X5913201Y-10903331D02*
X5894153Y-10931903D01*
X5894153Y-10931903D02*
X5884629Y-10969998D01*
X5884629Y-10969998D02*
X5884629Y-11046189D01*
X5884629Y-11046189D02*
X5894153Y-11065236D01*
X5894153Y-11065236D02*
X5903677Y-11074760D01*
X5903677Y-11074760D02*
X5922725Y-11084284D01*
X5922725Y-11084284D02*
X5960820Y-11084284D01*
X5960820Y-11084284D02*
X5979868Y-11074760D01*
X5979868Y-11074760D02*
X5989391Y-11065236D01*
X5989391Y-11065236D02*
X5998915Y-11046189D01*
X5998915Y-11046189D02*
X5998915Y-10998570D01*
X5998915Y-10998570D02*
X5989391Y-10979522D01*
X5989391Y-10979522D02*
X5979868Y-10969998D01*
X5979868Y-10969998D02*
X5960820Y-10960474D01*
X5960820Y-10960474D02*
X5922725Y-10960474D01*
X5922725Y-10960474D02*
X5903677Y-10969998D01*
X5903677Y-10969998D02*
X5894153Y-10979522D01*
X5894153Y-10979522D02*
X5884629Y-10998570D01*
X6237010Y-11084284D02*
X6237010Y-10884284D01*
X6322725Y-11084284D02*
X6322725Y-10979522D01*
X6322725Y-10979522D02*
X6313201Y-10960474D01*
X6313201Y-10960474D02*
X6294153Y-10950950D01*
X6294153Y-10950950D02*
X6265582Y-10950950D01*
X6265582Y-10950950D02*
X6246534Y-10960474D01*
X6246534Y-10960474D02*
X6237010Y-10969998D01*
X6446534Y-11084284D02*
X6427487Y-11074760D01*
X6427487Y-11074760D02*
X6417963Y-11065236D01*
X6417963Y-11065236D02*
X6408439Y-11046189D01*
X6408439Y-11046189D02*
X6408439Y-10989046D01*
X6408439Y-10989046D02*
X6417963Y-10969998D01*
X6417963Y-10969998D02*
X6427487Y-10960474D01*
X6427487Y-10960474D02*
X6446534Y-10950950D01*
X6446534Y-10950950D02*
X6475106Y-10950950D01*
X6475106Y-10950950D02*
X6494153Y-10960474D01*
X6494153Y-10960474D02*
X6503677Y-10969998D01*
X6503677Y-10969998D02*
X6513201Y-10989046D01*
X6513201Y-10989046D02*
X6513201Y-11046189D01*
X6513201Y-11046189D02*
X6503677Y-11065236D01*
X6503677Y-11065236D02*
X6494153Y-11074760D01*
X6494153Y-11074760D02*
X6475106Y-11084284D01*
X6475106Y-11084284D02*
X6446534Y-11084284D01*
X6627487Y-11084284D02*
X6608439Y-11074760D01*
X6608439Y-11074760D02*
X6598915Y-11055712D01*
X6598915Y-11055712D02*
X6598915Y-10884284D01*
X6779868Y-11074760D02*
X6760820Y-11084284D01*
X6760820Y-11084284D02*
X6722725Y-11084284D01*
X6722725Y-11084284D02*
X6703677Y-11074760D01*
X6703677Y-11074760D02*
X6694153Y-11055712D01*
X6694153Y-11055712D02*
X6694153Y-10979522D01*
X6694153Y-10979522D02*
X6703677Y-10960474D01*
X6703677Y-10960474D02*
X6722725Y-10950950D01*
X6722725Y-10950950D02*
X6760820Y-10950950D01*
X6760820Y-10950950D02*
X6779868Y-10960474D01*
X6779868Y-10960474D02*
X6789391Y-10979522D01*
X6789391Y-10979522D02*
X6789391Y-10998570D01*
X6789391Y-10998570D02*
X6694153Y-11017617D01*
X6865582Y-11074760D02*
X6884630Y-11084284D01*
X6884630Y-11084284D02*
X6922725Y-11084284D01*
X6922725Y-11084284D02*
X6941772Y-11074760D01*
X6941772Y-11074760D02*
X6951296Y-11055712D01*
X6951296Y-11055712D02*
X6951296Y-11046189D01*
X6951296Y-11046189D02*
X6941772Y-11027141D01*
X6941772Y-11027141D02*
X6922725Y-11017617D01*
X6922725Y-11017617D02*
X6894153Y-11017617D01*
X6894153Y-11017617D02*
X6875106Y-11008093D01*
X6875106Y-11008093D02*
X6865582Y-10989046D01*
X6865582Y-10989046D02*
X6865582Y-10979522D01*
X6865582Y-10979522D02*
X6875106Y-10960474D01*
X6875106Y-10960474D02*
X6894153Y-10950950D01*
X6894153Y-10950950D02*
X6922725Y-10950950D01*
X6922725Y-10950950D02*
X6941772Y-10960474D01*
X7017963Y-11160474D02*
X7027487Y-11150950D01*
X7027487Y-11150950D02*
X7046534Y-11122379D01*
X7046534Y-11122379D02*
X7056058Y-11103331D01*
X7056058Y-11103331D02*
X7065582Y-11074760D01*
X7065582Y-11074760D02*
X7075106Y-11027141D01*
X7075106Y-11027141D02*
X7075106Y-10989046D01*
X7075106Y-10989046D02*
X7065582Y-10941427D01*
X7065582Y-10941427D02*
X7056058Y-10912855D01*
X7056058Y-10912855D02*
X7046534Y-10893808D01*
X7046534Y-10893808D02*
X7027487Y-10865236D01*
X7027487Y-10865236D02*
X7017963Y-10855712D01*
D10*
X2195400Y-11209300D02*
X2195400Y-11304300D01*
X2147900Y-11256800D02*
X2242900Y-11256800D01*
D11*
X2541772Y-11148284D02*
X2560820Y-11148284D01*
X2560820Y-11148284D02*
X2579867Y-11157808D01*
X2579867Y-11157808D02*
X2589391Y-11167331D01*
X2589391Y-11167331D02*
X2598915Y-11186379D01*
X2598915Y-11186379D02*
X2608439Y-11224474D01*
X2608439Y-11224474D02*
X2608439Y-11272093D01*
X2608439Y-11272093D02*
X2598915Y-11310188D01*
X2598915Y-11310188D02*
X2589391Y-11329236D01*
X2589391Y-11329236D02*
X2579867Y-11338760D01*
X2579867Y-11338760D02*
X2560820Y-11348284D01*
X2560820Y-11348284D02*
X2541772Y-11348284D01*
X2541772Y-11348284D02*
X2522724Y-11338760D01*
X2522724Y-11338760D02*
X2513201Y-11329236D01*
X2513201Y-11329236D02*
X2503677Y-11310188D01*
X2503677Y-11310188D02*
X2494153Y-11272093D01*
X2494153Y-11272093D02*
X2494153Y-11224474D01*
X2494153Y-11224474D02*
X2503677Y-11186379D01*
X2503677Y-11186379D02*
X2513201Y-11167331D01*
X2513201Y-11167331D02*
X2522724Y-11157808D01*
X2522724Y-11157808D02*
X2541772Y-11148284D01*
X2694153Y-11329236D02*
X2703677Y-11338760D01*
X2703677Y-11338760D02*
X2694153Y-11348284D01*
X2694153Y-11348284D02*
X2684629Y-11338760D01*
X2684629Y-11338760D02*
X2694153Y-11329236D01*
X2694153Y-11329236D02*
X2694153Y-11348284D01*
X2798915Y-11348284D02*
X2837010Y-11348284D01*
X2837010Y-11348284D02*
X2856058Y-11338760D01*
X2856058Y-11338760D02*
X2865582Y-11329236D01*
X2865582Y-11329236D02*
X2884629Y-11300665D01*
X2884629Y-11300665D02*
X2894153Y-11262569D01*
X2894153Y-11262569D02*
X2894153Y-11186379D01*
X2894153Y-11186379D02*
X2884629Y-11167331D01*
X2884629Y-11167331D02*
X2875105Y-11157808D01*
X2875105Y-11157808D02*
X2856058Y-11148284D01*
X2856058Y-11148284D02*
X2817962Y-11148284D01*
X2817962Y-11148284D02*
X2798915Y-11157808D01*
X2798915Y-11157808D02*
X2789391Y-11167331D01*
X2789391Y-11167331D02*
X2779867Y-11186379D01*
X2779867Y-11186379D02*
X2779867Y-11233998D01*
X2779867Y-11233998D02*
X2789391Y-11253046D01*
X2789391Y-11253046D02*
X2798915Y-11262569D01*
X2798915Y-11262569D02*
X2817962Y-11272093D01*
X2817962Y-11272093D02*
X2856058Y-11272093D01*
X2856058Y-11272093D02*
X2875105Y-11262569D01*
X2875105Y-11262569D02*
X2884629Y-11253046D01*
X2884629Y-11253046D02*
X2894153Y-11233998D01*
X3075105Y-11148284D02*
X2979867Y-11148284D01*
X2979867Y-11148284D02*
X2970343Y-11243522D01*
X2970343Y-11243522D02*
X2979867Y-11233998D01*
X2979867Y-11233998D02*
X2998915Y-11224474D01*
X2998915Y-11224474D02*
X3046534Y-11224474D01*
X3046534Y-11224474D02*
X3065582Y-11233998D01*
X3065582Y-11233998D02*
X3075105Y-11243522D01*
X3075105Y-11243522D02*
X3084629Y-11262569D01*
X3084629Y-11262569D02*
X3084629Y-11310188D01*
X3084629Y-11310188D02*
X3075105Y-11329236D01*
X3075105Y-11329236D02*
X3065582Y-11338760D01*
X3065582Y-11338760D02*
X3046534Y-11348284D01*
X3046534Y-11348284D02*
X2998915Y-11348284D01*
X2998915Y-11348284D02*
X2979867Y-11338760D01*
X2979867Y-11338760D02*
X2970343Y-11329236D01*
X3208439Y-11148284D02*
X3227486Y-11148284D01*
X3227486Y-11148284D02*
X3246534Y-11157808D01*
X3246534Y-11157808D02*
X3256058Y-11167331D01*
X3256058Y-11167331D02*
X3265582Y-11186379D01*
X3265582Y-11186379D02*
X3275105Y-11224474D01*
X3275105Y-11224474D02*
X3275105Y-11272093D01*
X3275105Y-11272093D02*
X3265582Y-11310188D01*
X3265582Y-11310188D02*
X3256058Y-11329236D01*
X3256058Y-11329236D02*
X3246534Y-11338760D01*
X3246534Y-11338760D02*
X3227486Y-11348284D01*
X3227486Y-11348284D02*
X3208439Y-11348284D01*
X3208439Y-11348284D02*
X3189391Y-11338760D01*
X3189391Y-11338760D02*
X3179867Y-11329236D01*
X3179867Y-11329236D02*
X3170343Y-11310188D01*
X3170343Y-11310188D02*
X3160820Y-11272093D01*
X3160820Y-11272093D02*
X3160820Y-11224474D01*
X3160820Y-11224474D02*
X3170343Y-11186379D01*
X3170343Y-11186379D02*
X3179867Y-11167331D01*
X3179867Y-11167331D02*
X3189391Y-11157808D01*
X3189391Y-11157808D02*
X3208439Y-11148284D01*
X3360820Y-11348284D02*
X3360820Y-11214950D01*
X3360820Y-11233998D02*
X3370343Y-11224474D01*
X3370343Y-11224474D02*
X3389391Y-11214950D01*
X3389391Y-11214950D02*
X3417963Y-11214950D01*
X3417963Y-11214950D02*
X3437010Y-11224474D01*
X3437010Y-11224474D02*
X3446534Y-11243522D01*
X3446534Y-11243522D02*
X3446534Y-11348284D01*
X3446534Y-11243522D02*
X3456058Y-11224474D01*
X3456058Y-11224474D02*
X3475105Y-11214950D01*
X3475105Y-11214950D02*
X3503677Y-11214950D01*
X3503677Y-11214950D02*
X3522724Y-11224474D01*
X3522724Y-11224474D02*
X3532248Y-11243522D01*
X3532248Y-11243522D02*
X3532248Y-11348284D01*
X3627486Y-11348284D02*
X3627486Y-11214950D01*
X3627486Y-11233998D02*
X3637010Y-11224474D01*
X3637010Y-11224474D02*
X3656058Y-11214950D01*
X3656058Y-11214950D02*
X3684629Y-11214950D01*
X3684629Y-11214950D02*
X3703677Y-11224474D01*
X3703677Y-11224474D02*
X3713201Y-11243522D01*
X3713201Y-11243522D02*
X3713201Y-11348284D01*
X3713201Y-11243522D02*
X3722724Y-11224474D01*
X3722724Y-11224474D02*
X3741772Y-11214950D01*
X3741772Y-11214950D02*
X3770343Y-11214950D01*
X3770343Y-11214950D02*
X3789391Y-11224474D01*
X3789391Y-11224474D02*
X3798915Y-11243522D01*
X3798915Y-11243522D02*
X3798915Y-11348284D01*
X4189391Y-11138760D02*
X4017963Y-11395903D01*
X4446534Y-11148284D02*
X4465582Y-11148284D01*
X4465582Y-11148284D02*
X4484629Y-11157808D01*
X4484629Y-11157808D02*
X4494153Y-11167331D01*
X4494153Y-11167331D02*
X4503677Y-11186379D01*
X4503677Y-11186379D02*
X4513201Y-11224474D01*
X4513201Y-11224474D02*
X4513201Y-11272093D01*
X4513201Y-11272093D02*
X4503677Y-11310188D01*
X4503677Y-11310188D02*
X4494153Y-11329236D01*
X4494153Y-11329236D02*
X4484629Y-11338760D01*
X4484629Y-11338760D02*
X4465582Y-11348284D01*
X4465582Y-11348284D02*
X4446534Y-11348284D01*
X4446534Y-11348284D02*
X4427487Y-11338760D01*
X4427487Y-11338760D02*
X4417963Y-11329236D01*
X4417963Y-11329236D02*
X4408439Y-11310188D01*
X4408439Y-11310188D02*
X4398915Y-11272093D01*
X4398915Y-11272093D02*
X4398915Y-11224474D01*
X4398915Y-11224474D02*
X4408439Y-11186379D01*
X4408439Y-11186379D02*
X4417963Y-11167331D01*
X4417963Y-11167331D02*
X4427487Y-11157808D01*
X4427487Y-11157808D02*
X4446534Y-11148284D01*
X4598915Y-11329236D02*
X4608439Y-11338760D01*
X4608439Y-11338760D02*
X4598915Y-11348284D01*
X4598915Y-11348284D02*
X4589391Y-11338760D01*
X4589391Y-11338760D02*
X4598915Y-11329236D01*
X4598915Y-11329236D02*
X4598915Y-11348284D01*
X4732248Y-11148284D02*
X4751296Y-11148284D01*
X4751296Y-11148284D02*
X4770344Y-11157808D01*
X4770344Y-11157808D02*
X4779868Y-11167331D01*
X4779868Y-11167331D02*
X4789391Y-11186379D01*
X4789391Y-11186379D02*
X4798915Y-11224474D01*
X4798915Y-11224474D02*
X4798915Y-11272093D01*
X4798915Y-11272093D02*
X4789391Y-11310188D01*
X4789391Y-11310188D02*
X4779868Y-11329236D01*
X4779868Y-11329236D02*
X4770344Y-11338760D01*
X4770344Y-11338760D02*
X4751296Y-11348284D01*
X4751296Y-11348284D02*
X4732248Y-11348284D01*
X4732248Y-11348284D02*
X4713201Y-11338760D01*
X4713201Y-11338760D02*
X4703677Y-11329236D01*
X4703677Y-11329236D02*
X4694153Y-11310188D01*
X4694153Y-11310188D02*
X4684629Y-11272093D01*
X4684629Y-11272093D02*
X4684629Y-11224474D01*
X4684629Y-11224474D02*
X4694153Y-11186379D01*
X4694153Y-11186379D02*
X4703677Y-11167331D01*
X4703677Y-11167331D02*
X4713201Y-11157808D01*
X4713201Y-11157808D02*
X4732248Y-11148284D01*
X4865582Y-11148284D02*
X4989391Y-11148284D01*
X4989391Y-11148284D02*
X4922725Y-11224474D01*
X4922725Y-11224474D02*
X4951296Y-11224474D01*
X4951296Y-11224474D02*
X4970344Y-11233998D01*
X4970344Y-11233998D02*
X4979868Y-11243522D01*
X4979868Y-11243522D02*
X4989391Y-11262569D01*
X4989391Y-11262569D02*
X4989391Y-11310188D01*
X4989391Y-11310188D02*
X4979868Y-11329236D01*
X4979868Y-11329236D02*
X4970344Y-11338760D01*
X4970344Y-11338760D02*
X4951296Y-11348284D01*
X4951296Y-11348284D02*
X4894153Y-11348284D01*
X4894153Y-11348284D02*
X4875106Y-11338760D01*
X4875106Y-11338760D02*
X4865582Y-11329236D01*
X5056058Y-11148284D02*
X5189391Y-11148284D01*
X5189391Y-11148284D02*
X5103677Y-11348284D01*
X5351296Y-11214950D02*
X5351296Y-11348284D01*
X5303677Y-11138760D02*
X5256058Y-11281617D01*
X5256058Y-11281617D02*
X5379868Y-11281617D01*
X5446534Y-11148284D02*
X5446534Y-11186379D01*
X5522725Y-11148284D02*
X5522725Y-11186379D01*
X5817963Y-11424474D02*
X5808439Y-11414950D01*
X5808439Y-11414950D02*
X5789391Y-11386379D01*
X5789391Y-11386379D02*
X5779868Y-11367331D01*
X5779868Y-11367331D02*
X5770344Y-11338760D01*
X5770344Y-11338760D02*
X5760820Y-11291141D01*
X5760820Y-11291141D02*
X5760820Y-11253046D01*
X5760820Y-11253046D02*
X5770344Y-11205427D01*
X5770344Y-11205427D02*
X5779868Y-11176855D01*
X5779868Y-11176855D02*
X5789391Y-11157808D01*
X5789391Y-11157808D02*
X5808439Y-11129236D01*
X5808439Y-11129236D02*
X5817963Y-11119712D01*
X5884629Y-11167331D02*
X5894153Y-11157808D01*
X5894153Y-11157808D02*
X5913201Y-11148284D01*
X5913201Y-11148284D02*
X5960820Y-11148284D01*
X5960820Y-11148284D02*
X5979868Y-11157808D01*
X5979868Y-11157808D02*
X5989391Y-11167331D01*
X5989391Y-11167331D02*
X5998915Y-11186379D01*
X5998915Y-11186379D02*
X5998915Y-11205427D01*
X5998915Y-11205427D02*
X5989391Y-11233998D01*
X5989391Y-11233998D02*
X5875106Y-11348284D01*
X5875106Y-11348284D02*
X5998915Y-11348284D01*
X6179868Y-11148284D02*
X6084629Y-11148284D01*
X6084629Y-11148284D02*
X6075106Y-11243522D01*
X6075106Y-11243522D02*
X6084629Y-11233998D01*
X6084629Y-11233998D02*
X6103677Y-11224474D01*
X6103677Y-11224474D02*
X6151296Y-11224474D01*
X6151296Y-11224474D02*
X6170344Y-11233998D01*
X6170344Y-11233998D02*
X6179868Y-11243522D01*
X6179868Y-11243522D02*
X6189391Y-11262569D01*
X6189391Y-11262569D02*
X6189391Y-11310188D01*
X6189391Y-11310188D02*
X6179868Y-11329236D01*
X6179868Y-11329236D02*
X6170344Y-11338760D01*
X6170344Y-11338760D02*
X6151296Y-11348284D01*
X6151296Y-11348284D02*
X6103677Y-11348284D01*
X6103677Y-11348284D02*
X6084629Y-11338760D01*
X6084629Y-11338760D02*
X6075106Y-11329236D01*
X6427487Y-11348284D02*
X6427487Y-11148284D01*
X6513201Y-11348284D02*
X6513201Y-11243522D01*
X6513201Y-11243522D02*
X6503677Y-11224474D01*
X6503677Y-11224474D02*
X6484630Y-11214950D01*
X6484630Y-11214950D02*
X6456058Y-11214950D01*
X6456058Y-11214950D02*
X6437010Y-11224474D01*
X6437010Y-11224474D02*
X6427487Y-11233998D01*
X6637010Y-11348284D02*
X6617963Y-11338760D01*
X6617963Y-11338760D02*
X6608439Y-11329236D01*
X6608439Y-11329236D02*
X6598915Y-11310188D01*
X6598915Y-11310188D02*
X6598915Y-11253046D01*
X6598915Y-11253046D02*
X6608439Y-11233998D01*
X6608439Y-11233998D02*
X6617963Y-11224474D01*
X6617963Y-11224474D02*
X6637010Y-11214950D01*
X6637010Y-11214950D02*
X6665582Y-11214950D01*
X6665582Y-11214950D02*
X6684630Y-11224474D01*
X6684630Y-11224474D02*
X6694153Y-11233998D01*
X6694153Y-11233998D02*
X6703677Y-11253046D01*
X6703677Y-11253046D02*
X6703677Y-11310188D01*
X6703677Y-11310188D02*
X6694153Y-11329236D01*
X6694153Y-11329236D02*
X6684630Y-11338760D01*
X6684630Y-11338760D02*
X6665582Y-11348284D01*
X6665582Y-11348284D02*
X6637010Y-11348284D01*
X6817963Y-11348284D02*
X6798915Y-11338760D01*
X6798915Y-11338760D02*
X6789391Y-11319712D01*
X6789391Y-11319712D02*
X6789391Y-11148284D01*
X6970344Y-11338760D02*
X6951296Y-11348284D01*
X6951296Y-11348284D02*
X6913201Y-11348284D01*
X6913201Y-11348284D02*
X6894153Y-11338760D01*
X6894153Y-11338760D02*
X6884630Y-11319712D01*
X6884630Y-11319712D02*
X6884630Y-11243522D01*
X6884630Y-11243522D02*
X6894153Y-11224474D01*
X6894153Y-11224474D02*
X6913201Y-11214950D01*
X6913201Y-11214950D02*
X6951296Y-11214950D01*
X6951296Y-11214950D02*
X6970344Y-11224474D01*
X6970344Y-11224474D02*
X6979868Y-11243522D01*
X6979868Y-11243522D02*
X6979868Y-11262569D01*
X6979868Y-11262569D02*
X6884630Y-11281617D01*
X7056058Y-11338760D02*
X7075106Y-11348284D01*
X7075106Y-11348284D02*
X7113201Y-11348284D01*
X7113201Y-11348284D02*
X7132249Y-11338760D01*
X7132249Y-11338760D02*
X7141772Y-11319712D01*
X7141772Y-11319712D02*
X7141772Y-11310188D01*
X7141772Y-11310188D02*
X7132249Y-11291141D01*
X7132249Y-11291141D02*
X7113201Y-11281617D01*
X7113201Y-11281617D02*
X7084630Y-11281617D01*
X7084630Y-11281617D02*
X7065582Y-11272093D01*
X7065582Y-11272093D02*
X7056058Y-11253046D01*
X7056058Y-11253046D02*
X7056058Y-11243522D01*
X7056058Y-11243522D02*
X7065582Y-11224474D01*
X7065582Y-11224474D02*
X7084630Y-11214950D01*
X7084630Y-11214950D02*
X7113201Y-11214950D01*
X7113201Y-11214950D02*
X7132249Y-11224474D01*
X7208439Y-11424474D02*
X7217963Y-11414950D01*
X7217963Y-11414950D02*
X7237011Y-11386379D01*
X7237011Y-11386379D02*
X7246534Y-11367331D01*
X7246534Y-11367331D02*
X7256058Y-11338760D01*
X7256058Y-11338760D02*
X7265582Y-11291141D01*
X7265582Y-11291141D02*
X7265582Y-11253046D01*
X7265582Y-11253046D02*
X7256058Y-11205427D01*
X7256058Y-11205427D02*
X7246534Y-11176855D01*
X7246534Y-11176855D02*
X7237011Y-11157808D01*
X7237011Y-11157808D02*
X7217963Y-11129236D01*
X7217963Y-11129236D02*
X7208439Y-11119712D01*
D10*
X2228256Y-11556156D02*
X2228256Y-11485444D01*
X2157544Y-11485444D01*
X2157544Y-11556156D01*
X2228256Y-11556156D01*
D11*
X2608439Y-11612284D02*
X2494153Y-11612284D01*
X2551296Y-11612284D02*
X2551296Y-11412284D01*
X2551296Y-11412284D02*
X2532248Y-11440855D01*
X2532248Y-11440855D02*
X2513201Y-11459903D01*
X2513201Y-11459903D02*
X2494153Y-11469427D01*
X2694153Y-11593236D02*
X2703677Y-11602760D01*
X2703677Y-11602760D02*
X2694153Y-11612284D01*
X2694153Y-11612284D02*
X2684629Y-11602760D01*
X2684629Y-11602760D02*
X2694153Y-11593236D01*
X2694153Y-11593236D02*
X2694153Y-11612284D01*
X2827486Y-11412284D02*
X2846534Y-11412284D01*
X2846534Y-11412284D02*
X2865582Y-11421808D01*
X2865582Y-11421808D02*
X2875105Y-11431331D01*
X2875105Y-11431331D02*
X2884629Y-11450379D01*
X2884629Y-11450379D02*
X2894153Y-11488474D01*
X2894153Y-11488474D02*
X2894153Y-11536093D01*
X2894153Y-11536093D02*
X2884629Y-11574188D01*
X2884629Y-11574188D02*
X2875105Y-11593236D01*
X2875105Y-11593236D02*
X2865582Y-11602760D01*
X2865582Y-11602760D02*
X2846534Y-11612284D01*
X2846534Y-11612284D02*
X2827486Y-11612284D01*
X2827486Y-11612284D02*
X2808439Y-11602760D01*
X2808439Y-11602760D02*
X2798915Y-11593236D01*
X2798915Y-11593236D02*
X2789391Y-11574188D01*
X2789391Y-11574188D02*
X2779867Y-11536093D01*
X2779867Y-11536093D02*
X2779867Y-11488474D01*
X2779867Y-11488474D02*
X2789391Y-11450379D01*
X2789391Y-11450379D02*
X2798915Y-11431331D01*
X2798915Y-11431331D02*
X2808439Y-11421808D01*
X2808439Y-11421808D02*
X2827486Y-11412284D01*
X3017962Y-11412284D02*
X3037010Y-11412284D01*
X3037010Y-11412284D02*
X3056058Y-11421808D01*
X3056058Y-11421808D02*
X3065582Y-11431331D01*
X3065582Y-11431331D02*
X3075105Y-11450379D01*
X3075105Y-11450379D02*
X3084629Y-11488474D01*
X3084629Y-11488474D02*
X3084629Y-11536093D01*
X3084629Y-11536093D02*
X3075105Y-11574188D01*
X3075105Y-11574188D02*
X3065582Y-11593236D01*
X3065582Y-11593236D02*
X3056058Y-11602760D01*
X3056058Y-11602760D02*
X3037010Y-11612284D01*
X3037010Y-11612284D02*
X3017962Y-11612284D01*
X3017962Y-11612284D02*
X2998915Y-11602760D01*
X2998915Y-11602760D02*
X2989391Y-11593236D01*
X2989391Y-11593236D02*
X2979867Y-11574188D01*
X2979867Y-11574188D02*
X2970343Y-11536093D01*
X2970343Y-11536093D02*
X2970343Y-11488474D01*
X2970343Y-11488474D02*
X2979867Y-11450379D01*
X2979867Y-11450379D02*
X2989391Y-11431331D01*
X2989391Y-11431331D02*
X2998915Y-11421808D01*
X2998915Y-11421808D02*
X3017962Y-11412284D01*
X3208439Y-11412284D02*
X3227486Y-11412284D01*
X3227486Y-11412284D02*
X3246534Y-11421808D01*
X3246534Y-11421808D02*
X3256058Y-11431331D01*
X3256058Y-11431331D02*
X3265582Y-11450379D01*
X3265582Y-11450379D02*
X3275105Y-11488474D01*
X3275105Y-11488474D02*
X3275105Y-11536093D01*
X3275105Y-11536093D02*
X3265582Y-11574188D01*
X3265582Y-11574188D02*
X3256058Y-11593236D01*
X3256058Y-11593236D02*
X3246534Y-11602760D01*
X3246534Y-11602760D02*
X3227486Y-11612284D01*
X3227486Y-11612284D02*
X3208439Y-11612284D01*
X3208439Y-11612284D02*
X3189391Y-11602760D01*
X3189391Y-11602760D02*
X3179867Y-11593236D01*
X3179867Y-11593236D02*
X3170343Y-11574188D01*
X3170343Y-11574188D02*
X3160820Y-11536093D01*
X3160820Y-11536093D02*
X3160820Y-11488474D01*
X3160820Y-11488474D02*
X3170343Y-11450379D01*
X3170343Y-11450379D02*
X3179867Y-11431331D01*
X3179867Y-11431331D02*
X3189391Y-11421808D01*
X3189391Y-11421808D02*
X3208439Y-11412284D01*
X3360820Y-11612284D02*
X3360820Y-11478950D01*
X3360820Y-11497998D02*
X3370343Y-11488474D01*
X3370343Y-11488474D02*
X3389391Y-11478950D01*
X3389391Y-11478950D02*
X3417963Y-11478950D01*
X3417963Y-11478950D02*
X3437010Y-11488474D01*
X3437010Y-11488474D02*
X3446534Y-11507522D01*
X3446534Y-11507522D02*
X3446534Y-11612284D01*
X3446534Y-11507522D02*
X3456058Y-11488474D01*
X3456058Y-11488474D02*
X3475105Y-11478950D01*
X3475105Y-11478950D02*
X3503677Y-11478950D01*
X3503677Y-11478950D02*
X3522724Y-11488474D01*
X3522724Y-11488474D02*
X3532248Y-11507522D01*
X3532248Y-11507522D02*
X3532248Y-11612284D01*
X3627486Y-11612284D02*
X3627486Y-11478950D01*
X3627486Y-11497998D02*
X3637010Y-11488474D01*
X3637010Y-11488474D02*
X3656058Y-11478950D01*
X3656058Y-11478950D02*
X3684629Y-11478950D01*
X3684629Y-11478950D02*
X3703677Y-11488474D01*
X3703677Y-11488474D02*
X3713201Y-11507522D01*
X3713201Y-11507522D02*
X3713201Y-11612284D01*
X3713201Y-11507522D02*
X3722724Y-11488474D01*
X3722724Y-11488474D02*
X3741772Y-11478950D01*
X3741772Y-11478950D02*
X3770343Y-11478950D01*
X3770343Y-11478950D02*
X3789391Y-11488474D01*
X3789391Y-11488474D02*
X3798915Y-11507522D01*
X3798915Y-11507522D02*
X3798915Y-11612284D01*
X4189391Y-11402760D02*
X4017963Y-11659903D01*
X4446534Y-11412284D02*
X4465582Y-11412284D01*
X4465582Y-11412284D02*
X4484629Y-11421808D01*
X4484629Y-11421808D02*
X4494153Y-11431331D01*
X4494153Y-11431331D02*
X4503677Y-11450379D01*
X4503677Y-11450379D02*
X4513201Y-11488474D01*
X4513201Y-11488474D02*
X4513201Y-11536093D01*
X4513201Y-11536093D02*
X4503677Y-11574188D01*
X4503677Y-11574188D02*
X4494153Y-11593236D01*
X4494153Y-11593236D02*
X4484629Y-11602760D01*
X4484629Y-11602760D02*
X4465582Y-11612284D01*
X4465582Y-11612284D02*
X4446534Y-11612284D01*
X4446534Y-11612284D02*
X4427487Y-11602760D01*
X4427487Y-11602760D02*
X4417963Y-11593236D01*
X4417963Y-11593236D02*
X4408439Y-11574188D01*
X4408439Y-11574188D02*
X4398915Y-11536093D01*
X4398915Y-11536093D02*
X4398915Y-11488474D01*
X4398915Y-11488474D02*
X4408439Y-11450379D01*
X4408439Y-11450379D02*
X4417963Y-11431331D01*
X4417963Y-11431331D02*
X4427487Y-11421808D01*
X4427487Y-11421808D02*
X4446534Y-11412284D01*
X4598915Y-11593236D02*
X4608439Y-11602760D01*
X4608439Y-11602760D02*
X4598915Y-11612284D01*
X4598915Y-11612284D02*
X4589391Y-11602760D01*
X4589391Y-11602760D02*
X4598915Y-11593236D01*
X4598915Y-11593236D02*
X4598915Y-11612284D01*
X4732248Y-11412284D02*
X4751296Y-11412284D01*
X4751296Y-11412284D02*
X4770344Y-11421808D01*
X4770344Y-11421808D02*
X4779868Y-11431331D01*
X4779868Y-11431331D02*
X4789391Y-11450379D01*
X4789391Y-11450379D02*
X4798915Y-11488474D01*
X4798915Y-11488474D02*
X4798915Y-11536093D01*
X4798915Y-11536093D02*
X4789391Y-11574188D01*
X4789391Y-11574188D02*
X4779868Y-11593236D01*
X4779868Y-11593236D02*
X4770344Y-11602760D01*
X4770344Y-11602760D02*
X4751296Y-11612284D01*
X4751296Y-11612284D02*
X4732248Y-11612284D01*
X4732248Y-11612284D02*
X4713201Y-11602760D01*
X4713201Y-11602760D02*
X4703677Y-11593236D01*
X4703677Y-11593236D02*
X4694153Y-11574188D01*
X4694153Y-11574188D02*
X4684629Y-11536093D01*
X4684629Y-11536093D02*
X4684629Y-11488474D01*
X4684629Y-11488474D02*
X4694153Y-11450379D01*
X4694153Y-11450379D02*
X4703677Y-11431331D01*
X4703677Y-11431331D02*
X4713201Y-11421808D01*
X4713201Y-11421808D02*
X4732248Y-11412284D01*
X4865582Y-11412284D02*
X4989391Y-11412284D01*
X4989391Y-11412284D02*
X4922725Y-11488474D01*
X4922725Y-11488474D02*
X4951296Y-11488474D01*
X4951296Y-11488474D02*
X4970344Y-11497998D01*
X4970344Y-11497998D02*
X4979868Y-11507522D01*
X4979868Y-11507522D02*
X4989391Y-11526569D01*
X4989391Y-11526569D02*
X4989391Y-11574188D01*
X4989391Y-11574188D02*
X4979868Y-11593236D01*
X4979868Y-11593236D02*
X4970344Y-11602760D01*
X4970344Y-11602760D02*
X4951296Y-11612284D01*
X4951296Y-11612284D02*
X4894153Y-11612284D01*
X4894153Y-11612284D02*
X4875106Y-11602760D01*
X4875106Y-11602760D02*
X4865582Y-11593236D01*
X5084629Y-11612284D02*
X5122725Y-11612284D01*
X5122725Y-11612284D02*
X5141772Y-11602760D01*
X5141772Y-11602760D02*
X5151296Y-11593236D01*
X5151296Y-11593236D02*
X5170344Y-11564665D01*
X5170344Y-11564665D02*
X5179868Y-11526569D01*
X5179868Y-11526569D02*
X5179868Y-11450379D01*
X5179868Y-11450379D02*
X5170344Y-11431331D01*
X5170344Y-11431331D02*
X5160820Y-11421808D01*
X5160820Y-11421808D02*
X5141772Y-11412284D01*
X5141772Y-11412284D02*
X5103677Y-11412284D01*
X5103677Y-11412284D02*
X5084629Y-11421808D01*
X5084629Y-11421808D02*
X5075106Y-11431331D01*
X5075106Y-11431331D02*
X5065582Y-11450379D01*
X5065582Y-11450379D02*
X5065582Y-11497998D01*
X5065582Y-11497998D02*
X5075106Y-11517046D01*
X5075106Y-11517046D02*
X5084629Y-11526569D01*
X5084629Y-11526569D02*
X5103677Y-11536093D01*
X5103677Y-11536093D02*
X5141772Y-11536093D01*
X5141772Y-11536093D02*
X5160820Y-11526569D01*
X5160820Y-11526569D02*
X5170344Y-11517046D01*
X5170344Y-11517046D02*
X5179868Y-11497998D01*
X5351296Y-11478950D02*
X5351296Y-11612284D01*
X5303677Y-11402760D02*
X5256058Y-11545617D01*
X5256058Y-11545617D02*
X5379868Y-11545617D01*
X5446534Y-11412284D02*
X5446534Y-11450379D01*
X5522725Y-11412284D02*
X5522725Y-11450379D01*
X5817963Y-11688474D02*
X5808439Y-11678950D01*
X5808439Y-11678950D02*
X5789391Y-11650379D01*
X5789391Y-11650379D02*
X5779868Y-11631331D01*
X5779868Y-11631331D02*
X5770344Y-11602760D01*
X5770344Y-11602760D02*
X5760820Y-11555141D01*
X5760820Y-11555141D02*
X5760820Y-11517046D01*
X5760820Y-11517046D02*
X5770344Y-11469427D01*
X5770344Y-11469427D02*
X5779868Y-11440855D01*
X5779868Y-11440855D02*
X5789391Y-11421808D01*
X5789391Y-11421808D02*
X5808439Y-11393236D01*
X5808439Y-11393236D02*
X5817963Y-11383712D01*
X5979868Y-11478950D02*
X5979868Y-11612284D01*
X5932248Y-11402760D02*
X5884629Y-11545617D01*
X5884629Y-11545617D02*
X6008439Y-11545617D01*
X6237010Y-11612284D02*
X6237010Y-11412284D01*
X6322725Y-11612284D02*
X6322725Y-11507522D01*
X6322725Y-11507522D02*
X6313201Y-11488474D01*
X6313201Y-11488474D02*
X6294153Y-11478950D01*
X6294153Y-11478950D02*
X6265582Y-11478950D01*
X6265582Y-11478950D02*
X6246534Y-11488474D01*
X6246534Y-11488474D02*
X6237010Y-11497998D01*
X6446534Y-11612284D02*
X6427487Y-11602760D01*
X6427487Y-11602760D02*
X6417963Y-11593236D01*
X6417963Y-11593236D02*
X6408439Y-11574188D01*
X6408439Y-11574188D02*
X6408439Y-11517046D01*
X6408439Y-11517046D02*
X6417963Y-11497998D01*
X6417963Y-11497998D02*
X6427487Y-11488474D01*
X6427487Y-11488474D02*
X6446534Y-11478950D01*
X6446534Y-11478950D02*
X6475106Y-11478950D01*
X6475106Y-11478950D02*
X6494153Y-11488474D01*
X6494153Y-11488474D02*
X6503677Y-11497998D01*
X6503677Y-11497998D02*
X6513201Y-11517046D01*
X6513201Y-11517046D02*
X6513201Y-11574188D01*
X6513201Y-11574188D02*
X6503677Y-11593236D01*
X6503677Y-11593236D02*
X6494153Y-11602760D01*
X6494153Y-11602760D02*
X6475106Y-11612284D01*
X6475106Y-11612284D02*
X6446534Y-11612284D01*
X6627487Y-11612284D02*
X6608439Y-11602760D01*
X6608439Y-11602760D02*
X6598915Y-11583712D01*
X6598915Y-11583712D02*
X6598915Y-11412284D01*
X6779868Y-11602760D02*
X6760820Y-11612284D01*
X6760820Y-11612284D02*
X6722725Y-11612284D01*
X6722725Y-11612284D02*
X6703677Y-11602760D01*
X6703677Y-11602760D02*
X6694153Y-11583712D01*
X6694153Y-11583712D02*
X6694153Y-11507522D01*
X6694153Y-11507522D02*
X6703677Y-11488474D01*
X6703677Y-11488474D02*
X6722725Y-11478950D01*
X6722725Y-11478950D02*
X6760820Y-11478950D01*
X6760820Y-11478950D02*
X6779868Y-11488474D01*
X6779868Y-11488474D02*
X6789391Y-11507522D01*
X6789391Y-11507522D02*
X6789391Y-11526569D01*
X6789391Y-11526569D02*
X6694153Y-11545617D01*
X6865582Y-11602760D02*
X6884630Y-11612284D01*
X6884630Y-11612284D02*
X6922725Y-11612284D01*
X6922725Y-11612284D02*
X6941772Y-11602760D01*
X6941772Y-11602760D02*
X6951296Y-11583712D01*
X6951296Y-11583712D02*
X6951296Y-11574188D01*
X6951296Y-11574188D02*
X6941772Y-11555141D01*
X6941772Y-11555141D02*
X6922725Y-11545617D01*
X6922725Y-11545617D02*
X6894153Y-11545617D01*
X6894153Y-11545617D02*
X6875106Y-11536093D01*
X6875106Y-11536093D02*
X6865582Y-11517046D01*
X6865582Y-11517046D02*
X6865582Y-11507522D01*
X6865582Y-11507522D02*
X6875106Y-11488474D01*
X6875106Y-11488474D02*
X6894153Y-11478950D01*
X6894153Y-11478950D02*
X6922725Y-11478950D01*
X6922725Y-11478950D02*
X6941772Y-11488474D01*
X7017963Y-11688474D02*
X7027487Y-11678950D01*
X7027487Y-11678950D02*
X7046534Y-11650379D01*
X7046534Y-11650379D02*
X7056058Y-11631331D01*
X7056058Y-11631331D02*
X7065582Y-11602760D01*
X7065582Y-11602760D02*
X7075106Y-11555141D01*
X7075106Y-11555141D02*
X7075106Y-11517046D01*
X7075106Y-11517046D02*
X7065582Y-11469427D01*
X7065582Y-11469427D02*
X7056058Y-11440855D01*
X7056058Y-11440855D02*
X7046534Y-11421808D01*
X7046534Y-11421808D02*
X7027487Y-11393236D01*
X7027487Y-11393236D02*
X7017963Y-11383712D01*
D12*
X2192100Y-11835600D02*
X2242900Y-11784800D01*
X2192100Y-11734000D01*
X2141300Y-11784800D01*
X2192100Y-11835600D01*
D11*
X2608439Y-11876284D02*
X2494153Y-11876284D01*
X2551296Y-11876284D02*
X2551296Y-11676284D01*
X2551296Y-11676284D02*
X2532248Y-11704855D01*
X2532248Y-11704855D02*
X2513201Y-11723903D01*
X2513201Y-11723903D02*
X2494153Y-11733427D01*
X2694153Y-11857236D02*
X2703677Y-11866760D01*
X2703677Y-11866760D02*
X2694153Y-11876284D01*
X2694153Y-11876284D02*
X2684629Y-11866760D01*
X2684629Y-11866760D02*
X2694153Y-11857236D01*
X2694153Y-11857236D02*
X2694153Y-11876284D01*
X2827486Y-11676284D02*
X2846534Y-11676284D01*
X2846534Y-11676284D02*
X2865582Y-11685808D01*
X2865582Y-11685808D02*
X2875105Y-11695331D01*
X2875105Y-11695331D02*
X2884629Y-11714379D01*
X2884629Y-11714379D02*
X2894153Y-11752474D01*
X2894153Y-11752474D02*
X2894153Y-11800093D01*
X2894153Y-11800093D02*
X2884629Y-11838188D01*
X2884629Y-11838188D02*
X2875105Y-11857236D01*
X2875105Y-11857236D02*
X2865582Y-11866760D01*
X2865582Y-11866760D02*
X2846534Y-11876284D01*
X2846534Y-11876284D02*
X2827486Y-11876284D01*
X2827486Y-11876284D02*
X2808439Y-11866760D01*
X2808439Y-11866760D02*
X2798915Y-11857236D01*
X2798915Y-11857236D02*
X2789391Y-11838188D01*
X2789391Y-11838188D02*
X2779867Y-11800093D01*
X2779867Y-11800093D02*
X2779867Y-11752474D01*
X2779867Y-11752474D02*
X2789391Y-11714379D01*
X2789391Y-11714379D02*
X2798915Y-11695331D01*
X2798915Y-11695331D02*
X2808439Y-11685808D01*
X2808439Y-11685808D02*
X2827486Y-11676284D01*
X3084629Y-11876284D02*
X2970343Y-11876284D01*
X3027486Y-11876284D02*
X3027486Y-11676284D01*
X3027486Y-11676284D02*
X3008439Y-11704855D01*
X3008439Y-11704855D02*
X2989391Y-11723903D01*
X2989391Y-11723903D02*
X2970343Y-11733427D01*
X3256058Y-11676284D02*
X3217962Y-11676284D01*
X3217962Y-11676284D02*
X3198915Y-11685808D01*
X3198915Y-11685808D02*
X3189391Y-11695331D01*
X3189391Y-11695331D02*
X3170343Y-11723903D01*
X3170343Y-11723903D02*
X3160820Y-11761998D01*
X3160820Y-11761998D02*
X3160820Y-11838188D01*
X3160820Y-11838188D02*
X3170343Y-11857236D01*
X3170343Y-11857236D02*
X3179867Y-11866760D01*
X3179867Y-11866760D02*
X3198915Y-11876284D01*
X3198915Y-11876284D02*
X3237010Y-11876284D01*
X3237010Y-11876284D02*
X3256058Y-11866760D01*
X3256058Y-11866760D02*
X3265582Y-11857236D01*
X3265582Y-11857236D02*
X3275105Y-11838188D01*
X3275105Y-11838188D02*
X3275105Y-11790569D01*
X3275105Y-11790569D02*
X3265582Y-11771522D01*
X3265582Y-11771522D02*
X3256058Y-11761998D01*
X3256058Y-11761998D02*
X3237010Y-11752474D01*
X3237010Y-11752474D02*
X3198915Y-11752474D01*
X3198915Y-11752474D02*
X3179867Y-11761998D01*
X3179867Y-11761998D02*
X3170343Y-11771522D01*
X3170343Y-11771522D02*
X3160820Y-11790569D01*
X3360820Y-11876284D02*
X3360820Y-11742950D01*
X3360820Y-11761998D02*
X3370343Y-11752474D01*
X3370343Y-11752474D02*
X3389391Y-11742950D01*
X3389391Y-11742950D02*
X3417963Y-11742950D01*
X3417963Y-11742950D02*
X3437010Y-11752474D01*
X3437010Y-11752474D02*
X3446534Y-11771522D01*
X3446534Y-11771522D02*
X3446534Y-11876284D01*
X3446534Y-11771522D02*
X3456058Y-11752474D01*
X3456058Y-11752474D02*
X3475105Y-11742950D01*
X3475105Y-11742950D02*
X3503677Y-11742950D01*
X3503677Y-11742950D02*
X3522724Y-11752474D01*
X3522724Y-11752474D02*
X3532248Y-11771522D01*
X3532248Y-11771522D02*
X3532248Y-11876284D01*
X3627486Y-11876284D02*
X3627486Y-11742950D01*
X3627486Y-11761998D02*
X3637010Y-11752474D01*
X3637010Y-11752474D02*
X3656058Y-11742950D01*
X3656058Y-11742950D02*
X3684629Y-11742950D01*
X3684629Y-11742950D02*
X3703677Y-11752474D01*
X3703677Y-11752474D02*
X3713201Y-11771522D01*
X3713201Y-11771522D02*
X3713201Y-11876284D01*
X3713201Y-11771522D02*
X3722724Y-11752474D01*
X3722724Y-11752474D02*
X3741772Y-11742950D01*
X3741772Y-11742950D02*
X3770343Y-11742950D01*
X3770343Y-11742950D02*
X3789391Y-11752474D01*
X3789391Y-11752474D02*
X3798915Y-11771522D01*
X3798915Y-11771522D02*
X3798915Y-11876284D01*
X4189391Y-11666760D02*
X4017963Y-11923903D01*
X4446534Y-11676284D02*
X4465582Y-11676284D01*
X4465582Y-11676284D02*
X4484629Y-11685808D01*
X4484629Y-11685808D02*
X4494153Y-11695331D01*
X4494153Y-11695331D02*
X4503677Y-11714379D01*
X4503677Y-11714379D02*
X4513201Y-11752474D01*
X4513201Y-11752474D02*
X4513201Y-11800093D01*
X4513201Y-11800093D02*
X4503677Y-11838188D01*
X4503677Y-11838188D02*
X4494153Y-11857236D01*
X4494153Y-11857236D02*
X4484629Y-11866760D01*
X4484629Y-11866760D02*
X4465582Y-11876284D01*
X4465582Y-11876284D02*
X4446534Y-11876284D01*
X4446534Y-11876284D02*
X4427487Y-11866760D01*
X4427487Y-11866760D02*
X4417963Y-11857236D01*
X4417963Y-11857236D02*
X4408439Y-11838188D01*
X4408439Y-11838188D02*
X4398915Y-11800093D01*
X4398915Y-11800093D02*
X4398915Y-11752474D01*
X4398915Y-11752474D02*
X4408439Y-11714379D01*
X4408439Y-11714379D02*
X4417963Y-11695331D01*
X4417963Y-11695331D02*
X4427487Y-11685808D01*
X4427487Y-11685808D02*
X4446534Y-11676284D01*
X4598915Y-11857236D02*
X4608439Y-11866760D01*
X4608439Y-11866760D02*
X4598915Y-11876284D01*
X4598915Y-11876284D02*
X4589391Y-11866760D01*
X4589391Y-11866760D02*
X4598915Y-11857236D01*
X4598915Y-11857236D02*
X4598915Y-11876284D01*
X4732248Y-11676284D02*
X4751296Y-11676284D01*
X4751296Y-11676284D02*
X4770344Y-11685808D01*
X4770344Y-11685808D02*
X4779868Y-11695331D01*
X4779868Y-11695331D02*
X4789391Y-11714379D01*
X4789391Y-11714379D02*
X4798915Y-11752474D01*
X4798915Y-11752474D02*
X4798915Y-11800093D01*
X4798915Y-11800093D02*
X4789391Y-11838188D01*
X4789391Y-11838188D02*
X4779868Y-11857236D01*
X4779868Y-11857236D02*
X4770344Y-11866760D01*
X4770344Y-11866760D02*
X4751296Y-11876284D01*
X4751296Y-11876284D02*
X4732248Y-11876284D01*
X4732248Y-11876284D02*
X4713201Y-11866760D01*
X4713201Y-11866760D02*
X4703677Y-11857236D01*
X4703677Y-11857236D02*
X4694153Y-11838188D01*
X4694153Y-11838188D02*
X4684629Y-11800093D01*
X4684629Y-11800093D02*
X4684629Y-11752474D01*
X4684629Y-11752474D02*
X4694153Y-11714379D01*
X4694153Y-11714379D02*
X4703677Y-11695331D01*
X4703677Y-11695331D02*
X4713201Y-11685808D01*
X4713201Y-11685808D02*
X4732248Y-11676284D01*
X4970344Y-11742950D02*
X4970344Y-11876284D01*
X4922725Y-11666760D02*
X4875106Y-11809617D01*
X4875106Y-11809617D02*
X4998915Y-11809617D01*
X5113201Y-11676284D02*
X5132249Y-11676284D01*
X5132249Y-11676284D02*
X5151296Y-11685808D01*
X5151296Y-11685808D02*
X5160820Y-11695331D01*
X5160820Y-11695331D02*
X5170344Y-11714379D01*
X5170344Y-11714379D02*
X5179868Y-11752474D01*
X5179868Y-11752474D02*
X5179868Y-11800093D01*
X5179868Y-11800093D02*
X5170344Y-11838188D01*
X5170344Y-11838188D02*
X5160820Y-11857236D01*
X5160820Y-11857236D02*
X5151296Y-11866760D01*
X5151296Y-11866760D02*
X5132249Y-11876284D01*
X5132249Y-11876284D02*
X5113201Y-11876284D01*
X5113201Y-11876284D02*
X5094153Y-11866760D01*
X5094153Y-11866760D02*
X5084629Y-11857236D01*
X5084629Y-11857236D02*
X5075106Y-11838188D01*
X5075106Y-11838188D02*
X5065582Y-11800093D01*
X5065582Y-11800093D02*
X5065582Y-11752474D01*
X5065582Y-11752474D02*
X5075106Y-11714379D01*
X5075106Y-11714379D02*
X5084629Y-11695331D01*
X5084629Y-11695331D02*
X5094153Y-11685808D01*
X5094153Y-11685808D02*
X5113201Y-11676284D01*
X5303677Y-11676284D02*
X5322725Y-11676284D01*
X5322725Y-11676284D02*
X5341772Y-11685808D01*
X5341772Y-11685808D02*
X5351296Y-11695331D01*
X5351296Y-11695331D02*
X5360820Y-11714379D01*
X5360820Y-11714379D02*
X5370344Y-11752474D01*
X5370344Y-11752474D02*
X5370344Y-11800093D01*
X5370344Y-11800093D02*
X5360820Y-11838188D01*
X5360820Y-11838188D02*
X5351296Y-11857236D01*
X5351296Y-11857236D02*
X5341772Y-11866760D01*
X5341772Y-11866760D02*
X5322725Y-11876284D01*
X5322725Y-11876284D02*
X5303677Y-11876284D01*
X5303677Y-11876284D02*
X5284629Y-11866760D01*
X5284629Y-11866760D02*
X5275106Y-11857236D01*
X5275106Y-11857236D02*
X5265582Y-11838188D01*
X5265582Y-11838188D02*
X5256058Y-11800093D01*
X5256058Y-11800093D02*
X5256058Y-11752474D01*
X5256058Y-11752474D02*
X5265582Y-11714379D01*
X5265582Y-11714379D02*
X5275106Y-11695331D01*
X5275106Y-11695331D02*
X5284629Y-11685808D01*
X5284629Y-11685808D02*
X5303677Y-11676284D01*
X5446534Y-11676284D02*
X5446534Y-11714379D01*
X5522725Y-11676284D02*
X5522725Y-11714379D01*
X5817963Y-11952474D02*
X5808439Y-11942950D01*
X5808439Y-11942950D02*
X5789391Y-11914379D01*
X5789391Y-11914379D02*
X5779868Y-11895331D01*
X5779868Y-11895331D02*
X5770344Y-11866760D01*
X5770344Y-11866760D02*
X5760820Y-11819141D01*
X5760820Y-11819141D02*
X5760820Y-11781046D01*
X5760820Y-11781046D02*
X5770344Y-11733427D01*
X5770344Y-11733427D02*
X5779868Y-11704855D01*
X5779868Y-11704855D02*
X5789391Y-11685808D01*
X5789391Y-11685808D02*
X5808439Y-11657236D01*
X5808439Y-11657236D02*
X5817963Y-11647712D01*
X5884629Y-11695331D02*
X5894153Y-11685808D01*
X5894153Y-11685808D02*
X5913201Y-11676284D01*
X5913201Y-11676284D02*
X5960820Y-11676284D01*
X5960820Y-11676284D02*
X5979868Y-11685808D01*
X5979868Y-11685808D02*
X5989391Y-11695331D01*
X5989391Y-11695331D02*
X5998915Y-11714379D01*
X5998915Y-11714379D02*
X5998915Y-11733427D01*
X5998915Y-11733427D02*
X5989391Y-11761998D01*
X5989391Y-11761998D02*
X5875106Y-11876284D01*
X5875106Y-11876284D02*
X5998915Y-11876284D01*
X6094153Y-11876284D02*
X6132248Y-11876284D01*
X6132248Y-11876284D02*
X6151296Y-11866760D01*
X6151296Y-11866760D02*
X6160820Y-11857236D01*
X6160820Y-11857236D02*
X6179868Y-11828665D01*
X6179868Y-11828665D02*
X6189391Y-11790569D01*
X6189391Y-11790569D02*
X6189391Y-11714379D01*
X6189391Y-11714379D02*
X6179868Y-11695331D01*
X6179868Y-11695331D02*
X6170344Y-11685808D01*
X6170344Y-11685808D02*
X6151296Y-11676284D01*
X6151296Y-11676284D02*
X6113201Y-11676284D01*
X6113201Y-11676284D02*
X6094153Y-11685808D01*
X6094153Y-11685808D02*
X6084629Y-11695331D01*
X6084629Y-11695331D02*
X6075106Y-11714379D01*
X6075106Y-11714379D02*
X6075106Y-11761998D01*
X6075106Y-11761998D02*
X6084629Y-11781046D01*
X6084629Y-11781046D02*
X6094153Y-11790569D01*
X6094153Y-11790569D02*
X6113201Y-11800093D01*
X6113201Y-11800093D02*
X6151296Y-11800093D01*
X6151296Y-11800093D02*
X6170344Y-11790569D01*
X6170344Y-11790569D02*
X6179868Y-11781046D01*
X6179868Y-11781046D02*
X6189391Y-11761998D01*
X6427487Y-11876284D02*
X6427487Y-11676284D01*
X6513201Y-11876284D02*
X6513201Y-11771522D01*
X6513201Y-11771522D02*
X6503677Y-11752474D01*
X6503677Y-11752474D02*
X6484630Y-11742950D01*
X6484630Y-11742950D02*
X6456058Y-11742950D01*
X6456058Y-11742950D02*
X6437010Y-11752474D01*
X6437010Y-11752474D02*
X6427487Y-11761998D01*
X6637010Y-11876284D02*
X6617963Y-11866760D01*
X6617963Y-11866760D02*
X6608439Y-11857236D01*
X6608439Y-11857236D02*
X6598915Y-11838188D01*
X6598915Y-11838188D02*
X6598915Y-11781046D01*
X6598915Y-11781046D02*
X6608439Y-11761998D01*
X6608439Y-11761998D02*
X6617963Y-11752474D01*
X6617963Y-11752474D02*
X6637010Y-11742950D01*
X6637010Y-11742950D02*
X6665582Y-11742950D01*
X6665582Y-11742950D02*
X6684630Y-11752474D01*
X6684630Y-11752474D02*
X6694153Y-11761998D01*
X6694153Y-11761998D02*
X6703677Y-11781046D01*
X6703677Y-11781046D02*
X6703677Y-11838188D01*
X6703677Y-11838188D02*
X6694153Y-11857236D01*
X6694153Y-11857236D02*
X6684630Y-11866760D01*
X6684630Y-11866760D02*
X6665582Y-11876284D01*
X6665582Y-11876284D02*
X6637010Y-11876284D01*
X6817963Y-11876284D02*
X6798915Y-11866760D01*
X6798915Y-11866760D02*
X6789391Y-11847712D01*
X6789391Y-11847712D02*
X6789391Y-11676284D01*
X6970344Y-11866760D02*
X6951296Y-11876284D01*
X6951296Y-11876284D02*
X6913201Y-11876284D01*
X6913201Y-11876284D02*
X6894153Y-11866760D01*
X6894153Y-11866760D02*
X6884630Y-11847712D01*
X6884630Y-11847712D02*
X6884630Y-11771522D01*
X6884630Y-11771522D02*
X6894153Y-11752474D01*
X6894153Y-11752474D02*
X6913201Y-11742950D01*
X6913201Y-11742950D02*
X6951296Y-11742950D01*
X6951296Y-11742950D02*
X6970344Y-11752474D01*
X6970344Y-11752474D02*
X6979868Y-11771522D01*
X6979868Y-11771522D02*
X6979868Y-11790569D01*
X6979868Y-11790569D02*
X6884630Y-11809617D01*
X7056058Y-11866760D02*
X7075106Y-11876284D01*
X7075106Y-11876284D02*
X7113201Y-11876284D01*
X7113201Y-11876284D02*
X7132249Y-11866760D01*
X7132249Y-11866760D02*
X7141772Y-11847712D01*
X7141772Y-11847712D02*
X7141772Y-11838188D01*
X7141772Y-11838188D02*
X7132249Y-11819141D01*
X7132249Y-11819141D02*
X7113201Y-11809617D01*
X7113201Y-11809617D02*
X7084630Y-11809617D01*
X7084630Y-11809617D02*
X7065582Y-11800093D01*
X7065582Y-11800093D02*
X7056058Y-11781046D01*
X7056058Y-11781046D02*
X7056058Y-11771522D01*
X7056058Y-11771522D02*
X7065582Y-11752474D01*
X7065582Y-11752474D02*
X7084630Y-11742950D01*
X7084630Y-11742950D02*
X7113201Y-11742950D01*
X7113201Y-11742950D02*
X7132249Y-11752474D01*
X7208439Y-11952474D02*
X7217963Y-11942950D01*
X7217963Y-11942950D02*
X7237011Y-11914379D01*
X7237011Y-11914379D02*
X7246534Y-11895331D01*
X7246534Y-11895331D02*
X7256058Y-11866760D01*
X7256058Y-11866760D02*
X7265582Y-11819141D01*
X7265582Y-11819141D02*
X7265582Y-11781046D01*
X7265582Y-11781046D02*
X7256058Y-11733427D01*
X7256058Y-11733427D02*
X7246534Y-11704855D01*
X7246534Y-11704855D02*
X7237011Y-11685808D01*
X7237011Y-11685808D02*
X7217963Y-11657236D01*
X7217963Y-11657236D02*
X7208439Y-11647712D01*
M02*
