%TF.GenerationSoftware,KiCad,Pcbnew,7.0.9*%
%TF.CreationDate,2024-01-29T20:39:33+05:30*%
%TF.ProjectId,Inverter,496e7665-7274-4657-922e-6b696361645f,rev?*%
%TF.SameCoordinates,Original*%
%TF.FileFunction,Legend,Top*%
%TF.FilePolarity,Positive*%
%FSLAX46Y46*%
G04 Gerber Fmt 4.6, Leading zero omitted, Abs format (unit mm)*
G04 Created by KiCad (PCBNEW 7.0.9) date 2024-01-29 20:39:33*
%MOMM*%
%LPD*%
G01*
G04 APERTURE LIST*
%ADD10C,0.125000*%
%ADD11C,0.150000*%
%ADD12C,0.254000*%
%ADD13C,0.120000*%
%ADD14C,0.200000*%
%ADD15C,0.152400*%
%ADD16C,0.127000*%
G04 APERTURE END LIST*
D10*
G36*
X60301168Y-146715000D02*
G01*
X60406803Y-146206974D01*
X60503524Y-146206974D01*
X60633583Y-146550258D01*
X60705024Y-146206974D01*
X60797348Y-146206974D01*
X60691713Y-146715000D01*
X60591939Y-146715000D01*
X60463834Y-146376845D01*
X60393492Y-146715000D01*
X60301168Y-146715000D01*
G37*
G36*
X60916050Y-146715000D02*
G01*
X61003855Y-146292948D01*
X60857676Y-146292948D01*
X60875505Y-146206974D01*
X61266905Y-146206974D01*
X61249075Y-146292948D01*
X61103262Y-146292948D01*
X61015457Y-146715000D01*
X60916050Y-146715000D01*
G37*
G36*
X61588328Y-146519605D02*
G01*
X61678210Y-146550868D01*
X61675724Y-146556032D01*
X61673198Y-146561112D01*
X61670632Y-146566108D01*
X61668026Y-146571020D01*
X61665379Y-146575849D01*
X61662692Y-146580594D01*
X61659965Y-146585255D01*
X61657197Y-146589833D01*
X61654389Y-146594326D01*
X61651541Y-146598737D01*
X61648652Y-146603063D01*
X61645723Y-146607306D01*
X61642754Y-146611465D01*
X61639745Y-146615540D01*
X61636695Y-146619531D01*
X61633605Y-146623439D01*
X61630474Y-146627263D01*
X61627304Y-146631003D01*
X61620841Y-146638233D01*
X61614217Y-146645127D01*
X61607433Y-146651687D01*
X61600486Y-146657912D01*
X61593379Y-146663802D01*
X61586110Y-146669357D01*
X61578681Y-146674577D01*
X61571110Y-146679472D01*
X61563389Y-146684051D01*
X61555517Y-146688315D01*
X61547494Y-146692262D01*
X61539320Y-146695894D01*
X61530996Y-146699210D01*
X61522521Y-146702210D01*
X61513895Y-146704894D01*
X61505119Y-146707262D01*
X61496191Y-146709315D01*
X61487113Y-146711052D01*
X61477885Y-146712473D01*
X61468505Y-146713578D01*
X61458975Y-146714368D01*
X61449294Y-146714842D01*
X61444397Y-146714960D01*
X61439462Y-146715000D01*
X61433381Y-146714933D01*
X61427396Y-146714734D01*
X61421506Y-146714403D01*
X61415711Y-146713939D01*
X61410013Y-146713342D01*
X61404410Y-146712612D01*
X61398903Y-146711750D01*
X61393491Y-146710756D01*
X61388175Y-146709629D01*
X61382955Y-146708369D01*
X61377830Y-146706976D01*
X61372801Y-146705451D01*
X61367868Y-146703793D01*
X61363030Y-146702003D01*
X61358288Y-146700080D01*
X61353641Y-146698025D01*
X61349091Y-146695836D01*
X61344635Y-146693516D01*
X61340276Y-146691062D01*
X61336012Y-146688476D01*
X61331844Y-146685758D01*
X61327771Y-146682906D01*
X61323794Y-146679923D01*
X61319913Y-146676806D01*
X61316127Y-146673557D01*
X61312437Y-146670175D01*
X61308843Y-146666661D01*
X61305344Y-146663014D01*
X61301941Y-146659234D01*
X61298634Y-146655322D01*
X61295422Y-146651277D01*
X61292306Y-146647100D01*
X61289317Y-146642808D01*
X61286472Y-146638418D01*
X61283770Y-146633931D01*
X61281212Y-146629347D01*
X61278797Y-146624665D01*
X61276526Y-146619886D01*
X61274399Y-146615010D01*
X61272415Y-146610036D01*
X61270575Y-146604965D01*
X61268879Y-146599797D01*
X61267326Y-146594531D01*
X61265916Y-146589169D01*
X61264650Y-146583708D01*
X61263528Y-146578151D01*
X61262549Y-146572496D01*
X61261714Y-146566744D01*
X61261023Y-146560895D01*
X61260475Y-146554948D01*
X61260071Y-146548904D01*
X61259810Y-146542762D01*
X61259693Y-146536524D01*
X61259719Y-146530188D01*
X61259890Y-146523754D01*
X61260203Y-146517224D01*
X61260660Y-146510596D01*
X61261261Y-146503871D01*
X61262006Y-146497048D01*
X61262894Y-146490128D01*
X61263925Y-146483111D01*
X61265100Y-146475996D01*
X61266419Y-146468785D01*
X61267882Y-146461475D01*
X61269550Y-146453745D01*
X61271321Y-146446122D01*
X61273192Y-146438609D01*
X61275165Y-146431205D01*
X61277239Y-146423909D01*
X61279415Y-146416722D01*
X61281692Y-146409643D01*
X61284070Y-146402674D01*
X61286550Y-146395813D01*
X61289131Y-146389061D01*
X61291814Y-146382418D01*
X61294598Y-146375884D01*
X61297483Y-146369458D01*
X61300469Y-146363141D01*
X61303557Y-146356933D01*
X61306747Y-146350833D01*
X61310037Y-146344843D01*
X61313430Y-146338961D01*
X61316923Y-146333188D01*
X61320518Y-146327523D01*
X61324214Y-146321968D01*
X61328012Y-146316521D01*
X61331911Y-146311183D01*
X61335911Y-146305954D01*
X61340013Y-146300833D01*
X61344216Y-146295822D01*
X61348520Y-146290919D01*
X61352926Y-146286124D01*
X61357433Y-146281439D01*
X61362041Y-146276862D01*
X61366751Y-146272394D01*
X61371563Y-146268035D01*
X61376450Y-146263798D01*
X61381387Y-146259695D01*
X61386374Y-146255726D01*
X61391411Y-146251892D01*
X61396499Y-146248193D01*
X61401636Y-146244628D01*
X61406824Y-146241197D01*
X61412061Y-146237902D01*
X61417349Y-146234740D01*
X61422687Y-146231714D01*
X61428075Y-146228821D01*
X61433513Y-146226063D01*
X61439001Y-146223440D01*
X61444539Y-146220952D01*
X61450127Y-146218597D01*
X61455765Y-146216378D01*
X61461454Y-146214293D01*
X61467192Y-146212342D01*
X61472981Y-146210526D01*
X61478820Y-146208844D01*
X61484708Y-146207297D01*
X61490647Y-146205885D01*
X61496636Y-146204607D01*
X61502675Y-146203463D01*
X61508764Y-146202454D01*
X61514904Y-146201580D01*
X61521093Y-146200840D01*
X61527332Y-146200235D01*
X61533622Y-146199764D01*
X61539961Y-146199428D01*
X61546351Y-146199226D01*
X61552791Y-146199159D01*
X61558394Y-146199215D01*
X61563908Y-146199385D01*
X61569332Y-146199667D01*
X61574666Y-146200063D01*
X61579910Y-146200572D01*
X61585065Y-146201194D01*
X61590130Y-146201929D01*
X61595106Y-146202776D01*
X61599992Y-146203737D01*
X61604788Y-146204811D01*
X61614111Y-146207299D01*
X61623076Y-146210238D01*
X61631681Y-146213630D01*
X61639928Y-146217474D01*
X61647817Y-146221770D01*
X61655346Y-146226519D01*
X61662517Y-146231719D01*
X61669329Y-146237372D01*
X61675782Y-146243477D01*
X61681877Y-146250035D01*
X61687613Y-146257044D01*
X61690821Y-146261450D01*
X61693851Y-146266089D01*
X61696702Y-146270960D01*
X61699375Y-146276065D01*
X61701869Y-146281402D01*
X61704185Y-146286972D01*
X61706323Y-146292774D01*
X61708282Y-146298810D01*
X61710063Y-146305078D01*
X61711665Y-146311579D01*
X61713089Y-146318313D01*
X61714335Y-146325280D01*
X61715402Y-146332479D01*
X61716290Y-146339911D01*
X61717001Y-146347576D01*
X61717533Y-146355474D01*
X61615806Y-146371106D01*
X61615657Y-146366194D01*
X61615107Y-146359073D01*
X61614164Y-146352245D01*
X61612829Y-146345712D01*
X61611100Y-146339473D01*
X61608979Y-146333528D01*
X61606465Y-146327876D01*
X61603558Y-146322519D01*
X61600258Y-146317457D01*
X61596566Y-146312688D01*
X61592480Y-146308213D01*
X61588050Y-146304088D01*
X61583324Y-146300369D01*
X61578302Y-146297056D01*
X61572983Y-146294148D01*
X61567368Y-146291646D01*
X61561457Y-146289550D01*
X61555249Y-146287859D01*
X61548746Y-146286575D01*
X61541946Y-146285696D01*
X61534849Y-146285222D01*
X61529954Y-146285132D01*
X61523163Y-146285288D01*
X61516467Y-146285754D01*
X61509867Y-146286532D01*
X61503362Y-146287620D01*
X61496953Y-146289020D01*
X61490639Y-146290731D01*
X61484420Y-146292752D01*
X61478297Y-146295085D01*
X61472269Y-146297729D01*
X61466337Y-146300683D01*
X61460499Y-146303949D01*
X61454758Y-146307526D01*
X61449112Y-146311414D01*
X61443561Y-146315613D01*
X61438105Y-146320123D01*
X61432745Y-146324944D01*
X61427541Y-146330113D01*
X61422524Y-146335669D01*
X61417692Y-146341612D01*
X61413046Y-146347941D01*
X61408586Y-146354656D01*
X61404312Y-146361758D01*
X61400224Y-146369246D01*
X61396323Y-146377120D01*
X61392607Y-146385381D01*
X61389078Y-146394028D01*
X61385734Y-146403062D01*
X61384132Y-146407724D01*
X61382576Y-146412482D01*
X61381067Y-146417337D01*
X61379605Y-146422288D01*
X61378189Y-146427336D01*
X61376820Y-146432481D01*
X61375497Y-146437722D01*
X61374220Y-146443060D01*
X61372990Y-146448495D01*
X61371807Y-146454026D01*
X61370622Y-146459888D01*
X61369524Y-146465644D01*
X61368514Y-146471293D01*
X61367592Y-146476836D01*
X61366757Y-146482273D01*
X61366009Y-146487603D01*
X61365350Y-146492827D01*
X61364777Y-146497944D01*
X61364292Y-146502955D01*
X61363895Y-146507860D01*
X61363363Y-146517350D01*
X61363182Y-146526414D01*
X61363350Y-146535054D01*
X61363869Y-146543267D01*
X61364737Y-146551055D01*
X61365956Y-146558418D01*
X61367525Y-146565355D01*
X61369444Y-146571867D01*
X61371713Y-146577953D01*
X61374333Y-146583613D01*
X61377302Y-146588848D01*
X61380573Y-146593713D01*
X61384067Y-146598265D01*
X61387782Y-146602502D01*
X61391720Y-146606426D01*
X61395881Y-146610036D01*
X61400263Y-146613332D01*
X61404868Y-146616313D01*
X61409695Y-146618982D01*
X61414745Y-146621336D01*
X61420016Y-146623376D01*
X61425510Y-146625102D01*
X61431227Y-146626515D01*
X61437165Y-146627614D01*
X61443326Y-146628398D01*
X61449709Y-146628869D01*
X61456315Y-146629026D01*
X61461254Y-146628923D01*
X61466148Y-146628614D01*
X61473404Y-146627764D01*
X61480560Y-146626450D01*
X61487615Y-146624673D01*
X61494569Y-146622431D01*
X61499149Y-146620680D01*
X61503685Y-146618722D01*
X61508175Y-146616558D01*
X61512621Y-146614188D01*
X61517021Y-146611612D01*
X61521377Y-146608830D01*
X61525688Y-146605842D01*
X61529954Y-146602648D01*
X61534175Y-146599232D01*
X61538319Y-146595580D01*
X61542388Y-146591691D01*
X61546379Y-146587566D01*
X61550295Y-146583204D01*
X61554134Y-146578605D01*
X61557897Y-146573770D01*
X61561584Y-146568698D01*
X61565194Y-146563390D01*
X61568728Y-146557844D01*
X61572185Y-146552063D01*
X61575566Y-146546045D01*
X61578871Y-146539790D01*
X61582100Y-146533298D01*
X61585252Y-146526570D01*
X61588328Y-146519605D01*
G37*
D11*
X46079819Y-159311904D02*
X46889342Y-159311904D01*
X46889342Y-159311904D02*
X46984580Y-159264285D01*
X46984580Y-159264285D02*
X47032200Y-159216666D01*
X47032200Y-159216666D02*
X47079819Y-159121428D01*
X47079819Y-159121428D02*
X47079819Y-158930952D01*
X47079819Y-158930952D02*
X47032200Y-158835714D01*
X47032200Y-158835714D02*
X46984580Y-158788095D01*
X46984580Y-158788095D02*
X46889342Y-158740476D01*
X46889342Y-158740476D02*
X46079819Y-158740476D01*
X46079819Y-158359523D02*
X46079819Y-157740476D01*
X46079819Y-157740476D02*
X46460771Y-158073809D01*
X46460771Y-158073809D02*
X46460771Y-157930952D01*
X46460771Y-157930952D02*
X46508390Y-157835714D01*
X46508390Y-157835714D02*
X46556009Y-157788095D01*
X46556009Y-157788095D02*
X46651247Y-157740476D01*
X46651247Y-157740476D02*
X46889342Y-157740476D01*
X46889342Y-157740476D02*
X46984580Y-157788095D01*
X46984580Y-157788095D02*
X47032200Y-157835714D01*
X47032200Y-157835714D02*
X47079819Y-157930952D01*
X47079819Y-157930952D02*
X47079819Y-158216666D01*
X47079819Y-158216666D02*
X47032200Y-158311904D01*
X47032200Y-158311904D02*
X46984580Y-158359523D01*
D12*
X69179718Y-140125562D02*
X67909718Y-140125562D01*
X69058765Y-138795085D02*
X69119242Y-138855561D01*
X69119242Y-138855561D02*
X69179718Y-139036990D01*
X69179718Y-139036990D02*
X69179718Y-139157942D01*
X69179718Y-139157942D02*
X69119242Y-139339371D01*
X69119242Y-139339371D02*
X68998289Y-139460323D01*
X68998289Y-139460323D02*
X68877337Y-139520800D01*
X68877337Y-139520800D02*
X68635432Y-139581276D01*
X68635432Y-139581276D02*
X68454003Y-139581276D01*
X68454003Y-139581276D02*
X68212099Y-139520800D01*
X68212099Y-139520800D02*
X68091146Y-139460323D01*
X68091146Y-139460323D02*
X67970194Y-139339371D01*
X67970194Y-139339371D02*
X67909718Y-139157942D01*
X67909718Y-139157942D02*
X67909718Y-139036990D01*
X67909718Y-139036990D02*
X67970194Y-138855561D01*
X67970194Y-138855561D02*
X68030670Y-138795085D01*
X67909718Y-137646038D02*
X67909718Y-138250800D01*
X67909718Y-138250800D02*
X68514480Y-138311276D01*
X68514480Y-138311276D02*
X68454003Y-138250800D01*
X68454003Y-138250800D02*
X68393527Y-138129847D01*
X68393527Y-138129847D02*
X68393527Y-137827466D01*
X68393527Y-137827466D02*
X68454003Y-137706514D01*
X68454003Y-137706514D02*
X68514480Y-137646038D01*
X68514480Y-137646038D02*
X68635432Y-137585561D01*
X68635432Y-137585561D02*
X68937813Y-137585561D01*
X68937813Y-137585561D02*
X69058765Y-137646038D01*
X69058765Y-137646038D02*
X69119242Y-137706514D01*
X69119242Y-137706514D02*
X69179718Y-137827466D01*
X69179718Y-137827466D02*
X69179718Y-138129847D01*
X69179718Y-138129847D02*
X69119242Y-138250800D01*
X69119242Y-138250800D02*
X69058765Y-138311276D01*
X53761918Y-140227162D02*
X52491918Y-140227162D01*
X53640965Y-138896685D02*
X53701442Y-138957161D01*
X53701442Y-138957161D02*
X53761918Y-139138590D01*
X53761918Y-139138590D02*
X53761918Y-139259542D01*
X53761918Y-139259542D02*
X53701442Y-139440971D01*
X53701442Y-139440971D02*
X53580489Y-139561923D01*
X53580489Y-139561923D02*
X53459537Y-139622400D01*
X53459537Y-139622400D02*
X53217632Y-139682876D01*
X53217632Y-139682876D02*
X53036203Y-139682876D01*
X53036203Y-139682876D02*
X52794299Y-139622400D01*
X52794299Y-139622400D02*
X52673346Y-139561923D01*
X52673346Y-139561923D02*
X52552394Y-139440971D01*
X52552394Y-139440971D02*
X52491918Y-139259542D01*
X52491918Y-139259542D02*
X52491918Y-139138590D01*
X52491918Y-139138590D02*
X52552394Y-138957161D01*
X52552394Y-138957161D02*
X52612870Y-138896685D01*
X53761918Y-137687161D02*
X53761918Y-138412876D01*
X53761918Y-138050019D02*
X52491918Y-138050019D01*
X52491918Y-138050019D02*
X52673346Y-138170971D01*
X52673346Y-138170971D02*
X52794299Y-138291923D01*
X52794299Y-138291923D02*
X52854775Y-138412876D01*
D11*
X42395180Y-137661905D02*
X41585657Y-137661905D01*
X41585657Y-137661905D02*
X41490419Y-137709524D01*
X41490419Y-137709524D02*
X41442800Y-137757143D01*
X41442800Y-137757143D02*
X41395180Y-137852381D01*
X41395180Y-137852381D02*
X41395180Y-138042857D01*
X41395180Y-138042857D02*
X41442800Y-138138095D01*
X41442800Y-138138095D02*
X41490419Y-138185714D01*
X41490419Y-138185714D02*
X41585657Y-138233333D01*
X41585657Y-138233333D02*
X42395180Y-138233333D01*
X41395180Y-139233333D02*
X41395180Y-138661905D01*
X41395180Y-138947619D02*
X42395180Y-138947619D01*
X42395180Y-138947619D02*
X42252323Y-138852381D01*
X42252323Y-138852381D02*
X42157085Y-138757143D01*
X42157085Y-138757143D02*
X42109466Y-138661905D01*
X42395180Y-139852381D02*
X42395180Y-139947619D01*
X42395180Y-139947619D02*
X42347561Y-140042857D01*
X42347561Y-140042857D02*
X42299942Y-140090476D01*
X42299942Y-140090476D02*
X42204704Y-140138095D01*
X42204704Y-140138095D02*
X42014228Y-140185714D01*
X42014228Y-140185714D02*
X41776133Y-140185714D01*
X41776133Y-140185714D02*
X41585657Y-140138095D01*
X41585657Y-140138095D02*
X41490419Y-140090476D01*
X41490419Y-140090476D02*
X41442800Y-140042857D01*
X41442800Y-140042857D02*
X41395180Y-139947619D01*
X41395180Y-139947619D02*
X41395180Y-139852381D01*
X41395180Y-139852381D02*
X41442800Y-139757143D01*
X41442800Y-139757143D02*
X41490419Y-139709524D01*
X41490419Y-139709524D02*
X41585657Y-139661905D01*
X41585657Y-139661905D02*
X41776133Y-139614286D01*
X41776133Y-139614286D02*
X42014228Y-139614286D01*
X42014228Y-139614286D02*
X42204704Y-139661905D01*
X42204704Y-139661905D02*
X42299942Y-139709524D01*
X42299942Y-139709524D02*
X42347561Y-139757143D01*
X42347561Y-139757143D02*
X42395180Y-139852381D01*
X44911619Y-133769199D02*
X45149714Y-133769199D01*
X45054476Y-134007294D02*
X45149714Y-133769199D01*
X45149714Y-133769199D02*
X45054476Y-133531104D01*
X45340190Y-133912056D02*
X45149714Y-133769199D01*
X45149714Y-133769199D02*
X45340190Y-133626342D01*
X46001980Y-133769200D02*
X45763885Y-133769200D01*
X45859123Y-133531105D02*
X45763885Y-133769200D01*
X45763885Y-133769200D02*
X45859123Y-134007295D01*
X45573409Y-133626343D02*
X45763885Y-133769200D01*
X45763885Y-133769200D02*
X45573409Y-133912057D01*
X53109905Y-127541819D02*
X53109905Y-126541819D01*
X53109905Y-126541819D02*
X53348000Y-126541819D01*
X53348000Y-126541819D02*
X53490857Y-126589438D01*
X53490857Y-126589438D02*
X53586095Y-126684676D01*
X53586095Y-126684676D02*
X53633714Y-126779914D01*
X53633714Y-126779914D02*
X53681333Y-126970390D01*
X53681333Y-126970390D02*
X53681333Y-127113247D01*
X53681333Y-127113247D02*
X53633714Y-127303723D01*
X53633714Y-127303723D02*
X53586095Y-127398961D01*
X53586095Y-127398961D02*
X53490857Y-127494200D01*
X53490857Y-127494200D02*
X53348000Y-127541819D01*
X53348000Y-127541819D02*
X53109905Y-127541819D01*
X54014667Y-126541819D02*
X54633714Y-126541819D01*
X54633714Y-126541819D02*
X54300381Y-126922771D01*
X54300381Y-126922771D02*
X54443238Y-126922771D01*
X54443238Y-126922771D02*
X54538476Y-126970390D01*
X54538476Y-126970390D02*
X54586095Y-127018009D01*
X54586095Y-127018009D02*
X54633714Y-127113247D01*
X54633714Y-127113247D02*
X54633714Y-127351342D01*
X54633714Y-127351342D02*
X54586095Y-127446580D01*
X54586095Y-127446580D02*
X54538476Y-127494200D01*
X54538476Y-127494200D02*
X54443238Y-127541819D01*
X54443238Y-127541819D02*
X54157524Y-127541819D01*
X54157524Y-127541819D02*
X54062286Y-127494200D01*
X54062286Y-127494200D02*
X54014667Y-127446580D01*
X68063219Y-129963657D02*
X67587028Y-130296990D01*
X68063219Y-130535085D02*
X67063219Y-130535085D01*
X67063219Y-130535085D02*
X67063219Y-130154133D01*
X67063219Y-130154133D02*
X67110838Y-130058895D01*
X67110838Y-130058895D02*
X67158457Y-130011276D01*
X67158457Y-130011276D02*
X67253695Y-129963657D01*
X67253695Y-129963657D02*
X67396552Y-129963657D01*
X67396552Y-129963657D02*
X67491790Y-130011276D01*
X67491790Y-130011276D02*
X67539409Y-130058895D01*
X67539409Y-130058895D02*
X67587028Y-130154133D01*
X67587028Y-130154133D02*
X67587028Y-130535085D01*
X68063219Y-129011276D02*
X68063219Y-129582704D01*
X68063219Y-129296990D02*
X67063219Y-129296990D01*
X67063219Y-129296990D02*
X67206076Y-129392228D01*
X67206076Y-129392228D02*
X67301314Y-129487466D01*
X67301314Y-129487466D02*
X67348933Y-129582704D01*
X67158457Y-128630323D02*
X67110838Y-128582704D01*
X67110838Y-128582704D02*
X67063219Y-128487466D01*
X67063219Y-128487466D02*
X67063219Y-128249371D01*
X67063219Y-128249371D02*
X67110838Y-128154133D01*
X67110838Y-128154133D02*
X67158457Y-128106514D01*
X67158457Y-128106514D02*
X67253695Y-128058895D01*
X67253695Y-128058895D02*
X67348933Y-128058895D01*
X67348933Y-128058895D02*
X67491790Y-128106514D01*
X67491790Y-128106514D02*
X68063219Y-128677942D01*
X68063219Y-128677942D02*
X68063219Y-128058895D01*
X25392142Y-135796580D02*
X25344523Y-135844200D01*
X25344523Y-135844200D02*
X25201666Y-135891819D01*
X25201666Y-135891819D02*
X25106428Y-135891819D01*
X25106428Y-135891819D02*
X24963571Y-135844200D01*
X24963571Y-135844200D02*
X24868333Y-135748961D01*
X24868333Y-135748961D02*
X24820714Y-135653723D01*
X24820714Y-135653723D02*
X24773095Y-135463247D01*
X24773095Y-135463247D02*
X24773095Y-135320390D01*
X24773095Y-135320390D02*
X24820714Y-135129914D01*
X24820714Y-135129914D02*
X24868333Y-135034676D01*
X24868333Y-135034676D02*
X24963571Y-134939438D01*
X24963571Y-134939438D02*
X25106428Y-134891819D01*
X25106428Y-134891819D02*
X25201666Y-134891819D01*
X25201666Y-134891819D02*
X25344523Y-134939438D01*
X25344523Y-134939438D02*
X25392142Y-134987057D01*
X26344523Y-135891819D02*
X25773095Y-135891819D01*
X26058809Y-135891819D02*
X26058809Y-134891819D01*
X26058809Y-134891819D02*
X25963571Y-135034676D01*
X25963571Y-135034676D02*
X25868333Y-135129914D01*
X25868333Y-135129914D02*
X25773095Y-135177533D01*
X26725476Y-134987057D02*
X26773095Y-134939438D01*
X26773095Y-134939438D02*
X26868333Y-134891819D01*
X26868333Y-134891819D02*
X27106428Y-134891819D01*
X27106428Y-134891819D02*
X27201666Y-134939438D01*
X27201666Y-134939438D02*
X27249285Y-134987057D01*
X27249285Y-134987057D02*
X27296904Y-135082295D01*
X27296904Y-135082295D02*
X27296904Y-135177533D01*
X27296904Y-135177533D02*
X27249285Y-135320390D01*
X27249285Y-135320390D02*
X26677857Y-135891819D01*
X26677857Y-135891819D02*
X27296904Y-135891819D01*
X22084819Y-41378094D02*
X21084819Y-41378094D01*
X21084819Y-41378094D02*
X21084819Y-41139999D01*
X21084819Y-41139999D02*
X21132438Y-40997142D01*
X21132438Y-40997142D02*
X21227676Y-40901904D01*
X21227676Y-40901904D02*
X21322914Y-40854285D01*
X21322914Y-40854285D02*
X21513390Y-40806666D01*
X21513390Y-40806666D02*
X21656247Y-40806666D01*
X21656247Y-40806666D02*
X21846723Y-40854285D01*
X21846723Y-40854285D02*
X21941961Y-40901904D01*
X21941961Y-40901904D02*
X22037200Y-40997142D01*
X22037200Y-40997142D02*
X22084819Y-41139999D01*
X22084819Y-41139999D02*
X22084819Y-41378094D01*
X21513390Y-40235237D02*
X21465771Y-40330475D01*
X21465771Y-40330475D02*
X21418152Y-40378094D01*
X21418152Y-40378094D02*
X21322914Y-40425713D01*
X21322914Y-40425713D02*
X21275295Y-40425713D01*
X21275295Y-40425713D02*
X21180057Y-40378094D01*
X21180057Y-40378094D02*
X21132438Y-40330475D01*
X21132438Y-40330475D02*
X21084819Y-40235237D01*
X21084819Y-40235237D02*
X21084819Y-40044761D01*
X21084819Y-40044761D02*
X21132438Y-39949523D01*
X21132438Y-39949523D02*
X21180057Y-39901904D01*
X21180057Y-39901904D02*
X21275295Y-39854285D01*
X21275295Y-39854285D02*
X21322914Y-39854285D01*
X21322914Y-39854285D02*
X21418152Y-39901904D01*
X21418152Y-39901904D02*
X21465771Y-39949523D01*
X21465771Y-39949523D02*
X21513390Y-40044761D01*
X21513390Y-40044761D02*
X21513390Y-40235237D01*
X21513390Y-40235237D02*
X21561009Y-40330475D01*
X21561009Y-40330475D02*
X21608628Y-40378094D01*
X21608628Y-40378094D02*
X21703866Y-40425713D01*
X21703866Y-40425713D02*
X21894342Y-40425713D01*
X21894342Y-40425713D02*
X21989580Y-40378094D01*
X21989580Y-40378094D02*
X22037200Y-40330475D01*
X22037200Y-40330475D02*
X22084819Y-40235237D01*
X22084819Y-40235237D02*
X22084819Y-40044761D01*
X22084819Y-40044761D02*
X22037200Y-39949523D01*
X22037200Y-39949523D02*
X21989580Y-39901904D01*
X21989580Y-39901904D02*
X21894342Y-39854285D01*
X21894342Y-39854285D02*
X21703866Y-39854285D01*
X21703866Y-39854285D02*
X21608628Y-39901904D01*
X21608628Y-39901904D02*
X21561009Y-39949523D01*
X21561009Y-39949523D02*
X21513390Y-40044761D01*
X23554819Y-48521904D02*
X22554819Y-48521904D01*
X23554819Y-47950476D02*
X22983390Y-48379047D01*
X22554819Y-47950476D02*
X23126247Y-48521904D01*
X42454819Y-151014285D02*
X41454819Y-151014285D01*
X41454819Y-151014285D02*
X41454819Y-150776190D01*
X41454819Y-150776190D02*
X41502438Y-150633333D01*
X41502438Y-150633333D02*
X41597676Y-150538095D01*
X41597676Y-150538095D02*
X41692914Y-150490476D01*
X41692914Y-150490476D02*
X41883390Y-150442857D01*
X41883390Y-150442857D02*
X42026247Y-150442857D01*
X42026247Y-150442857D02*
X42216723Y-150490476D01*
X42216723Y-150490476D02*
X42311961Y-150538095D01*
X42311961Y-150538095D02*
X42407200Y-150633333D01*
X42407200Y-150633333D02*
X42454819Y-150776190D01*
X42454819Y-150776190D02*
X42454819Y-151014285D01*
X42454819Y-149490476D02*
X42454819Y-150061904D01*
X42454819Y-149776190D02*
X41454819Y-149776190D01*
X41454819Y-149776190D02*
X41597676Y-149871428D01*
X41597676Y-149871428D02*
X41692914Y-149966666D01*
X41692914Y-149966666D02*
X41740533Y-150061904D01*
X42454819Y-149014285D02*
X42454819Y-148823809D01*
X42454819Y-148823809D02*
X42407200Y-148728571D01*
X42407200Y-148728571D02*
X42359580Y-148680952D01*
X42359580Y-148680952D02*
X42216723Y-148585714D01*
X42216723Y-148585714D02*
X42026247Y-148538095D01*
X42026247Y-148538095D02*
X41645295Y-148538095D01*
X41645295Y-148538095D02*
X41550057Y-148585714D01*
X41550057Y-148585714D02*
X41502438Y-148633333D01*
X41502438Y-148633333D02*
X41454819Y-148728571D01*
X41454819Y-148728571D02*
X41454819Y-148919047D01*
X41454819Y-148919047D02*
X41502438Y-149014285D01*
X41502438Y-149014285D02*
X41550057Y-149061904D01*
X41550057Y-149061904D02*
X41645295Y-149109523D01*
X41645295Y-149109523D02*
X41883390Y-149109523D01*
X41883390Y-149109523D02*
X41978628Y-149061904D01*
X41978628Y-149061904D02*
X42026247Y-149014285D01*
X42026247Y-149014285D02*
X42073866Y-148919047D01*
X42073866Y-148919047D02*
X42073866Y-148728571D01*
X42073866Y-148728571D02*
X42026247Y-148633333D01*
X42026247Y-148633333D02*
X41978628Y-148585714D01*
X41978628Y-148585714D02*
X41883390Y-148538095D01*
X33307142Y-139309580D02*
X33259523Y-139357200D01*
X33259523Y-139357200D02*
X33116666Y-139404819D01*
X33116666Y-139404819D02*
X33021428Y-139404819D01*
X33021428Y-139404819D02*
X32878571Y-139357200D01*
X32878571Y-139357200D02*
X32783333Y-139261961D01*
X32783333Y-139261961D02*
X32735714Y-139166723D01*
X32735714Y-139166723D02*
X32688095Y-138976247D01*
X32688095Y-138976247D02*
X32688095Y-138833390D01*
X32688095Y-138833390D02*
X32735714Y-138642914D01*
X32735714Y-138642914D02*
X32783333Y-138547676D01*
X32783333Y-138547676D02*
X32878571Y-138452438D01*
X32878571Y-138452438D02*
X33021428Y-138404819D01*
X33021428Y-138404819D02*
X33116666Y-138404819D01*
X33116666Y-138404819D02*
X33259523Y-138452438D01*
X33259523Y-138452438D02*
X33307142Y-138500057D01*
X33640476Y-138404819D02*
X34259523Y-138404819D01*
X34259523Y-138404819D02*
X33926190Y-138785771D01*
X33926190Y-138785771D02*
X34069047Y-138785771D01*
X34069047Y-138785771D02*
X34164285Y-138833390D01*
X34164285Y-138833390D02*
X34211904Y-138881009D01*
X34211904Y-138881009D02*
X34259523Y-138976247D01*
X34259523Y-138976247D02*
X34259523Y-139214342D01*
X34259523Y-139214342D02*
X34211904Y-139309580D01*
X34211904Y-139309580D02*
X34164285Y-139357200D01*
X34164285Y-139357200D02*
X34069047Y-139404819D01*
X34069047Y-139404819D02*
X33783333Y-139404819D01*
X33783333Y-139404819D02*
X33688095Y-139357200D01*
X33688095Y-139357200D02*
X33640476Y-139309580D01*
X34592857Y-138404819D02*
X35259523Y-138404819D01*
X35259523Y-138404819D02*
X34830952Y-139404819D01*
X26004819Y-119395285D02*
X25004819Y-119395285D01*
X25004819Y-119395285D02*
X25004819Y-119157190D01*
X25004819Y-119157190D02*
X25052438Y-119014333D01*
X25052438Y-119014333D02*
X25147676Y-118919095D01*
X25147676Y-118919095D02*
X25242914Y-118871476D01*
X25242914Y-118871476D02*
X25433390Y-118823857D01*
X25433390Y-118823857D02*
X25576247Y-118823857D01*
X25576247Y-118823857D02*
X25766723Y-118871476D01*
X25766723Y-118871476D02*
X25861961Y-118919095D01*
X25861961Y-118919095D02*
X25957200Y-119014333D01*
X25957200Y-119014333D02*
X26004819Y-119157190D01*
X26004819Y-119157190D02*
X26004819Y-119395285D01*
X26004819Y-117871476D02*
X26004819Y-118442904D01*
X26004819Y-118157190D02*
X25004819Y-118157190D01*
X25004819Y-118157190D02*
X25147676Y-118252428D01*
X25147676Y-118252428D02*
X25242914Y-118347666D01*
X25242914Y-118347666D02*
X25290533Y-118442904D01*
X25004819Y-116966714D02*
X25004819Y-117442904D01*
X25004819Y-117442904D02*
X25481009Y-117490523D01*
X25481009Y-117490523D02*
X25433390Y-117442904D01*
X25433390Y-117442904D02*
X25385771Y-117347666D01*
X25385771Y-117347666D02*
X25385771Y-117109571D01*
X25385771Y-117109571D02*
X25433390Y-117014333D01*
X25433390Y-117014333D02*
X25481009Y-116966714D01*
X25481009Y-116966714D02*
X25576247Y-116919095D01*
X25576247Y-116919095D02*
X25814342Y-116919095D01*
X25814342Y-116919095D02*
X25909580Y-116966714D01*
X25909580Y-116966714D02*
X25957200Y-117014333D01*
X25957200Y-117014333D02*
X26004819Y-117109571D01*
X26004819Y-117109571D02*
X26004819Y-117347666D01*
X26004819Y-117347666D02*
X25957200Y-117442904D01*
X25957200Y-117442904D02*
X25909580Y-117490523D01*
X13034819Y-152744785D02*
X12034819Y-152744785D01*
X12034819Y-152744785D02*
X12034819Y-152363833D01*
X12034819Y-152363833D02*
X12082438Y-152268595D01*
X12082438Y-152268595D02*
X12130057Y-152220976D01*
X12130057Y-152220976D02*
X12225295Y-152173357D01*
X12225295Y-152173357D02*
X12368152Y-152173357D01*
X12368152Y-152173357D02*
X12463390Y-152220976D01*
X12463390Y-152220976D02*
X12511009Y-152268595D01*
X12511009Y-152268595D02*
X12558628Y-152363833D01*
X12558628Y-152363833D02*
X12558628Y-152744785D01*
X12987200Y-151792404D02*
X13034819Y-151649547D01*
X13034819Y-151649547D02*
X13034819Y-151411452D01*
X13034819Y-151411452D02*
X12987200Y-151316214D01*
X12987200Y-151316214D02*
X12939580Y-151268595D01*
X12939580Y-151268595D02*
X12844342Y-151220976D01*
X12844342Y-151220976D02*
X12749104Y-151220976D01*
X12749104Y-151220976D02*
X12653866Y-151268595D01*
X12653866Y-151268595D02*
X12606247Y-151316214D01*
X12606247Y-151316214D02*
X12558628Y-151411452D01*
X12558628Y-151411452D02*
X12511009Y-151601928D01*
X12511009Y-151601928D02*
X12463390Y-151697166D01*
X12463390Y-151697166D02*
X12415771Y-151744785D01*
X12415771Y-151744785D02*
X12320533Y-151792404D01*
X12320533Y-151792404D02*
X12225295Y-151792404D01*
X12225295Y-151792404D02*
X12130057Y-151744785D01*
X12130057Y-151744785D02*
X12082438Y-151697166D01*
X12082438Y-151697166D02*
X12034819Y-151601928D01*
X12034819Y-151601928D02*
X12034819Y-151363833D01*
X12034819Y-151363833D02*
X12082438Y-151220976D01*
X13034819Y-150268595D02*
X13034819Y-150840023D01*
X13034819Y-150554309D02*
X12034819Y-150554309D01*
X12034819Y-150554309D02*
X12177676Y-150649547D01*
X12177676Y-150649547D02*
X12272914Y-150744785D01*
X12272914Y-150744785D02*
X12320533Y-150840023D01*
X64122666Y-146882419D02*
X64122666Y-147596704D01*
X64122666Y-147596704D02*
X64075047Y-147739561D01*
X64075047Y-147739561D02*
X63979809Y-147834800D01*
X63979809Y-147834800D02*
X63836952Y-147882419D01*
X63836952Y-147882419D02*
X63741714Y-147882419D01*
X64551238Y-146977657D02*
X64598857Y-146930038D01*
X64598857Y-146930038D02*
X64694095Y-146882419D01*
X64694095Y-146882419D02*
X64932190Y-146882419D01*
X64932190Y-146882419D02*
X65027428Y-146930038D01*
X65027428Y-146930038D02*
X65075047Y-146977657D01*
X65075047Y-146977657D02*
X65122666Y-147072895D01*
X65122666Y-147072895D02*
X65122666Y-147168133D01*
X65122666Y-147168133D02*
X65075047Y-147310990D01*
X65075047Y-147310990D02*
X64503619Y-147882419D01*
X64503619Y-147882419D02*
X65122666Y-147882419D01*
X23776522Y-118348819D02*
X23443189Y-117872628D01*
X23205094Y-118348819D02*
X23205094Y-117348819D01*
X23205094Y-117348819D02*
X23586046Y-117348819D01*
X23586046Y-117348819D02*
X23681284Y-117396438D01*
X23681284Y-117396438D02*
X23728903Y-117444057D01*
X23728903Y-117444057D02*
X23776522Y-117539295D01*
X23776522Y-117539295D02*
X23776522Y-117682152D01*
X23776522Y-117682152D02*
X23728903Y-117777390D01*
X23728903Y-117777390D02*
X23681284Y-117825009D01*
X23681284Y-117825009D02*
X23586046Y-117872628D01*
X23586046Y-117872628D02*
X23205094Y-117872628D01*
X24157475Y-117444057D02*
X24205094Y-117396438D01*
X24205094Y-117396438D02*
X24300332Y-117348819D01*
X24300332Y-117348819D02*
X24538427Y-117348819D01*
X24538427Y-117348819D02*
X24633665Y-117396438D01*
X24633665Y-117396438D02*
X24681284Y-117444057D01*
X24681284Y-117444057D02*
X24728903Y-117539295D01*
X24728903Y-117539295D02*
X24728903Y-117634533D01*
X24728903Y-117634533D02*
X24681284Y-117777390D01*
X24681284Y-117777390D02*
X24109856Y-118348819D01*
X24109856Y-118348819D02*
X24728903Y-118348819D01*
X25062237Y-117348819D02*
X25681284Y-117348819D01*
X25681284Y-117348819D02*
X25347951Y-117729771D01*
X25347951Y-117729771D02*
X25490808Y-117729771D01*
X25490808Y-117729771D02*
X25586046Y-117777390D01*
X25586046Y-117777390D02*
X25633665Y-117825009D01*
X25633665Y-117825009D02*
X25681284Y-117920247D01*
X25681284Y-117920247D02*
X25681284Y-118158342D01*
X25681284Y-118158342D02*
X25633665Y-118253580D01*
X25633665Y-118253580D02*
X25586046Y-118301200D01*
X25586046Y-118301200D02*
X25490808Y-118348819D01*
X25490808Y-118348819D02*
X25205094Y-118348819D01*
X25205094Y-118348819D02*
X25109856Y-118301200D01*
X25109856Y-118301200D02*
X25062237Y-118253580D01*
X30651580Y-68206857D02*
X30699200Y-68254476D01*
X30699200Y-68254476D02*
X30746819Y-68397333D01*
X30746819Y-68397333D02*
X30746819Y-68492571D01*
X30746819Y-68492571D02*
X30699200Y-68635428D01*
X30699200Y-68635428D02*
X30603961Y-68730666D01*
X30603961Y-68730666D02*
X30508723Y-68778285D01*
X30508723Y-68778285D02*
X30318247Y-68825904D01*
X30318247Y-68825904D02*
X30175390Y-68825904D01*
X30175390Y-68825904D02*
X29984914Y-68778285D01*
X29984914Y-68778285D02*
X29889676Y-68730666D01*
X29889676Y-68730666D02*
X29794438Y-68635428D01*
X29794438Y-68635428D02*
X29746819Y-68492571D01*
X29746819Y-68492571D02*
X29746819Y-68397333D01*
X29746819Y-68397333D02*
X29794438Y-68254476D01*
X29794438Y-68254476D02*
X29842057Y-68206857D01*
X29842057Y-67825904D02*
X29794438Y-67778285D01*
X29794438Y-67778285D02*
X29746819Y-67683047D01*
X29746819Y-67683047D02*
X29746819Y-67444952D01*
X29746819Y-67444952D02*
X29794438Y-67349714D01*
X29794438Y-67349714D02*
X29842057Y-67302095D01*
X29842057Y-67302095D02*
X29937295Y-67254476D01*
X29937295Y-67254476D02*
X30032533Y-67254476D01*
X30032533Y-67254476D02*
X30175390Y-67302095D01*
X30175390Y-67302095D02*
X30746819Y-67873523D01*
X30746819Y-67873523D02*
X30746819Y-67254476D01*
X29746819Y-66349714D02*
X29746819Y-66825904D01*
X29746819Y-66825904D02*
X30223009Y-66873523D01*
X30223009Y-66873523D02*
X30175390Y-66825904D01*
X30175390Y-66825904D02*
X30127771Y-66730666D01*
X30127771Y-66730666D02*
X30127771Y-66492571D01*
X30127771Y-66492571D02*
X30175390Y-66397333D01*
X30175390Y-66397333D02*
X30223009Y-66349714D01*
X30223009Y-66349714D02*
X30318247Y-66302095D01*
X30318247Y-66302095D02*
X30556342Y-66302095D01*
X30556342Y-66302095D02*
X30651580Y-66349714D01*
X30651580Y-66349714D02*
X30699200Y-66397333D01*
X30699200Y-66397333D02*
X30746819Y-66492571D01*
X30746819Y-66492571D02*
X30746819Y-66730666D01*
X30746819Y-66730666D02*
X30699200Y-66825904D01*
X30699200Y-66825904D02*
X30651580Y-66873523D01*
X20968819Y-68746666D02*
X20492628Y-69079999D01*
X20968819Y-69318094D02*
X19968819Y-69318094D01*
X19968819Y-69318094D02*
X19968819Y-68937142D01*
X19968819Y-68937142D02*
X20016438Y-68841904D01*
X20016438Y-68841904D02*
X20064057Y-68794285D01*
X20064057Y-68794285D02*
X20159295Y-68746666D01*
X20159295Y-68746666D02*
X20302152Y-68746666D01*
X20302152Y-68746666D02*
X20397390Y-68794285D01*
X20397390Y-68794285D02*
X20445009Y-68841904D01*
X20445009Y-68841904D02*
X20492628Y-68937142D01*
X20492628Y-68937142D02*
X20492628Y-69318094D01*
X19968819Y-67841904D02*
X19968819Y-68318094D01*
X19968819Y-68318094D02*
X20445009Y-68365713D01*
X20445009Y-68365713D02*
X20397390Y-68318094D01*
X20397390Y-68318094D02*
X20349771Y-68222856D01*
X20349771Y-68222856D02*
X20349771Y-67984761D01*
X20349771Y-67984761D02*
X20397390Y-67889523D01*
X20397390Y-67889523D02*
X20445009Y-67841904D01*
X20445009Y-67841904D02*
X20540247Y-67794285D01*
X20540247Y-67794285D02*
X20778342Y-67794285D01*
X20778342Y-67794285D02*
X20873580Y-67841904D01*
X20873580Y-67841904D02*
X20921200Y-67889523D01*
X20921200Y-67889523D02*
X20968819Y-67984761D01*
X20968819Y-67984761D02*
X20968819Y-68222856D01*
X20968819Y-68222856D02*
X20921200Y-68318094D01*
X20921200Y-68318094D02*
X20873580Y-68365713D01*
X22264810Y-119675819D02*
X22264810Y-118675819D01*
X23312428Y-119580580D02*
X23264809Y-119628200D01*
X23264809Y-119628200D02*
X23121952Y-119675819D01*
X23121952Y-119675819D02*
X23026714Y-119675819D01*
X23026714Y-119675819D02*
X22883857Y-119628200D01*
X22883857Y-119628200D02*
X22788619Y-119532961D01*
X22788619Y-119532961D02*
X22741000Y-119437723D01*
X22741000Y-119437723D02*
X22693381Y-119247247D01*
X22693381Y-119247247D02*
X22693381Y-119104390D01*
X22693381Y-119104390D02*
X22741000Y-118913914D01*
X22741000Y-118913914D02*
X22788619Y-118818676D01*
X22788619Y-118818676D02*
X22883857Y-118723438D01*
X22883857Y-118723438D02*
X23026714Y-118675819D01*
X23026714Y-118675819D02*
X23121952Y-118675819D01*
X23121952Y-118675819D02*
X23264809Y-118723438D01*
X23264809Y-118723438D02*
X23312428Y-118771057D01*
X23645762Y-118675819D02*
X24264809Y-118675819D01*
X24264809Y-118675819D02*
X23931476Y-119056771D01*
X23931476Y-119056771D02*
X24074333Y-119056771D01*
X24074333Y-119056771D02*
X24169571Y-119104390D01*
X24169571Y-119104390D02*
X24217190Y-119152009D01*
X24217190Y-119152009D02*
X24264809Y-119247247D01*
X24264809Y-119247247D02*
X24264809Y-119485342D01*
X24264809Y-119485342D02*
X24217190Y-119580580D01*
X24217190Y-119580580D02*
X24169571Y-119628200D01*
X24169571Y-119628200D02*
X24074333Y-119675819D01*
X24074333Y-119675819D02*
X23788619Y-119675819D01*
X23788619Y-119675819D02*
X23693381Y-119628200D01*
X23693381Y-119628200D02*
X23645762Y-119580580D01*
X81009019Y-126366494D02*
X80009019Y-126366494D01*
X80009019Y-126366494D02*
X80009019Y-126128399D01*
X80009019Y-126128399D02*
X80056638Y-125985542D01*
X80056638Y-125985542D02*
X80151876Y-125890304D01*
X80151876Y-125890304D02*
X80247114Y-125842685D01*
X80247114Y-125842685D02*
X80437590Y-125795066D01*
X80437590Y-125795066D02*
X80580447Y-125795066D01*
X80580447Y-125795066D02*
X80770923Y-125842685D01*
X80770923Y-125842685D02*
X80866161Y-125890304D01*
X80866161Y-125890304D02*
X80961400Y-125985542D01*
X80961400Y-125985542D02*
X81009019Y-126128399D01*
X81009019Y-126128399D02*
X81009019Y-126366494D01*
X80009019Y-124937923D02*
X80009019Y-125128399D01*
X80009019Y-125128399D02*
X80056638Y-125223637D01*
X80056638Y-125223637D02*
X80104257Y-125271256D01*
X80104257Y-125271256D02*
X80247114Y-125366494D01*
X80247114Y-125366494D02*
X80437590Y-125414113D01*
X80437590Y-125414113D02*
X80818542Y-125414113D01*
X80818542Y-125414113D02*
X80913780Y-125366494D01*
X80913780Y-125366494D02*
X80961400Y-125318875D01*
X80961400Y-125318875D02*
X81009019Y-125223637D01*
X81009019Y-125223637D02*
X81009019Y-125033161D01*
X81009019Y-125033161D02*
X80961400Y-124937923D01*
X80961400Y-124937923D02*
X80913780Y-124890304D01*
X80913780Y-124890304D02*
X80818542Y-124842685D01*
X80818542Y-124842685D02*
X80580447Y-124842685D01*
X80580447Y-124842685D02*
X80485209Y-124890304D01*
X80485209Y-124890304D02*
X80437590Y-124937923D01*
X80437590Y-124937923D02*
X80389971Y-125033161D01*
X80389971Y-125033161D02*
X80389971Y-125223637D01*
X80389971Y-125223637D02*
X80437590Y-125318875D01*
X80437590Y-125318875D02*
X80485209Y-125366494D01*
X80485209Y-125366494D02*
X80580447Y-125414113D01*
X58009819Y-144933333D02*
X58724104Y-144933333D01*
X58724104Y-144933333D02*
X58866961Y-144980952D01*
X58866961Y-144980952D02*
X58962200Y-145076190D01*
X58962200Y-145076190D02*
X59009819Y-145219047D01*
X59009819Y-145219047D02*
X59009819Y-145314285D01*
X59009819Y-144409523D02*
X59009819Y-144219047D01*
X59009819Y-144219047D02*
X58962200Y-144123809D01*
X58962200Y-144123809D02*
X58914580Y-144076190D01*
X58914580Y-144076190D02*
X58771723Y-143980952D01*
X58771723Y-143980952D02*
X58581247Y-143933333D01*
X58581247Y-143933333D02*
X58200295Y-143933333D01*
X58200295Y-143933333D02*
X58105057Y-143980952D01*
X58105057Y-143980952D02*
X58057438Y-144028571D01*
X58057438Y-144028571D02*
X58009819Y-144123809D01*
X58009819Y-144123809D02*
X58009819Y-144314285D01*
X58009819Y-144314285D02*
X58057438Y-144409523D01*
X58057438Y-144409523D02*
X58105057Y-144457142D01*
X58105057Y-144457142D02*
X58200295Y-144504761D01*
X58200295Y-144504761D02*
X58438390Y-144504761D01*
X58438390Y-144504761D02*
X58533628Y-144457142D01*
X58533628Y-144457142D02*
X58581247Y-144409523D01*
X58581247Y-144409523D02*
X58628866Y-144314285D01*
X58628866Y-144314285D02*
X58628866Y-144123809D01*
X58628866Y-144123809D02*
X58581247Y-144028571D01*
X58581247Y-144028571D02*
X58533628Y-143980952D01*
X58533628Y-143980952D02*
X58438390Y-143933333D01*
X60257142Y-140754819D02*
X59923809Y-140278628D01*
X59685714Y-140754819D02*
X59685714Y-139754819D01*
X59685714Y-139754819D02*
X60066666Y-139754819D01*
X60066666Y-139754819D02*
X60161904Y-139802438D01*
X60161904Y-139802438D02*
X60209523Y-139850057D01*
X60209523Y-139850057D02*
X60257142Y-139945295D01*
X60257142Y-139945295D02*
X60257142Y-140088152D01*
X60257142Y-140088152D02*
X60209523Y-140183390D01*
X60209523Y-140183390D02*
X60161904Y-140231009D01*
X60161904Y-140231009D02*
X60066666Y-140278628D01*
X60066666Y-140278628D02*
X59685714Y-140278628D01*
X60638095Y-139850057D02*
X60685714Y-139802438D01*
X60685714Y-139802438D02*
X60780952Y-139754819D01*
X60780952Y-139754819D02*
X61019047Y-139754819D01*
X61019047Y-139754819D02*
X61114285Y-139802438D01*
X61114285Y-139802438D02*
X61161904Y-139850057D01*
X61161904Y-139850057D02*
X61209523Y-139945295D01*
X61209523Y-139945295D02*
X61209523Y-140040533D01*
X61209523Y-140040533D02*
X61161904Y-140183390D01*
X61161904Y-140183390D02*
X60590476Y-140754819D01*
X60590476Y-140754819D02*
X61209523Y-140754819D01*
X61780952Y-140183390D02*
X61685714Y-140135771D01*
X61685714Y-140135771D02*
X61638095Y-140088152D01*
X61638095Y-140088152D02*
X61590476Y-139992914D01*
X61590476Y-139992914D02*
X61590476Y-139945295D01*
X61590476Y-139945295D02*
X61638095Y-139850057D01*
X61638095Y-139850057D02*
X61685714Y-139802438D01*
X61685714Y-139802438D02*
X61780952Y-139754819D01*
X61780952Y-139754819D02*
X61971428Y-139754819D01*
X61971428Y-139754819D02*
X62066666Y-139802438D01*
X62066666Y-139802438D02*
X62114285Y-139850057D01*
X62114285Y-139850057D02*
X62161904Y-139945295D01*
X62161904Y-139945295D02*
X62161904Y-139992914D01*
X62161904Y-139992914D02*
X62114285Y-140088152D01*
X62114285Y-140088152D02*
X62066666Y-140135771D01*
X62066666Y-140135771D02*
X61971428Y-140183390D01*
X61971428Y-140183390D02*
X61780952Y-140183390D01*
X61780952Y-140183390D02*
X61685714Y-140231009D01*
X61685714Y-140231009D02*
X61638095Y-140278628D01*
X61638095Y-140278628D02*
X61590476Y-140373866D01*
X61590476Y-140373866D02*
X61590476Y-140564342D01*
X61590476Y-140564342D02*
X61638095Y-140659580D01*
X61638095Y-140659580D02*
X61685714Y-140707200D01*
X61685714Y-140707200D02*
X61780952Y-140754819D01*
X61780952Y-140754819D02*
X61971428Y-140754819D01*
X61971428Y-140754819D02*
X62066666Y-140707200D01*
X62066666Y-140707200D02*
X62114285Y-140659580D01*
X62114285Y-140659580D02*
X62161904Y-140564342D01*
X62161904Y-140564342D02*
X62161904Y-140373866D01*
X62161904Y-140373866D02*
X62114285Y-140278628D01*
X62114285Y-140278628D02*
X62066666Y-140231009D01*
X62066666Y-140231009D02*
X61971428Y-140183390D01*
X87577019Y-159997733D02*
X88291304Y-159997733D01*
X88291304Y-159997733D02*
X88434161Y-160045352D01*
X88434161Y-160045352D02*
X88529400Y-160140590D01*
X88529400Y-160140590D02*
X88577019Y-160283447D01*
X88577019Y-160283447D02*
X88577019Y-160378685D01*
X87577019Y-159616780D02*
X87577019Y-158997733D01*
X87577019Y-158997733D02*
X87957971Y-159331066D01*
X87957971Y-159331066D02*
X87957971Y-159188209D01*
X87957971Y-159188209D02*
X88005590Y-159092971D01*
X88005590Y-159092971D02*
X88053209Y-159045352D01*
X88053209Y-159045352D02*
X88148447Y-158997733D01*
X88148447Y-158997733D02*
X88386542Y-158997733D01*
X88386542Y-158997733D02*
X88481780Y-159045352D01*
X88481780Y-159045352D02*
X88529400Y-159092971D01*
X88529400Y-159092971D02*
X88577019Y-159188209D01*
X88577019Y-159188209D02*
X88577019Y-159473923D01*
X88577019Y-159473923D02*
X88529400Y-159569161D01*
X88529400Y-159569161D02*
X88481780Y-159616780D01*
X76371842Y-150662819D02*
X76038509Y-150186628D01*
X75800414Y-150662819D02*
X75800414Y-149662819D01*
X75800414Y-149662819D02*
X76181366Y-149662819D01*
X76181366Y-149662819D02*
X76276604Y-149710438D01*
X76276604Y-149710438D02*
X76324223Y-149758057D01*
X76324223Y-149758057D02*
X76371842Y-149853295D01*
X76371842Y-149853295D02*
X76371842Y-149996152D01*
X76371842Y-149996152D02*
X76324223Y-150091390D01*
X76324223Y-150091390D02*
X76276604Y-150139009D01*
X76276604Y-150139009D02*
X76181366Y-150186628D01*
X76181366Y-150186628D02*
X75800414Y-150186628D01*
X77324223Y-150662819D02*
X76752795Y-150662819D01*
X77038509Y-150662819D02*
X77038509Y-149662819D01*
X77038509Y-149662819D02*
X76943271Y-149805676D01*
X76943271Y-149805676D02*
X76848033Y-149900914D01*
X76848033Y-149900914D02*
X76752795Y-149948533D01*
X77895652Y-150091390D02*
X77800414Y-150043771D01*
X77800414Y-150043771D02*
X77752795Y-149996152D01*
X77752795Y-149996152D02*
X77705176Y-149900914D01*
X77705176Y-149900914D02*
X77705176Y-149853295D01*
X77705176Y-149853295D02*
X77752795Y-149758057D01*
X77752795Y-149758057D02*
X77800414Y-149710438D01*
X77800414Y-149710438D02*
X77895652Y-149662819D01*
X77895652Y-149662819D02*
X78086128Y-149662819D01*
X78086128Y-149662819D02*
X78181366Y-149710438D01*
X78181366Y-149710438D02*
X78228985Y-149758057D01*
X78228985Y-149758057D02*
X78276604Y-149853295D01*
X78276604Y-149853295D02*
X78276604Y-149900914D01*
X78276604Y-149900914D02*
X78228985Y-149996152D01*
X78228985Y-149996152D02*
X78181366Y-150043771D01*
X78181366Y-150043771D02*
X78086128Y-150091390D01*
X78086128Y-150091390D02*
X77895652Y-150091390D01*
X77895652Y-150091390D02*
X77800414Y-150139009D01*
X77800414Y-150139009D02*
X77752795Y-150186628D01*
X77752795Y-150186628D02*
X77705176Y-150281866D01*
X77705176Y-150281866D02*
X77705176Y-150472342D01*
X77705176Y-150472342D02*
X77752795Y-150567580D01*
X77752795Y-150567580D02*
X77800414Y-150615200D01*
X77800414Y-150615200D02*
X77895652Y-150662819D01*
X77895652Y-150662819D02*
X78086128Y-150662819D01*
X78086128Y-150662819D02*
X78181366Y-150615200D01*
X78181366Y-150615200D02*
X78228985Y-150567580D01*
X78228985Y-150567580D02*
X78276604Y-150472342D01*
X78276604Y-150472342D02*
X78276604Y-150281866D01*
X78276604Y-150281866D02*
X78228985Y-150186628D01*
X78228985Y-150186628D02*
X78181366Y-150139009D01*
X78181366Y-150139009D02*
X78086128Y-150091390D01*
X41883333Y-131809580D02*
X41835714Y-131857200D01*
X41835714Y-131857200D02*
X41692857Y-131904819D01*
X41692857Y-131904819D02*
X41597619Y-131904819D01*
X41597619Y-131904819D02*
X41454762Y-131857200D01*
X41454762Y-131857200D02*
X41359524Y-131761961D01*
X41359524Y-131761961D02*
X41311905Y-131666723D01*
X41311905Y-131666723D02*
X41264286Y-131476247D01*
X41264286Y-131476247D02*
X41264286Y-131333390D01*
X41264286Y-131333390D02*
X41311905Y-131142914D01*
X41311905Y-131142914D02*
X41359524Y-131047676D01*
X41359524Y-131047676D02*
X41454762Y-130952438D01*
X41454762Y-130952438D02*
X41597619Y-130904819D01*
X41597619Y-130904819D02*
X41692857Y-130904819D01*
X41692857Y-130904819D02*
X41835714Y-130952438D01*
X41835714Y-130952438D02*
X41883333Y-131000057D01*
X42216667Y-130904819D02*
X42835714Y-130904819D01*
X42835714Y-130904819D02*
X42502381Y-131285771D01*
X42502381Y-131285771D02*
X42645238Y-131285771D01*
X42645238Y-131285771D02*
X42740476Y-131333390D01*
X42740476Y-131333390D02*
X42788095Y-131381009D01*
X42788095Y-131381009D02*
X42835714Y-131476247D01*
X42835714Y-131476247D02*
X42835714Y-131714342D01*
X42835714Y-131714342D02*
X42788095Y-131809580D01*
X42788095Y-131809580D02*
X42740476Y-131857200D01*
X42740476Y-131857200D02*
X42645238Y-131904819D01*
X42645238Y-131904819D02*
X42359524Y-131904819D01*
X42359524Y-131904819D02*
X42264286Y-131857200D01*
X42264286Y-131857200D02*
X42216667Y-131809580D01*
X41871780Y-149858657D02*
X41919400Y-149906276D01*
X41919400Y-149906276D02*
X41967019Y-150049133D01*
X41967019Y-150049133D02*
X41967019Y-150144371D01*
X41967019Y-150144371D02*
X41919400Y-150287228D01*
X41919400Y-150287228D02*
X41824161Y-150382466D01*
X41824161Y-150382466D02*
X41728923Y-150430085D01*
X41728923Y-150430085D02*
X41538447Y-150477704D01*
X41538447Y-150477704D02*
X41395590Y-150477704D01*
X41395590Y-150477704D02*
X41205114Y-150430085D01*
X41205114Y-150430085D02*
X41109876Y-150382466D01*
X41109876Y-150382466D02*
X41014638Y-150287228D01*
X41014638Y-150287228D02*
X40967019Y-150144371D01*
X40967019Y-150144371D02*
X40967019Y-150049133D01*
X40967019Y-150049133D02*
X41014638Y-149906276D01*
X41014638Y-149906276D02*
X41062257Y-149858657D01*
X41967019Y-148906276D02*
X41967019Y-149477704D01*
X41967019Y-149191990D02*
X40967019Y-149191990D01*
X40967019Y-149191990D02*
X41109876Y-149287228D01*
X41109876Y-149287228D02*
X41205114Y-149382466D01*
X41205114Y-149382466D02*
X41252733Y-149477704D01*
X40967019Y-148001514D02*
X40967019Y-148477704D01*
X40967019Y-148477704D02*
X41443209Y-148525323D01*
X41443209Y-148525323D02*
X41395590Y-148477704D01*
X41395590Y-148477704D02*
X41347971Y-148382466D01*
X41347971Y-148382466D02*
X41347971Y-148144371D01*
X41347971Y-148144371D02*
X41395590Y-148049133D01*
X41395590Y-148049133D02*
X41443209Y-148001514D01*
X41443209Y-148001514D02*
X41538447Y-147953895D01*
X41538447Y-147953895D02*
X41776542Y-147953895D01*
X41776542Y-147953895D02*
X41871780Y-148001514D01*
X41871780Y-148001514D02*
X41919400Y-148049133D01*
X41919400Y-148049133D02*
X41967019Y-148144371D01*
X41967019Y-148144371D02*
X41967019Y-148382466D01*
X41967019Y-148382466D02*
X41919400Y-148477704D01*
X41919400Y-148477704D02*
X41871780Y-148525323D01*
X50239819Y-129325666D02*
X49763628Y-129658999D01*
X50239819Y-129897094D02*
X49239819Y-129897094D01*
X49239819Y-129897094D02*
X49239819Y-129516142D01*
X49239819Y-129516142D02*
X49287438Y-129420904D01*
X49287438Y-129420904D02*
X49335057Y-129373285D01*
X49335057Y-129373285D02*
X49430295Y-129325666D01*
X49430295Y-129325666D02*
X49573152Y-129325666D01*
X49573152Y-129325666D02*
X49668390Y-129373285D01*
X49668390Y-129373285D02*
X49716009Y-129420904D01*
X49716009Y-129420904D02*
X49763628Y-129516142D01*
X49763628Y-129516142D02*
X49763628Y-129897094D01*
X50239819Y-128373285D02*
X50239819Y-128944713D01*
X50239819Y-128658999D02*
X49239819Y-128658999D01*
X49239819Y-128658999D02*
X49382676Y-128754237D01*
X49382676Y-128754237D02*
X49477914Y-128849475D01*
X49477914Y-128849475D02*
X49525533Y-128944713D01*
X74437419Y-130468666D02*
X73961228Y-130801999D01*
X74437419Y-131040094D02*
X73437419Y-131040094D01*
X73437419Y-131040094D02*
X73437419Y-130659142D01*
X73437419Y-130659142D02*
X73485038Y-130563904D01*
X73485038Y-130563904D02*
X73532657Y-130516285D01*
X73532657Y-130516285D02*
X73627895Y-130468666D01*
X73627895Y-130468666D02*
X73770752Y-130468666D01*
X73770752Y-130468666D02*
X73865990Y-130516285D01*
X73865990Y-130516285D02*
X73913609Y-130563904D01*
X73913609Y-130563904D02*
X73961228Y-130659142D01*
X73961228Y-130659142D02*
X73961228Y-131040094D01*
X73770752Y-129611523D02*
X74437419Y-129611523D01*
X73389800Y-129849618D02*
X74104085Y-130087713D01*
X74104085Y-130087713D02*
X74104085Y-129468666D01*
X72451619Y-159296404D02*
X73261142Y-159296404D01*
X73261142Y-159296404D02*
X73356380Y-159248785D01*
X73356380Y-159248785D02*
X73404000Y-159201166D01*
X73404000Y-159201166D02*
X73451619Y-159105928D01*
X73451619Y-159105928D02*
X73451619Y-158915452D01*
X73451619Y-158915452D02*
X73404000Y-158820214D01*
X73404000Y-158820214D02*
X73356380Y-158772595D01*
X73356380Y-158772595D02*
X73261142Y-158724976D01*
X73261142Y-158724976D02*
X72451619Y-158724976D01*
X72546857Y-158296404D02*
X72499238Y-158248785D01*
X72499238Y-158248785D02*
X72451619Y-158153547D01*
X72451619Y-158153547D02*
X72451619Y-157915452D01*
X72451619Y-157915452D02*
X72499238Y-157820214D01*
X72499238Y-157820214D02*
X72546857Y-157772595D01*
X72546857Y-157772595D02*
X72642095Y-157724976D01*
X72642095Y-157724976D02*
X72737333Y-157724976D01*
X72737333Y-157724976D02*
X72880190Y-157772595D01*
X72880190Y-157772595D02*
X73451619Y-158344023D01*
X73451619Y-158344023D02*
X73451619Y-157724976D01*
X85290476Y-74264819D02*
X85290476Y-74979104D01*
X85290476Y-74979104D02*
X85242857Y-75121961D01*
X85242857Y-75121961D02*
X85147619Y-75217200D01*
X85147619Y-75217200D02*
X85004762Y-75264819D01*
X85004762Y-75264819D02*
X84909524Y-75264819D01*
X86290476Y-75264819D02*
X85719048Y-75264819D01*
X86004762Y-75264819D02*
X86004762Y-74264819D01*
X86004762Y-74264819D02*
X85909524Y-74407676D01*
X85909524Y-74407676D02*
X85814286Y-74502914D01*
X85814286Y-74502914D02*
X85719048Y-74550533D01*
X86623810Y-74264819D02*
X87242857Y-74264819D01*
X87242857Y-74264819D02*
X86909524Y-74645771D01*
X86909524Y-74645771D02*
X87052381Y-74645771D01*
X87052381Y-74645771D02*
X87147619Y-74693390D01*
X87147619Y-74693390D02*
X87195238Y-74741009D01*
X87195238Y-74741009D02*
X87242857Y-74836247D01*
X87242857Y-74836247D02*
X87242857Y-75074342D01*
X87242857Y-75074342D02*
X87195238Y-75169580D01*
X87195238Y-75169580D02*
X87147619Y-75217200D01*
X87147619Y-75217200D02*
X87052381Y-75264819D01*
X87052381Y-75264819D02*
X86766667Y-75264819D01*
X86766667Y-75264819D02*
X86671429Y-75217200D01*
X86671429Y-75217200D02*
X86623810Y-75169580D01*
X76346442Y-147538619D02*
X76013109Y-147062428D01*
X75775014Y-147538619D02*
X75775014Y-146538619D01*
X75775014Y-146538619D02*
X76155966Y-146538619D01*
X76155966Y-146538619D02*
X76251204Y-146586238D01*
X76251204Y-146586238D02*
X76298823Y-146633857D01*
X76298823Y-146633857D02*
X76346442Y-146729095D01*
X76346442Y-146729095D02*
X76346442Y-146871952D01*
X76346442Y-146871952D02*
X76298823Y-146967190D01*
X76298823Y-146967190D02*
X76251204Y-147014809D01*
X76251204Y-147014809D02*
X76155966Y-147062428D01*
X76155966Y-147062428D02*
X75775014Y-147062428D01*
X76727395Y-146633857D02*
X76775014Y-146586238D01*
X76775014Y-146586238D02*
X76870252Y-146538619D01*
X76870252Y-146538619D02*
X77108347Y-146538619D01*
X77108347Y-146538619D02*
X77203585Y-146586238D01*
X77203585Y-146586238D02*
X77251204Y-146633857D01*
X77251204Y-146633857D02*
X77298823Y-146729095D01*
X77298823Y-146729095D02*
X77298823Y-146824333D01*
X77298823Y-146824333D02*
X77251204Y-146967190D01*
X77251204Y-146967190D02*
X76679776Y-147538619D01*
X76679776Y-147538619D02*
X77298823Y-147538619D01*
X77917871Y-146538619D02*
X78013109Y-146538619D01*
X78013109Y-146538619D02*
X78108347Y-146586238D01*
X78108347Y-146586238D02*
X78155966Y-146633857D01*
X78155966Y-146633857D02*
X78203585Y-146729095D01*
X78203585Y-146729095D02*
X78251204Y-146919571D01*
X78251204Y-146919571D02*
X78251204Y-147157666D01*
X78251204Y-147157666D02*
X78203585Y-147348142D01*
X78203585Y-147348142D02*
X78155966Y-147443380D01*
X78155966Y-147443380D02*
X78108347Y-147491000D01*
X78108347Y-147491000D02*
X78013109Y-147538619D01*
X78013109Y-147538619D02*
X77917871Y-147538619D01*
X77917871Y-147538619D02*
X77822633Y-147491000D01*
X77822633Y-147491000D02*
X77775014Y-147443380D01*
X77775014Y-147443380D02*
X77727395Y-147348142D01*
X77727395Y-147348142D02*
X77679776Y-147157666D01*
X77679776Y-147157666D02*
X77679776Y-146919571D01*
X77679776Y-146919571D02*
X77727395Y-146729095D01*
X77727395Y-146729095D02*
X77775014Y-146633857D01*
X77775014Y-146633857D02*
X77822633Y-146586238D01*
X77822633Y-146586238D02*
X77917871Y-146538619D01*
X46982142Y-133996580D02*
X46934523Y-134044200D01*
X46934523Y-134044200D02*
X46791666Y-134091819D01*
X46791666Y-134091819D02*
X46696428Y-134091819D01*
X46696428Y-134091819D02*
X46553571Y-134044200D01*
X46553571Y-134044200D02*
X46458333Y-133948961D01*
X46458333Y-133948961D02*
X46410714Y-133853723D01*
X46410714Y-133853723D02*
X46363095Y-133663247D01*
X46363095Y-133663247D02*
X46363095Y-133520390D01*
X46363095Y-133520390D02*
X46410714Y-133329914D01*
X46410714Y-133329914D02*
X46458333Y-133234676D01*
X46458333Y-133234676D02*
X46553571Y-133139438D01*
X46553571Y-133139438D02*
X46696428Y-133091819D01*
X46696428Y-133091819D02*
X46791666Y-133091819D01*
X46791666Y-133091819D02*
X46934523Y-133139438D01*
X46934523Y-133139438D02*
X46982142Y-133187057D01*
X47363095Y-133187057D02*
X47410714Y-133139438D01*
X47410714Y-133139438D02*
X47505952Y-133091819D01*
X47505952Y-133091819D02*
X47744047Y-133091819D01*
X47744047Y-133091819D02*
X47839285Y-133139438D01*
X47839285Y-133139438D02*
X47886904Y-133187057D01*
X47886904Y-133187057D02*
X47934523Y-133282295D01*
X47934523Y-133282295D02*
X47934523Y-133377533D01*
X47934523Y-133377533D02*
X47886904Y-133520390D01*
X47886904Y-133520390D02*
X47315476Y-134091819D01*
X47315476Y-134091819D02*
X47934523Y-134091819D01*
X48553571Y-133091819D02*
X48648809Y-133091819D01*
X48648809Y-133091819D02*
X48744047Y-133139438D01*
X48744047Y-133139438D02*
X48791666Y-133187057D01*
X48791666Y-133187057D02*
X48839285Y-133282295D01*
X48839285Y-133282295D02*
X48886904Y-133472771D01*
X48886904Y-133472771D02*
X48886904Y-133710866D01*
X48886904Y-133710866D02*
X48839285Y-133901342D01*
X48839285Y-133901342D02*
X48791666Y-133996580D01*
X48791666Y-133996580D02*
X48744047Y-134044200D01*
X48744047Y-134044200D02*
X48648809Y-134091819D01*
X48648809Y-134091819D02*
X48553571Y-134091819D01*
X48553571Y-134091819D02*
X48458333Y-134044200D01*
X48458333Y-134044200D02*
X48410714Y-133996580D01*
X48410714Y-133996580D02*
X48363095Y-133901342D01*
X48363095Y-133901342D02*
X48315476Y-133710866D01*
X48315476Y-133710866D02*
X48315476Y-133472771D01*
X48315476Y-133472771D02*
X48363095Y-133282295D01*
X48363095Y-133282295D02*
X48410714Y-133187057D01*
X48410714Y-133187057D02*
X48458333Y-133139438D01*
X48458333Y-133139438D02*
X48553571Y-133091819D01*
X89569819Y-78883333D02*
X90284104Y-78883333D01*
X90284104Y-78883333D02*
X90426961Y-78930952D01*
X90426961Y-78930952D02*
X90522200Y-79026190D01*
X90522200Y-79026190D02*
X90569819Y-79169047D01*
X90569819Y-79169047D02*
X90569819Y-79264285D01*
X89998390Y-78264285D02*
X89950771Y-78359523D01*
X89950771Y-78359523D02*
X89903152Y-78407142D01*
X89903152Y-78407142D02*
X89807914Y-78454761D01*
X89807914Y-78454761D02*
X89760295Y-78454761D01*
X89760295Y-78454761D02*
X89665057Y-78407142D01*
X89665057Y-78407142D02*
X89617438Y-78359523D01*
X89617438Y-78359523D02*
X89569819Y-78264285D01*
X89569819Y-78264285D02*
X89569819Y-78073809D01*
X89569819Y-78073809D02*
X89617438Y-77978571D01*
X89617438Y-77978571D02*
X89665057Y-77930952D01*
X89665057Y-77930952D02*
X89760295Y-77883333D01*
X89760295Y-77883333D02*
X89807914Y-77883333D01*
X89807914Y-77883333D02*
X89903152Y-77930952D01*
X89903152Y-77930952D02*
X89950771Y-77978571D01*
X89950771Y-77978571D02*
X89998390Y-78073809D01*
X89998390Y-78073809D02*
X89998390Y-78264285D01*
X89998390Y-78264285D02*
X90046009Y-78359523D01*
X90046009Y-78359523D02*
X90093628Y-78407142D01*
X90093628Y-78407142D02*
X90188866Y-78454761D01*
X90188866Y-78454761D02*
X90379342Y-78454761D01*
X90379342Y-78454761D02*
X90474580Y-78407142D01*
X90474580Y-78407142D02*
X90522200Y-78359523D01*
X90522200Y-78359523D02*
X90569819Y-78264285D01*
X90569819Y-78264285D02*
X90569819Y-78073809D01*
X90569819Y-78073809D02*
X90522200Y-77978571D01*
X90522200Y-77978571D02*
X90474580Y-77930952D01*
X90474580Y-77930952D02*
X90379342Y-77883333D01*
X90379342Y-77883333D02*
X90188866Y-77883333D01*
X90188866Y-77883333D02*
X90093628Y-77930952D01*
X90093628Y-77930952D02*
X90046009Y-77978571D01*
X90046009Y-77978571D02*
X89998390Y-78073809D01*
X40057142Y-144729580D02*
X40009523Y-144777200D01*
X40009523Y-144777200D02*
X39866666Y-144824819D01*
X39866666Y-144824819D02*
X39771428Y-144824819D01*
X39771428Y-144824819D02*
X39628571Y-144777200D01*
X39628571Y-144777200D02*
X39533333Y-144681961D01*
X39533333Y-144681961D02*
X39485714Y-144586723D01*
X39485714Y-144586723D02*
X39438095Y-144396247D01*
X39438095Y-144396247D02*
X39438095Y-144253390D01*
X39438095Y-144253390D02*
X39485714Y-144062914D01*
X39485714Y-144062914D02*
X39533333Y-143967676D01*
X39533333Y-143967676D02*
X39628571Y-143872438D01*
X39628571Y-143872438D02*
X39771428Y-143824819D01*
X39771428Y-143824819D02*
X39866666Y-143824819D01*
X39866666Y-143824819D02*
X40009523Y-143872438D01*
X40009523Y-143872438D02*
X40057142Y-143920057D01*
X40390476Y-143824819D02*
X41009523Y-143824819D01*
X41009523Y-143824819D02*
X40676190Y-144205771D01*
X40676190Y-144205771D02*
X40819047Y-144205771D01*
X40819047Y-144205771D02*
X40914285Y-144253390D01*
X40914285Y-144253390D02*
X40961904Y-144301009D01*
X40961904Y-144301009D02*
X41009523Y-144396247D01*
X41009523Y-144396247D02*
X41009523Y-144634342D01*
X41009523Y-144634342D02*
X40961904Y-144729580D01*
X40961904Y-144729580D02*
X40914285Y-144777200D01*
X40914285Y-144777200D02*
X40819047Y-144824819D01*
X40819047Y-144824819D02*
X40533333Y-144824819D01*
X40533333Y-144824819D02*
X40438095Y-144777200D01*
X40438095Y-144777200D02*
X40390476Y-144729580D01*
X41866666Y-143824819D02*
X41676190Y-143824819D01*
X41676190Y-143824819D02*
X41580952Y-143872438D01*
X41580952Y-143872438D02*
X41533333Y-143920057D01*
X41533333Y-143920057D02*
X41438095Y-144062914D01*
X41438095Y-144062914D02*
X41390476Y-144253390D01*
X41390476Y-144253390D02*
X41390476Y-144634342D01*
X41390476Y-144634342D02*
X41438095Y-144729580D01*
X41438095Y-144729580D02*
X41485714Y-144777200D01*
X41485714Y-144777200D02*
X41580952Y-144824819D01*
X41580952Y-144824819D02*
X41771428Y-144824819D01*
X41771428Y-144824819D02*
X41866666Y-144777200D01*
X41866666Y-144777200D02*
X41914285Y-144729580D01*
X41914285Y-144729580D02*
X41961904Y-144634342D01*
X41961904Y-144634342D02*
X41961904Y-144396247D01*
X41961904Y-144396247D02*
X41914285Y-144301009D01*
X41914285Y-144301009D02*
X41866666Y-144253390D01*
X41866666Y-144253390D02*
X41771428Y-144205771D01*
X41771428Y-144205771D02*
X41580952Y-144205771D01*
X41580952Y-144205771D02*
X41485714Y-144253390D01*
X41485714Y-144253390D02*
X41438095Y-144301009D01*
X41438095Y-144301009D02*
X41390476Y-144396247D01*
X20968819Y-97702666D02*
X20492628Y-98035999D01*
X20968819Y-98274094D02*
X19968819Y-98274094D01*
X19968819Y-98274094D02*
X19968819Y-97893142D01*
X19968819Y-97893142D02*
X20016438Y-97797904D01*
X20016438Y-97797904D02*
X20064057Y-97750285D01*
X20064057Y-97750285D02*
X20159295Y-97702666D01*
X20159295Y-97702666D02*
X20302152Y-97702666D01*
X20302152Y-97702666D02*
X20397390Y-97750285D01*
X20397390Y-97750285D02*
X20445009Y-97797904D01*
X20445009Y-97797904D02*
X20492628Y-97893142D01*
X20492628Y-97893142D02*
X20492628Y-98274094D01*
X19968819Y-96845523D02*
X19968819Y-97035999D01*
X19968819Y-97035999D02*
X20016438Y-97131237D01*
X20016438Y-97131237D02*
X20064057Y-97178856D01*
X20064057Y-97178856D02*
X20206914Y-97274094D01*
X20206914Y-97274094D02*
X20397390Y-97321713D01*
X20397390Y-97321713D02*
X20778342Y-97321713D01*
X20778342Y-97321713D02*
X20873580Y-97274094D01*
X20873580Y-97274094D02*
X20921200Y-97226475D01*
X20921200Y-97226475D02*
X20968819Y-97131237D01*
X20968819Y-97131237D02*
X20968819Y-96940761D01*
X20968819Y-96940761D02*
X20921200Y-96845523D01*
X20921200Y-96845523D02*
X20873580Y-96797904D01*
X20873580Y-96797904D02*
X20778342Y-96750285D01*
X20778342Y-96750285D02*
X20540247Y-96750285D01*
X20540247Y-96750285D02*
X20445009Y-96797904D01*
X20445009Y-96797904D02*
X20397390Y-96845523D01*
X20397390Y-96845523D02*
X20349771Y-96940761D01*
X20349771Y-96940761D02*
X20349771Y-97131237D01*
X20349771Y-97131237D02*
X20397390Y-97226475D01*
X20397390Y-97226475D02*
X20445009Y-97274094D01*
X20445009Y-97274094D02*
X20540247Y-97321713D01*
X18907142Y-112654819D02*
X18573809Y-112178628D01*
X18335714Y-112654819D02*
X18335714Y-111654819D01*
X18335714Y-111654819D02*
X18716666Y-111654819D01*
X18716666Y-111654819D02*
X18811904Y-111702438D01*
X18811904Y-111702438D02*
X18859523Y-111750057D01*
X18859523Y-111750057D02*
X18907142Y-111845295D01*
X18907142Y-111845295D02*
X18907142Y-111988152D01*
X18907142Y-111988152D02*
X18859523Y-112083390D01*
X18859523Y-112083390D02*
X18811904Y-112131009D01*
X18811904Y-112131009D02*
X18716666Y-112178628D01*
X18716666Y-112178628D02*
X18335714Y-112178628D01*
X19240476Y-111654819D02*
X19859523Y-111654819D01*
X19859523Y-111654819D02*
X19526190Y-112035771D01*
X19526190Y-112035771D02*
X19669047Y-112035771D01*
X19669047Y-112035771D02*
X19764285Y-112083390D01*
X19764285Y-112083390D02*
X19811904Y-112131009D01*
X19811904Y-112131009D02*
X19859523Y-112226247D01*
X19859523Y-112226247D02*
X19859523Y-112464342D01*
X19859523Y-112464342D02*
X19811904Y-112559580D01*
X19811904Y-112559580D02*
X19764285Y-112607200D01*
X19764285Y-112607200D02*
X19669047Y-112654819D01*
X19669047Y-112654819D02*
X19383333Y-112654819D01*
X19383333Y-112654819D02*
X19288095Y-112607200D01*
X19288095Y-112607200D02*
X19240476Y-112559580D01*
X20192857Y-111654819D02*
X20811904Y-111654819D01*
X20811904Y-111654819D02*
X20478571Y-112035771D01*
X20478571Y-112035771D02*
X20621428Y-112035771D01*
X20621428Y-112035771D02*
X20716666Y-112083390D01*
X20716666Y-112083390D02*
X20764285Y-112131009D01*
X20764285Y-112131009D02*
X20811904Y-112226247D01*
X20811904Y-112226247D02*
X20811904Y-112464342D01*
X20811904Y-112464342D02*
X20764285Y-112559580D01*
X20764285Y-112559580D02*
X20716666Y-112607200D01*
X20716666Y-112607200D02*
X20621428Y-112654819D01*
X20621428Y-112654819D02*
X20335714Y-112654819D01*
X20335714Y-112654819D02*
X20240476Y-112607200D01*
X20240476Y-112607200D02*
X20192857Y-112559580D01*
X39083333Y-133439580D02*
X39035714Y-133487200D01*
X39035714Y-133487200D02*
X38892857Y-133534819D01*
X38892857Y-133534819D02*
X38797619Y-133534819D01*
X38797619Y-133534819D02*
X38654762Y-133487200D01*
X38654762Y-133487200D02*
X38559524Y-133391961D01*
X38559524Y-133391961D02*
X38511905Y-133296723D01*
X38511905Y-133296723D02*
X38464286Y-133106247D01*
X38464286Y-133106247D02*
X38464286Y-132963390D01*
X38464286Y-132963390D02*
X38511905Y-132772914D01*
X38511905Y-132772914D02*
X38559524Y-132677676D01*
X38559524Y-132677676D02*
X38654762Y-132582438D01*
X38654762Y-132582438D02*
X38797619Y-132534819D01*
X38797619Y-132534819D02*
X38892857Y-132534819D01*
X38892857Y-132534819D02*
X39035714Y-132582438D01*
X39035714Y-132582438D02*
X39083333Y-132630057D01*
X39940476Y-132868152D02*
X39940476Y-133534819D01*
X39702381Y-132487200D02*
X39464286Y-133201485D01*
X39464286Y-133201485D02*
X40083333Y-133201485D01*
X42138695Y-160799819D02*
X42138695Y-161609342D01*
X42138695Y-161609342D02*
X42186314Y-161704580D01*
X42186314Y-161704580D02*
X42233933Y-161752200D01*
X42233933Y-161752200D02*
X42329171Y-161799819D01*
X42329171Y-161799819D02*
X42519647Y-161799819D01*
X42519647Y-161799819D02*
X42614885Y-161752200D01*
X42614885Y-161752200D02*
X42662504Y-161704580D01*
X42662504Y-161704580D02*
X42710123Y-161609342D01*
X42710123Y-161609342D02*
X42710123Y-160799819D01*
X43614885Y-161133152D02*
X43614885Y-161799819D01*
X43376790Y-160752200D02*
X43138695Y-161466485D01*
X43138695Y-161466485D02*
X43757742Y-161466485D01*
X30421619Y-153219389D02*
X29421619Y-153219389D01*
X30326380Y-152171771D02*
X30374000Y-152219390D01*
X30374000Y-152219390D02*
X30421619Y-152362247D01*
X30421619Y-152362247D02*
X30421619Y-152457485D01*
X30421619Y-152457485D02*
X30374000Y-152600342D01*
X30374000Y-152600342D02*
X30278761Y-152695580D01*
X30278761Y-152695580D02*
X30183523Y-152743199D01*
X30183523Y-152743199D02*
X29993047Y-152790818D01*
X29993047Y-152790818D02*
X29850190Y-152790818D01*
X29850190Y-152790818D02*
X29659714Y-152743199D01*
X29659714Y-152743199D02*
X29564476Y-152695580D01*
X29564476Y-152695580D02*
X29469238Y-152600342D01*
X29469238Y-152600342D02*
X29421619Y-152457485D01*
X29421619Y-152457485D02*
X29421619Y-152362247D01*
X29421619Y-152362247D02*
X29469238Y-152219390D01*
X29469238Y-152219390D02*
X29516857Y-152171771D01*
X29516857Y-151790818D02*
X29469238Y-151743199D01*
X29469238Y-151743199D02*
X29421619Y-151647961D01*
X29421619Y-151647961D02*
X29421619Y-151409866D01*
X29421619Y-151409866D02*
X29469238Y-151314628D01*
X29469238Y-151314628D02*
X29516857Y-151267009D01*
X29516857Y-151267009D02*
X29612095Y-151219390D01*
X29612095Y-151219390D02*
X29707333Y-151219390D01*
X29707333Y-151219390D02*
X29850190Y-151267009D01*
X29850190Y-151267009D02*
X30421619Y-151838437D01*
X30421619Y-151838437D02*
X30421619Y-151219390D01*
X22058019Y-159334104D02*
X22867542Y-159334104D01*
X22867542Y-159334104D02*
X22962780Y-159286485D01*
X22962780Y-159286485D02*
X23010400Y-159238866D01*
X23010400Y-159238866D02*
X23058019Y-159143628D01*
X23058019Y-159143628D02*
X23058019Y-158953152D01*
X23058019Y-158953152D02*
X23010400Y-158857914D01*
X23010400Y-158857914D02*
X22962780Y-158810295D01*
X22962780Y-158810295D02*
X22867542Y-158762676D01*
X22867542Y-158762676D02*
X22058019Y-158762676D01*
X23058019Y-157762676D02*
X23058019Y-158334104D01*
X23058019Y-158048390D02*
X22058019Y-158048390D01*
X22058019Y-158048390D02*
X22200876Y-158143628D01*
X22200876Y-158143628D02*
X22296114Y-158238866D01*
X22296114Y-158238866D02*
X22343733Y-158334104D01*
X76348342Y-149088019D02*
X76015009Y-148611828D01*
X75776914Y-149088019D02*
X75776914Y-148088019D01*
X75776914Y-148088019D02*
X76157866Y-148088019D01*
X76157866Y-148088019D02*
X76253104Y-148135638D01*
X76253104Y-148135638D02*
X76300723Y-148183257D01*
X76300723Y-148183257D02*
X76348342Y-148278495D01*
X76348342Y-148278495D02*
X76348342Y-148421352D01*
X76348342Y-148421352D02*
X76300723Y-148516590D01*
X76300723Y-148516590D02*
X76253104Y-148564209D01*
X76253104Y-148564209D02*
X76157866Y-148611828D01*
X76157866Y-148611828D02*
X75776914Y-148611828D01*
X77300723Y-149088019D02*
X76729295Y-149088019D01*
X77015009Y-149088019D02*
X77015009Y-148088019D01*
X77015009Y-148088019D02*
X76919771Y-148230876D01*
X76919771Y-148230876D02*
X76824533Y-148326114D01*
X76824533Y-148326114D02*
X76729295Y-148373733D01*
X77776914Y-149088019D02*
X77967390Y-149088019D01*
X77967390Y-149088019D02*
X78062628Y-149040400D01*
X78062628Y-149040400D02*
X78110247Y-148992780D01*
X78110247Y-148992780D02*
X78205485Y-148849923D01*
X78205485Y-148849923D02*
X78253104Y-148659447D01*
X78253104Y-148659447D02*
X78253104Y-148278495D01*
X78253104Y-148278495D02*
X78205485Y-148183257D01*
X78205485Y-148183257D02*
X78157866Y-148135638D01*
X78157866Y-148135638D02*
X78062628Y-148088019D01*
X78062628Y-148088019D02*
X77872152Y-148088019D01*
X77872152Y-148088019D02*
X77776914Y-148135638D01*
X77776914Y-148135638D02*
X77729295Y-148183257D01*
X77729295Y-148183257D02*
X77681676Y-148278495D01*
X77681676Y-148278495D02*
X77681676Y-148516590D01*
X77681676Y-148516590D02*
X77729295Y-148611828D01*
X77729295Y-148611828D02*
X77776914Y-148659447D01*
X77776914Y-148659447D02*
X77872152Y-148707066D01*
X77872152Y-148707066D02*
X78062628Y-148707066D01*
X78062628Y-148707066D02*
X78157866Y-148659447D01*
X78157866Y-148659447D02*
X78205485Y-148611828D01*
X78205485Y-148611828D02*
X78253104Y-148516590D01*
X83616666Y-103754819D02*
X83616666Y-104469104D01*
X83616666Y-104469104D02*
X83569047Y-104611961D01*
X83569047Y-104611961D02*
X83473809Y-104707200D01*
X83473809Y-104707200D02*
X83330952Y-104754819D01*
X83330952Y-104754819D02*
X83235714Y-104754819D01*
X84521428Y-103754819D02*
X84330952Y-103754819D01*
X84330952Y-103754819D02*
X84235714Y-103802438D01*
X84235714Y-103802438D02*
X84188095Y-103850057D01*
X84188095Y-103850057D02*
X84092857Y-103992914D01*
X84092857Y-103992914D02*
X84045238Y-104183390D01*
X84045238Y-104183390D02*
X84045238Y-104564342D01*
X84045238Y-104564342D02*
X84092857Y-104659580D01*
X84092857Y-104659580D02*
X84140476Y-104707200D01*
X84140476Y-104707200D02*
X84235714Y-104754819D01*
X84235714Y-104754819D02*
X84426190Y-104754819D01*
X84426190Y-104754819D02*
X84521428Y-104707200D01*
X84521428Y-104707200D02*
X84569047Y-104659580D01*
X84569047Y-104659580D02*
X84616666Y-104564342D01*
X84616666Y-104564342D02*
X84616666Y-104326247D01*
X84616666Y-104326247D02*
X84569047Y-104231009D01*
X84569047Y-104231009D02*
X84521428Y-104183390D01*
X84521428Y-104183390D02*
X84426190Y-104135771D01*
X84426190Y-104135771D02*
X84235714Y-104135771D01*
X84235714Y-104135771D02*
X84140476Y-104183390D01*
X84140476Y-104183390D02*
X84092857Y-104231009D01*
X84092857Y-104231009D02*
X84045238Y-104326247D01*
X27507142Y-112754819D02*
X27173809Y-112278628D01*
X26935714Y-112754819D02*
X26935714Y-111754819D01*
X26935714Y-111754819D02*
X27316666Y-111754819D01*
X27316666Y-111754819D02*
X27411904Y-111802438D01*
X27411904Y-111802438D02*
X27459523Y-111850057D01*
X27459523Y-111850057D02*
X27507142Y-111945295D01*
X27507142Y-111945295D02*
X27507142Y-112088152D01*
X27507142Y-112088152D02*
X27459523Y-112183390D01*
X27459523Y-112183390D02*
X27411904Y-112231009D01*
X27411904Y-112231009D02*
X27316666Y-112278628D01*
X27316666Y-112278628D02*
X26935714Y-112278628D01*
X27888095Y-111850057D02*
X27935714Y-111802438D01*
X27935714Y-111802438D02*
X28030952Y-111754819D01*
X28030952Y-111754819D02*
X28269047Y-111754819D01*
X28269047Y-111754819D02*
X28364285Y-111802438D01*
X28364285Y-111802438D02*
X28411904Y-111850057D01*
X28411904Y-111850057D02*
X28459523Y-111945295D01*
X28459523Y-111945295D02*
X28459523Y-112040533D01*
X28459523Y-112040533D02*
X28411904Y-112183390D01*
X28411904Y-112183390D02*
X27840476Y-112754819D01*
X27840476Y-112754819D02*
X28459523Y-112754819D01*
X28935714Y-112754819D02*
X29126190Y-112754819D01*
X29126190Y-112754819D02*
X29221428Y-112707200D01*
X29221428Y-112707200D02*
X29269047Y-112659580D01*
X29269047Y-112659580D02*
X29364285Y-112516723D01*
X29364285Y-112516723D02*
X29411904Y-112326247D01*
X29411904Y-112326247D02*
X29411904Y-111945295D01*
X29411904Y-111945295D02*
X29364285Y-111850057D01*
X29364285Y-111850057D02*
X29316666Y-111802438D01*
X29316666Y-111802438D02*
X29221428Y-111754819D01*
X29221428Y-111754819D02*
X29030952Y-111754819D01*
X29030952Y-111754819D02*
X28935714Y-111802438D01*
X28935714Y-111802438D02*
X28888095Y-111850057D01*
X28888095Y-111850057D02*
X28840476Y-111945295D01*
X28840476Y-111945295D02*
X28840476Y-112183390D01*
X28840476Y-112183390D02*
X28888095Y-112278628D01*
X28888095Y-112278628D02*
X28935714Y-112326247D01*
X28935714Y-112326247D02*
X29030952Y-112373866D01*
X29030952Y-112373866D02*
X29221428Y-112373866D01*
X29221428Y-112373866D02*
X29316666Y-112326247D01*
X29316666Y-112326247D02*
X29364285Y-112278628D01*
X29364285Y-112278628D02*
X29411904Y-112183390D01*
X75582542Y-132406580D02*
X75534923Y-132454200D01*
X75534923Y-132454200D02*
X75392066Y-132501819D01*
X75392066Y-132501819D02*
X75296828Y-132501819D01*
X75296828Y-132501819D02*
X75153971Y-132454200D01*
X75153971Y-132454200D02*
X75058733Y-132358961D01*
X75058733Y-132358961D02*
X75011114Y-132263723D01*
X75011114Y-132263723D02*
X74963495Y-132073247D01*
X74963495Y-132073247D02*
X74963495Y-131930390D01*
X74963495Y-131930390D02*
X75011114Y-131739914D01*
X75011114Y-131739914D02*
X75058733Y-131644676D01*
X75058733Y-131644676D02*
X75153971Y-131549438D01*
X75153971Y-131549438D02*
X75296828Y-131501819D01*
X75296828Y-131501819D02*
X75392066Y-131501819D01*
X75392066Y-131501819D02*
X75534923Y-131549438D01*
X75534923Y-131549438D02*
X75582542Y-131597057D01*
X75963495Y-131597057D02*
X76011114Y-131549438D01*
X76011114Y-131549438D02*
X76106352Y-131501819D01*
X76106352Y-131501819D02*
X76344447Y-131501819D01*
X76344447Y-131501819D02*
X76439685Y-131549438D01*
X76439685Y-131549438D02*
X76487304Y-131597057D01*
X76487304Y-131597057D02*
X76534923Y-131692295D01*
X76534923Y-131692295D02*
X76534923Y-131787533D01*
X76534923Y-131787533D02*
X76487304Y-131930390D01*
X76487304Y-131930390D02*
X75915876Y-132501819D01*
X75915876Y-132501819D02*
X76534923Y-132501819D01*
X76868257Y-131501819D02*
X77487304Y-131501819D01*
X77487304Y-131501819D02*
X77153971Y-131882771D01*
X77153971Y-131882771D02*
X77296828Y-131882771D01*
X77296828Y-131882771D02*
X77392066Y-131930390D01*
X77392066Y-131930390D02*
X77439685Y-131978009D01*
X77439685Y-131978009D02*
X77487304Y-132073247D01*
X77487304Y-132073247D02*
X77487304Y-132311342D01*
X77487304Y-132311342D02*
X77439685Y-132406580D01*
X77439685Y-132406580D02*
X77392066Y-132454200D01*
X77392066Y-132454200D02*
X77296828Y-132501819D01*
X77296828Y-132501819D02*
X77011114Y-132501819D01*
X77011114Y-132501819D02*
X76915876Y-132454200D01*
X76915876Y-132454200D02*
X76868257Y-132406580D01*
X94974819Y-131811189D02*
X93974819Y-131811189D01*
X94879580Y-130763571D02*
X94927200Y-130811190D01*
X94927200Y-130811190D02*
X94974819Y-130954047D01*
X94974819Y-130954047D02*
X94974819Y-131049285D01*
X94974819Y-131049285D02*
X94927200Y-131192142D01*
X94927200Y-131192142D02*
X94831961Y-131287380D01*
X94831961Y-131287380D02*
X94736723Y-131334999D01*
X94736723Y-131334999D02*
X94546247Y-131382618D01*
X94546247Y-131382618D02*
X94403390Y-131382618D01*
X94403390Y-131382618D02*
X94212914Y-131334999D01*
X94212914Y-131334999D02*
X94117676Y-131287380D01*
X94117676Y-131287380D02*
X94022438Y-131192142D01*
X94022438Y-131192142D02*
X93974819Y-131049285D01*
X93974819Y-131049285D02*
X93974819Y-130954047D01*
X93974819Y-130954047D02*
X94022438Y-130811190D01*
X94022438Y-130811190D02*
X94070057Y-130763571D01*
X94308152Y-129906428D02*
X94974819Y-129906428D01*
X93927200Y-130144523D02*
X94641485Y-130382618D01*
X94641485Y-130382618D02*
X94641485Y-129763571D01*
X19851580Y-97670857D02*
X19899200Y-97718476D01*
X19899200Y-97718476D02*
X19946819Y-97861333D01*
X19946819Y-97861333D02*
X19946819Y-97956571D01*
X19946819Y-97956571D02*
X19899200Y-98099428D01*
X19899200Y-98099428D02*
X19803961Y-98194666D01*
X19803961Y-98194666D02*
X19708723Y-98242285D01*
X19708723Y-98242285D02*
X19518247Y-98289904D01*
X19518247Y-98289904D02*
X19375390Y-98289904D01*
X19375390Y-98289904D02*
X19184914Y-98242285D01*
X19184914Y-98242285D02*
X19089676Y-98194666D01*
X19089676Y-98194666D02*
X18994438Y-98099428D01*
X18994438Y-98099428D02*
X18946819Y-97956571D01*
X18946819Y-97956571D02*
X18946819Y-97861333D01*
X18946819Y-97861333D02*
X18994438Y-97718476D01*
X18994438Y-97718476D02*
X19042057Y-97670857D01*
X19042057Y-97289904D02*
X18994438Y-97242285D01*
X18994438Y-97242285D02*
X18946819Y-97147047D01*
X18946819Y-97147047D02*
X18946819Y-96908952D01*
X18946819Y-96908952D02*
X18994438Y-96813714D01*
X18994438Y-96813714D02*
X19042057Y-96766095D01*
X19042057Y-96766095D02*
X19137295Y-96718476D01*
X19137295Y-96718476D02*
X19232533Y-96718476D01*
X19232533Y-96718476D02*
X19375390Y-96766095D01*
X19375390Y-96766095D02*
X19946819Y-97337523D01*
X19946819Y-97337523D02*
X19946819Y-96718476D01*
X19280152Y-95861333D02*
X19946819Y-95861333D01*
X18899200Y-96099428D02*
X19613485Y-96337523D01*
X19613485Y-96337523D02*
X19613485Y-95718476D01*
X22857142Y-112654819D02*
X22523809Y-112178628D01*
X22285714Y-112654819D02*
X22285714Y-111654819D01*
X22285714Y-111654819D02*
X22666666Y-111654819D01*
X22666666Y-111654819D02*
X22761904Y-111702438D01*
X22761904Y-111702438D02*
X22809523Y-111750057D01*
X22809523Y-111750057D02*
X22857142Y-111845295D01*
X22857142Y-111845295D02*
X22857142Y-111988152D01*
X22857142Y-111988152D02*
X22809523Y-112083390D01*
X22809523Y-112083390D02*
X22761904Y-112131009D01*
X22761904Y-112131009D02*
X22666666Y-112178628D01*
X22666666Y-112178628D02*
X22285714Y-112178628D01*
X23190476Y-111654819D02*
X23809523Y-111654819D01*
X23809523Y-111654819D02*
X23476190Y-112035771D01*
X23476190Y-112035771D02*
X23619047Y-112035771D01*
X23619047Y-112035771D02*
X23714285Y-112083390D01*
X23714285Y-112083390D02*
X23761904Y-112131009D01*
X23761904Y-112131009D02*
X23809523Y-112226247D01*
X23809523Y-112226247D02*
X23809523Y-112464342D01*
X23809523Y-112464342D02*
X23761904Y-112559580D01*
X23761904Y-112559580D02*
X23714285Y-112607200D01*
X23714285Y-112607200D02*
X23619047Y-112654819D01*
X23619047Y-112654819D02*
X23333333Y-112654819D01*
X23333333Y-112654819D02*
X23238095Y-112607200D01*
X23238095Y-112607200D02*
X23190476Y-112559580D01*
X24761904Y-112654819D02*
X24190476Y-112654819D01*
X24476190Y-112654819D02*
X24476190Y-111654819D01*
X24476190Y-111654819D02*
X24380952Y-111797676D01*
X24380952Y-111797676D02*
X24285714Y-111892914D01*
X24285714Y-111892914D02*
X24190476Y-111940533D01*
X65683019Y-129452666D02*
X65206828Y-129785999D01*
X65683019Y-130024094D02*
X64683019Y-130024094D01*
X64683019Y-130024094D02*
X64683019Y-129643142D01*
X64683019Y-129643142D02*
X64730638Y-129547904D01*
X64730638Y-129547904D02*
X64778257Y-129500285D01*
X64778257Y-129500285D02*
X64873495Y-129452666D01*
X64873495Y-129452666D02*
X65016352Y-129452666D01*
X65016352Y-129452666D02*
X65111590Y-129500285D01*
X65111590Y-129500285D02*
X65159209Y-129547904D01*
X65159209Y-129547904D02*
X65206828Y-129643142D01*
X65206828Y-129643142D02*
X65206828Y-130024094D01*
X64683019Y-129119332D02*
X64683019Y-128500285D01*
X64683019Y-128500285D02*
X65063971Y-128833618D01*
X65063971Y-128833618D02*
X65063971Y-128690761D01*
X65063971Y-128690761D02*
X65111590Y-128595523D01*
X65111590Y-128595523D02*
X65159209Y-128547904D01*
X65159209Y-128547904D02*
X65254447Y-128500285D01*
X65254447Y-128500285D02*
X65492542Y-128500285D01*
X65492542Y-128500285D02*
X65587780Y-128547904D01*
X65587780Y-128547904D02*
X65635400Y-128595523D01*
X65635400Y-128595523D02*
X65683019Y-128690761D01*
X65683019Y-128690761D02*
X65683019Y-128976475D01*
X65683019Y-128976475D02*
X65635400Y-129071713D01*
X65635400Y-129071713D02*
X65587780Y-129119332D01*
X18454819Y-113492857D02*
X17978628Y-113826190D01*
X18454819Y-114064285D02*
X17454819Y-114064285D01*
X17454819Y-114064285D02*
X17454819Y-113683333D01*
X17454819Y-113683333D02*
X17502438Y-113588095D01*
X17502438Y-113588095D02*
X17550057Y-113540476D01*
X17550057Y-113540476D02*
X17645295Y-113492857D01*
X17645295Y-113492857D02*
X17788152Y-113492857D01*
X17788152Y-113492857D02*
X17883390Y-113540476D01*
X17883390Y-113540476D02*
X17931009Y-113588095D01*
X17931009Y-113588095D02*
X17978628Y-113683333D01*
X17978628Y-113683333D02*
X17978628Y-114064285D01*
X17454819Y-113159523D02*
X17454819Y-112540476D01*
X17454819Y-112540476D02*
X17835771Y-112873809D01*
X17835771Y-112873809D02*
X17835771Y-112730952D01*
X17835771Y-112730952D02*
X17883390Y-112635714D01*
X17883390Y-112635714D02*
X17931009Y-112588095D01*
X17931009Y-112588095D02*
X18026247Y-112540476D01*
X18026247Y-112540476D02*
X18264342Y-112540476D01*
X18264342Y-112540476D02*
X18359580Y-112588095D01*
X18359580Y-112588095D02*
X18407200Y-112635714D01*
X18407200Y-112635714D02*
X18454819Y-112730952D01*
X18454819Y-112730952D02*
X18454819Y-113016666D01*
X18454819Y-113016666D02*
X18407200Y-113111904D01*
X18407200Y-113111904D02*
X18359580Y-113159523D01*
X17550057Y-112159523D02*
X17502438Y-112111904D01*
X17502438Y-112111904D02*
X17454819Y-112016666D01*
X17454819Y-112016666D02*
X17454819Y-111778571D01*
X17454819Y-111778571D02*
X17502438Y-111683333D01*
X17502438Y-111683333D02*
X17550057Y-111635714D01*
X17550057Y-111635714D02*
X17645295Y-111588095D01*
X17645295Y-111588095D02*
X17740533Y-111588095D01*
X17740533Y-111588095D02*
X17883390Y-111635714D01*
X17883390Y-111635714D02*
X18454819Y-112207142D01*
X18454819Y-112207142D02*
X18454819Y-111588095D01*
X21892833Y-132511580D02*
X21845214Y-132559200D01*
X21845214Y-132559200D02*
X21702357Y-132606819D01*
X21702357Y-132606819D02*
X21607119Y-132606819D01*
X21607119Y-132606819D02*
X21464262Y-132559200D01*
X21464262Y-132559200D02*
X21369024Y-132463961D01*
X21369024Y-132463961D02*
X21321405Y-132368723D01*
X21321405Y-132368723D02*
X21273786Y-132178247D01*
X21273786Y-132178247D02*
X21273786Y-132035390D01*
X21273786Y-132035390D02*
X21321405Y-131844914D01*
X21321405Y-131844914D02*
X21369024Y-131749676D01*
X21369024Y-131749676D02*
X21464262Y-131654438D01*
X21464262Y-131654438D02*
X21607119Y-131606819D01*
X21607119Y-131606819D02*
X21702357Y-131606819D01*
X21702357Y-131606819D02*
X21845214Y-131654438D01*
X21845214Y-131654438D02*
X21892833Y-131702057D01*
X22369024Y-132606819D02*
X22559500Y-132606819D01*
X22559500Y-132606819D02*
X22654738Y-132559200D01*
X22654738Y-132559200D02*
X22702357Y-132511580D01*
X22702357Y-132511580D02*
X22797595Y-132368723D01*
X22797595Y-132368723D02*
X22845214Y-132178247D01*
X22845214Y-132178247D02*
X22845214Y-131797295D01*
X22845214Y-131797295D02*
X22797595Y-131702057D01*
X22797595Y-131702057D02*
X22749976Y-131654438D01*
X22749976Y-131654438D02*
X22654738Y-131606819D01*
X22654738Y-131606819D02*
X22464262Y-131606819D01*
X22464262Y-131606819D02*
X22369024Y-131654438D01*
X22369024Y-131654438D02*
X22321405Y-131702057D01*
X22321405Y-131702057D02*
X22273786Y-131797295D01*
X22273786Y-131797295D02*
X22273786Y-132035390D01*
X22273786Y-132035390D02*
X22321405Y-132130628D01*
X22321405Y-132130628D02*
X22369024Y-132178247D01*
X22369024Y-132178247D02*
X22464262Y-132225866D01*
X22464262Y-132225866D02*
X22654738Y-132225866D01*
X22654738Y-132225866D02*
X22749976Y-132178247D01*
X22749976Y-132178247D02*
X22797595Y-132130628D01*
X22797595Y-132130628D02*
X22845214Y-132035390D01*
X86690476Y-33609819D02*
X86690476Y-34324104D01*
X86690476Y-34324104D02*
X86642857Y-34466961D01*
X86642857Y-34466961D02*
X86547619Y-34562200D01*
X86547619Y-34562200D02*
X86404762Y-34609819D01*
X86404762Y-34609819D02*
X86309524Y-34609819D01*
X87690476Y-34609819D02*
X87119048Y-34609819D01*
X87404762Y-34609819D02*
X87404762Y-33609819D01*
X87404762Y-33609819D02*
X87309524Y-33752676D01*
X87309524Y-33752676D02*
X87214286Y-33847914D01*
X87214286Y-33847914D02*
X87119048Y-33895533D01*
X88642857Y-34609819D02*
X88071429Y-34609819D01*
X88357143Y-34609819D02*
X88357143Y-33609819D01*
X88357143Y-33609819D02*
X88261905Y-33752676D01*
X88261905Y-33752676D02*
X88166667Y-33847914D01*
X88166667Y-33847914D02*
X88071429Y-33895533D01*
X43731419Y-149147457D02*
X43255228Y-149480790D01*
X43731419Y-149718885D02*
X42731419Y-149718885D01*
X42731419Y-149718885D02*
X42731419Y-149337933D01*
X42731419Y-149337933D02*
X42779038Y-149242695D01*
X42779038Y-149242695D02*
X42826657Y-149195076D01*
X42826657Y-149195076D02*
X42921895Y-149147457D01*
X42921895Y-149147457D02*
X43064752Y-149147457D01*
X43064752Y-149147457D02*
X43159990Y-149195076D01*
X43159990Y-149195076D02*
X43207609Y-149242695D01*
X43207609Y-149242695D02*
X43255228Y-149337933D01*
X43255228Y-149337933D02*
X43255228Y-149718885D01*
X42826657Y-148766504D02*
X42779038Y-148718885D01*
X42779038Y-148718885D02*
X42731419Y-148623647D01*
X42731419Y-148623647D02*
X42731419Y-148385552D01*
X42731419Y-148385552D02*
X42779038Y-148290314D01*
X42779038Y-148290314D02*
X42826657Y-148242695D01*
X42826657Y-148242695D02*
X42921895Y-148195076D01*
X42921895Y-148195076D02*
X43017133Y-148195076D01*
X43017133Y-148195076D02*
X43159990Y-148242695D01*
X43159990Y-148242695D02*
X43731419Y-148814123D01*
X43731419Y-148814123D02*
X43731419Y-148195076D01*
X42731419Y-147861742D02*
X42731419Y-147195076D01*
X42731419Y-147195076D02*
X43731419Y-147623647D01*
X23763142Y-118922819D02*
X23429809Y-118446628D01*
X23191714Y-118922819D02*
X23191714Y-117922819D01*
X23191714Y-117922819D02*
X23572666Y-117922819D01*
X23572666Y-117922819D02*
X23667904Y-117970438D01*
X23667904Y-117970438D02*
X23715523Y-118018057D01*
X23715523Y-118018057D02*
X23763142Y-118113295D01*
X23763142Y-118113295D02*
X23763142Y-118256152D01*
X23763142Y-118256152D02*
X23715523Y-118351390D01*
X23715523Y-118351390D02*
X23667904Y-118399009D01*
X23667904Y-118399009D02*
X23572666Y-118446628D01*
X23572666Y-118446628D02*
X23191714Y-118446628D01*
X24144095Y-118018057D02*
X24191714Y-117970438D01*
X24191714Y-117970438D02*
X24286952Y-117922819D01*
X24286952Y-117922819D02*
X24525047Y-117922819D01*
X24525047Y-117922819D02*
X24620285Y-117970438D01*
X24620285Y-117970438D02*
X24667904Y-118018057D01*
X24667904Y-118018057D02*
X24715523Y-118113295D01*
X24715523Y-118113295D02*
X24715523Y-118208533D01*
X24715523Y-118208533D02*
X24667904Y-118351390D01*
X24667904Y-118351390D02*
X24096476Y-118922819D01*
X24096476Y-118922819D02*
X24715523Y-118922819D01*
X25572666Y-118256152D02*
X25572666Y-118922819D01*
X25334571Y-117875200D02*
X25096476Y-118589485D01*
X25096476Y-118589485D02*
X25715523Y-118589485D01*
X78414419Y-161589285D02*
X77414419Y-161589285D01*
X77414419Y-161589285D02*
X77414419Y-161208333D01*
X77414419Y-161208333D02*
X77462038Y-161113095D01*
X77462038Y-161113095D02*
X77509657Y-161065476D01*
X77509657Y-161065476D02*
X77604895Y-161017857D01*
X77604895Y-161017857D02*
X77747752Y-161017857D01*
X77747752Y-161017857D02*
X77842990Y-161065476D01*
X77842990Y-161065476D02*
X77890609Y-161113095D01*
X77890609Y-161113095D02*
X77938228Y-161208333D01*
X77938228Y-161208333D02*
X77938228Y-161589285D01*
X78366800Y-160636904D02*
X78414419Y-160494047D01*
X78414419Y-160494047D02*
X78414419Y-160255952D01*
X78414419Y-160255952D02*
X78366800Y-160160714D01*
X78366800Y-160160714D02*
X78319180Y-160113095D01*
X78319180Y-160113095D02*
X78223942Y-160065476D01*
X78223942Y-160065476D02*
X78128704Y-160065476D01*
X78128704Y-160065476D02*
X78033466Y-160113095D01*
X78033466Y-160113095D02*
X77985847Y-160160714D01*
X77985847Y-160160714D02*
X77938228Y-160255952D01*
X77938228Y-160255952D02*
X77890609Y-160446428D01*
X77890609Y-160446428D02*
X77842990Y-160541666D01*
X77842990Y-160541666D02*
X77795371Y-160589285D01*
X77795371Y-160589285D02*
X77700133Y-160636904D01*
X77700133Y-160636904D02*
X77604895Y-160636904D01*
X77604895Y-160636904D02*
X77509657Y-160589285D01*
X77509657Y-160589285D02*
X77462038Y-160541666D01*
X77462038Y-160541666D02*
X77414419Y-160446428D01*
X77414419Y-160446428D02*
X77414419Y-160208333D01*
X77414419Y-160208333D02*
X77462038Y-160065476D01*
X77509657Y-159684523D02*
X77462038Y-159636904D01*
X77462038Y-159636904D02*
X77414419Y-159541666D01*
X77414419Y-159541666D02*
X77414419Y-159303571D01*
X77414419Y-159303571D02*
X77462038Y-159208333D01*
X77462038Y-159208333D02*
X77509657Y-159160714D01*
X77509657Y-159160714D02*
X77604895Y-159113095D01*
X77604895Y-159113095D02*
X77700133Y-159113095D01*
X77700133Y-159113095D02*
X77842990Y-159160714D01*
X77842990Y-159160714D02*
X78414419Y-159732142D01*
X78414419Y-159732142D02*
X78414419Y-159113095D01*
X83516666Y-34754819D02*
X83516666Y-35469104D01*
X83516666Y-35469104D02*
X83469047Y-35611961D01*
X83469047Y-35611961D02*
X83373809Y-35707200D01*
X83373809Y-35707200D02*
X83230952Y-35754819D01*
X83230952Y-35754819D02*
X83135714Y-35754819D01*
X83897619Y-34754819D02*
X84564285Y-34754819D01*
X84564285Y-34754819D02*
X84135714Y-35754819D01*
X19790619Y-159997733D02*
X20504904Y-159997733D01*
X20504904Y-159997733D02*
X20647761Y-160045352D01*
X20647761Y-160045352D02*
X20743000Y-160140590D01*
X20743000Y-160140590D02*
X20790619Y-160283447D01*
X20790619Y-160283447D02*
X20790619Y-160378685D01*
X20790619Y-158997733D02*
X20790619Y-159569161D01*
X20790619Y-159283447D02*
X19790619Y-159283447D01*
X19790619Y-159283447D02*
X19933476Y-159378685D01*
X19933476Y-159378685D02*
X20028714Y-159473923D01*
X20028714Y-159473923D02*
X20076333Y-159569161D01*
X88704980Y-150426657D02*
X88752600Y-150474276D01*
X88752600Y-150474276D02*
X88800219Y-150617133D01*
X88800219Y-150617133D02*
X88800219Y-150712371D01*
X88800219Y-150712371D02*
X88752600Y-150855228D01*
X88752600Y-150855228D02*
X88657361Y-150950466D01*
X88657361Y-150950466D02*
X88562123Y-150998085D01*
X88562123Y-150998085D02*
X88371647Y-151045704D01*
X88371647Y-151045704D02*
X88228790Y-151045704D01*
X88228790Y-151045704D02*
X88038314Y-150998085D01*
X88038314Y-150998085D02*
X87943076Y-150950466D01*
X87943076Y-150950466D02*
X87847838Y-150855228D01*
X87847838Y-150855228D02*
X87800219Y-150712371D01*
X87800219Y-150712371D02*
X87800219Y-150617133D01*
X87800219Y-150617133D02*
X87847838Y-150474276D01*
X87847838Y-150474276D02*
X87895457Y-150426657D01*
X88800219Y-149474276D02*
X88800219Y-150045704D01*
X88800219Y-149759990D02*
X87800219Y-149759990D01*
X87800219Y-149759990D02*
X87943076Y-149855228D01*
X87943076Y-149855228D02*
X88038314Y-149950466D01*
X88038314Y-149950466D02*
X88085933Y-150045704D01*
X87800219Y-148855228D02*
X87800219Y-148759990D01*
X87800219Y-148759990D02*
X87847838Y-148664752D01*
X87847838Y-148664752D02*
X87895457Y-148617133D01*
X87895457Y-148617133D02*
X87990695Y-148569514D01*
X87990695Y-148569514D02*
X88181171Y-148521895D01*
X88181171Y-148521895D02*
X88419266Y-148521895D01*
X88419266Y-148521895D02*
X88609742Y-148569514D01*
X88609742Y-148569514D02*
X88704980Y-148617133D01*
X88704980Y-148617133D02*
X88752600Y-148664752D01*
X88752600Y-148664752D02*
X88800219Y-148759990D01*
X88800219Y-148759990D02*
X88800219Y-148855228D01*
X88800219Y-148855228D02*
X88752600Y-148950466D01*
X88752600Y-148950466D02*
X88704980Y-148998085D01*
X88704980Y-148998085D02*
X88609742Y-149045704D01*
X88609742Y-149045704D02*
X88419266Y-149093323D01*
X88419266Y-149093323D02*
X88181171Y-149093323D01*
X88181171Y-149093323D02*
X87990695Y-149045704D01*
X87990695Y-149045704D02*
X87895457Y-148998085D01*
X87895457Y-148998085D02*
X87847838Y-148950466D01*
X87847838Y-148950466D02*
X87800219Y-148855228D01*
X36957142Y-131604819D02*
X36623809Y-131128628D01*
X36385714Y-131604819D02*
X36385714Y-130604819D01*
X36385714Y-130604819D02*
X36766666Y-130604819D01*
X36766666Y-130604819D02*
X36861904Y-130652438D01*
X36861904Y-130652438D02*
X36909523Y-130700057D01*
X36909523Y-130700057D02*
X36957142Y-130795295D01*
X36957142Y-130795295D02*
X36957142Y-130938152D01*
X36957142Y-130938152D02*
X36909523Y-131033390D01*
X36909523Y-131033390D02*
X36861904Y-131081009D01*
X36861904Y-131081009D02*
X36766666Y-131128628D01*
X36766666Y-131128628D02*
X36385714Y-131128628D01*
X37290476Y-130604819D02*
X37909523Y-130604819D01*
X37909523Y-130604819D02*
X37576190Y-130985771D01*
X37576190Y-130985771D02*
X37719047Y-130985771D01*
X37719047Y-130985771D02*
X37814285Y-131033390D01*
X37814285Y-131033390D02*
X37861904Y-131081009D01*
X37861904Y-131081009D02*
X37909523Y-131176247D01*
X37909523Y-131176247D02*
X37909523Y-131414342D01*
X37909523Y-131414342D02*
X37861904Y-131509580D01*
X37861904Y-131509580D02*
X37814285Y-131557200D01*
X37814285Y-131557200D02*
X37719047Y-131604819D01*
X37719047Y-131604819D02*
X37433333Y-131604819D01*
X37433333Y-131604819D02*
X37338095Y-131557200D01*
X37338095Y-131557200D02*
X37290476Y-131509580D01*
X38528571Y-130604819D02*
X38623809Y-130604819D01*
X38623809Y-130604819D02*
X38719047Y-130652438D01*
X38719047Y-130652438D02*
X38766666Y-130700057D01*
X38766666Y-130700057D02*
X38814285Y-130795295D01*
X38814285Y-130795295D02*
X38861904Y-130985771D01*
X38861904Y-130985771D02*
X38861904Y-131223866D01*
X38861904Y-131223866D02*
X38814285Y-131414342D01*
X38814285Y-131414342D02*
X38766666Y-131509580D01*
X38766666Y-131509580D02*
X38719047Y-131557200D01*
X38719047Y-131557200D02*
X38623809Y-131604819D01*
X38623809Y-131604819D02*
X38528571Y-131604819D01*
X38528571Y-131604819D02*
X38433333Y-131557200D01*
X38433333Y-131557200D02*
X38385714Y-131509580D01*
X38385714Y-131509580D02*
X38338095Y-131414342D01*
X38338095Y-131414342D02*
X38290476Y-131223866D01*
X38290476Y-131223866D02*
X38290476Y-130985771D01*
X38290476Y-130985771D02*
X38338095Y-130795295D01*
X38338095Y-130795295D02*
X38385714Y-130700057D01*
X38385714Y-130700057D02*
X38433333Y-130652438D01*
X38433333Y-130652438D02*
X38528571Y-130604819D01*
X83038095Y-39924819D02*
X83038095Y-40734342D01*
X83038095Y-40734342D02*
X83085714Y-40829580D01*
X83085714Y-40829580D02*
X83133333Y-40877200D01*
X83133333Y-40877200D02*
X83228571Y-40924819D01*
X83228571Y-40924819D02*
X83419047Y-40924819D01*
X83419047Y-40924819D02*
X83514285Y-40877200D01*
X83514285Y-40877200D02*
X83561904Y-40829580D01*
X83561904Y-40829580D02*
X83609523Y-40734342D01*
X83609523Y-40734342D02*
X83609523Y-39924819D01*
X84038095Y-40877200D02*
X84180952Y-40924819D01*
X84180952Y-40924819D02*
X84419047Y-40924819D01*
X84419047Y-40924819D02*
X84514285Y-40877200D01*
X84514285Y-40877200D02*
X84561904Y-40829580D01*
X84561904Y-40829580D02*
X84609523Y-40734342D01*
X84609523Y-40734342D02*
X84609523Y-40639104D01*
X84609523Y-40639104D02*
X84561904Y-40543866D01*
X84561904Y-40543866D02*
X84514285Y-40496247D01*
X84514285Y-40496247D02*
X84419047Y-40448628D01*
X84419047Y-40448628D02*
X84228571Y-40401009D01*
X84228571Y-40401009D02*
X84133333Y-40353390D01*
X84133333Y-40353390D02*
X84085714Y-40305771D01*
X84085714Y-40305771D02*
X84038095Y-40210533D01*
X84038095Y-40210533D02*
X84038095Y-40115295D01*
X84038095Y-40115295D02*
X84085714Y-40020057D01*
X84085714Y-40020057D02*
X84133333Y-39972438D01*
X84133333Y-39972438D02*
X84228571Y-39924819D01*
X84228571Y-39924819D02*
X84466666Y-39924819D01*
X84466666Y-39924819D02*
X84609523Y-39972438D01*
X85371428Y-40401009D02*
X85514285Y-40448628D01*
X85514285Y-40448628D02*
X85561904Y-40496247D01*
X85561904Y-40496247D02*
X85609523Y-40591485D01*
X85609523Y-40591485D02*
X85609523Y-40734342D01*
X85609523Y-40734342D02*
X85561904Y-40829580D01*
X85561904Y-40829580D02*
X85514285Y-40877200D01*
X85514285Y-40877200D02*
X85419047Y-40924819D01*
X85419047Y-40924819D02*
X85038095Y-40924819D01*
X85038095Y-40924819D02*
X85038095Y-39924819D01*
X85038095Y-39924819D02*
X85371428Y-39924819D01*
X85371428Y-39924819D02*
X85466666Y-39972438D01*
X85466666Y-39972438D02*
X85514285Y-40020057D01*
X85514285Y-40020057D02*
X85561904Y-40115295D01*
X85561904Y-40115295D02*
X85561904Y-40210533D01*
X85561904Y-40210533D02*
X85514285Y-40305771D01*
X85514285Y-40305771D02*
X85466666Y-40353390D01*
X85466666Y-40353390D02*
X85371428Y-40401009D01*
X85371428Y-40401009D02*
X85038095Y-40401009D01*
X83140476Y-97009819D02*
X83140476Y-97724104D01*
X83140476Y-97724104D02*
X83092857Y-97866961D01*
X83092857Y-97866961D02*
X82997619Y-97962200D01*
X82997619Y-97962200D02*
X82854762Y-98009819D01*
X82854762Y-98009819D02*
X82759524Y-98009819D01*
X84140476Y-98009819D02*
X83569048Y-98009819D01*
X83854762Y-98009819D02*
X83854762Y-97009819D01*
X83854762Y-97009819D02*
X83759524Y-97152676D01*
X83759524Y-97152676D02*
X83664286Y-97247914D01*
X83664286Y-97247914D02*
X83569048Y-97295533D01*
X84759524Y-97009819D02*
X84854762Y-97009819D01*
X84854762Y-97009819D02*
X84950000Y-97057438D01*
X84950000Y-97057438D02*
X84997619Y-97105057D01*
X84997619Y-97105057D02*
X85045238Y-97200295D01*
X85045238Y-97200295D02*
X85092857Y-97390771D01*
X85092857Y-97390771D02*
X85092857Y-97628866D01*
X85092857Y-97628866D02*
X85045238Y-97819342D01*
X85045238Y-97819342D02*
X84997619Y-97914580D01*
X84997619Y-97914580D02*
X84950000Y-97962200D01*
X84950000Y-97962200D02*
X84854762Y-98009819D01*
X84854762Y-98009819D02*
X84759524Y-98009819D01*
X84759524Y-98009819D02*
X84664286Y-97962200D01*
X84664286Y-97962200D02*
X84616667Y-97914580D01*
X84616667Y-97914580D02*
X84569048Y-97819342D01*
X84569048Y-97819342D02*
X84521429Y-97628866D01*
X84521429Y-97628866D02*
X84521429Y-97390771D01*
X84521429Y-97390771D02*
X84569048Y-97200295D01*
X84569048Y-97200295D02*
X84616667Y-97105057D01*
X84616667Y-97105057D02*
X84664286Y-97057438D01*
X84664286Y-97057438D02*
X84759524Y-97009819D01*
X23716819Y-119395285D02*
X22716819Y-119395285D01*
X22716819Y-119395285D02*
X22716819Y-119157190D01*
X22716819Y-119157190D02*
X22764438Y-119014333D01*
X22764438Y-119014333D02*
X22859676Y-118919095D01*
X22859676Y-118919095D02*
X22954914Y-118871476D01*
X22954914Y-118871476D02*
X23145390Y-118823857D01*
X23145390Y-118823857D02*
X23288247Y-118823857D01*
X23288247Y-118823857D02*
X23478723Y-118871476D01*
X23478723Y-118871476D02*
X23573961Y-118919095D01*
X23573961Y-118919095D02*
X23669200Y-119014333D01*
X23669200Y-119014333D02*
X23716819Y-119157190D01*
X23716819Y-119157190D02*
X23716819Y-119395285D01*
X23716819Y-117871476D02*
X23716819Y-118442904D01*
X23716819Y-118157190D02*
X22716819Y-118157190D01*
X22716819Y-118157190D02*
X22859676Y-118252428D01*
X22859676Y-118252428D02*
X22954914Y-118347666D01*
X22954914Y-118347666D02*
X23002533Y-118442904D01*
X23050152Y-117014333D02*
X23716819Y-117014333D01*
X22669200Y-117252428D02*
X23383485Y-117490523D01*
X23383485Y-117490523D02*
X23383485Y-116871476D01*
X42207142Y-130629580D02*
X42159523Y-130677200D01*
X42159523Y-130677200D02*
X42016666Y-130724819D01*
X42016666Y-130724819D02*
X41921428Y-130724819D01*
X41921428Y-130724819D02*
X41778571Y-130677200D01*
X41778571Y-130677200D02*
X41683333Y-130581961D01*
X41683333Y-130581961D02*
X41635714Y-130486723D01*
X41635714Y-130486723D02*
X41588095Y-130296247D01*
X41588095Y-130296247D02*
X41588095Y-130153390D01*
X41588095Y-130153390D02*
X41635714Y-129962914D01*
X41635714Y-129962914D02*
X41683333Y-129867676D01*
X41683333Y-129867676D02*
X41778571Y-129772438D01*
X41778571Y-129772438D02*
X41921428Y-129724819D01*
X41921428Y-129724819D02*
X42016666Y-129724819D01*
X42016666Y-129724819D02*
X42159523Y-129772438D01*
X42159523Y-129772438D02*
X42207142Y-129820057D01*
X42588095Y-129820057D02*
X42635714Y-129772438D01*
X42635714Y-129772438D02*
X42730952Y-129724819D01*
X42730952Y-129724819D02*
X42969047Y-129724819D01*
X42969047Y-129724819D02*
X43064285Y-129772438D01*
X43064285Y-129772438D02*
X43111904Y-129820057D01*
X43111904Y-129820057D02*
X43159523Y-129915295D01*
X43159523Y-129915295D02*
X43159523Y-130010533D01*
X43159523Y-130010533D02*
X43111904Y-130153390D01*
X43111904Y-130153390D02*
X42540476Y-130724819D01*
X42540476Y-130724819D02*
X43159523Y-130724819D01*
X43635714Y-130724819D02*
X43826190Y-130724819D01*
X43826190Y-130724819D02*
X43921428Y-130677200D01*
X43921428Y-130677200D02*
X43969047Y-130629580D01*
X43969047Y-130629580D02*
X44064285Y-130486723D01*
X44064285Y-130486723D02*
X44111904Y-130296247D01*
X44111904Y-130296247D02*
X44111904Y-129915295D01*
X44111904Y-129915295D02*
X44064285Y-129820057D01*
X44064285Y-129820057D02*
X44016666Y-129772438D01*
X44016666Y-129772438D02*
X43921428Y-129724819D01*
X43921428Y-129724819D02*
X43730952Y-129724819D01*
X43730952Y-129724819D02*
X43635714Y-129772438D01*
X43635714Y-129772438D02*
X43588095Y-129820057D01*
X43588095Y-129820057D02*
X43540476Y-129915295D01*
X43540476Y-129915295D02*
X43540476Y-130153390D01*
X43540476Y-130153390D02*
X43588095Y-130248628D01*
X43588095Y-130248628D02*
X43635714Y-130296247D01*
X43635714Y-130296247D02*
X43730952Y-130343866D01*
X43730952Y-130343866D02*
X43921428Y-130343866D01*
X43921428Y-130343866D02*
X44016666Y-130296247D01*
X44016666Y-130296247D02*
X44064285Y-130248628D01*
X44064285Y-130248628D02*
X44111904Y-130153390D01*
X88730380Y-145118057D02*
X88778000Y-145165676D01*
X88778000Y-145165676D02*
X88825619Y-145308533D01*
X88825619Y-145308533D02*
X88825619Y-145403771D01*
X88825619Y-145403771D02*
X88778000Y-145546628D01*
X88778000Y-145546628D02*
X88682761Y-145641866D01*
X88682761Y-145641866D02*
X88587523Y-145689485D01*
X88587523Y-145689485D02*
X88397047Y-145737104D01*
X88397047Y-145737104D02*
X88254190Y-145737104D01*
X88254190Y-145737104D02*
X88063714Y-145689485D01*
X88063714Y-145689485D02*
X87968476Y-145641866D01*
X87968476Y-145641866D02*
X87873238Y-145546628D01*
X87873238Y-145546628D02*
X87825619Y-145403771D01*
X87825619Y-145403771D02*
X87825619Y-145308533D01*
X87825619Y-145308533D02*
X87873238Y-145165676D01*
X87873238Y-145165676D02*
X87920857Y-145118057D01*
X88825619Y-144165676D02*
X88825619Y-144737104D01*
X88825619Y-144451390D02*
X87825619Y-144451390D01*
X87825619Y-144451390D02*
X87968476Y-144546628D01*
X87968476Y-144546628D02*
X88063714Y-144641866D01*
X88063714Y-144641866D02*
X88111333Y-144737104D01*
X87825619Y-143832342D02*
X87825619Y-143213295D01*
X87825619Y-143213295D02*
X88206571Y-143546628D01*
X88206571Y-143546628D02*
X88206571Y-143403771D01*
X88206571Y-143403771D02*
X88254190Y-143308533D01*
X88254190Y-143308533D02*
X88301809Y-143260914D01*
X88301809Y-143260914D02*
X88397047Y-143213295D01*
X88397047Y-143213295D02*
X88635142Y-143213295D01*
X88635142Y-143213295D02*
X88730380Y-143260914D01*
X88730380Y-143260914D02*
X88778000Y-143308533D01*
X88778000Y-143308533D02*
X88825619Y-143403771D01*
X88825619Y-143403771D02*
X88825619Y-143689485D01*
X88825619Y-143689485D02*
X88778000Y-143784723D01*
X88778000Y-143784723D02*
X88730380Y-143832342D01*
X52525819Y-129801857D02*
X52049628Y-130135190D01*
X52525819Y-130373285D02*
X51525819Y-130373285D01*
X51525819Y-130373285D02*
X51525819Y-129992333D01*
X51525819Y-129992333D02*
X51573438Y-129897095D01*
X51573438Y-129897095D02*
X51621057Y-129849476D01*
X51621057Y-129849476D02*
X51716295Y-129801857D01*
X51716295Y-129801857D02*
X51859152Y-129801857D01*
X51859152Y-129801857D02*
X51954390Y-129849476D01*
X51954390Y-129849476D02*
X52002009Y-129897095D01*
X52002009Y-129897095D02*
X52049628Y-129992333D01*
X52049628Y-129992333D02*
X52049628Y-130373285D01*
X52525819Y-128849476D02*
X52525819Y-129420904D01*
X52525819Y-129135190D02*
X51525819Y-129135190D01*
X51525819Y-129135190D02*
X51668676Y-129230428D01*
X51668676Y-129230428D02*
X51763914Y-129325666D01*
X51763914Y-129325666D02*
X51811533Y-129420904D01*
X52525819Y-127897095D02*
X52525819Y-128468523D01*
X52525819Y-128182809D02*
X51525819Y-128182809D01*
X51525819Y-128182809D02*
X51668676Y-128278047D01*
X51668676Y-128278047D02*
X51763914Y-128373285D01*
X51763914Y-128373285D02*
X51811533Y-128468523D01*
X48335714Y-150254819D02*
X48335714Y-149254819D01*
X48335714Y-149254819D02*
X48573809Y-149254819D01*
X48573809Y-149254819D02*
X48716666Y-149302438D01*
X48716666Y-149302438D02*
X48811904Y-149397676D01*
X48811904Y-149397676D02*
X48859523Y-149492914D01*
X48859523Y-149492914D02*
X48907142Y-149683390D01*
X48907142Y-149683390D02*
X48907142Y-149826247D01*
X48907142Y-149826247D02*
X48859523Y-150016723D01*
X48859523Y-150016723D02*
X48811904Y-150111961D01*
X48811904Y-150111961D02*
X48716666Y-150207200D01*
X48716666Y-150207200D02*
X48573809Y-150254819D01*
X48573809Y-150254819D02*
X48335714Y-150254819D01*
X49288095Y-149350057D02*
X49335714Y-149302438D01*
X49335714Y-149302438D02*
X49430952Y-149254819D01*
X49430952Y-149254819D02*
X49669047Y-149254819D01*
X49669047Y-149254819D02*
X49764285Y-149302438D01*
X49764285Y-149302438D02*
X49811904Y-149350057D01*
X49811904Y-149350057D02*
X49859523Y-149445295D01*
X49859523Y-149445295D02*
X49859523Y-149540533D01*
X49859523Y-149540533D02*
X49811904Y-149683390D01*
X49811904Y-149683390D02*
X49240476Y-150254819D01*
X49240476Y-150254819D02*
X49859523Y-150254819D01*
X50478571Y-149254819D02*
X50573809Y-149254819D01*
X50573809Y-149254819D02*
X50669047Y-149302438D01*
X50669047Y-149302438D02*
X50716666Y-149350057D01*
X50716666Y-149350057D02*
X50764285Y-149445295D01*
X50764285Y-149445295D02*
X50811904Y-149635771D01*
X50811904Y-149635771D02*
X50811904Y-149873866D01*
X50811904Y-149873866D02*
X50764285Y-150064342D01*
X50764285Y-150064342D02*
X50716666Y-150159580D01*
X50716666Y-150159580D02*
X50669047Y-150207200D01*
X50669047Y-150207200D02*
X50573809Y-150254819D01*
X50573809Y-150254819D02*
X50478571Y-150254819D01*
X50478571Y-150254819D02*
X50383333Y-150207200D01*
X50383333Y-150207200D02*
X50335714Y-150159580D01*
X50335714Y-150159580D02*
X50288095Y-150064342D01*
X50288095Y-150064342D02*
X50240476Y-149873866D01*
X50240476Y-149873866D02*
X50240476Y-149635771D01*
X50240476Y-149635771D02*
X50288095Y-149445295D01*
X50288095Y-149445295D02*
X50335714Y-149350057D01*
X50335714Y-149350057D02*
X50383333Y-149302438D01*
X50383333Y-149302438D02*
X50478571Y-149254819D01*
X21496819Y-41378094D02*
X20496819Y-41378094D01*
X20496819Y-41378094D02*
X20496819Y-41139999D01*
X20496819Y-41139999D02*
X20544438Y-40997142D01*
X20544438Y-40997142D02*
X20639676Y-40901904D01*
X20639676Y-40901904D02*
X20734914Y-40854285D01*
X20734914Y-40854285D02*
X20925390Y-40806666D01*
X20925390Y-40806666D02*
X21068247Y-40806666D01*
X21068247Y-40806666D02*
X21258723Y-40854285D01*
X21258723Y-40854285D02*
X21353961Y-40901904D01*
X21353961Y-40901904D02*
X21449200Y-40997142D01*
X21449200Y-40997142D02*
X21496819Y-41139999D01*
X21496819Y-41139999D02*
X21496819Y-41378094D01*
X20496819Y-40473332D02*
X20496819Y-39806666D01*
X20496819Y-39806666D02*
X21496819Y-40235237D01*
X20026819Y-33281904D02*
X19026819Y-33281904D01*
X20026819Y-32710476D02*
X19455390Y-33139047D01*
X19026819Y-32710476D02*
X19598247Y-33281904D01*
X33391752Y-34180809D02*
X33058419Y-34180809D01*
X33058419Y-34704619D02*
X33058419Y-33704619D01*
X33058419Y-33704619D02*
X33534609Y-33704619D01*
X34248895Y-34180809D02*
X33915562Y-34180809D01*
X33915562Y-34704619D02*
X33915562Y-33704619D01*
X33915562Y-33704619D02*
X34391752Y-33704619D01*
X34915562Y-34133190D02*
X34820324Y-34085571D01*
X34820324Y-34085571D02*
X34772705Y-34037952D01*
X34772705Y-34037952D02*
X34725086Y-33942714D01*
X34725086Y-33942714D02*
X34725086Y-33895095D01*
X34725086Y-33895095D02*
X34772705Y-33799857D01*
X34772705Y-33799857D02*
X34820324Y-33752238D01*
X34820324Y-33752238D02*
X34915562Y-33704619D01*
X34915562Y-33704619D02*
X35106038Y-33704619D01*
X35106038Y-33704619D02*
X35201276Y-33752238D01*
X35201276Y-33752238D02*
X35248895Y-33799857D01*
X35248895Y-33799857D02*
X35296514Y-33895095D01*
X35296514Y-33895095D02*
X35296514Y-33942714D01*
X35296514Y-33942714D02*
X35248895Y-34037952D01*
X35248895Y-34037952D02*
X35201276Y-34085571D01*
X35201276Y-34085571D02*
X35106038Y-34133190D01*
X35106038Y-34133190D02*
X34915562Y-34133190D01*
X34915562Y-34133190D02*
X34820324Y-34180809D01*
X34820324Y-34180809D02*
X34772705Y-34228428D01*
X34772705Y-34228428D02*
X34725086Y-34323666D01*
X34725086Y-34323666D02*
X34725086Y-34514142D01*
X34725086Y-34514142D02*
X34772705Y-34609380D01*
X34772705Y-34609380D02*
X34820324Y-34657000D01*
X34820324Y-34657000D02*
X34915562Y-34704619D01*
X34915562Y-34704619D02*
X35106038Y-34704619D01*
X35106038Y-34704619D02*
X35201276Y-34657000D01*
X35201276Y-34657000D02*
X35248895Y-34609380D01*
X35248895Y-34609380D02*
X35296514Y-34514142D01*
X35296514Y-34514142D02*
X35296514Y-34323666D01*
X35296514Y-34323666D02*
X35248895Y-34228428D01*
X35248895Y-34228428D02*
X35201276Y-34180809D01*
X35201276Y-34180809D02*
X35106038Y-34133190D01*
X35915562Y-33704619D02*
X36010800Y-33704619D01*
X36010800Y-33704619D02*
X36106038Y-33752238D01*
X36106038Y-33752238D02*
X36153657Y-33799857D01*
X36153657Y-33799857D02*
X36201276Y-33895095D01*
X36201276Y-33895095D02*
X36248895Y-34085571D01*
X36248895Y-34085571D02*
X36248895Y-34323666D01*
X36248895Y-34323666D02*
X36201276Y-34514142D01*
X36201276Y-34514142D02*
X36153657Y-34609380D01*
X36153657Y-34609380D02*
X36106038Y-34657000D01*
X36106038Y-34657000D02*
X36010800Y-34704619D01*
X36010800Y-34704619D02*
X35915562Y-34704619D01*
X35915562Y-34704619D02*
X35820324Y-34657000D01*
X35820324Y-34657000D02*
X35772705Y-34609380D01*
X35772705Y-34609380D02*
X35725086Y-34514142D01*
X35725086Y-34514142D02*
X35677467Y-34323666D01*
X35677467Y-34323666D02*
X35677467Y-34085571D01*
X35677467Y-34085571D02*
X35725086Y-33895095D01*
X35725086Y-33895095D02*
X35772705Y-33799857D01*
X35772705Y-33799857D02*
X35820324Y-33752238D01*
X35820324Y-33752238D02*
X35915562Y-33704619D01*
X36867943Y-33704619D02*
X36963181Y-33704619D01*
X36963181Y-33704619D02*
X37058419Y-33752238D01*
X37058419Y-33752238D02*
X37106038Y-33799857D01*
X37106038Y-33799857D02*
X37153657Y-33895095D01*
X37153657Y-33895095D02*
X37201276Y-34085571D01*
X37201276Y-34085571D02*
X37201276Y-34323666D01*
X37201276Y-34323666D02*
X37153657Y-34514142D01*
X37153657Y-34514142D02*
X37106038Y-34609380D01*
X37106038Y-34609380D02*
X37058419Y-34657000D01*
X37058419Y-34657000D02*
X36963181Y-34704619D01*
X36963181Y-34704619D02*
X36867943Y-34704619D01*
X36867943Y-34704619D02*
X36772705Y-34657000D01*
X36772705Y-34657000D02*
X36725086Y-34609380D01*
X36725086Y-34609380D02*
X36677467Y-34514142D01*
X36677467Y-34514142D02*
X36629848Y-34323666D01*
X36629848Y-34323666D02*
X36629848Y-34085571D01*
X36629848Y-34085571D02*
X36677467Y-33895095D01*
X36677467Y-33895095D02*
X36725086Y-33799857D01*
X36725086Y-33799857D02*
X36772705Y-33752238D01*
X36772705Y-33752238D02*
X36867943Y-33704619D01*
X38201276Y-34704619D02*
X37867943Y-34228428D01*
X37629848Y-34704619D02*
X37629848Y-33704619D01*
X37629848Y-33704619D02*
X38010800Y-33704619D01*
X38010800Y-33704619D02*
X38106038Y-33752238D01*
X38106038Y-33752238D02*
X38153657Y-33799857D01*
X38153657Y-33799857D02*
X38201276Y-33895095D01*
X38201276Y-33895095D02*
X38201276Y-34037952D01*
X38201276Y-34037952D02*
X38153657Y-34133190D01*
X38153657Y-34133190D02*
X38106038Y-34180809D01*
X38106038Y-34180809D02*
X38010800Y-34228428D01*
X38010800Y-34228428D02*
X37629848Y-34228428D01*
X39153657Y-34704619D02*
X38582229Y-34704619D01*
X38867943Y-34704619D02*
X38867943Y-33704619D01*
X38867943Y-33704619D02*
X38772705Y-33847476D01*
X38772705Y-33847476D02*
X38677467Y-33942714D01*
X38677467Y-33942714D02*
X38582229Y-33990333D01*
X39534610Y-33799857D02*
X39582229Y-33752238D01*
X39582229Y-33752238D02*
X39677467Y-33704619D01*
X39677467Y-33704619D02*
X39915562Y-33704619D01*
X39915562Y-33704619D02*
X40010800Y-33752238D01*
X40010800Y-33752238D02*
X40058419Y-33799857D01*
X40058419Y-33799857D02*
X40106038Y-33895095D01*
X40106038Y-33895095D02*
X40106038Y-33990333D01*
X40106038Y-33990333D02*
X40058419Y-34133190D01*
X40058419Y-34133190D02*
X39486991Y-34704619D01*
X39486991Y-34704619D02*
X40106038Y-34704619D01*
X40534610Y-34704619D02*
X40534610Y-33704619D01*
X41106038Y-34704619D02*
X40677467Y-34133190D01*
X41106038Y-33704619D02*
X40534610Y-34276047D01*
X41486991Y-34657000D02*
X41629848Y-34704619D01*
X41629848Y-34704619D02*
X41867943Y-34704619D01*
X41867943Y-34704619D02*
X41963181Y-34657000D01*
X41963181Y-34657000D02*
X42010800Y-34609380D01*
X42010800Y-34609380D02*
X42058419Y-34514142D01*
X42058419Y-34514142D02*
X42058419Y-34418904D01*
X42058419Y-34418904D02*
X42010800Y-34323666D01*
X42010800Y-34323666D02*
X41963181Y-34276047D01*
X41963181Y-34276047D02*
X41867943Y-34228428D01*
X41867943Y-34228428D02*
X41677467Y-34180809D01*
X41677467Y-34180809D02*
X41582229Y-34133190D01*
X41582229Y-34133190D02*
X41534610Y-34085571D01*
X41534610Y-34085571D02*
X41486991Y-33990333D01*
X41486991Y-33990333D02*
X41486991Y-33895095D01*
X41486991Y-33895095D02*
X41534610Y-33799857D01*
X41534610Y-33799857D02*
X41582229Y-33752238D01*
X41582229Y-33752238D02*
X41677467Y-33704619D01*
X41677467Y-33704619D02*
X41915562Y-33704619D01*
X41915562Y-33704619D02*
X42058419Y-33752238D01*
X42915562Y-34037952D02*
X42915562Y-34704619D01*
X42677467Y-33657000D02*
X42439372Y-34371285D01*
X42439372Y-34371285D02*
X43058419Y-34371285D01*
D10*
X56745239Y-147474809D02*
X57054763Y-147474809D01*
X57054763Y-147474809D02*
X56864287Y-147665285D01*
X56864287Y-147665285D02*
X56935715Y-147665285D01*
X56935715Y-147665285D02*
X56980358Y-147689095D01*
X56980358Y-147689095D02*
X57001191Y-147712904D01*
X57001191Y-147712904D02*
X57019048Y-147760523D01*
X57019048Y-147760523D02*
X57004167Y-147879571D01*
X57004167Y-147879571D02*
X56974406Y-147927190D01*
X56974406Y-147927190D02*
X56947620Y-147951000D01*
X56947620Y-147951000D02*
X56897025Y-147974809D01*
X56897025Y-147974809D02*
X56754167Y-147974809D01*
X56754167Y-147974809D02*
X56709525Y-147951000D01*
X56709525Y-147951000D02*
X56688691Y-147927190D01*
X57197619Y-147474809D02*
X57301786Y-147974809D01*
X57301786Y-147974809D02*
X57530953Y-147474809D01*
X57650000Y-147474809D02*
X57959524Y-147474809D01*
X57959524Y-147474809D02*
X57769048Y-147665285D01*
X57769048Y-147665285D02*
X57840476Y-147665285D01*
X57840476Y-147665285D02*
X57885119Y-147689095D01*
X57885119Y-147689095D02*
X57905952Y-147712904D01*
X57905952Y-147712904D02*
X57923809Y-147760523D01*
X57923809Y-147760523D02*
X57908928Y-147879571D01*
X57908928Y-147879571D02*
X57879167Y-147927190D01*
X57879167Y-147927190D02*
X57852381Y-147951000D01*
X57852381Y-147951000D02*
X57801786Y-147974809D01*
X57801786Y-147974809D02*
X57658928Y-147974809D01*
X57658928Y-147974809D02*
X57614286Y-147951000D01*
X57614286Y-147951000D02*
X57593452Y-147927190D01*
X58914880Y-147451000D02*
X58405951Y-148093857D01*
X59697618Y-147474809D02*
X59459523Y-147474809D01*
X59459523Y-147474809D02*
X59405952Y-147712904D01*
X59405952Y-147712904D02*
X59432737Y-147689095D01*
X59432737Y-147689095D02*
X59483332Y-147665285D01*
X59483332Y-147665285D02*
X59602380Y-147665285D01*
X59602380Y-147665285D02*
X59647023Y-147689095D01*
X59647023Y-147689095D02*
X59667856Y-147712904D01*
X59667856Y-147712904D02*
X59685713Y-147760523D01*
X59685713Y-147760523D02*
X59670832Y-147879571D01*
X59670832Y-147879571D02*
X59641071Y-147927190D01*
X59641071Y-147927190D02*
X59614285Y-147951000D01*
X59614285Y-147951000D02*
X59563690Y-147974809D01*
X59563690Y-147974809D02*
X59444642Y-147974809D01*
X59444642Y-147974809D02*
X59399999Y-147951000D01*
X59399999Y-147951000D02*
X59379166Y-147927190D01*
X59864284Y-147474809D02*
X59968451Y-147974809D01*
X59968451Y-147974809D02*
X60197618Y-147474809D01*
D13*
%TO.C,U3*%
X47625000Y-163670000D02*
X47625000Y-153430000D01*
X47625000Y-160400000D02*
X49135000Y-160400000D01*
X47625000Y-156699000D02*
X49135000Y-156699000D01*
X47625000Y-163670000D02*
X52266000Y-163670000D01*
X52266000Y-163670000D02*
X52266000Y-153430000D01*
X47625000Y-153430000D02*
X52266000Y-153430000D01*
X49135000Y-163670000D02*
X49135000Y-153430000D01*
D14*
%TO.C,IC5*%
X73755400Y-135485800D02*
X73755400Y-142285800D01*
X73755400Y-142285800D02*
X63455400Y-142285800D01*
X63455400Y-142285800D02*
X63455400Y-135485800D01*
X63455400Y-135485800D02*
X73755400Y-135485800D01*
X73725400Y-133285800D02*
X73725400Y-135135800D01*
%TO.C,IC1*%
X58337600Y-135587400D02*
X58337600Y-142387400D01*
X58337600Y-142387400D02*
X48037600Y-142387400D01*
X48037600Y-142387400D02*
X48037600Y-135587400D01*
X48037600Y-135587400D02*
X58337600Y-135587400D01*
X58307600Y-133387400D02*
X58307600Y-135237400D01*
D15*
%TO.C,U10*%
X44999600Y-134975700D02*
X44287586Y-134975700D01*
X39412414Y-134975700D02*
X38700400Y-134975700D01*
X38700400Y-134975700D02*
X38700400Y-142824300D01*
X44999600Y-142824300D02*
X44999600Y-134975700D01*
X44287586Y-142824300D02*
X44999600Y-142824300D01*
X38700400Y-142824300D02*
X39412414Y-142824300D01*
D13*
%TO.C,D3*%
X58358000Y-126237000D02*
X58358000Y-122937000D01*
X58358000Y-126237000D02*
X51348000Y-126237000D01*
X58358000Y-122937000D02*
X51348000Y-122937000D01*
%TO.C,R12*%
X68523400Y-129547864D02*
X68523400Y-129093736D01*
X69993400Y-129547864D02*
X69993400Y-129093736D01*
%TO.C,C12*%
X25323748Y-136377000D02*
X26746252Y-136377000D01*
X25323748Y-138197000D02*
X26746252Y-138197000D01*
%TO.C,D8*%
X25400000Y-46720000D02*
X25400000Y-45260000D01*
X22630000Y-45260000D02*
X28170000Y-45260000D01*
X28170000Y-45260000D02*
X28170000Y-36020000D01*
X22630000Y-43910000D02*
X28170000Y-43910000D01*
X22630000Y-43790000D02*
X28170000Y-43790000D01*
X22630000Y-43670000D02*
X28170000Y-43670000D01*
X22630000Y-36020000D02*
X22630000Y-45260000D01*
X28170000Y-36020000D02*
X22630000Y-36020000D01*
X25400000Y-34560000D02*
X25400000Y-36020000D01*
%TO.C,D19*%
X42690000Y-151660000D02*
X44610000Y-151660000D01*
X44610000Y-151660000D02*
X44610000Y-148800000D01*
X42690000Y-148800000D02*
X42690000Y-151660000D01*
%TO.C,C37*%
X33238748Y-139890000D02*
X34661252Y-139890000D01*
X33238748Y-141710000D02*
X34661252Y-141710000D01*
%TO.C,D15*%
X26240000Y-120041000D02*
X28160000Y-120041000D01*
X28160000Y-120041000D02*
X28160000Y-117181000D01*
X26240000Y-117181000D02*
X26240000Y-120041000D01*
D16*
%TO.C,PS1*%
X13665000Y-154705500D02*
X13665000Y-132705500D01*
X23165000Y-154705500D02*
X13665000Y-154705500D01*
X13665000Y-132705500D02*
X23165000Y-132705500D01*
X23165000Y-132705500D02*
X23165000Y-154705500D01*
D14*
X16465000Y-155405500D02*
G75*
G03*
X16465000Y-155405500I-100000J0D01*
G01*
D13*
%TO.C,J2*%
X52856000Y-148227600D02*
X52856000Y-149477600D01*
X53146000Y-148517600D02*
X53146000Y-153977600D01*
X53146000Y-152977600D02*
X75766000Y-152977600D01*
X53156000Y-148527600D02*
X53156000Y-149277600D01*
X53156000Y-149277600D02*
X54956000Y-149277600D01*
X53156000Y-150777600D02*
X53906000Y-150777600D01*
X53906000Y-150777600D02*
X53906000Y-152252600D01*
X53906000Y-152252600D02*
X64456000Y-151977600D01*
X54106000Y-148227600D02*
X52856000Y-148227600D01*
X54956000Y-148527600D02*
X53156000Y-148527600D01*
X54956000Y-149277600D02*
X54956000Y-148527600D01*
X56456000Y-148527600D02*
X56456000Y-149277600D01*
X56456000Y-149277600D02*
X72456000Y-149277600D01*
X72456000Y-148527600D02*
X56456000Y-148527600D01*
X72456000Y-149277600D02*
X72456000Y-148527600D01*
X73956000Y-148527600D02*
X73956000Y-149277600D01*
X73956000Y-149277600D02*
X75756000Y-149277600D01*
X75006000Y-150777600D02*
X75006000Y-152252600D01*
X75006000Y-152252600D02*
X64456000Y-151977600D01*
X75756000Y-148527600D02*
X73956000Y-148527600D01*
X75756000Y-149277600D02*
X75756000Y-148527600D01*
X75756000Y-150777600D02*
X75006000Y-150777600D01*
X75766000Y-148517600D02*
X53146000Y-148517600D01*
X75766000Y-153977600D02*
X75766000Y-148517600D01*
%TO.C,R23*%
X24164656Y-118801500D02*
X24674104Y-118801500D01*
X24164656Y-119846500D02*
X24674104Y-119846500D01*
%TO.C,C25*%
X29162000Y-55444000D02*
X26077000Y-55444000D01*
X29162000Y-55444000D02*
X29162000Y-79684000D01*
X23707000Y-55444000D02*
X20622000Y-55444000D01*
X20622000Y-55444000D02*
X20622000Y-79684000D01*
X29162000Y-79684000D02*
X26077000Y-79684000D01*
X23707000Y-79684000D02*
X20622000Y-79684000D01*
%TO.C,R5*%
X19384000Y-55460000D02*
X14144000Y-55460000D01*
X19384000Y-55460000D02*
X19384000Y-81700000D01*
X14144000Y-55460000D02*
X14144000Y-81700000D01*
X19384000Y-81700000D02*
X14144000Y-81700000D01*
%TO.C,D6*%
X79704200Y-121118400D02*
X76404200Y-121118400D01*
X79704200Y-121118400D02*
X79704200Y-128128400D01*
X76404200Y-121118400D02*
X76404200Y-128128400D01*
%TO.C,J9*%
X59490000Y-145710000D02*
X59490000Y-144600000D01*
X60250000Y-145710000D02*
X59490000Y-145710000D01*
X61010000Y-145710000D02*
X62215000Y-145710000D01*
X61010000Y-145710000D02*
X61010000Y-145163471D01*
X62215000Y-145710000D02*
X62215000Y-144907530D01*
X62215000Y-144292470D02*
X62215000Y-143490000D01*
X61010000Y-144036529D02*
X61010000Y-143490000D01*
X61010000Y-143490000D02*
X62215000Y-143490000D01*
%TO.C,R28*%
X60672936Y-141215000D02*
X61127064Y-141215000D01*
X60672936Y-142685000D02*
X61127064Y-142685000D01*
%TO.C,J3*%
X89212200Y-163474400D02*
X89212200Y-162054400D01*
X100932200Y-163474400D02*
X89212200Y-163474400D01*
X89212200Y-162054400D02*
X93712200Y-162054400D01*
X93712200Y-162054400D02*
X93712200Y-159664400D01*
X89522200Y-161214400D02*
X89522200Y-160614400D01*
X94822200Y-161164400D02*
X100322200Y-161164400D01*
X100322200Y-161164400D02*
X100322200Y-160664400D01*
X90122200Y-160914400D02*
X89522200Y-161214400D01*
X94822200Y-160664400D02*
X94822200Y-161164400D01*
X100322200Y-160664400D02*
X94822200Y-160664400D01*
X89522200Y-160614400D02*
X90122200Y-160914400D01*
X100932200Y-159664400D02*
X100932200Y-163474400D01*
X100932200Y-159664400D02*
X100932200Y-155854400D01*
X94822200Y-158664400D02*
X100322200Y-158664400D01*
X100322200Y-158664400D02*
X100322200Y-158164400D01*
X94822200Y-158164400D02*
X94822200Y-158664400D01*
X100322200Y-158164400D02*
X94822200Y-158164400D01*
X89212200Y-157274400D02*
X93712200Y-157274400D01*
X93712200Y-157274400D02*
X93712200Y-159664400D01*
X89212200Y-155854400D02*
X89212200Y-157274400D01*
X100932200Y-155854400D02*
X89212200Y-155854400D01*
%TO.C,R18*%
X76759976Y-151115500D02*
X77269424Y-151115500D01*
X76759976Y-152160500D02*
X77269424Y-152160500D01*
%TO.C,C3*%
X42761252Y-130510000D02*
X41338748Y-130510000D01*
X42761252Y-128690000D02*
X41338748Y-128690000D01*
%TO.C,C15*%
X40572200Y-148504548D02*
X40572200Y-149927052D01*
X38752200Y-148504548D02*
X38752200Y-149927052D01*
%TO.C,R1*%
X50700000Y-129386064D02*
X50700000Y-128931936D01*
X52170000Y-129386064D02*
X52170000Y-128931936D01*
%TO.C,R4*%
X74890100Y-130556724D02*
X74890100Y-130047276D01*
X75935100Y-130556724D02*
X75935100Y-130047276D01*
%TO.C,U2*%
X73996800Y-163654500D02*
X78637800Y-163654500D01*
X73996800Y-163654500D02*
X73996800Y-153414500D01*
X75506800Y-163654500D02*
X75506800Y-153414500D01*
X78637800Y-163654500D02*
X78637800Y-153414500D01*
X73996800Y-160384500D02*
X75506800Y-160384500D01*
X73996800Y-156683500D02*
X75506800Y-156683500D01*
X73996800Y-153414500D02*
X78637800Y-153414500D01*
%TO.C,J13*%
X87430000Y-73810000D02*
X86100000Y-73810000D01*
X87430000Y-72480000D02*
X87430000Y-73810000D01*
X87430000Y-71210000D02*
X87430000Y-68610000D01*
X87430000Y-71210000D02*
X84770000Y-71210000D01*
X87430000Y-68610000D02*
X84770000Y-68610000D01*
X84770000Y-71210000D02*
X84770000Y-68610000D01*
%TO.C,R20*%
X76734576Y-147991300D02*
X77244024Y-147991300D01*
X76734576Y-149036300D02*
X77244024Y-149036300D01*
%TO.C,C20*%
X47771267Y-132717000D02*
X47478733Y-132717000D01*
X47771267Y-131697000D02*
X47478733Y-131697000D01*
%TO.C,J8*%
X89180000Y-77440000D02*
X89180000Y-78550000D01*
X88420000Y-77440000D02*
X89180000Y-77440000D01*
X87660000Y-77440000D02*
X86455000Y-77440000D01*
X87660000Y-77440000D02*
X87660000Y-77986529D01*
X86455000Y-77440000D02*
X86455000Y-78242470D01*
X86455000Y-78857530D02*
X86455000Y-79660000D01*
X87660000Y-79113471D02*
X87660000Y-79660000D01*
X87660000Y-79660000D02*
X86455000Y-79660000D01*
%TO.C,C36*%
X40553733Y-145290000D02*
X40846267Y-145290000D01*
X40553733Y-146310000D02*
X40846267Y-146310000D01*
%TO.C,R6*%
X19384000Y-84416000D02*
X14144000Y-84416000D01*
X19384000Y-84416000D02*
X19384000Y-110656000D01*
X14144000Y-84416000D02*
X14144000Y-110656000D01*
X19384000Y-110656000D02*
X14144000Y-110656000D01*
%TO.C,R33*%
X19322936Y-113115000D02*
X19777064Y-113115000D01*
X19322936Y-114585000D02*
X19777064Y-114585000D01*
%TO.C,C4*%
X39396267Y-132160000D02*
X39103733Y-132160000D01*
X39396267Y-131140000D02*
X39103733Y-131140000D01*
%TO.C,U4*%
X47000600Y-160255000D02*
X40990600Y-160255000D01*
X44750600Y-153435000D02*
X40990600Y-153435000D01*
X40990600Y-160255000D02*
X40990600Y-158995000D01*
X40990600Y-153435000D02*
X40990600Y-154695000D01*
%TO.C,U1*%
X23603200Y-163692200D02*
X28244200Y-163692200D01*
X23603200Y-163692200D02*
X23603200Y-153452200D01*
X25113200Y-163692200D02*
X25113200Y-153452200D01*
X28244200Y-163692200D02*
X28244200Y-153452200D01*
X23603200Y-160422200D02*
X25113200Y-160422200D01*
X23603200Y-156721200D02*
X25113200Y-156721200D01*
X23603200Y-153452200D02*
X28244200Y-153452200D01*
%TO.C,R19*%
X76736476Y-149540700D02*
X77245924Y-149540700D01*
X76736476Y-150585700D02*
X77245924Y-150585700D01*
%TO.C,J6*%
X78890000Y-105390000D02*
X80310000Y-105390000D01*
X78890000Y-117110000D02*
X78890000Y-105390000D01*
X80310000Y-105390000D02*
X80310000Y-109890000D01*
X80310000Y-109890000D02*
X83950000Y-109890000D01*
X81150000Y-105700000D02*
X81750000Y-105700000D01*
X81200000Y-111000000D02*
X81200000Y-116500000D01*
X81200000Y-116500000D02*
X81700000Y-116500000D01*
X81450000Y-106300000D02*
X81150000Y-105700000D01*
X81700000Y-111000000D02*
X81200000Y-111000000D01*
X81700000Y-116500000D02*
X81700000Y-111000000D01*
X81750000Y-105700000D02*
X81450000Y-106300000D01*
X83700000Y-111000000D02*
X83700000Y-116500000D01*
X83700000Y-116500000D02*
X84200000Y-116500000D01*
X83950000Y-117110000D02*
X78890000Y-117110000D01*
X83950000Y-117110000D02*
X89010000Y-117110000D01*
X84200000Y-111000000D02*
X83700000Y-111000000D01*
X84200000Y-116500000D02*
X84200000Y-111000000D01*
X86200000Y-111000000D02*
X86200000Y-116500000D01*
X86200000Y-116500000D02*
X86700000Y-116500000D01*
X86700000Y-111000000D02*
X86200000Y-111000000D01*
X86700000Y-116500000D02*
X86700000Y-111000000D01*
X87590000Y-105390000D02*
X87590000Y-109890000D01*
X87590000Y-109890000D02*
X83950000Y-109890000D01*
X89010000Y-105390000D02*
X87590000Y-105390000D01*
X89010000Y-117110000D02*
X89010000Y-105390000D01*
%TO.C,R29*%
X27922936Y-113215000D02*
X28377064Y-113215000D01*
X27922936Y-114685000D02*
X28377064Y-114685000D01*
%TO.C,C23*%
X76079133Y-132967000D02*
X76371667Y-132967000D01*
X76079133Y-133987000D02*
X76371667Y-133987000D01*
%TO.C,C24*%
X20622000Y-109148000D02*
X23707000Y-109148000D01*
X20622000Y-109148000D02*
X20622000Y-84908000D01*
X26077000Y-109148000D02*
X29162000Y-109148000D01*
X29162000Y-109148000D02*
X29162000Y-84908000D01*
X20622000Y-84908000D02*
X23707000Y-84908000D01*
X26077000Y-84908000D02*
X29162000Y-84908000D01*
%TO.C,R31*%
X23272936Y-113115000D02*
X23727064Y-113115000D01*
X23272936Y-114585000D02*
X23727064Y-114585000D01*
%TO.C,R3*%
X66143200Y-129513064D02*
X66143200Y-129058936D01*
X67613200Y-129513064D02*
X67613200Y-129058936D01*
%TO.C,R32*%
X17085000Y-112622936D02*
X17085000Y-113077064D01*
X15615000Y-112622936D02*
X15615000Y-113077064D01*
%TO.C,C9*%
X22770752Y-131212000D02*
X21348248Y-131212000D01*
X22770752Y-129392000D02*
X21348248Y-129392000D01*
%TO.C,J11*%
X86390000Y-35090000D02*
X87500000Y-35090000D01*
X86390000Y-35850000D02*
X86390000Y-35090000D01*
X86390000Y-36610000D02*
X86390000Y-37815000D01*
X86390000Y-36610000D02*
X86936529Y-36610000D01*
X86390000Y-37815000D02*
X87192470Y-37815000D01*
X87807530Y-37815000D02*
X88610000Y-37815000D01*
X88063471Y-36610000D02*
X88610000Y-36610000D01*
X88610000Y-36610000D02*
X88610000Y-37815000D01*
%TO.C,R27*%
X42369100Y-148249876D02*
X42369100Y-148759324D01*
X41324100Y-148249876D02*
X41324100Y-148759324D01*
%TO.C,R24*%
X24660724Y-117560500D02*
X24151276Y-117560500D01*
X24660724Y-116515500D02*
X24151276Y-116515500D01*
D14*
%TO.C,PS2*%
X81844600Y-164250000D02*
G75*
G03*
X81844600Y-164250000I-100000J0D01*
G01*
D16*
X88544600Y-141550000D02*
X88544600Y-163550000D01*
X79044600Y-141550000D02*
X88544600Y-141550000D01*
X88544600Y-163550000D02*
X79044600Y-163550000D01*
X79044600Y-163550000D02*
X79044600Y-141550000D01*
D13*
%TO.C,J7*%
X88910000Y-34210000D02*
X87490000Y-34210000D01*
X88910000Y-22490000D02*
X88910000Y-34210000D01*
X87490000Y-34210000D02*
X87490000Y-29710000D01*
X87490000Y-29710000D02*
X83850000Y-29710000D01*
X86650000Y-33900000D02*
X86050000Y-33900000D01*
X86600000Y-28600000D02*
X86600000Y-23100000D01*
X86600000Y-23100000D02*
X86100000Y-23100000D01*
X86350000Y-33300000D02*
X86650000Y-33900000D01*
X86100000Y-28600000D02*
X86600000Y-28600000D01*
X86100000Y-23100000D02*
X86100000Y-28600000D01*
X86050000Y-33900000D02*
X86350000Y-33300000D01*
X84100000Y-28600000D02*
X84100000Y-23100000D01*
X84100000Y-23100000D02*
X83600000Y-23100000D01*
X83850000Y-22490000D02*
X88910000Y-22490000D01*
X83850000Y-22490000D02*
X78790000Y-22490000D01*
X83600000Y-28600000D02*
X84100000Y-28600000D01*
X83600000Y-23100000D02*
X83600000Y-28600000D01*
X81600000Y-28600000D02*
X81600000Y-23100000D01*
X81600000Y-23100000D02*
X81100000Y-23100000D01*
X81100000Y-28600000D02*
X81600000Y-28600000D01*
X81100000Y-23100000D02*
X81100000Y-28600000D01*
X80210000Y-34210000D02*
X80210000Y-29710000D01*
X80210000Y-29710000D02*
X83850000Y-29710000D01*
X78790000Y-34210000D02*
X80210000Y-34210000D01*
X78790000Y-22490000D02*
X78790000Y-34210000D01*
%TO.C,J1*%
X19245800Y-155854400D02*
X19245800Y-157274400D01*
X7525800Y-155854400D02*
X19245800Y-155854400D01*
X19245800Y-157274400D02*
X14745800Y-157274400D01*
X14745800Y-157274400D02*
X14745800Y-159664400D01*
X18935800Y-158114400D02*
X18935800Y-158714400D01*
X13635800Y-158164400D02*
X8135800Y-158164400D01*
X8135800Y-158164400D02*
X8135800Y-158664400D01*
X18335800Y-158414400D02*
X18935800Y-158114400D01*
X13635800Y-158664400D02*
X13635800Y-158164400D01*
X8135800Y-158664400D02*
X13635800Y-158664400D01*
X18935800Y-158714400D02*
X18335800Y-158414400D01*
X7525800Y-159664400D02*
X7525800Y-155854400D01*
X7525800Y-159664400D02*
X7525800Y-163474400D01*
X13635800Y-160664400D02*
X8135800Y-160664400D01*
X8135800Y-160664400D02*
X8135800Y-161164400D01*
X13635800Y-161164400D02*
X13635800Y-160664400D01*
X8135800Y-161164400D02*
X13635800Y-161164400D01*
X19245800Y-162054400D02*
X14745800Y-162054400D01*
X14745800Y-162054400D02*
X14745800Y-159664400D01*
X19245800Y-163474400D02*
X19245800Y-162054400D01*
X7525800Y-163474400D02*
X19245800Y-163474400D01*
%TO.C,C10*%
X89285400Y-150495052D02*
X89285400Y-149072548D01*
X91105400Y-150495052D02*
X91105400Y-149072548D01*
%TO.C,R30*%
X37827064Y-130235000D02*
X37372936Y-130235000D01*
X37827064Y-128765000D02*
X37372936Y-128765000D01*
D11*
%TO.C,U9*%
X74140000Y-37930000D02*
X94460000Y-37930000D01*
X74140000Y-91270000D02*
X74140000Y-37930000D01*
X80490000Y-37930000D02*
X80490000Y-43010000D01*
X80490000Y-43010000D02*
X88110000Y-43010000D01*
X88110000Y-43010000D02*
X88110000Y-37930000D01*
X94460000Y-37930000D02*
X94460000Y-91270000D01*
X94460000Y-91270000D02*
X74140000Y-91270000D01*
D13*
%TO.C,J10*%
X82840000Y-98490000D02*
X83950000Y-98490000D01*
X82840000Y-99250000D02*
X82840000Y-98490000D01*
X82840000Y-100010000D02*
X82840000Y-101215000D01*
X82840000Y-100010000D02*
X83386529Y-100010000D01*
X82840000Y-101215000D02*
X83642470Y-101215000D01*
X84257530Y-101215000D02*
X85060000Y-101215000D01*
X84513471Y-100010000D02*
X85060000Y-100010000D01*
X85060000Y-100010000D02*
X85060000Y-101215000D01*
%TO.C,D14*%
X22572000Y-116321000D02*
X20652000Y-116321000D01*
X20652000Y-116321000D02*
X20652000Y-119181000D01*
X22572000Y-119181000D02*
X22572000Y-116321000D01*
%TO.C,C29*%
X42703733Y-131190000D02*
X42996267Y-131190000D01*
X42703733Y-132210000D02*
X42996267Y-132210000D01*
%TO.C,C13*%
X89310800Y-145186452D02*
X89310800Y-143763948D01*
X91130800Y-145186452D02*
X91130800Y-143763948D01*
%TO.C,R11*%
X52986000Y-129386064D02*
X52986000Y-128931936D01*
X54456000Y-129386064D02*
X54456000Y-128931936D01*
%TO.C,D20*%
X52360000Y-148910000D02*
X52360000Y-146890000D01*
X52360000Y-146890000D02*
X48450000Y-146890000D01*
X48450000Y-148910000D02*
X52360000Y-148910000D01*
%TO.C,D7*%
X17272000Y-34560000D02*
X17272000Y-36020000D01*
X20042000Y-36020000D02*
X14502000Y-36020000D01*
X14502000Y-36020000D02*
X14502000Y-45260000D01*
X20042000Y-37370000D02*
X14502000Y-37370000D01*
X20042000Y-37490000D02*
X14502000Y-37490000D01*
X20042000Y-37610000D02*
X14502000Y-37610000D01*
X20042000Y-45260000D02*
X20042000Y-36020000D01*
X14502000Y-45260000D02*
X20042000Y-45260000D01*
X17272000Y-46720000D02*
X17272000Y-45260000D01*
%TO.C,U7*%
X92010800Y-122249800D02*
X30010800Y-122249800D01*
X92010800Y-14249800D02*
X92010800Y-122249800D01*
X92010800Y-14249800D02*
X30010800Y-14249800D01*
X30010800Y-14249800D02*
X30010800Y-122249800D01*
%TD*%
M02*
