G04 #@! TF.GenerationSoftware,KiCad,Pcbnew,7.0.9*
G04 #@! TF.CreationDate,2024-02-20T19:06:26+05:30*
G04 #@! TF.ProjectId,Chg_Dschg Controller,4368675f-4473-4636-9867-20436f6e7472,rev?*
G04 #@! TF.SameCoordinates,Original*
G04 #@! TF.FileFunction,Legend,Bot*
G04 #@! TF.FilePolarity,Positive*
%FSLAX46Y46*%
G04 Gerber Fmt 4.6, Leading zero omitted, Abs format (unit mm)*
G04 Created by KiCad (PCBNEW 7.0.9) date 2024-02-20 19:06:26*
%MOMM*%
%LPD*%
G01*
G04 APERTURE LIST*
%ADD10C,0.250000*%
%ADD11C,0.300000*%
%ADD12C,0.150000*%
%ADD13C,0.120000*%
G04 APERTURE END LIST*
D10*
X110786003Y-49299380D02*
X110833622Y-49347000D01*
X110833622Y-49347000D02*
X110976479Y-49394619D01*
X110976479Y-49394619D02*
X111071717Y-49394619D01*
X111071717Y-49394619D02*
X111214574Y-49347000D01*
X111214574Y-49347000D02*
X111309812Y-49251761D01*
X111309812Y-49251761D02*
X111357431Y-49156523D01*
X111357431Y-49156523D02*
X111405050Y-48966047D01*
X111405050Y-48966047D02*
X111405050Y-48823190D01*
X111405050Y-48823190D02*
X111357431Y-48632714D01*
X111357431Y-48632714D02*
X111309812Y-48537476D01*
X111309812Y-48537476D02*
X111214574Y-48442238D01*
X111214574Y-48442238D02*
X111071717Y-48394619D01*
X111071717Y-48394619D02*
X110976479Y-48394619D01*
X110976479Y-48394619D02*
X110833622Y-48442238D01*
X110833622Y-48442238D02*
X110786003Y-48489857D01*
X110357431Y-49394619D02*
X110357431Y-48394619D01*
X109928860Y-49394619D02*
X109928860Y-48870809D01*
X109928860Y-48870809D02*
X109976479Y-48775571D01*
X109976479Y-48775571D02*
X110071717Y-48727952D01*
X110071717Y-48727952D02*
X110214574Y-48727952D01*
X110214574Y-48727952D02*
X110309812Y-48775571D01*
X110309812Y-48775571D02*
X110357431Y-48823190D01*
X109024098Y-49394619D02*
X109024098Y-48870809D01*
X109024098Y-48870809D02*
X109071717Y-48775571D01*
X109071717Y-48775571D02*
X109166955Y-48727952D01*
X109166955Y-48727952D02*
X109357431Y-48727952D01*
X109357431Y-48727952D02*
X109452669Y-48775571D01*
X109024098Y-49347000D02*
X109119336Y-49394619D01*
X109119336Y-49394619D02*
X109357431Y-49394619D01*
X109357431Y-49394619D02*
X109452669Y-49347000D01*
X109452669Y-49347000D02*
X109500288Y-49251761D01*
X109500288Y-49251761D02*
X109500288Y-49156523D01*
X109500288Y-49156523D02*
X109452669Y-49061285D01*
X109452669Y-49061285D02*
X109357431Y-49013666D01*
X109357431Y-49013666D02*
X109119336Y-49013666D01*
X109119336Y-49013666D02*
X109024098Y-48966047D01*
X108547907Y-49394619D02*
X108547907Y-48727952D01*
X108547907Y-48918428D02*
X108500288Y-48823190D01*
X108500288Y-48823190D02*
X108452669Y-48775571D01*
X108452669Y-48775571D02*
X108357431Y-48727952D01*
X108357431Y-48727952D02*
X108262193Y-48727952D01*
X107500288Y-48727952D02*
X107500288Y-49537476D01*
X107500288Y-49537476D02*
X107547907Y-49632714D01*
X107547907Y-49632714D02*
X107595526Y-49680333D01*
X107595526Y-49680333D02*
X107690764Y-49727952D01*
X107690764Y-49727952D02*
X107833621Y-49727952D01*
X107833621Y-49727952D02*
X107928859Y-49680333D01*
X107500288Y-49347000D02*
X107595526Y-49394619D01*
X107595526Y-49394619D02*
X107786002Y-49394619D01*
X107786002Y-49394619D02*
X107881240Y-49347000D01*
X107881240Y-49347000D02*
X107928859Y-49299380D01*
X107928859Y-49299380D02*
X107976478Y-49204142D01*
X107976478Y-49204142D02*
X107976478Y-48918428D01*
X107976478Y-48918428D02*
X107928859Y-48823190D01*
X107928859Y-48823190D02*
X107881240Y-48775571D01*
X107881240Y-48775571D02*
X107786002Y-48727952D01*
X107786002Y-48727952D02*
X107595526Y-48727952D01*
X107595526Y-48727952D02*
X107500288Y-48775571D01*
X106643145Y-49347000D02*
X106738383Y-49394619D01*
X106738383Y-49394619D02*
X106928859Y-49394619D01*
X106928859Y-49394619D02*
X107024097Y-49347000D01*
X107024097Y-49347000D02*
X107071716Y-49251761D01*
X107071716Y-49251761D02*
X107071716Y-48870809D01*
X107071716Y-48870809D02*
X107024097Y-48775571D01*
X107024097Y-48775571D02*
X106928859Y-48727952D01*
X106928859Y-48727952D02*
X106738383Y-48727952D01*
X106738383Y-48727952D02*
X106643145Y-48775571D01*
X106643145Y-48775571D02*
X106595526Y-48870809D01*
X106595526Y-48870809D02*
X106595526Y-48966047D01*
X106595526Y-48966047D02*
X107071716Y-49061285D01*
X106166954Y-49394619D02*
X106166954Y-48727952D01*
X106166954Y-48918428D02*
X106119335Y-48823190D01*
X106119335Y-48823190D02*
X106071716Y-48775571D01*
X106071716Y-48775571D02*
X105976478Y-48727952D01*
X105976478Y-48727952D02*
X105881240Y-48727952D01*
X105547906Y-49013666D02*
X104786002Y-49013666D01*
X110786003Y-54379380D02*
X110833622Y-54427000D01*
X110833622Y-54427000D02*
X110976479Y-54474619D01*
X110976479Y-54474619D02*
X111071717Y-54474619D01*
X111071717Y-54474619D02*
X111214574Y-54427000D01*
X111214574Y-54427000D02*
X111309812Y-54331761D01*
X111309812Y-54331761D02*
X111357431Y-54236523D01*
X111357431Y-54236523D02*
X111405050Y-54046047D01*
X111405050Y-54046047D02*
X111405050Y-53903190D01*
X111405050Y-53903190D02*
X111357431Y-53712714D01*
X111357431Y-53712714D02*
X111309812Y-53617476D01*
X111309812Y-53617476D02*
X111214574Y-53522238D01*
X111214574Y-53522238D02*
X111071717Y-53474619D01*
X111071717Y-53474619D02*
X110976479Y-53474619D01*
X110976479Y-53474619D02*
X110833622Y-53522238D01*
X110833622Y-53522238D02*
X110786003Y-53569857D01*
X110357431Y-54474619D02*
X110357431Y-53474619D01*
X109928860Y-54474619D02*
X109928860Y-53950809D01*
X109928860Y-53950809D02*
X109976479Y-53855571D01*
X109976479Y-53855571D02*
X110071717Y-53807952D01*
X110071717Y-53807952D02*
X110214574Y-53807952D01*
X110214574Y-53807952D02*
X110309812Y-53855571D01*
X110309812Y-53855571D02*
X110357431Y-53903190D01*
X109024098Y-54474619D02*
X109024098Y-53950809D01*
X109024098Y-53950809D02*
X109071717Y-53855571D01*
X109071717Y-53855571D02*
X109166955Y-53807952D01*
X109166955Y-53807952D02*
X109357431Y-53807952D01*
X109357431Y-53807952D02*
X109452669Y-53855571D01*
X109024098Y-54427000D02*
X109119336Y-54474619D01*
X109119336Y-54474619D02*
X109357431Y-54474619D01*
X109357431Y-54474619D02*
X109452669Y-54427000D01*
X109452669Y-54427000D02*
X109500288Y-54331761D01*
X109500288Y-54331761D02*
X109500288Y-54236523D01*
X109500288Y-54236523D02*
X109452669Y-54141285D01*
X109452669Y-54141285D02*
X109357431Y-54093666D01*
X109357431Y-54093666D02*
X109119336Y-54093666D01*
X109119336Y-54093666D02*
X109024098Y-54046047D01*
X108547907Y-54474619D02*
X108547907Y-53807952D01*
X108547907Y-53998428D02*
X108500288Y-53903190D01*
X108500288Y-53903190D02*
X108452669Y-53855571D01*
X108452669Y-53855571D02*
X108357431Y-53807952D01*
X108357431Y-53807952D02*
X108262193Y-53807952D01*
X107500288Y-53807952D02*
X107500288Y-54617476D01*
X107500288Y-54617476D02*
X107547907Y-54712714D01*
X107547907Y-54712714D02*
X107595526Y-54760333D01*
X107595526Y-54760333D02*
X107690764Y-54807952D01*
X107690764Y-54807952D02*
X107833621Y-54807952D01*
X107833621Y-54807952D02*
X107928859Y-54760333D01*
X107500288Y-54427000D02*
X107595526Y-54474619D01*
X107595526Y-54474619D02*
X107786002Y-54474619D01*
X107786002Y-54474619D02*
X107881240Y-54427000D01*
X107881240Y-54427000D02*
X107928859Y-54379380D01*
X107928859Y-54379380D02*
X107976478Y-54284142D01*
X107976478Y-54284142D02*
X107976478Y-53998428D01*
X107976478Y-53998428D02*
X107928859Y-53903190D01*
X107928859Y-53903190D02*
X107881240Y-53855571D01*
X107881240Y-53855571D02*
X107786002Y-53807952D01*
X107786002Y-53807952D02*
X107595526Y-53807952D01*
X107595526Y-53807952D02*
X107500288Y-53855571D01*
X106643145Y-54427000D02*
X106738383Y-54474619D01*
X106738383Y-54474619D02*
X106928859Y-54474619D01*
X106928859Y-54474619D02*
X107024097Y-54427000D01*
X107024097Y-54427000D02*
X107071716Y-54331761D01*
X107071716Y-54331761D02*
X107071716Y-53950809D01*
X107071716Y-53950809D02*
X107024097Y-53855571D01*
X107024097Y-53855571D02*
X106928859Y-53807952D01*
X106928859Y-53807952D02*
X106738383Y-53807952D01*
X106738383Y-53807952D02*
X106643145Y-53855571D01*
X106643145Y-53855571D02*
X106595526Y-53950809D01*
X106595526Y-53950809D02*
X106595526Y-54046047D01*
X106595526Y-54046047D02*
X107071716Y-54141285D01*
X106166954Y-54474619D02*
X106166954Y-53807952D01*
X106166954Y-53998428D02*
X106119335Y-53903190D01*
X106119335Y-53903190D02*
X106071716Y-53855571D01*
X106071716Y-53855571D02*
X105976478Y-53807952D01*
X105976478Y-53807952D02*
X105881240Y-53807952D01*
X105547906Y-54093666D02*
X104786002Y-54093666D01*
X105166954Y-54474619D02*
X105166954Y-53712714D01*
X66336003Y-27074380D02*
X66383622Y-27122000D01*
X66383622Y-27122000D02*
X66526479Y-27169619D01*
X66526479Y-27169619D02*
X66621717Y-27169619D01*
X66621717Y-27169619D02*
X66764574Y-27122000D01*
X66764574Y-27122000D02*
X66859812Y-27026761D01*
X66859812Y-27026761D02*
X66907431Y-26931523D01*
X66907431Y-26931523D02*
X66955050Y-26741047D01*
X66955050Y-26741047D02*
X66955050Y-26598190D01*
X66955050Y-26598190D02*
X66907431Y-26407714D01*
X66907431Y-26407714D02*
X66859812Y-26312476D01*
X66859812Y-26312476D02*
X66764574Y-26217238D01*
X66764574Y-26217238D02*
X66621717Y-26169619D01*
X66621717Y-26169619D02*
X66526479Y-26169619D01*
X66526479Y-26169619D02*
X66383622Y-26217238D01*
X66383622Y-26217238D02*
X66336003Y-26264857D01*
X65764574Y-27169619D02*
X65859812Y-27122000D01*
X65859812Y-27122000D02*
X65907431Y-27074380D01*
X65907431Y-27074380D02*
X65955050Y-26979142D01*
X65955050Y-26979142D02*
X65955050Y-26693428D01*
X65955050Y-26693428D02*
X65907431Y-26598190D01*
X65907431Y-26598190D02*
X65859812Y-26550571D01*
X65859812Y-26550571D02*
X65764574Y-26502952D01*
X65764574Y-26502952D02*
X65621717Y-26502952D01*
X65621717Y-26502952D02*
X65526479Y-26550571D01*
X65526479Y-26550571D02*
X65478860Y-26598190D01*
X65478860Y-26598190D02*
X65431241Y-26693428D01*
X65431241Y-26693428D02*
X65431241Y-26979142D01*
X65431241Y-26979142D02*
X65478860Y-27074380D01*
X65478860Y-27074380D02*
X65526479Y-27122000D01*
X65526479Y-27122000D02*
X65621717Y-27169619D01*
X65621717Y-27169619D02*
X65764574Y-27169619D01*
X65002669Y-26502952D02*
X65002669Y-27169619D01*
X65002669Y-26598190D02*
X64955050Y-26550571D01*
X64955050Y-26550571D02*
X64859812Y-26502952D01*
X64859812Y-26502952D02*
X64716955Y-26502952D01*
X64716955Y-26502952D02*
X64621717Y-26550571D01*
X64621717Y-26550571D02*
X64574098Y-26645809D01*
X64574098Y-26645809D02*
X64574098Y-27169619D01*
X64240764Y-26502952D02*
X63859812Y-26502952D01*
X64097907Y-26169619D02*
X64097907Y-27026761D01*
X64097907Y-27026761D02*
X64050288Y-27122000D01*
X64050288Y-27122000D02*
X63955050Y-27169619D01*
X63955050Y-27169619D02*
X63859812Y-27169619D01*
X63097907Y-27169619D02*
X63097907Y-26645809D01*
X63097907Y-26645809D02*
X63145526Y-26550571D01*
X63145526Y-26550571D02*
X63240764Y-26502952D01*
X63240764Y-26502952D02*
X63431240Y-26502952D01*
X63431240Y-26502952D02*
X63526478Y-26550571D01*
X63097907Y-27122000D02*
X63193145Y-27169619D01*
X63193145Y-27169619D02*
X63431240Y-27169619D01*
X63431240Y-27169619D02*
X63526478Y-27122000D01*
X63526478Y-27122000D02*
X63574097Y-27026761D01*
X63574097Y-27026761D02*
X63574097Y-26931523D01*
X63574097Y-26931523D02*
X63526478Y-26836285D01*
X63526478Y-26836285D02*
X63431240Y-26788666D01*
X63431240Y-26788666D02*
X63193145Y-26788666D01*
X63193145Y-26788666D02*
X63097907Y-26741047D01*
X62193145Y-27122000D02*
X62288383Y-27169619D01*
X62288383Y-27169619D02*
X62478859Y-27169619D01*
X62478859Y-27169619D02*
X62574097Y-27122000D01*
X62574097Y-27122000D02*
X62621716Y-27074380D01*
X62621716Y-27074380D02*
X62669335Y-26979142D01*
X62669335Y-26979142D02*
X62669335Y-26693428D01*
X62669335Y-26693428D02*
X62621716Y-26598190D01*
X62621716Y-26598190D02*
X62574097Y-26550571D01*
X62574097Y-26550571D02*
X62478859Y-26502952D01*
X62478859Y-26502952D02*
X62288383Y-26502952D01*
X62288383Y-26502952D02*
X62193145Y-26550571D01*
X61907430Y-26502952D02*
X61526478Y-26502952D01*
X61764573Y-26169619D02*
X61764573Y-27026761D01*
X61764573Y-27026761D02*
X61716954Y-27122000D01*
X61716954Y-27122000D02*
X61621716Y-27169619D01*
X61621716Y-27169619D02*
X61526478Y-27169619D01*
X61050287Y-27169619D02*
X61145525Y-27122000D01*
X61145525Y-27122000D02*
X61193144Y-27074380D01*
X61193144Y-27074380D02*
X61240763Y-26979142D01*
X61240763Y-26979142D02*
X61240763Y-26693428D01*
X61240763Y-26693428D02*
X61193144Y-26598190D01*
X61193144Y-26598190D02*
X61145525Y-26550571D01*
X61145525Y-26550571D02*
X61050287Y-26502952D01*
X61050287Y-26502952D02*
X60907430Y-26502952D01*
X60907430Y-26502952D02*
X60812192Y-26550571D01*
X60812192Y-26550571D02*
X60764573Y-26598190D01*
X60764573Y-26598190D02*
X60716954Y-26693428D01*
X60716954Y-26693428D02*
X60716954Y-26979142D01*
X60716954Y-26979142D02*
X60764573Y-27074380D01*
X60764573Y-27074380D02*
X60812192Y-27122000D01*
X60812192Y-27122000D02*
X60907430Y-27169619D01*
X60907430Y-27169619D02*
X61050287Y-27169619D01*
X60288382Y-27169619D02*
X60288382Y-26502952D01*
X60288382Y-26693428D02*
X60240763Y-26598190D01*
X60240763Y-26598190D02*
X60193144Y-26550571D01*
X60193144Y-26550571D02*
X60097906Y-26502952D01*
X60097906Y-26502952D02*
X60002668Y-26502952D01*
D11*
X108800489Y-86645114D02*
X108586203Y-86716542D01*
X108586203Y-86716542D02*
X108514774Y-86787971D01*
X108514774Y-86787971D02*
X108443346Y-86930828D01*
X108443346Y-86930828D02*
X108443346Y-87145114D01*
X108443346Y-87145114D02*
X108514774Y-87287971D01*
X108514774Y-87287971D02*
X108586203Y-87359400D01*
X108586203Y-87359400D02*
X108729060Y-87430828D01*
X108729060Y-87430828D02*
X109300489Y-87430828D01*
X109300489Y-87430828D02*
X109300489Y-85930828D01*
X109300489Y-85930828D02*
X108800489Y-85930828D01*
X108800489Y-85930828D02*
X108657632Y-86002257D01*
X108657632Y-86002257D02*
X108586203Y-86073685D01*
X108586203Y-86073685D02*
X108514774Y-86216542D01*
X108514774Y-86216542D02*
X108514774Y-86359400D01*
X108514774Y-86359400D02*
X108586203Y-86502257D01*
X108586203Y-86502257D02*
X108657632Y-86573685D01*
X108657632Y-86573685D02*
X108800489Y-86645114D01*
X108800489Y-86645114D02*
X109300489Y-86645114D01*
X107871917Y-87002257D02*
X107157632Y-87002257D01*
X108014774Y-87430828D02*
X107514774Y-85930828D01*
X107514774Y-85930828D02*
X107014774Y-87430828D01*
X106729060Y-85930828D02*
X105871918Y-85930828D01*
X106300489Y-87430828D02*
X106300489Y-85930828D01*
X105586203Y-85930828D02*
X104729061Y-85930828D01*
X105157632Y-87430828D02*
X105157632Y-85930828D01*
X104229061Y-86859400D02*
X103086204Y-86859400D01*
X108800489Y-92360114D02*
X108586203Y-92431542D01*
X108586203Y-92431542D02*
X108514774Y-92502971D01*
X108514774Y-92502971D02*
X108443346Y-92645828D01*
X108443346Y-92645828D02*
X108443346Y-92860114D01*
X108443346Y-92860114D02*
X108514774Y-93002971D01*
X108514774Y-93002971D02*
X108586203Y-93074400D01*
X108586203Y-93074400D02*
X108729060Y-93145828D01*
X108729060Y-93145828D02*
X109300489Y-93145828D01*
X109300489Y-93145828D02*
X109300489Y-91645828D01*
X109300489Y-91645828D02*
X108800489Y-91645828D01*
X108800489Y-91645828D02*
X108657632Y-91717257D01*
X108657632Y-91717257D02*
X108586203Y-91788685D01*
X108586203Y-91788685D02*
X108514774Y-91931542D01*
X108514774Y-91931542D02*
X108514774Y-92074400D01*
X108514774Y-92074400D02*
X108586203Y-92217257D01*
X108586203Y-92217257D02*
X108657632Y-92288685D01*
X108657632Y-92288685D02*
X108800489Y-92360114D01*
X108800489Y-92360114D02*
X109300489Y-92360114D01*
X107871917Y-92717257D02*
X107157632Y-92717257D01*
X108014774Y-93145828D02*
X107514774Y-91645828D01*
X107514774Y-91645828D02*
X107014774Y-93145828D01*
X106729060Y-91645828D02*
X105871918Y-91645828D01*
X106300489Y-93145828D02*
X106300489Y-91645828D01*
X105586203Y-91645828D02*
X104729061Y-91645828D01*
X105157632Y-93145828D02*
X105157632Y-91645828D01*
X104229061Y-92574400D02*
X103086204Y-92574400D01*
X103657632Y-93145828D02*
X103657632Y-92002971D01*
D10*
X110389098Y-65675809D02*
X110246241Y-65723428D01*
X110246241Y-65723428D02*
X110198622Y-65771047D01*
X110198622Y-65771047D02*
X110151003Y-65866285D01*
X110151003Y-65866285D02*
X110151003Y-66009142D01*
X110151003Y-66009142D02*
X110198622Y-66104380D01*
X110198622Y-66104380D02*
X110246241Y-66152000D01*
X110246241Y-66152000D02*
X110341479Y-66199619D01*
X110341479Y-66199619D02*
X110722431Y-66199619D01*
X110722431Y-66199619D02*
X110722431Y-65199619D01*
X110722431Y-65199619D02*
X110389098Y-65199619D01*
X110389098Y-65199619D02*
X110293860Y-65247238D01*
X110293860Y-65247238D02*
X110246241Y-65294857D01*
X110246241Y-65294857D02*
X110198622Y-65390095D01*
X110198622Y-65390095D02*
X110198622Y-65485333D01*
X110198622Y-65485333D02*
X110246241Y-65580571D01*
X110246241Y-65580571D02*
X110293860Y-65628190D01*
X110293860Y-65628190D02*
X110389098Y-65675809D01*
X110389098Y-65675809D02*
X110722431Y-65675809D01*
X109579574Y-66199619D02*
X109674812Y-66152000D01*
X109674812Y-66152000D02*
X109722431Y-66104380D01*
X109722431Y-66104380D02*
X109770050Y-66009142D01*
X109770050Y-66009142D02*
X109770050Y-65723428D01*
X109770050Y-65723428D02*
X109722431Y-65628190D01*
X109722431Y-65628190D02*
X109674812Y-65580571D01*
X109674812Y-65580571D02*
X109579574Y-65532952D01*
X109579574Y-65532952D02*
X109436717Y-65532952D01*
X109436717Y-65532952D02*
X109341479Y-65580571D01*
X109341479Y-65580571D02*
X109293860Y-65628190D01*
X109293860Y-65628190D02*
X109246241Y-65723428D01*
X109246241Y-65723428D02*
X109246241Y-66009142D01*
X109246241Y-66009142D02*
X109293860Y-66104380D01*
X109293860Y-66104380D02*
X109341479Y-66152000D01*
X109341479Y-66152000D02*
X109436717Y-66199619D01*
X109436717Y-66199619D02*
X109579574Y-66199619D01*
X108674812Y-66199619D02*
X108770050Y-66152000D01*
X108770050Y-66152000D02*
X108817669Y-66104380D01*
X108817669Y-66104380D02*
X108865288Y-66009142D01*
X108865288Y-66009142D02*
X108865288Y-65723428D01*
X108865288Y-65723428D02*
X108817669Y-65628190D01*
X108817669Y-65628190D02*
X108770050Y-65580571D01*
X108770050Y-65580571D02*
X108674812Y-65532952D01*
X108674812Y-65532952D02*
X108531955Y-65532952D01*
X108531955Y-65532952D02*
X108436717Y-65580571D01*
X108436717Y-65580571D02*
X108389098Y-65628190D01*
X108389098Y-65628190D02*
X108341479Y-65723428D01*
X108341479Y-65723428D02*
X108341479Y-66009142D01*
X108341479Y-66009142D02*
X108389098Y-66104380D01*
X108389098Y-66104380D02*
X108436717Y-66152000D01*
X108436717Y-66152000D02*
X108531955Y-66199619D01*
X108531955Y-66199619D02*
X108674812Y-66199619D01*
X107960526Y-66152000D02*
X107865288Y-66199619D01*
X107865288Y-66199619D02*
X107674812Y-66199619D01*
X107674812Y-66199619D02*
X107579574Y-66152000D01*
X107579574Y-66152000D02*
X107531955Y-66056761D01*
X107531955Y-66056761D02*
X107531955Y-66009142D01*
X107531955Y-66009142D02*
X107579574Y-65913904D01*
X107579574Y-65913904D02*
X107674812Y-65866285D01*
X107674812Y-65866285D02*
X107817669Y-65866285D01*
X107817669Y-65866285D02*
X107912907Y-65818666D01*
X107912907Y-65818666D02*
X107960526Y-65723428D01*
X107960526Y-65723428D02*
X107960526Y-65675809D01*
X107960526Y-65675809D02*
X107912907Y-65580571D01*
X107912907Y-65580571D02*
X107817669Y-65532952D01*
X107817669Y-65532952D02*
X107674812Y-65532952D01*
X107674812Y-65532952D02*
X107579574Y-65580571D01*
X107246240Y-65532952D02*
X106865288Y-65532952D01*
X107103383Y-65199619D02*
X107103383Y-66056761D01*
X107103383Y-66056761D02*
X107055764Y-66152000D01*
X107055764Y-66152000D02*
X106960526Y-66199619D01*
X106960526Y-66199619D02*
X106865288Y-66199619D01*
X106531954Y-66199619D02*
X106531954Y-65199619D01*
X106055764Y-65532952D02*
X106055764Y-66199619D01*
X106055764Y-65628190D02*
X106008145Y-65580571D01*
X106008145Y-65580571D02*
X105912907Y-65532952D01*
X105912907Y-65532952D02*
X105770050Y-65532952D01*
X105770050Y-65532952D02*
X105674812Y-65580571D01*
X105674812Y-65580571D02*
X105627193Y-65675809D01*
X105627193Y-65675809D02*
X105627193Y-66199619D01*
X105151002Y-65818666D02*
X104389098Y-65818666D01*
X104770050Y-66199619D02*
X104770050Y-65437714D01*
X110389098Y-70460809D02*
X110246241Y-70508428D01*
X110246241Y-70508428D02*
X110198622Y-70556047D01*
X110198622Y-70556047D02*
X110151003Y-70651285D01*
X110151003Y-70651285D02*
X110151003Y-70794142D01*
X110151003Y-70794142D02*
X110198622Y-70889380D01*
X110198622Y-70889380D02*
X110246241Y-70937000D01*
X110246241Y-70937000D02*
X110341479Y-70984619D01*
X110341479Y-70984619D02*
X110722431Y-70984619D01*
X110722431Y-70984619D02*
X110722431Y-69984619D01*
X110722431Y-69984619D02*
X110389098Y-69984619D01*
X110389098Y-69984619D02*
X110293860Y-70032238D01*
X110293860Y-70032238D02*
X110246241Y-70079857D01*
X110246241Y-70079857D02*
X110198622Y-70175095D01*
X110198622Y-70175095D02*
X110198622Y-70270333D01*
X110198622Y-70270333D02*
X110246241Y-70365571D01*
X110246241Y-70365571D02*
X110293860Y-70413190D01*
X110293860Y-70413190D02*
X110389098Y-70460809D01*
X110389098Y-70460809D02*
X110722431Y-70460809D01*
X109579574Y-70984619D02*
X109674812Y-70937000D01*
X109674812Y-70937000D02*
X109722431Y-70889380D01*
X109722431Y-70889380D02*
X109770050Y-70794142D01*
X109770050Y-70794142D02*
X109770050Y-70508428D01*
X109770050Y-70508428D02*
X109722431Y-70413190D01*
X109722431Y-70413190D02*
X109674812Y-70365571D01*
X109674812Y-70365571D02*
X109579574Y-70317952D01*
X109579574Y-70317952D02*
X109436717Y-70317952D01*
X109436717Y-70317952D02*
X109341479Y-70365571D01*
X109341479Y-70365571D02*
X109293860Y-70413190D01*
X109293860Y-70413190D02*
X109246241Y-70508428D01*
X109246241Y-70508428D02*
X109246241Y-70794142D01*
X109246241Y-70794142D02*
X109293860Y-70889380D01*
X109293860Y-70889380D02*
X109341479Y-70937000D01*
X109341479Y-70937000D02*
X109436717Y-70984619D01*
X109436717Y-70984619D02*
X109579574Y-70984619D01*
X108674812Y-70984619D02*
X108770050Y-70937000D01*
X108770050Y-70937000D02*
X108817669Y-70889380D01*
X108817669Y-70889380D02*
X108865288Y-70794142D01*
X108865288Y-70794142D02*
X108865288Y-70508428D01*
X108865288Y-70508428D02*
X108817669Y-70413190D01*
X108817669Y-70413190D02*
X108770050Y-70365571D01*
X108770050Y-70365571D02*
X108674812Y-70317952D01*
X108674812Y-70317952D02*
X108531955Y-70317952D01*
X108531955Y-70317952D02*
X108436717Y-70365571D01*
X108436717Y-70365571D02*
X108389098Y-70413190D01*
X108389098Y-70413190D02*
X108341479Y-70508428D01*
X108341479Y-70508428D02*
X108341479Y-70794142D01*
X108341479Y-70794142D02*
X108389098Y-70889380D01*
X108389098Y-70889380D02*
X108436717Y-70937000D01*
X108436717Y-70937000D02*
X108531955Y-70984619D01*
X108531955Y-70984619D02*
X108674812Y-70984619D01*
X107960526Y-70937000D02*
X107865288Y-70984619D01*
X107865288Y-70984619D02*
X107674812Y-70984619D01*
X107674812Y-70984619D02*
X107579574Y-70937000D01*
X107579574Y-70937000D02*
X107531955Y-70841761D01*
X107531955Y-70841761D02*
X107531955Y-70794142D01*
X107531955Y-70794142D02*
X107579574Y-70698904D01*
X107579574Y-70698904D02*
X107674812Y-70651285D01*
X107674812Y-70651285D02*
X107817669Y-70651285D01*
X107817669Y-70651285D02*
X107912907Y-70603666D01*
X107912907Y-70603666D02*
X107960526Y-70508428D01*
X107960526Y-70508428D02*
X107960526Y-70460809D01*
X107960526Y-70460809D02*
X107912907Y-70365571D01*
X107912907Y-70365571D02*
X107817669Y-70317952D01*
X107817669Y-70317952D02*
X107674812Y-70317952D01*
X107674812Y-70317952D02*
X107579574Y-70365571D01*
X107246240Y-70317952D02*
X106865288Y-70317952D01*
X107103383Y-69984619D02*
X107103383Y-70841761D01*
X107103383Y-70841761D02*
X107055764Y-70937000D01*
X107055764Y-70937000D02*
X106960526Y-70984619D01*
X106960526Y-70984619D02*
X106865288Y-70984619D01*
X106341478Y-69984619D02*
X106151002Y-69984619D01*
X106151002Y-69984619D02*
X106055764Y-70032238D01*
X106055764Y-70032238D02*
X105960526Y-70127476D01*
X105960526Y-70127476D02*
X105912907Y-70317952D01*
X105912907Y-70317952D02*
X105912907Y-70651285D01*
X105912907Y-70651285D02*
X105960526Y-70841761D01*
X105960526Y-70841761D02*
X106055764Y-70937000D01*
X106055764Y-70937000D02*
X106151002Y-70984619D01*
X106151002Y-70984619D02*
X106341478Y-70984619D01*
X106341478Y-70984619D02*
X106436716Y-70937000D01*
X106436716Y-70937000D02*
X106531954Y-70841761D01*
X106531954Y-70841761D02*
X106579573Y-70651285D01*
X106579573Y-70651285D02*
X106579573Y-70317952D01*
X106579573Y-70317952D02*
X106531954Y-70127476D01*
X106531954Y-70127476D02*
X106436716Y-70032238D01*
X106436716Y-70032238D02*
X106341478Y-69984619D01*
X105055764Y-70317952D02*
X105055764Y-70984619D01*
X105484335Y-70317952D02*
X105484335Y-70841761D01*
X105484335Y-70841761D02*
X105436716Y-70937000D01*
X105436716Y-70937000D02*
X105341478Y-70984619D01*
X105341478Y-70984619D02*
X105198621Y-70984619D01*
X105198621Y-70984619D02*
X105103383Y-70937000D01*
X105103383Y-70937000D02*
X105055764Y-70889380D01*
X104722430Y-70317952D02*
X104341478Y-70317952D01*
X104579573Y-69984619D02*
X104579573Y-70841761D01*
X104579573Y-70841761D02*
X104531954Y-70937000D01*
X104531954Y-70937000D02*
X104436716Y-70984619D01*
X104436716Y-70984619D02*
X104341478Y-70984619D01*
X104008144Y-70603666D02*
X103246240Y-70603666D01*
X110389098Y-60300809D02*
X110246241Y-60348428D01*
X110246241Y-60348428D02*
X110198622Y-60396047D01*
X110198622Y-60396047D02*
X110151003Y-60491285D01*
X110151003Y-60491285D02*
X110151003Y-60634142D01*
X110151003Y-60634142D02*
X110198622Y-60729380D01*
X110198622Y-60729380D02*
X110246241Y-60777000D01*
X110246241Y-60777000D02*
X110341479Y-60824619D01*
X110341479Y-60824619D02*
X110722431Y-60824619D01*
X110722431Y-60824619D02*
X110722431Y-59824619D01*
X110722431Y-59824619D02*
X110389098Y-59824619D01*
X110389098Y-59824619D02*
X110293860Y-59872238D01*
X110293860Y-59872238D02*
X110246241Y-59919857D01*
X110246241Y-59919857D02*
X110198622Y-60015095D01*
X110198622Y-60015095D02*
X110198622Y-60110333D01*
X110198622Y-60110333D02*
X110246241Y-60205571D01*
X110246241Y-60205571D02*
X110293860Y-60253190D01*
X110293860Y-60253190D02*
X110389098Y-60300809D01*
X110389098Y-60300809D02*
X110722431Y-60300809D01*
X109579574Y-60824619D02*
X109674812Y-60777000D01*
X109674812Y-60777000D02*
X109722431Y-60729380D01*
X109722431Y-60729380D02*
X109770050Y-60634142D01*
X109770050Y-60634142D02*
X109770050Y-60348428D01*
X109770050Y-60348428D02*
X109722431Y-60253190D01*
X109722431Y-60253190D02*
X109674812Y-60205571D01*
X109674812Y-60205571D02*
X109579574Y-60157952D01*
X109579574Y-60157952D02*
X109436717Y-60157952D01*
X109436717Y-60157952D02*
X109341479Y-60205571D01*
X109341479Y-60205571D02*
X109293860Y-60253190D01*
X109293860Y-60253190D02*
X109246241Y-60348428D01*
X109246241Y-60348428D02*
X109246241Y-60634142D01*
X109246241Y-60634142D02*
X109293860Y-60729380D01*
X109293860Y-60729380D02*
X109341479Y-60777000D01*
X109341479Y-60777000D02*
X109436717Y-60824619D01*
X109436717Y-60824619D02*
X109579574Y-60824619D01*
X108674812Y-60824619D02*
X108770050Y-60777000D01*
X108770050Y-60777000D02*
X108817669Y-60729380D01*
X108817669Y-60729380D02*
X108865288Y-60634142D01*
X108865288Y-60634142D02*
X108865288Y-60348428D01*
X108865288Y-60348428D02*
X108817669Y-60253190D01*
X108817669Y-60253190D02*
X108770050Y-60205571D01*
X108770050Y-60205571D02*
X108674812Y-60157952D01*
X108674812Y-60157952D02*
X108531955Y-60157952D01*
X108531955Y-60157952D02*
X108436717Y-60205571D01*
X108436717Y-60205571D02*
X108389098Y-60253190D01*
X108389098Y-60253190D02*
X108341479Y-60348428D01*
X108341479Y-60348428D02*
X108341479Y-60634142D01*
X108341479Y-60634142D02*
X108389098Y-60729380D01*
X108389098Y-60729380D02*
X108436717Y-60777000D01*
X108436717Y-60777000D02*
X108531955Y-60824619D01*
X108531955Y-60824619D02*
X108674812Y-60824619D01*
X107960526Y-60777000D02*
X107865288Y-60824619D01*
X107865288Y-60824619D02*
X107674812Y-60824619D01*
X107674812Y-60824619D02*
X107579574Y-60777000D01*
X107579574Y-60777000D02*
X107531955Y-60681761D01*
X107531955Y-60681761D02*
X107531955Y-60634142D01*
X107531955Y-60634142D02*
X107579574Y-60538904D01*
X107579574Y-60538904D02*
X107674812Y-60491285D01*
X107674812Y-60491285D02*
X107817669Y-60491285D01*
X107817669Y-60491285D02*
X107912907Y-60443666D01*
X107912907Y-60443666D02*
X107960526Y-60348428D01*
X107960526Y-60348428D02*
X107960526Y-60300809D01*
X107960526Y-60300809D02*
X107912907Y-60205571D01*
X107912907Y-60205571D02*
X107817669Y-60157952D01*
X107817669Y-60157952D02*
X107674812Y-60157952D01*
X107674812Y-60157952D02*
X107579574Y-60205571D01*
X107246240Y-60157952D02*
X106865288Y-60157952D01*
X107103383Y-59824619D02*
X107103383Y-60681761D01*
X107103383Y-60681761D02*
X107055764Y-60777000D01*
X107055764Y-60777000D02*
X106960526Y-60824619D01*
X106960526Y-60824619D02*
X106865288Y-60824619D01*
X106531954Y-60824619D02*
X106531954Y-59824619D01*
X106055764Y-60157952D02*
X106055764Y-60824619D01*
X106055764Y-60253190D02*
X106008145Y-60205571D01*
X106008145Y-60205571D02*
X105912907Y-60157952D01*
X105912907Y-60157952D02*
X105770050Y-60157952D01*
X105770050Y-60157952D02*
X105674812Y-60205571D01*
X105674812Y-60205571D02*
X105627193Y-60300809D01*
X105627193Y-60300809D02*
X105627193Y-60824619D01*
X105151002Y-60443666D02*
X104389098Y-60443666D01*
X110389098Y-75835809D02*
X110246241Y-75883428D01*
X110246241Y-75883428D02*
X110198622Y-75931047D01*
X110198622Y-75931047D02*
X110151003Y-76026285D01*
X110151003Y-76026285D02*
X110151003Y-76169142D01*
X110151003Y-76169142D02*
X110198622Y-76264380D01*
X110198622Y-76264380D02*
X110246241Y-76312000D01*
X110246241Y-76312000D02*
X110341479Y-76359619D01*
X110341479Y-76359619D02*
X110722431Y-76359619D01*
X110722431Y-76359619D02*
X110722431Y-75359619D01*
X110722431Y-75359619D02*
X110389098Y-75359619D01*
X110389098Y-75359619D02*
X110293860Y-75407238D01*
X110293860Y-75407238D02*
X110246241Y-75454857D01*
X110246241Y-75454857D02*
X110198622Y-75550095D01*
X110198622Y-75550095D02*
X110198622Y-75645333D01*
X110198622Y-75645333D02*
X110246241Y-75740571D01*
X110246241Y-75740571D02*
X110293860Y-75788190D01*
X110293860Y-75788190D02*
X110389098Y-75835809D01*
X110389098Y-75835809D02*
X110722431Y-75835809D01*
X109579574Y-76359619D02*
X109674812Y-76312000D01*
X109674812Y-76312000D02*
X109722431Y-76264380D01*
X109722431Y-76264380D02*
X109770050Y-76169142D01*
X109770050Y-76169142D02*
X109770050Y-75883428D01*
X109770050Y-75883428D02*
X109722431Y-75788190D01*
X109722431Y-75788190D02*
X109674812Y-75740571D01*
X109674812Y-75740571D02*
X109579574Y-75692952D01*
X109579574Y-75692952D02*
X109436717Y-75692952D01*
X109436717Y-75692952D02*
X109341479Y-75740571D01*
X109341479Y-75740571D02*
X109293860Y-75788190D01*
X109293860Y-75788190D02*
X109246241Y-75883428D01*
X109246241Y-75883428D02*
X109246241Y-76169142D01*
X109246241Y-76169142D02*
X109293860Y-76264380D01*
X109293860Y-76264380D02*
X109341479Y-76312000D01*
X109341479Y-76312000D02*
X109436717Y-76359619D01*
X109436717Y-76359619D02*
X109579574Y-76359619D01*
X108674812Y-76359619D02*
X108770050Y-76312000D01*
X108770050Y-76312000D02*
X108817669Y-76264380D01*
X108817669Y-76264380D02*
X108865288Y-76169142D01*
X108865288Y-76169142D02*
X108865288Y-75883428D01*
X108865288Y-75883428D02*
X108817669Y-75788190D01*
X108817669Y-75788190D02*
X108770050Y-75740571D01*
X108770050Y-75740571D02*
X108674812Y-75692952D01*
X108674812Y-75692952D02*
X108531955Y-75692952D01*
X108531955Y-75692952D02*
X108436717Y-75740571D01*
X108436717Y-75740571D02*
X108389098Y-75788190D01*
X108389098Y-75788190D02*
X108341479Y-75883428D01*
X108341479Y-75883428D02*
X108341479Y-76169142D01*
X108341479Y-76169142D02*
X108389098Y-76264380D01*
X108389098Y-76264380D02*
X108436717Y-76312000D01*
X108436717Y-76312000D02*
X108531955Y-76359619D01*
X108531955Y-76359619D02*
X108674812Y-76359619D01*
X107960526Y-76312000D02*
X107865288Y-76359619D01*
X107865288Y-76359619D02*
X107674812Y-76359619D01*
X107674812Y-76359619D02*
X107579574Y-76312000D01*
X107579574Y-76312000D02*
X107531955Y-76216761D01*
X107531955Y-76216761D02*
X107531955Y-76169142D01*
X107531955Y-76169142D02*
X107579574Y-76073904D01*
X107579574Y-76073904D02*
X107674812Y-76026285D01*
X107674812Y-76026285D02*
X107817669Y-76026285D01*
X107817669Y-76026285D02*
X107912907Y-75978666D01*
X107912907Y-75978666D02*
X107960526Y-75883428D01*
X107960526Y-75883428D02*
X107960526Y-75835809D01*
X107960526Y-75835809D02*
X107912907Y-75740571D01*
X107912907Y-75740571D02*
X107817669Y-75692952D01*
X107817669Y-75692952D02*
X107674812Y-75692952D01*
X107674812Y-75692952D02*
X107579574Y-75740571D01*
X107246240Y-75692952D02*
X106865288Y-75692952D01*
X107103383Y-75359619D02*
X107103383Y-76216761D01*
X107103383Y-76216761D02*
X107055764Y-76312000D01*
X107055764Y-76312000D02*
X106960526Y-76359619D01*
X106960526Y-76359619D02*
X106865288Y-76359619D01*
X106341478Y-75359619D02*
X106151002Y-75359619D01*
X106151002Y-75359619D02*
X106055764Y-75407238D01*
X106055764Y-75407238D02*
X105960526Y-75502476D01*
X105960526Y-75502476D02*
X105912907Y-75692952D01*
X105912907Y-75692952D02*
X105912907Y-76026285D01*
X105912907Y-76026285D02*
X105960526Y-76216761D01*
X105960526Y-76216761D02*
X106055764Y-76312000D01*
X106055764Y-76312000D02*
X106151002Y-76359619D01*
X106151002Y-76359619D02*
X106341478Y-76359619D01*
X106341478Y-76359619D02*
X106436716Y-76312000D01*
X106436716Y-76312000D02*
X106531954Y-76216761D01*
X106531954Y-76216761D02*
X106579573Y-76026285D01*
X106579573Y-76026285D02*
X106579573Y-75692952D01*
X106579573Y-75692952D02*
X106531954Y-75502476D01*
X106531954Y-75502476D02*
X106436716Y-75407238D01*
X106436716Y-75407238D02*
X106341478Y-75359619D01*
X105055764Y-75692952D02*
X105055764Y-76359619D01*
X105484335Y-75692952D02*
X105484335Y-76216761D01*
X105484335Y-76216761D02*
X105436716Y-76312000D01*
X105436716Y-76312000D02*
X105341478Y-76359619D01*
X105341478Y-76359619D02*
X105198621Y-76359619D01*
X105198621Y-76359619D02*
X105103383Y-76312000D01*
X105103383Y-76312000D02*
X105055764Y-76264380D01*
X104722430Y-75692952D02*
X104341478Y-75692952D01*
X104579573Y-75359619D02*
X104579573Y-76216761D01*
X104579573Y-76216761D02*
X104531954Y-76312000D01*
X104531954Y-76312000D02*
X104436716Y-76359619D01*
X104436716Y-76359619D02*
X104341478Y-76359619D01*
X104008144Y-75978666D02*
X103246240Y-75978666D01*
X103627192Y-76359619D02*
X103627192Y-75597714D01*
D12*
X63004819Y-95283333D02*
X62528628Y-94950000D01*
X63004819Y-94711905D02*
X62004819Y-94711905D01*
X62004819Y-94711905D02*
X62004819Y-95092857D01*
X62004819Y-95092857D02*
X62052438Y-95188095D01*
X62052438Y-95188095D02*
X62100057Y-95235714D01*
X62100057Y-95235714D02*
X62195295Y-95283333D01*
X62195295Y-95283333D02*
X62338152Y-95283333D01*
X62338152Y-95283333D02*
X62433390Y-95235714D01*
X62433390Y-95235714D02*
X62481009Y-95188095D01*
X62481009Y-95188095D02*
X62528628Y-95092857D01*
X62528628Y-95092857D02*
X62528628Y-94711905D01*
X62004819Y-95616667D02*
X62004819Y-96283333D01*
X62004819Y-96283333D02*
X63004819Y-95854762D01*
X49409580Y-78133333D02*
X49457200Y-78085714D01*
X49457200Y-78085714D02*
X49504819Y-77942857D01*
X49504819Y-77942857D02*
X49504819Y-77847619D01*
X49504819Y-77847619D02*
X49457200Y-77704762D01*
X49457200Y-77704762D02*
X49361961Y-77609524D01*
X49361961Y-77609524D02*
X49266723Y-77561905D01*
X49266723Y-77561905D02*
X49076247Y-77514286D01*
X49076247Y-77514286D02*
X48933390Y-77514286D01*
X48933390Y-77514286D02*
X48742914Y-77561905D01*
X48742914Y-77561905D02*
X48647676Y-77609524D01*
X48647676Y-77609524D02*
X48552438Y-77704762D01*
X48552438Y-77704762D02*
X48504819Y-77847619D01*
X48504819Y-77847619D02*
X48504819Y-77942857D01*
X48504819Y-77942857D02*
X48552438Y-78085714D01*
X48552438Y-78085714D02*
X48600057Y-78133333D01*
X48838152Y-78990476D02*
X49504819Y-78990476D01*
X48457200Y-78752381D02*
X49171485Y-78514286D01*
X49171485Y-78514286D02*
X49171485Y-79133333D01*
X75166666Y-95554819D02*
X75499999Y-95078628D01*
X75738094Y-95554819D02*
X75738094Y-94554819D01*
X75738094Y-94554819D02*
X75357142Y-94554819D01*
X75357142Y-94554819D02*
X75261904Y-94602438D01*
X75261904Y-94602438D02*
X75214285Y-94650057D01*
X75214285Y-94650057D02*
X75166666Y-94745295D01*
X75166666Y-94745295D02*
X75166666Y-94888152D01*
X75166666Y-94888152D02*
X75214285Y-94983390D01*
X75214285Y-94983390D02*
X75261904Y-95031009D01*
X75261904Y-95031009D02*
X75357142Y-95078628D01*
X75357142Y-95078628D02*
X75738094Y-95078628D01*
X74261904Y-94554819D02*
X74738094Y-94554819D01*
X74738094Y-94554819D02*
X74785713Y-95031009D01*
X74785713Y-95031009D02*
X74738094Y-94983390D01*
X74738094Y-94983390D02*
X74642856Y-94935771D01*
X74642856Y-94935771D02*
X74404761Y-94935771D01*
X74404761Y-94935771D02*
X74309523Y-94983390D01*
X74309523Y-94983390D02*
X74261904Y-95031009D01*
X74261904Y-95031009D02*
X74214285Y-95126247D01*
X74214285Y-95126247D02*
X74214285Y-95364342D01*
X74214285Y-95364342D02*
X74261904Y-95459580D01*
X74261904Y-95459580D02*
X74309523Y-95507200D01*
X74309523Y-95507200D02*
X74404761Y-95554819D01*
X74404761Y-95554819D02*
X74642856Y-95554819D01*
X74642856Y-95554819D02*
X74738094Y-95507200D01*
X74738094Y-95507200D02*
X74785713Y-95459580D01*
X52604819Y-67883333D02*
X52128628Y-67550000D01*
X52604819Y-67311905D02*
X51604819Y-67311905D01*
X51604819Y-67311905D02*
X51604819Y-67692857D01*
X51604819Y-67692857D02*
X51652438Y-67788095D01*
X51652438Y-67788095D02*
X51700057Y-67835714D01*
X51700057Y-67835714D02*
X51795295Y-67883333D01*
X51795295Y-67883333D02*
X51938152Y-67883333D01*
X51938152Y-67883333D02*
X52033390Y-67835714D01*
X52033390Y-67835714D02*
X52081009Y-67788095D01*
X52081009Y-67788095D02*
X52128628Y-67692857D01*
X52128628Y-67692857D02*
X52128628Y-67311905D01*
X52033390Y-68454762D02*
X51985771Y-68359524D01*
X51985771Y-68359524D02*
X51938152Y-68311905D01*
X51938152Y-68311905D02*
X51842914Y-68264286D01*
X51842914Y-68264286D02*
X51795295Y-68264286D01*
X51795295Y-68264286D02*
X51700057Y-68311905D01*
X51700057Y-68311905D02*
X51652438Y-68359524D01*
X51652438Y-68359524D02*
X51604819Y-68454762D01*
X51604819Y-68454762D02*
X51604819Y-68645238D01*
X51604819Y-68645238D02*
X51652438Y-68740476D01*
X51652438Y-68740476D02*
X51700057Y-68788095D01*
X51700057Y-68788095D02*
X51795295Y-68835714D01*
X51795295Y-68835714D02*
X51842914Y-68835714D01*
X51842914Y-68835714D02*
X51938152Y-68788095D01*
X51938152Y-68788095D02*
X51985771Y-68740476D01*
X51985771Y-68740476D02*
X52033390Y-68645238D01*
X52033390Y-68645238D02*
X52033390Y-68454762D01*
X52033390Y-68454762D02*
X52081009Y-68359524D01*
X52081009Y-68359524D02*
X52128628Y-68311905D01*
X52128628Y-68311905D02*
X52223866Y-68264286D01*
X52223866Y-68264286D02*
X52414342Y-68264286D01*
X52414342Y-68264286D02*
X52509580Y-68311905D01*
X52509580Y-68311905D02*
X52557200Y-68359524D01*
X52557200Y-68359524D02*
X52604819Y-68454762D01*
X52604819Y-68454762D02*
X52604819Y-68645238D01*
X52604819Y-68645238D02*
X52557200Y-68740476D01*
X52557200Y-68740476D02*
X52509580Y-68788095D01*
X52509580Y-68788095D02*
X52414342Y-68835714D01*
X52414342Y-68835714D02*
X52223866Y-68835714D01*
X52223866Y-68835714D02*
X52128628Y-68788095D01*
X52128628Y-68788095D02*
X52081009Y-68740476D01*
X52081009Y-68740476D02*
X52033390Y-68645238D01*
X58449819Y-46766666D02*
X59164104Y-46766666D01*
X59164104Y-46766666D02*
X59306961Y-46719047D01*
X59306961Y-46719047D02*
X59402200Y-46623809D01*
X59402200Y-46623809D02*
X59449819Y-46480952D01*
X59449819Y-46480952D02*
X59449819Y-46385714D01*
X58449819Y-47671428D02*
X58449819Y-47480952D01*
X58449819Y-47480952D02*
X58497438Y-47385714D01*
X58497438Y-47385714D02*
X58545057Y-47338095D01*
X58545057Y-47338095D02*
X58687914Y-47242857D01*
X58687914Y-47242857D02*
X58878390Y-47195238D01*
X58878390Y-47195238D02*
X59259342Y-47195238D01*
X59259342Y-47195238D02*
X59354580Y-47242857D01*
X59354580Y-47242857D02*
X59402200Y-47290476D01*
X59402200Y-47290476D02*
X59449819Y-47385714D01*
X59449819Y-47385714D02*
X59449819Y-47576190D01*
X59449819Y-47576190D02*
X59402200Y-47671428D01*
X59402200Y-47671428D02*
X59354580Y-47719047D01*
X59354580Y-47719047D02*
X59259342Y-47766666D01*
X59259342Y-47766666D02*
X59021247Y-47766666D01*
X59021247Y-47766666D02*
X58926009Y-47719047D01*
X58926009Y-47719047D02*
X58878390Y-47671428D01*
X58878390Y-47671428D02*
X58830771Y-47576190D01*
X58830771Y-47576190D02*
X58830771Y-47385714D01*
X58830771Y-47385714D02*
X58878390Y-47290476D01*
X58878390Y-47290476D02*
X58926009Y-47242857D01*
X58926009Y-47242857D02*
X59021247Y-47195238D01*
X64638094Y-39389819D02*
X64638094Y-38389819D01*
X64638094Y-38389819D02*
X64399999Y-38389819D01*
X64399999Y-38389819D02*
X64257142Y-38437438D01*
X64257142Y-38437438D02*
X64161904Y-38532676D01*
X64161904Y-38532676D02*
X64114285Y-38627914D01*
X64114285Y-38627914D02*
X64066666Y-38818390D01*
X64066666Y-38818390D02*
X64066666Y-38961247D01*
X64066666Y-38961247D02*
X64114285Y-39151723D01*
X64114285Y-39151723D02*
X64161904Y-39246961D01*
X64161904Y-39246961D02*
X64257142Y-39342200D01*
X64257142Y-39342200D02*
X64399999Y-39389819D01*
X64399999Y-39389819D02*
X64638094Y-39389819D01*
X63114285Y-39389819D02*
X63685713Y-39389819D01*
X63399999Y-39389819D02*
X63399999Y-38389819D01*
X63399999Y-38389819D02*
X63495237Y-38532676D01*
X63495237Y-38532676D02*
X63590475Y-38627914D01*
X63590475Y-38627914D02*
X63685713Y-38675533D01*
X58149819Y-54016666D02*
X58864104Y-54016666D01*
X58864104Y-54016666D02*
X59006961Y-53969047D01*
X59006961Y-53969047D02*
X59102200Y-53873809D01*
X59102200Y-53873809D02*
X59149819Y-53730952D01*
X59149819Y-53730952D02*
X59149819Y-53635714D01*
X58149819Y-54397619D02*
X58149819Y-55064285D01*
X58149819Y-55064285D02*
X59149819Y-54635714D01*
X94949819Y-37016666D02*
X95664104Y-37016666D01*
X95664104Y-37016666D02*
X95806961Y-36969047D01*
X95806961Y-36969047D02*
X95902200Y-36873809D01*
X95902200Y-36873809D02*
X95949819Y-36730952D01*
X95949819Y-36730952D02*
X95949819Y-36635714D01*
X95378390Y-37635714D02*
X95330771Y-37540476D01*
X95330771Y-37540476D02*
X95283152Y-37492857D01*
X95283152Y-37492857D02*
X95187914Y-37445238D01*
X95187914Y-37445238D02*
X95140295Y-37445238D01*
X95140295Y-37445238D02*
X95045057Y-37492857D01*
X95045057Y-37492857D02*
X94997438Y-37540476D01*
X94997438Y-37540476D02*
X94949819Y-37635714D01*
X94949819Y-37635714D02*
X94949819Y-37826190D01*
X94949819Y-37826190D02*
X94997438Y-37921428D01*
X94997438Y-37921428D02*
X95045057Y-37969047D01*
X95045057Y-37969047D02*
X95140295Y-38016666D01*
X95140295Y-38016666D02*
X95187914Y-38016666D01*
X95187914Y-38016666D02*
X95283152Y-37969047D01*
X95283152Y-37969047D02*
X95330771Y-37921428D01*
X95330771Y-37921428D02*
X95378390Y-37826190D01*
X95378390Y-37826190D02*
X95378390Y-37635714D01*
X95378390Y-37635714D02*
X95426009Y-37540476D01*
X95426009Y-37540476D02*
X95473628Y-37492857D01*
X95473628Y-37492857D02*
X95568866Y-37445238D01*
X95568866Y-37445238D02*
X95759342Y-37445238D01*
X95759342Y-37445238D02*
X95854580Y-37492857D01*
X95854580Y-37492857D02*
X95902200Y-37540476D01*
X95902200Y-37540476D02*
X95949819Y-37635714D01*
X95949819Y-37635714D02*
X95949819Y-37826190D01*
X95949819Y-37826190D02*
X95902200Y-37921428D01*
X95902200Y-37921428D02*
X95854580Y-37969047D01*
X95854580Y-37969047D02*
X95759342Y-38016666D01*
X95759342Y-38016666D02*
X95568866Y-38016666D01*
X95568866Y-38016666D02*
X95473628Y-37969047D01*
X95473628Y-37969047D02*
X95426009Y-37921428D01*
X95426009Y-37921428D02*
X95378390Y-37826190D01*
X92288094Y-53004819D02*
X92288094Y-52004819D01*
X92288094Y-52004819D02*
X92049999Y-52004819D01*
X92049999Y-52004819D02*
X91907142Y-52052438D01*
X91907142Y-52052438D02*
X91811904Y-52147676D01*
X91811904Y-52147676D02*
X91764285Y-52242914D01*
X91764285Y-52242914D02*
X91716666Y-52433390D01*
X91716666Y-52433390D02*
X91716666Y-52576247D01*
X91716666Y-52576247D02*
X91764285Y-52766723D01*
X91764285Y-52766723D02*
X91811904Y-52861961D01*
X91811904Y-52861961D02*
X91907142Y-52957200D01*
X91907142Y-52957200D02*
X92049999Y-53004819D01*
X92049999Y-53004819D02*
X92288094Y-53004819D01*
X90859523Y-52338152D02*
X90859523Y-53004819D01*
X91097618Y-51957200D02*
X91335713Y-52671485D01*
X91335713Y-52671485D02*
X90716666Y-52671485D01*
X62904819Y-85283333D02*
X62428628Y-84950000D01*
X62904819Y-84711905D02*
X61904819Y-84711905D01*
X61904819Y-84711905D02*
X61904819Y-85092857D01*
X61904819Y-85092857D02*
X61952438Y-85188095D01*
X61952438Y-85188095D02*
X62000057Y-85235714D01*
X62000057Y-85235714D02*
X62095295Y-85283333D01*
X62095295Y-85283333D02*
X62238152Y-85283333D01*
X62238152Y-85283333D02*
X62333390Y-85235714D01*
X62333390Y-85235714D02*
X62381009Y-85188095D01*
X62381009Y-85188095D02*
X62428628Y-85092857D01*
X62428628Y-85092857D02*
X62428628Y-84711905D01*
X62000057Y-85664286D02*
X61952438Y-85711905D01*
X61952438Y-85711905D02*
X61904819Y-85807143D01*
X61904819Y-85807143D02*
X61904819Y-86045238D01*
X61904819Y-86045238D02*
X61952438Y-86140476D01*
X61952438Y-86140476D02*
X62000057Y-86188095D01*
X62000057Y-86188095D02*
X62095295Y-86235714D01*
X62095295Y-86235714D02*
X62190533Y-86235714D01*
X62190533Y-86235714D02*
X62333390Y-86188095D01*
X62333390Y-86188095D02*
X62904819Y-85616667D01*
X62904819Y-85616667D02*
X62904819Y-86235714D01*
X64088094Y-63104819D02*
X64088094Y-62104819D01*
X64088094Y-62104819D02*
X63849999Y-62104819D01*
X63849999Y-62104819D02*
X63707142Y-62152438D01*
X63707142Y-62152438D02*
X63611904Y-62247676D01*
X63611904Y-62247676D02*
X63564285Y-62342914D01*
X63564285Y-62342914D02*
X63516666Y-62533390D01*
X63516666Y-62533390D02*
X63516666Y-62676247D01*
X63516666Y-62676247D02*
X63564285Y-62866723D01*
X63564285Y-62866723D02*
X63611904Y-62961961D01*
X63611904Y-62961961D02*
X63707142Y-63057200D01*
X63707142Y-63057200D02*
X63849999Y-63104819D01*
X63849999Y-63104819D02*
X64088094Y-63104819D01*
X63183332Y-62104819D02*
X62564285Y-62104819D01*
X62564285Y-62104819D02*
X62897618Y-62485771D01*
X62897618Y-62485771D02*
X62754761Y-62485771D01*
X62754761Y-62485771D02*
X62659523Y-62533390D01*
X62659523Y-62533390D02*
X62611904Y-62581009D01*
X62611904Y-62581009D02*
X62564285Y-62676247D01*
X62564285Y-62676247D02*
X62564285Y-62914342D01*
X62564285Y-62914342D02*
X62611904Y-63009580D01*
X62611904Y-63009580D02*
X62659523Y-63057200D01*
X62659523Y-63057200D02*
X62754761Y-63104819D01*
X62754761Y-63104819D02*
X63040475Y-63104819D01*
X63040475Y-63104819D02*
X63135713Y-63057200D01*
X63135713Y-63057200D02*
X63183332Y-63009580D01*
X95366666Y-88809580D02*
X95414285Y-88857200D01*
X95414285Y-88857200D02*
X95557142Y-88904819D01*
X95557142Y-88904819D02*
X95652380Y-88904819D01*
X95652380Y-88904819D02*
X95795237Y-88857200D01*
X95795237Y-88857200D02*
X95890475Y-88761961D01*
X95890475Y-88761961D02*
X95938094Y-88666723D01*
X95938094Y-88666723D02*
X95985713Y-88476247D01*
X95985713Y-88476247D02*
X95985713Y-88333390D01*
X95985713Y-88333390D02*
X95938094Y-88142914D01*
X95938094Y-88142914D02*
X95890475Y-88047676D01*
X95890475Y-88047676D02*
X95795237Y-87952438D01*
X95795237Y-87952438D02*
X95652380Y-87904819D01*
X95652380Y-87904819D02*
X95557142Y-87904819D01*
X95557142Y-87904819D02*
X95414285Y-87952438D01*
X95414285Y-87952438D02*
X95366666Y-88000057D01*
X94461904Y-87904819D02*
X94938094Y-87904819D01*
X94938094Y-87904819D02*
X94985713Y-88381009D01*
X94985713Y-88381009D02*
X94938094Y-88333390D01*
X94938094Y-88333390D02*
X94842856Y-88285771D01*
X94842856Y-88285771D02*
X94604761Y-88285771D01*
X94604761Y-88285771D02*
X94509523Y-88333390D01*
X94509523Y-88333390D02*
X94461904Y-88381009D01*
X94461904Y-88381009D02*
X94414285Y-88476247D01*
X94414285Y-88476247D02*
X94414285Y-88714342D01*
X94414285Y-88714342D02*
X94461904Y-88809580D01*
X94461904Y-88809580D02*
X94509523Y-88857200D01*
X94509523Y-88857200D02*
X94604761Y-88904819D01*
X94604761Y-88904819D02*
X94842856Y-88904819D01*
X94842856Y-88904819D02*
X94938094Y-88857200D01*
X94938094Y-88857200D02*
X94985713Y-88809580D01*
X49266666Y-83354819D02*
X49599999Y-82878628D01*
X49838094Y-83354819D02*
X49838094Y-82354819D01*
X49838094Y-82354819D02*
X49457142Y-82354819D01*
X49457142Y-82354819D02*
X49361904Y-82402438D01*
X49361904Y-82402438D02*
X49314285Y-82450057D01*
X49314285Y-82450057D02*
X49266666Y-82545295D01*
X49266666Y-82545295D02*
X49266666Y-82688152D01*
X49266666Y-82688152D02*
X49314285Y-82783390D01*
X49314285Y-82783390D02*
X49361904Y-82831009D01*
X49361904Y-82831009D02*
X49457142Y-82878628D01*
X49457142Y-82878628D02*
X49838094Y-82878628D01*
X48933332Y-82354819D02*
X48314285Y-82354819D01*
X48314285Y-82354819D02*
X48647618Y-82735771D01*
X48647618Y-82735771D02*
X48504761Y-82735771D01*
X48504761Y-82735771D02*
X48409523Y-82783390D01*
X48409523Y-82783390D02*
X48361904Y-82831009D01*
X48361904Y-82831009D02*
X48314285Y-82926247D01*
X48314285Y-82926247D02*
X48314285Y-83164342D01*
X48314285Y-83164342D02*
X48361904Y-83259580D01*
X48361904Y-83259580D02*
X48409523Y-83307200D01*
X48409523Y-83307200D02*
X48504761Y-83354819D01*
X48504761Y-83354819D02*
X48790475Y-83354819D01*
X48790475Y-83354819D02*
X48885713Y-83307200D01*
X48885713Y-83307200D02*
X48933332Y-83259580D01*
X47804819Y-60838095D02*
X48614342Y-60838095D01*
X48614342Y-60838095D02*
X48709580Y-60885714D01*
X48709580Y-60885714D02*
X48757200Y-60933333D01*
X48757200Y-60933333D02*
X48804819Y-61028571D01*
X48804819Y-61028571D02*
X48804819Y-61219047D01*
X48804819Y-61219047D02*
X48757200Y-61314285D01*
X48757200Y-61314285D02*
X48709580Y-61361904D01*
X48709580Y-61361904D02*
X48614342Y-61409523D01*
X48614342Y-61409523D02*
X47804819Y-61409523D01*
X48804819Y-62409523D02*
X48804819Y-61838095D01*
X48804819Y-62123809D02*
X47804819Y-62123809D01*
X47804819Y-62123809D02*
X47947676Y-62028571D01*
X47947676Y-62028571D02*
X48042914Y-61933333D01*
X48042914Y-61933333D02*
X48090533Y-61838095D01*
X76874819Y-35866666D02*
X77589104Y-35866666D01*
X77589104Y-35866666D02*
X77731961Y-35819047D01*
X77731961Y-35819047D02*
X77827200Y-35723809D01*
X77827200Y-35723809D02*
X77874819Y-35580952D01*
X77874819Y-35580952D02*
X77874819Y-35485714D01*
X77874819Y-36390476D02*
X77874819Y-36580952D01*
X77874819Y-36580952D02*
X77827200Y-36676190D01*
X77827200Y-36676190D02*
X77779580Y-36723809D01*
X77779580Y-36723809D02*
X77636723Y-36819047D01*
X77636723Y-36819047D02*
X77446247Y-36866666D01*
X77446247Y-36866666D02*
X77065295Y-36866666D01*
X77065295Y-36866666D02*
X76970057Y-36819047D01*
X76970057Y-36819047D02*
X76922438Y-36771428D01*
X76922438Y-36771428D02*
X76874819Y-36676190D01*
X76874819Y-36676190D02*
X76874819Y-36485714D01*
X76874819Y-36485714D02*
X76922438Y-36390476D01*
X76922438Y-36390476D02*
X76970057Y-36342857D01*
X76970057Y-36342857D02*
X77065295Y-36295238D01*
X77065295Y-36295238D02*
X77303390Y-36295238D01*
X77303390Y-36295238D02*
X77398628Y-36342857D01*
X77398628Y-36342857D02*
X77446247Y-36390476D01*
X77446247Y-36390476D02*
X77493866Y-36485714D01*
X77493866Y-36485714D02*
X77493866Y-36676190D01*
X77493866Y-36676190D02*
X77446247Y-36771428D01*
X77446247Y-36771428D02*
X77398628Y-36819047D01*
X77398628Y-36819047D02*
X77303390Y-36866666D01*
X47066666Y-57154819D02*
X47399999Y-56678628D01*
X47638094Y-57154819D02*
X47638094Y-56154819D01*
X47638094Y-56154819D02*
X47257142Y-56154819D01*
X47257142Y-56154819D02*
X47161904Y-56202438D01*
X47161904Y-56202438D02*
X47114285Y-56250057D01*
X47114285Y-56250057D02*
X47066666Y-56345295D01*
X47066666Y-56345295D02*
X47066666Y-56488152D01*
X47066666Y-56488152D02*
X47114285Y-56583390D01*
X47114285Y-56583390D02*
X47161904Y-56631009D01*
X47161904Y-56631009D02*
X47257142Y-56678628D01*
X47257142Y-56678628D02*
X47638094Y-56678628D01*
X46114285Y-57154819D02*
X46685713Y-57154819D01*
X46399999Y-57154819D02*
X46399999Y-56154819D01*
X46399999Y-56154819D02*
X46495237Y-56297676D01*
X46495237Y-56297676D02*
X46590475Y-56392914D01*
X46590475Y-56392914D02*
X46685713Y-56440533D01*
D13*
G04 #@! TO.C,R7*
X60165000Y-95677064D02*
X60165000Y-95222936D01*
X61635000Y-95677064D02*
X61635000Y-95222936D01*
G04 #@! TO.C,C4*
X46290000Y-79011252D02*
X46290000Y-77588748D01*
X48110000Y-79011252D02*
X48110000Y-77588748D01*
G04 #@! TO.C,R5*
X75227064Y-97485000D02*
X74772936Y-97485000D01*
X75227064Y-96015000D02*
X74772936Y-96015000D01*
G04 #@! TO.C,R8*
X49765000Y-68277064D02*
X49765000Y-67822936D01*
X51235000Y-68277064D02*
X51235000Y-67822936D01*
G04 #@! TO.C,J6*
X67735000Y-45770000D02*
X67735000Y-48430000D01*
X62595000Y-45770000D02*
X67735000Y-45770000D01*
X62595000Y-45770000D02*
X62595000Y-48430000D01*
X61325000Y-45770000D02*
X59995000Y-45770000D01*
X59995000Y-45770000D02*
X59995000Y-47100000D01*
X62595000Y-48430000D02*
X67735000Y-48430000D01*
G04 #@! TO.C,D1*
X60390000Y-34785000D02*
X65900000Y-34785000D01*
X60390000Y-38085000D02*
X60390000Y-34785000D01*
X60390000Y-38085000D02*
X65900000Y-38085000D01*
G04 #@! TO.C,J7*
X67435000Y-53020000D02*
X67435000Y-55680000D01*
X62295000Y-53020000D02*
X67435000Y-53020000D01*
X62295000Y-53020000D02*
X62295000Y-55680000D01*
X61025000Y-53020000D02*
X59695000Y-53020000D01*
X59695000Y-53020000D02*
X59695000Y-54350000D01*
X62295000Y-55680000D02*
X67435000Y-55680000D01*
G04 #@! TO.C,J8*
X104235000Y-36020000D02*
X104235000Y-38680000D01*
X99095000Y-36020000D02*
X104235000Y-36020000D01*
X99095000Y-36020000D02*
X99095000Y-38680000D01*
X97825000Y-36020000D02*
X96495000Y-36020000D01*
X96495000Y-36020000D02*
X96495000Y-37350000D01*
X99095000Y-38680000D02*
X104235000Y-38680000D01*
G04 #@! TO.C,D4*
X95060000Y-56700000D02*
X89550000Y-56700000D01*
X95060000Y-53400000D02*
X95060000Y-56700000D01*
X95060000Y-53400000D02*
X89550000Y-53400000D01*
G04 #@! TO.C,R2*
X60065000Y-85677064D02*
X60065000Y-85222936D01*
X61535000Y-85677064D02*
X61535000Y-85222936D01*
G04 #@! TO.C,D3*
X59840000Y-58500000D02*
X65350000Y-58500000D01*
X59840000Y-61800000D02*
X59840000Y-58500000D01*
X59840000Y-61800000D02*
X65350000Y-61800000D01*
G04 #@! TO.C,C5*
X95911252Y-91210000D02*
X94488748Y-91210000D01*
X95911252Y-89390000D02*
X94488748Y-89390000D01*
G04 #@! TO.C,R3*
X49327064Y-85285000D02*
X48872936Y-85285000D01*
X49327064Y-83815000D02*
X48872936Y-83815000D01*
G04 #@! TO.C,U1*
X53110000Y-61600000D02*
X53110000Y-59325000D01*
X53110000Y-61600000D02*
X53110000Y-63875000D01*
X49190000Y-61600000D02*
X49190000Y-57550000D01*
X49190000Y-61600000D02*
X49190000Y-63875000D01*
G04 #@! TO.C,J9*
X86160000Y-34870000D02*
X86160000Y-37530000D01*
X81020000Y-34870000D02*
X86160000Y-34870000D01*
X81020000Y-34870000D02*
X81020000Y-37530000D01*
X79750000Y-34870000D02*
X78420000Y-34870000D01*
X78420000Y-34870000D02*
X78420000Y-36200000D01*
X81020000Y-37530000D02*
X86160000Y-37530000D01*
G04 #@! TO.C,R1*
X47127064Y-59085000D02*
X46672936Y-59085000D01*
X47127064Y-57615000D02*
X46672936Y-57615000D01*
G04 #@! TD*
M02*
