G04 #@! TF.GenerationSoftware,KiCad,Pcbnew,7.0.9*
G04 #@! TF.CreationDate,2024-02-20T19:06:26+05:30*
G04 #@! TF.ProjectId,Chg_Dschg Controller,4368675f-4473-4636-9867-20436f6e7472,rev?*
G04 #@! TF.SameCoordinates,Original*
G04 #@! TF.FileFunction,Legend,Top*
G04 #@! TF.FilePolarity,Positive*
%FSLAX46Y46*%
G04 Gerber Fmt 4.6, Leading zero omitted, Abs format (unit mm)*
G04 Created by KiCad (PCBNEW 7.0.9) date 2024-02-20 19:06:26*
%MOMM*%
%LPD*%
G01*
G04 APERTURE LIST*
%ADD10C,0.300000*%
%ADD11C,0.250000*%
%ADD12C,0.150000*%
%ADD13C,0.120000*%
%ADD14C,0.127000*%
%ADD15C,0.200000*%
G04 APERTURE END LIST*
D10*
X112504510Y-96315114D02*
X112718796Y-96386542D01*
X112718796Y-96386542D02*
X112790225Y-96457971D01*
X112790225Y-96457971D02*
X112861653Y-96600828D01*
X112861653Y-96600828D02*
X112861653Y-96815114D01*
X112861653Y-96815114D02*
X112790225Y-96957971D01*
X112790225Y-96957971D02*
X112718796Y-97029400D01*
X112718796Y-97029400D02*
X112575939Y-97100828D01*
X112575939Y-97100828D02*
X112004510Y-97100828D01*
X112004510Y-97100828D02*
X112004510Y-95600828D01*
X112004510Y-95600828D02*
X112504510Y-95600828D01*
X112504510Y-95600828D02*
X112647368Y-95672257D01*
X112647368Y-95672257D02*
X112718796Y-95743685D01*
X112718796Y-95743685D02*
X112790225Y-95886542D01*
X112790225Y-95886542D02*
X112790225Y-96029400D01*
X112790225Y-96029400D02*
X112718796Y-96172257D01*
X112718796Y-96172257D02*
X112647368Y-96243685D01*
X112647368Y-96243685D02*
X112504510Y-96315114D01*
X112504510Y-96315114D02*
X112004510Y-96315114D01*
X113433082Y-96672257D02*
X114147368Y-96672257D01*
X113290225Y-97100828D02*
X113790225Y-95600828D01*
X113790225Y-95600828D02*
X114290225Y-97100828D01*
X114575939Y-95600828D02*
X115433082Y-95600828D01*
X115004510Y-97100828D02*
X115004510Y-95600828D01*
X115718796Y-95600828D02*
X116575939Y-95600828D01*
X116147367Y-97100828D02*
X116147367Y-95600828D01*
X117075938Y-96529400D02*
X118218796Y-96529400D01*
X117647367Y-97100828D02*
X117647367Y-95957971D01*
D11*
X36597568Y-62205809D02*
X36930901Y-62205809D01*
X37073758Y-62729619D02*
X36597568Y-62729619D01*
X36597568Y-62729619D02*
X36597568Y-61729619D01*
X36597568Y-61729619D02*
X37073758Y-61729619D01*
X37645187Y-62729619D02*
X37549949Y-62682000D01*
X37549949Y-62682000D02*
X37502330Y-62586761D01*
X37502330Y-62586761D02*
X37502330Y-61729619D01*
X38407092Y-62682000D02*
X38311854Y-62729619D01*
X38311854Y-62729619D02*
X38121378Y-62729619D01*
X38121378Y-62729619D02*
X38026140Y-62682000D01*
X38026140Y-62682000D02*
X37978521Y-62586761D01*
X37978521Y-62586761D02*
X37978521Y-62205809D01*
X37978521Y-62205809D02*
X38026140Y-62110571D01*
X38026140Y-62110571D02*
X38121378Y-62062952D01*
X38121378Y-62062952D02*
X38311854Y-62062952D01*
X38311854Y-62062952D02*
X38407092Y-62110571D01*
X38407092Y-62110571D02*
X38454711Y-62205809D01*
X38454711Y-62205809D02*
X38454711Y-62301047D01*
X38454711Y-62301047D02*
X37978521Y-62396285D01*
X39311854Y-62682000D02*
X39216616Y-62729619D01*
X39216616Y-62729619D02*
X39026140Y-62729619D01*
X39026140Y-62729619D02*
X38930902Y-62682000D01*
X38930902Y-62682000D02*
X38883283Y-62634380D01*
X38883283Y-62634380D02*
X38835664Y-62539142D01*
X38835664Y-62539142D02*
X38835664Y-62253428D01*
X38835664Y-62253428D02*
X38883283Y-62158190D01*
X38883283Y-62158190D02*
X38930902Y-62110571D01*
X38930902Y-62110571D02*
X39026140Y-62062952D01*
X39026140Y-62062952D02*
X39216616Y-62062952D01*
X39216616Y-62062952D02*
X39311854Y-62110571D01*
X39597569Y-62062952D02*
X39978521Y-62062952D01*
X39740426Y-61729619D02*
X39740426Y-62586761D01*
X39740426Y-62586761D02*
X39788045Y-62682000D01*
X39788045Y-62682000D02*
X39883283Y-62729619D01*
X39883283Y-62729619D02*
X39978521Y-62729619D01*
X40311855Y-62729619D02*
X40311855Y-62062952D01*
X40311855Y-62253428D02*
X40359474Y-62158190D01*
X40359474Y-62158190D02*
X40407093Y-62110571D01*
X40407093Y-62110571D02*
X40502331Y-62062952D01*
X40502331Y-62062952D02*
X40597569Y-62062952D01*
X41073760Y-62729619D02*
X40978522Y-62682000D01*
X40978522Y-62682000D02*
X40930903Y-62634380D01*
X40930903Y-62634380D02*
X40883284Y-62539142D01*
X40883284Y-62539142D02*
X40883284Y-62253428D01*
X40883284Y-62253428D02*
X40930903Y-62158190D01*
X40930903Y-62158190D02*
X40978522Y-62110571D01*
X40978522Y-62110571D02*
X41073760Y-62062952D01*
X41073760Y-62062952D02*
X41216617Y-62062952D01*
X41216617Y-62062952D02*
X41311855Y-62110571D01*
X41311855Y-62110571D02*
X41359474Y-62158190D01*
X41359474Y-62158190D02*
X41407093Y-62253428D01*
X41407093Y-62253428D02*
X41407093Y-62539142D01*
X41407093Y-62539142D02*
X41359474Y-62634380D01*
X41359474Y-62634380D02*
X41311855Y-62682000D01*
X41311855Y-62682000D02*
X41216617Y-62729619D01*
X41216617Y-62729619D02*
X41073760Y-62729619D01*
X41835665Y-62062952D02*
X41835665Y-62729619D01*
X41835665Y-62158190D02*
X41883284Y-62110571D01*
X41883284Y-62110571D02*
X41978522Y-62062952D01*
X41978522Y-62062952D02*
X42121379Y-62062952D01*
X42121379Y-62062952D02*
X42216617Y-62110571D01*
X42216617Y-62110571D02*
X42264236Y-62205809D01*
X42264236Y-62205809D02*
X42264236Y-62729619D01*
X42740427Y-62729619D02*
X42740427Y-62062952D01*
X42740427Y-61729619D02*
X42692808Y-61777238D01*
X42692808Y-61777238D02*
X42740427Y-61824857D01*
X42740427Y-61824857D02*
X42788046Y-61777238D01*
X42788046Y-61777238D02*
X42740427Y-61729619D01*
X42740427Y-61729619D02*
X42740427Y-61824857D01*
X43645188Y-62682000D02*
X43549950Y-62729619D01*
X43549950Y-62729619D02*
X43359474Y-62729619D01*
X43359474Y-62729619D02*
X43264236Y-62682000D01*
X43264236Y-62682000D02*
X43216617Y-62634380D01*
X43216617Y-62634380D02*
X43168998Y-62539142D01*
X43168998Y-62539142D02*
X43168998Y-62253428D01*
X43168998Y-62253428D02*
X43216617Y-62158190D01*
X43216617Y-62158190D02*
X43264236Y-62110571D01*
X43264236Y-62110571D02*
X43359474Y-62062952D01*
X43359474Y-62062952D02*
X43549950Y-62062952D01*
X43549950Y-62062952D02*
X43645188Y-62110571D01*
X44026141Y-62682000D02*
X44121379Y-62729619D01*
X44121379Y-62729619D02*
X44311855Y-62729619D01*
X44311855Y-62729619D02*
X44407093Y-62682000D01*
X44407093Y-62682000D02*
X44454712Y-62586761D01*
X44454712Y-62586761D02*
X44454712Y-62539142D01*
X44454712Y-62539142D02*
X44407093Y-62443904D01*
X44407093Y-62443904D02*
X44311855Y-62396285D01*
X44311855Y-62396285D02*
X44168998Y-62396285D01*
X44168998Y-62396285D02*
X44073760Y-62348666D01*
X44073760Y-62348666D02*
X44026141Y-62253428D01*
X44026141Y-62253428D02*
X44026141Y-62205809D01*
X44026141Y-62205809D02*
X44073760Y-62110571D01*
X44073760Y-62110571D02*
X44168998Y-62062952D01*
X44168998Y-62062952D02*
X44311855Y-62062952D01*
X44311855Y-62062952D02*
X44407093Y-62110571D01*
X44883284Y-62348666D02*
X45645189Y-62348666D01*
X45264236Y-62729619D02*
X45264236Y-61967714D01*
D10*
X112404510Y-82315114D02*
X112618796Y-82386542D01*
X112618796Y-82386542D02*
X112690225Y-82457971D01*
X112690225Y-82457971D02*
X112761653Y-82600828D01*
X112761653Y-82600828D02*
X112761653Y-82815114D01*
X112761653Y-82815114D02*
X112690225Y-82957971D01*
X112690225Y-82957971D02*
X112618796Y-83029400D01*
X112618796Y-83029400D02*
X112475939Y-83100828D01*
X112475939Y-83100828D02*
X111904510Y-83100828D01*
X111904510Y-83100828D02*
X111904510Y-81600828D01*
X111904510Y-81600828D02*
X112404510Y-81600828D01*
X112404510Y-81600828D02*
X112547368Y-81672257D01*
X112547368Y-81672257D02*
X112618796Y-81743685D01*
X112618796Y-81743685D02*
X112690225Y-81886542D01*
X112690225Y-81886542D02*
X112690225Y-82029400D01*
X112690225Y-82029400D02*
X112618796Y-82172257D01*
X112618796Y-82172257D02*
X112547368Y-82243685D01*
X112547368Y-82243685D02*
X112404510Y-82315114D01*
X112404510Y-82315114D02*
X111904510Y-82315114D01*
X113333082Y-82672257D02*
X114047368Y-82672257D01*
X113190225Y-83100828D02*
X113690225Y-81600828D01*
X113690225Y-81600828D02*
X114190225Y-83100828D01*
X114475939Y-81600828D02*
X115333082Y-81600828D01*
X114904510Y-83100828D02*
X114904510Y-81600828D01*
X115618796Y-81600828D02*
X116475939Y-81600828D01*
X116047367Y-83100828D02*
X116047367Y-81600828D01*
X116975938Y-82529400D02*
X118118796Y-82529400D01*
D11*
X61298996Y-27074380D02*
X61251377Y-27122000D01*
X61251377Y-27122000D02*
X61108520Y-27169619D01*
X61108520Y-27169619D02*
X61013282Y-27169619D01*
X61013282Y-27169619D02*
X60870425Y-27122000D01*
X60870425Y-27122000D02*
X60775187Y-27026761D01*
X60775187Y-27026761D02*
X60727568Y-26931523D01*
X60727568Y-26931523D02*
X60679949Y-26741047D01*
X60679949Y-26741047D02*
X60679949Y-26598190D01*
X60679949Y-26598190D02*
X60727568Y-26407714D01*
X60727568Y-26407714D02*
X60775187Y-26312476D01*
X60775187Y-26312476D02*
X60870425Y-26217238D01*
X60870425Y-26217238D02*
X61013282Y-26169619D01*
X61013282Y-26169619D02*
X61108520Y-26169619D01*
X61108520Y-26169619D02*
X61251377Y-26217238D01*
X61251377Y-26217238D02*
X61298996Y-26264857D01*
X61870425Y-27169619D02*
X61775187Y-27122000D01*
X61775187Y-27122000D02*
X61727568Y-27074380D01*
X61727568Y-27074380D02*
X61679949Y-26979142D01*
X61679949Y-26979142D02*
X61679949Y-26693428D01*
X61679949Y-26693428D02*
X61727568Y-26598190D01*
X61727568Y-26598190D02*
X61775187Y-26550571D01*
X61775187Y-26550571D02*
X61870425Y-26502952D01*
X61870425Y-26502952D02*
X62013282Y-26502952D01*
X62013282Y-26502952D02*
X62108520Y-26550571D01*
X62108520Y-26550571D02*
X62156139Y-26598190D01*
X62156139Y-26598190D02*
X62203758Y-26693428D01*
X62203758Y-26693428D02*
X62203758Y-26979142D01*
X62203758Y-26979142D02*
X62156139Y-27074380D01*
X62156139Y-27074380D02*
X62108520Y-27122000D01*
X62108520Y-27122000D02*
X62013282Y-27169619D01*
X62013282Y-27169619D02*
X61870425Y-27169619D01*
X62632330Y-26502952D02*
X62632330Y-27169619D01*
X62632330Y-26598190D02*
X62679949Y-26550571D01*
X62679949Y-26550571D02*
X62775187Y-26502952D01*
X62775187Y-26502952D02*
X62918044Y-26502952D01*
X62918044Y-26502952D02*
X63013282Y-26550571D01*
X63013282Y-26550571D02*
X63060901Y-26645809D01*
X63060901Y-26645809D02*
X63060901Y-27169619D01*
X63394235Y-26502952D02*
X63775187Y-26502952D01*
X63537092Y-26169619D02*
X63537092Y-27026761D01*
X63537092Y-27026761D02*
X63584711Y-27122000D01*
X63584711Y-27122000D02*
X63679949Y-27169619D01*
X63679949Y-27169619D02*
X63775187Y-27169619D01*
X64537092Y-27169619D02*
X64537092Y-26645809D01*
X64537092Y-26645809D02*
X64489473Y-26550571D01*
X64489473Y-26550571D02*
X64394235Y-26502952D01*
X64394235Y-26502952D02*
X64203759Y-26502952D01*
X64203759Y-26502952D02*
X64108521Y-26550571D01*
X64537092Y-27122000D02*
X64441854Y-27169619D01*
X64441854Y-27169619D02*
X64203759Y-27169619D01*
X64203759Y-27169619D02*
X64108521Y-27122000D01*
X64108521Y-27122000D02*
X64060902Y-27026761D01*
X64060902Y-27026761D02*
X64060902Y-26931523D01*
X64060902Y-26931523D02*
X64108521Y-26836285D01*
X64108521Y-26836285D02*
X64203759Y-26788666D01*
X64203759Y-26788666D02*
X64441854Y-26788666D01*
X64441854Y-26788666D02*
X64537092Y-26741047D01*
X65441854Y-27122000D02*
X65346616Y-27169619D01*
X65346616Y-27169619D02*
X65156140Y-27169619D01*
X65156140Y-27169619D02*
X65060902Y-27122000D01*
X65060902Y-27122000D02*
X65013283Y-27074380D01*
X65013283Y-27074380D02*
X64965664Y-26979142D01*
X64965664Y-26979142D02*
X64965664Y-26693428D01*
X64965664Y-26693428D02*
X65013283Y-26598190D01*
X65013283Y-26598190D02*
X65060902Y-26550571D01*
X65060902Y-26550571D02*
X65156140Y-26502952D01*
X65156140Y-26502952D02*
X65346616Y-26502952D01*
X65346616Y-26502952D02*
X65441854Y-26550571D01*
X65727569Y-26502952D02*
X66108521Y-26502952D01*
X65870426Y-26169619D02*
X65870426Y-27026761D01*
X65870426Y-27026761D02*
X65918045Y-27122000D01*
X65918045Y-27122000D02*
X66013283Y-27169619D01*
X66013283Y-27169619D02*
X66108521Y-27169619D01*
X66584712Y-27169619D02*
X66489474Y-27122000D01*
X66489474Y-27122000D02*
X66441855Y-27074380D01*
X66441855Y-27074380D02*
X66394236Y-26979142D01*
X66394236Y-26979142D02*
X66394236Y-26693428D01*
X66394236Y-26693428D02*
X66441855Y-26598190D01*
X66441855Y-26598190D02*
X66489474Y-26550571D01*
X66489474Y-26550571D02*
X66584712Y-26502952D01*
X66584712Y-26502952D02*
X66727569Y-26502952D01*
X66727569Y-26502952D02*
X66822807Y-26550571D01*
X66822807Y-26550571D02*
X66870426Y-26598190D01*
X66870426Y-26598190D02*
X66918045Y-26693428D01*
X66918045Y-26693428D02*
X66918045Y-26979142D01*
X66918045Y-26979142D02*
X66870426Y-27074380D01*
X66870426Y-27074380D02*
X66822807Y-27122000D01*
X66822807Y-27122000D02*
X66727569Y-27169619D01*
X66727569Y-27169619D02*
X66584712Y-27169619D01*
X67346617Y-27169619D02*
X67346617Y-26502952D01*
X67346617Y-26693428D02*
X67394236Y-26598190D01*
X67394236Y-26598190D02*
X67441855Y-26550571D01*
X67441855Y-26550571D02*
X67537093Y-26502952D01*
X67537093Y-26502952D02*
X67632331Y-26502952D01*
X37867568Y-52045809D02*
X38200901Y-52045809D01*
X38343758Y-52569619D02*
X37867568Y-52569619D01*
X37867568Y-52569619D02*
X37867568Y-51569619D01*
X37867568Y-51569619D02*
X38343758Y-51569619D01*
X38915187Y-52569619D02*
X38819949Y-52522000D01*
X38819949Y-52522000D02*
X38772330Y-52426761D01*
X38772330Y-52426761D02*
X38772330Y-51569619D01*
X39677092Y-52522000D02*
X39581854Y-52569619D01*
X39581854Y-52569619D02*
X39391378Y-52569619D01*
X39391378Y-52569619D02*
X39296140Y-52522000D01*
X39296140Y-52522000D02*
X39248521Y-52426761D01*
X39248521Y-52426761D02*
X39248521Y-52045809D01*
X39248521Y-52045809D02*
X39296140Y-51950571D01*
X39296140Y-51950571D02*
X39391378Y-51902952D01*
X39391378Y-51902952D02*
X39581854Y-51902952D01*
X39581854Y-51902952D02*
X39677092Y-51950571D01*
X39677092Y-51950571D02*
X39724711Y-52045809D01*
X39724711Y-52045809D02*
X39724711Y-52141047D01*
X39724711Y-52141047D02*
X39248521Y-52236285D01*
X40581854Y-52522000D02*
X40486616Y-52569619D01*
X40486616Y-52569619D02*
X40296140Y-52569619D01*
X40296140Y-52569619D02*
X40200902Y-52522000D01*
X40200902Y-52522000D02*
X40153283Y-52474380D01*
X40153283Y-52474380D02*
X40105664Y-52379142D01*
X40105664Y-52379142D02*
X40105664Y-52093428D01*
X40105664Y-52093428D02*
X40153283Y-51998190D01*
X40153283Y-51998190D02*
X40200902Y-51950571D01*
X40200902Y-51950571D02*
X40296140Y-51902952D01*
X40296140Y-51902952D02*
X40486616Y-51902952D01*
X40486616Y-51902952D02*
X40581854Y-51950571D01*
X40867569Y-51902952D02*
X41248521Y-51902952D01*
X41010426Y-51569619D02*
X41010426Y-52426761D01*
X41010426Y-52426761D02*
X41058045Y-52522000D01*
X41058045Y-52522000D02*
X41153283Y-52569619D01*
X41153283Y-52569619D02*
X41248521Y-52569619D01*
X41581855Y-52569619D02*
X41581855Y-51902952D01*
X41581855Y-52093428D02*
X41629474Y-51998190D01*
X41629474Y-51998190D02*
X41677093Y-51950571D01*
X41677093Y-51950571D02*
X41772331Y-51902952D01*
X41772331Y-51902952D02*
X41867569Y-51902952D01*
X42343760Y-52569619D02*
X42248522Y-52522000D01*
X42248522Y-52522000D02*
X42200903Y-52474380D01*
X42200903Y-52474380D02*
X42153284Y-52379142D01*
X42153284Y-52379142D02*
X42153284Y-52093428D01*
X42153284Y-52093428D02*
X42200903Y-51998190D01*
X42200903Y-51998190D02*
X42248522Y-51950571D01*
X42248522Y-51950571D02*
X42343760Y-51902952D01*
X42343760Y-51902952D02*
X42486617Y-51902952D01*
X42486617Y-51902952D02*
X42581855Y-51950571D01*
X42581855Y-51950571D02*
X42629474Y-51998190D01*
X42629474Y-51998190D02*
X42677093Y-52093428D01*
X42677093Y-52093428D02*
X42677093Y-52379142D01*
X42677093Y-52379142D02*
X42629474Y-52474380D01*
X42629474Y-52474380D02*
X42581855Y-52522000D01*
X42581855Y-52522000D02*
X42486617Y-52569619D01*
X42486617Y-52569619D02*
X42343760Y-52569619D01*
X43105665Y-51902952D02*
X43105665Y-52569619D01*
X43105665Y-51998190D02*
X43153284Y-51950571D01*
X43153284Y-51950571D02*
X43248522Y-51902952D01*
X43248522Y-51902952D02*
X43391379Y-51902952D01*
X43391379Y-51902952D02*
X43486617Y-51950571D01*
X43486617Y-51950571D02*
X43534236Y-52045809D01*
X43534236Y-52045809D02*
X43534236Y-52569619D01*
X44010427Y-52569619D02*
X44010427Y-51902952D01*
X44010427Y-51569619D02*
X43962808Y-51617238D01*
X43962808Y-51617238D02*
X44010427Y-51664857D01*
X44010427Y-51664857D02*
X44058046Y-51617238D01*
X44058046Y-51617238D02*
X44010427Y-51569619D01*
X44010427Y-51569619D02*
X44010427Y-51664857D01*
X44915188Y-52522000D02*
X44819950Y-52569619D01*
X44819950Y-52569619D02*
X44629474Y-52569619D01*
X44629474Y-52569619D02*
X44534236Y-52522000D01*
X44534236Y-52522000D02*
X44486617Y-52474380D01*
X44486617Y-52474380D02*
X44438998Y-52379142D01*
X44438998Y-52379142D02*
X44438998Y-52093428D01*
X44438998Y-52093428D02*
X44486617Y-51998190D01*
X44486617Y-51998190D02*
X44534236Y-51950571D01*
X44534236Y-51950571D02*
X44629474Y-51902952D01*
X44629474Y-51902952D02*
X44819950Y-51902952D01*
X44819950Y-51902952D02*
X44915188Y-51950571D01*
X45296141Y-52522000D02*
X45391379Y-52569619D01*
X45391379Y-52569619D02*
X45581855Y-52569619D01*
X45581855Y-52569619D02*
X45677093Y-52522000D01*
X45677093Y-52522000D02*
X45724712Y-52426761D01*
X45724712Y-52426761D02*
X45724712Y-52379142D01*
X45724712Y-52379142D02*
X45677093Y-52283904D01*
X45677093Y-52283904D02*
X45581855Y-52236285D01*
X45581855Y-52236285D02*
X45438998Y-52236285D01*
X45438998Y-52236285D02*
X45343760Y-52188666D01*
X45343760Y-52188666D02*
X45296141Y-52093428D01*
X45296141Y-52093428D02*
X45296141Y-52045809D01*
X45296141Y-52045809D02*
X45343760Y-51950571D01*
X45343760Y-51950571D02*
X45438998Y-51902952D01*
X45438998Y-51902952D02*
X45581855Y-51902952D01*
X45581855Y-51902952D02*
X45677093Y-51950571D01*
X46153284Y-52188666D02*
X46915189Y-52188666D01*
D12*
X47801095Y-25404819D02*
X47801095Y-24404819D01*
X47801095Y-24881009D02*
X48372523Y-24881009D01*
X48372523Y-25404819D02*
X48372523Y-24404819D01*
X49372523Y-25404819D02*
X48801095Y-25404819D01*
X49086809Y-25404819D02*
X49086809Y-24404819D01*
X49086809Y-24404819D02*
X48991571Y-24547676D01*
X48991571Y-24547676D02*
X48896333Y-24642914D01*
X48896333Y-24642914D02*
X48801095Y-24690533D01*
X99661905Y-57932319D02*
X99661905Y-56932319D01*
X100233333Y-57932319D02*
X99804762Y-57360890D01*
X100233333Y-56932319D02*
X99661905Y-57503747D01*
X100614286Y-57027557D02*
X100661905Y-56979938D01*
X100661905Y-56979938D02*
X100757143Y-56932319D01*
X100757143Y-56932319D02*
X100995238Y-56932319D01*
X100995238Y-56932319D02*
X101090476Y-56979938D01*
X101090476Y-56979938D02*
X101138095Y-57027557D01*
X101138095Y-57027557D02*
X101185714Y-57122795D01*
X101185714Y-57122795D02*
X101185714Y-57218033D01*
X101185714Y-57218033D02*
X101138095Y-57360890D01*
X101138095Y-57360890D02*
X100566667Y-57932319D01*
X100566667Y-57932319D02*
X101185714Y-57932319D01*
X79904819Y-79416666D02*
X79904819Y-79892856D01*
X79904819Y-79892856D02*
X78904819Y-79892856D01*
X79904819Y-78559523D02*
X79904819Y-79130951D01*
X79904819Y-78845237D02*
X78904819Y-78845237D01*
X78904819Y-78845237D02*
X79047676Y-78940475D01*
X79047676Y-78940475D02*
X79142914Y-79035713D01*
X79142914Y-79035713D02*
X79190533Y-79130951D01*
X107616666Y-94981009D02*
X107283333Y-94981009D01*
X107283333Y-95504819D02*
X107283333Y-94504819D01*
X107283333Y-94504819D02*
X107759523Y-94504819D01*
X108092857Y-94600057D02*
X108140476Y-94552438D01*
X108140476Y-94552438D02*
X108235714Y-94504819D01*
X108235714Y-94504819D02*
X108473809Y-94504819D01*
X108473809Y-94504819D02*
X108569047Y-94552438D01*
X108569047Y-94552438D02*
X108616666Y-94600057D01*
X108616666Y-94600057D02*
X108664285Y-94695295D01*
X108664285Y-94695295D02*
X108664285Y-94790533D01*
X108664285Y-94790533D02*
X108616666Y-94933390D01*
X108616666Y-94933390D02*
X108045238Y-95504819D01*
X108045238Y-95504819D02*
X108664285Y-95504819D01*
X119712319Y-89800833D02*
X120426604Y-89800833D01*
X120426604Y-89800833D02*
X120569461Y-89848452D01*
X120569461Y-89848452D02*
X120664700Y-89943690D01*
X120664700Y-89943690D02*
X120712319Y-90086547D01*
X120712319Y-90086547D02*
X120712319Y-90181785D01*
X120045652Y-88896071D02*
X120712319Y-88896071D01*
X119664700Y-89134166D02*
X120378985Y-89372261D01*
X120378985Y-89372261D02*
X120378985Y-88753214D01*
X64861905Y-85504819D02*
X64861905Y-84504819D01*
X64861905Y-84504819D02*
X65100000Y-84504819D01*
X65100000Y-84504819D02*
X65242857Y-84552438D01*
X65242857Y-84552438D02*
X65338095Y-84647676D01*
X65338095Y-84647676D02*
X65385714Y-84742914D01*
X65385714Y-84742914D02*
X65433333Y-84933390D01*
X65433333Y-84933390D02*
X65433333Y-85076247D01*
X65433333Y-85076247D02*
X65385714Y-85266723D01*
X65385714Y-85266723D02*
X65338095Y-85361961D01*
X65338095Y-85361961D02*
X65242857Y-85457200D01*
X65242857Y-85457200D02*
X65100000Y-85504819D01*
X65100000Y-85504819D02*
X64861905Y-85504819D01*
X66290476Y-84504819D02*
X66100000Y-84504819D01*
X66100000Y-84504819D02*
X66004762Y-84552438D01*
X66004762Y-84552438D02*
X65957143Y-84600057D01*
X65957143Y-84600057D02*
X65861905Y-84742914D01*
X65861905Y-84742914D02*
X65814286Y-84933390D01*
X65814286Y-84933390D02*
X65814286Y-85314342D01*
X65814286Y-85314342D02*
X65861905Y-85409580D01*
X65861905Y-85409580D02*
X65909524Y-85457200D01*
X65909524Y-85457200D02*
X66004762Y-85504819D01*
X66004762Y-85504819D02*
X66195238Y-85504819D01*
X66195238Y-85504819D02*
X66290476Y-85457200D01*
X66290476Y-85457200D02*
X66338095Y-85409580D01*
X66338095Y-85409580D02*
X66385714Y-85314342D01*
X66385714Y-85314342D02*
X66385714Y-85076247D01*
X66385714Y-85076247D02*
X66338095Y-84981009D01*
X66338095Y-84981009D02*
X66290476Y-84933390D01*
X66290476Y-84933390D02*
X66195238Y-84885771D01*
X66195238Y-84885771D02*
X66004762Y-84885771D01*
X66004762Y-84885771D02*
X65909524Y-84933390D01*
X65909524Y-84933390D02*
X65861905Y-84981009D01*
X65861905Y-84981009D02*
X65814286Y-85076247D01*
X119612319Y-51600833D02*
X120326604Y-51600833D01*
X120326604Y-51600833D02*
X120469461Y-51648452D01*
X120469461Y-51648452D02*
X120564700Y-51743690D01*
X120564700Y-51743690D02*
X120612319Y-51886547D01*
X120612319Y-51886547D02*
X120612319Y-51981785D01*
X119612319Y-51219880D02*
X119612319Y-50600833D01*
X119612319Y-50600833D02*
X119993271Y-50934166D01*
X119993271Y-50934166D02*
X119993271Y-50791309D01*
X119993271Y-50791309D02*
X120040890Y-50696071D01*
X120040890Y-50696071D02*
X120088509Y-50648452D01*
X120088509Y-50648452D02*
X120183747Y-50600833D01*
X120183747Y-50600833D02*
X120421842Y-50600833D01*
X120421842Y-50600833D02*
X120517080Y-50648452D01*
X120517080Y-50648452D02*
X120564700Y-50696071D01*
X120564700Y-50696071D02*
X120612319Y-50791309D01*
X120612319Y-50791309D02*
X120612319Y-51077023D01*
X120612319Y-51077023D02*
X120564700Y-51172261D01*
X120564700Y-51172261D02*
X120517080Y-51219880D01*
X114604095Y-25404819D02*
X114604095Y-24404819D01*
X114604095Y-24881009D02*
X115175523Y-24881009D01*
X115175523Y-25404819D02*
X115175523Y-24404819D01*
X115604095Y-24500057D02*
X115651714Y-24452438D01*
X115651714Y-24452438D02*
X115746952Y-24404819D01*
X115746952Y-24404819D02*
X115985047Y-24404819D01*
X115985047Y-24404819D02*
X116080285Y-24452438D01*
X116080285Y-24452438D02*
X116127904Y-24500057D01*
X116127904Y-24500057D02*
X116175523Y-24595295D01*
X116175523Y-24595295D02*
X116175523Y-24690533D01*
X116175523Y-24690533D02*
X116127904Y-24833390D01*
X116127904Y-24833390D02*
X115556476Y-25404819D01*
X115556476Y-25404819D02*
X116175523Y-25404819D01*
X114488095Y-103871419D02*
X114488095Y-102871419D01*
X114488095Y-103347609D02*
X115059523Y-103347609D01*
X115059523Y-103871419D02*
X115059523Y-102871419D01*
X115964285Y-103204752D02*
X115964285Y-103871419D01*
X115726190Y-102823800D02*
X115488095Y-103538085D01*
X115488095Y-103538085D02*
X116107142Y-103538085D01*
X58204819Y-97614285D02*
X57204819Y-97614285D01*
X57204819Y-97614285D02*
X57204819Y-97376190D01*
X57204819Y-97376190D02*
X57252438Y-97233333D01*
X57252438Y-97233333D02*
X57347676Y-97138095D01*
X57347676Y-97138095D02*
X57442914Y-97090476D01*
X57442914Y-97090476D02*
X57633390Y-97042857D01*
X57633390Y-97042857D02*
X57776247Y-97042857D01*
X57776247Y-97042857D02*
X57966723Y-97090476D01*
X57966723Y-97090476D02*
X58061961Y-97138095D01*
X58061961Y-97138095D02*
X58157200Y-97233333D01*
X58157200Y-97233333D02*
X58204819Y-97376190D01*
X58204819Y-97376190D02*
X58204819Y-97614285D01*
X58204819Y-96090476D02*
X58204819Y-96661904D01*
X58204819Y-96376190D02*
X57204819Y-96376190D01*
X57204819Y-96376190D02*
X57347676Y-96471428D01*
X57347676Y-96471428D02*
X57442914Y-96566666D01*
X57442914Y-96566666D02*
X57490533Y-96661904D01*
X57204819Y-95471428D02*
X57204819Y-95376190D01*
X57204819Y-95376190D02*
X57252438Y-95280952D01*
X57252438Y-95280952D02*
X57300057Y-95233333D01*
X57300057Y-95233333D02*
X57395295Y-95185714D01*
X57395295Y-95185714D02*
X57585771Y-95138095D01*
X57585771Y-95138095D02*
X57823866Y-95138095D01*
X57823866Y-95138095D02*
X58014342Y-95185714D01*
X58014342Y-95185714D02*
X58109580Y-95233333D01*
X58109580Y-95233333D02*
X58157200Y-95280952D01*
X58157200Y-95280952D02*
X58204819Y-95376190D01*
X58204819Y-95376190D02*
X58204819Y-95471428D01*
X58204819Y-95471428D02*
X58157200Y-95566666D01*
X58157200Y-95566666D02*
X58109580Y-95614285D01*
X58109580Y-95614285D02*
X58014342Y-95661904D01*
X58014342Y-95661904D02*
X57823866Y-95709523D01*
X57823866Y-95709523D02*
X57585771Y-95709523D01*
X57585771Y-95709523D02*
X57395295Y-95661904D01*
X57395295Y-95661904D02*
X57300057Y-95614285D01*
X57300057Y-95614285D02*
X57252438Y-95566666D01*
X57252438Y-95566666D02*
X57204819Y-95471428D01*
X47954819Y-57683333D02*
X48669104Y-57683333D01*
X48669104Y-57683333D02*
X48811961Y-57730952D01*
X48811961Y-57730952D02*
X48907200Y-57826190D01*
X48907200Y-57826190D02*
X48954819Y-57969047D01*
X48954819Y-57969047D02*
X48954819Y-58064285D01*
X48050057Y-57254761D02*
X48002438Y-57207142D01*
X48002438Y-57207142D02*
X47954819Y-57111904D01*
X47954819Y-57111904D02*
X47954819Y-56873809D01*
X47954819Y-56873809D02*
X48002438Y-56778571D01*
X48002438Y-56778571D02*
X48050057Y-56730952D01*
X48050057Y-56730952D02*
X48145295Y-56683333D01*
X48145295Y-56683333D02*
X48240533Y-56683333D01*
X48240533Y-56683333D02*
X48383390Y-56730952D01*
X48383390Y-56730952D02*
X48954819Y-57302380D01*
X48954819Y-57302380D02*
X48954819Y-56683333D01*
X107641666Y-89581009D02*
X107308333Y-89581009D01*
X107308333Y-90104819D02*
X107308333Y-89104819D01*
X107308333Y-89104819D02*
X107784523Y-89104819D01*
X108689285Y-90104819D02*
X108117857Y-90104819D01*
X108403571Y-90104819D02*
X108403571Y-89104819D01*
X108403571Y-89104819D02*
X108308333Y-89247676D01*
X108308333Y-89247676D02*
X108213095Y-89342914D01*
X108213095Y-89342914D02*
X108117857Y-89390533D01*
X87758333Y-57524580D02*
X87710714Y-57572200D01*
X87710714Y-57572200D02*
X87567857Y-57619819D01*
X87567857Y-57619819D02*
X87472619Y-57619819D01*
X87472619Y-57619819D02*
X87329762Y-57572200D01*
X87329762Y-57572200D02*
X87234524Y-57476961D01*
X87234524Y-57476961D02*
X87186905Y-57381723D01*
X87186905Y-57381723D02*
X87139286Y-57191247D01*
X87139286Y-57191247D02*
X87139286Y-57048390D01*
X87139286Y-57048390D02*
X87186905Y-56857914D01*
X87186905Y-56857914D02*
X87234524Y-56762676D01*
X87234524Y-56762676D02*
X87329762Y-56667438D01*
X87329762Y-56667438D02*
X87472619Y-56619819D01*
X87472619Y-56619819D02*
X87567857Y-56619819D01*
X87567857Y-56619819D02*
X87710714Y-56667438D01*
X87710714Y-56667438D02*
X87758333Y-56715057D01*
X88139286Y-56715057D02*
X88186905Y-56667438D01*
X88186905Y-56667438D02*
X88282143Y-56619819D01*
X88282143Y-56619819D02*
X88520238Y-56619819D01*
X88520238Y-56619819D02*
X88615476Y-56667438D01*
X88615476Y-56667438D02*
X88663095Y-56715057D01*
X88663095Y-56715057D02*
X88710714Y-56810295D01*
X88710714Y-56810295D02*
X88710714Y-56905533D01*
X88710714Y-56905533D02*
X88663095Y-57048390D01*
X88663095Y-57048390D02*
X88091667Y-57619819D01*
X88091667Y-57619819D02*
X88710714Y-57619819D01*
X119704819Y-68979523D02*
X120419104Y-68979523D01*
X120419104Y-68979523D02*
X120561961Y-69027142D01*
X120561961Y-69027142D02*
X120657200Y-69122380D01*
X120657200Y-69122380D02*
X120704819Y-69265237D01*
X120704819Y-69265237D02*
X120704819Y-69360475D01*
X120704819Y-67979523D02*
X120704819Y-68550951D01*
X120704819Y-68265237D02*
X119704819Y-68265237D01*
X119704819Y-68265237D02*
X119847676Y-68360475D01*
X119847676Y-68360475D02*
X119942914Y-68455713D01*
X119942914Y-68455713D02*
X119990533Y-68550951D01*
X119704819Y-67360475D02*
X119704819Y-67265237D01*
X119704819Y-67265237D02*
X119752438Y-67169999D01*
X119752438Y-67169999D02*
X119800057Y-67122380D01*
X119800057Y-67122380D02*
X119895295Y-67074761D01*
X119895295Y-67074761D02*
X120085771Y-67027142D01*
X120085771Y-67027142D02*
X120323866Y-67027142D01*
X120323866Y-67027142D02*
X120514342Y-67074761D01*
X120514342Y-67074761D02*
X120609580Y-67122380D01*
X120609580Y-67122380D02*
X120657200Y-67169999D01*
X120657200Y-67169999D02*
X120704819Y-67265237D01*
X120704819Y-67265237D02*
X120704819Y-67360475D01*
X120704819Y-67360475D02*
X120657200Y-67455713D01*
X120657200Y-67455713D02*
X120609580Y-67503332D01*
X120609580Y-67503332D02*
X120514342Y-67550951D01*
X120514342Y-67550951D02*
X120323866Y-67598570D01*
X120323866Y-67598570D02*
X120085771Y-67598570D01*
X120085771Y-67598570D02*
X119895295Y-67550951D01*
X119895295Y-67550951D02*
X119800057Y-67503332D01*
X119800057Y-67503332D02*
X119752438Y-67455713D01*
X119752438Y-67455713D02*
X119704819Y-67360475D01*
X64861905Y-96854819D02*
X64861905Y-95854819D01*
X64861905Y-95854819D02*
X65100000Y-95854819D01*
X65100000Y-95854819D02*
X65242857Y-95902438D01*
X65242857Y-95902438D02*
X65338095Y-95997676D01*
X65338095Y-95997676D02*
X65385714Y-96092914D01*
X65385714Y-96092914D02*
X65433333Y-96283390D01*
X65433333Y-96283390D02*
X65433333Y-96426247D01*
X65433333Y-96426247D02*
X65385714Y-96616723D01*
X65385714Y-96616723D02*
X65338095Y-96711961D01*
X65338095Y-96711961D02*
X65242857Y-96807200D01*
X65242857Y-96807200D02*
X65100000Y-96854819D01*
X65100000Y-96854819D02*
X64861905Y-96854819D01*
X66338095Y-95854819D02*
X65861905Y-95854819D01*
X65861905Y-95854819D02*
X65814286Y-96331009D01*
X65814286Y-96331009D02*
X65861905Y-96283390D01*
X65861905Y-96283390D02*
X65957143Y-96235771D01*
X65957143Y-96235771D02*
X66195238Y-96235771D01*
X66195238Y-96235771D02*
X66290476Y-96283390D01*
X66290476Y-96283390D02*
X66338095Y-96331009D01*
X66338095Y-96331009D02*
X66385714Y-96426247D01*
X66385714Y-96426247D02*
X66385714Y-96664342D01*
X66385714Y-96664342D02*
X66338095Y-96759580D01*
X66338095Y-96759580D02*
X66290476Y-96807200D01*
X66290476Y-96807200D02*
X66195238Y-96854819D01*
X66195238Y-96854819D02*
X65957143Y-96854819D01*
X65957143Y-96854819D02*
X65861905Y-96807200D01*
X65861905Y-96807200D02*
X65814286Y-96759580D01*
X74654761Y-79225057D02*
X74559523Y-79177438D01*
X74559523Y-79177438D02*
X74464285Y-79082200D01*
X74464285Y-79082200D02*
X74321428Y-78939342D01*
X74321428Y-78939342D02*
X74226190Y-78891723D01*
X74226190Y-78891723D02*
X74130952Y-78891723D01*
X74178571Y-79129819D02*
X74083333Y-79082200D01*
X74083333Y-79082200D02*
X73988095Y-78986961D01*
X73988095Y-78986961D02*
X73940476Y-78796485D01*
X73940476Y-78796485D02*
X73940476Y-78463152D01*
X73940476Y-78463152D02*
X73988095Y-78272676D01*
X73988095Y-78272676D02*
X74083333Y-78177438D01*
X74083333Y-78177438D02*
X74178571Y-78129819D01*
X74178571Y-78129819D02*
X74369047Y-78129819D01*
X74369047Y-78129819D02*
X74464285Y-78177438D01*
X74464285Y-78177438D02*
X74559523Y-78272676D01*
X74559523Y-78272676D02*
X74607142Y-78463152D01*
X74607142Y-78463152D02*
X74607142Y-78796485D01*
X74607142Y-78796485D02*
X74559523Y-78986961D01*
X74559523Y-78986961D02*
X74464285Y-79082200D01*
X74464285Y-79082200D02*
X74369047Y-79129819D01*
X74369047Y-79129819D02*
X74178571Y-79129819D01*
X74988095Y-78225057D02*
X75035714Y-78177438D01*
X75035714Y-78177438D02*
X75130952Y-78129819D01*
X75130952Y-78129819D02*
X75369047Y-78129819D01*
X75369047Y-78129819D02*
X75464285Y-78177438D01*
X75464285Y-78177438D02*
X75511904Y-78225057D01*
X75511904Y-78225057D02*
X75559523Y-78320295D01*
X75559523Y-78320295D02*
X75559523Y-78415533D01*
X75559523Y-78415533D02*
X75511904Y-78558390D01*
X75511904Y-78558390D02*
X74940476Y-79129819D01*
X74940476Y-79129819D02*
X75559523Y-79129819D01*
X99229819Y-102436904D02*
X100039342Y-102436904D01*
X100039342Y-102436904D02*
X100134580Y-102389285D01*
X100134580Y-102389285D02*
X100182200Y-102341666D01*
X100182200Y-102341666D02*
X100229819Y-102246428D01*
X100229819Y-102246428D02*
X100229819Y-102055952D01*
X100229819Y-102055952D02*
X100182200Y-101960714D01*
X100182200Y-101960714D02*
X100134580Y-101913095D01*
X100134580Y-101913095D02*
X100039342Y-101865476D01*
X100039342Y-101865476D02*
X99229819Y-101865476D01*
X99325057Y-101436904D02*
X99277438Y-101389285D01*
X99277438Y-101389285D02*
X99229819Y-101294047D01*
X99229819Y-101294047D02*
X99229819Y-101055952D01*
X99229819Y-101055952D02*
X99277438Y-100960714D01*
X99277438Y-100960714D02*
X99325057Y-100913095D01*
X99325057Y-100913095D02*
X99420295Y-100865476D01*
X99420295Y-100865476D02*
X99515533Y-100865476D01*
X99515533Y-100865476D02*
X99658390Y-100913095D01*
X99658390Y-100913095D02*
X100229819Y-101484523D01*
X100229819Y-101484523D02*
X100229819Y-100865476D01*
X40338095Y-72154819D02*
X40338095Y-72964342D01*
X40338095Y-72964342D02*
X40385714Y-73059580D01*
X40385714Y-73059580D02*
X40433333Y-73107200D01*
X40433333Y-73107200D02*
X40528571Y-73154819D01*
X40528571Y-73154819D02*
X40719047Y-73154819D01*
X40719047Y-73154819D02*
X40814285Y-73107200D01*
X40814285Y-73107200D02*
X40861904Y-73059580D01*
X40861904Y-73059580D02*
X40909523Y-72964342D01*
X40909523Y-72964342D02*
X40909523Y-72154819D01*
X41290476Y-72154819D02*
X41909523Y-72154819D01*
X41909523Y-72154819D02*
X41576190Y-72535771D01*
X41576190Y-72535771D02*
X41719047Y-72535771D01*
X41719047Y-72535771D02*
X41814285Y-72583390D01*
X41814285Y-72583390D02*
X41861904Y-72631009D01*
X41861904Y-72631009D02*
X41909523Y-72726247D01*
X41909523Y-72726247D02*
X41909523Y-72964342D01*
X41909523Y-72964342D02*
X41861904Y-73059580D01*
X41861904Y-73059580D02*
X41814285Y-73107200D01*
X41814285Y-73107200D02*
X41719047Y-73154819D01*
X41719047Y-73154819D02*
X41433333Y-73154819D01*
X41433333Y-73154819D02*
X41338095Y-73107200D01*
X41338095Y-73107200D02*
X41290476Y-73059580D01*
X63011905Y-69032319D02*
X63011905Y-68032319D01*
X63583333Y-69032319D02*
X63154762Y-68460890D01*
X63583333Y-68032319D02*
X63011905Y-68603747D01*
X64535714Y-69032319D02*
X63964286Y-69032319D01*
X64250000Y-69032319D02*
X64250000Y-68032319D01*
X64250000Y-68032319D02*
X64154762Y-68175176D01*
X64154762Y-68175176D02*
X64059524Y-68270414D01*
X64059524Y-68270414D02*
X63964286Y-68318033D01*
X63649166Y-36697319D02*
X63649166Y-37411604D01*
X63649166Y-37411604D02*
X63601547Y-37554461D01*
X63601547Y-37554461D02*
X63506309Y-37649700D01*
X63506309Y-37649700D02*
X63363452Y-37697319D01*
X63363452Y-37697319D02*
X63268214Y-37697319D01*
X64601547Y-36697319D02*
X64125357Y-36697319D01*
X64125357Y-36697319D02*
X64077738Y-37173509D01*
X64077738Y-37173509D02*
X64125357Y-37125890D01*
X64125357Y-37125890D02*
X64220595Y-37078271D01*
X64220595Y-37078271D02*
X64458690Y-37078271D01*
X64458690Y-37078271D02*
X64553928Y-37125890D01*
X64553928Y-37125890D02*
X64601547Y-37173509D01*
X64601547Y-37173509D02*
X64649166Y-37268747D01*
X64649166Y-37268747D02*
X64649166Y-37506842D01*
X64649166Y-37506842D02*
X64601547Y-37602080D01*
X64601547Y-37602080D02*
X64553928Y-37649700D01*
X64553928Y-37649700D02*
X64458690Y-37697319D01*
X64458690Y-37697319D02*
X64220595Y-37697319D01*
X64220595Y-37697319D02*
X64125357Y-37649700D01*
X64125357Y-37649700D02*
X64077738Y-37602080D01*
X63375057Y-96195238D02*
X63327438Y-96290476D01*
X63327438Y-96290476D02*
X63232200Y-96385714D01*
X63232200Y-96385714D02*
X63089342Y-96528571D01*
X63089342Y-96528571D02*
X63041723Y-96623809D01*
X63041723Y-96623809D02*
X63041723Y-96719047D01*
X63279819Y-96671428D02*
X63232200Y-96766666D01*
X63232200Y-96766666D02*
X63136961Y-96861904D01*
X63136961Y-96861904D02*
X62946485Y-96909523D01*
X62946485Y-96909523D02*
X62613152Y-96909523D01*
X62613152Y-96909523D02*
X62422676Y-96861904D01*
X62422676Y-96861904D02*
X62327438Y-96766666D01*
X62327438Y-96766666D02*
X62279819Y-96671428D01*
X62279819Y-96671428D02*
X62279819Y-96480952D01*
X62279819Y-96480952D02*
X62327438Y-96385714D01*
X62327438Y-96385714D02*
X62422676Y-96290476D01*
X62422676Y-96290476D02*
X62613152Y-96242857D01*
X62613152Y-96242857D02*
X62946485Y-96242857D01*
X62946485Y-96242857D02*
X63136961Y-96290476D01*
X63136961Y-96290476D02*
X63232200Y-96385714D01*
X63232200Y-96385714D02*
X63279819Y-96480952D01*
X63279819Y-96480952D02*
X63279819Y-96671428D01*
X63279819Y-95290476D02*
X63279819Y-95861904D01*
X63279819Y-95576190D02*
X62279819Y-95576190D01*
X62279819Y-95576190D02*
X62422676Y-95671428D01*
X62422676Y-95671428D02*
X62517914Y-95766666D01*
X62517914Y-95766666D02*
X62565533Y-95861904D01*
X99783333Y-88159580D02*
X99735714Y-88207200D01*
X99735714Y-88207200D02*
X99592857Y-88254819D01*
X99592857Y-88254819D02*
X99497619Y-88254819D01*
X99497619Y-88254819D02*
X99354762Y-88207200D01*
X99354762Y-88207200D02*
X99259524Y-88111961D01*
X99259524Y-88111961D02*
X99211905Y-88016723D01*
X99211905Y-88016723D02*
X99164286Y-87826247D01*
X99164286Y-87826247D02*
X99164286Y-87683390D01*
X99164286Y-87683390D02*
X99211905Y-87492914D01*
X99211905Y-87492914D02*
X99259524Y-87397676D01*
X99259524Y-87397676D02*
X99354762Y-87302438D01*
X99354762Y-87302438D02*
X99497619Y-87254819D01*
X99497619Y-87254819D02*
X99592857Y-87254819D01*
X99592857Y-87254819D02*
X99735714Y-87302438D01*
X99735714Y-87302438D02*
X99783333Y-87350057D01*
X100735714Y-88254819D02*
X100164286Y-88254819D01*
X100450000Y-88254819D02*
X100450000Y-87254819D01*
X100450000Y-87254819D02*
X100354762Y-87397676D01*
X100354762Y-87397676D02*
X100259524Y-87492914D01*
X100259524Y-87492914D02*
X100164286Y-87540533D01*
X74683333Y-80504819D02*
X74350000Y-80028628D01*
X74111905Y-80504819D02*
X74111905Y-79504819D01*
X74111905Y-79504819D02*
X74492857Y-79504819D01*
X74492857Y-79504819D02*
X74588095Y-79552438D01*
X74588095Y-79552438D02*
X74635714Y-79600057D01*
X74635714Y-79600057D02*
X74683333Y-79695295D01*
X74683333Y-79695295D02*
X74683333Y-79838152D01*
X74683333Y-79838152D02*
X74635714Y-79933390D01*
X74635714Y-79933390D02*
X74588095Y-79981009D01*
X74588095Y-79981009D02*
X74492857Y-80028628D01*
X74492857Y-80028628D02*
X74111905Y-80028628D01*
X75540476Y-79838152D02*
X75540476Y-80504819D01*
X75302381Y-79457200D02*
X75064286Y-80171485D01*
X75064286Y-80171485D02*
X75683333Y-80171485D01*
X58104819Y-86014285D02*
X57104819Y-86014285D01*
X57104819Y-86014285D02*
X57104819Y-85776190D01*
X57104819Y-85776190D02*
X57152438Y-85633333D01*
X57152438Y-85633333D02*
X57247676Y-85538095D01*
X57247676Y-85538095D02*
X57342914Y-85490476D01*
X57342914Y-85490476D02*
X57533390Y-85442857D01*
X57533390Y-85442857D02*
X57676247Y-85442857D01*
X57676247Y-85442857D02*
X57866723Y-85490476D01*
X57866723Y-85490476D02*
X57961961Y-85538095D01*
X57961961Y-85538095D02*
X58057200Y-85633333D01*
X58057200Y-85633333D02*
X58104819Y-85776190D01*
X58104819Y-85776190D02*
X58104819Y-86014285D01*
X58104819Y-84490476D02*
X58104819Y-85061904D01*
X58104819Y-84776190D02*
X57104819Y-84776190D01*
X57104819Y-84776190D02*
X57247676Y-84871428D01*
X57247676Y-84871428D02*
X57342914Y-84966666D01*
X57342914Y-84966666D02*
X57390533Y-85061904D01*
X58104819Y-83538095D02*
X58104819Y-84109523D01*
X58104819Y-83823809D02*
X57104819Y-83823809D01*
X57104819Y-83823809D02*
X57247676Y-83919047D01*
X57247676Y-83919047D02*
X57342914Y-84014285D01*
X57342914Y-84014285D02*
X57390533Y-84109523D01*
X63375057Y-85095238D02*
X63327438Y-85190476D01*
X63327438Y-85190476D02*
X63232200Y-85285714D01*
X63232200Y-85285714D02*
X63089342Y-85428571D01*
X63089342Y-85428571D02*
X63041723Y-85523809D01*
X63041723Y-85523809D02*
X63041723Y-85619047D01*
X63279819Y-85571428D02*
X63232200Y-85666666D01*
X63232200Y-85666666D02*
X63136961Y-85761904D01*
X63136961Y-85761904D02*
X62946485Y-85809523D01*
X62946485Y-85809523D02*
X62613152Y-85809523D01*
X62613152Y-85809523D02*
X62422676Y-85761904D01*
X62422676Y-85761904D02*
X62327438Y-85666666D01*
X62327438Y-85666666D02*
X62279819Y-85571428D01*
X62279819Y-85571428D02*
X62279819Y-85380952D01*
X62279819Y-85380952D02*
X62327438Y-85285714D01*
X62327438Y-85285714D02*
X62422676Y-85190476D01*
X62422676Y-85190476D02*
X62613152Y-85142857D01*
X62613152Y-85142857D02*
X62946485Y-85142857D01*
X62946485Y-85142857D02*
X63136961Y-85190476D01*
X63136961Y-85190476D02*
X63232200Y-85285714D01*
X63232200Y-85285714D02*
X63279819Y-85380952D01*
X63279819Y-85380952D02*
X63279819Y-85571428D01*
X62279819Y-84238095D02*
X62279819Y-84714285D01*
X62279819Y-84714285D02*
X62756009Y-84761904D01*
X62756009Y-84761904D02*
X62708390Y-84714285D01*
X62708390Y-84714285D02*
X62660771Y-84619047D01*
X62660771Y-84619047D02*
X62660771Y-84380952D01*
X62660771Y-84380952D02*
X62708390Y-84285714D01*
X62708390Y-84285714D02*
X62756009Y-84238095D01*
X62756009Y-84238095D02*
X62851247Y-84190476D01*
X62851247Y-84190476D02*
X63089342Y-84190476D01*
X63089342Y-84190476D02*
X63184580Y-84238095D01*
X63184580Y-84238095D02*
X63232200Y-84285714D01*
X63232200Y-84285714D02*
X63279819Y-84380952D01*
X63279819Y-84380952D02*
X63279819Y-84619047D01*
X63279819Y-84619047D02*
X63232200Y-84714285D01*
X63232200Y-84714285D02*
X63184580Y-84761904D01*
X47409580Y-69266666D02*
X47457200Y-69314285D01*
X47457200Y-69314285D02*
X47504819Y-69457142D01*
X47504819Y-69457142D02*
X47504819Y-69552380D01*
X47504819Y-69552380D02*
X47457200Y-69695237D01*
X47457200Y-69695237D02*
X47361961Y-69790475D01*
X47361961Y-69790475D02*
X47266723Y-69838094D01*
X47266723Y-69838094D02*
X47076247Y-69885713D01*
X47076247Y-69885713D02*
X46933390Y-69885713D01*
X46933390Y-69885713D02*
X46742914Y-69838094D01*
X46742914Y-69838094D02*
X46647676Y-69790475D01*
X46647676Y-69790475D02*
X46552438Y-69695237D01*
X46552438Y-69695237D02*
X46504819Y-69552380D01*
X46504819Y-69552380D02*
X46504819Y-69457142D01*
X46504819Y-69457142D02*
X46552438Y-69314285D01*
X46552438Y-69314285D02*
X46600057Y-69266666D01*
X46504819Y-68933332D02*
X46504819Y-68314285D01*
X46504819Y-68314285D02*
X46885771Y-68647618D01*
X46885771Y-68647618D02*
X46885771Y-68504761D01*
X46885771Y-68504761D02*
X46933390Y-68409523D01*
X46933390Y-68409523D02*
X46981009Y-68361904D01*
X46981009Y-68361904D02*
X47076247Y-68314285D01*
X47076247Y-68314285D02*
X47314342Y-68314285D01*
X47314342Y-68314285D02*
X47409580Y-68361904D01*
X47409580Y-68361904D02*
X47457200Y-68409523D01*
X47457200Y-68409523D02*
X47504819Y-68504761D01*
X47504819Y-68504761D02*
X47504819Y-68790475D01*
X47504819Y-68790475D02*
X47457200Y-68885713D01*
X47457200Y-68885713D02*
X47409580Y-68933332D01*
X74704761Y-90675057D02*
X74609523Y-90627438D01*
X74609523Y-90627438D02*
X74514285Y-90532200D01*
X74514285Y-90532200D02*
X74371428Y-90389342D01*
X74371428Y-90389342D02*
X74276190Y-90341723D01*
X74276190Y-90341723D02*
X74180952Y-90341723D01*
X74228571Y-90579819D02*
X74133333Y-90532200D01*
X74133333Y-90532200D02*
X74038095Y-90436961D01*
X74038095Y-90436961D02*
X73990476Y-90246485D01*
X73990476Y-90246485D02*
X73990476Y-89913152D01*
X73990476Y-89913152D02*
X74038095Y-89722676D01*
X74038095Y-89722676D02*
X74133333Y-89627438D01*
X74133333Y-89627438D02*
X74228571Y-89579819D01*
X74228571Y-89579819D02*
X74419047Y-89579819D01*
X74419047Y-89579819D02*
X74514285Y-89627438D01*
X74514285Y-89627438D02*
X74609523Y-89722676D01*
X74609523Y-89722676D02*
X74657142Y-89913152D01*
X74657142Y-89913152D02*
X74657142Y-90246485D01*
X74657142Y-90246485D02*
X74609523Y-90436961D01*
X74609523Y-90436961D02*
X74514285Y-90532200D01*
X74514285Y-90532200D02*
X74419047Y-90579819D01*
X74419047Y-90579819D02*
X74228571Y-90579819D01*
X74990476Y-89579819D02*
X75609523Y-89579819D01*
X75609523Y-89579819D02*
X75276190Y-89960771D01*
X75276190Y-89960771D02*
X75419047Y-89960771D01*
X75419047Y-89960771D02*
X75514285Y-90008390D01*
X75514285Y-90008390D02*
X75561904Y-90056009D01*
X75561904Y-90056009D02*
X75609523Y-90151247D01*
X75609523Y-90151247D02*
X75609523Y-90389342D01*
X75609523Y-90389342D02*
X75561904Y-90484580D01*
X75561904Y-90484580D02*
X75514285Y-90532200D01*
X75514285Y-90532200D02*
X75419047Y-90579819D01*
X75419047Y-90579819D02*
X75133333Y-90579819D01*
X75133333Y-90579819D02*
X75038095Y-90532200D01*
X75038095Y-90532200D02*
X74990476Y-90484580D01*
X46843819Y-83635333D02*
X47558104Y-83635333D01*
X47558104Y-83635333D02*
X47700961Y-83682952D01*
X47700961Y-83682952D02*
X47796200Y-83778190D01*
X47796200Y-83778190D02*
X47843819Y-83921047D01*
X47843819Y-83921047D02*
X47843819Y-84016285D01*
X47843819Y-82635333D02*
X47843819Y-83206761D01*
X47843819Y-82921047D02*
X46843819Y-82921047D01*
X46843819Y-82921047D02*
X46986676Y-83016285D01*
X46986676Y-83016285D02*
X47081914Y-83111523D01*
X47081914Y-83111523D02*
X47129533Y-83206761D01*
X47938095Y-103754819D02*
X47938095Y-102754819D01*
X47938095Y-103231009D02*
X48509523Y-103231009D01*
X48509523Y-103754819D02*
X48509523Y-102754819D01*
X48890476Y-102754819D02*
X49509523Y-102754819D01*
X49509523Y-102754819D02*
X49176190Y-103135771D01*
X49176190Y-103135771D02*
X49319047Y-103135771D01*
X49319047Y-103135771D02*
X49414285Y-103183390D01*
X49414285Y-103183390D02*
X49461904Y-103231009D01*
X49461904Y-103231009D02*
X49509523Y-103326247D01*
X49509523Y-103326247D02*
X49509523Y-103564342D01*
X49509523Y-103564342D02*
X49461904Y-103659580D01*
X49461904Y-103659580D02*
X49414285Y-103707200D01*
X49414285Y-103707200D02*
X49319047Y-103754819D01*
X49319047Y-103754819D02*
X49033333Y-103754819D01*
X49033333Y-103754819D02*
X48938095Y-103707200D01*
X48938095Y-103707200D02*
X48890476Y-103659580D01*
X81611905Y-57932319D02*
X81611905Y-56932319D01*
X82183333Y-57932319D02*
X81754762Y-57360890D01*
X82183333Y-56932319D02*
X81611905Y-57503747D01*
X82516667Y-56932319D02*
X83135714Y-56932319D01*
X83135714Y-56932319D02*
X82802381Y-57313271D01*
X82802381Y-57313271D02*
X82945238Y-57313271D01*
X82945238Y-57313271D02*
X83040476Y-57360890D01*
X83040476Y-57360890D02*
X83088095Y-57408509D01*
X83088095Y-57408509D02*
X83135714Y-57503747D01*
X83135714Y-57503747D02*
X83135714Y-57741842D01*
X83135714Y-57741842D02*
X83088095Y-57837080D01*
X83088095Y-57837080D02*
X83040476Y-57884700D01*
X83040476Y-57884700D02*
X82945238Y-57932319D01*
X82945238Y-57932319D02*
X82659524Y-57932319D01*
X82659524Y-57932319D02*
X82564286Y-57884700D01*
X82564286Y-57884700D02*
X82516667Y-57837080D01*
X88504819Y-91938094D02*
X87504819Y-91938094D01*
X87504819Y-91938094D02*
X87504819Y-91699999D01*
X87504819Y-91699999D02*
X87552438Y-91557142D01*
X87552438Y-91557142D02*
X87647676Y-91461904D01*
X87647676Y-91461904D02*
X87742914Y-91414285D01*
X87742914Y-91414285D02*
X87933390Y-91366666D01*
X87933390Y-91366666D02*
X88076247Y-91366666D01*
X88076247Y-91366666D02*
X88266723Y-91414285D01*
X88266723Y-91414285D02*
X88361961Y-91461904D01*
X88361961Y-91461904D02*
X88457200Y-91557142D01*
X88457200Y-91557142D02*
X88504819Y-91699999D01*
X88504819Y-91699999D02*
X88504819Y-91938094D01*
X87600057Y-90985713D02*
X87552438Y-90938094D01*
X87552438Y-90938094D02*
X87504819Y-90842856D01*
X87504819Y-90842856D02*
X87504819Y-90604761D01*
X87504819Y-90604761D02*
X87552438Y-90509523D01*
X87552438Y-90509523D02*
X87600057Y-90461904D01*
X87600057Y-90461904D02*
X87695295Y-90414285D01*
X87695295Y-90414285D02*
X87790533Y-90414285D01*
X87790533Y-90414285D02*
X87933390Y-90461904D01*
X87933390Y-90461904D02*
X88504819Y-91033332D01*
X88504819Y-91033332D02*
X88504819Y-90414285D01*
D13*
G04 #@! TO.C,K2*
X108750000Y-56327500D02*
X108750000Y-33627500D01*
X108750000Y-33627500D02*
X92050000Y-33627500D01*
X104900000Y-51477500D02*
X101750000Y-51477500D01*
X101400000Y-56587500D02*
X99400000Y-56587500D01*
X100750000Y-52077500D02*
X100750000Y-50877500D01*
X100750000Y-51277500D02*
X100050000Y-51677500D01*
X100750000Y-50877500D02*
X100050000Y-50877500D01*
X100050000Y-52077500D02*
X100750000Y-52077500D01*
X100050000Y-50877500D02*
X100050000Y-52077500D01*
X99050000Y-51477500D02*
X95900000Y-51477500D01*
X92050000Y-56327500D02*
X108750000Y-56327500D01*
X92050000Y-33627500D02*
X92050000Y-56327500D01*
G04 #@! TO.C,L1*
X80550000Y-85550000D02*
X80550000Y-72950000D01*
X83550000Y-85550000D02*
X80550000Y-85550000D01*
X93150000Y-85550000D02*
X90150000Y-85550000D01*
X80550000Y-72950000D02*
X83550000Y-72950000D01*
X90150000Y-72950000D02*
X93150000Y-72950000D01*
X93150000Y-72950000D02*
X93150000Y-85550000D01*
G04 #@! TO.C,F2*
X109336252Y-94110000D02*
X106563748Y-94110000D01*
X109336252Y-90690000D02*
X106563748Y-90690000D01*
G04 #@! TO.C,J4*
X119557500Y-83887500D02*
X119557500Y-85887500D01*
X118307500Y-83887500D02*
X119557500Y-83887500D01*
X119167500Y-84277500D02*
X111697500Y-84277500D01*
X111697500Y-84277500D02*
X111697500Y-94657500D01*
X118207500Y-85427500D02*
X118207500Y-88427500D01*
X116857500Y-85427500D02*
X116857500Y-86177500D01*
X112557500Y-85427500D02*
X116857500Y-85427500D01*
X117207500Y-85677500D02*
X118207500Y-85427500D01*
X117207500Y-86177500D02*
X117207500Y-85677500D01*
X116857500Y-86177500D02*
X117207500Y-86177500D01*
X112557500Y-86177500D02*
X112557500Y-85427500D01*
X117207500Y-87677500D02*
X116857500Y-87677500D01*
X116857500Y-87677500D02*
X116857500Y-88427500D01*
X117207500Y-88177500D02*
X117207500Y-87677500D01*
X118207500Y-88427500D02*
X117207500Y-88177500D01*
X116857500Y-88427500D02*
X112557500Y-88427500D01*
X112557500Y-88427500D02*
X112557500Y-87677500D01*
X118207500Y-90507500D02*
X118207500Y-93507500D01*
X116857500Y-90507500D02*
X116857500Y-91257500D01*
X112557500Y-90507500D02*
X116857500Y-90507500D01*
X117207500Y-90757500D02*
X118207500Y-90507500D01*
X117207500Y-91257500D02*
X117207500Y-90757500D01*
X116857500Y-91257500D02*
X117207500Y-91257500D01*
X112557500Y-91257500D02*
X112557500Y-90507500D01*
X117207500Y-92757500D02*
X116857500Y-92757500D01*
X116857500Y-92757500D02*
X116857500Y-93507500D01*
X117207500Y-93257500D02*
X117207500Y-92757500D01*
X118207500Y-93507500D02*
X117207500Y-93257500D01*
X116857500Y-93507500D02*
X112557500Y-93507500D01*
X112557500Y-93507500D02*
X112557500Y-92757500D01*
X119167500Y-94657500D02*
X119167500Y-84277500D01*
X111697500Y-94657500D02*
X119167500Y-94657500D01*
X112557655Y-87677147D02*
G75*
G03*
X112557500Y-86177500I-1700155J749647D01*
G01*
X112557655Y-92757147D02*
G75*
G03*
X112557500Y-91257500I-1700155J749647D01*
G01*
G04 #@! TO.C,D6*
X69110000Y-84200000D02*
X69110000Y-80900000D01*
X69110000Y-84200000D02*
X63600000Y-84200000D01*
X69110000Y-80900000D02*
X63600000Y-80900000D01*
G04 #@! TO.C,J3*
X119457500Y-45687500D02*
X119457500Y-47687500D01*
X118207500Y-45687500D02*
X119457500Y-45687500D01*
X119067500Y-46077500D02*
X111597500Y-46077500D01*
X111597500Y-46077500D02*
X111597500Y-56457500D01*
X118107500Y-47227500D02*
X118107500Y-50227500D01*
X116757500Y-47227500D02*
X116757500Y-47977500D01*
X112457500Y-47227500D02*
X116757500Y-47227500D01*
X117107500Y-47477500D02*
X118107500Y-47227500D01*
X117107500Y-47977500D02*
X117107500Y-47477500D01*
X116757500Y-47977500D02*
X117107500Y-47977500D01*
X112457500Y-47977500D02*
X112457500Y-47227500D01*
X117107500Y-49477500D02*
X116757500Y-49477500D01*
X116757500Y-49477500D02*
X116757500Y-50227500D01*
X117107500Y-49977500D02*
X117107500Y-49477500D01*
X118107500Y-50227500D02*
X117107500Y-49977500D01*
X116757500Y-50227500D02*
X112457500Y-50227500D01*
X112457500Y-50227500D02*
X112457500Y-49477500D01*
X118107500Y-52307500D02*
X118107500Y-55307500D01*
X116757500Y-52307500D02*
X116757500Y-53057500D01*
X112457500Y-52307500D02*
X116757500Y-52307500D01*
X117107500Y-52557500D02*
X118107500Y-52307500D01*
X117107500Y-53057500D02*
X117107500Y-52557500D01*
X116757500Y-53057500D02*
X117107500Y-53057500D01*
X112457500Y-53057500D02*
X112457500Y-52307500D01*
X117107500Y-54557500D02*
X116757500Y-54557500D01*
X116757500Y-54557500D02*
X116757500Y-55307500D01*
X117107500Y-55057500D02*
X117107500Y-54557500D01*
X118107500Y-55307500D02*
X117107500Y-55057500D01*
X116757500Y-55307500D02*
X112457500Y-55307500D01*
X112457500Y-55307500D02*
X112457500Y-54557500D01*
X119067500Y-56457500D02*
X119067500Y-46077500D01*
X111597500Y-56457500D02*
X119067500Y-56457500D01*
X112457655Y-49477147D02*
G75*
G03*
X112457500Y-47977500I-1700155J749647D01*
G01*
X112457655Y-54557147D02*
G75*
G03*
X112457500Y-53057500I-1700155J749647D01*
G01*
G04 #@! TO.C,D10*
X56900000Y-91890000D02*
X53600000Y-91890000D01*
X56900000Y-91890000D02*
X56900000Y-98900000D01*
X53600000Y-91890000D02*
X53600000Y-98900000D01*
G04 #@! TO.C,J2*
X47410000Y-53540000D02*
X47410000Y-54960000D01*
X35690000Y-53540000D02*
X47410000Y-53540000D01*
X47410000Y-54960000D02*
X42910000Y-54960000D01*
X45500000Y-55800000D02*
X45500000Y-56400000D01*
X41800000Y-55850000D02*
X36300000Y-55850000D01*
X36300000Y-55850000D02*
X36300000Y-56350000D01*
X44900000Y-56100000D02*
X45500000Y-55800000D01*
X41800000Y-56350000D02*
X41800000Y-55850000D01*
X36300000Y-56350000D02*
X41800000Y-56350000D01*
X45500000Y-56400000D02*
X44900000Y-56100000D01*
X35690000Y-57350000D02*
X35690000Y-53540000D01*
X35690000Y-57350000D02*
X35690000Y-61160000D01*
X41800000Y-58350000D02*
X36300000Y-58350000D01*
X36300000Y-58350000D02*
X36300000Y-58850000D01*
X41800000Y-58850000D02*
X41800000Y-58350000D01*
X36300000Y-58850000D02*
X41800000Y-58850000D01*
X47410000Y-59740000D02*
X42910000Y-59740000D01*
X47410000Y-61160000D02*
X47410000Y-59740000D01*
X35690000Y-61160000D02*
X47410000Y-61160000D01*
G04 #@! TO.C,F1*
X109361252Y-88710000D02*
X106588748Y-88710000D01*
X109361252Y-85290000D02*
X106588748Y-85290000D01*
D14*
G04 #@! TO.C,C2*
X82750000Y-60750000D02*
X82750000Y-63980000D01*
X82750000Y-66620000D02*
X82750000Y-69850000D01*
X82750000Y-69850000D02*
X84950000Y-72050000D01*
X84950000Y-58550000D02*
X82750000Y-60750000D01*
X84950000Y-72050000D02*
X96250000Y-72050000D01*
X96250000Y-58550000D02*
X84950000Y-58550000D01*
X96250000Y-63980000D02*
X96250000Y-58550000D01*
X96250000Y-72050000D02*
X96250000Y-66620000D01*
D15*
X81700000Y-63200000D02*
G75*
G03*
X81700000Y-63200000I-100000J0D01*
G01*
D13*
G04 #@! TO.C,J10*
X119550000Y-57510000D02*
X119550000Y-59510000D01*
X118300000Y-57510000D02*
X119550000Y-57510000D01*
X119160000Y-57900000D02*
X111690000Y-57900000D01*
X111690000Y-57900000D02*
X111690000Y-78440000D01*
X118200000Y-59050000D02*
X118200000Y-62050000D01*
X116850000Y-59050000D02*
X116850000Y-59800000D01*
X112550000Y-59050000D02*
X116850000Y-59050000D01*
X117200000Y-59300000D02*
X118200000Y-59050000D01*
X117200000Y-59800000D02*
X117200000Y-59300000D01*
X116850000Y-59800000D02*
X117200000Y-59800000D01*
X112550000Y-59800000D02*
X112550000Y-59050000D01*
X117200000Y-61300000D02*
X116850000Y-61300000D01*
X116850000Y-61300000D02*
X116850000Y-62050000D01*
X117200000Y-61800000D02*
X117200000Y-61300000D01*
X118200000Y-62050000D02*
X117200000Y-61800000D01*
X116850000Y-62050000D02*
X112550000Y-62050000D01*
X112550000Y-62050000D02*
X112550000Y-61300000D01*
X118200000Y-64130000D02*
X118200000Y-67130000D01*
X116850000Y-64130000D02*
X116850000Y-64880000D01*
X112550000Y-64130000D02*
X116850000Y-64130000D01*
X117200000Y-64380000D02*
X118200000Y-64130000D01*
X117200000Y-64880000D02*
X117200000Y-64380000D01*
X116850000Y-64880000D02*
X117200000Y-64880000D01*
X112550000Y-64880000D02*
X112550000Y-64130000D01*
X117200000Y-66380000D02*
X116850000Y-66380000D01*
X116850000Y-66380000D02*
X116850000Y-67130000D01*
X117200000Y-66880000D02*
X117200000Y-66380000D01*
X118200000Y-67130000D02*
X117200000Y-66880000D01*
X116850000Y-67130000D02*
X112550000Y-67130000D01*
X112550000Y-67130000D02*
X112550000Y-66380000D01*
X118200000Y-69210000D02*
X118200000Y-72210000D01*
X116850000Y-69210000D02*
X116850000Y-69960000D01*
X112550000Y-69210000D02*
X116850000Y-69210000D01*
X117200000Y-69460000D02*
X118200000Y-69210000D01*
X117200000Y-69960000D02*
X117200000Y-69460000D01*
X116850000Y-69960000D02*
X117200000Y-69960000D01*
X112550000Y-69960000D02*
X112550000Y-69210000D01*
X117200000Y-71460000D02*
X116850000Y-71460000D01*
X116850000Y-71460000D02*
X116850000Y-72210000D01*
X117200000Y-71960000D02*
X117200000Y-71460000D01*
X118200000Y-72210000D02*
X117200000Y-71960000D01*
X116850000Y-72210000D02*
X112550000Y-72210000D01*
X112550000Y-72210000D02*
X112550000Y-71460000D01*
X118200000Y-74290000D02*
X118200000Y-77290000D01*
X116850000Y-74290000D02*
X116850000Y-75040000D01*
X112550000Y-74290000D02*
X116850000Y-74290000D01*
X117200000Y-74540000D02*
X118200000Y-74290000D01*
X117200000Y-75040000D02*
X117200000Y-74540000D01*
X116850000Y-75040000D02*
X117200000Y-75040000D01*
X112550000Y-75040000D02*
X112550000Y-74290000D01*
X117200000Y-76540000D02*
X116850000Y-76540000D01*
X116850000Y-76540000D02*
X116850000Y-77290000D01*
X117200000Y-77040000D02*
X117200000Y-76540000D01*
X118200000Y-77290000D02*
X117200000Y-77040000D01*
X116850000Y-77290000D02*
X112550000Y-77290000D01*
X112550000Y-77290000D02*
X112550000Y-76540000D01*
X119160000Y-78440000D02*
X119160000Y-57900000D01*
X111690000Y-78440000D02*
X119160000Y-78440000D01*
X112550155Y-61299647D02*
G75*
G03*
X112550000Y-59800000I-1700155J749647D01*
G01*
X112550155Y-66379647D02*
G75*
G03*
X112550000Y-64880000I-1700155J749647D01*
G01*
X112550155Y-71459647D02*
G75*
G03*
X112550000Y-69960000I-1700155J749647D01*
G01*
X112550155Y-76539647D02*
G75*
G03*
X112550000Y-75040000I-1700155J749647D01*
G01*
G04 #@! TO.C,D5*
X69110000Y-95550000D02*
X69110000Y-92250000D01*
X69110000Y-95550000D02*
X63600000Y-95550000D01*
X69110000Y-92250000D02*
X63600000Y-92250000D01*
G04 #@! TO.C,Q2*
X69630000Y-79675000D02*
X69630000Y-84316000D01*
X69630000Y-79675000D02*
X79870000Y-79675000D01*
X69630000Y-81185000D02*
X79870000Y-81185000D01*
X69630000Y-84316000D02*
X79870000Y-84316000D01*
X72900000Y-79675000D02*
X72900000Y-81185000D01*
X76601000Y-79675000D02*
X76601000Y-81185000D01*
X79870000Y-79675000D02*
X79870000Y-84316000D01*
G04 #@! TO.C,U2*
X98325000Y-96850000D02*
X97375000Y-96850000D01*
X97375000Y-96850000D02*
X97375000Y-91725000D01*
X88875000Y-96850000D02*
X88875000Y-95750000D01*
X87925000Y-96850000D02*
X88875000Y-96850000D01*
X98325000Y-98350000D02*
X98325000Y-96850000D01*
X87925000Y-98350000D02*
X87925000Y-96850000D01*
G04 #@! TO.C,U3*
X44410000Y-71650000D02*
X44410000Y-71380000D01*
X44410000Y-71380000D02*
X47240000Y-71380000D01*
X44410000Y-65020000D02*
X45510000Y-65020000D01*
X44410000Y-64750000D02*
X44410000Y-65020000D01*
X37990000Y-71650000D02*
X44410000Y-71650000D01*
X37990000Y-64750000D02*
X44410000Y-64750000D01*
G04 #@! TO.C,K1*
X72100000Y-67427500D02*
X72100000Y-44727500D01*
X72100000Y-44727500D02*
X55400000Y-44727500D01*
X68250000Y-62577500D02*
X65100000Y-62577500D01*
X64750000Y-67687500D02*
X62750000Y-67687500D01*
X64100000Y-63177500D02*
X64100000Y-61977500D01*
X64100000Y-62377500D02*
X63400000Y-62777500D01*
X64100000Y-61977500D02*
X63400000Y-61977500D01*
X63400000Y-63177500D02*
X64100000Y-63177500D01*
X63400000Y-61977500D02*
X63400000Y-63177500D01*
X62400000Y-62577500D02*
X59250000Y-62577500D01*
X55400000Y-67427500D02*
X72100000Y-67427500D01*
X55400000Y-44727500D02*
X55400000Y-67427500D01*
G04 #@! TO.C,J5*
X69562500Y-36542500D02*
X67562500Y-36542500D01*
X69562500Y-35292500D02*
X69562500Y-36542500D01*
X69172500Y-36152500D02*
X69172500Y-28682500D01*
X69172500Y-28682500D02*
X58792500Y-28682500D01*
X68022500Y-35192500D02*
X65022500Y-35192500D01*
X68022500Y-33842500D02*
X67272500Y-33842500D01*
X68022500Y-29542500D02*
X68022500Y-33842500D01*
X67772500Y-34192500D02*
X68022500Y-35192500D01*
X67272500Y-34192500D02*
X67772500Y-34192500D01*
X67272500Y-33842500D02*
X67272500Y-34192500D01*
X67272500Y-29542500D02*
X68022500Y-29542500D01*
X65772500Y-34192500D02*
X65772500Y-33842500D01*
X65772500Y-33842500D02*
X65022500Y-33842500D01*
X65272500Y-34192500D02*
X65772500Y-34192500D01*
X65022500Y-35192500D02*
X65272500Y-34192500D01*
X65022500Y-33842500D02*
X65022500Y-29542500D01*
X65022500Y-29542500D02*
X65772500Y-29542500D01*
X62942500Y-35192500D02*
X59942500Y-35192500D01*
X62942500Y-33842500D02*
X62192500Y-33842500D01*
X62942500Y-29542500D02*
X62942500Y-33842500D01*
X62692500Y-34192500D02*
X62942500Y-35192500D01*
X62192500Y-34192500D02*
X62692500Y-34192500D01*
X62192500Y-33842500D02*
X62192500Y-34192500D01*
X62192500Y-29542500D02*
X62942500Y-29542500D01*
X60692500Y-34192500D02*
X60692500Y-33842500D01*
X60692500Y-33842500D02*
X59942500Y-33842500D01*
X60192500Y-34192500D02*
X60692500Y-34192500D01*
X59942500Y-35192500D02*
X60192500Y-34192500D01*
X59942500Y-33842500D02*
X59942500Y-29542500D01*
X59942500Y-29542500D02*
X60692500Y-29542500D01*
X58792500Y-36152500D02*
X69172500Y-36152500D01*
X58792500Y-28682500D02*
X58792500Y-36152500D01*
X65772853Y-29542655D02*
G75*
G03*
X67272500Y-29542500I749647J1700155D01*
G01*
X60692853Y-29542655D02*
G75*
G03*
X62192500Y-29542500I749647J1700155D01*
G01*
G04 #@! TO.C,Q1*
X61825000Y-90980000D02*
X57184000Y-90980000D01*
X61825000Y-90980000D02*
X61825000Y-101220000D01*
X60315000Y-90980000D02*
X60315000Y-101220000D01*
X57184000Y-90980000D02*
X57184000Y-101220000D01*
X61825000Y-94250000D02*
X60315000Y-94250000D01*
X61825000Y-97951000D02*
X60315000Y-97951000D01*
X61825000Y-101220000D02*
X57184000Y-101220000D01*
G04 #@! TO.C,C1*
X105550000Y-85010000D02*
X104550000Y-85010000D01*
X105050000Y-85510000D02*
X105050000Y-84510000D01*
X104310000Y-85795563D02*
X104310000Y-84010000D01*
X104310000Y-85795563D02*
X103245563Y-86860000D01*
X104310000Y-79204437D02*
X104310000Y-80990000D01*
X104310000Y-79204437D02*
X103245563Y-78140000D01*
X103245563Y-86860000D02*
X95590000Y-86860000D01*
X103245563Y-78140000D02*
X95590000Y-78140000D01*
X95590000Y-86860000D02*
X95590000Y-84010000D01*
X95590000Y-78140000D02*
X95590000Y-80990000D01*
G04 #@! TO.C,R4*
X75077064Y-79135000D02*
X74622936Y-79135000D01*
X75077064Y-77665000D02*
X74622936Y-77665000D01*
G04 #@! TO.C,D11*
X56800000Y-80290000D02*
X53500000Y-80290000D01*
X56800000Y-80290000D02*
X56800000Y-87300000D01*
X53500000Y-80290000D02*
X53500000Y-87300000D01*
G04 #@! TO.C,Q5*
X61825000Y-79880000D02*
X57184000Y-79880000D01*
X61825000Y-79880000D02*
X61825000Y-90120000D01*
X60315000Y-79880000D02*
X60315000Y-90120000D01*
X57184000Y-79880000D02*
X57184000Y-90120000D01*
X61825000Y-83150000D02*
X60315000Y-83150000D01*
X61825000Y-86851000D02*
X60315000Y-86851000D01*
X61825000Y-90120000D02*
X57184000Y-90120000D01*
G04 #@! TO.C,C3*
X47990000Y-69811252D02*
X47990000Y-68388748D01*
X49810000Y-69811252D02*
X49810000Y-68388748D01*
G04 #@! TO.C,Q3*
X69680000Y-91125000D02*
X69680000Y-95766000D01*
X69680000Y-91125000D02*
X79920000Y-91125000D01*
X69680000Y-92635000D02*
X79920000Y-92635000D01*
X69680000Y-95766000D02*
X79920000Y-95766000D01*
X72950000Y-91125000D02*
X72950000Y-92635000D01*
X76651000Y-91125000D02*
X76651000Y-92635000D01*
X79920000Y-91125000D02*
X79920000Y-95766000D01*
G04 #@! TO.C,J1*
X46589000Y-74202000D02*
X45339000Y-74202000D01*
X46299000Y-74492000D02*
X40329000Y-74492000D01*
X40329000Y-74492000D02*
X40329000Y-92112000D01*
X46289000Y-74502000D02*
X45539000Y-74502000D01*
X45539000Y-74502000D02*
X45539000Y-76302000D01*
X44039000Y-74502000D02*
X44039000Y-75252000D01*
X44039000Y-75252000D02*
X41089000Y-75252000D01*
X41089000Y-75252000D02*
X41089000Y-83302000D01*
X46589000Y-75452000D02*
X46589000Y-74202000D01*
X46289000Y-76302000D02*
X46289000Y-74502000D01*
X45539000Y-76302000D02*
X46289000Y-76302000D01*
X46289000Y-77802000D02*
X45539000Y-77802000D01*
X45539000Y-77802000D02*
X45539000Y-88802000D01*
X46289000Y-88802000D02*
X46289000Y-77802000D01*
X45539000Y-88802000D02*
X46289000Y-88802000D01*
X46289000Y-90302000D02*
X45539000Y-90302000D01*
X45539000Y-90302000D02*
X45539000Y-92102000D01*
X44039000Y-91352000D02*
X41089000Y-91352000D01*
X41089000Y-91352000D02*
X41089000Y-83302000D01*
X46289000Y-92102000D02*
X46289000Y-90302000D01*
X45539000Y-92102000D02*
X46289000Y-92102000D01*
X44039000Y-92102000D02*
X44039000Y-91352000D01*
X46299000Y-92112000D02*
X46299000Y-74492000D01*
X40329000Y-92112000D02*
X46299000Y-92112000D01*
G04 #@! TO.C,K3*
X90700000Y-56327500D02*
X90700000Y-33627500D01*
X90700000Y-33627500D02*
X74000000Y-33627500D01*
X86850000Y-51477500D02*
X83700000Y-51477500D01*
X83350000Y-56587500D02*
X81350000Y-56587500D01*
X82700000Y-52077500D02*
X82700000Y-50877500D01*
X82700000Y-51277500D02*
X82000000Y-51677500D01*
X82700000Y-50877500D02*
X82000000Y-50877500D01*
X82000000Y-52077500D02*
X82700000Y-52077500D01*
X82000000Y-50877500D02*
X82000000Y-52077500D01*
X81000000Y-51477500D02*
X77850000Y-51477500D01*
X74000000Y-56327500D02*
X90700000Y-56327500D01*
X74000000Y-33627500D02*
X74000000Y-56327500D01*
G04 #@! TO.C,D2*
X87200000Y-86240000D02*
X82900000Y-86240000D01*
X87200000Y-86240000D02*
X87200000Y-93900000D01*
X82900000Y-86240000D02*
X82900000Y-93900000D01*
G04 #@! TD*
M02*
