G04 #@! TF.GenerationSoftware,KiCad,Pcbnew,7.0.9*
G04 #@! TF.CreationDate,2024-02-20T19:06:26+05:30*
G04 #@! TF.ProjectId,Chg_Dschg Controller,4368675f-4473-4636-9867-20436f6e7472,rev?*
G04 #@! TF.SameCoordinates,Original*
G04 #@! TF.FileFunction,Soldermask,Bot*
G04 #@! TF.FilePolarity,Negative*
%FSLAX46Y46*%
G04 Gerber Fmt 4.6, Leading zero omitted, Abs format (unit mm)*
G04 Created by KiCad (PCBNEW 7.0.9) date 2024-02-20 19:06:26*
%MOMM*%
%LPD*%
G01*
G04 APERTURE LIST*
G04 Aperture macros list*
%AMRoundRect*
0 Rectangle with rounded corners*
0 $1 Rounding radius*
0 $2 $3 $4 $5 $6 $7 $8 $9 X,Y pos of 4 corners*
0 Add a 4 corners polygon primitive as box body*
4,1,4,$2,$3,$4,$5,$6,$7,$8,$9,$2,$3,0*
0 Add four circle primitives for the rounded corners*
1,1,$1+$1,$2,$3*
1,1,$1+$1,$4,$5*
1,1,$1+$1,$6,$7*
1,1,$1+$1,$8,$9*
0 Add four rect primitives between the rounded corners*
20,1,$1+$1,$2,$3,$4,$5,0*
20,1,$1+$1,$4,$5,$6,$7,0*
20,1,$1+$1,$6,$7,$8,$9,0*
20,1,$1+$1,$8,$9,$2,$3,0*%
G04 Aperture macros list end*
%ADD10C,3.200000*%
%ADD11R,2.500000X2.500000*%
%ADD12O,2.500000X2.500000*%
%ADD13RoundRect,0.250000X-1.550000X0.650000X-1.550000X-0.650000X1.550000X-0.650000X1.550000X0.650000X0*%
%ADD14O,3.600000X1.800000*%
%ADD15RoundRect,0.250000X-0.750000X0.600000X-0.750000X-0.600000X0.750000X-0.600000X0.750000X0.600000X0*%
%ADD16O,2.000000X1.700000*%
%ADD17R,1.905000X2.000000*%
%ADD18O,1.905000X2.000000*%
%ADD19RoundRect,0.250000X0.650000X1.550000X-0.650000X1.550000X-0.650000X-1.550000X0.650000X-1.550000X0*%
%ADD20O,1.800000X3.600000*%
%ADD21R,2.000000X1.905000*%
%ADD22O,2.000000X1.905000*%
%ADD23RoundRect,0.250000X-0.725000X0.600000X-0.725000X-0.600000X0.725000X-0.600000X0.725000X0.600000X0*%
%ADD24O,1.950000X1.700000*%
%ADD25RoundRect,0.250000X0.450000X-0.350000X0.450000X0.350000X-0.450000X0.350000X-0.450000X-0.350000X0*%
%ADD26RoundRect,0.250000X0.650000X-0.412500X0.650000X0.412500X-0.650000X0.412500X-0.650000X-0.412500X0*%
%ADD27RoundRect,0.250000X0.350000X0.450000X-0.350000X0.450000X-0.350000X-0.450000X0.350000X-0.450000X0*%
%ADD28R,1.700000X1.700000*%
%ADD29O,1.700000X1.700000*%
%ADD30RoundRect,0.250000X-1.000000X-0.650000X1.000000X-0.650000X1.000000X0.650000X-1.000000X0.650000X0*%
%ADD31RoundRect,0.250000X1.000000X0.650000X-1.000000X0.650000X-1.000000X-0.650000X1.000000X-0.650000X0*%
%ADD32RoundRect,0.250000X0.412500X0.650000X-0.412500X0.650000X-0.412500X-0.650000X0.412500X-0.650000X0*%
%ADD33RoundRect,0.137500X-0.137500X0.662500X-0.137500X-0.662500X0.137500X-0.662500X0.137500X0.662500X0*%
G04 APERTURE END LIST*
D10*
G04 #@! TO.C,H1*
X48563000Y-29150000D03*
G04 #@! TD*
D11*
G04 #@! TO.C,K2*
X100400000Y-53677500D03*
D12*
X106400000Y-51677500D03*
X106400000Y-39477500D03*
X94400000Y-39477500D03*
X94400000Y-51677500D03*
G04 #@! TD*
D13*
G04 #@! TO.C,J4*
X114707500Y-86927500D03*
D14*
X114707500Y-92007500D03*
G04 #@! TD*
D13*
G04 #@! TO.C,J3*
X114607500Y-48727500D03*
D14*
X114607500Y-53807500D03*
G04 #@! TD*
D10*
G04 #@! TO.C,H2*
X115366000Y-29150000D03*
G04 #@! TD*
G04 #@! TO.C,H4*
X115250000Y-107616600D03*
G04 #@! TD*
D15*
G04 #@! TO.C,J2*
X43400000Y-56100000D03*
D16*
X43400000Y-58600000D03*
G04 #@! TD*
D13*
G04 #@! TO.C,J10*
X114700000Y-60550000D03*
D14*
X114700000Y-65630000D03*
X114700000Y-70710000D03*
X114700000Y-75790000D03*
G04 #@! TD*
D17*
G04 #@! TO.C,Q2*
X72210000Y-82945000D03*
D18*
X74750000Y-82945000D03*
X77290000Y-82945000D03*
G04 #@! TD*
D11*
G04 #@! TO.C,K1*
X63750000Y-64777500D03*
D12*
X69750000Y-62777500D03*
X69750000Y-50577500D03*
X57750000Y-50577500D03*
X57750000Y-62777500D03*
G04 #@! TD*
D19*
G04 #@! TO.C,J5*
X66522500Y-31692500D03*
D20*
X61442500Y-31692500D03*
G04 #@! TD*
D21*
G04 #@! TO.C,Q1*
X58555000Y-93560000D03*
D22*
X58555000Y-96100000D03*
X58555000Y-98640000D03*
G04 #@! TD*
D21*
G04 #@! TO.C,Q5*
X58555000Y-82460000D03*
D22*
X58555000Y-85000000D03*
X58555000Y-87540000D03*
G04 #@! TD*
D17*
G04 #@! TO.C,Q3*
X72260000Y-94395000D03*
D18*
X74800000Y-94395000D03*
X77340000Y-94395000D03*
G04 #@! TD*
D23*
G04 #@! TO.C,J1*
X43839000Y-77052000D03*
D24*
X43839000Y-79552000D03*
X43839000Y-82052000D03*
X43839000Y-84552000D03*
X43839000Y-87052000D03*
X43839000Y-89552000D03*
G04 #@! TD*
D10*
G04 #@! TO.C,H3*
X48700000Y-107500000D03*
G04 #@! TD*
D11*
G04 #@! TO.C,K3*
X82350000Y-53677500D03*
D12*
X88350000Y-51677500D03*
X88350000Y-39477500D03*
X76350000Y-39477500D03*
X76350000Y-51677500D03*
G04 #@! TD*
D25*
G04 #@! TO.C,R7*
X60900000Y-96450000D03*
X60900000Y-94450000D03*
G04 #@! TD*
D26*
G04 #@! TO.C,C4*
X47200000Y-79862500D03*
X47200000Y-76737500D03*
G04 #@! TD*
D27*
G04 #@! TO.C,R5*
X76000000Y-96750000D03*
X74000000Y-96750000D03*
G04 #@! TD*
D25*
G04 #@! TO.C,R8*
X50500000Y-69050000D03*
X50500000Y-67050000D03*
G04 #@! TD*
D28*
G04 #@! TO.C,J6*
X61325000Y-47100000D03*
D29*
X63865000Y-47100000D03*
X66405000Y-47100000D03*
G04 #@! TD*
D30*
G04 #@! TO.C,D1*
X61900000Y-36435000D03*
X65900000Y-36435000D03*
G04 #@! TD*
D28*
G04 #@! TO.C,J7*
X61025000Y-54350000D03*
D29*
X63565000Y-54350000D03*
X66105000Y-54350000D03*
G04 #@! TD*
D28*
G04 #@! TO.C,J8*
X97825000Y-37350000D03*
D29*
X100365000Y-37350000D03*
X102905000Y-37350000D03*
G04 #@! TD*
D31*
G04 #@! TO.C,D4*
X93550000Y-55050000D03*
X89550000Y-55050000D03*
G04 #@! TD*
D25*
G04 #@! TO.C,R2*
X60800000Y-86450000D03*
X60800000Y-84450000D03*
G04 #@! TD*
D30*
G04 #@! TO.C,D3*
X61350000Y-60150000D03*
X65350000Y-60150000D03*
G04 #@! TD*
D32*
G04 #@! TO.C,C5*
X96762500Y-90300000D03*
X93637500Y-90300000D03*
G04 #@! TD*
D27*
G04 #@! TO.C,R3*
X50100000Y-84550000D03*
X48100000Y-84550000D03*
G04 #@! TD*
D33*
G04 #@! TO.C,U1*
X49880000Y-58350000D03*
X52420000Y-58350000D03*
X52420000Y-64850000D03*
X49880000Y-64850000D03*
G04 #@! TD*
D28*
G04 #@! TO.C,J9*
X79750000Y-36200000D03*
D29*
X82290000Y-36200000D03*
X84830000Y-36200000D03*
G04 #@! TD*
D27*
G04 #@! TO.C,R1*
X47900000Y-58350000D03*
X45900000Y-58350000D03*
G04 #@! TD*
M02*
