%TF.GenerationSoftware,KiCad,Pcbnew,7.0.9*%
%TF.CreationDate,2024-02-18T20:42:30+05:30*%
%TF.ProjectId,Chg_Dschg Controller,4368675f-4473-4636-9867-20436f6e7472,rev?*%
%TF.SameCoordinates,Original*%
%TF.FileFunction,Paste,Top*%
%TF.FilePolarity,Positive*%
%FSLAX46Y46*%
G04 Gerber Fmt 4.6, Leading zero omitted, Abs format (unit mm)*
G04 Created by KiCad (PCBNEW 7.0.9) date 2024-02-18 20:42:30*
%MOMM*%
%LPD*%
G01*
G04 APERTURE LIST*
G04 Aperture macros list*
%AMRoundRect*
0 Rectangle with rounded corners*
0 $1 Rounding radius*
0 $2 $3 $4 $5 $6 $7 $8 $9 X,Y pos of 4 corners*
0 Add a 4 corners polygon primitive as box body*
4,1,4,$2,$3,$4,$5,$6,$7,$8,$9,$2,$3,0*
0 Add four circle primitives for the rounded corners*
1,1,$1+$1,$2,$3*
1,1,$1+$1,$4,$5*
1,1,$1+$1,$6,$7*
1,1,$1+$1,$8,$9*
0 Add four rect primitives between the rounded corners*
20,1,$1+$1,$2,$3,$4,$5,0*
20,1,$1+$1,$4,$5,$6,$7,0*
20,1,$1+$1,$6,$7,$8,$9,0*
20,1,$1+$1,$8,$9,$2,$3,0*%
%AMOutline4P*
0 Free polygon, 4 corners , with rotation*
0 The origin of the aperture is its center*
0 number of corners: always 4*
0 $1 to $8 corner X, Y*
0 $9 Rotation angle, in degrees counterclockwise*
0 create outline with 4 corners*
4,1,4,$1,$2,$3,$4,$5,$6,$7,$8,$1,$2,$9*%
G04 Aperture macros list end*
%ADD10R,5.400000X2.900000*%
%ADD11RoundRect,0.250000X0.400000X1.450000X-0.400000X1.450000X-0.400000X-1.450000X0.400000X-1.450000X0*%
%ADD12RoundRect,0.250000X1.000000X0.650000X-1.000000X0.650000X-1.000000X-0.650000X1.000000X-0.650000X0*%
%ADD13RoundRect,0.250000X-0.650000X1.500000X-0.650000X-1.500000X0.650000X-1.500000X0.650000X1.500000X0*%
%ADD14R,5.700000X2.000000*%
%ADD15RoundRect,0.250000X-0.300000X2.050000X-0.300000X-2.050000X0.300000X-2.050000X0.300000X2.050000X0*%
%ADD16RoundRect,0.250000X-2.375000X2.025000X-2.375000X-2.025000X2.375000X-2.025000X2.375000X2.025000X0*%
%ADD17RoundRect,0.250000X0.850000X0.350000X-0.850000X0.350000X-0.850000X-0.350000X0.850000X-0.350000X0*%
%ADD18RoundRect,0.250000X1.275000X1.125000X-1.275000X1.125000X-1.275000X-1.125000X1.275000X-1.125000X0*%
%ADD19RoundRect,0.250000X1.950000X1.000000X-1.950000X1.000000X-1.950000X-1.000000X1.950000X-1.000000X0*%
%ADD20RoundRect,0.250000X0.350000X0.450000X-0.350000X0.450000X-0.350000X-0.450000X0.350000X-0.450000X0*%
%ADD21RoundRect,0.250000X0.650000X-0.412500X0.650000X0.412500X-0.650000X0.412500X-0.650000X-0.412500X0*%
%ADD22Outline4P,-1.800000X-1.150000X1.800000X-0.550000X1.800000X0.550000X-1.800000X1.150000X270.000000*%
%ADD23Outline4P,-1.800000X-1.150000X1.800000X-0.550000X1.800000X0.550000X-1.800000X1.150000X90.000000*%
G04 APERTURE END LIST*
D10*
%TO.C,L1*%
X86850000Y-84200000D03*
X86850000Y-74300000D03*
%TD*%
D11*
%TO.C,F2*%
X110175000Y-92400000D03*
X105725000Y-92400000D03*
%TD*%
D12*
%TO.C,D6*%
X67600000Y-82550000D03*
X63600000Y-82550000D03*
%TD*%
D13*
%TO.C,D10*%
X55250000Y-93900000D03*
X55250000Y-98900000D03*
%TD*%
D11*
%TO.C,F1*%
X110200000Y-87000000D03*
X105750000Y-87000000D03*
%TD*%
D14*
%TO.C,C2*%
X84650000Y-65300000D03*
X94350000Y-65300000D03*
%TD*%
D12*
%TO.C,D5*%
X67600000Y-93900000D03*
X63600000Y-93900000D03*
%TD*%
D15*
%TO.C,U2*%
X96525000Y-94025000D03*
X94825000Y-94025000D03*
X93125000Y-94025000D03*
D16*
X95900000Y-100750000D03*
X90350000Y-100750000D03*
X95900000Y-105600000D03*
X90350000Y-105600000D03*
D15*
X91425000Y-94025000D03*
X89725000Y-94025000D03*
%TD*%
D17*
%TO.C,U3*%
X46140000Y-70480000D03*
D18*
X41515000Y-69725000D03*
X41515000Y-66675000D03*
X38165000Y-69725000D03*
X38165000Y-66675000D03*
D17*
X46140000Y-65920000D03*
%TD*%
D19*
%TO.C,C1*%
X103650000Y-82500000D03*
X96250000Y-82500000D03*
%TD*%
D20*
%TO.C,R4*%
X75850000Y-78400000D03*
X73850000Y-78400000D03*
%TD*%
D13*
%TO.C,D11*%
X55150000Y-82300000D03*
X55150000Y-87300000D03*
%TD*%
D21*
%TO.C,C3*%
X48900000Y-70662500D03*
X48900000Y-67537500D03*
%TD*%
D22*
%TO.C,D2*%
X85050000Y-88300000D03*
D23*
X85050000Y-94100000D03*
%TD*%
M02*
