G04 #@! TF.GenerationSoftware,KiCad,Pcbnew,7.0.9*
G04 #@! TF.CreationDate,2024-04-02T14:08:39+05:30*
G04 #@! TF.ProjectId,Chg_Dschg Controller,4368675f-4473-4636-9867-20436f6e7472,rev?*
G04 #@! TF.SameCoordinates,Original*
G04 #@! TF.FileFunction,Legend,Top*
G04 #@! TF.FilePolarity,Positive*
%FSLAX45Y45*%
G04 Gerber Fmt 4.5, Leading zero omitted, Abs format (unit mm)*
G04 Created by KiCad (PCBNEW 7.0.9) date 2024-04-02 14:08:39*
%MOMM*%
%LPD*%
G01*
G04 APERTURE LIST*
%ADD10C,0.300000*%
%ADD11C,0.250000*%
%ADD12C,0.150000*%
%ADD13C,0.120000*%
%ADD14C,0.127000*%
%ADD15C,0.200000*%
G04 APERTURE END LIST*
D10*
X11250451Y-9631511D02*
X11271880Y-9638654D01*
X11271880Y-9638654D02*
X11279022Y-9645797D01*
X11279022Y-9645797D02*
X11286165Y-9660083D01*
X11286165Y-9660083D02*
X11286165Y-9681511D01*
X11286165Y-9681511D02*
X11279022Y-9695797D01*
X11279022Y-9695797D02*
X11271880Y-9702940D01*
X11271880Y-9702940D02*
X11257594Y-9710083D01*
X11257594Y-9710083D02*
X11200451Y-9710083D01*
X11200451Y-9710083D02*
X11200451Y-9560083D01*
X11200451Y-9560083D02*
X11250451Y-9560083D01*
X11250451Y-9560083D02*
X11264737Y-9567226D01*
X11264737Y-9567226D02*
X11271880Y-9574369D01*
X11271880Y-9574369D02*
X11279022Y-9588654D01*
X11279022Y-9588654D02*
X11279022Y-9602940D01*
X11279022Y-9602940D02*
X11271880Y-9617226D01*
X11271880Y-9617226D02*
X11264737Y-9624369D01*
X11264737Y-9624369D02*
X11250451Y-9631511D01*
X11250451Y-9631511D02*
X11200451Y-9631511D01*
X11343308Y-9667226D02*
X11414737Y-9667226D01*
X11329022Y-9710083D02*
X11379022Y-9560083D01*
X11379022Y-9560083D02*
X11429022Y-9710083D01*
X11457594Y-9560083D02*
X11543308Y-9560083D01*
X11500451Y-9710083D02*
X11500451Y-9560083D01*
X11571880Y-9560083D02*
X11657594Y-9560083D01*
X11614737Y-9710083D02*
X11614737Y-9560083D01*
X11707594Y-9652940D02*
X11821880Y-9652940D01*
X11764737Y-9710083D02*
X11764737Y-9595797D01*
D11*
X3659757Y-6220581D02*
X3693090Y-6220581D01*
X3707376Y-6272962D02*
X3659757Y-6272962D01*
X3659757Y-6272962D02*
X3659757Y-6172962D01*
X3659757Y-6172962D02*
X3707376Y-6172962D01*
X3764519Y-6272962D02*
X3754995Y-6268200D01*
X3754995Y-6268200D02*
X3750233Y-6258676D01*
X3750233Y-6258676D02*
X3750233Y-6172962D01*
X3840709Y-6268200D02*
X3831185Y-6272962D01*
X3831185Y-6272962D02*
X3812138Y-6272962D01*
X3812138Y-6272962D02*
X3802614Y-6268200D01*
X3802614Y-6268200D02*
X3797852Y-6258676D01*
X3797852Y-6258676D02*
X3797852Y-6220581D01*
X3797852Y-6220581D02*
X3802614Y-6211057D01*
X3802614Y-6211057D02*
X3812138Y-6206295D01*
X3812138Y-6206295D02*
X3831185Y-6206295D01*
X3831185Y-6206295D02*
X3840709Y-6211057D01*
X3840709Y-6211057D02*
X3845471Y-6220581D01*
X3845471Y-6220581D02*
X3845471Y-6230105D01*
X3845471Y-6230105D02*
X3797852Y-6239628D01*
X3931185Y-6268200D02*
X3921662Y-6272962D01*
X3921662Y-6272962D02*
X3902614Y-6272962D01*
X3902614Y-6272962D02*
X3893090Y-6268200D01*
X3893090Y-6268200D02*
X3888328Y-6263438D01*
X3888328Y-6263438D02*
X3883566Y-6253914D01*
X3883566Y-6253914D02*
X3883566Y-6225343D01*
X3883566Y-6225343D02*
X3888328Y-6215819D01*
X3888328Y-6215819D02*
X3893090Y-6211057D01*
X3893090Y-6211057D02*
X3902614Y-6206295D01*
X3902614Y-6206295D02*
X3921662Y-6206295D01*
X3921662Y-6206295D02*
X3931185Y-6211057D01*
X3959757Y-6206295D02*
X3997852Y-6206295D01*
X3974043Y-6172962D02*
X3974043Y-6258676D01*
X3974043Y-6258676D02*
X3978804Y-6268200D01*
X3978804Y-6268200D02*
X3988328Y-6272962D01*
X3988328Y-6272962D02*
X3997852Y-6272962D01*
X4031185Y-6272962D02*
X4031185Y-6206295D01*
X4031185Y-6225343D02*
X4035947Y-6215819D01*
X4035947Y-6215819D02*
X4040709Y-6211057D01*
X4040709Y-6211057D02*
X4050233Y-6206295D01*
X4050233Y-6206295D02*
X4059757Y-6206295D01*
X4107376Y-6272962D02*
X4097852Y-6268200D01*
X4097852Y-6268200D02*
X4093090Y-6263438D01*
X4093090Y-6263438D02*
X4088328Y-6253914D01*
X4088328Y-6253914D02*
X4088328Y-6225343D01*
X4088328Y-6225343D02*
X4093090Y-6215819D01*
X4093090Y-6215819D02*
X4097852Y-6211057D01*
X4097852Y-6211057D02*
X4107376Y-6206295D01*
X4107376Y-6206295D02*
X4121662Y-6206295D01*
X4121662Y-6206295D02*
X4131185Y-6211057D01*
X4131185Y-6211057D02*
X4135947Y-6215819D01*
X4135947Y-6215819D02*
X4140709Y-6225343D01*
X4140709Y-6225343D02*
X4140709Y-6253914D01*
X4140709Y-6253914D02*
X4135947Y-6263438D01*
X4135947Y-6263438D02*
X4131185Y-6268200D01*
X4131185Y-6268200D02*
X4121662Y-6272962D01*
X4121662Y-6272962D02*
X4107376Y-6272962D01*
X4183566Y-6206295D02*
X4183566Y-6272962D01*
X4183566Y-6215819D02*
X4188328Y-6211057D01*
X4188328Y-6211057D02*
X4197852Y-6206295D01*
X4197852Y-6206295D02*
X4212138Y-6206295D01*
X4212138Y-6206295D02*
X4221662Y-6211057D01*
X4221662Y-6211057D02*
X4226424Y-6220581D01*
X4226424Y-6220581D02*
X4226424Y-6272962D01*
X4274043Y-6272962D02*
X4274043Y-6206295D01*
X4274043Y-6172962D02*
X4269281Y-6177724D01*
X4269281Y-6177724D02*
X4274043Y-6182486D01*
X4274043Y-6182486D02*
X4278805Y-6177724D01*
X4278805Y-6177724D02*
X4274043Y-6172962D01*
X4274043Y-6172962D02*
X4274043Y-6182486D01*
X4364519Y-6268200D02*
X4354995Y-6272962D01*
X4354995Y-6272962D02*
X4335947Y-6272962D01*
X4335947Y-6272962D02*
X4326424Y-6268200D01*
X4326424Y-6268200D02*
X4321662Y-6263438D01*
X4321662Y-6263438D02*
X4316900Y-6253914D01*
X4316900Y-6253914D02*
X4316900Y-6225343D01*
X4316900Y-6225343D02*
X4321662Y-6215819D01*
X4321662Y-6215819D02*
X4326424Y-6211057D01*
X4326424Y-6211057D02*
X4335947Y-6206295D01*
X4335947Y-6206295D02*
X4354995Y-6206295D01*
X4354995Y-6206295D02*
X4364519Y-6211057D01*
X4402614Y-6268200D02*
X4412138Y-6272962D01*
X4412138Y-6272962D02*
X4431186Y-6272962D01*
X4431186Y-6272962D02*
X4440709Y-6268200D01*
X4440709Y-6268200D02*
X4445471Y-6258676D01*
X4445471Y-6258676D02*
X4445471Y-6253914D01*
X4445471Y-6253914D02*
X4440709Y-6244390D01*
X4440709Y-6244390D02*
X4431186Y-6239628D01*
X4431186Y-6239628D02*
X4416900Y-6239628D01*
X4416900Y-6239628D02*
X4407376Y-6234867D01*
X4407376Y-6234867D02*
X4402614Y-6225343D01*
X4402614Y-6225343D02*
X4402614Y-6220581D01*
X4402614Y-6220581D02*
X4407376Y-6211057D01*
X4407376Y-6211057D02*
X4416900Y-6206295D01*
X4416900Y-6206295D02*
X4431186Y-6206295D01*
X4431186Y-6206295D02*
X4440709Y-6211057D01*
X4488328Y-6234867D02*
X4564519Y-6234867D01*
X4526424Y-6272962D02*
X4526424Y-6196771D01*
D10*
X11240451Y-8231511D02*
X11261880Y-8238654D01*
X11261880Y-8238654D02*
X11269022Y-8245797D01*
X11269022Y-8245797D02*
X11276165Y-8260083D01*
X11276165Y-8260083D02*
X11276165Y-8281511D01*
X11276165Y-8281511D02*
X11269022Y-8295797D01*
X11269022Y-8295797D02*
X11261880Y-8302940D01*
X11261880Y-8302940D02*
X11247594Y-8310083D01*
X11247594Y-8310083D02*
X11190451Y-8310083D01*
X11190451Y-8310083D02*
X11190451Y-8160083D01*
X11190451Y-8160083D02*
X11240451Y-8160083D01*
X11240451Y-8160083D02*
X11254737Y-8167226D01*
X11254737Y-8167226D02*
X11261880Y-8174368D01*
X11261880Y-8174368D02*
X11269022Y-8188654D01*
X11269022Y-8188654D02*
X11269022Y-8202940D01*
X11269022Y-8202940D02*
X11261880Y-8217226D01*
X11261880Y-8217226D02*
X11254737Y-8224368D01*
X11254737Y-8224368D02*
X11240451Y-8231511D01*
X11240451Y-8231511D02*
X11190451Y-8231511D01*
X11333308Y-8267226D02*
X11404737Y-8267226D01*
X11319022Y-8310083D02*
X11369022Y-8160083D01*
X11369022Y-8160083D02*
X11419022Y-8310083D01*
X11447594Y-8160083D02*
X11533308Y-8160083D01*
X11490451Y-8310083D02*
X11490451Y-8160083D01*
X11561880Y-8160083D02*
X11647594Y-8160083D01*
X11604737Y-8310083D02*
X11604737Y-8160083D01*
X11697594Y-8252940D02*
X11811880Y-8252940D01*
D11*
X6129900Y-2707438D02*
X6125138Y-2712200D01*
X6125138Y-2712200D02*
X6110852Y-2716962D01*
X6110852Y-2716962D02*
X6101328Y-2716962D01*
X6101328Y-2716962D02*
X6087042Y-2712200D01*
X6087042Y-2712200D02*
X6077519Y-2702676D01*
X6077519Y-2702676D02*
X6072757Y-2693152D01*
X6072757Y-2693152D02*
X6067995Y-2674105D01*
X6067995Y-2674105D02*
X6067995Y-2659819D01*
X6067995Y-2659819D02*
X6072757Y-2640771D01*
X6072757Y-2640771D02*
X6077519Y-2631248D01*
X6077519Y-2631248D02*
X6087042Y-2621724D01*
X6087042Y-2621724D02*
X6101328Y-2616962D01*
X6101328Y-2616962D02*
X6110852Y-2616962D01*
X6110852Y-2616962D02*
X6125138Y-2621724D01*
X6125138Y-2621724D02*
X6129900Y-2626486D01*
X6187042Y-2716962D02*
X6177519Y-2712200D01*
X6177519Y-2712200D02*
X6172757Y-2707438D01*
X6172757Y-2707438D02*
X6167995Y-2697914D01*
X6167995Y-2697914D02*
X6167995Y-2669343D01*
X6167995Y-2669343D02*
X6172757Y-2659819D01*
X6172757Y-2659819D02*
X6177519Y-2655057D01*
X6177519Y-2655057D02*
X6187042Y-2650295D01*
X6187042Y-2650295D02*
X6201328Y-2650295D01*
X6201328Y-2650295D02*
X6210852Y-2655057D01*
X6210852Y-2655057D02*
X6215614Y-2659819D01*
X6215614Y-2659819D02*
X6220376Y-2669343D01*
X6220376Y-2669343D02*
X6220376Y-2697914D01*
X6220376Y-2697914D02*
X6215614Y-2707438D01*
X6215614Y-2707438D02*
X6210852Y-2712200D01*
X6210852Y-2712200D02*
X6201328Y-2716962D01*
X6201328Y-2716962D02*
X6187042Y-2716962D01*
X6263233Y-2650295D02*
X6263233Y-2716962D01*
X6263233Y-2659819D02*
X6267995Y-2655057D01*
X6267995Y-2655057D02*
X6277519Y-2650295D01*
X6277519Y-2650295D02*
X6291804Y-2650295D01*
X6291804Y-2650295D02*
X6301328Y-2655057D01*
X6301328Y-2655057D02*
X6306090Y-2664581D01*
X6306090Y-2664581D02*
X6306090Y-2716962D01*
X6339423Y-2650295D02*
X6377519Y-2650295D01*
X6353709Y-2616962D02*
X6353709Y-2702676D01*
X6353709Y-2702676D02*
X6358471Y-2712200D01*
X6358471Y-2712200D02*
X6367995Y-2716962D01*
X6367995Y-2716962D02*
X6377519Y-2716962D01*
X6453709Y-2716962D02*
X6453709Y-2664581D01*
X6453709Y-2664581D02*
X6448947Y-2655057D01*
X6448947Y-2655057D02*
X6439423Y-2650295D01*
X6439423Y-2650295D02*
X6420376Y-2650295D01*
X6420376Y-2650295D02*
X6410852Y-2655057D01*
X6453709Y-2712200D02*
X6444185Y-2716962D01*
X6444185Y-2716962D02*
X6420376Y-2716962D01*
X6420376Y-2716962D02*
X6410852Y-2712200D01*
X6410852Y-2712200D02*
X6406090Y-2702676D01*
X6406090Y-2702676D02*
X6406090Y-2693152D01*
X6406090Y-2693152D02*
X6410852Y-2683629D01*
X6410852Y-2683629D02*
X6420376Y-2678867D01*
X6420376Y-2678867D02*
X6444185Y-2678867D01*
X6444185Y-2678867D02*
X6453709Y-2674105D01*
X6544185Y-2712200D02*
X6534662Y-2716962D01*
X6534662Y-2716962D02*
X6515614Y-2716962D01*
X6515614Y-2716962D02*
X6506090Y-2712200D01*
X6506090Y-2712200D02*
X6501328Y-2707438D01*
X6501328Y-2707438D02*
X6496566Y-2697914D01*
X6496566Y-2697914D02*
X6496566Y-2669343D01*
X6496566Y-2669343D02*
X6501328Y-2659819D01*
X6501328Y-2659819D02*
X6506090Y-2655057D01*
X6506090Y-2655057D02*
X6515614Y-2650295D01*
X6515614Y-2650295D02*
X6534662Y-2650295D01*
X6534662Y-2650295D02*
X6544185Y-2655057D01*
X6572757Y-2650295D02*
X6610852Y-2650295D01*
X6587043Y-2616962D02*
X6587043Y-2702676D01*
X6587043Y-2702676D02*
X6591804Y-2712200D01*
X6591804Y-2712200D02*
X6601328Y-2716962D01*
X6601328Y-2716962D02*
X6610852Y-2716962D01*
X6658471Y-2716962D02*
X6648947Y-2712200D01*
X6648947Y-2712200D02*
X6644185Y-2707438D01*
X6644185Y-2707438D02*
X6639424Y-2697914D01*
X6639424Y-2697914D02*
X6639424Y-2669343D01*
X6639424Y-2669343D02*
X6644185Y-2659819D01*
X6644185Y-2659819D02*
X6648947Y-2655057D01*
X6648947Y-2655057D02*
X6658471Y-2650295D01*
X6658471Y-2650295D02*
X6672757Y-2650295D01*
X6672757Y-2650295D02*
X6682281Y-2655057D01*
X6682281Y-2655057D02*
X6687043Y-2659819D01*
X6687043Y-2659819D02*
X6691804Y-2669343D01*
X6691804Y-2669343D02*
X6691804Y-2697914D01*
X6691804Y-2697914D02*
X6687043Y-2707438D01*
X6687043Y-2707438D02*
X6682281Y-2712200D01*
X6682281Y-2712200D02*
X6672757Y-2716962D01*
X6672757Y-2716962D02*
X6658471Y-2716962D01*
X6734662Y-2716962D02*
X6734662Y-2650295D01*
X6734662Y-2669343D02*
X6739424Y-2659819D01*
X6739424Y-2659819D02*
X6744185Y-2655057D01*
X6744185Y-2655057D02*
X6753709Y-2650295D01*
X6753709Y-2650295D02*
X6763233Y-2650295D01*
X3786757Y-5204581D02*
X3820090Y-5204581D01*
X3834376Y-5256962D02*
X3786757Y-5256962D01*
X3786757Y-5256962D02*
X3786757Y-5156962D01*
X3786757Y-5156962D02*
X3834376Y-5156962D01*
X3891519Y-5256962D02*
X3881995Y-5252200D01*
X3881995Y-5252200D02*
X3877233Y-5242676D01*
X3877233Y-5242676D02*
X3877233Y-5156962D01*
X3967709Y-5252200D02*
X3958185Y-5256962D01*
X3958185Y-5256962D02*
X3939138Y-5256962D01*
X3939138Y-5256962D02*
X3929614Y-5252200D01*
X3929614Y-5252200D02*
X3924852Y-5242676D01*
X3924852Y-5242676D02*
X3924852Y-5204581D01*
X3924852Y-5204581D02*
X3929614Y-5195057D01*
X3929614Y-5195057D02*
X3939138Y-5190295D01*
X3939138Y-5190295D02*
X3958185Y-5190295D01*
X3958185Y-5190295D02*
X3967709Y-5195057D01*
X3967709Y-5195057D02*
X3972471Y-5204581D01*
X3972471Y-5204581D02*
X3972471Y-5214105D01*
X3972471Y-5214105D02*
X3924852Y-5223629D01*
X4058185Y-5252200D02*
X4048662Y-5256962D01*
X4048662Y-5256962D02*
X4029614Y-5256962D01*
X4029614Y-5256962D02*
X4020090Y-5252200D01*
X4020090Y-5252200D02*
X4015328Y-5247438D01*
X4015328Y-5247438D02*
X4010566Y-5237914D01*
X4010566Y-5237914D02*
X4010566Y-5209343D01*
X4010566Y-5209343D02*
X4015328Y-5199819D01*
X4015328Y-5199819D02*
X4020090Y-5195057D01*
X4020090Y-5195057D02*
X4029614Y-5190295D01*
X4029614Y-5190295D02*
X4048662Y-5190295D01*
X4048662Y-5190295D02*
X4058185Y-5195057D01*
X4086757Y-5190295D02*
X4124852Y-5190295D01*
X4101043Y-5156962D02*
X4101043Y-5242676D01*
X4101043Y-5242676D02*
X4105804Y-5252200D01*
X4105804Y-5252200D02*
X4115328Y-5256962D01*
X4115328Y-5256962D02*
X4124852Y-5256962D01*
X4158185Y-5256962D02*
X4158185Y-5190295D01*
X4158185Y-5209343D02*
X4162947Y-5199819D01*
X4162947Y-5199819D02*
X4167709Y-5195057D01*
X4167709Y-5195057D02*
X4177233Y-5190295D01*
X4177233Y-5190295D02*
X4186757Y-5190295D01*
X4234376Y-5256962D02*
X4224852Y-5252200D01*
X4224852Y-5252200D02*
X4220090Y-5247438D01*
X4220090Y-5247438D02*
X4215328Y-5237914D01*
X4215328Y-5237914D02*
X4215328Y-5209343D01*
X4215328Y-5209343D02*
X4220090Y-5199819D01*
X4220090Y-5199819D02*
X4224852Y-5195057D01*
X4224852Y-5195057D02*
X4234376Y-5190295D01*
X4234376Y-5190295D02*
X4248662Y-5190295D01*
X4248662Y-5190295D02*
X4258186Y-5195057D01*
X4258186Y-5195057D02*
X4262947Y-5199819D01*
X4262947Y-5199819D02*
X4267709Y-5209343D01*
X4267709Y-5209343D02*
X4267709Y-5237914D01*
X4267709Y-5237914D02*
X4262947Y-5247438D01*
X4262947Y-5247438D02*
X4258186Y-5252200D01*
X4258186Y-5252200D02*
X4248662Y-5256962D01*
X4248662Y-5256962D02*
X4234376Y-5256962D01*
X4310567Y-5190295D02*
X4310567Y-5256962D01*
X4310567Y-5199819D02*
X4315328Y-5195057D01*
X4315328Y-5195057D02*
X4324852Y-5190295D01*
X4324852Y-5190295D02*
X4339138Y-5190295D01*
X4339138Y-5190295D02*
X4348662Y-5195057D01*
X4348662Y-5195057D02*
X4353424Y-5204581D01*
X4353424Y-5204581D02*
X4353424Y-5256962D01*
X4401043Y-5256962D02*
X4401043Y-5190295D01*
X4401043Y-5156962D02*
X4396281Y-5161724D01*
X4396281Y-5161724D02*
X4401043Y-5166486D01*
X4401043Y-5166486D02*
X4405805Y-5161724D01*
X4405805Y-5161724D02*
X4401043Y-5156962D01*
X4401043Y-5156962D02*
X4401043Y-5166486D01*
X4491519Y-5252200D02*
X4481995Y-5256962D01*
X4481995Y-5256962D02*
X4462947Y-5256962D01*
X4462947Y-5256962D02*
X4453424Y-5252200D01*
X4453424Y-5252200D02*
X4448662Y-5247438D01*
X4448662Y-5247438D02*
X4443900Y-5237914D01*
X4443900Y-5237914D02*
X4443900Y-5209343D01*
X4443900Y-5209343D02*
X4448662Y-5199819D01*
X4448662Y-5199819D02*
X4453424Y-5195057D01*
X4453424Y-5195057D02*
X4462947Y-5190295D01*
X4462947Y-5190295D02*
X4481995Y-5190295D01*
X4481995Y-5190295D02*
X4491519Y-5195057D01*
X4529614Y-5252200D02*
X4539138Y-5256962D01*
X4539138Y-5256962D02*
X4558186Y-5256962D01*
X4558186Y-5256962D02*
X4567709Y-5252200D01*
X4567709Y-5252200D02*
X4572471Y-5242676D01*
X4572471Y-5242676D02*
X4572471Y-5237914D01*
X4572471Y-5237914D02*
X4567709Y-5228390D01*
X4567709Y-5228390D02*
X4558186Y-5223629D01*
X4558186Y-5223629D02*
X4543900Y-5223629D01*
X4543900Y-5223629D02*
X4534376Y-5218867D01*
X4534376Y-5218867D02*
X4529614Y-5209343D01*
X4529614Y-5209343D02*
X4529614Y-5204581D01*
X4529614Y-5204581D02*
X4534376Y-5195057D01*
X4534376Y-5195057D02*
X4543900Y-5190295D01*
X4543900Y-5190295D02*
X4558186Y-5190295D01*
X4558186Y-5190295D02*
X4567709Y-5195057D01*
X4615328Y-5218867D02*
X4691519Y-5218867D01*
D12*
X9978333Y-8815958D02*
X9973571Y-8820720D01*
X9973571Y-8820720D02*
X9959286Y-8825482D01*
X9959286Y-8825482D02*
X9949762Y-8825482D01*
X9949762Y-8825482D02*
X9935476Y-8820720D01*
X9935476Y-8820720D02*
X9925952Y-8811196D01*
X9925952Y-8811196D02*
X9921191Y-8801672D01*
X9921191Y-8801672D02*
X9916429Y-8782625D01*
X9916429Y-8782625D02*
X9916429Y-8768339D01*
X9916429Y-8768339D02*
X9921191Y-8749291D01*
X9921191Y-8749291D02*
X9925952Y-8739768D01*
X9925952Y-8739768D02*
X9935476Y-8730244D01*
X9935476Y-8730244D02*
X9949762Y-8725482D01*
X9949762Y-8725482D02*
X9959286Y-8725482D01*
X9959286Y-8725482D02*
X9973571Y-8730244D01*
X9973571Y-8730244D02*
X9978333Y-8735006D01*
X10073571Y-8825482D02*
X10016429Y-8825482D01*
X10045000Y-8825482D02*
X10045000Y-8725482D01*
X10045000Y-8725482D02*
X10035476Y-8739768D01*
X10035476Y-8739768D02*
X10025952Y-8749291D01*
X10025952Y-8749291D02*
X10016429Y-8754053D01*
X7080476Y-7935006D02*
X7070952Y-7930244D01*
X7070952Y-7930244D02*
X7061428Y-7920720D01*
X7061428Y-7920720D02*
X7047143Y-7906434D01*
X7047143Y-7906434D02*
X7037619Y-7901672D01*
X7037619Y-7901672D02*
X7028095Y-7901672D01*
X7032857Y-7925482D02*
X7023333Y-7920720D01*
X7023333Y-7920720D02*
X7013809Y-7911196D01*
X7013809Y-7911196D02*
X7009048Y-7892148D01*
X7009048Y-7892148D02*
X7009048Y-7858815D01*
X7009048Y-7858815D02*
X7013809Y-7839768D01*
X7013809Y-7839768D02*
X7023333Y-7830244D01*
X7023333Y-7830244D02*
X7032857Y-7825482D01*
X7032857Y-7825482D02*
X7051905Y-7825482D01*
X7051905Y-7825482D02*
X7061428Y-7830244D01*
X7061428Y-7830244D02*
X7070952Y-7839768D01*
X7070952Y-7839768D02*
X7075714Y-7858815D01*
X7075714Y-7858815D02*
X7075714Y-7892148D01*
X7075714Y-7892148D02*
X7070952Y-7911196D01*
X7070952Y-7911196D02*
X7061428Y-7920720D01*
X7061428Y-7920720D02*
X7051905Y-7925482D01*
X7051905Y-7925482D02*
X7032857Y-7925482D01*
X7113809Y-7835006D02*
X7118571Y-7830244D01*
X7118571Y-7830244D02*
X7128095Y-7825482D01*
X7128095Y-7825482D02*
X7151905Y-7825482D01*
X7151905Y-7825482D02*
X7161428Y-7830244D01*
X7161428Y-7830244D02*
X7166190Y-7835006D01*
X7166190Y-7835006D02*
X7170952Y-7844529D01*
X7170952Y-7844529D02*
X7170952Y-7854053D01*
X7170952Y-7854053D02*
X7166190Y-7868339D01*
X7166190Y-7868339D02*
X7109048Y-7925482D01*
X7109048Y-7925482D02*
X7170952Y-7925482D01*
X7040476Y-9075006D02*
X7030952Y-9070244D01*
X7030952Y-9070244D02*
X7021428Y-9060720D01*
X7021428Y-9060720D02*
X7007143Y-9046434D01*
X7007143Y-9046434D02*
X6997619Y-9041672D01*
X6997619Y-9041672D02*
X6988095Y-9041672D01*
X6992857Y-9065482D02*
X6983333Y-9060720D01*
X6983333Y-9060720D02*
X6973809Y-9051196D01*
X6973809Y-9051196D02*
X6969048Y-9032149D01*
X6969048Y-9032149D02*
X6969048Y-8998815D01*
X6969048Y-8998815D02*
X6973809Y-8979768D01*
X6973809Y-8979768D02*
X6983333Y-8970244D01*
X6983333Y-8970244D02*
X6992857Y-8965482D01*
X6992857Y-8965482D02*
X7011905Y-8965482D01*
X7011905Y-8965482D02*
X7021428Y-8970244D01*
X7021428Y-8970244D02*
X7030952Y-8979768D01*
X7030952Y-8979768D02*
X7035714Y-8998815D01*
X7035714Y-8998815D02*
X7035714Y-9032149D01*
X7035714Y-9032149D02*
X7030952Y-9051196D01*
X7030952Y-9051196D02*
X7021428Y-9060720D01*
X7021428Y-9060720D02*
X7011905Y-9065482D01*
X7011905Y-9065482D02*
X6992857Y-9065482D01*
X7069048Y-8965482D02*
X7130952Y-8965482D01*
X7130952Y-8965482D02*
X7097619Y-9003577D01*
X7097619Y-9003577D02*
X7111905Y-9003577D01*
X7111905Y-9003577D02*
X7121428Y-9008339D01*
X7121428Y-9008339D02*
X7126190Y-9013101D01*
X7126190Y-9013101D02*
X7130952Y-9022625D01*
X7130952Y-9022625D02*
X7130952Y-9046434D01*
X7130952Y-9046434D02*
X7126190Y-9055958D01*
X7126190Y-9055958D02*
X7121428Y-9060720D01*
X7121428Y-9060720D02*
X7111905Y-9065482D01*
X7111905Y-9065482D02*
X7083333Y-9065482D01*
X7083333Y-9065482D02*
X7073809Y-9060720D01*
X7073809Y-9060720D02*
X7069048Y-9055958D01*
X6337506Y-9619524D02*
X6332744Y-9629048D01*
X6332744Y-9629048D02*
X6323220Y-9638571D01*
X6323220Y-9638571D02*
X6308934Y-9652857D01*
X6308934Y-9652857D02*
X6304172Y-9662381D01*
X6304172Y-9662381D02*
X6304172Y-9671905D01*
X6327982Y-9667143D02*
X6323220Y-9676667D01*
X6323220Y-9676667D02*
X6313696Y-9686190D01*
X6313696Y-9686190D02*
X6294648Y-9690952D01*
X6294648Y-9690952D02*
X6261315Y-9690952D01*
X6261315Y-9690952D02*
X6242268Y-9686190D01*
X6242268Y-9686190D02*
X6232744Y-9676667D01*
X6232744Y-9676667D02*
X6227982Y-9667143D01*
X6227982Y-9667143D02*
X6227982Y-9648095D01*
X6227982Y-9648095D02*
X6232744Y-9638571D01*
X6232744Y-9638571D02*
X6242268Y-9629048D01*
X6242268Y-9629048D02*
X6261315Y-9624286D01*
X6261315Y-9624286D02*
X6294648Y-9624286D01*
X6294648Y-9624286D02*
X6313696Y-9629048D01*
X6313696Y-9629048D02*
X6323220Y-9638571D01*
X6323220Y-9638571D02*
X6327982Y-9648095D01*
X6327982Y-9648095D02*
X6327982Y-9667143D01*
X6327982Y-9529048D02*
X6327982Y-9586190D01*
X6327982Y-9557619D02*
X6227982Y-9557619D01*
X6227982Y-9557619D02*
X6242268Y-9567143D01*
X6242268Y-9567143D02*
X6251791Y-9576667D01*
X6251791Y-9576667D02*
X6256553Y-9586190D01*
X6337506Y-8509524D02*
X6332744Y-8519048D01*
X6332744Y-8519048D02*
X6323220Y-8528571D01*
X6323220Y-8528571D02*
X6308934Y-8542857D01*
X6308934Y-8542857D02*
X6304172Y-8552381D01*
X6304172Y-8552381D02*
X6304172Y-8561905D01*
X6327982Y-8557143D02*
X6323220Y-8566667D01*
X6323220Y-8566667D02*
X6313696Y-8576190D01*
X6313696Y-8576190D02*
X6294648Y-8580952D01*
X6294648Y-8580952D02*
X6261315Y-8580952D01*
X6261315Y-8580952D02*
X6242268Y-8576190D01*
X6242268Y-8576190D02*
X6232744Y-8566667D01*
X6232744Y-8566667D02*
X6227982Y-8557143D01*
X6227982Y-8557143D02*
X6227982Y-8538095D01*
X6227982Y-8538095D02*
X6232744Y-8528571D01*
X6232744Y-8528571D02*
X6242268Y-8519048D01*
X6242268Y-8519048D02*
X6261315Y-8514286D01*
X6261315Y-8514286D02*
X6294648Y-8514286D01*
X6294648Y-8514286D02*
X6313696Y-8519048D01*
X6313696Y-8519048D02*
X6323220Y-8528571D01*
X6323220Y-8528571D02*
X6327982Y-8538095D01*
X6327982Y-8538095D02*
X6327982Y-8557143D01*
X6227982Y-8423810D02*
X6227982Y-8471429D01*
X6227982Y-8471429D02*
X6275601Y-8476190D01*
X6275601Y-8476190D02*
X6270839Y-8471429D01*
X6270839Y-8471429D02*
X6266077Y-8461905D01*
X6266077Y-8461905D02*
X6266077Y-8438095D01*
X6266077Y-8438095D02*
X6270839Y-8428571D01*
X6270839Y-8428571D02*
X6275601Y-8423810D01*
X6275601Y-8423810D02*
X6285125Y-8419048D01*
X6285125Y-8419048D02*
X6308934Y-8419048D01*
X6308934Y-8419048D02*
X6318458Y-8423810D01*
X6318458Y-8423810D02*
X6323220Y-8428571D01*
X6323220Y-8428571D02*
X6327982Y-8438095D01*
X6327982Y-8438095D02*
X6327982Y-8461905D01*
X6327982Y-8461905D02*
X6323220Y-8471429D01*
X6323220Y-8471429D02*
X6318458Y-8476190D01*
X4780110Y-2540482D02*
X4780110Y-2440482D01*
X4780110Y-2488101D02*
X4837252Y-2488101D01*
X4837252Y-2540482D02*
X4837252Y-2440482D01*
X4937252Y-2540482D02*
X4880110Y-2540482D01*
X4908681Y-2540482D02*
X4908681Y-2440482D01*
X4908681Y-2440482D02*
X4899157Y-2454768D01*
X4899157Y-2454768D02*
X4889633Y-2464291D01*
X4889633Y-2464291D02*
X4880110Y-2469053D01*
X9966191Y-5793232D02*
X9966191Y-5693232D01*
X10023333Y-5793232D02*
X9980476Y-5736089D01*
X10023333Y-5693232D02*
X9966191Y-5750375D01*
X10061429Y-5702756D02*
X10066191Y-5697994D01*
X10066191Y-5697994D02*
X10075714Y-5693232D01*
X10075714Y-5693232D02*
X10099524Y-5693232D01*
X10099524Y-5693232D02*
X10109048Y-5697994D01*
X10109048Y-5697994D02*
X10113810Y-5702756D01*
X10113810Y-5702756D02*
X10118571Y-5712279D01*
X10118571Y-5712279D02*
X10118571Y-5721803D01*
X10118571Y-5721803D02*
X10113810Y-5736089D01*
X10113810Y-5736089D02*
X10056667Y-5793232D01*
X10056667Y-5793232D02*
X10118571Y-5793232D01*
X7933333Y-7335482D02*
X7885714Y-7335482D01*
X7885714Y-7335482D02*
X7885714Y-7235482D01*
X8019048Y-7335482D02*
X7961905Y-7335482D01*
X7990476Y-7335482D02*
X7990476Y-7235482D01*
X7990476Y-7235482D02*
X7980952Y-7249768D01*
X7980952Y-7249768D02*
X7971429Y-7259291D01*
X7971429Y-7259291D02*
X7961905Y-7264053D01*
X10761667Y-9498101D02*
X10728333Y-9498101D01*
X10728333Y-9550482D02*
X10728333Y-9450482D01*
X10728333Y-9450482D02*
X10775952Y-9450482D01*
X10809286Y-9460006D02*
X10814048Y-9455244D01*
X10814048Y-9455244D02*
X10823571Y-9450482D01*
X10823571Y-9450482D02*
X10847381Y-9450482D01*
X10847381Y-9450482D02*
X10856905Y-9455244D01*
X10856905Y-9455244D02*
X10861667Y-9460006D01*
X10861667Y-9460006D02*
X10866429Y-9469530D01*
X10866429Y-9469530D02*
X10866429Y-9479053D01*
X10866429Y-9479053D02*
X10861667Y-9493339D01*
X10861667Y-9493339D02*
X10804524Y-9550482D01*
X10804524Y-9550482D02*
X10866429Y-9550482D01*
X6486190Y-8550482D02*
X6486190Y-8450482D01*
X6486190Y-8450482D02*
X6510000Y-8450482D01*
X6510000Y-8450482D02*
X6524286Y-8455244D01*
X6524286Y-8455244D02*
X6533809Y-8464768D01*
X6533809Y-8464768D02*
X6538571Y-8474291D01*
X6538571Y-8474291D02*
X6543333Y-8493339D01*
X6543333Y-8493339D02*
X6543333Y-8507625D01*
X6543333Y-8507625D02*
X6538571Y-8526672D01*
X6538571Y-8526672D02*
X6533809Y-8536196D01*
X6533809Y-8536196D02*
X6524286Y-8545720D01*
X6524286Y-8545720D02*
X6510000Y-8550482D01*
X6510000Y-8550482D02*
X6486190Y-8550482D01*
X6629048Y-8450482D02*
X6610000Y-8450482D01*
X6610000Y-8450482D02*
X6600476Y-8455244D01*
X6600476Y-8455244D02*
X6595714Y-8460006D01*
X6595714Y-8460006D02*
X6586190Y-8474291D01*
X6586190Y-8474291D02*
X6581429Y-8493339D01*
X6581429Y-8493339D02*
X6581429Y-8531434D01*
X6581429Y-8531434D02*
X6586190Y-8540958D01*
X6586190Y-8540958D02*
X6590952Y-8545720D01*
X6590952Y-8545720D02*
X6600476Y-8550482D01*
X6600476Y-8550482D02*
X6619524Y-8550482D01*
X6619524Y-8550482D02*
X6629048Y-8545720D01*
X6629048Y-8545720D02*
X6633809Y-8540958D01*
X6633809Y-8540958D02*
X6638571Y-8531434D01*
X6638571Y-8531434D02*
X6638571Y-8507625D01*
X6638571Y-8507625D02*
X6633809Y-8498101D01*
X6633809Y-8498101D02*
X6629048Y-8493339D01*
X6629048Y-8493339D02*
X6619524Y-8488577D01*
X6619524Y-8488577D02*
X6600476Y-8488577D01*
X6600476Y-8488577D02*
X6590952Y-8493339D01*
X6590952Y-8493339D02*
X6586190Y-8498101D01*
X6586190Y-8498101D02*
X6581429Y-8507625D01*
X11460409Y-2540482D02*
X11460409Y-2440482D01*
X11460409Y-2488101D02*
X11517552Y-2488101D01*
X11517552Y-2540482D02*
X11517552Y-2440482D01*
X11560409Y-2450006D02*
X11565171Y-2445244D01*
X11565171Y-2445244D02*
X11574695Y-2440482D01*
X11574695Y-2440482D02*
X11598505Y-2440482D01*
X11598505Y-2440482D02*
X11608028Y-2445244D01*
X11608028Y-2445244D02*
X11612790Y-2450006D01*
X11612790Y-2450006D02*
X11617552Y-2459530D01*
X11617552Y-2459530D02*
X11617552Y-2469053D01*
X11617552Y-2469053D02*
X11612790Y-2483339D01*
X11612790Y-2483339D02*
X11555648Y-2540482D01*
X11555648Y-2540482D02*
X11617552Y-2540482D01*
X11448809Y-10387142D02*
X11448809Y-10287142D01*
X11448809Y-10334761D02*
X11505952Y-10334761D01*
X11505952Y-10387142D02*
X11505952Y-10287142D01*
X11596428Y-10320475D02*
X11596428Y-10387142D01*
X11572619Y-10282380D02*
X11548809Y-10353809D01*
X11548809Y-10353809D02*
X11610714Y-10353809D01*
X5325482Y-9781429D02*
X5225482Y-9781429D01*
X5225482Y-9781429D02*
X5225482Y-9757619D01*
X5225482Y-9757619D02*
X5230244Y-9743333D01*
X5230244Y-9743333D02*
X5239768Y-9733810D01*
X5239768Y-9733810D02*
X5249291Y-9729048D01*
X5249291Y-9729048D02*
X5268339Y-9724286D01*
X5268339Y-9724286D02*
X5282625Y-9724286D01*
X5282625Y-9724286D02*
X5301672Y-9729048D01*
X5301672Y-9729048D02*
X5311196Y-9733810D01*
X5311196Y-9733810D02*
X5320720Y-9743333D01*
X5320720Y-9743333D02*
X5325482Y-9757619D01*
X5325482Y-9757619D02*
X5325482Y-9781429D01*
X5325482Y-9629048D02*
X5325482Y-9686190D01*
X5325482Y-9657619D02*
X5225482Y-9657619D01*
X5225482Y-9657619D02*
X5239768Y-9667143D01*
X5239768Y-9667143D02*
X5249291Y-9676667D01*
X5249291Y-9676667D02*
X5254053Y-9686190D01*
X5225482Y-9567143D02*
X5225482Y-9557619D01*
X5225482Y-9557619D02*
X5230244Y-9548095D01*
X5230244Y-9548095D02*
X5235006Y-9543333D01*
X5235006Y-9543333D02*
X5244530Y-9538571D01*
X5244530Y-9538571D02*
X5263577Y-9533810D01*
X5263577Y-9533810D02*
X5287387Y-9533810D01*
X5287387Y-9533810D02*
X5306434Y-9538571D01*
X5306434Y-9538571D02*
X5315958Y-9543333D01*
X5315958Y-9543333D02*
X5320720Y-9548095D01*
X5320720Y-9548095D02*
X5325482Y-9557619D01*
X5325482Y-9557619D02*
X5325482Y-9567143D01*
X5325482Y-9567143D02*
X5320720Y-9576667D01*
X5320720Y-9576667D02*
X5315958Y-9581429D01*
X5315958Y-9581429D02*
X5306434Y-9586190D01*
X5306434Y-9586190D02*
X5287387Y-9590952D01*
X5287387Y-9590952D02*
X5263577Y-9590952D01*
X5263577Y-9590952D02*
X5244530Y-9586190D01*
X5244530Y-9586190D02*
X5235006Y-9581429D01*
X5235006Y-9581429D02*
X5230244Y-9576667D01*
X5230244Y-9576667D02*
X5225482Y-9567143D01*
X4795482Y-5768333D02*
X4866910Y-5768333D01*
X4866910Y-5768333D02*
X4881196Y-5773095D01*
X4881196Y-5773095D02*
X4890720Y-5782619D01*
X4890720Y-5782619D02*
X4895482Y-5796905D01*
X4895482Y-5796905D02*
X4895482Y-5806428D01*
X4805006Y-5725476D02*
X4800244Y-5720714D01*
X4800244Y-5720714D02*
X4795482Y-5711190D01*
X4795482Y-5711190D02*
X4795482Y-5687381D01*
X4795482Y-5687381D02*
X4800244Y-5677857D01*
X4800244Y-5677857D02*
X4805006Y-5673095D01*
X4805006Y-5673095D02*
X4814530Y-5668333D01*
X4814530Y-5668333D02*
X4824053Y-5668333D01*
X4824053Y-5668333D02*
X4838339Y-5673095D01*
X4838339Y-5673095D02*
X4895482Y-5730238D01*
X4895482Y-5730238D02*
X4895482Y-5668333D01*
X10764167Y-8958101D02*
X10730833Y-8958101D01*
X10730833Y-9010482D02*
X10730833Y-8910482D01*
X10730833Y-8910482D02*
X10778452Y-8910482D01*
X10868929Y-9010482D02*
X10811786Y-9010482D01*
X10840357Y-9010482D02*
X10840357Y-8910482D01*
X10840357Y-8910482D02*
X10830833Y-8924768D01*
X10830833Y-8924768D02*
X10821310Y-8934291D01*
X10821310Y-8934291D02*
X10811786Y-8939053D01*
X8775833Y-5752458D02*
X8771071Y-5757220D01*
X8771071Y-5757220D02*
X8756786Y-5761982D01*
X8756786Y-5761982D02*
X8747262Y-5761982D01*
X8747262Y-5761982D02*
X8732976Y-5757220D01*
X8732976Y-5757220D02*
X8723452Y-5747696D01*
X8723452Y-5747696D02*
X8718691Y-5738172D01*
X8718691Y-5738172D02*
X8713929Y-5719125D01*
X8713929Y-5719125D02*
X8713929Y-5704839D01*
X8713929Y-5704839D02*
X8718691Y-5685791D01*
X8718691Y-5685791D02*
X8723452Y-5676268D01*
X8723452Y-5676268D02*
X8732976Y-5666744D01*
X8732976Y-5666744D02*
X8747262Y-5661982D01*
X8747262Y-5661982D02*
X8756786Y-5661982D01*
X8756786Y-5661982D02*
X8771071Y-5666744D01*
X8771071Y-5666744D02*
X8775833Y-5671506D01*
X8813929Y-5671506D02*
X8818691Y-5666744D01*
X8818691Y-5666744D02*
X8828214Y-5661982D01*
X8828214Y-5661982D02*
X8852024Y-5661982D01*
X8852024Y-5661982D02*
X8861548Y-5666744D01*
X8861548Y-5666744D02*
X8866310Y-5671506D01*
X8866310Y-5671506D02*
X8871071Y-5681029D01*
X8871071Y-5681029D02*
X8871071Y-5690553D01*
X8871071Y-5690553D02*
X8866310Y-5704839D01*
X8866310Y-5704839D02*
X8809167Y-5761982D01*
X8809167Y-5761982D02*
X8871071Y-5761982D01*
X6486190Y-9685482D02*
X6486190Y-9585482D01*
X6486190Y-9585482D02*
X6510000Y-9585482D01*
X6510000Y-9585482D02*
X6524286Y-9590244D01*
X6524286Y-9590244D02*
X6533809Y-9599768D01*
X6533809Y-9599768D02*
X6538571Y-9609291D01*
X6538571Y-9609291D02*
X6543333Y-9628339D01*
X6543333Y-9628339D02*
X6543333Y-9642625D01*
X6543333Y-9642625D02*
X6538571Y-9661672D01*
X6538571Y-9661672D02*
X6533809Y-9671196D01*
X6533809Y-9671196D02*
X6524286Y-9680720D01*
X6524286Y-9680720D02*
X6510000Y-9685482D01*
X6510000Y-9685482D02*
X6486190Y-9685482D01*
X6633809Y-9585482D02*
X6586190Y-9585482D01*
X6586190Y-9585482D02*
X6581429Y-9633101D01*
X6581429Y-9633101D02*
X6586190Y-9628339D01*
X6586190Y-9628339D02*
X6595714Y-9623577D01*
X6595714Y-9623577D02*
X6619524Y-9623577D01*
X6619524Y-9623577D02*
X6629048Y-9628339D01*
X6629048Y-9628339D02*
X6633809Y-9633101D01*
X6633809Y-9633101D02*
X6638571Y-9642625D01*
X6638571Y-9642625D02*
X6638571Y-9666434D01*
X6638571Y-9666434D02*
X6633809Y-9675958D01*
X6633809Y-9675958D02*
X6629048Y-9680720D01*
X6629048Y-9680720D02*
X6619524Y-9685482D01*
X6619524Y-9685482D02*
X6595714Y-9685482D01*
X6595714Y-9685482D02*
X6586190Y-9680720D01*
X6586190Y-9680720D02*
X6581429Y-9675958D01*
X9922982Y-10243690D02*
X10003934Y-10243690D01*
X10003934Y-10243690D02*
X10013458Y-10238929D01*
X10013458Y-10238929D02*
X10018220Y-10234167D01*
X10018220Y-10234167D02*
X10022982Y-10224643D01*
X10022982Y-10224643D02*
X10022982Y-10205595D01*
X10022982Y-10205595D02*
X10018220Y-10196071D01*
X10018220Y-10196071D02*
X10013458Y-10191310D01*
X10013458Y-10191310D02*
X10003934Y-10186548D01*
X10003934Y-10186548D02*
X9922982Y-10186548D01*
X9932506Y-10143690D02*
X9927744Y-10138929D01*
X9927744Y-10138929D02*
X9922982Y-10129405D01*
X9922982Y-10129405D02*
X9922982Y-10105595D01*
X9922982Y-10105595D02*
X9927744Y-10096071D01*
X9927744Y-10096071D02*
X9932506Y-10091310D01*
X9932506Y-10091310D02*
X9942030Y-10086548D01*
X9942030Y-10086548D02*
X9951553Y-10086548D01*
X9951553Y-10086548D02*
X9965839Y-10091310D01*
X9965839Y-10091310D02*
X10022982Y-10148452D01*
X10022982Y-10148452D02*
X10022982Y-10086548D01*
X4033809Y-7215482D02*
X4033809Y-7296434D01*
X4033809Y-7296434D02*
X4038571Y-7305958D01*
X4038571Y-7305958D02*
X4043333Y-7310720D01*
X4043333Y-7310720D02*
X4052857Y-7315482D01*
X4052857Y-7315482D02*
X4071905Y-7315482D01*
X4071905Y-7315482D02*
X4081428Y-7310720D01*
X4081428Y-7310720D02*
X4086190Y-7305958D01*
X4086190Y-7305958D02*
X4090952Y-7296434D01*
X4090952Y-7296434D02*
X4090952Y-7215482D01*
X4129048Y-7215482D02*
X4190952Y-7215482D01*
X4190952Y-7215482D02*
X4157619Y-7253577D01*
X4157619Y-7253577D02*
X4171905Y-7253577D01*
X4171905Y-7253577D02*
X4181428Y-7258339D01*
X4181428Y-7258339D02*
X4186190Y-7263101D01*
X4186190Y-7263101D02*
X4190952Y-7272625D01*
X4190952Y-7272625D02*
X4190952Y-7296434D01*
X4190952Y-7296434D02*
X4186190Y-7305958D01*
X4186190Y-7305958D02*
X4181428Y-7310720D01*
X4181428Y-7310720D02*
X4171905Y-7315482D01*
X4171905Y-7315482D02*
X4143333Y-7315482D01*
X4143333Y-7315482D02*
X4133809Y-7310720D01*
X4133809Y-7310720D02*
X4129048Y-7305958D01*
X6301190Y-6903232D02*
X6301190Y-6803232D01*
X6358333Y-6903232D02*
X6315476Y-6846089D01*
X6358333Y-6803232D02*
X6301190Y-6860375D01*
X6453571Y-6903232D02*
X6396429Y-6903232D01*
X6425000Y-6903232D02*
X6425000Y-6803232D01*
X6425000Y-6803232D02*
X6415476Y-6817518D01*
X6415476Y-6817518D02*
X6405952Y-6827041D01*
X6405952Y-6827041D02*
X6396429Y-6831803D01*
X6364917Y-3669732D02*
X6364917Y-3741160D01*
X6364917Y-3741160D02*
X6360155Y-3755446D01*
X6360155Y-3755446D02*
X6350631Y-3764970D01*
X6350631Y-3764970D02*
X6336345Y-3769732D01*
X6336345Y-3769732D02*
X6326821Y-3769732D01*
X6460155Y-3669732D02*
X6412536Y-3669732D01*
X6412536Y-3669732D02*
X6407774Y-3717351D01*
X6407774Y-3717351D02*
X6412536Y-3712589D01*
X6412536Y-3712589D02*
X6422059Y-3707827D01*
X6422059Y-3707827D02*
X6445869Y-3707827D01*
X6445869Y-3707827D02*
X6455393Y-3712589D01*
X6455393Y-3712589D02*
X6460155Y-3717351D01*
X6460155Y-3717351D02*
X6464917Y-3726875D01*
X6464917Y-3726875D02*
X6464917Y-3750684D01*
X6464917Y-3750684D02*
X6460155Y-3760208D01*
X6460155Y-3760208D02*
X6455393Y-3764970D01*
X6455393Y-3764970D02*
X6445869Y-3769732D01*
X6445869Y-3769732D02*
X6422059Y-3769732D01*
X6422059Y-3769732D02*
X6412536Y-3764970D01*
X6412536Y-3764970D02*
X6407774Y-3760208D01*
X7743333Y-7865482D02*
X7710000Y-7817863D01*
X7686190Y-7865482D02*
X7686190Y-7765482D01*
X7686190Y-7765482D02*
X7724286Y-7765482D01*
X7724286Y-7765482D02*
X7733809Y-7770244D01*
X7733809Y-7770244D02*
X7738571Y-7775006D01*
X7738571Y-7775006D02*
X7743333Y-7784529D01*
X7743333Y-7784529D02*
X7743333Y-7798815D01*
X7743333Y-7798815D02*
X7738571Y-7808339D01*
X7738571Y-7808339D02*
X7733809Y-7813101D01*
X7733809Y-7813101D02*
X7724286Y-7817863D01*
X7724286Y-7817863D02*
X7686190Y-7817863D01*
X7829048Y-7798815D02*
X7829048Y-7865482D01*
X7805238Y-7760720D02*
X7781429Y-7832148D01*
X7781429Y-7832148D02*
X7843333Y-7832148D01*
X5305482Y-8571429D02*
X5205482Y-8571429D01*
X5205482Y-8571429D02*
X5205482Y-8547619D01*
X5205482Y-8547619D02*
X5210244Y-8533333D01*
X5210244Y-8533333D02*
X5219768Y-8523810D01*
X5219768Y-8523810D02*
X5229291Y-8519048D01*
X5229291Y-8519048D02*
X5248339Y-8514286D01*
X5248339Y-8514286D02*
X5262625Y-8514286D01*
X5262625Y-8514286D02*
X5281672Y-8519048D01*
X5281672Y-8519048D02*
X5291196Y-8523810D01*
X5291196Y-8523810D02*
X5300720Y-8533333D01*
X5300720Y-8533333D02*
X5305482Y-8547619D01*
X5305482Y-8547619D02*
X5305482Y-8571429D01*
X5305482Y-8419048D02*
X5305482Y-8476190D01*
X5305482Y-8447619D02*
X5205482Y-8447619D01*
X5205482Y-8447619D02*
X5219768Y-8457143D01*
X5219768Y-8457143D02*
X5229291Y-8466667D01*
X5229291Y-8466667D02*
X5234053Y-8476190D01*
X5305482Y-8323809D02*
X5305482Y-8380952D01*
X5305482Y-8352381D02*
X5205482Y-8352381D01*
X5205482Y-8352381D02*
X5219768Y-8361905D01*
X5219768Y-8361905D02*
X5229291Y-8371428D01*
X5229291Y-8371428D02*
X5234053Y-8380952D01*
X4885958Y-7266667D02*
X4890720Y-7271428D01*
X4890720Y-7271428D02*
X4895482Y-7285714D01*
X4895482Y-7285714D02*
X4895482Y-7295238D01*
X4895482Y-7295238D02*
X4890720Y-7309524D01*
X4890720Y-7309524D02*
X4881196Y-7319047D01*
X4881196Y-7319047D02*
X4871672Y-7323809D01*
X4871672Y-7323809D02*
X4852625Y-7328571D01*
X4852625Y-7328571D02*
X4838339Y-7328571D01*
X4838339Y-7328571D02*
X4819291Y-7323809D01*
X4819291Y-7323809D02*
X4809768Y-7319047D01*
X4809768Y-7319047D02*
X4800244Y-7309524D01*
X4800244Y-7309524D02*
X4795482Y-7295238D01*
X4795482Y-7295238D02*
X4795482Y-7285714D01*
X4795482Y-7285714D02*
X4800244Y-7271428D01*
X4800244Y-7271428D02*
X4805006Y-7266667D01*
X4795482Y-7233333D02*
X4795482Y-7171428D01*
X4795482Y-7171428D02*
X4833577Y-7204762D01*
X4833577Y-7204762D02*
X4833577Y-7190476D01*
X4833577Y-7190476D02*
X4838339Y-7180952D01*
X4838339Y-7180952D02*
X4843101Y-7176190D01*
X4843101Y-7176190D02*
X4852625Y-7171428D01*
X4852625Y-7171428D02*
X4876434Y-7171428D01*
X4876434Y-7171428D02*
X4885958Y-7176190D01*
X4885958Y-7176190D02*
X4890720Y-7180952D01*
X4890720Y-7180952D02*
X4895482Y-7190476D01*
X4895482Y-7190476D02*
X4895482Y-7219047D01*
X4895482Y-7219047D02*
X4890720Y-7228571D01*
X4890720Y-7228571D02*
X4885958Y-7233333D01*
X4035482Y-9363333D02*
X4106910Y-9363333D01*
X4106910Y-9363333D02*
X4121196Y-9368095D01*
X4121196Y-9368095D02*
X4130720Y-9377619D01*
X4130720Y-9377619D02*
X4135482Y-9391905D01*
X4135482Y-9391905D02*
X4135482Y-9401429D01*
X4135482Y-9263333D02*
X4135482Y-9320476D01*
X4135482Y-9291905D02*
X4035482Y-9291905D01*
X4035482Y-9291905D02*
X4049768Y-9301429D01*
X4049768Y-9301429D02*
X4059291Y-9310952D01*
X4059291Y-9310952D02*
X4064053Y-9320476D01*
X4793810Y-10375482D02*
X4793810Y-10275482D01*
X4793810Y-10323101D02*
X4850952Y-10323101D01*
X4850952Y-10375482D02*
X4850952Y-10275482D01*
X4889048Y-10275482D02*
X4950952Y-10275482D01*
X4950952Y-10275482D02*
X4917619Y-10313577D01*
X4917619Y-10313577D02*
X4931905Y-10313577D01*
X4931905Y-10313577D02*
X4941429Y-10318339D01*
X4941429Y-10318339D02*
X4946190Y-10323101D01*
X4946190Y-10323101D02*
X4950952Y-10332625D01*
X4950952Y-10332625D02*
X4950952Y-10356434D01*
X4950952Y-10356434D02*
X4946190Y-10365958D01*
X4946190Y-10365958D02*
X4941429Y-10370720D01*
X4941429Y-10370720D02*
X4931905Y-10375482D01*
X4931905Y-10375482D02*
X4903333Y-10375482D01*
X4903333Y-10375482D02*
X4893810Y-10370720D01*
X4893810Y-10370720D02*
X4889048Y-10365958D01*
X8161190Y-5793232D02*
X8161190Y-5693232D01*
X8218333Y-5793232D02*
X8175476Y-5736089D01*
X8218333Y-5693232D02*
X8161190Y-5750375D01*
X8251667Y-5693232D02*
X8313571Y-5693232D01*
X8313571Y-5693232D02*
X8280238Y-5731327D01*
X8280238Y-5731327D02*
X8294524Y-5731327D01*
X8294524Y-5731327D02*
X8304048Y-5736089D01*
X8304048Y-5736089D02*
X8308809Y-5740851D01*
X8308809Y-5740851D02*
X8313571Y-5750375D01*
X8313571Y-5750375D02*
X8313571Y-5774184D01*
X8313571Y-5774184D02*
X8308809Y-5783708D01*
X8308809Y-5783708D02*
X8304048Y-5788470D01*
X8304048Y-5788470D02*
X8294524Y-5793232D01*
X8294524Y-5793232D02*
X8265952Y-5793232D01*
X8265952Y-5793232D02*
X8256429Y-5788470D01*
X8256429Y-5788470D02*
X8251667Y-5783708D01*
X8850482Y-9193809D02*
X8750482Y-9193809D01*
X8750482Y-9193809D02*
X8750482Y-9170000D01*
X8750482Y-9170000D02*
X8755244Y-9155714D01*
X8755244Y-9155714D02*
X8764768Y-9146190D01*
X8764768Y-9146190D02*
X8774291Y-9141429D01*
X8774291Y-9141429D02*
X8793339Y-9136667D01*
X8793339Y-9136667D02*
X8807625Y-9136667D01*
X8807625Y-9136667D02*
X8826672Y-9141429D01*
X8826672Y-9141429D02*
X8836196Y-9146190D01*
X8836196Y-9146190D02*
X8845720Y-9155714D01*
X8845720Y-9155714D02*
X8850482Y-9170000D01*
X8850482Y-9170000D02*
X8850482Y-9193809D01*
X8760006Y-9098571D02*
X8755244Y-9093809D01*
X8755244Y-9093809D02*
X8750482Y-9084286D01*
X8750482Y-9084286D02*
X8750482Y-9060476D01*
X8750482Y-9060476D02*
X8755244Y-9050952D01*
X8755244Y-9050952D02*
X8760006Y-9046190D01*
X8760006Y-9046190D02*
X8769530Y-9041429D01*
X8769530Y-9041429D02*
X8779053Y-9041429D01*
X8779053Y-9041429D02*
X8793339Y-9046190D01*
X8793339Y-9046190D02*
X8850482Y-9103333D01*
X8850482Y-9103333D02*
X8850482Y-9041429D01*
D13*
G04 #@! TO.C,C1*
X9559000Y-7814000D02*
X9559000Y-8099000D01*
X9559000Y-8686000D02*
X9559000Y-8401000D01*
X10324556Y-7814000D02*
X9559000Y-7814000D01*
X10324556Y-8686000D02*
X9559000Y-8686000D01*
X10431000Y-7920444D02*
X10324556Y-7814000D01*
X10431000Y-7920444D02*
X10431000Y-8099000D01*
X10431000Y-8579556D02*
X10324556Y-8686000D01*
X10431000Y-8579556D02*
X10431000Y-8401000D01*
X10545000Y-8060000D02*
X10545000Y-7960000D01*
X10595000Y-8010000D02*
X10495000Y-8010000D01*
G04 #@! TO.C,Q2*
X6963000Y-7967500D02*
X6963000Y-8431600D01*
X6963000Y-7967500D02*
X7987000Y-7967500D01*
X6963000Y-8118500D02*
X7987000Y-8118500D01*
X6963000Y-8431600D02*
X7987000Y-8431600D01*
X7290000Y-7967500D02*
X7290000Y-8118500D01*
X7660100Y-7967500D02*
X7660100Y-8118500D01*
X7987000Y-7967500D02*
X7987000Y-8431600D01*
G04 #@! TO.C,Q3*
X6968000Y-9112500D02*
X6968000Y-9576600D01*
X6968000Y-9112500D02*
X7992000Y-9112500D01*
X6968000Y-9263500D02*
X7992000Y-9263500D01*
X6968000Y-9576600D02*
X7992000Y-9576600D01*
X7295000Y-9112500D02*
X7295000Y-9263500D01*
X7665100Y-9112500D02*
X7665100Y-9263500D01*
X7992000Y-9112500D02*
X7992000Y-9576600D01*
G04 #@! TO.C,Q1*
X6182500Y-9098000D02*
X6182500Y-10122000D01*
X6182500Y-9425000D02*
X6031500Y-9425000D01*
X6182500Y-9795100D02*
X6031500Y-9795100D01*
X6182500Y-9098000D02*
X5718400Y-9098000D01*
X5718400Y-9098000D02*
X5718400Y-10122000D01*
X6182500Y-10122000D02*
X5718400Y-10122000D01*
X6031500Y-9098000D02*
X6031500Y-10122000D01*
G04 #@! TO.C,Q5*
X6182500Y-7988000D02*
X5718400Y-7988000D01*
X6182500Y-7988000D02*
X6182500Y-9012000D01*
X6031500Y-7988000D02*
X6031500Y-9012000D01*
X5718400Y-7988000D02*
X5718400Y-9012000D01*
X6182500Y-8315000D02*
X6031500Y-8315000D01*
X6182500Y-8685100D02*
X6031500Y-8685100D01*
X6182500Y-9012000D02*
X5718400Y-9012000D01*
G04 #@! TO.C,K2*
X10875000Y-5632750D02*
X10875000Y-3362750D01*
X10875000Y-3362750D02*
X9205000Y-3362750D01*
X10490000Y-5147750D02*
X10175000Y-5147750D01*
X10140000Y-5658750D02*
X9940000Y-5658750D01*
X10075000Y-5207750D02*
X10075000Y-5087750D01*
X10075000Y-5127750D02*
X10005000Y-5167750D01*
X10075000Y-5087750D02*
X10005000Y-5087750D01*
X10005000Y-5207750D02*
X10075000Y-5207750D01*
X10005000Y-5087750D02*
X10005000Y-5207750D01*
X9905000Y-5147750D02*
X9590000Y-5147750D01*
X9205000Y-5632750D02*
X10875000Y-5632750D01*
X9205000Y-3362750D02*
X9205000Y-5632750D01*
G04 #@! TO.C,L1*
X8055000Y-8555000D02*
X8055000Y-7295000D01*
X8355000Y-8555000D02*
X8055000Y-8555000D01*
X9315000Y-8555000D02*
X9015000Y-8555000D01*
X8055000Y-7295000D02*
X8355000Y-7295000D01*
X9015000Y-7295000D02*
X9315000Y-7295000D01*
X9315000Y-7295000D02*
X9315000Y-8555000D01*
G04 #@! TO.C,F2*
X10933625Y-9411000D02*
X10656375Y-9411000D01*
X10933625Y-9069000D02*
X10656375Y-9069000D01*
G04 #@! TO.C,J4*
X11955750Y-8388750D02*
X11955750Y-8588750D01*
X11830750Y-8388750D02*
X11955750Y-8388750D01*
X11916750Y-8427750D02*
X11169750Y-8427750D01*
X11169750Y-8427750D02*
X11169750Y-9465750D01*
X11820750Y-8542750D02*
X11820750Y-8842750D01*
X11685750Y-8542750D02*
X11685750Y-8617750D01*
X11255750Y-8542750D02*
X11685750Y-8542750D01*
X11720750Y-8567750D02*
X11820750Y-8542750D01*
X11720750Y-8617750D02*
X11720750Y-8567750D01*
X11685750Y-8617750D02*
X11720750Y-8617750D01*
X11255750Y-8617750D02*
X11255750Y-8542750D01*
X11720750Y-8767750D02*
X11685750Y-8767750D01*
X11685750Y-8767750D02*
X11685750Y-8842750D01*
X11720750Y-8817750D02*
X11720750Y-8767750D01*
X11820750Y-8842750D02*
X11720750Y-8817750D01*
X11685750Y-8842750D02*
X11255750Y-8842750D01*
X11255750Y-8842750D02*
X11255750Y-8767750D01*
X11820750Y-9050750D02*
X11820750Y-9350750D01*
X11685750Y-9050750D02*
X11685750Y-9125750D01*
X11255750Y-9050750D02*
X11685750Y-9050750D01*
X11720750Y-9075750D02*
X11820750Y-9050750D01*
X11720750Y-9125750D02*
X11720750Y-9075750D01*
X11685750Y-9125750D02*
X11720750Y-9125750D01*
X11255750Y-9125750D02*
X11255750Y-9050750D01*
X11720750Y-9275750D02*
X11685750Y-9275750D01*
X11685750Y-9275750D02*
X11685750Y-9350750D01*
X11720750Y-9325750D02*
X11720750Y-9275750D01*
X11820750Y-9350750D02*
X11720750Y-9325750D01*
X11685750Y-9350750D02*
X11255750Y-9350750D01*
X11255750Y-9350750D02*
X11255750Y-9275750D01*
X11916750Y-9465750D02*
X11916750Y-8427750D01*
X11169750Y-9465750D02*
X11916750Y-9465750D01*
X11255765Y-8767715D02*
G75*
G03*
X11255750Y-8617750I-170015J74965D01*
G01*
X11255765Y-9275715D02*
G75*
G03*
X11255750Y-9125750I-170015J74965D01*
G01*
G04 #@! TO.C,D6*
X6911000Y-8420000D02*
X6911000Y-8090000D01*
X6911000Y-8420000D02*
X6360000Y-8420000D01*
X6911000Y-8090000D02*
X6360000Y-8090000D01*
G04 #@! TO.C,J3*
X11945750Y-4568750D02*
X11945750Y-4768750D01*
X11820750Y-4568750D02*
X11945750Y-4568750D01*
X11906750Y-4607750D02*
X11159750Y-4607750D01*
X11159750Y-4607750D02*
X11159750Y-5645750D01*
X11810750Y-4722750D02*
X11810750Y-5022750D01*
X11675750Y-4722750D02*
X11675750Y-4797750D01*
X11245750Y-4722750D02*
X11675750Y-4722750D01*
X11710750Y-4747750D02*
X11810750Y-4722750D01*
X11710750Y-4797750D02*
X11710750Y-4747750D01*
X11675750Y-4797750D02*
X11710750Y-4797750D01*
X11245750Y-4797750D02*
X11245750Y-4722750D01*
X11710750Y-4947750D02*
X11675750Y-4947750D01*
X11675750Y-4947750D02*
X11675750Y-5022750D01*
X11710750Y-4997750D02*
X11710750Y-4947750D01*
X11810750Y-5022750D02*
X11710750Y-4997750D01*
X11675750Y-5022750D02*
X11245750Y-5022750D01*
X11245750Y-5022750D02*
X11245750Y-4947750D01*
X11810750Y-5230750D02*
X11810750Y-5530750D01*
X11675750Y-5230750D02*
X11675750Y-5305750D01*
X11245750Y-5230750D02*
X11675750Y-5230750D01*
X11710750Y-5255750D02*
X11810750Y-5230750D01*
X11710750Y-5305750D02*
X11710750Y-5255750D01*
X11675750Y-5305750D02*
X11710750Y-5305750D01*
X11245750Y-5305750D02*
X11245750Y-5230750D01*
X11710750Y-5455750D02*
X11675750Y-5455750D01*
X11675750Y-5455750D02*
X11675750Y-5530750D01*
X11710750Y-5505750D02*
X11710750Y-5455750D01*
X11810750Y-5530750D02*
X11710750Y-5505750D01*
X11675750Y-5530750D02*
X11245750Y-5530750D01*
X11245750Y-5530750D02*
X11245750Y-5455750D01*
X11906750Y-5645750D02*
X11906750Y-4607750D01*
X11159750Y-5645750D02*
X11906750Y-5645750D01*
X11245765Y-4947715D02*
G75*
G03*
X11245750Y-4797750I-170015J74965D01*
G01*
X11245765Y-5455715D02*
G75*
G03*
X11245750Y-5305750I-170015J74965D01*
G01*
G04 #@! TO.C,D10*
X5690000Y-9189000D02*
X5360000Y-9189000D01*
X5690000Y-9189000D02*
X5690000Y-9890000D01*
X5360000Y-9189000D02*
X5360000Y-9890000D01*
G04 #@! TO.C,J2*
X4741000Y-5354000D02*
X4741000Y-5496000D01*
X3569000Y-5354000D02*
X4741000Y-5354000D01*
X4741000Y-5496000D02*
X4291000Y-5496000D01*
X4550000Y-5580000D02*
X4550000Y-5640000D01*
X4180000Y-5585000D02*
X3630000Y-5585000D01*
X3630000Y-5585000D02*
X3630000Y-5635000D01*
X4490000Y-5610000D02*
X4550000Y-5580000D01*
X4180000Y-5635000D02*
X4180000Y-5585000D01*
X3630000Y-5635000D02*
X4180000Y-5635000D01*
X4550000Y-5640000D02*
X4490000Y-5610000D01*
X3569000Y-5735000D02*
X3569000Y-5354000D01*
X3569000Y-5735000D02*
X3569000Y-6116000D01*
X4180000Y-5835000D02*
X3630000Y-5835000D01*
X3630000Y-5835000D02*
X3630000Y-5885000D01*
X4180000Y-5885000D02*
X4180000Y-5835000D01*
X3630000Y-5885000D02*
X4180000Y-5885000D01*
X4741000Y-5974000D02*
X4291000Y-5974000D01*
X4741000Y-6116000D02*
X4741000Y-5974000D01*
X3569000Y-6116000D02*
X4741000Y-6116000D01*
G04 #@! TO.C,F1*
X10936125Y-8871000D02*
X10658875Y-8871000D01*
X10936125Y-8529000D02*
X10658875Y-8529000D01*
D14*
G04 #@! TO.C,C2*
X8275000Y-6075000D02*
X8275000Y-6398000D01*
X8275000Y-6662000D02*
X8275000Y-6985000D01*
X8275000Y-6985000D02*
X8495000Y-7205000D01*
X8495000Y-5855000D02*
X8275000Y-6075000D01*
X8495000Y-7205000D02*
X9625000Y-7205000D01*
X9625000Y-5855000D02*
X8495000Y-5855000D01*
X9625000Y-6398000D02*
X9625000Y-5855000D01*
X9625000Y-7205000D02*
X9625000Y-6662000D01*
D15*
X8170000Y-6320000D02*
G75*
G03*
X8170000Y-6320000I-10000J0D01*
G01*
D13*
G04 #@! TO.C,J10*
X11955000Y-5751000D02*
X11955000Y-5951000D01*
X11830000Y-5751000D02*
X11955000Y-5751000D01*
X11916000Y-5790000D02*
X11169000Y-5790000D01*
X11169000Y-5790000D02*
X11169000Y-7844000D01*
X11820000Y-5905000D02*
X11820000Y-6205000D01*
X11685000Y-5905000D02*
X11685000Y-5980000D01*
X11255000Y-5905000D02*
X11685000Y-5905000D01*
X11720000Y-5930000D02*
X11820000Y-5905000D01*
X11720000Y-5980000D02*
X11720000Y-5930000D01*
X11685000Y-5980000D02*
X11720000Y-5980000D01*
X11255000Y-5980000D02*
X11255000Y-5905000D01*
X11720000Y-6130000D02*
X11685000Y-6130000D01*
X11685000Y-6130000D02*
X11685000Y-6205000D01*
X11720000Y-6180000D02*
X11720000Y-6130000D01*
X11820000Y-6205000D02*
X11720000Y-6180000D01*
X11685000Y-6205000D02*
X11255000Y-6205000D01*
X11255000Y-6205000D02*
X11255000Y-6130000D01*
X11820000Y-6413000D02*
X11820000Y-6713000D01*
X11685000Y-6413000D02*
X11685000Y-6488000D01*
X11255000Y-6413000D02*
X11685000Y-6413000D01*
X11720000Y-6438000D02*
X11820000Y-6413000D01*
X11720000Y-6488000D02*
X11720000Y-6438000D01*
X11685000Y-6488000D02*
X11720000Y-6488000D01*
X11255000Y-6488000D02*
X11255000Y-6413000D01*
X11720000Y-6638000D02*
X11685000Y-6638000D01*
X11685000Y-6638000D02*
X11685000Y-6713000D01*
X11720000Y-6688000D02*
X11720000Y-6638000D01*
X11820000Y-6713000D02*
X11720000Y-6688000D01*
X11685000Y-6713000D02*
X11255000Y-6713000D01*
X11255000Y-6713000D02*
X11255000Y-6638000D01*
X11820000Y-6921000D02*
X11820000Y-7221000D01*
X11685000Y-6921000D02*
X11685000Y-6996000D01*
X11255000Y-6921000D02*
X11685000Y-6921000D01*
X11720000Y-6946000D02*
X11820000Y-6921000D01*
X11720000Y-6996000D02*
X11720000Y-6946000D01*
X11685000Y-6996000D02*
X11720000Y-6996000D01*
X11255000Y-6996000D02*
X11255000Y-6921000D01*
X11720000Y-7146000D02*
X11685000Y-7146000D01*
X11685000Y-7146000D02*
X11685000Y-7221000D01*
X11720000Y-7196000D02*
X11720000Y-7146000D01*
X11820000Y-7221000D02*
X11720000Y-7196000D01*
X11685000Y-7221000D02*
X11255000Y-7221000D01*
X11255000Y-7221000D02*
X11255000Y-7146000D01*
X11820000Y-7429000D02*
X11820000Y-7729000D01*
X11685000Y-7429000D02*
X11685000Y-7504000D01*
X11255000Y-7429000D02*
X11685000Y-7429000D01*
X11720000Y-7454000D02*
X11820000Y-7429000D01*
X11720000Y-7504000D02*
X11720000Y-7454000D01*
X11685000Y-7504000D02*
X11720000Y-7504000D01*
X11255000Y-7504000D02*
X11255000Y-7429000D01*
X11720000Y-7654000D02*
X11685000Y-7654000D01*
X11685000Y-7654000D02*
X11685000Y-7729000D01*
X11720000Y-7704000D02*
X11720000Y-7654000D01*
X11820000Y-7729000D02*
X11720000Y-7704000D01*
X11685000Y-7729000D02*
X11255000Y-7729000D01*
X11255000Y-7729000D02*
X11255000Y-7654000D01*
X11916000Y-7844000D02*
X11916000Y-5790000D01*
X11169000Y-7844000D02*
X11916000Y-7844000D01*
X11255015Y-6129965D02*
G75*
G03*
X11255000Y-5980000I-170015J74965D01*
G01*
X11255015Y-6637965D02*
G75*
G03*
X11255000Y-6488000I-170015J74965D01*
G01*
X11255015Y-7145965D02*
G75*
G03*
X11255000Y-6996000I-170015J74965D01*
G01*
X11255015Y-7653965D02*
G75*
G03*
X11255000Y-7504000I-170015J74965D01*
G01*
G04 #@! TO.C,D5*
X6911000Y-9555000D02*
X6911000Y-9225000D01*
X6911000Y-9555000D02*
X6360000Y-9555000D01*
X6911000Y-9225000D02*
X6360000Y-9225000D01*
G04 #@! TO.C,U2*
X9832500Y-9685000D02*
X9737500Y-9685000D01*
X9737500Y-9685000D02*
X9737500Y-9172500D01*
X8887500Y-9685000D02*
X8887500Y-9575000D01*
X8792500Y-9685000D02*
X8887500Y-9685000D01*
X9832500Y-9835000D02*
X9832500Y-9685000D01*
X8792500Y-9835000D02*
X8792500Y-9685000D01*
G04 #@! TO.C,U3*
X4441000Y-7165000D02*
X4441000Y-7138000D01*
X4441000Y-7138000D02*
X4724000Y-7138000D01*
X4441000Y-6502000D02*
X4551000Y-6502000D01*
X4441000Y-6475000D02*
X4441000Y-6502000D01*
X3799000Y-7165000D02*
X4441000Y-7165000D01*
X3799000Y-6475000D02*
X4441000Y-6475000D01*
G04 #@! TO.C,K1*
X7210000Y-6742750D02*
X7210000Y-4472750D01*
X7210000Y-4472750D02*
X5540000Y-4472750D01*
X6825000Y-6257750D02*
X6510000Y-6257750D01*
X6475000Y-6768750D02*
X6275000Y-6768750D01*
X6410000Y-6317750D02*
X6410000Y-6197750D01*
X6410000Y-6237750D02*
X6340000Y-6277750D01*
X6410000Y-6197750D02*
X6340000Y-6197750D01*
X6340000Y-6317750D02*
X6410000Y-6317750D01*
X6340000Y-6197750D02*
X6340000Y-6317750D01*
X6240000Y-6257750D02*
X5925000Y-6257750D01*
X5540000Y-6742750D02*
X7210000Y-6742750D01*
X5540000Y-4472750D02*
X5540000Y-6742750D01*
G04 #@! TO.C,J5*
X6956250Y-3654250D02*
X6756250Y-3654250D01*
X6956250Y-3529250D02*
X6956250Y-3654250D01*
X6917250Y-3615250D02*
X6917250Y-2868250D01*
X6917250Y-2868250D02*
X5879250Y-2868250D01*
X6802250Y-3519250D02*
X6502250Y-3519250D01*
X6802250Y-3384250D02*
X6727250Y-3384250D01*
X6802250Y-2954250D02*
X6802250Y-3384250D01*
X6777250Y-3419250D02*
X6802250Y-3519250D01*
X6727250Y-3419250D02*
X6777250Y-3419250D01*
X6727250Y-3384250D02*
X6727250Y-3419250D01*
X6727250Y-2954250D02*
X6802250Y-2954250D01*
X6577250Y-3419250D02*
X6577250Y-3384250D01*
X6577250Y-3384250D02*
X6502250Y-3384250D01*
X6527250Y-3419250D02*
X6577250Y-3419250D01*
X6502250Y-3519250D02*
X6527250Y-3419250D01*
X6502250Y-3384250D02*
X6502250Y-2954250D01*
X6502250Y-2954250D02*
X6577250Y-2954250D01*
X6294250Y-3519250D02*
X5994250Y-3519250D01*
X6294250Y-3384250D02*
X6219250Y-3384250D01*
X6294250Y-2954250D02*
X6294250Y-3384250D01*
X6269250Y-3419250D02*
X6294250Y-3519250D01*
X6219250Y-3419250D02*
X6269250Y-3419250D01*
X6219250Y-3384250D02*
X6219250Y-3419250D01*
X6219250Y-2954250D02*
X6294250Y-2954250D01*
X6069250Y-3419250D02*
X6069250Y-3384250D01*
X6069250Y-3384250D02*
X5994250Y-3384250D01*
X6019250Y-3419250D02*
X6069250Y-3419250D01*
X5994250Y-3519250D02*
X6019250Y-3419250D01*
X5994250Y-3384250D02*
X5994250Y-2954250D01*
X5994250Y-2954250D02*
X6069250Y-2954250D01*
X5879250Y-3615250D02*
X6917250Y-3615250D01*
X5879250Y-2868250D02*
X5879250Y-3615250D01*
X6577285Y-2954265D02*
G75*
G03*
X6727250Y-2954250I74965J170015D01*
G01*
X6069285Y-2954265D02*
G75*
G03*
X6219250Y-2954250I74965J170015D01*
G01*
G04 #@! TO.C,R4*
X7507706Y-7913500D02*
X7462294Y-7913500D01*
X7507706Y-7766500D02*
X7462294Y-7766500D01*
G04 #@! TO.C,D11*
X5680000Y-8029000D02*
X5350000Y-8029000D01*
X5680000Y-8029000D02*
X5680000Y-8730000D01*
X5350000Y-8029000D02*
X5350000Y-8730000D01*
G04 #@! TO.C,C3*
X4799000Y-6981125D02*
X4799000Y-6838875D01*
X4981000Y-6981125D02*
X4981000Y-6838875D01*
G04 #@! TO.C,J1*
X4658900Y-7420200D02*
X4533900Y-7420200D01*
X4629900Y-7449200D02*
X4032900Y-7449200D01*
X4032900Y-7449200D02*
X4032900Y-9211200D01*
X4628900Y-7450200D02*
X4553900Y-7450200D01*
X4553900Y-7450200D02*
X4553900Y-7630200D01*
X4403900Y-7450200D02*
X4403900Y-7525200D01*
X4403900Y-7525200D02*
X4108900Y-7525200D01*
X4108900Y-7525200D02*
X4108900Y-8330200D01*
X4658900Y-7545200D02*
X4658900Y-7420200D01*
X4628900Y-7630200D02*
X4628900Y-7450200D01*
X4553900Y-7630200D02*
X4628900Y-7630200D01*
X4628900Y-7780200D02*
X4553900Y-7780200D01*
X4553900Y-7780200D02*
X4553900Y-8880200D01*
X4628900Y-8880200D02*
X4628900Y-7780200D01*
X4553900Y-8880200D02*
X4628900Y-8880200D01*
X4628900Y-9030200D02*
X4553900Y-9030200D01*
X4553900Y-9030200D02*
X4553900Y-9210200D01*
X4403900Y-9135200D02*
X4108900Y-9135200D01*
X4108900Y-9135200D02*
X4108900Y-8330200D01*
X4628900Y-9210200D02*
X4628900Y-9030200D01*
X4553900Y-9210200D02*
X4628900Y-9210200D01*
X4403900Y-9210200D02*
X4403900Y-9135200D01*
X4629900Y-9211200D02*
X4629900Y-7449200D01*
X4032900Y-9211200D02*
X4629900Y-9211200D01*
G04 #@! TO.C,K3*
X9070000Y-5632750D02*
X9070000Y-3362750D01*
X9070000Y-3362750D02*
X7400000Y-3362750D01*
X8685000Y-5147750D02*
X8370000Y-5147750D01*
X8335000Y-5658750D02*
X8135000Y-5658750D01*
X8270000Y-5207750D02*
X8270000Y-5087750D01*
X8270000Y-5127750D02*
X8200000Y-5167750D01*
X8270000Y-5087750D02*
X8200000Y-5087750D01*
X8200000Y-5207750D02*
X8270000Y-5207750D01*
X8200000Y-5087750D02*
X8200000Y-5207750D01*
X8100000Y-5147750D02*
X7785000Y-5147750D01*
X7400000Y-5632750D02*
X9070000Y-5632750D01*
X7400000Y-3362750D02*
X7400000Y-5632750D01*
G04 #@! TO.C,D2*
X8720000Y-8624000D02*
X8290000Y-8624000D01*
X8720000Y-8624000D02*
X8720000Y-9390000D01*
X8290000Y-8624000D02*
X8290000Y-9390000D01*
G04 #@! TD*
M02*
