%TF.GenerationSoftware,KiCad,Pcbnew,7.0.9*%
%TF.CreationDate,2024-10-22T00:58:25+05:30*%
%TF.ProjectId,Inverter,496e7665-7274-4657-922e-6b696361645f,rev?*%
%TF.SameCoordinates,Original*%
%TF.FileFunction,Soldermask,Top*%
%TF.FilePolarity,Negative*%
%FSLAX46Y46*%
G04 Gerber Fmt 4.6, Leading zero omitted, Abs format (unit mm)*
G04 Created by KiCad (PCBNEW 7.0.9) date 2024-10-22 00:58:25*
%MOMM*%
%LPD*%
G01*
G04 APERTURE LIST*
G04 Aperture macros list*
%AMRoundRect*
0 Rectangle with rounded corners*
0 $1 Rounding radius*
0 $2 $3 $4 $5 $6 $7 $8 $9 X,Y pos of 4 corners*
0 Add a 4 corners polygon primitive as box body*
4,1,4,$2,$3,$4,$5,$6,$7,$8,$9,$2,$3,0*
0 Add four circle primitives for the rounded corners*
1,1,$1+$1,$2,$3*
1,1,$1+$1,$4,$5*
1,1,$1+$1,$6,$7*
1,1,$1+$1,$8,$9*
0 Add four rect primitives between the rounded corners*
20,1,$1+$1,$2,$3,$4,$5,0*
20,1,$1+$1,$4,$5,$6,$7,0*
20,1,$1+$1,$6,$7,$8,$9,0*
20,1,$1+$1,$8,$9,$2,$3,0*%
G04 Aperture macros list end*
%ADD10R,0.558800X1.473200*%
%ADD11RoundRect,0.250000X1.500000X0.650000X-1.500000X0.650000X-1.500000X-0.650000X1.500000X-0.650000X0*%
%ADD12RoundRect,0.250000X0.450000X-0.350000X0.450000X0.350000X-0.450000X0.350000X-0.450000X-0.350000X0*%
%ADD13RoundRect,0.250000X-0.412500X-0.650000X0.412500X-0.650000X0.412500X0.650000X-0.412500X0.650000X0*%
%ADD14R,2.600000X2.600000*%
%ADD15O,2.600000X2.600000*%
%ADD16R,0.650000X1.850000*%
%ADD17RoundRect,0.250000X0.450000X-0.325000X0.450000X0.325000X-0.450000X0.325000X-0.450000X-0.325000X0*%
%ADD18R,2.000000X1.905000*%
%ADD19O,2.000000X1.905000*%
%ADD20RoundRect,0.102000X0.754000X-0.754000X0.754000X0.754000X-0.754000X0.754000X-0.754000X-0.754000X0*%
%ADD21C,1.712000*%
%ADD22RoundRect,0.250000X-0.600000X-0.725000X0.600000X-0.725000X0.600000X0.725000X-0.600000X0.725000X0*%
%ADD23O,1.700000X1.950000*%
%ADD24RoundRect,0.237500X-0.250000X-0.237500X0.250000X-0.237500X0.250000X0.237500X-0.250000X0.237500X0*%
%ADD25C,2.400000*%
%ADD26C,2.800000*%
%ADD27C,1.804000*%
%ADD28RoundRect,0.102000X-0.800000X-0.800000X0.800000X-0.800000X0.800000X0.800000X-0.800000X0.800000X0*%
%ADD29RoundRect,0.250000X-0.650000X1.500000X-0.650000X-1.500000X0.650000X-1.500000X0.650000X1.500000X0*%
%ADD30R,1.000000X1.000000*%
%ADD31O,1.000000X1.000000*%
%ADD32RoundRect,0.250000X-0.350000X-0.450000X0.350000X-0.450000X0.350000X0.450000X-0.350000X0.450000X0*%
%ADD33RoundRect,0.250000X0.750000X-0.600000X0.750000X0.600000X-0.750000X0.600000X-0.750000X-0.600000X0*%
%ADD34O,2.000000X1.700000*%
%ADD35RoundRect,0.250000X0.412500X0.650000X-0.412500X0.650000X-0.412500X-0.650000X0.412500X-0.650000X0*%
%ADD36RoundRect,0.250000X-0.650000X0.412500X-0.650000X-0.412500X0.650000X-0.412500X0.650000X0.412500X0*%
%ADD37RoundRect,0.237500X0.237500X-0.250000X0.237500X0.250000X-0.237500X0.250000X-0.237500X-0.250000X0*%
%ADD38R,1.700000X1.700000*%
%ADD39O,1.700000X1.700000*%
%ADD40RoundRect,0.237500X0.300000X0.237500X-0.300000X0.237500X-0.300000X-0.237500X0.300000X-0.237500X0*%
%ADD41RoundRect,0.237500X-0.300000X-0.237500X0.300000X-0.237500X0.300000X0.237500X-0.300000X0.237500X0*%
%ADD42R,2.000000X1.500000*%
%ADD43R,2.000000X3.800000*%
%ADD44RoundRect,0.102000X0.800000X-0.800000X0.800000X0.800000X-0.800000X0.800000X-0.800000X-0.800000X0*%
%ADD45RoundRect,0.102000X-0.800000X0.800000X-0.800000X-0.800000X0.800000X-0.800000X0.800000X0.800000X0*%
%ADD46RoundRect,0.250000X-0.450000X0.350000X-0.450000X-0.350000X0.450000X-0.350000X0.450000X0.350000X0*%
%ADD47RoundRect,0.237500X-0.237500X0.250000X-0.237500X-0.250000X0.237500X-0.250000X0.237500X0.250000X0*%
%ADD48RoundRect,0.237500X0.250000X0.237500X-0.250000X0.237500X-0.250000X-0.237500X0.250000X-0.237500X0*%
%ADD49RoundRect,0.250000X0.600000X0.725000X-0.600000X0.725000X-0.600000X-0.725000X0.600000X-0.725000X0*%
%ADD50RoundRect,0.250000X-0.750000X0.600000X-0.750000X-0.600000X0.750000X-0.600000X0.750000X0.600000X0*%
%ADD51RoundRect,0.250000X0.650000X-0.412500X0.650000X0.412500X-0.650000X0.412500X-0.650000X-0.412500X0*%
%ADD52RoundRect,0.250000X0.350000X0.450000X-0.350000X0.450000X-0.350000X-0.450000X0.350000X-0.450000X0*%
%ADD53C,1.524000*%
%ADD54RoundRect,0.250000X-0.450000X0.325000X-0.450000X-0.325000X0.450000X-0.325000X0.450000X0.325000X0*%
%ADD55RoundRect,0.250000X0.850000X0.500000X-0.850000X0.500000X-0.850000X-0.500000X0.850000X-0.500000X0*%
%ADD56RoundRect,0.250000X0.725000X-0.600000X0.725000X0.600000X-0.725000X0.600000X-0.725000X-0.600000X0*%
%ADD57O,1.950000X1.700000*%
%ADD58C,6.000000*%
%ADD59R,18.000000X14.000000*%
%ADD60C,4.000000*%
G04 APERTURE END LIST*
D10*
%TO.C,U10*%
X43755000Y-134023200D03*
X42485000Y-134023200D03*
X41215000Y-134023200D03*
X39945000Y-134023200D03*
X39945000Y-143776800D03*
X41215000Y-143776800D03*
X42485000Y-143776800D03*
X43755000Y-143776800D03*
%TD*%
D11*
%TO.C,D3*%
X56348000Y-124587000D03*
X51348000Y-124587000D03*
%TD*%
D12*
%TO.C,R12*%
X69258400Y-130320800D03*
X69258400Y-128320800D03*
%TD*%
D13*
%TO.C,C12*%
X24472500Y-137287000D03*
X27597500Y-137287000D03*
%TD*%
D14*
%TO.C,D8*%
X25400000Y-48260000D03*
D15*
X25400000Y-33020000D03*
%TD*%
D16*
%TO.C,IC1*%
X57632600Y-134312400D03*
X56362600Y-134312400D03*
X55092600Y-134312400D03*
X53822600Y-134312400D03*
X52552600Y-134312400D03*
X51282600Y-134312400D03*
X50012600Y-134312400D03*
X48742600Y-134312400D03*
X48742600Y-143662400D03*
X50012600Y-143662400D03*
X51282600Y-143662400D03*
X52552600Y-143662400D03*
X53822600Y-143662400D03*
X55092600Y-143662400D03*
X56362600Y-143662400D03*
X57632600Y-143662400D03*
%TD*%
D17*
%TO.C,D19*%
X43650000Y-150825000D03*
X43650000Y-148775000D03*
%TD*%
D13*
%TO.C,C37*%
X32387500Y-140800000D03*
X35512500Y-140800000D03*
%TD*%
D17*
%TO.C,D15*%
X27200000Y-119206000D03*
X27200000Y-117156000D03*
%TD*%
D18*
%TO.C,U3*%
X50895000Y-161090000D03*
D19*
X50895000Y-158550000D03*
X50895000Y-156010000D03*
%TD*%
D20*
%TO.C,PS1*%
X16365000Y-152595500D03*
D21*
X16365000Y-150055500D03*
X16365000Y-147515500D03*
X16365000Y-142435500D03*
X16365000Y-139895500D03*
X16365000Y-137355500D03*
X16365000Y-134815500D03*
%TD*%
D22*
%TO.C,J2*%
X55706000Y-150977600D03*
D23*
X58206000Y-150977600D03*
X60706000Y-150977600D03*
X63206000Y-150977600D03*
X65706000Y-150977600D03*
X68206000Y-150977600D03*
X70706000Y-150977600D03*
X73206000Y-150977600D03*
%TD*%
D24*
%TO.C,R23*%
X23506880Y-119324000D03*
X25331880Y-119324000D03*
%TD*%
D25*
%TO.C,C25*%
X24892000Y-56314000D03*
X24892000Y-78814000D03*
%TD*%
D26*
%TO.C,R5*%
X16764000Y-58580000D03*
X16764000Y-78580000D03*
%TD*%
D27*
%TO.C,IC3*%
X18796000Y-121666000D03*
X23876000Y-121666000D03*
D28*
X16256000Y-121666000D03*
D27*
X28956000Y-121666000D03*
%TD*%
D29*
%TO.C,D6*%
X78054200Y-123128400D03*
X78054200Y-128128400D03*
%TD*%
D30*
%TO.C,J9*%
X60250000Y-144600000D03*
D31*
X61520000Y-144600000D03*
%TD*%
D32*
%TO.C,R28*%
X59900000Y-141950000D03*
X61900000Y-141950000D03*
%TD*%
D33*
%TO.C,J3*%
X91622200Y-160914400D03*
D34*
X91622200Y-158414400D03*
%TD*%
D24*
%TO.C,R18*%
X76102200Y-151638000D03*
X77927200Y-151638000D03*
%TD*%
D35*
%TO.C,C3*%
X43612500Y-129600000D03*
X40487500Y-129600000D03*
%TD*%
D36*
%TO.C,C15*%
X39662200Y-147653300D03*
X39662200Y-150778300D03*
%TD*%
D12*
%TO.C,R1*%
X51435000Y-130159000D03*
X51435000Y-128159000D03*
%TD*%
D37*
%TO.C,R4*%
X75412600Y-131214500D03*
X75412600Y-129389500D03*
%TD*%
D18*
%TO.C,U2*%
X77266800Y-161074500D03*
D19*
X77266800Y-158534500D03*
X77266800Y-155994500D03*
%TD*%
D38*
%TO.C,J13*%
X86100000Y-72480000D03*
D39*
X86100000Y-69940000D03*
%TD*%
D24*
%TO.C,R20*%
X76076800Y-148513800D03*
X77901800Y-148513800D03*
%TD*%
D40*
%TO.C,C20*%
X48487500Y-132207000D03*
X46762500Y-132207000D03*
%TD*%
D16*
%TO.C,IC5*%
X73050400Y-134210800D03*
X71780400Y-134210800D03*
X70510400Y-134210800D03*
X69240400Y-134210800D03*
X67970400Y-134210800D03*
X66700400Y-134210800D03*
X65430400Y-134210800D03*
X64160400Y-134210800D03*
X64160400Y-143560800D03*
X65430400Y-143560800D03*
X66700400Y-143560800D03*
X67970400Y-143560800D03*
X69240400Y-143560800D03*
X70510400Y-143560800D03*
X71780400Y-143560800D03*
X73050400Y-143560800D03*
%TD*%
D30*
%TO.C,J8*%
X88420000Y-78550000D03*
D31*
X87150000Y-78550000D03*
%TD*%
D41*
%TO.C,C36*%
X39837500Y-145800000D03*
X41562500Y-145800000D03*
%TD*%
D26*
%TO.C,R6*%
X16764000Y-87536000D03*
X16764000Y-107536000D03*
%TD*%
D32*
%TO.C,R33*%
X18550000Y-113850000D03*
X20550000Y-113850000D03*
%TD*%
D40*
%TO.C,C4*%
X40112500Y-131650000D03*
X38387500Y-131650000D03*
%TD*%
D42*
%TO.C,U4*%
X46050600Y-159145000D03*
X46050600Y-156845000D03*
D43*
X39750600Y-156845000D03*
D42*
X46050600Y-154545000D03*
%TD*%
D27*
%TO.C,IC2*%
X32411800Y-156688200D03*
X32411800Y-151608200D03*
D44*
X32411800Y-159228200D03*
D27*
X32411800Y-146528200D03*
%TD*%
D18*
%TO.C,U1*%
X26873200Y-161112200D03*
D19*
X26873200Y-158572200D03*
X26873200Y-156032200D03*
%TD*%
D24*
%TO.C,R19*%
X76078700Y-150063200D03*
X77903700Y-150063200D03*
%TD*%
D22*
%TO.C,J6*%
X81450000Y-107800000D03*
D23*
X83950000Y-107800000D03*
X86450000Y-107800000D03*
%TD*%
D32*
%TO.C,R29*%
X27150000Y-113950000D03*
X29150000Y-113950000D03*
%TD*%
D41*
%TO.C,C23*%
X75362900Y-133477000D03*
X77087900Y-133477000D03*
%TD*%
D27*
%TO.C,IC4*%
X92075000Y-126390000D03*
X92075000Y-131470000D03*
D45*
X92075000Y-123850000D03*
D27*
X92075000Y-136550000D03*
%TD*%
D25*
%TO.C,C24*%
X24892000Y-108278000D03*
X24892000Y-85778000D03*
%TD*%
D32*
%TO.C,R31*%
X22500000Y-113850000D03*
X24500000Y-113850000D03*
%TD*%
D12*
%TO.C,R3*%
X66878200Y-130286000D03*
X66878200Y-128286000D03*
%TD*%
D46*
%TO.C,R32*%
X16350000Y-111850000D03*
X16350000Y-113850000D03*
%TD*%
D35*
%TO.C,C9*%
X23622000Y-130302000D03*
X20497000Y-130302000D03*
%TD*%
D30*
%TO.C,J11*%
X87500000Y-35850000D03*
D31*
X87500000Y-37120000D03*
%TD*%
D47*
%TO.C,R27*%
X41846600Y-147592100D03*
X41846600Y-149417100D03*
%TD*%
D48*
%TO.C,R24*%
X25318500Y-117038000D03*
X23493500Y-117038000D03*
%TD*%
D20*
%TO.C,PS2*%
X81744600Y-161440000D03*
D21*
X81744600Y-158900000D03*
X81744600Y-156360000D03*
X81744600Y-151280000D03*
X81744600Y-148740000D03*
X81744600Y-146200000D03*
X81744600Y-143660000D03*
%TD*%
D49*
%TO.C,J7*%
X86350000Y-31800000D03*
D23*
X83850000Y-31800000D03*
X81350000Y-31800000D03*
%TD*%
D50*
%TO.C,J1*%
X16835800Y-158414400D03*
D34*
X16835800Y-160914400D03*
%TD*%
D51*
%TO.C,C10*%
X90195400Y-151346300D03*
X90195400Y-148221300D03*
%TD*%
D52*
%TO.C,R30*%
X38600000Y-129500000D03*
X36600000Y-129500000D03*
%TD*%
D53*
%TO.C,U9*%
X76680000Y-88730000D03*
X91920000Y-45550000D03*
X76680000Y-83650000D03*
X76680000Y-86190000D03*
X91920000Y-40470000D03*
X91920000Y-43010000D03*
X91920000Y-48090000D03*
X91920000Y-78570000D03*
X91920000Y-76030000D03*
X91920000Y-73490000D03*
X91920000Y-70950000D03*
X91920000Y-68410000D03*
X91920000Y-65870000D03*
X91920000Y-63330000D03*
X91920000Y-60790000D03*
X76680000Y-50630000D03*
X76680000Y-53170000D03*
X76680000Y-55710000D03*
X76680000Y-58250000D03*
X76680000Y-60790000D03*
X76680000Y-63330000D03*
X91920000Y-58250000D03*
X91920000Y-55710000D03*
X76680000Y-65870000D03*
X76680000Y-68410000D03*
X76680000Y-70950000D03*
X76680000Y-73490000D03*
X76680000Y-76030000D03*
X76680000Y-78570000D03*
X76680000Y-81110000D03*
X91920000Y-53170000D03*
X91920000Y-50630000D03*
X76680000Y-40470000D03*
X76680000Y-43010000D03*
X76680000Y-45550000D03*
X76680000Y-48090000D03*
X91920000Y-86190000D03*
X91920000Y-83650000D03*
X91920000Y-81110000D03*
X91920000Y-88730000D03*
%TD*%
D30*
%TO.C,J10*%
X83950000Y-99250000D03*
D31*
X83950000Y-100520000D03*
%TD*%
D54*
%TO.C,D14*%
X21612000Y-117156000D03*
X21612000Y-119206000D03*
%TD*%
D41*
%TO.C,C29*%
X41987500Y-131700000D03*
X43712500Y-131700000D03*
%TD*%
D51*
%TO.C,C13*%
X90220800Y-146037700D03*
X90220800Y-142912700D03*
%TD*%
D12*
%TO.C,R11*%
X53721000Y-130159000D03*
X53721000Y-128159000D03*
%TD*%
D55*
%TO.C,D20*%
X51000000Y-147900000D03*
X48100000Y-147900000D03*
%TD*%
D14*
%TO.C,D7*%
X17272000Y-33020000D03*
D15*
X17272000Y-48260000D03*
%TD*%
D56*
%TO.C,J5*%
X86100000Y-67400000D03*
D57*
X86100000Y-64900000D03*
X86100000Y-62400000D03*
X86100000Y-59900000D03*
X86100000Y-57400000D03*
X86100000Y-54900000D03*
X86100000Y-52400000D03*
X86100000Y-49900000D03*
%TD*%
D58*
%TO.C,U7*%
X84010800Y-116249800D03*
X84010800Y-22249800D03*
X38010800Y-116249800D03*
X38010800Y-22249800D03*
D59*
X61010800Y-41249800D03*
X61010800Y-69249800D03*
X61010800Y-97249800D03*
D60*
X73837800Y-119212800D03*
X73837800Y-115402800D03*
X67741800Y-119212800D03*
X67741800Y-115402800D03*
X46659800Y-119212800D03*
X46659800Y-115402800D03*
X52755800Y-119212800D03*
X52755800Y-115402800D03*
%TD*%
D30*
%TO.C,J4*%
X59461400Y-148742400D03*
D31*
X58191400Y-148742400D03*
X56921400Y-148742400D03*
%TD*%
D38*
%TO.C,J12*%
X50620000Y-150977600D03*
D39*
X53160000Y-150977600D03*
%TD*%
M02*
