%TF.GenerationSoftware,KiCad,Pcbnew,7.0.9*%
%TF.CreationDate,2024-10-22T00:58:30+05:30*%
%TF.ProjectId,Inverter,496e7665-7274-4657-922e-6b696361645f,rev?*%
%TF.SameCoordinates,Original*%
%TF.FileFunction,Plated,1,6,PTH,Drill*%
%TF.FilePolarity,Positive*%
%FSLAX46Y46*%
G04 Gerber Fmt 4.6, Leading zero omitted, Abs format (unit mm)*
G04 Created by KiCad (PCBNEW 7.0.9) date 2024-10-22 00:58:30*
%MOMM*%
%LPD*%
G01*
G04 APERTURE LIST*
%TA.AperFunction,ViaDrill*%
%ADD10C,0.400000*%
%TD*%
%TA.AperFunction,ComponentDrill*%
%ADD11C,0.650000*%
%TD*%
%TA.AperFunction,ComponentDrill*%
%ADD12C,0.700000*%
%TD*%
%TA.AperFunction,ComponentDrill*%
%ADD13C,0.762000*%
%TD*%
%TA.AperFunction,ComponentDrill*%
%ADD14C,0.800000*%
%TD*%
%TA.AperFunction,ComponentDrill*%
%ADD15C,0.950000*%
%TD*%
%TA.AperFunction,ComponentDrill*%
%ADD16C,1.000000*%
%TD*%
%TA.AperFunction,ComponentDrill*%
%ADD17C,1.100000*%
%TD*%
%TA.AperFunction,ComponentDrill*%
%ADD18C,1.200000*%
%TD*%
%TA.AperFunction,ComponentDrill*%
%ADD19C,1.300000*%
%TD*%
%TA.AperFunction,ComponentDrill*%
%ADD20C,1.400000*%
%TD*%
%TA.AperFunction,ComponentDrill*%
%ADD21C,6.400000*%
%TD*%
G04 APERTURE END LIST*
D10*
X25549000Y-120721000D03*
X26035000Y-130429000D03*
X26137000Y-139319000D03*
X27073000Y-120721000D03*
X30500000Y-79550000D03*
X30700000Y-114350000D03*
X31877000Y-125476000D03*
X31877000Y-130302000D03*
X32850000Y-142750000D03*
X33500000Y-124250000D03*
X34350000Y-124950000D03*
X34400000Y-127700000D03*
X36600000Y-124250000D03*
X36982400Y-140665200D03*
X37200000Y-124950000D03*
X37650000Y-126800000D03*
X39250000Y-126400000D03*
X39662200Y-147653300D03*
X39662200Y-150778300D03*
X42516080Y-145035270D03*
X43450000Y-145550000D03*
X43723749Y-129550275D03*
X46050600Y-156845000D03*
X46355000Y-134874000D03*
X46650000Y-140200000D03*
X48487500Y-131977500D03*
X48729500Y-136779000D03*
X50200000Y-142137898D03*
X50368200Y-146354800D03*
X51054000Y-143136900D03*
X51348000Y-124587000D03*
X52140106Y-140167201D03*
X52400200Y-141452600D03*
X52400200Y-143417800D03*
X52578000Y-145771100D03*
X52920645Y-135580944D03*
X54152800Y-147220100D03*
X54168098Y-143443200D03*
X54330600Y-141427200D03*
X55494201Y-135560703D03*
X56362600Y-134312400D03*
X56565800Y-145161000D03*
X56750000Y-131800000D03*
X58928000Y-131191000D03*
X60401200Y-147220100D03*
X62385200Y-124587000D03*
X62636400Y-132384800D03*
X62661800Y-137210800D03*
X62700000Y-141500000D03*
X62915800Y-145771100D03*
X64706100Y-136956800D03*
X65582800Y-141579600D03*
X65735200Y-145643600D03*
X65836800Y-147472400D03*
X67741800Y-140411200D03*
X68000000Y-132155300D03*
X68100000Y-124650000D03*
X68148200Y-135407400D03*
X68148200Y-145770600D03*
X68206000Y-148640800D03*
X69037200Y-140436600D03*
X69900800Y-147574000D03*
X70250000Y-135750000D03*
X70485000Y-143468600D03*
X70561200Y-139827000D03*
X70586600Y-146481800D03*
X72125898Y-133654800D03*
X72161400Y-147675600D03*
X72212200Y-145135600D03*
X72250000Y-146400000D03*
X72694800Y-136144000D03*
X73152000Y-141478000D03*
X73456800Y-135229600D03*
X74000000Y-148650000D03*
X74599800Y-137414000D03*
X75000000Y-146000000D03*
X75539600Y-134696200D03*
X77114400Y-135966200D03*
X77834600Y-148005800D03*
X77834600Y-149987000D03*
X77834600Y-151968200D03*
X78000000Y-90950000D03*
X78300000Y-57450000D03*
X78300000Y-69100000D03*
X78350000Y-51550000D03*
X78816200Y-131546600D03*
X80750000Y-90950000D03*
X81500000Y-42950000D03*
X81900000Y-134700000D03*
X82200000Y-93800000D03*
X82750000Y-64350000D03*
X84226400Y-146456400D03*
X84950000Y-43000000D03*
X84950000Y-93800000D03*
X86600000Y-75050000D03*
X89382600Y-140004800D03*
X90754200Y-139877800D03*
X91998800Y-151714200D03*
X92430600Y-146278600D03*
D11*
%TO.C,J9*%
X60250000Y-144600000D03*
X61520000Y-144600000D03*
%TO.C,J10*%
X83950000Y-99250000D03*
X83950000Y-100520000D03*
%TO.C,J8*%
X87150000Y-78550000D03*
%TO.C,J11*%
X87500000Y-35850000D03*
X87500000Y-37120000D03*
%TO.C,J8*%
X88420000Y-78550000D03*
D12*
%TO.C,J4*%
X56921400Y-148742400D03*
X58191400Y-148742400D03*
X59461400Y-148742400D03*
D13*
%TO.C,U9*%
X76680000Y-40470000D03*
X76680000Y-43010000D03*
X76680000Y-45550000D03*
X76680000Y-48090000D03*
X76680000Y-50630000D03*
X76680000Y-53170000D03*
X76680000Y-55710000D03*
X76680000Y-58250000D03*
X76680000Y-60790000D03*
X76680000Y-63330000D03*
X76680000Y-65870000D03*
X76680000Y-68410000D03*
X76680000Y-70950000D03*
X76680000Y-73490000D03*
X76680000Y-76030000D03*
X76680000Y-78570000D03*
X76680000Y-81110000D03*
X76680000Y-83650000D03*
X76680000Y-86190000D03*
X76680000Y-88730000D03*
X91920000Y-40470000D03*
X91920000Y-43010000D03*
X91920000Y-45550000D03*
X91920000Y-48090000D03*
X91920000Y-50630000D03*
X91920000Y-53170000D03*
X91920000Y-55710000D03*
X91920000Y-58250000D03*
X91920000Y-60790000D03*
X91920000Y-63330000D03*
X91920000Y-65870000D03*
X91920000Y-68410000D03*
X91920000Y-70950000D03*
X91920000Y-73490000D03*
X91920000Y-76030000D03*
X91920000Y-78570000D03*
X91920000Y-81110000D03*
X91920000Y-83650000D03*
X91920000Y-86190000D03*
X91920000Y-88730000D03*
D14*
%TO.C,IC3*%
X16256000Y-121666000D03*
X18796000Y-121666000D03*
X23876000Y-121666000D03*
X28956000Y-121666000D03*
%TO.C,IC2*%
X32411800Y-146528200D03*
X32411800Y-151608200D03*
X32411800Y-156688200D03*
X32411800Y-159228200D03*
%TO.C,IC4*%
X92075000Y-123850000D03*
X92075000Y-126390000D03*
X92075000Y-131470000D03*
X92075000Y-136550000D03*
D15*
%TO.C,J2*%
X55706000Y-150977600D03*
X58206000Y-150977600D03*
X60706000Y-150977600D03*
X63206000Y-150977600D03*
X65706000Y-150977600D03*
X68206000Y-150977600D03*
X70706000Y-150977600D03*
X73206000Y-150977600D03*
%TO.C,J7*%
X81350000Y-31800000D03*
%TO.C,J6*%
X81450000Y-107800000D03*
%TO.C,J7*%
X83850000Y-31800000D03*
%TO.C,J6*%
X83950000Y-107800000D03*
%TO.C,J5*%
X86100000Y-49900000D03*
X86100000Y-52400000D03*
X86100000Y-54900000D03*
X86100000Y-57400000D03*
X86100000Y-59900000D03*
X86100000Y-62400000D03*
X86100000Y-64900000D03*
X86100000Y-67400000D03*
%TO.C,J7*%
X86350000Y-31800000D03*
%TO.C,J6*%
X86450000Y-107800000D03*
D16*
%TO.C,PS1*%
X16365000Y-134815500D03*
X16365000Y-137355500D03*
X16365000Y-139895500D03*
X16365000Y-142435500D03*
X16365000Y-147515500D03*
X16365000Y-150055500D03*
X16365000Y-152595500D03*
%TO.C,J1*%
X16835800Y-158414400D03*
X16835800Y-160914400D03*
%TO.C,J12*%
X50620000Y-150977600D03*
X53160000Y-150977600D03*
%TO.C,PS2*%
X81744600Y-143660000D03*
X81744600Y-146200000D03*
X81744600Y-148740000D03*
X81744600Y-151280000D03*
X81744600Y-156360000D03*
X81744600Y-158900000D03*
X81744600Y-161440000D03*
%TO.C,J13*%
X86100000Y-69940000D03*
X86100000Y-72480000D03*
%TO.C,J3*%
X91622200Y-158414400D03*
X91622200Y-160914400D03*
D17*
%TO.C,U1*%
X26873200Y-156032200D03*
X26873200Y-158572200D03*
X26873200Y-161112200D03*
%TO.C,U3*%
X50895000Y-156010000D03*
X50895000Y-158550000D03*
X50895000Y-161090000D03*
%TO.C,U2*%
X77266800Y-155994500D03*
X77266800Y-158534500D03*
X77266800Y-161074500D03*
D18*
%TO.C,C25*%
X24892000Y-56314000D03*
X24892000Y-78814000D03*
%TO.C,C24*%
X24892000Y-85778000D03*
X24892000Y-108278000D03*
D19*
%TO.C,D7*%
X17272000Y-33020000D03*
X17272000Y-48260000D03*
%TO.C,D8*%
X25400000Y-33020000D03*
X25400000Y-48260000D03*
%TO.C,U7*%
X46659800Y-115402800D03*
X46659800Y-119212800D03*
X52755800Y-115402800D03*
X52755800Y-119212800D03*
X67741800Y-115402800D03*
X67741800Y-119212800D03*
X73837800Y-115402800D03*
X73837800Y-119212800D03*
D20*
%TO.C,R5*%
X16764000Y-58580000D03*
X16764000Y-78580000D03*
%TO.C,R6*%
X16764000Y-87536000D03*
X16764000Y-107536000D03*
D21*
%TO.C,U7*%
X61010800Y-41249800D03*
X61010800Y-69249800D03*
X61010800Y-97249800D03*
M02*
