%TF.GenerationSoftware,KiCad,Pcbnew,7.0.9*%
%TF.CreationDate,2024-05-31T16:15:52+05:30*%
%TF.ProjectId,LU,4c552e6b-6963-4616-945f-706362585858,v1.0*%
%TF.SameCoordinates,Original*%
%TF.FileFunction,Paste,Bot*%
%TF.FilePolarity,Positive*%
%FSLAX46Y46*%
G04 Gerber Fmt 4.6, Leading zero omitted, Abs format (unit mm)*
G04 Created by KiCad (PCBNEW 7.0.9) date 2024-05-31 16:15:52*
%MOMM*%
%LPD*%
G01*
G04 APERTURE LIST*
G04 Aperture macros list*
%AMRoundRect*
0 Rectangle with rounded corners*
0 $1 Rounding radius*
0 $2 $3 $4 $5 $6 $7 $8 $9 X,Y pos of 4 corners*
0 Add a 4 corners polygon primitive as box body*
4,1,4,$2,$3,$4,$5,$6,$7,$8,$9,$2,$3,0*
0 Add four circle primitives for the rounded corners*
1,1,$1+$1,$2,$3*
1,1,$1+$1,$4,$5*
1,1,$1+$1,$6,$7*
1,1,$1+$1,$8,$9*
0 Add four rect primitives between the rounded corners*
20,1,$1+$1,$2,$3,$4,$5,0*
20,1,$1+$1,$4,$5,$6,$7,0*
20,1,$1+$1,$6,$7,$8,$9,0*
20,1,$1+$1,$8,$9,$2,$3,0*%
G04 Aperture macros list end*
%ADD10RoundRect,0.249999X0.450001X1.425001X-0.450001X1.425001X-0.450001X-1.425001X0.450001X-1.425001X0*%
%ADD11RoundRect,0.250000X0.650000X-0.412500X0.650000X0.412500X-0.650000X0.412500X-0.650000X-0.412500X0*%
%ADD12RoundRect,0.250000X-0.412500X-0.650000X0.412500X-0.650000X0.412500X0.650000X-0.412500X0.650000X0*%
%ADD13RoundRect,0.250000X-0.650000X1.500000X-0.650000X-1.500000X0.650000X-1.500000X0.650000X1.500000X0*%
%ADD14RoundRect,0.250000X0.350000X0.450000X-0.350000X0.450000X-0.350000X-0.450000X0.350000X-0.450000X0*%
%ADD15RoundRect,0.250000X-0.450000X0.350000X-0.450000X-0.350000X0.450000X-0.350000X0.450000X0.350000X0*%
%ADD16RoundRect,0.250000X-0.350000X-0.450000X0.350000X-0.450000X0.350000X0.450000X-0.350000X0.450000X0*%
%ADD17RoundRect,0.250000X-0.650000X0.412500X-0.650000X-0.412500X0.650000X-0.412500X0.650000X0.412500X0*%
%ADD18RoundRect,0.249999X-1.425001X0.450001X-1.425001X-0.450001X1.425001X-0.450001X1.425001X0.450001X0*%
%ADD19RoundRect,0.250000X0.450000X-0.350000X0.450000X0.350000X-0.450000X0.350000X-0.450000X-0.350000X0*%
%ADD20RoundRect,0.237500X-0.237500X0.300000X-0.237500X-0.300000X0.237500X-0.300000X0.237500X0.300000X0*%
%ADD21R,1.500000X2.000000*%
%ADD22R,3.800000X2.000000*%
%ADD23RoundRect,0.250000X0.475000X-0.337500X0.475000X0.337500X-0.475000X0.337500X-0.475000X-0.337500X0*%
%ADD24RoundRect,0.250000X0.412500X0.650000X-0.412500X0.650000X-0.412500X-0.650000X0.412500X-0.650000X0*%
%ADD25RoundRect,0.250000X-0.475000X0.337500X-0.475000X-0.337500X0.475000X-0.337500X0.475000X0.337500X0*%
%ADD26RoundRect,0.250000X0.337500X0.475000X-0.337500X0.475000X-0.337500X-0.475000X0.337500X-0.475000X0*%
%ADD27RoundRect,0.237500X0.237500X-0.250000X0.237500X0.250000X-0.237500X0.250000X-0.237500X-0.250000X0*%
%ADD28RoundRect,0.250000X1.500000X0.650000X-1.500000X0.650000X-1.500000X-0.650000X1.500000X-0.650000X0*%
%ADD29RoundRect,0.150000X0.150000X-0.825000X0.150000X0.825000X-0.150000X0.825000X-0.150000X-0.825000X0*%
%ADD30RoundRect,0.237500X0.237500X-0.300000X0.237500X0.300000X-0.237500X0.300000X-0.237500X-0.300000X0*%
%ADD31R,1.780000X1.520000*%
%ADD32R,1.750000X1.520000*%
%ADD33RoundRect,0.150000X-0.825000X-0.150000X0.825000X-0.150000X0.825000X0.150000X-0.825000X0.150000X0*%
G04 APERTURE END LIST*
D10*
%TO.C,R19*%
X139230000Y-83760000D03*
X133130000Y-83760000D03*
%TD*%
D11*
%TO.C,C21*%
X47180000Y-36422500D03*
X47180000Y-33297500D03*
%TD*%
D12*
%TO.C,C61*%
X27117500Y-77260000D03*
X30242500Y-77260000D03*
%TD*%
D13*
%TO.C,D4*%
X51180000Y-30260000D03*
X51180000Y-35260000D03*
%TD*%
D11*
%TO.C,C8*%
X15117500Y-49322500D03*
X15117500Y-46197500D03*
%TD*%
D14*
%TO.C,R38*%
X53940000Y-114680000D03*
X51940000Y-114680000D03*
%TD*%
D11*
%TO.C,C1*%
X14680000Y-26322500D03*
X14680000Y-23197500D03*
%TD*%
D15*
%TO.C,R74*%
X23380000Y-101760000D03*
X23380000Y-103760000D03*
%TD*%
D10*
%TO.C,R23*%
X139230000Y-99760000D03*
X133130000Y-99760000D03*
%TD*%
D16*
%TO.C,R66*%
X23585000Y-14760000D03*
X25585000Y-14760000D03*
%TD*%
D17*
%TO.C,C56*%
X39930000Y-91697500D03*
X39930000Y-94822500D03*
%TD*%
D16*
%TO.C,R76*%
X42580000Y-91760000D03*
X44580000Y-91760000D03*
%TD*%
D18*
%TO.C,R11*%
X68430000Y-93710000D03*
X68430000Y-99810000D03*
%TD*%
D11*
%TO.C,C18*%
X39680000Y-37822500D03*
X39680000Y-34697500D03*
%TD*%
D19*
%TO.C,R40*%
X58060000Y-116730000D03*
X58060000Y-114730000D03*
%TD*%
D20*
%TO.C,C20*%
X52880000Y-60397500D03*
X52880000Y-62122500D03*
%TD*%
D16*
%TO.C,R55*%
X46890000Y-101790000D03*
X48890000Y-101790000D03*
%TD*%
D11*
%TO.C,C11*%
X20180000Y-48822500D03*
X20180000Y-45697500D03*
%TD*%
D10*
%TO.C,R26*%
X139230000Y-111770000D03*
X133130000Y-111770000D03*
%TD*%
D21*
%TO.C,U7*%
X44080000Y-107120000D03*
X41780000Y-107120000D03*
D22*
X41780000Y-100820000D03*
D21*
X39480000Y-107120000D03*
%TD*%
D23*
%TO.C,C5*%
X51870000Y-99297500D03*
X51870000Y-97222500D03*
%TD*%
D24*
%TO.C,C59*%
X29805000Y-104260000D03*
X26680000Y-104260000D03*
%TD*%
D11*
%TO.C,C19*%
X47080000Y-56622500D03*
X47080000Y-53497500D03*
%TD*%
D24*
%TO.C,C6*%
X45242500Y-21860000D03*
X42117500Y-21860000D03*
%TD*%
D16*
%TO.C,R33*%
X53820000Y-97260000D03*
X55820000Y-97260000D03*
%TD*%
D25*
%TO.C,C63*%
X24430000Y-87472500D03*
X24430000Y-89547500D03*
%TD*%
D18*
%TO.C,R57*%
X88430000Y-93710000D03*
X88430000Y-99810000D03*
%TD*%
D12*
%TO.C,C7*%
X15117500Y-110760000D03*
X18242500Y-110760000D03*
%TD*%
D26*
%TO.C,C50*%
X48967500Y-99510000D03*
X46892500Y-99510000D03*
%TD*%
D21*
%TO.C,U8*%
X31330000Y-36610000D03*
X29030000Y-36610000D03*
D22*
X29030000Y-30310000D03*
D21*
X26730000Y-36610000D03*
%TD*%
D13*
%TO.C,D2*%
X50280000Y-60060000D03*
X50280000Y-65060000D03*
%TD*%
D19*
%TO.C,R73*%
X23380000Y-96760000D03*
X23380000Y-94760000D03*
%TD*%
%TO.C,R72*%
X32980000Y-103560000D03*
X32980000Y-101560000D03*
%TD*%
D12*
%TO.C,C73*%
X27117500Y-67760000D03*
X30242500Y-67760000D03*
%TD*%
D10*
%TO.C,R17*%
X139230000Y-75760000D03*
X133130000Y-75760000D03*
%TD*%
D11*
%TO.C,C26*%
X65180000Y-98322500D03*
X65180000Y-95197500D03*
%TD*%
%TO.C,C16*%
X49140000Y-111130000D03*
X49140000Y-108005000D03*
%TD*%
D16*
%TO.C,R77*%
X42580000Y-84960000D03*
X44580000Y-84960000D03*
%TD*%
%TO.C,R34*%
X53850000Y-99350000D03*
X55850000Y-99350000D03*
%TD*%
D19*
%TO.C,R70*%
X28780000Y-92760000D03*
X28780000Y-90760000D03*
%TD*%
D13*
%TO.C,D1*%
X50280000Y-50960000D03*
X50280000Y-55960000D03*
%TD*%
D15*
%TO.C,R8*%
X36680000Y-32260000D03*
X36680000Y-34260000D03*
%TD*%
D16*
%TO.C,R36*%
X59960000Y-100030000D03*
X61960000Y-100030000D03*
%TD*%
D20*
%TO.C,C23*%
X53780000Y-40697500D03*
X53780000Y-42422500D03*
%TD*%
D17*
%TO.C,C14*%
X30430000Y-38947500D03*
X30430000Y-42072500D03*
%TD*%
D23*
%TO.C,C62*%
X25180000Y-83797500D03*
X25180000Y-81722500D03*
%TD*%
D11*
%TO.C,C10*%
X46480000Y-30222500D03*
X46480000Y-27097500D03*
%TD*%
%TO.C,C22*%
X39680000Y-57760000D03*
X39680000Y-54635000D03*
%TD*%
D14*
%TO.C,R53*%
X49480000Y-105910000D03*
X47480000Y-105910000D03*
%TD*%
D25*
%TO.C,C66*%
X33680000Y-89472500D03*
X33680000Y-91547500D03*
%TD*%
%TO.C,C40*%
X49930000Y-78222500D03*
X49930000Y-80297500D03*
%TD*%
D24*
%TO.C,C25*%
X41492500Y-71510000D03*
X38367500Y-71510000D03*
%TD*%
D12*
%TO.C,C4*%
X38237500Y-112570000D03*
X41362500Y-112570000D03*
%TD*%
D27*
%TO.C,R2*%
X52780000Y-52572500D03*
X52780000Y-50747500D03*
%TD*%
D16*
%TO.C,R51*%
X56810000Y-103510000D03*
X58810000Y-103510000D03*
%TD*%
D25*
%TO.C,C67*%
X26480000Y-85522500D03*
X26480000Y-87597500D03*
%TD*%
D10*
%TO.C,R24*%
X139230000Y-103760000D03*
X133130000Y-103760000D03*
%TD*%
D18*
%TO.C,R15*%
X84430000Y-93710000D03*
X84430000Y-99810000D03*
%TD*%
D15*
%TO.C,R50*%
X52850000Y-101500000D03*
X52850000Y-103500000D03*
%TD*%
D28*
%TO.C,D3*%
X59080000Y-48160000D03*
X54080000Y-48160000D03*
%TD*%
D17*
%TO.C,C68*%
X31430000Y-89697500D03*
X31430000Y-92822500D03*
%TD*%
D10*
%TO.C,R21*%
X139230000Y-91760000D03*
X133130000Y-91760000D03*
%TD*%
D28*
%TO.C,D6*%
X57480000Y-26360000D03*
X52480000Y-26360000D03*
%TD*%
D19*
%TO.C,R52*%
X50820000Y-103470000D03*
X50820000Y-101470000D03*
%TD*%
D29*
%TO.C,U6*%
X59030000Y-111945000D03*
X57760000Y-111945000D03*
X56490000Y-111945000D03*
X55220000Y-111945000D03*
X53950000Y-111945000D03*
X52680000Y-111945000D03*
X51410000Y-111945000D03*
X51410000Y-106995000D03*
X52680000Y-106995000D03*
X53950000Y-106995000D03*
X55220000Y-106995000D03*
X56490000Y-106995000D03*
X57760000Y-106995000D03*
X59030000Y-106995000D03*
%TD*%
D17*
%TO.C,C54*%
X39930000Y-84947500D03*
X39930000Y-88072500D03*
%TD*%
D11*
%TO.C,C3*%
X19400000Y-106782500D03*
X19400000Y-103657500D03*
%TD*%
D17*
%TO.C,C58*%
X35180000Y-98947500D03*
X35180000Y-102072500D03*
%TD*%
D12*
%TO.C,C12*%
X43917500Y-58960000D03*
X47042500Y-58960000D03*
%TD*%
D17*
%TO.C,C41*%
X47680000Y-78447500D03*
X47680000Y-81572500D03*
%TD*%
D30*
%TO.C,C34*%
X41680000Y-36122500D03*
X41680000Y-34397500D03*
%TD*%
D23*
%TO.C,C13*%
X57870000Y-99277500D03*
X57870000Y-97202500D03*
%TD*%
D18*
%TO.C,R12*%
X72430000Y-93710000D03*
X72430000Y-99810000D03*
%TD*%
D23*
%TO.C,C70*%
X37930000Y-27797500D03*
X37930000Y-25722500D03*
%TD*%
D18*
%TO.C,R13*%
X76430000Y-93710000D03*
X76430000Y-99810000D03*
%TD*%
D10*
%TO.C,R20*%
X139230000Y-87760000D03*
X133130000Y-87760000D03*
%TD*%
D16*
%TO.C,R41*%
X59950000Y-114570000D03*
X61950000Y-114570000D03*
%TD*%
D19*
%TO.C,R37*%
X55930000Y-116580000D03*
X55930000Y-114580000D03*
%TD*%
D11*
%TO.C,C2*%
X14680000Y-71822500D03*
X14680000Y-68697500D03*
%TD*%
D10*
%TO.C,R18*%
X139230000Y-79760000D03*
X133130000Y-79760000D03*
%TD*%
D16*
%TO.C,R65*%
X23585000Y-16760000D03*
X25585000Y-16760000D03*
%TD*%
%TO.C,R78*%
X42580000Y-77960000D03*
X44580000Y-77960000D03*
%TD*%
%TO.C,R35*%
X59890000Y-96820000D03*
X61890000Y-96820000D03*
%TD*%
D10*
%TO.C,R25*%
X139230000Y-107760000D03*
X133130000Y-107760000D03*
%TD*%
D12*
%TO.C,C72*%
X27055000Y-52410000D03*
X30180000Y-52410000D03*
%TD*%
D18*
%TO.C,R14*%
X80430000Y-93710000D03*
X80430000Y-99810000D03*
%TD*%
D31*
%TO.C,U15*%
X27975000Y-18300000D03*
D32*
X30515000Y-18300000D03*
D31*
X33055000Y-18300000D03*
X35595000Y-18300000D03*
X35595000Y-27820000D03*
X33055000Y-27820000D03*
X30515000Y-27820000D03*
X27975000Y-27820000D03*
%TD*%
D17*
%TO.C,C46*%
X47680000Y-91697500D03*
X47680000Y-94822500D03*
%TD*%
D23*
%TO.C,C65*%
X33930000Y-83547500D03*
X33930000Y-81472500D03*
%TD*%
D25*
%TO.C,C45*%
X49930000Y-91722500D03*
X49930000Y-93797500D03*
%TD*%
D14*
%TO.C,R54*%
X48810000Y-103890000D03*
X46810000Y-103890000D03*
%TD*%
D27*
%TO.C,R4*%
X54080000Y-31272500D03*
X54080000Y-29447500D03*
%TD*%
D17*
%TO.C,C52*%
X39930000Y-77947500D03*
X39930000Y-81072500D03*
%TD*%
D33*
%TO.C,U13*%
X30630000Y-102280000D03*
X30630000Y-101010000D03*
X30630000Y-99740000D03*
X30630000Y-98470000D03*
X30630000Y-97200000D03*
X30630000Y-95930000D03*
X30630000Y-94660000D03*
X25680000Y-94660000D03*
X25680000Y-95930000D03*
X25680000Y-97200000D03*
X25680000Y-98470000D03*
X25680000Y-99740000D03*
X25680000Y-101010000D03*
X25680000Y-102280000D03*
%TD*%
D13*
%TO.C,D5*%
X51180000Y-39260000D03*
X51180000Y-44260000D03*
%TD*%
D10*
%TO.C,R22*%
X139230000Y-95760000D03*
X133130000Y-95760000D03*
%TD*%
D26*
%TO.C,C60*%
X29217500Y-81510000D03*
X27142500Y-81510000D03*
%TD*%
D15*
%TO.C,R49*%
X54890000Y-101510000D03*
X54890000Y-103510000D03*
%TD*%
D30*
%TO.C,C35*%
X41680000Y-56122500D03*
X41680000Y-54397500D03*
%TD*%
D25*
%TO.C,C43*%
X49930000Y-84722500D03*
X49930000Y-86797500D03*
%TD*%
D11*
%TO.C,C69*%
X38180000Y-18822500D03*
X38180000Y-15697500D03*
%TD*%
D24*
%TO.C,C39*%
X43742500Y-98260000D03*
X40617500Y-98260000D03*
%TD*%
D17*
%TO.C,C44*%
X47680000Y-84947500D03*
X47680000Y-88072500D03*
%TD*%
M02*
