%TF.GenerationSoftware,KiCad,Pcbnew,7.0.9*%
%TF.CreationDate,2024-05-31T16:15:52+05:30*%
%TF.ProjectId,LU,4c552e6b-6963-4616-945f-706362585858,v1.0*%
%TF.SameCoordinates,Original*%
%TF.FileFunction,Legend,Bot*%
%TF.FilePolarity,Positive*%
%FSLAX46Y46*%
G04 Gerber Fmt 4.6, Leading zero omitted, Abs format (unit mm)*
G04 Created by KiCad (PCBNEW 7.0.9) date 2024-05-31 16:15:52*
%MOMM*%
%LPD*%
G01*
G04 APERTURE LIST*
%ADD10C,0.300000*%
%ADD11C,0.150000*%
%ADD12C,0.100000*%
%ADD13C,0.125000*%
%ADD14C,0.254000*%
%ADD15C,0.120000*%
%ADD16C,0.200000*%
G04 APERTURE END LIST*
D10*
X31331203Y-34640828D02*
X31331203Y-34997971D01*
X31688346Y-34855114D02*
X31331203Y-34997971D01*
X31331203Y-34997971D02*
X30974060Y-34855114D01*
X31545489Y-35283685D02*
X31331203Y-34997971D01*
X31331203Y-34997971D02*
X31116917Y-35283685D01*
X44441203Y-105170828D02*
X44441203Y-105527971D01*
X44798346Y-105385114D02*
X44441203Y-105527971D01*
X44441203Y-105527971D02*
X44084060Y-105385114D01*
X44655489Y-105813685D02*
X44441203Y-105527971D01*
X44441203Y-105527971D02*
X44226917Y-105813685D01*
X59011203Y-113150828D02*
X59011203Y-113507971D01*
X59368346Y-113365114D02*
X59011203Y-113507971D01*
X59011203Y-113507971D02*
X58654060Y-113365114D01*
X59225489Y-113793685D02*
X59011203Y-113507971D01*
X59011203Y-113507971D02*
X58796917Y-113793685D01*
X24601203Y-102780828D02*
X24601203Y-103137971D01*
X24958346Y-102995114D02*
X24601203Y-103137971D01*
X24601203Y-103137971D02*
X24244060Y-102995114D01*
X24815489Y-103423685D02*
X24601203Y-103137971D01*
X24601203Y-103137971D02*
X24386917Y-103423685D01*
X27861203Y-19490828D02*
X27861203Y-19847971D01*
X28218346Y-19705114D02*
X27861203Y-19847971D01*
X27861203Y-19847971D02*
X27504060Y-19705114D01*
X28075489Y-20133685D02*
X27861203Y-19847971D01*
X27861203Y-19847971D02*
X27646917Y-20133685D01*
D11*
X136832857Y-84234819D02*
X137166190Y-83758628D01*
X137404285Y-84234819D02*
X137404285Y-83234819D01*
X137404285Y-83234819D02*
X137023333Y-83234819D01*
X137023333Y-83234819D02*
X136928095Y-83282438D01*
X136928095Y-83282438D02*
X136880476Y-83330057D01*
X136880476Y-83330057D02*
X136832857Y-83425295D01*
X136832857Y-83425295D02*
X136832857Y-83568152D01*
X136832857Y-83568152D02*
X136880476Y-83663390D01*
X136880476Y-83663390D02*
X136928095Y-83711009D01*
X136928095Y-83711009D02*
X137023333Y-83758628D01*
X137023333Y-83758628D02*
X137404285Y-83758628D01*
X135880476Y-84234819D02*
X136451904Y-84234819D01*
X136166190Y-84234819D02*
X136166190Y-83234819D01*
X136166190Y-83234819D02*
X136261428Y-83377676D01*
X136261428Y-83377676D02*
X136356666Y-83472914D01*
X136356666Y-83472914D02*
X136451904Y-83520533D01*
X135404285Y-84234819D02*
X135213809Y-84234819D01*
X135213809Y-84234819D02*
X135118571Y-84187200D01*
X135118571Y-84187200D02*
X135070952Y-84139580D01*
X135070952Y-84139580D02*
X134975714Y-83996723D01*
X134975714Y-83996723D02*
X134928095Y-83806247D01*
X134928095Y-83806247D02*
X134928095Y-83425295D01*
X134928095Y-83425295D02*
X134975714Y-83330057D01*
X134975714Y-83330057D02*
X135023333Y-83282438D01*
X135023333Y-83282438D02*
X135118571Y-83234819D01*
X135118571Y-83234819D02*
X135309047Y-83234819D01*
X135309047Y-83234819D02*
X135404285Y-83282438D01*
X135404285Y-83282438D02*
X135451904Y-83330057D01*
X135451904Y-83330057D02*
X135499523Y-83425295D01*
X135499523Y-83425295D02*
X135499523Y-83663390D01*
X135499523Y-83663390D02*
X135451904Y-83758628D01*
X135451904Y-83758628D02*
X135404285Y-83806247D01*
X135404285Y-83806247D02*
X135309047Y-83853866D01*
X135309047Y-83853866D02*
X135118571Y-83853866D01*
X135118571Y-83853866D02*
X135023333Y-83806247D01*
X135023333Y-83806247D02*
X134975714Y-83758628D01*
X134975714Y-83758628D02*
X134928095Y-83663390D01*
X47565714Y-35112628D02*
X47594286Y-35141200D01*
X47594286Y-35141200D02*
X47680000Y-35169771D01*
X47680000Y-35169771D02*
X47737143Y-35169771D01*
X47737143Y-35169771D02*
X47822857Y-35141200D01*
X47822857Y-35141200D02*
X47880000Y-35084057D01*
X47880000Y-35084057D02*
X47908571Y-35026914D01*
X47908571Y-35026914D02*
X47937143Y-34912628D01*
X47937143Y-34912628D02*
X47937143Y-34826914D01*
X47937143Y-34826914D02*
X47908571Y-34712628D01*
X47908571Y-34712628D02*
X47880000Y-34655485D01*
X47880000Y-34655485D02*
X47822857Y-34598342D01*
X47822857Y-34598342D02*
X47737143Y-34569771D01*
X47737143Y-34569771D02*
X47680000Y-34569771D01*
X47680000Y-34569771D02*
X47594286Y-34598342D01*
X47594286Y-34598342D02*
X47565714Y-34626914D01*
X47337143Y-34626914D02*
X47308571Y-34598342D01*
X47308571Y-34598342D02*
X47251429Y-34569771D01*
X47251429Y-34569771D02*
X47108571Y-34569771D01*
X47108571Y-34569771D02*
X47051429Y-34598342D01*
X47051429Y-34598342D02*
X47022857Y-34626914D01*
X47022857Y-34626914D02*
X46994286Y-34684057D01*
X46994286Y-34684057D02*
X46994286Y-34741200D01*
X46994286Y-34741200D02*
X47022857Y-34826914D01*
X47022857Y-34826914D02*
X47365714Y-35169771D01*
X47365714Y-35169771D02*
X46994286Y-35169771D01*
X46422857Y-35169771D02*
X46765714Y-35169771D01*
X46594285Y-35169771D02*
X46594285Y-34569771D01*
X46594285Y-34569771D02*
X46651428Y-34655485D01*
X46651428Y-34655485D02*
X46708571Y-34712628D01*
X46708571Y-34712628D02*
X46765714Y-34741200D01*
X28592628Y-76854285D02*
X28621200Y-76825713D01*
X28621200Y-76825713D02*
X28649771Y-76739999D01*
X28649771Y-76739999D02*
X28649771Y-76682856D01*
X28649771Y-76682856D02*
X28621200Y-76597142D01*
X28621200Y-76597142D02*
X28564057Y-76539999D01*
X28564057Y-76539999D02*
X28506914Y-76511428D01*
X28506914Y-76511428D02*
X28392628Y-76482856D01*
X28392628Y-76482856D02*
X28306914Y-76482856D01*
X28306914Y-76482856D02*
X28192628Y-76511428D01*
X28192628Y-76511428D02*
X28135485Y-76539999D01*
X28135485Y-76539999D02*
X28078342Y-76597142D01*
X28078342Y-76597142D02*
X28049771Y-76682856D01*
X28049771Y-76682856D02*
X28049771Y-76739999D01*
X28049771Y-76739999D02*
X28078342Y-76825713D01*
X28078342Y-76825713D02*
X28106914Y-76854285D01*
X28049771Y-77368571D02*
X28049771Y-77254285D01*
X28049771Y-77254285D02*
X28078342Y-77197142D01*
X28078342Y-77197142D02*
X28106914Y-77168571D01*
X28106914Y-77168571D02*
X28192628Y-77111428D01*
X28192628Y-77111428D02*
X28306914Y-77082856D01*
X28306914Y-77082856D02*
X28535485Y-77082856D01*
X28535485Y-77082856D02*
X28592628Y-77111428D01*
X28592628Y-77111428D02*
X28621200Y-77139999D01*
X28621200Y-77139999D02*
X28649771Y-77197142D01*
X28649771Y-77197142D02*
X28649771Y-77311428D01*
X28649771Y-77311428D02*
X28621200Y-77368571D01*
X28621200Y-77368571D02*
X28592628Y-77397142D01*
X28592628Y-77397142D02*
X28535485Y-77425713D01*
X28535485Y-77425713D02*
X28392628Y-77425713D01*
X28392628Y-77425713D02*
X28335485Y-77397142D01*
X28335485Y-77397142D02*
X28306914Y-77368571D01*
X28306914Y-77368571D02*
X28278342Y-77311428D01*
X28278342Y-77311428D02*
X28278342Y-77197142D01*
X28278342Y-77197142D02*
X28306914Y-77139999D01*
X28306914Y-77139999D02*
X28335485Y-77111428D01*
X28335485Y-77111428D02*
X28392628Y-77082856D01*
X28649771Y-77997142D02*
X28649771Y-77654285D01*
X28649771Y-77825714D02*
X28049771Y-77825714D01*
X28049771Y-77825714D02*
X28135485Y-77768571D01*
X28135485Y-77768571D02*
X28192628Y-77711428D01*
X28192628Y-77711428D02*
X28221200Y-77654285D01*
X51642856Y-33069771D02*
X51642856Y-32469771D01*
X51642856Y-32469771D02*
X51499999Y-32469771D01*
X51499999Y-32469771D02*
X51414285Y-32498342D01*
X51414285Y-32498342D02*
X51357142Y-32555485D01*
X51357142Y-32555485D02*
X51328571Y-32612628D01*
X51328571Y-32612628D02*
X51299999Y-32726914D01*
X51299999Y-32726914D02*
X51299999Y-32812628D01*
X51299999Y-32812628D02*
X51328571Y-32926914D01*
X51328571Y-32926914D02*
X51357142Y-32984057D01*
X51357142Y-32984057D02*
X51414285Y-33041200D01*
X51414285Y-33041200D02*
X51499999Y-33069771D01*
X51499999Y-33069771D02*
X51642856Y-33069771D01*
X50785714Y-32669771D02*
X50785714Y-33069771D01*
X50928571Y-32441200D02*
X51071428Y-32869771D01*
X51071428Y-32869771D02*
X50699999Y-32869771D01*
X15329999Y-47992628D02*
X15358571Y-48021200D01*
X15358571Y-48021200D02*
X15444285Y-48049771D01*
X15444285Y-48049771D02*
X15501428Y-48049771D01*
X15501428Y-48049771D02*
X15587142Y-48021200D01*
X15587142Y-48021200D02*
X15644285Y-47964057D01*
X15644285Y-47964057D02*
X15672856Y-47906914D01*
X15672856Y-47906914D02*
X15701428Y-47792628D01*
X15701428Y-47792628D02*
X15701428Y-47706914D01*
X15701428Y-47706914D02*
X15672856Y-47592628D01*
X15672856Y-47592628D02*
X15644285Y-47535485D01*
X15644285Y-47535485D02*
X15587142Y-47478342D01*
X15587142Y-47478342D02*
X15501428Y-47449771D01*
X15501428Y-47449771D02*
X15444285Y-47449771D01*
X15444285Y-47449771D02*
X15358571Y-47478342D01*
X15358571Y-47478342D02*
X15329999Y-47506914D01*
X14987142Y-47706914D02*
X15044285Y-47678342D01*
X15044285Y-47678342D02*
X15072856Y-47649771D01*
X15072856Y-47649771D02*
X15101428Y-47592628D01*
X15101428Y-47592628D02*
X15101428Y-47564057D01*
X15101428Y-47564057D02*
X15072856Y-47506914D01*
X15072856Y-47506914D02*
X15044285Y-47478342D01*
X15044285Y-47478342D02*
X14987142Y-47449771D01*
X14987142Y-47449771D02*
X14872856Y-47449771D01*
X14872856Y-47449771D02*
X14815714Y-47478342D01*
X14815714Y-47478342D02*
X14787142Y-47506914D01*
X14787142Y-47506914D02*
X14758571Y-47564057D01*
X14758571Y-47564057D02*
X14758571Y-47592628D01*
X14758571Y-47592628D02*
X14787142Y-47649771D01*
X14787142Y-47649771D02*
X14815714Y-47678342D01*
X14815714Y-47678342D02*
X14872856Y-47706914D01*
X14872856Y-47706914D02*
X14987142Y-47706914D01*
X14987142Y-47706914D02*
X15044285Y-47735485D01*
X15044285Y-47735485D02*
X15072856Y-47764057D01*
X15072856Y-47764057D02*
X15101428Y-47821200D01*
X15101428Y-47821200D02*
X15101428Y-47935485D01*
X15101428Y-47935485D02*
X15072856Y-47992628D01*
X15072856Y-47992628D02*
X15044285Y-48021200D01*
X15044285Y-48021200D02*
X14987142Y-48049771D01*
X14987142Y-48049771D02*
X14872856Y-48049771D01*
X14872856Y-48049771D02*
X14815714Y-48021200D01*
X14815714Y-48021200D02*
X14787142Y-47992628D01*
X14787142Y-47992628D02*
X14758571Y-47935485D01*
X14758571Y-47935485D02*
X14758571Y-47821200D01*
X14758571Y-47821200D02*
X14787142Y-47764057D01*
X14787142Y-47764057D02*
X14815714Y-47735485D01*
X14815714Y-47735485D02*
X14872856Y-47706914D01*
D12*
X53159847Y-114402857D02*
X52969371Y-114269524D01*
X53159847Y-114174286D02*
X52759847Y-114174286D01*
X52759847Y-114174286D02*
X52759847Y-114326667D01*
X52759847Y-114326667D02*
X52778895Y-114364762D01*
X52778895Y-114364762D02*
X52797942Y-114383809D01*
X52797942Y-114383809D02*
X52836038Y-114402857D01*
X52836038Y-114402857D02*
X52893180Y-114402857D01*
X52893180Y-114402857D02*
X52931276Y-114383809D01*
X52931276Y-114383809D02*
X52950323Y-114364762D01*
X52950323Y-114364762D02*
X52969371Y-114326667D01*
X52969371Y-114326667D02*
X52969371Y-114174286D01*
X52759847Y-114536190D02*
X52759847Y-114783809D01*
X52759847Y-114783809D02*
X52912228Y-114650476D01*
X52912228Y-114650476D02*
X52912228Y-114707619D01*
X52912228Y-114707619D02*
X52931276Y-114745714D01*
X52931276Y-114745714D02*
X52950323Y-114764762D01*
X52950323Y-114764762D02*
X52988419Y-114783809D01*
X52988419Y-114783809D02*
X53083657Y-114783809D01*
X53083657Y-114783809D02*
X53121752Y-114764762D01*
X53121752Y-114764762D02*
X53140800Y-114745714D01*
X53140800Y-114745714D02*
X53159847Y-114707619D01*
X53159847Y-114707619D02*
X53159847Y-114593333D01*
X53159847Y-114593333D02*
X53140800Y-114555238D01*
X53140800Y-114555238D02*
X53121752Y-114536190D01*
X52931276Y-115012380D02*
X52912228Y-114974285D01*
X52912228Y-114974285D02*
X52893180Y-114955238D01*
X52893180Y-114955238D02*
X52855085Y-114936190D01*
X52855085Y-114936190D02*
X52836038Y-114936190D01*
X52836038Y-114936190D02*
X52797942Y-114955238D01*
X52797942Y-114955238D02*
X52778895Y-114974285D01*
X52778895Y-114974285D02*
X52759847Y-115012380D01*
X52759847Y-115012380D02*
X52759847Y-115088571D01*
X52759847Y-115088571D02*
X52778895Y-115126666D01*
X52778895Y-115126666D02*
X52797942Y-115145714D01*
X52797942Y-115145714D02*
X52836038Y-115164761D01*
X52836038Y-115164761D02*
X52855085Y-115164761D01*
X52855085Y-115164761D02*
X52893180Y-115145714D01*
X52893180Y-115145714D02*
X52912228Y-115126666D01*
X52912228Y-115126666D02*
X52931276Y-115088571D01*
X52931276Y-115088571D02*
X52931276Y-115012380D01*
X52931276Y-115012380D02*
X52950323Y-114974285D01*
X52950323Y-114974285D02*
X52969371Y-114955238D01*
X52969371Y-114955238D02*
X53007466Y-114936190D01*
X53007466Y-114936190D02*
X53083657Y-114936190D01*
X53083657Y-114936190D02*
X53121752Y-114955238D01*
X53121752Y-114955238D02*
X53140800Y-114974285D01*
X53140800Y-114974285D02*
X53159847Y-115012380D01*
X53159847Y-115012380D02*
X53159847Y-115088571D01*
X53159847Y-115088571D02*
X53140800Y-115126666D01*
X53140800Y-115126666D02*
X53121752Y-115145714D01*
X53121752Y-115145714D02*
X53083657Y-115164761D01*
X53083657Y-115164761D02*
X53007466Y-115164761D01*
X53007466Y-115164761D02*
X52969371Y-115145714D01*
X52969371Y-115145714D02*
X52950323Y-115126666D01*
X52950323Y-115126666D02*
X52931276Y-115088571D01*
D11*
X14749999Y-25042628D02*
X14778571Y-25071200D01*
X14778571Y-25071200D02*
X14864285Y-25099771D01*
X14864285Y-25099771D02*
X14921428Y-25099771D01*
X14921428Y-25099771D02*
X15007142Y-25071200D01*
X15007142Y-25071200D02*
X15064285Y-25014057D01*
X15064285Y-25014057D02*
X15092856Y-24956914D01*
X15092856Y-24956914D02*
X15121428Y-24842628D01*
X15121428Y-24842628D02*
X15121428Y-24756914D01*
X15121428Y-24756914D02*
X15092856Y-24642628D01*
X15092856Y-24642628D02*
X15064285Y-24585485D01*
X15064285Y-24585485D02*
X15007142Y-24528342D01*
X15007142Y-24528342D02*
X14921428Y-24499771D01*
X14921428Y-24499771D02*
X14864285Y-24499771D01*
X14864285Y-24499771D02*
X14778571Y-24528342D01*
X14778571Y-24528342D02*
X14749999Y-24556914D01*
X14178571Y-25099771D02*
X14521428Y-25099771D01*
X14349999Y-25099771D02*
X14349999Y-24499771D01*
X14349999Y-24499771D02*
X14407142Y-24585485D01*
X14407142Y-24585485D02*
X14464285Y-24642628D01*
X14464285Y-24642628D02*
X14521428Y-24671200D01*
D12*
X23657142Y-102969847D02*
X23790475Y-102779371D01*
X23885713Y-102969847D02*
X23885713Y-102569847D01*
X23885713Y-102569847D02*
X23733332Y-102569847D01*
X23733332Y-102569847D02*
X23695237Y-102588895D01*
X23695237Y-102588895D02*
X23676190Y-102607942D01*
X23676190Y-102607942D02*
X23657142Y-102646038D01*
X23657142Y-102646038D02*
X23657142Y-102703180D01*
X23657142Y-102703180D02*
X23676190Y-102741276D01*
X23676190Y-102741276D02*
X23695237Y-102760323D01*
X23695237Y-102760323D02*
X23733332Y-102779371D01*
X23733332Y-102779371D02*
X23885713Y-102779371D01*
X23523809Y-102569847D02*
X23257142Y-102569847D01*
X23257142Y-102569847D02*
X23428571Y-102969847D01*
X22933333Y-102703180D02*
X22933333Y-102969847D01*
X23028571Y-102550800D02*
X23123809Y-102836514D01*
X23123809Y-102836514D02*
X22876190Y-102836514D01*
D11*
X136812857Y-100154819D02*
X137146190Y-99678628D01*
X137384285Y-100154819D02*
X137384285Y-99154819D01*
X137384285Y-99154819D02*
X137003333Y-99154819D01*
X137003333Y-99154819D02*
X136908095Y-99202438D01*
X136908095Y-99202438D02*
X136860476Y-99250057D01*
X136860476Y-99250057D02*
X136812857Y-99345295D01*
X136812857Y-99345295D02*
X136812857Y-99488152D01*
X136812857Y-99488152D02*
X136860476Y-99583390D01*
X136860476Y-99583390D02*
X136908095Y-99631009D01*
X136908095Y-99631009D02*
X137003333Y-99678628D01*
X137003333Y-99678628D02*
X137384285Y-99678628D01*
X136431904Y-99250057D02*
X136384285Y-99202438D01*
X136384285Y-99202438D02*
X136289047Y-99154819D01*
X136289047Y-99154819D02*
X136050952Y-99154819D01*
X136050952Y-99154819D02*
X135955714Y-99202438D01*
X135955714Y-99202438D02*
X135908095Y-99250057D01*
X135908095Y-99250057D02*
X135860476Y-99345295D01*
X135860476Y-99345295D02*
X135860476Y-99440533D01*
X135860476Y-99440533D02*
X135908095Y-99583390D01*
X135908095Y-99583390D02*
X136479523Y-100154819D01*
X136479523Y-100154819D02*
X135860476Y-100154819D01*
X135527142Y-99154819D02*
X134908095Y-99154819D01*
X134908095Y-99154819D02*
X135241428Y-99535771D01*
X135241428Y-99535771D02*
X135098571Y-99535771D01*
X135098571Y-99535771D02*
X135003333Y-99583390D01*
X135003333Y-99583390D02*
X134955714Y-99631009D01*
X134955714Y-99631009D02*
X134908095Y-99726247D01*
X134908095Y-99726247D02*
X134908095Y-99964342D01*
X134908095Y-99964342D02*
X134955714Y-100059580D01*
X134955714Y-100059580D02*
X135003333Y-100107200D01*
X135003333Y-100107200D02*
X135098571Y-100154819D01*
X135098571Y-100154819D02*
X135384285Y-100154819D01*
X135384285Y-100154819D02*
X135479523Y-100107200D01*
X135479523Y-100107200D02*
X135527142Y-100059580D01*
D12*
X24759847Y-14512857D02*
X24569371Y-14379524D01*
X24759847Y-14284286D02*
X24359847Y-14284286D01*
X24359847Y-14284286D02*
X24359847Y-14436667D01*
X24359847Y-14436667D02*
X24378895Y-14474762D01*
X24378895Y-14474762D02*
X24397942Y-14493809D01*
X24397942Y-14493809D02*
X24436038Y-14512857D01*
X24436038Y-14512857D02*
X24493180Y-14512857D01*
X24493180Y-14512857D02*
X24531276Y-14493809D01*
X24531276Y-14493809D02*
X24550323Y-14474762D01*
X24550323Y-14474762D02*
X24569371Y-14436667D01*
X24569371Y-14436667D02*
X24569371Y-14284286D01*
X24359847Y-14855714D02*
X24359847Y-14779524D01*
X24359847Y-14779524D02*
X24378895Y-14741428D01*
X24378895Y-14741428D02*
X24397942Y-14722381D01*
X24397942Y-14722381D02*
X24455085Y-14684286D01*
X24455085Y-14684286D02*
X24531276Y-14665238D01*
X24531276Y-14665238D02*
X24683657Y-14665238D01*
X24683657Y-14665238D02*
X24721752Y-14684286D01*
X24721752Y-14684286D02*
X24740800Y-14703333D01*
X24740800Y-14703333D02*
X24759847Y-14741428D01*
X24759847Y-14741428D02*
X24759847Y-14817619D01*
X24759847Y-14817619D02*
X24740800Y-14855714D01*
X24740800Y-14855714D02*
X24721752Y-14874762D01*
X24721752Y-14874762D02*
X24683657Y-14893809D01*
X24683657Y-14893809D02*
X24588419Y-14893809D01*
X24588419Y-14893809D02*
X24550323Y-14874762D01*
X24550323Y-14874762D02*
X24531276Y-14855714D01*
X24531276Y-14855714D02*
X24512228Y-14817619D01*
X24512228Y-14817619D02*
X24512228Y-14741428D01*
X24512228Y-14741428D02*
X24531276Y-14703333D01*
X24531276Y-14703333D02*
X24550323Y-14684286D01*
X24550323Y-14684286D02*
X24588419Y-14665238D01*
X24359847Y-15236666D02*
X24359847Y-15160476D01*
X24359847Y-15160476D02*
X24378895Y-15122380D01*
X24378895Y-15122380D02*
X24397942Y-15103333D01*
X24397942Y-15103333D02*
X24455085Y-15065238D01*
X24455085Y-15065238D02*
X24531276Y-15046190D01*
X24531276Y-15046190D02*
X24683657Y-15046190D01*
X24683657Y-15046190D02*
X24721752Y-15065238D01*
X24721752Y-15065238D02*
X24740800Y-15084285D01*
X24740800Y-15084285D02*
X24759847Y-15122380D01*
X24759847Y-15122380D02*
X24759847Y-15198571D01*
X24759847Y-15198571D02*
X24740800Y-15236666D01*
X24740800Y-15236666D02*
X24721752Y-15255714D01*
X24721752Y-15255714D02*
X24683657Y-15274761D01*
X24683657Y-15274761D02*
X24588419Y-15274761D01*
X24588419Y-15274761D02*
X24550323Y-15255714D01*
X24550323Y-15255714D02*
X24531276Y-15236666D01*
X24531276Y-15236666D02*
X24512228Y-15198571D01*
X24512228Y-15198571D02*
X24512228Y-15122380D01*
X24512228Y-15122380D02*
X24531276Y-15084285D01*
X24531276Y-15084285D02*
X24550323Y-15065238D01*
X24550323Y-15065238D02*
X24588419Y-15046190D01*
D13*
X40271428Y-93477190D02*
X40295237Y-93501000D01*
X40295237Y-93501000D02*
X40366666Y-93524809D01*
X40366666Y-93524809D02*
X40414285Y-93524809D01*
X40414285Y-93524809D02*
X40485713Y-93501000D01*
X40485713Y-93501000D02*
X40533332Y-93453380D01*
X40533332Y-93453380D02*
X40557142Y-93405761D01*
X40557142Y-93405761D02*
X40580951Y-93310523D01*
X40580951Y-93310523D02*
X40580951Y-93239095D01*
X40580951Y-93239095D02*
X40557142Y-93143857D01*
X40557142Y-93143857D02*
X40533332Y-93096238D01*
X40533332Y-93096238D02*
X40485713Y-93048619D01*
X40485713Y-93048619D02*
X40414285Y-93024809D01*
X40414285Y-93024809D02*
X40366666Y-93024809D01*
X40366666Y-93024809D02*
X40295237Y-93048619D01*
X40295237Y-93048619D02*
X40271428Y-93072428D01*
X39819047Y-93024809D02*
X40057142Y-93024809D01*
X40057142Y-93024809D02*
X40080951Y-93262904D01*
X40080951Y-93262904D02*
X40057142Y-93239095D01*
X40057142Y-93239095D02*
X40009523Y-93215285D01*
X40009523Y-93215285D02*
X39890475Y-93215285D01*
X39890475Y-93215285D02*
X39842856Y-93239095D01*
X39842856Y-93239095D02*
X39819047Y-93262904D01*
X39819047Y-93262904D02*
X39795237Y-93310523D01*
X39795237Y-93310523D02*
X39795237Y-93429571D01*
X39795237Y-93429571D02*
X39819047Y-93477190D01*
X39819047Y-93477190D02*
X39842856Y-93501000D01*
X39842856Y-93501000D02*
X39890475Y-93524809D01*
X39890475Y-93524809D02*
X40009523Y-93524809D01*
X40009523Y-93524809D02*
X40057142Y-93501000D01*
X40057142Y-93501000D02*
X40080951Y-93477190D01*
X39366666Y-93024809D02*
X39461904Y-93024809D01*
X39461904Y-93024809D02*
X39509523Y-93048619D01*
X39509523Y-93048619D02*
X39533333Y-93072428D01*
X39533333Y-93072428D02*
X39580952Y-93143857D01*
X39580952Y-93143857D02*
X39604761Y-93239095D01*
X39604761Y-93239095D02*
X39604761Y-93429571D01*
X39604761Y-93429571D02*
X39580952Y-93477190D01*
X39580952Y-93477190D02*
X39557142Y-93501000D01*
X39557142Y-93501000D02*
X39509523Y-93524809D01*
X39509523Y-93524809D02*
X39414285Y-93524809D01*
X39414285Y-93524809D02*
X39366666Y-93501000D01*
X39366666Y-93501000D02*
X39342857Y-93477190D01*
X39342857Y-93477190D02*
X39319047Y-93429571D01*
X39319047Y-93429571D02*
X39319047Y-93310523D01*
X39319047Y-93310523D02*
X39342857Y-93262904D01*
X39342857Y-93262904D02*
X39366666Y-93239095D01*
X39366666Y-93239095D02*
X39414285Y-93215285D01*
X39414285Y-93215285D02*
X39509523Y-93215285D01*
X39509523Y-93215285D02*
X39557142Y-93239095D01*
X39557142Y-93239095D02*
X39580952Y-93262904D01*
X39580952Y-93262904D02*
X39604761Y-93310523D01*
D12*
X43739847Y-91512857D02*
X43549371Y-91379524D01*
X43739847Y-91284286D02*
X43339847Y-91284286D01*
X43339847Y-91284286D02*
X43339847Y-91436667D01*
X43339847Y-91436667D02*
X43358895Y-91474762D01*
X43358895Y-91474762D02*
X43377942Y-91493809D01*
X43377942Y-91493809D02*
X43416038Y-91512857D01*
X43416038Y-91512857D02*
X43473180Y-91512857D01*
X43473180Y-91512857D02*
X43511276Y-91493809D01*
X43511276Y-91493809D02*
X43530323Y-91474762D01*
X43530323Y-91474762D02*
X43549371Y-91436667D01*
X43549371Y-91436667D02*
X43549371Y-91284286D01*
X43339847Y-91646190D02*
X43339847Y-91912857D01*
X43339847Y-91912857D02*
X43739847Y-91741428D01*
X43339847Y-92236666D02*
X43339847Y-92160476D01*
X43339847Y-92160476D02*
X43358895Y-92122380D01*
X43358895Y-92122380D02*
X43377942Y-92103333D01*
X43377942Y-92103333D02*
X43435085Y-92065238D01*
X43435085Y-92065238D02*
X43511276Y-92046190D01*
X43511276Y-92046190D02*
X43663657Y-92046190D01*
X43663657Y-92046190D02*
X43701752Y-92065238D01*
X43701752Y-92065238D02*
X43720800Y-92084285D01*
X43720800Y-92084285D02*
X43739847Y-92122380D01*
X43739847Y-92122380D02*
X43739847Y-92198571D01*
X43739847Y-92198571D02*
X43720800Y-92236666D01*
X43720800Y-92236666D02*
X43701752Y-92255714D01*
X43701752Y-92255714D02*
X43663657Y-92274761D01*
X43663657Y-92274761D02*
X43568419Y-92274761D01*
X43568419Y-92274761D02*
X43530323Y-92255714D01*
X43530323Y-92255714D02*
X43511276Y-92236666D01*
X43511276Y-92236666D02*
X43492228Y-92198571D01*
X43492228Y-92198571D02*
X43492228Y-92122380D01*
X43492228Y-92122380D02*
X43511276Y-92084285D01*
X43511276Y-92084285D02*
X43530323Y-92065238D01*
X43530323Y-92065238D02*
X43568419Y-92046190D01*
D11*
X68884819Y-96127142D02*
X68408628Y-95793809D01*
X68884819Y-95555714D02*
X67884819Y-95555714D01*
X67884819Y-95555714D02*
X67884819Y-95936666D01*
X67884819Y-95936666D02*
X67932438Y-96031904D01*
X67932438Y-96031904D02*
X67980057Y-96079523D01*
X67980057Y-96079523D02*
X68075295Y-96127142D01*
X68075295Y-96127142D02*
X68218152Y-96127142D01*
X68218152Y-96127142D02*
X68313390Y-96079523D01*
X68313390Y-96079523D02*
X68361009Y-96031904D01*
X68361009Y-96031904D02*
X68408628Y-95936666D01*
X68408628Y-95936666D02*
X68408628Y-95555714D01*
X68884819Y-97079523D02*
X68884819Y-96508095D01*
X68884819Y-96793809D02*
X67884819Y-96793809D01*
X67884819Y-96793809D02*
X68027676Y-96698571D01*
X68027676Y-96698571D02*
X68122914Y-96603333D01*
X68122914Y-96603333D02*
X68170533Y-96508095D01*
X68884819Y-98031904D02*
X68884819Y-97460476D01*
X68884819Y-97746190D02*
X67884819Y-97746190D01*
X67884819Y-97746190D02*
X68027676Y-97650952D01*
X68027676Y-97650952D02*
X68122914Y-97555714D01*
X68122914Y-97555714D02*
X68170533Y-97460476D01*
X40115714Y-36462628D02*
X40144286Y-36491200D01*
X40144286Y-36491200D02*
X40230000Y-36519771D01*
X40230000Y-36519771D02*
X40287143Y-36519771D01*
X40287143Y-36519771D02*
X40372857Y-36491200D01*
X40372857Y-36491200D02*
X40430000Y-36434057D01*
X40430000Y-36434057D02*
X40458571Y-36376914D01*
X40458571Y-36376914D02*
X40487143Y-36262628D01*
X40487143Y-36262628D02*
X40487143Y-36176914D01*
X40487143Y-36176914D02*
X40458571Y-36062628D01*
X40458571Y-36062628D02*
X40430000Y-36005485D01*
X40430000Y-36005485D02*
X40372857Y-35948342D01*
X40372857Y-35948342D02*
X40287143Y-35919771D01*
X40287143Y-35919771D02*
X40230000Y-35919771D01*
X40230000Y-35919771D02*
X40144286Y-35948342D01*
X40144286Y-35948342D02*
X40115714Y-35976914D01*
X39544286Y-36519771D02*
X39887143Y-36519771D01*
X39715714Y-36519771D02*
X39715714Y-35919771D01*
X39715714Y-35919771D02*
X39772857Y-36005485D01*
X39772857Y-36005485D02*
X39830000Y-36062628D01*
X39830000Y-36062628D02*
X39887143Y-36091200D01*
X39201428Y-36176914D02*
X39258571Y-36148342D01*
X39258571Y-36148342D02*
X39287142Y-36119771D01*
X39287142Y-36119771D02*
X39315714Y-36062628D01*
X39315714Y-36062628D02*
X39315714Y-36034057D01*
X39315714Y-36034057D02*
X39287142Y-35976914D01*
X39287142Y-35976914D02*
X39258571Y-35948342D01*
X39258571Y-35948342D02*
X39201428Y-35919771D01*
X39201428Y-35919771D02*
X39087142Y-35919771D01*
X39087142Y-35919771D02*
X39030000Y-35948342D01*
X39030000Y-35948342D02*
X39001428Y-35976914D01*
X39001428Y-35976914D02*
X38972857Y-36034057D01*
X38972857Y-36034057D02*
X38972857Y-36062628D01*
X38972857Y-36062628D02*
X39001428Y-36119771D01*
X39001428Y-36119771D02*
X39030000Y-36148342D01*
X39030000Y-36148342D02*
X39087142Y-36176914D01*
X39087142Y-36176914D02*
X39201428Y-36176914D01*
X39201428Y-36176914D02*
X39258571Y-36205485D01*
X39258571Y-36205485D02*
X39287142Y-36234057D01*
X39287142Y-36234057D02*
X39315714Y-36291200D01*
X39315714Y-36291200D02*
X39315714Y-36405485D01*
X39315714Y-36405485D02*
X39287142Y-36462628D01*
X39287142Y-36462628D02*
X39258571Y-36491200D01*
X39258571Y-36491200D02*
X39201428Y-36519771D01*
X39201428Y-36519771D02*
X39087142Y-36519771D01*
X39087142Y-36519771D02*
X39030000Y-36491200D01*
X39030000Y-36491200D02*
X39001428Y-36462628D01*
X39001428Y-36462628D02*
X38972857Y-36405485D01*
X38972857Y-36405485D02*
X38972857Y-36291200D01*
X38972857Y-36291200D02*
X39001428Y-36234057D01*
X39001428Y-36234057D02*
X39030000Y-36205485D01*
X39030000Y-36205485D02*
X39087142Y-36176914D01*
D12*
X58317142Y-115919847D02*
X58450475Y-115729371D01*
X58545713Y-115919847D02*
X58545713Y-115519847D01*
X58545713Y-115519847D02*
X58393332Y-115519847D01*
X58393332Y-115519847D02*
X58355237Y-115538895D01*
X58355237Y-115538895D02*
X58336190Y-115557942D01*
X58336190Y-115557942D02*
X58317142Y-115596038D01*
X58317142Y-115596038D02*
X58317142Y-115653180D01*
X58317142Y-115653180D02*
X58336190Y-115691276D01*
X58336190Y-115691276D02*
X58355237Y-115710323D01*
X58355237Y-115710323D02*
X58393332Y-115729371D01*
X58393332Y-115729371D02*
X58545713Y-115729371D01*
X57974285Y-115653180D02*
X57974285Y-115919847D01*
X58069523Y-115500800D02*
X58164761Y-115786514D01*
X58164761Y-115786514D02*
X57917142Y-115786514D01*
X57688571Y-115519847D02*
X57650476Y-115519847D01*
X57650476Y-115519847D02*
X57612380Y-115538895D01*
X57612380Y-115538895D02*
X57593333Y-115557942D01*
X57593333Y-115557942D02*
X57574285Y-115596038D01*
X57574285Y-115596038D02*
X57555238Y-115672228D01*
X57555238Y-115672228D02*
X57555238Y-115767466D01*
X57555238Y-115767466D02*
X57574285Y-115843657D01*
X57574285Y-115843657D02*
X57593333Y-115881752D01*
X57593333Y-115881752D02*
X57612380Y-115900800D01*
X57612380Y-115900800D02*
X57650476Y-115919847D01*
X57650476Y-115919847D02*
X57688571Y-115919847D01*
X57688571Y-115919847D02*
X57726666Y-115900800D01*
X57726666Y-115900800D02*
X57745714Y-115881752D01*
X57745714Y-115881752D02*
X57764761Y-115843657D01*
X57764761Y-115843657D02*
X57783809Y-115767466D01*
X57783809Y-115767466D02*
X57783809Y-115672228D01*
X57783809Y-115672228D02*
X57764761Y-115596038D01*
X57764761Y-115596038D02*
X57745714Y-115557942D01*
X57745714Y-115557942D02*
X57726666Y-115538895D01*
X57726666Y-115538895D02*
X57688571Y-115519847D01*
X53951752Y-59872857D02*
X53970800Y-59853809D01*
X53970800Y-59853809D02*
X53989847Y-59796667D01*
X53989847Y-59796667D02*
X53989847Y-59758571D01*
X53989847Y-59758571D02*
X53970800Y-59701428D01*
X53970800Y-59701428D02*
X53932704Y-59663333D01*
X53932704Y-59663333D02*
X53894609Y-59644286D01*
X53894609Y-59644286D02*
X53818419Y-59625238D01*
X53818419Y-59625238D02*
X53761276Y-59625238D01*
X53761276Y-59625238D02*
X53685085Y-59644286D01*
X53685085Y-59644286D02*
X53646990Y-59663333D01*
X53646990Y-59663333D02*
X53608895Y-59701428D01*
X53608895Y-59701428D02*
X53589847Y-59758571D01*
X53589847Y-59758571D02*
X53589847Y-59796667D01*
X53589847Y-59796667D02*
X53608895Y-59853809D01*
X53608895Y-59853809D02*
X53627942Y-59872857D01*
X53627942Y-60025238D02*
X53608895Y-60044286D01*
X53608895Y-60044286D02*
X53589847Y-60082381D01*
X53589847Y-60082381D02*
X53589847Y-60177619D01*
X53589847Y-60177619D02*
X53608895Y-60215714D01*
X53608895Y-60215714D02*
X53627942Y-60234762D01*
X53627942Y-60234762D02*
X53666038Y-60253809D01*
X53666038Y-60253809D02*
X53704133Y-60253809D01*
X53704133Y-60253809D02*
X53761276Y-60234762D01*
X53761276Y-60234762D02*
X53989847Y-60006190D01*
X53989847Y-60006190D02*
X53989847Y-60253809D01*
X53589847Y-60501428D02*
X53589847Y-60539523D01*
X53589847Y-60539523D02*
X53608895Y-60577619D01*
X53608895Y-60577619D02*
X53627942Y-60596666D01*
X53627942Y-60596666D02*
X53666038Y-60615714D01*
X53666038Y-60615714D02*
X53742228Y-60634761D01*
X53742228Y-60634761D02*
X53837466Y-60634761D01*
X53837466Y-60634761D02*
X53913657Y-60615714D01*
X53913657Y-60615714D02*
X53951752Y-60596666D01*
X53951752Y-60596666D02*
X53970800Y-60577619D01*
X53970800Y-60577619D02*
X53989847Y-60539523D01*
X53989847Y-60539523D02*
X53989847Y-60501428D01*
X53989847Y-60501428D02*
X53970800Y-60463333D01*
X53970800Y-60463333D02*
X53951752Y-60444285D01*
X53951752Y-60444285D02*
X53913657Y-60425238D01*
X53913657Y-60425238D02*
X53837466Y-60406190D01*
X53837466Y-60406190D02*
X53742228Y-60406190D01*
X53742228Y-60406190D02*
X53666038Y-60425238D01*
X53666038Y-60425238D02*
X53627942Y-60444285D01*
X53627942Y-60444285D02*
X53608895Y-60463333D01*
X53608895Y-60463333D02*
X53589847Y-60501428D01*
X48089847Y-101542857D02*
X47899371Y-101409524D01*
X48089847Y-101314286D02*
X47689847Y-101314286D01*
X47689847Y-101314286D02*
X47689847Y-101466667D01*
X47689847Y-101466667D02*
X47708895Y-101504762D01*
X47708895Y-101504762D02*
X47727942Y-101523809D01*
X47727942Y-101523809D02*
X47766038Y-101542857D01*
X47766038Y-101542857D02*
X47823180Y-101542857D01*
X47823180Y-101542857D02*
X47861276Y-101523809D01*
X47861276Y-101523809D02*
X47880323Y-101504762D01*
X47880323Y-101504762D02*
X47899371Y-101466667D01*
X47899371Y-101466667D02*
X47899371Y-101314286D01*
X47689847Y-101904762D02*
X47689847Y-101714286D01*
X47689847Y-101714286D02*
X47880323Y-101695238D01*
X47880323Y-101695238D02*
X47861276Y-101714286D01*
X47861276Y-101714286D02*
X47842228Y-101752381D01*
X47842228Y-101752381D02*
X47842228Y-101847619D01*
X47842228Y-101847619D02*
X47861276Y-101885714D01*
X47861276Y-101885714D02*
X47880323Y-101904762D01*
X47880323Y-101904762D02*
X47918419Y-101923809D01*
X47918419Y-101923809D02*
X48013657Y-101923809D01*
X48013657Y-101923809D02*
X48051752Y-101904762D01*
X48051752Y-101904762D02*
X48070800Y-101885714D01*
X48070800Y-101885714D02*
X48089847Y-101847619D01*
X48089847Y-101847619D02*
X48089847Y-101752381D01*
X48089847Y-101752381D02*
X48070800Y-101714286D01*
X48070800Y-101714286D02*
X48051752Y-101695238D01*
X47689847Y-102285714D02*
X47689847Y-102095238D01*
X47689847Y-102095238D02*
X47880323Y-102076190D01*
X47880323Y-102076190D02*
X47861276Y-102095238D01*
X47861276Y-102095238D02*
X47842228Y-102133333D01*
X47842228Y-102133333D02*
X47842228Y-102228571D01*
X47842228Y-102228571D02*
X47861276Y-102266666D01*
X47861276Y-102266666D02*
X47880323Y-102285714D01*
X47880323Y-102285714D02*
X47918419Y-102304761D01*
X47918419Y-102304761D02*
X48013657Y-102304761D01*
X48013657Y-102304761D02*
X48051752Y-102285714D01*
X48051752Y-102285714D02*
X48070800Y-102266666D01*
X48070800Y-102266666D02*
X48089847Y-102228571D01*
X48089847Y-102228571D02*
X48089847Y-102133333D01*
X48089847Y-102133333D02*
X48070800Y-102095238D01*
X48070800Y-102095238D02*
X48051752Y-102076190D01*
D11*
X20575714Y-47442628D02*
X20604286Y-47471200D01*
X20604286Y-47471200D02*
X20690000Y-47499771D01*
X20690000Y-47499771D02*
X20747143Y-47499771D01*
X20747143Y-47499771D02*
X20832857Y-47471200D01*
X20832857Y-47471200D02*
X20890000Y-47414057D01*
X20890000Y-47414057D02*
X20918571Y-47356914D01*
X20918571Y-47356914D02*
X20947143Y-47242628D01*
X20947143Y-47242628D02*
X20947143Y-47156914D01*
X20947143Y-47156914D02*
X20918571Y-47042628D01*
X20918571Y-47042628D02*
X20890000Y-46985485D01*
X20890000Y-46985485D02*
X20832857Y-46928342D01*
X20832857Y-46928342D02*
X20747143Y-46899771D01*
X20747143Y-46899771D02*
X20690000Y-46899771D01*
X20690000Y-46899771D02*
X20604286Y-46928342D01*
X20604286Y-46928342D02*
X20575714Y-46956914D01*
X20004286Y-47499771D02*
X20347143Y-47499771D01*
X20175714Y-47499771D02*
X20175714Y-46899771D01*
X20175714Y-46899771D02*
X20232857Y-46985485D01*
X20232857Y-46985485D02*
X20290000Y-47042628D01*
X20290000Y-47042628D02*
X20347143Y-47071200D01*
X19432857Y-47499771D02*
X19775714Y-47499771D01*
X19604285Y-47499771D02*
X19604285Y-46899771D01*
X19604285Y-46899771D02*
X19661428Y-46985485D01*
X19661428Y-46985485D02*
X19718571Y-47042628D01*
X19718571Y-47042628D02*
X19775714Y-47071200D01*
X136782857Y-112244819D02*
X137116190Y-111768628D01*
X137354285Y-112244819D02*
X137354285Y-111244819D01*
X137354285Y-111244819D02*
X136973333Y-111244819D01*
X136973333Y-111244819D02*
X136878095Y-111292438D01*
X136878095Y-111292438D02*
X136830476Y-111340057D01*
X136830476Y-111340057D02*
X136782857Y-111435295D01*
X136782857Y-111435295D02*
X136782857Y-111578152D01*
X136782857Y-111578152D02*
X136830476Y-111673390D01*
X136830476Y-111673390D02*
X136878095Y-111721009D01*
X136878095Y-111721009D02*
X136973333Y-111768628D01*
X136973333Y-111768628D02*
X137354285Y-111768628D01*
X136401904Y-111340057D02*
X136354285Y-111292438D01*
X136354285Y-111292438D02*
X136259047Y-111244819D01*
X136259047Y-111244819D02*
X136020952Y-111244819D01*
X136020952Y-111244819D02*
X135925714Y-111292438D01*
X135925714Y-111292438D02*
X135878095Y-111340057D01*
X135878095Y-111340057D02*
X135830476Y-111435295D01*
X135830476Y-111435295D02*
X135830476Y-111530533D01*
X135830476Y-111530533D02*
X135878095Y-111673390D01*
X135878095Y-111673390D02*
X136449523Y-112244819D01*
X136449523Y-112244819D02*
X135830476Y-112244819D01*
X134973333Y-111244819D02*
X135163809Y-111244819D01*
X135163809Y-111244819D02*
X135259047Y-111292438D01*
X135259047Y-111292438D02*
X135306666Y-111340057D01*
X135306666Y-111340057D02*
X135401904Y-111482914D01*
X135401904Y-111482914D02*
X135449523Y-111673390D01*
X135449523Y-111673390D02*
X135449523Y-112054342D01*
X135449523Y-112054342D02*
X135401904Y-112149580D01*
X135401904Y-112149580D02*
X135354285Y-112197200D01*
X135354285Y-112197200D02*
X135259047Y-112244819D01*
X135259047Y-112244819D02*
X135068571Y-112244819D01*
X135068571Y-112244819D02*
X134973333Y-112197200D01*
X134973333Y-112197200D02*
X134925714Y-112149580D01*
X134925714Y-112149580D02*
X134878095Y-112054342D01*
X134878095Y-112054342D02*
X134878095Y-111816247D01*
X134878095Y-111816247D02*
X134925714Y-111721009D01*
X134925714Y-111721009D02*
X134973333Y-111673390D01*
X134973333Y-111673390D02*
X135068571Y-111625771D01*
X135068571Y-111625771D02*
X135259047Y-111625771D01*
X135259047Y-111625771D02*
X135354285Y-111673390D01*
X135354285Y-111673390D02*
X135401904Y-111721009D01*
X135401904Y-111721009D02*
X135449523Y-111816247D01*
X42571904Y-103374819D02*
X42571904Y-104184342D01*
X42571904Y-104184342D02*
X42524285Y-104279580D01*
X42524285Y-104279580D02*
X42476666Y-104327200D01*
X42476666Y-104327200D02*
X42381428Y-104374819D01*
X42381428Y-104374819D02*
X42190952Y-104374819D01*
X42190952Y-104374819D02*
X42095714Y-104327200D01*
X42095714Y-104327200D02*
X42048095Y-104279580D01*
X42048095Y-104279580D02*
X42000476Y-104184342D01*
X42000476Y-104184342D02*
X42000476Y-103374819D01*
X41619523Y-103374819D02*
X40952857Y-103374819D01*
X40952857Y-103374819D02*
X41381428Y-104374819D01*
D12*
X51926666Y-98361752D02*
X51945714Y-98380800D01*
X51945714Y-98380800D02*
X52002856Y-98399847D01*
X52002856Y-98399847D02*
X52040952Y-98399847D01*
X52040952Y-98399847D02*
X52098095Y-98380800D01*
X52098095Y-98380800D02*
X52136190Y-98342704D01*
X52136190Y-98342704D02*
X52155237Y-98304609D01*
X52155237Y-98304609D02*
X52174285Y-98228419D01*
X52174285Y-98228419D02*
X52174285Y-98171276D01*
X52174285Y-98171276D02*
X52155237Y-98095085D01*
X52155237Y-98095085D02*
X52136190Y-98056990D01*
X52136190Y-98056990D02*
X52098095Y-98018895D01*
X52098095Y-98018895D02*
X52040952Y-97999847D01*
X52040952Y-97999847D02*
X52002856Y-97999847D01*
X52002856Y-97999847D02*
X51945714Y-98018895D01*
X51945714Y-98018895D02*
X51926666Y-98037942D01*
X51564761Y-97999847D02*
X51755237Y-97999847D01*
X51755237Y-97999847D02*
X51774285Y-98190323D01*
X51774285Y-98190323D02*
X51755237Y-98171276D01*
X51755237Y-98171276D02*
X51717142Y-98152228D01*
X51717142Y-98152228D02*
X51621904Y-98152228D01*
X51621904Y-98152228D02*
X51583809Y-98171276D01*
X51583809Y-98171276D02*
X51564761Y-98190323D01*
X51564761Y-98190323D02*
X51545714Y-98228419D01*
X51545714Y-98228419D02*
X51545714Y-98323657D01*
X51545714Y-98323657D02*
X51564761Y-98361752D01*
X51564761Y-98361752D02*
X51583809Y-98380800D01*
X51583809Y-98380800D02*
X51621904Y-98399847D01*
X51621904Y-98399847D02*
X51717142Y-98399847D01*
X51717142Y-98399847D02*
X51755237Y-98380800D01*
X51755237Y-98380800D02*
X51774285Y-98361752D01*
D11*
X28522628Y-103864285D02*
X28551200Y-103835713D01*
X28551200Y-103835713D02*
X28579771Y-103749999D01*
X28579771Y-103749999D02*
X28579771Y-103692856D01*
X28579771Y-103692856D02*
X28551200Y-103607142D01*
X28551200Y-103607142D02*
X28494057Y-103549999D01*
X28494057Y-103549999D02*
X28436914Y-103521428D01*
X28436914Y-103521428D02*
X28322628Y-103492856D01*
X28322628Y-103492856D02*
X28236914Y-103492856D01*
X28236914Y-103492856D02*
X28122628Y-103521428D01*
X28122628Y-103521428D02*
X28065485Y-103549999D01*
X28065485Y-103549999D02*
X28008342Y-103607142D01*
X28008342Y-103607142D02*
X27979771Y-103692856D01*
X27979771Y-103692856D02*
X27979771Y-103749999D01*
X27979771Y-103749999D02*
X28008342Y-103835713D01*
X28008342Y-103835713D02*
X28036914Y-103864285D01*
X27979771Y-104407142D02*
X27979771Y-104121428D01*
X27979771Y-104121428D02*
X28265485Y-104092856D01*
X28265485Y-104092856D02*
X28236914Y-104121428D01*
X28236914Y-104121428D02*
X28208342Y-104178571D01*
X28208342Y-104178571D02*
X28208342Y-104321428D01*
X28208342Y-104321428D02*
X28236914Y-104378571D01*
X28236914Y-104378571D02*
X28265485Y-104407142D01*
X28265485Y-104407142D02*
X28322628Y-104435713D01*
X28322628Y-104435713D02*
X28465485Y-104435713D01*
X28465485Y-104435713D02*
X28522628Y-104407142D01*
X28522628Y-104407142D02*
X28551200Y-104378571D01*
X28551200Y-104378571D02*
X28579771Y-104321428D01*
X28579771Y-104321428D02*
X28579771Y-104178571D01*
X28579771Y-104178571D02*
X28551200Y-104121428D01*
X28551200Y-104121428D02*
X28522628Y-104092856D01*
X28579771Y-104721428D02*
X28579771Y-104835714D01*
X28579771Y-104835714D02*
X28551200Y-104892857D01*
X28551200Y-104892857D02*
X28522628Y-104921428D01*
X28522628Y-104921428D02*
X28436914Y-104978571D01*
X28436914Y-104978571D02*
X28322628Y-105007142D01*
X28322628Y-105007142D02*
X28094057Y-105007142D01*
X28094057Y-105007142D02*
X28036914Y-104978571D01*
X28036914Y-104978571D02*
X28008342Y-104950000D01*
X28008342Y-104950000D02*
X27979771Y-104892857D01*
X27979771Y-104892857D02*
X27979771Y-104778571D01*
X27979771Y-104778571D02*
X28008342Y-104721428D01*
X28008342Y-104721428D02*
X28036914Y-104692857D01*
X28036914Y-104692857D02*
X28094057Y-104664285D01*
X28094057Y-104664285D02*
X28236914Y-104664285D01*
X28236914Y-104664285D02*
X28294057Y-104692857D01*
X28294057Y-104692857D02*
X28322628Y-104721428D01*
X28322628Y-104721428D02*
X28351200Y-104778571D01*
X28351200Y-104778571D02*
X28351200Y-104892857D01*
X28351200Y-104892857D02*
X28322628Y-104950000D01*
X28322628Y-104950000D02*
X28294057Y-104978571D01*
X28294057Y-104978571D02*
X28236914Y-105007142D01*
D13*
X47451428Y-55287190D02*
X47475237Y-55311000D01*
X47475237Y-55311000D02*
X47546666Y-55334809D01*
X47546666Y-55334809D02*
X47594285Y-55334809D01*
X47594285Y-55334809D02*
X47665713Y-55311000D01*
X47665713Y-55311000D02*
X47713332Y-55263380D01*
X47713332Y-55263380D02*
X47737142Y-55215761D01*
X47737142Y-55215761D02*
X47760951Y-55120523D01*
X47760951Y-55120523D02*
X47760951Y-55049095D01*
X47760951Y-55049095D02*
X47737142Y-54953857D01*
X47737142Y-54953857D02*
X47713332Y-54906238D01*
X47713332Y-54906238D02*
X47665713Y-54858619D01*
X47665713Y-54858619D02*
X47594285Y-54834809D01*
X47594285Y-54834809D02*
X47546666Y-54834809D01*
X47546666Y-54834809D02*
X47475237Y-54858619D01*
X47475237Y-54858619D02*
X47451428Y-54882428D01*
X46975237Y-55334809D02*
X47260951Y-55334809D01*
X47118094Y-55334809D02*
X47118094Y-54834809D01*
X47118094Y-54834809D02*
X47165713Y-54906238D01*
X47165713Y-54906238D02*
X47213332Y-54953857D01*
X47213332Y-54953857D02*
X47260951Y-54977666D01*
X46737142Y-55334809D02*
X46641904Y-55334809D01*
X46641904Y-55334809D02*
X46594285Y-55311000D01*
X46594285Y-55311000D02*
X46570476Y-55287190D01*
X46570476Y-55287190D02*
X46522857Y-55215761D01*
X46522857Y-55215761D02*
X46499047Y-55120523D01*
X46499047Y-55120523D02*
X46499047Y-54930047D01*
X46499047Y-54930047D02*
X46522857Y-54882428D01*
X46522857Y-54882428D02*
X46546666Y-54858619D01*
X46546666Y-54858619D02*
X46594285Y-54834809D01*
X46594285Y-54834809D02*
X46689523Y-54834809D01*
X46689523Y-54834809D02*
X46737142Y-54858619D01*
X46737142Y-54858619D02*
X46760952Y-54882428D01*
X46760952Y-54882428D02*
X46784761Y-54930047D01*
X46784761Y-54930047D02*
X46784761Y-55049095D01*
X46784761Y-55049095D02*
X46760952Y-55096714D01*
X46760952Y-55096714D02*
X46737142Y-55120523D01*
X46737142Y-55120523D02*
X46689523Y-55144333D01*
X46689523Y-55144333D02*
X46594285Y-55144333D01*
X46594285Y-55144333D02*
X46546666Y-55120523D01*
X46546666Y-55120523D02*
X46522857Y-55096714D01*
X46522857Y-55096714D02*
X46499047Y-55049095D01*
D11*
X43922628Y-21790000D02*
X43951200Y-21761428D01*
X43951200Y-21761428D02*
X43979771Y-21675714D01*
X43979771Y-21675714D02*
X43979771Y-21618571D01*
X43979771Y-21618571D02*
X43951200Y-21532857D01*
X43951200Y-21532857D02*
X43894057Y-21475714D01*
X43894057Y-21475714D02*
X43836914Y-21447143D01*
X43836914Y-21447143D02*
X43722628Y-21418571D01*
X43722628Y-21418571D02*
X43636914Y-21418571D01*
X43636914Y-21418571D02*
X43522628Y-21447143D01*
X43522628Y-21447143D02*
X43465485Y-21475714D01*
X43465485Y-21475714D02*
X43408342Y-21532857D01*
X43408342Y-21532857D02*
X43379771Y-21618571D01*
X43379771Y-21618571D02*
X43379771Y-21675714D01*
X43379771Y-21675714D02*
X43408342Y-21761428D01*
X43408342Y-21761428D02*
X43436914Y-21790000D01*
X43379771Y-22304286D02*
X43379771Y-22190000D01*
X43379771Y-22190000D02*
X43408342Y-22132857D01*
X43408342Y-22132857D02*
X43436914Y-22104286D01*
X43436914Y-22104286D02*
X43522628Y-22047143D01*
X43522628Y-22047143D02*
X43636914Y-22018571D01*
X43636914Y-22018571D02*
X43865485Y-22018571D01*
X43865485Y-22018571D02*
X43922628Y-22047143D01*
X43922628Y-22047143D02*
X43951200Y-22075714D01*
X43951200Y-22075714D02*
X43979771Y-22132857D01*
X43979771Y-22132857D02*
X43979771Y-22247143D01*
X43979771Y-22247143D02*
X43951200Y-22304286D01*
X43951200Y-22304286D02*
X43922628Y-22332857D01*
X43922628Y-22332857D02*
X43865485Y-22361428D01*
X43865485Y-22361428D02*
X43722628Y-22361428D01*
X43722628Y-22361428D02*
X43665485Y-22332857D01*
X43665485Y-22332857D02*
X43636914Y-22304286D01*
X43636914Y-22304286D02*
X43608342Y-22247143D01*
X43608342Y-22247143D02*
X43608342Y-22132857D01*
X43608342Y-22132857D02*
X43636914Y-22075714D01*
X43636914Y-22075714D02*
X43665485Y-22047143D01*
X43665485Y-22047143D02*
X43722628Y-22018571D01*
D12*
X55039847Y-97012857D02*
X54849371Y-96879524D01*
X55039847Y-96784286D02*
X54639847Y-96784286D01*
X54639847Y-96784286D02*
X54639847Y-96936667D01*
X54639847Y-96936667D02*
X54658895Y-96974762D01*
X54658895Y-96974762D02*
X54677942Y-96993809D01*
X54677942Y-96993809D02*
X54716038Y-97012857D01*
X54716038Y-97012857D02*
X54773180Y-97012857D01*
X54773180Y-97012857D02*
X54811276Y-96993809D01*
X54811276Y-96993809D02*
X54830323Y-96974762D01*
X54830323Y-96974762D02*
X54849371Y-96936667D01*
X54849371Y-96936667D02*
X54849371Y-96784286D01*
X54639847Y-97146190D02*
X54639847Y-97393809D01*
X54639847Y-97393809D02*
X54792228Y-97260476D01*
X54792228Y-97260476D02*
X54792228Y-97317619D01*
X54792228Y-97317619D02*
X54811276Y-97355714D01*
X54811276Y-97355714D02*
X54830323Y-97374762D01*
X54830323Y-97374762D02*
X54868419Y-97393809D01*
X54868419Y-97393809D02*
X54963657Y-97393809D01*
X54963657Y-97393809D02*
X55001752Y-97374762D01*
X55001752Y-97374762D02*
X55020800Y-97355714D01*
X55020800Y-97355714D02*
X55039847Y-97317619D01*
X55039847Y-97317619D02*
X55039847Y-97203333D01*
X55039847Y-97203333D02*
X55020800Y-97165238D01*
X55020800Y-97165238D02*
X55001752Y-97146190D01*
X54639847Y-97527142D02*
X54639847Y-97774761D01*
X54639847Y-97774761D02*
X54792228Y-97641428D01*
X54792228Y-97641428D02*
X54792228Y-97698571D01*
X54792228Y-97698571D02*
X54811276Y-97736666D01*
X54811276Y-97736666D02*
X54830323Y-97755714D01*
X54830323Y-97755714D02*
X54868419Y-97774761D01*
X54868419Y-97774761D02*
X54963657Y-97774761D01*
X54963657Y-97774761D02*
X55001752Y-97755714D01*
X55001752Y-97755714D02*
X55020800Y-97736666D01*
X55020800Y-97736666D02*
X55039847Y-97698571D01*
X55039847Y-97698571D02*
X55039847Y-97584285D01*
X55039847Y-97584285D02*
X55020800Y-97546190D01*
X55020800Y-97546190D02*
X55001752Y-97527142D01*
X24677142Y-88661752D02*
X24696190Y-88680800D01*
X24696190Y-88680800D02*
X24753332Y-88699847D01*
X24753332Y-88699847D02*
X24791428Y-88699847D01*
X24791428Y-88699847D02*
X24848571Y-88680800D01*
X24848571Y-88680800D02*
X24886666Y-88642704D01*
X24886666Y-88642704D02*
X24905713Y-88604609D01*
X24905713Y-88604609D02*
X24924761Y-88528419D01*
X24924761Y-88528419D02*
X24924761Y-88471276D01*
X24924761Y-88471276D02*
X24905713Y-88395085D01*
X24905713Y-88395085D02*
X24886666Y-88356990D01*
X24886666Y-88356990D02*
X24848571Y-88318895D01*
X24848571Y-88318895D02*
X24791428Y-88299847D01*
X24791428Y-88299847D02*
X24753332Y-88299847D01*
X24753332Y-88299847D02*
X24696190Y-88318895D01*
X24696190Y-88318895D02*
X24677142Y-88337942D01*
X24334285Y-88299847D02*
X24410475Y-88299847D01*
X24410475Y-88299847D02*
X24448571Y-88318895D01*
X24448571Y-88318895D02*
X24467618Y-88337942D01*
X24467618Y-88337942D02*
X24505713Y-88395085D01*
X24505713Y-88395085D02*
X24524761Y-88471276D01*
X24524761Y-88471276D02*
X24524761Y-88623657D01*
X24524761Y-88623657D02*
X24505713Y-88661752D01*
X24505713Y-88661752D02*
X24486666Y-88680800D01*
X24486666Y-88680800D02*
X24448571Y-88699847D01*
X24448571Y-88699847D02*
X24372380Y-88699847D01*
X24372380Y-88699847D02*
X24334285Y-88680800D01*
X24334285Y-88680800D02*
X24315237Y-88661752D01*
X24315237Y-88661752D02*
X24296190Y-88623657D01*
X24296190Y-88623657D02*
X24296190Y-88528419D01*
X24296190Y-88528419D02*
X24315237Y-88490323D01*
X24315237Y-88490323D02*
X24334285Y-88471276D01*
X24334285Y-88471276D02*
X24372380Y-88452228D01*
X24372380Y-88452228D02*
X24448571Y-88452228D01*
X24448571Y-88452228D02*
X24486666Y-88471276D01*
X24486666Y-88471276D02*
X24505713Y-88490323D01*
X24505713Y-88490323D02*
X24524761Y-88528419D01*
X24162857Y-88299847D02*
X23915238Y-88299847D01*
X23915238Y-88299847D02*
X24048571Y-88452228D01*
X24048571Y-88452228D02*
X23991428Y-88452228D01*
X23991428Y-88452228D02*
X23953333Y-88471276D01*
X23953333Y-88471276D02*
X23934285Y-88490323D01*
X23934285Y-88490323D02*
X23915238Y-88528419D01*
X23915238Y-88528419D02*
X23915238Y-88623657D01*
X23915238Y-88623657D02*
X23934285Y-88661752D01*
X23934285Y-88661752D02*
X23953333Y-88680800D01*
X23953333Y-88680800D02*
X23991428Y-88699847D01*
X23991428Y-88699847D02*
X24105714Y-88699847D01*
X24105714Y-88699847D02*
X24143809Y-88680800D01*
X24143809Y-88680800D02*
X24162857Y-88661752D01*
D11*
X88904819Y-96157142D02*
X88428628Y-95823809D01*
X88904819Y-95585714D02*
X87904819Y-95585714D01*
X87904819Y-95585714D02*
X87904819Y-95966666D01*
X87904819Y-95966666D02*
X87952438Y-96061904D01*
X87952438Y-96061904D02*
X88000057Y-96109523D01*
X88000057Y-96109523D02*
X88095295Y-96157142D01*
X88095295Y-96157142D02*
X88238152Y-96157142D01*
X88238152Y-96157142D02*
X88333390Y-96109523D01*
X88333390Y-96109523D02*
X88381009Y-96061904D01*
X88381009Y-96061904D02*
X88428628Y-95966666D01*
X88428628Y-95966666D02*
X88428628Y-95585714D01*
X87904819Y-97061904D02*
X87904819Y-96585714D01*
X87904819Y-96585714D02*
X88381009Y-96538095D01*
X88381009Y-96538095D02*
X88333390Y-96585714D01*
X88333390Y-96585714D02*
X88285771Y-96680952D01*
X88285771Y-96680952D02*
X88285771Y-96919047D01*
X88285771Y-96919047D02*
X88333390Y-97014285D01*
X88333390Y-97014285D02*
X88381009Y-97061904D01*
X88381009Y-97061904D02*
X88476247Y-97109523D01*
X88476247Y-97109523D02*
X88714342Y-97109523D01*
X88714342Y-97109523D02*
X88809580Y-97061904D01*
X88809580Y-97061904D02*
X88857200Y-97014285D01*
X88857200Y-97014285D02*
X88904819Y-96919047D01*
X88904819Y-96919047D02*
X88904819Y-96680952D01*
X88904819Y-96680952D02*
X88857200Y-96585714D01*
X88857200Y-96585714D02*
X88809580Y-96538095D01*
X87904819Y-97442857D02*
X87904819Y-98109523D01*
X87904819Y-98109523D02*
X88904819Y-97680952D01*
X16912628Y-110640000D02*
X16941200Y-110611428D01*
X16941200Y-110611428D02*
X16969771Y-110525714D01*
X16969771Y-110525714D02*
X16969771Y-110468571D01*
X16969771Y-110468571D02*
X16941200Y-110382857D01*
X16941200Y-110382857D02*
X16884057Y-110325714D01*
X16884057Y-110325714D02*
X16826914Y-110297143D01*
X16826914Y-110297143D02*
X16712628Y-110268571D01*
X16712628Y-110268571D02*
X16626914Y-110268571D01*
X16626914Y-110268571D02*
X16512628Y-110297143D01*
X16512628Y-110297143D02*
X16455485Y-110325714D01*
X16455485Y-110325714D02*
X16398342Y-110382857D01*
X16398342Y-110382857D02*
X16369771Y-110468571D01*
X16369771Y-110468571D02*
X16369771Y-110525714D01*
X16369771Y-110525714D02*
X16398342Y-110611428D01*
X16398342Y-110611428D02*
X16426914Y-110640000D01*
X16369771Y-110840000D02*
X16369771Y-111240000D01*
X16369771Y-111240000D02*
X16969771Y-110982857D01*
D12*
X48091752Y-99232857D02*
X48110800Y-99213809D01*
X48110800Y-99213809D02*
X48129847Y-99156667D01*
X48129847Y-99156667D02*
X48129847Y-99118571D01*
X48129847Y-99118571D02*
X48110800Y-99061428D01*
X48110800Y-99061428D02*
X48072704Y-99023333D01*
X48072704Y-99023333D02*
X48034609Y-99004286D01*
X48034609Y-99004286D02*
X47958419Y-98985238D01*
X47958419Y-98985238D02*
X47901276Y-98985238D01*
X47901276Y-98985238D02*
X47825085Y-99004286D01*
X47825085Y-99004286D02*
X47786990Y-99023333D01*
X47786990Y-99023333D02*
X47748895Y-99061428D01*
X47748895Y-99061428D02*
X47729847Y-99118571D01*
X47729847Y-99118571D02*
X47729847Y-99156667D01*
X47729847Y-99156667D02*
X47748895Y-99213809D01*
X47748895Y-99213809D02*
X47767942Y-99232857D01*
X47729847Y-99594762D02*
X47729847Y-99404286D01*
X47729847Y-99404286D02*
X47920323Y-99385238D01*
X47920323Y-99385238D02*
X47901276Y-99404286D01*
X47901276Y-99404286D02*
X47882228Y-99442381D01*
X47882228Y-99442381D02*
X47882228Y-99537619D01*
X47882228Y-99537619D02*
X47901276Y-99575714D01*
X47901276Y-99575714D02*
X47920323Y-99594762D01*
X47920323Y-99594762D02*
X47958419Y-99613809D01*
X47958419Y-99613809D02*
X48053657Y-99613809D01*
X48053657Y-99613809D02*
X48091752Y-99594762D01*
X48091752Y-99594762D02*
X48110800Y-99575714D01*
X48110800Y-99575714D02*
X48129847Y-99537619D01*
X48129847Y-99537619D02*
X48129847Y-99442381D01*
X48129847Y-99442381D02*
X48110800Y-99404286D01*
X48110800Y-99404286D02*
X48091752Y-99385238D01*
X47729847Y-99861428D02*
X47729847Y-99899523D01*
X47729847Y-99899523D02*
X47748895Y-99937619D01*
X47748895Y-99937619D02*
X47767942Y-99956666D01*
X47767942Y-99956666D02*
X47806038Y-99975714D01*
X47806038Y-99975714D02*
X47882228Y-99994761D01*
X47882228Y-99994761D02*
X47977466Y-99994761D01*
X47977466Y-99994761D02*
X48053657Y-99975714D01*
X48053657Y-99975714D02*
X48091752Y-99956666D01*
X48091752Y-99956666D02*
X48110800Y-99937619D01*
X48110800Y-99937619D02*
X48129847Y-99899523D01*
X48129847Y-99899523D02*
X48129847Y-99861428D01*
X48129847Y-99861428D02*
X48110800Y-99823333D01*
X48110800Y-99823333D02*
X48091752Y-99804285D01*
X48091752Y-99804285D02*
X48053657Y-99785238D01*
X48053657Y-99785238D02*
X47977466Y-99766190D01*
X47977466Y-99766190D02*
X47882228Y-99766190D01*
X47882228Y-99766190D02*
X47806038Y-99785238D01*
X47806038Y-99785238D02*
X47767942Y-99804285D01*
X47767942Y-99804285D02*
X47748895Y-99823333D01*
X47748895Y-99823333D02*
X47729847Y-99861428D01*
D11*
X29851904Y-32504819D02*
X29851904Y-33314342D01*
X29851904Y-33314342D02*
X29804285Y-33409580D01*
X29804285Y-33409580D02*
X29756666Y-33457200D01*
X29756666Y-33457200D02*
X29661428Y-33504819D01*
X29661428Y-33504819D02*
X29470952Y-33504819D01*
X29470952Y-33504819D02*
X29375714Y-33457200D01*
X29375714Y-33457200D02*
X29328095Y-33409580D01*
X29328095Y-33409580D02*
X29280476Y-33314342D01*
X29280476Y-33314342D02*
X29280476Y-32504819D01*
X28661428Y-32933390D02*
X28756666Y-32885771D01*
X28756666Y-32885771D02*
X28804285Y-32838152D01*
X28804285Y-32838152D02*
X28851904Y-32742914D01*
X28851904Y-32742914D02*
X28851904Y-32695295D01*
X28851904Y-32695295D02*
X28804285Y-32600057D01*
X28804285Y-32600057D02*
X28756666Y-32552438D01*
X28756666Y-32552438D02*
X28661428Y-32504819D01*
X28661428Y-32504819D02*
X28470952Y-32504819D01*
X28470952Y-32504819D02*
X28375714Y-32552438D01*
X28375714Y-32552438D02*
X28328095Y-32600057D01*
X28328095Y-32600057D02*
X28280476Y-32695295D01*
X28280476Y-32695295D02*
X28280476Y-32742914D01*
X28280476Y-32742914D02*
X28328095Y-32838152D01*
X28328095Y-32838152D02*
X28375714Y-32885771D01*
X28375714Y-32885771D02*
X28470952Y-32933390D01*
X28470952Y-32933390D02*
X28661428Y-32933390D01*
X28661428Y-32933390D02*
X28756666Y-32981009D01*
X28756666Y-32981009D02*
X28804285Y-33028628D01*
X28804285Y-33028628D02*
X28851904Y-33123866D01*
X28851904Y-33123866D02*
X28851904Y-33314342D01*
X28851904Y-33314342D02*
X28804285Y-33409580D01*
X28804285Y-33409580D02*
X28756666Y-33457200D01*
X28756666Y-33457200D02*
X28661428Y-33504819D01*
X28661428Y-33504819D02*
X28470952Y-33504819D01*
X28470952Y-33504819D02*
X28375714Y-33457200D01*
X28375714Y-33457200D02*
X28328095Y-33409580D01*
X28328095Y-33409580D02*
X28280476Y-33314342D01*
X28280476Y-33314342D02*
X28280476Y-33123866D01*
X28280476Y-33123866D02*
X28328095Y-33028628D01*
X28328095Y-33028628D02*
X28375714Y-32981009D01*
X28375714Y-32981009D02*
X28470952Y-32933390D01*
D13*
X50732856Y-62911071D02*
X50732856Y-62311071D01*
X50732856Y-62311071D02*
X50589999Y-62311071D01*
X50589999Y-62311071D02*
X50504285Y-62339642D01*
X50504285Y-62339642D02*
X50447142Y-62396785D01*
X50447142Y-62396785D02*
X50418571Y-62453928D01*
X50418571Y-62453928D02*
X50389999Y-62568214D01*
X50389999Y-62568214D02*
X50389999Y-62653928D01*
X50389999Y-62653928D02*
X50418571Y-62768214D01*
X50418571Y-62768214D02*
X50447142Y-62825357D01*
X50447142Y-62825357D02*
X50504285Y-62882500D01*
X50504285Y-62882500D02*
X50589999Y-62911071D01*
X50589999Y-62911071D02*
X50732856Y-62911071D01*
X50161428Y-62368214D02*
X50132856Y-62339642D01*
X50132856Y-62339642D02*
X50075714Y-62311071D01*
X50075714Y-62311071D02*
X49932856Y-62311071D01*
X49932856Y-62311071D02*
X49875714Y-62339642D01*
X49875714Y-62339642D02*
X49847142Y-62368214D01*
X49847142Y-62368214D02*
X49818571Y-62425357D01*
X49818571Y-62425357D02*
X49818571Y-62482500D01*
X49818571Y-62482500D02*
X49847142Y-62568214D01*
X49847142Y-62568214D02*
X50189999Y-62911071D01*
X50189999Y-62911071D02*
X49818571Y-62911071D01*
D12*
X23667142Y-95979847D02*
X23800475Y-95789371D01*
X23895713Y-95979847D02*
X23895713Y-95579847D01*
X23895713Y-95579847D02*
X23743332Y-95579847D01*
X23743332Y-95579847D02*
X23705237Y-95598895D01*
X23705237Y-95598895D02*
X23686190Y-95617942D01*
X23686190Y-95617942D02*
X23667142Y-95656038D01*
X23667142Y-95656038D02*
X23667142Y-95713180D01*
X23667142Y-95713180D02*
X23686190Y-95751276D01*
X23686190Y-95751276D02*
X23705237Y-95770323D01*
X23705237Y-95770323D02*
X23743332Y-95789371D01*
X23743332Y-95789371D02*
X23895713Y-95789371D01*
X23533809Y-95579847D02*
X23267142Y-95579847D01*
X23267142Y-95579847D02*
X23438571Y-95979847D01*
X23152857Y-95579847D02*
X22905238Y-95579847D01*
X22905238Y-95579847D02*
X23038571Y-95732228D01*
X23038571Y-95732228D02*
X22981428Y-95732228D01*
X22981428Y-95732228D02*
X22943333Y-95751276D01*
X22943333Y-95751276D02*
X22924285Y-95770323D01*
X22924285Y-95770323D02*
X22905238Y-95808419D01*
X22905238Y-95808419D02*
X22905238Y-95903657D01*
X22905238Y-95903657D02*
X22924285Y-95941752D01*
X22924285Y-95941752D02*
X22943333Y-95960800D01*
X22943333Y-95960800D02*
X22981428Y-95979847D01*
X22981428Y-95979847D02*
X23095714Y-95979847D01*
X23095714Y-95979847D02*
X23133809Y-95960800D01*
X23133809Y-95960800D02*
X23152857Y-95941752D01*
X33267142Y-102729847D02*
X33400475Y-102539371D01*
X33495713Y-102729847D02*
X33495713Y-102329847D01*
X33495713Y-102329847D02*
X33343332Y-102329847D01*
X33343332Y-102329847D02*
X33305237Y-102348895D01*
X33305237Y-102348895D02*
X33286190Y-102367942D01*
X33286190Y-102367942D02*
X33267142Y-102406038D01*
X33267142Y-102406038D02*
X33267142Y-102463180D01*
X33267142Y-102463180D02*
X33286190Y-102501276D01*
X33286190Y-102501276D02*
X33305237Y-102520323D01*
X33305237Y-102520323D02*
X33343332Y-102539371D01*
X33343332Y-102539371D02*
X33495713Y-102539371D01*
X33133809Y-102329847D02*
X32867142Y-102329847D01*
X32867142Y-102329847D02*
X33038571Y-102729847D01*
X32733809Y-102367942D02*
X32714761Y-102348895D01*
X32714761Y-102348895D02*
X32676666Y-102329847D01*
X32676666Y-102329847D02*
X32581428Y-102329847D01*
X32581428Y-102329847D02*
X32543333Y-102348895D01*
X32543333Y-102348895D02*
X32524285Y-102367942D01*
X32524285Y-102367942D02*
X32505238Y-102406038D01*
X32505238Y-102406038D02*
X32505238Y-102444133D01*
X32505238Y-102444133D02*
X32524285Y-102501276D01*
X32524285Y-102501276D02*
X32752857Y-102729847D01*
X32752857Y-102729847D02*
X32505238Y-102729847D01*
D13*
X28807190Y-67418571D02*
X28831000Y-67394762D01*
X28831000Y-67394762D02*
X28854809Y-67323333D01*
X28854809Y-67323333D02*
X28854809Y-67275714D01*
X28854809Y-67275714D02*
X28831000Y-67204286D01*
X28831000Y-67204286D02*
X28783380Y-67156667D01*
X28783380Y-67156667D02*
X28735761Y-67132857D01*
X28735761Y-67132857D02*
X28640523Y-67109048D01*
X28640523Y-67109048D02*
X28569095Y-67109048D01*
X28569095Y-67109048D02*
X28473857Y-67132857D01*
X28473857Y-67132857D02*
X28426238Y-67156667D01*
X28426238Y-67156667D02*
X28378619Y-67204286D01*
X28378619Y-67204286D02*
X28354809Y-67275714D01*
X28354809Y-67275714D02*
X28354809Y-67323333D01*
X28354809Y-67323333D02*
X28378619Y-67394762D01*
X28378619Y-67394762D02*
X28402428Y-67418571D01*
X28354809Y-67585238D02*
X28354809Y-67918571D01*
X28354809Y-67918571D02*
X28854809Y-67704286D01*
X28354809Y-68061428D02*
X28354809Y-68370952D01*
X28354809Y-68370952D02*
X28545285Y-68204285D01*
X28545285Y-68204285D02*
X28545285Y-68275714D01*
X28545285Y-68275714D02*
X28569095Y-68323333D01*
X28569095Y-68323333D02*
X28592904Y-68347142D01*
X28592904Y-68347142D02*
X28640523Y-68370952D01*
X28640523Y-68370952D02*
X28759571Y-68370952D01*
X28759571Y-68370952D02*
X28807190Y-68347142D01*
X28807190Y-68347142D02*
X28831000Y-68323333D01*
X28831000Y-68323333D02*
X28854809Y-68275714D01*
X28854809Y-68275714D02*
X28854809Y-68132857D01*
X28854809Y-68132857D02*
X28831000Y-68085238D01*
X28831000Y-68085238D02*
X28807190Y-68061428D01*
D11*
X136872857Y-76254819D02*
X137206190Y-75778628D01*
X137444285Y-76254819D02*
X137444285Y-75254819D01*
X137444285Y-75254819D02*
X137063333Y-75254819D01*
X137063333Y-75254819D02*
X136968095Y-75302438D01*
X136968095Y-75302438D02*
X136920476Y-75350057D01*
X136920476Y-75350057D02*
X136872857Y-75445295D01*
X136872857Y-75445295D02*
X136872857Y-75588152D01*
X136872857Y-75588152D02*
X136920476Y-75683390D01*
X136920476Y-75683390D02*
X136968095Y-75731009D01*
X136968095Y-75731009D02*
X137063333Y-75778628D01*
X137063333Y-75778628D02*
X137444285Y-75778628D01*
X135920476Y-76254819D02*
X136491904Y-76254819D01*
X136206190Y-76254819D02*
X136206190Y-75254819D01*
X136206190Y-75254819D02*
X136301428Y-75397676D01*
X136301428Y-75397676D02*
X136396666Y-75492914D01*
X136396666Y-75492914D02*
X136491904Y-75540533D01*
X135587142Y-75254819D02*
X134920476Y-75254819D01*
X134920476Y-75254819D02*
X135349047Y-76254819D01*
X65959580Y-99797142D02*
X66007200Y-99749523D01*
X66007200Y-99749523D02*
X66054819Y-99606666D01*
X66054819Y-99606666D02*
X66054819Y-99511428D01*
X66054819Y-99511428D02*
X66007200Y-99368571D01*
X66007200Y-99368571D02*
X65911961Y-99273333D01*
X65911961Y-99273333D02*
X65816723Y-99225714D01*
X65816723Y-99225714D02*
X65626247Y-99178095D01*
X65626247Y-99178095D02*
X65483390Y-99178095D01*
X65483390Y-99178095D02*
X65292914Y-99225714D01*
X65292914Y-99225714D02*
X65197676Y-99273333D01*
X65197676Y-99273333D02*
X65102438Y-99368571D01*
X65102438Y-99368571D02*
X65054819Y-99511428D01*
X65054819Y-99511428D02*
X65054819Y-99606666D01*
X65054819Y-99606666D02*
X65102438Y-99749523D01*
X65102438Y-99749523D02*
X65150057Y-99797142D01*
X65150057Y-100178095D02*
X65102438Y-100225714D01*
X65102438Y-100225714D02*
X65054819Y-100320952D01*
X65054819Y-100320952D02*
X65054819Y-100559047D01*
X65054819Y-100559047D02*
X65102438Y-100654285D01*
X65102438Y-100654285D02*
X65150057Y-100701904D01*
X65150057Y-100701904D02*
X65245295Y-100749523D01*
X65245295Y-100749523D02*
X65340533Y-100749523D01*
X65340533Y-100749523D02*
X65483390Y-100701904D01*
X65483390Y-100701904D02*
X66054819Y-100130476D01*
X66054819Y-100130476D02*
X66054819Y-100749523D01*
X65054819Y-101606666D02*
X65054819Y-101416190D01*
X65054819Y-101416190D02*
X65102438Y-101320952D01*
X65102438Y-101320952D02*
X65150057Y-101273333D01*
X65150057Y-101273333D02*
X65292914Y-101178095D01*
X65292914Y-101178095D02*
X65483390Y-101130476D01*
X65483390Y-101130476D02*
X65864342Y-101130476D01*
X65864342Y-101130476D02*
X65959580Y-101178095D01*
X65959580Y-101178095D02*
X66007200Y-101225714D01*
X66007200Y-101225714D02*
X66054819Y-101320952D01*
X66054819Y-101320952D02*
X66054819Y-101511428D01*
X66054819Y-101511428D02*
X66007200Y-101606666D01*
X66007200Y-101606666D02*
X65959580Y-101654285D01*
X65959580Y-101654285D02*
X65864342Y-101701904D01*
X65864342Y-101701904D02*
X65626247Y-101701904D01*
X65626247Y-101701904D02*
X65531009Y-101654285D01*
X65531009Y-101654285D02*
X65483390Y-101606666D01*
X65483390Y-101606666D02*
X65435771Y-101511428D01*
X65435771Y-101511428D02*
X65435771Y-101320952D01*
X65435771Y-101320952D02*
X65483390Y-101225714D01*
X65483390Y-101225714D02*
X65531009Y-101178095D01*
X65531009Y-101178095D02*
X65626247Y-101130476D01*
D12*
X49501428Y-109718490D02*
X49525237Y-109742300D01*
X49525237Y-109742300D02*
X49596666Y-109766109D01*
X49596666Y-109766109D02*
X49644285Y-109766109D01*
X49644285Y-109766109D02*
X49715713Y-109742300D01*
X49715713Y-109742300D02*
X49763332Y-109694680D01*
X49763332Y-109694680D02*
X49787142Y-109647061D01*
X49787142Y-109647061D02*
X49810951Y-109551823D01*
X49810951Y-109551823D02*
X49810951Y-109480395D01*
X49810951Y-109480395D02*
X49787142Y-109385157D01*
X49787142Y-109385157D02*
X49763332Y-109337538D01*
X49763332Y-109337538D02*
X49715713Y-109289919D01*
X49715713Y-109289919D02*
X49644285Y-109266109D01*
X49644285Y-109266109D02*
X49596666Y-109266109D01*
X49596666Y-109266109D02*
X49525237Y-109289919D01*
X49525237Y-109289919D02*
X49501428Y-109313728D01*
X49025237Y-109766109D02*
X49310951Y-109766109D01*
X49168094Y-109766109D02*
X49168094Y-109266109D01*
X49168094Y-109266109D02*
X49215713Y-109337538D01*
X49215713Y-109337538D02*
X49263332Y-109385157D01*
X49263332Y-109385157D02*
X49310951Y-109408966D01*
X48596666Y-109266109D02*
X48691904Y-109266109D01*
X48691904Y-109266109D02*
X48739523Y-109289919D01*
X48739523Y-109289919D02*
X48763333Y-109313728D01*
X48763333Y-109313728D02*
X48810952Y-109385157D01*
X48810952Y-109385157D02*
X48834761Y-109480395D01*
X48834761Y-109480395D02*
X48834761Y-109670871D01*
X48834761Y-109670871D02*
X48810952Y-109718490D01*
X48810952Y-109718490D02*
X48787142Y-109742300D01*
X48787142Y-109742300D02*
X48739523Y-109766109D01*
X48739523Y-109766109D02*
X48644285Y-109766109D01*
X48644285Y-109766109D02*
X48596666Y-109742300D01*
X48596666Y-109742300D02*
X48572857Y-109718490D01*
X48572857Y-109718490D02*
X48549047Y-109670871D01*
X48549047Y-109670871D02*
X48549047Y-109551823D01*
X48549047Y-109551823D02*
X48572857Y-109504204D01*
X48572857Y-109504204D02*
X48596666Y-109480395D01*
X48596666Y-109480395D02*
X48644285Y-109456585D01*
X48644285Y-109456585D02*
X48739523Y-109456585D01*
X48739523Y-109456585D02*
X48787142Y-109480395D01*
X48787142Y-109480395D02*
X48810952Y-109504204D01*
X48810952Y-109504204D02*
X48834761Y-109551823D01*
X43769847Y-84702857D02*
X43579371Y-84569524D01*
X43769847Y-84474286D02*
X43369847Y-84474286D01*
X43369847Y-84474286D02*
X43369847Y-84626667D01*
X43369847Y-84626667D02*
X43388895Y-84664762D01*
X43388895Y-84664762D02*
X43407942Y-84683809D01*
X43407942Y-84683809D02*
X43446038Y-84702857D01*
X43446038Y-84702857D02*
X43503180Y-84702857D01*
X43503180Y-84702857D02*
X43541276Y-84683809D01*
X43541276Y-84683809D02*
X43560323Y-84664762D01*
X43560323Y-84664762D02*
X43579371Y-84626667D01*
X43579371Y-84626667D02*
X43579371Y-84474286D01*
X43369847Y-84836190D02*
X43369847Y-85102857D01*
X43369847Y-85102857D02*
X43769847Y-84931428D01*
X43369847Y-85217142D02*
X43369847Y-85483809D01*
X43369847Y-85483809D02*
X43769847Y-85312380D01*
X55069847Y-99062857D02*
X54879371Y-98929524D01*
X55069847Y-98834286D02*
X54669847Y-98834286D01*
X54669847Y-98834286D02*
X54669847Y-98986667D01*
X54669847Y-98986667D02*
X54688895Y-99024762D01*
X54688895Y-99024762D02*
X54707942Y-99043809D01*
X54707942Y-99043809D02*
X54746038Y-99062857D01*
X54746038Y-99062857D02*
X54803180Y-99062857D01*
X54803180Y-99062857D02*
X54841276Y-99043809D01*
X54841276Y-99043809D02*
X54860323Y-99024762D01*
X54860323Y-99024762D02*
X54879371Y-98986667D01*
X54879371Y-98986667D02*
X54879371Y-98834286D01*
X54669847Y-99196190D02*
X54669847Y-99443809D01*
X54669847Y-99443809D02*
X54822228Y-99310476D01*
X54822228Y-99310476D02*
X54822228Y-99367619D01*
X54822228Y-99367619D02*
X54841276Y-99405714D01*
X54841276Y-99405714D02*
X54860323Y-99424762D01*
X54860323Y-99424762D02*
X54898419Y-99443809D01*
X54898419Y-99443809D02*
X54993657Y-99443809D01*
X54993657Y-99443809D02*
X55031752Y-99424762D01*
X55031752Y-99424762D02*
X55050800Y-99405714D01*
X55050800Y-99405714D02*
X55069847Y-99367619D01*
X55069847Y-99367619D02*
X55069847Y-99253333D01*
X55069847Y-99253333D02*
X55050800Y-99215238D01*
X55050800Y-99215238D02*
X55031752Y-99196190D01*
X54803180Y-99786666D02*
X55069847Y-99786666D01*
X54650800Y-99691428D02*
X54936514Y-99596190D01*
X54936514Y-99596190D02*
X54936514Y-99843809D01*
X29057142Y-91929847D02*
X29190475Y-91739371D01*
X29285713Y-91929847D02*
X29285713Y-91529847D01*
X29285713Y-91529847D02*
X29133332Y-91529847D01*
X29133332Y-91529847D02*
X29095237Y-91548895D01*
X29095237Y-91548895D02*
X29076190Y-91567942D01*
X29076190Y-91567942D02*
X29057142Y-91606038D01*
X29057142Y-91606038D02*
X29057142Y-91663180D01*
X29057142Y-91663180D02*
X29076190Y-91701276D01*
X29076190Y-91701276D02*
X29095237Y-91720323D01*
X29095237Y-91720323D02*
X29133332Y-91739371D01*
X29133332Y-91739371D02*
X29285713Y-91739371D01*
X28923809Y-91529847D02*
X28657142Y-91529847D01*
X28657142Y-91529847D02*
X28828571Y-91929847D01*
X28428571Y-91529847D02*
X28390476Y-91529847D01*
X28390476Y-91529847D02*
X28352380Y-91548895D01*
X28352380Y-91548895D02*
X28333333Y-91567942D01*
X28333333Y-91567942D02*
X28314285Y-91606038D01*
X28314285Y-91606038D02*
X28295238Y-91682228D01*
X28295238Y-91682228D02*
X28295238Y-91777466D01*
X28295238Y-91777466D02*
X28314285Y-91853657D01*
X28314285Y-91853657D02*
X28333333Y-91891752D01*
X28333333Y-91891752D02*
X28352380Y-91910800D01*
X28352380Y-91910800D02*
X28390476Y-91929847D01*
X28390476Y-91929847D02*
X28428571Y-91929847D01*
X28428571Y-91929847D02*
X28466666Y-91910800D01*
X28466666Y-91910800D02*
X28485714Y-91891752D01*
X28485714Y-91891752D02*
X28504761Y-91853657D01*
X28504761Y-91853657D02*
X28523809Y-91777466D01*
X28523809Y-91777466D02*
X28523809Y-91682228D01*
X28523809Y-91682228D02*
X28504761Y-91606038D01*
X28504761Y-91606038D02*
X28485714Y-91567942D01*
X28485714Y-91567942D02*
X28466666Y-91548895D01*
X28466666Y-91548895D02*
X28428571Y-91529847D01*
D11*
X50752856Y-53779771D02*
X50752856Y-53179771D01*
X50752856Y-53179771D02*
X50609999Y-53179771D01*
X50609999Y-53179771D02*
X50524285Y-53208342D01*
X50524285Y-53208342D02*
X50467142Y-53265485D01*
X50467142Y-53265485D02*
X50438571Y-53322628D01*
X50438571Y-53322628D02*
X50409999Y-53436914D01*
X50409999Y-53436914D02*
X50409999Y-53522628D01*
X50409999Y-53522628D02*
X50438571Y-53636914D01*
X50438571Y-53636914D02*
X50467142Y-53694057D01*
X50467142Y-53694057D02*
X50524285Y-53751200D01*
X50524285Y-53751200D02*
X50609999Y-53779771D01*
X50609999Y-53779771D02*
X50752856Y-53779771D01*
X49838571Y-53779771D02*
X50181428Y-53779771D01*
X50009999Y-53779771D02*
X50009999Y-53179771D01*
X50009999Y-53179771D02*
X50067142Y-53265485D01*
X50067142Y-53265485D02*
X50124285Y-53322628D01*
X50124285Y-53322628D02*
X50181428Y-53351200D01*
D12*
X36746666Y-33449847D02*
X36879999Y-33259371D01*
X36975237Y-33449847D02*
X36975237Y-33049847D01*
X36975237Y-33049847D02*
X36822856Y-33049847D01*
X36822856Y-33049847D02*
X36784761Y-33068895D01*
X36784761Y-33068895D02*
X36765714Y-33087942D01*
X36765714Y-33087942D02*
X36746666Y-33126038D01*
X36746666Y-33126038D02*
X36746666Y-33183180D01*
X36746666Y-33183180D02*
X36765714Y-33221276D01*
X36765714Y-33221276D02*
X36784761Y-33240323D01*
X36784761Y-33240323D02*
X36822856Y-33259371D01*
X36822856Y-33259371D02*
X36975237Y-33259371D01*
X36518095Y-33221276D02*
X36556190Y-33202228D01*
X36556190Y-33202228D02*
X36575237Y-33183180D01*
X36575237Y-33183180D02*
X36594285Y-33145085D01*
X36594285Y-33145085D02*
X36594285Y-33126038D01*
X36594285Y-33126038D02*
X36575237Y-33087942D01*
X36575237Y-33087942D02*
X36556190Y-33068895D01*
X36556190Y-33068895D02*
X36518095Y-33049847D01*
X36518095Y-33049847D02*
X36441904Y-33049847D01*
X36441904Y-33049847D02*
X36403809Y-33068895D01*
X36403809Y-33068895D02*
X36384761Y-33087942D01*
X36384761Y-33087942D02*
X36365714Y-33126038D01*
X36365714Y-33126038D02*
X36365714Y-33145085D01*
X36365714Y-33145085D02*
X36384761Y-33183180D01*
X36384761Y-33183180D02*
X36403809Y-33202228D01*
X36403809Y-33202228D02*
X36441904Y-33221276D01*
X36441904Y-33221276D02*
X36518095Y-33221276D01*
X36518095Y-33221276D02*
X36556190Y-33240323D01*
X36556190Y-33240323D02*
X36575237Y-33259371D01*
X36575237Y-33259371D02*
X36594285Y-33297466D01*
X36594285Y-33297466D02*
X36594285Y-33373657D01*
X36594285Y-33373657D02*
X36575237Y-33411752D01*
X36575237Y-33411752D02*
X36556190Y-33430800D01*
X36556190Y-33430800D02*
X36518095Y-33449847D01*
X36518095Y-33449847D02*
X36441904Y-33449847D01*
X36441904Y-33449847D02*
X36403809Y-33430800D01*
X36403809Y-33430800D02*
X36384761Y-33411752D01*
X36384761Y-33411752D02*
X36365714Y-33373657D01*
X36365714Y-33373657D02*
X36365714Y-33297466D01*
X36365714Y-33297466D02*
X36384761Y-33259371D01*
X36384761Y-33259371D02*
X36403809Y-33240323D01*
X36403809Y-33240323D02*
X36441904Y-33221276D01*
D11*
X62262857Y-102154819D02*
X62596190Y-101678628D01*
X62834285Y-102154819D02*
X62834285Y-101154819D01*
X62834285Y-101154819D02*
X62453333Y-101154819D01*
X62453333Y-101154819D02*
X62358095Y-101202438D01*
X62358095Y-101202438D02*
X62310476Y-101250057D01*
X62310476Y-101250057D02*
X62262857Y-101345295D01*
X62262857Y-101345295D02*
X62262857Y-101488152D01*
X62262857Y-101488152D02*
X62310476Y-101583390D01*
X62310476Y-101583390D02*
X62358095Y-101631009D01*
X62358095Y-101631009D02*
X62453333Y-101678628D01*
X62453333Y-101678628D02*
X62834285Y-101678628D01*
X61929523Y-101154819D02*
X61310476Y-101154819D01*
X61310476Y-101154819D02*
X61643809Y-101535771D01*
X61643809Y-101535771D02*
X61500952Y-101535771D01*
X61500952Y-101535771D02*
X61405714Y-101583390D01*
X61405714Y-101583390D02*
X61358095Y-101631009D01*
X61358095Y-101631009D02*
X61310476Y-101726247D01*
X61310476Y-101726247D02*
X61310476Y-101964342D01*
X61310476Y-101964342D02*
X61358095Y-102059580D01*
X61358095Y-102059580D02*
X61405714Y-102107200D01*
X61405714Y-102107200D02*
X61500952Y-102154819D01*
X61500952Y-102154819D02*
X61786666Y-102154819D01*
X61786666Y-102154819D02*
X61881904Y-102107200D01*
X61881904Y-102107200D02*
X61929523Y-102059580D01*
X60453333Y-101154819D02*
X60643809Y-101154819D01*
X60643809Y-101154819D02*
X60739047Y-101202438D01*
X60739047Y-101202438D02*
X60786666Y-101250057D01*
X60786666Y-101250057D02*
X60881904Y-101392914D01*
X60881904Y-101392914D02*
X60929523Y-101583390D01*
X60929523Y-101583390D02*
X60929523Y-101964342D01*
X60929523Y-101964342D02*
X60881904Y-102059580D01*
X60881904Y-102059580D02*
X60834285Y-102107200D01*
X60834285Y-102107200D02*
X60739047Y-102154819D01*
X60739047Y-102154819D02*
X60548571Y-102154819D01*
X60548571Y-102154819D02*
X60453333Y-102107200D01*
X60453333Y-102107200D02*
X60405714Y-102059580D01*
X60405714Y-102059580D02*
X60358095Y-101964342D01*
X60358095Y-101964342D02*
X60358095Y-101726247D01*
X60358095Y-101726247D02*
X60405714Y-101631009D01*
X60405714Y-101631009D02*
X60453333Y-101583390D01*
X60453333Y-101583390D02*
X60548571Y-101535771D01*
X60548571Y-101535771D02*
X60739047Y-101535771D01*
X60739047Y-101535771D02*
X60834285Y-101583390D01*
X60834285Y-101583390D02*
X60881904Y-101631009D01*
X60881904Y-101631009D02*
X60929523Y-101726247D01*
D12*
X54801752Y-40282857D02*
X54820800Y-40263809D01*
X54820800Y-40263809D02*
X54839847Y-40206667D01*
X54839847Y-40206667D02*
X54839847Y-40168571D01*
X54839847Y-40168571D02*
X54820800Y-40111428D01*
X54820800Y-40111428D02*
X54782704Y-40073333D01*
X54782704Y-40073333D02*
X54744609Y-40054286D01*
X54744609Y-40054286D02*
X54668419Y-40035238D01*
X54668419Y-40035238D02*
X54611276Y-40035238D01*
X54611276Y-40035238D02*
X54535085Y-40054286D01*
X54535085Y-40054286D02*
X54496990Y-40073333D01*
X54496990Y-40073333D02*
X54458895Y-40111428D01*
X54458895Y-40111428D02*
X54439847Y-40168571D01*
X54439847Y-40168571D02*
X54439847Y-40206667D01*
X54439847Y-40206667D02*
X54458895Y-40263809D01*
X54458895Y-40263809D02*
X54477942Y-40282857D01*
X54477942Y-40435238D02*
X54458895Y-40454286D01*
X54458895Y-40454286D02*
X54439847Y-40492381D01*
X54439847Y-40492381D02*
X54439847Y-40587619D01*
X54439847Y-40587619D02*
X54458895Y-40625714D01*
X54458895Y-40625714D02*
X54477942Y-40644762D01*
X54477942Y-40644762D02*
X54516038Y-40663809D01*
X54516038Y-40663809D02*
X54554133Y-40663809D01*
X54554133Y-40663809D02*
X54611276Y-40644762D01*
X54611276Y-40644762D02*
X54839847Y-40416190D01*
X54839847Y-40416190D02*
X54839847Y-40663809D01*
X54439847Y-40797142D02*
X54439847Y-41044761D01*
X54439847Y-41044761D02*
X54592228Y-40911428D01*
X54592228Y-40911428D02*
X54592228Y-40968571D01*
X54592228Y-40968571D02*
X54611276Y-41006666D01*
X54611276Y-41006666D02*
X54630323Y-41025714D01*
X54630323Y-41025714D02*
X54668419Y-41044761D01*
X54668419Y-41044761D02*
X54763657Y-41044761D01*
X54763657Y-41044761D02*
X54801752Y-41025714D01*
X54801752Y-41025714D02*
X54820800Y-41006666D01*
X54820800Y-41006666D02*
X54839847Y-40968571D01*
X54839847Y-40968571D02*
X54839847Y-40854285D01*
X54839847Y-40854285D02*
X54820800Y-40816190D01*
X54820800Y-40816190D02*
X54801752Y-40797142D01*
D11*
X30885714Y-40692628D02*
X30914286Y-40721200D01*
X30914286Y-40721200D02*
X31000000Y-40749771D01*
X31000000Y-40749771D02*
X31057143Y-40749771D01*
X31057143Y-40749771D02*
X31142857Y-40721200D01*
X31142857Y-40721200D02*
X31200000Y-40664057D01*
X31200000Y-40664057D02*
X31228571Y-40606914D01*
X31228571Y-40606914D02*
X31257143Y-40492628D01*
X31257143Y-40492628D02*
X31257143Y-40406914D01*
X31257143Y-40406914D02*
X31228571Y-40292628D01*
X31228571Y-40292628D02*
X31200000Y-40235485D01*
X31200000Y-40235485D02*
X31142857Y-40178342D01*
X31142857Y-40178342D02*
X31057143Y-40149771D01*
X31057143Y-40149771D02*
X31000000Y-40149771D01*
X31000000Y-40149771D02*
X30914286Y-40178342D01*
X30914286Y-40178342D02*
X30885714Y-40206914D01*
X30314286Y-40749771D02*
X30657143Y-40749771D01*
X30485714Y-40749771D02*
X30485714Y-40149771D01*
X30485714Y-40149771D02*
X30542857Y-40235485D01*
X30542857Y-40235485D02*
X30600000Y-40292628D01*
X30600000Y-40292628D02*
X30657143Y-40321200D01*
X29800000Y-40349771D02*
X29800000Y-40749771D01*
X29942857Y-40121200D02*
X30085714Y-40549771D01*
X30085714Y-40549771D02*
X29714285Y-40549771D01*
D12*
X25437142Y-82921752D02*
X25456190Y-82940800D01*
X25456190Y-82940800D02*
X25513332Y-82959847D01*
X25513332Y-82959847D02*
X25551428Y-82959847D01*
X25551428Y-82959847D02*
X25608571Y-82940800D01*
X25608571Y-82940800D02*
X25646666Y-82902704D01*
X25646666Y-82902704D02*
X25665713Y-82864609D01*
X25665713Y-82864609D02*
X25684761Y-82788419D01*
X25684761Y-82788419D02*
X25684761Y-82731276D01*
X25684761Y-82731276D02*
X25665713Y-82655085D01*
X25665713Y-82655085D02*
X25646666Y-82616990D01*
X25646666Y-82616990D02*
X25608571Y-82578895D01*
X25608571Y-82578895D02*
X25551428Y-82559847D01*
X25551428Y-82559847D02*
X25513332Y-82559847D01*
X25513332Y-82559847D02*
X25456190Y-82578895D01*
X25456190Y-82578895D02*
X25437142Y-82597942D01*
X25094285Y-82559847D02*
X25170475Y-82559847D01*
X25170475Y-82559847D02*
X25208571Y-82578895D01*
X25208571Y-82578895D02*
X25227618Y-82597942D01*
X25227618Y-82597942D02*
X25265713Y-82655085D01*
X25265713Y-82655085D02*
X25284761Y-82731276D01*
X25284761Y-82731276D02*
X25284761Y-82883657D01*
X25284761Y-82883657D02*
X25265713Y-82921752D01*
X25265713Y-82921752D02*
X25246666Y-82940800D01*
X25246666Y-82940800D02*
X25208571Y-82959847D01*
X25208571Y-82959847D02*
X25132380Y-82959847D01*
X25132380Y-82959847D02*
X25094285Y-82940800D01*
X25094285Y-82940800D02*
X25075237Y-82921752D01*
X25075237Y-82921752D02*
X25056190Y-82883657D01*
X25056190Y-82883657D02*
X25056190Y-82788419D01*
X25056190Y-82788419D02*
X25075237Y-82750323D01*
X25075237Y-82750323D02*
X25094285Y-82731276D01*
X25094285Y-82731276D02*
X25132380Y-82712228D01*
X25132380Y-82712228D02*
X25208571Y-82712228D01*
X25208571Y-82712228D02*
X25246666Y-82731276D01*
X25246666Y-82731276D02*
X25265713Y-82750323D01*
X25265713Y-82750323D02*
X25284761Y-82788419D01*
X24903809Y-82597942D02*
X24884761Y-82578895D01*
X24884761Y-82578895D02*
X24846666Y-82559847D01*
X24846666Y-82559847D02*
X24751428Y-82559847D01*
X24751428Y-82559847D02*
X24713333Y-82578895D01*
X24713333Y-82578895D02*
X24694285Y-82597942D01*
X24694285Y-82597942D02*
X24675238Y-82636038D01*
X24675238Y-82636038D02*
X24675238Y-82674133D01*
X24675238Y-82674133D02*
X24694285Y-82731276D01*
X24694285Y-82731276D02*
X24922857Y-82959847D01*
X24922857Y-82959847D02*
X24675238Y-82959847D01*
D11*
X46865714Y-28552628D02*
X46894286Y-28581200D01*
X46894286Y-28581200D02*
X46980000Y-28609771D01*
X46980000Y-28609771D02*
X47037143Y-28609771D01*
X47037143Y-28609771D02*
X47122857Y-28581200D01*
X47122857Y-28581200D02*
X47180000Y-28524057D01*
X47180000Y-28524057D02*
X47208571Y-28466914D01*
X47208571Y-28466914D02*
X47237143Y-28352628D01*
X47237143Y-28352628D02*
X47237143Y-28266914D01*
X47237143Y-28266914D02*
X47208571Y-28152628D01*
X47208571Y-28152628D02*
X47180000Y-28095485D01*
X47180000Y-28095485D02*
X47122857Y-28038342D01*
X47122857Y-28038342D02*
X47037143Y-28009771D01*
X47037143Y-28009771D02*
X46980000Y-28009771D01*
X46980000Y-28009771D02*
X46894286Y-28038342D01*
X46894286Y-28038342D02*
X46865714Y-28066914D01*
X46294286Y-28609771D02*
X46637143Y-28609771D01*
X46465714Y-28609771D02*
X46465714Y-28009771D01*
X46465714Y-28009771D02*
X46522857Y-28095485D01*
X46522857Y-28095485D02*
X46580000Y-28152628D01*
X46580000Y-28152628D02*
X46637143Y-28181200D01*
X45922857Y-28009771D02*
X45865714Y-28009771D01*
X45865714Y-28009771D02*
X45808571Y-28038342D01*
X45808571Y-28038342D02*
X45780000Y-28066914D01*
X45780000Y-28066914D02*
X45751428Y-28124057D01*
X45751428Y-28124057D02*
X45722857Y-28238342D01*
X45722857Y-28238342D02*
X45722857Y-28381200D01*
X45722857Y-28381200D02*
X45751428Y-28495485D01*
X45751428Y-28495485D02*
X45780000Y-28552628D01*
X45780000Y-28552628D02*
X45808571Y-28581200D01*
X45808571Y-28581200D02*
X45865714Y-28609771D01*
X45865714Y-28609771D02*
X45922857Y-28609771D01*
X45922857Y-28609771D02*
X45980000Y-28581200D01*
X45980000Y-28581200D02*
X46008571Y-28552628D01*
X46008571Y-28552628D02*
X46037142Y-28495485D01*
X46037142Y-28495485D02*
X46065714Y-28381200D01*
X46065714Y-28381200D02*
X46065714Y-28238342D01*
X46065714Y-28238342D02*
X46037142Y-28124057D01*
X46037142Y-28124057D02*
X46008571Y-28066914D01*
X46008571Y-28066914D02*
X45980000Y-28038342D01*
X45980000Y-28038342D02*
X45922857Y-28009771D01*
X40105714Y-56352628D02*
X40134286Y-56381200D01*
X40134286Y-56381200D02*
X40220000Y-56409771D01*
X40220000Y-56409771D02*
X40277143Y-56409771D01*
X40277143Y-56409771D02*
X40362857Y-56381200D01*
X40362857Y-56381200D02*
X40420000Y-56324057D01*
X40420000Y-56324057D02*
X40448571Y-56266914D01*
X40448571Y-56266914D02*
X40477143Y-56152628D01*
X40477143Y-56152628D02*
X40477143Y-56066914D01*
X40477143Y-56066914D02*
X40448571Y-55952628D01*
X40448571Y-55952628D02*
X40420000Y-55895485D01*
X40420000Y-55895485D02*
X40362857Y-55838342D01*
X40362857Y-55838342D02*
X40277143Y-55809771D01*
X40277143Y-55809771D02*
X40220000Y-55809771D01*
X40220000Y-55809771D02*
X40134286Y-55838342D01*
X40134286Y-55838342D02*
X40105714Y-55866914D01*
X39877143Y-55866914D02*
X39848571Y-55838342D01*
X39848571Y-55838342D02*
X39791429Y-55809771D01*
X39791429Y-55809771D02*
X39648571Y-55809771D01*
X39648571Y-55809771D02*
X39591429Y-55838342D01*
X39591429Y-55838342D02*
X39562857Y-55866914D01*
X39562857Y-55866914D02*
X39534286Y-55924057D01*
X39534286Y-55924057D02*
X39534286Y-55981200D01*
X39534286Y-55981200D02*
X39562857Y-56066914D01*
X39562857Y-56066914D02*
X39905714Y-56409771D01*
X39905714Y-56409771D02*
X39534286Y-56409771D01*
X39305714Y-55866914D02*
X39277142Y-55838342D01*
X39277142Y-55838342D02*
X39220000Y-55809771D01*
X39220000Y-55809771D02*
X39077142Y-55809771D01*
X39077142Y-55809771D02*
X39020000Y-55838342D01*
X39020000Y-55838342D02*
X38991428Y-55866914D01*
X38991428Y-55866914D02*
X38962857Y-55924057D01*
X38962857Y-55924057D02*
X38962857Y-55981200D01*
X38962857Y-55981200D02*
X38991428Y-56066914D01*
X38991428Y-56066914D02*
X39334285Y-56409771D01*
X39334285Y-56409771D02*
X38962857Y-56409771D01*
D12*
X48689847Y-105672857D02*
X48499371Y-105539524D01*
X48689847Y-105444286D02*
X48289847Y-105444286D01*
X48289847Y-105444286D02*
X48289847Y-105596667D01*
X48289847Y-105596667D02*
X48308895Y-105634762D01*
X48308895Y-105634762D02*
X48327942Y-105653809D01*
X48327942Y-105653809D02*
X48366038Y-105672857D01*
X48366038Y-105672857D02*
X48423180Y-105672857D01*
X48423180Y-105672857D02*
X48461276Y-105653809D01*
X48461276Y-105653809D02*
X48480323Y-105634762D01*
X48480323Y-105634762D02*
X48499371Y-105596667D01*
X48499371Y-105596667D02*
X48499371Y-105444286D01*
X48289847Y-106034762D02*
X48289847Y-105844286D01*
X48289847Y-105844286D02*
X48480323Y-105825238D01*
X48480323Y-105825238D02*
X48461276Y-105844286D01*
X48461276Y-105844286D02*
X48442228Y-105882381D01*
X48442228Y-105882381D02*
X48442228Y-105977619D01*
X48442228Y-105977619D02*
X48461276Y-106015714D01*
X48461276Y-106015714D02*
X48480323Y-106034762D01*
X48480323Y-106034762D02*
X48518419Y-106053809D01*
X48518419Y-106053809D02*
X48613657Y-106053809D01*
X48613657Y-106053809D02*
X48651752Y-106034762D01*
X48651752Y-106034762D02*
X48670800Y-106015714D01*
X48670800Y-106015714D02*
X48689847Y-105977619D01*
X48689847Y-105977619D02*
X48689847Y-105882381D01*
X48689847Y-105882381D02*
X48670800Y-105844286D01*
X48670800Y-105844286D02*
X48651752Y-105825238D01*
X48289847Y-106187142D02*
X48289847Y-106434761D01*
X48289847Y-106434761D02*
X48442228Y-106301428D01*
X48442228Y-106301428D02*
X48442228Y-106358571D01*
X48442228Y-106358571D02*
X48461276Y-106396666D01*
X48461276Y-106396666D02*
X48480323Y-106415714D01*
X48480323Y-106415714D02*
X48518419Y-106434761D01*
X48518419Y-106434761D02*
X48613657Y-106434761D01*
X48613657Y-106434761D02*
X48651752Y-106415714D01*
X48651752Y-106415714D02*
X48670800Y-106396666D01*
X48670800Y-106396666D02*
X48689847Y-106358571D01*
X48689847Y-106358571D02*
X48689847Y-106244285D01*
X48689847Y-106244285D02*
X48670800Y-106206190D01*
X48670800Y-106206190D02*
X48651752Y-106187142D01*
X33947142Y-90671752D02*
X33966190Y-90690800D01*
X33966190Y-90690800D02*
X34023332Y-90709847D01*
X34023332Y-90709847D02*
X34061428Y-90709847D01*
X34061428Y-90709847D02*
X34118571Y-90690800D01*
X34118571Y-90690800D02*
X34156666Y-90652704D01*
X34156666Y-90652704D02*
X34175713Y-90614609D01*
X34175713Y-90614609D02*
X34194761Y-90538419D01*
X34194761Y-90538419D02*
X34194761Y-90481276D01*
X34194761Y-90481276D02*
X34175713Y-90405085D01*
X34175713Y-90405085D02*
X34156666Y-90366990D01*
X34156666Y-90366990D02*
X34118571Y-90328895D01*
X34118571Y-90328895D02*
X34061428Y-90309847D01*
X34061428Y-90309847D02*
X34023332Y-90309847D01*
X34023332Y-90309847D02*
X33966190Y-90328895D01*
X33966190Y-90328895D02*
X33947142Y-90347942D01*
X33604285Y-90309847D02*
X33680475Y-90309847D01*
X33680475Y-90309847D02*
X33718571Y-90328895D01*
X33718571Y-90328895D02*
X33737618Y-90347942D01*
X33737618Y-90347942D02*
X33775713Y-90405085D01*
X33775713Y-90405085D02*
X33794761Y-90481276D01*
X33794761Y-90481276D02*
X33794761Y-90633657D01*
X33794761Y-90633657D02*
X33775713Y-90671752D01*
X33775713Y-90671752D02*
X33756666Y-90690800D01*
X33756666Y-90690800D02*
X33718571Y-90709847D01*
X33718571Y-90709847D02*
X33642380Y-90709847D01*
X33642380Y-90709847D02*
X33604285Y-90690800D01*
X33604285Y-90690800D02*
X33585237Y-90671752D01*
X33585237Y-90671752D02*
X33566190Y-90633657D01*
X33566190Y-90633657D02*
X33566190Y-90538419D01*
X33566190Y-90538419D02*
X33585237Y-90500323D01*
X33585237Y-90500323D02*
X33604285Y-90481276D01*
X33604285Y-90481276D02*
X33642380Y-90462228D01*
X33642380Y-90462228D02*
X33718571Y-90462228D01*
X33718571Y-90462228D02*
X33756666Y-90481276D01*
X33756666Y-90481276D02*
X33775713Y-90500323D01*
X33775713Y-90500323D02*
X33794761Y-90538419D01*
X33223333Y-90309847D02*
X33299523Y-90309847D01*
X33299523Y-90309847D02*
X33337619Y-90328895D01*
X33337619Y-90328895D02*
X33356666Y-90347942D01*
X33356666Y-90347942D02*
X33394761Y-90405085D01*
X33394761Y-90405085D02*
X33413809Y-90481276D01*
X33413809Y-90481276D02*
X33413809Y-90633657D01*
X33413809Y-90633657D02*
X33394761Y-90671752D01*
X33394761Y-90671752D02*
X33375714Y-90690800D01*
X33375714Y-90690800D02*
X33337619Y-90709847D01*
X33337619Y-90709847D02*
X33261428Y-90709847D01*
X33261428Y-90709847D02*
X33223333Y-90690800D01*
X33223333Y-90690800D02*
X33204285Y-90671752D01*
X33204285Y-90671752D02*
X33185238Y-90633657D01*
X33185238Y-90633657D02*
X33185238Y-90538419D01*
X33185238Y-90538419D02*
X33204285Y-90500323D01*
X33204285Y-90500323D02*
X33223333Y-90481276D01*
X33223333Y-90481276D02*
X33261428Y-90462228D01*
X33261428Y-90462228D02*
X33337619Y-90462228D01*
X33337619Y-90462228D02*
X33375714Y-90481276D01*
X33375714Y-90481276D02*
X33394761Y-90500323D01*
X33394761Y-90500323D02*
X33413809Y-90538419D01*
X50187142Y-79411752D02*
X50206190Y-79430800D01*
X50206190Y-79430800D02*
X50263332Y-79449847D01*
X50263332Y-79449847D02*
X50301428Y-79449847D01*
X50301428Y-79449847D02*
X50358571Y-79430800D01*
X50358571Y-79430800D02*
X50396666Y-79392704D01*
X50396666Y-79392704D02*
X50415713Y-79354609D01*
X50415713Y-79354609D02*
X50434761Y-79278419D01*
X50434761Y-79278419D02*
X50434761Y-79221276D01*
X50434761Y-79221276D02*
X50415713Y-79145085D01*
X50415713Y-79145085D02*
X50396666Y-79106990D01*
X50396666Y-79106990D02*
X50358571Y-79068895D01*
X50358571Y-79068895D02*
X50301428Y-79049847D01*
X50301428Y-79049847D02*
X50263332Y-79049847D01*
X50263332Y-79049847D02*
X50206190Y-79068895D01*
X50206190Y-79068895D02*
X50187142Y-79087942D01*
X49844285Y-79183180D02*
X49844285Y-79449847D01*
X49939523Y-79030800D02*
X50034761Y-79316514D01*
X50034761Y-79316514D02*
X49787142Y-79316514D01*
X49558571Y-79049847D02*
X49520476Y-79049847D01*
X49520476Y-79049847D02*
X49482380Y-79068895D01*
X49482380Y-79068895D02*
X49463333Y-79087942D01*
X49463333Y-79087942D02*
X49444285Y-79126038D01*
X49444285Y-79126038D02*
X49425238Y-79202228D01*
X49425238Y-79202228D02*
X49425238Y-79297466D01*
X49425238Y-79297466D02*
X49444285Y-79373657D01*
X49444285Y-79373657D02*
X49463333Y-79411752D01*
X49463333Y-79411752D02*
X49482380Y-79430800D01*
X49482380Y-79430800D02*
X49520476Y-79449847D01*
X49520476Y-79449847D02*
X49558571Y-79449847D01*
X49558571Y-79449847D02*
X49596666Y-79430800D01*
X49596666Y-79430800D02*
X49615714Y-79411752D01*
X49615714Y-79411752D02*
X49634761Y-79373657D01*
X49634761Y-79373657D02*
X49653809Y-79297466D01*
X49653809Y-79297466D02*
X49653809Y-79202228D01*
X49653809Y-79202228D02*
X49634761Y-79126038D01*
X49634761Y-79126038D02*
X49615714Y-79087942D01*
X49615714Y-79087942D02*
X49596666Y-79068895D01*
X49596666Y-79068895D02*
X49558571Y-79049847D01*
D13*
X40077190Y-71188571D02*
X40101000Y-71164762D01*
X40101000Y-71164762D02*
X40124809Y-71093333D01*
X40124809Y-71093333D02*
X40124809Y-71045714D01*
X40124809Y-71045714D02*
X40101000Y-70974286D01*
X40101000Y-70974286D02*
X40053380Y-70926667D01*
X40053380Y-70926667D02*
X40005761Y-70902857D01*
X40005761Y-70902857D02*
X39910523Y-70879048D01*
X39910523Y-70879048D02*
X39839095Y-70879048D01*
X39839095Y-70879048D02*
X39743857Y-70902857D01*
X39743857Y-70902857D02*
X39696238Y-70926667D01*
X39696238Y-70926667D02*
X39648619Y-70974286D01*
X39648619Y-70974286D02*
X39624809Y-71045714D01*
X39624809Y-71045714D02*
X39624809Y-71093333D01*
X39624809Y-71093333D02*
X39648619Y-71164762D01*
X39648619Y-71164762D02*
X39672428Y-71188571D01*
X39672428Y-71379048D02*
X39648619Y-71402857D01*
X39648619Y-71402857D02*
X39624809Y-71450476D01*
X39624809Y-71450476D02*
X39624809Y-71569524D01*
X39624809Y-71569524D02*
X39648619Y-71617143D01*
X39648619Y-71617143D02*
X39672428Y-71640952D01*
X39672428Y-71640952D02*
X39720047Y-71664762D01*
X39720047Y-71664762D02*
X39767666Y-71664762D01*
X39767666Y-71664762D02*
X39839095Y-71640952D01*
X39839095Y-71640952D02*
X40124809Y-71355238D01*
X40124809Y-71355238D02*
X40124809Y-71664762D01*
X39624809Y-72117142D02*
X39624809Y-71879047D01*
X39624809Y-71879047D02*
X39862904Y-71855238D01*
X39862904Y-71855238D02*
X39839095Y-71879047D01*
X39839095Y-71879047D02*
X39815285Y-71926666D01*
X39815285Y-71926666D02*
X39815285Y-72045714D01*
X39815285Y-72045714D02*
X39839095Y-72093333D01*
X39839095Y-72093333D02*
X39862904Y-72117142D01*
X39862904Y-72117142D02*
X39910523Y-72140952D01*
X39910523Y-72140952D02*
X40029571Y-72140952D01*
X40029571Y-72140952D02*
X40077190Y-72117142D01*
X40077190Y-72117142D02*
X40101000Y-72093333D01*
X40101000Y-72093333D02*
X40124809Y-72045714D01*
X40124809Y-72045714D02*
X40124809Y-71926666D01*
X40124809Y-71926666D02*
X40101000Y-71879047D01*
X40101000Y-71879047D02*
X40077190Y-71855238D01*
X39997190Y-112466666D02*
X40021000Y-112442857D01*
X40021000Y-112442857D02*
X40044809Y-112371428D01*
X40044809Y-112371428D02*
X40044809Y-112323809D01*
X40044809Y-112323809D02*
X40021000Y-112252381D01*
X40021000Y-112252381D02*
X39973380Y-112204762D01*
X39973380Y-112204762D02*
X39925761Y-112180952D01*
X39925761Y-112180952D02*
X39830523Y-112157143D01*
X39830523Y-112157143D02*
X39759095Y-112157143D01*
X39759095Y-112157143D02*
X39663857Y-112180952D01*
X39663857Y-112180952D02*
X39616238Y-112204762D01*
X39616238Y-112204762D02*
X39568619Y-112252381D01*
X39568619Y-112252381D02*
X39544809Y-112323809D01*
X39544809Y-112323809D02*
X39544809Y-112371428D01*
X39544809Y-112371428D02*
X39568619Y-112442857D01*
X39568619Y-112442857D02*
X39592428Y-112466666D01*
X39711476Y-112895238D02*
X40044809Y-112895238D01*
X39521000Y-112776190D02*
X39878142Y-112657143D01*
X39878142Y-112657143D02*
X39878142Y-112966666D01*
D11*
X54664819Y-51493333D02*
X54188628Y-51160000D01*
X54664819Y-50921905D02*
X53664819Y-50921905D01*
X53664819Y-50921905D02*
X53664819Y-51302857D01*
X53664819Y-51302857D02*
X53712438Y-51398095D01*
X53712438Y-51398095D02*
X53760057Y-51445714D01*
X53760057Y-51445714D02*
X53855295Y-51493333D01*
X53855295Y-51493333D02*
X53998152Y-51493333D01*
X53998152Y-51493333D02*
X54093390Y-51445714D01*
X54093390Y-51445714D02*
X54141009Y-51398095D01*
X54141009Y-51398095D02*
X54188628Y-51302857D01*
X54188628Y-51302857D02*
X54188628Y-50921905D01*
X53760057Y-51874286D02*
X53712438Y-51921905D01*
X53712438Y-51921905D02*
X53664819Y-52017143D01*
X53664819Y-52017143D02*
X53664819Y-52255238D01*
X53664819Y-52255238D02*
X53712438Y-52350476D01*
X53712438Y-52350476D02*
X53760057Y-52398095D01*
X53760057Y-52398095D02*
X53855295Y-52445714D01*
X53855295Y-52445714D02*
X53950533Y-52445714D01*
X53950533Y-52445714D02*
X54093390Y-52398095D01*
X54093390Y-52398095D02*
X54664819Y-51826667D01*
X54664819Y-51826667D02*
X54664819Y-52445714D01*
D12*
X57989847Y-103272857D02*
X57799371Y-103139524D01*
X57989847Y-103044286D02*
X57589847Y-103044286D01*
X57589847Y-103044286D02*
X57589847Y-103196667D01*
X57589847Y-103196667D02*
X57608895Y-103234762D01*
X57608895Y-103234762D02*
X57627942Y-103253809D01*
X57627942Y-103253809D02*
X57666038Y-103272857D01*
X57666038Y-103272857D02*
X57723180Y-103272857D01*
X57723180Y-103272857D02*
X57761276Y-103253809D01*
X57761276Y-103253809D02*
X57780323Y-103234762D01*
X57780323Y-103234762D02*
X57799371Y-103196667D01*
X57799371Y-103196667D02*
X57799371Y-103044286D01*
X57589847Y-103634762D02*
X57589847Y-103444286D01*
X57589847Y-103444286D02*
X57780323Y-103425238D01*
X57780323Y-103425238D02*
X57761276Y-103444286D01*
X57761276Y-103444286D02*
X57742228Y-103482381D01*
X57742228Y-103482381D02*
X57742228Y-103577619D01*
X57742228Y-103577619D02*
X57761276Y-103615714D01*
X57761276Y-103615714D02*
X57780323Y-103634762D01*
X57780323Y-103634762D02*
X57818419Y-103653809D01*
X57818419Y-103653809D02*
X57913657Y-103653809D01*
X57913657Y-103653809D02*
X57951752Y-103634762D01*
X57951752Y-103634762D02*
X57970800Y-103615714D01*
X57970800Y-103615714D02*
X57989847Y-103577619D01*
X57989847Y-103577619D02*
X57989847Y-103482381D01*
X57989847Y-103482381D02*
X57970800Y-103444286D01*
X57970800Y-103444286D02*
X57951752Y-103425238D01*
X57989847Y-104034761D02*
X57989847Y-103806190D01*
X57989847Y-103920476D02*
X57589847Y-103920476D01*
X57589847Y-103920476D02*
X57646990Y-103882380D01*
X57646990Y-103882380D02*
X57685085Y-103844285D01*
X57685085Y-103844285D02*
X57704133Y-103806190D01*
X26747142Y-86701752D02*
X26766190Y-86720800D01*
X26766190Y-86720800D02*
X26823332Y-86739847D01*
X26823332Y-86739847D02*
X26861428Y-86739847D01*
X26861428Y-86739847D02*
X26918571Y-86720800D01*
X26918571Y-86720800D02*
X26956666Y-86682704D01*
X26956666Y-86682704D02*
X26975713Y-86644609D01*
X26975713Y-86644609D02*
X26994761Y-86568419D01*
X26994761Y-86568419D02*
X26994761Y-86511276D01*
X26994761Y-86511276D02*
X26975713Y-86435085D01*
X26975713Y-86435085D02*
X26956666Y-86396990D01*
X26956666Y-86396990D02*
X26918571Y-86358895D01*
X26918571Y-86358895D02*
X26861428Y-86339847D01*
X26861428Y-86339847D02*
X26823332Y-86339847D01*
X26823332Y-86339847D02*
X26766190Y-86358895D01*
X26766190Y-86358895D02*
X26747142Y-86377942D01*
X26404285Y-86339847D02*
X26480475Y-86339847D01*
X26480475Y-86339847D02*
X26518571Y-86358895D01*
X26518571Y-86358895D02*
X26537618Y-86377942D01*
X26537618Y-86377942D02*
X26575713Y-86435085D01*
X26575713Y-86435085D02*
X26594761Y-86511276D01*
X26594761Y-86511276D02*
X26594761Y-86663657D01*
X26594761Y-86663657D02*
X26575713Y-86701752D01*
X26575713Y-86701752D02*
X26556666Y-86720800D01*
X26556666Y-86720800D02*
X26518571Y-86739847D01*
X26518571Y-86739847D02*
X26442380Y-86739847D01*
X26442380Y-86739847D02*
X26404285Y-86720800D01*
X26404285Y-86720800D02*
X26385237Y-86701752D01*
X26385237Y-86701752D02*
X26366190Y-86663657D01*
X26366190Y-86663657D02*
X26366190Y-86568419D01*
X26366190Y-86568419D02*
X26385237Y-86530323D01*
X26385237Y-86530323D02*
X26404285Y-86511276D01*
X26404285Y-86511276D02*
X26442380Y-86492228D01*
X26442380Y-86492228D02*
X26518571Y-86492228D01*
X26518571Y-86492228D02*
X26556666Y-86511276D01*
X26556666Y-86511276D02*
X26575713Y-86530323D01*
X26575713Y-86530323D02*
X26594761Y-86568419D01*
X26232857Y-86339847D02*
X25966190Y-86339847D01*
X25966190Y-86339847D02*
X26137619Y-86739847D01*
D11*
X136832857Y-104254819D02*
X137166190Y-103778628D01*
X137404285Y-104254819D02*
X137404285Y-103254819D01*
X137404285Y-103254819D02*
X137023333Y-103254819D01*
X137023333Y-103254819D02*
X136928095Y-103302438D01*
X136928095Y-103302438D02*
X136880476Y-103350057D01*
X136880476Y-103350057D02*
X136832857Y-103445295D01*
X136832857Y-103445295D02*
X136832857Y-103588152D01*
X136832857Y-103588152D02*
X136880476Y-103683390D01*
X136880476Y-103683390D02*
X136928095Y-103731009D01*
X136928095Y-103731009D02*
X137023333Y-103778628D01*
X137023333Y-103778628D02*
X137404285Y-103778628D01*
X136451904Y-103350057D02*
X136404285Y-103302438D01*
X136404285Y-103302438D02*
X136309047Y-103254819D01*
X136309047Y-103254819D02*
X136070952Y-103254819D01*
X136070952Y-103254819D02*
X135975714Y-103302438D01*
X135975714Y-103302438D02*
X135928095Y-103350057D01*
X135928095Y-103350057D02*
X135880476Y-103445295D01*
X135880476Y-103445295D02*
X135880476Y-103540533D01*
X135880476Y-103540533D02*
X135928095Y-103683390D01*
X135928095Y-103683390D02*
X136499523Y-104254819D01*
X136499523Y-104254819D02*
X135880476Y-104254819D01*
X135023333Y-103588152D02*
X135023333Y-104254819D01*
X135261428Y-103207200D02*
X135499523Y-103921485D01*
X135499523Y-103921485D02*
X134880476Y-103921485D01*
X84864819Y-96127142D02*
X84388628Y-95793809D01*
X84864819Y-95555714D02*
X83864819Y-95555714D01*
X83864819Y-95555714D02*
X83864819Y-95936666D01*
X83864819Y-95936666D02*
X83912438Y-96031904D01*
X83912438Y-96031904D02*
X83960057Y-96079523D01*
X83960057Y-96079523D02*
X84055295Y-96127142D01*
X84055295Y-96127142D02*
X84198152Y-96127142D01*
X84198152Y-96127142D02*
X84293390Y-96079523D01*
X84293390Y-96079523D02*
X84341009Y-96031904D01*
X84341009Y-96031904D02*
X84388628Y-95936666D01*
X84388628Y-95936666D02*
X84388628Y-95555714D01*
X84864819Y-97079523D02*
X84864819Y-96508095D01*
X84864819Y-96793809D02*
X83864819Y-96793809D01*
X83864819Y-96793809D02*
X84007676Y-96698571D01*
X84007676Y-96698571D02*
X84102914Y-96603333D01*
X84102914Y-96603333D02*
X84150533Y-96508095D01*
X83864819Y-97984285D02*
X83864819Y-97508095D01*
X83864819Y-97508095D02*
X84341009Y-97460476D01*
X84341009Y-97460476D02*
X84293390Y-97508095D01*
X84293390Y-97508095D02*
X84245771Y-97603333D01*
X84245771Y-97603333D02*
X84245771Y-97841428D01*
X84245771Y-97841428D02*
X84293390Y-97936666D01*
X84293390Y-97936666D02*
X84341009Y-97984285D01*
X84341009Y-97984285D02*
X84436247Y-98031904D01*
X84436247Y-98031904D02*
X84674342Y-98031904D01*
X84674342Y-98031904D02*
X84769580Y-97984285D01*
X84769580Y-97984285D02*
X84817200Y-97936666D01*
X84817200Y-97936666D02*
X84864819Y-97841428D01*
X84864819Y-97841428D02*
X84864819Y-97603333D01*
X84864819Y-97603333D02*
X84817200Y-97508095D01*
X84817200Y-97508095D02*
X84769580Y-97460476D01*
D12*
X53127142Y-102719847D02*
X53260475Y-102529371D01*
X53355713Y-102719847D02*
X53355713Y-102319847D01*
X53355713Y-102319847D02*
X53203332Y-102319847D01*
X53203332Y-102319847D02*
X53165237Y-102338895D01*
X53165237Y-102338895D02*
X53146190Y-102357942D01*
X53146190Y-102357942D02*
X53127142Y-102396038D01*
X53127142Y-102396038D02*
X53127142Y-102453180D01*
X53127142Y-102453180D02*
X53146190Y-102491276D01*
X53146190Y-102491276D02*
X53165237Y-102510323D01*
X53165237Y-102510323D02*
X53203332Y-102529371D01*
X53203332Y-102529371D02*
X53355713Y-102529371D01*
X52765237Y-102319847D02*
X52955713Y-102319847D01*
X52955713Y-102319847D02*
X52974761Y-102510323D01*
X52974761Y-102510323D02*
X52955713Y-102491276D01*
X52955713Y-102491276D02*
X52917618Y-102472228D01*
X52917618Y-102472228D02*
X52822380Y-102472228D01*
X52822380Y-102472228D02*
X52784285Y-102491276D01*
X52784285Y-102491276D02*
X52765237Y-102510323D01*
X52765237Y-102510323D02*
X52746190Y-102548419D01*
X52746190Y-102548419D02*
X52746190Y-102643657D01*
X52746190Y-102643657D02*
X52765237Y-102681752D01*
X52765237Y-102681752D02*
X52784285Y-102700800D01*
X52784285Y-102700800D02*
X52822380Y-102719847D01*
X52822380Y-102719847D02*
X52917618Y-102719847D01*
X52917618Y-102719847D02*
X52955713Y-102700800D01*
X52955713Y-102700800D02*
X52974761Y-102681752D01*
X52498571Y-102319847D02*
X52460476Y-102319847D01*
X52460476Y-102319847D02*
X52422380Y-102338895D01*
X52422380Y-102338895D02*
X52403333Y-102357942D01*
X52403333Y-102357942D02*
X52384285Y-102396038D01*
X52384285Y-102396038D02*
X52365238Y-102472228D01*
X52365238Y-102472228D02*
X52365238Y-102567466D01*
X52365238Y-102567466D02*
X52384285Y-102643657D01*
X52384285Y-102643657D02*
X52403333Y-102681752D01*
X52403333Y-102681752D02*
X52422380Y-102700800D01*
X52422380Y-102700800D02*
X52460476Y-102719847D01*
X52460476Y-102719847D02*
X52498571Y-102719847D01*
X52498571Y-102719847D02*
X52536666Y-102700800D01*
X52536666Y-102700800D02*
X52555714Y-102681752D01*
X52555714Y-102681752D02*
X52574761Y-102643657D01*
X52574761Y-102643657D02*
X52593809Y-102567466D01*
X52593809Y-102567466D02*
X52593809Y-102472228D01*
X52593809Y-102472228D02*
X52574761Y-102396038D01*
X52574761Y-102396038D02*
X52555714Y-102357942D01*
X52555714Y-102357942D02*
X52536666Y-102338895D01*
X52536666Y-102338895D02*
X52498571Y-102319847D01*
D11*
X56869771Y-47747143D02*
X56269771Y-47747143D01*
X56269771Y-47747143D02*
X56269771Y-47890000D01*
X56269771Y-47890000D02*
X56298342Y-47975714D01*
X56298342Y-47975714D02*
X56355485Y-48032857D01*
X56355485Y-48032857D02*
X56412628Y-48061428D01*
X56412628Y-48061428D02*
X56526914Y-48090000D01*
X56526914Y-48090000D02*
X56612628Y-48090000D01*
X56612628Y-48090000D02*
X56726914Y-48061428D01*
X56726914Y-48061428D02*
X56784057Y-48032857D01*
X56784057Y-48032857D02*
X56841200Y-47975714D01*
X56841200Y-47975714D02*
X56869771Y-47890000D01*
X56869771Y-47890000D02*
X56869771Y-47747143D01*
X56269771Y-48290000D02*
X56269771Y-48661428D01*
X56269771Y-48661428D02*
X56498342Y-48461428D01*
X56498342Y-48461428D02*
X56498342Y-48547143D01*
X56498342Y-48547143D02*
X56526914Y-48604286D01*
X56526914Y-48604286D02*
X56555485Y-48632857D01*
X56555485Y-48632857D02*
X56612628Y-48661428D01*
X56612628Y-48661428D02*
X56755485Y-48661428D01*
X56755485Y-48661428D02*
X56812628Y-48632857D01*
X56812628Y-48632857D02*
X56841200Y-48604286D01*
X56841200Y-48604286D02*
X56869771Y-48547143D01*
X56869771Y-48547143D02*
X56869771Y-48375714D01*
X56869771Y-48375714D02*
X56841200Y-48318571D01*
X56841200Y-48318571D02*
X56812628Y-48290000D01*
X31825714Y-91462628D02*
X31854286Y-91491200D01*
X31854286Y-91491200D02*
X31940000Y-91519771D01*
X31940000Y-91519771D02*
X31997143Y-91519771D01*
X31997143Y-91519771D02*
X32082857Y-91491200D01*
X32082857Y-91491200D02*
X32140000Y-91434057D01*
X32140000Y-91434057D02*
X32168571Y-91376914D01*
X32168571Y-91376914D02*
X32197143Y-91262628D01*
X32197143Y-91262628D02*
X32197143Y-91176914D01*
X32197143Y-91176914D02*
X32168571Y-91062628D01*
X32168571Y-91062628D02*
X32140000Y-91005485D01*
X32140000Y-91005485D02*
X32082857Y-90948342D01*
X32082857Y-90948342D02*
X31997143Y-90919771D01*
X31997143Y-90919771D02*
X31940000Y-90919771D01*
X31940000Y-90919771D02*
X31854286Y-90948342D01*
X31854286Y-90948342D02*
X31825714Y-90976914D01*
X31311429Y-90919771D02*
X31425714Y-90919771D01*
X31425714Y-90919771D02*
X31482857Y-90948342D01*
X31482857Y-90948342D02*
X31511429Y-90976914D01*
X31511429Y-90976914D02*
X31568571Y-91062628D01*
X31568571Y-91062628D02*
X31597143Y-91176914D01*
X31597143Y-91176914D02*
X31597143Y-91405485D01*
X31597143Y-91405485D02*
X31568571Y-91462628D01*
X31568571Y-91462628D02*
X31540000Y-91491200D01*
X31540000Y-91491200D02*
X31482857Y-91519771D01*
X31482857Y-91519771D02*
X31368571Y-91519771D01*
X31368571Y-91519771D02*
X31311429Y-91491200D01*
X31311429Y-91491200D02*
X31282857Y-91462628D01*
X31282857Y-91462628D02*
X31254286Y-91405485D01*
X31254286Y-91405485D02*
X31254286Y-91262628D01*
X31254286Y-91262628D02*
X31282857Y-91205485D01*
X31282857Y-91205485D02*
X31311429Y-91176914D01*
X31311429Y-91176914D02*
X31368571Y-91148342D01*
X31368571Y-91148342D02*
X31482857Y-91148342D01*
X31482857Y-91148342D02*
X31540000Y-91176914D01*
X31540000Y-91176914D02*
X31568571Y-91205485D01*
X31568571Y-91205485D02*
X31597143Y-91262628D01*
X30911428Y-91176914D02*
X30968571Y-91148342D01*
X30968571Y-91148342D02*
X30997142Y-91119771D01*
X30997142Y-91119771D02*
X31025714Y-91062628D01*
X31025714Y-91062628D02*
X31025714Y-91034057D01*
X31025714Y-91034057D02*
X30997142Y-90976914D01*
X30997142Y-90976914D02*
X30968571Y-90948342D01*
X30968571Y-90948342D02*
X30911428Y-90919771D01*
X30911428Y-90919771D02*
X30797142Y-90919771D01*
X30797142Y-90919771D02*
X30740000Y-90948342D01*
X30740000Y-90948342D02*
X30711428Y-90976914D01*
X30711428Y-90976914D02*
X30682857Y-91034057D01*
X30682857Y-91034057D02*
X30682857Y-91062628D01*
X30682857Y-91062628D02*
X30711428Y-91119771D01*
X30711428Y-91119771D02*
X30740000Y-91148342D01*
X30740000Y-91148342D02*
X30797142Y-91176914D01*
X30797142Y-91176914D02*
X30911428Y-91176914D01*
X30911428Y-91176914D02*
X30968571Y-91205485D01*
X30968571Y-91205485D02*
X30997142Y-91234057D01*
X30997142Y-91234057D02*
X31025714Y-91291200D01*
X31025714Y-91291200D02*
X31025714Y-91405485D01*
X31025714Y-91405485D02*
X30997142Y-91462628D01*
X30997142Y-91462628D02*
X30968571Y-91491200D01*
X30968571Y-91491200D02*
X30911428Y-91519771D01*
X30911428Y-91519771D02*
X30797142Y-91519771D01*
X30797142Y-91519771D02*
X30740000Y-91491200D01*
X30740000Y-91491200D02*
X30711428Y-91462628D01*
X30711428Y-91462628D02*
X30682857Y-91405485D01*
X30682857Y-91405485D02*
X30682857Y-91291200D01*
X30682857Y-91291200D02*
X30711428Y-91234057D01*
X30711428Y-91234057D02*
X30740000Y-91205485D01*
X30740000Y-91205485D02*
X30797142Y-91176914D01*
X136812857Y-92204819D02*
X137146190Y-91728628D01*
X137384285Y-92204819D02*
X137384285Y-91204819D01*
X137384285Y-91204819D02*
X137003333Y-91204819D01*
X137003333Y-91204819D02*
X136908095Y-91252438D01*
X136908095Y-91252438D02*
X136860476Y-91300057D01*
X136860476Y-91300057D02*
X136812857Y-91395295D01*
X136812857Y-91395295D02*
X136812857Y-91538152D01*
X136812857Y-91538152D02*
X136860476Y-91633390D01*
X136860476Y-91633390D02*
X136908095Y-91681009D01*
X136908095Y-91681009D02*
X137003333Y-91728628D01*
X137003333Y-91728628D02*
X137384285Y-91728628D01*
X136431904Y-91300057D02*
X136384285Y-91252438D01*
X136384285Y-91252438D02*
X136289047Y-91204819D01*
X136289047Y-91204819D02*
X136050952Y-91204819D01*
X136050952Y-91204819D02*
X135955714Y-91252438D01*
X135955714Y-91252438D02*
X135908095Y-91300057D01*
X135908095Y-91300057D02*
X135860476Y-91395295D01*
X135860476Y-91395295D02*
X135860476Y-91490533D01*
X135860476Y-91490533D02*
X135908095Y-91633390D01*
X135908095Y-91633390D02*
X136479523Y-92204819D01*
X136479523Y-92204819D02*
X135860476Y-92204819D01*
X134908095Y-92204819D02*
X135479523Y-92204819D01*
X135193809Y-92204819D02*
X135193809Y-91204819D01*
X135193809Y-91204819D02*
X135289047Y-91347676D01*
X135289047Y-91347676D02*
X135384285Y-91442914D01*
X135384285Y-91442914D02*
X135479523Y-91490533D01*
X55269771Y-25907143D02*
X54669771Y-25907143D01*
X54669771Y-25907143D02*
X54669771Y-26050000D01*
X54669771Y-26050000D02*
X54698342Y-26135714D01*
X54698342Y-26135714D02*
X54755485Y-26192857D01*
X54755485Y-26192857D02*
X54812628Y-26221428D01*
X54812628Y-26221428D02*
X54926914Y-26250000D01*
X54926914Y-26250000D02*
X55012628Y-26250000D01*
X55012628Y-26250000D02*
X55126914Y-26221428D01*
X55126914Y-26221428D02*
X55184057Y-26192857D01*
X55184057Y-26192857D02*
X55241200Y-26135714D01*
X55241200Y-26135714D02*
X55269771Y-26050000D01*
X55269771Y-26050000D02*
X55269771Y-25907143D01*
X54669771Y-26764286D02*
X54669771Y-26650000D01*
X54669771Y-26650000D02*
X54698342Y-26592857D01*
X54698342Y-26592857D02*
X54726914Y-26564286D01*
X54726914Y-26564286D02*
X54812628Y-26507143D01*
X54812628Y-26507143D02*
X54926914Y-26478571D01*
X54926914Y-26478571D02*
X55155485Y-26478571D01*
X55155485Y-26478571D02*
X55212628Y-26507143D01*
X55212628Y-26507143D02*
X55241200Y-26535714D01*
X55241200Y-26535714D02*
X55269771Y-26592857D01*
X55269771Y-26592857D02*
X55269771Y-26707143D01*
X55269771Y-26707143D02*
X55241200Y-26764286D01*
X55241200Y-26764286D02*
X55212628Y-26792857D01*
X55212628Y-26792857D02*
X55155485Y-26821428D01*
X55155485Y-26821428D02*
X55012628Y-26821428D01*
X55012628Y-26821428D02*
X54955485Y-26792857D01*
X54955485Y-26792857D02*
X54926914Y-26764286D01*
X54926914Y-26764286D02*
X54898342Y-26707143D01*
X54898342Y-26707143D02*
X54898342Y-26592857D01*
X54898342Y-26592857D02*
X54926914Y-26535714D01*
X54926914Y-26535714D02*
X54955485Y-26507143D01*
X54955485Y-26507143D02*
X55012628Y-26478571D01*
D12*
X51107142Y-102669847D02*
X51240475Y-102479371D01*
X51335713Y-102669847D02*
X51335713Y-102269847D01*
X51335713Y-102269847D02*
X51183332Y-102269847D01*
X51183332Y-102269847D02*
X51145237Y-102288895D01*
X51145237Y-102288895D02*
X51126190Y-102307942D01*
X51126190Y-102307942D02*
X51107142Y-102346038D01*
X51107142Y-102346038D02*
X51107142Y-102403180D01*
X51107142Y-102403180D02*
X51126190Y-102441276D01*
X51126190Y-102441276D02*
X51145237Y-102460323D01*
X51145237Y-102460323D02*
X51183332Y-102479371D01*
X51183332Y-102479371D02*
X51335713Y-102479371D01*
X50745237Y-102269847D02*
X50935713Y-102269847D01*
X50935713Y-102269847D02*
X50954761Y-102460323D01*
X50954761Y-102460323D02*
X50935713Y-102441276D01*
X50935713Y-102441276D02*
X50897618Y-102422228D01*
X50897618Y-102422228D02*
X50802380Y-102422228D01*
X50802380Y-102422228D02*
X50764285Y-102441276D01*
X50764285Y-102441276D02*
X50745237Y-102460323D01*
X50745237Y-102460323D02*
X50726190Y-102498419D01*
X50726190Y-102498419D02*
X50726190Y-102593657D01*
X50726190Y-102593657D02*
X50745237Y-102631752D01*
X50745237Y-102631752D02*
X50764285Y-102650800D01*
X50764285Y-102650800D02*
X50802380Y-102669847D01*
X50802380Y-102669847D02*
X50897618Y-102669847D01*
X50897618Y-102669847D02*
X50935713Y-102650800D01*
X50935713Y-102650800D02*
X50954761Y-102631752D01*
X50573809Y-102307942D02*
X50554761Y-102288895D01*
X50554761Y-102288895D02*
X50516666Y-102269847D01*
X50516666Y-102269847D02*
X50421428Y-102269847D01*
X50421428Y-102269847D02*
X50383333Y-102288895D01*
X50383333Y-102288895D02*
X50364285Y-102307942D01*
X50364285Y-102307942D02*
X50345238Y-102346038D01*
X50345238Y-102346038D02*
X50345238Y-102384133D01*
X50345238Y-102384133D02*
X50364285Y-102441276D01*
X50364285Y-102441276D02*
X50592857Y-102669847D01*
X50592857Y-102669847D02*
X50345238Y-102669847D01*
D11*
X54704819Y-108698095D02*
X55514342Y-108698095D01*
X55514342Y-108698095D02*
X55609580Y-108745714D01*
X55609580Y-108745714D02*
X55657200Y-108793333D01*
X55657200Y-108793333D02*
X55704819Y-108888571D01*
X55704819Y-108888571D02*
X55704819Y-109079047D01*
X55704819Y-109079047D02*
X55657200Y-109174285D01*
X55657200Y-109174285D02*
X55609580Y-109221904D01*
X55609580Y-109221904D02*
X55514342Y-109269523D01*
X55514342Y-109269523D02*
X54704819Y-109269523D01*
X54704819Y-110174285D02*
X54704819Y-109983809D01*
X54704819Y-109983809D02*
X54752438Y-109888571D01*
X54752438Y-109888571D02*
X54800057Y-109840952D01*
X54800057Y-109840952D02*
X54942914Y-109745714D01*
X54942914Y-109745714D02*
X55133390Y-109698095D01*
X55133390Y-109698095D02*
X55514342Y-109698095D01*
X55514342Y-109698095D02*
X55609580Y-109745714D01*
X55609580Y-109745714D02*
X55657200Y-109793333D01*
X55657200Y-109793333D02*
X55704819Y-109888571D01*
X55704819Y-109888571D02*
X55704819Y-110079047D01*
X55704819Y-110079047D02*
X55657200Y-110174285D01*
X55657200Y-110174285D02*
X55609580Y-110221904D01*
X55609580Y-110221904D02*
X55514342Y-110269523D01*
X55514342Y-110269523D02*
X55276247Y-110269523D01*
X55276247Y-110269523D02*
X55181009Y-110221904D01*
X55181009Y-110221904D02*
X55133390Y-110174285D01*
X55133390Y-110174285D02*
X55085771Y-110079047D01*
X55085771Y-110079047D02*
X55085771Y-109888571D01*
X55085771Y-109888571D02*
X55133390Y-109793333D01*
X55133390Y-109793333D02*
X55181009Y-109745714D01*
X55181009Y-109745714D02*
X55276247Y-109698095D01*
D13*
X40251428Y-86717190D02*
X40275237Y-86741000D01*
X40275237Y-86741000D02*
X40346666Y-86764809D01*
X40346666Y-86764809D02*
X40394285Y-86764809D01*
X40394285Y-86764809D02*
X40465713Y-86741000D01*
X40465713Y-86741000D02*
X40513332Y-86693380D01*
X40513332Y-86693380D02*
X40537142Y-86645761D01*
X40537142Y-86645761D02*
X40560951Y-86550523D01*
X40560951Y-86550523D02*
X40560951Y-86479095D01*
X40560951Y-86479095D02*
X40537142Y-86383857D01*
X40537142Y-86383857D02*
X40513332Y-86336238D01*
X40513332Y-86336238D02*
X40465713Y-86288619D01*
X40465713Y-86288619D02*
X40394285Y-86264809D01*
X40394285Y-86264809D02*
X40346666Y-86264809D01*
X40346666Y-86264809D02*
X40275237Y-86288619D01*
X40275237Y-86288619D02*
X40251428Y-86312428D01*
X39799047Y-86264809D02*
X40037142Y-86264809D01*
X40037142Y-86264809D02*
X40060951Y-86502904D01*
X40060951Y-86502904D02*
X40037142Y-86479095D01*
X40037142Y-86479095D02*
X39989523Y-86455285D01*
X39989523Y-86455285D02*
X39870475Y-86455285D01*
X39870475Y-86455285D02*
X39822856Y-86479095D01*
X39822856Y-86479095D02*
X39799047Y-86502904D01*
X39799047Y-86502904D02*
X39775237Y-86550523D01*
X39775237Y-86550523D02*
X39775237Y-86669571D01*
X39775237Y-86669571D02*
X39799047Y-86717190D01*
X39799047Y-86717190D02*
X39822856Y-86741000D01*
X39822856Y-86741000D02*
X39870475Y-86764809D01*
X39870475Y-86764809D02*
X39989523Y-86764809D01*
X39989523Y-86764809D02*
X40037142Y-86741000D01*
X40037142Y-86741000D02*
X40060951Y-86717190D01*
X39346666Y-86431476D02*
X39346666Y-86764809D01*
X39465714Y-86241000D02*
X39584761Y-86598142D01*
X39584761Y-86598142D02*
X39275238Y-86598142D01*
D11*
X19559999Y-105442628D02*
X19588571Y-105471200D01*
X19588571Y-105471200D02*
X19674285Y-105499771D01*
X19674285Y-105499771D02*
X19731428Y-105499771D01*
X19731428Y-105499771D02*
X19817142Y-105471200D01*
X19817142Y-105471200D02*
X19874285Y-105414057D01*
X19874285Y-105414057D02*
X19902856Y-105356914D01*
X19902856Y-105356914D02*
X19931428Y-105242628D01*
X19931428Y-105242628D02*
X19931428Y-105156914D01*
X19931428Y-105156914D02*
X19902856Y-105042628D01*
X19902856Y-105042628D02*
X19874285Y-104985485D01*
X19874285Y-104985485D02*
X19817142Y-104928342D01*
X19817142Y-104928342D02*
X19731428Y-104899771D01*
X19731428Y-104899771D02*
X19674285Y-104899771D01*
X19674285Y-104899771D02*
X19588571Y-104928342D01*
X19588571Y-104928342D02*
X19559999Y-104956914D01*
X19359999Y-104899771D02*
X18988571Y-104899771D01*
X18988571Y-104899771D02*
X19188571Y-105128342D01*
X19188571Y-105128342D02*
X19102856Y-105128342D01*
X19102856Y-105128342D02*
X19045714Y-105156914D01*
X19045714Y-105156914D02*
X19017142Y-105185485D01*
X19017142Y-105185485D02*
X18988571Y-105242628D01*
X18988571Y-105242628D02*
X18988571Y-105385485D01*
X18988571Y-105385485D02*
X19017142Y-105442628D01*
X19017142Y-105442628D02*
X19045714Y-105471200D01*
X19045714Y-105471200D02*
X19102856Y-105499771D01*
X19102856Y-105499771D02*
X19274285Y-105499771D01*
X19274285Y-105499771D02*
X19331428Y-105471200D01*
X19331428Y-105471200D02*
X19359999Y-105442628D01*
X35575714Y-100702628D02*
X35604286Y-100731200D01*
X35604286Y-100731200D02*
X35690000Y-100759771D01*
X35690000Y-100759771D02*
X35747143Y-100759771D01*
X35747143Y-100759771D02*
X35832857Y-100731200D01*
X35832857Y-100731200D02*
X35890000Y-100674057D01*
X35890000Y-100674057D02*
X35918571Y-100616914D01*
X35918571Y-100616914D02*
X35947143Y-100502628D01*
X35947143Y-100502628D02*
X35947143Y-100416914D01*
X35947143Y-100416914D02*
X35918571Y-100302628D01*
X35918571Y-100302628D02*
X35890000Y-100245485D01*
X35890000Y-100245485D02*
X35832857Y-100188342D01*
X35832857Y-100188342D02*
X35747143Y-100159771D01*
X35747143Y-100159771D02*
X35690000Y-100159771D01*
X35690000Y-100159771D02*
X35604286Y-100188342D01*
X35604286Y-100188342D02*
X35575714Y-100216914D01*
X35032857Y-100159771D02*
X35318571Y-100159771D01*
X35318571Y-100159771D02*
X35347143Y-100445485D01*
X35347143Y-100445485D02*
X35318571Y-100416914D01*
X35318571Y-100416914D02*
X35261429Y-100388342D01*
X35261429Y-100388342D02*
X35118571Y-100388342D01*
X35118571Y-100388342D02*
X35061429Y-100416914D01*
X35061429Y-100416914D02*
X35032857Y-100445485D01*
X35032857Y-100445485D02*
X35004286Y-100502628D01*
X35004286Y-100502628D02*
X35004286Y-100645485D01*
X35004286Y-100645485D02*
X35032857Y-100702628D01*
X35032857Y-100702628D02*
X35061429Y-100731200D01*
X35061429Y-100731200D02*
X35118571Y-100759771D01*
X35118571Y-100759771D02*
X35261429Y-100759771D01*
X35261429Y-100759771D02*
X35318571Y-100731200D01*
X35318571Y-100731200D02*
X35347143Y-100702628D01*
X34661428Y-100416914D02*
X34718571Y-100388342D01*
X34718571Y-100388342D02*
X34747142Y-100359771D01*
X34747142Y-100359771D02*
X34775714Y-100302628D01*
X34775714Y-100302628D02*
X34775714Y-100274057D01*
X34775714Y-100274057D02*
X34747142Y-100216914D01*
X34747142Y-100216914D02*
X34718571Y-100188342D01*
X34718571Y-100188342D02*
X34661428Y-100159771D01*
X34661428Y-100159771D02*
X34547142Y-100159771D01*
X34547142Y-100159771D02*
X34490000Y-100188342D01*
X34490000Y-100188342D02*
X34461428Y-100216914D01*
X34461428Y-100216914D02*
X34432857Y-100274057D01*
X34432857Y-100274057D02*
X34432857Y-100302628D01*
X34432857Y-100302628D02*
X34461428Y-100359771D01*
X34461428Y-100359771D02*
X34490000Y-100388342D01*
X34490000Y-100388342D02*
X34547142Y-100416914D01*
X34547142Y-100416914D02*
X34661428Y-100416914D01*
X34661428Y-100416914D02*
X34718571Y-100445485D01*
X34718571Y-100445485D02*
X34747142Y-100474057D01*
X34747142Y-100474057D02*
X34775714Y-100531200D01*
X34775714Y-100531200D02*
X34775714Y-100645485D01*
X34775714Y-100645485D02*
X34747142Y-100702628D01*
X34747142Y-100702628D02*
X34718571Y-100731200D01*
X34718571Y-100731200D02*
X34661428Y-100759771D01*
X34661428Y-100759771D02*
X34547142Y-100759771D01*
X34547142Y-100759771D02*
X34490000Y-100731200D01*
X34490000Y-100731200D02*
X34461428Y-100702628D01*
X34461428Y-100702628D02*
X34432857Y-100645485D01*
X34432857Y-100645485D02*
X34432857Y-100531200D01*
X34432857Y-100531200D02*
X34461428Y-100474057D01*
X34461428Y-100474057D02*
X34490000Y-100445485D01*
X34490000Y-100445485D02*
X34547142Y-100416914D01*
D12*
X45658490Y-58648571D02*
X45682300Y-58624762D01*
X45682300Y-58624762D02*
X45706109Y-58553333D01*
X45706109Y-58553333D02*
X45706109Y-58505714D01*
X45706109Y-58505714D02*
X45682300Y-58434286D01*
X45682300Y-58434286D02*
X45634680Y-58386667D01*
X45634680Y-58386667D02*
X45587061Y-58362857D01*
X45587061Y-58362857D02*
X45491823Y-58339048D01*
X45491823Y-58339048D02*
X45420395Y-58339048D01*
X45420395Y-58339048D02*
X45325157Y-58362857D01*
X45325157Y-58362857D02*
X45277538Y-58386667D01*
X45277538Y-58386667D02*
X45229919Y-58434286D01*
X45229919Y-58434286D02*
X45206109Y-58505714D01*
X45206109Y-58505714D02*
X45206109Y-58553333D01*
X45206109Y-58553333D02*
X45229919Y-58624762D01*
X45229919Y-58624762D02*
X45253728Y-58648571D01*
X45706109Y-59124762D02*
X45706109Y-58839048D01*
X45706109Y-58981905D02*
X45206109Y-58981905D01*
X45206109Y-58981905D02*
X45277538Y-58934286D01*
X45277538Y-58934286D02*
X45325157Y-58886667D01*
X45325157Y-58886667D02*
X45348966Y-58839048D01*
X45253728Y-59315238D02*
X45229919Y-59339047D01*
X45229919Y-59339047D02*
X45206109Y-59386666D01*
X45206109Y-59386666D02*
X45206109Y-59505714D01*
X45206109Y-59505714D02*
X45229919Y-59553333D01*
X45229919Y-59553333D02*
X45253728Y-59577142D01*
X45253728Y-59577142D02*
X45301347Y-59600952D01*
X45301347Y-59600952D02*
X45348966Y-59600952D01*
X45348966Y-59600952D02*
X45420395Y-59577142D01*
X45420395Y-59577142D02*
X45706109Y-59291428D01*
X45706109Y-59291428D02*
X45706109Y-59600952D01*
D13*
X47971428Y-80157190D02*
X47995237Y-80181000D01*
X47995237Y-80181000D02*
X48066666Y-80204809D01*
X48066666Y-80204809D02*
X48114285Y-80204809D01*
X48114285Y-80204809D02*
X48185713Y-80181000D01*
X48185713Y-80181000D02*
X48233332Y-80133380D01*
X48233332Y-80133380D02*
X48257142Y-80085761D01*
X48257142Y-80085761D02*
X48280951Y-79990523D01*
X48280951Y-79990523D02*
X48280951Y-79919095D01*
X48280951Y-79919095D02*
X48257142Y-79823857D01*
X48257142Y-79823857D02*
X48233332Y-79776238D01*
X48233332Y-79776238D02*
X48185713Y-79728619D01*
X48185713Y-79728619D02*
X48114285Y-79704809D01*
X48114285Y-79704809D02*
X48066666Y-79704809D01*
X48066666Y-79704809D02*
X47995237Y-79728619D01*
X47995237Y-79728619D02*
X47971428Y-79752428D01*
X47542856Y-79871476D02*
X47542856Y-80204809D01*
X47661904Y-79681000D02*
X47780951Y-80038142D01*
X47780951Y-80038142D02*
X47471428Y-80038142D01*
X47019047Y-80204809D02*
X47304761Y-80204809D01*
X47161904Y-80204809D02*
X47161904Y-79704809D01*
X47161904Y-79704809D02*
X47209523Y-79776238D01*
X47209523Y-79776238D02*
X47257142Y-79823857D01*
X47257142Y-79823857D02*
X47304761Y-79847666D01*
D12*
X42721752Y-33892857D02*
X42740800Y-33873809D01*
X42740800Y-33873809D02*
X42759847Y-33816667D01*
X42759847Y-33816667D02*
X42759847Y-33778571D01*
X42759847Y-33778571D02*
X42740800Y-33721428D01*
X42740800Y-33721428D02*
X42702704Y-33683333D01*
X42702704Y-33683333D02*
X42664609Y-33664286D01*
X42664609Y-33664286D02*
X42588419Y-33645238D01*
X42588419Y-33645238D02*
X42531276Y-33645238D01*
X42531276Y-33645238D02*
X42455085Y-33664286D01*
X42455085Y-33664286D02*
X42416990Y-33683333D01*
X42416990Y-33683333D02*
X42378895Y-33721428D01*
X42378895Y-33721428D02*
X42359847Y-33778571D01*
X42359847Y-33778571D02*
X42359847Y-33816667D01*
X42359847Y-33816667D02*
X42378895Y-33873809D01*
X42378895Y-33873809D02*
X42397942Y-33892857D01*
X42359847Y-34026190D02*
X42359847Y-34273809D01*
X42359847Y-34273809D02*
X42512228Y-34140476D01*
X42512228Y-34140476D02*
X42512228Y-34197619D01*
X42512228Y-34197619D02*
X42531276Y-34235714D01*
X42531276Y-34235714D02*
X42550323Y-34254762D01*
X42550323Y-34254762D02*
X42588419Y-34273809D01*
X42588419Y-34273809D02*
X42683657Y-34273809D01*
X42683657Y-34273809D02*
X42721752Y-34254762D01*
X42721752Y-34254762D02*
X42740800Y-34235714D01*
X42740800Y-34235714D02*
X42759847Y-34197619D01*
X42759847Y-34197619D02*
X42759847Y-34083333D01*
X42759847Y-34083333D02*
X42740800Y-34045238D01*
X42740800Y-34045238D02*
X42721752Y-34026190D01*
X42493180Y-34616666D02*
X42759847Y-34616666D01*
X42340800Y-34521428D02*
X42626514Y-34426190D01*
X42626514Y-34426190D02*
X42626514Y-34673809D01*
D11*
X58339580Y-94527142D02*
X58387200Y-94479523D01*
X58387200Y-94479523D02*
X58434819Y-94336666D01*
X58434819Y-94336666D02*
X58434819Y-94241428D01*
X58434819Y-94241428D02*
X58387200Y-94098571D01*
X58387200Y-94098571D02*
X58291961Y-94003333D01*
X58291961Y-94003333D02*
X58196723Y-93955714D01*
X58196723Y-93955714D02*
X58006247Y-93908095D01*
X58006247Y-93908095D02*
X57863390Y-93908095D01*
X57863390Y-93908095D02*
X57672914Y-93955714D01*
X57672914Y-93955714D02*
X57577676Y-94003333D01*
X57577676Y-94003333D02*
X57482438Y-94098571D01*
X57482438Y-94098571D02*
X57434819Y-94241428D01*
X57434819Y-94241428D02*
X57434819Y-94336666D01*
X57434819Y-94336666D02*
X57482438Y-94479523D01*
X57482438Y-94479523D02*
X57530057Y-94527142D01*
X58434819Y-95479523D02*
X58434819Y-94908095D01*
X58434819Y-95193809D02*
X57434819Y-95193809D01*
X57434819Y-95193809D02*
X57577676Y-95098571D01*
X57577676Y-95098571D02*
X57672914Y-95003333D01*
X57672914Y-95003333D02*
X57720533Y-94908095D01*
X57434819Y-95812857D02*
X57434819Y-96431904D01*
X57434819Y-96431904D02*
X57815771Y-96098571D01*
X57815771Y-96098571D02*
X57815771Y-96241428D01*
X57815771Y-96241428D02*
X57863390Y-96336666D01*
X57863390Y-96336666D02*
X57911009Y-96384285D01*
X57911009Y-96384285D02*
X58006247Y-96431904D01*
X58006247Y-96431904D02*
X58244342Y-96431904D01*
X58244342Y-96431904D02*
X58339580Y-96384285D01*
X58339580Y-96384285D02*
X58387200Y-96336666D01*
X58387200Y-96336666D02*
X58434819Y-96241428D01*
X58434819Y-96241428D02*
X58434819Y-95955714D01*
X58434819Y-95955714D02*
X58387200Y-95860476D01*
X58387200Y-95860476D02*
X58339580Y-95812857D01*
X72854819Y-96087142D02*
X72378628Y-95753809D01*
X72854819Y-95515714D02*
X71854819Y-95515714D01*
X71854819Y-95515714D02*
X71854819Y-95896666D01*
X71854819Y-95896666D02*
X71902438Y-95991904D01*
X71902438Y-95991904D02*
X71950057Y-96039523D01*
X71950057Y-96039523D02*
X72045295Y-96087142D01*
X72045295Y-96087142D02*
X72188152Y-96087142D01*
X72188152Y-96087142D02*
X72283390Y-96039523D01*
X72283390Y-96039523D02*
X72331009Y-95991904D01*
X72331009Y-95991904D02*
X72378628Y-95896666D01*
X72378628Y-95896666D02*
X72378628Y-95515714D01*
X72854819Y-97039523D02*
X72854819Y-96468095D01*
X72854819Y-96753809D02*
X71854819Y-96753809D01*
X71854819Y-96753809D02*
X71997676Y-96658571D01*
X71997676Y-96658571D02*
X72092914Y-96563333D01*
X72092914Y-96563333D02*
X72140533Y-96468095D01*
X71950057Y-97420476D02*
X71902438Y-97468095D01*
X71902438Y-97468095D02*
X71854819Y-97563333D01*
X71854819Y-97563333D02*
X71854819Y-97801428D01*
X71854819Y-97801428D02*
X71902438Y-97896666D01*
X71902438Y-97896666D02*
X71950057Y-97944285D01*
X71950057Y-97944285D02*
X72045295Y-97991904D01*
X72045295Y-97991904D02*
X72140533Y-97991904D01*
X72140533Y-97991904D02*
X72283390Y-97944285D01*
X72283390Y-97944285D02*
X72854819Y-97372857D01*
X72854819Y-97372857D02*
X72854819Y-97991904D01*
D12*
X38207142Y-26941752D02*
X38226190Y-26960800D01*
X38226190Y-26960800D02*
X38283332Y-26979847D01*
X38283332Y-26979847D02*
X38321428Y-26979847D01*
X38321428Y-26979847D02*
X38378571Y-26960800D01*
X38378571Y-26960800D02*
X38416666Y-26922704D01*
X38416666Y-26922704D02*
X38435713Y-26884609D01*
X38435713Y-26884609D02*
X38454761Y-26808419D01*
X38454761Y-26808419D02*
X38454761Y-26751276D01*
X38454761Y-26751276D02*
X38435713Y-26675085D01*
X38435713Y-26675085D02*
X38416666Y-26636990D01*
X38416666Y-26636990D02*
X38378571Y-26598895D01*
X38378571Y-26598895D02*
X38321428Y-26579847D01*
X38321428Y-26579847D02*
X38283332Y-26579847D01*
X38283332Y-26579847D02*
X38226190Y-26598895D01*
X38226190Y-26598895D02*
X38207142Y-26617942D01*
X38073809Y-26579847D02*
X37807142Y-26579847D01*
X37807142Y-26579847D02*
X37978571Y-26979847D01*
X37578571Y-26579847D02*
X37540476Y-26579847D01*
X37540476Y-26579847D02*
X37502380Y-26598895D01*
X37502380Y-26598895D02*
X37483333Y-26617942D01*
X37483333Y-26617942D02*
X37464285Y-26656038D01*
X37464285Y-26656038D02*
X37445238Y-26732228D01*
X37445238Y-26732228D02*
X37445238Y-26827466D01*
X37445238Y-26827466D02*
X37464285Y-26903657D01*
X37464285Y-26903657D02*
X37483333Y-26941752D01*
X37483333Y-26941752D02*
X37502380Y-26960800D01*
X37502380Y-26960800D02*
X37540476Y-26979847D01*
X37540476Y-26979847D02*
X37578571Y-26979847D01*
X37578571Y-26979847D02*
X37616666Y-26960800D01*
X37616666Y-26960800D02*
X37635714Y-26941752D01*
X37635714Y-26941752D02*
X37654761Y-26903657D01*
X37654761Y-26903657D02*
X37673809Y-26827466D01*
X37673809Y-26827466D02*
X37673809Y-26732228D01*
X37673809Y-26732228D02*
X37654761Y-26656038D01*
X37654761Y-26656038D02*
X37635714Y-26617942D01*
X37635714Y-26617942D02*
X37616666Y-26598895D01*
X37616666Y-26598895D02*
X37578571Y-26579847D01*
D11*
X76844819Y-96117142D02*
X76368628Y-95783809D01*
X76844819Y-95545714D02*
X75844819Y-95545714D01*
X75844819Y-95545714D02*
X75844819Y-95926666D01*
X75844819Y-95926666D02*
X75892438Y-96021904D01*
X75892438Y-96021904D02*
X75940057Y-96069523D01*
X75940057Y-96069523D02*
X76035295Y-96117142D01*
X76035295Y-96117142D02*
X76178152Y-96117142D01*
X76178152Y-96117142D02*
X76273390Y-96069523D01*
X76273390Y-96069523D02*
X76321009Y-96021904D01*
X76321009Y-96021904D02*
X76368628Y-95926666D01*
X76368628Y-95926666D02*
X76368628Y-95545714D01*
X76844819Y-97069523D02*
X76844819Y-96498095D01*
X76844819Y-96783809D02*
X75844819Y-96783809D01*
X75844819Y-96783809D02*
X75987676Y-96688571D01*
X75987676Y-96688571D02*
X76082914Y-96593333D01*
X76082914Y-96593333D02*
X76130533Y-96498095D01*
X75844819Y-97402857D02*
X75844819Y-98021904D01*
X75844819Y-98021904D02*
X76225771Y-97688571D01*
X76225771Y-97688571D02*
X76225771Y-97831428D01*
X76225771Y-97831428D02*
X76273390Y-97926666D01*
X76273390Y-97926666D02*
X76321009Y-97974285D01*
X76321009Y-97974285D02*
X76416247Y-98021904D01*
X76416247Y-98021904D02*
X76654342Y-98021904D01*
X76654342Y-98021904D02*
X76749580Y-97974285D01*
X76749580Y-97974285D02*
X76797200Y-97926666D01*
X76797200Y-97926666D02*
X76844819Y-97831428D01*
X76844819Y-97831428D02*
X76844819Y-97545714D01*
X76844819Y-97545714D02*
X76797200Y-97450476D01*
X76797200Y-97450476D02*
X76749580Y-97402857D01*
X136832857Y-88194819D02*
X137166190Y-87718628D01*
X137404285Y-88194819D02*
X137404285Y-87194819D01*
X137404285Y-87194819D02*
X137023333Y-87194819D01*
X137023333Y-87194819D02*
X136928095Y-87242438D01*
X136928095Y-87242438D02*
X136880476Y-87290057D01*
X136880476Y-87290057D02*
X136832857Y-87385295D01*
X136832857Y-87385295D02*
X136832857Y-87528152D01*
X136832857Y-87528152D02*
X136880476Y-87623390D01*
X136880476Y-87623390D02*
X136928095Y-87671009D01*
X136928095Y-87671009D02*
X137023333Y-87718628D01*
X137023333Y-87718628D02*
X137404285Y-87718628D01*
X136451904Y-87290057D02*
X136404285Y-87242438D01*
X136404285Y-87242438D02*
X136309047Y-87194819D01*
X136309047Y-87194819D02*
X136070952Y-87194819D01*
X136070952Y-87194819D02*
X135975714Y-87242438D01*
X135975714Y-87242438D02*
X135928095Y-87290057D01*
X135928095Y-87290057D02*
X135880476Y-87385295D01*
X135880476Y-87385295D02*
X135880476Y-87480533D01*
X135880476Y-87480533D02*
X135928095Y-87623390D01*
X135928095Y-87623390D02*
X136499523Y-88194819D01*
X136499523Y-88194819D02*
X135880476Y-88194819D01*
X135261428Y-87194819D02*
X135166190Y-87194819D01*
X135166190Y-87194819D02*
X135070952Y-87242438D01*
X135070952Y-87242438D02*
X135023333Y-87290057D01*
X135023333Y-87290057D02*
X134975714Y-87385295D01*
X134975714Y-87385295D02*
X134928095Y-87575771D01*
X134928095Y-87575771D02*
X134928095Y-87813866D01*
X134928095Y-87813866D02*
X134975714Y-88004342D01*
X134975714Y-88004342D02*
X135023333Y-88099580D01*
X135023333Y-88099580D02*
X135070952Y-88147200D01*
X135070952Y-88147200D02*
X135166190Y-88194819D01*
X135166190Y-88194819D02*
X135261428Y-88194819D01*
X135261428Y-88194819D02*
X135356666Y-88147200D01*
X135356666Y-88147200D02*
X135404285Y-88099580D01*
X135404285Y-88099580D02*
X135451904Y-88004342D01*
X135451904Y-88004342D02*
X135499523Y-87813866D01*
X135499523Y-87813866D02*
X135499523Y-87575771D01*
X135499523Y-87575771D02*
X135451904Y-87385295D01*
X135451904Y-87385295D02*
X135404285Y-87290057D01*
X135404285Y-87290057D02*
X135356666Y-87242438D01*
X135356666Y-87242438D02*
X135261428Y-87194819D01*
D14*
X79200270Y-47639047D02*
X79139794Y-47518095D01*
X79139794Y-47518095D02*
X79018842Y-47397142D01*
X79018842Y-47397142D02*
X78837413Y-47215714D01*
X78837413Y-47215714D02*
X78776937Y-47094761D01*
X78776937Y-47094761D02*
X78776937Y-46973809D01*
X79079318Y-47034285D02*
X79018842Y-46913333D01*
X79018842Y-46913333D02*
X78897889Y-46792380D01*
X78897889Y-46792380D02*
X78655984Y-46731904D01*
X78655984Y-46731904D02*
X78232651Y-46731904D01*
X78232651Y-46731904D02*
X77990746Y-46792380D01*
X77990746Y-46792380D02*
X77869794Y-46913333D01*
X77869794Y-46913333D02*
X77809318Y-47034285D01*
X77809318Y-47034285D02*
X77809318Y-47276190D01*
X77809318Y-47276190D02*
X77869794Y-47397142D01*
X77869794Y-47397142D02*
X77990746Y-47518095D01*
X77990746Y-47518095D02*
X78232651Y-47578571D01*
X78232651Y-47578571D02*
X78655984Y-47578571D01*
X78655984Y-47578571D02*
X78897889Y-47518095D01*
X78897889Y-47518095D02*
X79018842Y-47397142D01*
X79018842Y-47397142D02*
X79079318Y-47276190D01*
X79079318Y-47276190D02*
X79079318Y-47034285D01*
X79079318Y-48788095D02*
X79079318Y-48062380D01*
X79079318Y-48425237D02*
X77809318Y-48425237D01*
X77809318Y-48425237D02*
X77990746Y-48304285D01*
X77990746Y-48304285D02*
X78111699Y-48183333D01*
X78111699Y-48183333D02*
X78172175Y-48062380D01*
X84833333Y-28609080D02*
X85256667Y-28609080D01*
X85256667Y-29274318D02*
X85256667Y-28004318D01*
X85256667Y-28004318D02*
X84651905Y-28004318D01*
X83623810Y-28427651D02*
X83623810Y-29274318D01*
X83926191Y-27943842D02*
X84228572Y-28850984D01*
X84228572Y-28850984D02*
X83442381Y-28850984D01*
X82958572Y-28790508D02*
X81990953Y-28790508D01*
X81507143Y-28004318D02*
X80660476Y-28004318D01*
X80660476Y-28004318D02*
X81204762Y-29274318D01*
X79571905Y-28004318D02*
X80176667Y-28004318D01*
X80176667Y-28004318D02*
X80237143Y-28609080D01*
X80237143Y-28609080D02*
X80176667Y-28548603D01*
X80176667Y-28548603D02*
X80055714Y-28488127D01*
X80055714Y-28488127D02*
X79753333Y-28488127D01*
X79753333Y-28488127D02*
X79632381Y-28548603D01*
X79632381Y-28548603D02*
X79571905Y-28609080D01*
X79571905Y-28609080D02*
X79511428Y-28730032D01*
X79511428Y-28730032D02*
X79511428Y-29032413D01*
X79511428Y-29032413D02*
X79571905Y-29153365D01*
X79571905Y-29153365D02*
X79632381Y-29213842D01*
X79632381Y-29213842D02*
X79753333Y-29274318D01*
X79753333Y-29274318D02*
X80055714Y-29274318D01*
X80055714Y-29274318D02*
X80176667Y-29213842D01*
X80176667Y-29213842D02*
X80237143Y-29153365D01*
X78241428Y-29274318D02*
X78664762Y-28669556D01*
X78967143Y-29274318D02*
X78967143Y-28004318D01*
X78967143Y-28004318D02*
X78483333Y-28004318D01*
X78483333Y-28004318D02*
X78362381Y-28064794D01*
X78362381Y-28064794D02*
X78301904Y-28125270D01*
X78301904Y-28125270D02*
X78241428Y-28246222D01*
X78241428Y-28246222D02*
X78241428Y-28427651D01*
X78241428Y-28427651D02*
X78301904Y-28548603D01*
X78301904Y-28548603D02*
X78362381Y-28609080D01*
X78362381Y-28609080D02*
X78483333Y-28669556D01*
X78483333Y-28669556D02*
X78967143Y-28669556D01*
X77455238Y-28004318D02*
X77334285Y-28004318D01*
X77334285Y-28004318D02*
X77213333Y-28064794D01*
X77213333Y-28064794D02*
X77152857Y-28125270D01*
X77152857Y-28125270D02*
X77092381Y-28246222D01*
X77092381Y-28246222D02*
X77031904Y-28488127D01*
X77031904Y-28488127D02*
X77031904Y-28790508D01*
X77031904Y-28790508D02*
X77092381Y-29032413D01*
X77092381Y-29032413D02*
X77152857Y-29153365D01*
X77152857Y-29153365D02*
X77213333Y-29213842D01*
X77213333Y-29213842D02*
X77334285Y-29274318D01*
X77334285Y-29274318D02*
X77455238Y-29274318D01*
X77455238Y-29274318D02*
X77576190Y-29213842D01*
X77576190Y-29213842D02*
X77636666Y-29153365D01*
X77636666Y-29153365D02*
X77697143Y-29032413D01*
X77697143Y-29032413D02*
X77757619Y-28790508D01*
X77757619Y-28790508D02*
X77757619Y-28488127D01*
X77757619Y-28488127D02*
X77697143Y-28246222D01*
X77697143Y-28246222D02*
X77636666Y-28125270D01*
X77636666Y-28125270D02*
X77576190Y-28064794D01*
X77576190Y-28064794D02*
X77455238Y-28004318D01*
X75943333Y-28004318D02*
X76185238Y-28004318D01*
X76185238Y-28004318D02*
X76306190Y-28064794D01*
X76306190Y-28064794D02*
X76366666Y-28125270D01*
X76366666Y-28125270D02*
X76487619Y-28306699D01*
X76487619Y-28306699D02*
X76548095Y-28548603D01*
X76548095Y-28548603D02*
X76548095Y-29032413D01*
X76548095Y-29032413D02*
X76487619Y-29153365D01*
X76487619Y-29153365D02*
X76427142Y-29213842D01*
X76427142Y-29213842D02*
X76306190Y-29274318D01*
X76306190Y-29274318D02*
X76064285Y-29274318D01*
X76064285Y-29274318D02*
X75943333Y-29213842D01*
X75943333Y-29213842D02*
X75882857Y-29153365D01*
X75882857Y-29153365D02*
X75822380Y-29032413D01*
X75822380Y-29032413D02*
X75822380Y-28730032D01*
X75822380Y-28730032D02*
X75882857Y-28609080D01*
X75882857Y-28609080D02*
X75943333Y-28548603D01*
X75943333Y-28548603D02*
X76064285Y-28488127D01*
X76064285Y-28488127D02*
X76306190Y-28488127D01*
X76306190Y-28488127D02*
X76427142Y-28548603D01*
X76427142Y-28548603D02*
X76487619Y-28609080D01*
X76487619Y-28609080D02*
X76548095Y-28730032D01*
X75399047Y-28004318D02*
X75096666Y-29274318D01*
X75096666Y-29274318D02*
X74854761Y-28367175D01*
X74854761Y-28367175D02*
X74612856Y-29274318D01*
X74612856Y-29274318D02*
X74310476Y-28004318D01*
X73161427Y-29274318D02*
X73887142Y-29274318D01*
X73524285Y-29274318D02*
X73524285Y-28004318D01*
X73524285Y-28004318D02*
X73645237Y-28185746D01*
X73645237Y-28185746D02*
X73766189Y-28306699D01*
X73766189Y-28306699D02*
X73887142Y-28367175D01*
X72617142Y-28609080D02*
X72193808Y-28609080D01*
X72012380Y-29274318D02*
X72617142Y-29274318D01*
X72617142Y-29274318D02*
X72617142Y-28004318D01*
X72617142Y-28004318D02*
X72012380Y-28004318D01*
X71589046Y-28004318D02*
X70802855Y-28004318D01*
X70802855Y-28004318D02*
X71226189Y-28488127D01*
X71226189Y-28488127D02*
X71044760Y-28488127D01*
X71044760Y-28488127D02*
X70923808Y-28548603D01*
X70923808Y-28548603D02*
X70863332Y-28609080D01*
X70863332Y-28609080D02*
X70802855Y-28730032D01*
X70802855Y-28730032D02*
X70802855Y-29032413D01*
X70802855Y-29032413D02*
X70863332Y-29153365D01*
X70863332Y-29153365D02*
X70923808Y-29213842D01*
X70923808Y-29213842D02*
X71044760Y-29274318D01*
X71044760Y-29274318D02*
X71407617Y-29274318D01*
X71407617Y-29274318D02*
X71528570Y-29213842D01*
X71528570Y-29213842D02*
X71589046Y-29153365D01*
D12*
X61149847Y-114312857D02*
X60959371Y-114179524D01*
X61149847Y-114084286D02*
X60749847Y-114084286D01*
X60749847Y-114084286D02*
X60749847Y-114236667D01*
X60749847Y-114236667D02*
X60768895Y-114274762D01*
X60768895Y-114274762D02*
X60787942Y-114293809D01*
X60787942Y-114293809D02*
X60826038Y-114312857D01*
X60826038Y-114312857D02*
X60883180Y-114312857D01*
X60883180Y-114312857D02*
X60921276Y-114293809D01*
X60921276Y-114293809D02*
X60940323Y-114274762D01*
X60940323Y-114274762D02*
X60959371Y-114236667D01*
X60959371Y-114236667D02*
X60959371Y-114084286D01*
X60883180Y-114655714D02*
X61149847Y-114655714D01*
X60730800Y-114560476D02*
X61016514Y-114465238D01*
X61016514Y-114465238D02*
X61016514Y-114712857D01*
X61149847Y-115074761D02*
X61149847Y-114846190D01*
X61149847Y-114960476D02*
X60749847Y-114960476D01*
X60749847Y-114960476D02*
X60806990Y-114922380D01*
X60806990Y-114922380D02*
X60845085Y-114884285D01*
X60845085Y-114884285D02*
X60864133Y-114846190D01*
X56197142Y-115789847D02*
X56330475Y-115599371D01*
X56425713Y-115789847D02*
X56425713Y-115389847D01*
X56425713Y-115389847D02*
X56273332Y-115389847D01*
X56273332Y-115389847D02*
X56235237Y-115408895D01*
X56235237Y-115408895D02*
X56216190Y-115427942D01*
X56216190Y-115427942D02*
X56197142Y-115466038D01*
X56197142Y-115466038D02*
X56197142Y-115523180D01*
X56197142Y-115523180D02*
X56216190Y-115561276D01*
X56216190Y-115561276D02*
X56235237Y-115580323D01*
X56235237Y-115580323D02*
X56273332Y-115599371D01*
X56273332Y-115599371D02*
X56425713Y-115599371D01*
X56063809Y-115389847D02*
X55816190Y-115389847D01*
X55816190Y-115389847D02*
X55949523Y-115542228D01*
X55949523Y-115542228D02*
X55892380Y-115542228D01*
X55892380Y-115542228D02*
X55854285Y-115561276D01*
X55854285Y-115561276D02*
X55835237Y-115580323D01*
X55835237Y-115580323D02*
X55816190Y-115618419D01*
X55816190Y-115618419D02*
X55816190Y-115713657D01*
X55816190Y-115713657D02*
X55835237Y-115751752D01*
X55835237Y-115751752D02*
X55854285Y-115770800D01*
X55854285Y-115770800D02*
X55892380Y-115789847D01*
X55892380Y-115789847D02*
X56006666Y-115789847D01*
X56006666Y-115789847D02*
X56044761Y-115770800D01*
X56044761Y-115770800D02*
X56063809Y-115751752D01*
X55682857Y-115389847D02*
X55416190Y-115389847D01*
X55416190Y-115389847D02*
X55587619Y-115789847D01*
D11*
X14839999Y-70502628D02*
X14868571Y-70531200D01*
X14868571Y-70531200D02*
X14954285Y-70559771D01*
X14954285Y-70559771D02*
X15011428Y-70559771D01*
X15011428Y-70559771D02*
X15097142Y-70531200D01*
X15097142Y-70531200D02*
X15154285Y-70474057D01*
X15154285Y-70474057D02*
X15182856Y-70416914D01*
X15182856Y-70416914D02*
X15211428Y-70302628D01*
X15211428Y-70302628D02*
X15211428Y-70216914D01*
X15211428Y-70216914D02*
X15182856Y-70102628D01*
X15182856Y-70102628D02*
X15154285Y-70045485D01*
X15154285Y-70045485D02*
X15097142Y-69988342D01*
X15097142Y-69988342D02*
X15011428Y-69959771D01*
X15011428Y-69959771D02*
X14954285Y-69959771D01*
X14954285Y-69959771D02*
X14868571Y-69988342D01*
X14868571Y-69988342D02*
X14839999Y-70016914D01*
X14611428Y-70016914D02*
X14582856Y-69988342D01*
X14582856Y-69988342D02*
X14525714Y-69959771D01*
X14525714Y-69959771D02*
X14382856Y-69959771D01*
X14382856Y-69959771D02*
X14325714Y-69988342D01*
X14325714Y-69988342D02*
X14297142Y-70016914D01*
X14297142Y-70016914D02*
X14268571Y-70074057D01*
X14268571Y-70074057D02*
X14268571Y-70131200D01*
X14268571Y-70131200D02*
X14297142Y-70216914D01*
X14297142Y-70216914D02*
X14639999Y-70559771D01*
X14639999Y-70559771D02*
X14268571Y-70559771D01*
X136802857Y-80254819D02*
X137136190Y-79778628D01*
X137374285Y-80254819D02*
X137374285Y-79254819D01*
X137374285Y-79254819D02*
X136993333Y-79254819D01*
X136993333Y-79254819D02*
X136898095Y-79302438D01*
X136898095Y-79302438D02*
X136850476Y-79350057D01*
X136850476Y-79350057D02*
X136802857Y-79445295D01*
X136802857Y-79445295D02*
X136802857Y-79588152D01*
X136802857Y-79588152D02*
X136850476Y-79683390D01*
X136850476Y-79683390D02*
X136898095Y-79731009D01*
X136898095Y-79731009D02*
X136993333Y-79778628D01*
X136993333Y-79778628D02*
X137374285Y-79778628D01*
X135850476Y-80254819D02*
X136421904Y-80254819D01*
X136136190Y-80254819D02*
X136136190Y-79254819D01*
X136136190Y-79254819D02*
X136231428Y-79397676D01*
X136231428Y-79397676D02*
X136326666Y-79492914D01*
X136326666Y-79492914D02*
X136421904Y-79540533D01*
X135279047Y-79683390D02*
X135374285Y-79635771D01*
X135374285Y-79635771D02*
X135421904Y-79588152D01*
X135421904Y-79588152D02*
X135469523Y-79492914D01*
X135469523Y-79492914D02*
X135469523Y-79445295D01*
X135469523Y-79445295D02*
X135421904Y-79350057D01*
X135421904Y-79350057D02*
X135374285Y-79302438D01*
X135374285Y-79302438D02*
X135279047Y-79254819D01*
X135279047Y-79254819D02*
X135088571Y-79254819D01*
X135088571Y-79254819D02*
X134993333Y-79302438D01*
X134993333Y-79302438D02*
X134945714Y-79350057D01*
X134945714Y-79350057D02*
X134898095Y-79445295D01*
X134898095Y-79445295D02*
X134898095Y-79492914D01*
X134898095Y-79492914D02*
X134945714Y-79588152D01*
X134945714Y-79588152D02*
X134993333Y-79635771D01*
X134993333Y-79635771D02*
X135088571Y-79683390D01*
X135088571Y-79683390D02*
X135279047Y-79683390D01*
X135279047Y-79683390D02*
X135374285Y-79731009D01*
X135374285Y-79731009D02*
X135421904Y-79778628D01*
X135421904Y-79778628D02*
X135469523Y-79873866D01*
X135469523Y-79873866D02*
X135469523Y-80064342D01*
X135469523Y-80064342D02*
X135421904Y-80159580D01*
X135421904Y-80159580D02*
X135374285Y-80207200D01*
X135374285Y-80207200D02*
X135279047Y-80254819D01*
X135279047Y-80254819D02*
X135088571Y-80254819D01*
X135088571Y-80254819D02*
X134993333Y-80207200D01*
X134993333Y-80207200D02*
X134945714Y-80159580D01*
X134945714Y-80159580D02*
X134898095Y-80064342D01*
X134898095Y-80064342D02*
X134898095Y-79873866D01*
X134898095Y-79873866D02*
X134945714Y-79778628D01*
X134945714Y-79778628D02*
X134993333Y-79731009D01*
X134993333Y-79731009D02*
X135088571Y-79683390D01*
D12*
X24819847Y-16492857D02*
X24629371Y-16359524D01*
X24819847Y-16264286D02*
X24419847Y-16264286D01*
X24419847Y-16264286D02*
X24419847Y-16416667D01*
X24419847Y-16416667D02*
X24438895Y-16454762D01*
X24438895Y-16454762D02*
X24457942Y-16473809D01*
X24457942Y-16473809D02*
X24496038Y-16492857D01*
X24496038Y-16492857D02*
X24553180Y-16492857D01*
X24553180Y-16492857D02*
X24591276Y-16473809D01*
X24591276Y-16473809D02*
X24610323Y-16454762D01*
X24610323Y-16454762D02*
X24629371Y-16416667D01*
X24629371Y-16416667D02*
X24629371Y-16264286D01*
X24419847Y-16835714D02*
X24419847Y-16759524D01*
X24419847Y-16759524D02*
X24438895Y-16721428D01*
X24438895Y-16721428D02*
X24457942Y-16702381D01*
X24457942Y-16702381D02*
X24515085Y-16664286D01*
X24515085Y-16664286D02*
X24591276Y-16645238D01*
X24591276Y-16645238D02*
X24743657Y-16645238D01*
X24743657Y-16645238D02*
X24781752Y-16664286D01*
X24781752Y-16664286D02*
X24800800Y-16683333D01*
X24800800Y-16683333D02*
X24819847Y-16721428D01*
X24819847Y-16721428D02*
X24819847Y-16797619D01*
X24819847Y-16797619D02*
X24800800Y-16835714D01*
X24800800Y-16835714D02*
X24781752Y-16854762D01*
X24781752Y-16854762D02*
X24743657Y-16873809D01*
X24743657Y-16873809D02*
X24648419Y-16873809D01*
X24648419Y-16873809D02*
X24610323Y-16854762D01*
X24610323Y-16854762D02*
X24591276Y-16835714D01*
X24591276Y-16835714D02*
X24572228Y-16797619D01*
X24572228Y-16797619D02*
X24572228Y-16721428D01*
X24572228Y-16721428D02*
X24591276Y-16683333D01*
X24591276Y-16683333D02*
X24610323Y-16664286D01*
X24610323Y-16664286D02*
X24648419Y-16645238D01*
X24419847Y-17235714D02*
X24419847Y-17045238D01*
X24419847Y-17045238D02*
X24610323Y-17026190D01*
X24610323Y-17026190D02*
X24591276Y-17045238D01*
X24591276Y-17045238D02*
X24572228Y-17083333D01*
X24572228Y-17083333D02*
X24572228Y-17178571D01*
X24572228Y-17178571D02*
X24591276Y-17216666D01*
X24591276Y-17216666D02*
X24610323Y-17235714D01*
X24610323Y-17235714D02*
X24648419Y-17254761D01*
X24648419Y-17254761D02*
X24743657Y-17254761D01*
X24743657Y-17254761D02*
X24781752Y-17235714D01*
X24781752Y-17235714D02*
X24800800Y-17216666D01*
X24800800Y-17216666D02*
X24819847Y-17178571D01*
X24819847Y-17178571D02*
X24819847Y-17083333D01*
X24819847Y-17083333D02*
X24800800Y-17045238D01*
X24800800Y-17045238D02*
X24781752Y-17026190D01*
X43769847Y-77712857D02*
X43579371Y-77579524D01*
X43769847Y-77484286D02*
X43369847Y-77484286D01*
X43369847Y-77484286D02*
X43369847Y-77636667D01*
X43369847Y-77636667D02*
X43388895Y-77674762D01*
X43388895Y-77674762D02*
X43407942Y-77693809D01*
X43407942Y-77693809D02*
X43446038Y-77712857D01*
X43446038Y-77712857D02*
X43503180Y-77712857D01*
X43503180Y-77712857D02*
X43541276Y-77693809D01*
X43541276Y-77693809D02*
X43560323Y-77674762D01*
X43560323Y-77674762D02*
X43579371Y-77636667D01*
X43579371Y-77636667D02*
X43579371Y-77484286D01*
X43369847Y-77846190D02*
X43369847Y-78112857D01*
X43369847Y-78112857D02*
X43769847Y-77941428D01*
X43541276Y-78322380D02*
X43522228Y-78284285D01*
X43522228Y-78284285D02*
X43503180Y-78265238D01*
X43503180Y-78265238D02*
X43465085Y-78246190D01*
X43465085Y-78246190D02*
X43446038Y-78246190D01*
X43446038Y-78246190D02*
X43407942Y-78265238D01*
X43407942Y-78265238D02*
X43388895Y-78284285D01*
X43388895Y-78284285D02*
X43369847Y-78322380D01*
X43369847Y-78322380D02*
X43369847Y-78398571D01*
X43369847Y-78398571D02*
X43388895Y-78436666D01*
X43388895Y-78436666D02*
X43407942Y-78455714D01*
X43407942Y-78455714D02*
X43446038Y-78474761D01*
X43446038Y-78474761D02*
X43465085Y-78474761D01*
X43465085Y-78474761D02*
X43503180Y-78455714D01*
X43503180Y-78455714D02*
X43522228Y-78436666D01*
X43522228Y-78436666D02*
X43541276Y-78398571D01*
X43541276Y-78398571D02*
X43541276Y-78322380D01*
X43541276Y-78322380D02*
X43560323Y-78284285D01*
X43560323Y-78284285D02*
X43579371Y-78265238D01*
X43579371Y-78265238D02*
X43617466Y-78246190D01*
X43617466Y-78246190D02*
X43693657Y-78246190D01*
X43693657Y-78246190D02*
X43731752Y-78265238D01*
X43731752Y-78265238D02*
X43750800Y-78284285D01*
X43750800Y-78284285D02*
X43769847Y-78322380D01*
X43769847Y-78322380D02*
X43769847Y-78398571D01*
X43769847Y-78398571D02*
X43750800Y-78436666D01*
X43750800Y-78436666D02*
X43731752Y-78455714D01*
X43731752Y-78455714D02*
X43693657Y-78474761D01*
X43693657Y-78474761D02*
X43617466Y-78474761D01*
X43617466Y-78474761D02*
X43579371Y-78455714D01*
X43579371Y-78455714D02*
X43560323Y-78436666D01*
X43560323Y-78436666D02*
X43541276Y-78398571D01*
D11*
X62102857Y-95764819D02*
X62436190Y-95288628D01*
X62674285Y-95764819D02*
X62674285Y-94764819D01*
X62674285Y-94764819D02*
X62293333Y-94764819D01*
X62293333Y-94764819D02*
X62198095Y-94812438D01*
X62198095Y-94812438D02*
X62150476Y-94860057D01*
X62150476Y-94860057D02*
X62102857Y-94955295D01*
X62102857Y-94955295D02*
X62102857Y-95098152D01*
X62102857Y-95098152D02*
X62150476Y-95193390D01*
X62150476Y-95193390D02*
X62198095Y-95241009D01*
X62198095Y-95241009D02*
X62293333Y-95288628D01*
X62293333Y-95288628D02*
X62674285Y-95288628D01*
X61769523Y-94764819D02*
X61150476Y-94764819D01*
X61150476Y-94764819D02*
X61483809Y-95145771D01*
X61483809Y-95145771D02*
X61340952Y-95145771D01*
X61340952Y-95145771D02*
X61245714Y-95193390D01*
X61245714Y-95193390D02*
X61198095Y-95241009D01*
X61198095Y-95241009D02*
X61150476Y-95336247D01*
X61150476Y-95336247D02*
X61150476Y-95574342D01*
X61150476Y-95574342D02*
X61198095Y-95669580D01*
X61198095Y-95669580D02*
X61245714Y-95717200D01*
X61245714Y-95717200D02*
X61340952Y-95764819D01*
X61340952Y-95764819D02*
X61626666Y-95764819D01*
X61626666Y-95764819D02*
X61721904Y-95717200D01*
X61721904Y-95717200D02*
X61769523Y-95669580D01*
X60245714Y-94764819D02*
X60721904Y-94764819D01*
X60721904Y-94764819D02*
X60769523Y-95241009D01*
X60769523Y-95241009D02*
X60721904Y-95193390D01*
X60721904Y-95193390D02*
X60626666Y-95145771D01*
X60626666Y-95145771D02*
X60388571Y-95145771D01*
X60388571Y-95145771D02*
X60293333Y-95193390D01*
X60293333Y-95193390D02*
X60245714Y-95241009D01*
X60245714Y-95241009D02*
X60198095Y-95336247D01*
X60198095Y-95336247D02*
X60198095Y-95574342D01*
X60198095Y-95574342D02*
X60245714Y-95669580D01*
X60245714Y-95669580D02*
X60293333Y-95717200D01*
X60293333Y-95717200D02*
X60388571Y-95764819D01*
X60388571Y-95764819D02*
X60626666Y-95764819D01*
X60626666Y-95764819D02*
X60721904Y-95717200D01*
X60721904Y-95717200D02*
X60769523Y-95669580D01*
X136822857Y-108214819D02*
X137156190Y-107738628D01*
X137394285Y-108214819D02*
X137394285Y-107214819D01*
X137394285Y-107214819D02*
X137013333Y-107214819D01*
X137013333Y-107214819D02*
X136918095Y-107262438D01*
X136918095Y-107262438D02*
X136870476Y-107310057D01*
X136870476Y-107310057D02*
X136822857Y-107405295D01*
X136822857Y-107405295D02*
X136822857Y-107548152D01*
X136822857Y-107548152D02*
X136870476Y-107643390D01*
X136870476Y-107643390D02*
X136918095Y-107691009D01*
X136918095Y-107691009D02*
X137013333Y-107738628D01*
X137013333Y-107738628D02*
X137394285Y-107738628D01*
X136441904Y-107310057D02*
X136394285Y-107262438D01*
X136394285Y-107262438D02*
X136299047Y-107214819D01*
X136299047Y-107214819D02*
X136060952Y-107214819D01*
X136060952Y-107214819D02*
X135965714Y-107262438D01*
X135965714Y-107262438D02*
X135918095Y-107310057D01*
X135918095Y-107310057D02*
X135870476Y-107405295D01*
X135870476Y-107405295D02*
X135870476Y-107500533D01*
X135870476Y-107500533D02*
X135918095Y-107643390D01*
X135918095Y-107643390D02*
X136489523Y-108214819D01*
X136489523Y-108214819D02*
X135870476Y-108214819D01*
X134965714Y-107214819D02*
X135441904Y-107214819D01*
X135441904Y-107214819D02*
X135489523Y-107691009D01*
X135489523Y-107691009D02*
X135441904Y-107643390D01*
X135441904Y-107643390D02*
X135346666Y-107595771D01*
X135346666Y-107595771D02*
X135108571Y-107595771D01*
X135108571Y-107595771D02*
X135013333Y-107643390D01*
X135013333Y-107643390D02*
X134965714Y-107691009D01*
X134965714Y-107691009D02*
X134918095Y-107786247D01*
X134918095Y-107786247D02*
X134918095Y-108024342D01*
X134918095Y-108024342D02*
X134965714Y-108119580D01*
X134965714Y-108119580D02*
X135013333Y-108167200D01*
X135013333Y-108167200D02*
X135108571Y-108214819D01*
X135108571Y-108214819D02*
X135346666Y-108214819D01*
X135346666Y-108214819D02*
X135441904Y-108167200D01*
X135441904Y-108167200D02*
X135489523Y-108119580D01*
D13*
X28797190Y-52128571D02*
X28821000Y-52104762D01*
X28821000Y-52104762D02*
X28844809Y-52033333D01*
X28844809Y-52033333D02*
X28844809Y-51985714D01*
X28844809Y-51985714D02*
X28821000Y-51914286D01*
X28821000Y-51914286D02*
X28773380Y-51866667D01*
X28773380Y-51866667D02*
X28725761Y-51842857D01*
X28725761Y-51842857D02*
X28630523Y-51819048D01*
X28630523Y-51819048D02*
X28559095Y-51819048D01*
X28559095Y-51819048D02*
X28463857Y-51842857D01*
X28463857Y-51842857D02*
X28416238Y-51866667D01*
X28416238Y-51866667D02*
X28368619Y-51914286D01*
X28368619Y-51914286D02*
X28344809Y-51985714D01*
X28344809Y-51985714D02*
X28344809Y-52033333D01*
X28344809Y-52033333D02*
X28368619Y-52104762D01*
X28368619Y-52104762D02*
X28392428Y-52128571D01*
X28344809Y-52295238D02*
X28344809Y-52628571D01*
X28344809Y-52628571D02*
X28844809Y-52414286D01*
X28392428Y-52795238D02*
X28368619Y-52819047D01*
X28368619Y-52819047D02*
X28344809Y-52866666D01*
X28344809Y-52866666D02*
X28344809Y-52985714D01*
X28344809Y-52985714D02*
X28368619Y-53033333D01*
X28368619Y-53033333D02*
X28392428Y-53057142D01*
X28392428Y-53057142D02*
X28440047Y-53080952D01*
X28440047Y-53080952D02*
X28487666Y-53080952D01*
X28487666Y-53080952D02*
X28559095Y-53057142D01*
X28559095Y-53057142D02*
X28844809Y-52771428D01*
X28844809Y-52771428D02*
X28844809Y-53080952D01*
D11*
X80914819Y-96097142D02*
X80438628Y-95763809D01*
X80914819Y-95525714D02*
X79914819Y-95525714D01*
X79914819Y-95525714D02*
X79914819Y-95906666D01*
X79914819Y-95906666D02*
X79962438Y-96001904D01*
X79962438Y-96001904D02*
X80010057Y-96049523D01*
X80010057Y-96049523D02*
X80105295Y-96097142D01*
X80105295Y-96097142D02*
X80248152Y-96097142D01*
X80248152Y-96097142D02*
X80343390Y-96049523D01*
X80343390Y-96049523D02*
X80391009Y-96001904D01*
X80391009Y-96001904D02*
X80438628Y-95906666D01*
X80438628Y-95906666D02*
X80438628Y-95525714D01*
X80914819Y-97049523D02*
X80914819Y-96478095D01*
X80914819Y-96763809D02*
X79914819Y-96763809D01*
X79914819Y-96763809D02*
X80057676Y-96668571D01*
X80057676Y-96668571D02*
X80152914Y-96573333D01*
X80152914Y-96573333D02*
X80200533Y-96478095D01*
X80248152Y-97906666D02*
X80914819Y-97906666D01*
X79867200Y-97668571D02*
X80581485Y-97430476D01*
X80581485Y-97430476D02*
X80581485Y-98049523D01*
X31254819Y-21841905D02*
X32064342Y-21841905D01*
X32064342Y-21841905D02*
X32159580Y-21889524D01*
X32159580Y-21889524D02*
X32207200Y-21937143D01*
X32207200Y-21937143D02*
X32254819Y-22032381D01*
X32254819Y-22032381D02*
X32254819Y-22222857D01*
X32254819Y-22222857D02*
X32207200Y-22318095D01*
X32207200Y-22318095D02*
X32159580Y-22365714D01*
X32159580Y-22365714D02*
X32064342Y-22413333D01*
X32064342Y-22413333D02*
X31254819Y-22413333D01*
X32254819Y-23413333D02*
X32254819Y-22841905D01*
X32254819Y-23127619D02*
X31254819Y-23127619D01*
X31254819Y-23127619D02*
X31397676Y-23032381D01*
X31397676Y-23032381D02*
X31492914Y-22937143D01*
X31492914Y-22937143D02*
X31540533Y-22841905D01*
X31254819Y-24318095D02*
X31254819Y-23841905D01*
X31254819Y-23841905D02*
X31731009Y-23794286D01*
X31731009Y-23794286D02*
X31683390Y-23841905D01*
X31683390Y-23841905D02*
X31635771Y-23937143D01*
X31635771Y-23937143D02*
X31635771Y-24175238D01*
X31635771Y-24175238D02*
X31683390Y-24270476D01*
X31683390Y-24270476D02*
X31731009Y-24318095D01*
X31731009Y-24318095D02*
X31826247Y-24365714D01*
X31826247Y-24365714D02*
X32064342Y-24365714D01*
X32064342Y-24365714D02*
X32159580Y-24318095D01*
X32159580Y-24318095D02*
X32207200Y-24270476D01*
X32207200Y-24270476D02*
X32254819Y-24175238D01*
X32254819Y-24175238D02*
X32254819Y-23937143D01*
X32254819Y-23937143D02*
X32207200Y-23841905D01*
X32207200Y-23841905D02*
X32159580Y-23794286D01*
D13*
X48001428Y-93427190D02*
X48025237Y-93451000D01*
X48025237Y-93451000D02*
X48096666Y-93474809D01*
X48096666Y-93474809D02*
X48144285Y-93474809D01*
X48144285Y-93474809D02*
X48215713Y-93451000D01*
X48215713Y-93451000D02*
X48263332Y-93403380D01*
X48263332Y-93403380D02*
X48287142Y-93355761D01*
X48287142Y-93355761D02*
X48310951Y-93260523D01*
X48310951Y-93260523D02*
X48310951Y-93189095D01*
X48310951Y-93189095D02*
X48287142Y-93093857D01*
X48287142Y-93093857D02*
X48263332Y-93046238D01*
X48263332Y-93046238D02*
X48215713Y-92998619D01*
X48215713Y-92998619D02*
X48144285Y-92974809D01*
X48144285Y-92974809D02*
X48096666Y-92974809D01*
X48096666Y-92974809D02*
X48025237Y-92998619D01*
X48025237Y-92998619D02*
X48001428Y-93022428D01*
X47572856Y-93141476D02*
X47572856Y-93474809D01*
X47691904Y-92951000D02*
X47810951Y-93308142D01*
X47810951Y-93308142D02*
X47501428Y-93308142D01*
X47096666Y-92974809D02*
X47191904Y-92974809D01*
X47191904Y-92974809D02*
X47239523Y-92998619D01*
X47239523Y-92998619D02*
X47263333Y-93022428D01*
X47263333Y-93022428D02*
X47310952Y-93093857D01*
X47310952Y-93093857D02*
X47334761Y-93189095D01*
X47334761Y-93189095D02*
X47334761Y-93379571D01*
X47334761Y-93379571D02*
X47310952Y-93427190D01*
X47310952Y-93427190D02*
X47287142Y-93451000D01*
X47287142Y-93451000D02*
X47239523Y-93474809D01*
X47239523Y-93474809D02*
X47144285Y-93474809D01*
X47144285Y-93474809D02*
X47096666Y-93451000D01*
X47096666Y-93451000D02*
X47072857Y-93427190D01*
X47072857Y-93427190D02*
X47049047Y-93379571D01*
X47049047Y-93379571D02*
X47049047Y-93260523D01*
X47049047Y-93260523D02*
X47072857Y-93212904D01*
X47072857Y-93212904D02*
X47096666Y-93189095D01*
X47096666Y-93189095D02*
X47144285Y-93165285D01*
X47144285Y-93165285D02*
X47239523Y-93165285D01*
X47239523Y-93165285D02*
X47287142Y-93189095D01*
X47287142Y-93189095D02*
X47310952Y-93212904D01*
X47310952Y-93212904D02*
X47334761Y-93260523D01*
D11*
X35969580Y-81867142D02*
X36017200Y-81819523D01*
X36017200Y-81819523D02*
X36064819Y-81676666D01*
X36064819Y-81676666D02*
X36064819Y-81581428D01*
X36064819Y-81581428D02*
X36017200Y-81438571D01*
X36017200Y-81438571D02*
X35921961Y-81343333D01*
X35921961Y-81343333D02*
X35826723Y-81295714D01*
X35826723Y-81295714D02*
X35636247Y-81248095D01*
X35636247Y-81248095D02*
X35493390Y-81248095D01*
X35493390Y-81248095D02*
X35302914Y-81295714D01*
X35302914Y-81295714D02*
X35207676Y-81343333D01*
X35207676Y-81343333D02*
X35112438Y-81438571D01*
X35112438Y-81438571D02*
X35064819Y-81581428D01*
X35064819Y-81581428D02*
X35064819Y-81676666D01*
X35064819Y-81676666D02*
X35112438Y-81819523D01*
X35112438Y-81819523D02*
X35160057Y-81867142D01*
X35064819Y-82724285D02*
X35064819Y-82533809D01*
X35064819Y-82533809D02*
X35112438Y-82438571D01*
X35112438Y-82438571D02*
X35160057Y-82390952D01*
X35160057Y-82390952D02*
X35302914Y-82295714D01*
X35302914Y-82295714D02*
X35493390Y-82248095D01*
X35493390Y-82248095D02*
X35874342Y-82248095D01*
X35874342Y-82248095D02*
X35969580Y-82295714D01*
X35969580Y-82295714D02*
X36017200Y-82343333D01*
X36017200Y-82343333D02*
X36064819Y-82438571D01*
X36064819Y-82438571D02*
X36064819Y-82629047D01*
X36064819Y-82629047D02*
X36017200Y-82724285D01*
X36017200Y-82724285D02*
X35969580Y-82771904D01*
X35969580Y-82771904D02*
X35874342Y-82819523D01*
X35874342Y-82819523D02*
X35636247Y-82819523D01*
X35636247Y-82819523D02*
X35541009Y-82771904D01*
X35541009Y-82771904D02*
X35493390Y-82724285D01*
X35493390Y-82724285D02*
X35445771Y-82629047D01*
X35445771Y-82629047D02*
X35445771Y-82438571D01*
X35445771Y-82438571D02*
X35493390Y-82343333D01*
X35493390Y-82343333D02*
X35541009Y-82295714D01*
X35541009Y-82295714D02*
X35636247Y-82248095D01*
X35064819Y-83724285D02*
X35064819Y-83248095D01*
X35064819Y-83248095D02*
X35541009Y-83200476D01*
X35541009Y-83200476D02*
X35493390Y-83248095D01*
X35493390Y-83248095D02*
X35445771Y-83343333D01*
X35445771Y-83343333D02*
X35445771Y-83581428D01*
X35445771Y-83581428D02*
X35493390Y-83676666D01*
X35493390Y-83676666D02*
X35541009Y-83724285D01*
X35541009Y-83724285D02*
X35636247Y-83771904D01*
X35636247Y-83771904D02*
X35874342Y-83771904D01*
X35874342Y-83771904D02*
X35969580Y-83724285D01*
X35969580Y-83724285D02*
X36017200Y-83676666D01*
X36017200Y-83676666D02*
X36064819Y-83581428D01*
X36064819Y-83581428D02*
X36064819Y-83343333D01*
X36064819Y-83343333D02*
X36017200Y-83248095D01*
X36017200Y-83248095D02*
X35969580Y-83200476D01*
D12*
X50197142Y-92901752D02*
X50216190Y-92920800D01*
X50216190Y-92920800D02*
X50273332Y-92939847D01*
X50273332Y-92939847D02*
X50311428Y-92939847D01*
X50311428Y-92939847D02*
X50368571Y-92920800D01*
X50368571Y-92920800D02*
X50406666Y-92882704D01*
X50406666Y-92882704D02*
X50425713Y-92844609D01*
X50425713Y-92844609D02*
X50444761Y-92768419D01*
X50444761Y-92768419D02*
X50444761Y-92711276D01*
X50444761Y-92711276D02*
X50425713Y-92635085D01*
X50425713Y-92635085D02*
X50406666Y-92596990D01*
X50406666Y-92596990D02*
X50368571Y-92558895D01*
X50368571Y-92558895D02*
X50311428Y-92539847D01*
X50311428Y-92539847D02*
X50273332Y-92539847D01*
X50273332Y-92539847D02*
X50216190Y-92558895D01*
X50216190Y-92558895D02*
X50197142Y-92577942D01*
X49854285Y-92673180D02*
X49854285Y-92939847D01*
X49949523Y-92520800D02*
X50044761Y-92806514D01*
X50044761Y-92806514D02*
X49797142Y-92806514D01*
X49454285Y-92539847D02*
X49644761Y-92539847D01*
X49644761Y-92539847D02*
X49663809Y-92730323D01*
X49663809Y-92730323D02*
X49644761Y-92711276D01*
X49644761Y-92711276D02*
X49606666Y-92692228D01*
X49606666Y-92692228D02*
X49511428Y-92692228D01*
X49511428Y-92692228D02*
X49473333Y-92711276D01*
X49473333Y-92711276D02*
X49454285Y-92730323D01*
X49454285Y-92730323D02*
X49435238Y-92768419D01*
X49435238Y-92768419D02*
X49435238Y-92863657D01*
X49435238Y-92863657D02*
X49454285Y-92901752D01*
X49454285Y-92901752D02*
X49473333Y-92920800D01*
X49473333Y-92920800D02*
X49511428Y-92939847D01*
X49511428Y-92939847D02*
X49606666Y-92939847D01*
X49606666Y-92939847D02*
X49644761Y-92920800D01*
X49644761Y-92920800D02*
X49663809Y-92901752D01*
X47959847Y-103662857D02*
X47769371Y-103529524D01*
X47959847Y-103434286D02*
X47559847Y-103434286D01*
X47559847Y-103434286D02*
X47559847Y-103586667D01*
X47559847Y-103586667D02*
X47578895Y-103624762D01*
X47578895Y-103624762D02*
X47597942Y-103643809D01*
X47597942Y-103643809D02*
X47636038Y-103662857D01*
X47636038Y-103662857D02*
X47693180Y-103662857D01*
X47693180Y-103662857D02*
X47731276Y-103643809D01*
X47731276Y-103643809D02*
X47750323Y-103624762D01*
X47750323Y-103624762D02*
X47769371Y-103586667D01*
X47769371Y-103586667D02*
X47769371Y-103434286D01*
X47559847Y-104024762D02*
X47559847Y-103834286D01*
X47559847Y-103834286D02*
X47750323Y-103815238D01*
X47750323Y-103815238D02*
X47731276Y-103834286D01*
X47731276Y-103834286D02*
X47712228Y-103872381D01*
X47712228Y-103872381D02*
X47712228Y-103967619D01*
X47712228Y-103967619D02*
X47731276Y-104005714D01*
X47731276Y-104005714D02*
X47750323Y-104024762D01*
X47750323Y-104024762D02*
X47788419Y-104043809D01*
X47788419Y-104043809D02*
X47883657Y-104043809D01*
X47883657Y-104043809D02*
X47921752Y-104024762D01*
X47921752Y-104024762D02*
X47940800Y-104005714D01*
X47940800Y-104005714D02*
X47959847Y-103967619D01*
X47959847Y-103967619D02*
X47959847Y-103872381D01*
X47959847Y-103872381D02*
X47940800Y-103834286D01*
X47940800Y-103834286D02*
X47921752Y-103815238D01*
X47693180Y-104386666D02*
X47959847Y-104386666D01*
X47540800Y-104291428D02*
X47826514Y-104196190D01*
X47826514Y-104196190D02*
X47826514Y-104443809D01*
X55199847Y-29163333D02*
X55009371Y-29030000D01*
X55199847Y-28934762D02*
X54799847Y-28934762D01*
X54799847Y-28934762D02*
X54799847Y-29087143D01*
X54799847Y-29087143D02*
X54818895Y-29125238D01*
X54818895Y-29125238D02*
X54837942Y-29144285D01*
X54837942Y-29144285D02*
X54876038Y-29163333D01*
X54876038Y-29163333D02*
X54933180Y-29163333D01*
X54933180Y-29163333D02*
X54971276Y-29144285D01*
X54971276Y-29144285D02*
X54990323Y-29125238D01*
X54990323Y-29125238D02*
X55009371Y-29087143D01*
X55009371Y-29087143D02*
X55009371Y-28934762D01*
X54933180Y-29506190D02*
X55199847Y-29506190D01*
X54780800Y-29410952D02*
X55066514Y-29315714D01*
X55066514Y-29315714D02*
X55066514Y-29563333D01*
D13*
X40241428Y-79647190D02*
X40265237Y-79671000D01*
X40265237Y-79671000D02*
X40336666Y-79694809D01*
X40336666Y-79694809D02*
X40384285Y-79694809D01*
X40384285Y-79694809D02*
X40455713Y-79671000D01*
X40455713Y-79671000D02*
X40503332Y-79623380D01*
X40503332Y-79623380D02*
X40527142Y-79575761D01*
X40527142Y-79575761D02*
X40550951Y-79480523D01*
X40550951Y-79480523D02*
X40550951Y-79409095D01*
X40550951Y-79409095D02*
X40527142Y-79313857D01*
X40527142Y-79313857D02*
X40503332Y-79266238D01*
X40503332Y-79266238D02*
X40455713Y-79218619D01*
X40455713Y-79218619D02*
X40384285Y-79194809D01*
X40384285Y-79194809D02*
X40336666Y-79194809D01*
X40336666Y-79194809D02*
X40265237Y-79218619D01*
X40265237Y-79218619D02*
X40241428Y-79242428D01*
X39789047Y-79194809D02*
X40027142Y-79194809D01*
X40027142Y-79194809D02*
X40050951Y-79432904D01*
X40050951Y-79432904D02*
X40027142Y-79409095D01*
X40027142Y-79409095D02*
X39979523Y-79385285D01*
X39979523Y-79385285D02*
X39860475Y-79385285D01*
X39860475Y-79385285D02*
X39812856Y-79409095D01*
X39812856Y-79409095D02*
X39789047Y-79432904D01*
X39789047Y-79432904D02*
X39765237Y-79480523D01*
X39765237Y-79480523D02*
X39765237Y-79599571D01*
X39765237Y-79599571D02*
X39789047Y-79647190D01*
X39789047Y-79647190D02*
X39812856Y-79671000D01*
X39812856Y-79671000D02*
X39860475Y-79694809D01*
X39860475Y-79694809D02*
X39979523Y-79694809D01*
X39979523Y-79694809D02*
X40027142Y-79671000D01*
X40027142Y-79671000D02*
X40050951Y-79647190D01*
X39574761Y-79242428D02*
X39550952Y-79218619D01*
X39550952Y-79218619D02*
X39503333Y-79194809D01*
X39503333Y-79194809D02*
X39384285Y-79194809D01*
X39384285Y-79194809D02*
X39336666Y-79218619D01*
X39336666Y-79218619D02*
X39312857Y-79242428D01*
X39312857Y-79242428D02*
X39289047Y-79290047D01*
X39289047Y-79290047D02*
X39289047Y-79337666D01*
X39289047Y-79337666D02*
X39312857Y-79409095D01*
X39312857Y-79409095D02*
X39598571Y-79694809D01*
X39598571Y-79694809D02*
X39289047Y-79694809D01*
D11*
X29418094Y-97924819D02*
X29418094Y-98734342D01*
X29418094Y-98734342D02*
X29370475Y-98829580D01*
X29370475Y-98829580D02*
X29322856Y-98877200D01*
X29322856Y-98877200D02*
X29227618Y-98924819D01*
X29227618Y-98924819D02*
X29037142Y-98924819D01*
X29037142Y-98924819D02*
X28941904Y-98877200D01*
X28941904Y-98877200D02*
X28894285Y-98829580D01*
X28894285Y-98829580D02*
X28846666Y-98734342D01*
X28846666Y-98734342D02*
X28846666Y-97924819D01*
X27846666Y-98924819D02*
X28418094Y-98924819D01*
X28132380Y-98924819D02*
X28132380Y-97924819D01*
X28132380Y-97924819D02*
X28227618Y-98067676D01*
X28227618Y-98067676D02*
X28322856Y-98162914D01*
X28322856Y-98162914D02*
X28418094Y-98210533D01*
X27513332Y-97924819D02*
X26894285Y-97924819D01*
X26894285Y-97924819D02*
X27227618Y-98305771D01*
X27227618Y-98305771D02*
X27084761Y-98305771D01*
X27084761Y-98305771D02*
X26989523Y-98353390D01*
X26989523Y-98353390D02*
X26941904Y-98401009D01*
X26941904Y-98401009D02*
X26894285Y-98496247D01*
X26894285Y-98496247D02*
X26894285Y-98734342D01*
X26894285Y-98734342D02*
X26941904Y-98829580D01*
X26941904Y-98829580D02*
X26989523Y-98877200D01*
X26989523Y-98877200D02*
X27084761Y-98924819D01*
X27084761Y-98924819D02*
X27370475Y-98924819D01*
X27370475Y-98924819D02*
X27465713Y-98877200D01*
X27465713Y-98877200D02*
X27513332Y-98829580D01*
X51652856Y-42089771D02*
X51652856Y-41489771D01*
X51652856Y-41489771D02*
X51509999Y-41489771D01*
X51509999Y-41489771D02*
X51424285Y-41518342D01*
X51424285Y-41518342D02*
X51367142Y-41575485D01*
X51367142Y-41575485D02*
X51338571Y-41632628D01*
X51338571Y-41632628D02*
X51309999Y-41746914D01*
X51309999Y-41746914D02*
X51309999Y-41832628D01*
X51309999Y-41832628D02*
X51338571Y-41946914D01*
X51338571Y-41946914D02*
X51367142Y-42004057D01*
X51367142Y-42004057D02*
X51424285Y-42061200D01*
X51424285Y-42061200D02*
X51509999Y-42089771D01*
X51509999Y-42089771D02*
X51652856Y-42089771D01*
X50767142Y-41489771D02*
X51052856Y-41489771D01*
X51052856Y-41489771D02*
X51081428Y-41775485D01*
X51081428Y-41775485D02*
X51052856Y-41746914D01*
X51052856Y-41746914D02*
X50995714Y-41718342D01*
X50995714Y-41718342D02*
X50852856Y-41718342D01*
X50852856Y-41718342D02*
X50795714Y-41746914D01*
X50795714Y-41746914D02*
X50767142Y-41775485D01*
X50767142Y-41775485D02*
X50738571Y-41832628D01*
X50738571Y-41832628D02*
X50738571Y-41975485D01*
X50738571Y-41975485D02*
X50767142Y-42032628D01*
X50767142Y-42032628D02*
X50795714Y-42061200D01*
X50795714Y-42061200D02*
X50852856Y-42089771D01*
X50852856Y-42089771D02*
X50995714Y-42089771D01*
X50995714Y-42089771D02*
X51052856Y-42061200D01*
X51052856Y-42061200D02*
X51081428Y-42032628D01*
X136832857Y-96254819D02*
X137166190Y-95778628D01*
X137404285Y-96254819D02*
X137404285Y-95254819D01*
X137404285Y-95254819D02*
X137023333Y-95254819D01*
X137023333Y-95254819D02*
X136928095Y-95302438D01*
X136928095Y-95302438D02*
X136880476Y-95350057D01*
X136880476Y-95350057D02*
X136832857Y-95445295D01*
X136832857Y-95445295D02*
X136832857Y-95588152D01*
X136832857Y-95588152D02*
X136880476Y-95683390D01*
X136880476Y-95683390D02*
X136928095Y-95731009D01*
X136928095Y-95731009D02*
X137023333Y-95778628D01*
X137023333Y-95778628D02*
X137404285Y-95778628D01*
X136451904Y-95350057D02*
X136404285Y-95302438D01*
X136404285Y-95302438D02*
X136309047Y-95254819D01*
X136309047Y-95254819D02*
X136070952Y-95254819D01*
X136070952Y-95254819D02*
X135975714Y-95302438D01*
X135975714Y-95302438D02*
X135928095Y-95350057D01*
X135928095Y-95350057D02*
X135880476Y-95445295D01*
X135880476Y-95445295D02*
X135880476Y-95540533D01*
X135880476Y-95540533D02*
X135928095Y-95683390D01*
X135928095Y-95683390D02*
X136499523Y-96254819D01*
X136499523Y-96254819D02*
X135880476Y-96254819D01*
X135499523Y-95350057D02*
X135451904Y-95302438D01*
X135451904Y-95302438D02*
X135356666Y-95254819D01*
X135356666Y-95254819D02*
X135118571Y-95254819D01*
X135118571Y-95254819D02*
X135023333Y-95302438D01*
X135023333Y-95302438D02*
X134975714Y-95350057D01*
X134975714Y-95350057D02*
X134928095Y-95445295D01*
X134928095Y-95445295D02*
X134928095Y-95540533D01*
X134928095Y-95540533D02*
X134975714Y-95683390D01*
X134975714Y-95683390D02*
X135547142Y-96254819D01*
X135547142Y-96254819D02*
X134928095Y-96254819D01*
D12*
X28331752Y-81242857D02*
X28350800Y-81223809D01*
X28350800Y-81223809D02*
X28369847Y-81166667D01*
X28369847Y-81166667D02*
X28369847Y-81128571D01*
X28369847Y-81128571D02*
X28350800Y-81071428D01*
X28350800Y-81071428D02*
X28312704Y-81033333D01*
X28312704Y-81033333D02*
X28274609Y-81014286D01*
X28274609Y-81014286D02*
X28198419Y-80995238D01*
X28198419Y-80995238D02*
X28141276Y-80995238D01*
X28141276Y-80995238D02*
X28065085Y-81014286D01*
X28065085Y-81014286D02*
X28026990Y-81033333D01*
X28026990Y-81033333D02*
X27988895Y-81071428D01*
X27988895Y-81071428D02*
X27969847Y-81128571D01*
X27969847Y-81128571D02*
X27969847Y-81166667D01*
X27969847Y-81166667D02*
X27988895Y-81223809D01*
X27988895Y-81223809D02*
X28007942Y-81242857D01*
X27969847Y-81585714D02*
X27969847Y-81509524D01*
X27969847Y-81509524D02*
X27988895Y-81471428D01*
X27988895Y-81471428D02*
X28007942Y-81452381D01*
X28007942Y-81452381D02*
X28065085Y-81414286D01*
X28065085Y-81414286D02*
X28141276Y-81395238D01*
X28141276Y-81395238D02*
X28293657Y-81395238D01*
X28293657Y-81395238D02*
X28331752Y-81414286D01*
X28331752Y-81414286D02*
X28350800Y-81433333D01*
X28350800Y-81433333D02*
X28369847Y-81471428D01*
X28369847Y-81471428D02*
X28369847Y-81547619D01*
X28369847Y-81547619D02*
X28350800Y-81585714D01*
X28350800Y-81585714D02*
X28331752Y-81604762D01*
X28331752Y-81604762D02*
X28293657Y-81623809D01*
X28293657Y-81623809D02*
X28198419Y-81623809D01*
X28198419Y-81623809D02*
X28160323Y-81604762D01*
X28160323Y-81604762D02*
X28141276Y-81585714D01*
X28141276Y-81585714D02*
X28122228Y-81547619D01*
X28122228Y-81547619D02*
X28122228Y-81471428D01*
X28122228Y-81471428D02*
X28141276Y-81433333D01*
X28141276Y-81433333D02*
X28160323Y-81414286D01*
X28160323Y-81414286D02*
X28198419Y-81395238D01*
X27969847Y-81871428D02*
X27969847Y-81909523D01*
X27969847Y-81909523D02*
X27988895Y-81947619D01*
X27988895Y-81947619D02*
X28007942Y-81966666D01*
X28007942Y-81966666D02*
X28046038Y-81985714D01*
X28046038Y-81985714D02*
X28122228Y-82004761D01*
X28122228Y-82004761D02*
X28217466Y-82004761D01*
X28217466Y-82004761D02*
X28293657Y-81985714D01*
X28293657Y-81985714D02*
X28331752Y-81966666D01*
X28331752Y-81966666D02*
X28350800Y-81947619D01*
X28350800Y-81947619D02*
X28369847Y-81909523D01*
X28369847Y-81909523D02*
X28369847Y-81871428D01*
X28369847Y-81871428D02*
X28350800Y-81833333D01*
X28350800Y-81833333D02*
X28331752Y-81814285D01*
X28331752Y-81814285D02*
X28293657Y-81795238D01*
X28293657Y-81795238D02*
X28217466Y-81776190D01*
X28217466Y-81776190D02*
X28122228Y-81776190D01*
X28122228Y-81776190D02*
X28046038Y-81795238D01*
X28046038Y-81795238D02*
X28007942Y-81814285D01*
X28007942Y-81814285D02*
X27988895Y-81833333D01*
X27988895Y-81833333D02*
X27969847Y-81871428D01*
X55107142Y-102719847D02*
X55240475Y-102529371D01*
X55335713Y-102719847D02*
X55335713Y-102319847D01*
X55335713Y-102319847D02*
X55183332Y-102319847D01*
X55183332Y-102319847D02*
X55145237Y-102338895D01*
X55145237Y-102338895D02*
X55126190Y-102357942D01*
X55126190Y-102357942D02*
X55107142Y-102396038D01*
X55107142Y-102396038D02*
X55107142Y-102453180D01*
X55107142Y-102453180D02*
X55126190Y-102491276D01*
X55126190Y-102491276D02*
X55145237Y-102510323D01*
X55145237Y-102510323D02*
X55183332Y-102529371D01*
X55183332Y-102529371D02*
X55335713Y-102529371D01*
X54764285Y-102453180D02*
X54764285Y-102719847D01*
X54859523Y-102300800D02*
X54954761Y-102586514D01*
X54954761Y-102586514D02*
X54707142Y-102586514D01*
X54535714Y-102719847D02*
X54459523Y-102719847D01*
X54459523Y-102719847D02*
X54421428Y-102700800D01*
X54421428Y-102700800D02*
X54402380Y-102681752D01*
X54402380Y-102681752D02*
X54364285Y-102624609D01*
X54364285Y-102624609D02*
X54345238Y-102548419D01*
X54345238Y-102548419D02*
X54345238Y-102396038D01*
X54345238Y-102396038D02*
X54364285Y-102357942D01*
X54364285Y-102357942D02*
X54383333Y-102338895D01*
X54383333Y-102338895D02*
X54421428Y-102319847D01*
X54421428Y-102319847D02*
X54497619Y-102319847D01*
X54497619Y-102319847D02*
X54535714Y-102338895D01*
X54535714Y-102338895D02*
X54554761Y-102357942D01*
X54554761Y-102357942D02*
X54573809Y-102396038D01*
X54573809Y-102396038D02*
X54573809Y-102491276D01*
X54573809Y-102491276D02*
X54554761Y-102529371D01*
X54554761Y-102529371D02*
X54535714Y-102548419D01*
X54535714Y-102548419D02*
X54497619Y-102567466D01*
X54497619Y-102567466D02*
X54421428Y-102567466D01*
X54421428Y-102567466D02*
X54383333Y-102548419D01*
X54383333Y-102548419D02*
X54364285Y-102529371D01*
X54364285Y-102529371D02*
X54345238Y-102491276D01*
X42711752Y-53902857D02*
X42730800Y-53883809D01*
X42730800Y-53883809D02*
X42749847Y-53826667D01*
X42749847Y-53826667D02*
X42749847Y-53788571D01*
X42749847Y-53788571D02*
X42730800Y-53731428D01*
X42730800Y-53731428D02*
X42692704Y-53693333D01*
X42692704Y-53693333D02*
X42654609Y-53674286D01*
X42654609Y-53674286D02*
X42578419Y-53655238D01*
X42578419Y-53655238D02*
X42521276Y-53655238D01*
X42521276Y-53655238D02*
X42445085Y-53674286D01*
X42445085Y-53674286D02*
X42406990Y-53693333D01*
X42406990Y-53693333D02*
X42368895Y-53731428D01*
X42368895Y-53731428D02*
X42349847Y-53788571D01*
X42349847Y-53788571D02*
X42349847Y-53826667D01*
X42349847Y-53826667D02*
X42368895Y-53883809D01*
X42368895Y-53883809D02*
X42387942Y-53902857D01*
X42349847Y-54036190D02*
X42349847Y-54283809D01*
X42349847Y-54283809D02*
X42502228Y-54150476D01*
X42502228Y-54150476D02*
X42502228Y-54207619D01*
X42502228Y-54207619D02*
X42521276Y-54245714D01*
X42521276Y-54245714D02*
X42540323Y-54264762D01*
X42540323Y-54264762D02*
X42578419Y-54283809D01*
X42578419Y-54283809D02*
X42673657Y-54283809D01*
X42673657Y-54283809D02*
X42711752Y-54264762D01*
X42711752Y-54264762D02*
X42730800Y-54245714D01*
X42730800Y-54245714D02*
X42749847Y-54207619D01*
X42749847Y-54207619D02*
X42749847Y-54093333D01*
X42749847Y-54093333D02*
X42730800Y-54055238D01*
X42730800Y-54055238D02*
X42711752Y-54036190D01*
X42349847Y-54645714D02*
X42349847Y-54455238D01*
X42349847Y-54455238D02*
X42540323Y-54436190D01*
X42540323Y-54436190D02*
X42521276Y-54455238D01*
X42521276Y-54455238D02*
X42502228Y-54493333D01*
X42502228Y-54493333D02*
X42502228Y-54588571D01*
X42502228Y-54588571D02*
X42521276Y-54626666D01*
X42521276Y-54626666D02*
X42540323Y-54645714D01*
X42540323Y-54645714D02*
X42578419Y-54664761D01*
X42578419Y-54664761D02*
X42673657Y-54664761D01*
X42673657Y-54664761D02*
X42711752Y-54645714D01*
X42711752Y-54645714D02*
X42730800Y-54626666D01*
X42730800Y-54626666D02*
X42749847Y-54588571D01*
X42749847Y-54588571D02*
X42749847Y-54493333D01*
X42749847Y-54493333D02*
X42730800Y-54455238D01*
X42730800Y-54455238D02*
X42711752Y-54436190D01*
X50177142Y-85891752D02*
X50196190Y-85910800D01*
X50196190Y-85910800D02*
X50253332Y-85929847D01*
X50253332Y-85929847D02*
X50291428Y-85929847D01*
X50291428Y-85929847D02*
X50348571Y-85910800D01*
X50348571Y-85910800D02*
X50386666Y-85872704D01*
X50386666Y-85872704D02*
X50405713Y-85834609D01*
X50405713Y-85834609D02*
X50424761Y-85758419D01*
X50424761Y-85758419D02*
X50424761Y-85701276D01*
X50424761Y-85701276D02*
X50405713Y-85625085D01*
X50405713Y-85625085D02*
X50386666Y-85586990D01*
X50386666Y-85586990D02*
X50348571Y-85548895D01*
X50348571Y-85548895D02*
X50291428Y-85529847D01*
X50291428Y-85529847D02*
X50253332Y-85529847D01*
X50253332Y-85529847D02*
X50196190Y-85548895D01*
X50196190Y-85548895D02*
X50177142Y-85567942D01*
X49834285Y-85663180D02*
X49834285Y-85929847D01*
X49929523Y-85510800D02*
X50024761Y-85796514D01*
X50024761Y-85796514D02*
X49777142Y-85796514D01*
X49662857Y-85529847D02*
X49415238Y-85529847D01*
X49415238Y-85529847D02*
X49548571Y-85682228D01*
X49548571Y-85682228D02*
X49491428Y-85682228D01*
X49491428Y-85682228D02*
X49453333Y-85701276D01*
X49453333Y-85701276D02*
X49434285Y-85720323D01*
X49434285Y-85720323D02*
X49415238Y-85758419D01*
X49415238Y-85758419D02*
X49415238Y-85853657D01*
X49415238Y-85853657D02*
X49434285Y-85891752D01*
X49434285Y-85891752D02*
X49453333Y-85910800D01*
X49453333Y-85910800D02*
X49491428Y-85929847D01*
X49491428Y-85929847D02*
X49605714Y-85929847D01*
X49605714Y-85929847D02*
X49643809Y-85910800D01*
X49643809Y-85910800D02*
X49662857Y-85891752D01*
D13*
X38521428Y-17497190D02*
X38545237Y-17521000D01*
X38545237Y-17521000D02*
X38616666Y-17544809D01*
X38616666Y-17544809D02*
X38664285Y-17544809D01*
X38664285Y-17544809D02*
X38735713Y-17521000D01*
X38735713Y-17521000D02*
X38783332Y-17473380D01*
X38783332Y-17473380D02*
X38807142Y-17425761D01*
X38807142Y-17425761D02*
X38830951Y-17330523D01*
X38830951Y-17330523D02*
X38830951Y-17259095D01*
X38830951Y-17259095D02*
X38807142Y-17163857D01*
X38807142Y-17163857D02*
X38783332Y-17116238D01*
X38783332Y-17116238D02*
X38735713Y-17068619D01*
X38735713Y-17068619D02*
X38664285Y-17044809D01*
X38664285Y-17044809D02*
X38616666Y-17044809D01*
X38616666Y-17044809D02*
X38545237Y-17068619D01*
X38545237Y-17068619D02*
X38521428Y-17092428D01*
X38092856Y-17044809D02*
X38188094Y-17044809D01*
X38188094Y-17044809D02*
X38235713Y-17068619D01*
X38235713Y-17068619D02*
X38259523Y-17092428D01*
X38259523Y-17092428D02*
X38307142Y-17163857D01*
X38307142Y-17163857D02*
X38330951Y-17259095D01*
X38330951Y-17259095D02*
X38330951Y-17449571D01*
X38330951Y-17449571D02*
X38307142Y-17497190D01*
X38307142Y-17497190D02*
X38283332Y-17521000D01*
X38283332Y-17521000D02*
X38235713Y-17544809D01*
X38235713Y-17544809D02*
X38140475Y-17544809D01*
X38140475Y-17544809D02*
X38092856Y-17521000D01*
X38092856Y-17521000D02*
X38069047Y-17497190D01*
X38069047Y-17497190D02*
X38045237Y-17449571D01*
X38045237Y-17449571D02*
X38045237Y-17330523D01*
X38045237Y-17330523D02*
X38069047Y-17282904D01*
X38069047Y-17282904D02*
X38092856Y-17259095D01*
X38092856Y-17259095D02*
X38140475Y-17235285D01*
X38140475Y-17235285D02*
X38235713Y-17235285D01*
X38235713Y-17235285D02*
X38283332Y-17259095D01*
X38283332Y-17259095D02*
X38307142Y-17282904D01*
X38307142Y-17282904D02*
X38330951Y-17330523D01*
X37807142Y-17544809D02*
X37711904Y-17544809D01*
X37711904Y-17544809D02*
X37664285Y-17521000D01*
X37664285Y-17521000D02*
X37640476Y-17497190D01*
X37640476Y-17497190D02*
X37592857Y-17425761D01*
X37592857Y-17425761D02*
X37569047Y-17330523D01*
X37569047Y-17330523D02*
X37569047Y-17140047D01*
X37569047Y-17140047D02*
X37592857Y-17092428D01*
X37592857Y-17092428D02*
X37616666Y-17068619D01*
X37616666Y-17068619D02*
X37664285Y-17044809D01*
X37664285Y-17044809D02*
X37759523Y-17044809D01*
X37759523Y-17044809D02*
X37807142Y-17068619D01*
X37807142Y-17068619D02*
X37830952Y-17092428D01*
X37830952Y-17092428D02*
X37854761Y-17140047D01*
X37854761Y-17140047D02*
X37854761Y-17259095D01*
X37854761Y-17259095D02*
X37830952Y-17306714D01*
X37830952Y-17306714D02*
X37807142Y-17330523D01*
X37807142Y-17330523D02*
X37759523Y-17354333D01*
X37759523Y-17354333D02*
X37664285Y-17354333D01*
X37664285Y-17354333D02*
X37616666Y-17330523D01*
X37616666Y-17330523D02*
X37592857Y-17306714D01*
X37592857Y-17306714D02*
X37569047Y-17259095D01*
X42377190Y-97898571D02*
X42401000Y-97874762D01*
X42401000Y-97874762D02*
X42424809Y-97803333D01*
X42424809Y-97803333D02*
X42424809Y-97755714D01*
X42424809Y-97755714D02*
X42401000Y-97684286D01*
X42401000Y-97684286D02*
X42353380Y-97636667D01*
X42353380Y-97636667D02*
X42305761Y-97612857D01*
X42305761Y-97612857D02*
X42210523Y-97589048D01*
X42210523Y-97589048D02*
X42139095Y-97589048D01*
X42139095Y-97589048D02*
X42043857Y-97612857D01*
X42043857Y-97612857D02*
X41996238Y-97636667D01*
X41996238Y-97636667D02*
X41948619Y-97684286D01*
X41948619Y-97684286D02*
X41924809Y-97755714D01*
X41924809Y-97755714D02*
X41924809Y-97803333D01*
X41924809Y-97803333D02*
X41948619Y-97874762D01*
X41948619Y-97874762D02*
X41972428Y-97898571D01*
X41924809Y-98065238D02*
X41924809Y-98374762D01*
X41924809Y-98374762D02*
X42115285Y-98208095D01*
X42115285Y-98208095D02*
X42115285Y-98279524D01*
X42115285Y-98279524D02*
X42139095Y-98327143D01*
X42139095Y-98327143D02*
X42162904Y-98350952D01*
X42162904Y-98350952D02*
X42210523Y-98374762D01*
X42210523Y-98374762D02*
X42329571Y-98374762D01*
X42329571Y-98374762D02*
X42377190Y-98350952D01*
X42377190Y-98350952D02*
X42401000Y-98327143D01*
X42401000Y-98327143D02*
X42424809Y-98279524D01*
X42424809Y-98279524D02*
X42424809Y-98136667D01*
X42424809Y-98136667D02*
X42401000Y-98089048D01*
X42401000Y-98089048D02*
X42377190Y-98065238D01*
X42424809Y-98612857D02*
X42424809Y-98708095D01*
X42424809Y-98708095D02*
X42401000Y-98755714D01*
X42401000Y-98755714D02*
X42377190Y-98779523D01*
X42377190Y-98779523D02*
X42305761Y-98827142D01*
X42305761Y-98827142D02*
X42210523Y-98850952D01*
X42210523Y-98850952D02*
X42020047Y-98850952D01*
X42020047Y-98850952D02*
X41972428Y-98827142D01*
X41972428Y-98827142D02*
X41948619Y-98803333D01*
X41948619Y-98803333D02*
X41924809Y-98755714D01*
X41924809Y-98755714D02*
X41924809Y-98660476D01*
X41924809Y-98660476D02*
X41948619Y-98612857D01*
X41948619Y-98612857D02*
X41972428Y-98589047D01*
X41972428Y-98589047D02*
X42020047Y-98565238D01*
X42020047Y-98565238D02*
X42139095Y-98565238D01*
X42139095Y-98565238D02*
X42186714Y-98589047D01*
X42186714Y-98589047D02*
X42210523Y-98612857D01*
X42210523Y-98612857D02*
X42234333Y-98660476D01*
X42234333Y-98660476D02*
X42234333Y-98755714D01*
X42234333Y-98755714D02*
X42210523Y-98803333D01*
X42210523Y-98803333D02*
X42186714Y-98827142D01*
X42186714Y-98827142D02*
X42139095Y-98850952D01*
X47971428Y-86657190D02*
X47995237Y-86681000D01*
X47995237Y-86681000D02*
X48066666Y-86704809D01*
X48066666Y-86704809D02*
X48114285Y-86704809D01*
X48114285Y-86704809D02*
X48185713Y-86681000D01*
X48185713Y-86681000D02*
X48233332Y-86633380D01*
X48233332Y-86633380D02*
X48257142Y-86585761D01*
X48257142Y-86585761D02*
X48280951Y-86490523D01*
X48280951Y-86490523D02*
X48280951Y-86419095D01*
X48280951Y-86419095D02*
X48257142Y-86323857D01*
X48257142Y-86323857D02*
X48233332Y-86276238D01*
X48233332Y-86276238D02*
X48185713Y-86228619D01*
X48185713Y-86228619D02*
X48114285Y-86204809D01*
X48114285Y-86204809D02*
X48066666Y-86204809D01*
X48066666Y-86204809D02*
X47995237Y-86228619D01*
X47995237Y-86228619D02*
X47971428Y-86252428D01*
X47542856Y-86371476D02*
X47542856Y-86704809D01*
X47661904Y-86181000D02*
X47780951Y-86538142D01*
X47780951Y-86538142D02*
X47471428Y-86538142D01*
X47066666Y-86371476D02*
X47066666Y-86704809D01*
X47185714Y-86181000D02*
X47304761Y-86538142D01*
X47304761Y-86538142D02*
X46995238Y-86538142D01*
D15*
%TO.C,R19*%
X138357064Y-85470000D02*
X134002936Y-85470000D01*
X138357064Y-82050000D02*
X134002936Y-82050000D01*
%TO.C,C21*%
X46270000Y-35571252D02*
X46270000Y-34148748D01*
X48090000Y-35571252D02*
X48090000Y-34148748D01*
%TO.C,C61*%
X27968748Y-76350000D02*
X29391252Y-76350000D01*
X27968748Y-78170000D02*
X29391252Y-78170000D01*
%TO.C,D4*%
X52830000Y-28250000D02*
X52830000Y-35260000D01*
X49530000Y-28250000D02*
X52830000Y-28250000D01*
X49530000Y-28250000D02*
X49530000Y-35260000D01*
%TO.C,C8*%
X14207500Y-48471252D02*
X14207500Y-47048748D01*
X16027500Y-48471252D02*
X16027500Y-47048748D01*
%TO.C,R38*%
X53167064Y-115415000D02*
X52712936Y-115415000D01*
X53167064Y-113945000D02*
X52712936Y-113945000D01*
%TO.C,J5*%
X29670000Y-45980000D02*
X29670000Y-49725000D01*
X30216529Y-45980000D02*
X29670000Y-45980000D01*
X30472470Y-49725000D02*
X29670000Y-49725000D01*
X31890000Y-44460000D02*
X30780000Y-44460000D01*
X31890000Y-45220000D02*
X31890000Y-44460000D01*
X31890000Y-45980000D02*
X31343471Y-45980000D01*
X31890000Y-45980000D02*
X31890000Y-49725000D01*
X31890000Y-49725000D02*
X31087530Y-49725000D01*
%TO.C,C1*%
X13770000Y-25471252D02*
X13770000Y-24048748D01*
X15590000Y-25471252D02*
X15590000Y-24048748D01*
%TO.C,R74*%
X24115000Y-102532936D02*
X24115000Y-102987064D01*
X22645000Y-102532936D02*
X22645000Y-102987064D01*
%TO.C,R23*%
X138357064Y-101470000D02*
X134002936Y-101470000D01*
X138357064Y-98050000D02*
X134002936Y-98050000D01*
%TO.C,R66*%
X24357936Y-14025000D02*
X24812064Y-14025000D01*
X24357936Y-15495000D02*
X24812064Y-15495000D01*
%TO.C,C56*%
X40840000Y-92548748D02*
X40840000Y-93971252D01*
X39020000Y-92548748D02*
X39020000Y-93971252D01*
%TO.C,R76*%
X43352936Y-91025000D02*
X43807064Y-91025000D01*
X43352936Y-92495000D02*
X43807064Y-92495000D01*
%TO.C,R11*%
X70140000Y-94582936D02*
X70140000Y-98937064D01*
X66720000Y-94582936D02*
X66720000Y-98937064D01*
%TO.C,C18*%
X38770000Y-36971252D02*
X38770000Y-35548748D01*
X40590000Y-36971252D02*
X40590000Y-35548748D01*
%TO.C,R40*%
X57325000Y-115957064D02*
X57325000Y-115502936D01*
X58795000Y-115957064D02*
X58795000Y-115502936D01*
%TO.C,C20*%
X53390000Y-61113733D02*
X53390000Y-61406267D01*
X52370000Y-61113733D02*
X52370000Y-61406267D01*
%TO.C,R55*%
X47662936Y-101055000D02*
X48117064Y-101055000D01*
X47662936Y-102525000D02*
X48117064Y-102525000D01*
%TO.C,C11*%
X19270000Y-47971252D02*
X19270000Y-46548748D01*
X21090000Y-47971252D02*
X21090000Y-46548748D01*
%TO.C,R26*%
X138357064Y-113480000D02*
X134002936Y-113480000D01*
X138357064Y-110060000D02*
X134002936Y-110060000D01*
%TO.C,U7*%
X45190000Y-108070000D02*
X45190000Y-102060000D01*
X38370000Y-105820000D02*
X38370000Y-102060000D01*
X38370000Y-102060000D02*
X39630000Y-102060000D01*
X45190000Y-102060000D02*
X43930000Y-102060000D01*
%TO.C,C5*%
X51135000Y-98521252D02*
X51135000Y-97998748D01*
X52605000Y-98521252D02*
X52605000Y-97998748D01*
%TO.C,C59*%
X28953752Y-105170000D02*
X27531248Y-105170000D01*
X28953752Y-103350000D02*
X27531248Y-103350000D01*
%TO.C,C19*%
X46170000Y-55771252D02*
X46170000Y-54348748D01*
X47990000Y-55771252D02*
X47990000Y-54348748D01*
%TO.C,C6*%
X44391252Y-22770000D02*
X42968748Y-22770000D01*
X44391252Y-20950000D02*
X42968748Y-20950000D01*
%TO.C,R33*%
X54592936Y-96525000D02*
X55047064Y-96525000D01*
X54592936Y-97995000D02*
X55047064Y-97995000D01*
%TO.C,C63*%
X25165000Y-88248748D02*
X25165000Y-88771252D01*
X23695000Y-88248748D02*
X23695000Y-88771252D01*
%TO.C,R57*%
X90140000Y-94582936D02*
X90140000Y-98937064D01*
X86720000Y-94582936D02*
X86720000Y-98937064D01*
%TO.C,C7*%
X15968748Y-109850000D02*
X17391252Y-109850000D01*
X15968748Y-111670000D02*
X17391252Y-111670000D01*
%TO.C,C50*%
X48191252Y-100245000D02*
X47668748Y-100245000D01*
X48191252Y-98775000D02*
X47668748Y-98775000D01*
%TO.C,U8*%
X32440000Y-37560000D02*
X32440000Y-31550000D01*
X25620000Y-35310000D02*
X25620000Y-31550000D01*
X25620000Y-31550000D02*
X26880000Y-31550000D01*
X32440000Y-31550000D02*
X31180000Y-31550000D01*
%TO.C,D2*%
X51930000Y-58050000D02*
X51930000Y-65060000D01*
X48630000Y-58050000D02*
X51930000Y-58050000D01*
X48630000Y-58050000D02*
X48630000Y-65060000D01*
%TO.C,R73*%
X22645000Y-95987064D02*
X22645000Y-95532936D01*
X24115000Y-95987064D02*
X24115000Y-95532936D01*
%TO.C,R72*%
X32245000Y-102787064D02*
X32245000Y-102332936D01*
X33715000Y-102787064D02*
X33715000Y-102332936D01*
%TO.C,C73*%
X27968748Y-66850000D02*
X29391252Y-66850000D01*
X27968748Y-68670000D02*
X29391252Y-68670000D01*
%TO.C,R17*%
X138357064Y-77470000D02*
X134002936Y-77470000D01*
X138357064Y-74050000D02*
X134002936Y-74050000D01*
%TO.C,C26*%
X64270000Y-97471252D02*
X64270000Y-96048748D01*
X66090000Y-97471252D02*
X66090000Y-96048748D01*
%TO.C,C16*%
X48230000Y-110278752D02*
X48230000Y-108856248D01*
X50050000Y-110278752D02*
X50050000Y-108856248D01*
%TO.C,R77*%
X43352936Y-84225000D02*
X43807064Y-84225000D01*
X43352936Y-85695000D02*
X43807064Y-85695000D01*
%TO.C,R34*%
X54622936Y-98615000D02*
X55077064Y-98615000D01*
X54622936Y-100085000D02*
X55077064Y-100085000D01*
%TO.C,R70*%
X28045000Y-91987064D02*
X28045000Y-91532936D01*
X29515000Y-91987064D02*
X29515000Y-91532936D01*
%TO.C,D1*%
X51930000Y-48950000D02*
X51930000Y-55960000D01*
X48630000Y-48950000D02*
X51930000Y-48950000D01*
X48630000Y-48950000D02*
X48630000Y-55960000D01*
%TO.C,R8*%
X37415000Y-33032936D02*
X37415000Y-33487064D01*
X35945000Y-33032936D02*
X35945000Y-33487064D01*
%TO.C,R36*%
X60732936Y-99295000D02*
X61187064Y-99295000D01*
X60732936Y-100765000D02*
X61187064Y-100765000D01*
%TO.C,C23*%
X54290000Y-41413733D02*
X54290000Y-41706267D01*
X53270000Y-41413733D02*
X53270000Y-41706267D01*
%TO.C,C14*%
X31340000Y-39798748D02*
X31340000Y-41221252D01*
X29520000Y-39798748D02*
X29520000Y-41221252D01*
%TO.C,C62*%
X24445000Y-83021252D02*
X24445000Y-82498748D01*
X25915000Y-83021252D02*
X25915000Y-82498748D01*
%TO.C,C10*%
X45570000Y-29371252D02*
X45570000Y-27948748D01*
X47390000Y-29371252D02*
X47390000Y-27948748D01*
%TO.C,C22*%
X38770000Y-56908752D02*
X38770000Y-55486248D01*
X40590000Y-56908752D02*
X40590000Y-55486248D01*
%TO.C,R53*%
X48707064Y-106645000D02*
X48252936Y-106645000D01*
X48707064Y-105175000D02*
X48252936Y-105175000D01*
%TO.C,C66*%
X34415000Y-90248748D02*
X34415000Y-90771252D01*
X32945000Y-90248748D02*
X32945000Y-90771252D01*
%TO.C,C40*%
X50665000Y-78998748D02*
X50665000Y-79521252D01*
X49195000Y-78998748D02*
X49195000Y-79521252D01*
%TO.C,C25*%
X40641252Y-72420000D02*
X39218748Y-72420000D01*
X40641252Y-70600000D02*
X39218748Y-70600000D01*
%TO.C,C4*%
X39088748Y-111660000D02*
X40511252Y-111660000D01*
X39088748Y-113480000D02*
X40511252Y-113480000D01*
%TO.C,R2*%
X52257500Y-51914724D02*
X52257500Y-51405276D01*
X53302500Y-51914724D02*
X53302500Y-51405276D01*
%TO.C,R51*%
X57582936Y-102775000D02*
X58037064Y-102775000D01*
X57582936Y-104245000D02*
X58037064Y-104245000D01*
%TO.C,C67*%
X27215000Y-86298748D02*
X27215000Y-86821252D01*
X25745000Y-86298748D02*
X25745000Y-86821252D01*
%TO.C,R24*%
X138357064Y-105470000D02*
X134002936Y-105470000D01*
X138357064Y-102050000D02*
X134002936Y-102050000D01*
%TO.C,R15*%
X86140000Y-94582936D02*
X86140000Y-98937064D01*
X82720000Y-94582936D02*
X82720000Y-98937064D01*
%TO.C,R50*%
X53585000Y-102272936D02*
X53585000Y-102727064D01*
X52115000Y-102272936D02*
X52115000Y-102727064D01*
%TO.C,D3*%
X61090000Y-49810000D02*
X54080000Y-49810000D01*
X61090000Y-46510000D02*
X61090000Y-49810000D01*
X61090000Y-46510000D02*
X54080000Y-46510000D01*
%TO.C,C68*%
X32340000Y-90548748D02*
X32340000Y-91971252D01*
X30520000Y-90548748D02*
X30520000Y-91971252D01*
%TO.C,J2*%
X19530000Y-14430000D02*
X18200000Y-14430000D01*
X16930000Y-14430000D02*
X14330000Y-14430000D01*
X19530000Y-15760000D02*
X19530000Y-14430000D01*
X16930000Y-17090000D02*
X16930000Y-14430000D01*
X16930000Y-17090000D02*
X14330000Y-17090000D01*
X14330000Y-17090000D02*
X14330000Y-14430000D01*
%TO.C,R21*%
X138357064Y-93470000D02*
X134002936Y-93470000D01*
X138357064Y-90050000D02*
X134002936Y-90050000D01*
%TO.C,D6*%
X59490000Y-28010000D02*
X52480000Y-28010000D01*
X59490000Y-24710000D02*
X59490000Y-28010000D01*
X59490000Y-24710000D02*
X52480000Y-24710000D01*
%TO.C,R52*%
X50085000Y-102697064D02*
X50085000Y-102242936D01*
X51555000Y-102697064D02*
X51555000Y-102242936D01*
%TO.C,U6*%
X50785000Y-109470000D02*
X50785000Y-111420000D01*
X50785000Y-109470000D02*
X50785000Y-107520000D01*
X59655000Y-109470000D02*
X59655000Y-112920000D01*
X59655000Y-109470000D02*
X59655000Y-107520000D01*
%TO.C,C54*%
X40840000Y-85798748D02*
X40840000Y-87221252D01*
X39020000Y-85798748D02*
X39020000Y-87221252D01*
%TO.C,C3*%
X18490000Y-105931252D02*
X18490000Y-104508748D01*
X20310000Y-105931252D02*
X20310000Y-104508748D01*
%TO.C,C58*%
X36090000Y-99798748D02*
X36090000Y-101221252D01*
X34270000Y-99798748D02*
X34270000Y-101221252D01*
%TO.C,C12*%
X44768748Y-58050000D02*
X46191252Y-58050000D01*
X44768748Y-59870000D02*
X46191252Y-59870000D01*
%TO.C,C41*%
X48590000Y-79298748D02*
X48590000Y-80721252D01*
X46770000Y-79298748D02*
X46770000Y-80721252D01*
%TO.C,C34*%
X41170000Y-35406267D02*
X41170000Y-35113733D01*
X42190000Y-35406267D02*
X42190000Y-35113733D01*
%TO.C,C13*%
X57135000Y-98501252D02*
X57135000Y-97978748D01*
X58605000Y-98501252D02*
X58605000Y-97978748D01*
%TO.C,R12*%
X74140000Y-94582936D02*
X74140000Y-98937064D01*
X70720000Y-94582936D02*
X70720000Y-98937064D01*
%TO.C,C70*%
X37195000Y-27021252D02*
X37195000Y-26498748D01*
X38665000Y-27021252D02*
X38665000Y-26498748D01*
%TO.C,R13*%
X78140000Y-94582936D02*
X78140000Y-98937064D01*
X74720000Y-94582936D02*
X74720000Y-98937064D01*
%TO.C,R20*%
X138357064Y-89470000D02*
X134002936Y-89470000D01*
X138357064Y-86050000D02*
X134002936Y-86050000D01*
D16*
%TO.C,Q1*%
X95880000Y-44360000D02*
G75*
G03*
X95880000Y-44460000I0J-50000D01*
G01*
X95880000Y-44460000D02*
G75*
G03*
X95880000Y-44360000I0J50000D01*
G01*
X95880000Y-44460000D02*
G75*
G03*
X95880000Y-44360000I0J50000D01*
G01*
D12*
X61080000Y-71760000D02*
X61080000Y-71760000D01*
X61080000Y-71760000D02*
X61080000Y-71760000D01*
X61080000Y-71760000D02*
X73430000Y-71760000D01*
X61080000Y-71760000D02*
X61080000Y-23760000D01*
X73430000Y-71760000D02*
X61080000Y-71760000D01*
X73430000Y-71760000D02*
X73430000Y-71760000D01*
X82430000Y-71760000D02*
X82430000Y-71760000D01*
X82430000Y-71760000D02*
X94880000Y-71760000D01*
X94880000Y-71760000D02*
X82430000Y-71760000D01*
X94880000Y-71760000D02*
X94880000Y-71760000D01*
X94880000Y-71760000D02*
X94880000Y-71760000D01*
X94880000Y-71760000D02*
X94880000Y-23760000D01*
D16*
X95880000Y-44460000D02*
X95880000Y-44460000D01*
X95880000Y-44360000D02*
X95880000Y-44360000D01*
X95880000Y-44360000D02*
X95880000Y-44360000D01*
D12*
X61080000Y-23760000D02*
X61080000Y-71760000D01*
X61080000Y-23760000D02*
X61080000Y-23760000D01*
X61080000Y-23760000D02*
X61080000Y-23760000D01*
X61080000Y-23760000D02*
X73680000Y-23760000D01*
X73680000Y-23760000D02*
X61080000Y-23760000D01*
X73680000Y-23760000D02*
X73680000Y-23760000D01*
X82930000Y-23760000D02*
X82930000Y-23760000D01*
X82930000Y-23760000D02*
X94880000Y-23760000D01*
X94880000Y-23760000D02*
X94880000Y-71760000D01*
X94880000Y-23760000D02*
X82930000Y-23760000D01*
X94880000Y-23760000D02*
X94880000Y-23760000D01*
X94880000Y-23760000D02*
X94880000Y-23760000D01*
D15*
%TO.C,R41*%
X60722936Y-113835000D02*
X61177064Y-113835000D01*
X60722936Y-115305000D02*
X61177064Y-115305000D01*
%TO.C,R37*%
X55195000Y-115807064D02*
X55195000Y-115352936D01*
X56665000Y-115807064D02*
X56665000Y-115352936D01*
%TO.C,C2*%
X13770000Y-70971252D02*
X13770000Y-69548748D01*
X15590000Y-70971252D02*
X15590000Y-69548748D01*
%TO.C,R18*%
X138357064Y-81470000D02*
X134002936Y-81470000D01*
X138357064Y-78050000D02*
X134002936Y-78050000D01*
%TO.C,R65*%
X24357936Y-16025000D02*
X24812064Y-16025000D01*
X24357936Y-17495000D02*
X24812064Y-17495000D01*
%TO.C,R78*%
X43352936Y-77225000D02*
X43807064Y-77225000D01*
X43352936Y-78695000D02*
X43807064Y-78695000D01*
%TO.C,R35*%
X60662936Y-96085000D02*
X61117064Y-96085000D01*
X60662936Y-97555000D02*
X61117064Y-97555000D01*
%TO.C,R25*%
X138357064Y-109470000D02*
X134002936Y-109470000D01*
X138357064Y-106050000D02*
X134002936Y-106050000D01*
%TO.C,C72*%
X27906248Y-51500000D02*
X29328752Y-51500000D01*
X27906248Y-53320000D02*
X29328752Y-53320000D01*
%TO.C,R14*%
X82140000Y-94582936D02*
X82140000Y-98937064D01*
X78720000Y-94582936D02*
X78720000Y-98937064D01*
%TO.C,U15*%
X26785000Y-19560000D02*
X26785000Y-18060000D01*
X26765000Y-19560000D02*
X26785000Y-19560000D01*
X36805000Y-19590000D02*
X36805000Y-26530000D01*
X36285000Y-19590000D02*
X36805000Y-19590000D01*
X36805000Y-26530000D02*
X36285000Y-26530000D01*
X27525000Y-26530000D02*
X26765000Y-26530000D01*
X26765000Y-26530000D02*
X26765000Y-19560000D01*
%TO.C,C46*%
X48590000Y-92548748D02*
X48590000Y-93971252D01*
X46770000Y-92548748D02*
X46770000Y-93971252D01*
%TO.C,C65*%
X33195000Y-82771252D02*
X33195000Y-82248748D01*
X34665000Y-82771252D02*
X34665000Y-82248748D01*
%TO.C,C45*%
X50665000Y-92498748D02*
X50665000Y-93021252D01*
X49195000Y-92498748D02*
X49195000Y-93021252D01*
%TO.C,R54*%
X48037064Y-104625000D02*
X47582936Y-104625000D01*
X48037064Y-103155000D02*
X47582936Y-103155000D01*
%TO.C,R4*%
X53557500Y-30614724D02*
X53557500Y-30105276D01*
X54602500Y-30614724D02*
X54602500Y-30105276D01*
%TO.C,C52*%
X40840000Y-78798748D02*
X40840000Y-80221252D01*
X39020000Y-78798748D02*
X39020000Y-80221252D01*
%TO.C,U13*%
X28155000Y-102905000D02*
X30105000Y-102905000D01*
X28155000Y-102905000D02*
X24705000Y-102905000D01*
X28155000Y-94035000D02*
X30105000Y-94035000D01*
X28155000Y-94035000D02*
X26205000Y-94035000D01*
%TO.C,D5*%
X52830000Y-37250000D02*
X52830000Y-44260000D01*
X49530000Y-37250000D02*
X52830000Y-37250000D01*
X49530000Y-37250000D02*
X49530000Y-44260000D01*
%TO.C,R22*%
X138357064Y-97470000D02*
X134002936Y-97470000D01*
X138357064Y-94050000D02*
X134002936Y-94050000D01*
%TO.C,C60*%
X28441252Y-82245000D02*
X27918748Y-82245000D01*
X28441252Y-80775000D02*
X27918748Y-80775000D01*
%TO.C,R49*%
X55625000Y-102282936D02*
X55625000Y-102737064D01*
X54155000Y-102282936D02*
X54155000Y-102737064D01*
%TO.C,C35*%
X41170000Y-55406267D02*
X41170000Y-55113733D01*
X42190000Y-55406267D02*
X42190000Y-55113733D01*
%TO.C,C43*%
X50665000Y-85498748D02*
X50665000Y-86021252D01*
X49195000Y-85498748D02*
X49195000Y-86021252D01*
%TO.C,C69*%
X37270000Y-17971252D02*
X37270000Y-16548748D01*
X39090000Y-17971252D02*
X39090000Y-16548748D01*
%TO.C,C39*%
X42891252Y-99170000D02*
X41468748Y-99170000D01*
X42891252Y-97350000D02*
X41468748Y-97350000D01*
%TO.C,C44*%
X48590000Y-85798748D02*
X48590000Y-87221252D01*
X46770000Y-85798748D02*
X46770000Y-87221252D01*
%TD*%
M02*
