%TF.GenerationSoftware,KiCad,Pcbnew,7.0.9*%
%TF.CreationDate,2024-05-29T20:40:16+05:30*%
%TF.ProjectId,LU,4c552e6b-6963-4616-945f-706362585858,rev?*%
%TF.SameCoordinates,Original*%
%TF.FileFunction,Paste,Top*%
%TF.FilePolarity,Positive*%
%FSLAX46Y46*%
G04 Gerber Fmt 4.6, Leading zero omitted, Abs format (unit mm)*
G04 Created by KiCad (PCBNEW 7.0.9) date 2024-05-29 20:40:16*
%MOMM*%
%LPD*%
G01*
G04 APERTURE LIST*
G04 Aperture macros list*
%AMRoundRect*
0 Rectangle with rounded corners*
0 $1 Rounding radius*
0 $2 $3 $4 $5 $6 $7 $8 $9 X,Y pos of 4 corners*
0 Add a 4 corners polygon primitive as box body*
4,1,4,$2,$3,$4,$5,$6,$7,$8,$9,$2,$3,0*
0 Add four circle primitives for the rounded corners*
1,1,$1+$1,$2,$3*
1,1,$1+$1,$4,$5*
1,1,$1+$1,$6,$7*
1,1,$1+$1,$8,$9*
0 Add four rect primitives between the rounded corners*
20,1,$1+$1,$2,$3,$4,$5,0*
20,1,$1+$1,$4,$5,$6,$7,0*
20,1,$1+$1,$6,$7,$8,$9,0*
20,1,$1+$1,$8,$9,$2,$3,0*%
G04 Aperture macros list end*
%ADD10R,1.473200X0.558800*%
%ADD11RoundRect,0.250000X-0.350000X-0.450000X0.350000X-0.450000X0.350000X0.450000X-0.350000X0.450000X0*%
%ADD12R,1.850000X0.650000*%
%ADD13RoundRect,0.250000X0.350000X0.450000X-0.350000X0.450000X-0.350000X-0.450000X0.350000X-0.450000X0*%
%ADD14R,1.780000X1.520000*%
%ADD15R,1.750000X1.520000*%
%ADD16RoundRect,0.135000X0.185000X-0.135000X0.185000X0.135000X-0.185000X0.135000X-0.185000X-0.135000X0*%
%ADD17RoundRect,0.250000X-0.450000X0.350000X-0.450000X-0.350000X0.450000X-0.350000X0.450000X0.350000X0*%
%ADD18RoundRect,0.250000X0.475000X-0.337500X0.475000X0.337500X-0.475000X0.337500X-0.475000X-0.337500X0*%
%ADD19RoundRect,0.250000X0.450000X-0.350000X0.450000X0.350000X-0.450000X0.350000X-0.450000X-0.350000X0*%
%ADD20RoundRect,0.250000X-0.475000X0.337500X-0.475000X-0.337500X0.475000X-0.337500X0.475000X0.337500X0*%
%ADD21RoundRect,0.250000X-0.337500X-0.475000X0.337500X-0.475000X0.337500X0.475000X-0.337500X0.475000X0*%
%ADD22RoundRect,0.075000X-0.700000X-0.075000X0.700000X-0.075000X0.700000X0.075000X-0.700000X0.075000X0*%
%ADD23RoundRect,0.075000X-0.075000X-0.700000X0.075000X-0.700000X0.075000X0.700000X-0.075000X0.700000X0*%
%ADD24RoundRect,0.250000X0.325000X0.450000X-0.325000X0.450000X-0.325000X-0.450000X0.325000X-0.450000X0*%
%ADD25RoundRect,0.250000X0.350000X-0.850000X0.350000X0.850000X-0.350000X0.850000X-0.350000X-0.850000X0*%
%ADD26RoundRect,0.250000X1.125000X-1.275000X1.125000X1.275000X-1.125000X1.275000X-1.125000X-1.275000X0*%
%ADD27RoundRect,0.135000X-0.185000X0.135000X-0.185000X-0.135000X0.185000X-0.135000X0.185000X0.135000X0*%
%ADD28RoundRect,0.250000X-0.412500X-0.650000X0.412500X-0.650000X0.412500X0.650000X-0.412500X0.650000X0*%
%ADD29RoundRect,0.250000X-0.650000X0.412500X-0.650000X-0.412500X0.650000X-0.412500X0.650000X0.412500X0*%
G04 APERTURE END LIST*
D10*
%TO.C,U12*%
X122126800Y-182655000D03*
X122126800Y-181385000D03*
X122126800Y-180115000D03*
X122126800Y-178845000D03*
X112373200Y-178845000D03*
X112373200Y-180115000D03*
X112373200Y-181385000D03*
X112373200Y-182655000D03*
%TD*%
%TO.C,U11*%
X126876800Y-175405000D03*
X126876800Y-174135000D03*
X126876800Y-172865000D03*
X126876800Y-171595000D03*
X117123200Y-171595000D03*
X117123200Y-172865000D03*
X117123200Y-174135000D03*
X117123200Y-175405000D03*
%TD*%
%TO.C,U10*%
X126867900Y-168552800D03*
X126867900Y-167282800D03*
X126867900Y-166012800D03*
X126867900Y-164742800D03*
X117114300Y-164742800D03*
X117114300Y-166012800D03*
X117114300Y-167282800D03*
X117114300Y-168552800D03*
%TD*%
%TO.C,U9*%
X126876800Y-161655000D03*
X126876800Y-160385000D03*
X126876800Y-159115000D03*
X126876800Y-157845000D03*
X117123200Y-157845000D03*
X117123200Y-159115000D03*
X117123200Y-160385000D03*
X117123200Y-161655000D03*
%TD*%
D11*
%TO.C,R75*%
X104400000Y-182000000D03*
X106400000Y-182000000D03*
%TD*%
D12*
%TO.C,IC5*%
X124675000Y-122000000D03*
X124675000Y-120730000D03*
X124675000Y-119460000D03*
X124675000Y-118190000D03*
X124675000Y-116920000D03*
X124675000Y-115650000D03*
X124675000Y-114380000D03*
X124675000Y-113110000D03*
X115325000Y-113110000D03*
X115325000Y-114380000D03*
X115325000Y-115650000D03*
X115325000Y-116920000D03*
X115325000Y-118190000D03*
X115325000Y-119460000D03*
X115325000Y-120730000D03*
X115325000Y-122000000D03*
%TD*%
%TO.C,IC1*%
X124675000Y-142000000D03*
X124675000Y-140730000D03*
X124675000Y-139460000D03*
X124675000Y-138190000D03*
X124675000Y-136920000D03*
X124675000Y-135650000D03*
X124675000Y-134380000D03*
X124675000Y-133110000D03*
X115325000Y-133110000D03*
X115325000Y-134380000D03*
X115325000Y-135650000D03*
X115325000Y-136920000D03*
X115325000Y-138190000D03*
X115325000Y-139460000D03*
X115325000Y-140730000D03*
X115325000Y-142000000D03*
%TD*%
D11*
%TO.C,R68*%
X167600000Y-179800000D03*
X169600000Y-179800000D03*
%TD*%
%TO.C,R71*%
X166000000Y-173200000D03*
X168000000Y-173200000D03*
%TD*%
D13*
%TO.C,R69*%
X168000000Y-175400000D03*
X166000000Y-175400000D03*
%TD*%
D11*
%TO.C,R67*%
X166000000Y-177600000D03*
X168000000Y-177600000D03*
%TD*%
D14*
%TO.C,U16*%
X102785000Y-108250000D03*
D15*
X105325000Y-108250000D03*
D14*
X107865000Y-108250000D03*
X110405000Y-108250000D03*
X110405000Y-98730000D03*
X107865000Y-98730000D03*
X105325000Y-98730000D03*
X102785000Y-98730000D03*
%TD*%
D16*
%TO.C,R60*%
X102250000Y-158010000D03*
X102250000Y-156990000D03*
%TD*%
D11*
%TO.C,R58*%
X106250000Y-174400000D03*
X108250000Y-174400000D03*
%TD*%
D17*
%TO.C,R56*%
X131000000Y-158500000D03*
X131000000Y-160500000D03*
%TD*%
D13*
%TO.C,R39*%
X134900000Y-192730000D03*
X132900000Y-192730000D03*
%TD*%
D18*
%TO.C,C64*%
X110250000Y-173787500D03*
X110250000Y-171712500D03*
%TD*%
D19*
%TO.C,R10*%
X110500000Y-123000000D03*
X110500000Y-121000000D03*
%TD*%
D20*
%TO.C,C48*%
X124500000Y-180212500D03*
X124500000Y-182287500D03*
%TD*%
D11*
%TO.C,R28*%
X214000000Y-192000000D03*
X212000000Y-192000000D03*
%TD*%
D17*
%TO.C,R61*%
X112750000Y-106000000D03*
X112750000Y-108000000D03*
%TD*%
%TO.C,R48*%
X136470000Y-167130000D03*
X136470000Y-169130000D03*
%TD*%
D21*
%TO.C,C36*%
X211437500Y-194000000D03*
X209362500Y-194000000D03*
%TD*%
D17*
%TO.C,R64*%
X113155000Y-96000000D03*
X113155000Y-98000000D03*
%TD*%
D22*
%TO.C,U14*%
X98825000Y-161750000D03*
X98825000Y-162250000D03*
X98825000Y-162750000D03*
X98825000Y-163250000D03*
X98825000Y-163750000D03*
X98825000Y-164250000D03*
X98825000Y-164750000D03*
X98825000Y-165250000D03*
X98825000Y-165750000D03*
X98825000Y-166250000D03*
X98825000Y-166750000D03*
X98825000Y-167250000D03*
X98825000Y-167750000D03*
X98825000Y-168250000D03*
X98825000Y-168750000D03*
X98825000Y-169250000D03*
D23*
X100750000Y-171175000D03*
X101250000Y-171175000D03*
X101750000Y-171175000D03*
X102250000Y-171175000D03*
X102750000Y-171175000D03*
X103250000Y-171175000D03*
X103750000Y-171175000D03*
X104250000Y-171175000D03*
X104750000Y-171175000D03*
X105250000Y-171175000D03*
X105750000Y-171175000D03*
X106250000Y-171175000D03*
X106750000Y-171175000D03*
X107250000Y-171175000D03*
X107750000Y-171175000D03*
X108250000Y-171175000D03*
D22*
X110175000Y-169250000D03*
X110175000Y-168750000D03*
X110175000Y-168250000D03*
X110175000Y-167750000D03*
X110175000Y-167250000D03*
X110175000Y-166750000D03*
X110175000Y-166250000D03*
X110175000Y-165750000D03*
X110175000Y-165250000D03*
X110175000Y-164750000D03*
X110175000Y-164250000D03*
X110175000Y-163750000D03*
X110175000Y-163250000D03*
X110175000Y-162750000D03*
X110175000Y-162250000D03*
X110175000Y-161750000D03*
D23*
X108250000Y-159825000D03*
X107750000Y-159825000D03*
X107250000Y-159825000D03*
X106750000Y-159825000D03*
X106250000Y-159825000D03*
X105750000Y-159825000D03*
X105250000Y-159825000D03*
X104750000Y-159825000D03*
X104250000Y-159825000D03*
X103750000Y-159825000D03*
X103250000Y-159825000D03*
X102750000Y-159825000D03*
X102250000Y-159825000D03*
X101750000Y-159825000D03*
X101250000Y-159825000D03*
X100750000Y-159825000D03*
%TD*%
D20*
%TO.C,C47*%
X129250000Y-171962500D03*
X129250000Y-174037500D03*
%TD*%
D13*
%TO.C,R31*%
X208000000Y-192000000D03*
X210000000Y-192000000D03*
%TD*%
D21*
%TO.C,C33*%
X212037500Y-196250000D03*
X209962500Y-196250000D03*
%TD*%
D13*
%TO.C,R32*%
X208000000Y-188000000D03*
X210000000Y-188000000D03*
%TD*%
D11*
%TO.C,R6*%
X127300000Y-118100000D03*
X129300000Y-118100000D03*
%TD*%
D20*
%TO.C,C57*%
X110000000Y-180212500D03*
X110000000Y-182287500D03*
%TD*%
D11*
%TO.C,R47*%
X134650000Y-164960000D03*
X136650000Y-164960000D03*
%TD*%
D24*
%TO.C,D9*%
X168025000Y-171200000D03*
X165975000Y-171200000D03*
%TD*%
D11*
%TO.C,R1*%
X127300000Y-135700000D03*
X129300000Y-135700000D03*
%TD*%
D25*
%TO.C,U5*%
X89900000Y-188740000D03*
D26*
X90655000Y-184115000D03*
X93705000Y-184115000D03*
X90655000Y-180765000D03*
X93705000Y-180765000D03*
D25*
X94460000Y-188740000D03*
%TD*%
D11*
%TO.C,R5*%
X127300000Y-138200000D03*
X129300000Y-138200000D03*
%TD*%
D13*
%TO.C,R44*%
X137090000Y-158710000D03*
X135090000Y-158710000D03*
%TD*%
D27*
%TO.C,R59*%
X103250000Y-156990000D03*
X103250000Y-158010000D03*
%TD*%
D11*
%TO.C,R45*%
X134740000Y-160720000D03*
X136740000Y-160720000D03*
%TD*%
D18*
%TO.C,C71*%
X99750000Y-97037500D03*
X99750000Y-94962500D03*
%TD*%
D28*
%TO.C,C24*%
X119537500Y-107800000D03*
X122662500Y-107800000D03*
%TD*%
D13*
%TO.C,R42*%
X131020000Y-191720000D03*
X129020000Y-191720000D03*
%TD*%
D11*
%TO.C,R29*%
X214000000Y-188000000D03*
X212000000Y-188000000D03*
%TD*%
D25*
%TO.C,U2*%
X89960000Y-154540000D03*
D26*
X90715000Y-149915000D03*
X93765000Y-149915000D03*
X90715000Y-146565000D03*
X93765000Y-146565000D03*
D25*
X94520000Y-154540000D03*
%TD*%
D20*
%TO.C,C55*%
X114750000Y-172962500D03*
X114750000Y-175037500D03*
%TD*%
D13*
%TO.C,R27*%
X213200000Y-194000000D03*
X215200000Y-194000000D03*
%TD*%
D20*
%TO.C,C53*%
X114750000Y-166212500D03*
X114750000Y-168287500D03*
%TD*%
D28*
%TO.C,C38*%
X113187500Y-186000000D03*
X116312500Y-186000000D03*
%TD*%
D19*
%TO.C,R62*%
X100400000Y-107250000D03*
X100400000Y-105250000D03*
%TD*%
D11*
%TO.C,R43*%
X129000000Y-193730000D03*
X131000000Y-193730000D03*
%TD*%
D25*
%TO.C,U3*%
X90195000Y-130625000D03*
D26*
X90950000Y-126000000D03*
X94000000Y-126000000D03*
X90950000Y-122650000D03*
X94000000Y-122650000D03*
D25*
X94755000Y-130625000D03*
%TD*%
D19*
%TO.C,R9*%
X109500000Y-118500000D03*
X109500000Y-116500000D03*
%TD*%
D20*
%TO.C,C17*%
X134350000Y-167092500D03*
X134350000Y-169167500D03*
%TD*%
D19*
%TO.C,R63*%
X98500000Y-107250000D03*
X98500000Y-105250000D03*
%TD*%
D29*
%TO.C,C15*%
X106500000Y-111937500D03*
X106500000Y-115062500D03*
%TD*%
D21*
%TO.C,C37*%
X212037500Y-190000000D03*
X209962500Y-190000000D03*
%TD*%
D25*
%TO.C,U1*%
X90195000Y-108475000D03*
D26*
X90950000Y-103850000D03*
X94000000Y-103850000D03*
X90950000Y-100500000D03*
X94000000Y-100500000D03*
D25*
X94755000Y-108475000D03*
%TD*%
D11*
%TO.C,R30*%
X207600000Y-194000000D03*
X205600000Y-194000000D03*
%TD*%
D28*
%TO.C,C9*%
X120037500Y-144400000D03*
X123162500Y-144400000D03*
%TD*%
D20*
%TO.C,C42*%
X129000000Y-158462500D03*
X129000000Y-160537500D03*
%TD*%
D11*
%TO.C,R3*%
X127300000Y-115700000D03*
X129300000Y-115700000D03*
%TD*%
D13*
%TO.C,R46*%
X136660000Y-162830000D03*
X134660000Y-162830000D03*
%TD*%
D20*
%TO.C,C51*%
X114750000Y-159212500D03*
X114750000Y-161287500D03*
%TD*%
D29*
%TO.C,C49*%
X126750000Y-178937500D03*
X126750000Y-182062500D03*
%TD*%
M02*
