%TF.GenerationSoftware,KiCad,Pcbnew,7.0.9*%
%TF.CreationDate,2024-05-29T20:40:22+05:30*%
%TF.ProjectId,LU,4c552e6b-6963-4616-945f-706362585858,rev?*%
%TF.SameCoordinates,Original*%
%TF.FileFunction,Drillmap*%
%TF.FilePolarity,Positive*%
%FSLAX45Y45*%
G04 Gerber Fmt 4.5, Leading zero omitted, Abs format (unit mm)*
G04 Created by KiCad (PCBNEW 7.0.9) date 2024-05-29 20:40:22*
%MOMM*%
%LPD*%
G01*
G04 APERTURE LIST*
%ADD10C,0.100000*%
%ADD11C,0.200000*%
%ADD12C,0.114752*%
%ADD13C,0.120000*%
%ADD14C,0.130000*%
%ADD15C,0.140000*%
%ADD16C,0.180000*%
%ADD17C,0.220000*%
%ADD18C,0.640000*%
G04 APERTURE END LIST*
D10*
X8730000Y-9280000D02*
X21660000Y-9280000D01*
X21660000Y-19830000D01*
X8730000Y-19830000D01*
X8730000Y-9280000D01*
D11*
D10*
X8830000Y-10880000D02*
X8870000Y-10920000D01*
X8870000Y-10880000D02*
X8830000Y-10920000D01*
X8830000Y-13030000D02*
X8870000Y-13070000D01*
X8870000Y-13030000D02*
X8830000Y-13070000D01*
X8830000Y-15480000D02*
X8870000Y-15520000D01*
X8870000Y-15480000D02*
X8830000Y-15520000D01*
X8867000Y-18928000D02*
X8907000Y-18968000D01*
X8907000Y-18928000D02*
X8867000Y-18968000D01*
X9075000Y-10030000D02*
X9115000Y-10070000D01*
X9115000Y-10030000D02*
X9075000Y-10070000D01*
X9075000Y-12245000D02*
X9115000Y-12285000D01*
X9115000Y-12245000D02*
X9075000Y-12285000D01*
X9198000Y-18224000D02*
X9238000Y-18264000D01*
X9238000Y-18224000D02*
X9198000Y-18264000D01*
X9204000Y-14804000D02*
X9244000Y-14844000D01*
X9244000Y-14804000D02*
X9204000Y-14844000D01*
X9363000Y-18783000D02*
X9403000Y-18823000D01*
X9403000Y-18783000D02*
X9363000Y-18823000D01*
X9380000Y-12245000D02*
X9420000Y-12285000D01*
X9420000Y-12245000D02*
X9380000Y-12285000D01*
X9530000Y-12980000D02*
X9570000Y-13020000D01*
X9570000Y-12980000D02*
X9530000Y-13020000D01*
X9630000Y-12480000D02*
X9670000Y-12520000D01*
X9670000Y-12480000D02*
X9630000Y-12520000D01*
X9847170Y-10624950D02*
X9887170Y-10664950D01*
X9887170Y-10624950D02*
X9847170Y-10664950D01*
X9860000Y-17860000D02*
X9900000Y-17900000D01*
X9900000Y-17860000D02*
X9860000Y-17900000D01*
X9914950Y-13980000D02*
X9954950Y-14020000D01*
X9954950Y-13980000D02*
X9914950Y-14020000D01*
X9914950Y-14680000D02*
X9954950Y-14720000D01*
X9954950Y-14680000D02*
X9914950Y-14720000D01*
X9920050Y-15555000D02*
X9960050Y-15595000D01*
X9960050Y-15555000D02*
X9920050Y-15595000D01*
X9930000Y-16080000D02*
X9970000Y-16120000D01*
X9970000Y-16080000D02*
X9930000Y-16120000D01*
X9930000Y-17030000D02*
X9970000Y-17070000D01*
X9970000Y-17030000D02*
X9930000Y-17070000D01*
X9942500Y-15967500D02*
X9982500Y-16007500D01*
X9982500Y-15967500D02*
X9942500Y-16007500D01*
X10005000Y-16855000D02*
X10045000Y-16895000D01*
X10045000Y-16855000D02*
X10005000Y-16895000D01*
X10005000Y-18380000D02*
X10045000Y-18420000D01*
X10045000Y-18380000D02*
X10005000Y-18420000D01*
X10054402Y-9809950D02*
X10094402Y-9849950D01*
X10094402Y-9809950D02*
X10054402Y-9849950D01*
X10080000Y-15580000D02*
X10120000Y-15620000D01*
X10120000Y-15580000D02*
X10080000Y-15620000D01*
X10097075Y-16099950D02*
X10137075Y-16139950D01*
X10137075Y-16099950D02*
X10097075Y-16139950D01*
X10100000Y-17300000D02*
X10140000Y-17340000D01*
X10140000Y-17300000D02*
X10100000Y-17340000D01*
X10105000Y-15830000D02*
X10145000Y-15870000D01*
X10145000Y-15830000D02*
X10105000Y-15870000D01*
X10111109Y-16432550D02*
X10151109Y-16472550D01*
X10151109Y-16432550D02*
X10111109Y-16472550D01*
X10120050Y-17980000D02*
X10160050Y-18020000D01*
X10160050Y-17980000D02*
X10120050Y-18020000D01*
X10130000Y-13380000D02*
X10170000Y-13420000D01*
X10170000Y-13380000D02*
X10130000Y-13420000D01*
X10130000Y-14680000D02*
X10170000Y-14720000D01*
X10170000Y-14680000D02*
X10130000Y-14720000D01*
X10155000Y-17730000D02*
X10195000Y-17770000D01*
X10195000Y-17730000D02*
X10155000Y-17770000D01*
X10230000Y-16880000D02*
X10270000Y-16920000D01*
X10270000Y-16880000D02*
X10230000Y-16920000D01*
X10255000Y-10669050D02*
X10295000Y-10709050D01*
X10295000Y-10669050D02*
X10255000Y-10709050D01*
X10280000Y-16780000D02*
X10320000Y-16820000D01*
X10320000Y-16780000D02*
X10280000Y-16820000D01*
X10320000Y-18320000D02*
X10360000Y-18360000D01*
X10360000Y-18320000D02*
X10320000Y-18360000D01*
X10330000Y-16880000D02*
X10370000Y-16920000D01*
X10370000Y-16880000D02*
X10330000Y-16920000D01*
X10340000Y-17520000D02*
X10380000Y-17560000D01*
X10380000Y-17520000D02*
X10340000Y-17560000D01*
X10360050Y-15686523D02*
X10400050Y-15726523D01*
X10400050Y-15686523D02*
X10360050Y-15726523D01*
X10380000Y-11380000D02*
X10420000Y-11420000D01*
X10420000Y-11380000D02*
X10380000Y-11420000D01*
X10380000Y-16780000D02*
X10420000Y-16820000D01*
X10420000Y-16780000D02*
X10380000Y-16820000D01*
X10555000Y-17230000D02*
X10595000Y-17270000D01*
X10595000Y-17230000D02*
X10555000Y-17270000D01*
X10600000Y-16700000D02*
X10640000Y-16740000D01*
X10640000Y-16700000D02*
X10600000Y-16740000D01*
X10602550Y-14280000D02*
X10642550Y-14320000D01*
X10642550Y-14280000D02*
X10602550Y-14320000D01*
X10605000Y-15730000D02*
X10645000Y-15770000D01*
X10645000Y-15730000D02*
X10605000Y-15770000D01*
X10605000Y-16973750D02*
X10645000Y-17013750D01*
X10645000Y-16973750D02*
X10605000Y-17013750D01*
X10615301Y-16350602D02*
X10655301Y-16390602D01*
X10655301Y-16350602D02*
X10615301Y-16390602D01*
X10630000Y-11330000D02*
X10670000Y-11370000D01*
X10670000Y-11330000D02*
X10630000Y-11370000D01*
X10660000Y-16440000D02*
X10700000Y-16480000D01*
X10700000Y-16440000D02*
X10660000Y-16480000D01*
X10660000Y-17978000D02*
X10700000Y-18018000D01*
X10700000Y-17978000D02*
X10660000Y-18018000D01*
X10670000Y-16280000D02*
X10710000Y-16320000D01*
X10710000Y-16280000D02*
X10670000Y-16320000D01*
X10677550Y-16180000D02*
X10717550Y-16220000D01*
X10717550Y-16180000D02*
X10677550Y-16220000D01*
X10680000Y-12430000D02*
X10720000Y-12470000D01*
X10720000Y-12430000D02*
X10680000Y-12470000D01*
X10680000Y-17705000D02*
X10720000Y-17745000D01*
X10720000Y-17705000D02*
X10680000Y-17745000D01*
X10702450Y-14530000D02*
X10742450Y-14570000D01*
X10742450Y-14530000D02*
X10702450Y-14570000D01*
X10730000Y-11630000D02*
X10770000Y-11670000D01*
X10770000Y-11630000D02*
X10730000Y-11670000D01*
X10735050Y-12280000D02*
X10775050Y-12320000D01*
X10775050Y-12280000D02*
X10735050Y-12320000D01*
X10755000Y-17230000D02*
X10795000Y-17270000D01*
X10795000Y-17230000D02*
X10755000Y-17270000D01*
X10760000Y-13590000D02*
X10800000Y-13630000D01*
X10800000Y-13590000D02*
X10760000Y-13630000D01*
X10797998Y-15813781D02*
X10837998Y-15853781D01*
X10837998Y-15813781D02*
X10797998Y-15853781D01*
X10800000Y-16720000D02*
X10840000Y-16760000D01*
X10840000Y-16720000D02*
X10800000Y-16760000D01*
X10802450Y-13880000D02*
X10842450Y-13920000D01*
X10842450Y-13880000D02*
X10802450Y-13920000D01*
X10820000Y-16620000D02*
X10860000Y-16660000D01*
X10860000Y-16620000D02*
X10820000Y-16660000D01*
X10830000Y-10655000D02*
X10870000Y-10695000D01*
X10870000Y-10655000D02*
X10830000Y-10695000D01*
X10840000Y-16820000D02*
X10880000Y-16860000D01*
X10880000Y-16820000D02*
X10840000Y-16860000D01*
X10840000Y-17792000D02*
X10880000Y-17832000D01*
X10880000Y-17792000D02*
X10840000Y-17832000D01*
X10862176Y-16529384D02*
X10902176Y-16569384D01*
X10902176Y-16529384D02*
X10862176Y-16569384D01*
X10880000Y-10980000D02*
X10920000Y-11020000D01*
X10920000Y-10980000D02*
X10880000Y-11020000D01*
X10880000Y-13418000D02*
X10920000Y-13458000D01*
X10920000Y-13418000D02*
X10880000Y-13458000D01*
X10894950Y-17280000D02*
X10934950Y-17320000D01*
X10934950Y-17280000D02*
X10894950Y-17320000D01*
X10910000Y-15760000D02*
X10950000Y-15800000D01*
X10950000Y-15760000D02*
X10910000Y-15800000D01*
X10930000Y-16105000D02*
X10970000Y-16145000D01*
X10970000Y-16105000D02*
X10930000Y-16145000D01*
X10980000Y-11280000D02*
X11020000Y-11320000D01*
X11020000Y-11280000D02*
X10980000Y-11320000D01*
X10980000Y-11480000D02*
X11020000Y-11520000D01*
X11020000Y-11480000D02*
X10980000Y-11520000D01*
X11020000Y-17520000D02*
X11060000Y-17560000D01*
X11060000Y-17520000D02*
X11020000Y-17560000D01*
X11030000Y-11930000D02*
X11070000Y-11970000D01*
X11070000Y-11930000D02*
X11030000Y-11970000D01*
X11034000Y-13926000D02*
X11074000Y-13966000D01*
X11074000Y-13926000D02*
X11034000Y-13966000D01*
X11055000Y-17864500D02*
X11095000Y-17904500D01*
X11095000Y-17864500D02*
X11055000Y-17904500D01*
X11055000Y-18208750D02*
X11095000Y-18248750D01*
X11095000Y-18208750D02*
X11055000Y-18248750D01*
X11080000Y-10555000D02*
X11120000Y-10595000D01*
X11120000Y-10555000D02*
X11080000Y-10595000D01*
X11130000Y-11780000D02*
X11170000Y-11820000D01*
X11170000Y-11780000D02*
X11130000Y-11820000D01*
X11130000Y-13705000D02*
X11170000Y-13745000D01*
X11170000Y-13705000D02*
X11130000Y-13745000D01*
X11130000Y-16205000D02*
X11170000Y-16245000D01*
X11170000Y-16205000D02*
X11130000Y-16245000D01*
X11131223Y-15588777D02*
X11171223Y-15628777D01*
X11171223Y-15588777D02*
X11131223Y-15628777D01*
X11155000Y-15230000D02*
X11195000Y-15270000D01*
X11195000Y-15230000D02*
X11155000Y-15270000D01*
X11180000Y-17605000D02*
X11220000Y-17645000D01*
X11220000Y-17605000D02*
X11180000Y-17645000D01*
X11230000Y-11130000D02*
X11270000Y-11170000D01*
X11270000Y-11130000D02*
X11230000Y-11170000D01*
X11230000Y-11680000D02*
X11270000Y-11720000D01*
X11270000Y-11680000D02*
X11230000Y-11720000D01*
X11230000Y-13630000D02*
X11270000Y-13670000D01*
X11270000Y-13630000D02*
X11230000Y-13670000D01*
X11247550Y-16740000D02*
X11287550Y-16780000D01*
X11287550Y-16740000D02*
X11247550Y-16780000D01*
X11280000Y-9405000D02*
X11320000Y-9445000D01*
X11320000Y-9405000D02*
X11280000Y-9445000D01*
X11280000Y-13830000D02*
X11320000Y-13870000D01*
X11320000Y-13830000D02*
X11280000Y-13870000D01*
X11303805Y-11853550D02*
X11343805Y-11893550D01*
X11343805Y-11853550D02*
X11303805Y-11893550D01*
X11305000Y-16080000D02*
X11345000Y-16120000D01*
X11345000Y-16080000D02*
X11305000Y-16120000D01*
X11330000Y-11530000D02*
X11370000Y-11570000D01*
X11370000Y-11530000D02*
X11330000Y-11570000D01*
X11330000Y-12430000D02*
X11370000Y-12470000D01*
X11370000Y-12430000D02*
X11330000Y-12470000D01*
X11330000Y-13530000D02*
X11370000Y-13570000D01*
X11370000Y-13530000D02*
X11330000Y-13570000D01*
X11330000Y-17655000D02*
X11370000Y-17695000D01*
X11370000Y-17655000D02*
X11330000Y-17695000D01*
X11380000Y-11280000D02*
X11420000Y-11320000D01*
X11420000Y-11280000D02*
X11380000Y-11320000D01*
X11380000Y-13280000D02*
X11420000Y-13320000D01*
X11420000Y-13280000D02*
X11380000Y-13320000D01*
X11430000Y-12280000D02*
X11470000Y-12320000D01*
X11470000Y-12280000D02*
X11430000Y-12320000D01*
X11444000Y-18571000D02*
X11484000Y-18611000D01*
X11484000Y-18571000D02*
X11444000Y-18611000D01*
X11480000Y-14280000D02*
X11520000Y-14320000D01*
X11520000Y-14280000D02*
X11480000Y-14320000D01*
X11500000Y-10090000D02*
X11540000Y-10130000D01*
X11540000Y-10090000D02*
X11500000Y-10130000D01*
X11555000Y-16454280D02*
X11595000Y-16494280D01*
X11595000Y-16454280D02*
X11555000Y-16494280D01*
X11555000Y-17139500D02*
X11595000Y-17179500D01*
X11595000Y-17139500D02*
X11555000Y-17179500D01*
X11580000Y-15380000D02*
X11620000Y-15420000D01*
X11620000Y-15380000D02*
X11580000Y-15420000D01*
X11580000Y-15764500D02*
X11620000Y-15804500D01*
X11620000Y-15764500D02*
X11580000Y-15804500D01*
X11580000Y-16108750D02*
X11620000Y-16148750D01*
X11620000Y-16108750D02*
X11580000Y-16148750D01*
X11580000Y-16808750D02*
X11620000Y-16848750D01*
X11620000Y-16808750D02*
X11580000Y-16848750D01*
X11580000Y-17380000D02*
X11620000Y-17420000D01*
X11620000Y-17380000D02*
X11580000Y-17420000D01*
X11580000Y-17483750D02*
X11620000Y-17523750D01*
X11620000Y-17483750D02*
X11580000Y-17523750D01*
X11816000Y-18575000D02*
X11856000Y-18615000D01*
X11856000Y-18575000D02*
X11816000Y-18615000D01*
X11890000Y-10920000D02*
X11930000Y-10960000D01*
X11930000Y-10920000D02*
X11890000Y-10960000D01*
X11900000Y-15960000D02*
X11940000Y-16000000D01*
X11940000Y-15960000D02*
X11900000Y-16000000D01*
X11900000Y-16640000D02*
X11940000Y-16680000D01*
X11940000Y-16640000D02*
X11900000Y-16680000D01*
X11900000Y-17340000D02*
X11940000Y-17380000D01*
X11940000Y-17340000D02*
X11900000Y-17380000D01*
X11910000Y-13910000D02*
X11950000Y-13950000D01*
X11950000Y-13910000D02*
X11910000Y-13950000D01*
X11950000Y-13640000D02*
X11990000Y-13680000D01*
X11990000Y-13640000D02*
X11950000Y-13680000D01*
X12000000Y-10300000D02*
X12040000Y-10340000D01*
X12040000Y-10300000D02*
X12000000Y-10340000D01*
X12005000Y-18230000D02*
X12045000Y-18270000D01*
X12045000Y-18230000D02*
X12005000Y-18270000D01*
X12130000Y-18080000D02*
X12170000Y-18120000D01*
X12170000Y-18080000D02*
X12130000Y-18120000D01*
X12160000Y-11970000D02*
X12200000Y-12010000D01*
X12200000Y-11970000D02*
X12160000Y-12010000D01*
X12160000Y-14070000D02*
X12200000Y-14110000D01*
X12200000Y-14070000D02*
X12160000Y-14110000D01*
X12180000Y-10900000D02*
X12220000Y-10940000D01*
X12220000Y-10900000D02*
X12180000Y-10940000D01*
X12240000Y-12050000D02*
X12280000Y-12090000D01*
X12280000Y-12050000D02*
X12240000Y-12090000D01*
X12247500Y-11280000D02*
X12287500Y-11320000D01*
X12287500Y-11280000D02*
X12247500Y-11320000D01*
X12247500Y-11880000D02*
X12287500Y-11920000D01*
X12287500Y-11880000D02*
X12247500Y-11920000D01*
X12247500Y-12180000D02*
X12287500Y-12220000D01*
X12287500Y-12180000D02*
X12247500Y-12220000D01*
X12260000Y-14050000D02*
X12300000Y-14090000D01*
X12300000Y-14050000D02*
X12260000Y-14090000D01*
X12280000Y-13280000D02*
X12320000Y-13320000D01*
X12320000Y-13280000D02*
X12280000Y-13320000D01*
X12280000Y-13930000D02*
X12320000Y-13970000D01*
X12320000Y-13930000D02*
X12280000Y-13970000D01*
X12280000Y-14180000D02*
X12320000Y-14220000D01*
X12320000Y-14180000D02*
X12280000Y-14220000D01*
X12300000Y-13680000D02*
X12340000Y-13720000D01*
X12340000Y-13680000D02*
X12300000Y-13720000D01*
X12310000Y-11670000D02*
X12350000Y-11710000D01*
X12350000Y-11670000D02*
X12310000Y-11710000D01*
X12455000Y-15730000D02*
X12495000Y-15770000D01*
X12495000Y-15730000D02*
X12455000Y-15770000D01*
X12455000Y-16130000D02*
X12495000Y-16170000D01*
X12495000Y-16130000D02*
X12455000Y-16170000D01*
X12455000Y-17730000D02*
X12495000Y-17770000D01*
X12495000Y-17730000D02*
X12455000Y-17770000D01*
X12505000Y-17080000D02*
X12545000Y-17120000D01*
X12545000Y-17080000D02*
X12505000Y-17120000D01*
X12530000Y-16405000D02*
X12570000Y-16445000D01*
X12570000Y-16405000D02*
X12530000Y-16445000D01*
X12530000Y-16830000D02*
X12570000Y-16870000D01*
X12570000Y-16830000D02*
X12530000Y-16870000D01*
X12530000Y-17505000D02*
X12570000Y-17545000D01*
X12570000Y-17505000D02*
X12530000Y-17545000D01*
X13275050Y-19144000D02*
X13315050Y-19184000D01*
X13315050Y-19144000D02*
X13275050Y-19184000D01*
X13427000Y-19133000D02*
X13467000Y-19173000D01*
X13467000Y-19133000D02*
X13427000Y-19173000D01*
X13553000Y-17016000D02*
X13593000Y-17056000D01*
X13593000Y-17016000D02*
X13553000Y-17056000D01*
X13600000Y-19340000D02*
X13640000Y-19380000D01*
X13640000Y-19340000D02*
X13600000Y-19380000D01*
X14230000Y-14040000D02*
X14270000Y-14080000D01*
X14270000Y-14040000D02*
X14230000Y-14080000D01*
X14240000Y-13940000D02*
X14280000Y-13980000D01*
X14280000Y-13940000D02*
X14240000Y-13980000D01*
X14240000Y-14830000D02*
X14280000Y-14870000D01*
X14280000Y-14830000D02*
X14240000Y-14870000D01*
X14280000Y-14740000D02*
X14320000Y-14780000D01*
X14320000Y-14740000D02*
X14280000Y-14780000D01*
X14320000Y-14040000D02*
X14360000Y-14080000D01*
X14360000Y-14040000D02*
X14320000Y-14080000D01*
X14330000Y-13940000D02*
X14370000Y-13980000D01*
X14370000Y-13940000D02*
X14330000Y-13980000D01*
X14330000Y-14830000D02*
X14370000Y-14870000D01*
X14370000Y-14830000D02*
X14330000Y-14870000D01*
X14370000Y-14740000D02*
X14410000Y-14780000D01*
X14410000Y-14740000D02*
X14370000Y-14780000D01*
X14410000Y-14040000D02*
X14450000Y-14080000D01*
X14450000Y-14040000D02*
X14410000Y-14080000D01*
X14420000Y-13940000D02*
X14460000Y-13980000D01*
X14460000Y-13940000D02*
X14420000Y-13980000D01*
X14420000Y-14830000D02*
X14460000Y-14870000D01*
X14460000Y-14830000D02*
X14420000Y-14870000D01*
X14460000Y-14740000D02*
X14500000Y-14780000D01*
X14500000Y-14740000D02*
X14460000Y-14780000D01*
X14500000Y-14040000D02*
X14540000Y-14080000D01*
X14540000Y-14040000D02*
X14500000Y-14080000D01*
X14510000Y-13940000D02*
X14550000Y-13980000D01*
X14550000Y-13940000D02*
X14510000Y-13980000D01*
X14510000Y-14830000D02*
X14550000Y-14870000D01*
X14550000Y-14830000D02*
X14510000Y-14870000D01*
X14550000Y-14740000D02*
X14590000Y-14780000D01*
X14590000Y-14740000D02*
X14550000Y-14780000D01*
X14590000Y-14040000D02*
X14630000Y-14080000D01*
X14630000Y-14040000D02*
X14590000Y-14080000D01*
X14600000Y-13940000D02*
X14640000Y-13980000D01*
X14640000Y-13940000D02*
X14600000Y-13980000D01*
X14600000Y-14830000D02*
X14640000Y-14870000D01*
X14640000Y-14830000D02*
X14600000Y-14870000D01*
X14640000Y-14740000D02*
X14680000Y-14780000D01*
X14680000Y-14740000D02*
X14640000Y-14780000D01*
X14680000Y-14040000D02*
X14720000Y-14080000D01*
X14720000Y-14040000D02*
X14680000Y-14080000D01*
X14690000Y-13940000D02*
X14730000Y-13980000D01*
X14730000Y-13940000D02*
X14690000Y-13980000D01*
X14690000Y-14830000D02*
X14730000Y-14870000D01*
X14730000Y-14830000D02*
X14690000Y-14870000D01*
X14730000Y-14740000D02*
X14770000Y-14780000D01*
X14770000Y-14740000D02*
X14730000Y-14780000D01*
X18680000Y-18880000D02*
X18720000Y-18920000D01*
X18720000Y-18880000D02*
X18680000Y-18920000D01*
X18680000Y-19000000D02*
X18720000Y-19040000D01*
X18720000Y-19000000D02*
X18680000Y-19040000D01*
X18680000Y-19120000D02*
X18720000Y-19160000D01*
X18720000Y-19120000D02*
X18680000Y-19160000D01*
X18680000Y-19240000D02*
X18720000Y-19280000D01*
X18720000Y-19240000D02*
X18680000Y-19280000D01*
X18680000Y-19360000D02*
X18720000Y-19400000D01*
X18720000Y-19360000D02*
X18680000Y-19400000D01*
X20340000Y-18880000D02*
X20380000Y-18920000D01*
X20380000Y-18880000D02*
X20340000Y-18920000D01*
X20340000Y-19000000D02*
X20380000Y-19040000D01*
X20380000Y-19000000D02*
X20340000Y-19040000D01*
X20340000Y-19120000D02*
X20380000Y-19160000D01*
X20380000Y-19120000D02*
X20340000Y-19160000D01*
X20340000Y-19240000D02*
X20380000Y-19280000D01*
X20380000Y-19240000D02*
X20340000Y-19280000D01*
X20340000Y-19360000D02*
X20380000Y-19400000D01*
X20380000Y-19360000D02*
X20340000Y-19400000D01*
X20680000Y-18780000D02*
X20720000Y-18820000D01*
X20720000Y-18780000D02*
X20680000Y-18820000D01*
X20800000Y-19640000D02*
X20840000Y-19680000D01*
X20840000Y-19640000D02*
X20800000Y-19680000D01*
X21100000Y-19620000D02*
X21140000Y-19660000D01*
X21140000Y-19620000D02*
X21100000Y-19660000D01*
X21480000Y-18780000D02*
X21520000Y-18820000D01*
X21520000Y-18780000D02*
X21480000Y-18820000D01*
X10592500Y-12546000D02*
G75*
G03*
X10592500Y-12546000I-32500J0D01*
G01*
X10592500Y-12673000D02*
G75*
G03*
X10592500Y-12673000I-32500J0D01*
G01*
X10592500Y-12800000D02*
G75*
G03*
X10592500Y-12800000I-32500J0D01*
G01*
X10592500Y-12927000D02*
G75*
G03*
X10592500Y-12927000I-32500J0D01*
G01*
X10260820Y-11900470D02*
X10260820Y-11999530D01*
X10211290Y-11950000D02*
X10310350Y-11950000D01*
X10260820Y-12154470D02*
X10260820Y-12253530D01*
X10211290Y-12204000D02*
X10310350Y-12204000D01*
X10260820Y-12408470D02*
X10260820Y-12507530D01*
X10211290Y-12458000D02*
X10310350Y-12458000D01*
X10260820Y-12662470D02*
X10260820Y-12761530D01*
X10211290Y-12712000D02*
X10310350Y-12712000D01*
X9083356Y-9635356D02*
X9083356Y-9564644D01*
X9012644Y-9564644D01*
X9012644Y-9635356D01*
X9083356Y-9635356D01*
X9085356Y-19425356D02*
X9085356Y-19354644D01*
X9014644Y-19354644D01*
X9014644Y-19425356D01*
X9085356Y-19425356D01*
X9335356Y-19425356D02*
X9335356Y-19354644D01*
X9264644Y-19354644D01*
X9264644Y-19425356D01*
X9335356Y-19425356D01*
X9337356Y-9635356D02*
X9337356Y-9564644D01*
X9266644Y-9564644D01*
X9266644Y-9635356D01*
X9337356Y-9635356D01*
X10074356Y-19062356D02*
X10074356Y-18991644D01*
X10003644Y-18991644D01*
X10003644Y-19062356D01*
X10074356Y-19062356D01*
X10235356Y-13654356D02*
X10235356Y-13583644D01*
X10164644Y-13583644D01*
X10164644Y-13654356D01*
X10235356Y-13654356D01*
X10235356Y-13931356D02*
X10235356Y-13860644D01*
X10164644Y-13860644D01*
X10164644Y-13931356D01*
X10235356Y-13931356D01*
X10235356Y-14208356D02*
X10235356Y-14137644D01*
X10164644Y-14137644D01*
X10164644Y-14208356D01*
X10235356Y-14208356D01*
X10235356Y-14485356D02*
X10235356Y-14414644D01*
X10164644Y-14414644D01*
X10164644Y-14485356D01*
X10235356Y-14485356D01*
X10307856Y-9595356D02*
X10307856Y-9524644D01*
X10237144Y-9524644D01*
X10237144Y-9595356D01*
X10307856Y-9595356D01*
X10328356Y-19062356D02*
X10328356Y-18991644D01*
X10257644Y-18991644D01*
X10257644Y-19062356D01*
X10328356Y-19062356D01*
X10519356Y-13515856D02*
X10519356Y-13445144D01*
X10448644Y-13445144D01*
X10448644Y-13515856D01*
X10519356Y-13515856D01*
X10519356Y-13792856D02*
X10519356Y-13722144D01*
X10448644Y-13722144D01*
X10448644Y-13792856D01*
X10519356Y-13792856D01*
X10519356Y-14069856D02*
X10519356Y-13999144D01*
X10448644Y-13999144D01*
X10448644Y-14069856D01*
X10519356Y-14069856D01*
X10519356Y-14346856D02*
X10519356Y-14276144D01*
X10448644Y-14276144D01*
X10448644Y-14346856D01*
X10519356Y-14346856D01*
X10519356Y-14623856D02*
X10519356Y-14553144D01*
X10448644Y-14553144D01*
X10448644Y-14623856D01*
X10519356Y-14623856D01*
X10561856Y-9595356D02*
X10561856Y-9524644D01*
X10491144Y-9524644D01*
X10491144Y-9595356D01*
X10561856Y-9595356D01*
X10582356Y-19062356D02*
X10582356Y-18991644D01*
X10511644Y-18991644D01*
X10511644Y-19062356D01*
X10582356Y-19062356D01*
X10815856Y-9595356D02*
X10815856Y-9524644D01*
X10745144Y-9524644D01*
X10745144Y-9595356D01*
X10815856Y-9595356D01*
X11069856Y-9595356D02*
X11069856Y-9524644D01*
X10999144Y-9524644D01*
X10999144Y-9595356D01*
X11069856Y-9595356D01*
X11090356Y-19062356D02*
X11090356Y-18991644D01*
X11019644Y-18991644D01*
X11019644Y-19062356D01*
X11090356Y-19062356D01*
X11344356Y-19062356D02*
X11344356Y-18991644D01*
X11273644Y-18991644D01*
X11273644Y-19062356D01*
X11344356Y-19062356D01*
X11421356Y-14905356D02*
X11421356Y-14834644D01*
X11350644Y-14834644D01*
X11350644Y-14905356D01*
X11421356Y-14905356D01*
X11598356Y-19062356D02*
X11598356Y-18991644D01*
X11527644Y-18991644D01*
X11527644Y-19062356D01*
X11598356Y-19062356D01*
X11675356Y-14905356D02*
X11675356Y-14834644D01*
X11604644Y-14834644D01*
X11604644Y-14905356D01*
X11675356Y-14905356D01*
X11727356Y-9995356D02*
X11727356Y-9924644D01*
X11656644Y-9924644D01*
X11656644Y-9995356D01*
X11727356Y-9995356D01*
X11852356Y-19062356D02*
X11852356Y-18991644D01*
X11781644Y-18991644D01*
X11781644Y-19062356D01*
X11852356Y-19062356D01*
X11929356Y-14905356D02*
X11929356Y-14834644D01*
X11858644Y-14834644D01*
X11858644Y-14905356D01*
X11929356Y-14905356D01*
X11981356Y-9995356D02*
X11981356Y-9924644D01*
X11910644Y-9924644D01*
X11910644Y-9995356D01*
X11981356Y-9995356D01*
X12235356Y-9995356D02*
X12235356Y-9924644D01*
X12164644Y-9924644D01*
X12164644Y-9995356D01*
X12235356Y-9995356D01*
X12437356Y-14905356D02*
X12437356Y-14834644D01*
X12366644Y-14834644D01*
X12366644Y-14905356D01*
X12437356Y-14905356D01*
X12691356Y-14905356D02*
X12691356Y-14834644D01*
X12620644Y-14834644D01*
X12620644Y-14905356D01*
X12691356Y-14905356D01*
X12743356Y-9995356D02*
X12743356Y-9924644D01*
X12672644Y-9924644D01*
X12672644Y-9995356D01*
X12743356Y-9995356D01*
X12945356Y-14905356D02*
X12945356Y-14834644D01*
X12874644Y-14834644D01*
X12874644Y-14905356D01*
X12945356Y-14905356D01*
X12997356Y-9995356D02*
X12997356Y-9924644D01*
X12926644Y-9924644D01*
X12926644Y-9995356D01*
X12997356Y-9995356D01*
X13199356Y-14905356D02*
X13199356Y-14834644D01*
X13128644Y-14834644D01*
X13128644Y-14905356D01*
X13199356Y-14905356D01*
X13251356Y-9995356D02*
X13251356Y-9924644D01*
X13180644Y-9924644D01*
X13180644Y-9995356D01*
X13251356Y-9995356D01*
X13505356Y-9995356D02*
X13505356Y-9924644D01*
X13434644Y-9924644D01*
X13434644Y-9995356D01*
X13505356Y-9995356D01*
D12*
X14000000Y-11257376D02*
X14057376Y-11200000D01*
X14000000Y-11142624D01*
X13942624Y-11200000D01*
X14000000Y-11257376D01*
X14000000Y-11577376D02*
X14057376Y-11520000D01*
X14000000Y-11462624D01*
X13942624Y-11520000D01*
X14000000Y-11577376D01*
X14000000Y-11897376D02*
X14057376Y-11840000D01*
X14000000Y-11782624D01*
X13942624Y-11840000D01*
X14000000Y-11897376D01*
X14000000Y-12217376D02*
X14057376Y-12160000D01*
X14000000Y-12102624D01*
X13942624Y-12160000D01*
X14000000Y-12217376D01*
X14000000Y-12537376D02*
X14057376Y-12480000D01*
X14000000Y-12422624D01*
X13942624Y-12480000D01*
X14000000Y-12537376D01*
X14000000Y-13177376D02*
X14057376Y-13120000D01*
X14000000Y-13062624D01*
X13942624Y-13120000D01*
X14000000Y-13177376D01*
X14000000Y-13497376D02*
X14057376Y-13440000D01*
X14000000Y-13382624D01*
X13942624Y-13440000D01*
X14000000Y-13497376D01*
X14000000Y-13817376D02*
X14057376Y-13760000D01*
X14000000Y-13702624D01*
X13942624Y-13760000D01*
X14000000Y-13817376D01*
X14000000Y-14137376D02*
X14057376Y-14080000D01*
X14000000Y-14022624D01*
X13942624Y-14080000D01*
X14000000Y-14137376D01*
X14000000Y-14457376D02*
X14057376Y-14400000D01*
X14000000Y-14342624D01*
X13942624Y-14400000D01*
X14000000Y-14457376D01*
X14960000Y-14457376D02*
X15017376Y-14400000D01*
X14960000Y-14342624D01*
X14902624Y-14400000D01*
X14960000Y-14457376D01*
X15280000Y-13177376D02*
X15337376Y-13120000D01*
X15280000Y-13062624D01*
X15222624Y-13120000D01*
X15280000Y-13177376D01*
X15280000Y-13497376D02*
X15337376Y-13440000D01*
X15280000Y-13382624D01*
X15222624Y-13440000D01*
X15280000Y-13497376D01*
X15280000Y-13817376D02*
X15337376Y-13760000D01*
X15280000Y-13702624D01*
X15222624Y-13760000D01*
X15280000Y-13817376D01*
X15600000Y-14457376D02*
X15657376Y-14400000D01*
X15600000Y-14342624D01*
X15542624Y-14400000D01*
X15600000Y-14457376D01*
X16560000Y-11257376D02*
X16617376Y-11200000D01*
X16560000Y-11142624D01*
X16502624Y-11200000D01*
X16560000Y-11257376D01*
X16560000Y-11577376D02*
X16617376Y-11520000D01*
X16560000Y-11462624D01*
X16502624Y-11520000D01*
X16560000Y-11577376D01*
X16560000Y-11897376D02*
X16617376Y-11840000D01*
X16560000Y-11782624D01*
X16502624Y-11840000D01*
X16560000Y-11897376D01*
X16560000Y-12217376D02*
X16617376Y-12160000D01*
X16560000Y-12102624D01*
X16502624Y-12160000D01*
X16560000Y-12217376D01*
X16560000Y-12537376D02*
X16617376Y-12480000D01*
X16560000Y-12422624D01*
X16502624Y-12480000D01*
X16560000Y-12537376D01*
X16560000Y-13177376D02*
X16617376Y-13120000D01*
X16560000Y-13062624D01*
X16502624Y-13120000D01*
X16560000Y-13177376D01*
X16560000Y-13497376D02*
X16617376Y-13440000D01*
X16560000Y-13382624D01*
X16502624Y-13440000D01*
X16560000Y-13497376D01*
X16560000Y-13817376D02*
X16617376Y-13760000D01*
X16560000Y-13702624D01*
X16502624Y-13760000D01*
X16560000Y-13817376D01*
X16560000Y-14137376D02*
X16617376Y-14080000D01*
X16560000Y-14022624D01*
X16502624Y-14080000D01*
X16560000Y-14137376D01*
X16560000Y-14457376D02*
X16617376Y-14400000D01*
X16560000Y-14342624D01*
X16502624Y-14400000D01*
X16560000Y-14457376D01*
D13*
X14015000Y-16140000D02*
X14135000Y-16260000D01*
X14135000Y-16140000D02*
X14015000Y-16260000D01*
X14135000Y-16200000D02*
G75*
G03*
X14135000Y-16200000I-60000J0D01*
G01*
X14015000Y-17040000D02*
X14135000Y-17160000D01*
X14135000Y-17040000D02*
X14015000Y-17160000D01*
X14135000Y-17100000D02*
G75*
G03*
X14135000Y-17100000I-60000J0D01*
G01*
X16265000Y-16140000D02*
X16385000Y-16260000D01*
X16385000Y-16140000D02*
X16265000Y-16260000D01*
X16385000Y-16200000D02*
G75*
G03*
X16385000Y-16200000I-60000J0D01*
G01*
X16265000Y-17040000D02*
X16385000Y-17160000D01*
X16385000Y-17040000D02*
X16265000Y-17160000D01*
X16385000Y-17100000D02*
G75*
G03*
X16385000Y-17100000I-60000J0D01*
G01*
X17315000Y-9780000D02*
X17435000Y-9900000D01*
X17435000Y-9780000D02*
X17315000Y-9900000D01*
X17435000Y-9840000D02*
G75*
G03*
X17435000Y-9840000I-60000J0D01*
G01*
X17315000Y-12030000D02*
X17435000Y-12150000D01*
X17435000Y-12030000D02*
X17315000Y-12150000D01*
X17435000Y-12090000D02*
G75*
G03*
X17435000Y-12090000I-60000J0D01*
G01*
X17315000Y-15080000D02*
X17435000Y-15200000D01*
X17435000Y-15080000D02*
X17315000Y-15200000D01*
X17435000Y-15140000D02*
G75*
G03*
X17435000Y-15140000I-60000J0D01*
G01*
X17315000Y-17330000D02*
X17435000Y-17450000D01*
X17435000Y-17330000D02*
X17315000Y-17450000D01*
X17435000Y-17390000D02*
G75*
G03*
X17435000Y-17390000I-60000J0D01*
G01*
X21140000Y-9690000D02*
X21260000Y-9810000D01*
X21260000Y-9690000D02*
X21140000Y-9810000D01*
X21260000Y-9750000D02*
G75*
G03*
X21260000Y-9750000I-60000J0D01*
G01*
X21140000Y-11190000D02*
X21260000Y-11310000D01*
X21260000Y-11190000D02*
X21140000Y-11310000D01*
X21260000Y-11250000D02*
G75*
G03*
X21260000Y-11250000I-60000J0D01*
G01*
X21140000Y-11790000D02*
X21260000Y-11910000D01*
X21260000Y-11790000D02*
X21140000Y-11910000D01*
X21260000Y-11850000D02*
G75*
G03*
X21260000Y-11850000I-60000J0D01*
G01*
X21140000Y-13290000D02*
X21260000Y-13410000D01*
X21260000Y-13290000D02*
X21140000Y-13410000D01*
X21260000Y-13350000D02*
G75*
G03*
X21260000Y-13350000I-60000J0D01*
G01*
D14*
X17235000Y-12938000D02*
X17365000Y-13068000D01*
X17365000Y-12938000D02*
X17235000Y-13068000D01*
X17300000Y-12938000D02*
X17300000Y-13068000D01*
X17235000Y-13003000D02*
X17365000Y-13003000D01*
X17235000Y-14462000D02*
X17365000Y-14592000D01*
X17365000Y-14462000D02*
X17235000Y-14592000D01*
X17300000Y-14462000D02*
X17300000Y-14592000D01*
X17235000Y-14527000D02*
X17365000Y-14527000D01*
X18135000Y-12538000D02*
X18265000Y-12668000D01*
X18265000Y-12538000D02*
X18135000Y-12668000D01*
X18200000Y-12538000D02*
X18200000Y-12668000D01*
X18135000Y-12603000D02*
X18265000Y-12603000D01*
X18135000Y-14062000D02*
X18265000Y-14192000D01*
X18265000Y-14062000D02*
X18135000Y-14192000D01*
X18200000Y-14062000D02*
X18200000Y-14192000D01*
X18135000Y-14127000D02*
X18265000Y-14127000D01*
D15*
X18105000Y-15250000D02*
X18245000Y-15390000D01*
X18245000Y-15250000D02*
X18105000Y-15390000D01*
X18224498Y-15369498D02*
X18224498Y-15270502D01*
X18125502Y-15270502D01*
X18125502Y-15369498D01*
X18224498Y-15369498D01*
X18105000Y-17250000D02*
X18245000Y-17390000D01*
X18245000Y-17250000D02*
X18105000Y-17390000D01*
X18224498Y-17369498D02*
X18224498Y-17270502D01*
X18125502Y-17270502D01*
X18125502Y-17369498D01*
X18224498Y-17369498D01*
X18130000Y-9895000D02*
X18270000Y-10035000D01*
X18270000Y-9895000D02*
X18130000Y-10035000D01*
X18249498Y-10014498D02*
X18249498Y-9915502D01*
X18150502Y-9915502D01*
X18150502Y-10014498D01*
X18249498Y-10014498D01*
X18130000Y-11895000D02*
X18270000Y-12035000D01*
X18270000Y-11895000D02*
X18130000Y-12035000D01*
X18249498Y-12014498D02*
X18249498Y-11915502D01*
X18150502Y-11915502D01*
X18150502Y-12014498D01*
X18249498Y-12014498D01*
D16*
X19505000Y-14885000D02*
X19685000Y-15065000D01*
X19685000Y-14885000D02*
X19505000Y-15065000D01*
X19595000Y-15065000D02*
X19685000Y-14975000D01*
X19595000Y-14885000D01*
X19505000Y-14975000D01*
X19595000Y-15065000D01*
X19505000Y-15647000D02*
X19685000Y-15827000D01*
X19685000Y-15647000D02*
X19505000Y-15827000D01*
X19595000Y-15827000D02*
X19685000Y-15737000D01*
X19595000Y-15647000D01*
X19505000Y-15737000D01*
X19595000Y-15827000D01*
X19505000Y-16184000D02*
X19685000Y-16364000D01*
X19685000Y-16184000D02*
X19505000Y-16364000D01*
X19595000Y-16364000D02*
X19685000Y-16274000D01*
X19595000Y-16184000D01*
X19505000Y-16274000D01*
X19595000Y-16364000D01*
X19505000Y-16946000D02*
X19685000Y-17126000D01*
X19685000Y-16946000D02*
X19505000Y-17126000D01*
X19595000Y-17126000D02*
X19685000Y-17036000D01*
X19595000Y-16946000D01*
X19505000Y-17036000D01*
X19595000Y-17126000D01*
X19505000Y-17483000D02*
X19685000Y-17663000D01*
X19685000Y-17483000D02*
X19505000Y-17663000D01*
X19595000Y-17663000D02*
X19685000Y-17573000D01*
X19595000Y-17483000D01*
X19505000Y-17573000D01*
X19595000Y-17663000D01*
X19505000Y-18245000D02*
X19685000Y-18425000D01*
X19685000Y-18245000D02*
X19505000Y-18425000D01*
X19595000Y-18425000D02*
X19685000Y-18335000D01*
X19595000Y-18245000D01*
X19505000Y-18335000D01*
X19595000Y-18425000D01*
X19510000Y-9689000D02*
X19690000Y-9869000D01*
X19690000Y-9689000D02*
X19510000Y-9869000D01*
X19600000Y-9869000D02*
X19690000Y-9779000D01*
X19600000Y-9689000D01*
X19510000Y-9779000D01*
X19600000Y-9869000D01*
X19510000Y-10451000D02*
X19690000Y-10631000D01*
X19690000Y-10451000D02*
X19510000Y-10631000D01*
X19600000Y-10631000D02*
X19690000Y-10541000D01*
X19600000Y-10451000D01*
X19510000Y-10541000D01*
X19600000Y-10631000D01*
X19510000Y-10988000D02*
X19690000Y-11168000D01*
X19690000Y-10988000D02*
X19510000Y-11168000D01*
X19600000Y-11168000D02*
X19690000Y-11078000D01*
X19600000Y-10988000D01*
X19510000Y-11078000D01*
X19600000Y-11168000D01*
X19510000Y-11750000D02*
X19690000Y-11930000D01*
X19690000Y-11750000D02*
X19510000Y-11930000D01*
X19600000Y-11930000D02*
X19690000Y-11840000D01*
X19600000Y-11750000D01*
X19510000Y-11840000D01*
X19600000Y-11930000D01*
X19510000Y-12287000D02*
X19690000Y-12467000D01*
X19690000Y-12287000D02*
X19510000Y-12467000D01*
X19600000Y-12467000D02*
X19690000Y-12377000D01*
X19600000Y-12287000D01*
X19510000Y-12377000D01*
X19600000Y-12467000D01*
X19510000Y-13049000D02*
X19690000Y-13229000D01*
X19690000Y-13049000D02*
X19510000Y-13229000D01*
X19600000Y-13229000D02*
X19690000Y-13139000D01*
X19600000Y-13049000D01*
X19510000Y-13139000D01*
X19600000Y-13229000D01*
X19510000Y-13586000D02*
X19690000Y-13766000D01*
X19690000Y-13586000D02*
X19510000Y-13766000D01*
X19600000Y-13766000D02*
X19690000Y-13676000D01*
X19600000Y-13586000D01*
X19510000Y-13676000D01*
X19600000Y-13766000D01*
X19510000Y-14348000D02*
X19690000Y-14528000D01*
X19690000Y-14348000D02*
X19510000Y-14528000D01*
X19600000Y-14528000D02*
X19690000Y-14438000D01*
X19600000Y-14348000D01*
X19510000Y-14438000D01*
X19600000Y-14528000D01*
D17*
X21300000Y-14090000D02*
X21300000Y-14310000D01*
X21190000Y-14200000D02*
X21410000Y-14200000D01*
X21410000Y-14200000D02*
G75*
G03*
X21410000Y-14200000I-110000J0D01*
G01*
X21300000Y-15040000D02*
X21300000Y-15260000D01*
X21190000Y-15150000D02*
X21410000Y-15150000D01*
X21410000Y-15150000D02*
G75*
G03*
X21410000Y-15150000I-110000J0D01*
G01*
D18*
X14726276Y-19076276D02*
X14726276Y-18623724D01*
X14273724Y-18623724D01*
X14273724Y-19076276D01*
X14726276Y-19076276D01*
X14820000Y-18850000D02*
G75*
G03*
X14820000Y-18850000I-320000J0D01*
G01*
X16226276Y-19076276D02*
X16226276Y-18623724D01*
X15773724Y-18623724D01*
X15773724Y-19076276D01*
X16226276Y-19076276D01*
X16320000Y-18850000D02*
G75*
G03*
X16320000Y-18850000I-320000J0D01*
G01*
D11*
X8985777Y-20146484D02*
X8985777Y-19946484D01*
X8985777Y-19946484D02*
X9033396Y-19946484D01*
X9033396Y-19946484D02*
X9061967Y-19956008D01*
X9061967Y-19956008D02*
X9081015Y-19975055D01*
X9081015Y-19975055D02*
X9090539Y-19994103D01*
X9090539Y-19994103D02*
X9100063Y-20032198D01*
X9100063Y-20032198D02*
X9100063Y-20060770D01*
X9100063Y-20060770D02*
X9090539Y-20098865D01*
X9090539Y-20098865D02*
X9081015Y-20117912D01*
X9081015Y-20117912D02*
X9061967Y-20136960D01*
X9061967Y-20136960D02*
X9033396Y-20146484D01*
X9033396Y-20146484D02*
X8985777Y-20146484D01*
X9185777Y-20146484D02*
X9185777Y-20013150D01*
X9185777Y-20051246D02*
X9195301Y-20032198D01*
X9195301Y-20032198D02*
X9204824Y-20022674D01*
X9204824Y-20022674D02*
X9223872Y-20013150D01*
X9223872Y-20013150D02*
X9242920Y-20013150D01*
X9309586Y-20146484D02*
X9309586Y-20013150D01*
X9309586Y-19946484D02*
X9300063Y-19956008D01*
X9300063Y-19956008D02*
X9309586Y-19965531D01*
X9309586Y-19965531D02*
X9319110Y-19956008D01*
X9319110Y-19956008D02*
X9309586Y-19946484D01*
X9309586Y-19946484D02*
X9309586Y-19965531D01*
X9433396Y-20146484D02*
X9414348Y-20136960D01*
X9414348Y-20136960D02*
X9404824Y-20117912D01*
X9404824Y-20117912D02*
X9404824Y-19946484D01*
X9538158Y-20146484D02*
X9519110Y-20136960D01*
X9519110Y-20136960D02*
X9509586Y-20117912D01*
X9509586Y-20117912D02*
X9509586Y-19946484D01*
X9766729Y-20146484D02*
X9766729Y-19946484D01*
X9766729Y-19946484D02*
X9833396Y-20089341D01*
X9833396Y-20089341D02*
X9900063Y-19946484D01*
X9900063Y-19946484D02*
X9900063Y-20146484D01*
X10081015Y-20146484D02*
X10081015Y-20041722D01*
X10081015Y-20041722D02*
X10071491Y-20022674D01*
X10071491Y-20022674D02*
X10052444Y-20013150D01*
X10052444Y-20013150D02*
X10014348Y-20013150D01*
X10014348Y-20013150D02*
X9995301Y-20022674D01*
X10081015Y-20136960D02*
X10061967Y-20146484D01*
X10061967Y-20146484D02*
X10014348Y-20146484D01*
X10014348Y-20146484D02*
X9995301Y-20136960D01*
X9995301Y-20136960D02*
X9985777Y-20117912D01*
X9985777Y-20117912D02*
X9985777Y-20098865D01*
X9985777Y-20098865D02*
X9995301Y-20079817D01*
X9995301Y-20079817D02*
X10014348Y-20070293D01*
X10014348Y-20070293D02*
X10061967Y-20070293D01*
X10061967Y-20070293D02*
X10081015Y-20060770D01*
X10176253Y-20013150D02*
X10176253Y-20213150D01*
X10176253Y-20022674D02*
X10195301Y-20013150D01*
X10195301Y-20013150D02*
X10233396Y-20013150D01*
X10233396Y-20013150D02*
X10252444Y-20022674D01*
X10252444Y-20022674D02*
X10261967Y-20032198D01*
X10261967Y-20032198D02*
X10271491Y-20051246D01*
X10271491Y-20051246D02*
X10271491Y-20108389D01*
X10271491Y-20108389D02*
X10261967Y-20127436D01*
X10261967Y-20127436D02*
X10252444Y-20136960D01*
X10252444Y-20136960D02*
X10233396Y-20146484D01*
X10233396Y-20146484D02*
X10195301Y-20146484D01*
X10195301Y-20146484D02*
X10176253Y-20136960D01*
X10357205Y-20127436D02*
X10366729Y-20136960D01*
X10366729Y-20136960D02*
X10357205Y-20146484D01*
X10357205Y-20146484D02*
X10347682Y-20136960D01*
X10347682Y-20136960D02*
X10357205Y-20127436D01*
X10357205Y-20127436D02*
X10357205Y-20146484D01*
X10357205Y-20022674D02*
X10366729Y-20032198D01*
X10366729Y-20032198D02*
X10357205Y-20041722D01*
X10357205Y-20041722D02*
X10347682Y-20032198D01*
X10347682Y-20032198D02*
X10357205Y-20022674D01*
X10357205Y-20022674D02*
X10357205Y-20041722D01*
D10*
X8685000Y-20455000D02*
X8725000Y-20495000D01*
X8725000Y-20455000D02*
X8685000Y-20495000D01*
D11*
X9023872Y-20366484D02*
X9042920Y-20366484D01*
X9042920Y-20366484D02*
X9061967Y-20376008D01*
X9061967Y-20376008D02*
X9071491Y-20385531D01*
X9071491Y-20385531D02*
X9081015Y-20404579D01*
X9081015Y-20404579D02*
X9090539Y-20442674D01*
X9090539Y-20442674D02*
X9090539Y-20490293D01*
X9090539Y-20490293D02*
X9081015Y-20528389D01*
X9081015Y-20528389D02*
X9071491Y-20547436D01*
X9071491Y-20547436D02*
X9061967Y-20556960D01*
X9061967Y-20556960D02*
X9042920Y-20566484D01*
X9042920Y-20566484D02*
X9023872Y-20566484D01*
X9023872Y-20566484D02*
X9004824Y-20556960D01*
X9004824Y-20556960D02*
X8995301Y-20547436D01*
X8995301Y-20547436D02*
X8985777Y-20528389D01*
X8985777Y-20528389D02*
X8976253Y-20490293D01*
X8976253Y-20490293D02*
X8976253Y-20442674D01*
X8976253Y-20442674D02*
X8985777Y-20404579D01*
X8985777Y-20404579D02*
X8995301Y-20385531D01*
X8995301Y-20385531D02*
X9004824Y-20376008D01*
X9004824Y-20376008D02*
X9023872Y-20366484D01*
X9176253Y-20547436D02*
X9185777Y-20556960D01*
X9185777Y-20556960D02*
X9176253Y-20566484D01*
X9176253Y-20566484D02*
X9166729Y-20556960D01*
X9166729Y-20556960D02*
X9176253Y-20547436D01*
X9176253Y-20547436D02*
X9176253Y-20566484D01*
X9357205Y-20433150D02*
X9357205Y-20566484D01*
X9309586Y-20356960D02*
X9261967Y-20499817D01*
X9261967Y-20499817D02*
X9385777Y-20499817D01*
X9500063Y-20366484D02*
X9519110Y-20366484D01*
X9519110Y-20366484D02*
X9538158Y-20376008D01*
X9538158Y-20376008D02*
X9547682Y-20385531D01*
X9547682Y-20385531D02*
X9557205Y-20404579D01*
X9557205Y-20404579D02*
X9566729Y-20442674D01*
X9566729Y-20442674D02*
X9566729Y-20490293D01*
X9566729Y-20490293D02*
X9557205Y-20528389D01*
X9557205Y-20528389D02*
X9547682Y-20547436D01*
X9547682Y-20547436D02*
X9538158Y-20556960D01*
X9538158Y-20556960D02*
X9519110Y-20566484D01*
X9519110Y-20566484D02*
X9500063Y-20566484D01*
X9500063Y-20566484D02*
X9481015Y-20556960D01*
X9481015Y-20556960D02*
X9471491Y-20547436D01*
X9471491Y-20547436D02*
X9461967Y-20528389D01*
X9461967Y-20528389D02*
X9452444Y-20490293D01*
X9452444Y-20490293D02*
X9452444Y-20442674D01*
X9452444Y-20442674D02*
X9461967Y-20404579D01*
X9461967Y-20404579D02*
X9471491Y-20385531D01*
X9471491Y-20385531D02*
X9481015Y-20376008D01*
X9481015Y-20376008D02*
X9500063Y-20366484D01*
X9690539Y-20366484D02*
X9709586Y-20366484D01*
X9709586Y-20366484D02*
X9728634Y-20376008D01*
X9728634Y-20376008D02*
X9738158Y-20385531D01*
X9738158Y-20385531D02*
X9747682Y-20404579D01*
X9747682Y-20404579D02*
X9757205Y-20442674D01*
X9757205Y-20442674D02*
X9757205Y-20490293D01*
X9757205Y-20490293D02*
X9747682Y-20528389D01*
X9747682Y-20528389D02*
X9738158Y-20547436D01*
X9738158Y-20547436D02*
X9728634Y-20556960D01*
X9728634Y-20556960D02*
X9709586Y-20566484D01*
X9709586Y-20566484D02*
X9690539Y-20566484D01*
X9690539Y-20566484D02*
X9671491Y-20556960D01*
X9671491Y-20556960D02*
X9661967Y-20547436D01*
X9661967Y-20547436D02*
X9652444Y-20528389D01*
X9652444Y-20528389D02*
X9642920Y-20490293D01*
X9642920Y-20490293D02*
X9642920Y-20442674D01*
X9642920Y-20442674D02*
X9652444Y-20404579D01*
X9652444Y-20404579D02*
X9661967Y-20385531D01*
X9661967Y-20385531D02*
X9671491Y-20376008D01*
X9671491Y-20376008D02*
X9690539Y-20366484D01*
X9842920Y-20566484D02*
X9842920Y-20433150D01*
X9842920Y-20452198D02*
X9852444Y-20442674D01*
X9852444Y-20442674D02*
X9871491Y-20433150D01*
X9871491Y-20433150D02*
X9900063Y-20433150D01*
X9900063Y-20433150D02*
X9919110Y-20442674D01*
X9919110Y-20442674D02*
X9928634Y-20461722D01*
X9928634Y-20461722D02*
X9928634Y-20566484D01*
X9928634Y-20461722D02*
X9938158Y-20442674D01*
X9938158Y-20442674D02*
X9957205Y-20433150D01*
X9957205Y-20433150D02*
X9985777Y-20433150D01*
X9985777Y-20433150D02*
X10004825Y-20442674D01*
X10004825Y-20442674D02*
X10014348Y-20461722D01*
X10014348Y-20461722D02*
X10014348Y-20566484D01*
X10109586Y-20566484D02*
X10109586Y-20433150D01*
X10109586Y-20452198D02*
X10119110Y-20442674D01*
X10119110Y-20442674D02*
X10138158Y-20433150D01*
X10138158Y-20433150D02*
X10166729Y-20433150D01*
X10166729Y-20433150D02*
X10185777Y-20442674D01*
X10185777Y-20442674D02*
X10195301Y-20461722D01*
X10195301Y-20461722D02*
X10195301Y-20566484D01*
X10195301Y-20461722D02*
X10204825Y-20442674D01*
X10204825Y-20442674D02*
X10223872Y-20433150D01*
X10223872Y-20433150D02*
X10252444Y-20433150D01*
X10252444Y-20433150D02*
X10271491Y-20442674D01*
X10271491Y-20442674D02*
X10281015Y-20461722D01*
X10281015Y-20461722D02*
X10281015Y-20566484D01*
X10671491Y-20356960D02*
X10500063Y-20614103D01*
X10928634Y-20366484D02*
X10947682Y-20366484D01*
X10947682Y-20366484D02*
X10966729Y-20376008D01*
X10966729Y-20376008D02*
X10976253Y-20385531D01*
X10976253Y-20385531D02*
X10985777Y-20404579D01*
X10985777Y-20404579D02*
X10995301Y-20442674D01*
X10995301Y-20442674D02*
X10995301Y-20490293D01*
X10995301Y-20490293D02*
X10985777Y-20528389D01*
X10985777Y-20528389D02*
X10976253Y-20547436D01*
X10976253Y-20547436D02*
X10966729Y-20556960D01*
X10966729Y-20556960D02*
X10947682Y-20566484D01*
X10947682Y-20566484D02*
X10928634Y-20566484D01*
X10928634Y-20566484D02*
X10909587Y-20556960D01*
X10909587Y-20556960D02*
X10900063Y-20547436D01*
X10900063Y-20547436D02*
X10890539Y-20528389D01*
X10890539Y-20528389D02*
X10881015Y-20490293D01*
X10881015Y-20490293D02*
X10881015Y-20442674D01*
X10881015Y-20442674D02*
X10890539Y-20404579D01*
X10890539Y-20404579D02*
X10900063Y-20385531D01*
X10900063Y-20385531D02*
X10909587Y-20376008D01*
X10909587Y-20376008D02*
X10928634Y-20366484D01*
X11081015Y-20547436D02*
X11090539Y-20556960D01*
X11090539Y-20556960D02*
X11081015Y-20566484D01*
X11081015Y-20566484D02*
X11071491Y-20556960D01*
X11071491Y-20556960D02*
X11081015Y-20547436D01*
X11081015Y-20547436D02*
X11081015Y-20566484D01*
X11214348Y-20366484D02*
X11233396Y-20366484D01*
X11233396Y-20366484D02*
X11252444Y-20376008D01*
X11252444Y-20376008D02*
X11261967Y-20385531D01*
X11261967Y-20385531D02*
X11271491Y-20404579D01*
X11271491Y-20404579D02*
X11281015Y-20442674D01*
X11281015Y-20442674D02*
X11281015Y-20490293D01*
X11281015Y-20490293D02*
X11271491Y-20528389D01*
X11271491Y-20528389D02*
X11261967Y-20547436D01*
X11261967Y-20547436D02*
X11252444Y-20556960D01*
X11252444Y-20556960D02*
X11233396Y-20566484D01*
X11233396Y-20566484D02*
X11214348Y-20566484D01*
X11214348Y-20566484D02*
X11195301Y-20556960D01*
X11195301Y-20556960D02*
X11185777Y-20547436D01*
X11185777Y-20547436D02*
X11176253Y-20528389D01*
X11176253Y-20528389D02*
X11166729Y-20490293D01*
X11166729Y-20490293D02*
X11166729Y-20442674D01*
X11166729Y-20442674D02*
X11176253Y-20404579D01*
X11176253Y-20404579D02*
X11185777Y-20385531D01*
X11185777Y-20385531D02*
X11195301Y-20376008D01*
X11195301Y-20376008D02*
X11214348Y-20366484D01*
X11471491Y-20566484D02*
X11357206Y-20566484D01*
X11414348Y-20566484D02*
X11414348Y-20366484D01*
X11414348Y-20366484D02*
X11395301Y-20395055D01*
X11395301Y-20395055D02*
X11376253Y-20414103D01*
X11376253Y-20414103D02*
X11357206Y-20423627D01*
X11652444Y-20366484D02*
X11557206Y-20366484D01*
X11557206Y-20366484D02*
X11547682Y-20461722D01*
X11547682Y-20461722D02*
X11557206Y-20452198D01*
X11557206Y-20452198D02*
X11576253Y-20442674D01*
X11576253Y-20442674D02*
X11623872Y-20442674D01*
X11623872Y-20442674D02*
X11642920Y-20452198D01*
X11642920Y-20452198D02*
X11652444Y-20461722D01*
X11652444Y-20461722D02*
X11661967Y-20480770D01*
X11661967Y-20480770D02*
X11661967Y-20528389D01*
X11661967Y-20528389D02*
X11652444Y-20547436D01*
X11652444Y-20547436D02*
X11642920Y-20556960D01*
X11642920Y-20556960D02*
X11623872Y-20566484D01*
X11623872Y-20566484D02*
X11576253Y-20566484D01*
X11576253Y-20566484D02*
X11557206Y-20556960D01*
X11557206Y-20556960D02*
X11547682Y-20547436D01*
X11728634Y-20366484D02*
X11861967Y-20366484D01*
X11861967Y-20366484D02*
X11776253Y-20566484D01*
X11928634Y-20366484D02*
X11928634Y-20404579D01*
X12004825Y-20366484D02*
X12004825Y-20404579D01*
X12300063Y-20642674D02*
X12290539Y-20633150D01*
X12290539Y-20633150D02*
X12271491Y-20604579D01*
X12271491Y-20604579D02*
X12261968Y-20585531D01*
X12261968Y-20585531D02*
X12252444Y-20556960D01*
X12252444Y-20556960D02*
X12242920Y-20509341D01*
X12242920Y-20509341D02*
X12242920Y-20471246D01*
X12242920Y-20471246D02*
X12252444Y-20423627D01*
X12252444Y-20423627D02*
X12261968Y-20395055D01*
X12261968Y-20395055D02*
X12271491Y-20376008D01*
X12271491Y-20376008D02*
X12290539Y-20347436D01*
X12290539Y-20347436D02*
X12300063Y-20337912D01*
X12481015Y-20566484D02*
X12366729Y-20566484D01*
X12423872Y-20566484D02*
X12423872Y-20366484D01*
X12423872Y-20366484D02*
X12404825Y-20395055D01*
X12404825Y-20395055D02*
X12385777Y-20414103D01*
X12385777Y-20414103D02*
X12366729Y-20423627D01*
X12595301Y-20452198D02*
X12576253Y-20442674D01*
X12576253Y-20442674D02*
X12566729Y-20433150D01*
X12566729Y-20433150D02*
X12557206Y-20414103D01*
X12557206Y-20414103D02*
X12557206Y-20404579D01*
X12557206Y-20404579D02*
X12566729Y-20385531D01*
X12566729Y-20385531D02*
X12576253Y-20376008D01*
X12576253Y-20376008D02*
X12595301Y-20366484D01*
X12595301Y-20366484D02*
X12633396Y-20366484D01*
X12633396Y-20366484D02*
X12652444Y-20376008D01*
X12652444Y-20376008D02*
X12661968Y-20385531D01*
X12661968Y-20385531D02*
X12671491Y-20404579D01*
X12671491Y-20404579D02*
X12671491Y-20414103D01*
X12671491Y-20414103D02*
X12661968Y-20433150D01*
X12661968Y-20433150D02*
X12652444Y-20442674D01*
X12652444Y-20442674D02*
X12633396Y-20452198D01*
X12633396Y-20452198D02*
X12595301Y-20452198D01*
X12595301Y-20452198D02*
X12576253Y-20461722D01*
X12576253Y-20461722D02*
X12566729Y-20471246D01*
X12566729Y-20471246D02*
X12557206Y-20490293D01*
X12557206Y-20490293D02*
X12557206Y-20528389D01*
X12557206Y-20528389D02*
X12566729Y-20547436D01*
X12566729Y-20547436D02*
X12576253Y-20556960D01*
X12576253Y-20556960D02*
X12595301Y-20566484D01*
X12595301Y-20566484D02*
X12633396Y-20566484D01*
X12633396Y-20566484D02*
X12652444Y-20556960D01*
X12652444Y-20556960D02*
X12661968Y-20547436D01*
X12661968Y-20547436D02*
X12671491Y-20528389D01*
X12671491Y-20528389D02*
X12671491Y-20490293D01*
X12671491Y-20490293D02*
X12661968Y-20471246D01*
X12661968Y-20471246D02*
X12652444Y-20461722D01*
X12652444Y-20461722D02*
X12633396Y-20452198D01*
X12842920Y-20433150D02*
X12842920Y-20566484D01*
X12795301Y-20356960D02*
X12747682Y-20499817D01*
X12747682Y-20499817D02*
X12871491Y-20499817D01*
X13100063Y-20566484D02*
X13100063Y-20366484D01*
X13185777Y-20566484D02*
X13185777Y-20461722D01*
X13185777Y-20461722D02*
X13176253Y-20442674D01*
X13176253Y-20442674D02*
X13157206Y-20433150D01*
X13157206Y-20433150D02*
X13128634Y-20433150D01*
X13128634Y-20433150D02*
X13109587Y-20442674D01*
X13109587Y-20442674D02*
X13100063Y-20452198D01*
X13309587Y-20566484D02*
X13290539Y-20556960D01*
X13290539Y-20556960D02*
X13281015Y-20547436D01*
X13281015Y-20547436D02*
X13271491Y-20528389D01*
X13271491Y-20528389D02*
X13271491Y-20471246D01*
X13271491Y-20471246D02*
X13281015Y-20452198D01*
X13281015Y-20452198D02*
X13290539Y-20442674D01*
X13290539Y-20442674D02*
X13309587Y-20433150D01*
X13309587Y-20433150D02*
X13338158Y-20433150D01*
X13338158Y-20433150D02*
X13357206Y-20442674D01*
X13357206Y-20442674D02*
X13366730Y-20452198D01*
X13366730Y-20452198D02*
X13376253Y-20471246D01*
X13376253Y-20471246D02*
X13376253Y-20528389D01*
X13376253Y-20528389D02*
X13366730Y-20547436D01*
X13366730Y-20547436D02*
X13357206Y-20556960D01*
X13357206Y-20556960D02*
X13338158Y-20566484D01*
X13338158Y-20566484D02*
X13309587Y-20566484D01*
X13490539Y-20566484D02*
X13471491Y-20556960D01*
X13471491Y-20556960D02*
X13461968Y-20537912D01*
X13461968Y-20537912D02*
X13461968Y-20366484D01*
X13642920Y-20556960D02*
X13623872Y-20566484D01*
X13623872Y-20566484D02*
X13585777Y-20566484D01*
X13585777Y-20566484D02*
X13566730Y-20556960D01*
X13566730Y-20556960D02*
X13557206Y-20537912D01*
X13557206Y-20537912D02*
X13557206Y-20461722D01*
X13557206Y-20461722D02*
X13566730Y-20442674D01*
X13566730Y-20442674D02*
X13585777Y-20433150D01*
X13585777Y-20433150D02*
X13623872Y-20433150D01*
X13623872Y-20433150D02*
X13642920Y-20442674D01*
X13642920Y-20442674D02*
X13652444Y-20461722D01*
X13652444Y-20461722D02*
X13652444Y-20480770D01*
X13652444Y-20480770D02*
X13557206Y-20499817D01*
X13728634Y-20556960D02*
X13747682Y-20566484D01*
X13747682Y-20566484D02*
X13785777Y-20566484D01*
X13785777Y-20566484D02*
X13804825Y-20556960D01*
X13804825Y-20556960D02*
X13814349Y-20537912D01*
X13814349Y-20537912D02*
X13814349Y-20528389D01*
X13814349Y-20528389D02*
X13804825Y-20509341D01*
X13804825Y-20509341D02*
X13785777Y-20499817D01*
X13785777Y-20499817D02*
X13757206Y-20499817D01*
X13757206Y-20499817D02*
X13738158Y-20490293D01*
X13738158Y-20490293D02*
X13728634Y-20471246D01*
X13728634Y-20471246D02*
X13728634Y-20461722D01*
X13728634Y-20461722D02*
X13738158Y-20442674D01*
X13738158Y-20442674D02*
X13757206Y-20433150D01*
X13757206Y-20433150D02*
X13785777Y-20433150D01*
X13785777Y-20433150D02*
X13804825Y-20442674D01*
X13881015Y-20642674D02*
X13890539Y-20633150D01*
X13890539Y-20633150D02*
X13909587Y-20604579D01*
X13909587Y-20604579D02*
X13919111Y-20585531D01*
X13919111Y-20585531D02*
X13928634Y-20556960D01*
X13928634Y-20556960D02*
X13938158Y-20509341D01*
X13938158Y-20509341D02*
X13938158Y-20471246D01*
X13938158Y-20471246D02*
X13928634Y-20423627D01*
X13928634Y-20423627D02*
X13919111Y-20395055D01*
X13919111Y-20395055D02*
X13909587Y-20376008D01*
X13909587Y-20376008D02*
X13890539Y-20347436D01*
X13890539Y-20347436D02*
X13881015Y-20337912D01*
D10*
X8725000Y-20739000D02*
G75*
G03*
X8725000Y-20739000I-32500J0D01*
G01*
D11*
X9023872Y-20630484D02*
X9042920Y-20630484D01*
X9042920Y-20630484D02*
X9061967Y-20640008D01*
X9061967Y-20640008D02*
X9071491Y-20649531D01*
X9071491Y-20649531D02*
X9081015Y-20668579D01*
X9081015Y-20668579D02*
X9090539Y-20706674D01*
X9090539Y-20706674D02*
X9090539Y-20754293D01*
X9090539Y-20754293D02*
X9081015Y-20792389D01*
X9081015Y-20792389D02*
X9071491Y-20811436D01*
X9071491Y-20811436D02*
X9061967Y-20820960D01*
X9061967Y-20820960D02*
X9042920Y-20830484D01*
X9042920Y-20830484D02*
X9023872Y-20830484D01*
X9023872Y-20830484D02*
X9004824Y-20820960D01*
X9004824Y-20820960D02*
X8995301Y-20811436D01*
X8995301Y-20811436D02*
X8985777Y-20792389D01*
X8985777Y-20792389D02*
X8976253Y-20754293D01*
X8976253Y-20754293D02*
X8976253Y-20706674D01*
X8976253Y-20706674D02*
X8985777Y-20668579D01*
X8985777Y-20668579D02*
X8995301Y-20649531D01*
X8995301Y-20649531D02*
X9004824Y-20640008D01*
X9004824Y-20640008D02*
X9023872Y-20630484D01*
X9176253Y-20811436D02*
X9185777Y-20820960D01*
X9185777Y-20820960D02*
X9176253Y-20830484D01*
X9176253Y-20830484D02*
X9166729Y-20820960D01*
X9166729Y-20820960D02*
X9176253Y-20811436D01*
X9176253Y-20811436D02*
X9176253Y-20830484D01*
X9357205Y-20630484D02*
X9319110Y-20630484D01*
X9319110Y-20630484D02*
X9300063Y-20640008D01*
X9300063Y-20640008D02*
X9290539Y-20649531D01*
X9290539Y-20649531D02*
X9271491Y-20678103D01*
X9271491Y-20678103D02*
X9261967Y-20716198D01*
X9261967Y-20716198D02*
X9261967Y-20792389D01*
X9261967Y-20792389D02*
X9271491Y-20811436D01*
X9271491Y-20811436D02*
X9281015Y-20820960D01*
X9281015Y-20820960D02*
X9300063Y-20830484D01*
X9300063Y-20830484D02*
X9338158Y-20830484D01*
X9338158Y-20830484D02*
X9357205Y-20820960D01*
X9357205Y-20820960D02*
X9366729Y-20811436D01*
X9366729Y-20811436D02*
X9376253Y-20792389D01*
X9376253Y-20792389D02*
X9376253Y-20744770D01*
X9376253Y-20744770D02*
X9366729Y-20725722D01*
X9366729Y-20725722D02*
X9357205Y-20716198D01*
X9357205Y-20716198D02*
X9338158Y-20706674D01*
X9338158Y-20706674D02*
X9300063Y-20706674D01*
X9300063Y-20706674D02*
X9281015Y-20716198D01*
X9281015Y-20716198D02*
X9271491Y-20725722D01*
X9271491Y-20725722D02*
X9261967Y-20744770D01*
X9557205Y-20630484D02*
X9461967Y-20630484D01*
X9461967Y-20630484D02*
X9452444Y-20725722D01*
X9452444Y-20725722D02*
X9461967Y-20716198D01*
X9461967Y-20716198D02*
X9481015Y-20706674D01*
X9481015Y-20706674D02*
X9528634Y-20706674D01*
X9528634Y-20706674D02*
X9547682Y-20716198D01*
X9547682Y-20716198D02*
X9557205Y-20725722D01*
X9557205Y-20725722D02*
X9566729Y-20744770D01*
X9566729Y-20744770D02*
X9566729Y-20792389D01*
X9566729Y-20792389D02*
X9557205Y-20811436D01*
X9557205Y-20811436D02*
X9547682Y-20820960D01*
X9547682Y-20820960D02*
X9528634Y-20830484D01*
X9528634Y-20830484D02*
X9481015Y-20830484D01*
X9481015Y-20830484D02*
X9461967Y-20820960D01*
X9461967Y-20820960D02*
X9452444Y-20811436D01*
X9690539Y-20630484D02*
X9709586Y-20630484D01*
X9709586Y-20630484D02*
X9728634Y-20640008D01*
X9728634Y-20640008D02*
X9738158Y-20649531D01*
X9738158Y-20649531D02*
X9747682Y-20668579D01*
X9747682Y-20668579D02*
X9757205Y-20706674D01*
X9757205Y-20706674D02*
X9757205Y-20754293D01*
X9757205Y-20754293D02*
X9747682Y-20792389D01*
X9747682Y-20792389D02*
X9738158Y-20811436D01*
X9738158Y-20811436D02*
X9728634Y-20820960D01*
X9728634Y-20820960D02*
X9709586Y-20830484D01*
X9709586Y-20830484D02*
X9690539Y-20830484D01*
X9690539Y-20830484D02*
X9671491Y-20820960D01*
X9671491Y-20820960D02*
X9661967Y-20811436D01*
X9661967Y-20811436D02*
X9652444Y-20792389D01*
X9652444Y-20792389D02*
X9642920Y-20754293D01*
X9642920Y-20754293D02*
X9642920Y-20706674D01*
X9642920Y-20706674D02*
X9652444Y-20668579D01*
X9652444Y-20668579D02*
X9661967Y-20649531D01*
X9661967Y-20649531D02*
X9671491Y-20640008D01*
X9671491Y-20640008D02*
X9690539Y-20630484D01*
X9842920Y-20830484D02*
X9842920Y-20697150D01*
X9842920Y-20716198D02*
X9852444Y-20706674D01*
X9852444Y-20706674D02*
X9871491Y-20697150D01*
X9871491Y-20697150D02*
X9900063Y-20697150D01*
X9900063Y-20697150D02*
X9919110Y-20706674D01*
X9919110Y-20706674D02*
X9928634Y-20725722D01*
X9928634Y-20725722D02*
X9928634Y-20830484D01*
X9928634Y-20725722D02*
X9938158Y-20706674D01*
X9938158Y-20706674D02*
X9957205Y-20697150D01*
X9957205Y-20697150D02*
X9985777Y-20697150D01*
X9985777Y-20697150D02*
X10004825Y-20706674D01*
X10004825Y-20706674D02*
X10014348Y-20725722D01*
X10014348Y-20725722D02*
X10014348Y-20830484D01*
X10109586Y-20830484D02*
X10109586Y-20697150D01*
X10109586Y-20716198D02*
X10119110Y-20706674D01*
X10119110Y-20706674D02*
X10138158Y-20697150D01*
X10138158Y-20697150D02*
X10166729Y-20697150D01*
X10166729Y-20697150D02*
X10185777Y-20706674D01*
X10185777Y-20706674D02*
X10195301Y-20725722D01*
X10195301Y-20725722D02*
X10195301Y-20830484D01*
X10195301Y-20725722D02*
X10204825Y-20706674D01*
X10204825Y-20706674D02*
X10223872Y-20697150D01*
X10223872Y-20697150D02*
X10252444Y-20697150D01*
X10252444Y-20697150D02*
X10271491Y-20706674D01*
X10271491Y-20706674D02*
X10281015Y-20725722D01*
X10281015Y-20725722D02*
X10281015Y-20830484D01*
X10671491Y-20620960D02*
X10500063Y-20878103D01*
X10928634Y-20630484D02*
X10947682Y-20630484D01*
X10947682Y-20630484D02*
X10966729Y-20640008D01*
X10966729Y-20640008D02*
X10976253Y-20649531D01*
X10976253Y-20649531D02*
X10985777Y-20668579D01*
X10985777Y-20668579D02*
X10995301Y-20706674D01*
X10995301Y-20706674D02*
X10995301Y-20754293D01*
X10995301Y-20754293D02*
X10985777Y-20792389D01*
X10985777Y-20792389D02*
X10976253Y-20811436D01*
X10976253Y-20811436D02*
X10966729Y-20820960D01*
X10966729Y-20820960D02*
X10947682Y-20830484D01*
X10947682Y-20830484D02*
X10928634Y-20830484D01*
X10928634Y-20830484D02*
X10909587Y-20820960D01*
X10909587Y-20820960D02*
X10900063Y-20811436D01*
X10900063Y-20811436D02*
X10890539Y-20792389D01*
X10890539Y-20792389D02*
X10881015Y-20754293D01*
X10881015Y-20754293D02*
X10881015Y-20706674D01*
X10881015Y-20706674D02*
X10890539Y-20668579D01*
X10890539Y-20668579D02*
X10900063Y-20649531D01*
X10900063Y-20649531D02*
X10909587Y-20640008D01*
X10909587Y-20640008D02*
X10928634Y-20630484D01*
X11081015Y-20811436D02*
X11090539Y-20820960D01*
X11090539Y-20820960D02*
X11081015Y-20830484D01*
X11081015Y-20830484D02*
X11071491Y-20820960D01*
X11071491Y-20820960D02*
X11081015Y-20811436D01*
X11081015Y-20811436D02*
X11081015Y-20830484D01*
X11214348Y-20630484D02*
X11233396Y-20630484D01*
X11233396Y-20630484D02*
X11252444Y-20640008D01*
X11252444Y-20640008D02*
X11261967Y-20649531D01*
X11261967Y-20649531D02*
X11271491Y-20668579D01*
X11271491Y-20668579D02*
X11281015Y-20706674D01*
X11281015Y-20706674D02*
X11281015Y-20754293D01*
X11281015Y-20754293D02*
X11271491Y-20792389D01*
X11271491Y-20792389D02*
X11261967Y-20811436D01*
X11261967Y-20811436D02*
X11252444Y-20820960D01*
X11252444Y-20820960D02*
X11233396Y-20830484D01*
X11233396Y-20830484D02*
X11214348Y-20830484D01*
X11214348Y-20830484D02*
X11195301Y-20820960D01*
X11195301Y-20820960D02*
X11185777Y-20811436D01*
X11185777Y-20811436D02*
X11176253Y-20792389D01*
X11176253Y-20792389D02*
X11166729Y-20754293D01*
X11166729Y-20754293D02*
X11166729Y-20706674D01*
X11166729Y-20706674D02*
X11176253Y-20668579D01*
X11176253Y-20668579D02*
X11185777Y-20649531D01*
X11185777Y-20649531D02*
X11195301Y-20640008D01*
X11195301Y-20640008D02*
X11214348Y-20630484D01*
X11357206Y-20649531D02*
X11366729Y-20640008D01*
X11366729Y-20640008D02*
X11385777Y-20630484D01*
X11385777Y-20630484D02*
X11433396Y-20630484D01*
X11433396Y-20630484D02*
X11452444Y-20640008D01*
X11452444Y-20640008D02*
X11461967Y-20649531D01*
X11461967Y-20649531D02*
X11471491Y-20668579D01*
X11471491Y-20668579D02*
X11471491Y-20687627D01*
X11471491Y-20687627D02*
X11461967Y-20716198D01*
X11461967Y-20716198D02*
X11347682Y-20830484D01*
X11347682Y-20830484D02*
X11471491Y-20830484D01*
X11652444Y-20630484D02*
X11557206Y-20630484D01*
X11557206Y-20630484D02*
X11547682Y-20725722D01*
X11547682Y-20725722D02*
X11557206Y-20716198D01*
X11557206Y-20716198D02*
X11576253Y-20706674D01*
X11576253Y-20706674D02*
X11623872Y-20706674D01*
X11623872Y-20706674D02*
X11642920Y-20716198D01*
X11642920Y-20716198D02*
X11652444Y-20725722D01*
X11652444Y-20725722D02*
X11661967Y-20744770D01*
X11661967Y-20744770D02*
X11661967Y-20792389D01*
X11661967Y-20792389D02*
X11652444Y-20811436D01*
X11652444Y-20811436D02*
X11642920Y-20820960D01*
X11642920Y-20820960D02*
X11623872Y-20830484D01*
X11623872Y-20830484D02*
X11576253Y-20830484D01*
X11576253Y-20830484D02*
X11557206Y-20820960D01*
X11557206Y-20820960D02*
X11547682Y-20811436D01*
X11833396Y-20630484D02*
X11795301Y-20630484D01*
X11795301Y-20630484D02*
X11776253Y-20640008D01*
X11776253Y-20640008D02*
X11766729Y-20649531D01*
X11766729Y-20649531D02*
X11747682Y-20678103D01*
X11747682Y-20678103D02*
X11738158Y-20716198D01*
X11738158Y-20716198D02*
X11738158Y-20792389D01*
X11738158Y-20792389D02*
X11747682Y-20811436D01*
X11747682Y-20811436D02*
X11757206Y-20820960D01*
X11757206Y-20820960D02*
X11776253Y-20830484D01*
X11776253Y-20830484D02*
X11814348Y-20830484D01*
X11814348Y-20830484D02*
X11833396Y-20820960D01*
X11833396Y-20820960D02*
X11842920Y-20811436D01*
X11842920Y-20811436D02*
X11852444Y-20792389D01*
X11852444Y-20792389D02*
X11852444Y-20744770D01*
X11852444Y-20744770D02*
X11842920Y-20725722D01*
X11842920Y-20725722D02*
X11833396Y-20716198D01*
X11833396Y-20716198D02*
X11814348Y-20706674D01*
X11814348Y-20706674D02*
X11776253Y-20706674D01*
X11776253Y-20706674D02*
X11757206Y-20716198D01*
X11757206Y-20716198D02*
X11747682Y-20725722D01*
X11747682Y-20725722D02*
X11738158Y-20744770D01*
X11928634Y-20630484D02*
X11928634Y-20668579D01*
X12004825Y-20630484D02*
X12004825Y-20668579D01*
X12300063Y-20906674D02*
X12290539Y-20897150D01*
X12290539Y-20897150D02*
X12271491Y-20868579D01*
X12271491Y-20868579D02*
X12261968Y-20849531D01*
X12261968Y-20849531D02*
X12252444Y-20820960D01*
X12252444Y-20820960D02*
X12242920Y-20773341D01*
X12242920Y-20773341D02*
X12242920Y-20735246D01*
X12242920Y-20735246D02*
X12252444Y-20687627D01*
X12252444Y-20687627D02*
X12261968Y-20659055D01*
X12261968Y-20659055D02*
X12271491Y-20640008D01*
X12271491Y-20640008D02*
X12290539Y-20611436D01*
X12290539Y-20611436D02*
X12300063Y-20601912D01*
X12461968Y-20697150D02*
X12461968Y-20830484D01*
X12414348Y-20620960D02*
X12366729Y-20763817D01*
X12366729Y-20763817D02*
X12490539Y-20763817D01*
X12719110Y-20830484D02*
X12719110Y-20630484D01*
X12804825Y-20830484D02*
X12804825Y-20725722D01*
X12804825Y-20725722D02*
X12795301Y-20706674D01*
X12795301Y-20706674D02*
X12776253Y-20697150D01*
X12776253Y-20697150D02*
X12747682Y-20697150D01*
X12747682Y-20697150D02*
X12728634Y-20706674D01*
X12728634Y-20706674D02*
X12719110Y-20716198D01*
X12928634Y-20830484D02*
X12909587Y-20820960D01*
X12909587Y-20820960D02*
X12900063Y-20811436D01*
X12900063Y-20811436D02*
X12890539Y-20792389D01*
X12890539Y-20792389D02*
X12890539Y-20735246D01*
X12890539Y-20735246D02*
X12900063Y-20716198D01*
X12900063Y-20716198D02*
X12909587Y-20706674D01*
X12909587Y-20706674D02*
X12928634Y-20697150D01*
X12928634Y-20697150D02*
X12957206Y-20697150D01*
X12957206Y-20697150D02*
X12976253Y-20706674D01*
X12976253Y-20706674D02*
X12985777Y-20716198D01*
X12985777Y-20716198D02*
X12995301Y-20735246D01*
X12995301Y-20735246D02*
X12995301Y-20792389D01*
X12995301Y-20792389D02*
X12985777Y-20811436D01*
X12985777Y-20811436D02*
X12976253Y-20820960D01*
X12976253Y-20820960D02*
X12957206Y-20830484D01*
X12957206Y-20830484D02*
X12928634Y-20830484D01*
X13109587Y-20830484D02*
X13090539Y-20820960D01*
X13090539Y-20820960D02*
X13081015Y-20801912D01*
X13081015Y-20801912D02*
X13081015Y-20630484D01*
X13261968Y-20820960D02*
X13242920Y-20830484D01*
X13242920Y-20830484D02*
X13204825Y-20830484D01*
X13204825Y-20830484D02*
X13185777Y-20820960D01*
X13185777Y-20820960D02*
X13176253Y-20801912D01*
X13176253Y-20801912D02*
X13176253Y-20725722D01*
X13176253Y-20725722D02*
X13185777Y-20706674D01*
X13185777Y-20706674D02*
X13204825Y-20697150D01*
X13204825Y-20697150D02*
X13242920Y-20697150D01*
X13242920Y-20697150D02*
X13261968Y-20706674D01*
X13261968Y-20706674D02*
X13271491Y-20725722D01*
X13271491Y-20725722D02*
X13271491Y-20744770D01*
X13271491Y-20744770D02*
X13176253Y-20763817D01*
X13347682Y-20820960D02*
X13366730Y-20830484D01*
X13366730Y-20830484D02*
X13404825Y-20830484D01*
X13404825Y-20830484D02*
X13423872Y-20820960D01*
X13423872Y-20820960D02*
X13433396Y-20801912D01*
X13433396Y-20801912D02*
X13433396Y-20792389D01*
X13433396Y-20792389D02*
X13423872Y-20773341D01*
X13423872Y-20773341D02*
X13404825Y-20763817D01*
X13404825Y-20763817D02*
X13376253Y-20763817D01*
X13376253Y-20763817D02*
X13357206Y-20754293D01*
X13357206Y-20754293D02*
X13347682Y-20735246D01*
X13347682Y-20735246D02*
X13347682Y-20725722D01*
X13347682Y-20725722D02*
X13357206Y-20706674D01*
X13357206Y-20706674D02*
X13376253Y-20697150D01*
X13376253Y-20697150D02*
X13404825Y-20697150D01*
X13404825Y-20697150D02*
X13423872Y-20706674D01*
X13500063Y-20906674D02*
X13509587Y-20897150D01*
X13509587Y-20897150D02*
X13528634Y-20868579D01*
X13528634Y-20868579D02*
X13538158Y-20849531D01*
X13538158Y-20849531D02*
X13547682Y-20820960D01*
X13547682Y-20820960D02*
X13557206Y-20773341D01*
X13557206Y-20773341D02*
X13557206Y-20735246D01*
X13557206Y-20735246D02*
X13547682Y-20687627D01*
X13547682Y-20687627D02*
X13538158Y-20659055D01*
X13538158Y-20659055D02*
X13528634Y-20640008D01*
X13528634Y-20640008D02*
X13509587Y-20611436D01*
X13509587Y-20611436D02*
X13500063Y-20601912D01*
D10*
X8675470Y-20953470D02*
X8675470Y-21052530D01*
X8625940Y-21003000D02*
X8725000Y-21003000D01*
D11*
X9023872Y-20894484D02*
X9042920Y-20894484D01*
X9042920Y-20894484D02*
X9061967Y-20904008D01*
X9061967Y-20904008D02*
X9071491Y-20913531D01*
X9071491Y-20913531D02*
X9081015Y-20932579D01*
X9081015Y-20932579D02*
X9090539Y-20970674D01*
X9090539Y-20970674D02*
X9090539Y-21018293D01*
X9090539Y-21018293D02*
X9081015Y-21056389D01*
X9081015Y-21056389D02*
X9071491Y-21075436D01*
X9071491Y-21075436D02*
X9061967Y-21084960D01*
X9061967Y-21084960D02*
X9042920Y-21094484D01*
X9042920Y-21094484D02*
X9023872Y-21094484D01*
X9023872Y-21094484D02*
X9004824Y-21084960D01*
X9004824Y-21084960D02*
X8995301Y-21075436D01*
X8995301Y-21075436D02*
X8985777Y-21056389D01*
X8985777Y-21056389D02*
X8976253Y-21018293D01*
X8976253Y-21018293D02*
X8976253Y-20970674D01*
X8976253Y-20970674D02*
X8985777Y-20932579D01*
X8985777Y-20932579D02*
X8995301Y-20913531D01*
X8995301Y-20913531D02*
X9004824Y-20904008D01*
X9004824Y-20904008D02*
X9023872Y-20894484D01*
X9176253Y-21075436D02*
X9185777Y-21084960D01*
X9185777Y-21084960D02*
X9176253Y-21094484D01*
X9176253Y-21094484D02*
X9166729Y-21084960D01*
X9166729Y-21084960D02*
X9176253Y-21075436D01*
X9176253Y-21075436D02*
X9176253Y-21094484D01*
X9281015Y-21094484D02*
X9319110Y-21094484D01*
X9319110Y-21094484D02*
X9338158Y-21084960D01*
X9338158Y-21084960D02*
X9347682Y-21075436D01*
X9347682Y-21075436D02*
X9366729Y-21046865D01*
X9366729Y-21046865D02*
X9376253Y-21008770D01*
X9376253Y-21008770D02*
X9376253Y-20932579D01*
X9376253Y-20932579D02*
X9366729Y-20913531D01*
X9366729Y-20913531D02*
X9357205Y-20904008D01*
X9357205Y-20904008D02*
X9338158Y-20894484D01*
X9338158Y-20894484D02*
X9300063Y-20894484D01*
X9300063Y-20894484D02*
X9281015Y-20904008D01*
X9281015Y-20904008D02*
X9271491Y-20913531D01*
X9271491Y-20913531D02*
X9261967Y-20932579D01*
X9261967Y-20932579D02*
X9261967Y-20980198D01*
X9261967Y-20980198D02*
X9271491Y-20999246D01*
X9271491Y-20999246D02*
X9281015Y-21008770D01*
X9281015Y-21008770D02*
X9300063Y-21018293D01*
X9300063Y-21018293D02*
X9338158Y-21018293D01*
X9338158Y-21018293D02*
X9357205Y-21008770D01*
X9357205Y-21008770D02*
X9366729Y-20999246D01*
X9366729Y-20999246D02*
X9376253Y-20980198D01*
X9471491Y-21094484D02*
X9509586Y-21094484D01*
X9509586Y-21094484D02*
X9528634Y-21084960D01*
X9528634Y-21084960D02*
X9538158Y-21075436D01*
X9538158Y-21075436D02*
X9557205Y-21046865D01*
X9557205Y-21046865D02*
X9566729Y-21008770D01*
X9566729Y-21008770D02*
X9566729Y-20932579D01*
X9566729Y-20932579D02*
X9557205Y-20913531D01*
X9557205Y-20913531D02*
X9547682Y-20904008D01*
X9547682Y-20904008D02*
X9528634Y-20894484D01*
X9528634Y-20894484D02*
X9490539Y-20894484D01*
X9490539Y-20894484D02*
X9471491Y-20904008D01*
X9471491Y-20904008D02*
X9461967Y-20913531D01*
X9461967Y-20913531D02*
X9452444Y-20932579D01*
X9452444Y-20932579D02*
X9452444Y-20980198D01*
X9452444Y-20980198D02*
X9461967Y-20999246D01*
X9461967Y-20999246D02*
X9471491Y-21008770D01*
X9471491Y-21008770D02*
X9490539Y-21018293D01*
X9490539Y-21018293D02*
X9528634Y-21018293D01*
X9528634Y-21018293D02*
X9547682Y-21008770D01*
X9547682Y-21008770D02*
X9557205Y-20999246D01*
X9557205Y-20999246D02*
X9566729Y-20980198D01*
X9757205Y-21094484D02*
X9642920Y-21094484D01*
X9700063Y-21094484D02*
X9700063Y-20894484D01*
X9700063Y-20894484D02*
X9681015Y-20923055D01*
X9681015Y-20923055D02*
X9661967Y-20942103D01*
X9661967Y-20942103D02*
X9642920Y-20951627D01*
X9842920Y-21094484D02*
X9842920Y-20961150D01*
X9842920Y-20980198D02*
X9852444Y-20970674D01*
X9852444Y-20970674D02*
X9871491Y-20961150D01*
X9871491Y-20961150D02*
X9900063Y-20961150D01*
X9900063Y-20961150D02*
X9919110Y-20970674D01*
X9919110Y-20970674D02*
X9928634Y-20989722D01*
X9928634Y-20989722D02*
X9928634Y-21094484D01*
X9928634Y-20989722D02*
X9938158Y-20970674D01*
X9938158Y-20970674D02*
X9957205Y-20961150D01*
X9957205Y-20961150D02*
X9985777Y-20961150D01*
X9985777Y-20961150D02*
X10004825Y-20970674D01*
X10004825Y-20970674D02*
X10014348Y-20989722D01*
X10014348Y-20989722D02*
X10014348Y-21094484D01*
X10109586Y-21094484D02*
X10109586Y-20961150D01*
X10109586Y-20980198D02*
X10119110Y-20970674D01*
X10119110Y-20970674D02*
X10138158Y-20961150D01*
X10138158Y-20961150D02*
X10166729Y-20961150D01*
X10166729Y-20961150D02*
X10185777Y-20970674D01*
X10185777Y-20970674D02*
X10195301Y-20989722D01*
X10195301Y-20989722D02*
X10195301Y-21094484D01*
X10195301Y-20989722D02*
X10204825Y-20970674D01*
X10204825Y-20970674D02*
X10223872Y-20961150D01*
X10223872Y-20961150D02*
X10252444Y-20961150D01*
X10252444Y-20961150D02*
X10271491Y-20970674D01*
X10271491Y-20970674D02*
X10281015Y-20989722D01*
X10281015Y-20989722D02*
X10281015Y-21094484D01*
X10671491Y-20884960D02*
X10500063Y-21142103D01*
X10928634Y-20894484D02*
X10947682Y-20894484D01*
X10947682Y-20894484D02*
X10966729Y-20904008D01*
X10966729Y-20904008D02*
X10976253Y-20913531D01*
X10976253Y-20913531D02*
X10985777Y-20932579D01*
X10985777Y-20932579D02*
X10995301Y-20970674D01*
X10995301Y-20970674D02*
X10995301Y-21018293D01*
X10995301Y-21018293D02*
X10985777Y-21056389D01*
X10985777Y-21056389D02*
X10976253Y-21075436D01*
X10976253Y-21075436D02*
X10966729Y-21084960D01*
X10966729Y-21084960D02*
X10947682Y-21094484D01*
X10947682Y-21094484D02*
X10928634Y-21094484D01*
X10928634Y-21094484D02*
X10909587Y-21084960D01*
X10909587Y-21084960D02*
X10900063Y-21075436D01*
X10900063Y-21075436D02*
X10890539Y-21056389D01*
X10890539Y-21056389D02*
X10881015Y-21018293D01*
X10881015Y-21018293D02*
X10881015Y-20970674D01*
X10881015Y-20970674D02*
X10890539Y-20932579D01*
X10890539Y-20932579D02*
X10900063Y-20913531D01*
X10900063Y-20913531D02*
X10909587Y-20904008D01*
X10909587Y-20904008D02*
X10928634Y-20894484D01*
X11081015Y-21075436D02*
X11090539Y-21084960D01*
X11090539Y-21084960D02*
X11081015Y-21094484D01*
X11081015Y-21094484D02*
X11071491Y-21084960D01*
X11071491Y-21084960D02*
X11081015Y-21075436D01*
X11081015Y-21075436D02*
X11081015Y-21094484D01*
X11214348Y-20894484D02*
X11233396Y-20894484D01*
X11233396Y-20894484D02*
X11252444Y-20904008D01*
X11252444Y-20904008D02*
X11261967Y-20913531D01*
X11261967Y-20913531D02*
X11271491Y-20932579D01*
X11271491Y-20932579D02*
X11281015Y-20970674D01*
X11281015Y-20970674D02*
X11281015Y-21018293D01*
X11281015Y-21018293D02*
X11271491Y-21056389D01*
X11271491Y-21056389D02*
X11261967Y-21075436D01*
X11261967Y-21075436D02*
X11252444Y-21084960D01*
X11252444Y-21084960D02*
X11233396Y-21094484D01*
X11233396Y-21094484D02*
X11214348Y-21094484D01*
X11214348Y-21094484D02*
X11195301Y-21084960D01*
X11195301Y-21084960D02*
X11185777Y-21075436D01*
X11185777Y-21075436D02*
X11176253Y-21056389D01*
X11176253Y-21056389D02*
X11166729Y-21018293D01*
X11166729Y-21018293D02*
X11166729Y-20970674D01*
X11166729Y-20970674D02*
X11176253Y-20932579D01*
X11176253Y-20932579D02*
X11185777Y-20913531D01*
X11185777Y-20913531D02*
X11195301Y-20904008D01*
X11195301Y-20904008D02*
X11214348Y-20894484D01*
X11347682Y-20894484D02*
X11471491Y-20894484D01*
X11471491Y-20894484D02*
X11404825Y-20970674D01*
X11404825Y-20970674D02*
X11433396Y-20970674D01*
X11433396Y-20970674D02*
X11452444Y-20980198D01*
X11452444Y-20980198D02*
X11461967Y-20989722D01*
X11461967Y-20989722D02*
X11471491Y-21008770D01*
X11471491Y-21008770D02*
X11471491Y-21056389D01*
X11471491Y-21056389D02*
X11461967Y-21075436D01*
X11461967Y-21075436D02*
X11452444Y-21084960D01*
X11452444Y-21084960D02*
X11433396Y-21094484D01*
X11433396Y-21094484D02*
X11376253Y-21094484D01*
X11376253Y-21094484D02*
X11357206Y-21084960D01*
X11357206Y-21084960D02*
X11347682Y-21075436D01*
X11566729Y-21094484D02*
X11604825Y-21094484D01*
X11604825Y-21094484D02*
X11623872Y-21084960D01*
X11623872Y-21084960D02*
X11633396Y-21075436D01*
X11633396Y-21075436D02*
X11652444Y-21046865D01*
X11652444Y-21046865D02*
X11661967Y-21008770D01*
X11661967Y-21008770D02*
X11661967Y-20932579D01*
X11661967Y-20932579D02*
X11652444Y-20913531D01*
X11652444Y-20913531D02*
X11642920Y-20904008D01*
X11642920Y-20904008D02*
X11623872Y-20894484D01*
X11623872Y-20894484D02*
X11585777Y-20894484D01*
X11585777Y-20894484D02*
X11566729Y-20904008D01*
X11566729Y-20904008D02*
X11557206Y-20913531D01*
X11557206Y-20913531D02*
X11547682Y-20932579D01*
X11547682Y-20932579D02*
X11547682Y-20980198D01*
X11547682Y-20980198D02*
X11557206Y-20999246D01*
X11557206Y-20999246D02*
X11566729Y-21008770D01*
X11566729Y-21008770D02*
X11585777Y-21018293D01*
X11585777Y-21018293D02*
X11623872Y-21018293D01*
X11623872Y-21018293D02*
X11642920Y-21008770D01*
X11642920Y-21008770D02*
X11652444Y-20999246D01*
X11652444Y-20999246D02*
X11661967Y-20980198D01*
X11785777Y-20894484D02*
X11804825Y-20894484D01*
X11804825Y-20894484D02*
X11823872Y-20904008D01*
X11823872Y-20904008D02*
X11833396Y-20913531D01*
X11833396Y-20913531D02*
X11842920Y-20932579D01*
X11842920Y-20932579D02*
X11852444Y-20970674D01*
X11852444Y-20970674D02*
X11852444Y-21018293D01*
X11852444Y-21018293D02*
X11842920Y-21056389D01*
X11842920Y-21056389D02*
X11833396Y-21075436D01*
X11833396Y-21075436D02*
X11823872Y-21084960D01*
X11823872Y-21084960D02*
X11804825Y-21094484D01*
X11804825Y-21094484D02*
X11785777Y-21094484D01*
X11785777Y-21094484D02*
X11766729Y-21084960D01*
X11766729Y-21084960D02*
X11757206Y-21075436D01*
X11757206Y-21075436D02*
X11747682Y-21056389D01*
X11747682Y-21056389D02*
X11738158Y-21018293D01*
X11738158Y-21018293D02*
X11738158Y-20970674D01*
X11738158Y-20970674D02*
X11747682Y-20932579D01*
X11747682Y-20932579D02*
X11757206Y-20913531D01*
X11757206Y-20913531D02*
X11766729Y-20904008D01*
X11766729Y-20904008D02*
X11785777Y-20894484D01*
X11928634Y-20894484D02*
X11928634Y-20932579D01*
X12004825Y-20894484D02*
X12004825Y-20932579D01*
X12300063Y-21170674D02*
X12290539Y-21161150D01*
X12290539Y-21161150D02*
X12271491Y-21132579D01*
X12271491Y-21132579D02*
X12261968Y-21113531D01*
X12261968Y-21113531D02*
X12252444Y-21084960D01*
X12252444Y-21084960D02*
X12242920Y-21037341D01*
X12242920Y-21037341D02*
X12242920Y-20999246D01*
X12242920Y-20999246D02*
X12252444Y-20951627D01*
X12252444Y-20951627D02*
X12261968Y-20923055D01*
X12261968Y-20923055D02*
X12271491Y-20904008D01*
X12271491Y-20904008D02*
X12290539Y-20875436D01*
X12290539Y-20875436D02*
X12300063Y-20865912D01*
X12461968Y-20961150D02*
X12461968Y-21094484D01*
X12414348Y-20884960D02*
X12366729Y-21027817D01*
X12366729Y-21027817D02*
X12490539Y-21027817D01*
X12719110Y-21094484D02*
X12719110Y-20894484D01*
X12804825Y-21094484D02*
X12804825Y-20989722D01*
X12804825Y-20989722D02*
X12795301Y-20970674D01*
X12795301Y-20970674D02*
X12776253Y-20961150D01*
X12776253Y-20961150D02*
X12747682Y-20961150D01*
X12747682Y-20961150D02*
X12728634Y-20970674D01*
X12728634Y-20970674D02*
X12719110Y-20980198D01*
X12928634Y-21094484D02*
X12909587Y-21084960D01*
X12909587Y-21084960D02*
X12900063Y-21075436D01*
X12900063Y-21075436D02*
X12890539Y-21056389D01*
X12890539Y-21056389D02*
X12890539Y-20999246D01*
X12890539Y-20999246D02*
X12900063Y-20980198D01*
X12900063Y-20980198D02*
X12909587Y-20970674D01*
X12909587Y-20970674D02*
X12928634Y-20961150D01*
X12928634Y-20961150D02*
X12957206Y-20961150D01*
X12957206Y-20961150D02*
X12976253Y-20970674D01*
X12976253Y-20970674D02*
X12985777Y-20980198D01*
X12985777Y-20980198D02*
X12995301Y-20999246D01*
X12995301Y-20999246D02*
X12995301Y-21056389D01*
X12995301Y-21056389D02*
X12985777Y-21075436D01*
X12985777Y-21075436D02*
X12976253Y-21084960D01*
X12976253Y-21084960D02*
X12957206Y-21094484D01*
X12957206Y-21094484D02*
X12928634Y-21094484D01*
X13109587Y-21094484D02*
X13090539Y-21084960D01*
X13090539Y-21084960D02*
X13081015Y-21065912D01*
X13081015Y-21065912D02*
X13081015Y-20894484D01*
X13261968Y-21084960D02*
X13242920Y-21094484D01*
X13242920Y-21094484D02*
X13204825Y-21094484D01*
X13204825Y-21094484D02*
X13185777Y-21084960D01*
X13185777Y-21084960D02*
X13176253Y-21065912D01*
X13176253Y-21065912D02*
X13176253Y-20989722D01*
X13176253Y-20989722D02*
X13185777Y-20970674D01*
X13185777Y-20970674D02*
X13204825Y-20961150D01*
X13204825Y-20961150D02*
X13242920Y-20961150D01*
X13242920Y-20961150D02*
X13261968Y-20970674D01*
X13261968Y-20970674D02*
X13271491Y-20989722D01*
X13271491Y-20989722D02*
X13271491Y-21008770D01*
X13271491Y-21008770D02*
X13176253Y-21027817D01*
X13347682Y-21084960D02*
X13366730Y-21094484D01*
X13366730Y-21094484D02*
X13404825Y-21094484D01*
X13404825Y-21094484D02*
X13423872Y-21084960D01*
X13423872Y-21084960D02*
X13433396Y-21065912D01*
X13433396Y-21065912D02*
X13433396Y-21056389D01*
X13433396Y-21056389D02*
X13423872Y-21037341D01*
X13423872Y-21037341D02*
X13404825Y-21027817D01*
X13404825Y-21027817D02*
X13376253Y-21027817D01*
X13376253Y-21027817D02*
X13357206Y-21018293D01*
X13357206Y-21018293D02*
X13347682Y-20999246D01*
X13347682Y-20999246D02*
X13347682Y-20989722D01*
X13347682Y-20989722D02*
X13357206Y-20970674D01*
X13357206Y-20970674D02*
X13376253Y-20961150D01*
X13376253Y-20961150D02*
X13404825Y-20961150D01*
X13404825Y-20961150D02*
X13423872Y-20970674D01*
X13500063Y-21170674D02*
X13509587Y-21161150D01*
X13509587Y-21161150D02*
X13528634Y-21132579D01*
X13528634Y-21132579D02*
X13538158Y-21113531D01*
X13538158Y-21113531D02*
X13547682Y-21084960D01*
X13547682Y-21084960D02*
X13557206Y-21037341D01*
X13557206Y-21037341D02*
X13557206Y-20999246D01*
X13557206Y-20999246D02*
X13547682Y-20951627D01*
X13547682Y-20951627D02*
X13538158Y-20923055D01*
X13538158Y-20923055D02*
X13528634Y-20904008D01*
X13528634Y-20904008D02*
X13509587Y-20875436D01*
X13509587Y-20875436D02*
X13500063Y-20865912D01*
D10*
X8710356Y-21302356D02*
X8710356Y-21231644D01*
X8639644Y-21231644D01*
X8639644Y-21302356D01*
X8710356Y-21302356D01*
D11*
X9090539Y-21358484D02*
X8976253Y-21358484D01*
X9033396Y-21358484D02*
X9033396Y-21158484D01*
X9033396Y-21158484D02*
X9014348Y-21187055D01*
X9014348Y-21187055D02*
X8995301Y-21206103D01*
X8995301Y-21206103D02*
X8976253Y-21215627D01*
X9176253Y-21339436D02*
X9185777Y-21348960D01*
X9185777Y-21348960D02*
X9176253Y-21358484D01*
X9176253Y-21358484D02*
X9166729Y-21348960D01*
X9166729Y-21348960D02*
X9176253Y-21339436D01*
X9176253Y-21339436D02*
X9176253Y-21358484D01*
X9309586Y-21158484D02*
X9328634Y-21158484D01*
X9328634Y-21158484D02*
X9347682Y-21168008D01*
X9347682Y-21168008D02*
X9357205Y-21177531D01*
X9357205Y-21177531D02*
X9366729Y-21196579D01*
X9366729Y-21196579D02*
X9376253Y-21234674D01*
X9376253Y-21234674D02*
X9376253Y-21282293D01*
X9376253Y-21282293D02*
X9366729Y-21320389D01*
X9366729Y-21320389D02*
X9357205Y-21339436D01*
X9357205Y-21339436D02*
X9347682Y-21348960D01*
X9347682Y-21348960D02*
X9328634Y-21358484D01*
X9328634Y-21358484D02*
X9309586Y-21358484D01*
X9309586Y-21358484D02*
X9290539Y-21348960D01*
X9290539Y-21348960D02*
X9281015Y-21339436D01*
X9281015Y-21339436D02*
X9271491Y-21320389D01*
X9271491Y-21320389D02*
X9261967Y-21282293D01*
X9261967Y-21282293D02*
X9261967Y-21234674D01*
X9261967Y-21234674D02*
X9271491Y-21196579D01*
X9271491Y-21196579D02*
X9281015Y-21177531D01*
X9281015Y-21177531D02*
X9290539Y-21168008D01*
X9290539Y-21168008D02*
X9309586Y-21158484D01*
X9500063Y-21158484D02*
X9519110Y-21158484D01*
X9519110Y-21158484D02*
X9538158Y-21168008D01*
X9538158Y-21168008D02*
X9547682Y-21177531D01*
X9547682Y-21177531D02*
X9557205Y-21196579D01*
X9557205Y-21196579D02*
X9566729Y-21234674D01*
X9566729Y-21234674D02*
X9566729Y-21282293D01*
X9566729Y-21282293D02*
X9557205Y-21320389D01*
X9557205Y-21320389D02*
X9547682Y-21339436D01*
X9547682Y-21339436D02*
X9538158Y-21348960D01*
X9538158Y-21348960D02*
X9519110Y-21358484D01*
X9519110Y-21358484D02*
X9500063Y-21358484D01*
X9500063Y-21358484D02*
X9481015Y-21348960D01*
X9481015Y-21348960D02*
X9471491Y-21339436D01*
X9471491Y-21339436D02*
X9461967Y-21320389D01*
X9461967Y-21320389D02*
X9452444Y-21282293D01*
X9452444Y-21282293D02*
X9452444Y-21234674D01*
X9452444Y-21234674D02*
X9461967Y-21196579D01*
X9461967Y-21196579D02*
X9471491Y-21177531D01*
X9471491Y-21177531D02*
X9481015Y-21168008D01*
X9481015Y-21168008D02*
X9500063Y-21158484D01*
X9690539Y-21158484D02*
X9709586Y-21158484D01*
X9709586Y-21158484D02*
X9728634Y-21168008D01*
X9728634Y-21168008D02*
X9738158Y-21177531D01*
X9738158Y-21177531D02*
X9747682Y-21196579D01*
X9747682Y-21196579D02*
X9757205Y-21234674D01*
X9757205Y-21234674D02*
X9757205Y-21282293D01*
X9757205Y-21282293D02*
X9747682Y-21320389D01*
X9747682Y-21320389D02*
X9738158Y-21339436D01*
X9738158Y-21339436D02*
X9728634Y-21348960D01*
X9728634Y-21348960D02*
X9709586Y-21358484D01*
X9709586Y-21358484D02*
X9690539Y-21358484D01*
X9690539Y-21358484D02*
X9671491Y-21348960D01*
X9671491Y-21348960D02*
X9661967Y-21339436D01*
X9661967Y-21339436D02*
X9652444Y-21320389D01*
X9652444Y-21320389D02*
X9642920Y-21282293D01*
X9642920Y-21282293D02*
X9642920Y-21234674D01*
X9642920Y-21234674D02*
X9652444Y-21196579D01*
X9652444Y-21196579D02*
X9661967Y-21177531D01*
X9661967Y-21177531D02*
X9671491Y-21168008D01*
X9671491Y-21168008D02*
X9690539Y-21158484D01*
X9842920Y-21358484D02*
X9842920Y-21225150D01*
X9842920Y-21244198D02*
X9852444Y-21234674D01*
X9852444Y-21234674D02*
X9871491Y-21225150D01*
X9871491Y-21225150D02*
X9900063Y-21225150D01*
X9900063Y-21225150D02*
X9919110Y-21234674D01*
X9919110Y-21234674D02*
X9928634Y-21253722D01*
X9928634Y-21253722D02*
X9928634Y-21358484D01*
X9928634Y-21253722D02*
X9938158Y-21234674D01*
X9938158Y-21234674D02*
X9957205Y-21225150D01*
X9957205Y-21225150D02*
X9985777Y-21225150D01*
X9985777Y-21225150D02*
X10004825Y-21234674D01*
X10004825Y-21234674D02*
X10014348Y-21253722D01*
X10014348Y-21253722D02*
X10014348Y-21358484D01*
X10109586Y-21358484D02*
X10109586Y-21225150D01*
X10109586Y-21244198D02*
X10119110Y-21234674D01*
X10119110Y-21234674D02*
X10138158Y-21225150D01*
X10138158Y-21225150D02*
X10166729Y-21225150D01*
X10166729Y-21225150D02*
X10185777Y-21234674D01*
X10185777Y-21234674D02*
X10195301Y-21253722D01*
X10195301Y-21253722D02*
X10195301Y-21358484D01*
X10195301Y-21253722D02*
X10204825Y-21234674D01*
X10204825Y-21234674D02*
X10223872Y-21225150D01*
X10223872Y-21225150D02*
X10252444Y-21225150D01*
X10252444Y-21225150D02*
X10271491Y-21234674D01*
X10271491Y-21234674D02*
X10281015Y-21253722D01*
X10281015Y-21253722D02*
X10281015Y-21358484D01*
X10671491Y-21148960D02*
X10500063Y-21406103D01*
X10928634Y-21158484D02*
X10947682Y-21158484D01*
X10947682Y-21158484D02*
X10966729Y-21168008D01*
X10966729Y-21168008D02*
X10976253Y-21177531D01*
X10976253Y-21177531D02*
X10985777Y-21196579D01*
X10985777Y-21196579D02*
X10995301Y-21234674D01*
X10995301Y-21234674D02*
X10995301Y-21282293D01*
X10995301Y-21282293D02*
X10985777Y-21320389D01*
X10985777Y-21320389D02*
X10976253Y-21339436D01*
X10976253Y-21339436D02*
X10966729Y-21348960D01*
X10966729Y-21348960D02*
X10947682Y-21358484D01*
X10947682Y-21358484D02*
X10928634Y-21358484D01*
X10928634Y-21358484D02*
X10909587Y-21348960D01*
X10909587Y-21348960D02*
X10900063Y-21339436D01*
X10900063Y-21339436D02*
X10890539Y-21320389D01*
X10890539Y-21320389D02*
X10881015Y-21282293D01*
X10881015Y-21282293D02*
X10881015Y-21234674D01*
X10881015Y-21234674D02*
X10890539Y-21196579D01*
X10890539Y-21196579D02*
X10900063Y-21177531D01*
X10900063Y-21177531D02*
X10909587Y-21168008D01*
X10909587Y-21168008D02*
X10928634Y-21158484D01*
X11081015Y-21339436D02*
X11090539Y-21348960D01*
X11090539Y-21348960D02*
X11081015Y-21358484D01*
X11081015Y-21358484D02*
X11071491Y-21348960D01*
X11071491Y-21348960D02*
X11081015Y-21339436D01*
X11081015Y-21339436D02*
X11081015Y-21358484D01*
X11214348Y-21158484D02*
X11233396Y-21158484D01*
X11233396Y-21158484D02*
X11252444Y-21168008D01*
X11252444Y-21168008D02*
X11261967Y-21177531D01*
X11261967Y-21177531D02*
X11271491Y-21196579D01*
X11271491Y-21196579D02*
X11281015Y-21234674D01*
X11281015Y-21234674D02*
X11281015Y-21282293D01*
X11281015Y-21282293D02*
X11271491Y-21320389D01*
X11271491Y-21320389D02*
X11261967Y-21339436D01*
X11261967Y-21339436D02*
X11252444Y-21348960D01*
X11252444Y-21348960D02*
X11233396Y-21358484D01*
X11233396Y-21358484D02*
X11214348Y-21358484D01*
X11214348Y-21358484D02*
X11195301Y-21348960D01*
X11195301Y-21348960D02*
X11185777Y-21339436D01*
X11185777Y-21339436D02*
X11176253Y-21320389D01*
X11176253Y-21320389D02*
X11166729Y-21282293D01*
X11166729Y-21282293D02*
X11166729Y-21234674D01*
X11166729Y-21234674D02*
X11176253Y-21196579D01*
X11176253Y-21196579D02*
X11185777Y-21177531D01*
X11185777Y-21177531D02*
X11195301Y-21168008D01*
X11195301Y-21168008D02*
X11214348Y-21158484D01*
X11347682Y-21158484D02*
X11471491Y-21158484D01*
X11471491Y-21158484D02*
X11404825Y-21234674D01*
X11404825Y-21234674D02*
X11433396Y-21234674D01*
X11433396Y-21234674D02*
X11452444Y-21244198D01*
X11452444Y-21244198D02*
X11461967Y-21253722D01*
X11461967Y-21253722D02*
X11471491Y-21272770D01*
X11471491Y-21272770D02*
X11471491Y-21320389D01*
X11471491Y-21320389D02*
X11461967Y-21339436D01*
X11461967Y-21339436D02*
X11452444Y-21348960D01*
X11452444Y-21348960D02*
X11433396Y-21358484D01*
X11433396Y-21358484D02*
X11376253Y-21358484D01*
X11376253Y-21358484D02*
X11357206Y-21348960D01*
X11357206Y-21348960D02*
X11347682Y-21339436D01*
X11566729Y-21358484D02*
X11604825Y-21358484D01*
X11604825Y-21358484D02*
X11623872Y-21348960D01*
X11623872Y-21348960D02*
X11633396Y-21339436D01*
X11633396Y-21339436D02*
X11652444Y-21310865D01*
X11652444Y-21310865D02*
X11661967Y-21272770D01*
X11661967Y-21272770D02*
X11661967Y-21196579D01*
X11661967Y-21196579D02*
X11652444Y-21177531D01*
X11652444Y-21177531D02*
X11642920Y-21168008D01*
X11642920Y-21168008D02*
X11623872Y-21158484D01*
X11623872Y-21158484D02*
X11585777Y-21158484D01*
X11585777Y-21158484D02*
X11566729Y-21168008D01*
X11566729Y-21168008D02*
X11557206Y-21177531D01*
X11557206Y-21177531D02*
X11547682Y-21196579D01*
X11547682Y-21196579D02*
X11547682Y-21244198D01*
X11547682Y-21244198D02*
X11557206Y-21263246D01*
X11557206Y-21263246D02*
X11566729Y-21272770D01*
X11566729Y-21272770D02*
X11585777Y-21282293D01*
X11585777Y-21282293D02*
X11623872Y-21282293D01*
X11623872Y-21282293D02*
X11642920Y-21272770D01*
X11642920Y-21272770D02*
X11652444Y-21263246D01*
X11652444Y-21263246D02*
X11661967Y-21244198D01*
X11833396Y-21225150D02*
X11833396Y-21358484D01*
X11785777Y-21148960D02*
X11738158Y-21291817D01*
X11738158Y-21291817D02*
X11861967Y-21291817D01*
X11928634Y-21158484D02*
X11928634Y-21196579D01*
X12004825Y-21158484D02*
X12004825Y-21196579D01*
X12300063Y-21434674D02*
X12290539Y-21425150D01*
X12290539Y-21425150D02*
X12271491Y-21396579D01*
X12271491Y-21396579D02*
X12261968Y-21377531D01*
X12261968Y-21377531D02*
X12252444Y-21348960D01*
X12252444Y-21348960D02*
X12242920Y-21301341D01*
X12242920Y-21301341D02*
X12242920Y-21263246D01*
X12242920Y-21263246D02*
X12252444Y-21215627D01*
X12252444Y-21215627D02*
X12261968Y-21187055D01*
X12261968Y-21187055D02*
X12271491Y-21168008D01*
X12271491Y-21168008D02*
X12290539Y-21139436D01*
X12290539Y-21139436D02*
X12300063Y-21129912D01*
X12357206Y-21158484D02*
X12481015Y-21158484D01*
X12481015Y-21158484D02*
X12414348Y-21234674D01*
X12414348Y-21234674D02*
X12442920Y-21234674D01*
X12442920Y-21234674D02*
X12461968Y-21244198D01*
X12461968Y-21244198D02*
X12471491Y-21253722D01*
X12471491Y-21253722D02*
X12481015Y-21272770D01*
X12481015Y-21272770D02*
X12481015Y-21320389D01*
X12481015Y-21320389D02*
X12471491Y-21339436D01*
X12471491Y-21339436D02*
X12461968Y-21348960D01*
X12461968Y-21348960D02*
X12442920Y-21358484D01*
X12442920Y-21358484D02*
X12385777Y-21358484D01*
X12385777Y-21358484D02*
X12366729Y-21348960D01*
X12366729Y-21348960D02*
X12357206Y-21339436D01*
X12595301Y-21244198D02*
X12576253Y-21234674D01*
X12576253Y-21234674D02*
X12566729Y-21225150D01*
X12566729Y-21225150D02*
X12557206Y-21206103D01*
X12557206Y-21206103D02*
X12557206Y-21196579D01*
X12557206Y-21196579D02*
X12566729Y-21177531D01*
X12566729Y-21177531D02*
X12576253Y-21168008D01*
X12576253Y-21168008D02*
X12595301Y-21158484D01*
X12595301Y-21158484D02*
X12633396Y-21158484D01*
X12633396Y-21158484D02*
X12652444Y-21168008D01*
X12652444Y-21168008D02*
X12661968Y-21177531D01*
X12661968Y-21177531D02*
X12671491Y-21196579D01*
X12671491Y-21196579D02*
X12671491Y-21206103D01*
X12671491Y-21206103D02*
X12661968Y-21225150D01*
X12661968Y-21225150D02*
X12652444Y-21234674D01*
X12652444Y-21234674D02*
X12633396Y-21244198D01*
X12633396Y-21244198D02*
X12595301Y-21244198D01*
X12595301Y-21244198D02*
X12576253Y-21253722D01*
X12576253Y-21253722D02*
X12566729Y-21263246D01*
X12566729Y-21263246D02*
X12557206Y-21282293D01*
X12557206Y-21282293D02*
X12557206Y-21320389D01*
X12557206Y-21320389D02*
X12566729Y-21339436D01*
X12566729Y-21339436D02*
X12576253Y-21348960D01*
X12576253Y-21348960D02*
X12595301Y-21358484D01*
X12595301Y-21358484D02*
X12633396Y-21358484D01*
X12633396Y-21358484D02*
X12652444Y-21348960D01*
X12652444Y-21348960D02*
X12661968Y-21339436D01*
X12661968Y-21339436D02*
X12671491Y-21320389D01*
X12671491Y-21320389D02*
X12671491Y-21282293D01*
X12671491Y-21282293D02*
X12661968Y-21263246D01*
X12661968Y-21263246D02*
X12652444Y-21253722D01*
X12652444Y-21253722D02*
X12633396Y-21244198D01*
X12909587Y-21358484D02*
X12909587Y-21158484D01*
X12995301Y-21358484D02*
X12995301Y-21253722D01*
X12995301Y-21253722D02*
X12985777Y-21234674D01*
X12985777Y-21234674D02*
X12966730Y-21225150D01*
X12966730Y-21225150D02*
X12938158Y-21225150D01*
X12938158Y-21225150D02*
X12919110Y-21234674D01*
X12919110Y-21234674D02*
X12909587Y-21244198D01*
X13119110Y-21358484D02*
X13100063Y-21348960D01*
X13100063Y-21348960D02*
X13090539Y-21339436D01*
X13090539Y-21339436D02*
X13081015Y-21320389D01*
X13081015Y-21320389D02*
X13081015Y-21263246D01*
X13081015Y-21263246D02*
X13090539Y-21244198D01*
X13090539Y-21244198D02*
X13100063Y-21234674D01*
X13100063Y-21234674D02*
X13119110Y-21225150D01*
X13119110Y-21225150D02*
X13147682Y-21225150D01*
X13147682Y-21225150D02*
X13166730Y-21234674D01*
X13166730Y-21234674D02*
X13176253Y-21244198D01*
X13176253Y-21244198D02*
X13185777Y-21263246D01*
X13185777Y-21263246D02*
X13185777Y-21320389D01*
X13185777Y-21320389D02*
X13176253Y-21339436D01*
X13176253Y-21339436D02*
X13166730Y-21348960D01*
X13166730Y-21348960D02*
X13147682Y-21358484D01*
X13147682Y-21358484D02*
X13119110Y-21358484D01*
X13300063Y-21358484D02*
X13281015Y-21348960D01*
X13281015Y-21348960D02*
X13271491Y-21329912D01*
X13271491Y-21329912D02*
X13271491Y-21158484D01*
X13452444Y-21348960D02*
X13433396Y-21358484D01*
X13433396Y-21358484D02*
X13395301Y-21358484D01*
X13395301Y-21358484D02*
X13376253Y-21348960D01*
X13376253Y-21348960D02*
X13366730Y-21329912D01*
X13366730Y-21329912D02*
X13366730Y-21253722D01*
X13366730Y-21253722D02*
X13376253Y-21234674D01*
X13376253Y-21234674D02*
X13395301Y-21225150D01*
X13395301Y-21225150D02*
X13433396Y-21225150D01*
X13433396Y-21225150D02*
X13452444Y-21234674D01*
X13452444Y-21234674D02*
X13461968Y-21253722D01*
X13461968Y-21253722D02*
X13461968Y-21272770D01*
X13461968Y-21272770D02*
X13366730Y-21291817D01*
X13538158Y-21348960D02*
X13557206Y-21358484D01*
X13557206Y-21358484D02*
X13595301Y-21358484D01*
X13595301Y-21358484D02*
X13614349Y-21348960D01*
X13614349Y-21348960D02*
X13623872Y-21329912D01*
X13623872Y-21329912D02*
X13623872Y-21320389D01*
X13623872Y-21320389D02*
X13614349Y-21301341D01*
X13614349Y-21301341D02*
X13595301Y-21291817D01*
X13595301Y-21291817D02*
X13566730Y-21291817D01*
X13566730Y-21291817D02*
X13547682Y-21282293D01*
X13547682Y-21282293D02*
X13538158Y-21263246D01*
X13538158Y-21263246D02*
X13538158Y-21253722D01*
X13538158Y-21253722D02*
X13547682Y-21234674D01*
X13547682Y-21234674D02*
X13566730Y-21225150D01*
X13566730Y-21225150D02*
X13595301Y-21225150D01*
X13595301Y-21225150D02*
X13614349Y-21234674D01*
X13690539Y-21434674D02*
X13700063Y-21425150D01*
X13700063Y-21425150D02*
X13719111Y-21396579D01*
X13719111Y-21396579D02*
X13728634Y-21377531D01*
X13728634Y-21377531D02*
X13738158Y-21348960D01*
X13738158Y-21348960D02*
X13747682Y-21301341D01*
X13747682Y-21301341D02*
X13747682Y-21263246D01*
X13747682Y-21263246D02*
X13738158Y-21215627D01*
X13738158Y-21215627D02*
X13728634Y-21187055D01*
X13728634Y-21187055D02*
X13719111Y-21168008D01*
X13719111Y-21168008D02*
X13700063Y-21139436D01*
X13700063Y-21139436D02*
X13690539Y-21129912D01*
D12*
X8667624Y-21588376D02*
X8725000Y-21531000D01*
X8667624Y-21473624D01*
X8610248Y-21531000D01*
X8667624Y-21588376D01*
D11*
X9090539Y-21622484D02*
X8976253Y-21622484D01*
X9033396Y-21622484D02*
X9033396Y-21422484D01*
X9033396Y-21422484D02*
X9014348Y-21451055D01*
X9014348Y-21451055D02*
X8995301Y-21470103D01*
X8995301Y-21470103D02*
X8976253Y-21479627D01*
X9176253Y-21603436D02*
X9185777Y-21612960D01*
X9185777Y-21612960D02*
X9176253Y-21622484D01*
X9176253Y-21622484D02*
X9166729Y-21612960D01*
X9166729Y-21612960D02*
X9176253Y-21603436D01*
X9176253Y-21603436D02*
X9176253Y-21622484D01*
X9376253Y-21622484D02*
X9261967Y-21622484D01*
X9319110Y-21622484D02*
X9319110Y-21422484D01*
X9319110Y-21422484D02*
X9300063Y-21451055D01*
X9300063Y-21451055D02*
X9281015Y-21470103D01*
X9281015Y-21470103D02*
X9261967Y-21479627D01*
X9547682Y-21489150D02*
X9547682Y-21622484D01*
X9500063Y-21412960D02*
X9452444Y-21555817D01*
X9452444Y-21555817D02*
X9576253Y-21555817D01*
X9681015Y-21508198D02*
X9661967Y-21498674D01*
X9661967Y-21498674D02*
X9652444Y-21489150D01*
X9652444Y-21489150D02*
X9642920Y-21470103D01*
X9642920Y-21470103D02*
X9642920Y-21460579D01*
X9642920Y-21460579D02*
X9652444Y-21441531D01*
X9652444Y-21441531D02*
X9661967Y-21432008D01*
X9661967Y-21432008D02*
X9681015Y-21422484D01*
X9681015Y-21422484D02*
X9719110Y-21422484D01*
X9719110Y-21422484D02*
X9738158Y-21432008D01*
X9738158Y-21432008D02*
X9747682Y-21441531D01*
X9747682Y-21441531D02*
X9757205Y-21460579D01*
X9757205Y-21460579D02*
X9757205Y-21470103D01*
X9757205Y-21470103D02*
X9747682Y-21489150D01*
X9747682Y-21489150D02*
X9738158Y-21498674D01*
X9738158Y-21498674D02*
X9719110Y-21508198D01*
X9719110Y-21508198D02*
X9681015Y-21508198D01*
X9681015Y-21508198D02*
X9661967Y-21517722D01*
X9661967Y-21517722D02*
X9652444Y-21527246D01*
X9652444Y-21527246D02*
X9642920Y-21546293D01*
X9642920Y-21546293D02*
X9642920Y-21584389D01*
X9642920Y-21584389D02*
X9652444Y-21603436D01*
X9652444Y-21603436D02*
X9661967Y-21612960D01*
X9661967Y-21612960D02*
X9681015Y-21622484D01*
X9681015Y-21622484D02*
X9719110Y-21622484D01*
X9719110Y-21622484D02*
X9738158Y-21612960D01*
X9738158Y-21612960D02*
X9747682Y-21603436D01*
X9747682Y-21603436D02*
X9757205Y-21584389D01*
X9757205Y-21584389D02*
X9757205Y-21546293D01*
X9757205Y-21546293D02*
X9747682Y-21527246D01*
X9747682Y-21527246D02*
X9738158Y-21517722D01*
X9738158Y-21517722D02*
X9719110Y-21508198D01*
X9842920Y-21622484D02*
X9842920Y-21489150D01*
X9842920Y-21508198D02*
X9852444Y-21498674D01*
X9852444Y-21498674D02*
X9871491Y-21489150D01*
X9871491Y-21489150D02*
X9900063Y-21489150D01*
X9900063Y-21489150D02*
X9919110Y-21498674D01*
X9919110Y-21498674D02*
X9928634Y-21517722D01*
X9928634Y-21517722D02*
X9928634Y-21622484D01*
X9928634Y-21517722D02*
X9938158Y-21498674D01*
X9938158Y-21498674D02*
X9957205Y-21489150D01*
X9957205Y-21489150D02*
X9985777Y-21489150D01*
X9985777Y-21489150D02*
X10004825Y-21498674D01*
X10004825Y-21498674D02*
X10014348Y-21517722D01*
X10014348Y-21517722D02*
X10014348Y-21622484D01*
X10109586Y-21622484D02*
X10109586Y-21489150D01*
X10109586Y-21508198D02*
X10119110Y-21498674D01*
X10119110Y-21498674D02*
X10138158Y-21489150D01*
X10138158Y-21489150D02*
X10166729Y-21489150D01*
X10166729Y-21489150D02*
X10185777Y-21498674D01*
X10185777Y-21498674D02*
X10195301Y-21517722D01*
X10195301Y-21517722D02*
X10195301Y-21622484D01*
X10195301Y-21517722D02*
X10204825Y-21498674D01*
X10204825Y-21498674D02*
X10223872Y-21489150D01*
X10223872Y-21489150D02*
X10252444Y-21489150D01*
X10252444Y-21489150D02*
X10271491Y-21498674D01*
X10271491Y-21498674D02*
X10281015Y-21517722D01*
X10281015Y-21517722D02*
X10281015Y-21622484D01*
X10671491Y-21412960D02*
X10500063Y-21670103D01*
X10928634Y-21422484D02*
X10947682Y-21422484D01*
X10947682Y-21422484D02*
X10966729Y-21432008D01*
X10966729Y-21432008D02*
X10976253Y-21441531D01*
X10976253Y-21441531D02*
X10985777Y-21460579D01*
X10985777Y-21460579D02*
X10995301Y-21498674D01*
X10995301Y-21498674D02*
X10995301Y-21546293D01*
X10995301Y-21546293D02*
X10985777Y-21584389D01*
X10985777Y-21584389D02*
X10976253Y-21603436D01*
X10976253Y-21603436D02*
X10966729Y-21612960D01*
X10966729Y-21612960D02*
X10947682Y-21622484D01*
X10947682Y-21622484D02*
X10928634Y-21622484D01*
X10928634Y-21622484D02*
X10909587Y-21612960D01*
X10909587Y-21612960D02*
X10900063Y-21603436D01*
X10900063Y-21603436D02*
X10890539Y-21584389D01*
X10890539Y-21584389D02*
X10881015Y-21546293D01*
X10881015Y-21546293D02*
X10881015Y-21498674D01*
X10881015Y-21498674D02*
X10890539Y-21460579D01*
X10890539Y-21460579D02*
X10900063Y-21441531D01*
X10900063Y-21441531D02*
X10909587Y-21432008D01*
X10909587Y-21432008D02*
X10928634Y-21422484D01*
X11081015Y-21603436D02*
X11090539Y-21612960D01*
X11090539Y-21612960D02*
X11081015Y-21622484D01*
X11081015Y-21622484D02*
X11071491Y-21612960D01*
X11071491Y-21612960D02*
X11081015Y-21603436D01*
X11081015Y-21603436D02*
X11081015Y-21622484D01*
X11214348Y-21422484D02*
X11233396Y-21422484D01*
X11233396Y-21422484D02*
X11252444Y-21432008D01*
X11252444Y-21432008D02*
X11261967Y-21441531D01*
X11261967Y-21441531D02*
X11271491Y-21460579D01*
X11271491Y-21460579D02*
X11281015Y-21498674D01*
X11281015Y-21498674D02*
X11281015Y-21546293D01*
X11281015Y-21546293D02*
X11271491Y-21584389D01*
X11271491Y-21584389D02*
X11261967Y-21603436D01*
X11261967Y-21603436D02*
X11252444Y-21612960D01*
X11252444Y-21612960D02*
X11233396Y-21622484D01*
X11233396Y-21622484D02*
X11214348Y-21622484D01*
X11214348Y-21622484D02*
X11195301Y-21612960D01*
X11195301Y-21612960D02*
X11185777Y-21603436D01*
X11185777Y-21603436D02*
X11176253Y-21584389D01*
X11176253Y-21584389D02*
X11166729Y-21546293D01*
X11166729Y-21546293D02*
X11166729Y-21498674D01*
X11166729Y-21498674D02*
X11176253Y-21460579D01*
X11176253Y-21460579D02*
X11185777Y-21441531D01*
X11185777Y-21441531D02*
X11195301Y-21432008D01*
X11195301Y-21432008D02*
X11214348Y-21422484D01*
X11452444Y-21489150D02*
X11452444Y-21622484D01*
X11404825Y-21412960D02*
X11357206Y-21555817D01*
X11357206Y-21555817D02*
X11481015Y-21555817D01*
X11652444Y-21422484D02*
X11557206Y-21422484D01*
X11557206Y-21422484D02*
X11547682Y-21517722D01*
X11547682Y-21517722D02*
X11557206Y-21508198D01*
X11557206Y-21508198D02*
X11576253Y-21498674D01*
X11576253Y-21498674D02*
X11623872Y-21498674D01*
X11623872Y-21498674D02*
X11642920Y-21508198D01*
X11642920Y-21508198D02*
X11652444Y-21517722D01*
X11652444Y-21517722D02*
X11661967Y-21536770D01*
X11661967Y-21536770D02*
X11661967Y-21584389D01*
X11661967Y-21584389D02*
X11652444Y-21603436D01*
X11652444Y-21603436D02*
X11642920Y-21612960D01*
X11642920Y-21612960D02*
X11623872Y-21622484D01*
X11623872Y-21622484D02*
X11576253Y-21622484D01*
X11576253Y-21622484D02*
X11557206Y-21612960D01*
X11557206Y-21612960D02*
X11547682Y-21603436D01*
X11738158Y-21441531D02*
X11747682Y-21432008D01*
X11747682Y-21432008D02*
X11766729Y-21422484D01*
X11766729Y-21422484D02*
X11814348Y-21422484D01*
X11814348Y-21422484D02*
X11833396Y-21432008D01*
X11833396Y-21432008D02*
X11842920Y-21441531D01*
X11842920Y-21441531D02*
X11852444Y-21460579D01*
X11852444Y-21460579D02*
X11852444Y-21479627D01*
X11852444Y-21479627D02*
X11842920Y-21508198D01*
X11842920Y-21508198D02*
X11728634Y-21622484D01*
X11728634Y-21622484D02*
X11852444Y-21622484D01*
X11928634Y-21422484D02*
X11928634Y-21460579D01*
X12004825Y-21422484D02*
X12004825Y-21460579D01*
X12300063Y-21698674D02*
X12290539Y-21689150D01*
X12290539Y-21689150D02*
X12271491Y-21660579D01*
X12271491Y-21660579D02*
X12261968Y-21641531D01*
X12261968Y-21641531D02*
X12252444Y-21612960D01*
X12252444Y-21612960D02*
X12242920Y-21565341D01*
X12242920Y-21565341D02*
X12242920Y-21527246D01*
X12242920Y-21527246D02*
X12252444Y-21479627D01*
X12252444Y-21479627D02*
X12261968Y-21451055D01*
X12261968Y-21451055D02*
X12271491Y-21432008D01*
X12271491Y-21432008D02*
X12290539Y-21403436D01*
X12290539Y-21403436D02*
X12300063Y-21393912D01*
X12366729Y-21441531D02*
X12376253Y-21432008D01*
X12376253Y-21432008D02*
X12395301Y-21422484D01*
X12395301Y-21422484D02*
X12442920Y-21422484D01*
X12442920Y-21422484D02*
X12461968Y-21432008D01*
X12461968Y-21432008D02*
X12471491Y-21441531D01*
X12471491Y-21441531D02*
X12481015Y-21460579D01*
X12481015Y-21460579D02*
X12481015Y-21479627D01*
X12481015Y-21479627D02*
X12471491Y-21508198D01*
X12471491Y-21508198D02*
X12357206Y-21622484D01*
X12357206Y-21622484D02*
X12481015Y-21622484D01*
X12661968Y-21422484D02*
X12566729Y-21422484D01*
X12566729Y-21422484D02*
X12557206Y-21517722D01*
X12557206Y-21517722D02*
X12566729Y-21508198D01*
X12566729Y-21508198D02*
X12585777Y-21498674D01*
X12585777Y-21498674D02*
X12633396Y-21498674D01*
X12633396Y-21498674D02*
X12652444Y-21508198D01*
X12652444Y-21508198D02*
X12661968Y-21517722D01*
X12661968Y-21517722D02*
X12671491Y-21536770D01*
X12671491Y-21536770D02*
X12671491Y-21584389D01*
X12671491Y-21584389D02*
X12661968Y-21603436D01*
X12661968Y-21603436D02*
X12652444Y-21612960D01*
X12652444Y-21612960D02*
X12633396Y-21622484D01*
X12633396Y-21622484D02*
X12585777Y-21622484D01*
X12585777Y-21622484D02*
X12566729Y-21612960D01*
X12566729Y-21612960D02*
X12557206Y-21603436D01*
X12909587Y-21622484D02*
X12909587Y-21422484D01*
X12995301Y-21622484D02*
X12995301Y-21517722D01*
X12995301Y-21517722D02*
X12985777Y-21498674D01*
X12985777Y-21498674D02*
X12966730Y-21489150D01*
X12966730Y-21489150D02*
X12938158Y-21489150D01*
X12938158Y-21489150D02*
X12919110Y-21498674D01*
X12919110Y-21498674D02*
X12909587Y-21508198D01*
X13119110Y-21622484D02*
X13100063Y-21612960D01*
X13100063Y-21612960D02*
X13090539Y-21603436D01*
X13090539Y-21603436D02*
X13081015Y-21584389D01*
X13081015Y-21584389D02*
X13081015Y-21527246D01*
X13081015Y-21527246D02*
X13090539Y-21508198D01*
X13090539Y-21508198D02*
X13100063Y-21498674D01*
X13100063Y-21498674D02*
X13119110Y-21489150D01*
X13119110Y-21489150D02*
X13147682Y-21489150D01*
X13147682Y-21489150D02*
X13166730Y-21498674D01*
X13166730Y-21498674D02*
X13176253Y-21508198D01*
X13176253Y-21508198D02*
X13185777Y-21527246D01*
X13185777Y-21527246D02*
X13185777Y-21584389D01*
X13185777Y-21584389D02*
X13176253Y-21603436D01*
X13176253Y-21603436D02*
X13166730Y-21612960D01*
X13166730Y-21612960D02*
X13147682Y-21622484D01*
X13147682Y-21622484D02*
X13119110Y-21622484D01*
X13300063Y-21622484D02*
X13281015Y-21612960D01*
X13281015Y-21612960D02*
X13271491Y-21593912D01*
X13271491Y-21593912D02*
X13271491Y-21422484D01*
X13452444Y-21612960D02*
X13433396Y-21622484D01*
X13433396Y-21622484D02*
X13395301Y-21622484D01*
X13395301Y-21622484D02*
X13376253Y-21612960D01*
X13376253Y-21612960D02*
X13366730Y-21593912D01*
X13366730Y-21593912D02*
X13366730Y-21517722D01*
X13366730Y-21517722D02*
X13376253Y-21498674D01*
X13376253Y-21498674D02*
X13395301Y-21489150D01*
X13395301Y-21489150D02*
X13433396Y-21489150D01*
X13433396Y-21489150D02*
X13452444Y-21498674D01*
X13452444Y-21498674D02*
X13461968Y-21517722D01*
X13461968Y-21517722D02*
X13461968Y-21536770D01*
X13461968Y-21536770D02*
X13366730Y-21555817D01*
X13538158Y-21612960D02*
X13557206Y-21622484D01*
X13557206Y-21622484D02*
X13595301Y-21622484D01*
X13595301Y-21622484D02*
X13614349Y-21612960D01*
X13614349Y-21612960D02*
X13623872Y-21593912D01*
X13623872Y-21593912D02*
X13623872Y-21584389D01*
X13623872Y-21584389D02*
X13614349Y-21565341D01*
X13614349Y-21565341D02*
X13595301Y-21555817D01*
X13595301Y-21555817D02*
X13566730Y-21555817D01*
X13566730Y-21555817D02*
X13547682Y-21546293D01*
X13547682Y-21546293D02*
X13538158Y-21527246D01*
X13538158Y-21527246D02*
X13538158Y-21517722D01*
X13538158Y-21517722D02*
X13547682Y-21498674D01*
X13547682Y-21498674D02*
X13566730Y-21489150D01*
X13566730Y-21489150D02*
X13595301Y-21489150D01*
X13595301Y-21489150D02*
X13614349Y-21498674D01*
X13690539Y-21698674D02*
X13700063Y-21689150D01*
X13700063Y-21689150D02*
X13719111Y-21660579D01*
X13719111Y-21660579D02*
X13728634Y-21641531D01*
X13728634Y-21641531D02*
X13738158Y-21612960D01*
X13738158Y-21612960D02*
X13747682Y-21565341D01*
X13747682Y-21565341D02*
X13747682Y-21527246D01*
X13747682Y-21527246D02*
X13738158Y-21479627D01*
X13738158Y-21479627D02*
X13728634Y-21451055D01*
X13728634Y-21451055D02*
X13719111Y-21432008D01*
X13719111Y-21432008D02*
X13700063Y-21403436D01*
X13700063Y-21403436D02*
X13690539Y-21393912D01*
D13*
X8605000Y-21735000D02*
X8725000Y-21855000D01*
X8725000Y-21735000D02*
X8605000Y-21855000D01*
X8725000Y-21795000D02*
G75*
G03*
X8725000Y-21795000I-60000J0D01*
G01*
D11*
X9090539Y-21886484D02*
X8976253Y-21886484D01*
X9033396Y-21886484D02*
X9033396Y-21686484D01*
X9033396Y-21686484D02*
X9014348Y-21715055D01*
X9014348Y-21715055D02*
X8995301Y-21734103D01*
X8995301Y-21734103D02*
X8976253Y-21743627D01*
X9176253Y-21867436D02*
X9185777Y-21876960D01*
X9185777Y-21876960D02*
X9176253Y-21886484D01*
X9176253Y-21886484D02*
X9166729Y-21876960D01*
X9166729Y-21876960D02*
X9176253Y-21867436D01*
X9176253Y-21867436D02*
X9176253Y-21886484D01*
X9261967Y-21705531D02*
X9271491Y-21696008D01*
X9271491Y-21696008D02*
X9290539Y-21686484D01*
X9290539Y-21686484D02*
X9338158Y-21686484D01*
X9338158Y-21686484D02*
X9357205Y-21696008D01*
X9357205Y-21696008D02*
X9366729Y-21705531D01*
X9366729Y-21705531D02*
X9376253Y-21724579D01*
X9376253Y-21724579D02*
X9376253Y-21743627D01*
X9376253Y-21743627D02*
X9366729Y-21772198D01*
X9366729Y-21772198D02*
X9252444Y-21886484D01*
X9252444Y-21886484D02*
X9376253Y-21886484D01*
X9500063Y-21686484D02*
X9519110Y-21686484D01*
X9519110Y-21686484D02*
X9538158Y-21696008D01*
X9538158Y-21696008D02*
X9547682Y-21705531D01*
X9547682Y-21705531D02*
X9557205Y-21724579D01*
X9557205Y-21724579D02*
X9566729Y-21762674D01*
X9566729Y-21762674D02*
X9566729Y-21810293D01*
X9566729Y-21810293D02*
X9557205Y-21848389D01*
X9557205Y-21848389D02*
X9547682Y-21867436D01*
X9547682Y-21867436D02*
X9538158Y-21876960D01*
X9538158Y-21876960D02*
X9519110Y-21886484D01*
X9519110Y-21886484D02*
X9500063Y-21886484D01*
X9500063Y-21886484D02*
X9481015Y-21876960D01*
X9481015Y-21876960D02*
X9471491Y-21867436D01*
X9471491Y-21867436D02*
X9461967Y-21848389D01*
X9461967Y-21848389D02*
X9452444Y-21810293D01*
X9452444Y-21810293D02*
X9452444Y-21762674D01*
X9452444Y-21762674D02*
X9461967Y-21724579D01*
X9461967Y-21724579D02*
X9471491Y-21705531D01*
X9471491Y-21705531D02*
X9481015Y-21696008D01*
X9481015Y-21696008D02*
X9500063Y-21686484D01*
X9690539Y-21686484D02*
X9709586Y-21686484D01*
X9709586Y-21686484D02*
X9728634Y-21696008D01*
X9728634Y-21696008D02*
X9738158Y-21705531D01*
X9738158Y-21705531D02*
X9747682Y-21724579D01*
X9747682Y-21724579D02*
X9757205Y-21762674D01*
X9757205Y-21762674D02*
X9757205Y-21810293D01*
X9757205Y-21810293D02*
X9747682Y-21848389D01*
X9747682Y-21848389D02*
X9738158Y-21867436D01*
X9738158Y-21867436D02*
X9728634Y-21876960D01*
X9728634Y-21876960D02*
X9709586Y-21886484D01*
X9709586Y-21886484D02*
X9690539Y-21886484D01*
X9690539Y-21886484D02*
X9671491Y-21876960D01*
X9671491Y-21876960D02*
X9661967Y-21867436D01*
X9661967Y-21867436D02*
X9652444Y-21848389D01*
X9652444Y-21848389D02*
X9642920Y-21810293D01*
X9642920Y-21810293D02*
X9642920Y-21762674D01*
X9642920Y-21762674D02*
X9652444Y-21724579D01*
X9652444Y-21724579D02*
X9661967Y-21705531D01*
X9661967Y-21705531D02*
X9671491Y-21696008D01*
X9671491Y-21696008D02*
X9690539Y-21686484D01*
X9842920Y-21886484D02*
X9842920Y-21753150D01*
X9842920Y-21772198D02*
X9852444Y-21762674D01*
X9852444Y-21762674D02*
X9871491Y-21753150D01*
X9871491Y-21753150D02*
X9900063Y-21753150D01*
X9900063Y-21753150D02*
X9919110Y-21762674D01*
X9919110Y-21762674D02*
X9928634Y-21781722D01*
X9928634Y-21781722D02*
X9928634Y-21886484D01*
X9928634Y-21781722D02*
X9938158Y-21762674D01*
X9938158Y-21762674D02*
X9957205Y-21753150D01*
X9957205Y-21753150D02*
X9985777Y-21753150D01*
X9985777Y-21753150D02*
X10004825Y-21762674D01*
X10004825Y-21762674D02*
X10014348Y-21781722D01*
X10014348Y-21781722D02*
X10014348Y-21886484D01*
X10109586Y-21886484D02*
X10109586Y-21753150D01*
X10109586Y-21772198D02*
X10119110Y-21762674D01*
X10119110Y-21762674D02*
X10138158Y-21753150D01*
X10138158Y-21753150D02*
X10166729Y-21753150D01*
X10166729Y-21753150D02*
X10185777Y-21762674D01*
X10185777Y-21762674D02*
X10195301Y-21781722D01*
X10195301Y-21781722D02*
X10195301Y-21886484D01*
X10195301Y-21781722D02*
X10204825Y-21762674D01*
X10204825Y-21762674D02*
X10223872Y-21753150D01*
X10223872Y-21753150D02*
X10252444Y-21753150D01*
X10252444Y-21753150D02*
X10271491Y-21762674D01*
X10271491Y-21762674D02*
X10281015Y-21781722D01*
X10281015Y-21781722D02*
X10281015Y-21886484D01*
X10671491Y-21676960D02*
X10500063Y-21934103D01*
X10928634Y-21686484D02*
X10947682Y-21686484D01*
X10947682Y-21686484D02*
X10966729Y-21696008D01*
X10966729Y-21696008D02*
X10976253Y-21705531D01*
X10976253Y-21705531D02*
X10985777Y-21724579D01*
X10985777Y-21724579D02*
X10995301Y-21762674D01*
X10995301Y-21762674D02*
X10995301Y-21810293D01*
X10995301Y-21810293D02*
X10985777Y-21848389D01*
X10985777Y-21848389D02*
X10976253Y-21867436D01*
X10976253Y-21867436D02*
X10966729Y-21876960D01*
X10966729Y-21876960D02*
X10947682Y-21886484D01*
X10947682Y-21886484D02*
X10928634Y-21886484D01*
X10928634Y-21886484D02*
X10909587Y-21876960D01*
X10909587Y-21876960D02*
X10900063Y-21867436D01*
X10900063Y-21867436D02*
X10890539Y-21848389D01*
X10890539Y-21848389D02*
X10881015Y-21810293D01*
X10881015Y-21810293D02*
X10881015Y-21762674D01*
X10881015Y-21762674D02*
X10890539Y-21724579D01*
X10890539Y-21724579D02*
X10900063Y-21705531D01*
X10900063Y-21705531D02*
X10909587Y-21696008D01*
X10909587Y-21696008D02*
X10928634Y-21686484D01*
X11081015Y-21867436D02*
X11090539Y-21876960D01*
X11090539Y-21876960D02*
X11081015Y-21886484D01*
X11081015Y-21886484D02*
X11071491Y-21876960D01*
X11071491Y-21876960D02*
X11081015Y-21867436D01*
X11081015Y-21867436D02*
X11081015Y-21886484D01*
X11214348Y-21686484D02*
X11233396Y-21686484D01*
X11233396Y-21686484D02*
X11252444Y-21696008D01*
X11252444Y-21696008D02*
X11261967Y-21705531D01*
X11261967Y-21705531D02*
X11271491Y-21724579D01*
X11271491Y-21724579D02*
X11281015Y-21762674D01*
X11281015Y-21762674D02*
X11281015Y-21810293D01*
X11281015Y-21810293D02*
X11271491Y-21848389D01*
X11271491Y-21848389D02*
X11261967Y-21867436D01*
X11261967Y-21867436D02*
X11252444Y-21876960D01*
X11252444Y-21876960D02*
X11233396Y-21886484D01*
X11233396Y-21886484D02*
X11214348Y-21886484D01*
X11214348Y-21886484D02*
X11195301Y-21876960D01*
X11195301Y-21876960D02*
X11185777Y-21867436D01*
X11185777Y-21867436D02*
X11176253Y-21848389D01*
X11176253Y-21848389D02*
X11166729Y-21810293D01*
X11166729Y-21810293D02*
X11166729Y-21762674D01*
X11166729Y-21762674D02*
X11176253Y-21724579D01*
X11176253Y-21724579D02*
X11185777Y-21705531D01*
X11185777Y-21705531D02*
X11195301Y-21696008D01*
X11195301Y-21696008D02*
X11214348Y-21686484D01*
X11452444Y-21753150D02*
X11452444Y-21886484D01*
X11404825Y-21676960D02*
X11357206Y-21819817D01*
X11357206Y-21819817D02*
X11481015Y-21819817D01*
X11538158Y-21686484D02*
X11671491Y-21686484D01*
X11671491Y-21686484D02*
X11585777Y-21886484D01*
X11738158Y-21705531D02*
X11747682Y-21696008D01*
X11747682Y-21696008D02*
X11766729Y-21686484D01*
X11766729Y-21686484D02*
X11814348Y-21686484D01*
X11814348Y-21686484D02*
X11833396Y-21696008D01*
X11833396Y-21696008D02*
X11842920Y-21705531D01*
X11842920Y-21705531D02*
X11852444Y-21724579D01*
X11852444Y-21724579D02*
X11852444Y-21743627D01*
X11852444Y-21743627D02*
X11842920Y-21772198D01*
X11842920Y-21772198D02*
X11728634Y-21886484D01*
X11728634Y-21886484D02*
X11852444Y-21886484D01*
X11928634Y-21686484D02*
X11928634Y-21724579D01*
X12004825Y-21686484D02*
X12004825Y-21724579D01*
X12300063Y-21962674D02*
X12290539Y-21953150D01*
X12290539Y-21953150D02*
X12271491Y-21924579D01*
X12271491Y-21924579D02*
X12261968Y-21905531D01*
X12261968Y-21905531D02*
X12252444Y-21876960D01*
X12252444Y-21876960D02*
X12242920Y-21829341D01*
X12242920Y-21829341D02*
X12242920Y-21791246D01*
X12242920Y-21791246D02*
X12252444Y-21743627D01*
X12252444Y-21743627D02*
X12261968Y-21715055D01*
X12261968Y-21715055D02*
X12271491Y-21696008D01*
X12271491Y-21696008D02*
X12290539Y-21667436D01*
X12290539Y-21667436D02*
X12300063Y-21657912D01*
X12481015Y-21886484D02*
X12366729Y-21886484D01*
X12423872Y-21886484D02*
X12423872Y-21686484D01*
X12423872Y-21686484D02*
X12404825Y-21715055D01*
X12404825Y-21715055D02*
X12385777Y-21734103D01*
X12385777Y-21734103D02*
X12366729Y-21743627D01*
X12557206Y-21705531D02*
X12566729Y-21696008D01*
X12566729Y-21696008D02*
X12585777Y-21686484D01*
X12585777Y-21686484D02*
X12633396Y-21686484D01*
X12633396Y-21686484D02*
X12652444Y-21696008D01*
X12652444Y-21696008D02*
X12661968Y-21705531D01*
X12661968Y-21705531D02*
X12671491Y-21724579D01*
X12671491Y-21724579D02*
X12671491Y-21743627D01*
X12671491Y-21743627D02*
X12661968Y-21772198D01*
X12661968Y-21772198D02*
X12547682Y-21886484D01*
X12547682Y-21886484D02*
X12671491Y-21886484D01*
X12909587Y-21886484D02*
X12909587Y-21686484D01*
X12995301Y-21886484D02*
X12995301Y-21781722D01*
X12995301Y-21781722D02*
X12985777Y-21762674D01*
X12985777Y-21762674D02*
X12966730Y-21753150D01*
X12966730Y-21753150D02*
X12938158Y-21753150D01*
X12938158Y-21753150D02*
X12919110Y-21762674D01*
X12919110Y-21762674D02*
X12909587Y-21772198D01*
X13119110Y-21886484D02*
X13100063Y-21876960D01*
X13100063Y-21876960D02*
X13090539Y-21867436D01*
X13090539Y-21867436D02*
X13081015Y-21848389D01*
X13081015Y-21848389D02*
X13081015Y-21791246D01*
X13081015Y-21791246D02*
X13090539Y-21772198D01*
X13090539Y-21772198D02*
X13100063Y-21762674D01*
X13100063Y-21762674D02*
X13119110Y-21753150D01*
X13119110Y-21753150D02*
X13147682Y-21753150D01*
X13147682Y-21753150D02*
X13166730Y-21762674D01*
X13166730Y-21762674D02*
X13176253Y-21772198D01*
X13176253Y-21772198D02*
X13185777Y-21791246D01*
X13185777Y-21791246D02*
X13185777Y-21848389D01*
X13185777Y-21848389D02*
X13176253Y-21867436D01*
X13176253Y-21867436D02*
X13166730Y-21876960D01*
X13166730Y-21876960D02*
X13147682Y-21886484D01*
X13147682Y-21886484D02*
X13119110Y-21886484D01*
X13300063Y-21886484D02*
X13281015Y-21876960D01*
X13281015Y-21876960D02*
X13271491Y-21857912D01*
X13271491Y-21857912D02*
X13271491Y-21686484D01*
X13452444Y-21876960D02*
X13433396Y-21886484D01*
X13433396Y-21886484D02*
X13395301Y-21886484D01*
X13395301Y-21886484D02*
X13376253Y-21876960D01*
X13376253Y-21876960D02*
X13366730Y-21857912D01*
X13366730Y-21857912D02*
X13366730Y-21781722D01*
X13366730Y-21781722D02*
X13376253Y-21762674D01*
X13376253Y-21762674D02*
X13395301Y-21753150D01*
X13395301Y-21753150D02*
X13433396Y-21753150D01*
X13433396Y-21753150D02*
X13452444Y-21762674D01*
X13452444Y-21762674D02*
X13461968Y-21781722D01*
X13461968Y-21781722D02*
X13461968Y-21800770D01*
X13461968Y-21800770D02*
X13366730Y-21819817D01*
X13538158Y-21876960D02*
X13557206Y-21886484D01*
X13557206Y-21886484D02*
X13595301Y-21886484D01*
X13595301Y-21886484D02*
X13614349Y-21876960D01*
X13614349Y-21876960D02*
X13623872Y-21857912D01*
X13623872Y-21857912D02*
X13623872Y-21848389D01*
X13623872Y-21848389D02*
X13614349Y-21829341D01*
X13614349Y-21829341D02*
X13595301Y-21819817D01*
X13595301Y-21819817D02*
X13566730Y-21819817D01*
X13566730Y-21819817D02*
X13547682Y-21810293D01*
X13547682Y-21810293D02*
X13538158Y-21791246D01*
X13538158Y-21791246D02*
X13538158Y-21781722D01*
X13538158Y-21781722D02*
X13547682Y-21762674D01*
X13547682Y-21762674D02*
X13566730Y-21753150D01*
X13566730Y-21753150D02*
X13595301Y-21753150D01*
X13595301Y-21753150D02*
X13614349Y-21762674D01*
X13690539Y-21962674D02*
X13700063Y-21953150D01*
X13700063Y-21953150D02*
X13719111Y-21924579D01*
X13719111Y-21924579D02*
X13728634Y-21905531D01*
X13728634Y-21905531D02*
X13738158Y-21876960D01*
X13738158Y-21876960D02*
X13747682Y-21829341D01*
X13747682Y-21829341D02*
X13747682Y-21791246D01*
X13747682Y-21791246D02*
X13738158Y-21743627D01*
X13738158Y-21743627D02*
X13728634Y-21715055D01*
X13728634Y-21715055D02*
X13719111Y-21696008D01*
X13719111Y-21696008D02*
X13700063Y-21667436D01*
X13700063Y-21667436D02*
X13690539Y-21657912D01*
D14*
X8595000Y-21994000D02*
X8725000Y-22124000D01*
X8725000Y-21994000D02*
X8595000Y-22124000D01*
X8660000Y-21994000D02*
X8660000Y-22124000D01*
X8595000Y-22059000D02*
X8725000Y-22059000D01*
D11*
X9090539Y-22150484D02*
X8976253Y-22150484D01*
X9033396Y-22150484D02*
X9033396Y-21950484D01*
X9033396Y-21950484D02*
X9014348Y-21979055D01*
X9014348Y-21979055D02*
X8995301Y-21998103D01*
X8995301Y-21998103D02*
X8976253Y-22007627D01*
X9176253Y-22131436D02*
X9185777Y-22140960D01*
X9185777Y-22140960D02*
X9176253Y-22150484D01*
X9176253Y-22150484D02*
X9166729Y-22140960D01*
X9166729Y-22140960D02*
X9176253Y-22131436D01*
X9176253Y-22131436D02*
X9176253Y-22150484D01*
X9252444Y-21950484D02*
X9376253Y-21950484D01*
X9376253Y-21950484D02*
X9309586Y-22026674D01*
X9309586Y-22026674D02*
X9338158Y-22026674D01*
X9338158Y-22026674D02*
X9357205Y-22036198D01*
X9357205Y-22036198D02*
X9366729Y-22045722D01*
X9366729Y-22045722D02*
X9376253Y-22064770D01*
X9376253Y-22064770D02*
X9376253Y-22112389D01*
X9376253Y-22112389D02*
X9366729Y-22131436D01*
X9366729Y-22131436D02*
X9357205Y-22140960D01*
X9357205Y-22140960D02*
X9338158Y-22150484D01*
X9338158Y-22150484D02*
X9281015Y-22150484D01*
X9281015Y-22150484D02*
X9261967Y-22140960D01*
X9261967Y-22140960D02*
X9252444Y-22131436D01*
X9500063Y-21950484D02*
X9519110Y-21950484D01*
X9519110Y-21950484D02*
X9538158Y-21960008D01*
X9538158Y-21960008D02*
X9547682Y-21969531D01*
X9547682Y-21969531D02*
X9557205Y-21988579D01*
X9557205Y-21988579D02*
X9566729Y-22026674D01*
X9566729Y-22026674D02*
X9566729Y-22074293D01*
X9566729Y-22074293D02*
X9557205Y-22112389D01*
X9557205Y-22112389D02*
X9547682Y-22131436D01*
X9547682Y-22131436D02*
X9538158Y-22140960D01*
X9538158Y-22140960D02*
X9519110Y-22150484D01*
X9519110Y-22150484D02*
X9500063Y-22150484D01*
X9500063Y-22150484D02*
X9481015Y-22140960D01*
X9481015Y-22140960D02*
X9471491Y-22131436D01*
X9471491Y-22131436D02*
X9461967Y-22112389D01*
X9461967Y-22112389D02*
X9452444Y-22074293D01*
X9452444Y-22074293D02*
X9452444Y-22026674D01*
X9452444Y-22026674D02*
X9461967Y-21988579D01*
X9461967Y-21988579D02*
X9471491Y-21969531D01*
X9471491Y-21969531D02*
X9481015Y-21960008D01*
X9481015Y-21960008D02*
X9500063Y-21950484D01*
X9690539Y-21950484D02*
X9709586Y-21950484D01*
X9709586Y-21950484D02*
X9728634Y-21960008D01*
X9728634Y-21960008D02*
X9738158Y-21969531D01*
X9738158Y-21969531D02*
X9747682Y-21988579D01*
X9747682Y-21988579D02*
X9757205Y-22026674D01*
X9757205Y-22026674D02*
X9757205Y-22074293D01*
X9757205Y-22074293D02*
X9747682Y-22112389D01*
X9747682Y-22112389D02*
X9738158Y-22131436D01*
X9738158Y-22131436D02*
X9728634Y-22140960D01*
X9728634Y-22140960D02*
X9709586Y-22150484D01*
X9709586Y-22150484D02*
X9690539Y-22150484D01*
X9690539Y-22150484D02*
X9671491Y-22140960D01*
X9671491Y-22140960D02*
X9661967Y-22131436D01*
X9661967Y-22131436D02*
X9652444Y-22112389D01*
X9652444Y-22112389D02*
X9642920Y-22074293D01*
X9642920Y-22074293D02*
X9642920Y-22026674D01*
X9642920Y-22026674D02*
X9652444Y-21988579D01*
X9652444Y-21988579D02*
X9661967Y-21969531D01*
X9661967Y-21969531D02*
X9671491Y-21960008D01*
X9671491Y-21960008D02*
X9690539Y-21950484D01*
X9842920Y-22150484D02*
X9842920Y-22017150D01*
X9842920Y-22036198D02*
X9852444Y-22026674D01*
X9852444Y-22026674D02*
X9871491Y-22017150D01*
X9871491Y-22017150D02*
X9900063Y-22017150D01*
X9900063Y-22017150D02*
X9919110Y-22026674D01*
X9919110Y-22026674D02*
X9928634Y-22045722D01*
X9928634Y-22045722D02*
X9928634Y-22150484D01*
X9928634Y-22045722D02*
X9938158Y-22026674D01*
X9938158Y-22026674D02*
X9957205Y-22017150D01*
X9957205Y-22017150D02*
X9985777Y-22017150D01*
X9985777Y-22017150D02*
X10004825Y-22026674D01*
X10004825Y-22026674D02*
X10014348Y-22045722D01*
X10014348Y-22045722D02*
X10014348Y-22150484D01*
X10109586Y-22150484D02*
X10109586Y-22017150D01*
X10109586Y-22036198D02*
X10119110Y-22026674D01*
X10119110Y-22026674D02*
X10138158Y-22017150D01*
X10138158Y-22017150D02*
X10166729Y-22017150D01*
X10166729Y-22017150D02*
X10185777Y-22026674D01*
X10185777Y-22026674D02*
X10195301Y-22045722D01*
X10195301Y-22045722D02*
X10195301Y-22150484D01*
X10195301Y-22045722D02*
X10204825Y-22026674D01*
X10204825Y-22026674D02*
X10223872Y-22017150D01*
X10223872Y-22017150D02*
X10252444Y-22017150D01*
X10252444Y-22017150D02*
X10271491Y-22026674D01*
X10271491Y-22026674D02*
X10281015Y-22045722D01*
X10281015Y-22045722D02*
X10281015Y-22150484D01*
X10671491Y-21940960D02*
X10500063Y-22198103D01*
X10928634Y-21950484D02*
X10947682Y-21950484D01*
X10947682Y-21950484D02*
X10966729Y-21960008D01*
X10966729Y-21960008D02*
X10976253Y-21969531D01*
X10976253Y-21969531D02*
X10985777Y-21988579D01*
X10985777Y-21988579D02*
X10995301Y-22026674D01*
X10995301Y-22026674D02*
X10995301Y-22074293D01*
X10995301Y-22074293D02*
X10985777Y-22112389D01*
X10985777Y-22112389D02*
X10976253Y-22131436D01*
X10976253Y-22131436D02*
X10966729Y-22140960D01*
X10966729Y-22140960D02*
X10947682Y-22150484D01*
X10947682Y-22150484D02*
X10928634Y-22150484D01*
X10928634Y-22150484D02*
X10909587Y-22140960D01*
X10909587Y-22140960D02*
X10900063Y-22131436D01*
X10900063Y-22131436D02*
X10890539Y-22112389D01*
X10890539Y-22112389D02*
X10881015Y-22074293D01*
X10881015Y-22074293D02*
X10881015Y-22026674D01*
X10881015Y-22026674D02*
X10890539Y-21988579D01*
X10890539Y-21988579D02*
X10900063Y-21969531D01*
X10900063Y-21969531D02*
X10909587Y-21960008D01*
X10909587Y-21960008D02*
X10928634Y-21950484D01*
X11081015Y-22131436D02*
X11090539Y-22140960D01*
X11090539Y-22140960D02*
X11081015Y-22150484D01*
X11081015Y-22150484D02*
X11071491Y-22140960D01*
X11071491Y-22140960D02*
X11081015Y-22131436D01*
X11081015Y-22131436D02*
X11081015Y-22150484D01*
X11214348Y-21950484D02*
X11233396Y-21950484D01*
X11233396Y-21950484D02*
X11252444Y-21960008D01*
X11252444Y-21960008D02*
X11261967Y-21969531D01*
X11261967Y-21969531D02*
X11271491Y-21988579D01*
X11271491Y-21988579D02*
X11281015Y-22026674D01*
X11281015Y-22026674D02*
X11281015Y-22074293D01*
X11281015Y-22074293D02*
X11271491Y-22112389D01*
X11271491Y-22112389D02*
X11261967Y-22131436D01*
X11261967Y-22131436D02*
X11252444Y-22140960D01*
X11252444Y-22140960D02*
X11233396Y-22150484D01*
X11233396Y-22150484D02*
X11214348Y-22150484D01*
X11214348Y-22150484D02*
X11195301Y-22140960D01*
X11195301Y-22140960D02*
X11185777Y-22131436D01*
X11185777Y-22131436D02*
X11176253Y-22112389D01*
X11176253Y-22112389D02*
X11166729Y-22074293D01*
X11166729Y-22074293D02*
X11166729Y-22026674D01*
X11166729Y-22026674D02*
X11176253Y-21988579D01*
X11176253Y-21988579D02*
X11185777Y-21969531D01*
X11185777Y-21969531D02*
X11195301Y-21960008D01*
X11195301Y-21960008D02*
X11214348Y-21950484D01*
X11461967Y-21950484D02*
X11366729Y-21950484D01*
X11366729Y-21950484D02*
X11357206Y-22045722D01*
X11357206Y-22045722D02*
X11366729Y-22036198D01*
X11366729Y-22036198D02*
X11385777Y-22026674D01*
X11385777Y-22026674D02*
X11433396Y-22026674D01*
X11433396Y-22026674D02*
X11452444Y-22036198D01*
X11452444Y-22036198D02*
X11461967Y-22045722D01*
X11461967Y-22045722D02*
X11471491Y-22064770D01*
X11471491Y-22064770D02*
X11471491Y-22112389D01*
X11471491Y-22112389D02*
X11461967Y-22131436D01*
X11461967Y-22131436D02*
X11452444Y-22140960D01*
X11452444Y-22140960D02*
X11433396Y-22150484D01*
X11433396Y-22150484D02*
X11385777Y-22150484D01*
X11385777Y-22150484D02*
X11366729Y-22140960D01*
X11366729Y-22140960D02*
X11357206Y-22131436D01*
X11661967Y-22150484D02*
X11547682Y-22150484D01*
X11604825Y-22150484D02*
X11604825Y-21950484D01*
X11604825Y-21950484D02*
X11585777Y-21979055D01*
X11585777Y-21979055D02*
X11566729Y-21998103D01*
X11566729Y-21998103D02*
X11547682Y-22007627D01*
X11738158Y-21969531D02*
X11747682Y-21960008D01*
X11747682Y-21960008D02*
X11766729Y-21950484D01*
X11766729Y-21950484D02*
X11814348Y-21950484D01*
X11814348Y-21950484D02*
X11833396Y-21960008D01*
X11833396Y-21960008D02*
X11842920Y-21969531D01*
X11842920Y-21969531D02*
X11852444Y-21988579D01*
X11852444Y-21988579D02*
X11852444Y-22007627D01*
X11852444Y-22007627D02*
X11842920Y-22036198D01*
X11842920Y-22036198D02*
X11728634Y-22150484D01*
X11728634Y-22150484D02*
X11852444Y-22150484D01*
X11928634Y-21950484D02*
X11928634Y-21988579D01*
X12004825Y-21950484D02*
X12004825Y-21988579D01*
X12300063Y-22226674D02*
X12290539Y-22217150D01*
X12290539Y-22217150D02*
X12271491Y-22188579D01*
X12271491Y-22188579D02*
X12261968Y-22169531D01*
X12261968Y-22169531D02*
X12252444Y-22140960D01*
X12252444Y-22140960D02*
X12242920Y-22093341D01*
X12242920Y-22093341D02*
X12242920Y-22055246D01*
X12242920Y-22055246D02*
X12252444Y-22007627D01*
X12252444Y-22007627D02*
X12261968Y-21979055D01*
X12261968Y-21979055D02*
X12271491Y-21960008D01*
X12271491Y-21960008D02*
X12290539Y-21931436D01*
X12290539Y-21931436D02*
X12300063Y-21921912D01*
X12461968Y-22017150D02*
X12461968Y-22150484D01*
X12414348Y-21940960D02*
X12366729Y-22083817D01*
X12366729Y-22083817D02*
X12490539Y-22083817D01*
X12719110Y-22150484D02*
X12719110Y-21950484D01*
X12804825Y-22150484D02*
X12804825Y-22045722D01*
X12804825Y-22045722D02*
X12795301Y-22026674D01*
X12795301Y-22026674D02*
X12776253Y-22017150D01*
X12776253Y-22017150D02*
X12747682Y-22017150D01*
X12747682Y-22017150D02*
X12728634Y-22026674D01*
X12728634Y-22026674D02*
X12719110Y-22036198D01*
X12928634Y-22150484D02*
X12909587Y-22140960D01*
X12909587Y-22140960D02*
X12900063Y-22131436D01*
X12900063Y-22131436D02*
X12890539Y-22112389D01*
X12890539Y-22112389D02*
X12890539Y-22055246D01*
X12890539Y-22055246D02*
X12900063Y-22036198D01*
X12900063Y-22036198D02*
X12909587Y-22026674D01*
X12909587Y-22026674D02*
X12928634Y-22017150D01*
X12928634Y-22017150D02*
X12957206Y-22017150D01*
X12957206Y-22017150D02*
X12976253Y-22026674D01*
X12976253Y-22026674D02*
X12985777Y-22036198D01*
X12985777Y-22036198D02*
X12995301Y-22055246D01*
X12995301Y-22055246D02*
X12995301Y-22112389D01*
X12995301Y-22112389D02*
X12985777Y-22131436D01*
X12985777Y-22131436D02*
X12976253Y-22140960D01*
X12976253Y-22140960D02*
X12957206Y-22150484D01*
X12957206Y-22150484D02*
X12928634Y-22150484D01*
X13109587Y-22150484D02*
X13090539Y-22140960D01*
X13090539Y-22140960D02*
X13081015Y-22121912D01*
X13081015Y-22121912D02*
X13081015Y-21950484D01*
X13261968Y-22140960D02*
X13242920Y-22150484D01*
X13242920Y-22150484D02*
X13204825Y-22150484D01*
X13204825Y-22150484D02*
X13185777Y-22140960D01*
X13185777Y-22140960D02*
X13176253Y-22121912D01*
X13176253Y-22121912D02*
X13176253Y-22045722D01*
X13176253Y-22045722D02*
X13185777Y-22026674D01*
X13185777Y-22026674D02*
X13204825Y-22017150D01*
X13204825Y-22017150D02*
X13242920Y-22017150D01*
X13242920Y-22017150D02*
X13261968Y-22026674D01*
X13261968Y-22026674D02*
X13271491Y-22045722D01*
X13271491Y-22045722D02*
X13271491Y-22064770D01*
X13271491Y-22064770D02*
X13176253Y-22083817D01*
X13347682Y-22140960D02*
X13366730Y-22150484D01*
X13366730Y-22150484D02*
X13404825Y-22150484D01*
X13404825Y-22150484D02*
X13423872Y-22140960D01*
X13423872Y-22140960D02*
X13433396Y-22121912D01*
X13433396Y-22121912D02*
X13433396Y-22112389D01*
X13433396Y-22112389D02*
X13423872Y-22093341D01*
X13423872Y-22093341D02*
X13404825Y-22083817D01*
X13404825Y-22083817D02*
X13376253Y-22083817D01*
X13376253Y-22083817D02*
X13357206Y-22074293D01*
X13357206Y-22074293D02*
X13347682Y-22055246D01*
X13347682Y-22055246D02*
X13347682Y-22045722D01*
X13347682Y-22045722D02*
X13357206Y-22026674D01*
X13357206Y-22026674D02*
X13376253Y-22017150D01*
X13376253Y-22017150D02*
X13404825Y-22017150D01*
X13404825Y-22017150D02*
X13423872Y-22026674D01*
X13500063Y-22226674D02*
X13509587Y-22217150D01*
X13509587Y-22217150D02*
X13528634Y-22188579D01*
X13528634Y-22188579D02*
X13538158Y-22169531D01*
X13538158Y-22169531D02*
X13547682Y-22140960D01*
X13547682Y-22140960D02*
X13557206Y-22093341D01*
X13557206Y-22093341D02*
X13557206Y-22055246D01*
X13557206Y-22055246D02*
X13547682Y-22007627D01*
X13547682Y-22007627D02*
X13538158Y-21979055D01*
X13538158Y-21979055D02*
X13528634Y-21960008D01*
X13528634Y-21960008D02*
X13509587Y-21931436D01*
X13509587Y-21931436D02*
X13500063Y-21921912D01*
D15*
X8585000Y-22253000D02*
X8725000Y-22393000D01*
X8725000Y-22253000D02*
X8585000Y-22393000D01*
X8704498Y-22372498D02*
X8704498Y-22273502D01*
X8605502Y-22273502D01*
X8605502Y-22372498D01*
X8704498Y-22372498D01*
D11*
X9090539Y-22414484D02*
X8976253Y-22414484D01*
X9033396Y-22414484D02*
X9033396Y-22214484D01*
X9033396Y-22214484D02*
X9014348Y-22243055D01*
X9014348Y-22243055D02*
X8995301Y-22262103D01*
X8995301Y-22262103D02*
X8976253Y-22271627D01*
X9176253Y-22395436D02*
X9185777Y-22404960D01*
X9185777Y-22404960D02*
X9176253Y-22414484D01*
X9176253Y-22414484D02*
X9166729Y-22404960D01*
X9166729Y-22404960D02*
X9176253Y-22395436D01*
X9176253Y-22395436D02*
X9176253Y-22414484D01*
X9357205Y-22281150D02*
X9357205Y-22414484D01*
X9309586Y-22204960D02*
X9261967Y-22347817D01*
X9261967Y-22347817D02*
X9385777Y-22347817D01*
X9500063Y-22214484D02*
X9519110Y-22214484D01*
X9519110Y-22214484D02*
X9538158Y-22224008D01*
X9538158Y-22224008D02*
X9547682Y-22233531D01*
X9547682Y-22233531D02*
X9557205Y-22252579D01*
X9557205Y-22252579D02*
X9566729Y-22290674D01*
X9566729Y-22290674D02*
X9566729Y-22338293D01*
X9566729Y-22338293D02*
X9557205Y-22376388D01*
X9557205Y-22376388D02*
X9547682Y-22395436D01*
X9547682Y-22395436D02*
X9538158Y-22404960D01*
X9538158Y-22404960D02*
X9519110Y-22414484D01*
X9519110Y-22414484D02*
X9500063Y-22414484D01*
X9500063Y-22414484D02*
X9481015Y-22404960D01*
X9481015Y-22404960D02*
X9471491Y-22395436D01*
X9471491Y-22395436D02*
X9461967Y-22376388D01*
X9461967Y-22376388D02*
X9452444Y-22338293D01*
X9452444Y-22338293D02*
X9452444Y-22290674D01*
X9452444Y-22290674D02*
X9461967Y-22252579D01*
X9461967Y-22252579D02*
X9471491Y-22233531D01*
X9471491Y-22233531D02*
X9481015Y-22224008D01*
X9481015Y-22224008D02*
X9500063Y-22214484D01*
X9690539Y-22214484D02*
X9709586Y-22214484D01*
X9709586Y-22214484D02*
X9728634Y-22224008D01*
X9728634Y-22224008D02*
X9738158Y-22233531D01*
X9738158Y-22233531D02*
X9747682Y-22252579D01*
X9747682Y-22252579D02*
X9757205Y-22290674D01*
X9757205Y-22290674D02*
X9757205Y-22338293D01*
X9757205Y-22338293D02*
X9747682Y-22376388D01*
X9747682Y-22376388D02*
X9738158Y-22395436D01*
X9738158Y-22395436D02*
X9728634Y-22404960D01*
X9728634Y-22404960D02*
X9709586Y-22414484D01*
X9709586Y-22414484D02*
X9690539Y-22414484D01*
X9690539Y-22414484D02*
X9671491Y-22404960D01*
X9671491Y-22404960D02*
X9661967Y-22395436D01*
X9661967Y-22395436D02*
X9652444Y-22376388D01*
X9652444Y-22376388D02*
X9642920Y-22338293D01*
X9642920Y-22338293D02*
X9642920Y-22290674D01*
X9642920Y-22290674D02*
X9652444Y-22252579D01*
X9652444Y-22252579D02*
X9661967Y-22233531D01*
X9661967Y-22233531D02*
X9671491Y-22224008D01*
X9671491Y-22224008D02*
X9690539Y-22214484D01*
X9842920Y-22414484D02*
X9842920Y-22281150D01*
X9842920Y-22300198D02*
X9852444Y-22290674D01*
X9852444Y-22290674D02*
X9871491Y-22281150D01*
X9871491Y-22281150D02*
X9900063Y-22281150D01*
X9900063Y-22281150D02*
X9919110Y-22290674D01*
X9919110Y-22290674D02*
X9928634Y-22309722D01*
X9928634Y-22309722D02*
X9928634Y-22414484D01*
X9928634Y-22309722D02*
X9938158Y-22290674D01*
X9938158Y-22290674D02*
X9957205Y-22281150D01*
X9957205Y-22281150D02*
X9985777Y-22281150D01*
X9985777Y-22281150D02*
X10004825Y-22290674D01*
X10004825Y-22290674D02*
X10014348Y-22309722D01*
X10014348Y-22309722D02*
X10014348Y-22414484D01*
X10109586Y-22414484D02*
X10109586Y-22281150D01*
X10109586Y-22300198D02*
X10119110Y-22290674D01*
X10119110Y-22290674D02*
X10138158Y-22281150D01*
X10138158Y-22281150D02*
X10166729Y-22281150D01*
X10166729Y-22281150D02*
X10185777Y-22290674D01*
X10185777Y-22290674D02*
X10195301Y-22309722D01*
X10195301Y-22309722D02*
X10195301Y-22414484D01*
X10195301Y-22309722D02*
X10204825Y-22290674D01*
X10204825Y-22290674D02*
X10223872Y-22281150D01*
X10223872Y-22281150D02*
X10252444Y-22281150D01*
X10252444Y-22281150D02*
X10271491Y-22290674D01*
X10271491Y-22290674D02*
X10281015Y-22309722D01*
X10281015Y-22309722D02*
X10281015Y-22414484D01*
X10671491Y-22204960D02*
X10500063Y-22462103D01*
X10928634Y-22214484D02*
X10947682Y-22214484D01*
X10947682Y-22214484D02*
X10966729Y-22224008D01*
X10966729Y-22224008D02*
X10976253Y-22233531D01*
X10976253Y-22233531D02*
X10985777Y-22252579D01*
X10985777Y-22252579D02*
X10995301Y-22290674D01*
X10995301Y-22290674D02*
X10995301Y-22338293D01*
X10995301Y-22338293D02*
X10985777Y-22376388D01*
X10985777Y-22376388D02*
X10976253Y-22395436D01*
X10976253Y-22395436D02*
X10966729Y-22404960D01*
X10966729Y-22404960D02*
X10947682Y-22414484D01*
X10947682Y-22414484D02*
X10928634Y-22414484D01*
X10928634Y-22414484D02*
X10909587Y-22404960D01*
X10909587Y-22404960D02*
X10900063Y-22395436D01*
X10900063Y-22395436D02*
X10890539Y-22376388D01*
X10890539Y-22376388D02*
X10881015Y-22338293D01*
X10881015Y-22338293D02*
X10881015Y-22290674D01*
X10881015Y-22290674D02*
X10890539Y-22252579D01*
X10890539Y-22252579D02*
X10900063Y-22233531D01*
X10900063Y-22233531D02*
X10909587Y-22224008D01*
X10909587Y-22224008D02*
X10928634Y-22214484D01*
X11081015Y-22395436D02*
X11090539Y-22404960D01*
X11090539Y-22404960D02*
X11081015Y-22414484D01*
X11081015Y-22414484D02*
X11071491Y-22404960D01*
X11071491Y-22404960D02*
X11081015Y-22395436D01*
X11081015Y-22395436D02*
X11081015Y-22414484D01*
X11214348Y-22214484D02*
X11233396Y-22214484D01*
X11233396Y-22214484D02*
X11252444Y-22224008D01*
X11252444Y-22224008D02*
X11261967Y-22233531D01*
X11261967Y-22233531D02*
X11271491Y-22252579D01*
X11271491Y-22252579D02*
X11281015Y-22290674D01*
X11281015Y-22290674D02*
X11281015Y-22338293D01*
X11281015Y-22338293D02*
X11271491Y-22376388D01*
X11271491Y-22376388D02*
X11261967Y-22395436D01*
X11261967Y-22395436D02*
X11252444Y-22404960D01*
X11252444Y-22404960D02*
X11233396Y-22414484D01*
X11233396Y-22414484D02*
X11214348Y-22414484D01*
X11214348Y-22414484D02*
X11195301Y-22404960D01*
X11195301Y-22404960D02*
X11185777Y-22395436D01*
X11185777Y-22395436D02*
X11176253Y-22376388D01*
X11176253Y-22376388D02*
X11166729Y-22338293D01*
X11166729Y-22338293D02*
X11166729Y-22290674D01*
X11166729Y-22290674D02*
X11176253Y-22252579D01*
X11176253Y-22252579D02*
X11185777Y-22233531D01*
X11185777Y-22233531D02*
X11195301Y-22224008D01*
X11195301Y-22224008D02*
X11214348Y-22214484D01*
X11461967Y-22214484D02*
X11366729Y-22214484D01*
X11366729Y-22214484D02*
X11357206Y-22309722D01*
X11357206Y-22309722D02*
X11366729Y-22300198D01*
X11366729Y-22300198D02*
X11385777Y-22290674D01*
X11385777Y-22290674D02*
X11433396Y-22290674D01*
X11433396Y-22290674D02*
X11452444Y-22300198D01*
X11452444Y-22300198D02*
X11461967Y-22309722D01*
X11461967Y-22309722D02*
X11471491Y-22328770D01*
X11471491Y-22328770D02*
X11471491Y-22376388D01*
X11471491Y-22376388D02*
X11461967Y-22395436D01*
X11461967Y-22395436D02*
X11452444Y-22404960D01*
X11452444Y-22404960D02*
X11433396Y-22414484D01*
X11433396Y-22414484D02*
X11385777Y-22414484D01*
X11385777Y-22414484D02*
X11366729Y-22404960D01*
X11366729Y-22404960D02*
X11357206Y-22395436D01*
X11652444Y-22214484D02*
X11557206Y-22214484D01*
X11557206Y-22214484D02*
X11547682Y-22309722D01*
X11547682Y-22309722D02*
X11557206Y-22300198D01*
X11557206Y-22300198D02*
X11576253Y-22290674D01*
X11576253Y-22290674D02*
X11623872Y-22290674D01*
X11623872Y-22290674D02*
X11642920Y-22300198D01*
X11642920Y-22300198D02*
X11652444Y-22309722D01*
X11652444Y-22309722D02*
X11661967Y-22328770D01*
X11661967Y-22328770D02*
X11661967Y-22376388D01*
X11661967Y-22376388D02*
X11652444Y-22395436D01*
X11652444Y-22395436D02*
X11642920Y-22404960D01*
X11642920Y-22404960D02*
X11623872Y-22414484D01*
X11623872Y-22414484D02*
X11576253Y-22414484D01*
X11576253Y-22414484D02*
X11557206Y-22404960D01*
X11557206Y-22404960D02*
X11547682Y-22395436D01*
X11852444Y-22414484D02*
X11738158Y-22414484D01*
X11795301Y-22414484D02*
X11795301Y-22214484D01*
X11795301Y-22214484D02*
X11776253Y-22243055D01*
X11776253Y-22243055D02*
X11757206Y-22262103D01*
X11757206Y-22262103D02*
X11738158Y-22271627D01*
X11928634Y-22214484D02*
X11928634Y-22252579D01*
X12004825Y-22214484D02*
X12004825Y-22252579D01*
X12300063Y-22490674D02*
X12290539Y-22481150D01*
X12290539Y-22481150D02*
X12271491Y-22452579D01*
X12271491Y-22452579D02*
X12261968Y-22433531D01*
X12261968Y-22433531D02*
X12252444Y-22404960D01*
X12252444Y-22404960D02*
X12242920Y-22357341D01*
X12242920Y-22357341D02*
X12242920Y-22319246D01*
X12242920Y-22319246D02*
X12252444Y-22271627D01*
X12252444Y-22271627D02*
X12261968Y-22243055D01*
X12261968Y-22243055D02*
X12271491Y-22224008D01*
X12271491Y-22224008D02*
X12290539Y-22195436D01*
X12290539Y-22195436D02*
X12300063Y-22185912D01*
X12461968Y-22281150D02*
X12461968Y-22414484D01*
X12414348Y-22204960D02*
X12366729Y-22347817D01*
X12366729Y-22347817D02*
X12490539Y-22347817D01*
X12719110Y-22414484D02*
X12719110Y-22214484D01*
X12804825Y-22414484D02*
X12804825Y-22309722D01*
X12804825Y-22309722D02*
X12795301Y-22290674D01*
X12795301Y-22290674D02*
X12776253Y-22281150D01*
X12776253Y-22281150D02*
X12747682Y-22281150D01*
X12747682Y-22281150D02*
X12728634Y-22290674D01*
X12728634Y-22290674D02*
X12719110Y-22300198D01*
X12928634Y-22414484D02*
X12909587Y-22404960D01*
X12909587Y-22404960D02*
X12900063Y-22395436D01*
X12900063Y-22395436D02*
X12890539Y-22376388D01*
X12890539Y-22376388D02*
X12890539Y-22319246D01*
X12890539Y-22319246D02*
X12900063Y-22300198D01*
X12900063Y-22300198D02*
X12909587Y-22290674D01*
X12909587Y-22290674D02*
X12928634Y-22281150D01*
X12928634Y-22281150D02*
X12957206Y-22281150D01*
X12957206Y-22281150D02*
X12976253Y-22290674D01*
X12976253Y-22290674D02*
X12985777Y-22300198D01*
X12985777Y-22300198D02*
X12995301Y-22319246D01*
X12995301Y-22319246D02*
X12995301Y-22376388D01*
X12995301Y-22376388D02*
X12985777Y-22395436D01*
X12985777Y-22395436D02*
X12976253Y-22404960D01*
X12976253Y-22404960D02*
X12957206Y-22414484D01*
X12957206Y-22414484D02*
X12928634Y-22414484D01*
X13109587Y-22414484D02*
X13090539Y-22404960D01*
X13090539Y-22404960D02*
X13081015Y-22385912D01*
X13081015Y-22385912D02*
X13081015Y-22214484D01*
X13261968Y-22404960D02*
X13242920Y-22414484D01*
X13242920Y-22414484D02*
X13204825Y-22414484D01*
X13204825Y-22414484D02*
X13185777Y-22404960D01*
X13185777Y-22404960D02*
X13176253Y-22385912D01*
X13176253Y-22385912D02*
X13176253Y-22309722D01*
X13176253Y-22309722D02*
X13185777Y-22290674D01*
X13185777Y-22290674D02*
X13204825Y-22281150D01*
X13204825Y-22281150D02*
X13242920Y-22281150D01*
X13242920Y-22281150D02*
X13261968Y-22290674D01*
X13261968Y-22290674D02*
X13271491Y-22309722D01*
X13271491Y-22309722D02*
X13271491Y-22328770D01*
X13271491Y-22328770D02*
X13176253Y-22347817D01*
X13347682Y-22404960D02*
X13366730Y-22414484D01*
X13366730Y-22414484D02*
X13404825Y-22414484D01*
X13404825Y-22414484D02*
X13423872Y-22404960D01*
X13423872Y-22404960D02*
X13433396Y-22385912D01*
X13433396Y-22385912D02*
X13433396Y-22376388D01*
X13433396Y-22376388D02*
X13423872Y-22357341D01*
X13423872Y-22357341D02*
X13404825Y-22347817D01*
X13404825Y-22347817D02*
X13376253Y-22347817D01*
X13376253Y-22347817D02*
X13357206Y-22338293D01*
X13357206Y-22338293D02*
X13347682Y-22319246D01*
X13347682Y-22319246D02*
X13347682Y-22309722D01*
X13347682Y-22309722D02*
X13357206Y-22290674D01*
X13357206Y-22290674D02*
X13376253Y-22281150D01*
X13376253Y-22281150D02*
X13404825Y-22281150D01*
X13404825Y-22281150D02*
X13423872Y-22290674D01*
X13500063Y-22490674D02*
X13509587Y-22481150D01*
X13509587Y-22481150D02*
X13528634Y-22452579D01*
X13528634Y-22452579D02*
X13538158Y-22433531D01*
X13538158Y-22433531D02*
X13547682Y-22404960D01*
X13547682Y-22404960D02*
X13557206Y-22357341D01*
X13557206Y-22357341D02*
X13557206Y-22319246D01*
X13557206Y-22319246D02*
X13547682Y-22271627D01*
X13547682Y-22271627D02*
X13538158Y-22243055D01*
X13538158Y-22243055D02*
X13528634Y-22224008D01*
X13528634Y-22224008D02*
X13509587Y-22195436D01*
X13509587Y-22195436D02*
X13500063Y-22185912D01*
D16*
X8545000Y-22497000D02*
X8725000Y-22677000D01*
X8725000Y-22497000D02*
X8545000Y-22677000D01*
X8635000Y-22677000D02*
X8725000Y-22587000D01*
X8635000Y-22497000D01*
X8545000Y-22587000D01*
X8635000Y-22677000D01*
D11*
X9090539Y-22678484D02*
X8976253Y-22678484D01*
X9033396Y-22678484D02*
X9033396Y-22478484D01*
X9033396Y-22478484D02*
X9014348Y-22507055D01*
X9014348Y-22507055D02*
X8995301Y-22526103D01*
X8995301Y-22526103D02*
X8976253Y-22535627D01*
X9176253Y-22659436D02*
X9185777Y-22668960D01*
X9185777Y-22668960D02*
X9176253Y-22678484D01*
X9176253Y-22678484D02*
X9166729Y-22668960D01*
X9166729Y-22668960D02*
X9176253Y-22659436D01*
X9176253Y-22659436D02*
X9176253Y-22678484D01*
X9300063Y-22564198D02*
X9281015Y-22554674D01*
X9281015Y-22554674D02*
X9271491Y-22545150D01*
X9271491Y-22545150D02*
X9261967Y-22526103D01*
X9261967Y-22526103D02*
X9261967Y-22516579D01*
X9261967Y-22516579D02*
X9271491Y-22497531D01*
X9271491Y-22497531D02*
X9281015Y-22488008D01*
X9281015Y-22488008D02*
X9300063Y-22478484D01*
X9300063Y-22478484D02*
X9338158Y-22478484D01*
X9338158Y-22478484D02*
X9357205Y-22488008D01*
X9357205Y-22488008D02*
X9366729Y-22497531D01*
X9366729Y-22497531D02*
X9376253Y-22516579D01*
X9376253Y-22516579D02*
X9376253Y-22526103D01*
X9376253Y-22526103D02*
X9366729Y-22545150D01*
X9366729Y-22545150D02*
X9357205Y-22554674D01*
X9357205Y-22554674D02*
X9338158Y-22564198D01*
X9338158Y-22564198D02*
X9300063Y-22564198D01*
X9300063Y-22564198D02*
X9281015Y-22573722D01*
X9281015Y-22573722D02*
X9271491Y-22583246D01*
X9271491Y-22583246D02*
X9261967Y-22602293D01*
X9261967Y-22602293D02*
X9261967Y-22640388D01*
X9261967Y-22640388D02*
X9271491Y-22659436D01*
X9271491Y-22659436D02*
X9281015Y-22668960D01*
X9281015Y-22668960D02*
X9300063Y-22678484D01*
X9300063Y-22678484D02*
X9338158Y-22678484D01*
X9338158Y-22678484D02*
X9357205Y-22668960D01*
X9357205Y-22668960D02*
X9366729Y-22659436D01*
X9366729Y-22659436D02*
X9376253Y-22640388D01*
X9376253Y-22640388D02*
X9376253Y-22602293D01*
X9376253Y-22602293D02*
X9366729Y-22583246D01*
X9366729Y-22583246D02*
X9357205Y-22573722D01*
X9357205Y-22573722D02*
X9338158Y-22564198D01*
X9500063Y-22478484D02*
X9519110Y-22478484D01*
X9519110Y-22478484D02*
X9538158Y-22488008D01*
X9538158Y-22488008D02*
X9547682Y-22497531D01*
X9547682Y-22497531D02*
X9557205Y-22516579D01*
X9557205Y-22516579D02*
X9566729Y-22554674D01*
X9566729Y-22554674D02*
X9566729Y-22602293D01*
X9566729Y-22602293D02*
X9557205Y-22640388D01*
X9557205Y-22640388D02*
X9547682Y-22659436D01*
X9547682Y-22659436D02*
X9538158Y-22668960D01*
X9538158Y-22668960D02*
X9519110Y-22678484D01*
X9519110Y-22678484D02*
X9500063Y-22678484D01*
X9500063Y-22678484D02*
X9481015Y-22668960D01*
X9481015Y-22668960D02*
X9471491Y-22659436D01*
X9471491Y-22659436D02*
X9461967Y-22640388D01*
X9461967Y-22640388D02*
X9452444Y-22602293D01*
X9452444Y-22602293D02*
X9452444Y-22554674D01*
X9452444Y-22554674D02*
X9461967Y-22516579D01*
X9461967Y-22516579D02*
X9471491Y-22497531D01*
X9471491Y-22497531D02*
X9481015Y-22488008D01*
X9481015Y-22488008D02*
X9500063Y-22478484D01*
X9690539Y-22478484D02*
X9709586Y-22478484D01*
X9709586Y-22478484D02*
X9728634Y-22488008D01*
X9728634Y-22488008D02*
X9738158Y-22497531D01*
X9738158Y-22497531D02*
X9747682Y-22516579D01*
X9747682Y-22516579D02*
X9757205Y-22554674D01*
X9757205Y-22554674D02*
X9757205Y-22602293D01*
X9757205Y-22602293D02*
X9747682Y-22640388D01*
X9747682Y-22640388D02*
X9738158Y-22659436D01*
X9738158Y-22659436D02*
X9728634Y-22668960D01*
X9728634Y-22668960D02*
X9709586Y-22678484D01*
X9709586Y-22678484D02*
X9690539Y-22678484D01*
X9690539Y-22678484D02*
X9671491Y-22668960D01*
X9671491Y-22668960D02*
X9661967Y-22659436D01*
X9661967Y-22659436D02*
X9652444Y-22640388D01*
X9652444Y-22640388D02*
X9642920Y-22602293D01*
X9642920Y-22602293D02*
X9642920Y-22554674D01*
X9642920Y-22554674D02*
X9652444Y-22516579D01*
X9652444Y-22516579D02*
X9661967Y-22497531D01*
X9661967Y-22497531D02*
X9671491Y-22488008D01*
X9671491Y-22488008D02*
X9690539Y-22478484D01*
X9842920Y-22678484D02*
X9842920Y-22545150D01*
X9842920Y-22564198D02*
X9852444Y-22554674D01*
X9852444Y-22554674D02*
X9871491Y-22545150D01*
X9871491Y-22545150D02*
X9900063Y-22545150D01*
X9900063Y-22545150D02*
X9919110Y-22554674D01*
X9919110Y-22554674D02*
X9928634Y-22573722D01*
X9928634Y-22573722D02*
X9928634Y-22678484D01*
X9928634Y-22573722D02*
X9938158Y-22554674D01*
X9938158Y-22554674D02*
X9957205Y-22545150D01*
X9957205Y-22545150D02*
X9985777Y-22545150D01*
X9985777Y-22545150D02*
X10004825Y-22554674D01*
X10004825Y-22554674D02*
X10014348Y-22573722D01*
X10014348Y-22573722D02*
X10014348Y-22678484D01*
X10109586Y-22678484D02*
X10109586Y-22545150D01*
X10109586Y-22564198D02*
X10119110Y-22554674D01*
X10119110Y-22554674D02*
X10138158Y-22545150D01*
X10138158Y-22545150D02*
X10166729Y-22545150D01*
X10166729Y-22545150D02*
X10185777Y-22554674D01*
X10185777Y-22554674D02*
X10195301Y-22573722D01*
X10195301Y-22573722D02*
X10195301Y-22678484D01*
X10195301Y-22573722D02*
X10204825Y-22554674D01*
X10204825Y-22554674D02*
X10223872Y-22545150D01*
X10223872Y-22545150D02*
X10252444Y-22545150D01*
X10252444Y-22545150D02*
X10271491Y-22554674D01*
X10271491Y-22554674D02*
X10281015Y-22573722D01*
X10281015Y-22573722D02*
X10281015Y-22678484D01*
X10671491Y-22468960D02*
X10500063Y-22726103D01*
X10928634Y-22478484D02*
X10947682Y-22478484D01*
X10947682Y-22478484D02*
X10966729Y-22488008D01*
X10966729Y-22488008D02*
X10976253Y-22497531D01*
X10976253Y-22497531D02*
X10985777Y-22516579D01*
X10985777Y-22516579D02*
X10995301Y-22554674D01*
X10995301Y-22554674D02*
X10995301Y-22602293D01*
X10995301Y-22602293D02*
X10985777Y-22640388D01*
X10985777Y-22640388D02*
X10976253Y-22659436D01*
X10976253Y-22659436D02*
X10966729Y-22668960D01*
X10966729Y-22668960D02*
X10947682Y-22678484D01*
X10947682Y-22678484D02*
X10928634Y-22678484D01*
X10928634Y-22678484D02*
X10909587Y-22668960D01*
X10909587Y-22668960D02*
X10900063Y-22659436D01*
X10900063Y-22659436D02*
X10890539Y-22640388D01*
X10890539Y-22640388D02*
X10881015Y-22602293D01*
X10881015Y-22602293D02*
X10881015Y-22554674D01*
X10881015Y-22554674D02*
X10890539Y-22516579D01*
X10890539Y-22516579D02*
X10900063Y-22497531D01*
X10900063Y-22497531D02*
X10909587Y-22488008D01*
X10909587Y-22488008D02*
X10928634Y-22478484D01*
X11081015Y-22659436D02*
X11090539Y-22668960D01*
X11090539Y-22668960D02*
X11081015Y-22678484D01*
X11081015Y-22678484D02*
X11071491Y-22668960D01*
X11071491Y-22668960D02*
X11081015Y-22659436D01*
X11081015Y-22659436D02*
X11081015Y-22678484D01*
X11214348Y-22478484D02*
X11233396Y-22478484D01*
X11233396Y-22478484D02*
X11252444Y-22488008D01*
X11252444Y-22488008D02*
X11261967Y-22497531D01*
X11261967Y-22497531D02*
X11271491Y-22516579D01*
X11271491Y-22516579D02*
X11281015Y-22554674D01*
X11281015Y-22554674D02*
X11281015Y-22602293D01*
X11281015Y-22602293D02*
X11271491Y-22640388D01*
X11271491Y-22640388D02*
X11261967Y-22659436D01*
X11261967Y-22659436D02*
X11252444Y-22668960D01*
X11252444Y-22668960D02*
X11233396Y-22678484D01*
X11233396Y-22678484D02*
X11214348Y-22678484D01*
X11214348Y-22678484D02*
X11195301Y-22668960D01*
X11195301Y-22668960D02*
X11185777Y-22659436D01*
X11185777Y-22659436D02*
X11176253Y-22640388D01*
X11176253Y-22640388D02*
X11166729Y-22602293D01*
X11166729Y-22602293D02*
X11166729Y-22554674D01*
X11166729Y-22554674D02*
X11176253Y-22516579D01*
X11176253Y-22516579D02*
X11185777Y-22497531D01*
X11185777Y-22497531D02*
X11195301Y-22488008D01*
X11195301Y-22488008D02*
X11214348Y-22478484D01*
X11347682Y-22478484D02*
X11481015Y-22478484D01*
X11481015Y-22478484D02*
X11395301Y-22678484D01*
X11595301Y-22478484D02*
X11614348Y-22478484D01*
X11614348Y-22478484D02*
X11633396Y-22488008D01*
X11633396Y-22488008D02*
X11642920Y-22497531D01*
X11642920Y-22497531D02*
X11652444Y-22516579D01*
X11652444Y-22516579D02*
X11661967Y-22554674D01*
X11661967Y-22554674D02*
X11661967Y-22602293D01*
X11661967Y-22602293D02*
X11652444Y-22640388D01*
X11652444Y-22640388D02*
X11642920Y-22659436D01*
X11642920Y-22659436D02*
X11633396Y-22668960D01*
X11633396Y-22668960D02*
X11614348Y-22678484D01*
X11614348Y-22678484D02*
X11595301Y-22678484D01*
X11595301Y-22678484D02*
X11576253Y-22668960D01*
X11576253Y-22668960D02*
X11566729Y-22659436D01*
X11566729Y-22659436D02*
X11557206Y-22640388D01*
X11557206Y-22640388D02*
X11547682Y-22602293D01*
X11547682Y-22602293D02*
X11547682Y-22554674D01*
X11547682Y-22554674D02*
X11557206Y-22516579D01*
X11557206Y-22516579D02*
X11566729Y-22497531D01*
X11566729Y-22497531D02*
X11576253Y-22488008D01*
X11576253Y-22488008D02*
X11595301Y-22478484D01*
X11757206Y-22678484D02*
X11795301Y-22678484D01*
X11795301Y-22678484D02*
X11814348Y-22668960D01*
X11814348Y-22668960D02*
X11823872Y-22659436D01*
X11823872Y-22659436D02*
X11842920Y-22630865D01*
X11842920Y-22630865D02*
X11852444Y-22592769D01*
X11852444Y-22592769D02*
X11852444Y-22516579D01*
X11852444Y-22516579D02*
X11842920Y-22497531D01*
X11842920Y-22497531D02*
X11833396Y-22488008D01*
X11833396Y-22488008D02*
X11814348Y-22478484D01*
X11814348Y-22478484D02*
X11776253Y-22478484D01*
X11776253Y-22478484D02*
X11757206Y-22488008D01*
X11757206Y-22488008D02*
X11747682Y-22497531D01*
X11747682Y-22497531D02*
X11738158Y-22516579D01*
X11738158Y-22516579D02*
X11738158Y-22564198D01*
X11738158Y-22564198D02*
X11747682Y-22583246D01*
X11747682Y-22583246D02*
X11757206Y-22592769D01*
X11757206Y-22592769D02*
X11776253Y-22602293D01*
X11776253Y-22602293D02*
X11814348Y-22602293D01*
X11814348Y-22602293D02*
X11833396Y-22592769D01*
X11833396Y-22592769D02*
X11842920Y-22583246D01*
X11842920Y-22583246D02*
X11852444Y-22564198D01*
X11928634Y-22478484D02*
X11928634Y-22516579D01*
X12004825Y-22478484D02*
X12004825Y-22516579D01*
X12300063Y-22754674D02*
X12290539Y-22745150D01*
X12290539Y-22745150D02*
X12271491Y-22716579D01*
X12271491Y-22716579D02*
X12261968Y-22697531D01*
X12261968Y-22697531D02*
X12252444Y-22668960D01*
X12252444Y-22668960D02*
X12242920Y-22621341D01*
X12242920Y-22621341D02*
X12242920Y-22583246D01*
X12242920Y-22583246D02*
X12252444Y-22535627D01*
X12252444Y-22535627D02*
X12261968Y-22507055D01*
X12261968Y-22507055D02*
X12271491Y-22488008D01*
X12271491Y-22488008D02*
X12290539Y-22459436D01*
X12290539Y-22459436D02*
X12300063Y-22449912D01*
X12481015Y-22678484D02*
X12366729Y-22678484D01*
X12423872Y-22678484D02*
X12423872Y-22478484D01*
X12423872Y-22478484D02*
X12404825Y-22507055D01*
X12404825Y-22507055D02*
X12385777Y-22526103D01*
X12385777Y-22526103D02*
X12366729Y-22535627D01*
X12652444Y-22545150D02*
X12652444Y-22678484D01*
X12604825Y-22468960D02*
X12557206Y-22611817D01*
X12557206Y-22611817D02*
X12681015Y-22611817D01*
X12909587Y-22678484D02*
X12909587Y-22478484D01*
X12995301Y-22678484D02*
X12995301Y-22573722D01*
X12995301Y-22573722D02*
X12985777Y-22554674D01*
X12985777Y-22554674D02*
X12966730Y-22545150D01*
X12966730Y-22545150D02*
X12938158Y-22545150D01*
X12938158Y-22545150D02*
X12919110Y-22554674D01*
X12919110Y-22554674D02*
X12909587Y-22564198D01*
X13119110Y-22678484D02*
X13100063Y-22668960D01*
X13100063Y-22668960D02*
X13090539Y-22659436D01*
X13090539Y-22659436D02*
X13081015Y-22640388D01*
X13081015Y-22640388D02*
X13081015Y-22583246D01*
X13081015Y-22583246D02*
X13090539Y-22564198D01*
X13090539Y-22564198D02*
X13100063Y-22554674D01*
X13100063Y-22554674D02*
X13119110Y-22545150D01*
X13119110Y-22545150D02*
X13147682Y-22545150D01*
X13147682Y-22545150D02*
X13166730Y-22554674D01*
X13166730Y-22554674D02*
X13176253Y-22564198D01*
X13176253Y-22564198D02*
X13185777Y-22583246D01*
X13185777Y-22583246D02*
X13185777Y-22640388D01*
X13185777Y-22640388D02*
X13176253Y-22659436D01*
X13176253Y-22659436D02*
X13166730Y-22668960D01*
X13166730Y-22668960D02*
X13147682Y-22678484D01*
X13147682Y-22678484D02*
X13119110Y-22678484D01*
X13300063Y-22678484D02*
X13281015Y-22668960D01*
X13281015Y-22668960D02*
X13271491Y-22649912D01*
X13271491Y-22649912D02*
X13271491Y-22478484D01*
X13452444Y-22668960D02*
X13433396Y-22678484D01*
X13433396Y-22678484D02*
X13395301Y-22678484D01*
X13395301Y-22678484D02*
X13376253Y-22668960D01*
X13376253Y-22668960D02*
X13366730Y-22649912D01*
X13366730Y-22649912D02*
X13366730Y-22573722D01*
X13366730Y-22573722D02*
X13376253Y-22554674D01*
X13376253Y-22554674D02*
X13395301Y-22545150D01*
X13395301Y-22545150D02*
X13433396Y-22545150D01*
X13433396Y-22545150D02*
X13452444Y-22554674D01*
X13452444Y-22554674D02*
X13461968Y-22573722D01*
X13461968Y-22573722D02*
X13461968Y-22592769D01*
X13461968Y-22592769D02*
X13366730Y-22611817D01*
X13538158Y-22668960D02*
X13557206Y-22678484D01*
X13557206Y-22678484D02*
X13595301Y-22678484D01*
X13595301Y-22678484D02*
X13614349Y-22668960D01*
X13614349Y-22668960D02*
X13623872Y-22649912D01*
X13623872Y-22649912D02*
X13623872Y-22640388D01*
X13623872Y-22640388D02*
X13614349Y-22621341D01*
X13614349Y-22621341D02*
X13595301Y-22611817D01*
X13595301Y-22611817D02*
X13566730Y-22611817D01*
X13566730Y-22611817D02*
X13547682Y-22602293D01*
X13547682Y-22602293D02*
X13538158Y-22583246D01*
X13538158Y-22583246D02*
X13538158Y-22573722D01*
X13538158Y-22573722D02*
X13547682Y-22554674D01*
X13547682Y-22554674D02*
X13566730Y-22545150D01*
X13566730Y-22545150D02*
X13595301Y-22545150D01*
X13595301Y-22545150D02*
X13614349Y-22554674D01*
X13690539Y-22754674D02*
X13700063Y-22745150D01*
X13700063Y-22745150D02*
X13719111Y-22716579D01*
X13719111Y-22716579D02*
X13728634Y-22697531D01*
X13728634Y-22697531D02*
X13738158Y-22668960D01*
X13738158Y-22668960D02*
X13747682Y-22621341D01*
X13747682Y-22621341D02*
X13747682Y-22583246D01*
X13747682Y-22583246D02*
X13738158Y-22535627D01*
X13738158Y-22535627D02*
X13728634Y-22507055D01*
X13728634Y-22507055D02*
X13719111Y-22488008D01*
X13719111Y-22488008D02*
X13700063Y-22459436D01*
X13700063Y-22459436D02*
X13690539Y-22449912D01*
X8625000Y-22787000D02*
X8625000Y-22987000D01*
X8525000Y-22887000D02*
X8725000Y-22887000D01*
X8725000Y-22887000D02*
G75*
G03*
X8725000Y-22887000I-100000J0D01*
G01*
X8976253Y-22797531D02*
X8985777Y-22788008D01*
X8985777Y-22788008D02*
X9004824Y-22778484D01*
X9004824Y-22778484D02*
X9052444Y-22778484D01*
X9052444Y-22778484D02*
X9071491Y-22788008D01*
X9071491Y-22788008D02*
X9081015Y-22797531D01*
X9081015Y-22797531D02*
X9090539Y-22816579D01*
X9090539Y-22816579D02*
X9090539Y-22835627D01*
X9090539Y-22835627D02*
X9081015Y-22864198D01*
X9081015Y-22864198D02*
X8966729Y-22978484D01*
X8966729Y-22978484D02*
X9090539Y-22978484D01*
X9176253Y-22959436D02*
X9185777Y-22968960D01*
X9185777Y-22968960D02*
X9176253Y-22978484D01*
X9176253Y-22978484D02*
X9166729Y-22968960D01*
X9166729Y-22968960D02*
X9176253Y-22959436D01*
X9176253Y-22959436D02*
X9176253Y-22978484D01*
X9261967Y-22797531D02*
X9271491Y-22788008D01*
X9271491Y-22788008D02*
X9290539Y-22778484D01*
X9290539Y-22778484D02*
X9338158Y-22778484D01*
X9338158Y-22778484D02*
X9357205Y-22788008D01*
X9357205Y-22788008D02*
X9366729Y-22797531D01*
X9366729Y-22797531D02*
X9376253Y-22816579D01*
X9376253Y-22816579D02*
X9376253Y-22835627D01*
X9376253Y-22835627D02*
X9366729Y-22864198D01*
X9366729Y-22864198D02*
X9252444Y-22978484D01*
X9252444Y-22978484D02*
X9376253Y-22978484D01*
X9500063Y-22778484D02*
X9519110Y-22778484D01*
X9519110Y-22778484D02*
X9538158Y-22788008D01*
X9538158Y-22788008D02*
X9547682Y-22797531D01*
X9547682Y-22797531D02*
X9557205Y-22816579D01*
X9557205Y-22816579D02*
X9566729Y-22854674D01*
X9566729Y-22854674D02*
X9566729Y-22902293D01*
X9566729Y-22902293D02*
X9557205Y-22940388D01*
X9557205Y-22940388D02*
X9547682Y-22959436D01*
X9547682Y-22959436D02*
X9538158Y-22968960D01*
X9538158Y-22968960D02*
X9519110Y-22978484D01*
X9519110Y-22978484D02*
X9500063Y-22978484D01*
X9500063Y-22978484D02*
X9481015Y-22968960D01*
X9481015Y-22968960D02*
X9471491Y-22959436D01*
X9471491Y-22959436D02*
X9461967Y-22940388D01*
X9461967Y-22940388D02*
X9452444Y-22902293D01*
X9452444Y-22902293D02*
X9452444Y-22854674D01*
X9452444Y-22854674D02*
X9461967Y-22816579D01*
X9461967Y-22816579D02*
X9471491Y-22797531D01*
X9471491Y-22797531D02*
X9481015Y-22788008D01*
X9481015Y-22788008D02*
X9500063Y-22778484D01*
X9690539Y-22778484D02*
X9709586Y-22778484D01*
X9709586Y-22778484D02*
X9728634Y-22788008D01*
X9728634Y-22788008D02*
X9738158Y-22797531D01*
X9738158Y-22797531D02*
X9747682Y-22816579D01*
X9747682Y-22816579D02*
X9757205Y-22854674D01*
X9757205Y-22854674D02*
X9757205Y-22902293D01*
X9757205Y-22902293D02*
X9747682Y-22940388D01*
X9747682Y-22940388D02*
X9738158Y-22959436D01*
X9738158Y-22959436D02*
X9728634Y-22968960D01*
X9728634Y-22968960D02*
X9709586Y-22978484D01*
X9709586Y-22978484D02*
X9690539Y-22978484D01*
X9690539Y-22978484D02*
X9671491Y-22968960D01*
X9671491Y-22968960D02*
X9661967Y-22959436D01*
X9661967Y-22959436D02*
X9652444Y-22940388D01*
X9652444Y-22940388D02*
X9642920Y-22902293D01*
X9642920Y-22902293D02*
X9642920Y-22854674D01*
X9642920Y-22854674D02*
X9652444Y-22816579D01*
X9652444Y-22816579D02*
X9661967Y-22797531D01*
X9661967Y-22797531D02*
X9671491Y-22788008D01*
X9671491Y-22788008D02*
X9690539Y-22778484D01*
X9842920Y-22978484D02*
X9842920Y-22845150D01*
X9842920Y-22864198D02*
X9852444Y-22854674D01*
X9852444Y-22854674D02*
X9871491Y-22845150D01*
X9871491Y-22845150D02*
X9900063Y-22845150D01*
X9900063Y-22845150D02*
X9919110Y-22854674D01*
X9919110Y-22854674D02*
X9928634Y-22873722D01*
X9928634Y-22873722D02*
X9928634Y-22978484D01*
X9928634Y-22873722D02*
X9938158Y-22854674D01*
X9938158Y-22854674D02*
X9957205Y-22845150D01*
X9957205Y-22845150D02*
X9985777Y-22845150D01*
X9985777Y-22845150D02*
X10004825Y-22854674D01*
X10004825Y-22854674D02*
X10014348Y-22873722D01*
X10014348Y-22873722D02*
X10014348Y-22978484D01*
X10109586Y-22978484D02*
X10109586Y-22845150D01*
X10109586Y-22864198D02*
X10119110Y-22854674D01*
X10119110Y-22854674D02*
X10138158Y-22845150D01*
X10138158Y-22845150D02*
X10166729Y-22845150D01*
X10166729Y-22845150D02*
X10185777Y-22854674D01*
X10185777Y-22854674D02*
X10195301Y-22873722D01*
X10195301Y-22873722D02*
X10195301Y-22978484D01*
X10195301Y-22873722D02*
X10204825Y-22854674D01*
X10204825Y-22854674D02*
X10223872Y-22845150D01*
X10223872Y-22845150D02*
X10252444Y-22845150D01*
X10252444Y-22845150D02*
X10271491Y-22854674D01*
X10271491Y-22854674D02*
X10281015Y-22873722D01*
X10281015Y-22873722D02*
X10281015Y-22978484D01*
X10671491Y-22768960D02*
X10500063Y-23026103D01*
X10928634Y-22778484D02*
X10947682Y-22778484D01*
X10947682Y-22778484D02*
X10966729Y-22788008D01*
X10966729Y-22788008D02*
X10976253Y-22797531D01*
X10976253Y-22797531D02*
X10985777Y-22816579D01*
X10985777Y-22816579D02*
X10995301Y-22854674D01*
X10995301Y-22854674D02*
X10995301Y-22902293D01*
X10995301Y-22902293D02*
X10985777Y-22940388D01*
X10985777Y-22940388D02*
X10976253Y-22959436D01*
X10976253Y-22959436D02*
X10966729Y-22968960D01*
X10966729Y-22968960D02*
X10947682Y-22978484D01*
X10947682Y-22978484D02*
X10928634Y-22978484D01*
X10928634Y-22978484D02*
X10909587Y-22968960D01*
X10909587Y-22968960D02*
X10900063Y-22959436D01*
X10900063Y-22959436D02*
X10890539Y-22940388D01*
X10890539Y-22940388D02*
X10881015Y-22902293D01*
X10881015Y-22902293D02*
X10881015Y-22854674D01*
X10881015Y-22854674D02*
X10890539Y-22816579D01*
X10890539Y-22816579D02*
X10900063Y-22797531D01*
X10900063Y-22797531D02*
X10909587Y-22788008D01*
X10909587Y-22788008D02*
X10928634Y-22778484D01*
X11081015Y-22959436D02*
X11090539Y-22968960D01*
X11090539Y-22968960D02*
X11081015Y-22978484D01*
X11081015Y-22978484D02*
X11071491Y-22968960D01*
X11071491Y-22968960D02*
X11081015Y-22959436D01*
X11081015Y-22959436D02*
X11081015Y-22978484D01*
X11214348Y-22778484D02*
X11233396Y-22778484D01*
X11233396Y-22778484D02*
X11252444Y-22788008D01*
X11252444Y-22788008D02*
X11261967Y-22797531D01*
X11261967Y-22797531D02*
X11271491Y-22816579D01*
X11271491Y-22816579D02*
X11281015Y-22854674D01*
X11281015Y-22854674D02*
X11281015Y-22902293D01*
X11281015Y-22902293D02*
X11271491Y-22940388D01*
X11271491Y-22940388D02*
X11261967Y-22959436D01*
X11261967Y-22959436D02*
X11252444Y-22968960D01*
X11252444Y-22968960D02*
X11233396Y-22978484D01*
X11233396Y-22978484D02*
X11214348Y-22978484D01*
X11214348Y-22978484D02*
X11195301Y-22968960D01*
X11195301Y-22968960D02*
X11185777Y-22959436D01*
X11185777Y-22959436D02*
X11176253Y-22940388D01*
X11176253Y-22940388D02*
X11166729Y-22902293D01*
X11166729Y-22902293D02*
X11166729Y-22854674D01*
X11166729Y-22854674D02*
X11176253Y-22816579D01*
X11176253Y-22816579D02*
X11185777Y-22797531D01*
X11185777Y-22797531D02*
X11195301Y-22788008D01*
X11195301Y-22788008D02*
X11214348Y-22778484D01*
X11395301Y-22864198D02*
X11376253Y-22854674D01*
X11376253Y-22854674D02*
X11366729Y-22845150D01*
X11366729Y-22845150D02*
X11357206Y-22826103D01*
X11357206Y-22826103D02*
X11357206Y-22816579D01*
X11357206Y-22816579D02*
X11366729Y-22797531D01*
X11366729Y-22797531D02*
X11376253Y-22788008D01*
X11376253Y-22788008D02*
X11395301Y-22778484D01*
X11395301Y-22778484D02*
X11433396Y-22778484D01*
X11433396Y-22778484D02*
X11452444Y-22788008D01*
X11452444Y-22788008D02*
X11461967Y-22797531D01*
X11461967Y-22797531D02*
X11471491Y-22816579D01*
X11471491Y-22816579D02*
X11471491Y-22826103D01*
X11471491Y-22826103D02*
X11461967Y-22845150D01*
X11461967Y-22845150D02*
X11452444Y-22854674D01*
X11452444Y-22854674D02*
X11433396Y-22864198D01*
X11433396Y-22864198D02*
X11395301Y-22864198D01*
X11395301Y-22864198D02*
X11376253Y-22873722D01*
X11376253Y-22873722D02*
X11366729Y-22883246D01*
X11366729Y-22883246D02*
X11357206Y-22902293D01*
X11357206Y-22902293D02*
X11357206Y-22940388D01*
X11357206Y-22940388D02*
X11366729Y-22959436D01*
X11366729Y-22959436D02*
X11376253Y-22968960D01*
X11376253Y-22968960D02*
X11395301Y-22978484D01*
X11395301Y-22978484D02*
X11433396Y-22978484D01*
X11433396Y-22978484D02*
X11452444Y-22968960D01*
X11452444Y-22968960D02*
X11461967Y-22959436D01*
X11461967Y-22959436D02*
X11471491Y-22940388D01*
X11471491Y-22940388D02*
X11471491Y-22902293D01*
X11471491Y-22902293D02*
X11461967Y-22883246D01*
X11461967Y-22883246D02*
X11452444Y-22873722D01*
X11452444Y-22873722D02*
X11433396Y-22864198D01*
X11642920Y-22778484D02*
X11604825Y-22778484D01*
X11604825Y-22778484D02*
X11585777Y-22788008D01*
X11585777Y-22788008D02*
X11576253Y-22797531D01*
X11576253Y-22797531D02*
X11557206Y-22826103D01*
X11557206Y-22826103D02*
X11547682Y-22864198D01*
X11547682Y-22864198D02*
X11547682Y-22940388D01*
X11547682Y-22940388D02*
X11557206Y-22959436D01*
X11557206Y-22959436D02*
X11566729Y-22968960D01*
X11566729Y-22968960D02*
X11585777Y-22978484D01*
X11585777Y-22978484D02*
X11623872Y-22978484D01*
X11623872Y-22978484D02*
X11642920Y-22968960D01*
X11642920Y-22968960D02*
X11652444Y-22959436D01*
X11652444Y-22959436D02*
X11661967Y-22940388D01*
X11661967Y-22940388D02*
X11661967Y-22892769D01*
X11661967Y-22892769D02*
X11652444Y-22873722D01*
X11652444Y-22873722D02*
X11642920Y-22864198D01*
X11642920Y-22864198D02*
X11623872Y-22854674D01*
X11623872Y-22854674D02*
X11585777Y-22854674D01*
X11585777Y-22854674D02*
X11566729Y-22864198D01*
X11566729Y-22864198D02*
X11557206Y-22873722D01*
X11557206Y-22873722D02*
X11547682Y-22892769D01*
X11833396Y-22778484D02*
X11795301Y-22778484D01*
X11795301Y-22778484D02*
X11776253Y-22788008D01*
X11776253Y-22788008D02*
X11766729Y-22797531D01*
X11766729Y-22797531D02*
X11747682Y-22826103D01*
X11747682Y-22826103D02*
X11738158Y-22864198D01*
X11738158Y-22864198D02*
X11738158Y-22940388D01*
X11738158Y-22940388D02*
X11747682Y-22959436D01*
X11747682Y-22959436D02*
X11757206Y-22968960D01*
X11757206Y-22968960D02*
X11776253Y-22978484D01*
X11776253Y-22978484D02*
X11814348Y-22978484D01*
X11814348Y-22978484D02*
X11833396Y-22968960D01*
X11833396Y-22968960D02*
X11842920Y-22959436D01*
X11842920Y-22959436D02*
X11852444Y-22940388D01*
X11852444Y-22940388D02*
X11852444Y-22892769D01*
X11852444Y-22892769D02*
X11842920Y-22873722D01*
X11842920Y-22873722D02*
X11833396Y-22864198D01*
X11833396Y-22864198D02*
X11814348Y-22854674D01*
X11814348Y-22854674D02*
X11776253Y-22854674D01*
X11776253Y-22854674D02*
X11757206Y-22864198D01*
X11757206Y-22864198D02*
X11747682Y-22873722D01*
X11747682Y-22873722D02*
X11738158Y-22892769D01*
X11928634Y-22778484D02*
X11928634Y-22816579D01*
X12004825Y-22778484D02*
X12004825Y-22816579D01*
X12300063Y-23054674D02*
X12290539Y-23045150D01*
X12290539Y-23045150D02*
X12271491Y-23016579D01*
X12271491Y-23016579D02*
X12261968Y-22997531D01*
X12261968Y-22997531D02*
X12252444Y-22968960D01*
X12252444Y-22968960D02*
X12242920Y-22921341D01*
X12242920Y-22921341D02*
X12242920Y-22883246D01*
X12242920Y-22883246D02*
X12252444Y-22835627D01*
X12252444Y-22835627D02*
X12261968Y-22807055D01*
X12261968Y-22807055D02*
X12271491Y-22788008D01*
X12271491Y-22788008D02*
X12290539Y-22759436D01*
X12290539Y-22759436D02*
X12300063Y-22749912D01*
X12366729Y-22797531D02*
X12376253Y-22788008D01*
X12376253Y-22788008D02*
X12395301Y-22778484D01*
X12395301Y-22778484D02*
X12442920Y-22778484D01*
X12442920Y-22778484D02*
X12461968Y-22788008D01*
X12461968Y-22788008D02*
X12471491Y-22797531D01*
X12471491Y-22797531D02*
X12481015Y-22816579D01*
X12481015Y-22816579D02*
X12481015Y-22835627D01*
X12481015Y-22835627D02*
X12471491Y-22864198D01*
X12471491Y-22864198D02*
X12357206Y-22978484D01*
X12357206Y-22978484D02*
X12481015Y-22978484D01*
X12719110Y-22978484D02*
X12719110Y-22778484D01*
X12804825Y-22978484D02*
X12804825Y-22873722D01*
X12804825Y-22873722D02*
X12795301Y-22854674D01*
X12795301Y-22854674D02*
X12776253Y-22845150D01*
X12776253Y-22845150D02*
X12747682Y-22845150D01*
X12747682Y-22845150D02*
X12728634Y-22854674D01*
X12728634Y-22854674D02*
X12719110Y-22864198D01*
X12928634Y-22978484D02*
X12909587Y-22968960D01*
X12909587Y-22968960D02*
X12900063Y-22959436D01*
X12900063Y-22959436D02*
X12890539Y-22940388D01*
X12890539Y-22940388D02*
X12890539Y-22883246D01*
X12890539Y-22883246D02*
X12900063Y-22864198D01*
X12900063Y-22864198D02*
X12909587Y-22854674D01*
X12909587Y-22854674D02*
X12928634Y-22845150D01*
X12928634Y-22845150D02*
X12957206Y-22845150D01*
X12957206Y-22845150D02*
X12976253Y-22854674D01*
X12976253Y-22854674D02*
X12985777Y-22864198D01*
X12985777Y-22864198D02*
X12995301Y-22883246D01*
X12995301Y-22883246D02*
X12995301Y-22940388D01*
X12995301Y-22940388D02*
X12985777Y-22959436D01*
X12985777Y-22959436D02*
X12976253Y-22968960D01*
X12976253Y-22968960D02*
X12957206Y-22978484D01*
X12957206Y-22978484D02*
X12928634Y-22978484D01*
X13109587Y-22978484D02*
X13090539Y-22968960D01*
X13090539Y-22968960D02*
X13081015Y-22949912D01*
X13081015Y-22949912D02*
X13081015Y-22778484D01*
X13261968Y-22968960D02*
X13242920Y-22978484D01*
X13242920Y-22978484D02*
X13204825Y-22978484D01*
X13204825Y-22978484D02*
X13185777Y-22968960D01*
X13185777Y-22968960D02*
X13176253Y-22949912D01*
X13176253Y-22949912D02*
X13176253Y-22873722D01*
X13176253Y-22873722D02*
X13185777Y-22854674D01*
X13185777Y-22854674D02*
X13204825Y-22845150D01*
X13204825Y-22845150D02*
X13242920Y-22845150D01*
X13242920Y-22845150D02*
X13261968Y-22854674D01*
X13261968Y-22854674D02*
X13271491Y-22873722D01*
X13271491Y-22873722D02*
X13271491Y-22892769D01*
X13271491Y-22892769D02*
X13176253Y-22911817D01*
X13347682Y-22968960D02*
X13366730Y-22978484D01*
X13366730Y-22978484D02*
X13404825Y-22978484D01*
X13404825Y-22978484D02*
X13423872Y-22968960D01*
X13423872Y-22968960D02*
X13433396Y-22949912D01*
X13433396Y-22949912D02*
X13433396Y-22940388D01*
X13433396Y-22940388D02*
X13423872Y-22921341D01*
X13423872Y-22921341D02*
X13404825Y-22911817D01*
X13404825Y-22911817D02*
X13376253Y-22911817D01*
X13376253Y-22911817D02*
X13357206Y-22902293D01*
X13357206Y-22902293D02*
X13347682Y-22883246D01*
X13347682Y-22883246D02*
X13347682Y-22873722D01*
X13347682Y-22873722D02*
X13357206Y-22854674D01*
X13357206Y-22854674D02*
X13376253Y-22845150D01*
X13376253Y-22845150D02*
X13404825Y-22845150D01*
X13404825Y-22845150D02*
X13423872Y-22854674D01*
X13500063Y-23054674D02*
X13509587Y-23045150D01*
X13509587Y-23045150D02*
X13528634Y-23016579D01*
X13528634Y-23016579D02*
X13538158Y-22997531D01*
X13538158Y-22997531D02*
X13547682Y-22968960D01*
X13547682Y-22968960D02*
X13557206Y-22921341D01*
X13557206Y-22921341D02*
X13557206Y-22883246D01*
X13557206Y-22883246D02*
X13547682Y-22835627D01*
X13547682Y-22835627D02*
X13538158Y-22807055D01*
X13538158Y-22807055D02*
X13528634Y-22788008D01*
X13528634Y-22788008D02*
X13509587Y-22759436D01*
X13509587Y-22759436D02*
X13500063Y-22749912D01*
X8695711Y-23277711D02*
X8695711Y-23136289D01*
X8554289Y-23136289D01*
X8554289Y-23277711D01*
X8695711Y-23277711D01*
X8725000Y-23207000D02*
G75*
G03*
X8725000Y-23207000I-100000J0D01*
G01*
X9071491Y-23098484D02*
X9033396Y-23098484D01*
X9033396Y-23098484D02*
X9014348Y-23108008D01*
X9014348Y-23108008D02*
X9004824Y-23117531D01*
X9004824Y-23117531D02*
X8985777Y-23146103D01*
X8985777Y-23146103D02*
X8976253Y-23184198D01*
X8976253Y-23184198D02*
X8976253Y-23260388D01*
X8976253Y-23260388D02*
X8985777Y-23279436D01*
X8985777Y-23279436D02*
X8995301Y-23288960D01*
X8995301Y-23288960D02*
X9014348Y-23298484D01*
X9014348Y-23298484D02*
X9052444Y-23298484D01*
X9052444Y-23298484D02*
X9071491Y-23288960D01*
X9071491Y-23288960D02*
X9081015Y-23279436D01*
X9081015Y-23279436D02*
X9090539Y-23260388D01*
X9090539Y-23260388D02*
X9090539Y-23212769D01*
X9090539Y-23212769D02*
X9081015Y-23193722D01*
X9081015Y-23193722D02*
X9071491Y-23184198D01*
X9071491Y-23184198D02*
X9052444Y-23174674D01*
X9052444Y-23174674D02*
X9014348Y-23174674D01*
X9014348Y-23174674D02*
X8995301Y-23184198D01*
X8995301Y-23184198D02*
X8985777Y-23193722D01*
X8985777Y-23193722D02*
X8976253Y-23212769D01*
X9176253Y-23279436D02*
X9185777Y-23288960D01*
X9185777Y-23288960D02*
X9176253Y-23298484D01*
X9176253Y-23298484D02*
X9166729Y-23288960D01*
X9166729Y-23288960D02*
X9176253Y-23279436D01*
X9176253Y-23279436D02*
X9176253Y-23298484D01*
X9357205Y-23165150D02*
X9357205Y-23298484D01*
X9309586Y-23088960D02*
X9261967Y-23231817D01*
X9261967Y-23231817D02*
X9385777Y-23231817D01*
X9500063Y-23098484D02*
X9519110Y-23098484D01*
X9519110Y-23098484D02*
X9538158Y-23108008D01*
X9538158Y-23108008D02*
X9547682Y-23117531D01*
X9547682Y-23117531D02*
X9557205Y-23136579D01*
X9557205Y-23136579D02*
X9566729Y-23174674D01*
X9566729Y-23174674D02*
X9566729Y-23222293D01*
X9566729Y-23222293D02*
X9557205Y-23260388D01*
X9557205Y-23260388D02*
X9547682Y-23279436D01*
X9547682Y-23279436D02*
X9538158Y-23288960D01*
X9538158Y-23288960D02*
X9519110Y-23298484D01*
X9519110Y-23298484D02*
X9500063Y-23298484D01*
X9500063Y-23298484D02*
X9481015Y-23288960D01*
X9481015Y-23288960D02*
X9471491Y-23279436D01*
X9471491Y-23279436D02*
X9461967Y-23260388D01*
X9461967Y-23260388D02*
X9452444Y-23222293D01*
X9452444Y-23222293D02*
X9452444Y-23174674D01*
X9452444Y-23174674D02*
X9461967Y-23136579D01*
X9461967Y-23136579D02*
X9471491Y-23117531D01*
X9471491Y-23117531D02*
X9481015Y-23108008D01*
X9481015Y-23108008D02*
X9500063Y-23098484D01*
X9690539Y-23098484D02*
X9709586Y-23098484D01*
X9709586Y-23098484D02*
X9728634Y-23108008D01*
X9728634Y-23108008D02*
X9738158Y-23117531D01*
X9738158Y-23117531D02*
X9747682Y-23136579D01*
X9747682Y-23136579D02*
X9757205Y-23174674D01*
X9757205Y-23174674D02*
X9757205Y-23222293D01*
X9757205Y-23222293D02*
X9747682Y-23260388D01*
X9747682Y-23260388D02*
X9738158Y-23279436D01*
X9738158Y-23279436D02*
X9728634Y-23288960D01*
X9728634Y-23288960D02*
X9709586Y-23298484D01*
X9709586Y-23298484D02*
X9690539Y-23298484D01*
X9690539Y-23298484D02*
X9671491Y-23288960D01*
X9671491Y-23288960D02*
X9661967Y-23279436D01*
X9661967Y-23279436D02*
X9652444Y-23260388D01*
X9652444Y-23260388D02*
X9642920Y-23222293D01*
X9642920Y-23222293D02*
X9642920Y-23174674D01*
X9642920Y-23174674D02*
X9652444Y-23136579D01*
X9652444Y-23136579D02*
X9661967Y-23117531D01*
X9661967Y-23117531D02*
X9671491Y-23108008D01*
X9671491Y-23108008D02*
X9690539Y-23098484D01*
X9842920Y-23298484D02*
X9842920Y-23165150D01*
X9842920Y-23184198D02*
X9852444Y-23174674D01*
X9852444Y-23174674D02*
X9871491Y-23165150D01*
X9871491Y-23165150D02*
X9900063Y-23165150D01*
X9900063Y-23165150D02*
X9919110Y-23174674D01*
X9919110Y-23174674D02*
X9928634Y-23193722D01*
X9928634Y-23193722D02*
X9928634Y-23298484D01*
X9928634Y-23193722D02*
X9938158Y-23174674D01*
X9938158Y-23174674D02*
X9957205Y-23165150D01*
X9957205Y-23165150D02*
X9985777Y-23165150D01*
X9985777Y-23165150D02*
X10004825Y-23174674D01*
X10004825Y-23174674D02*
X10014348Y-23193722D01*
X10014348Y-23193722D02*
X10014348Y-23298484D01*
X10109586Y-23298484D02*
X10109586Y-23165150D01*
X10109586Y-23184198D02*
X10119110Y-23174674D01*
X10119110Y-23174674D02*
X10138158Y-23165150D01*
X10138158Y-23165150D02*
X10166729Y-23165150D01*
X10166729Y-23165150D02*
X10185777Y-23174674D01*
X10185777Y-23174674D02*
X10195301Y-23193722D01*
X10195301Y-23193722D02*
X10195301Y-23298484D01*
X10195301Y-23193722D02*
X10204825Y-23174674D01*
X10204825Y-23174674D02*
X10223872Y-23165150D01*
X10223872Y-23165150D02*
X10252444Y-23165150D01*
X10252444Y-23165150D02*
X10271491Y-23174674D01*
X10271491Y-23174674D02*
X10281015Y-23193722D01*
X10281015Y-23193722D02*
X10281015Y-23298484D01*
X10671491Y-23088960D02*
X10500063Y-23346103D01*
X10928634Y-23098484D02*
X10947682Y-23098484D01*
X10947682Y-23098484D02*
X10966729Y-23108008D01*
X10966729Y-23108008D02*
X10976253Y-23117531D01*
X10976253Y-23117531D02*
X10985777Y-23136579D01*
X10985777Y-23136579D02*
X10995301Y-23174674D01*
X10995301Y-23174674D02*
X10995301Y-23222293D01*
X10995301Y-23222293D02*
X10985777Y-23260388D01*
X10985777Y-23260388D02*
X10976253Y-23279436D01*
X10976253Y-23279436D02*
X10966729Y-23288960D01*
X10966729Y-23288960D02*
X10947682Y-23298484D01*
X10947682Y-23298484D02*
X10928634Y-23298484D01*
X10928634Y-23298484D02*
X10909587Y-23288960D01*
X10909587Y-23288960D02*
X10900063Y-23279436D01*
X10900063Y-23279436D02*
X10890539Y-23260388D01*
X10890539Y-23260388D02*
X10881015Y-23222293D01*
X10881015Y-23222293D02*
X10881015Y-23174674D01*
X10881015Y-23174674D02*
X10890539Y-23136579D01*
X10890539Y-23136579D02*
X10900063Y-23117531D01*
X10900063Y-23117531D02*
X10909587Y-23108008D01*
X10909587Y-23108008D02*
X10928634Y-23098484D01*
X11081015Y-23279436D02*
X11090539Y-23288960D01*
X11090539Y-23288960D02*
X11081015Y-23298484D01*
X11081015Y-23298484D02*
X11071491Y-23288960D01*
X11071491Y-23288960D02*
X11081015Y-23279436D01*
X11081015Y-23279436D02*
X11081015Y-23298484D01*
X11166729Y-23117531D02*
X11176253Y-23108008D01*
X11176253Y-23108008D02*
X11195301Y-23098484D01*
X11195301Y-23098484D02*
X11242920Y-23098484D01*
X11242920Y-23098484D02*
X11261967Y-23108008D01*
X11261967Y-23108008D02*
X11271491Y-23117531D01*
X11271491Y-23117531D02*
X11281015Y-23136579D01*
X11281015Y-23136579D02*
X11281015Y-23155627D01*
X11281015Y-23155627D02*
X11271491Y-23184198D01*
X11271491Y-23184198D02*
X11157206Y-23298484D01*
X11157206Y-23298484D02*
X11281015Y-23298484D01*
X11461967Y-23098484D02*
X11366729Y-23098484D01*
X11366729Y-23098484D02*
X11357206Y-23193722D01*
X11357206Y-23193722D02*
X11366729Y-23184198D01*
X11366729Y-23184198D02*
X11385777Y-23174674D01*
X11385777Y-23174674D02*
X11433396Y-23174674D01*
X11433396Y-23174674D02*
X11452444Y-23184198D01*
X11452444Y-23184198D02*
X11461967Y-23193722D01*
X11461967Y-23193722D02*
X11471491Y-23212769D01*
X11471491Y-23212769D02*
X11471491Y-23260388D01*
X11471491Y-23260388D02*
X11461967Y-23279436D01*
X11461967Y-23279436D02*
X11452444Y-23288960D01*
X11452444Y-23288960D02*
X11433396Y-23298484D01*
X11433396Y-23298484D02*
X11385777Y-23298484D01*
X11385777Y-23298484D02*
X11366729Y-23288960D01*
X11366729Y-23288960D02*
X11357206Y-23279436D01*
X11547682Y-23117531D02*
X11557206Y-23108008D01*
X11557206Y-23108008D02*
X11576253Y-23098484D01*
X11576253Y-23098484D02*
X11623872Y-23098484D01*
X11623872Y-23098484D02*
X11642920Y-23108008D01*
X11642920Y-23108008D02*
X11652444Y-23117531D01*
X11652444Y-23117531D02*
X11661967Y-23136579D01*
X11661967Y-23136579D02*
X11661967Y-23155627D01*
X11661967Y-23155627D02*
X11652444Y-23184198D01*
X11652444Y-23184198D02*
X11538158Y-23298484D01*
X11538158Y-23298484D02*
X11661967Y-23298484D01*
X11785777Y-23098484D02*
X11804825Y-23098484D01*
X11804825Y-23098484D02*
X11823872Y-23108008D01*
X11823872Y-23108008D02*
X11833396Y-23117531D01*
X11833396Y-23117531D02*
X11842920Y-23136579D01*
X11842920Y-23136579D02*
X11852444Y-23174674D01*
X11852444Y-23174674D02*
X11852444Y-23222293D01*
X11852444Y-23222293D02*
X11842920Y-23260388D01*
X11842920Y-23260388D02*
X11833396Y-23279436D01*
X11833396Y-23279436D02*
X11823872Y-23288960D01*
X11823872Y-23288960D02*
X11804825Y-23298484D01*
X11804825Y-23298484D02*
X11785777Y-23298484D01*
X11785777Y-23298484D02*
X11766729Y-23288960D01*
X11766729Y-23288960D02*
X11757206Y-23279436D01*
X11757206Y-23279436D02*
X11747682Y-23260388D01*
X11747682Y-23260388D02*
X11738158Y-23222293D01*
X11738158Y-23222293D02*
X11738158Y-23174674D01*
X11738158Y-23174674D02*
X11747682Y-23136579D01*
X11747682Y-23136579D02*
X11757206Y-23117531D01*
X11757206Y-23117531D02*
X11766729Y-23108008D01*
X11766729Y-23108008D02*
X11785777Y-23098484D01*
X11928634Y-23098484D02*
X11928634Y-23136579D01*
X12004825Y-23098484D02*
X12004825Y-23136579D01*
X12300063Y-23374674D02*
X12290539Y-23365150D01*
X12290539Y-23365150D02*
X12271491Y-23336579D01*
X12271491Y-23336579D02*
X12261968Y-23317531D01*
X12261968Y-23317531D02*
X12252444Y-23288960D01*
X12252444Y-23288960D02*
X12242920Y-23241341D01*
X12242920Y-23241341D02*
X12242920Y-23203246D01*
X12242920Y-23203246D02*
X12252444Y-23155627D01*
X12252444Y-23155627D02*
X12261968Y-23127055D01*
X12261968Y-23127055D02*
X12271491Y-23108008D01*
X12271491Y-23108008D02*
X12290539Y-23079436D01*
X12290539Y-23079436D02*
X12300063Y-23069912D01*
X12366729Y-23117531D02*
X12376253Y-23108008D01*
X12376253Y-23108008D02*
X12395301Y-23098484D01*
X12395301Y-23098484D02*
X12442920Y-23098484D01*
X12442920Y-23098484D02*
X12461968Y-23108008D01*
X12461968Y-23108008D02*
X12471491Y-23117531D01*
X12471491Y-23117531D02*
X12481015Y-23136579D01*
X12481015Y-23136579D02*
X12481015Y-23155627D01*
X12481015Y-23155627D02*
X12471491Y-23184198D01*
X12471491Y-23184198D02*
X12357206Y-23298484D01*
X12357206Y-23298484D02*
X12481015Y-23298484D01*
X12719110Y-23298484D02*
X12719110Y-23098484D01*
X12804825Y-23298484D02*
X12804825Y-23193722D01*
X12804825Y-23193722D02*
X12795301Y-23174674D01*
X12795301Y-23174674D02*
X12776253Y-23165150D01*
X12776253Y-23165150D02*
X12747682Y-23165150D01*
X12747682Y-23165150D02*
X12728634Y-23174674D01*
X12728634Y-23174674D02*
X12719110Y-23184198D01*
X12928634Y-23298484D02*
X12909587Y-23288960D01*
X12909587Y-23288960D02*
X12900063Y-23279436D01*
X12900063Y-23279436D02*
X12890539Y-23260388D01*
X12890539Y-23260388D02*
X12890539Y-23203246D01*
X12890539Y-23203246D02*
X12900063Y-23184198D01*
X12900063Y-23184198D02*
X12909587Y-23174674D01*
X12909587Y-23174674D02*
X12928634Y-23165150D01*
X12928634Y-23165150D02*
X12957206Y-23165150D01*
X12957206Y-23165150D02*
X12976253Y-23174674D01*
X12976253Y-23174674D02*
X12985777Y-23184198D01*
X12985777Y-23184198D02*
X12995301Y-23203246D01*
X12995301Y-23203246D02*
X12995301Y-23260388D01*
X12995301Y-23260388D02*
X12985777Y-23279436D01*
X12985777Y-23279436D02*
X12976253Y-23288960D01*
X12976253Y-23288960D02*
X12957206Y-23298484D01*
X12957206Y-23298484D02*
X12928634Y-23298484D01*
X13109587Y-23298484D02*
X13090539Y-23288960D01*
X13090539Y-23288960D02*
X13081015Y-23269912D01*
X13081015Y-23269912D02*
X13081015Y-23098484D01*
X13261968Y-23288960D02*
X13242920Y-23298484D01*
X13242920Y-23298484D02*
X13204825Y-23298484D01*
X13204825Y-23298484D02*
X13185777Y-23288960D01*
X13185777Y-23288960D02*
X13176253Y-23269912D01*
X13176253Y-23269912D02*
X13176253Y-23193722D01*
X13176253Y-23193722D02*
X13185777Y-23174674D01*
X13185777Y-23174674D02*
X13204825Y-23165150D01*
X13204825Y-23165150D02*
X13242920Y-23165150D01*
X13242920Y-23165150D02*
X13261968Y-23174674D01*
X13261968Y-23174674D02*
X13271491Y-23193722D01*
X13271491Y-23193722D02*
X13271491Y-23212769D01*
X13271491Y-23212769D02*
X13176253Y-23231817D01*
X13347682Y-23288960D02*
X13366730Y-23298484D01*
X13366730Y-23298484D02*
X13404825Y-23298484D01*
X13404825Y-23298484D02*
X13423872Y-23288960D01*
X13423872Y-23288960D02*
X13433396Y-23269912D01*
X13433396Y-23269912D02*
X13433396Y-23260388D01*
X13433396Y-23260388D02*
X13423872Y-23241341D01*
X13423872Y-23241341D02*
X13404825Y-23231817D01*
X13404825Y-23231817D02*
X13376253Y-23231817D01*
X13376253Y-23231817D02*
X13357206Y-23222293D01*
X13357206Y-23222293D02*
X13347682Y-23203246D01*
X13347682Y-23203246D02*
X13347682Y-23193722D01*
X13347682Y-23193722D02*
X13357206Y-23174674D01*
X13357206Y-23174674D02*
X13376253Y-23165150D01*
X13376253Y-23165150D02*
X13404825Y-23165150D01*
X13404825Y-23165150D02*
X13423872Y-23174674D01*
X13500063Y-23374674D02*
X13509587Y-23365150D01*
X13509587Y-23365150D02*
X13528634Y-23336579D01*
X13528634Y-23336579D02*
X13538158Y-23317531D01*
X13538158Y-23317531D02*
X13547682Y-23288960D01*
X13547682Y-23288960D02*
X13557206Y-23241341D01*
X13557206Y-23241341D02*
X13557206Y-23203246D01*
X13557206Y-23203246D02*
X13547682Y-23155627D01*
X13547682Y-23155627D02*
X13538158Y-23127055D01*
X13538158Y-23127055D02*
X13528634Y-23108008D01*
X13528634Y-23108008D02*
X13509587Y-23079436D01*
X13509587Y-23079436D02*
X13500063Y-23069912D01*
M02*
