%TF.GenerationSoftware,KiCad,Pcbnew,7.0.9*%
%TF.CreationDate,2024-05-29T20:40:21+05:30*%
%TF.ProjectId,LU,4c552e6b-6963-4616-945f-706362585858,rev?*%
%TF.SameCoordinates,Original*%
%TF.FileFunction,Plated,1,2,PTH,Drill*%
%TF.FilePolarity,Positive*%
%FSLAX46Y46*%
G04 Gerber Fmt 4.6, Leading zero omitted, Abs format (unit mm)*
G04 Created by KiCad (PCBNEW 7.0.9) date 2024-05-29 20:40:21*
%MOMM*%
%LPD*%
G01*
G04 APERTURE LIST*
%TA.AperFunction,ViaDrill*%
%ADD10C,0.400000*%
%TD*%
%TA.AperFunction,ComponentDrill*%
%ADD11C,0.650000*%
%TD*%
%TA.AperFunction,ComponentDrill*%
%ADD12C,0.990600*%
%TD*%
%TA.AperFunction,ComponentDrill*%
%ADD13C,1.000000*%
%TD*%
%TA.AperFunction,ComponentDrill*%
%ADD14C,1.147520*%
%TD*%
%TA.AperFunction,ComponentDrill*%
%ADD15C,1.200000*%
%TD*%
%TA.AperFunction,ComponentDrill*%
%ADD16C,1.300000*%
%TD*%
%TA.AperFunction,ComponentDrill*%
%ADD17C,1.400000*%
%TD*%
%TA.AperFunction,ComponentDrill*%
%ADD18C,1.800000*%
%TD*%
%TA.AperFunction,ComponentDrill*%
%ADD19C,2.200000*%
%TD*%
%TA.AperFunction,ComponentDrill*%
%ADD20C,6.400000*%
%TD*%
G04 APERTURE END LIST*
D10*
X88500000Y-109000000D03*
X88500000Y-130500000D03*
X88500000Y-155000000D03*
X88870000Y-189480000D03*
X90950000Y-100500000D03*
X90950000Y-122650000D03*
X92180000Y-182440000D03*
X92240000Y-148240000D03*
X93830000Y-188030000D03*
X94000000Y-122650000D03*
X95500000Y-130000000D03*
X96500000Y-125000000D03*
X98671701Y-106449500D03*
X98800000Y-178800000D03*
X99349500Y-140000000D03*
X99349500Y-147000000D03*
X99400500Y-155750000D03*
X99500000Y-161000000D03*
X99500000Y-170500000D03*
X99625000Y-159875000D03*
X100250000Y-168750000D03*
X100250000Y-184000000D03*
X100744022Y-98299500D03*
X101000000Y-156000000D03*
X101170747Y-161199500D03*
X101200000Y-173200000D03*
X101250000Y-158500000D03*
X101311093Y-164525500D03*
X101400500Y-180000000D03*
X101500000Y-134000000D03*
X101500000Y-147000000D03*
X101750000Y-177500000D03*
X102500000Y-169000000D03*
X102750000Y-106890498D03*
X103000000Y-168000000D03*
X103400000Y-183400000D03*
X103500000Y-169000000D03*
X103600000Y-175400000D03*
X103800500Y-157065234D03*
X104000000Y-114000000D03*
X104000000Y-168000000D03*
X105750000Y-172500000D03*
X106200000Y-167200000D03*
X106225500Y-143000000D03*
X106250000Y-157500000D03*
X106250000Y-169937500D03*
X106353009Y-163706018D03*
X106500000Y-113500000D03*
X106800000Y-164600000D03*
X106800000Y-179980000D03*
X106900000Y-163000000D03*
X106975500Y-162000000D03*
X107000000Y-124500000D03*
X107000000Y-177250000D03*
X107224500Y-145500000D03*
X107500000Y-116500000D03*
X107550500Y-123000000D03*
X107750000Y-172500000D03*
X107800000Y-136100000D03*
X108179975Y-158337815D03*
X108200000Y-167400000D03*
X108224500Y-139000000D03*
X108400000Y-166400000D03*
X108500000Y-106750000D03*
X108600000Y-168400000D03*
X108600000Y-178120000D03*
X108821755Y-165493839D03*
X109000000Y-110000000D03*
X109000000Y-134380000D03*
X109149500Y-173000000D03*
X109300000Y-157800000D03*
X109500000Y-161250000D03*
X110000000Y-113000000D03*
X110000000Y-115000000D03*
X110400000Y-175400000D03*
X110500000Y-119500000D03*
X110540000Y-139460000D03*
X110750000Y-178845000D03*
X110750000Y-182287500D03*
X111000000Y-105750000D03*
X111500000Y-118000000D03*
X111500000Y-137250000D03*
X111500000Y-162250000D03*
X111512234Y-156087766D03*
X111750000Y-152500000D03*
X112000000Y-176250000D03*
X112500000Y-111500000D03*
X112500000Y-117000000D03*
X112500000Y-136500000D03*
X112675500Y-167600000D03*
X113000000Y-94250000D03*
X113000000Y-138500000D03*
X113238048Y-118735500D03*
X113250000Y-161000000D03*
X113500000Y-115500000D03*
X113500000Y-124500000D03*
X113500000Y-135500000D03*
X113500000Y-176750000D03*
X114000000Y-113000000D03*
X114000000Y-133000000D03*
X114500000Y-123000000D03*
X114640000Y-185910000D03*
X115000000Y-143000000D03*
X115200000Y-101100000D03*
X115750000Y-164742800D03*
X115750000Y-171595000D03*
X116000000Y-154000000D03*
X116000000Y-157845000D03*
X116000000Y-161287500D03*
X116000000Y-168287500D03*
X116000000Y-174000000D03*
X116000000Y-175037500D03*
X118360000Y-185950000D03*
X119100000Y-109400000D03*
X119200000Y-159800000D03*
X119200000Y-166600000D03*
X119200000Y-173600000D03*
X119300000Y-139300000D03*
X119700000Y-136600000D03*
X120200000Y-103200000D03*
X120250000Y-182500000D03*
X121500000Y-181000000D03*
X121800000Y-119900000D03*
X121800000Y-140900000D03*
X122000000Y-109200000D03*
X122600000Y-120700000D03*
X122675000Y-113000000D03*
X122675000Y-119000000D03*
X122675000Y-122000000D03*
X122800000Y-140700000D03*
X123000000Y-133000000D03*
X123000000Y-139500000D03*
X123000000Y-142000000D03*
X123200000Y-137000000D03*
X123300000Y-116900000D03*
X124750000Y-157500000D03*
X124750000Y-161500000D03*
X124750000Y-177500000D03*
X125250000Y-171000000D03*
X125500000Y-164250000D03*
X125500000Y-168500000D03*
X125500000Y-175250000D03*
X132950500Y-191640000D03*
X134470000Y-191530000D03*
X135730000Y-170360000D03*
X136200000Y-193600000D03*
X142500000Y-140600000D03*
X142600000Y-139600000D03*
X142600000Y-148500000D03*
X143000000Y-147600000D03*
X143400000Y-140600000D03*
X143500000Y-139600000D03*
X143500000Y-148500000D03*
X143900000Y-147600000D03*
X144300000Y-140600000D03*
X144400000Y-139600000D03*
X144400000Y-148500000D03*
X144800000Y-147600000D03*
X145200000Y-140600000D03*
X145300000Y-139600000D03*
X145300000Y-148500000D03*
X145700000Y-147600000D03*
X146100000Y-140600000D03*
X146200000Y-139600000D03*
X146200000Y-148500000D03*
X146600000Y-147600000D03*
X147000000Y-140600000D03*
X147100000Y-139600000D03*
X147100000Y-148500000D03*
X147500000Y-147600000D03*
X187000000Y-189000000D03*
X187000000Y-190200000D03*
X187000000Y-191400000D03*
X187000000Y-192600000D03*
X187000000Y-193800000D03*
X203600000Y-189000000D03*
X203600000Y-190200000D03*
X203600000Y-191400000D03*
X203600000Y-192600000D03*
X203600000Y-193800000D03*
X207000000Y-188000000D03*
X208200000Y-196600000D03*
X211200000Y-196400000D03*
X215000000Y-188000000D03*
D11*
%TO.C,J5*%
X105600000Y-125460000D03*
X105600000Y-126730000D03*
X105600000Y-128000000D03*
X105600000Y-129270000D03*
D12*
%TO.C,U4*%
X102608200Y-119500000D03*
X102608200Y-122040000D03*
X102608200Y-124580000D03*
X102608200Y-127120000D03*
D13*
%TO.C,J2*%
X90480000Y-96000000D03*
%TO.C,J1*%
X90500000Y-193900000D03*
X93000000Y-193900000D03*
%TO.C,J2*%
X93020000Y-96000000D03*
%TO.C,PS3*%
X100390000Y-190270000D03*
%TO.C,J4*%
X102000000Y-136190000D03*
X102000000Y-138960000D03*
X102000000Y-141730000D03*
X102000000Y-144500000D03*
%TO.C,J3*%
X102725000Y-95600000D03*
%TO.C,PS3*%
X102930000Y-190270000D03*
%TO.C,J4*%
X104840000Y-134805000D03*
X104840000Y-137575000D03*
X104840000Y-140345000D03*
X104840000Y-143115000D03*
X104840000Y-145885000D03*
%TO.C,J3*%
X105265000Y-95600000D03*
%TO.C,PS3*%
X105470000Y-190270000D03*
%TO.C,J3*%
X107805000Y-95600000D03*
X110345000Y-95600000D03*
%TO.C,PS3*%
X110550000Y-190270000D03*
X113090000Y-190270000D03*
%TO.C,PS1*%
X113860000Y-148700000D03*
%TO.C,PS3*%
X115630000Y-190270000D03*
%TO.C,PS1*%
X116400000Y-148700000D03*
%TO.C,PS2*%
X116920000Y-99600000D03*
%TO.C,PS3*%
X118170000Y-190270000D03*
%TO.C,PS1*%
X118940000Y-148700000D03*
%TO.C,PS2*%
X119460000Y-99600000D03*
X122000000Y-99600000D03*
%TO.C,PS1*%
X124020000Y-148700000D03*
X126560000Y-148700000D03*
%TO.C,PS2*%
X127080000Y-99600000D03*
%TO.C,PS1*%
X129100000Y-148700000D03*
%TO.C,PS2*%
X129620000Y-99600000D03*
%TO.C,PS1*%
X131640000Y-148700000D03*
%TO.C,PS2*%
X132160000Y-99600000D03*
X134700000Y-99600000D03*
D14*
%TO.C,Q1*%
X140000000Y-112000000D03*
X140000000Y-115200000D03*
X140000000Y-118400000D03*
X140000000Y-121600000D03*
X140000000Y-124800000D03*
X140000000Y-131200000D03*
X140000000Y-134400000D03*
X140000000Y-137600000D03*
X140000000Y-140800000D03*
X140000000Y-144000000D03*
X149600000Y-144000000D03*
X152800000Y-131200000D03*
X152800000Y-134400000D03*
X152800000Y-137600000D03*
X156000000Y-144000000D03*
X165600000Y-112000000D03*
X165600000Y-115200000D03*
X165600000Y-118400000D03*
X165600000Y-121600000D03*
X165600000Y-124800000D03*
X165600000Y-131200000D03*
X165600000Y-134400000D03*
X165600000Y-137600000D03*
X165600000Y-140800000D03*
X165600000Y-144000000D03*
D15*
%TO.C,C30*%
X140750000Y-162000000D03*
%TO.C,C31*%
X140750000Y-171000000D03*
%TO.C,C30*%
X163250000Y-162000000D03*
%TO.C,C31*%
X163250000Y-171000000D03*
%TO.C,C27*%
X173750000Y-98400000D03*
X173750000Y-120900000D03*
%TO.C,C28*%
X173750000Y-151400000D03*
X173750000Y-173900000D03*
%TO.C,C29*%
X212000000Y-97500000D03*
X212000000Y-112500000D03*
%TO.C,C32*%
X212000000Y-118500000D03*
X212000000Y-133500000D03*
D16*
%TO.C,D8*%
X173000000Y-130030000D03*
X173000000Y-145270000D03*
%TO.C,D7*%
X182000000Y-126030000D03*
X182000000Y-141270000D03*
D17*
%TO.C,R16*%
X181750000Y-153200000D03*
X181750000Y-173200000D03*
%TO.C,R7*%
X182000000Y-99650000D03*
X182000000Y-119650000D03*
D18*
%TO.C,L5*%
X195950000Y-149750000D03*
X195950000Y-157370000D03*
%TO.C,L6*%
X195950000Y-162740000D03*
X195950000Y-170360000D03*
%TO.C,L7*%
X195950000Y-175730000D03*
X195950000Y-183350000D03*
%TO.C,L1*%
X196000000Y-97790000D03*
X196000000Y-105410000D03*
%TO.C,L2*%
X196000000Y-110780000D03*
X196000000Y-118400000D03*
%TO.C,L3*%
X196000000Y-123770000D03*
X196000000Y-131390000D03*
%TO.C,L4*%
X196000000Y-136760000D03*
X196000000Y-144380000D03*
D19*
%TO.C,H8*%
X213000000Y-142000000D03*
%TO.C,H7*%
X213000000Y-151500000D03*
D20*
%TO.C,H6*%
X145000000Y-188500000D03*
%TO.C,H5*%
X160000000Y-188500000D03*
M02*
