%TF.GenerationSoftware,KiCad,Pcbnew,7.0.9*%
%TF.CreationDate,2024-05-31T16:15:56+05:30*%
%TF.ProjectId,LU,4c552e6b-6963-4616-945f-706362585858,v1.0*%
%TF.SameCoordinates,Original*%
%TF.FileFunction,Plated,1,2,PTH,Drill*%
%TF.FilePolarity,Positive*%
%FSLAX46Y46*%
G04 Gerber Fmt 4.6, Leading zero omitted, Abs format (unit mm)*
G04 Created by KiCad (PCBNEW 7.0.9) date 2024-05-31 16:15:56*
%MOMM*%
%LPD*%
G01*
G04 APERTURE LIST*
%TA.AperFunction,ViaDrill*%
%ADD10C,0.400000*%
%TD*%
%TA.AperFunction,ComponentDrill*%
%ADD11C,0.650000*%
%TD*%
%TA.AperFunction,ComponentDrill*%
%ADD12C,0.990600*%
%TD*%
%TA.AperFunction,ComponentDrill*%
%ADD13C,1.000000*%
%TD*%
%TA.AperFunction,ComponentDrill*%
%ADD14C,1.147520*%
%TD*%
%TA.AperFunction,ComponentDrill*%
%ADD15C,1.200000*%
%TD*%
%TA.AperFunction,ComponentDrill*%
%ADD16C,1.300000*%
%TD*%
%TA.AperFunction,ComponentDrill*%
%ADD17C,1.400000*%
%TD*%
%TA.AperFunction,ComponentDrill*%
%ADD18C,1.800000*%
%TD*%
%TA.AperFunction,ComponentDrill*%
%ADD19C,2.200000*%
%TD*%
%TA.AperFunction,ComponentDrill*%
%ADD20C,6.400000*%
%TD*%
G04 APERTURE END LIST*
D10*
X13680000Y-28760000D03*
X13680000Y-50260000D03*
X13680000Y-74760000D03*
X14050000Y-109240000D03*
X16130000Y-20260000D03*
X16130000Y-42410000D03*
X17360000Y-102200000D03*
X17420000Y-68000000D03*
X19010000Y-107790000D03*
X19180000Y-42410000D03*
X20680000Y-49760000D03*
X21680000Y-44760000D03*
X23851701Y-26209500D03*
X23980000Y-98560000D03*
X24529500Y-59760000D03*
X24529500Y-66760000D03*
X24580500Y-75510000D03*
X24680000Y-80760000D03*
X24680000Y-90260000D03*
X24805000Y-79635000D03*
X25430000Y-88510000D03*
X25430000Y-103760000D03*
X25924022Y-18059500D03*
X26180000Y-75760000D03*
X26350747Y-80959500D03*
X26380000Y-92960000D03*
X26430000Y-78260000D03*
X26491093Y-84285500D03*
X26580500Y-99760000D03*
X26680000Y-53760000D03*
X26680000Y-66760000D03*
X26930000Y-97260000D03*
X27680000Y-88760000D03*
X27930000Y-26650498D03*
X28180000Y-87760000D03*
X28580000Y-103160000D03*
X28680000Y-88760000D03*
X28780000Y-95160000D03*
X28980500Y-76825234D03*
X29180000Y-33760000D03*
X29180000Y-87760000D03*
X30930000Y-92260000D03*
X31380000Y-86960000D03*
X31405500Y-62760000D03*
X31430000Y-77260000D03*
X31430000Y-89697500D03*
X31533009Y-83466018D03*
X31680000Y-33260000D03*
X31980000Y-84360000D03*
X31980000Y-99740000D03*
X32080000Y-82760000D03*
X32155500Y-81760000D03*
X32180000Y-44260000D03*
X32180000Y-97010000D03*
X32404500Y-65260000D03*
X32680000Y-36260000D03*
X32730500Y-42760000D03*
X32930000Y-92260000D03*
X32980000Y-55860000D03*
X33359975Y-78097815D03*
X33380000Y-87160000D03*
X33404500Y-58760000D03*
X33580000Y-86160000D03*
X33680000Y-26510000D03*
X33780000Y-88160000D03*
X33780000Y-97880000D03*
X34001755Y-85253839D03*
X34180000Y-29760000D03*
X34180000Y-54140000D03*
X34329500Y-92760000D03*
X34480000Y-77560000D03*
X34680000Y-81010000D03*
X35180000Y-32760000D03*
X35180000Y-34760000D03*
X35580000Y-95160000D03*
X35680000Y-39260000D03*
X35720000Y-59220000D03*
X35930000Y-98605000D03*
X35930000Y-102047500D03*
X36180000Y-25510000D03*
X36680000Y-37760000D03*
X36680000Y-57010000D03*
X36680000Y-82010000D03*
X36692234Y-75847766D03*
X36930000Y-72260000D03*
X37180000Y-96010000D03*
X37680000Y-31260000D03*
X37680000Y-36760000D03*
X37680000Y-56260000D03*
X37855500Y-87360000D03*
X38180000Y-14010000D03*
X38180000Y-58260000D03*
X38418048Y-38495500D03*
X38430000Y-80760000D03*
X38680000Y-35260000D03*
X38680000Y-44260000D03*
X38680000Y-55260000D03*
X38680000Y-96510000D03*
X39180000Y-32760000D03*
X39180000Y-52760000D03*
X39680000Y-42760000D03*
X39820000Y-105670000D03*
X40180000Y-62760000D03*
X40380000Y-20860000D03*
X40930000Y-84502800D03*
X40930000Y-91355000D03*
X41180000Y-73760000D03*
X41180000Y-77605000D03*
X41180000Y-81047500D03*
X41180000Y-88047500D03*
X41180000Y-93760000D03*
X41180000Y-94797500D03*
X43540000Y-105710000D03*
X44280000Y-29160000D03*
X44380000Y-79560000D03*
X44380000Y-86360000D03*
X44380000Y-93360000D03*
X44480000Y-59060000D03*
X44880000Y-56360000D03*
X45380000Y-22960000D03*
X45430000Y-102260000D03*
X46680000Y-100760000D03*
X46980000Y-39660000D03*
X46980000Y-60660000D03*
X47180000Y-28960000D03*
X47780000Y-40460000D03*
X47855000Y-32760000D03*
X47855000Y-38760000D03*
X47855000Y-41760000D03*
X47980000Y-60460000D03*
X48180000Y-52760000D03*
X48180000Y-59260000D03*
X48180000Y-61760000D03*
X48380000Y-56760000D03*
X48480000Y-36660000D03*
X49930000Y-77260000D03*
X49930000Y-81260000D03*
X49930000Y-97260000D03*
X50430000Y-90760000D03*
X50680000Y-84010000D03*
X50680000Y-88260000D03*
X50680000Y-95010000D03*
X58130500Y-111400000D03*
X59650000Y-111290000D03*
X60910000Y-90120000D03*
X61380000Y-113360000D03*
X67680000Y-60360000D03*
X67780000Y-59360000D03*
X67780000Y-68260000D03*
X68180000Y-67360000D03*
X68580000Y-60360000D03*
X68680000Y-59360000D03*
X68680000Y-68260000D03*
X69080000Y-67360000D03*
X69480000Y-60360000D03*
X69580000Y-59360000D03*
X69580000Y-68260000D03*
X69980000Y-67360000D03*
X70380000Y-60360000D03*
X70480000Y-59360000D03*
X70480000Y-68260000D03*
X70880000Y-67360000D03*
X71280000Y-60360000D03*
X71380000Y-59360000D03*
X71380000Y-68260000D03*
X71780000Y-67360000D03*
X72180000Y-60360000D03*
X72280000Y-59360000D03*
X72280000Y-68260000D03*
X72680000Y-67360000D03*
X112180000Y-108760000D03*
X112180000Y-109960000D03*
X112180000Y-111160000D03*
X112180000Y-112360000D03*
X112180000Y-113560000D03*
X128780000Y-108760000D03*
X128780000Y-109960000D03*
X128780000Y-111160000D03*
X128780000Y-112360000D03*
X128780000Y-113560000D03*
X132180000Y-107760000D03*
X133380000Y-116360000D03*
X138300000Y-116010000D03*
X140180000Y-107760000D03*
D11*
%TO.C,J5*%
X30780000Y-45220000D03*
X30780000Y-46490000D03*
X30780000Y-47760000D03*
X30780000Y-49030000D03*
D12*
%TO.C,U4*%
X27788200Y-39260000D03*
X27788200Y-41800000D03*
X27788200Y-44340000D03*
X27788200Y-46880000D03*
D13*
%TO.C,J2*%
X15660000Y-15760000D03*
%TO.C,J1*%
X15680000Y-113660000D03*
X18180000Y-113660000D03*
%TO.C,J2*%
X18200000Y-15760000D03*
%TO.C,PS3*%
X25570000Y-110030000D03*
%TO.C,J4*%
X27180000Y-55950000D03*
X27180000Y-58720000D03*
X27180000Y-61490000D03*
X27180000Y-64260000D03*
%TO.C,J3*%
X27905000Y-15360000D03*
%TO.C,PS3*%
X28110000Y-110030000D03*
%TO.C,J4*%
X30020000Y-54565000D03*
X30020000Y-57335000D03*
X30020000Y-60105000D03*
X30020000Y-62875000D03*
X30020000Y-65645000D03*
%TO.C,J3*%
X30445000Y-15360000D03*
%TO.C,PS3*%
X30650000Y-110030000D03*
%TO.C,J3*%
X32985000Y-15360000D03*
X35525000Y-15360000D03*
%TO.C,PS3*%
X35730000Y-110030000D03*
X38270000Y-110030000D03*
%TO.C,PS1*%
X39040000Y-68460000D03*
%TO.C,PS3*%
X40810000Y-110030000D03*
%TO.C,PS1*%
X41580000Y-68460000D03*
%TO.C,PS2*%
X42100000Y-19360000D03*
%TO.C,PS3*%
X43350000Y-110030000D03*
%TO.C,PS1*%
X44120000Y-68460000D03*
%TO.C,PS2*%
X44640000Y-19360000D03*
X47180000Y-19360000D03*
%TO.C,PS1*%
X49200000Y-68460000D03*
X51740000Y-68460000D03*
%TO.C,PS2*%
X52260000Y-19360000D03*
%TO.C,PS1*%
X54280000Y-68460000D03*
%TO.C,PS2*%
X54800000Y-19360000D03*
%TO.C,PS1*%
X56820000Y-68460000D03*
%TO.C,PS2*%
X57340000Y-19360000D03*
X59880000Y-19360000D03*
D14*
%TO.C,Q1*%
X65180000Y-31760000D03*
X65180000Y-34960000D03*
X65180000Y-38160000D03*
X65180000Y-41360000D03*
X65180000Y-44560000D03*
X65180000Y-50960000D03*
X65180000Y-54160000D03*
X65180000Y-57360000D03*
X65180000Y-60560000D03*
X65180000Y-63760000D03*
X74780000Y-63760000D03*
X77980000Y-50960000D03*
X77980000Y-54160000D03*
X77980000Y-57360000D03*
X81180000Y-63760000D03*
X90780000Y-31760000D03*
X90780000Y-34960000D03*
X90780000Y-38160000D03*
X90780000Y-41360000D03*
X90780000Y-44560000D03*
X90780000Y-50960000D03*
X90780000Y-54160000D03*
X90780000Y-57360000D03*
X90780000Y-60560000D03*
X90780000Y-63760000D03*
D15*
%TO.C,C30*%
X65930000Y-81760000D03*
%TO.C,C31*%
X65930000Y-90760000D03*
%TO.C,C30*%
X88430000Y-81760000D03*
%TO.C,C31*%
X88430000Y-90760000D03*
%TO.C,C27*%
X98930000Y-18160000D03*
X98930000Y-40660000D03*
%TO.C,C28*%
X98930000Y-71160000D03*
X98930000Y-93660000D03*
%TO.C,C29*%
X137180000Y-17260000D03*
X137180000Y-32260000D03*
%TO.C,C32*%
X137180000Y-38260000D03*
X137180000Y-53260000D03*
D16*
%TO.C,D8*%
X98180000Y-49790000D03*
X98180000Y-65030000D03*
%TO.C,D7*%
X107180000Y-45790000D03*
X107180000Y-61030000D03*
D17*
%TO.C,R16*%
X106930000Y-72960000D03*
X106930000Y-92960000D03*
%TO.C,R7*%
X107180000Y-19410000D03*
X107180000Y-39410000D03*
D18*
%TO.C,L5*%
X121130000Y-69510000D03*
X121130000Y-77130000D03*
%TO.C,L6*%
X121130000Y-82500000D03*
X121130000Y-90120000D03*
%TO.C,L7*%
X121130000Y-95490000D03*
X121130000Y-103110000D03*
%TO.C,L1*%
X121180000Y-17550000D03*
X121180000Y-25170000D03*
%TO.C,L2*%
X121180000Y-30540000D03*
X121180000Y-38160000D03*
%TO.C,L3*%
X121180000Y-43530000D03*
X121180000Y-51150000D03*
%TO.C,L4*%
X121180000Y-56520000D03*
X121180000Y-64140000D03*
D19*
%TO.C,H8*%
X138180000Y-61760000D03*
%TO.C,H7*%
X138180000Y-71260000D03*
D20*
%TO.C,H6*%
X70180000Y-108260000D03*
%TO.C,H5*%
X85180000Y-108260000D03*
M02*
